<?xml version="1.0" encoding="UTF-8" standalone="no"?>
<!DOCTYPE svg PUBLIC "-//W3C//DTD SVG 1.1//EN"
 "http://www.w3.org/Graphics/SVG/1.1/DTD/svg11.dtd">
<!-- Generated by graphviz version 2.46.1 (20210215.1649)
 -->
<!-- Title: omega Pages: 1 -->
<!--zoomable 569 -->
<svg id="main" version="1.1" xmlns="http://www.w3.org/2000/svg" xmlns:xlink="http://www.w3.org/1999/xlink" xml:space="preserve" onload="init(evt)">
<style type="text/css"><![CDATA[
.edge:hover path { stroke: red; }
.edge:hover polygon { stroke: red; fill: red; }
]]></style>
<script type="text/javascript"><![CDATA[
var edges = document.getElementsByTagName('g');
if (edges && edges.length) {
  for (var i=0;i<edges.length;i++) {
    if (edges[i].id.substr(0,4)=='edge') {
      edges[i].setAttribute('class','edge');
    }
  }
}
]]></script>
        <defs>
                <circle id="rim" cx="0" cy="0" r="7"/>
                <circle id="rim2" cx="0" cy="0" r="3.5"/>
                <g id="zoomPlus">
                        <use xlink:href="#rim" fill="#404040">
                                <set attributeName="fill" to="#808080" begin="zoomplus.mouseover" end="zoomplus.mouseout"/>
                        </use>
                        <path d="M-4,0h8M0,-4v8" fill="none" stroke="white" stroke-width="1.5" pointer-events="none"/>
                </g>
                <g id="zoomMin">
                        <use xlink:href="#rim" fill="#404040">
                                <set attributeName="fill" to="#808080" begin="zoomminus.mouseover" end="zoomminus.mouseout"/>
                        </use>
                        <path d="M-4,0h8" fill="none" stroke="white" stroke-width="1.5" pointer-events="none"/>
                </g>
                <g id="dirArrow">
                        <path fill="none" stroke="white" stroke-width="1.5" d="M0,-3.0v7 M-2.5,-0.5L0,-3.0L2.5,-0.5"/>
                </g>
               <g id="resetDef">
                       <use xlink:href="#rim2" fill="#404040">
                               <set attributeName="fill" to="#808080" begin="reset.mouseover" end="reset.mouseout"/>
                       </use>
               </g>
        </defs>

<script type="text/javascript">
var viewWidth = 965;
var viewHeight = 569;
var sectionId = 'dynsection-16';
</script>
<script xlink:href="svgpan.js"/>
<svg id="graph" class="graph">
<g id="viewport">
<title>omega</title>
<polygon fill="white" stroke="transparent" points="-4,4 -4,-564.56 961,-564.56 961,4 -4,4"/>
<!-- Node1 -->
<g id="node1" class="node">
<title>Node1</title>
<g id="a_node1"><a xlink:title=" ">
<polygon fill="#bfbfbf" stroke="black" points="911,-239.06 911,-258.06 957,-258.06 957,-239.06 911,-239.06"/>
<text text-anchor="middle" x="934" y="-246.06" font-family="Helvetica,sans-Serif" font-size="10.00">omega</text>
</a>
</g>
</g>
<!-- Node2 -->
<g id="node2" class="node">
<title>Node2</title>
<g id="a_node2"><a xlink:href="namespacextb__thermo.html#af50ef594ad7b37063580e1a3252ff394" target="_top" xlink:title=" ">
<polygon fill="white" stroke="black" points="747,-455.06 747,-474.06 872,-474.06 872,-455.06 747,-455.06"/>
<text text-anchor="middle" x="809.5" y="-462.06" font-family="Helvetica,sans-Serif" font-size="10.00">xtb_thermo::chg_inverted</text>
</a>
</g>
</g>
<!-- Node1&#45;&gt;Node2 -->
<g id="edge1" class="edge">
<title>Node1&#45;&gt;Node2</title>
<path fill="none" stroke="midnightblue" d="M930.53,-268.16C925.4,-302.21 910.92,-373.18 875,-420.56 863.53,-435.68 845.32,-447.42 831.17,-454.96"/>
<polygon fill="midnightblue" stroke="midnightblue" points="934.01,-268.5 931.93,-258.11 927.08,-267.53 934.01,-268.5"/>
</g>
<!-- Node12 -->
<g id="node12" class="node">
<title>Node12</title>
<g id="a_node12"><a xlink:href="namespacextb__thermo.html#aaa47df99dc1cc5df8a31b24a16c506b8" target="_top" xlink:title=" ">
<polygon fill="white" stroke="black" points="744,-392.06 744,-411.06 875,-411.06 875,-392.06 744,-392.06"/>
<text text-anchor="middle" x="809.5" y="-399.06" font-family="Helvetica,sans-Serif" font-size="10.00">xtb_thermo::chg_switching</text>
</a>
</g>
</g>
<!-- Node1&#45;&gt;Node12 -->
<g id="edge12" class="edge">
<title>Node1&#45;&gt;Node12</title>
<path fill="none" stroke="midnightblue" d="M926.96,-267.71C918.52,-292.08 901.2,-334.36 875,-362.56 863.15,-375.3 846.21,-385.33 832.66,-392.03"/>
<polygon fill="midnightblue" stroke="midnightblue" points="930.3,-268.77 930.13,-258.18 923.65,-266.57 930.3,-268.77"/>
</g>
<!-- Node17 -->
<g id="node17" class="node">
<title>Node17</title>
<g id="a_node17"><a xlink:href="constr_8f90.html#a2cfab52e470deba30f00fa894d9a783f" target="_top" xlink:title=" ">
<polygon fill="white" stroke="black" points="780,-334.06 780,-353.06 839,-353.06 839,-334.06 780,-334.06"/>
<text text-anchor="middle" x="809.5" y="-341.06" font-family="Helvetica,sans-Serif" font-size="10.00">domegadr</text>
</a>
</g>
</g>
<!-- Node1&#45;&gt;Node17 -->
<g id="edge21" class="edge">
<title>Node1&#45;&gt;Node17</title>
<path fill="none" stroke="midnightblue" d="M921.88,-267.1C911.52,-282.98 894.72,-305.44 875,-319.56 864.31,-327.2 850.9,-332.71 839.08,-336.5"/>
<polygon fill="midnightblue" stroke="midnightblue" points="925.11,-268.53 927.47,-258.2 919.19,-264.81 925.11,-268.53"/>
</g>
<!-- Node18 -->
<g id="node18" class="node">
<title>Node18</title>
<g id="a_node18"><a xlink:href="namespacextb__gfnff__eg.html#a3f350a33f3f17790d4a231524334fd89" target="_top" xlink:title=" ">
<polygon fill="white" stroke="black" points="593,-259.06 593,-278.06 694,-278.06 694,-259.06 593,-259.06"/>
<text text-anchor="middle" x="643.5" y="-266.06" font-family="Helvetica,sans-Serif" font-size="10.00">xtb_gfnff_eg::egtors</text>
</a>
</g>
</g>
<!-- Node1&#45;&gt;Node18 -->
<g id="edge37" class="edge">
<title>Node1&#45;&gt;Node18</title>
<path fill="none" stroke="midnightblue" d="M914.63,-264.6C903.87,-272.91 889.56,-282.21 875,-286.56 806.34,-307.04 721.37,-290.21 676.21,-278.14"/>
<polygon fill="midnightblue" stroke="midnightblue" points="916.88,-267.28 922.43,-258.26 912.47,-261.84 916.88,-267.28"/>
</g>
<!-- Node19 -->
<g id="node19" class="node">
<title>Node19</title>
<g id="a_node19"><a xlink:href="namespacextb__gfnff__eg.html#a3c6317a91da8d6eb6e333fdb8ee1f3d9" target="_top" xlink:title=" ">
<polygon fill="white" stroke="black" points="435,-163.06 435,-182.06 543,-182.06 543,-163.06 435,-163.06"/>
<text text-anchor="middle" x="489" y="-170.06" font-family="Helvetica,sans-Serif" font-size="10.00">xtb_gfnff_eg::gfnff_eg</text>
</a>
</g>
</g>
<!-- Node1&#45;&gt;Node19 -->
<g id="edge43" class="edge">
<title>Node1&#45;&gt;Node19</title>
<path fill="none" stroke="midnightblue" d="M931.3,-229C927.42,-197.9 914.89,-137.98 875,-111.56 820.17,-75.22 641.83,-92.09 579,-111.56 546.26,-121.7 514.85,-148.51 499.6,-162.98"/>
<polygon fill="midnightblue" stroke="midnightblue" points="927.83,-229.47 932.37,-239.04 934.79,-228.73 927.83,-229.47"/>
</g>
<!-- Node24 -->
<g id="node24" class="node">
<title>Node24</title>
<g id="a_node24"><a xlink:href="namespacextb__gfnff__eg.html#afdd45ff3015127dd8ede0b1930fb4a6a" target="_top" xlink:title=" ">
<polygon fill="white" stroke="black" points="757,-45.06 757,-64.06 862,-64.06 862,-45.06 757,-45.06"/>
<text text-anchor="middle" x="809.5" y="-52.06" font-family="Helvetica,sans-Serif" font-size="10.00">xtb_gfnff_eg::egbend</text>
</a>
</g>
</g>
<!-- Node1&#45;&gt;Node24 -->
<g id="edge29" class="edge">
<title>Node1&#45;&gt;Node24</title>
<path fill="none" stroke="midnightblue" d="M931.64,-228.71C928.2,-193.77 916.22,-120.93 875,-78.56 868.83,-72.22 860.84,-67.54 852.6,-64.09"/>
<polygon fill="midnightblue" stroke="midnightblue" points="928.18,-229.34 932.51,-239.02 935.15,-228.76 928.18,-229.34"/>
</g>
<!-- Node25 -->
<g id="node25" class="node">
<title>Node25</title>
<g id="a_node25"><a xlink:href="namespacextb__gfnff__eg.html#ac4893e77f20471a0b00aac264b5090b3" target="_top" xlink:title=" ">
<polygon fill="white" stroke="black" points="748,-220.06 748,-239.06 871,-239.06 871,-220.06 748,-220.06"/>
<text text-anchor="middle" x="809.5" y="-227.06" font-family="Helvetica,sans-Serif" font-size="10.00">xtb_gfnff_eg::egbend_nci</text>
</a>
</g>
</g>
<!-- Node1&#45;&gt;Node25 -->
<g id="edge31" class="edge">
<title>Node1&#45;&gt;Node25</title>
<path fill="none" stroke="midnightblue" d="M900.69,-243.54C891.57,-242.13 881.33,-240.54 871.12,-238.96"/>
<polygon fill="midnightblue" stroke="midnightblue" points="900.4,-247.04 910.82,-245.11 901.47,-240.12 900.4,-247.04"/>
</g>
<!-- Node27 -->
<g id="node27" class="node">
<title>Node27</title>
<g id="a_node27"><a xlink:href="namespacextb__gfnff__eg.html#a0772d7bbd5499d6ba3a2ec3ed5dc18f6" target="_top" xlink:title=" ">
<polygon fill="white" stroke="black" points="757,-121.56 757,-151.56 862,-151.56 862,-121.56 757,-121.56"/>
<text text-anchor="start" x="765" y="-139.56" font-family="Helvetica,sans-Serif" font-size="10.00">xtb_gfnff_eg::egbend</text>
<text text-anchor="middle" x="809.5" y="-128.56" font-family="Helvetica,sans-Serif" font-size="10.00">_nci_mul</text>
</a>
</g>
</g>
<!-- Node1&#45;&gt;Node27 -->
<g id="edge33" class="edge">
<title>Node1&#45;&gt;Node27</title>
<path fill="none" stroke="midnightblue" d="M924.92,-229.69C915.58,-209.91 898.41,-179.18 875,-160.56 870.7,-157.13 865.86,-154.17 860.82,-151.6"/>
<polygon fill="midnightblue" stroke="midnightblue" points="921.78,-231.24 929.09,-238.91 928.16,-228.35 921.78,-231.24"/>
</g>
<!-- Node30 -->
<g id="node30" class="node">
<title>Node30</title>
<g id="a_node30"><a xlink:href="namespacextb__gfnff__eg.html#a514108220880bca278c1800f27237a4a" target="_top" xlink:title=" ">
<polygon fill="white" stroke="black" points="750,-258.06 750,-277.06 869,-277.06 869,-258.06 750,-258.06"/>
<text text-anchor="middle" x="809.5" y="-265.06" font-family="Helvetica,sans-Serif" font-size="10.00">xtb_gfnff_eg::egtors_nci</text>
</a>
</g>
</g>
<!-- Node1&#45;&gt;Node30 -->
<g id="edge38" class="edge">
<title>Node1&#45;&gt;Node30</title>
<path fill="none" stroke="midnightblue" d="M900.79,-253.55C891.02,-255.07 879.97,-256.78 869.03,-258.48"/>
<polygon fill="midnightblue" stroke="midnightblue" points="901.47,-256.99 910.82,-252 900.4,-250.07 901.47,-256.99"/>
</g>
<!-- Node31 -->
<g id="node31" class="node">
<title>Node31</title>
<g id="a_node31"><a xlink:href="namespacextb__gfnff__eg.html#aa69db4968d8352d5ef43c52c26ad5660" target="_top" xlink:title=" ">
<polygon fill="white" stroke="black" points="759,-170.56 759,-200.56 860,-200.56 860,-170.56 759,-170.56"/>
<text text-anchor="start" x="767" y="-188.56" font-family="Helvetica,sans-Serif" font-size="10.00">xtb_gfnff_eg::egtors</text>
<text text-anchor="middle" x="809.5" y="-177.56" font-family="Helvetica,sans-Serif" font-size="10.00">_nci_mul</text>
</a>
</g>
</g>
<!-- Node1&#45;&gt;Node31 -->
<g id="edge40" class="edge">
<title>Node1&#45;&gt;Node31</title>
<path fill="none" stroke="midnightblue" d="M911.82,-233.14C901.11,-225.74 887.71,-217.09 875,-210.56 868.06,-206.99 860.48,-203.62 853.04,-200.58"/>
<polygon fill="midnightblue" stroke="midnightblue" points="909.93,-236.08 920.12,-238.98 913.96,-230.36 909.93,-236.08"/>
</g>
<!-- Node32 -->
<g id="node32" class="node">
<title>Node32</title>
<g id="a_node32"><a xlink:href="rmrottr_8f90.html#a8410de6f08d67a46b50d40ee4bf83b93" target="_top" xlink:title=" ">
<polygon fill="white" stroke="black" points="787,-520.06 787,-539.06 832,-539.06 832,-520.06 787,-520.06"/>
<text text-anchor="middle" x="809.5" y="-527.06" font-family="Helvetica,sans-Serif" font-size="10.00">rmrottr</text>
</a>
</g>
</g>
<!-- Node1&#45;&gt;Node32 -->
<g id="edge44" class="edge">
<title>Node1&#45;&gt;Node32</title>
<path fill="none" stroke="midnightblue" d="M932.62,-268.49C930.91,-311.5 921.82,-414.63 875,-483.56 864.03,-499.71 845.38,-512.1 830.95,-519.93"/>
<polygon fill="midnightblue" stroke="midnightblue" points="936.12,-268.58 932.93,-258.47 929.13,-268.36 936.12,-268.58"/>
</g>
<!-- Node35 -->
<g id="node35" class="node">
<title>Node35</title>
<g id="a_node35"><a xlink:href="namespacextb__scc__core.html#a3e0e142b640924088ca8b0ab266dd5e0" target="_top" xlink:title="self consistent charge iterator">
<polygon fill="white" stroke="black" points="596,-7.06 596,-26.06 691,-26.06 691,-7.06 596,-7.06"/>
<text text-anchor="middle" x="643.5" y="-14.06" font-family="Helvetica,sans-Serif" font-size="10.00">xtb_scc_core::scc</text>
</a>
</g>
</g>
<!-- Node1&#45;&gt;Node35 -->
<g id="edge49" class="edge">
<title>Node1&#45;&gt;Node35</title>
<path fill="none" stroke="midnightblue" d="M930.53,-228.95C924.07,-181.12 905.08,-60.56 875,-35.56 822.05,8.47 736.6,2.03 685.95,-7.01"/>
<polygon fill="midnightblue" stroke="midnightblue" points="927.07,-229.5 931.84,-238.96 934.01,-228.59 927.07,-229.5"/>
</g>
<!-- Node3 -->
<g id="node3" class="node">
<title>Node3</title>
<g id="a_node3"><a xlink:href="namespacextb__propertyoutput.html#ab05c73b07c03d7c638d4f33e9c488cf8" target="_top" xlink:title=" ">
<polygon fill="white" stroke="black" points="586,-498.56 586,-528.56 701,-528.56 701,-498.56 586,-498.56"/>
<text text-anchor="start" x="594" y="-516.56" font-family="Helvetica,sans-Serif" font-size="10.00">xtb_propertyoutput</text>
<text text-anchor="middle" x="643.5" y="-505.56" font-family="Helvetica,sans-Serif" font-size="10.00">::print_thermo_sthr_lnq</text>
</a>
</g>
</g>
<!-- Node2&#45;&gt;Node3 -->
<g id="edge2" class="edge">
<title>Node2&#45;&gt;Node3</title>
<path fill="none" stroke="midnightblue" d="M766.82,-477.01C744.91,-483.55 717.89,-491.63 694.83,-498.52"/>
<polygon fill="midnightblue" stroke="midnightblue" points="767.91,-480.34 776.49,-474.12 765.91,-473.63 767.91,-480.34"/>
</g>
<!-- Node4 -->
<g id="node4" class="node">
<title>Node4</title>
<g id="a_node4"><a xlink:href="namespacextb__propertyoutput.html#af4ab9588482fd5bebb0dc92661c49b44" target="_top" xlink:title=" ">
<polygon fill="white" stroke="black" points="588.5,-449.56 588.5,-479.56 698.5,-479.56 698.5,-449.56 588.5,-449.56"/>
<text text-anchor="start" x="596.5" y="-467.56" font-family="Helvetica,sans-Serif" font-size="10.00">xtb_propertyoutput</text>
<text text-anchor="middle" x="643.5" y="-456.56" font-family="Helvetica,sans-Serif" font-size="10.00">::print_thermo_sthr_ts</text>
</a>
</g>
</g>
<!-- Node2&#45;&gt;Node4 -->
<g id="edge3" class="edge">
<title>Node2&#45;&gt;Node4</title>
<path fill="none" stroke="midnightblue" d="M736.78,-464.56C723.95,-464.56 710.79,-464.56 698.56,-464.56"/>
<polygon fill="midnightblue" stroke="midnightblue" points="736.97,-468.06 746.97,-464.56 736.97,-461.06 736.97,-468.06"/>
</g>
<!-- Node5 -->
<g id="node5" class="node">
<title>Node5</title>
<g id="a_node5"><a xlink:href="namespacextb__propertyoutput.html#aa250913f1797598da5324c3d57611005" target="_top" xlink:title=" ">
<polygon fill="white" stroke="black" points="441,-398.56 441,-428.56 537,-428.56 537,-398.56 441,-398.56"/>
<text text-anchor="start" x="449" y="-416.56" font-family="Helvetica,sans-Serif" font-size="10.00">xtb_propertyoutput</text>
<text text-anchor="middle" x="489" y="-405.56" font-family="Helvetica,sans-Serif" font-size="10.00">::print_thermo</text>
</a>
</g>
</g>
<!-- Node4&#45;&gt;Node5 -->
<g id="edge4" class="edge">
<title>Node4&#45;&gt;Node5</title>
<path fill="none" stroke="midnightblue" d="M588.08,-446.36C570.64,-440.53 551.55,-434.14 534.87,-428.56"/>
<polygon fill="midnightblue" stroke="midnightblue" points="586.98,-449.68 597.57,-449.53 589.2,-443.04 586.98,-449.68"/>
</g>
<!-- Node6 -->
<g id="node6" class="node">
<title>Node6</title>
<g id="a_node6"><a xlink:href="namespacextb__propertyoutput.html#ad782985a4e00b53e23bb10b09058997c" target="_top" xlink:title=" ">
<polygon fill="white" stroke="black" points="300.5,-442.56 300.5,-472.56 396.5,-472.56 396.5,-442.56 300.5,-442.56"/>
<text text-anchor="start" x="308.5" y="-460.56" font-family="Helvetica,sans-Serif" font-size="10.00">xtb_propertyoutput</text>
<text text-anchor="middle" x="348.5" y="-449.56" font-family="Helvetica,sans-Serif" font-size="10.00">::main_freq</text>
</a>
</g>
</g>
<!-- Node5&#45;&gt;Node6 -->
<g id="edge5" class="edge">
<title>Node5&#45;&gt;Node6</title>
<path fill="none" stroke="midnightblue" d="M430.85,-431.71C419.44,-435.34 407.58,-439.1 396.56,-442.6"/>
<polygon fill="midnightblue" stroke="midnightblue" points="432.25,-434.94 440.72,-428.57 430.13,-428.27 432.25,-434.94"/>
</g>
<!-- Node9 -->
<g id="node9" class="node">
<title>Node9</title>
<g id="a_node9"><a xlink:href="TESTSUITE_2thermo_8f90.html#a2311074eb38e16a7d479e8e28b792361" target="_top" xlink:title=" ">
<polygon fill="white" stroke="black" points="302.5,-352.06 302.5,-371.06 394.5,-371.06 394.5,-352.06 302.5,-352.06"/>
<text text-anchor="middle" x="348.5" y="-359.06" font-family="Helvetica,sans-Serif" font-size="10.00">test_print_thermo</text>
</a>
</g>
</g>
<!-- Node5&#45;&gt;Node9 -->
<g id="edge8" class="edge">
<title>Node5&#45;&gt;Node9</title>
<path fill="none" stroke="midnightblue" d="M438.32,-394.9C416.91,-386.86 392.77,-377.8 375.07,-371.15"/>
<polygon fill="midnightblue" stroke="midnightblue" points="437.35,-398.28 447.94,-398.51 439.81,-391.72 437.35,-398.28"/>
</g>
<!-- Node11 -->
<g id="node11" class="node">
<title>Node11</title>
<g id="a_node11"><a xlink:href="namespacextb__prog__thermo.html#adb2b1af9c4536efaa8d399da0c89d209" target="_top" xlink:title="Main program of the thermo submodule.">
<polygon fill="white" stroke="black" points="126,-419.06 126,-438.06 262,-438.06 262,-419.06 126,-419.06"/>
<text text-anchor="middle" x="194" y="-426.06" font-family="Helvetica,sans-Serif" font-size="10.00">xtb_prog_thermo::xtbthermo</text>
</a>
</g>
</g>
<!-- Node5&#45;&gt;Node11 -->
<g id="edge10" class="edge">
<title>Node5&#45;&gt;Node11</title>
<path fill="none" stroke="midnightblue" d="M430.64,-416.49C382.3,-418.97 313.08,-422.51 262.16,-425.12"/>
<polygon fill="midnightblue" stroke="midnightblue" points="431.12,-419.97 440.92,-415.97 430.76,-412.98 431.12,-419.97"/>
</g>
<!-- Node7 -->
<g id="node7" class="node">
<title>Node7</title>
<g id="a_node7"><a xlink:href="namespacextb__prog__main.html#a92b3b61ee04235e6343f652095682529" target="_top" xlink:title=" ">
<polygon fill="white" stroke="black" points="135,-472.06 135,-491.06 253,-491.06 253,-472.06 135,-472.06"/>
<text text-anchor="middle" x="194" y="-479.06" font-family="Helvetica,sans-Serif" font-size="10.00">xtb_prog_main::xtbmain</text>
</a>
</g>
</g>
<!-- Node6&#45;&gt;Node7 -->
<g id="edge6" class="edge">
<title>Node6&#45;&gt;Node7</title>
<path fill="none" stroke="midnightblue" d="M290.11,-466.59C278.02,-468.49 265.25,-470.5 253.13,-472.41"/>
<polygon fill="midnightblue" stroke="midnightblue" points="290.75,-470.03 300.08,-465.02 289.66,-463.11 290.75,-470.03"/>
</g>
<!-- Node8 -->
<g id="node8" class="node">
<title>Node8</title>
<g id="a_node8"><a xlink:href="primary_8f90.html#a2a67903cf5be605c5b6d3c362c6a3c5c" target="_top" xlink:title="The primary driver for the xtb program package.">
<polygon fill="white" stroke="black" points="0,-441.06 0,-460.06 90,-460.06 90,-441.06 0,-441.06"/>
<text text-anchor="middle" x="45" y="-448.06" font-family="Helvetica,sans-Serif" font-size="10.00">xtb_prog_primary</text>
</a>
</g>
</g>
<!-- Node7&#45;&gt;Node8 -->
<g id="edge7" class="edge">
<title>Node7&#45;&gt;Node8</title>
<path fill="none" stroke="midnightblue" d="M137.59,-469.87C121.92,-466.56 105.07,-463.01 90.15,-459.87"/>
<polygon fill="midnightblue" stroke="midnightblue" points="137.19,-473.36 147.7,-472 138.63,-466.51 137.19,-473.36"/>
</g>
<!-- Node10 -->
<g id="node10" class="node">
<title>Node10</title>
<g id="a_node10"><a xlink:href="tests__peeq_8f90.html#a87ff5319e0d2e627a4f71d7df0d14891" target="_top" xlink:title=" ">
<polygon fill="white" stroke="black" points="160,-203.06 160,-222.06 228,-222.06 228,-203.06 160,-203.06"/>
<text text-anchor="middle" x="194" y="-210.06" font-family="Helvetica,sans-Serif" font-size="10.00">peeq_tester</text>
</a>
</g>
</g>
<!-- Node9&#45;&gt;Node10 -->
<g id="edge9" class="edge">
<title>Node9&#45;&gt;Node10</title>
<path fill="none" stroke="midnightblue" d="M330.14,-344.59C298,-313.19 230.2,-246.95 204.84,-222.17"/>
<polygon fill="midnightblue" stroke="midnightblue" points="327.9,-347.29 337.49,-351.78 332.79,-342.29 327.9,-347.29"/>
</g>
<!-- Node11&#45;&gt;Node8 -->
<g id="edge11" class="edge">
<title>Node11&#45;&gt;Node8</title>
<path fill="none" stroke="midnightblue" d="M119.43,-439.57C109.46,-441.06 99.49,-442.55 90.25,-443.93"/>
<polygon fill="midnightblue" stroke="midnightblue" points="120.01,-443.02 129.38,-438.08 118.97,-436.1 120.01,-443.02"/>
</g>
<!-- Node12&#45;&gt;Node3 -->
<g id="edge15" class="edge">
<title>Node12&#45;&gt;Node3</title>
<path fill="none" stroke="midnightblue" d="M783.1,-416.49C770.69,-424.37 755.9,-434.65 744,-445.56 725.37,-462.63 728.52,-474.81 708,-489.56 703.31,-492.93 698.09,-495.89 692.71,-498.47"/>
<polygon fill="midnightblue" stroke="midnightblue" points="784.98,-419.44 791.64,-411.2 781.3,-413.49 784.98,-419.44"/>
</g>
<!-- Node12&#45;&gt;Node4 -->
<g id="edge16" class="edge">
<title>Node12&#45;&gt;Node4</title>
<path fill="none" stroke="midnightblue" d="M774.01,-414.81C747.62,-424.94 711.21,-438.93 683.72,-449.49"/>
<polygon fill="midnightblue" stroke="midnightblue" points="775.51,-417.98 783.59,-411.12 773,-411.44 775.51,-417.98"/>
</g>
<!-- Node13 -->
<g id="node13" class="node">
<title>Node13</title>
<g id="a_node13"><a xlink:href="namespacextb__thermo.html#a3fb6db9d7faae3155841d1c2385abe67" target="_top" xlink:title=" ">
<polygon fill="white" stroke="black" points="587,-411.06 587,-430.06 700,-430.06 700,-411.06 587,-411.06"/>
<text text-anchor="middle" x="643.5" y="-418.06" font-family="Helvetica,sans-Serif" font-size="10.00">xtb_thermo::lnqvibmod</text>
</a>
</g>
</g>
<!-- Node12&#45;&gt;Node13 -->
<g id="edge13" class="edge">
<title>Node12&#45;&gt;Node13</title>
<path fill="none" stroke="midnightblue" d="M733.45,-410.25C722.23,-411.55 710.83,-412.87 700.11,-414.11"/>
<polygon fill="midnightblue" stroke="midnightblue" points="734.15,-413.69 743.68,-409.06 733.35,-406.74 734.15,-413.69"/>
</g>
<!-- Node14 -->
<g id="node14" class="node">
<title>Node14</title>
<g id="a_node14"><a xlink:href="namespacextb__thermo.html#ad6ca7c6a05627f3a93a4eb4272260189" target="_top" xlink:title=" ">
<polygon fill="white" stroke="black" points="587.5,-335.06 587.5,-354.06 699.5,-354.06 699.5,-335.06 587.5,-335.06"/>
<text text-anchor="middle" x="643.5" y="-342.06" font-family="Helvetica,sans-Serif" font-size="10.00">xtb_thermo::oldthermo</text>
</a>
</g>
</g>
<!-- Node12&#45;&gt;Node14 -->
<g id="edge14" class="edge">
<title>Node12&#45;&gt;Node14</title>
<path fill="none" stroke="midnightblue" d="M775.36,-388.35C755.87,-380.75 730.67,-371.22 708,-363.56 698.3,-360.27 687.67,-356.98 677.93,-354.07"/>
<polygon fill="midnightblue" stroke="midnightblue" points="774.12,-391.62 784.71,-392.02 776.68,-385.11 774.12,-391.62"/>
</g>
<!-- Node15 -->
<g id="node15" class="node">
<title>Node15</title>
<g id="a_node15"><a xlink:href="namespacextb__thermo.html#a2bc496861f25686ce7adee4c0d886777" target="_top" xlink:title=" ">
<polygon fill="white" stroke="black" points="586.5,-373.06 586.5,-392.06 700.5,-392.06 700.5,-373.06 586.5,-373.06"/>
<text text-anchor="middle" x="643.5" y="-380.06" font-family="Helvetica,sans-Serif" font-size="10.00">xtb_thermo::thermodyn</text>
</a>
</g>
</g>
<!-- Node12&#45;&gt;Node15 -->
<g id="edge17" class="edge">
<title>Node12&#45;&gt;Node15</title>
<path fill="none" stroke="midnightblue" d="M733.58,-392.88C722.5,-391.59 711.24,-390.29 700.63,-389.06"/>
<polygon fill="midnightblue" stroke="midnightblue" points="733.35,-396.37 743.68,-394.05 734.15,-389.42 733.35,-396.37"/>
</g>
<!-- Node15&#45;&gt;Node5 -->
<g id="edge18" class="edge">
<title>Node15&#45;&gt;Node5</title>
<path fill="none" stroke="midnightblue" d="M585.27,-394.19C569.39,-397.42 552.33,-400.88 537.11,-403.98"/>
<polygon fill="midnightblue" stroke="midnightblue" points="586.4,-397.53 595.5,-392.11 585,-390.67 586.4,-397.53"/>
</g>
<!-- Node16 -->
<g id="node16" class="node">
<title>Node16</title>
<g id="a_node16"><a xlink:href="TESTSUITE_2thermo_8f90.html#a160584aab23feea2451ed5391e6e4ebf" target="_top" xlink:title=" ">
<polygon fill="white" stroke="black" points="443,-354.06 443,-373.06 535,-373.06 535,-354.06 443,-354.06"/>
<text text-anchor="middle" x="489" y="-361.06" font-family="Helvetica,sans-Serif" font-size="10.00">test_thermo_calc</text>
</a>
</g>
</g>
<!-- Node15&#45;&gt;Node16 -->
<g id="edge19" class="edge">
<title>Node15&#45;&gt;Node16</title>
<path fill="none" stroke="midnightblue" d="M576.17,-374.29C562.33,-372.57 548.04,-370.79 535.18,-369.18"/>
<polygon fill="midnightblue" stroke="midnightblue" points="575.79,-377.77 586.15,-375.53 576.66,-370.82 575.79,-377.77"/>
</g>
<!-- Node16&#45;&gt;Node10 -->
<g id="edge20" class="edge">
<title>Node16&#45;&gt;Node10</title>
<path fill="none" stroke="midnightblue" d="M460.07,-349.16C400.76,-318.59 263.57,-247.89 213.62,-222.15"/>
<polygon fill="midnightblue" stroke="midnightblue" points="458.73,-352.41 469.23,-353.88 461.94,-346.19 458.73,-352.41"/>
</g>
<!-- Node17&#45;&gt;Node18 -->
<g id="edge22" class="edge">
<title>Node17&#45;&gt;Node18</title>
<path fill="none" stroke="midnightblue" d="M770.34,-332.02C761.4,-328.6 752.12,-324.44 744,-319.56 725.65,-308.52 726.7,-297.98 708,-287.56 701.17,-283.74 693.48,-280.62 685.88,-278.08"/>
<polygon fill="midnightblue" stroke="midnightblue" points="769.25,-335.34 779.84,-335.43 771.62,-328.76 769.25,-335.34"/>
</g>
<!-- Node22 -->
<g id="node22" class="node">
<title>Node22</title>
<g id="a_node22"><a xlink:href="namespacextb__qmdff.html#ac139343f2e6ae2ee08a1074c9ca536c9" target="_top" xlink:title=" ">
<polygon fill="white" stroke="black" points="601.5,-297.06 601.5,-316.06 685.5,-316.06 685.5,-297.06 601.5,-297.06"/>
<text text-anchor="middle" x="643.5" y="-304.06" font-family="Helvetica,sans-Serif" font-size="10.00">xtb_qmdff::ff_eg</text>
</a>
</g>
</g>
<!-- Node17&#45;&gt;Node22 -->
<g id="edge27" class="edge">
<title>Node17&#45;&gt;Node22</title>
<path fill="none" stroke="midnightblue" d="M769.94,-334.86C744.61,-329.14 711.49,-321.67 685.65,-315.84"/>
<polygon fill="midnightblue" stroke="midnightblue" points="769.41,-338.32 779.93,-337.11 770.95,-331.5 769.41,-338.32"/>
</g>
<!-- Node18&#45;&gt;Node19 -->
<g id="edge23" class="edge">
<title>Node18&#45;&gt;Node19</title>
<path fill="none" stroke="midnightblue" d="M591.56,-255.44C587.21,-253.69 582.97,-251.73 579,-249.56 545.33,-231.07 513.11,-198.21 498.38,-182.06"/>
<polygon fill="midnightblue" stroke="midnightblue" points="590.57,-258.8 601.16,-258.96 592.97,-252.23 590.57,-258.8"/>
</g>
<!-- Node20 -->
<g id="node20" class="node">
<title>Node20</title>
<g id="a_node20"><a xlink:href="namespacextb__gfnff__calculator.html#a8775e737196933e41e48728956ddf782" target="_top" xlink:title=" ">
<polygon fill="white" stroke="black" points="298,-153.56 298,-183.56 399,-183.56 399,-153.56 298,-153.56"/>
<text text-anchor="start" x="306" y="-171.56" font-family="Helvetica,sans-Serif" font-size="10.00">xtb_gfnff_calculator</text>
<text text-anchor="middle" x="348.5" y="-160.56" font-family="Helvetica,sans-Serif" font-size="10.00">::singlepoint</text>
</a>
</g>
</g>
<!-- Node19&#45;&gt;Node20 -->
<g id="edge24" class="edge">
<title>Node19&#45;&gt;Node20</title>
<path fill="none" stroke="midnightblue" d="M424.81,-170.73C416.19,-170.48 407.44,-170.23 399.1,-169.99"/>
<polygon fill="midnightblue" stroke="midnightblue" points="424.75,-174.23 434.85,-171.02 424.95,-167.23 424.75,-174.23"/>
</g>
<!-- Node21 -->
<g id="node21" class="node">
<title>Node21</title>
<g id="a_node21"><a xlink:href="gfnff_8f90.html#a3debb77ee35e9cf115d69ef59490c6c5" target="_top" xlink:title=" ">
<polygon fill="white" stroke="black" points="312,-203.06 312,-222.06 385,-222.06 385,-203.06 312,-203.06"/>
<text text-anchor="middle" x="348.5" y="-210.06" font-family="Helvetica,sans-Serif" font-size="10.00">test_gfnff_sp</text>
</a>
</g>
</g>
<!-- Node19&#45;&gt;Node21 -->
<g id="edge25" class="edge">
<title>Node19&#45;&gt;Node21</title>
<path fill="none" stroke="midnightblue" d="M445.22,-184.91C424.98,-190.76 401.2,-197.62 382.4,-203.05"/>
<polygon fill="midnightblue" stroke="midnightblue" points="446.19,-188.27 454.83,-182.14 444.25,-181.55 446.19,-188.27"/>
</g>
<!-- Node21&#45;&gt;Node10 -->
<g id="edge26" class="edge">
<title>Node21&#45;&gt;Node10</title>
<path fill="none" stroke="midnightblue" d="M301.6,-212.56C277.96,-212.56 249.68,-212.56 228.18,-212.56"/>
<polygon fill="midnightblue" stroke="midnightblue" points="301.75,-216.06 311.75,-212.56 301.75,-209.06 301.75,-216.06"/>
</g>
<!-- Node23 -->
<g id="node23" class="node">
<title>Node23</title>
<g id="a_node23"><a xlink:href="namespacextb__type__dummycalc.html#a28a36738c316fb4a0655328844e94957" target="_top" xlink:title=" ">
<polygon fill="white" stroke="black" points="435.5,-291.56 435.5,-321.56 542.5,-321.56 542.5,-291.56 435.5,-291.56"/>
<text text-anchor="start" x="443.5" y="-309.56" font-family="Helvetica,sans-Serif" font-size="10.00">xtb_type_dummycalc</text>
<text text-anchor="middle" x="489" y="-298.56" font-family="Helvetica,sans-Serif" font-size="10.00">::singlepoint</text>
</a>
</g>
</g>
<!-- Node22&#45;&gt;Node23 -->
<g id="edge28" class="edge">
<title>Node22&#45;&gt;Node23</title>
<path fill="none" stroke="midnightblue" d="M591.19,-306.56C575.52,-306.56 558.26,-306.56 542.51,-306.56"/>
<polygon fill="midnightblue" stroke="midnightblue" points="591.23,-310.06 601.23,-306.56 591.23,-303.06 591.23,-310.06"/>
</g>
<!-- Node24&#45;&gt;Node19 -->
<g id="edge30" class="edge">
<title>Node24&#45;&gt;Node19</title>
<path fill="none" stroke="midnightblue" d="M746.65,-49.7C698.54,-48.52 631.38,-52.71 579,-78.56 539.3,-98.15 508,-143.25 495.68,-163"/>
<polygon fill="midnightblue" stroke="midnightblue" points="746.81,-53.21 756.92,-50.04 747.04,-46.21 746.81,-53.21"/>
</g>
<!-- Node26 -->
<g id="node26" class="node">
<title>Node26</title>
<g id="a_node26"><a xlink:href="namespacextb__gfnff__eg.html#a249f6d9c62394b50a1f8cca4389819c3" target="_top" xlink:title=" ">
<polygon fill="white" stroke="black" points="589.5,-209.56 589.5,-239.56 697.5,-239.56 697.5,-209.56 589.5,-209.56"/>
<text text-anchor="start" x="597.5" y="-227.56" font-family="Helvetica,sans-Serif" font-size="10.00">xtb_gfnff_eg::abhgfnff</text>
<text text-anchor="middle" x="643.5" y="-216.56" font-family="Helvetica,sans-Serif" font-size="10.00">_eg3_add</text>
</a>
</g>
</g>
<!-- Node25&#45;&gt;Node26 -->
<g id="edge32" class="edge">
<title>Node25&#45;&gt;Node26</title>
<path fill="none" stroke="midnightblue" d="M737.7,-227.4C724.24,-226.99 710.36,-226.56 697.56,-226.17"/>
<polygon fill="midnightblue" stroke="midnightblue" points="737.8,-230.9 747.9,-227.71 738.01,-223.9 737.8,-230.9"/>
</g>
<!-- Node28 -->
<g id="node28" class="node">
<title>Node28</title>
<g id="a_node28"><a xlink:href="namespacextb__gfnff__eg.html#ac21efbb550b6edae8c66215658f3e721" target="_top" xlink:title=" ">
<polygon fill="white" stroke="black" points="579,-171.06 579,-190.06 708,-190.06 708,-171.06 579,-171.06"/>
<text text-anchor="middle" x="643.5" y="-178.06" font-family="Helvetica,sans-Serif" font-size="10.00">xtb_gfnff_eg::abhgfnff_eg3</text>
</a>
</g>
</g>
<!-- Node27&#45;&gt;Node28 -->
<g id="edge34" class="edge">
<title>Node27&#45;&gt;Node28</title>
<path fill="none" stroke="midnightblue" d="M746.76,-153.12C724.21,-159.17 699.48,-165.81 679.98,-171.04"/>
<polygon fill="midnightblue" stroke="midnightblue" points="747.86,-156.45 756.61,-150.48 746.04,-149.69 747.86,-156.45"/>
</g>
<!-- Node29 -->
<g id="node29" class="node">
<title>Node29</title>
<g id="a_node29"><a xlink:href="namespacextb__gfnff__eg.html#a96f44d5568fa1a8f5911e6c4534b33a1" target="_top" xlink:title=" ">
<polygon fill="white" stroke="black" points="589.5,-121.56 589.5,-151.56 697.5,-151.56 697.5,-121.56 589.5,-121.56"/>
<text text-anchor="start" x="597.5" y="-139.56" font-family="Helvetica,sans-Serif" font-size="10.00">xtb_gfnff_eg::abhgfnff</text>
<text text-anchor="middle" x="643.5" y="-128.56" font-family="Helvetica,sans-Serif" font-size="10.00">_eg3_mul</text>
</a>
</g>
</g>
<!-- Node27&#45;&gt;Node29 -->
<g id="edge36" class="edge">
<title>Node27&#45;&gt;Node29</title>
<path fill="none" stroke="midnightblue" d="M746.28,-136.56C730.29,-136.56 713.24,-136.56 697.75,-136.56"/>
<polygon fill="midnightblue" stroke="midnightblue" points="746.61,-140.06 756.61,-136.56 746.61,-133.06 746.61,-140.06"/>
</g>
<!-- Node28&#45;&gt;Node19 -->
<g id="edge35" class="edge">
<title>Node28&#45;&gt;Node19</title>
<path fill="none" stroke="midnightblue" d="M568.72,-176.69C560.18,-176.24 551.59,-175.79 543.39,-175.36"/>
<polygon fill="midnightblue" stroke="midnightblue" points="568.54,-180.18 578.71,-177.21 568.91,-173.19 568.54,-180.18"/>
</g>
<!-- Node30&#45;&gt;Node26 -->
<g id="edge39" class="edge">
<title>Node30&#45;&gt;Node26</title>
<path fill="none" stroke="midnightblue" d="M762.24,-255.43C742.12,-250.15 718.44,-243.94 697.6,-238.48"/>
<polygon fill="midnightblue" stroke="midnightblue" points="761.54,-258.86 772.1,-258.01 763.32,-252.09 761.54,-258.86"/>
</g>
<!-- Node31&#45;&gt;Node28 -->
<g id="edge41" class="edge">
<title>Node31&#45;&gt;Node28</title>
<path fill="none" stroke="midnightblue" d="M748.54,-183.73C735.42,-183.33 721.5,-182.9 708.25,-182.5"/>
<polygon fill="midnightblue" stroke="midnightblue" points="748.75,-187.24 758.85,-184.04 748.96,-180.24 748.75,-187.24"/>
</g>
<!-- Node31&#45;&gt;Node29 -->
<g id="edge42" class="edge">
<title>Node31&#45;&gt;Node29</title>
<path fill="none" stroke="midnightblue" d="M749.14,-167.82C731.34,-162.5 711.99,-156.72 694.83,-151.59"/>
<polygon fill="midnightblue" stroke="midnightblue" points="748.27,-171.21 758.85,-170.72 750.27,-164.5 748.27,-171.21"/>
</g>
<!-- Node33 -->
<g id="node33" class="node">
<title>Node33</title>
<g id="a_node33"><a xlink:href="namespacextb__dynamic.html#adbb00c924fbe26c7a6945fed202881e1" target="_top" xlink:title=" ">
<polygon fill="white" stroke="black" points="444.5,-541.06 444.5,-560.06 533.5,-560.06 533.5,-541.06 444.5,-541.06"/>
<text text-anchor="middle" x="489" y="-548.06" font-family="Helvetica,sans-Serif" font-size="10.00">xtb_dynamic::md</text>
</a>
</g>
</g>
<!-- Node32&#45;&gt;Node33 -->
<g id="edge45" class="edge">
<title>Node32&#45;&gt;Node33</title>
<path fill="none" stroke="midnightblue" d="M776.94,-532.66C757.15,-534.54 731.1,-536.89 708,-538.56 647.7,-542.91 577.91,-546.5 533.87,-548.58"/>
<polygon fill="midnightblue" stroke="midnightblue" points="777.33,-536.14 786.95,-531.7 776.66,-529.17 777.33,-536.14"/>
</g>
<!-- Node33&#45;&gt;Node7 -->
<g id="edge48" class="edge">
<title>Node33&#45;&gt;Node7</title>
<path fill="none" stroke="midnightblue" d="M433.7,-550.17C395.18,-548.68 342.61,-544.18 298,-531.56 265.1,-522.25 229.92,-502.87 210.37,-491.17"/>
<polygon fill="midnightblue" stroke="midnightblue" points="434.07,-553.68 444.18,-550.51 434.3,-546.69 434.07,-553.68"/>
</g>
<!-- Node34 -->
<g id="node34" class="node">
<title>Node34</title>
<g id="a_node34"><a xlink:href="namespacextb__gfnff__convert.html#adf399b47b9f2a8364327d9d5c38cb2b8" target="_top" xlink:title=" ">
<polygon fill="white" stroke="black" points="301,-491.56 301,-521.56 396,-521.56 396,-491.56 301,-491.56"/>
<text text-anchor="start" x="309" y="-509.56" font-family="Helvetica,sans-Serif" font-size="10.00">xtb_gfnff_convert::</text>
<text text-anchor="middle" x="348.5" y="-498.56" font-family="Helvetica,sans-Serif" font-size="10.00">struc_convert</text>
</a>
</g>
</g>
<!-- Node33&#45;&gt;Node34 -->
<g id="edge46" class="edge">
<title>Node33&#45;&gt;Node34</title>
<path fill="none" stroke="midnightblue" d="M448.21,-537.91C431.94,-532.75 413.02,-526.73 396.11,-521.36"/>
<polygon fill="midnightblue" stroke="midnightblue" points="447.36,-541.32 457.95,-541.01 449.48,-534.64 447.36,-541.32"/>
</g>
<!-- Node34&#45;&gt;Node7 -->
<g id="edge47" class="edge">
<title>Node34&#45;&gt;Node7</title>
<path fill="none" stroke="midnightblue" d="M290.8,-497.26C278.51,-495.25 265.5,-493.11 253.16,-491.09"/>
<polygon fill="midnightblue" stroke="midnightblue" points="290.48,-500.75 300.92,-498.92 291.61,-493.85 290.48,-500.75"/>
</g>
<!-- Node36 -->
<g id="node36" class="node">
<title>Node36</title>
<g id="a_node36"><a xlink:href="namespacextb__scc__core.html#a242df5f670f054274ad6af4fc5b68a7c" target="_top" xlink:title=" ">
<polygon fill="white" stroke="black" points="435,-45.06 435,-64.06 543,-64.06 543,-45.06 435,-45.06"/>
<text text-anchor="middle" x="489" y="-52.06" font-family="Helvetica,sans-Serif" font-size="10.00">xtb_scc_core::electro</text>
</a>
</g>
</g>
<!-- Node35&#45;&gt;Node36 -->
<g id="edge50" class="edge">
<title>Node35&#45;&gt;Node36</title>
<path fill="none" stroke="midnightblue" d="M585.86,-24.12C559.11,-30.22 528.91,-38.36 509.68,-44.94"/>
<polygon fill="midnightblue" stroke="midnightblue" points="586.91,-27.47 595.92,-21.89 585.4,-20.64 586.91,-27.47"/>
</g>
<!-- Node37 -->
<g id="node37" class="node">
<title>Node37</title>
<g id="a_node37"><a xlink:href="namespacextb__scf.html#a7390c40a38032c3d210c39edecfa49ed" target="_top" xlink:title=" ">
<polygon fill="white" stroke="black" points="456,-7.06 456,-26.06 522,-26.06 522,-7.06 456,-7.06"/>
<text text-anchor="middle" x="489" y="-14.06" font-family="Helvetica,sans-Serif" font-size="10.00">xtb_scf::scf</text>
</a>
</g>
</g>
<!-- Node35&#45;&gt;Node37 -->
<g id="edge52" class="edge">
<title>Node35&#45;&gt;Node37</title>
<path fill="none" stroke="midnightblue" d="M585.63,-16.56C564.24,-16.56 540.68,-16.56 522.29,-16.56"/>
<polygon fill="midnightblue" stroke="midnightblue" points="585.92,-20.06 595.92,-16.56 585.92,-13.06 585.92,-20.06"/>
</g>
<!-- Node36&#45;&gt;Node35 -->
<g id="edge51" class="edge">
<title>Node36&#45;&gt;Node35</title>
<path fill="none" stroke="midnightblue" d="M553.15,-45.48C578.2,-39.58 605.19,-32.2 622.88,-26.15"/>
<polygon fill="midnightblue" stroke="midnightblue" points="552.27,-42.09 543.31,-47.74 553.84,-48.91 552.27,-42.09"/>
</g>
<!-- Node38 -->
<g id="node38" class="node">
<title>Node38</title>
<g id="a_node38"><a xlink:href="namespacextb__xtb__calculator.html#a75c96263c235c99dfeeda3e865f9898c" target="_top" xlink:title=" ">
<polygon fill="white" stroke="black" points="301,-45.56 301,-75.56 396,-75.56 396,-45.56 301,-45.56"/>
<text text-anchor="start" x="309" y="-63.56" font-family="Helvetica,sans-Serif" font-size="10.00">xtb_xtb_calculator</text>
<text text-anchor="middle" x="348.5" y="-52.56" font-family="Helvetica,sans-Serif" font-size="10.00">::singlepoint</text>
</a>
</g>
</g>
<!-- Node37&#45;&gt;Node38 -->
<g id="edge53" class="edge">
<title>Node37&#45;&gt;Node38</title>
<path fill="none" stroke="midnightblue" d="M448.21,-29.2C431.94,-34.36 413.02,-40.38 396.11,-45.75"/>
<polygon fill="midnightblue" stroke="midnightblue" points="449.48,-32.47 457.95,-26.1 447.36,-25.79 449.48,-32.47"/>
</g>
<!-- Node39 -->
<g id="node39" class="node">
<title>Node39</title>
<g id="a_node39"><a xlink:href="TESTSUITE_2gfn1_8f90.html#ab5cc37cef2d483d9d9cde17aa03c55a8" target="_top" xlink:title=" ">
<polygon fill="white" stroke="black" points="309.5,-7.06 309.5,-26.06 387.5,-26.06 387.5,-7.06 309.5,-7.06"/>
<text text-anchor="middle" x="348.5" y="-14.06" font-family="Helvetica,sans-Serif" font-size="10.00">test_gfn1_scc</text>
</a>
</g>
</g>
<!-- Node37&#45;&gt;Node39 -->
<g id="edge54" class="edge">
<title>Node37&#45;&gt;Node39</title>
<path fill="none" stroke="midnightblue" d="M445.66,-16.56C427.15,-16.56 405.6,-16.56 387.6,-16.56"/>
<polygon fill="midnightblue" stroke="midnightblue" points="445.88,-20.06 455.88,-16.56 445.88,-13.06 445.88,-20.06"/>
</g>
<!-- Node40 -->
<g id="node40" class="node">
<title>Node40</title>
<g id="a_node40"><a xlink:href="TESTSUITE_2gfn2_8f90.html#af47afba0207cbca2dc950fb5e339ce03" target="_top" xlink:title=" ">
<polygon fill="white" stroke="black" points="309.5,-99.06 309.5,-118.06 387.5,-118.06 387.5,-99.06 309.5,-99.06"/>
<text text-anchor="middle" x="348.5" y="-106.06" font-family="Helvetica,sans-Serif" font-size="10.00">test_gfn2_scc</text>
</a>
</g>
</g>
<!-- Node37&#45;&gt;Node40 -->
<g id="edge56" class="edge">
<title>Node37&#45;&gt;Node40</title>
<path fill="none" stroke="midnightblue" d="M446.71,-28.55C442.57,-30.57 438.58,-32.89 435,-35.56 413.34,-51.71 419.77,-67.26 399,-84.56 391.95,-90.42 383.23,-95.26 375.08,-99.02"/>
<polygon fill="midnightblue" stroke="midnightblue" points="448.08,-31.77 455.9,-24.62 445.33,-25.33 448.08,-31.77"/>
</g>
<!-- Node39&#45;&gt;Node10 -->
<g id="edge55" class="edge">
<title>Node39&#45;&gt;Node10</title>
<path fill="none" stroke="midnightblue" d="M304.32,-30.95C302.09,-32.35 299.96,-33.88 298,-35.56 240.6,-84.41 207.63,-173.73 198,-203"/>
<polygon fill="midnightblue" stroke="midnightblue" points="306.14,-33.94 313.31,-26.14 302.84,-27.77 306.14,-33.94"/>
</g>
<!-- Node40&#45;&gt;Node10 -->
<g id="edge57" class="edge">
<title>Node40&#45;&gt;Node10</title>
<path fill="none" stroke="midnightblue" d="M325.16,-123.79C293.25,-145.55 235.57,-184.89 209.04,-202.98"/>
<polygon fill="midnightblue" stroke="midnightblue" points="327.14,-126.68 333.43,-118.15 323.19,-120.9 327.14,-126.68"/>
</g>
</g>
</svg>
        <g id="navigator" transform="translate(0 0)" fill="#404254">
                <rect fill="#f2f5e9" fill-opacity="0.5" stroke="#606060" stroke-width=".5" x="0" y="0" width="60" height="60"/>
                <use id="zoomplus" xlink:href="#zoomPlus" x="17" y="9" onmousedown="handleZoom(evt,'in')"/>
                <use id="zoomminus" xlink:href="#zoomMin" x="42" y="9" onmousedown="handleZoom(evt,'out')"/>
                <use id="reset" xlink:href="#resetDef" x="30" y="36" onmousedown="handleReset()"/>
                <g id="arrowUp" xlink:href="#dirArrow" transform="translate(30 24)" onmousedown="handlePan(0,-1)">
                  <use xlink:href="#rim" fill="#404040">
                        <set attributeName="fill" to="#808080" begin="arrowUp.mouseover" end="arrowUp.mouseout"/>
                  </use>
                  <path fill="none" stroke="white" stroke-width="1.5" d="M0,-3.0v7 M-2.5,-0.5L0,-3.0L2.5,-0.5"/>
                </g>
                <g id="arrowRight" xlink:href="#dirArrow" transform="rotate(90) translate(36 -43)" onmousedown="handlePan(1,0)">
                  <use xlink:href="#rim" fill="#404040">
                        <set attributeName="fill" to="#808080" begin="arrowRight.mouseover" end="arrowRight.mouseout"/>
                  </use>
                  <path fill="none" stroke="white" stroke-width="1.5" d="M0,-3.0v7 M-2.5,-0.5L0,-3.0L2.5,-0.5"/>
                </g>
                <g id="arrowDown" xlink:href="#dirArrow" transform="rotate(180) translate(-30 -48)" onmousedown="handlePan(0,1)">
                  <use xlink:href="#rim" fill="#404040">
                        <set attributeName="fill" to="#808080" begin="arrowDown.mouseover" end="arrowDown.mouseout"/>
                  </use>
                  <path fill="none" stroke="white" stroke-width="1.5" d="M0,-3.0v7 M-2.5,-0.5L0,-3.0L2.5,-0.5"/>
                </g>
                <g id="arrowLeft" xlink:href="#dirArrow" transform="rotate(270) translate(-36 17)" onmousedown="handlePan(-1,0)">
                  <use xlink:href="#rim" fill="#404040">
                        <set attributeName="fill" to="#808080" begin="arrowLeft.mouseover" end="arrowLeft.mouseout"/>
                  </use>
                  <path fill="none" stroke="white" stroke-width="1.5" d="M0,-3.0v7 M-2.5,-0.5L0,-3.0L2.5,-0.5"/>
                </g>
        </g>
        <svg viewBox="0 0 15 15" width="100%" height="30px" preserveAspectRatio="xMaxYMin meet">
         <g id="arrow_out" transform="scale(0.3 0.3)">
          <a xlink:href="constr_8f90_ae82fbacd108d547258e599e6ee56178b_icgraph_org.svg" target="_base">
           <rect id="button" ry="5" rx="5" y="6" x="6" height="38" width="38"
                fill="#f2f5e9" fill-opacity="0.5" stroke="#606060" stroke-width="1.0"/>
           <path id="arrow"
             d="M 11.500037,31.436501 C 11.940474,20.09759 22.043105,11.32322 32.158766,21.979434 L 37.068811,17.246167 C 37.068811,17.246167 37.088388,32 37.088388,32 L 22.160133,31.978069 C 22.160133,31.978069 26.997745,27.140456 26.997745,27.140456 C 18.528582,18.264221 13.291696,25.230495 11.500037,31.436501 z"
             style="fill:#404040;"/>
          </a>
         </g>
        </svg>
</svg>
