<?xml version="1.0" encoding="UTF-8" standalone="no"?>
<!DOCTYPE svg PUBLIC "-//W3C//DTD SVG 1.1//EN"
 "http://www.w3.org/Graphics/SVG/1.1/DTD/svg11.dtd">
<!-- Generated by graphviz version 2.46.1 (20210215.1649)
 -->
<!-- Title: domegadr Pages: 1 -->
<svg width="589pt" height="105pt"
 viewBox="0.00 0.00 589.00 105.00" xmlns="http://www.w3.org/2000/svg" xmlns:xlink="http://www.w3.org/1999/xlink">
<g id="graph0" class="graph" transform="scale(1 1) rotate(0) translate(4 101)">
<title>domegadr</title>
<polygon fill="white" stroke="transparent" points="-4,4 -4,-101 585,-101 585,4 -4,4"/>
<!-- Node1 -->
<g id="node1" class="node">
<title>Node1</title>
<g id="a_node1"><a xlink:title=" ">
<polygon fill="#bfbfbf" stroke="black" points="522,-28 522,-47 581,-47 581,-28 522,-28"/>
<text text-anchor="middle" x="551.5" y="-35" font-family="Helvetica,sans-Serif" font-size="10.00">domegadr</text>
</a>
</g>
</g>
<!-- Node2 -->
<g id="node2" class="node">
<title>Node2</title>
<g id="a_node2"><a xlink:href="namespacextb__gfnff__eg.html#a3f350a33f3f17790d4a231524334fd89" target="_top" xlink:title=" ">
<polygon fill="white" stroke="black" points="385,-48 385,-67 486,-67 486,-48 385,-48"/>
<text text-anchor="middle" x="435.5" y="-55" font-family="Helvetica,sans-Serif" font-size="10.00">xtb_gfnff_eg::egtors</text>
</a>
</g>
</g>
<!-- Node1&#45;&gt;Node2 -->
<g id="edge1" class="edge">
<title>Node1&#45;&gt;Node2</title>
<path fill="none" stroke="midnightblue" d="M511.68,-44.31C503.46,-45.75 494.67,-47.29 486.11,-48.8"/>
<polygon fill="midnightblue" stroke="midnightblue" points="512.49,-47.72 521.73,-42.55 511.28,-40.83 512.49,-47.72"/>
</g>
<!-- Node7 -->
<g id="node7" class="node">
<title>Node7</title>
<g id="a_node7"><a xlink:href="namespacextb__qmdff.html#ac139343f2e6ae2ee08a1074c9ca536c9" target="_top" xlink:title=" ">
<polygon fill="white" stroke="black" points="393.5,-9 393.5,-28 477.5,-28 477.5,-9 393.5,-9"/>
<text text-anchor="middle" x="435.5" y="-16" font-family="Helvetica,sans-Serif" font-size="10.00">xtb_qmdff::ff_eg</text>
</a>
</g>
</g>
<!-- Node1&#45;&gt;Node7 -->
<g id="edge6" class="edge">
<title>Node1&#45;&gt;Node7</title>
<path fill="none" stroke="midnightblue" d="M511.63,-31.02C500.71,-29.2 488.8,-27.22 477.75,-25.37"/>
<polygon fill="midnightblue" stroke="midnightblue" points="511.29,-34.51 521.73,-32.71 512.44,-27.61 511.29,-34.51"/>
</g>
<!-- Node3 -->
<g id="node3" class="node">
<title>Node3</title>
<g id="a_node3"><a xlink:href="namespacextb__gfnff__eg.html#a3c6317a91da8d6eb6e333fdb8ee1f3d9" target="_top" xlink:title=" ">
<polygon fill="white" stroke="black" points="241,-50 241,-69 349,-69 349,-50 241,-50"/>
<text text-anchor="middle" x="295" y="-57" font-family="Helvetica,sans-Serif" font-size="10.00">xtb_gfnff_eg::gfnff_eg</text>
</a>
</g>
</g>
<!-- Node2&#45;&gt;Node3 -->
<g id="edge2" class="edge">
<title>Node2&#45;&gt;Node3</title>
<path fill="none" stroke="midnightblue" d="M374.63,-58.36C366.1,-58.49 357.39,-58.61 349.01,-58.73"/>
<polygon fill="midnightblue" stroke="midnightblue" points="374.94,-61.86 384.89,-58.22 374.84,-54.86 374.94,-61.86"/>
</g>
<!-- Node4 -->
<g id="node4" class="node">
<title>Node4</title>
<g id="a_node4"><a xlink:href="namespacextb__gfnff__calculator.html#a8775e737196933e41e48728956ddf782" target="_top" xlink:title=" ">
<polygon fill="white" stroke="black" points="104,-66.5 104,-96.5 205,-96.5 205,-66.5 104,-66.5"/>
<text text-anchor="start" x="112" y="-84.5" font-family="Helvetica,sans-Serif" font-size="10.00">xtb_gfnff_calculator</text>
<text text-anchor="middle" x="154.5" y="-73.5" font-family="Helvetica,sans-Serif" font-size="10.00">::singlepoint</text>
</a>
</g>
</g>
<!-- Node3&#45;&gt;Node4 -->
<g id="edge3" class="edge">
<title>Node3&#45;&gt;Node4</title>
<path fill="none" stroke="midnightblue" d="M230.81,-69.54C222.19,-70.91 213.44,-72.3 205.1,-73.62"/>
<polygon fill="midnightblue" stroke="midnightblue" points="231.52,-72.97 240.85,-67.94 230.42,-66.06 231.52,-72.97"/>
</g>
<!-- Node5 -->
<g id="node5" class="node">
<title>Node5</title>
<g id="a_node5"><a xlink:href="gfnff_8f90.html#a3debb77ee35e9cf115d69ef59490c6c5" target="_top" xlink:title=" ">
<polygon fill="white" stroke="black" points="118,-28 118,-47 191,-47 191,-28 118,-28"/>
<text text-anchor="middle" x="154.5" y="-35" font-family="Helvetica,sans-Serif" font-size="10.00">test_gfnff_sp</text>
</a>
</g>
</g>
<!-- Node3&#45;&gt;Node5 -->
<g id="edge4" class="edge">
<title>Node3&#45;&gt;Node5</title>
<path fill="none" stroke="midnightblue" d="M230.59,-49.43C217.05,-47.28 203.21,-45.08 191.16,-43.16"/>
<polygon fill="midnightblue" stroke="midnightblue" points="230.42,-52.94 240.85,-51.06 231.52,-46.03 230.42,-52.94"/>
</g>
<!-- Node6 -->
<g id="node6" class="node">
<title>Node6</title>
<g id="a_node6"><a xlink:href="tests__peeq_8f90.html#a87ff5319e0d2e627a4f71d7df0d14891" target="_top" xlink:title=" ">
<polygon fill="white" stroke="black" points="0,-28 0,-47 68,-47 68,-28 0,-28"/>
<text text-anchor="middle" x="34" y="-35" font-family="Helvetica,sans-Serif" font-size="10.00">peeq_tester</text>
</a>
</g>
</g>
<!-- Node5&#45;&gt;Node6 -->
<g id="edge5" class="edge">
<title>Node5&#45;&gt;Node6</title>
<path fill="none" stroke="midnightblue" d="M107.63,-37.5C94.45,-37.5 80.34,-37.5 68.1,-37.5"/>
<polygon fill="midnightblue" stroke="midnightblue" points="107.95,-41 117.95,-37.5 107.95,-34 107.95,-41"/>
</g>
<!-- Node8 -->
<g id="node8" class="node">
<title>Node8</title>
<g id="a_node8"><a xlink:href="namespacextb__type__dummycalc.html#a28a36738c316fb4a0655328844e94957" target="_top" xlink:title=" ">
<polygon fill="white" stroke="black" points="241.5,-0.5 241.5,-30.5 348.5,-30.5 348.5,-0.5 241.5,-0.5"/>
<text text-anchor="start" x="249.5" y="-18.5" font-family="Helvetica,sans-Serif" font-size="10.00">xtb_type_dummycalc</text>
<text text-anchor="middle" x="295" y="-7.5" font-family="Helvetica,sans-Serif" font-size="10.00">::singlepoint</text>
</a>
</g>
</g>
<!-- Node7&#45;&gt;Node8 -->
<g id="edge7" class="edge">
<title>Node7&#45;&gt;Node8</title>
<path fill="none" stroke="midnightblue" d="M383.19,-17.39C371.9,-17.14 359.93,-16.88 348.6,-16.64"/>
<polygon fill="midnightblue" stroke="midnightblue" points="383.25,-20.89 393.32,-17.61 383.4,-13.89 383.25,-20.89"/>
</g>
</g>
</svg>
