<?xml version="1.0" encoding="UTF-8" standalone="no"?>
<!DOCTYPE svg PUBLIC "-//W3C//DTD SVG 1.1//EN"
 "http://www.w3.org/Graphics/SVG/1.1/DTD/svg11.dtd">
<!-- Generated by graphviz version 2.43.0 (0)
 -->
<!-- Title: domegadr Pages: 1 -->
<svg width="642pt" height="105pt"
 viewBox="0.00 0.00 642.00 105.00" xmlns="http://www.w3.org/2000/svg" xmlns:xlink="http://www.w3.org/1999/xlink">
<g id="graph0" class="graph" transform="scale(1 1) rotate(0) translate(4 101)">
<title>domegadr</title>
<polygon fill="white" stroke="transparent" points="-4,4 -4,-101 638,-101 638,4 -4,4"/>
<!-- Node1 -->
<g id="node1" class="node">
<title>Node1</title>
<g id="a_node1"><a xlink:title=" ">
<polygon fill="#bfbfbf" stroke="black" points="568,-28 568,-47 634,-47 634,-28 568,-28"/>
<text text-anchor="middle" x="601" y="-35" font-family="Helvetica,sans-Serif" font-size="10.00">domegadr</text>
</a>
</g>
</g>
<!-- Node2 -->
<g id="node2" class="node">
<title>Node2</title>
<g id="a_node2"><a xlink:href="namespacextb__gfnff__eg.html#a3f350a33f3f17790d4a231524334fd89" target="_top" xlink:title=" ">
<polygon fill="white" stroke="black" points="418,-48 418,-67 532,-67 532,-48 418,-48"/>
<text text-anchor="middle" x="475" y="-55" font-family="Helvetica,sans-Serif" font-size="10.00">xtb_gfnff_eg::egtors</text>
</a>
</g>
</g>
<!-- Node1&#45;&gt;Node2 -->
<g id="edge1" class="edge">
<title>Node1&#45;&gt;Node2</title>
<path fill="none" stroke="midnightblue" d="M557.65,-44.33C549.43,-45.66 540.7,-47.07 532.11,-48.45"/>
<polygon fill="midnightblue" stroke="midnightblue" points="558.43,-47.75 567.74,-42.7 557.31,-40.84 558.43,-47.75"/>
</g>
<!-- Node7 -->
<g id="node7" class="node">
<title>Node7</title>
<g id="a_node7"><a xlink:href="namespacextb__qmdff.html#ac139343f2e6ae2ee08a1074c9ca536c9" target="_top" xlink:title=" ">
<polygon fill="white" stroke="black" points="427,-9 427,-28 523,-28 523,-9 427,-9"/>
<text text-anchor="middle" x="475" y="-16" font-family="Helvetica,sans-Serif" font-size="10.00">xtb_qmdff::ff_eg</text>
</a>
</g>
</g>
<!-- Node1&#45;&gt;Node7 -->
<g id="edge6" class="edge">
<title>Node1&#45;&gt;Node7</title>
<path fill="none" stroke="midnightblue" d="M557.79,-31.03C546.61,-29.32 534.46,-27.46 523.04,-25.71"/>
<polygon fill="midnightblue" stroke="midnightblue" points="557.33,-34.5 567.74,-32.56 558.39,-27.58 557.33,-34.5"/>
</g>
<!-- Node3 -->
<g id="node3" class="node">
<title>Node3</title>
<g id="a_node3"><a xlink:href="namespacextb__gfnff__eg.html#a3c6317a91da8d6eb6e333fdb8ee1f3d9" target="_top" xlink:title=" ">
<polygon fill="white" stroke="black" points="259,-50 259,-69 382,-69 382,-50 259,-50"/>
<text text-anchor="middle" x="320.5" y="-57" font-family="Helvetica,sans-Serif" font-size="10.00">xtb_gfnff_eg::gfnff_eg</text>
</a>
</g>
</g>
<!-- Node2&#45;&gt;Node3 -->
<g id="edge2" class="edge">
<title>Node2&#45;&gt;Node3</title>
<path fill="none" stroke="midnightblue" d="M407.51,-58.37C399.1,-58.48 390.54,-58.59 382.23,-58.7"/>
<polygon fill="midnightblue" stroke="midnightblue" points="407.69,-61.87 417.65,-58.24 407.6,-54.87 407.69,-61.87"/>
</g>
<!-- Node4 -->
<g id="node4" class="node">
<title>Node4</title>
<g id="a_node4"><a xlink:href="namespacextb__gfnff__calculator.html#a8775e737196933e41e48728956ddf782" target="_top" xlink:title=" ">
<polygon fill="white" stroke="black" points="110,-66.5 110,-96.5 223,-96.5 223,-66.5 110,-66.5"/>
<text text-anchor="start" x="118" y="-84.5" font-family="Helvetica,sans-Serif" font-size="10.00">xtb_gfnff_calculator</text>
<text text-anchor="middle" x="166.5" y="-73.5" font-family="Helvetica,sans-Serif" font-size="10.00">::singlepoint</text>
</a>
</g>
</g>
<!-- Node3&#45;&gt;Node4 -->
<g id="edge3" class="edge">
<title>Node3&#45;&gt;Node4</title>
<path fill="none" stroke="midnightblue" d="M248.97,-69.71C240.38,-70.95 231.7,-72.21 223.36,-73.41"/>
<polygon fill="midnightblue" stroke="midnightblue" points="249.59,-73.15 258.99,-68.26 248.59,-66.23 249.59,-73.15"/>
</g>
<!-- Node5 -->
<g id="node5" class="node">
<title>Node5</title>
<g id="a_node5"><a xlink:href="gfnff_8f90.html#a3debb77ee35e9cf115d69ef59490c6c5" target="_top" xlink:title=" ">
<polygon fill="white" stroke="black" points="126.5,-28 126.5,-47 206.5,-47 206.5,-28 126.5,-28"/>
<text text-anchor="middle" x="166.5" y="-35" font-family="Helvetica,sans-Serif" font-size="10.00">test_gfnff_sp</text>
</a>
</g>
</g>
<!-- Node3&#45;&gt;Node5 -->
<g id="edge4" class="edge">
<title>Node3&#45;&gt;Node5</title>
<path fill="none" stroke="midnightblue" d="M249.02,-49.3C234.52,-47.2 219.76,-45.06 206.84,-43.19"/>
<polygon fill="midnightblue" stroke="midnightblue" points="248.59,-52.77 258.99,-50.74 249.59,-45.85 248.59,-52.77"/>
</g>
<!-- Node6 -->
<g id="node6" class="node">
<title>Node6</title>
<g id="a_node6"><a xlink:href="tests__peeq_8f90.html#a87ff5319e0d2e627a4f71d7df0d14891" target="_top" xlink:title=" ">
<polygon fill="white" stroke="black" points="0,-28 0,-47 74,-47 74,-28 0,-28"/>
<text text-anchor="middle" x="37" y="-35" font-family="Helvetica,sans-Serif" font-size="10.00">peeq_tester</text>
</a>
</g>
</g>
<!-- Node5&#45;&gt;Node6 -->
<g id="edge5" class="edge">
<title>Node5&#45;&gt;Node6</title>
<path fill="none" stroke="midnightblue" d="M115.85,-37.5C102.02,-37.5 87.25,-37.5 74.34,-37.5"/>
<polygon fill="midnightblue" stroke="midnightblue" points="116.21,-41 126.21,-37.5 116.21,-34 116.21,-41"/>
</g>
<!-- Node8 -->
<g id="node8" class="node">
<title>Node8</title>
<g id="a_node8"><a xlink:href="namespacextb__type__dummycalc.html#a28a36738c316fb4a0655328844e94957" target="_top" xlink:title=" ">
<polygon fill="white" stroke="black" points="259.5,-0.5 259.5,-30.5 381.5,-30.5 381.5,-0.5 259.5,-0.5"/>
<text text-anchor="start" x="267.5" y="-18.5" font-family="Helvetica,sans-Serif" font-size="10.00">xtb_type_dummycalc</text>
<text text-anchor="middle" x="320.5" y="-7.5" font-family="Helvetica,sans-Serif" font-size="10.00">::singlepoint</text>
</a>
</g>
</g>
<!-- Node7&#45;&gt;Node8 -->
<g id="edge7" class="edge">
<title>Node7&#45;&gt;Node8</title>
<path fill="none" stroke="midnightblue" d="M416.33,-17.37C404.96,-17.14 393,-16.91 381.55,-16.68"/>
<polygon fill="midnightblue" stroke="midnightblue" points="416.52,-20.87 426.58,-17.57 416.65,-13.87 416.52,-20.87"/>
</g>
</g>
</svg>
