<?xml version="1.0" encoding="UTF-8" standalone="no"?>
<!DOCTYPE svg PUBLIC "-//W3C//DTD SVG 1.1//EN"
 "http://www.w3.org/Graphics/SVG/1.1/DTD/svg11.dtd">
<!-- Generated by graphviz version 2.46.0 (20210122.1329)
 -->
<!-- Title: bangl Pages: 1 -->
<!--zoomable 817 -->
<svg id="main" version="1.1" xmlns="http://www.w3.org/2000/svg" xmlns:xlink="http://www.w3.org/1999/xlink" xml:space="preserve" onload="init(evt)">
<style type="text/css"><![CDATA[
.edge:hover path { stroke: red; }
.edge:hover polygon { stroke: red; fill: red; }
]]></style>
<script type="text/javascript"><![CDATA[
var edges = document.getElementsByTagName('g');
if (edges && edges.length) {
  for (var i=0;i<edges.length;i++) {
    if (edges[i].id.substr(0,4)=='edge') {
      edges[i].setAttribute('class','edge');
    }
  }
}
]]></script>
        <defs>
                <circle id="rim" cx="0" cy="0" r="7"/>
                <circle id="rim2" cx="0" cy="0" r="3.5"/>
                <g id="zoomPlus">
                        <use xlink:href="#rim" fill="#404040">
                                <set attributeName="fill" to="#808080" begin="zoomplus.mouseover" end="zoomplus.mouseout"/>
                        </use>
                        <path d="M-4,0h8M0,-4v8" fill="none" stroke="white" stroke-width="1.5" pointer-events="none"/>
                </g>
                <g id="zoomMin">
                        <use xlink:href="#rim" fill="#404040">
                                <set attributeName="fill" to="#808080" begin="zoomminus.mouseover" end="zoomminus.mouseout"/>
                        </use>
                        <path d="M-4,0h8" fill="none" stroke="white" stroke-width="1.5" pointer-events="none"/>
                </g>
                <g id="dirArrow">
                        <path fill="none" stroke="white" stroke-width="1.5" d="M0,-3.0v7 M-2.5,-0.5L0,-3.0L2.5,-0.5"/>
                </g>
               <g id="resetDef">
                       <use xlink:href="#rim2" fill="#404040">
                               <set attributeName="fill" to="#808080" begin="reset.mouseover" end="reset.mouseout"/>
                       </use>
               </g>
        </defs>

<script type="text/javascript">
var viewWidth = 1180;
var viewHeight = 817;
var sectionId = 'dynsection-0';
</script>
<script xlink:href="svgpan.js"/>
<svg id="graph" class="graph">
<g id="viewport">
<title>bangl</title>
<polygon fill="white" stroke="transparent" points="-4,4 -4,-813 1176,-813 1176,4 -4,4"/>
<!-- Node1 -->
<g id="node1" class="node">
<title>Node1</title>
<g id="a_node1"><a xlink:title=" ">
<polygon fill="#bfbfbf" stroke="black" points="1132,-238.5 1132,-257.5 1172,-257.5 1172,-238.5 1132,-238.5"/>
<text text-anchor="middle" x="1152" y="-245.5" font-family="Helvetica,sans-Serif" font-size="10.00">bangl</text>
</a>
</g>
</g>
<!-- Node2 -->
<g id="node2" class="node">
<title>Node2</title>
<g id="a_node2"><a xlink:href="namespacextb__gfnff__eg.html#ac21efbb550b6edae8c66215658f3e721" target="_top" xlink:title=" ">
<polygon fill="white" stroke="black" points="967,-578.5 967,-597.5 1096,-597.5 1096,-578.5 967,-578.5"/>
<text text-anchor="middle" x="1031.5" y="-585.5" font-family="Helvetica,sans-Serif" font-size="10.00">xtb_gfnff_eg::abhgfnff_eg3</text>
</a>
</g>
</g>
<!-- Node1&#45;&gt;Node2 -->
<g id="edge1" class="edge">
<title>Node1&#45;&gt;Node2</title>
<path fill="none" stroke="midnightblue" d="M1147.17,-268.12C1139.63,-306.14 1121.36,-390.83 1096,-459 1078.76,-505.32 1050.2,-557.16 1038.15,-578.27"/>
<polygon fill="midnightblue" stroke="midnightblue" points="1150.69,-268.38 1149.16,-257.89 1143.82,-267.04 1150.69,-268.38"/>
</g>
<!-- Node7 -->
<g id="node7" class="node">
<title>Node7</title>
<g id="a_node7"><a xlink:href="namespacextb__gfnff__eg.html#a249f6d9c62394b50a1f8cca4389819c3" target="_top" xlink:title=" ">
<polygon fill="white" stroke="black" points="977.5,-88 977.5,-118 1085.5,-118 1085.5,-88 977.5,-88"/>
<text text-anchor="start" x="985.5" y="-106" font-family="Helvetica,sans-Serif" font-size="10.00">xtb_gfnff_eg::abhgfnff</text>
<text text-anchor="middle" x="1031.5" y="-95" font-family="Helvetica,sans-Serif" font-size="10.00">_eg3_add</text>
</a>
</g>
</g>
<!-- Node1&#45;&gt;Node7 -->
<g id="edge6" class="edge">
<title>Node1&#45;&gt;Node7</title>
<path fill="none" stroke="midnightblue" d="M1146.11,-228.62C1138.93,-203.64 1123.33,-160.2 1096,-133 1090.04,-127.07 1082.68,-122.15 1075.1,-118.14"/>
<polygon fill="midnightblue" stroke="midnightblue" points="1142.77,-229.64 1148.76,-238.38 1149.52,-227.81 1142.77,-229.64"/>
</g>
<!-- Node8 -->
<g id="node8" class="node">
<title>Node8</title>
<g id="a_node8"><a xlink:href="namespacextb__gfnff__eg.html#a96f44d5568fa1a8f5911e6c4534b33a1" target="_top" xlink:title=" ">
<polygon fill="white" stroke="black" points="977.5,-39 977.5,-69 1085.5,-69 1085.5,-39 977.5,-39"/>
<text text-anchor="start" x="985.5" y="-57" font-family="Helvetica,sans-Serif" font-size="10.00">xtb_gfnff_eg::abhgfnff</text>
<text text-anchor="middle" x="1031.5" y="-46" font-family="Helvetica,sans-Serif" font-size="10.00">_eg3_mul</text>
</a>
</g>
</g>
<!-- Node1&#45;&gt;Node8 -->
<g id="edge7" class="edge">
<title>Node1&#45;&gt;Node8</title>
<path fill="none" stroke="midnightblue" d="M1150.01,-228.2C1147.21,-193.32 1136.56,-120.58 1096,-78 1092.75,-74.59 1088.96,-71.65 1084.89,-69.14"/>
<polygon fill="midnightblue" stroke="midnightblue" points="1146.53,-228.73 1150.68,-238.48 1153.52,-228.27 1146.53,-228.73"/>
</g>
<!-- Node9 -->
<g id="node9" class="node">
<title>Node9</title>
<g id="a_node9"><a xlink:href="geometry_8f90.html#aab80ef9492e0b7c6aa434d44a6a2e7b0" target="_top" xlink:title=" ">
<polygon fill="white" stroke="black" points="833.5,-134.5 833.5,-153.5 901.5,-153.5 901.5,-134.5 833.5,-134.5"/>
<text text-anchor="middle" x="867.5" y="-141.5" font-family="Helvetica,sans-Serif" font-size="10.00">calc_angles</text>
</a>
</g>
</g>
<!-- Node1&#45;&gt;Node9 -->
<g id="edge8" class="edge">
<title>Node1&#45;&gt;Node9</title>
<path fill="none" stroke="midnightblue" d="M1143.07,-229.14C1134.37,-210.97 1118.56,-184.35 1096,-171 1034.9,-134.84 948.4,-135.98 901.63,-139.98"/>
<polygon fill="midnightblue" stroke="midnightblue" points="1139.97,-230.78 1147.27,-238.45 1146.35,-227.9 1139.97,-230.78"/>
</g>
<!-- Node15 -->
<g id="node15" class="node">
<title>Node15</title>
<g id="a_node15"><a xlink:href="namespacextb__gfnff__ini2.html#aa202246504b569e6f5644b02d2fe564e" target="_top" xlink:title=" ">
<polygon fill="white" stroke="black" points="976.5,-397.5 976.5,-416.5 1086.5,-416.5 1086.5,-397.5 976.5,-397.5"/>
<text text-anchor="middle" x="1031.5" y="-404.5" font-family="Helvetica,sans-Serif" font-size="10.00">xtb_gfnff_ini2::chktors</text>
</a>
</g>
</g>
<!-- Node1&#45;&gt;Node15 -->
<g id="edge15" class="edge">
<title>Node1&#45;&gt;Node15</title>
<path fill="none" stroke="midnightblue" d="M1148.69,-267.93C1144.12,-298.22 1131.11,-355.71 1096,-388 1091.77,-391.89 1086.76,-394.99 1081.45,-397.46"/>
<polygon fill="midnightblue" stroke="midnightblue" points="1152.19,-268.15 1150.06,-257.77 1145.25,-267.21 1152.19,-268.15"/>
</g>
<!-- Node16 -->
<g id="node16" class="node">
<title>Node16</title>
<g id="a_node16"><a xlink:href="namespacextb__gfnff__ini.html#ad57146d4119080bb244e8f19309414b5" target="_top" xlink:title=" ">
<polygon fill="white" stroke="black" points="814,-416.5 814,-435.5 921,-435.5 921,-416.5 814,-416.5"/>
<text text-anchor="middle" x="867.5" y="-423.5" font-family="Helvetica,sans-Serif" font-size="10.00">xtb_gfnff_ini::gfnff_ini</text>
</a>
</g>
</g>
<!-- Node1&#45;&gt;Node16 -->
<g id="edge46" class="edge">
<title>Node1&#45;&gt;Node16</title>
<path fill="none" stroke="midnightblue" d="M1151.77,-268.28C1151.99,-306.56 1146.24,-388.94 1096,-426 1036.56,-469.84 942.57,-449.63 896.22,-435.56"/>
<polygon fill="midnightblue" stroke="midnightblue" points="1155.27,-267.84 1151.56,-257.92 1148.27,-267.99 1155.27,-267.84"/>
</g>
<!-- Node30 -->
<g id="node30" class="node">
<title>Node30</title>
<g id="a_node30"><a xlink:href="namespacextb__scanparam.html#a8714dd7daeda4e1ccf51c490b595bf1d" target="_top" xlink:title=" ">
<polygon fill="white" stroke="black" points="481.5,-249 481.5,-279 608.5,-279 608.5,-249 481.5,-249"/>
<text text-anchor="start" x="489.5" y="-267" font-family="Helvetica,sans-Serif" font-size="10.00">xtb_scanparam::constrain</text>
<text text-anchor="middle" x="545" y="-256" font-family="Helvetica,sans-Serif" font-size="10.00">_all_angles</text>
</a>
</g>
</g>
<!-- Node1&#45;&gt;Node30 -->
<g id="edge41" class="edge">
<title>Node1&#45;&gt;Node30</title>
<path fill="none" stroke="midnightblue" d="M1121.88,-251.03C1113.53,-251.8 1104.41,-252.53 1096,-253 919.59,-262.77 710.92,-264.16 608.74,-264.19"/>
<polygon fill="midnightblue" stroke="midnightblue" points="1122.31,-254.51 1131.93,-250.07 1121.64,-247.54 1122.31,-254.51"/>
</g>
<!-- Node31 -->
<g id="node31" class="node">
<title>Node31</title>
<g id="a_node31"><a xlink:href="namespacextb__scanparam.html#af9faebc2d0cad762d757858cb4759db4" target="_top" xlink:title=" ">
<polygon fill="white" stroke="black" points="804,-211 804,-241 931,-241 931,-211 804,-211"/>
<text text-anchor="start" x="812" y="-229" font-family="Helvetica,sans-Serif" font-size="10.00">xtb_scanparam::constrain</text>
<text text-anchor="middle" x="867.5" y="-218" font-family="Helvetica,sans-Serif" font-size="10.00">_all_torsions</text>
</a>
</g>
</g>
<!-- Node1&#45;&gt;Node31 -->
<g id="edge43" class="edge">
<title>Node1&#45;&gt;Node31</title>
<path fill="none" stroke="midnightblue" d="M1121.36,-245.69C1076.48,-242.2 990.23,-235.48 931.05,-230.87"/>
<polygon fill="midnightblue" stroke="midnightblue" points="1121.34,-249.2 1131.58,-246.49 1121.88,-242.22 1121.34,-249.2"/>
</g>
<!-- Node32 -->
<g id="node32" class="node">
<title>Node32</title>
<g id="a_node32"><a xlink:href="constr_8f90.html#accc78f42110296389bd0f2b4d04d9179" target="_top" xlink:title=" ">
<polygon fill="white" stroke="black" points="990.5,-0.5 990.5,-19.5 1072.5,-19.5 1072.5,-0.5 990.5,-0.5"/>
<text text-anchor="middle" x="1031.5" y="-7.5" font-family="Helvetica,sans-Serif" font-size="10.00">constrallangles</text>
</a>
</g>
</g>
<!-- Node1&#45;&gt;Node32 -->
<g id="edge45" class="edge">
<title>Node1&#45;&gt;Node32</title>
<path fill="none" stroke="midnightblue" d="M1148.55,-228.24C1142.18,-179.97 1123.65,-57.92 1096,-29 1089.72,-22.43 1081.26,-18.11 1072.58,-15.27"/>
<polygon fill="midnightblue" stroke="midnightblue" points="1145.1,-228.86 1149.84,-238.34 1152.04,-227.97 1145.1,-228.86"/>
</g>
<!-- Node33 -->
<g id="node33" class="node">
<title>Node33</title>
<g id="a_node33"><a xlink:href="namespacextb__gfnff__ini2.html#a1f66fd60267f1eb16f41f726537a599f" target="_top" xlink:title=" ">
<polygon fill="white" stroke="black" points="983,-348 983,-378 1080,-378 1080,-348 983,-348"/>
<text text-anchor="start" x="991" y="-366" font-family="Helvetica,sans-Serif" font-size="10.00">xtb_gfnff_ini2::gfnff</text>
<text text-anchor="middle" x="1031.5" y="-355" font-family="Helvetica,sans-Serif" font-size="10.00">_neigh</text>
</a>
</g>
</g>
<!-- Node1&#45;&gt;Node33 -->
<g id="edge47" class="edge">
<title>Node1&#45;&gt;Node33</title>
<path fill="none" stroke="midnightblue" d="M1143.76,-266.9C1135.17,-287.05 1119.04,-318.64 1096,-338 1091.28,-341.96 1085.86,-345.35 1080.22,-348.22"/>
<polygon fill="midnightblue" stroke="midnightblue" points="1147.04,-268.12 1147.56,-257.54 1140.56,-265.49 1147.04,-268.12"/>
</g>
<!-- Node34 -->
<g id="node34" class="node">
<title>Node34</title>
<g id="a_node34"><a xlink:href="namespacextb__scanparam.html#a98e6076b6bb1acc609033880889710ae" target="_top" xlink:title=" ">
<polygon fill="white" stroke="black" points="484,-172.5 484,-191.5 606,-191.5 606,-172.5 484,-172.5"/>
<text text-anchor="middle" x="545" y="-179.5" font-family="Helvetica,sans-Serif" font-size="10.00">xtb_scanparam::pot_info</text>
</a>
</g>
</g>
<!-- Node1&#45;&gt;Node34 -->
<g id="edge49" class="edge">
<title>Node1&#45;&gt;Node34</title>
<path fill="none" stroke="midnightblue" d="M1122.15,-237.71C1113.79,-234.95 1104.59,-232.15 1096,-230 921.89,-186.44 708.23,-180.92 606.02,-181.1"/>
<polygon fill="midnightblue" stroke="midnightblue" points="1121.26,-241.1 1131.85,-240.99 1123.5,-234.47 1121.26,-241.1"/>
</g>
<!-- Node35 -->
<g id="node35" class="node">
<title>Node35</title>
<g id="a_node35"><a xlink:href="namespacextb__constrain__param.html#aec900c7a40b32edce5ea0462453cac20" target="_top" xlink:title=" ">
<polygon fill="white" stroke="black" points="978,-299 978,-329 1085,-329 1085,-299 978,-299"/>
<text text-anchor="start" x="986" y="-317" font-family="Helvetica,sans-Serif" font-size="10.00">xtb_constrain_param</text>
<text text-anchor="middle" x="1031.5" y="-306" font-family="Helvetica,sans-Serif" font-size="10.00">::set_constr</text>
</a>
</g>
</g>
<!-- Node1&#45;&gt;Node35 -->
<g id="edge51" class="edge">
<title>Node1&#45;&gt;Node35</title>
<path fill="none" stroke="midnightblue" d="M1128.9,-263.47C1119.03,-270.11 1107.13,-277.77 1096,-284 1086.64,-289.24 1076.21,-294.43 1066.55,-298.97"/>
<polygon fill="midnightblue" stroke="midnightblue" points="1131.03,-266.25 1137.31,-257.72 1127.08,-260.47 1131.03,-266.25"/>
</g>
<!-- Node3 -->
<g id="node3" class="node">
<title>Node3</title>
<g id="a_node3"><a xlink:href="namespacextb__gfnff__eg.html#a3c6317a91da8d6eb6e333fdb8ee1f3d9" target="_top" xlink:title=" ">
<polygon fill="white" stroke="black" points="813.5,-682.5 813.5,-701.5 921.5,-701.5 921.5,-682.5 813.5,-682.5"/>
<text text-anchor="middle" x="867.5" y="-689.5" font-family="Helvetica,sans-Serif" font-size="10.00">xtb_gfnff_eg::gfnff_eg</text>
</a>
</g>
</g>
<!-- Node2&#45;&gt;Node3 -->
<g id="edge2" class="edge">
<title>Node2&#45;&gt;Node3</title>
<path fill="none" stroke="midnightblue" d="M1006.77,-603.24C972.87,-624.99 911.6,-664.33 883.41,-682.43"/>
<polygon fill="midnightblue" stroke="midnightblue" points="1009.03,-605.95 1015.55,-597.6 1005.24,-600.05 1009.03,-605.95"/>
</g>
<!-- Node4 -->
<g id="node4" class="node">
<title>Node4</title>
<g id="a_node4"><a xlink:href="namespacextb__gfnff__calculator.html#a8775e737196933e41e48728956ddf782" target="_top" xlink:title=" ">
<polygon fill="white" stroke="black" points="664,-721 664,-751 765,-751 765,-721 664,-721"/>
<text text-anchor="start" x="672" y="-739" font-family="Helvetica,sans-Serif" font-size="10.00">xtb_gfnff_calculator</text>
<text text-anchor="middle" x="714.5" y="-728" font-family="Helvetica,sans-Serif" font-size="10.00">::singlepoint</text>
</a>
</g>
</g>
<!-- Node3&#45;&gt;Node4 -->
<g id="edge3" class="edge">
<title>Node3&#45;&gt;Node4</title>
<path fill="none" stroke="midnightblue" d="M823.94,-704.4C805.65,-709.73 784.15,-715.99 765.14,-721.53"/>
<polygon fill="midnightblue" stroke="midnightblue" points="825.11,-707.71 833.74,-701.55 823.16,-700.98 825.11,-707.71"/>
</g>
<!-- Node5 -->
<g id="node5" class="node">
<title>Node5</title>
<g id="a_node5"><a xlink:href="gfnff_8f90.html#a3debb77ee35e9cf115d69ef59490c6c5" target="_top" xlink:title=" ">
<polygon fill="white" stroke="black" points="318,-789.5 318,-808.5 391,-808.5 391,-789.5 318,-789.5"/>
<text text-anchor="middle" x="354.5" y="-796.5" font-family="Helvetica,sans-Serif" font-size="10.00">test_gfnff_sp</text>
</a>
</g>
</g>
<!-- Node3&#45;&gt;Node5 -->
<g id="edge4" class="edge">
<title>Node3&#45;&gt;Node5</title>
<path fill="none" stroke="midnightblue" d="M803.22,-695.07C762.36,-697.82 708.21,-702.87 661,-712 555.51,-732.41 532.58,-751.44 429,-780 416.68,-783.4 403.14,-786.95 391.08,-790.05"/>
<polygon fill="midnightblue" stroke="midnightblue" points="803.56,-698.56 813.31,-694.43 803.11,-691.57 803.56,-698.56"/>
</g>
<!-- Node6 -->
<g id="node6" class="node">
<title>Node6</title>
<g id="a_node6"><a xlink:href="tests__peeq_8f90.html#a87ff5319e0d2e627a4f71d7df0d14891" target="_top" xlink:title=" ">
<polygon fill="white" stroke="black" points="151,-644.5 151,-663.5 219,-663.5 219,-644.5 151,-644.5"/>
<text text-anchor="middle" x="185" y="-651.5" font-family="Helvetica,sans-Serif" font-size="10.00">peeq_tester</text>
</a>
</g>
</g>
<!-- Node5&#45;&gt;Node6 -->
<g id="edge5" class="edge">
<title>Node5&#45;&gt;Node6</title>
<path fill="none" stroke="midnightblue" d="M308.11,-792.37C298.3,-789.58 288.37,-785.62 280,-780 233.78,-748.96 201.53,-687.38 190.34,-663.64"/>
<polygon fill="midnightblue" stroke="midnightblue" points="307.27,-795.76 317.82,-794.78 308.96,-788.97 307.27,-795.76"/>
</g>
<!-- Node10 -->
<g id="node10" class="node">
<title>Node10</title>
<g id="a_node10"><a xlink:href="geometry_8f90.html#a9062f3787220118ef48436b46c7c65cc" target="_top" xlink:title=" ">
<polygon fill="white" stroke="black" points="677,-134.5 677,-153.5 752,-153.5 752,-134.5 677,-134.5"/>
<text text-anchor="middle" x="714.5" y="-141.5" font-family="Helvetica,sans-Serif" font-size="10.00">print_geosum</text>
</a>
</g>
</g>
<!-- Node9&#45;&gt;Node10 -->
<g id="edge9" class="edge">
<title>Node9&#45;&gt;Node10</title>
<path fill="none" stroke="midnightblue" d="M823.1,-144C800.69,-144 773.64,-144 752.27,-144"/>
<polygon fill="midnightblue" stroke="midnightblue" points="823.36,-147.5 833.36,-144 823.36,-140.5 823.36,-147.5"/>
</g>
<!-- Node11 -->
<g id="node11" class="node">
<title>Node11</title>
<g id="a_node11"><a xlink:href="geometry_8f90.html#a23b2001cff658be234bf77942d0d5fd4" target="_top" xlink:title=" ">
<polygon fill="white" stroke="black" points="313,-134.5 313,-153.5 396,-153.5 396,-134.5 313,-134.5"/>
<text text-anchor="middle" x="354.5" y="-141.5" font-family="Helvetica,sans-Serif" font-size="10.00">main_geometry</text>
</a>
</g>
</g>
<!-- Node10&#45;&gt;Node11 -->
<g id="edge10" class="edge">
<title>Node10&#45;&gt;Node11</title>
<path fill="none" stroke="midnightblue" d="M666.48,-144C595.71,-144 463.01,-144 396.17,-144"/>
<polygon fill="midnightblue" stroke="midnightblue" points="666.87,-147.5 676.87,-144 666.87,-140.5 666.87,-147.5"/>
</g>
<!-- Node12 -->
<g id="node12" class="node">
<title>Node12</title>
<g id="a_node12"><a xlink:href="namespacextb__prog__info.html#a075fccea4f47f761a7b667bb819253da" target="_top" xlink:title="Main program of the info submodule.">
<polygon fill="white" stroke="black" points="131.5,-172.5 131.5,-191.5 238.5,-191.5 238.5,-172.5 131.5,-172.5"/>
<text text-anchor="middle" x="185" y="-179.5" font-family="Helvetica,sans-Serif" font-size="10.00">xtb_prog_info::xtbinfo</text>
</a>
</g>
</g>
<!-- Node11&#45;&gt;Node12 -->
<g id="edge11" class="edge">
<title>Node11&#45;&gt;Node12</title>
<path fill="none" stroke="midnightblue" d="M302.97,-155.46C279,-160.9 250.69,-167.32 227.92,-172.49"/>
<polygon fill="midnightblue" stroke="midnightblue" points="303.98,-158.82 312.95,-153.2 302.43,-152 303.98,-158.82"/>
</g>
<!-- Node14 -->
<g id="node14" class="node">
<title>Node14</title>
<g id="a_node14"><a xlink:href="namespacextb__prog__main.html#a92b3b61ee04235e6343f652095682529" target="_top" xlink:title=" ">
<polygon fill="white" stroke="black" points="126,-248.5 126,-267.5 244,-267.5 244,-248.5 126,-248.5"/>
<text text-anchor="middle" x="185" y="-255.5" font-family="Helvetica,sans-Serif" font-size="10.00">xtb_prog_main::xtbmain</text>
</a>
</g>
</g>
<!-- Node11&#45;&gt;Node14 -->
<g id="edge13" class="edge">
<title>Node11&#45;&gt;Node14</title>
<path fill="none" stroke="midnightblue" d="M303.63,-156.91C295.46,-159.97 287.28,-163.64 280,-168 275.08,-170.95 218.86,-225.81 195.79,-248.4"/>
<polygon fill="midnightblue" stroke="midnightblue" points="304.88,-160.18 313.18,-153.6 302.58,-153.57 304.88,-160.18"/>
</g>
<!-- Node13 -->
<g id="node13" class="node">
<title>Node13</title>
<g id="a_node13"><a xlink:href="primary_8f90.html#a2a67903cf5be605c5b6d3c362c6a3c5c" target="_top" xlink:title="The primary driver for the xtb program package.">
<polygon fill="white" stroke="black" points="0,-248.5 0,-267.5 90,-267.5 90,-248.5 0,-248.5"/>
<text text-anchor="middle" x="45" y="-255.5" font-family="Helvetica,sans-Serif" font-size="10.00">xtb_prog_primary</text>
</a>
</g>
</g>
<!-- Node12&#45;&gt;Node13 -->
<g id="edge12" class="edge">
<title>Node12&#45;&gt;Node13</title>
<path fill="none" stroke="midnightblue" d="M157.75,-196.46C130.03,-211.72 87.11,-235.36 63.34,-248.45"/>
<polygon fill="midnightblue" stroke="midnightblue" points="159.45,-199.52 166.52,-191.63 156.07,-193.38 159.45,-199.52"/>
</g>
<!-- Node14&#45;&gt;Node13 -->
<g id="edge14" class="edge">
<title>Node14&#45;&gt;Node13</title>
<path fill="none" stroke="midnightblue" d="M115.73,-258C107.06,-258 98.37,-258 90.22,-258"/>
<polygon fill="midnightblue" stroke="midnightblue" points="115.88,-261.5 125.88,-258 115.88,-254.5 115.88,-261.5"/>
</g>
<!-- Node15&#45;&gt;Node16 -->
<g id="edge16" class="edge">
<title>Node15&#45;&gt;Node16</title>
<path fill="none" stroke="midnightblue" d="M965.95,-414.57C951.07,-416.32 935.41,-418.15 921.1,-419.83"/>
<polygon fill="midnightblue" stroke="midnightblue" points="966.58,-418.02 976.11,-413.38 965.77,-411.07 966.58,-418.02"/>
</g>
<!-- Node17 -->
<g id="node17" class="node">
<title>Node17</title>
<g id="a_node17"><a xlink:href="namespacextb__gfnff__setup.html#a4aeb50102462398d4f57781b1c421257" target="_top" xlink:title=" ">
<polygon fill="white" stroke="black" points="661.5,-481 661.5,-511 767.5,-511 767.5,-481 661.5,-481"/>
<text text-anchor="start" x="669.5" y="-499" font-family="Helvetica,sans-Serif" font-size="10.00">xtb_gfnff_setup::gfnff</text>
<text text-anchor="middle" x="714.5" y="-488" font-family="Helvetica,sans-Serif" font-size="10.00">_setup</text>
</a>
</g>
</g>
<!-- Node16&#45;&gt;Node17 -->
<g id="edge17" class="edge">
<title>Node16&#45;&gt;Node17</title>
<path fill="none" stroke="midnightblue" d="M836.62,-439.85C811.07,-451.69 774.38,-468.7 748.08,-480.89"/>
<polygon fill="midnightblue" stroke="midnightblue" points="838.22,-442.97 845.82,-435.59 835.28,-436.62 838.22,-442.97"/>
</g>
<!-- Node18 -->
<g id="node18" class="node">
<title>Node18</title>
<g id="a_node18"><a xlink:href="namespacextb__main__setup.html#a01dff07fc5b7e8c442d7e62c00377fc4" target="_top" xlink:title=" ">
<polygon fill="white" stroke="black" points="465,-538.5 465,-557.5 625,-557.5 625,-538.5 465,-538.5"/>
<text text-anchor="middle" x="545" y="-545.5" font-family="Helvetica,sans-Serif" font-size="10.00">xtb_main_setup::newgffcalculator</text>
</a>
</g>
</g>
<!-- Node17&#45;&gt;Node18 -->
<g id="edge18" class="edge">
<title>Node17&#45;&gt;Node18</title>
<path fill="none" stroke="midnightblue" d="M655.48,-514.01C628.98,-522.24 598.67,-531.65 576.67,-538.48"/>
<polygon fill="midnightblue" stroke="midnightblue" points="656.54,-517.35 665.05,-511.04 654.46,-510.66 656.54,-517.35"/>
</g>
<!-- Node18&#45;&gt;Node5 -->
<g id="edge38" class="edge">
<title>Node18&#45;&gt;Node5</title>
<path fill="none" stroke="midnightblue" d="M531.39,-566.03C514.64,-590.53 484.86,-636.1 465,-678 444.41,-721.44 464.43,-747.51 429,-780 418.7,-789.44 404.33,-794.32 391.03,-796.8"/>
<polygon fill="midnightblue" stroke="midnightblue" points="534.32,-567.94 537.12,-557.72 528.56,-563.96 534.32,-567.94"/>
</g>
<!-- Node19 -->
<g id="node19" class="node">
<title>Node19</title>
<g id="a_node19"><a xlink:href="namespacextb__api__calculator.html#a6d6689e12fc963d1bc325f687a8d7d5d" target="_top" xlink:title=" ">
<polygon fill="white" stroke="black" points="307,-451 307,-481 402,-481 402,-451 307,-451"/>
<text text-anchor="start" x="315" y="-469" font-family="Helvetica,sans-Serif" font-size="10.00">xtb_api_calculator</text>
<text text-anchor="middle" x="354.5" y="-458" font-family="Helvetica,sans-Serif" font-size="10.00">::loadgfnff_api</text>
</a>
</g>
</g>
<!-- Node18&#45;&gt;Node19 -->
<g id="edge19" class="edge">
<title>Node18&#45;&gt;Node19</title>
<path fill="none" stroke="midnightblue" d="M517.28,-533.5C494.27,-521.31 459.97,-503.87 429,-491 420.41,-487.43 411.11,-483.97 402.11,-480.82"/>
<polygon fill="midnightblue" stroke="midnightblue" points="515.94,-536.75 526.41,-538.37 519.24,-530.57 515.94,-536.75"/>
</g>
<!-- Node20 -->
<g id="node20" class="node">
<title>Node20</title>
<g id="a_node20"><a xlink:href="namespacextb__main__setup.html#a2873ec6fc259dc1f93f4c74d34501d91" target="_top" xlink:title=" ">
<polygon fill="white" stroke="black" points="280,-374.5 280,-393.5 429,-393.5 429,-374.5 280,-374.5"/>
<text text-anchor="middle" x="354.5" y="-381.5" font-family="Helvetica,sans-Serif" font-size="10.00">xtb_main_setup::newcalculator</text>
</a>
</g>
</g>
<!-- Node18&#45;&gt;Node20 -->
<g id="edge20" class="edge">
<title>Node18&#45;&gt;Node20</title>
<path fill="none" stroke="midnightblue" d="M533.48,-529.28C515.74,-499.37 477.07,-440.84 429,-408 419.91,-401.79 409.1,-397.1 398.61,-393.58"/>
<polygon fill="midnightblue" stroke="midnightblue" points="530.63,-531.35 538.68,-538.25 536.69,-527.84 530.63,-531.35"/>
</g>
<!-- Node21 -->
<g id="node21" class="node">
<title>Node21</title>
<g id="a_node21"><a xlink:href="namespacextb__gfnff__convert.html#adf399b47b9f2a8364327d9d5c38cb2b8" target="_top" xlink:title=" ">
<polygon fill="white" stroke="black" points="307,-325 307,-355 402,-355 402,-325 307,-325"/>
<text text-anchor="start" x="315" y="-343" font-family="Helvetica,sans-Serif" font-size="10.00">xtb_gfnff_convert::</text>
<text text-anchor="middle" x="354.5" y="-332" font-family="Helvetica,sans-Serif" font-size="10.00">struc_convert</text>
</a>
</g>
</g>
<!-- Node18&#45;&gt;Node21 -->
<g id="edge22" class="edge">
<title>Node18&#45;&gt;Node21</title>
<path fill="none" stroke="midnightblue" d="M537.05,-528.86C522.65,-491.84 486.07,-410.1 429,-365 421.17,-358.82 411.73,-354.12 402.26,-350.56"/>
<polygon fill="midnightblue" stroke="midnightblue" points="533.86,-530.32 540.66,-538.44 540.41,-527.85 533.86,-530.32"/>
</g>
<!-- Node22 -->
<g id="node22" class="node">
<title>Node22</title>
<g id="a_node22"><a xlink:href="gfnff_8f90.html#a37a3363fde733941b6467279048767fb" target="_top" xlink:title=" ">
<polygon fill="white" stroke="black" points="313,-751.5 313,-770.5 396,-770.5 396,-751.5 313,-751.5"/>
<text text-anchor="middle" x="354.5" y="-758.5" font-family="Helvetica,sans-Serif" font-size="10.00">test_gfnff_gbsa</text>
</a>
</g>
</g>
<!-- Node18&#45;&gt;Node22 -->
<g id="edge24" class="edge">
<title>Node18&#45;&gt;Node22</title>
<path fill="none" stroke="midnightblue" d="M532.47,-566.53C516.9,-591.65 488.42,-637.95 465,-678 448.52,-706.17 454.87,-722.1 429,-742 419.6,-749.23 407.72,-753.73 396.27,-756.52"/>
<polygon fill="midnightblue" stroke="midnightblue" points="535.64,-568.06 537.94,-557.72 529.69,-564.37 535.64,-568.06"/>
</g>
<!-- Node23 -->
<g id="node23" class="node">
<title>Node23</title>
<g id="a_node23"><a xlink:href="gfnff_8f90.html#a1537c4a10909349e4a2fd085248fc0cb" target="_top" xlink:title=" ">
<polygon fill="white" stroke="black" points="318,-713.5 318,-732.5 391,-732.5 391,-713.5 318,-713.5"/>
<text text-anchor="middle" x="354.5" y="-720.5" font-family="Helvetica,sans-Serif" font-size="10.00">test_gfnff_hb</text>
</a>
</g>
</g>
<!-- Node18&#45;&gt;Node23 -->
<g id="edge26" class="edge">
<title>Node18&#45;&gt;Node23</title>
<path fill="none" stroke="midnightblue" d="M535.42,-566.93C519.42,-600.04 481.8,-668.32 429,-704 417.86,-711.53 403.93,-716.07 391.2,-718.82"/>
<polygon fill="midnightblue" stroke="midnightblue" points="538.6,-568.4 539.69,-557.86 532.26,-565.42 538.6,-568.4"/>
</g>
<!-- Node24 -->
<g id="node24" class="node">
<title>Node24</title>
<g id="a_node24"><a xlink:href="gfnff_8f90.html#a99d4eefcd1d33ae189dc8ce62bb94464" target="_top" xlink:title=" ">
<polygon fill="white" stroke="black" points="304,-664 304,-694 405,-694 405,-664 304,-664"/>
<text text-anchor="start" x="312" y="-682" font-family="Helvetica,sans-Serif" font-size="10.00">test_gfnff_mindless</text>
<text text-anchor="middle" x="354.5" y="-671" font-family="Helvetica,sans-Serif" font-size="10.00">_basic</text>
</a>
</g>
</g>
<!-- Node18&#45;&gt;Node24 -->
<g id="edge28" class="edge">
<title>Node18&#45;&gt;Node24</title>
<path fill="none" stroke="midnightblue" d="M529.56,-565.54C509.35,-589.03 470.43,-630.59 429,-655 421.6,-659.36 413.3,-663.04 405.03,-666.11"/>
<polygon fill="midnightblue" stroke="midnightblue" points="532.35,-567.66 536.13,-557.77 527,-563.15 532.35,-567.66"/>
</g>
<!-- Node25 -->
<g id="node25" class="node">
<title>Node25</title>
<g id="a_node25"><a xlink:href="gfnff_8f90.html#a0e92e95bfacd9d1eead0f4b7059859b2" target="_top" xlink:title=" ">
<polygon fill="white" stroke="black" points="304,-615 304,-645 405,-645 405,-615 304,-615"/>
<text text-anchor="start" x="312" y="-633" font-family="Helvetica,sans-Serif" font-size="10.00">test_gfnff_mindless</text>
<text text-anchor="middle" x="354.5" y="-622" font-family="Helvetica,sans-Serif" font-size="10.00">_solvation</text>
</a>
</g>
</g>
<!-- Node18&#45;&gt;Node25 -->
<g id="edge30" class="edge">
<title>Node18&#45;&gt;Node25</title>
<path fill="none" stroke="midnightblue" d="M517.28,-562.5C494.27,-574.69 459.97,-592.13 429,-605 420.66,-608.47 411.65,-611.83 402.9,-614.91"/>
<polygon fill="midnightblue" stroke="midnightblue" points="519.24,-565.43 526.41,-557.63 515.94,-559.25 519.24,-565.43"/>
</g>
<!-- Node26 -->
<g id="node26" class="node">
<title>Node26</title>
<g id="a_node26"><a xlink:href="gfnff_8f90.html#a3524b271100f047e2d666a7567eb379a" target="_top" xlink:title=" ">
<polygon fill="white" stroke="black" points="315.5,-576.5 315.5,-595.5 393.5,-595.5 393.5,-576.5 315.5,-576.5"/>
<text text-anchor="middle" x="354.5" y="-583.5" font-family="Helvetica,sans-Serif" font-size="10.00">test_gfnff_pdb</text>
</a>
</g>
</g>
<!-- Node18&#45;&gt;Node26 -->
<g id="edge32" class="edge">
<title>Node18&#45;&gt;Node26</title>
<path fill="none" stroke="midnightblue" d="M486.46,-559.6C456.31,-565.68 420.21,-572.95 393.56,-578.33"/>
<polygon fill="midnightblue" stroke="midnightblue" points="487.32,-563 496.43,-557.59 485.94,-556.13 487.32,-563"/>
</g>
<!-- Node27 -->
<g id="node27" class="node">
<title>Node27</title>
<g id="a_node27"><a xlink:href="gfnff_8f90.html#a191f0af42b3874a93555aee466e8bc8c" target="_top" xlink:title=" ">
<polygon fill="white" stroke="black" points="306.5,-538.5 306.5,-557.5 402.5,-557.5 402.5,-538.5 306.5,-538.5"/>
<text text-anchor="middle" x="354.5" y="-545.5" font-family="Helvetica,sans-Serif" font-size="10.00">test_gfnff_scaleup</text>
</a>
</g>
</g>
<!-- Node18&#45;&gt;Node27 -->
<g id="edge34" class="edge">
<title>Node18&#45;&gt;Node27</title>
<path fill="none" stroke="midnightblue" d="M454.65,-548C436.7,-548 418.5,-548 402.69,-548"/>
<polygon fill="midnightblue" stroke="midnightblue" points="454.88,-551.5 464.88,-548 454.88,-544.5 454.88,-551.5"/>
</g>
<!-- Node28 -->
<g id="node28" class="node">
<title>Node28</title>
<g id="a_node28"><a xlink:href="gfnff_8f90.html#a63adb2c49c27ebcfcd6ea49fe8259b80" target="_top" xlink:title=" ">
<polygon fill="white" stroke="black" points="316.5,-500.5 316.5,-519.5 392.5,-519.5 392.5,-500.5 316.5,-500.5"/>
<text text-anchor="middle" x="354.5" y="-507.5" font-family="Helvetica,sans-Serif" font-size="10.00">test_gfnff_sdf</text>
</a>
</g>
</g>
<!-- Node18&#45;&gt;Node28 -->
<g id="edge36" class="edge">
<title>Node18&#45;&gt;Node28</title>
<path fill="none" stroke="midnightblue" d="M486.35,-536.38C455.88,-530.24 419.36,-522.87 392.65,-517.49"/>
<polygon fill="midnightblue" stroke="midnightblue" points="485.94,-539.87 496.43,-538.41 487.32,-533 485.94,-539.87"/>
</g>
<!-- Node29 -->
<g id="node29" class="node">
<title>Node29</title>
<g id="a_node29"><a xlink:href="namespacextb__prog__topology.html#aa263269ef9a32674220b4f1bfda0c066" target="_top" xlink:title="Main program of the topology submodule.">
<polygon fill="white" stroke="black" points="135.5,-347 135.5,-377 234.5,-377 234.5,-347 135.5,-347"/>
<text text-anchor="start" x="143.5" y="-365" font-family="Helvetica,sans-Serif" font-size="10.00">xtb_prog_topology::</text>
<text text-anchor="middle" x="185" y="-354" font-family="Helvetica,sans-Serif" font-size="10.00">xtbtopology</text>
</a>
</g>
</g>
<!-- Node18&#45;&gt;Node29 -->
<g id="edge39" class="edge">
<title>Node18&#45;&gt;Node29</title>
<path fill="none" stroke="midnightblue" d="M530.03,-530.63C510.1,-507.01 471.22,-465.09 429,-442 368.94,-409.16 344.68,-425.42 280,-403 258.64,-395.59 235.33,-385.45 217.28,-377.1"/>
<polygon fill="midnightblue" stroke="midnightblue" points="527.42,-532.96 536.49,-538.43 532.81,-528.49 527.42,-532.96"/>
</g>
<!-- Node20&#45;&gt;Node14 -->
<g id="edge21" class="edge">
<title>Node20&#45;&gt;Node14</title>
<path fill="none" stroke="midnightblue" d="M293.22,-370.77C288.6,-368.81 284.14,-366.57 280,-364 238.41,-338.19 204.68,-288.45 191.72,-267.59"/>
<polygon fill="midnightblue" stroke="midnightblue" points="292.26,-374.15 302.85,-374.4 294.73,-367.6 292.26,-374.15"/>
</g>
<!-- Node21&#45;&gt;Node14 -->
<g id="edge23" class="edge">
<title>Node21&#45;&gt;Node14</title>
<path fill="none" stroke="midnightblue" d="M304.89,-321.1C296.51,-317.58 287.95,-313.8 280,-310 251.91,-296.55 220.46,-278.52 202,-267.61"/>
<polygon fill="midnightblue" stroke="midnightblue" points="303.64,-324.38 314.22,-324.96 306.32,-317.91 303.64,-324.38"/>
</g>
<!-- Node22&#45;&gt;Node6 -->
<g id="edge25" class="edge">
<title>Node22&#45;&gt;Node6</title>
<path fill="none" stroke="midnightblue" d="M303.12,-751.57C295.13,-749.07 287.14,-745.93 280,-742 242.19,-721.21 207.96,-681.75 193.41,-663.59"/>
<polygon fill="midnightblue" stroke="midnightblue" points="302.26,-754.96 312.83,-754.31 304.16,-748.22 302.26,-754.96"/>
</g>
<!-- Node23&#45;&gt;Node6 -->
<g id="edge27" class="edge">
<title>Node23&#45;&gt;Node6</title>
<path fill="none" stroke="midnightblue" d="M307.87,-712.99C298.52,-710.44 288.84,-707.44 280,-704 251.06,-692.74 219.62,-674.73 201.43,-663.67"/>
<polygon fill="midnightblue" stroke="midnightblue" points="307.26,-716.45 317.82,-715.57 309.02,-709.67 307.26,-716.45"/>
</g>
<!-- Node24&#45;&gt;Node6 -->
<g id="edge29" class="edge">
<title>Node24&#45;&gt;Node6</title>
<path fill="none" stroke="midnightblue" d="M293.56,-670.05C268.53,-666.32 240.4,-662.12 219.2,-658.95"/>
<polygon fill="midnightblue" stroke="midnightblue" points="293.29,-673.55 303.7,-671.57 294.32,-666.63 293.29,-673.55"/>
</g>
<!-- Node25&#45;&gt;Node6 -->
<g id="edge31" class="edge">
<title>Node25&#45;&gt;Node6</title>
<path fill="none" stroke="midnightblue" d="M293.56,-638.59C268.53,-642.18 240.4,-646.2 219.2,-649.24"/>
<polygon fill="midnightblue" stroke="midnightblue" points="294.3,-642.02 303.7,-637.14 293.3,-635.09 294.3,-642.02"/>
</g>
<!-- Node26&#45;&gt;Node6 -->
<g id="edge33" class="edge">
<title>Node26&#45;&gt;Node6</title>
<path fill="none" stroke="midnightblue" d="M305.36,-597.56C296.81,-600.05 288.07,-602.88 280,-606 251.63,-616.97 220.53,-633.89 202.17,-644.44"/>
<polygon fill="midnightblue" stroke="midnightblue" points="306.56,-600.86 315.25,-594.81 304.68,-594.12 306.56,-600.86"/>
</g>
<!-- Node27&#45;&gt;Node6 -->
<g id="edge35" class="edge">
<title>Node27&#45;&gt;Node6</title>
<path fill="none" stroke="midnightblue" d="M296.56,-559.67C290.81,-561.74 285.19,-564.17 280,-567 242.53,-587.46 208.39,-626.17 193.66,-644.24"/>
<polygon fill="midnightblue" stroke="midnightblue" points="297.87,-562.93 306.3,-556.51 295.71,-556.27 297.87,-562.93"/>
</g>
<!-- Node28&#45;&gt;Node6 -->
<g id="edge37" class="edge">
<title>Node28&#45;&gt;Node6</title>
<path fill="none" stroke="midnightblue" d="M306.38,-517.16C297.14,-519.92 287.88,-523.73 280,-529 233.96,-559.79 201.6,-620.89 190.36,-644.43"/>
<polygon fill="midnightblue" stroke="midnightblue" points="307.54,-520.48 316.34,-514.57 305.78,-513.71 307.54,-520.48"/>
</g>
<!-- Node29&#45;&gt;Node13 -->
<g id="edge40" class="edge">
<title>Node29&#45;&gt;Node13</title>
<path fill="none" stroke="midnightblue" d="M155.62,-340.62C125.9,-318.21 80.54,-284.03 58.67,-267.55"/>
<polygon fill="midnightblue" stroke="midnightblue" points="153.84,-343.65 163.93,-346.88 158.05,-338.06 153.84,-343.65"/>
</g>
<!-- Node30&#45;&gt;Node14 -->
<g id="edge42" class="edge">
<title>Node30&#45;&gt;Node14</title>
<path fill="none" stroke="midnightblue" d="M471.17,-262.78C404.19,-261.66 306.16,-260.01 244.25,-258.98"/>
<polygon fill="midnightblue" stroke="midnightblue" points="471.17,-266.28 481.23,-262.95 471.29,-259.28 471.17,-266.28"/>
</g>
<!-- Node31&#45;&gt;Node14 -->
<g id="edge44" class="edge">
<title>Node31&#45;&gt;Node14</title>
<path fill="none" stroke="midnightblue" d="M793.86,-227.57C713.41,-229.5 579.89,-233.23 465,-239 388.63,-242.84 300.63,-249.14 244.21,-253.43"/>
<polygon fill="midnightblue" stroke="midnightblue" points="793.97,-231.07 803.88,-227.34 793.8,-224.07 793.97,-231.07"/>
</g>
<!-- Node33&#45;&gt;Node16 -->
<g id="edge48" class="edge">
<title>Node33&#45;&gt;Node16</title>
<path fill="none" stroke="midnightblue" d="M982.08,-381.83C952.89,-393.18 916.92,-407.17 893.38,-416.32"/>
<polygon fill="midnightblue" stroke="midnightblue" points="983.65,-384.98 991.7,-378.09 981.11,-378.45 983.65,-384.98"/>
</g>
<!-- Node34&#45;&gt;Node14 -->
<g id="edge50" class="edge">
<title>Node34&#45;&gt;Node14</title>
<path fill="none" stroke="midnightblue" d="M473.76,-180.58C419.67,-181.33 343.65,-186.45 280,-206 248.98,-215.53 216.7,-236.13 199.21,-248.34"/>
<polygon fill="midnightblue" stroke="midnightblue" points="473.97,-184.08 483.93,-180.48 473.9,-177.08 473.97,-184.08"/>
</g>
<!-- Node36 -->
<g id="node36" class="node">
<title>Node36</title>
<g id="a_node36"><a xlink:href="namespacextb__constrain__param.html#ad84b3d616937ffe722a0b7c064a1f3df" target="_top" xlink:title=" ">
<polygon fill="white" stroke="black" points="661,-299 661,-329 768,-329 768,-299 661,-299"/>
<text text-anchor="start" x="669" y="-317" font-family="Helvetica,sans-Serif" font-size="10.00">xtb_constrain_param</text>
<text text-anchor="middle" x="714.5" y="-306" font-family="Helvetica,sans-Serif" font-size="10.00">::read_userdata</text>
</a>
</g>
</g>
<!-- Node35&#45;&gt;Node36 -->
<g id="edge52" class="edge">
<title>Node35&#45;&gt;Node36</title>
<path fill="none" stroke="midnightblue" d="M968.51,-331.34C956.18,-334.11 943.25,-336.54 931,-338 874.95,-344.66 859.95,-345.45 804,-338 790.11,-336.15 775.32,-332.74 761.88,-329.05"/>
<polygon fill="midnightblue" stroke="midnightblue" points="969.31,-334.75 978.25,-329.06 967.72,-327.93 969.31,-334.75"/>
</g>
<!-- Node37 -->
<g id="node37" class="node">
<title>Node37</title>
<g id="a_node37"><a xlink:href="namespacextb__constrain__param.html#ad864633ee76e58cbe61b026854801d68" target="_top" xlink:title=" ">
<polygon fill="white" stroke="black" points="814,-299 814,-329 921,-329 921,-299 814,-299"/>
<text text-anchor="start" x="822" y="-317" font-family="Helvetica,sans-Serif" font-size="10.00">xtb_constrain_param</text>
<text text-anchor="middle" x="867.5" y="-306" font-family="Helvetica,sans-Serif" font-size="10.00">::set_scan</text>
</a>
</g>
</g>
<!-- Node35&#45;&gt;Node37 -->
<g id="edge54" class="edge">
<title>Node35&#45;&gt;Node37</title>
<path fill="none" stroke="midnightblue" d="M967.46,-314C952.13,-314 935.9,-314 921.11,-314"/>
<polygon fill="midnightblue" stroke="midnightblue" points="967.9,-317.5 977.9,-314 967.9,-310.5 967.9,-317.5"/>
</g>
<!-- Node36&#45;&gt;Node14 -->
<g id="edge53" class="edge">
<title>Node36&#45;&gt;Node14</title>
<path fill="none" stroke="midnightblue" d="M650.75,-310.12C566.27,-304.49 411.37,-292.75 280,-275 265.04,-272.98 248.84,-270.25 234.17,-267.56"/>
<polygon fill="midnightblue" stroke="midnightblue" points="650.74,-313.62 660.95,-310.79 651.2,-306.64 650.74,-313.62"/>
</g>
<!-- Node37&#45;&gt;Node36 -->
<g id="edge55" class="edge">
<title>Node37&#45;&gt;Node36</title>
<path fill="none" stroke="midnightblue" d="M803.46,-314C791.67,-314 779.46,-314 768.03,-314"/>
<polygon fill="midnightblue" stroke="midnightblue" points="803.69,-317.5 813.69,-314 803.69,-310.5 803.69,-317.5"/>
</g>
</g>
</svg>
        <g id="navigator" transform="translate(0 0)" fill="#404254">
                <rect fill="#f2f5e9" fill-opacity="0.5" stroke="#606060" stroke-width=".5" x="0" y="0" width="60" height="60"/>
                <use id="zoomplus" xlink:href="#zoomPlus" x="17" y="9" onmousedown="handleZoom(evt,'in')"/>
                <use id="zoomminus" xlink:href="#zoomMin" x="42" y="9" onmousedown="handleZoom(evt,'out')"/>
                <use id="reset" xlink:href="#resetDef" x="30" y="36" onmousedown="handleReset()"/>
                <g id="arrowUp" xlink:href="#dirArrow" transform="translate(30 24)" onmousedown="handlePan(0,-1)">
                  <use xlink:href="#rim" fill="#404040">
                        <set attributeName="fill" to="#808080" begin="arrowUp.mouseover" end="arrowUp.mouseout"/>
                  </use>
                  <path fill="none" stroke="white" stroke-width="1.5" d="M0,-3.0v7 M-2.5,-0.5L0,-3.0L2.5,-0.5"/>
                </g>
                <g id="arrowRight" xlink:href="#dirArrow" transform="rotate(90) translate(36 -43)" onmousedown="handlePan(1,0)">
                  <use xlink:href="#rim" fill="#404040">
                        <set attributeName="fill" to="#808080" begin="arrowRight.mouseover" end="arrowRight.mouseout"/>
                  </use>
                  <path fill="none" stroke="white" stroke-width="1.5" d="M0,-3.0v7 M-2.5,-0.5L0,-3.0L2.5,-0.5"/>
                </g>
                <g id="arrowDown" xlink:href="#dirArrow" transform="rotate(180) translate(-30 -48)" onmousedown="handlePan(0,1)">
                  <use xlink:href="#rim" fill="#404040">
                        <set attributeName="fill" to="#808080" begin="arrowDown.mouseover" end="arrowDown.mouseout"/>
                  </use>
                  <path fill="none" stroke="white" stroke-width="1.5" d="M0,-3.0v7 M-2.5,-0.5L0,-3.0L2.5,-0.5"/>
                </g>
                <g id="arrowLeft" xlink:href="#dirArrow" transform="rotate(270) translate(-36 17)" onmousedown="handlePan(-1,0)">
                  <use xlink:href="#rim" fill="#404040">
                        <set attributeName="fill" to="#808080" begin="arrowLeft.mouseover" end="arrowLeft.mouseout"/>
                  </use>
                  <path fill="none" stroke="white" stroke-width="1.5" d="M0,-3.0v7 M-2.5,-0.5L0,-3.0L2.5,-0.5"/>
                </g>
        </g>
        <svg viewBox="0 0 15 15" width="100%" height="30px" preserveAspectRatio="xMaxYMin meet">
         <g id="arrow_out" transform="scale(0.3 0.3)">
          <a xlink:href="constr_8f90_a32be9c5b624117bb5292ce41655493c1_icgraph_org.svg" target="_base">
           <rect id="button" ry="5" rx="5" y="6" x="6" height="38" width="38"
                fill="#f2f5e9" fill-opacity="0.5" stroke="#606060" stroke-width="1.0"/>
           <path id="arrow"
             d="M 11.500037,31.436501 C 11.940474,20.09759 22.043105,11.32322 32.158766,21.979434 L 37.068811,17.246167 C 37.068811,17.246167 37.088388,32 37.088388,32 L 22.160133,31.978069 C 22.160133,31.978069 26.997745,27.140456 26.997745,27.140456 C 18.528582,18.264221 13.291696,25.230495 11.500037,31.436501 z"
             style="fill:#404040;"/>
          </a>
         </g>
        </svg>
</svg>
