<?xml version="1.0" encoding="UTF-8" standalone="no"?>
<!DOCTYPE svg PUBLIC "-//W3C//DTD SVG 1.1//EN"
 "http://www.w3.org/Graphics/SVG/1.1/DTD/svg11.dtd">
<!-- Generated by graphviz version 2.43.0 (0)
 -->
<!-- Title: valijk Pages: 1 -->
<!--zoomable 645 -->
<svg id="main" version="1.1" xmlns="http://www.w3.org/2000/svg" xmlns:xlink="http://www.w3.org/1999/xlink" xml:space="preserve" onload="init(evt)">
<style type="text/css"><![CDATA[
.edge:hover path { stroke: red; }
.edge:hover polygon { stroke: red; fill: red; }
]]></style>
<script type="text/javascript"><![CDATA[
var edges = document.getElementsByTagName('g');
if (edges && edges.length) {
  for (var i=0;i<edges.length;i++) {
    if (edges[i].id.substr(0,4)=='edge') {
      edges[i].setAttribute('class','edge');
    }
  }
}
]]></script>
        <defs>
                <circle id="rim" cx="0" cy="0" r="7"/>
                <circle id="rim2" cx="0" cy="0" r="3.5"/>
                <g id="zoomPlus">
                        <use xlink:href="#rim" fill="#404040">
                                <set attributeName="fill" to="#808080" begin="zoomplus.mouseover" end="zoomplus.mouseout"/>
                        </use>
                        <path d="M-4,0h8M0,-4v8" fill="none" stroke="white" stroke-width="1.5" pointer-events="none"/>
                </g>
                <g id="zoomMin">
                        <use xlink:href="#rim" fill="#404040">
                                <set attributeName="fill" to="#808080" begin="zoomminus.mouseover" end="zoomminus.mouseout"/>
                        </use>
                        <path d="M-4,0h8" fill="none" stroke="white" stroke-width="1.5" pointer-events="none"/>
                </g>
                <g id="dirArrow">
                        <path fill="none" stroke="white" stroke-width="1.5" d="M0,-3.0v7 M-2.5,-0.5L0,-3.0L2.5,-0.5"/>
                </g>
               <g id="resetDef">
                       <use xlink:href="#rim2" fill="#404040">
                               <set attributeName="fill" to="#808080" begin="reset.mouseover" end="reset.mouseout"/>
                       </use>
               </g>
        </defs>

<script type="text/javascript">
var viewWidth = 961;
var viewHeight = 645;
var sectionId = 'dynsection-18';
</script>
<script xlink:href="svgpan.js"/>
<svg id="graph" class="graph">
<g id="viewport">
<title>valijk</title>
<polygon fill="white" stroke="transparent" points="-4,4 -4,-641 957,-641 957,4 -4,4"/>
<!-- Node1 -->
<g id="node1" class="node">
<title>Node1</title>
<g id="a_node1"><a xlink:title=" ">
<polygon fill="#bfbfbf" stroke="black" points="909,-232.5 909,-251.5 953,-251.5 953,-232.5 909,-232.5"/>
<text text-anchor="middle" x="931" y="-239.5" font-family="Helvetica,sans-Serif" font-size="10.00">valijk</text>
</a>
</g>
</g>
<!-- Node2 -->
<g id="node2" class="node">
<title>Node2</title>
<g id="a_node2"><a xlink:href="constr_8f90.html#a8b9983c57e44abcd5ef71525d9a9917b" target="_top" xlink:title=" ">
<polygon fill="white" stroke="black" points="823,-529.5 823,-548.5 870,-548.5 870,-529.5 823,-529.5"/>
<text text-anchor="middle" x="846.5" y="-536.5" font-family="Helvetica,sans-Serif" font-size="10.00">valijkl</text>
</a>
</g>
</g>
<!-- Node1&#45;&gt;Node2 -->
<g id="edge1" class="edge">
<title>Node1&#45;&gt;Node2</title>
<path fill="none" stroke="midnightblue" d="M924.57,-261.53C908.56,-319.19 861.88,-487.23 850.18,-529.34"/>
<polygon fill="midnightblue" stroke="midnightblue" points="928.04,-262.12 927.35,-251.55 921.3,-260.24 928.04,-262.12"/>
</g>
<!-- Node13 -->
<g id="node13" class="node">
<title>Node13</title>
<g id="a_node13"><a xlink:href="math_8f.html#ac9ee911a71ac94ef47b9d30cb1253cc5" target="_top" xlink:title=" ">
<polygon fill="white" stroke="black" points="820,-232.5 820,-251.5 873,-251.5 873,-232.5 820,-232.5"/>
<text text-anchor="middle" x="846.5" y="-239.5" font-family="Helvetica,sans-Serif" font-size="10.00">valijklff</text>
</a>
</g>
</g>
<!-- Node1&#45;&gt;Node13 -->
<g id="edge13" class="edge">
<title>Node1&#45;&gt;Node13</title>
<path fill="none" stroke="midnightblue" d="M898.52,-242C890.12,-242 881.13,-242 873.08,-242"/>
<polygon fill="midnightblue" stroke="midnightblue" points="898.75,-245.5 908.75,-242 898.75,-238.5 898.75,-245.5"/>
</g>
<!-- Node29 -->
<g id="node29" class="node">
<title>Node29</title>
<g id="a_node29"><a xlink:href="namespacextb__qmdff.html#aafafc2817fe56e50c04b8445f8d251cf" target="_top" xlink:title=" ">
<polygon fill="white" stroke="black" points="658,-0.5 658,-19.5 767,-19.5 767,-0.5 658,-0.5"/>
<text text-anchor="middle" x="712.5" y="-7.5" font-family="Helvetica,sans-Serif" font-size="10.00">xtb_qmdff::valijklff</text>
</a>
</g>
</g>
<!-- Node1&#45;&gt;Node29 -->
<g id="edge39" class="edge">
<title>Node1&#45;&gt;Node29</title>
<path fill="none" stroke="midnightblue" d="M920.09,-223.16C899.33,-185.16 847.83,-98.43 784,-45 770.9,-34.04 753.79,-25.43 739.7,-19.5"/>
<polygon fill="midnightblue" stroke="midnightblue" points="917.09,-224.97 924.91,-232.12 923.26,-221.65 917.09,-224.97"/>
</g>
<!-- Node3 -->
<g id="node3" class="node">
<title>Node3</title>
<g id="a_node3"><a xlink:href="geometry_8f90.html#a548ed51724367c60fe07eb362f66b7f6" target="_top" xlink:title=" ">
<polygon fill="white" stroke="black" points="672.5,-617.5 672.5,-636.5 752.5,-636.5 752.5,-617.5 672.5,-617.5"/>
<text text-anchor="middle" x="712.5" y="-624.5" font-family="Helvetica,sans-Serif" font-size="10.00">calc_torsions</text>
</a>
</g>
</g>
<!-- Node2&#45;&gt;Node3 -->
<g id="edge2" class="edge">
<title>Node2&#45;&gt;Node3</title>
<path fill="none" stroke="midnightblue" d="M833.97,-557.01C822.97,-572.74 805,-595.04 784,-608 774.62,-613.79 763.47,-617.84 752.84,-620.67"/>
<polygon fill="midnightblue" stroke="midnightblue" points="836.93,-558.87 839.6,-548.62 831.12,-554.97 836.93,-558.87"/>
</g>
<!-- Node8 -->
<g id="node8" class="node">
<title>Node8</title>
<g id="a_node8"><a xlink:href="namespacextb__scanparam.html#af9faebc2d0cad762d757858cb4759db4" target="_top" xlink:title=" ">
<polygon fill="white" stroke="black" points="641,-568 641,-598 784,-598 784,-568 641,-568"/>
<text text-anchor="start" x="649" y="-586" font-family="Helvetica,sans-Serif" font-size="10.00">xtb_scanparam::constrain</text>
<text text-anchor="middle" x="712.5" y="-575" font-family="Helvetica,sans-Serif" font-size="10.00">_all_torsions</text>
</a>
</g>
</g>
<!-- Node2&#45;&gt;Node8 -->
<g id="edge7" class="edge">
<title>Node2&#45;&gt;Node8</title>
<path fill="none" stroke="midnightblue" d="M813.13,-549.79C796.7,-555.27 776.48,-562.01 758.56,-567.98"/>
<polygon fill="midnightblue" stroke="midnightblue" points="814.43,-553.05 822.81,-546.56 812.21,-546.41 814.43,-553.05"/>
</g>
<!-- Node9 -->
<g id="node9" class="node">
<title>Node9</title>
<g id="a_node9"><a xlink:href="namespacextb__scanparam.html#a98e6076b6bb1acc609033880889710ae" target="_top" xlink:title=" ">
<polygon fill="white" stroke="black" points="644,-529.5 644,-548.5 781,-548.5 781,-529.5 644,-529.5"/>
<text text-anchor="middle" x="712.5" y="-536.5" font-family="Helvetica,sans-Serif" font-size="10.00">xtb_scanparam::pot_info</text>
</a>
</g>
</g>
<!-- Node2&#45;&gt;Node9 -->
<g id="edge8" class="edge">
<title>Node2&#45;&gt;Node9</title>
<path fill="none" stroke="midnightblue" d="M812.53,-539C802.89,-539 791.98,-539 781.02,-539"/>
<polygon fill="midnightblue" stroke="midnightblue" points="812.81,-542.5 822.81,-539 812.81,-535.5 812.81,-542.5"/>
</g>
<!-- Node10 -->
<g id="node10" class="node">
<title>Node10</title>
<g id="a_node10"><a xlink:href="namespacextb__constrain__param.html#aec900c7a40b32edce5ea0462453cac20" target="_top" xlink:title=" ">
<polygon fill="white" stroke="black" points="653,-480 653,-510 772,-510 772,-480 653,-480"/>
<text text-anchor="start" x="661" y="-498" font-family="Helvetica,sans-Serif" font-size="10.00">xtb_constrain_param</text>
<text text-anchor="middle" x="712.5" y="-487" font-family="Helvetica,sans-Serif" font-size="10.00">::set_constr</text>
</a>
</g>
</g>
<!-- Node2&#45;&gt;Node10 -->
<g id="edge9" class="edge">
<title>Node2&#45;&gt;Node10</title>
<path fill="none" stroke="midnightblue" d="M813.13,-528.21C796.7,-522.73 776.48,-515.99 758.56,-510.02"/>
<polygon fill="midnightblue" stroke="midnightblue" points="812.21,-531.59 822.81,-531.44 814.43,-524.95 812.21,-531.59"/>
</g>
<!-- Node4 -->
<g id="node4" class="node">
<title>Node4</title>
<g id="a_node4"><a xlink:href="geometry_8f90.html#a9062f3787220118ef48436b46c7c65cc" target="_top" xlink:title=" ">
<polygon fill="white" stroke="black" points="490,-617.5 490,-636.5 573,-636.5 573,-617.5 490,-617.5"/>
<text text-anchor="middle" x="531.5" y="-624.5" font-family="Helvetica,sans-Serif" font-size="10.00">print_geosum</text>
</a>
</g>
</g>
<!-- Node3&#45;&gt;Node4 -->
<g id="edge3" class="edge">
<title>Node3&#45;&gt;Node4</title>
<path fill="none" stroke="midnightblue" d="M661.87,-627C633.96,-627 599.56,-627 573.24,-627"/>
<polygon fill="midnightblue" stroke="midnightblue" points="662.22,-630.5 672.22,-627 662.22,-623.5 662.22,-630.5"/>
</g>
<!-- Node5 -->
<g id="node5" class="node">
<title>Node5</title>
<g id="a_node5"><a xlink:href="geometry_8f90.html#a23b2001cff658be234bf77942d0d5fd4" target="_top" xlink:title=" ">
<polygon fill="white" stroke="black" points="313.5,-617.5 313.5,-636.5 407.5,-636.5 407.5,-617.5 313.5,-617.5"/>
<text text-anchor="middle" x="360.5" y="-624.5" font-family="Helvetica,sans-Serif" font-size="10.00">main_geometry</text>
</a>
</g>
</g>
<!-- Node4&#45;&gt;Node5 -->
<g id="edge4" class="edge">
<title>Node4&#45;&gt;Node5</title>
<path fill="none" stroke="midnightblue" d="M479.41,-627C456.6,-627 429.91,-627 407.7,-627"/>
<polygon fill="midnightblue" stroke="midnightblue" points="479.59,-630.5 489.59,-627 479.59,-623.5 479.59,-630.5"/>
</g>
<!-- Node6 -->
<g id="node6" class="node">
<title>Node6</title>
<g id="a_node6"><a xlink:href="namespacextb__prog__info.html#a075fccea4f47f761a7b667bb819253da" target="_top" xlink:title="Main program of the info submodule.">
<polygon fill="white" stroke="black" points="139,-617.5 139,-636.5 263,-636.5 263,-617.5 139,-617.5"/>
<text text-anchor="middle" x="201" y="-624.5" font-family="Helvetica,sans-Serif" font-size="10.00">xtb_prog_info::xtbinfo</text>
</a>
</g>
</g>
<!-- Node5&#45;&gt;Node6 -->
<g id="edge5" class="edge">
<title>Node5&#45;&gt;Node6</title>
<path fill="none" stroke="midnightblue" d="M302.98,-627C290.09,-627 276.34,-627 263.26,-627"/>
<polygon fill="midnightblue" stroke="midnightblue" points="303.1,-630.5 313.1,-627 303.1,-623.5 303.1,-630.5"/>
</g>
<!-- Node7 -->
<g id="node7" class="node">
<title>Node7</title>
<g id="a_node7"><a xlink:href="primary_8f90.html#a2a67903cf5be605c5b6d3c362c6a3c5c" target="_top" xlink:title="The primary driver for the xtb program package.">
<polygon fill="white" stroke="black" points="0,-617.5 0,-636.5 103,-636.5 103,-617.5 0,-617.5"/>
<text text-anchor="middle" x="51.5" y="-624.5" font-family="Helvetica,sans-Serif" font-size="10.00">xtb_prog_primary</text>
</a>
</g>
</g>
<!-- Node6&#45;&gt;Node7 -->
<g id="edge6" class="edge">
<title>Node6&#45;&gt;Node7</title>
<path fill="none" stroke="midnightblue" d="M128.63,-627C119.99,-627 111.31,-627 103.06,-627"/>
<polygon fill="midnightblue" stroke="midnightblue" points="128.73,-630.5 138.73,-627 128.73,-623.5 128.73,-630.5"/>
</g>
<!-- Node11 -->
<g id="node11" class="node">
<title>Node11</title>
<g id="a_node11"><a xlink:href="namespacextb__constrain__param.html#ad84b3d616937ffe722a0b7c064a1f3df" target="_top" xlink:title=" ">
<polygon fill="white" stroke="black" points="301,-486 301,-516 420,-516 420,-486 301,-486"/>
<text text-anchor="start" x="309" y="-504" font-family="Helvetica,sans-Serif" font-size="10.00">xtb_constrain_param</text>
<text text-anchor="middle" x="360.5" y="-493" font-family="Helvetica,sans-Serif" font-size="10.00">::read_userdata</text>
</a>
</g>
</g>
<!-- Node10&#45;&gt;Node11 -->
<g id="edge10" class="edge">
<title>Node10&#45;&gt;Node11</title>
<path fill="none" stroke="midnightblue" d="M642.97,-501.65C630.35,-502.63 617.29,-503.48 605,-504 539.72,-506.75 523.33,-505.02 458,-504 445.77,-503.81 432.66,-503.48 420.18,-503.12"/>
<polygon fill="midnightblue" stroke="midnightblue" points="643.28,-505.13 652.96,-500.84 642.71,-498.16 643.28,-505.13"/>
</g>
<!-- Node12 -->
<g id="node12" class="node">
<title>Node12</title>
<g id="a_node12"><a xlink:href="namespacextb__constrain__param.html#ad864633ee76e58cbe61b026854801d68" target="_top" xlink:title=" ">
<polygon fill="white" stroke="black" points="472,-464 472,-494 591,-494 591,-464 472,-464"/>
<text text-anchor="start" x="480" y="-482" font-family="Helvetica,sans-Serif" font-size="10.00">xtb_constrain_param</text>
<text text-anchor="middle" x="531.5" y="-471" font-family="Helvetica,sans-Serif" font-size="10.00">::set_scan</text>
</a>
</g>
</g>
<!-- Node10&#45;&gt;Node12 -->
<g id="edge11" class="edge">
<title>Node10&#45;&gt;Node12</title>
<path fill="none" stroke="midnightblue" d="M642.51,-488.83C625.59,-487.32 607.63,-485.72 591.24,-484.25"/>
<polygon fill="midnightblue" stroke="midnightblue" points="642.62,-492.36 652.89,-489.76 643.24,-485.38 642.62,-492.36"/>
</g>
<!-- Node12&#45;&gt;Node11 -->
<g id="edge12" class="edge">
<title>Node12&#45;&gt;Node11</title>
<path fill="none" stroke="midnightblue" d="M461.89,-487.93C448,-489.74 433.53,-491.62 420.03,-493.38"/>
<polygon fill="midnightblue" stroke="midnightblue" points="462.4,-491.39 471.87,-486.63 461.5,-484.45 462.4,-491.39"/>
</g>
<!-- Node14 -->
<g id="node14" class="node">
<title>Node14</title>
<g id="a_node14"><a xlink:href="namespacextb__gfnff__eg.html#ac21efbb550b6edae8c66215658f3e721" target="_top" xlink:title=" ">
<polygon fill="white" stroke="black" points="458,-123.5 458,-142.5 605,-142.5 605,-123.5 458,-123.5"/>
<text text-anchor="middle" x="531.5" y="-130.5" font-family="Helvetica,sans-Serif" font-size="10.00">xtb_gfnff_eg::abhgfnff_eg3</text>
</a>
</g>
</g>
<!-- Node13&#45;&gt;Node14 -->
<g id="edge14" class="edge">
<title>Node13&#45;&gt;Node14</title>
<path fill="none" stroke="midnightblue" d="M843.29,-222.41C838.62,-191.24 824.55,-131.24 784,-105 709.5,-56.78 595.98,-102.09 551.41,-123.35"/>
<polygon fill="midnightblue" stroke="midnightblue" points="839.84,-223.01 844.63,-232.46 846.78,-222.09 839.84,-223.01"/>
</g>
<!-- Node15 -->
<g id="node15" class="node">
<title>Node15</title>
<g id="a_node15"><a xlink:href="namespacextb__gfnff__eg.html#a3c6317a91da8d6eb6e333fdb8ee1f3d9" target="_top" xlink:title=" ">
<polygon fill="white" stroke="black" points="299,-169.5 299,-188.5 422,-188.5 422,-169.5 299,-169.5"/>
<text text-anchor="middle" x="360.5" y="-176.5" font-family="Helvetica,sans-Serif" font-size="10.00">xtb_gfnff_eg::gfnff_eg</text>
</a>
</g>
</g>
<!-- Node13&#45;&gt;Node15 -->
<g id="edge37" class="edge">
<title>Node13&#45;&gt;Node15</title>
<path fill="none" stroke="midnightblue" d="M809.95,-252.72C740.01,-271.91 580.67,-306.08 458,-261 417.97,-246.29 383.19,-206.78 368.69,-188.51"/>
<polygon fill="midnightblue" stroke="midnightblue" points="811.31,-255.97 819.99,-249.9 809.42,-249.24 811.31,-255.97"/>
</g>
<!-- Node19 -->
<g id="node19" class="node">
<title>Node19</title>
<g id="a_node19"><a xlink:href="namespacextb__gfnff__eg.html#a249f6d9c62394b50a1f8cca4389819c3" target="_top" xlink:title=" ">
<polygon fill="white" stroke="black" points="469.5,-398 469.5,-428 593.5,-428 593.5,-398 469.5,-398"/>
<text text-anchor="start" x="477.5" y="-416" font-family="Helvetica,sans-Serif" font-size="10.00">xtb_gfnff_eg::abhgfnff</text>
<text text-anchor="middle" x="531.5" y="-405" font-family="Helvetica,sans-Serif" font-size="10.00">_eg3_add</text>
</a>
</g>
</g>
<!-- Node13&#45;&gt;Node19 -->
<g id="edge19" class="edge">
<title>Node13&#45;&gt;Node19</title>
<path fill="none" stroke="midnightblue" d="M846.01,-261.77C845.82,-301.79 838.98,-392.01 784,-432 719.02,-479.27 617.98,-449.01 565.95,-428.08"/>
<polygon fill="midnightblue" stroke="midnightblue" points="849.5,-261.65 845.91,-251.69 842.5,-261.72 849.5,-261.65"/>
</g>
<!-- Node20 -->
<g id="node20" class="node">
<title>Node20</title>
<g id="a_node20"><a xlink:href="namespacextb__gfnff__eg.html#a96f44d5568fa1a8f5911e6c4534b33a1" target="_top" xlink:title=" ">
<polygon fill="white" stroke="black" points="469.5,-164 469.5,-194 593.5,-194 593.5,-164 469.5,-164"/>
<text text-anchor="start" x="477.5" y="-182" font-family="Helvetica,sans-Serif" font-size="10.00">xtb_gfnff_eg::abhgfnff</text>
<text text-anchor="middle" x="531.5" y="-171" font-family="Helvetica,sans-Serif" font-size="10.00">_eg3_mul</text>
</a>
</g>
</g>
<!-- Node13&#45;&gt;Node20 -->
<g id="edge20" class="edge">
<title>Node13&#45;&gt;Node20</title>
<path fill="none" stroke="midnightblue" d="M809.95,-235.55C769.1,-228.06 700.11,-215.17 641,-203 625.6,-199.83 609.01,-196.24 593.55,-192.83"/>
<polygon fill="midnightblue" stroke="midnightblue" points="809.48,-239.02 819.95,-237.38 810.74,-232.13 809.48,-239.02"/>
</g>
<!-- Node21 -->
<g id="node21" class="node">
<title>Node21</title>
<g id="a_node21"><a xlink:href="namespacextb__gfnff__eg.html#afdd45ff3015127dd8ede0b1930fb4a6a" target="_top" xlink:title=" ">
<polygon fill="white" stroke="black" points="472,-232.5 472,-251.5 591,-251.5 591,-232.5 472,-232.5"/>
<text text-anchor="middle" x="531.5" y="-239.5" font-family="Helvetica,sans-Serif" font-size="10.00">xtb_gfnff_eg::egbend</text>
</a>
</g>
</g>
<!-- Node13&#45;&gt;Node21 -->
<g id="edge21" class="edge">
<title>Node13&#45;&gt;Node21</title>
<path fill="none" stroke="midnightblue" d="M809.56,-242C756.18,-242 655.38,-242 591.2,-242"/>
<polygon fill="midnightblue" stroke="midnightblue" points="809.89,-245.5 819.89,-242 809.89,-238.5 809.89,-245.5"/>
</g>
<!-- Node22 -->
<g id="node22" class="node">
<title>Node22</title>
<g id="a_node22"><a xlink:href="namespacextb__gfnff__eg.html#ac4893e77f20471a0b00aac264b5090b3" target="_top" xlink:title=" ">
<polygon fill="white" stroke="black" points="643,-403.5 643,-422.5 782,-422.5 782,-403.5 643,-403.5"/>
<text text-anchor="middle" x="712.5" y="-410.5" font-family="Helvetica,sans-Serif" font-size="10.00">xtb_gfnff_eg::egbend_nci</text>
</a>
</g>
</g>
<!-- Node13&#45;&gt;Node22 -->
<g id="edge23" class="edge">
<title>Node13&#45;&gt;Node22</title>
<path fill="none" stroke="midnightblue" d="M843.19,-261.51C838.29,-293.9 823.84,-358.72 784,-394 779.63,-397.87 774.56,-400.96 769.18,-403.42"/>
<polygon fill="midnightblue" stroke="midnightblue" points="846.67,-261.88 844.55,-251.5 839.73,-260.94 846.67,-261.88"/>
</g>
<!-- Node23 -->
<g id="node23" class="node">
<title>Node23</title>
<g id="a_node23"><a xlink:href="namespacextb__gfnff__eg.html#a0772d7bbd5499d6ba3a2ec3ed5dc18f6" target="_top" xlink:title=" ">
<polygon fill="white" stroke="black" points="653,-164 653,-194 772,-194 772,-164 653,-164"/>
<text text-anchor="start" x="661" y="-182" font-family="Helvetica,sans-Serif" font-size="10.00">xtb_gfnff_eg::egbend</text>
<text text-anchor="middle" x="712.5" y="-171" font-family="Helvetica,sans-Serif" font-size="10.00">_nci_mul</text>
</a>
</g>
</g>
<!-- Node13&#45;&gt;Node23 -->
<g id="edge25" class="edge">
<title>Node13&#45;&gt;Node23</title>
<path fill="none" stroke="midnightblue" d="M819.75,-227.51C808.84,-221.55 795.91,-214.72 784,-209 773.33,-203.88 761.55,-198.69 750.74,-194.1"/>
<polygon fill="midnightblue" stroke="midnightblue" points="818.3,-230.71 828.74,-232.48 821.68,-224.58 818.3,-230.71"/>
</g>
<!-- Node24 -->
<g id="node24" class="node">
<title>Node24</title>
<g id="a_node24"><a xlink:href="namespacextb__gfnff__eg.html#a3f350a33f3f17790d4a231524334fd89" target="_top" xlink:title=" ">
<polygon fill="white" stroke="black" points="474.5,-61.5 474.5,-80.5 588.5,-80.5 588.5,-61.5 474.5,-61.5"/>
<text text-anchor="middle" x="531.5" y="-68.5" font-family="Helvetica,sans-Serif" font-size="10.00">xtb_gfnff_eg::egtors</text>
</a>
</g>
</g>
<!-- Node13&#45;&gt;Node24 -->
<g id="edge28" class="edge">
<title>Node13&#45;&gt;Node24</title>
<path fill="none" stroke="midnightblue" d="M840.91,-222.37C831.31,-183.1 807.98,-97.18 784,-80 719.01,-33.42 618.42,-48.84 566.34,-61.42"/>
<polygon fill="midnightblue" stroke="midnightblue" points="837.56,-223.41 843.3,-232.31 844.37,-221.77 837.56,-223.41"/>
</g>
<!-- Node25 -->
<g id="node25" class="node">
<title>Node25</title>
<g id="a_node25"><a xlink:href="namespacextb__gfnff__eg.html#a514108220880bca278c1800f27237a4a" target="_top" xlink:title=" ">
<polygon fill="white" stroke="black" points="645.5,-365.5 645.5,-384.5 779.5,-384.5 779.5,-365.5 645.5,-365.5"/>
<text text-anchor="middle" x="712.5" y="-372.5" font-family="Helvetica,sans-Serif" font-size="10.00">xtb_gfnff_eg::egtors_nci</text>
</a>
</g>
</g>
<!-- Node13&#45;&gt;Node25 -->
<g id="edge30" class="edge">
<title>Node13&#45;&gt;Node25</title>
<path fill="none" stroke="midnightblue" d="M840.31,-261.3C832.44,-286.83 815.01,-331.45 784,-356 779.13,-359.86 773.54,-362.93 767.69,-365.38"/>
<polygon fill="midnightblue" stroke="midnightblue" points="843.69,-262.22 843.11,-251.64 836.96,-260.27 843.69,-262.22"/>
</g>
<!-- Node26 -->
<g id="node26" class="node">
<title>Node26</title>
<g id="a_node26"><a xlink:href="namespacextb__gfnff__eg.html#aa69db4968d8352d5ef43c52c26ad5660" target="_top" xlink:title=" ">
<polygon fill="white" stroke="black" points="655.5,-115 655.5,-145 769.5,-145 769.5,-115 655.5,-115"/>
<text text-anchor="start" x="663.5" y="-133" font-family="Helvetica,sans-Serif" font-size="10.00">xtb_gfnff_eg::egtors</text>
<text text-anchor="middle" x="712.5" y="-122" font-family="Helvetica,sans-Serif" font-size="10.00">_nci_mul</text>
</a>
</g>
</g>
<!-- Node13&#45;&gt;Node26 -->
<g id="edge32" class="edge">
<title>Node13&#45;&gt;Node26</title>
<path fill="none" stroke="midnightblue" d="M836.89,-223.28C826.86,-203.41 808.47,-172.39 784,-154 779.45,-150.58 774.39,-147.63 769.11,-145.09"/>
<polygon fill="midnightblue" stroke="midnightblue" points="833.75,-224.81 841.25,-232.28 840.05,-221.76 833.75,-224.81"/>
</g>
<!-- Node27 -->
<g id="node27" class="node">
<title>Node27</title>
<g id="a_node27"><a xlink:href="namespacextb__qmdff.html#ac139343f2e6ae2ee08a1074c9ca536c9" target="_top" xlink:title=" ">
<polygon fill="white" stroke="black" points="664.5,-327.5 664.5,-346.5 760.5,-346.5 760.5,-327.5 664.5,-327.5"/>
<text text-anchor="middle" x="712.5" y="-334.5" font-family="Helvetica,sans-Serif" font-size="10.00">xtb_qmdff::ff_eg</text>
</a>
</g>
</g>
<!-- Node13&#45;&gt;Node27 -->
<g id="edge35" class="edge">
<title>Node13&#45;&gt;Node27</title>
<path fill="none" stroke="midnightblue" d="M833.87,-260.21C822.81,-276.19 804.81,-298.99 784,-313 774.88,-319.14 764.05,-323.85 753.64,-327.4"/>
<polygon fill="midnightblue" stroke="midnightblue" points="836.9,-261.97 839.55,-251.71 831.08,-258.08 836.9,-261.97"/>
</g>
<!-- Node13&#45;&gt;Node29 -->
<g id="edge38" class="edge">
<title>Node13&#45;&gt;Node29</title>
<path fill="none" stroke="midnightblue" d="M840.82,-222.51C828.9,-173.49 797.4,-47.95 784,-34 777.91,-27.66 770.08,-22.99 761.87,-19.56"/>
<polygon fill="midnightblue" stroke="midnightblue" points="837.42,-223.34 843.17,-232.24 844.23,-221.7 837.42,-223.34"/>
</g>
<!-- Node14&#45;&gt;Node15 -->
<g id="edge15" class="edge">
<title>Node14&#45;&gt;Node15</title>
<path fill="none" stroke="midnightblue" d="M485.57,-145.23C457.65,-152.83 422.29,-162.45 396.47,-169.48"/>
<polygon fill="midnightblue" stroke="midnightblue" points="486.75,-148.53 495.48,-142.53 484.91,-141.78 486.75,-148.53"/>
</g>
<!-- Node16 -->
<g id="node16" class="node">
<title>Node16</title>
<g id="a_node16"><a xlink:href="namespacextb__gfnff__calculator.html#a8775e737196933e41e48728956ddf782" target="_top" xlink:title=" ">
<polygon fill="white" stroke="black" points="144.5,-142 144.5,-172 257.5,-172 257.5,-142 144.5,-142"/>
<text text-anchor="start" x="152.5" y="-160" font-family="Helvetica,sans-Serif" font-size="10.00">xtb_gfnff_calculator</text>
<text text-anchor="middle" x="201" y="-149" font-family="Helvetica,sans-Serif" font-size="10.00">::singlepoint</text>
</a>
</g>
</g>
<!-- Node15&#45;&gt;Node16 -->
<g id="edge16" class="edge">
<title>Node15&#45;&gt;Node16</title>
<path fill="none" stroke="midnightblue" d="M288.69,-169.11C278.26,-167.65 267.64,-166.17 257.58,-164.76"/>
<polygon fill="midnightblue" stroke="midnightblue" points="288.22,-172.58 298.61,-170.49 289.19,-165.64 288.22,-172.58"/>
</g>
<!-- Node17 -->
<g id="node17" class="node">
<title>Node17</title>
<g id="a_node17"><a xlink:href="gfnff_8f90.html#a3debb77ee35e9cf115d69ef59490c6c5" target="_top" xlink:title=" ">
<polygon fill="white" stroke="black" points="161,-191.5 161,-210.5 241,-210.5 241,-191.5 161,-191.5"/>
<text text-anchor="middle" x="201" y="-198.5" font-family="Helvetica,sans-Serif" font-size="10.00">test_gfnff_sp</text>
</a>
</g>
</g>
<!-- Node15&#45;&gt;Node17 -->
<g id="edge17" class="edge">
<title>Node15&#45;&gt;Node17</title>
<path fill="none" stroke="midnightblue" d="M288.59,-188.9C272.37,-191.17 255.7,-193.5 241.37,-195.5"/>
<polygon fill="midnightblue" stroke="midnightblue" points="289.19,-192.36 298.61,-187.51 288.22,-185.42 289.19,-192.36"/>
</g>
<!-- Node18 -->
<g id="node18" class="node">
<title>Node18</title>
<g id="a_node18"><a xlink:href="tests__peeq_8f90.html#a87ff5319e0d2e627a4f71d7df0d14891" target="_top" xlink:title=" ">
<polygon fill="white" stroke="black" points="14.5,-191.5 14.5,-210.5 88.5,-210.5 88.5,-191.5 14.5,-191.5"/>
<text text-anchor="middle" x="51.5" y="-198.5" font-family="Helvetica,sans-Serif" font-size="10.00">peeq_tester</text>
</a>
</g>
</g>
<!-- Node17&#45;&gt;Node18 -->
<g id="edge18" class="edge">
<title>Node17&#45;&gt;Node18</title>
<path fill="none" stroke="midnightblue" d="M150.82,-201C130.45,-201 107.27,-201 88.53,-201"/>
<polygon fill="midnightblue" stroke="midnightblue" points="150.86,-204.5 160.86,-201 150.86,-197.5 150.86,-204.5"/>
</g>
<!-- Node21&#45;&gt;Node15 -->
<g id="edge22" class="edge">
<title>Node21&#45;&gt;Node15</title>
<path fill="none" stroke="midnightblue" d="M495.33,-228.89C463.04,-216.85 415.99,-199.31 387.13,-188.55"/>
<polygon fill="midnightblue" stroke="midnightblue" points="494.24,-232.22 504.83,-232.43 496.68,-225.66 494.24,-232.22"/>
</g>
<!-- Node22&#45;&gt;Node19 -->
<g id="edge24" class="edge">
<title>Node22&#45;&gt;Node19</title>
<path fill="none" stroke="midnightblue" d="M632.47,-413C619.47,-413 606.17,-413 593.69,-413"/>
<polygon fill="midnightblue" stroke="midnightblue" points="632.81,-416.5 642.81,-413 632.81,-409.5 632.81,-416.5"/>
</g>
<!-- Node23&#45;&gt;Node14 -->
<g id="edge26" class="edge">
<title>Node23&#45;&gt;Node14</title>
<path fill="none" stroke="midnightblue" d="M643.08,-161.42C618.11,-155 590.8,-147.98 569.58,-142.53"/>
<polygon fill="midnightblue" stroke="midnightblue" points="642.33,-164.84 652.89,-163.94 644.07,-158.06 642.33,-164.84"/>
</g>
<!-- Node23&#45;&gt;Node20 -->
<g id="edge27" class="edge">
<title>Node23&#45;&gt;Node20</title>
<path fill="none" stroke="midnightblue" d="M642.48,-179C626.41,-179 609.41,-179 593.7,-179"/>
<polygon fill="midnightblue" stroke="midnightblue" points="642.89,-182.5 652.89,-179 642.89,-175.5 642.89,-182.5"/>
</g>
<!-- Node24&#45;&gt;Node15 -->
<g id="edge29" class="edge">
<title>Node24&#45;&gt;Node15</title>
<path fill="none" stroke="midnightblue" d="M504.61,-85.87C490.68,-93.99 473.27,-104.34 458,-114 427.96,-133.01 393.61,-156.6 375.08,-169.49"/>
<polygon fill="midnightblue" stroke="midnightblue" points="506.74,-88.68 513.63,-80.64 503.23,-82.63 506.74,-88.68"/>
</g>
<!-- Node25&#45;&gt;Node19 -->
<g id="edge31" class="edge">
<title>Node25&#45;&gt;Node19</title>
<path fill="none" stroke="midnightblue" d="M656.49,-386.68C636.57,-390.91 613.96,-395.71 593.55,-400.04"/>
<polygon fill="midnightblue" stroke="midnightblue" points="657.28,-390.09 666.33,-384.59 655.82,-383.24 657.28,-390.09"/>
</g>
<!-- Node26&#45;&gt;Node14 -->
<g id="edge33" class="edge">
<title>Node26&#45;&gt;Node14</title>
<path fill="none" stroke="midnightblue" d="M645.1,-131.11C632.1,-131.33 618.41,-131.56 605.21,-131.78"/>
<polygon fill="midnightblue" stroke="midnightblue" points="645.41,-134.61 655.35,-130.94 645.3,-127.61 645.41,-134.61"/>
</g>
<!-- Node26&#45;&gt;Node20 -->
<g id="edge34" class="edge">
<title>Node26&#45;&gt;Node20</title>
<path fill="none" stroke="midnightblue" d="M646.66,-147.75C627.26,-153.06 606.19,-158.83 587.48,-163.95"/>
<polygon fill="midnightblue" stroke="midnightblue" points="647.61,-151.12 656.33,-145.1 645.76,-144.37 647.61,-151.12"/>
</g>
<!-- Node28 -->
<g id="node28" class="node">
<title>Node28</title>
<g id="a_node28"><a xlink:href="namespacextb__type__dummycalc.html#a28a36738c316fb4a0655328844e94957" target="_top" xlink:title=" ">
<polygon fill="white" stroke="black" points="470.5,-328 470.5,-358 592.5,-358 592.5,-328 470.5,-328"/>
<text text-anchor="start" x="478.5" y="-346" font-family="Helvetica,sans-Serif" font-size="10.00">xtb_type_dummycalc</text>
<text text-anchor="middle" x="531.5" y="-335" font-family="Helvetica,sans-Serif" font-size="10.00">::singlepoint</text>
</a>
</g>
</g>
<!-- Node27&#45;&gt;Node28 -->
<g id="edge36" class="edge">
<title>Node27&#45;&gt;Node28</title>
<path fill="none" stroke="midnightblue" d="M654.42,-338.91C634.74,-339.57 612.64,-340.31 592.71,-340.98"/>
<polygon fill="midnightblue" stroke="midnightblue" points="654.59,-342.41 664.47,-338.58 654.36,-335.41 654.59,-342.41"/>
</g>
</g>
</svg>
        <g id="navigator" transform="translate(0 0)" fill="#404254">
                <rect fill="#f2f5e9" fill-opacity="0.5" stroke="#606060" stroke-width=".5" x="0" y="0" width="60" height="60"/>
                <use id="zoomplus" xlink:href="#zoomPlus" x="17" y="9" onmousedown="handleZoom(evt,'in')"/>
                <use id="zoomminus" xlink:href="#zoomMin" x="42" y="9" onmousedown="handleZoom(evt,'out')"/>
                <use id="reset" xlink:href="#resetDef" x="30" y="36" onmousedown="handleReset()"/>
                <g id="arrowUp" xlink:href="#dirArrow" transform="translate(30 24)" onmousedown="handlePan(0,-1)">
                  <use xlink:href="#rim" fill="#404040">
                        <set attributeName="fill" to="#808080" begin="arrowUp.mouseover" end="arrowUp.mouseout"/>
                  </use>
                  <path fill="none" stroke="white" stroke-width="1.5" d="M0,-3.0v7 M-2.5,-0.5L0,-3.0L2.5,-0.5"/>
                </g>
                <g id="arrowRight" xlink:href="#dirArrow" transform="rotate(90) translate(36 -43)" onmousedown="handlePan(1,0)">
                  <use xlink:href="#rim" fill="#404040">
                        <set attributeName="fill" to="#808080" begin="arrowRight.mouseover" end="arrowRight.mouseout"/>
                  </use>
                  <path fill="none" stroke="white" stroke-width="1.5" d="M0,-3.0v7 M-2.5,-0.5L0,-3.0L2.5,-0.5"/>
                </g>
                <g id="arrowDown" xlink:href="#dirArrow" transform="rotate(180) translate(-30 -48)" onmousedown="handlePan(0,1)">
                  <use xlink:href="#rim" fill="#404040">
                        <set attributeName="fill" to="#808080" begin="arrowDown.mouseover" end="arrowDown.mouseout"/>
                  </use>
                  <path fill="none" stroke="white" stroke-width="1.5" d="M0,-3.0v7 M-2.5,-0.5L0,-3.0L2.5,-0.5"/>
                </g>
                <g id="arrowLeft" xlink:href="#dirArrow" transform="rotate(270) translate(-36 17)" onmousedown="handlePan(-1,0)">
                  <use xlink:href="#rim" fill="#404040">
                        <set attributeName="fill" to="#808080" begin="arrowLeft.mouseover" end="arrowLeft.mouseout"/>
                  </use>
                  <path fill="none" stroke="white" stroke-width="1.5" d="M0,-3.0v7 M-2.5,-0.5L0,-3.0L2.5,-0.5"/>
                </g>
        </g>
        <svg viewBox="0 0 15 15" width="100%" height="30px" preserveAspectRatio="xMaxYMin meet">
         <g id="arrow_out" transform="scale(0.3 0.3)">
          <a xlink:href="constr_8f90_a5fc70d66b0231afec39209517852b818_icgraph_org.svg" target="_base">
           <rect id="button" ry="5" rx="5" y="6" x="6" height="38" width="38"
                fill="#f2f5e9" fill-opacity="0.5" stroke="#606060" stroke-width="1.0"/>
           <path id="arrow"
             d="M 11.500037,31.436501 C 11.940474,20.09759 22.043105,11.32322 32.158766,21.979434 L 37.068811,17.246167 C 37.068811,17.246167 37.088388,32 37.088388,32 L 22.160133,31.978069 C 22.160133,31.978069 26.997745,27.140456 26.997745,27.140456 C 18.528582,18.264221 13.291696,25.230495 11.500037,31.436501 z"
             style="fill:#404040;"/>
          </a>
         </g>
        </svg>
</svg>
