<?xml version="1.0" encoding="UTF-8" standalone="no"?>
<!DOCTYPE svg PUBLIC "-//W3C//DTD SVG 1.1//EN"
 "http://www.w3.org/Graphics/SVG/1.1/DTD/svg11.dtd">
<!-- Generated by graphviz version 2.46.1 (20210215.1649)
 -->
<!-- Title: valijkl Pages: 1 -->
<svg width="793pt" height="204pt"
 viewBox="0.00 0.00 793.00 203.50" xmlns="http://www.w3.org/2000/svg" xmlns:xlink="http://www.w3.org/1999/xlink">
<g id="graph0" class="graph" transform="scale(1 1) rotate(0) translate(4 199.5)">
<title>valijkl</title>
<polygon fill="white" stroke="transparent" points="-4,4 -4,-199.5 789,-199.5 789,4 -4,4"/>
<!-- Node1 -->
<g id="node1" class="node">
<title>Node1</title>
<g id="a_node1"><a xlink:title=" ">
<polygon fill="#bfbfbf" stroke="black" points="744,-107 744,-126 785,-126 785,-107 744,-107"/>
<text text-anchor="middle" x="764.5" y="-114" font-family="Helvetica,sans-Serif" font-size="10.00">valijkl</text>
</a>
</g>
</g>
<!-- Node2 -->
<g id="node2" class="node">
<title>Node2</title>
<g id="a_node2"><a xlink:href="geometry_8f90.html#a548ed51724367c60fe07eb362f66b7f6" target="_top" xlink:title=" ">
<polygon fill="white" stroke="black" points="617.5,-171 617.5,-190 691.5,-190 691.5,-171 617.5,-171"/>
<text text-anchor="middle" x="654.5" y="-178" font-family="Helvetica,sans-Serif" font-size="10.00">calc_torsions</text>
</a>
</g>
</g>
<!-- Node1&#45;&gt;Node2 -->
<g id="edge1" class="edge">
<title>Node1&#45;&gt;Node2</title>
<path fill="none" stroke="midnightblue" d="M741.03,-131.7C731.04,-138.29 719.06,-145.98 708,-152.5 697.14,-158.9 684.71,-165.56 674.67,-170.78"/>
<polygon fill="midnightblue" stroke="midnightblue" points="743.18,-134.47 749.57,-126.01 739.3,-128.64 743.18,-134.47"/>
</g>
<!-- Node8 -->
<g id="node8" class="node">
<title>Node8</title>
<g id="a_node8"><a xlink:href="namespacextb__scanparam.html#af9faebc2d0cad762d757858cb4759db4" target="_top" xlink:title=" ">
<polygon fill="white" stroke="black" points="438,-126.5 438,-156.5 565,-156.5 565,-126.5 438,-126.5"/>
<text text-anchor="start" x="446" y="-144.5" font-family="Helvetica,sans-Serif" font-size="10.00">xtb_scanparam::constrain</text>
<text text-anchor="middle" x="501.5" y="-133.5" font-family="Helvetica,sans-Serif" font-size="10.00">_all_torsions</text>
</a>
</g>
</g>
<!-- Node1&#45;&gt;Node8 -->
<g id="edge8" class="edge">
<title>Node1&#45;&gt;Node8</title>
<path fill="none" stroke="midnightblue" d="M733.78,-119.35C692.94,-123.26 618.48,-130.39 565.07,-135.51"/>
<polygon fill="midnightblue" stroke="midnightblue" points="734.26,-122.82 743.88,-118.38 733.59,-115.85 734.26,-122.82"/>
</g>
<!-- Node9 -->
<g id="node9" class="node">
<title>Node9</title>
<g id="a_node9"><a xlink:href="namespacextb__scanparam.html#a98e6076b6bb1acc609033880889710ae" target="_top" xlink:title=" ">
<polygon fill="white" stroke="black" points="280,-94 280,-113 402,-113 402,-94 280,-94"/>
<text text-anchor="middle" x="341" y="-101" font-family="Helvetica,sans-Serif" font-size="10.00">xtb_scanparam::pot_info</text>
</a>
</g>
</g>
<!-- Node1&#45;&gt;Node9 -->
<g id="edge10" class="edge">
<title>Node1&#45;&gt;Node9</title>
<path fill="none" stroke="midnightblue" d="M733.58,-115.58C664.66,-113.45 493.65,-108.18 402.1,-105.35"/>
<polygon fill="midnightblue" stroke="midnightblue" points="733.63,-119.08 743.74,-115.89 733.85,-112.08 733.63,-119.08"/>
</g>
<!-- Node10 -->
<g id="node10" class="node">
<title>Node10</title>
<g id="a_node10"><a xlink:href="namespacextb__constrain__param.html#aec900c7a40b32edce5ea0462453cac20" target="_top" xlink:title=" ">
<polygon fill="white" stroke="black" points="601,-38.5 601,-68.5 708,-68.5 708,-38.5 601,-38.5"/>
<text text-anchor="start" x="609" y="-56.5" font-family="Helvetica,sans-Serif" font-size="10.00">xtb_constrain_param</text>
<text text-anchor="middle" x="654.5" y="-45.5" font-family="Helvetica,sans-Serif" font-size="10.00">::set_constr</text>
</a>
</g>
</g>
<!-- Node1&#45;&gt;Node10 -->
<g id="edge12" class="edge">
<title>Node1&#45;&gt;Node10</title>
<path fill="none" stroke="midnightblue" d="M738.85,-101.72C729.24,-95.99 718.13,-89.4 708,-83.5 699.57,-78.58 690.33,-73.28 681.99,-68.52"/>
<polygon fill="midnightblue" stroke="midnightblue" points="737.13,-104.77 747.51,-106.9 740.72,-98.76 737.13,-104.77"/>
</g>
<!-- Node3 -->
<g id="node3" class="node">
<title>Node3</title>
<g id="a_node3"><a xlink:href="geometry_8f90.html#a9062f3787220118ef48436b46c7c65cc" target="_top" xlink:title=" ">
<polygon fill="white" stroke="black" points="464,-176 464,-195 539,-195 539,-176 464,-176"/>
<text text-anchor="middle" x="501.5" y="-183" font-family="Helvetica,sans-Serif" font-size="10.00">print_geosum</text>
</a>
</g>
</g>
<!-- Node2&#45;&gt;Node3 -->
<g id="edge2" class="edge">
<title>Node2&#45;&gt;Node3</title>
<path fill="none" stroke="midnightblue" d="M607.27,-182.03C585.4,-182.75 559.66,-183.61 539.16,-184.29"/>
<polygon fill="midnightblue" stroke="midnightblue" points="607.45,-185.53 617.33,-181.7 607.22,-178.53 607.45,-185.53"/>
</g>
<!-- Node4 -->
<g id="node4" class="node">
<title>Node4</title>
<g id="a_node4"><a xlink:href="geometry_8f90.html#a23b2001cff658be234bf77942d0d5fd4" target="_top" xlink:title=" ">
<polygon fill="white" stroke="black" points="299.5,-170 299.5,-189 382.5,-189 382.5,-170 299.5,-170"/>
<text text-anchor="middle" x="341" y="-177" font-family="Helvetica,sans-Serif" font-size="10.00">main_geometry</text>
</a>
</g>
</g>
<!-- Node3&#45;&gt;Node4 -->
<g id="edge3" class="edge">
<title>Node3&#45;&gt;Node4</title>
<path fill="none" stroke="midnightblue" d="M453.72,-183.73C431.19,-182.88 404.42,-181.86 382.74,-181.04"/>
<polygon fill="midnightblue" stroke="midnightblue" points="453.61,-187.23 463.74,-184.11 453.88,-180.23 453.61,-187.23"/>
</g>
<!-- Node5 -->
<g id="node5" class="node">
<title>Node5</title>
<g id="a_node5"><a xlink:href="namespacextb__prog__info.html#a075fccea4f47f761a7b667bb819253da" target="_top" xlink:title="Main program of the info submodule.">
<polygon fill="white" stroke="black" points="131.5,-170 131.5,-189 238.5,-189 238.5,-170 131.5,-170"/>
<text text-anchor="middle" x="185" y="-177" font-family="Helvetica,sans-Serif" font-size="10.00">xtb_prog_info::xtbinfo</text>
</a>
</g>
</g>
<!-- Node4&#45;&gt;Node5 -->
<g id="edge4" class="edge">
<title>Node4&#45;&gt;Node5</title>
<path fill="none" stroke="midnightblue" d="M288.83,-179.5C272.72,-179.5 254.9,-179.5 238.69,-179.5"/>
<polygon fill="midnightblue" stroke="midnightblue" points="289.14,-183 299.14,-179.5 289.14,-176 289.14,-183"/>
</g>
<!-- Node7 -->
<g id="node7" class="node">
<title>Node7</title>
<g id="a_node7"><a xlink:href="namespacextb__prog__main.html#a92b3b61ee04235e6343f652095682529" target="_top" xlink:title=" ">
<polygon fill="white" stroke="black" points="126,-132 126,-151 244,-151 244,-132 126,-132"/>
<text text-anchor="middle" x="185" y="-139" font-family="Helvetica,sans-Serif" font-size="10.00">xtb_prog_main::xtbmain</text>
</a>
</g>
</g>
<!-- Node4&#45;&gt;Node7 -->
<g id="edge6" class="edge">
<title>Node4&#45;&gt;Node7</title>
<path fill="none" stroke="midnightblue" d="M291.21,-167.46C269.69,-162.15 244.77,-156 224.58,-151.02"/>
<polygon fill="midnightblue" stroke="midnightblue" points="290.59,-170.91 301.14,-169.91 292.27,-164.12 290.59,-170.91"/>
</g>
<!-- Node6 -->
<g id="node6" class="node">
<title>Node6</title>
<g id="a_node6"><a xlink:href="primary_8f90.html#a2a67903cf5be605c5b6d3c362c6a3c5c" target="_top" xlink:title="The primary driver for the xtb program package.">
<polygon fill="white" stroke="black" points="0,-151 0,-170 90,-170 90,-151 0,-151"/>
<text text-anchor="middle" x="45" y="-158" font-family="Helvetica,sans-Serif" font-size="10.00">xtb_prog_primary</text>
</a>
</g>
</g>
<!-- Node5&#45;&gt;Node6 -->
<g id="edge5" class="edge">
<title>Node5&#45;&gt;Node6</title>
<path fill="none" stroke="midnightblue" d="M121.46,-170.89C110.95,-169.44 100.25,-167.97 90.33,-166.6"/>
<polygon fill="midnightblue" stroke="midnightblue" points="121.05,-174.37 131.43,-172.26 122.01,-167.43 121.05,-174.37"/>
</g>
<!-- Node7&#45;&gt;Node6 -->
<g id="edge7" class="edge">
<title>Node7&#45;&gt;Node6</title>
<path fill="none" stroke="midnightblue" d="M115.73,-150.9C107.06,-152.09 98.37,-153.29 90.22,-154.41"/>
<polygon fill="midnightblue" stroke="midnightblue" points="116.45,-154.33 125.88,-149.5 115.49,-147.4 116.45,-154.33"/>
</g>
<!-- Node8&#45;&gt;Node7 -->
<g id="edge9" class="edge">
<title>Node8&#45;&gt;Node7</title>
<path fill="none" stroke="midnightblue" d="M427.81,-141.5C372,-141.5 295.96,-141.5 244.15,-141.5"/>
<polygon fill="midnightblue" stroke="midnightblue" points="427.99,-145 437.99,-141.5 427.99,-138 427.99,-145"/>
</g>
<!-- Node9&#45;&gt;Node7 -->
<g id="edge11" class="edge">
<title>Node9&#45;&gt;Node7</title>
<path fill="none" stroke="midnightblue" d="M291.21,-115.54C269.69,-120.85 244.77,-127 224.58,-131.98"/>
<polygon fill="midnightblue" stroke="midnightblue" points="292.27,-118.88 301.14,-113.09 290.59,-112.09 292.27,-118.88"/>
</g>
<!-- Node11 -->
<g id="node11" class="node">
<title>Node11</title>
<g id="a_node11"><a xlink:href="namespacextb__constrain__param.html#ad84b3d616937ffe722a0b7c064a1f3df" target="_top" xlink:title=" ">
<polygon fill="white" stroke="black" points="287.5,-44.5 287.5,-74.5 394.5,-74.5 394.5,-44.5 287.5,-44.5"/>
<text text-anchor="start" x="295.5" y="-62.5" font-family="Helvetica,sans-Serif" font-size="10.00">xtb_constrain_param</text>
<text text-anchor="middle" x="341" y="-51.5" font-family="Helvetica,sans-Serif" font-size="10.00">::read_userdata</text>
</a>
</g>
</g>
<!-- Node10&#45;&gt;Node11 -->
<g id="edge13" class="edge">
<title>Node10&#45;&gt;Node11</title>
<path fill="none" stroke="midnightblue" d="M590.58,-54.71C532.97,-55.82 448.68,-57.45 394.58,-58.49"/>
<polygon fill="midnightblue" stroke="midnightblue" points="590.73,-58.21 600.66,-54.52 590.59,-51.21 590.73,-58.21"/>
</g>
<!-- Node12 -->
<g id="node12" class="node">
<title>Node12</title>
<g id="a_node12"><a xlink:href="namespacextb__constrain__param.html#ad864633ee76e58cbe61b026854801d68" target="_top" xlink:title=" ">
<polygon fill="white" stroke="black" points="448,-0.5 448,-30.5 555,-30.5 555,-0.5 448,-0.5"/>
<text text-anchor="start" x="456" y="-18.5" font-family="Helvetica,sans-Serif" font-size="10.00">xtb_constrain_param</text>
<text text-anchor="middle" x="501.5" y="-7.5" font-family="Helvetica,sans-Serif" font-size="10.00">::set_scan</text>
</a>
</g>
</g>
<!-- Node10&#45;&gt;Node12 -->
<g id="edge15" class="edge">
<title>Node10&#45;&gt;Node12</title>
<path fill="none" stroke="midnightblue" d="M590.82,-37.73C578.92,-34.73 566.58,-31.63 555.03,-28.72"/>
<polygon fill="midnightblue" stroke="midnightblue" points="590.14,-41.16 600.69,-40.21 591.84,-34.37 590.14,-41.16"/>
</g>
<!-- Node11&#45;&gt;Node7 -->
<g id="edge14" class="edge">
<title>Node11&#45;&gt;Node7</title>
<path fill="none" stroke="midnightblue" d="M292.31,-78.59C288.11,-80.51 283.96,-82.49 280,-84.5 250.73,-99.37 218.36,-119.99 200.27,-131.92"/>
<polygon fill="midnightblue" stroke="midnightblue" points="293.79,-81.77 301.52,-74.52 290.96,-75.37 293.79,-81.77"/>
</g>
<!-- Node12&#45;&gt;Node11 -->
<g id="edge16" class="edge">
<title>Node12&#45;&gt;Node11</title>
<path fill="none" stroke="midnightblue" d="M437.93,-32.87C423.56,-36.86 408.44,-41.06 394.55,-44.91"/>
<polygon fill="midnightblue" stroke="midnightblue" points="439.02,-36.2 447.72,-30.15 437.15,-29.45 439.02,-36.2"/>
</g>
</g>
</svg>
