<?xml version="1.0" encoding="UTF-8" standalone="no"?>
<!DOCTYPE svg PUBLIC "-//W3C//DTD SVG 1.1//EN"
 "http://www.w3.org/Graphics/SVG/1.1/DTD/svg11.dtd">
<!-- Generated by graphviz version 2.43.0 (0)
 -->
<!-- Title: impsc Pages: 1 -->
<!--zoomable 543 -->
<svg id="main" version="1.1" xmlns="http://www.w3.org/2000/svg" xmlns:xlink="http://www.w3.org/1999/xlink" xml:space="preserve" onload="init(evt)">
<style type="text/css"><![CDATA[
.edge:hover path { stroke: red; }
.edge:hover polygon { stroke: red; fill: red; }
]]></style>
<script type="text/javascript"><![CDATA[
var edges = document.getElementsByTagName('g');
if (edges && edges.length) {
  for (var i=0;i<edges.length;i++) {
    if (edges[i].id.substr(0,4)=='edge') {
      edges[i].setAttribute('class','edge');
    }
  }
}
]]></script>
        <defs>
                <circle id="rim" cx="0" cy="0" r="7"/>
                <circle id="rim2" cx="0" cy="0" r="3.5"/>
                <g id="zoomPlus">
                        <use xlink:href="#rim" fill="#404040">
                                <set attributeName="fill" to="#808080" begin="zoomplus.mouseover" end="zoomplus.mouseout"/>
                        </use>
                        <path d="M-4,0h8M0,-4v8" fill="none" stroke="white" stroke-width="1.5" pointer-events="none"/>
                </g>
                <g id="zoomMin">
                        <use xlink:href="#rim" fill="#404040">
                                <set attributeName="fill" to="#808080" begin="zoomminus.mouseover" end="zoomminus.mouseout"/>
                        </use>
                        <path d="M-4,0h8" fill="none" stroke="white" stroke-width="1.5" pointer-events="none"/>
                </g>
                <g id="dirArrow">
                        <path fill="none" stroke="white" stroke-width="1.5" d="M0,-3.0v7 M-2.5,-0.5L0,-3.0L2.5,-0.5"/>
                </g>
               <g id="resetDef">
                       <use xlink:href="#rim2" fill="#404040">
                               <set attributeName="fill" to="#808080" begin="reset.mouseover" end="reset.mouseout"/>
                       </use>
               </g>
        </defs>

<script type="text/javascript">
var viewWidth = 1248;
var viewHeight = 543;
var sectionId = 'dynsection-14';
</script>
<script xlink:href="svgpan.js"/>
<svg id="graph" class="graph">
<g id="viewport">
<title>impsc</title>
<polygon fill="white" stroke="transparent" points="-4,4 -4,-538.5 1244,-538.5 1244,4 -4,4"/>
<!-- Node1 -->
<g id="node1" class="node">
<title>Node1</title>
<g id="a_node1"><a xlink:title=" ">
<polygon fill="#bfbfbf" stroke="black" points="1194,-138 1194,-157 1240,-157 1240,-138 1194,-138"/>
<text text-anchor="middle" x="1217" y="-145" font-family="Helvetica,sans-Serif" font-size="10.00">impsc</text>
</a>
</g>
</g>
<!-- Node2 -->
<g id="node2" class="node">
<title>Node2</title>
<g id="a_node2"><a xlink:href="constr_8f90.html#a92e69c8e903366f19af34a6696c75e29" target="_top" xlink:title=" ">
<polygon fill="white" stroke="black" points="1057.5,-275 1057.5,-294 1119.5,-294 1119.5,-275 1057.5,-275"/>
<text text-anchor="middle" x="1088.5" y="-282" font-family="Helvetica,sans-Serif" font-size="10.00">constrpot</text>
</a>
</g>
</g>
<!-- Node1&#45;&gt;Node2 -->
<g id="edge1" class="edge">
<title>Node1&#45;&gt;Node2</title>
<path fill="none" stroke="midnightblue" d="M1200.08,-164.74C1173.23,-193.83 1119.77,-251.72 1098.52,-274.74"/>
<polygon fill="midnightblue" stroke="midnightblue" points="1202.69,-167.07 1206.9,-157.35 1197.55,-162.33 1202.69,-167.07"/>
</g>
<!-- Node21 -->
<g id="node21" class="node">
<title>Node21</title>
<g id="a_node21"><a xlink:href="namespacextb__gfnff__eg.html#afdd45ff3015127dd8ede0b1930fb4a6a" target="_top" xlink:title=" ">
<polygon fill="white" stroke="black" points="1029,-138 1029,-157 1148,-157 1148,-138 1029,-138"/>
<text text-anchor="middle" x="1088.5" y="-145" font-family="Helvetica,sans-Serif" font-size="10.00">xtb_gfnff_eg::egbend</text>
</a>
</g>
</g>
<!-- Node1&#45;&gt;Node21 -->
<g id="edge23" class="edge">
<title>Node1&#45;&gt;Node21</title>
<path fill="none" stroke="midnightblue" d="M1183.74,-147.5C1172.9,-147.5 1160.46,-147.5 1148.24,-147.5"/>
<polygon fill="midnightblue" stroke="midnightblue" points="1183.97,-151 1193.97,-147.5 1183.97,-144 1183.97,-151"/>
</g>
<!-- Node25 -->
<g id="node25" class="node">
<title>Node25</title>
<g id="a_node25"><a xlink:href="namespacextb__gfnff__eg.html#ac4893e77f20471a0b00aac264b5090b3" target="_top" xlink:title=" ">
<polygon fill="white" stroke="black" points="1019,-97 1019,-116 1158,-116 1158,-97 1019,-97"/>
<text text-anchor="middle" x="1088.5" y="-104" font-family="Helvetica,sans-Serif" font-size="10.00">xtb_gfnff_eg::egbend_nci</text>
</a>
</g>
</g>
<!-- Node1&#45;&gt;Node25 -->
<g id="edge28" class="edge">
<title>Node1&#45;&gt;Node25</title>
<path fill="none" stroke="midnightblue" d="M1184.35,-137.09C1175.8,-134.29 1166.55,-131.27 1158,-128.5 1145.41,-124.41 1131.5,-119.94 1119.52,-116.1"/>
<polygon fill="midnightblue" stroke="midnightblue" points="1183.38,-140.46 1193.98,-140.25 1185.57,-133.81 1183.38,-140.46"/>
</g>
<!-- Node27 -->
<g id="node27" class="node">
<title>Node27</title>
<g id="a_node27"><a xlink:href="namespacextb__gfnff__eg.html#a0772d7bbd5499d6ba3a2ec3ed5dc18f6" target="_top" xlink:title=" ">
<polygon fill="white" stroke="black" points="1029,-44.5 1029,-74.5 1148,-74.5 1148,-44.5 1029,-44.5"/>
<text text-anchor="start" x="1037" y="-62.5" font-family="Helvetica,sans-Serif" font-size="10.00">xtb_gfnff_eg::egbend</text>
<text text-anchor="middle" x="1088.5" y="-51.5" font-family="Helvetica,sans-Serif" font-size="10.00">_nci_mul</text>
</a>
</g>
</g>
<!-- Node1&#45;&gt;Node27 -->
<g id="edge30" class="edge">
<title>Node1&#45;&gt;Node27</title>
<path fill="none" stroke="midnightblue" d="M1202.41,-129.91C1191.55,-116.81 1175.32,-99.23 1158,-87.5 1150.66,-82.53 1142.3,-78.2 1134,-74.54"/>
<polygon fill="midnightblue" stroke="midnightblue" points="1199.74,-132.17 1208.73,-137.77 1205.19,-127.79 1199.74,-132.17"/>
</g>
<!-- Node30 -->
<g id="node30" class="node">
<title>Node30</title>
<g id="a_node30"><a xlink:href="namespacextb__qmdff.html#ac139343f2e6ae2ee08a1074c9ca536c9" target="_top" xlink:title=" ">
<polygon fill="white" stroke="black" points="1040.5,-179 1040.5,-198 1136.5,-198 1136.5,-179 1040.5,-179"/>
<text text-anchor="middle" x="1088.5" y="-186" font-family="Helvetica,sans-Serif" font-size="10.00">xtb_qmdff::ff_eg</text>
</a>
</g>
</g>
<!-- Node1&#45;&gt;Node30 -->
<g id="edge34" class="edge">
<title>Node1&#45;&gt;Node30</title>
<path fill="none" stroke="midnightblue" d="M1184.35,-157.91C1175.8,-160.71 1166.55,-163.73 1158,-166.5 1145.41,-170.59 1131.5,-175.06 1119.52,-178.9"/>
<polygon fill="midnightblue" stroke="midnightblue" points="1185.57,-161.19 1193.98,-154.75 1183.38,-154.54 1185.57,-161.19"/>
</g>
<!-- Node3 -->
<g id="node3" class="node">
<title>Node3</title>
<g id="a_node3"><a xlink:href="namespacextb__constrainpot.html#a362aa0e3969640fdce315a92ee61a51d" target="_top" xlink:title=" ">
<polygon fill="white" stroke="black" points="806,-389 806,-408 983,-408 983,-389 806,-389"/>
<text text-anchor="middle" x="894.5" y="-396" font-family="Helvetica,sans-Serif" font-size="10.00">xtb_constrainpot::constrain_hess</text>
</a>
</g>
</g>
<!-- Node2&#45;&gt;Node3 -->
<g id="edge2" class="edge">
<title>Node2&#45;&gt;Node3</title>
<path fill="none" stroke="midnightblue" d="M1073.57,-301.84C1055.19,-323.5 1020.71,-360.07 983,-379.5 975.4,-383.42 967.03,-386.53 958.56,-389"/>
<polygon fill="midnightblue" stroke="midnightblue" points="1076.32,-304.01 1080.01,-294.08 1070.93,-299.54 1076.32,-304.01"/>
</g>
<!-- Node4 -->
<g id="node4" class="node">
<title>Node4</title>
<g id="a_node4"><a xlink:href="constr_8f90.html#a32820f74383b0f93c743faceb8385214" target="_top" xlink:title=" ">
<polygon fill="white" stroke="black" points="860,-351 860,-370 929,-370 929,-351 860,-351"/>
<text text-anchor="middle" x="894.5" y="-358" font-family="Helvetica,sans-Serif" font-size="10.00">constrhess</text>
</a>
</g>
</g>
<!-- Node2&#45;&gt;Node4 -->
<g id="edge3" class="edge">
<title>Node2&#45;&gt;Node4</title>
<path fill="none" stroke="midnightblue" d="M1062.11,-298.88C1041.33,-310.22 1010.91,-325.84 983,-336.5 965.64,-343.13 945.69,-348.75 929.23,-352.88"/>
<polygon fill="midnightblue" stroke="midnightblue" points="1063.88,-301.9 1070.94,-294 1060.49,-295.77 1063.88,-301.9"/>
</g>
<!-- Node13 -->
<g id="node13" class="node">
<title>Node13</title>
<g id="a_node13"><a xlink:href="namespacextb__scan.html#abef8f8d0fa299e9e2caf823f3672f14a" target="_top" xlink:title=" ">
<polygon fill="white" stroke="black" points="144,-313 144,-332 274,-332 274,-313 144,-313"/>
<text text-anchor="middle" x="209" y="-320" font-family="Helvetica,sans-Serif" font-size="10.00">xtb_scan::relaxed_scan</text>
</a>
</g>
</g>
<!-- Node2&#45;&gt;Node13 -->
<g id="edge19" class="edge">
<title>Node2&#45;&gt;Node13</title>
<path fill="none" stroke="midnightblue" d="M1047.43,-291.14C978.14,-302.04 831.38,-322.5 706.5,-322.5 706.5,-322.5 706.5,-322.5 541.5,-322.5 448.55,-322.5 340.95,-322.5 274.17,-322.5"/>
<polygon fill="midnightblue" stroke="midnightblue" points="1048.15,-294.57 1057.47,-289.55 1047.05,-287.66 1048.15,-294.57"/>
</g>
<!-- Node18 -->
<g id="node18" class="node">
<title>Node18</title>
<g id="a_node18"><a xlink:href="namespacextb__gfnff__calculator.html#a8775e737196933e41e48728956ddf782" target="_top" xlink:title=" ">
<polygon fill="white" stroke="black" points="486,-220.5 486,-250.5 599,-250.5 599,-220.5 486,-220.5"/>
<text text-anchor="start" x="494" y="-238.5" font-family="Helvetica,sans-Serif" font-size="10.00">xtb_gfnff_calculator</text>
<text text-anchor="middle" x="542.5" y="-227.5" font-family="Helvetica,sans-Serif" font-size="10.00">::singlepoint</text>
</a>
</g>
</g>
<!-- Node2&#45;&gt;Node18 -->
<g id="edge20" class="edge">
<title>Node2&#45;&gt;Node18</title>
<path fill="none" stroke="midnightblue" d="M1047.16,-282.37C992.46,-279.34 891.75,-273.29 806,-265.5 734.51,-259.01 652.32,-249.24 599.24,-242.63"/>
<polygon fill="midnightblue" stroke="midnightblue" points="1047.29,-285.88 1057.47,-282.93 1047.67,-278.89 1047.29,-285.88"/>
</g>
<!-- Node19 -->
<g id="node19" class="node">
<title>Node19</title>
<g id="a_node19"><a xlink:href="namespacextb__type__dummycalc.html#a28a36738c316fb4a0655328844e94957" target="_top" xlink:title=" ">
<polygon fill="white" stroke="black" points="833.5,-176.5 833.5,-206.5 955.5,-206.5 955.5,-176.5 833.5,-176.5"/>
<text text-anchor="start" x="841.5" y="-194.5" font-family="Helvetica,sans-Serif" font-size="10.00">xtb_type_dummycalc</text>
<text text-anchor="middle" x="894.5" y="-183.5" font-family="Helvetica,sans-Serif" font-size="10.00">::singlepoint</text>
</a>
</g>
</g>
<!-- Node2&#45;&gt;Node19 -->
<g id="edge21" class="edge">
<title>Node2&#45;&gt;Node19</title>
<path fill="none" stroke="midnightblue" d="M1067.17,-268.62C1046.85,-253.41 1014.23,-230.73 983,-216.5 974.37,-212.57 964.99,-209.11 955.66,-206.11"/>
<polygon fill="midnightblue" stroke="midnightblue" points="1065.26,-271.57 1075.34,-274.83 1069.5,-266 1065.26,-271.57"/>
</g>
<!-- Node20 -->
<g id="node20" class="node">
<title>Node20</title>
<g id="a_node20"><a xlink:href="namespacextb__xtb__calculator.html#a75c96263c235c99dfeeda3e865f9898c" target="_top" xlink:title=" ">
<polygon fill="white" stroke="black" points="841,-225.5 841,-255.5 948,-255.5 948,-225.5 841,-225.5"/>
<text text-anchor="start" x="849" y="-243.5" font-family="Helvetica,sans-Serif" font-size="10.00">xtb_xtb_calculator</text>
<text text-anchor="middle" x="894.5" y="-232.5" font-family="Helvetica,sans-Serif" font-size="10.00">::singlepoint</text>
</a>
</g>
</g>
<!-- Node2&#45;&gt;Node20 -->
<g id="edge22" class="edge">
<title>Node2&#45;&gt;Node20</title>
<path fill="none" stroke="midnightblue" d="M1046.98,-275.21C1018.24,-268.63 979.39,-259.73 948.24,-252.59"/>
<polygon fill="midnightblue" stroke="midnightblue" points="1046.55,-278.71 1057.08,-277.53 1048.11,-271.88 1046.55,-278.71"/>
</g>
<!-- Node5 -->
<g id="node5" class="node">
<title>Node5</title>
<g id="a_node5"><a xlink:href="namespacextb__optimizer.html#a9fc9ad9955c0a2ef4872d25495d02901" target="_top" xlink:title=" ">
<polygon fill="white" stroke="black" points="641,-381 641,-400 770,-400 770,-381 641,-381"/>
<text text-anchor="middle" x="705.5" y="-388" font-family="Helvetica,sans-Serif" font-size="10.00">xtb_optimizer::modhes</text>
</a>
</g>
</g>
<!-- Node4&#45;&gt;Node5 -->
<g id="edge4" class="edge">
<title>Node4&#45;&gt;Node5</title>
<path fill="none" stroke="midnightblue" d="M849.71,-367.52C824.72,-371.53 793.04,-376.62 765.84,-380.98"/>
<polygon fill="midnightblue" stroke="midnightblue" points="850.32,-370.97 859.64,-365.93 849.21,-364.06 850.32,-370.97"/>
</g>
<!-- Node6 -->
<g id="node6" class="node">
<title>Node6</title>
<g id="a_node6"><a xlink:href="namespacextb__optimizer.html#a1743159550358c92fb2761af80e15285" target="_top" xlink:title=" ">
<polygon fill="white" stroke="black" points="481,-450 481,-469 604,-469 604,-450 481,-450"/>
<text text-anchor="middle" x="542.5" y="-457" font-family="Helvetica,sans-Serif" font-size="10.00">xtb_optimizer::ancopt</text>
</a>
</g>
</g>
<!-- Node5&#45;&gt;Node6 -->
<g id="edge5" class="edge">
<title>Node5&#45;&gt;Node6</title>
<path fill="none" stroke="midnightblue" d="M678.66,-404.98C658.89,-415.68 630.74,-430.14 605,-440.5 596.4,-443.96 586.91,-447.18 578.01,-449.94"/>
<polygon fill="midnightblue" stroke="midnightblue" points="680.55,-407.93 687.64,-400.06 677.19,-401.79 680.55,-407.93"/>
</g>
<!-- Node16 -->
<g id="node16" class="node">
<title>Node16</title>
<g id="a_node16"><a xlink:href="namespacextb__relaxation__engine.html#a930f6aac4b13eab0de82f2b71bcde96b" target="_top" xlink:title="frontend implementation of the fast inertial relaxation engine">
<polygon fill="white" stroke="black" points="480,-400.5 480,-430.5 605,-430.5 605,-400.5 480,-400.5"/>
<text text-anchor="start" x="488" y="-418.5" font-family="Helvetica,sans-Serif" font-size="10.00">xtb_relaxation_engine</text>
<text text-anchor="middle" x="542.5" y="-407.5" font-family="Helvetica,sans-Serif" font-size="10.00">::fire</text>
</a>
</g>
</g>
<!-- Node5&#45;&gt;Node16 -->
<g id="edge15" class="edge">
<title>Node5&#45;&gt;Node16</title>
<path fill="none" stroke="midnightblue" d="M633.15,-401.58C623.82,-403.03 614.33,-404.5 605.19,-405.92"/>
<polygon fill="midnightblue" stroke="midnightblue" points="633.83,-405.02 643.17,-400.02 632.75,-398.1 633.83,-405.02"/>
</g>
<!-- Node17 -->
<g id="node17" class="node">
<title>Node17</title>
<g id="a_node17"><a xlink:href="namespacextb__relaxation__engine.html#a93ca131c43cfa21276f1bc353c189423" target="_top" xlink:title="frontend implementation of the low memory/linear scaling (by taste)">
<polygon fill="white" stroke="black" points="480,-351.5 480,-381.5 605,-381.5 605,-351.5 480,-351.5"/>
<text text-anchor="start" x="488" y="-369.5" font-family="Helvetica,sans-Serif" font-size="10.00">xtb_relaxation_engine</text>
<text text-anchor="middle" x="542.5" y="-358.5" font-family="Helvetica,sans-Serif" font-size="10.00">::l_ancopt</text>
</a>
</g>
</g>
<!-- Node5&#45;&gt;Node17 -->
<g id="edge17" class="edge">
<title>Node5&#45;&gt;Node17</title>
<path fill="none" stroke="midnightblue" d="M630.84,-379.52C622.23,-378.24 613.51,-376.94 605.09,-375.68"/>
<polygon fill="midnightblue" stroke="midnightblue" points="630.46,-383 640.87,-381.01 631.49,-376.08 630.46,-383"/>
</g>
<!-- Node7 -->
<g id="node7" class="node">
<title>Node7</title>
<g id="a_node7"><a xlink:href="namespacextb__biaspath.html#a17ea22b101e578a3df8d2b58b96811a5" target="_top" xlink:title=" ">
<polygon fill="white" stroke="black" points="311,-450 311,-469 444,-469 444,-450 311,-450"/>
<text text-anchor="middle" x="377.5" y="-457" font-family="Helvetica,sans-Serif" font-size="10.00">xtb_biaspath::bias_path</text>
</a>
</g>
</g>
<!-- Node6&#45;&gt;Node7 -->
<g id="edge6" class="edge">
<title>Node6&#45;&gt;Node7</title>
<path fill="none" stroke="midnightblue" d="M470.6,-459.5C461.81,-459.5 452.87,-459.5 444.17,-459.5"/>
<polygon fill="midnightblue" stroke="midnightblue" points="470.8,-463 480.8,-459.5 470.8,-456 470.8,-463"/>
</g>
<!-- Node8 -->
<g id="node8" class="node">
<title>Node8</title>
<g id="a_node8"><a xlink:href="namespacextb__geoopt.html#a1f0513294f2237b94f355cc4dc5dd867" target="_top" xlink:title=" ">
<polygon fill="white" stroke="black" points="315,-400.5 315,-430.5 440,-430.5 440,-400.5 315,-400.5"/>
<text text-anchor="start" x="323" y="-418.5" font-family="Helvetica,sans-Serif" font-size="10.00">xtb_geoopt::geometry</text>
<text text-anchor="middle" x="377.5" y="-407.5" font-family="Helvetica,sans-Serif" font-size="10.00">_optimization</text>
</a>
</g>
</g>
<!-- Node6&#45;&gt;Node8 -->
<g id="edge7" class="edge">
<title>Node6&#45;&gt;Node8</title>
<path fill="none" stroke="midnightblue" d="M496.42,-447.33C477.2,-442.14 454.57,-436.04 434.31,-430.57"/>
<polygon fill="midnightblue" stroke="midnightblue" points="495.56,-450.73 506.13,-449.95 497.39,-443.97 495.56,-450.73"/>
</g>
<!-- Node9 -->
<g id="node9" class="node">
<title>Node9</title>
<g id="a_node9"><a xlink:href="namespacextb__kopt.html#ada4ab70832f563f46c8ffc8cea64c78b" target="_top" xlink:title=" ">
<polygon fill="white" stroke="black" points="154,-515 154,-534 264,-534 264,-515 154,-515"/>
<text text-anchor="middle" x="209" y="-522" font-family="Helvetica,sans-Serif" font-size="10.00">xtb_kopt::get_rmsd</text>
</a>
</g>
</g>
<!-- Node8&#45;&gt;Node9 -->
<g id="edge8" class="edge">
<title>Node8&#45;&gt;Node9</title>
<path fill="none" stroke="midnightblue" d="M317.13,-435.79C314.98,-437.26 312.93,-438.82 311,-440.5 286.06,-462.15 300.79,-484.87 275,-505.5 270.13,-509.39 264.5,-512.49 258.62,-514.95"/>
<polygon fill="midnightblue" stroke="midnightblue" points="319,-438.75 325.78,-430.61 315.41,-432.74 319,-438.75"/>
</g>
<!-- Node11 -->
<g id="node11" class="node">
<title>Node11</title>
<g id="a_node11"><a xlink:href="namespacextb__mdoptim.html#ab0ba2195163cd6794115b99516ba5316" target="_top" xlink:title=" ">
<polygon fill="white" stroke="black" points="149.5,-477 149.5,-496 268.5,-496 268.5,-477 149.5,-477"/>
<text text-anchor="middle" x="209" y="-484" font-family="Helvetica,sans-Serif" font-size="10.00">xtb_mdoptim::mdopt</text>
</a>
</g>
</g>
<!-- Node8&#45;&gt;Node11 -->
<g id="edge10" class="edge">
<title>Node8&#45;&gt;Node11</title>
<path fill="none" stroke="midnightblue" d="M322.64,-434.65C318.64,-436.49 314.72,-438.45 311,-440.5 293.49,-450.16 292.89,-458.55 275,-467.5 267.53,-471.24 259.21,-474.36 251.08,-476.93"/>
<polygon fill="midnightblue" stroke="midnightblue" points="324.29,-437.74 332.05,-430.53 321.48,-431.33 324.29,-437.74"/>
</g>
<!-- Node12 -->
<g id="node12" class="node">
<title>Node12</title>
<g id="a_node12"><a xlink:href="namespacextb__modef.html#a39c4cb408b8b02afb7bf83a1d7f13de3" target="_top" xlink:title=" ">
<polygon fill="white" stroke="black" points="143,-439 143,-458 275,-458 275,-439 143,-439"/>
<text text-anchor="middle" x="209" y="-446" font-family="Helvetica,sans-Serif" font-size="10.00">xtb_modef::modefollow</text>
</a>
</g>
</g>
<!-- Node8&#45;&gt;Node12 -->
<g id="edge11" class="edge">
<title>Node8&#45;&gt;Node12</title>
<path fill="none" stroke="midnightblue" d="M305.16,-429.64C289.24,-432.8 272.72,-436.07 258.01,-438.99"/>
<polygon fill="midnightblue" stroke="midnightblue" points="305.85,-433.07 314.97,-427.69 304.48,-426.21 305.85,-433.07"/>
</g>
<!-- Node8&#45;&gt;Node13 -->
<g id="edge12" class="edge">
<title>Node8&#45;&gt;Node13</title>
<path fill="none" stroke="midnightblue" d="M351.44,-393.92C331.76,-377.88 303.07,-356.44 275,-342.5 266.65,-338.35 257.26,-334.86 248.27,-332.01"/>
<polygon fill="midnightblue" stroke="midnightblue" points="349.37,-396.74 359.3,-400.42 353.83,-391.35 349.37,-396.74"/>
</g>
<!-- Node14 -->
<g id="node14" class="node">
<title>Node14</title>
<g id="a_node14"><a xlink:href="namespacextb__screening.html#a7f4004ff0e65127a38b038f0a7cdcc84" target="_top" xlink:title=" ">
<polygon fill="white" stroke="black" points="147.5,-401 147.5,-420 270.5,-420 270.5,-401 147.5,-401"/>
<text text-anchor="middle" x="209" y="-408" font-family="Helvetica,sans-Serif" font-size="10.00">xtb_screening::screen</text>
</a>
</g>
</g>
<!-- Node8&#45;&gt;Node14 -->
<g id="edge13" class="edge">
<title>Node8&#45;&gt;Node14</title>
<path fill="none" stroke="midnightblue" d="M304.68,-413.34C293.36,-413 281.75,-412.65 270.72,-412.32"/>
<polygon fill="midnightblue" stroke="midnightblue" points="304.87,-416.85 314.97,-413.65 305.08,-409.85 304.87,-416.85"/>
</g>
<!-- Node15 -->
<g id="node15" class="node">
<title>Node15</title>
<g id="a_node15"><a xlink:href="namespacextb__gfnff__convert.html#adf399b47b9f2a8364327d9d5c38cb2b8" target="_top" xlink:title=" ">
<polygon fill="white" stroke="black" points="155,-351.5 155,-381.5 263,-381.5 263,-351.5 155,-351.5"/>
<text text-anchor="start" x="163" y="-369.5" font-family="Helvetica,sans-Serif" font-size="10.00">xtb_gfnff_convert::</text>
<text text-anchor="middle" x="209" y="-358.5" font-family="Helvetica,sans-Serif" font-size="10.00">struc_convert</text>
</a>
</g>
</g>
<!-- Node8&#45;&gt;Node15 -->
<g id="edge14" class="edge">
<title>Node8&#45;&gt;Node15</title>
<path fill="none" stroke="midnightblue" d="M315.45,-397.53C297.61,-392.28 278.3,-386.6 261.14,-381.55"/>
<polygon fill="midnightblue" stroke="midnightblue" points="314.6,-400.93 325.19,-400.4 316.58,-394.22 314.6,-400.93"/>
</g>
<!-- Node10 -->
<g id="node10" class="node">
<title>Node10</title>
<g id="a_node10"><a xlink:href="namespacextb__kopt.html#aed50b40106367857ab2d0bf3a109f62b" target="_top" xlink:title=" ">
<polygon fill="white" stroke="black" points="0,-515 0,-534 107,-534 107,-515 0,-515"/>
<text text-anchor="middle" x="53.5" y="-522" font-family="Helvetica,sans-Serif" font-size="10.00">xtb_kopt::get_kopt</text>
</a>
</g>
</g>
<!-- Node9&#45;&gt;Node10 -->
<g id="edge9" class="edge">
<title>Node9&#45;&gt;Node10</title>
<path fill="none" stroke="midnightblue" d="M143.75,-524.5C131.54,-524.5 118.9,-524.5 107.1,-524.5"/>
<polygon fill="midnightblue" stroke="midnightblue" points="143.88,-528 153.88,-524.5 143.88,-521 143.88,-528"/>
</g>
<!-- Node16&#45;&gt;Node8 -->
<g id="edge16" class="edge">
<title>Node16&#45;&gt;Node8</title>
<path fill="none" stroke="midnightblue" d="M469.72,-415.5C459.88,-415.5 449.85,-415.5 440.21,-415.5"/>
<polygon fill="midnightblue" stroke="midnightblue" points="469.88,-419 479.88,-415.5 469.88,-412 469.88,-419"/>
</g>
<!-- Node17&#45;&gt;Node8 -->
<g id="edge18" class="edge">
<title>Node17&#45;&gt;Node8</title>
<path fill="none" stroke="midnightblue" d="M481.25,-384.61C463.92,-389.82 445.21,-395.45 428.57,-400.45"/>
<polygon fill="midnightblue" stroke="midnightblue" points="482.7,-387.83 491.26,-381.6 480.68,-381.13 482.7,-387.83"/>
</g>
<!-- Node22 -->
<g id="node22" class="node">
<title>Node22</title>
<g id="a_node22"><a xlink:href="namespacextb__gfnff__eg.html#a3c6317a91da8d6eb6e333fdb8ee1f3d9" target="_top" xlink:title=" ">
<polygon fill="white" stroke="black" points="644,-138 644,-157 767,-157 767,-138 644,-138"/>
<text text-anchor="middle" x="705.5" y="-145" font-family="Helvetica,sans-Serif" font-size="10.00">xtb_gfnff_eg::gfnff_eg</text>
</a>
</g>
</g>
<!-- Node21&#45;&gt;Node22 -->
<g id="edge24" class="edge">
<title>Node21&#45;&gt;Node22</title>
<path fill="none" stroke="midnightblue" d="M1018.52,-147.5C946.79,-147.5 835.62,-147.5 767.15,-147.5"/>
<polygon fill="midnightblue" stroke="midnightblue" points="1018.8,-151 1028.8,-147.5 1018.8,-144 1018.8,-151"/>
</g>
<!-- Node22&#45;&gt;Node18 -->
<g id="edge25" class="edge">
<title>Node22&#45;&gt;Node18</title>
<path fill="none" stroke="midnightblue" d="M678.08,-161.94C648.62,-178.04 601.2,-203.96 571.23,-220.34"/>
<polygon fill="midnightblue" stroke="midnightblue" points="679.87,-164.95 686.96,-157.09 676.51,-158.81 679.87,-164.95"/>
</g>
<!-- Node23 -->
<g id="node23" class="node">
<title>Node23</title>
<g id="a_node23"><a xlink:href="gfnff_8f90.html#a3debb77ee35e9cf115d69ef59490c6c5" target="_top" xlink:title=" ">
<polygon fill="white" stroke="black" points="502.5,-138 502.5,-157 582.5,-157 582.5,-138 502.5,-138"/>
<text text-anchor="middle" x="542.5" y="-145" font-family="Helvetica,sans-Serif" font-size="10.00">test_gfnff_sp</text>
</a>
</g>
</g>
<!-- Node22&#45;&gt;Node23 -->
<g id="edge26" class="edge">
<title>Node22&#45;&gt;Node23</title>
<path fill="none" stroke="midnightblue" d="M633.43,-147.5C615.95,-147.5 597.86,-147.5 582.53,-147.5"/>
<polygon fill="midnightblue" stroke="midnightblue" points="633.63,-151 643.63,-147.5 633.63,-144 633.63,-151"/>
</g>
<!-- Node24 -->
<g id="node24" class="node">
<title>Node24</title>
<g id="a_node24"><a xlink:href="tests__peeq_8f90.html#a87ff5319e0d2e627a4f71d7df0d14891" target="_top" xlink:title=" ">
<polygon fill="white" stroke="black" points="340.5,-138 340.5,-157 414.5,-157 414.5,-138 340.5,-138"/>
<text text-anchor="middle" x="377.5" y="-145" font-family="Helvetica,sans-Serif" font-size="10.00">peeq_tester</text>
</a>
</g>
</g>
<!-- Node23&#45;&gt;Node24 -->
<g id="edge27" class="edge">
<title>Node23&#45;&gt;Node24</title>
<path fill="none" stroke="midnightblue" d="M492.44,-147.5C467.44,-147.5 437.59,-147.5 414.71,-147.5"/>
<polygon fill="midnightblue" stroke="midnightblue" points="492.46,-151 502.46,-147.5 492.46,-144 492.46,-151"/>
</g>
<!-- Node26 -->
<g id="node26" class="node">
<title>Node26</title>
<g id="a_node26"><a xlink:href="namespacextb__gfnff__eg.html#a249f6d9c62394b50a1f8cca4389819c3" target="_top" xlink:title=" ">
<polygon fill="white" stroke="black" points="832.5,-88.5 832.5,-118.5 956.5,-118.5 956.5,-88.5 832.5,-88.5"/>
<text text-anchor="start" x="840.5" y="-106.5" font-family="Helvetica,sans-Serif" font-size="10.00">xtb_gfnff_eg::abhgfnff</text>
<text text-anchor="middle" x="894.5" y="-95.5" font-family="Helvetica,sans-Serif" font-size="10.00">_eg3_add</text>
</a>
</g>
</g>
<!-- Node25&#45;&gt;Node26 -->
<g id="edge29" class="edge">
<title>Node25&#45;&gt;Node26</title>
<path fill="none" stroke="midnightblue" d="M1008.85,-105.27C991.43,-105 973.23,-104.71 956.63,-104.46"/>
<polygon fill="midnightblue" stroke="midnightblue" points="1008.94,-108.77 1019,-105.43 1009.05,-101.77 1008.94,-108.77"/>
</g>
<!-- Node28 -->
<g id="node28" class="node">
<title>Node28</title>
<g id="a_node28"><a xlink:href="namespacextb__gfnff__eg.html#ac21efbb550b6edae8c66215658f3e721" target="_top" xlink:title=" ">
<polygon fill="white" stroke="black" points="821,-50 821,-69 968,-69 968,-50 821,-50"/>
<text text-anchor="middle" x="894.5" y="-57" font-family="Helvetica,sans-Serif" font-size="10.00">xtb_gfnff_eg::abhgfnff_eg3</text>
</a>
</g>
</g>
<!-- Node27&#45;&gt;Node28 -->
<g id="edge31" class="edge">
<title>Node27&#45;&gt;Node28</title>
<path fill="none" stroke="midnightblue" d="M1018.77,-59.5C1002.3,-59.5 984.66,-59.5 968.03,-59.5"/>
<polygon fill="midnightblue" stroke="midnightblue" points="1018.85,-63 1028.85,-59.5 1018.85,-56 1018.85,-63"/>
</g>
<!-- Node29 -->
<g id="node29" class="node">
<title>Node29</title>
<g id="a_node29"><a xlink:href="namespacextb__gfnff__eg.html#a96f44d5568fa1a8f5911e6c4534b33a1" target="_top" xlink:title=" ">
<polygon fill="white" stroke="black" points="832.5,-0.5 832.5,-30.5 956.5,-30.5 956.5,-0.5 832.5,-0.5"/>
<text text-anchor="start" x="840.5" y="-18.5" font-family="Helvetica,sans-Serif" font-size="10.00">xtb_gfnff_eg::abhgfnff</text>
<text text-anchor="middle" x="894.5" y="-7.5" font-family="Helvetica,sans-Serif" font-size="10.00">_eg3_mul</text>
</a>
</g>
</g>
<!-- Node27&#45;&gt;Node29 -->
<g id="edge33" class="edge">
<title>Node27&#45;&gt;Node29</title>
<path fill="none" stroke="midnightblue" d="M1019.04,-43.81C998.72,-39.16 976.61,-34.09 956.78,-29.54"/>
<polygon fill="midnightblue" stroke="midnightblue" points="1018.32,-47.24 1028.85,-46.06 1019.88,-40.41 1018.32,-47.24"/>
</g>
<!-- Node28&#45;&gt;Node22 -->
<g id="edge32" class="edge">
<title>Node28&#45;&gt;Node22</title>
<path fill="none" stroke="midnightblue" d="M824.24,-71.86C817.97,-73.78 811.8,-75.98 806,-78.5 770.53,-93.92 734.64,-122.82 717.27,-137.86"/>
<polygon fill="midnightblue" stroke="midnightblue" points="825.46,-75.15 834.14,-69.08 823.56,-68.42 825.46,-75.15"/>
</g>
<!-- Node30&#45;&gt;Node19 -->
<g id="edge35" class="edge">
<title>Node30&#45;&gt;Node19</title>
<path fill="none" stroke="midnightblue" d="M1029.92,-189.4C1006.54,-189.77 979.51,-190.19 955.85,-190.56"/>
<polygon fill="midnightblue" stroke="midnightblue" points="1030.1,-192.9 1040.04,-189.24 1029.99,-185.9 1030.1,-192.9"/>
</g>
</g>
</svg>
        <g id="navigator" transform="translate(0 0)" fill="#404254">
                <rect fill="#f2f5e9" fill-opacity="0.5" stroke="#606060" stroke-width=".5" x="0" y="0" width="60" height="60"/>
                <use id="zoomplus" xlink:href="#zoomPlus" x="17" y="9" onmousedown="handleZoom(evt,'in')"/>
                <use id="zoomminus" xlink:href="#zoomMin" x="42" y="9" onmousedown="handleZoom(evt,'out')"/>
                <use id="reset" xlink:href="#resetDef" x="30" y="36" onmousedown="handleReset()"/>
                <g id="arrowUp" xlink:href="#dirArrow" transform="translate(30 24)" onmousedown="handlePan(0,-1)">
                  <use xlink:href="#rim" fill="#404040">
                        <set attributeName="fill" to="#808080" begin="arrowUp.mouseover" end="arrowUp.mouseout"/>
                  </use>
                  <path fill="none" stroke="white" stroke-width="1.5" d="M0,-3.0v7 M-2.5,-0.5L0,-3.0L2.5,-0.5"/>
                </g>
                <g id="arrowRight" xlink:href="#dirArrow" transform="rotate(90) translate(36 -43)" onmousedown="handlePan(1,0)">
                  <use xlink:href="#rim" fill="#404040">
                        <set attributeName="fill" to="#808080" begin="arrowRight.mouseover" end="arrowRight.mouseout"/>
                  </use>
                  <path fill="none" stroke="white" stroke-width="1.5" d="M0,-3.0v7 M-2.5,-0.5L0,-3.0L2.5,-0.5"/>
                </g>
                <g id="arrowDown" xlink:href="#dirArrow" transform="rotate(180) translate(-30 -48)" onmousedown="handlePan(0,1)">
                  <use xlink:href="#rim" fill="#404040">
                        <set attributeName="fill" to="#808080" begin="arrowDown.mouseover" end="arrowDown.mouseout"/>
                  </use>
                  <path fill="none" stroke="white" stroke-width="1.5" d="M0,-3.0v7 M-2.5,-0.5L0,-3.0L2.5,-0.5"/>
                </g>
                <g id="arrowLeft" xlink:href="#dirArrow" transform="rotate(270) translate(-36 17)" onmousedown="handlePan(-1,0)">
                  <use xlink:href="#rim" fill="#404040">
                        <set attributeName="fill" to="#808080" begin="arrowLeft.mouseover" end="arrowLeft.mouseout"/>
                  </use>
                  <path fill="none" stroke="white" stroke-width="1.5" d="M0,-3.0v7 M-2.5,-0.5L0,-3.0L2.5,-0.5"/>
                </g>
        </g>
        <svg viewBox="0 0 15 15" width="100%" height="30px" preserveAspectRatio="xMaxYMin meet">
         <g id="arrow_out" transform="scale(0.3 0.3)">
          <a xlink:href="constr_8f90_ae4f480642c40f2729449a02839cf06ce_icgraph_org.svg" target="_base">
           <rect id="button" ry="5" rx="5" y="6" x="6" height="38" width="38"
                fill="#f2f5e9" fill-opacity="0.5" stroke="#606060" stroke-width="1.0"/>
           <path id="arrow"
             d="M 11.500037,31.436501 C 11.940474,20.09759 22.043105,11.32322 32.158766,21.979434 L 37.068811,17.246167 C 37.068811,17.246167 37.088388,32 37.088388,32 L 22.160133,31.978069 C 22.160133,31.978069 26.997745,27.140456 26.997745,27.140456 C 18.528582,18.264221 13.291696,25.230495 11.500037,31.436501 z"
             style="fill:#404040;"/>
          </a>
         </g>
        </svg>
</svg>
