<?xml version="1.0" encoding="UTF-8" standalone="no"?>
<!DOCTYPE svg PUBLIC "-//W3C//DTD SVG 1.1//EN"
 "http://www.w3.org/Graphics/SVG/1.1/DTD/svg11.dtd">
<!-- Generated by graphviz version 2.43.0 (0)
 -->
<!-- Title: smread Pages: 1 -->
<!--zoomable 230 -->
<svg id="main" version="1.1" xmlns="http://www.w3.org/2000/svg" xmlns:xlink="http://www.w3.org/1999/xlink" xml:space="preserve" onload="init(evt)">
<style type="text/css"><![CDATA[
.edge:hover path { stroke: red; }
.edge:hover polygon { stroke: red; fill: red; }
]]></style>
<script type="text/javascript"><![CDATA[
var edges = document.getElementsByTagName('g');
if (edges && edges.length) {
  for (var i=0;i<edges.length;i++) {
    if (edges[i].id.substr(0,4)=='edge') {
      edges[i].setAttribute('class','edge');
    }
  }
}
]]></script>
        <defs>
                <circle id="rim" cx="0" cy="0" r="7"/>
                <circle id="rim2" cx="0" cy="0" r="3.5"/>
                <g id="zoomPlus">
                        <use xlink:href="#rim" fill="#404040">
                                <set attributeName="fill" to="#808080" begin="zoomplus.mouseover" end="zoomplus.mouseout"/>
                        </use>
                        <path d="M-4,0h8M0,-4v8" fill="none" stroke="white" stroke-width="1.5" pointer-events="none"/>
                </g>
                <g id="zoomMin">
                        <use xlink:href="#rim" fill="#404040">
                                <set attributeName="fill" to="#808080" begin="zoomminus.mouseover" end="zoomminus.mouseout"/>
                        </use>
                        <path d="M-4,0h8" fill="none" stroke="white" stroke-width="1.5" pointer-events="none"/>
                </g>
                <g id="dirArrow">
                        <path fill="none" stroke="white" stroke-width="1.5" d="M0,-3.0v7 M-2.5,-0.5L0,-3.0L2.5,-0.5"/>
                </g>
               <g id="resetDef">
                       <use xlink:href="#rim2" fill="#404040">
                               <set attributeName="fill" to="#808080" begin="reset.mouseover" end="reset.mouseout"/>
                       </use>
               </g>
        </defs>

<script type="text/javascript">
var viewWidth = 1014;
var viewHeight = 230;
var sectionId = 'dynsection-5';
</script>
<script xlink:href="svgpan.js"/>
<svg id="graph" class="graph">
<g id="viewport">
<title>smread</title>
<polygon fill="white" stroke="transparent" points="-4,4 -4,-225.5 1010,-225.5 1010,4 -4,4"/>
<!-- Node1 -->
<g id="node1" class="node">
<title>Node1</title>
<g id="a_node1"><a xlink:title=" ">
<polygon fill="#bfbfbf" stroke="black" points="953,-129 953,-148 1006,-148 1006,-129 953,-129"/>
<text text-anchor="middle" x="979.5" y="-136" font-family="Helvetica,sans-Serif" font-size="10.00">smread</text>
</a>
</g>
</g>
<!-- Node2 -->
<g id="node2" class="node">
<title>Node2</title>
<g id="a_node2"><a xlink:href="david_8f.html#a9e0ac3936cbd1f137d971b392057a3d9" target="_top" xlink:title=" ">
<polygon fill="white" stroke="black" points="835,-167 835,-186 884,-186 884,-167 835,-167"/>
<text text-anchor="middle" x="859.5" y="-174" font-family="Helvetica,sans-Serif" font-size="10.00">sdavid</text>
</a>
</g>
</g>
<!-- Node1&#45;&gt;Node2 -->
<g id="edge1" class="edge">
<title>Node1&#45;&gt;Node2</title>
<path fill="none" stroke="midnightblue" d="M943.31,-149.83C924.16,-156 901,-163.46 884.05,-168.92"/>
<polygon fill="midnightblue" stroke="midnightblue" points="944.45,-153.14 952.9,-146.75 942.3,-146.48 944.45,-153.14"/>
</g>
<!-- Node3 -->
<g id="node3" class="node">
<title>Node3</title>
<g id="a_node3"><a xlink:href="namespacextb__david2.html#a39ef417f32754108dd60896dee4413e3" target="_top" xlink:title=" ">
<polygon fill="white" stroke="black" points="802,-129 802,-148 917,-148 917,-129 802,-129"/>
<text text-anchor="middle" x="859.5" y="-136" font-family="Helvetica,sans-Serif" font-size="10.00">xtb_david2::sdavid2</text>
</a>
</g>
</g>
<!-- Node1&#45;&gt;Node3 -->
<g id="edge2" class="edge">
<title>Node1&#45;&gt;Node3</title>
<path fill="none" stroke="midnightblue" d="M942.7,-138.5C934.59,-138.5 925.79,-138.5 917.05,-138.5"/>
<polygon fill="midnightblue" stroke="midnightblue" points="942.9,-142 952.9,-138.5 942.9,-135 942.9,-142"/>
</g>
<!-- Node4 -->
<g id="node4" class="node">
<title>Node4</title>
<g id="a_node4"><a xlink:href="namespacextb__david2.html#a26947ac99a2e9cad8c07359ac7d26b9c" target="_top" xlink:title=" ">
<polygon fill="white" stroke="black" points="806,-79.5 806,-109.5 913,-109.5 913,-79.5 806,-79.5"/>
<text text-anchor="start" x="814" y="-97.5" font-family="Helvetica,sans-Serif" font-size="10.00">xtb_david2::solver</text>
<text text-anchor="middle" x="859.5" y="-86.5" font-family="Helvetica,sans-Serif" font-size="10.00">_sdavidson</text>
</a>
</g>
</g>
<!-- Node1&#45;&gt;Node4 -->
<g id="edge3" class="edge">
<title>Node1&#45;&gt;Node4</title>
<path fill="none" stroke="midnightblue" d="M943.16,-125.32C929.85,-120.36 914.63,-114.68 900.9,-109.57"/>
<polygon fill="midnightblue" stroke="midnightblue" points="942.3,-128.74 952.9,-128.95 944.75,-122.18 942.3,-128.74"/>
</g>
<!-- Node5 -->
<g id="node5" class="node">
<title>Node5</title>
<g id="a_node5"><a xlink:href="namespacextb__relaxation__engine.html#af0280194bd95772c5dfc4a3dece60d0c" target="_top" xlink:title="backend implementation of the low memory BFGS algorithm, this implementation">
<polygon fill="white" stroke="black" points="641,-101.5 641,-131.5 766,-131.5 766,-101.5 641,-101.5"/>
<text text-anchor="start" x="649" y="-119.5" font-family="Helvetica,sans-Serif" font-size="10.00">xtb_relaxation_engine</text>
<text text-anchor="middle" x="703.5" y="-108.5" font-family="Helvetica,sans-Serif" font-size="10.00">::lbfgs_relax</text>
</a>
</g>
</g>
<!-- Node4&#45;&gt;Node5 -->
<g id="edge4" class="edge">
<title>Node4&#45;&gt;Node5</title>
<path fill="none" stroke="midnightblue" d="M795.85,-103.45C786.04,-104.85 775.91,-106.3 766.12,-107.7"/>
<polygon fill="midnightblue" stroke="midnightblue" points="796.53,-106.89 805.93,-102.01 795.54,-99.96 796.53,-106.89"/>
</g>
<!-- Node15 -->
<g id="node15" class="node">
<title>Node15</title>
<g id="a_node15"><a xlink:href="namespacextb__optimizer.html#a0ae8aa844914d8a5dfd34b5a91faaf32" target="_top" xlink:title="actual optimization procedure">
<polygon fill="white" stroke="black" points="646,-63 646,-82 761,-82 761,-63 646,-63"/>
<text text-anchor="middle" x="703.5" y="-70" font-family="Helvetica,sans-Serif" font-size="10.00">xtb_optimizer::relax</text>
</a>
</g>
</g>
<!-- Node4&#45;&gt;Node15 -->
<g id="edge14" class="edge">
<title>Node4&#45;&gt;Node15</title>
<path fill="none" stroke="midnightblue" d="M795.93,-85.56C784.39,-83.91 772.4,-82.2 761.04,-80.58"/>
<polygon fill="midnightblue" stroke="midnightblue" points="795.54,-89.04 805.93,-86.99 796.53,-82.11 795.54,-89.04"/>
</g>
<!-- Node6 -->
<g id="node6" class="node">
<title>Node6</title>
<g id="a_node6"><a xlink:href="namespacextb__relaxation__engine.html#a93ca131c43cfa21276f1bc353c189423" target="_top" xlink:title="frontend implementation of the low memory/linear scaling (by taste)">
<polygon fill="white" stroke="black" points="480,-101.5 480,-131.5 605,-131.5 605,-101.5 480,-101.5"/>
<text text-anchor="start" x="488" y="-119.5" font-family="Helvetica,sans-Serif" font-size="10.00">xtb_relaxation_engine</text>
<text text-anchor="middle" x="542.5" y="-108.5" font-family="Helvetica,sans-Serif" font-size="10.00">::l_ancopt</text>
</a>
</g>
</g>
<!-- Node5&#45;&gt;Node6 -->
<g id="edge5" class="edge">
<title>Node5&#45;&gt;Node6</title>
<path fill="none" stroke="midnightblue" d="M630.41,-116.5C622.01,-116.5 613.5,-116.5 605.26,-116.5"/>
<polygon fill="midnightblue" stroke="midnightblue" points="630.57,-120 640.57,-116.5 630.57,-113 630.57,-120"/>
</g>
<!-- Node7 -->
<g id="node7" class="node">
<title>Node7</title>
<g id="a_node7"><a xlink:href="namespacextb__geoopt.html#a1f0513294f2237b94f355cc4dc5dd867" target="_top" xlink:title=" ">
<polygon fill="white" stroke="black" points="315,-101.5 315,-131.5 440,-131.5 440,-101.5 315,-101.5"/>
<text text-anchor="start" x="323" y="-119.5" font-family="Helvetica,sans-Serif" font-size="10.00">xtb_geoopt::geometry</text>
<text text-anchor="middle" x="377.5" y="-108.5" font-family="Helvetica,sans-Serif" font-size="10.00">_optimization</text>
</a>
</g>
</g>
<!-- Node6&#45;&gt;Node7 -->
<g id="edge6" class="edge">
<title>Node6&#45;&gt;Node7</title>
<path fill="none" stroke="midnightblue" d="M469.72,-116.5C459.88,-116.5 449.85,-116.5 440.21,-116.5"/>
<polygon fill="midnightblue" stroke="midnightblue" points="469.88,-120 479.88,-116.5 469.88,-113 469.88,-120"/>
</g>
<!-- Node8 -->
<g id="node8" class="node">
<title>Node8</title>
<g id="a_node8"><a xlink:href="namespacextb__kopt.html#ada4ab70832f563f46c8ffc8cea64c78b" target="_top" xlink:title=" ">
<polygon fill="white" stroke="black" points="154,-202 154,-221 264,-221 264,-202 154,-202"/>
<text text-anchor="middle" x="209" y="-209" font-family="Helvetica,sans-Serif" font-size="10.00">xtb_kopt::get_rmsd</text>
</a>
</g>
</g>
<!-- Node7&#45;&gt;Node8 -->
<g id="edge7" class="edge">
<title>Node7&#45;&gt;Node8</title>
<path fill="none" stroke="midnightblue" d="M352.62,-138.31C333.03,-155.19 303.9,-178.05 275,-192.5 267.53,-196.23 259.21,-199.36 251.08,-201.92"/>
<polygon fill="midnightblue" stroke="midnightblue" points="354.94,-140.93 360.15,-131.71 350.32,-135.67 354.94,-140.93"/>
</g>
<!-- Node10 -->
<g id="node10" class="node">
<title>Node10</title>
<g id="a_node10"><a xlink:href="namespacextb__mdoptim.html#ab0ba2195163cd6794115b99516ba5316" target="_top" xlink:title=" ">
<polygon fill="white" stroke="black" points="149.5,-164 149.5,-183 268.5,-183 268.5,-164 149.5,-164"/>
<text text-anchor="middle" x="209" y="-171" font-family="Helvetica,sans-Serif" font-size="10.00">xtb_mdoptim::mdopt</text>
</a>
</g>
</g>
<!-- Node7&#45;&gt;Node10 -->
<g id="edge9" class="edge">
<title>Node7&#45;&gt;Node10</title>
<path fill="none" stroke="midnightblue" d="M328.56,-135.28C311.72,-141.65 292.61,-148.64 275,-154.5 265.18,-157.77 254.44,-161.03 244.56,-163.91"/>
<polygon fill="midnightblue" stroke="midnightblue" points="330.08,-138.44 338.18,-131.61 327.59,-131.9 330.08,-138.44"/>
</g>
<!-- Node11 -->
<g id="node11" class="node">
<title>Node11</title>
<g id="a_node11"><a xlink:href="namespacextb__modef.html#a39c4cb408b8b02afb7bf83a1d7f13de3" target="_top" xlink:title=" ">
<polygon fill="white" stroke="black" points="143,-126 143,-145 275,-145 275,-126 143,-126"/>
<text text-anchor="middle" x="209" y="-133" font-family="Helvetica,sans-Serif" font-size="10.00">xtb_modef::modefollow</text>
</a>
</g>
</g>
<!-- Node7&#45;&gt;Node11 -->
<g id="edge10" class="edge">
<title>Node7&#45;&gt;Node11</title>
<path fill="none" stroke="midnightblue" d="M304.82,-124.68C294.97,-125.8 284.9,-126.95 275.18,-128.06"/>
<polygon fill="midnightblue" stroke="midnightblue" points="305.44,-128.13 314.97,-123.52 304.64,-121.18 305.44,-128.13"/>
</g>
<!-- Node12 -->
<g id="node12" class="node">
<title>Node12</title>
<g id="a_node12"><a xlink:href="namespacextb__scan.html#abef8f8d0fa299e9e2caf823f3672f14a" target="_top" xlink:title=" ">
<polygon fill="white" stroke="black" points="144,-88 144,-107 274,-107 274,-88 144,-88"/>
<text text-anchor="middle" x="209" y="-95" font-family="Helvetica,sans-Serif" font-size="10.00">xtb_scan::relaxed_scan</text>
</a>
</g>
</g>
<!-- Node7&#45;&gt;Node12 -->
<g id="edge11" class="edge">
<title>Node7&#45;&gt;Node12</title>
<path fill="none" stroke="midnightblue" d="M304.84,-108.32C294.61,-107.16 284.14,-105.96 274.06,-104.81"/>
<polygon fill="midnightblue" stroke="midnightblue" points="304.64,-111.82 314.97,-109.48 305.44,-104.87 304.64,-111.82"/>
</g>
<!-- Node13 -->
<g id="node13" class="node">
<title>Node13</title>
<g id="a_node13"><a xlink:href="namespacextb__screening.html#a7f4004ff0e65127a38b038f0a7cdcc84" target="_top" xlink:title=" ">
<polygon fill="white" stroke="black" points="147.5,-50 147.5,-69 270.5,-69 270.5,-50 147.5,-50"/>
<text text-anchor="middle" x="209" y="-57" font-family="Helvetica,sans-Serif" font-size="10.00">xtb_screening::screen</text>
</a>
</g>
</g>
<!-- Node7&#45;&gt;Node13 -->
<g id="edge12" class="edge">
<title>Node7&#45;&gt;Node13</title>
<path fill="none" stroke="midnightblue" d="M327.8,-97.88C307.08,-90.04 285.33,-81.94 275,-78.5 265.18,-75.23 254.44,-71.97 244.56,-69.09"/>
<polygon fill="midnightblue" stroke="midnightblue" points="326.61,-101.17 337.21,-101.45 329.1,-94.63 326.61,-101.17"/>
</g>
<!-- Node14 -->
<g id="node14" class="node">
<title>Node14</title>
<g id="a_node14"><a xlink:href="namespacextb__gfnff__convert.html#adf399b47b9f2a8364327d9d5c38cb2b8" target="_top" xlink:title=" ">
<polygon fill="white" stroke="black" points="155,-0.5 155,-30.5 263,-30.5 263,-0.5 155,-0.5"/>
<text text-anchor="start" x="163" y="-18.5" font-family="Helvetica,sans-Serif" font-size="10.00">xtb_gfnff_convert::</text>
<text text-anchor="middle" x="209" y="-7.5" font-family="Helvetica,sans-Serif" font-size="10.00">struc_convert</text>
</a>
</g>
</g>
<!-- Node7&#45;&gt;Node14 -->
<g id="edge13" class="edge">
<title>Node7&#45;&gt;Node14</title>
<path fill="none" stroke="midnightblue" d="M318.27,-96.51C315.74,-94.95 313.3,-93.28 311,-91.5 289.09,-74.48 296.89,-57.55 275,-40.5 270.13,-36.71 264.63,-33.44 258.93,-30.63"/>
<polygon fill="midnightblue" stroke="midnightblue" points="316.74,-99.67 327.19,-101.41 320.11,-93.53 316.74,-99.67"/>
</g>
<!-- Node9 -->
<g id="node9" class="node">
<title>Node9</title>
<g id="a_node9"><a xlink:href="namespacextb__kopt.html#aed50b40106367857ab2d0bf3a109f62b" target="_top" xlink:title=" ">
<polygon fill="white" stroke="black" points="0,-202 0,-221 107,-221 107,-202 0,-202"/>
<text text-anchor="middle" x="53.5" y="-209" font-family="Helvetica,sans-Serif" font-size="10.00">xtb_kopt::get_kopt</text>
</a>
</g>
</g>
<!-- Node8&#45;&gt;Node9 -->
<g id="edge8" class="edge">
<title>Node8&#45;&gt;Node9</title>
<path fill="none" stroke="midnightblue" d="M143.75,-211.5C131.54,-211.5 118.9,-211.5 107.1,-211.5"/>
<polygon fill="midnightblue" stroke="midnightblue" points="143.88,-215 153.88,-211.5 143.88,-208 143.88,-215"/>
</g>
<!-- Node16 -->
<g id="node16" class="node">
<title>Node16</title>
<g id="a_node16"><a xlink:href="namespacextb__optimizer.html#a1743159550358c92fb2761af80e15285" target="_top" xlink:title=" ">
<polygon fill="white" stroke="black" points="481,-63 481,-82 604,-82 604,-63 481,-63"/>
<text text-anchor="middle" x="542.5" y="-70" font-family="Helvetica,sans-Serif" font-size="10.00">xtb_optimizer::ancopt</text>
</a>
</g>
</g>
<!-- Node15&#45;&gt;Node16 -->
<g id="edge15" class="edge">
<title>Node15&#45;&gt;Node16</title>
<path fill="none" stroke="midnightblue" d="M635.99,-72.5C625.43,-72.5 614.55,-72.5 604.14,-72.5"/>
<polygon fill="midnightblue" stroke="midnightblue" points="635.99,-76 645.99,-72.5 635.99,-69 635.99,-76"/>
</g>
<!-- Node16&#45;&gt;Node7 -->
<g id="edge17" class="edge">
<title>Node16&#45;&gt;Node7</title>
<path fill="none" stroke="midnightblue" d="M496.42,-84.67C477.2,-89.86 454.57,-95.96 434.31,-101.43"/>
<polygon fill="midnightblue" stroke="midnightblue" points="497.39,-88.03 506.13,-82.05 495.56,-81.27 497.39,-88.03"/>
</g>
<!-- Node17 -->
<g id="node17" class="node">
<title>Node17</title>
<g id="a_node17"><a xlink:href="namespacextb__biaspath.html#a17ea22b101e578a3df8d2b58b96811a5" target="_top" xlink:title=" ">
<polygon fill="white" stroke="black" points="311,-63 311,-82 444,-82 444,-63 311,-63"/>
<text text-anchor="middle" x="377.5" y="-70" font-family="Helvetica,sans-Serif" font-size="10.00">xtb_biaspath::bias_path</text>
</a>
</g>
</g>
<!-- Node16&#45;&gt;Node17 -->
<g id="edge16" class="edge">
<title>Node16&#45;&gt;Node17</title>
<path fill="none" stroke="midnightblue" d="M470.6,-72.5C461.81,-72.5 452.87,-72.5 444.17,-72.5"/>
<polygon fill="midnightblue" stroke="midnightblue" points="470.8,-76 480.8,-72.5 470.8,-69 470.8,-76"/>
</g>
</g>
</svg>
        <g id="navigator" transform="translate(0 0)" fill="#404254">
                <rect fill="#f2f5e9" fill-opacity="0.5" stroke="#606060" stroke-width=".5" x="0" y="0" width="60" height="60"/>
                <use id="zoomplus" xlink:href="#zoomPlus" x="17" y="9" onmousedown="handleZoom(evt,'in')"/>
                <use id="zoomminus" xlink:href="#zoomMin" x="42" y="9" onmousedown="handleZoom(evt,'out')"/>
                <use id="reset" xlink:href="#resetDef" x="30" y="36" onmousedown="handleReset()"/>
                <g id="arrowUp" xlink:href="#dirArrow" transform="translate(30 24)" onmousedown="handlePan(0,-1)">
                  <use xlink:href="#rim" fill="#404040">
                        <set attributeName="fill" to="#808080" begin="arrowUp.mouseover" end="arrowUp.mouseout"/>
                  </use>
                  <path fill="none" stroke="white" stroke-width="1.5" d="M0,-3.0v7 M-2.5,-0.5L0,-3.0L2.5,-0.5"/>
                </g>
                <g id="arrowRight" xlink:href="#dirArrow" transform="rotate(90) translate(36 -43)" onmousedown="handlePan(1,0)">
                  <use xlink:href="#rim" fill="#404040">
                        <set attributeName="fill" to="#808080" begin="arrowRight.mouseover" end="arrowRight.mouseout"/>
                  </use>
                  <path fill="none" stroke="white" stroke-width="1.5" d="M0,-3.0v7 M-2.5,-0.5L0,-3.0L2.5,-0.5"/>
                </g>
                <g id="arrowDown" xlink:href="#dirArrow" transform="rotate(180) translate(-30 -48)" onmousedown="handlePan(0,1)">
                  <use xlink:href="#rim" fill="#404040">
                        <set attributeName="fill" to="#808080" begin="arrowDown.mouseover" end="arrowDown.mouseout"/>
                  </use>
                  <path fill="none" stroke="white" stroke-width="1.5" d="M0,-3.0v7 M-2.5,-0.5L0,-3.0L2.5,-0.5"/>
                </g>
                <g id="arrowLeft" xlink:href="#dirArrow" transform="rotate(270) translate(-36 17)" onmousedown="handlePan(-1,0)">
                  <use xlink:href="#rim" fill="#404040">
                        <set attributeName="fill" to="#808080" begin="arrowLeft.mouseover" end="arrowLeft.mouseout"/>
                  </use>
                  <path fill="none" stroke="white" stroke-width="1.5" d="M0,-3.0v7 M-2.5,-0.5L0,-3.0L2.5,-0.5"/>
                </g>
        </g>
        <svg viewBox="0 0 15 15" width="100%" height="30px" preserveAspectRatio="xMaxYMin meet">
         <g id="arrow_out" transform="scale(0.3 0.3)">
          <a xlink:href="david_8f_ac816f7560baf3b33dab8c9e3584632d4_icgraph_org.svg" target="_base">
           <rect id="button" ry="5" rx="5" y="6" x="6" height="38" width="38"
                fill="#f2f5e9" fill-opacity="0.5" stroke="#606060" stroke-width="1.0"/>
           <path id="arrow"
             d="M 11.500037,31.436501 C 11.940474,20.09759 22.043105,11.32322 32.158766,21.979434 L 37.068811,17.246167 C 37.068811,17.246167 37.088388,32 37.088388,32 L 22.160133,31.978069 C 22.160133,31.978069 26.997745,27.140456 26.997745,27.140456 C 18.528582,18.264221 13.291696,25.230495 11.500037,31.436501 z"
             style="fill:#404040;"/>
          </a>
         </g>
        </svg>
</svg>
