<?xml version="1.0" encoding="UTF-8" standalone="no"?>
<!DOCTYPE svg PUBLIC "-//W3C//DTD SVG 1.1//EN"
 "http://www.w3.org/Graphics/SVG/1.1/DTD/svg11.dtd">
<!-- Generated by graphviz version 2.46.0 (20210122.1329)
 -->
<!-- Title: ddavid Pages: 1 -->
<svg width="142pt" height="104pt"
 viewBox="0.00 0.00 142.00 104.00" xmlns="http://www.w3.org/2000/svg" xmlns:xlink="http://www.w3.org/1999/xlink">
<g id="graph0" class="graph" transform="scale(1 1) rotate(0) translate(4 100)">
<title>ddavid</title>
<polygon fill="white" stroke="transparent" points="-4,4 -4,-100 138,-100 138,4 -4,4"/>
<!-- Node1 -->
<g id="node1" class="node">
<title>Node1</title>
<g id="a_node1"><a xlink:title=" ">
<polygon fill="#bfbfbf" stroke="black" points="0,-38.5 0,-57.5 45,-57.5 45,-38.5 0,-38.5"/>
<text text-anchor="middle" x="22.5" y="-45.5" font-family="Helvetica,sans-Serif" font-size="10.00">ddavid</text>
</a>
</g>
</g>
<!-- Node2 -->
<g id="node2" class="node">
<title>Node2</title>
<g id="a_node2"><a xlink:href="david_8f.html#ab6b7376328e727518150f0e473bc8395" target="_top" xlink:title=" ">
<polygon fill="white" stroke="black" points="83,-76.5 83,-95.5 132,-95.5 132,-76.5 83,-76.5"/>
<text text-anchor="middle" x="107.5" y="-83.5" font-family="Helvetica,sans-Serif" font-size="10.00">dmread</text>
</a>
</g>
</g>
<!-- Node1&#45;&gt;Node2 -->
<g id="edge1" class="edge">
<title>Node1&#45;&gt;Node2</title>
<path fill="none" stroke="midnightblue" d="M44.44,-57.59C54.08,-62 65.69,-67.31 76.25,-72.15"/>
<polygon fill="midnightblue" stroke="midnightblue" points="75.01,-75.43 85.56,-76.41 77.93,-69.07 75.01,-75.43"/>
</g>
<!-- Node3 -->
<g id="node3" class="node">
<title>Node3</title>
<g id="a_node3"><a xlink:href="david_8f.html#a7132dbeea03c9d9295b136c00adfb94c" target="_top" xlink:title=" ">
<polygon fill="white" stroke="black" points="82,-38.5 82,-57.5 133,-57.5 133,-38.5 82,-38.5"/>
<text text-anchor="middle" x="107.5" y="-45.5" font-family="Helvetica,sans-Serif" font-size="10.00">dmwrite</text>
</a>
</g>
</g>
<!-- Node1&#45;&gt;Node3 -->
<g id="edge2" class="edge">
<title>Node1&#45;&gt;Node3</title>
<path fill="none" stroke="midnightblue" d="M45.31,-48C53.39,-48 62.76,-48 71.71,-48"/>
<polygon fill="midnightblue" stroke="midnightblue" points="71.91,-51.5 81.91,-48 71.91,-44.5 71.91,-51.5"/>
</g>
<!-- Node4 -->
<g id="node4" class="node">
<title>Node4</title>
<g id="a_node4"><a xlink:href="david_8f.html#a707496f4f8032a1f33663c2e07426575" target="_top" xlink:title=" ">
<polygon fill="white" stroke="black" points="81,-0.5 81,-19.5 134,-19.5 134,-0.5 81,-0.5"/>
<text text-anchor="middle" x="107.5" y="-7.5" font-family="Helvetica,sans-Serif" font-size="10.00">dvdssvd</text>
</a>
</g>
</g>
<!-- Node1&#45;&gt;Node4 -->
<g id="edge3" class="edge">
<title>Node1&#45;&gt;Node4</title>
<path fill="none" stroke="midnightblue" d="M44.44,-38.41C54.08,-34 65.69,-28.69 76.25,-23.85"/>
<polygon fill="midnightblue" stroke="midnightblue" points="77.93,-26.93 85.56,-19.59 75.01,-20.57 77.93,-26.93"/>
</g>
</g>
</svg>
