<?xml version="1.0" encoding="UTF-8" standalone="no"?>
<!DOCTYPE svg PUBLIC "-//W3C//DTD SVG 1.1//EN"
 "http://www.w3.org/Graphics/SVG/1.1/DTD/svg11.dtd">
<!-- Generated by graphviz version 2.46.0 (20210122.1329)
 -->
<!-- Title: eval_define Pages: 1 -->
<svg width="180pt" height="104pt"
 viewBox="0.00 0.00 180.00 104.00" xmlns="http://www.w3.org/2000/svg" xmlns:xlink="http://www.w3.org/1999/xlink">
<g id="graph0" class="graph" transform="scale(1 1) rotate(0) translate(4 100)">
<title>eval_define</title>
<polygon fill="white" stroke="transparent" points="-4,4 -4,-100 176,-100 176,4 -4,4"/>
<!-- Node1 -->
<g id="node1" class="node">
<title>Node1</title>
<g id="a_node1"><a xlink:title=" ">
<polygon fill="#bfbfbf" stroke="black" points="0,-38.5 0,-57.5 65,-57.5 65,-38.5 0,-38.5"/>
<text text-anchor="middle" x="32.5" y="-45.5" font-family="Helvetica,sans-Serif" font-size="10.00">eval_define</text>
</a>
</g>
</g>
<!-- Node2 -->
<g id="node2" class="node">
<title>Node2</title>
<g id="a_node2"><a xlink:href="xhelp_8f90.html#a5a630d77d28d6894fcf2114c0434e39a" target="_top" xlink:title=" ">
<polygon fill="white" stroke="black" points="101,-76.5 101,-95.5 172,-95.5 172,-76.5 101,-76.5"/>
<text text-anchor="middle" x="136.5" y="-83.5" font-family="Helvetica,sans-Serif" font-size="10.00">definebanner</text>
</a>
</g>
</g>
<!-- Node1&#45;&gt;Node2 -->
<g id="edge1" class="edge">
<title>Node1&#45;&gt;Node2</title>
<path fill="none" stroke="midnightblue" d="M59.24,-57.59C71.68,-62.22 86.81,-67.86 100.3,-72.89"/>
<polygon fill="midnightblue" stroke="midnightblue" points="99.18,-76.2 109.77,-76.41 101.62,-69.64 99.18,-76.2"/>
</g>
<!-- Node3 -->
<g id="node3" class="node">
<title>Node3</title>
<g id="a_node3"><a xlink:href="error_8f90.html#a21a6b76d2bc72d8d2ec0a344a6d2298b" target="_top" xlink:title=" ">
<polygon fill="white" stroke="black" points="117.5,-38.5 117.5,-57.5 155.5,-57.5 155.5,-38.5 117.5,-38.5"/>
<text text-anchor="middle" x="136.5" y="-45.5" font-family="Helvetica,sans-Serif" font-size="10.00">raise</text>
</a>
</g>
</g>
<!-- Node1&#45;&gt;Node3 -->
<g id="edge2" class="edge">
<title>Node1&#45;&gt;Node3</title>
<path fill="none" stroke="midnightblue" d="M65.21,-48C78.65,-48 94.17,-48 107.21,-48"/>
<polygon fill="midnightblue" stroke="midnightblue" points="107.48,-51.5 117.48,-48 107.48,-44.5 107.48,-51.5"/>
</g>
<!-- Node4 -->
<g id="node4" class="node">
<title>Node4</title>
<g id="a_node4"><a xlink:href="error_8f90.html#a48d4e8f6658873a149a70800afa89704" target="_top" xlink:title=" ">
<polygon fill="white" stroke="black" points="108,-0.5 108,-19.5 165,-19.5 165,-0.5 108,-0.5"/>
<text text-anchor="middle" x="136.5" y="-7.5" font-family="Helvetica,sans-Serif" font-size="10.00">terminate</text>
</a>
</g>
</g>
<!-- Node1&#45;&gt;Node4 -->
<g id="edge3" class="edge">
<title>Node1&#45;&gt;Node4</title>
<path fill="none" stroke="midnightblue" d="M59.24,-38.41C71.68,-33.78 86.81,-28.14 100.3,-23.11"/>
<polygon fill="midnightblue" stroke="midnightblue" points="101.62,-26.36 109.77,-19.59 99.18,-19.8 101.62,-26.36"/>
</g>
</g>
</svg>
