<?xml version="1.0" encoding="UTF-8" standalone="no"?>
<!DOCTYPE svg PUBLIC "-//W3C//DTD SVG 1.1//EN"
 "http://www.w3.org/Graphics/SVG/1.1/DTD/svg11.dtd">
<!-- Generated by graphviz version 2.46.1 (20210215.1649)
 -->
<!-- Title: abcdisp Pages: 1 -->
<svg width="374pt" height="186pt"
 viewBox="0.00 0.00 374.00 185.50" xmlns="http://www.w3.org/2000/svg" xmlns:xlink="http://www.w3.org/1999/xlink">
<g id="graph0" class="graph" transform="scale(1 1) rotate(0) translate(4 181.5)">
<title>abcdisp</title>
<polygon fill="white" stroke="transparent" points="-4,4 -4,-181.5 370,-181.5 370,4 -4,4"/>
<!-- Node1 -->
<g id="node1" class="node">
<title>Node1</title>
<g id="a_node1"><a xlink:title=" ">
<polygon fill="#bfbfbf" stroke="black" points="0,-76.5 0,-95.5 50,-95.5 50,-76.5 0,-76.5"/>
<text text-anchor="middle" x="25" y="-83.5" font-family="Helvetica,sans-Serif" font-size="10.00">abcdisp</text>
</a>
</g>
</g>
<!-- Node2 -->
<g id="node2" class="node">
<title>Node2</title>
<g id="a_node2"><a xlink:href="dftd3_8f.html#a3b10b4bd7a53c785365d6a7f08aa0dce" target="_top" xlink:title=" ">
<polygon fill="white" stroke="black" points="116,-152.5 116,-171.5 193,-171.5 193,-152.5 116,-152.5"/>
<text text-anchor="middle" x="154.5" y="-159.5" font-family="Helvetica,sans-Serif" font-size="10.00">get_dc6_dcnij</text>
</a>
</g>
</g>
<!-- Node1&#45;&gt;Node2 -->
<g id="edge1" class="edge">
<title>Node1&#45;&gt;Node2</title>
<path fill="none" stroke="midnightblue" d="M33.48,-95.56C43.9,-108.25 64.02,-130.5 86,-143 92.11,-146.48 98.91,-149.35 105.76,-151.72"/>
<polygon fill="midnightblue" stroke="midnightblue" points="105.19,-155.21 115.77,-154.84 107.27,-148.52 105.19,-155.21"/>
</g>
<!-- Node4 -->
<g id="node4" class="node">
<title>Node4</title>
<g id="a_node4"><a xlink:href="constrain__pot_8f90.html#ac62613d43f31c7bfa652ee80083b400b" target="_top" xlink:title=" ">
<polygon fill="white" stroke="black" points="140,-114.5 140,-133.5 169,-133.5 169,-114.5 140,-114.5"/>
<text text-anchor="middle" x="154.5" y="-121.5" font-family="Helvetica,sans-Serif" font-size="10.00">lin</text>
</a>
</g>
</g>
<!-- Node1&#45;&gt;Node4 -->
<g id="edge3" class="edge">
<title>Node1&#45;&gt;Node4</title>
<path fill="none" stroke="midnightblue" d="M50.18,-93.85C61.09,-97.35 74.17,-101.46 86,-105 100.49,-109.33 116.81,-113.93 129.77,-117.52"/>
<polygon fill="midnightblue" stroke="midnightblue" points="129.19,-120.99 139.76,-120.27 131.05,-114.24 129.19,-120.99"/>
</g>
<!-- Node5 -->
<g id="node5" class="node">
<title>Node5</title>
<g id="a_node5"><a xlink:href="namespacextb__disp__ncoord.html#a2ab59957c30e2004df3d63de63423bb9" target="_top" xlink:title="original D3 type coordination number from 2010">
<polygon fill="white" stroke="black" points="86,-76.5 86,-95.5 223,-95.5 223,-76.5 86,-76.5"/>
<text text-anchor="middle" x="154.5" y="-83.5" font-family="Helvetica,sans-Serif" font-size="10.00">xtb_disp_ncoord::ncoord_d3</text>
</a>
</g>
</g>
<!-- Node1&#45;&gt;Node5 -->
<g id="edge4" class="edge">
<title>Node1&#45;&gt;Node5</title>
<path fill="none" stroke="midnightblue" d="M50.28,-86C57.82,-86 66.56,-86 75.72,-86"/>
<polygon fill="midnightblue" stroke="midnightblue" points="75.77,-89.5 85.77,-86 75.77,-82.5 75.77,-89.5"/>
</g>
<!-- Node6 -->
<g id="node6" class="node">
<title>Node6</title>
<g id="a_node6"><a xlink:href="dftd3_8f.html#a8a116e9e9c4ede996a16c341002f0367" target="_top" xlink:title=" ">
<polygon fill="white" stroke="black" points="130,-38.5 130,-57.5 179,-57.5 179,-38.5 130,-38.5"/>
<text text-anchor="middle" x="154.5" y="-45.5" font-family="Helvetica,sans-Serif" font-size="10.00">setr0ab</text>
</a>
</g>
</g>
<!-- Node1&#45;&gt;Node6 -->
<g id="edge5" class="edge">
<title>Node1&#45;&gt;Node6</title>
<path fill="none" stroke="midnightblue" d="M50.18,-78.15C61.09,-74.65 74.17,-70.54 86,-67 96.96,-63.72 108.97,-60.29 119.78,-57.26"/>
<polygon fill="midnightblue" stroke="midnightblue" points="121.01,-60.55 129.7,-54.5 119.13,-53.81 121.01,-60.55"/>
</g>
<!-- Node7 -->
<g id="node7" class="node">
<title>Node7</title>
<g id="a_node7"><a xlink:href="symmetry__i_8c.html#aa77c823a9fc018ae1d437369708d8727" target="_top" xlink:title=" ">
<polygon fill="white" stroke="black" points="138,-0.5 138,-19.5 171,-19.5 171,-0.5 138,-0.5"/>
<text text-anchor="middle" x="154.5" y="-7.5" font-family="Helvetica,sans-Serif" font-size="10.00">true</text>
</a>
</g>
</g>
<!-- Node1&#45;&gt;Node7 -->
<g id="edge6" class="edge">
<title>Node1&#45;&gt;Node7</title>
<path fill="none" stroke="midnightblue" d="M33.48,-76.44C43.9,-63.75 64.02,-41.5 86,-29 98.94,-21.64 114.93,-16.98 128.09,-14.11"/>
<polygon fill="midnightblue" stroke="midnightblue" points="128.79,-17.54 137.93,-12.18 127.44,-10.67 128.79,-17.54"/>
</g>
<!-- Node3 -->
<g id="node3" class="node">
<title>Node3</title>
<g id="a_node3"><a xlink:href="namespacextb__disp__dftd3param.html#a31d14f3c121af72cdf7a1735b63e598e" target="_top" xlink:title=" ">
<polygon fill="white" stroke="black" points="259,-147 259,-177 366,-177 366,-147 259,-147"/>
<text text-anchor="start" x="267" y="-165" font-family="Helvetica,sans-Serif" font-size="10.00">xtb_disp_dftd3param</text>
<text text-anchor="middle" x="312.5" y="-154" font-family="Helvetica,sans-Serif" font-size="10.00">::get_c6</text>
</a>
</g>
</g>
<!-- Node2&#45;&gt;Node3 -->
<g id="edge2" class="edge">
<title>Node2&#45;&gt;Node3</title>
<path fill="none" stroke="midnightblue" d="M193.26,-162C209.85,-162 229.78,-162 248.51,-162"/>
<polygon fill="midnightblue" stroke="midnightblue" points="248.76,-165.5 258.76,-162 248.76,-158.5 248.76,-165.5"/>
</g>
</g>
</svg>
