<?xml version="1.0" encoding="UTF-8" standalone="no"?>
<!DOCTYPE svg PUBLIC "-//W3C//DTD SVG 1.1//EN"
 "http://www.w3.org/Graphics/SVG/1.1/DTD/svg11.dtd">
<!-- Generated by graphviz version 2.46.0 (20210122.1329)
 -->
<!-- Title: test_dftd4_pbc3d_threebody_neighs Pages: 1 -->
<svg width="468pt" height="85pt"
 viewBox="0.00 0.00 468.00 85.00" xmlns="http://www.w3.org/2000/svg" xmlns:xlink="http://www.w3.org/1999/xlink">
<g id="graph0" class="graph" transform="scale(1 1) rotate(0) translate(4 81)">
<title>test_dftd4_pbc3d_threebody_neighs</title>
<polygon fill="white" stroke="transparent" points="-4,4 -4,-81 464,-81 464,4 -4,4"/>
<!-- Node1 -->
<g id="node1" class="node">
<title>Node1</title>
<g id="a_node1"><a xlink:title=" ">
<polygon fill="#bfbfbf" stroke="black" points="0,-14 0,-44 139,-44 139,-14 0,-14"/>
<text text-anchor="start" x="8" y="-32" font-family="Helvetica,sans-Serif" font-size="10.00">test_dftd4_pbc3d_threebody</text>
<text text-anchor="middle" x="69.5" y="-21" font-family="Helvetica,sans-Serif" font-size="10.00">_neighs</text>
</a>
</g>
</g>
<!-- Node2 -->
<g id="node2" class="node">
<title>Node2</title>
<g id="a_node2"><a xlink:href="namespacextb__disp__dftd4.html#a3d014ea0442326639fae387e19ab6e1f" target="_top" xlink:title=" ">
<polygon fill="white" stroke="black" points="175,-38.5 175,-57.5 314,-57.5 314,-38.5 175,-38.5"/>
<text text-anchor="middle" x="244.5" y="-45.5" font-family="Helvetica,sans-Serif" font-size="10.00">xtb_disp_dftd4::newd4model</text>
</a>
</g>
</g>
<!-- Node1&#45;&gt;Node2 -->
<g id="edge1" class="edge">
<title>Node1&#45;&gt;Node2</title>
<path fill="none" stroke="midnightblue" d="M139.37,-36.56C147.77,-37.49 156.4,-38.43 164.92,-39.37"/>
<polygon fill="midnightblue" stroke="midnightblue" points="164.54,-42.85 174.87,-40.46 165.31,-35.89 164.54,-42.85"/>
</g>
<!-- Node5 -->
<g id="node5" class="node">
<title>Node5</title>
<g id="a_node5"><a xlink:href="error_8f90.html#a48d4e8f6658873a149a70800afa89704" target="_top" xlink:title=" ">
<polygon fill="white" stroke="black" points="216,-0.5 216,-19.5 273,-19.5 273,-0.5 216,-0.5"/>
<text text-anchor="middle" x="244.5" y="-7.5" font-family="Helvetica,sans-Serif" font-size="10.00">terminate</text>
</a>
</g>
</g>
<!-- Node1&#45;&gt;Node5 -->
<g id="edge4" class="edge">
<title>Node1&#45;&gt;Node5</title>
<path fill="none" stroke="midnightblue" d="M139.37,-21.44C162.05,-18.94 186.43,-16.27 205.89,-14.13"/>
<polygon fill="midnightblue" stroke="midnightblue" points="206.31,-17.61 215.86,-13.04 205.54,-10.65 206.31,-17.61"/>
</g>
<!-- Node3 -->
<g id="node3" class="node">
<title>Node3</title>
<g id="a_node3"><a xlink:href="namespacextb__disp__dftd4.html#afc075e41379fb49a320035512d0aa9d3" target="_top" xlink:title=" ">
<polygon fill="white" stroke="black" points="350,-57.5 350,-76.5 460,-76.5 460,-57.5 350,-57.5"/>
<text text-anchor="middle" x="405" y="-64.5" font-family="Helvetica,sans-Serif" font-size="10.00">xtb_disp_dftd4::trapzd</text>
</a>
</g>
</g>
<!-- Node2&#45;&gt;Node3 -->
<g id="edge2" class="edge">
<title>Node2&#45;&gt;Node3</title>
<path fill="none" stroke="midnightblue" d="M314.1,-56.22C322.54,-57.24 331.16,-58.27 339.54,-59.27"/>
<polygon fill="midnightblue" stroke="midnightblue" points="339.28,-62.77 349.62,-60.48 340.11,-55.82 339.28,-62.77"/>
</g>
<!-- Node4 -->
<g id="node4" class="node">
<title>Node4</title>
<g id="a_node4"><a xlink:href="namespacextb__disp__dftd4.html#a84f2fe9e55715ff22663ba9cbc3b02c2" target="_top" xlink:title=" ">
<polygon fill="white" stroke="black" points="354,-19.5 354,-38.5 456,-38.5 456,-19.5 354,-19.5"/>
<text text-anchor="middle" x="405" y="-26.5" font-family="Helvetica,sans-Serif" font-size="10.00">xtb_disp_dftd4::zeta</text>
</a>
</g>
</g>
<!-- Node2&#45;&gt;Node4 -->
<g id="edge3" class="edge">
<title>Node2&#45;&gt;Node4</title>
<path fill="none" stroke="midnightblue" d="M314.1,-39.78C324.03,-38.59 334.2,-37.37 343.95,-36.2"/>
<polygon fill="midnightblue" stroke="midnightblue" points="344.42,-39.67 353.93,-35 343.59,-32.72 344.42,-39.67"/>
</g>
</g>
</svg>
