<?xml version="1.0" encoding="UTF-8" standalone="no"?>
<!DOCTYPE svg PUBLIC "-//W3C//DTD SVG 1.1//EN"
 "http://www.w3.org/Graphics/SVG/1.1/DTD/svg11.dtd">
<!-- Generated by graphviz version 2.46.0 (20210122.1329)
 -->
<!-- Title: test_dftd4_pbc3d_threebody_latp Pages: 1 -->
<svg width="489pt" height="85pt"
 viewBox="0.00 0.00 489.00 85.00" xmlns="http://www.w3.org/2000/svg" xmlns:xlink="http://www.w3.org/1999/xlink">
<g id="graph0" class="graph" transform="scale(1 1) rotate(0) translate(4 81)">
<title>test_dftd4_pbc3d_threebody_latp</title>
<polygon fill="white" stroke="transparent" points="-4,4 -4,-81 485,-81 485,4 -4,4"/>
<!-- Node1 -->
<g id="node1" class="node">
<title>Node1</title>
<g id="a_node1"><a xlink:title=" ">
<polygon fill="#bfbfbf" stroke="black" points="0,-19.5 0,-38.5 160,-38.5 160,-19.5 0,-19.5"/>
<text text-anchor="middle" x="80" y="-26.5" font-family="Helvetica,sans-Serif" font-size="10.00">test_dftd4_pbc3d_threebody_latp</text>
</a>
</g>
</g>
<!-- Node2 -->
<g id="node2" class="node">
<title>Node2</title>
<g id="a_node2"><a xlink:href="namespacextb__disp__dftd4.html#a3d014ea0442326639fae387e19ab6e1f" target="_top" xlink:title=" ">
<polygon fill="white" stroke="black" points="196,-38.5 196,-57.5 335,-57.5 335,-38.5 196,-38.5"/>
<text text-anchor="middle" x="265.5" y="-45.5" font-family="Helvetica,sans-Serif" font-size="10.00">xtb_disp_dftd4::newd4model</text>
</a>
</g>
</g>
<!-- Node1&#45;&gt;Node2 -->
<g id="edge1" class="edge">
<title>Node1&#45;&gt;Node2</title>
<path fill="none" stroke="midnightblue" d="M160.15,-37.2C168.73,-38.08 177.45,-38.99 186.02,-39.87"/>
<polygon fill="midnightblue" stroke="midnightblue" points="185.68,-43.36 195.99,-40.91 186.4,-36.39 185.68,-43.36"/>
</g>
<!-- Node5 -->
<g id="node5" class="node">
<title>Node5</title>
<g id="a_node5"><a xlink:href="error_8f90.html#a48d4e8f6658873a149a70800afa89704" target="_top" xlink:title=" ">
<polygon fill="white" stroke="black" points="237,-0.5 237,-19.5 294,-19.5 294,-0.5 237,-0.5"/>
<text text-anchor="middle" x="265.5" y="-7.5" font-family="Helvetica,sans-Serif" font-size="10.00">terminate</text>
</a>
</g>
</g>
<!-- Node1&#45;&gt;Node5 -->
<g id="edge4" class="edge">
<title>Node1&#45;&gt;Node5</title>
<path fill="none" stroke="midnightblue" d="M160.15,-20.8C183.23,-18.41 207.4,-15.91 226.65,-13.92"/>
<polygon fill="midnightblue" stroke="midnightblue" points="227.22,-17.38 236.81,-12.87 226.5,-10.42 227.22,-17.38"/>
</g>
<!-- Node3 -->
<g id="node3" class="node">
<title>Node3</title>
<g id="a_node3"><a xlink:href="namespacextb__disp__dftd4.html#afc075e41379fb49a320035512d0aa9d3" target="_top" xlink:title=" ">
<polygon fill="white" stroke="black" points="371,-57.5 371,-76.5 481,-76.5 481,-57.5 371,-57.5"/>
<text text-anchor="middle" x="426" y="-64.5" font-family="Helvetica,sans-Serif" font-size="10.00">xtb_disp_dftd4::trapzd</text>
</a>
</g>
</g>
<!-- Node2&#45;&gt;Node3 -->
<g id="edge2" class="edge">
<title>Node2&#45;&gt;Node3</title>
<path fill="none" stroke="midnightblue" d="M335.1,-56.22C343.54,-57.24 352.16,-58.27 360.54,-59.27"/>
<polygon fill="midnightblue" stroke="midnightblue" points="360.28,-62.77 370.62,-60.48 361.11,-55.82 360.28,-62.77"/>
</g>
<!-- Node4 -->
<g id="node4" class="node">
<title>Node4</title>
<g id="a_node4"><a xlink:href="namespacextb__disp__dftd4.html#a84f2fe9e55715ff22663ba9cbc3b02c2" target="_top" xlink:title=" ">
<polygon fill="white" stroke="black" points="375,-19.5 375,-38.5 477,-38.5 477,-19.5 375,-19.5"/>
<text text-anchor="middle" x="426" y="-26.5" font-family="Helvetica,sans-Serif" font-size="10.00">xtb_disp_dftd4::zeta</text>
</a>
</g>
</g>
<!-- Node2&#45;&gt;Node4 -->
<g id="edge3" class="edge">
<title>Node2&#45;&gt;Node4</title>
<path fill="none" stroke="midnightblue" d="M335.1,-39.78C345.03,-38.59 355.2,-37.37 364.95,-36.2"/>
<polygon fill="midnightblue" stroke="midnightblue" points="365.42,-39.67 374.93,-35 364.59,-32.72 365.42,-39.67"/>
</g>
</g>
</svg>
