<?xml version="1.0" encoding="UTF-8" standalone="no"?>
<!DOCTYPE svg PUBLIC "-//W3C//DTD SVG 1.1//EN"
 "http://www.w3.org/Graphics/SVG/1.1/DTD/svg11.dtd">
<!-- Generated by graphviz version 2.43.0 (0)
 -->
<!-- Title: setr0ab Pages: 1 -->
<svg width="193pt" height="104pt"
 viewBox="0.00 0.00 193.00 104.00" xmlns="http://www.w3.org/2000/svg" xmlns:xlink="http://www.w3.org/1999/xlink">
<g id="graph0" class="graph" transform="scale(1 1) rotate(0) translate(4 100)">
<title>setr0ab</title>
<polygon fill="white" stroke="transparent" points="-4,4 -4,-100 189,-100 189,4 -4,4"/>
<!-- Node1 -->
<g id="node1" class="node">
<title>Node1</title>
<g id="a_node1"><a xlink:title=" ">
<polygon fill="#bfbfbf" stroke="black" points="132,-38.5 132,-57.5 185,-57.5 185,-38.5 132,-38.5"/>
<text text-anchor="middle" x="158.5" y="-45.5" font-family="Helvetica,sans-Serif" font-size="10.00">setr0ab</text>
</a>
</g>
</g>
<!-- Node2 -->
<g id="node2" class="node">
<title>Node2</title>
<g id="a_node2"><a xlink:href="dftd3_8f.html#ad1317d4fc229ffbb40b74e19dbca1d06" target="_top" xlink:title=" ">
<polygon fill="white" stroke="black" points="21,-76.5 21,-95.5 75,-95.5 75,-76.5 21,-76.5"/>
<text text-anchor="middle" x="48" y="-83.5" font-family="Helvetica,sans-Serif" font-size="10.00">abcdisp</text>
</a>
</g>
</g>
<!-- Node1&#45;&gt;Node2 -->
<g id="edge1" class="edge">
<title>Node1&#45;&gt;Node2</title>
<path fill="none" stroke="midnightblue" d="M122.15,-60.38C106.89,-65.72 89.36,-71.87 75.28,-76.8"/>
<polygon fill="midnightblue" stroke="midnightblue" points="123.51,-63.61 131.79,-57.01 121.19,-57.01 123.51,-63.61"/>
</g>
<!-- Node3 -->
<g id="node3" class="node">
<title>Node3</title>
<g id="a_node3"><a xlink:href="namespacextb__qmdff.html#ab568a7f7e79e9d9dcf27553a50797aa9" target="_top" xlink:title=" ">
<polygon fill="white" stroke="black" points="0,-38.5 0,-57.5 96,-57.5 96,-38.5 0,-38.5"/>
<text text-anchor="middle" x="48" y="-45.5" font-family="Helvetica,sans-Serif" font-size="10.00">xtb_qmdff::ff_ini</text>
</a>
</g>
</g>
<!-- Node1&#45;&gt;Node3 -->
<g id="edge2" class="edge">
<title>Node1&#45;&gt;Node3</title>
<path fill="none" stroke="midnightblue" d="M121.55,-48C113.44,-48 104.7,-48 96.21,-48"/>
<polygon fill="midnightblue" stroke="midnightblue" points="121.79,-51.5 131.79,-48 121.79,-44.5 121.79,-51.5"/>
</g>
<!-- Node4 -->
<g id="node4" class="node">
<title>Node4</title>
<g id="a_node4"><a xlink:href="dftd3_8f.html#a8de533fcfca38ce7c36380bc6f1a51be" target="_top" xlink:title=" ">
<polygon fill="white" stroke="black" points="26.5,-0.5 26.5,-19.5 69.5,-19.5 69.5,-0.5 26.5,-0.5"/>
<text text-anchor="middle" x="48" y="-7.5" font-family="Helvetica,sans-Serif" font-size="10.00">gdisp</text>
</a>
</g>
</g>
<!-- Node1&#45;&gt;Node4 -->
<g id="edge3" class="edge">
<title>Node1&#45;&gt;Node4</title>
<path fill="none" stroke="midnightblue" d="M122.01,-35.57C104.74,-29.52 84.56,-22.46 69.81,-17.29"/>
<polygon fill="midnightblue" stroke="midnightblue" points="121.19,-38.99 131.79,-38.99 123.51,-32.39 121.19,-38.99"/>
</g>
</g>
</svg>
