<?xml version="1.0" encoding="UTF-8" standalone="no"?>
<!DOCTYPE svg PUBLIC "-//W3C//DTD SVG 1.1//EN"
 "http://www.w3.org/Graphics/SVG/1.1/DTD/svg11.dtd">
<!-- Generated by graphviz version 2.43.0 (0)
 -->
<!-- Title: gdisp Pages: 1 -->
<svg width="394pt" height="186pt"
 viewBox="0.00 0.00 394.00 185.50" xmlns="http://www.w3.org/2000/svg" xmlns:xlink="http://www.w3.org/1999/xlink">
<g id="graph0" class="graph" transform="scale(1 1) rotate(0) translate(4 181.5)">
<title>gdisp</title>
<polygon fill="white" stroke="transparent" points="-4,4 -4,-181.5 390,-181.5 390,4 -4,4"/>
<!-- Node1 -->
<g id="node1" class="node">
<title>Node1</title>
<g id="a_node1"><a xlink:title=" ">
<polygon fill="#bfbfbf" stroke="black" points="0,-76.5 0,-95.5 43,-95.5 43,-76.5 0,-76.5"/>
<text text-anchor="middle" x="21.5" y="-83.5" font-family="Helvetica,sans-Serif" font-size="10.00">gdisp</text>
</a>
</g>
</g>
<!-- Node2 -->
<g id="node2" class="node">
<title>Node2</title>
<g id="a_node2"><a xlink:href="dftd3_8f.html#a3b10b4bd7a53c785365d6a7f08aa0dce" target="_top" xlink:title=" ">
<polygon fill="white" stroke="black" points="113.5,-152.5 113.5,-171.5 196.5,-171.5 196.5,-152.5 113.5,-152.5"/>
<text text-anchor="middle" x="155" y="-159.5" font-family="Helvetica,sans-Serif" font-size="10.00">get_dc6_dcnij</text>
</a>
</g>
</g>
<!-- Node1&#45;&gt;Node2 -->
<g id="edge1" class="edge">
<title>Node1&#45;&gt;Node2</title>
<path fill="none" stroke="midnightblue" d="M29.37,-95.66C38.99,-108.46 57.71,-130.84 79,-143 86.46,-147.26 94.88,-150.58 103.3,-153.16"/>
<polygon fill="midnightblue" stroke="midnightblue" points="102.57,-156.59 113.14,-155.86 104.43,-149.84 102.57,-156.59"/>
</g>
<!-- Node4 -->
<g id="node4" class="node">
<title>Node4</title>
<g id="a_node4"><a xlink:href="constrain__pot_8f90.html#ac62613d43f31c7bfa652ee80083b400b" target="_top" xlink:title=" ">
<polygon fill="white" stroke="black" points="140.5,-114.5 140.5,-133.5 169.5,-133.5 169.5,-114.5 140.5,-114.5"/>
<text text-anchor="middle" x="155" y="-121.5" font-family="Helvetica,sans-Serif" font-size="10.00">lin</text>
</a>
</g>
</g>
<!-- Node1&#45;&gt;Node4 -->
<g id="edge3" class="edge">
<title>Node1&#45;&gt;Node4</title>
<path fill="none" stroke="midnightblue" d="M43.04,-93.33C53.71,-97.03 66.99,-101.46 79,-105 96.11,-110.04 115.65,-114.96 130.49,-118.53"/>
<polygon fill="midnightblue" stroke="midnightblue" points="129.83,-121.97 140.37,-120.88 131.45,-115.16 129.83,-121.97"/>
</g>
<!-- Node5 -->
<g id="node5" class="node">
<title>Node5</title>
<g id="a_node5"><a xlink:href="namespacextb__disp__ncoord.html#a2ab59957c30e2004df3d63de63423bb9" target="_top" xlink:title="original D3 type coordination number from 2010">
<polygon fill="white" stroke="black" points="79,-76.5 79,-95.5 231,-95.5 231,-76.5 79,-76.5"/>
<text text-anchor="middle" x="155" y="-83.5" font-family="Helvetica,sans-Serif" font-size="10.00">xtb_disp_ncoord::ncoord_d3</text>
</a>
</g>
</g>
<!-- Node1&#45;&gt;Node5 -->
<g id="edge4" class="edge">
<title>Node1&#45;&gt;Node5</title>
<path fill="none" stroke="midnightblue" d="M43.05,-86C50.45,-86 59.32,-86 68.79,-86"/>
<polygon fill="midnightblue" stroke="midnightblue" points="68.84,-89.5 78.84,-86 68.84,-82.5 68.84,-89.5"/>
</g>
<!-- Node6 -->
<g id="node6" class="node">
<title>Node6</title>
<g id="a_node6"><a xlink:href="dftd3_8f.html#a8a116e9e9c4ede996a16c341002f0367" target="_top" xlink:title=" ">
<polygon fill="white" stroke="black" points="128.5,-38.5 128.5,-57.5 181.5,-57.5 181.5,-38.5 128.5,-38.5"/>
<text text-anchor="middle" x="155" y="-45.5" font-family="Helvetica,sans-Serif" font-size="10.00">setr0ab</text>
</a>
</g>
</g>
<!-- Node1&#45;&gt;Node6 -->
<g id="edge5" class="edge">
<title>Node1&#45;&gt;Node6</title>
<path fill="none" stroke="midnightblue" d="M43.04,-78.67C53.71,-74.97 66.99,-70.54 79,-67 91.68,-63.27 105.7,-59.59 118.15,-56.49"/>
<polygon fill="midnightblue" stroke="midnightblue" points="119.31,-59.81 128.18,-54.03 117.64,-53.01 119.31,-59.81"/>
</g>
<!-- Node7 -->
<g id="node7" class="node">
<title>Node7</title>
<g id="a_node7"><a xlink:href="symmetry__i_8c.html#aa77c823a9fc018ae1d437369708d8727" target="_top" xlink:title=" ">
<polygon fill="white" stroke="black" points="137,-0.5 137,-19.5 173,-19.5 173,-0.5 137,-0.5"/>
<text text-anchor="middle" x="155" y="-7.5" font-family="Helvetica,sans-Serif" font-size="10.00">true</text>
</a>
</g>
</g>
<!-- Node1&#45;&gt;Node7 -->
<g id="edge6" class="edge">
<title>Node1&#45;&gt;Node7</title>
<path fill="none" stroke="midnightblue" d="M29.37,-76.34C38.99,-63.54 57.71,-41.16 79,-29 93.64,-20.64 111.96,-15.91 126.82,-13.26"/>
<polygon fill="midnightblue" stroke="midnightblue" points="127.6,-16.68 136.94,-11.68 126.52,-9.76 127.6,-16.68"/>
</g>
<!-- Node3 -->
<g id="node3" class="node">
<title>Node3</title>
<g id="a_node3"><a xlink:href="namespacextb__disp__dftd3param.html#a31d14f3c121af72cdf7a1735b63e598e" target="_top" xlink:title=" ">
<polygon fill="white" stroke="black" points="267,-147 267,-177 386,-177 386,-147 267,-147"/>
<text text-anchor="start" x="275" y="-165" font-family="Helvetica,sans-Serif" font-size="10.00">xtb_disp_dftd3param</text>
<text text-anchor="middle" x="326.5" y="-154" font-family="Helvetica,sans-Serif" font-size="10.00">::get_c6</text>
</a>
</g>
</g>
<!-- Node2&#45;&gt;Node3 -->
<g id="edge2" class="edge">
<title>Node2&#45;&gt;Node3</title>
<path fill="none" stroke="midnightblue" d="M196.6,-162C214.61,-162 236.32,-162 256.74,-162"/>
<polygon fill="midnightblue" stroke="midnightblue" points="256.96,-165.5 266.96,-162 256.96,-158.5 256.96,-165.5"/>
</g>
</g>
</svg>
