<?xml version="1.0" encoding="UTF-8" standalone="no"?>
<!DOCTYPE svg PUBLIC "-//W3C//DTD SVG 1.1//EN"
 "http://www.w3.org/Graphics/SVG/1.1/DTD/svg11.dtd">
<!-- Generated by graphviz version 2.46.1 (20210215.1649)
 -->
<!-- Title: test_dftd4_pbc3d_latticepoints Pages: 1 -->
<svg width="515pt" height="165pt"
 viewBox="0.00 0.00 515.00 164.50" xmlns="http://www.w3.org/2000/svg" xmlns:xlink="http://www.w3.org/1999/xlink">
<g id="graph0" class="graph" transform="scale(1 1) rotate(0) translate(4 160.5)">
<title>test_dftd4_pbc3d_latticepoints</title>
<polygon fill="white" stroke="transparent" points="-4,4 -4,-160.5 511,-160.5 511,4 -4,4"/>
<!-- Node1 -->
<g id="node1" class="node">
<title>Node1</title>
<g id="a_node1"><a xlink:title=" ">
<polygon fill="#bfbfbf" stroke="black" points="0,-38.5 0,-57.5 149,-57.5 149,-38.5 0,-38.5"/>
<text text-anchor="middle" x="74.5" y="-45.5" font-family="Helvetica,sans-Serif" font-size="10.00">test_dftd4_pbc3d_latticepoints</text>
</a>
</g>
</g>
<!-- Node2 -->
<g id="node2" class="node">
<title>Node2</title>
<g id="a_node2"><a xlink:href="namespacextb__disp__coordinationnumber.html#a3f340f97e1a0e73151e9c03d0cbae264" target="_top" xlink:title="Cutoff function for large coordination numbers.">
<polygon fill="white" stroke="black" points="185,-77 185,-107 328,-107 328,-77 185,-77"/>
<text text-anchor="start" x="193" y="-95" font-family="Helvetica,sans-Serif" font-size="10.00">xtb_disp_coordinationnumber</text>
<text text-anchor="middle" x="256.5" y="-84" font-family="Helvetica,sans-Serif" font-size="10.00">::cutcoordinationnumber</text>
</a>
</g>
</g>
<!-- Node1&#45;&gt;Node2 -->
<g id="edge1" class="edge">
<title>Node1&#45;&gt;Node2</title>
<path fill="none" stroke="midnightblue" d="M114.56,-57.55C134.82,-62.5 160.23,-68.71 183.87,-74.49"/>
<polygon fill="midnightblue" stroke="midnightblue" points="183.32,-77.96 193.87,-76.93 184.99,-71.16 183.32,-77.96"/>
</g>
<!-- Node5 -->
<g id="node5" class="node">
<title>Node5</title>
<g id="a_node5"><a xlink:href="namespacextb__disp__dftd4.html#a3d014ea0442326639fae387e19ab6e1f" target="_top" xlink:title=" ">
<polygon fill="white" stroke="black" points="187,-38.5 187,-57.5 326,-57.5 326,-38.5 187,-38.5"/>
<text text-anchor="middle" x="256.5" y="-45.5" font-family="Helvetica,sans-Serif" font-size="10.00">xtb_disp_dftd4::newd4model</text>
</a>
</g>
</g>
<!-- Node1&#45;&gt;Node5 -->
<g id="edge4" class="edge">
<title>Node1&#45;&gt;Node5</title>
<path fill="none" stroke="midnightblue" d="M149.23,-48C158.26,-48 167.52,-48 176.62,-48"/>
<polygon fill="midnightblue" stroke="midnightblue" points="176.81,-51.5 186.81,-48 176.81,-44.5 176.81,-51.5"/>
</g>
<!-- Node8 -->
<g id="node8" class="node">
<title>Node8</title>
<g id="a_node8"><a xlink:href="error_8f90.html#a48d4e8f6658873a149a70800afa89704" target="_top" xlink:title=" ">
<polygon fill="white" stroke="black" points="228,-0.5 228,-19.5 285,-19.5 285,-0.5 228,-0.5"/>
<text text-anchor="middle" x="256.5" y="-7.5" font-family="Helvetica,sans-Serif" font-size="10.00">terminate</text>
</a>
</g>
</g>
<!-- Node1&#45;&gt;Node8 -->
<g id="edge7" class="edge">
<title>Node1&#45;&gt;Node8</title>
<path fill="none" stroke="midnightblue" d="M120.92,-38.41C150.88,-32.09 189.66,-23.9 217.89,-17.94"/>
<polygon fill="midnightblue" stroke="midnightblue" points="218.71,-21.34 227.78,-15.85 217.27,-14.49 218.71,-21.34"/>
</g>
<!-- Node3 -->
<g id="node3" class="node">
<title>Node3</title>
<g id="a_node3"><a xlink:href="namespacextb__disp__coordinationnumber.html#a8cb125805581107239d02e3005bca6c1" target="_top" xlink:title="Cutting function for the coordination number.">
<polygon fill="white" stroke="black" points="364,-126 364,-156 507,-156 507,-126 364,-126"/>
<text text-anchor="start" x="372" y="-144" font-family="Helvetica,sans-Serif" font-size="10.00">xtb_disp_coordinationnumber</text>
<text text-anchor="middle" x="435.5" y="-133" font-family="Helvetica,sans-Serif" font-size="10.00">::cutcn</text>
</a>
</g>
</g>
<!-- Node2&#45;&gt;Node3 -->
<g id="edge2" class="edge">
<title>Node2&#45;&gt;Node3</title>
<path fill="none" stroke="midnightblue" d="M312.05,-107.1C330.47,-112.2 351.21,-117.94 370.31,-123.23"/>
<polygon fill="midnightblue" stroke="midnightblue" points="369.56,-126.65 380.13,-125.95 371.43,-119.91 369.56,-126.65"/>
</g>
<!-- Node4 -->
<g id="node4" class="node">
<title>Node4</title>
<g id="a_node4"><a xlink:href="namespacextb__disp__coordinationnumber.html#aec17fcc5044caee4d221ce47cf2aff03" target="_top" xlink:title="Derivative of the cutting function w.r.t. coordination number.">
<polygon fill="white" stroke="black" points="364,-77 364,-107 507,-107 507,-77 364,-77"/>
<text text-anchor="start" x="372" y="-95" font-family="Helvetica,sans-Serif" font-size="10.00">xtb_disp_coordinationnumber</text>
<text text-anchor="middle" x="435.5" y="-84" font-family="Helvetica,sans-Serif" font-size="10.00">::dcutcn</text>
</a>
</g>
</g>
<!-- Node2&#45;&gt;Node4 -->
<g id="edge3" class="edge">
<title>Node2&#45;&gt;Node4</title>
<path fill="none" stroke="midnightblue" d="M328.22,-92C336.57,-92 345.14,-92 353.62,-92"/>
<polygon fill="midnightblue" stroke="midnightblue" points="353.89,-95.5 363.89,-92 353.89,-88.5 353.89,-95.5"/>
</g>
<!-- Node6 -->
<g id="node6" class="node">
<title>Node6</title>
<g id="a_node6"><a xlink:href="namespacextb__disp__dftd4.html#afc075e41379fb49a320035512d0aa9d3" target="_top" xlink:title=" ">
<polygon fill="white" stroke="black" points="380.5,-38.5 380.5,-57.5 490.5,-57.5 490.5,-38.5 380.5,-38.5"/>
<text text-anchor="middle" x="435.5" y="-45.5" font-family="Helvetica,sans-Serif" font-size="10.00">xtb_disp_dftd4::trapzd</text>
</a>
</g>
</g>
<!-- Node5&#45;&gt;Node6 -->
<g id="edge5" class="edge">
<title>Node5&#45;&gt;Node6</title>
<path fill="none" stroke="midnightblue" d="M326.19,-48C340.65,-48 355.86,-48 370.16,-48"/>
<polygon fill="midnightblue" stroke="midnightblue" points="370.39,-51.5 380.39,-48 370.39,-44.5 370.39,-51.5"/>
</g>
<!-- Node7 -->
<g id="node7" class="node">
<title>Node7</title>
<g id="a_node7"><a xlink:href="namespacextb__disp__dftd4.html#a84f2fe9e55715ff22663ba9cbc3b02c2" target="_top" xlink:title=" ">
<polygon fill="white" stroke="black" points="384.5,-0.5 384.5,-19.5 486.5,-19.5 486.5,-0.5 384.5,-0.5"/>
<text text-anchor="middle" x="435.5" y="-7.5" font-family="Helvetica,sans-Serif" font-size="10.00">xtb_disp_dftd4::zeta</text>
</a>
</g>
</g>
<!-- Node5&#45;&gt;Node7 -->
<g id="edge6" class="edge">
<title>Node5&#45;&gt;Node7</title>
<path fill="none" stroke="midnightblue" d="M302.16,-38.41C325.84,-33.33 355.11,-27.04 380.1,-21.68"/>
<polygon fill="midnightblue" stroke="midnightblue" points="381.11,-25.04 390.16,-19.52 379.64,-18.2 381.11,-25.04"/>
</g>
</g>
</svg>
