<?xml version="1.0" encoding="UTF-8" standalone="no"?>
<!DOCTYPE svg PUBLIC "-//W3C//DTD SVG 1.1//EN"
 "http://www.w3.org/Graphics/SVG/1.1/DTD/svg11.dtd">
<!-- Generated by graphviz version 2.46.1 (20210215.1649)
 -->
<!-- Title: rdtm Pages: 1 -->
<svg width="200pt" height="66pt"
 viewBox="0.00 0.00 200.00 66.00" xmlns="http://www.w3.org/2000/svg" xmlns:xlink="http://www.w3.org/1999/xlink">
<g id="graph0" class="graph" transform="scale(1 1) rotate(0) translate(4 62)">
<title>rdtm</title>
<polygon fill="white" stroke="transparent" points="-4,4 -4,-62 196,-62 196,4 -4,4"/>
<!-- Node1 -->
<g id="node1" class="node">
<title>Node1</title>
<g id="a_node1"><a xlink:title=" ">
<polygon fill="#bfbfbf" stroke="black" points="0,-19.5 0,-38.5 36,-38.5 36,-19.5 0,-19.5"/>
<text text-anchor="middle" x="18" y="-26.5" font-family="Helvetica,sans-Serif" font-size="10.00">rdtm</text>
</a>
</g>
</g>
<!-- Node2 -->
<g id="node2" class="node">
<title>Node2</title>
<g id="a_node2"><a xlink:href="error_8f90.html#a21a6b76d2bc72d8d2ec0a344a6d2298b" target="_top" xlink:title=" ">
<polygon fill="white" stroke="black" points="72,-38.5 72,-57.5 110,-57.5 110,-38.5 72,-38.5"/>
<text text-anchor="middle" x="91" y="-45.5" font-family="Helvetica,sans-Serif" font-size="10.00">raise</text>
</a>
</g>
</g>
<!-- Node1&#45;&gt;Node2 -->
<g id="edge1" class="edge">
<title>Node1&#45;&gt;Node2</title>
<path fill="none" stroke="midnightblue" d="M36.19,-33.6C43.97,-35.68 53.38,-38.2 62.14,-40.54"/>
<polygon fill="midnightblue" stroke="midnightblue" points="61.42,-43.97 71.98,-43.18 63.23,-37.21 61.42,-43.97"/>
</g>
<!-- Node3 -->
<g id="node3" class="node">
<title>Node3</title>
<g id="a_node3"><a xlink:href="readl_8f90.html#aefb6440368a41f135fa1eac070ab7f0b" target="_top" xlink:title=" ">
<polygon fill="white" stroke="black" points="72,-0.5 72,-19.5 110,-19.5 110,-0.5 72,-0.5"/>
<text text-anchor="middle" x="91" y="-7.5" font-family="Helvetica,sans-Serif" font-size="10.00">readl</text>
</a>
</g>
</g>
<!-- Node1&#45;&gt;Node3 -->
<g id="edge2" class="edge">
<title>Node1&#45;&gt;Node3</title>
<path fill="none" stroke="midnightblue" d="M36.19,-24.4C43.97,-22.32 53.38,-19.8 62.14,-17.46"/>
<polygon fill="midnightblue" stroke="midnightblue" points="63.23,-20.79 71.98,-14.82 61.42,-14.03 63.23,-20.79"/>
</g>
<!-- Node4 -->
<g id="node4" class="node">
<title>Node4</title>
<g id="a_node4"><a xlink:href="readl_8f90.html#ad4f0e8a0348ec83dc345dc77e76cec7d" target="_top" xlink:title=" ">
<polygon fill="white" stroke="black" points="146,-0.5 146,-19.5 192,-19.5 192,-0.5 146,-0.5"/>
<text text-anchor="middle" x="169" y="-7.5" font-family="Helvetica,sans-Serif" font-size="10.00">readaa</text>
</a>
</g>
</g>
<!-- Node3&#45;&gt;Node4 -->
<g id="edge3" class="edge">
<title>Node3&#45;&gt;Node4</title>
<path fill="none" stroke="midnightblue" d="M110.01,-10C117.71,-10 126.94,-10 135.74,-10"/>
<polygon fill="midnightblue" stroke="midnightblue" points="135.77,-13.5 145.77,-10 135.77,-6.5 135.77,-13.5"/>
</g>
</g>
</svg>
