<?xml version="1.0" encoding="UTF-8" standalone="no"?>
<!DOCTYPE svg PUBLIC "-//W3C//DTD SVG 1.1//EN"
 "http://www.w3.org/Graphics/SVG/1.1/DTD/svg11.dtd">
<!-- Generated by graphviz version 2.46.1 (20210215.1649)
 -->
<!-- Title: remove_file Pages: 1 -->
<svg width="679pt" height="47pt"
 viewBox="0.00 0.00 679.00 47.00" xmlns="http://www.w3.org/2000/svg" xmlns:xlink="http://www.w3.org/1999/xlink">
<g id="graph0" class="graph" transform="scale(1 1) rotate(0) translate(4 43)">
<title>remove_file</title>
<polygon fill="white" stroke="transparent" points="-4,4 -4,-43 675,-43 675,4 -4,4"/>
<!-- Node1 -->
<g id="node1" class="node">
<title>Node1</title>
<g id="a_node1"><a xlink:title=" ">
<polygon fill="#bfbfbf" stroke="black" points="605,-0.5 605,-19.5 671,-19.5 671,-0.5 605,-0.5"/>
<text text-anchor="middle" x="638" y="-7.5" font-family="Helvetica,sans-Serif" font-size="10.00">remove_file</text>
</a>
</g>
</g>
<!-- Node2 -->
<g id="node2" class="node">
<title>Node2</title>
<g id="a_node2"><a xlink:href="namespacextb__screening.html#a68981a279668553e9f69004a476e9df8" target="_top" xlink:title=" ">
<polygon fill="white" stroke="black" points="426,-19.5 426,-38.5 569,-38.5 569,-19.5 426,-19.5"/>
<text text-anchor="middle" x="497.5" y="-26.5" font-family="Helvetica,sans-Serif" font-size="10.00">xtb_screening::qmdfftoscreen</text>
</a>
</g>
</g>
<!-- Node1&#45;&gt;Node2 -->
<g id="edge1" class="edge">
<title>Node1&#45;&gt;Node2</title>
<path fill="none" stroke="midnightblue" d="M594.83,-15.78C586.3,-16.96 577.12,-18.22 567.93,-19.48"/>
<polygon fill="midnightblue" stroke="midnightblue" points="595.45,-19.23 604.88,-14.41 594.49,-12.3 595.45,-19.23"/>
</g>
<!-- Node3 -->
<g id="node3" class="node">
<title>Node3</title>
<g id="a_node3"><a xlink:href="namespacextb__screening.html#a7f4004ff0e65127a38b038f0a7cdcc84" target="_top" xlink:title=" ">
<polygon fill="white" stroke="black" points="280,-0.5 280,-19.5 390,-19.5 390,-0.5 280,-0.5"/>
<text text-anchor="middle" x="335" y="-7.5" font-family="Helvetica,sans-Serif" font-size="10.00">xtb_screening::screen</text>
</a>
</g>
</g>
<!-- Node1&#45;&gt;Node3 -->
<g id="edge5" class="edge">
<title>Node1&#45;&gt;Node3</title>
<path fill="none" stroke="midnightblue" d="M594.62,-10C541.09,-10 448.9,-10 390.27,-10"/>
<polygon fill="midnightblue" stroke="midnightblue" points="594.79,-13.5 604.79,-10 594.79,-6.5 594.79,-13.5"/>
</g>
<!-- Node2&#45;&gt;Node3 -->
<g id="edge2" class="edge">
<title>Node2&#45;&gt;Node3</title>
<path fill="none" stroke="midnightblue" d="M415.53,-19.41C406.91,-18.39 398.3,-17.37 390.09,-16.4"/>
<polygon fill="midnightblue" stroke="midnightblue" points="415.29,-22.91 425.64,-20.61 416.12,-15.96 415.29,-22.91"/>
</g>
<!-- Node4 -->
<g id="node4" class="node">
<title>Node4</title>
<g id="a_node4"><a xlink:href="namespacextb__prog__main.html#a92b3b61ee04235e6343f652095682529" target="_top" xlink:title=" ">
<polygon fill="white" stroke="black" points="126,-0.5 126,-19.5 244,-19.5 244,-0.5 126,-0.5"/>
<text text-anchor="middle" x="185" y="-7.5" font-family="Helvetica,sans-Serif" font-size="10.00">xtb_prog_main::xtbmain</text>
</a>
</g>
</g>
<!-- Node3&#45;&gt;Node4 -->
<g id="edge3" class="edge">
<title>Node3&#45;&gt;Node4</title>
<path fill="none" stroke="midnightblue" d="M269.57,-10C261.15,-10 252.56,-10 244.25,-10"/>
<polygon fill="midnightblue" stroke="midnightblue" points="269.73,-13.5 279.73,-10 269.73,-6.5 269.73,-13.5"/>
</g>
<!-- Node5 -->
<g id="node5" class="node">
<title>Node5</title>
<g id="a_node5"><a xlink:href="primary_8f90.html#a2a67903cf5be605c5b6d3c362c6a3c5c" target="_top" xlink:title="The primary driver for the xtb program package.">
<polygon fill="white" stroke="black" points="0,-0.5 0,-19.5 90,-19.5 90,-0.5 0,-0.5"/>
<text text-anchor="middle" x="45" y="-7.5" font-family="Helvetica,sans-Serif" font-size="10.00">xtb_prog_primary</text>
</a>
</g>
</g>
<!-- Node4&#45;&gt;Node5 -->
<g id="edge4" class="edge">
<title>Node4&#45;&gt;Node5</title>
<path fill="none" stroke="midnightblue" d="M115.73,-10C107.06,-10 98.37,-10 90.22,-10"/>
<polygon fill="midnightblue" stroke="midnightblue" points="115.88,-13.5 125.88,-10 115.88,-6.5 115.88,-13.5"/>
</g>
</g>
</svg>
