<?xml version="1.0" encoding="UTF-8" standalone="no"?>
<!DOCTYPE svg PUBLIC "-//W3C//DTD SVG 1.1//EN"
 "http://www.w3.org/Graphics/SVG/1.1/DTD/svg11.dtd">
<!-- Generated by graphviz version 2.46.0 (20210122.1329)
 -->
<!-- Title: com Pages: 1 -->
<!--zoomable 505 -->
<svg id="main" version="1.1" xmlns="http://www.w3.org/2000/svg" xmlns:xlink="http://www.w3.org/1999/xlink" xml:space="preserve" onload="init(evt)">
<style type="text/css"><![CDATA[
.edge:hover path { stroke: red; }
.edge:hover polygon { stroke: red; fill: red; }
]]></style>
<script type="text/javascript"><![CDATA[
var edges = document.getElementsByTagName('g');
if (edges && edges.length) {
  for (var i=0;i<edges.length;i++) {
    if (edges[i].id.substr(0,4)=='edge') {
      edges[i].setAttribute('class','edge');
    }
  }
}
]]></script>
        <defs>
                <circle id="rim" cx="0" cy="0" r="7"/>
                <circle id="rim2" cx="0" cy="0" r="3.5"/>
                <g id="zoomPlus">
                        <use xlink:href="#rim" fill="#404040">
                                <set attributeName="fill" to="#808080" begin="zoomplus.mouseover" end="zoomplus.mouseout"/>
                        </use>
                        <path d="M-4,0h8M0,-4v8" fill="none" stroke="white" stroke-width="1.5" pointer-events="none"/>
                </g>
                <g id="zoomMin">
                        <use xlink:href="#rim" fill="#404040">
                                <set attributeName="fill" to="#808080" begin="zoomminus.mouseover" end="zoomminus.mouseout"/>
                        </use>
                        <path d="M-4,0h8" fill="none" stroke="white" stroke-width="1.5" pointer-events="none"/>
                </g>
                <g id="dirArrow">
                        <path fill="none" stroke="white" stroke-width="1.5" d="M0,-3.0v7 M-2.5,-0.5L0,-3.0L2.5,-0.5"/>
                </g>
               <g id="resetDef">
                       <use xlink:href="#rim2" fill="#404040">
                               <set attributeName="fill" to="#808080" begin="reset.mouseover" end="reset.mouseout"/>
                       </use>
               </g>
        </defs>

<script type="text/javascript">
var viewWidth = 1121;
var viewHeight = 505;
var sectionId = 'dynsection-0';
</script>
<script xlink:href="svgpan.js"/>
<svg id="graph" class="graph">
<g id="viewport">
<title>com</title>
<polygon fill="white" stroke="transparent" points="-4,4 -4,-501.12 1117,-501.12 1117,4 -4,4"/>
<!-- Node1 -->
<g id="node1" class="node">
<title>Node1</title>
<g id="a_node1"><a xlink:title=" ">
<polygon fill="#bfbfbf" stroke="black" points="1078,-399.81 1078,-418.81 1113,-418.81 1113,-399.81 1078,-399.81"/>
<text text-anchor="middle" x="1095.5" y="-406.81" font-family="Helvetica,sans-Serif" font-size="10.00">com</text>
</a>
</g>
</g>
<!-- Node2 -->
<g id="node2" class="node">
<title>Node2</title>
<g id="a_node2"><a xlink:href="rmrottr_8f90.html#aa7a671ea1ac3895212a103ac64a60b9b" target="_top" xlink:title=" ">
<polygon fill="white" stroke="black" points="956,-437.81 956,-456.81 1032,-456.81 1032,-437.81 956,-437.81"/>
<text text-anchor="middle" x="994" y="-444.81" font-family="Helvetica,sans-Serif" font-size="10.00">centerofmass</text>
</a>
</g>
</g>
<!-- Node1&#45;&gt;Node2 -->
<g id="edge1" class="edge">
<title>Node1&#45;&gt;Node2</title>
<path fill="none" stroke="midnightblue" d="M1068.02,-419.42C1053.19,-425.08 1034.8,-432.1 1020.19,-437.68"/>
<polygon fill="midnightblue" stroke="midnightblue" points="1069.53,-422.59 1077.62,-415.75 1067.03,-416.05 1069.53,-422.59"/>
</g>
<!-- Node3 -->
<g id="node3" class="node">
<title>Node3</title>
<g id="a_node3"><a xlink:href="rmrottr_8f90.html#a8410de6f08d67a46b50d40ee4bf83b93" target="_top" xlink:title=" ">
<polygon fill="white" stroke="black" points="834,-437.81 834,-456.81 879,-456.81 879,-437.81 834,-437.81"/>
<text text-anchor="middle" x="856.5" y="-444.81" font-family="Helvetica,sans-Serif" font-size="10.00">rmrottr</text>
</a>
</g>
</g>
<!-- Node1&#45;&gt;Node3 -->
<g id="edge34" class="edge">
<title>Node1&#45;&gt;Node3</title>
<path fill="none" stroke="midnightblue" d="M1067.93,-412.02C1038.14,-415.23 988.44,-421.05 946,-428.31 923.08,-432.23 897.08,-437.96 879.22,-442.11"/>
<polygon fill="midnightblue" stroke="midnightblue" points="1068.37,-415.49 1077.95,-410.96 1067.64,-408.53 1068.37,-415.49"/>
</g>
<!-- Node8 -->
<g id="node8" class="node">
<title>Node8</title>
<g id="a_node8"><a xlink:href="namespacextb__gfnff__fraghess.html#a0076b044bee636f19ac8a5d07b83dbfd" target="_top" xlink:title=" ">
<polygon fill="white" stroke="black" points="946,-285.31 946,-315.31 1042,-315.31 1042,-285.31 946,-285.31"/>
<text text-anchor="start" x="954" y="-303.31" font-family="Helvetica,sans-Serif" font-size="10.00">xtb_gfnff_fraghess</text>
<text text-anchor="middle" x="994" y="-292.31" font-family="Helvetica,sans-Serif" font-size="10.00">::fragmentize</text>
</a>
</g>
</g>
<!-- Node1&#45;&gt;Node8 -->
<g id="edge8" class="edge">
<title>Node1&#45;&gt;Node8</title>
<path fill="none" stroke="midnightblue" d="M1078.77,-392.08C1059.57,-371.04 1027.39,-335.79 1009.01,-315.65"/>
<polygon fill="midnightblue" stroke="midnightblue" points="1076.34,-394.61 1085.67,-399.63 1081.51,-389.89 1076.34,-394.61"/>
</g>
<!-- Node2&#45;&gt;Node3 -->
<g id="edge2" class="edge">
<title>Node2&#45;&gt;Node3</title>
<path fill="none" stroke="midnightblue" d="M945.85,-447.31C923.2,-447.31 897.16,-447.31 879.25,-447.31"/>
<polygon fill="midnightblue" stroke="midnightblue" points="945.97,-450.81 955.97,-447.31 945.97,-443.81 945.97,-450.81"/>
</g>
<!-- Node4 -->
<g id="node4" class="node">
<title>Node4</title>
<g id="a_node4"><a xlink:href="namespacextb__dynamic.html#adbb00c924fbe26c7a6945fed202881e1" target="_top" xlink:title=" ">
<polygon fill="white" stroke="black" points="500.5,-449.81 500.5,-468.81 589.5,-468.81 589.5,-449.81 500.5,-449.81"/>
<text text-anchor="middle" x="545" y="-456.81" font-family="Helvetica,sans-Serif" font-size="10.00">xtb_dynamic::md</text>
</a>
</g>
</g>
<!-- Node3&#45;&gt;Node4 -->
<g id="edge3" class="edge">
<title>Node3&#45;&gt;Node4</title>
<path fill="none" stroke="midnightblue" d="M823.4,-448.55C767.62,-450.71 652.75,-455.17 589.74,-457.61"/>
<polygon fill="midnightblue" stroke="midnightblue" points="823.88,-452.03 833.74,-448.15 823.61,-445.04 823.88,-452.03"/>
</g>
<!-- Node5 -->
<g id="node5" class="node">
<title>Node5</title>
<g id="a_node5"><a xlink:href="namespacextb__gfnff__convert.html#adf399b47b9f2a8364327d9d5c38cb2b8" target="_top" xlink:title=" ">
<polygon fill="white" stroke="black" points="307,-444.31 307,-474.31 402,-474.31 402,-444.31 307,-444.31"/>
<text text-anchor="start" x="315" y="-462.31" font-family="Helvetica,sans-Serif" font-size="10.00">xtb_gfnff_convert::</text>
<text text-anchor="middle" x="354.5" y="-451.31" font-family="Helvetica,sans-Serif" font-size="10.00">struc_convert</text>
</a>
</g>
</g>
<!-- Node4&#45;&gt;Node5 -->
<g id="edge4" class="edge">
<title>Node4&#45;&gt;Node5</title>
<path fill="none" stroke="midnightblue" d="M489.97,-459.31C462.27,-459.31 428.86,-459.31 402.28,-459.31"/>
<polygon fill="midnightblue" stroke="midnightblue" points="490.28,-462.81 500.28,-459.31 490.28,-455.81 490.28,-462.81"/>
</g>
<!-- Node6 -->
<g id="node6" class="node">
<title>Node6</title>
<g id="a_node6"><a xlink:href="namespacextb__prog__main.html#a92b3b61ee04235e6343f652095682529" target="_top" xlink:title=" ">
<polygon fill="white" stroke="black" points="126,-402.81 126,-421.81 244,-421.81 244,-402.81 126,-402.81"/>
<text text-anchor="middle" x="185" y="-409.81" font-family="Helvetica,sans-Serif" font-size="10.00">xtb_prog_main::xtbmain</text>
</a>
</g>
</g>
<!-- Node4&#45;&gt;Node6 -->
<g id="edge7" class="edge">
<title>Node4&#45;&gt;Node6</title>
<path fill="none" stroke="midnightblue" d="M507.54,-472.02C455.58,-488.1 357.87,-510.7 280,-484.31 243.2,-471.83 209.5,-438.53 194.38,-421.96"/>
<polygon fill="midnightblue" stroke="midnightblue" points="508.84,-475.28 517.31,-468.91 506.72,-468.61 508.84,-475.28"/>
</g>
<!-- Node5&#45;&gt;Node6 -->
<g id="edge5" class="edge">
<title>Node5&#45;&gt;Node6</title>
<path fill="none" stroke="midnightblue" d="M296.89,-443.42C271.34,-436.25 242.01,-428.02 219.93,-421.83"/>
<polygon fill="midnightblue" stroke="midnightblue" points="296.27,-446.88 306.84,-446.21 298.16,-440.14 296.27,-446.88"/>
</g>
<!-- Node7 -->
<g id="node7" class="node">
<title>Node7</title>
<g id="a_node7"><a xlink:href="primary_8f90.html#a2a67903cf5be605c5b6d3c362c6a3c5c" target="_top" xlink:title="The primary driver for the xtb program package.">
<polygon fill="white" stroke="black" points="0,-195.81 0,-214.81 90,-214.81 90,-195.81 0,-195.81"/>
<text text-anchor="middle" x="45" y="-202.81" font-family="Helvetica,sans-Serif" font-size="10.00">xtb_prog_primary</text>
</a>
</g>
</g>
<!-- Node6&#45;&gt;Node7 -->
<g id="edge6" class="edge">
<title>Node6&#45;&gt;Node7</title>
<path fill="none" stroke="midnightblue" d="M171.87,-394.11C143.65,-351.77 74.33,-247.81 52.62,-215.23"/>
<polygon fill="midnightblue" stroke="midnightblue" points="169.07,-396.22 177.53,-402.6 174.89,-392.34 169.07,-396.22"/>
</g>
<!-- Node9 -->
<g id="node9" class="node">
<title>Node9</title>
<g id="a_node9"><a xlink:href="namespacextb__gfnff__ini.html#ad57146d4119080bb244e8f19309414b5" target="_top" xlink:title=" ">
<polygon fill="white" stroke="black" points="803,-285.81 803,-304.81 910,-304.81 910,-285.81 803,-285.81"/>
<text text-anchor="middle" x="856.5" y="-292.81" font-family="Helvetica,sans-Serif" font-size="10.00">xtb_gfnff_ini::gfnff_ini</text>
</a>
</g>
</g>
<!-- Node8&#45;&gt;Node9 -->
<g id="edge9" class="edge">
<title>Node8&#45;&gt;Node9</title>
<path fill="none" stroke="midnightblue" d="M935.86,-298.2C927.44,-297.89 918.79,-297.57 910.46,-297.26"/>
<polygon fill="midnightblue" stroke="midnightblue" points="935.87,-301.7 945.99,-298.57 936.12,-294.7 935.87,-301.7"/>
</g>
<!-- Node10 -->
<g id="node10" class="node">
<title>Node10</title>
<g id="a_node10"><a xlink:href="namespacextb__gfnff__setup.html#a4aeb50102462398d4f57781b1c421257" target="_top" xlink:title=" ">
<polygon fill="white" stroke="black" points="661,-247.31 661,-277.31 767,-277.31 767,-247.31 661,-247.31"/>
<text text-anchor="start" x="669" y="-265.31" font-family="Helvetica,sans-Serif" font-size="10.00">xtb_gfnff_setup::gfnff</text>
<text text-anchor="middle" x="714" y="-254.31" font-family="Helvetica,sans-Serif" font-size="10.00">_setup</text>
</a>
</g>
</g>
<!-- Node9&#45;&gt;Node10 -->
<g id="edge10" class="edge">
<title>Node9&#45;&gt;Node10</title>
<path fill="none" stroke="midnightblue" d="M804.8,-283.4C792.53,-280.52 779.41,-277.43 767.08,-274.54"/>
<polygon fill="midnightblue" stroke="midnightblue" points="804.33,-286.88 814.86,-285.76 805.93,-280.07 804.33,-286.88"/>
</g>
<!-- Node11 -->
<g id="node11" class="node">
<title>Node11</title>
<g id="a_node11"><a xlink:href="namespacextb__main__setup.html#a01dff07fc5b7e8c442d7e62c00377fc4" target="_top" xlink:title=" ">
<polygon fill="white" stroke="black" points="465,-236.81 465,-255.81 625,-255.81 625,-236.81 465,-236.81"/>
<text text-anchor="middle" x="545" y="-243.81" font-family="Helvetica,sans-Serif" font-size="10.00">xtb_main_setup::newgffcalculator</text>
</a>
</g>
</g>
<!-- Node10&#45;&gt;Node11 -->
<g id="edge11" class="edge">
<title>Node10&#45;&gt;Node11</title>
<path fill="none" stroke="midnightblue" d="M650.63,-256.33C642.3,-255.53 633.68,-254.71 625.11,-253.88"/>
<polygon fill="midnightblue" stroke="midnightblue" points="650.33,-259.82 660.62,-257.29 651,-252.85 650.33,-259.82"/>
</g>
<!-- Node11&#45;&gt;Node5 -->
<g id="edge15" class="edge">
<title>Node11&#45;&gt;Node5</title>
<path fill="none" stroke="midnightblue" d="M537.2,-265.97C523.06,-304 486.92,-387.96 429,-434.31 421.21,-440.54 411.79,-445.25 402.32,-448.81"/>
<polygon fill="midnightblue" stroke="midnightblue" points="540.65,-266.72 540.74,-256.13 534.06,-264.35 540.65,-266.72"/>
</g>
<!-- Node12 -->
<g id="node12" class="node">
<title>Node12</title>
<g id="a_node12"><a xlink:href="namespacextb__api__calculator.html#a6d6689e12fc963d1bc325f687a8d7d5d" target="_top" xlink:title=" ">
<polygon fill="white" stroke="black" points="307,-395.31 307,-425.31 402,-425.31 402,-395.31 307,-395.31"/>
<text text-anchor="start" x="315" y="-413.31" font-family="Helvetica,sans-Serif" font-size="10.00">xtb_api_calculator</text>
<text text-anchor="middle" x="354.5" y="-402.31" font-family="Helvetica,sans-Serif" font-size="10.00">::loadgfnff_api</text>
</a>
</g>
</g>
<!-- Node11&#45;&gt;Node12 -->
<g id="edge12" class="edge">
<title>Node11&#45;&gt;Node12</title>
<path fill="none" stroke="midnightblue" d="M533.4,-264.82C515.55,-294.42 476.72,-352.4 429,-385.31 420.9,-390.89 411.44,-395.32 402.06,-398.81"/>
<polygon fill="midnightblue" stroke="midnightblue" points="536.57,-266.34 538.63,-255.95 530.54,-262.79 536.57,-266.34"/>
</g>
<!-- Node13 -->
<g id="node13" class="node">
<title>Node13</title>
<g id="a_node13"><a xlink:href="namespacextb__main__setup.html#a2873ec6fc259dc1f93f4c74d34501d91" target="_top" xlink:title=" ">
<polygon fill="white" stroke="black" points="280,-356.81 280,-375.81 429,-375.81 429,-356.81 280,-356.81"/>
<text text-anchor="middle" x="354.5" y="-363.81" font-family="Helvetica,sans-Serif" font-size="10.00">xtb_main_setup::newcalculator</text>
</a>
</g>
</g>
<!-- Node11&#45;&gt;Node13 -->
<g id="edge13" class="edge">
<title>Node11&#45;&gt;Node13</title>
<path fill="none" stroke="midnightblue" d="M529.25,-263.53C508.95,-286.14 470.21,-325.5 429,-347.31 421.78,-351.13 413.74,-354.21 405.71,-356.7"/>
<polygon fill="midnightblue" stroke="midnightblue" points="531.88,-265.84 535.86,-256.02 526.63,-261.21 531.88,-265.84"/>
</g>
<!-- Node14 -->
<g id="node14" class="node">
<title>Node14</title>
<g id="a_node14"><a xlink:href="gfnff_8f90.html#a37a3363fde733941b6467279048767fb" target="_top" xlink:title=" ">
<polygon fill="white" stroke="black" points="313,-318.81 313,-337.81 396,-337.81 396,-318.81 313,-318.81"/>
<text text-anchor="middle" x="354.5" y="-325.81" font-family="Helvetica,sans-Serif" font-size="10.00">test_gfnff_gbsa</text>
</a>
</g>
</g>
<!-- Node11&#45;&gt;Node14 -->
<g id="edge16" class="edge">
<title>Node11&#45;&gt;Node14</title>
<path fill="none" stroke="midnightblue" d="M520.76,-261.29C498.1,-275.35 462.3,-296.12 429,-309.31 418.58,-313.43 406.98,-316.91 396.13,-319.72"/>
<polygon fill="midnightblue" stroke="midnightblue" points="522.73,-264.19 529.33,-255.9 519,-258.26 522.73,-264.19"/>
</g>
<!-- Node16 -->
<g id="node16" class="node">
<title>Node16</title>
<g id="a_node16"><a xlink:href="gfnff_8f90.html#a1537c4a10909349e4a2fd085248fc0cb" target="_top" xlink:title=" ">
<polygon fill="white" stroke="black" points="318,-280.81 318,-299.81 391,-299.81 391,-280.81 318,-280.81"/>
<text text-anchor="middle" x="354.5" y="-287.81" font-family="Helvetica,sans-Serif" font-size="10.00">test_gfnff_hb</text>
</a>
</g>
</g>
<!-- Node11&#45;&gt;Node16 -->
<g id="edge18" class="edge">
<title>Node11&#45;&gt;Node16</title>
<path fill="none" stroke="midnightblue" d="M492.97,-258.22C460.78,-265.73 420,-275.25 391.24,-281.96"/>
<polygon fill="midnightblue" stroke="midnightblue" points="494.16,-261.53 503.1,-255.85 492.56,-254.72 494.16,-261.53"/>
</g>
<!-- Node17 -->
<g id="node17" class="node">
<title>Node17</title>
<g id="a_node17"><a xlink:href="gfnff_8f90.html#a99d4eefcd1d33ae189dc8ce62bb94464" target="_top" xlink:title=" ">
<polygon fill="white" stroke="black" points="304,-231.31 304,-261.31 405,-261.31 405,-231.31 304,-231.31"/>
<text text-anchor="start" x="312" y="-249.31" font-family="Helvetica,sans-Serif" font-size="10.00">test_gfnff_mindless</text>
<text text-anchor="middle" x="354.5" y="-238.31" font-family="Helvetica,sans-Serif" font-size="10.00">_basic</text>
</a>
</g>
</g>
<!-- Node11&#45;&gt;Node17 -->
<g id="edge20" class="edge">
<title>Node11&#45;&gt;Node17</title>
<path fill="none" stroke="midnightblue" d="M454.85,-246.31C437.75,-246.31 420.42,-246.31 405.13,-246.31"/>
<polygon fill="midnightblue" stroke="midnightblue" points="454.88,-249.81 464.88,-246.31 454.88,-242.81 454.88,-249.81"/>
</g>
<!-- Node18 -->
<g id="node18" class="node">
<title>Node18</title>
<g id="a_node18"><a xlink:href="gfnff_8f90.html#a0e92e95bfacd9d1eead0f4b7059859b2" target="_top" xlink:title=" ">
<polygon fill="white" stroke="black" points="304,-182.31 304,-212.31 405,-212.31 405,-182.31 304,-182.31"/>
<text text-anchor="start" x="312" y="-200.31" font-family="Helvetica,sans-Serif" font-size="10.00">test_gfnff_mindless</text>
<text text-anchor="middle" x="354.5" y="-189.31" font-family="Helvetica,sans-Serif" font-size="10.00">_solvation</text>
</a>
</g>
</g>
<!-- Node11&#45;&gt;Node18 -->
<g id="edge22" class="edge">
<title>Node11&#45;&gt;Node18</title>
<path fill="none" stroke="midnightblue" d="M497.25,-234.15C469.2,-226.86 433.57,-217.6 405.04,-210.18"/>
<polygon fill="midnightblue" stroke="midnightblue" points="496.65,-237.61 507.21,-236.74 498.41,-230.84 496.65,-237.61"/>
</g>
<!-- Node19 -->
<g id="node19" class="node">
<title>Node19</title>
<g id="a_node19"><a xlink:href="gfnff_8f90.html#a3524b271100f047e2d666a7567eb379a" target="_top" xlink:title=" ">
<polygon fill="white" stroke="black" points="315.5,-143.81 315.5,-162.81 393.5,-162.81 393.5,-143.81 315.5,-143.81"/>
<text text-anchor="middle" x="354.5" y="-150.81" font-family="Helvetica,sans-Serif" font-size="10.00">test_gfnff_pdb</text>
</a>
</g>
</g>
<!-- Node11&#45;&gt;Node19 -->
<g id="edge24" class="edge">
<title>Node11&#45;&gt;Node19</title>
<path fill="none" stroke="midnightblue" d="M524.02,-230.61C501.93,-213.96 464.72,-187.93 429,-172.31 417.89,-167.45 405.27,-163.63 393.67,-160.72"/>
<polygon fill="midnightblue" stroke="midnightblue" points="521.91,-233.41 531.98,-236.7 526.17,-227.85 521.91,-233.41"/>
</g>
<!-- Node20 -->
<g id="node20" class="node">
<title>Node20</title>
<g id="a_node20"><a xlink:href="gfnff_8f90.html#a191f0af42b3874a93555aee466e8bc8c" target="_top" xlink:title=" ">
<polygon fill="white" stroke="black" points="306.5,-105.81 306.5,-124.81 402.5,-124.81 402.5,-105.81 306.5,-105.81"/>
<text text-anchor="middle" x="354.5" y="-112.81" font-family="Helvetica,sans-Serif" font-size="10.00">test_gfnff_scaleup</text>
</a>
</g>
</g>
<!-- Node11&#45;&gt;Node20 -->
<g id="edge26" class="edge">
<title>Node11&#45;&gt;Node20</title>
<path fill="none" stroke="midnightblue" d="M530.56,-228.28C511,-203.34 472.26,-158.65 429,-134.31 420.96,-129.78 411.82,-126.31 402.79,-123.66"/>
<polygon fill="midnightblue" stroke="midnightblue" points="528,-230.7 536.87,-236.5 533.56,-226.43 528,-230.7"/>
</g>
<!-- Node21 -->
<g id="node21" class="node">
<title>Node21</title>
<g id="a_node21"><a xlink:href="gfnff_8f90.html#a63adb2c49c27ebcfcd6ea49fe8259b80" target="_top" xlink:title=" ">
<polygon fill="white" stroke="black" points="316.5,-67.81 316.5,-86.81 392.5,-86.81 392.5,-67.81 316.5,-67.81"/>
<text text-anchor="middle" x="354.5" y="-74.81" font-family="Helvetica,sans-Serif" font-size="10.00">test_gfnff_sdf</text>
</a>
</g>
</g>
<!-- Node11&#45;&gt;Node21 -->
<g id="edge28" class="edge">
<title>Node11&#45;&gt;Node21</title>
<path fill="none" stroke="midnightblue" d="M534.77,-227.23C518.22,-195.08 480.35,-130.31 429,-96.31 418.23,-89.17 404.94,-84.72 392.63,-81.94"/>
<polygon fill="midnightblue" stroke="midnightblue" points="531.78,-229.06 539.39,-236.44 538.04,-225.93 531.78,-229.06"/>
</g>
<!-- Node22 -->
<g id="node22" class="node">
<title>Node22</title>
<g id="a_node22"><a xlink:href="gfnff_8f90.html#a3debb77ee35e9cf115d69ef59490c6c5" target="_top" xlink:title=" ">
<polygon fill="white" stroke="black" points="318,-29.81 318,-48.81 391,-48.81 391,-29.81 318,-29.81"/>
<text text-anchor="middle" x="354.5" y="-36.81" font-family="Helvetica,sans-Serif" font-size="10.00">test_gfnff_sp</text>
</a>
</g>
</g>
<!-- Node11&#45;&gt;Node22 -->
<g id="edge30" class="edge">
<title>Node11&#45;&gt;Node22</title>
<path fill="none" stroke="midnightblue" d="M537.69,-226.8C524.22,-188.35 488.89,-102.65 429,-58.31 418.09,-50.23 404.06,-45.57 391.19,-42.9"/>
<polygon fill="midnightblue" stroke="midnightblue" points="534.53,-228.37 541.04,-236.72 541.16,-226.13 534.53,-228.37"/>
</g>
<!-- Node23 -->
<g id="node23" class="node">
<title>Node23</title>
<g id="a_node23"><a xlink:href="namespacextb__prog__topology.html#aa263269ef9a32674220b4f1bfda0c066" target="_top" xlink:title="Main program of the topology submodule.">
<polygon fill="white" stroke="black" points="135.5,-62.31 135.5,-92.31 234.5,-92.31 234.5,-62.31 135.5,-62.31"/>
<text text-anchor="start" x="143.5" y="-80.31" font-family="Helvetica,sans-Serif" font-size="10.00">xtb_prog_topology::</text>
<text text-anchor="middle" x="185" y="-69.31" font-family="Helvetica,sans-Serif" font-size="10.00">xtbtopology</text>
</a>
</g>
</g>
<!-- Node11&#45;&gt;Node23 -->
<g id="edge32" class="edge">
<title>Node11&#45;&gt;Node23</title>
<path fill="none" stroke="midnightblue" d="M540.97,-226.8C532.67,-180.99 504.93,-66.86 429,-20.31 372.55,14.31 343.78,-2.48 280,-20.31 250.96,-28.42 221.96,-48.23 204.01,-62.21"/>
<polygon fill="midnightblue" stroke="midnightblue" points="537.52,-227.39 542.64,-236.67 544.42,-226.22 537.52,-227.39"/>
</g>
<!-- Node13&#45;&gt;Node6 -->
<g id="edge14" class="edge">
<title>Node13&#45;&gt;Node6</title>
<path fill="none" stroke="midnightblue" d="M305.77,-378.45C297.18,-380.69 288.32,-383.04 280,-385.31 259.52,-390.89 236.63,-397.46 218.57,-402.72"/>
<polygon fill="midnightblue" stroke="midnightblue" points="306.88,-381.77 315.68,-375.88 305.12,-375 306.88,-381.77"/>
</g>
<!-- Node15 -->
<g id="node15" class="node">
<title>Node15</title>
<g id="a_node15"><a xlink:href="tests__peeq_8f90.html#a87ff5319e0d2e627a4f71d7df0d14891" target="_top" xlink:title=" ">
<polygon fill="white" stroke="black" points="151,-165.81 151,-184.81 219,-184.81 219,-165.81 151,-165.81"/>
<text text-anchor="middle" x="185" y="-172.81" font-family="Helvetica,sans-Serif" font-size="10.00">peeq_tester</text>
</a>
</g>
</g>
<!-- Node14&#45;&gt;Node15 -->
<g id="edge17" class="edge">
<title>Node14&#45;&gt;Node15</title>
<path fill="none" stroke="midnightblue" d="M302.9,-320.29C294.81,-317.62 286.85,-314.06 280,-309.31 231.89,-275.96 200.34,-209.51 189.85,-184.83"/>
<polygon fill="midnightblue" stroke="midnightblue" points="302.2,-323.73 312.78,-323.13 304.14,-317 302.2,-323.73"/>
</g>
<!-- Node16&#45;&gt;Node15 -->
<g id="edge19" class="edge">
<title>Node16&#45;&gt;Node15</title>
<path fill="none" stroke="midnightblue" d="M308.06,-281.94C298.41,-279.09 288.56,-275.3 280,-270.31 240.92,-247.5 206.84,-204.32 192.81,-185.03"/>
<polygon fill="midnightblue" stroke="midnightblue" points="307.42,-285.39 317.98,-284.59 309.22,-278.63 307.42,-285.39"/>
</g>
<!-- Node17&#45;&gt;Node15 -->
<g id="edge21" class="edge">
<title>Node17&#45;&gt;Node15</title>
<path fill="none" stroke="midnightblue" d="M296.62,-227.77C290.97,-225.68 285.35,-223.51 280,-221.31 252.79,-210.08 222.38,-194.64 203.71,-184.81"/>
<polygon fill="midnightblue" stroke="midnightblue" points="295.52,-231.09 306.12,-231.18 297.89,-224.5 295.52,-231.09"/>
</g>
<!-- Node18&#45;&gt;Node15 -->
<g id="edge23" class="edge">
<title>Node18&#45;&gt;Node15</title>
<path fill="none" stroke="midnightblue" d="M293.56,-189.43C268.53,-186.14 240.4,-182.45 219.2,-179.67"/>
<polygon fill="midnightblue" stroke="midnightblue" points="293.33,-192.93 303.7,-190.76 294.24,-185.99 293.33,-192.93"/>
</g>
<!-- Node19&#45;&gt;Node15 -->
<g id="edge25" class="edge">
<title>Node19&#45;&gt;Node15</title>
<path fill="none" stroke="midnightblue" d="M305.24,-159.64C277.61,-163.27 243.65,-167.73 219.05,-170.97"/>
<polygon fill="midnightblue" stroke="midnightblue" points="306.03,-163.07 315.49,-158.3 305.12,-156.13 306.03,-163.07"/>
</g>
<!-- Node20&#45;&gt;Node15 -->
<g id="edge27" class="edge">
<title>Node20&#45;&gt;Node15</title>
<path fill="none" stroke="midnightblue" d="M302.19,-127.46C294.69,-129.55 287.1,-131.86 280,-134.31 253.57,-143.42 224.21,-156.78 205.44,-165.74"/>
<polygon fill="midnightblue" stroke="midnightblue" points="303.21,-130.81 311.95,-124.82 301.39,-124.05 303.21,-130.81"/>
</g>
<!-- Node21&#45;&gt;Node15 -->
<g id="edge29" class="edge">
<title>Node21&#45;&gt;Node15</title>
<path fill="none" stroke="midnightblue" d="M306.66,-86.07C297.54,-88.69 288.26,-92.05 280,-96.31 244.19,-114.77 210.02,-149.03 194.59,-165.7"/>
<polygon fill="midnightblue" stroke="midnightblue" points="307.65,-89.43 316.44,-83.5 305.87,-82.66 307.65,-89.43"/>
</g>
<!-- Node22&#45;&gt;Node15 -->
<g id="edge31" class="edge">
<title>Node22&#45;&gt;Node15</title>
<path fill="none" stroke="midnightblue" d="M308.26,-46.16C298.44,-48.94 288.47,-52.84 280,-58.31 274.25,-62.02 214.68,-138.37 193.46,-165.69"/>
<polygon fill="midnightblue" stroke="midnightblue" points="309.11,-49.56 317.97,-43.74 307.42,-42.76 309.11,-49.56"/>
</g>
<!-- Node23&#45;&gt;Node7 -->
<g id="edge33" class="edge">
<title>Node23&#45;&gt;Node7</title>
<path fill="none" stroke="midnightblue" d="M160,-99.57C129.54,-127.82 78.36,-175.29 56.46,-195.61"/>
<polygon fill="midnightblue" stroke="midnightblue" points="162.68,-101.86 167.63,-92.49 157.92,-96.73 162.68,-101.86"/>
</g>
</g>
</svg>
        <g id="navigator" transform="translate(0 0)" fill="#404254">
                <rect fill="#f2f5e9" fill-opacity="0.5" stroke="#606060" stroke-width=".5" x="0" y="0" width="60" height="60"/>
                <use id="zoomplus" xlink:href="#zoomPlus" x="17" y="9" onmousedown="handleZoom(evt,'in')"/>
                <use id="zoomminus" xlink:href="#zoomMin" x="42" y="9" onmousedown="handleZoom(evt,'out')"/>
                <use id="reset" xlink:href="#resetDef" x="30" y="36" onmousedown="handleReset()"/>
                <g id="arrowUp" xlink:href="#dirArrow" transform="translate(30 24)" onmousedown="handlePan(0,-1)">
                  <use xlink:href="#rim" fill="#404040">
                        <set attributeName="fill" to="#808080" begin="arrowUp.mouseover" end="arrowUp.mouseout"/>
                  </use>
                  <path fill="none" stroke="white" stroke-width="1.5" d="M0,-3.0v7 M-2.5,-0.5L0,-3.0L2.5,-0.5"/>
                </g>
                <g id="arrowRight" xlink:href="#dirArrow" transform="rotate(90) translate(36 -43)" onmousedown="handlePan(1,0)">
                  <use xlink:href="#rim" fill="#404040">
                        <set attributeName="fill" to="#808080" begin="arrowRight.mouseover" end="arrowRight.mouseout"/>
                  </use>
                  <path fill="none" stroke="white" stroke-width="1.5" d="M0,-3.0v7 M-2.5,-0.5L0,-3.0L2.5,-0.5"/>
                </g>
                <g id="arrowDown" xlink:href="#dirArrow" transform="rotate(180) translate(-30 -48)" onmousedown="handlePan(0,1)">
                  <use xlink:href="#rim" fill="#404040">
                        <set attributeName="fill" to="#808080" begin="arrowDown.mouseover" end="arrowDown.mouseout"/>
                  </use>
                  <path fill="none" stroke="white" stroke-width="1.5" d="M0,-3.0v7 M-2.5,-0.5L0,-3.0L2.5,-0.5"/>
                </g>
                <g id="arrowLeft" xlink:href="#dirArrow" transform="rotate(270) translate(-36 17)" onmousedown="handlePan(-1,0)">
                  <use xlink:href="#rim" fill="#404040">
                        <set attributeName="fill" to="#808080" begin="arrowLeft.mouseover" end="arrowLeft.mouseout"/>
                  </use>
                  <path fill="none" stroke="white" stroke-width="1.5" d="M0,-3.0v7 M-2.5,-0.5L0,-3.0L2.5,-0.5"/>
                </g>
        </g>
        <svg viewBox="0 0 15 15" width="100%" height="30px" preserveAspectRatio="xMaxYMin meet">
         <g id="arrow_out" transform="scale(0.3 0.3)">
          <a xlink:href="frag__hess_8f90_a6236f3a6b81804a57d4a051148cf8612_icgraph_org.svg" target="_base">
           <rect id="button" ry="5" rx="5" y="6" x="6" height="38" width="38"
                fill="#f2f5e9" fill-opacity="0.5" stroke="#606060" stroke-width="1.0"/>
           <path id="arrow"
             d="M 11.500037,31.436501 C 11.940474,20.09759 22.043105,11.32322 32.158766,21.979434 L 37.068811,17.246167 C 37.068811,17.246167 37.088388,32 37.088388,32 L 22.160133,31.978069 C 22.160133,31.978069 26.997745,27.140456 26.997745,27.140456 C 18.528582,18.264221 13.291696,25.230495 11.500037,31.436501 z"
             style="fill:#404040;"/>
          </a>
         </g>
        </svg>
</svg>
