<?xml version="1.0" encoding="UTF-8" standalone="no"?>
<!DOCTYPE svg PUBLIC "-//W3C//DTD SVG 1.1//EN"
 "http://www.w3.org/Graphics/SVG/1.1/DTD/svg11.dtd">
<!-- Generated by graphviz version 2.46.1 (20210215.1649)
 -->
<!-- Title: cutcov Pages: 1 -->
<svg width="218pt" height="66pt"
 viewBox="0.00 0.00 218.00 66.00" xmlns="http://www.w3.org/2000/svg" xmlns:xlink="http://www.w3.org/1999/xlink">
<g id="graph0" class="graph" transform="scale(1 1) rotate(0) translate(4 62)">
<title>cutcov</title>
<polygon fill="white" stroke="transparent" points="-4,4 -4,-62 214,-62 214,4 -4,4"/>
<!-- Node1 -->
<g id="node1" class="node">
<title>Node1</title>
<g id="a_node1"><a xlink:title=" ">
<polygon fill="#bfbfbf" stroke="black" points="0,-19.5 0,-38.5 46,-38.5 46,-19.5 0,-19.5"/>
<text text-anchor="middle" x="23" y="-26.5" font-family="Helvetica,sans-Serif" font-size="10.00">cutcov</text>
</a>
</g>
</g>
<!-- Node2 -->
<g id="node2" class="node">
<title>Node2</title>
<g id="a_node2"><a xlink:href="neighbor_8f90.html#aed97ff9dcc29cad44d184b1975f82ee0" target="_top" xlink:title=" ">
<polygon fill="white" stroke="black" points="88.5,-38.5 88.5,-57.5 134.5,-57.5 134.5,-38.5 88.5,-38.5"/>
<text text-anchor="middle" x="111.5" y="-45.5" font-family="Helvetica,sans-Serif" font-size="10.00">getring</text>
</a>
</g>
</g>
<!-- Node1&#45;&gt;Node2 -->
<g id="edge1" class="edge">
<title>Node1&#45;&gt;Node2</title>
<path fill="none" stroke="midnightblue" d="M46.28,-33.89C56.06,-36.04 67.74,-38.61 78.44,-40.96"/>
<polygon fill="midnightblue" stroke="midnightblue" points="77.78,-44.4 88.3,-43.12 79.28,-37.56 77.78,-44.4"/>
</g>
<!-- Node3 -->
<g id="node3" class="node">
<title>Node3</title>
<g id="a_node3"><a xlink:href="neighbor_8f90.html#af3e60cdbfdddb60ed55499bbfb07825c" target="_top" xlink:title=" ">
<polygon fill="white" stroke="black" points="82,-0.5 82,-19.5 141,-19.5 141,-0.5 82,-0.5"/>
<text text-anchor="middle" x="111.5" y="-7.5" font-family="Helvetica,sans-Serif" font-size="10.00">neighborh</text>
</a>
</g>
</g>
<!-- Node1&#45;&gt;Node3 -->
<g id="edge2" class="edge">
<title>Node1&#45;&gt;Node3</title>
<path fill="none" stroke="midnightblue" d="M46.28,-24.11C54.05,-22.4 63.01,-20.43 71.73,-18.52"/>
<polygon fill="midnightblue" stroke="midnightblue" points="72.75,-21.88 81.76,-16.31 71.25,-15.04 72.75,-21.88"/>
</g>
<!-- Node4 -->
<g id="node4" class="node">
<title>Node4</title>
<g id="a_node4"><a xlink:href="symmetry__i_8c.html#aa77c823a9fc018ae1d437369708d8727" target="_top" xlink:title=" ">
<polygon fill="white" stroke="black" points="177,-0.5 177,-19.5 210,-19.5 210,-0.5 177,-0.5"/>
<text text-anchor="middle" x="193.5" y="-7.5" font-family="Helvetica,sans-Serif" font-size="10.00">true</text>
</a>
</g>
</g>
<!-- Node3&#45;&gt;Node4 -->
<g id="edge3" class="edge">
<title>Node3&#45;&gt;Node4</title>
<path fill="none" stroke="midnightblue" d="M141.38,-10C149.72,-10 158.76,-10 166.89,-10"/>
<polygon fill="midnightblue" stroke="midnightblue" points="166.91,-13.5 176.91,-10 166.91,-6.5 166.91,-13.5"/>
</g>
</g>
</svg>
