<?xml version="1.0" encoding="UTF-8" standalone="no"?>
<!DOCTYPE svg PUBLIC "-//W3C//DTD SVG 1.1//EN"
 "http://www.w3.org/Graphics/SVG/1.1/DTD/svg11.dtd">
<!-- Generated by graphviz version 2.46.1 (20210215.1649)
 -->
<!-- Title: generate_wsc Pages: 1 -->
<svg width="368pt" height="203pt"
 viewBox="0.00 0.00 368.00 202.50" xmlns="http://www.w3.org/2000/svg" xmlns:xlink="http://www.w3.org/1999/xlink">
<g id="graph0" class="graph" transform="scale(1 1) rotate(0) translate(4 198.5)">
<title>generate_wsc</title>
<polygon fill="white" stroke="transparent" points="-4,4 -4,-198.5 364,-198.5 364,4 -4,4"/>
<!-- Node1 -->
<g id="node1" class="node">
<title>Node1</title>
<g id="a_node1"><a xlink:title="generate a Wigner–Seitz cell from a given structure">
<polygon fill="#bfbfbf" stroke="black" points="283,-76.5 283,-95.5 360,-95.5 360,-76.5 283,-76.5"/>
<text text-anchor="middle" x="321.5" y="-83.5" font-family="Helvetica,sans-Serif" font-size="10.00">generate_wsc</text>
</a>
</g>
</g>
<!-- Node2 -->
<g id="node2" class="node">
<title>Node2</title>
<g id="a_node2"><a xlink:href="interfacextb__type__molecule_1_1init.html#ac0e7bcd1cdf67e44a76b9b9b31bbff4c" target="_top" xlink:title="Constructor for the molecular structure type.">
<polygon fill="white" stroke="black" points="125,-164 125,-194 226,-194 226,-164 125,-164"/>
<text text-anchor="start" x="133" y="-182" font-family="Helvetica,sans-Serif" font-size="10.00">xtb_type_molecule::</text>
<text text-anchor="middle" x="175.5" y="-171" font-family="Helvetica,sans-Serif" font-size="10.00">init::initmolecule</text>
</a>
</g>
</g>
<!-- Node1&#45;&gt;Node2 -->
<g id="edge1" class="edge">
<title>Node1&#45;&gt;Node2</title>
<path fill="none" stroke="midnightblue" d="M305.68,-103.65C291.89,-119.1 270.04,-141.16 247,-155 240.57,-158.86 233.44,-162.21 226.25,-165.07"/>
<polygon fill="midnightblue" stroke="midnightblue" points="308.55,-105.69 312.47,-95.85 303.27,-101.1 308.55,-105.69"/>
</g>
<!-- Node3 -->
<g id="node3" class="node">
<title>Node3</title>
<g id="a_node3"><a xlink:href="structxtb__type__molecule_1_1tmolecule.html#aa6a9303ca81f04f7ce1cad8814c787be" target="_top" xlink:title="Constructor for the molecular structure type, compatible with C input.">
<polygon fill="white" stroke="black" points="104,-115 104,-145 247,-145 247,-115 104,-115"/>
<text text-anchor="start" x="112" y="-133" font-family="Helvetica,sans-Serif" font-size="10.00">xtb_type_molecule::</text>
<text text-anchor="middle" x="175.5" y="-122" font-family="Helvetica,sans-Serif" font-size="10.00">tmolecule::new_molecule_api</text>
</a>
</g>
</g>
<!-- Node1&#45;&gt;Node3 -->
<g id="edge2" class="edge">
<title>Node1&#45;&gt;Node3</title>
<path fill="none" stroke="midnightblue" d="M279.27,-98.6C262.6,-103.69 243.21,-109.62 225.8,-114.93"/>
<polygon fill="midnightblue" stroke="midnightblue" points="280.71,-101.82 289.25,-95.55 278.67,-95.12 280.71,-101.82"/>
</g>
<!-- Node4 -->
<g id="node4" class="node">
<title>Node4</title>
<g id="a_node4"><a xlink:href="TESTSUITE_2relaxation__engine_8f90.html#acf22b57cb8b0eba89caaf5c7a16eab02" target="_top" xlink:title=" ">
<polygon fill="white" stroke="black" points="130,-76.5 130,-95.5 221,-95.5 221,-76.5 130,-76.5"/>
<text text-anchor="middle" x="175.5" y="-83.5" font-family="Helvetica,sans-Serif" font-size="10.00">test_pbc_lancopt</text>
</a>
</g>
</g>
<!-- Node1&#45;&gt;Node4 -->
<g id="edge3" class="edge">
<title>Node1&#45;&gt;Node4</title>
<path fill="none" stroke="midnightblue" d="M272.63,-86C256.06,-86 237.56,-86 221.24,-86"/>
<polygon fill="midnightblue" stroke="midnightblue" points="272.67,-89.5 282.67,-86 272.67,-82.5 272.67,-89.5"/>
</g>
<!-- Node5 -->
<g id="node5" class="node">
<title>Node5</title>
<g id="a_node5"><a xlink:href="tbdef__wsc_8f90.html#a7972473de6a91557309188d7ba721577" target="_top" xlink:title=" ">
<polygon fill="white" stroke="black" points="121.5,-38.5 121.5,-57.5 229.5,-57.5 229.5,-38.5 121.5,-38.5"/>
<text text-anchor="middle" x="175.5" y="-45.5" font-family="Helvetica,sans-Serif" font-size="10.00">test_wigner_seitz_0d</text>
</a>
</g>
</g>
<!-- Node1&#45;&gt;Node5 -->
<g id="edge4" class="edge">
<title>Node1&#45;&gt;Node5</title>
<path fill="none" stroke="midnightblue" d="M274.33,-73.82C254.34,-68.54 231.28,-62.46 212.58,-57.52"/>
<polygon fill="midnightblue" stroke="midnightblue" points="273.6,-77.24 284.16,-76.41 275.39,-70.48 273.6,-77.24"/>
</g>
<!-- Node7 -->
<g id="node7" class="node">
<title>Node7</title>
<g id="a_node7"><a xlink:href="tbdef__wsc_8f90.html#af5c700bef55d7249f638845b4df4513c" target="_top" xlink:title=" ">
<polygon fill="white" stroke="black" points="121.5,-0.5 121.5,-19.5 229.5,-19.5 229.5,-0.5 121.5,-0.5"/>
<text text-anchor="middle" x="175.5" y="-7.5" font-family="Helvetica,sans-Serif" font-size="10.00">test_wigner_seitz_3d</text>
</a>
</g>
</g>
<!-- Node1&#45;&gt;Node7 -->
<g id="edge6" class="edge">
<title>Node1&#45;&gt;Node7</title>
<path fill="none" stroke="midnightblue" d="M303.47,-69.58C289.37,-56.82 268.27,-39.58 247,-29 239.4,-25.22 230.94,-22.12 222.61,-19.59"/>
<polygon fill="midnightblue" stroke="midnightblue" points="301.2,-72.25 310.91,-76.49 305.96,-67.12 301.2,-72.25"/>
</g>
<!-- Node6 -->
<g id="node6" class="node">
<title>Node6</title>
<g id="a_node6"><a xlink:href="tests__peeq_8f90.html#a87ff5319e0d2e627a4f71d7df0d14891" target="_top" xlink:title=" ">
<polygon fill="white" stroke="black" points="0,-19.5 0,-38.5 68,-38.5 68,-19.5 0,-19.5"/>
<text text-anchor="middle" x="34" y="-26.5" font-family="Helvetica,sans-Serif" font-size="10.00">peeq_tester</text>
</a>
</g>
</g>
<!-- Node5&#45;&gt;Node6 -->
<g id="edge5" class="edge">
<title>Node5&#45;&gt;Node6</title>
<path fill="none" stroke="midnightblue" d="M111.19,-39.38C96.35,-37.36 81.11,-35.28 68.21,-33.52"/>
<polygon fill="midnightblue" stroke="midnightblue" points="110.98,-42.88 121.36,-40.76 111.93,-35.95 110.98,-42.88"/>
</g>
<!-- Node7&#45;&gt;Node6 -->
<g id="edge7" class="edge">
<title>Node7&#45;&gt;Node6</title>
<path fill="none" stroke="midnightblue" d="M111.19,-18.62C96.35,-20.64 81.11,-22.72 68.21,-24.48"/>
<polygon fill="midnightblue" stroke="midnightblue" points="111.93,-22.05 121.36,-17.24 110.98,-15.12 111.93,-22.05"/>
</g>
</g>
</svg>
