<?xml version="1.0" encoding="UTF-8" standalone="no"?>
<!DOCTYPE svg PUBLIC "-//W3C//DTD SVG 1.1//EN"
 "http://www.w3.org/Graphics/SVG/1.1/DTD/svg11.dtd">
<!-- Generated by graphviz version 2.46.1 (20210215.1649)
 -->
<!-- Title: print_geosum Pages: 1 -->
<!--zoomable 458 -->
<svg id="main" version="1.1" xmlns="http://www.w3.org/2000/svg" xmlns:xlink="http://www.w3.org/1999/xlink" xml:space="preserve" onload="init(evt)">
<style type="text/css"><![CDATA[
.edge:hover path { stroke: red; }
.edge:hover polygon { stroke: red; fill: red; }
]]></style>
<script type="text/javascript"><![CDATA[
var edges = document.getElementsByTagName('g');
if (edges && edges.length) {
  for (var i=0;i<edges.length;i++) {
    if (edges[i].id.substr(0,4)=='edge') {
      edges[i].setAttribute('class','edge');
    }
  }
}
]]></script>
        <defs>
                <circle id="rim" cx="0" cy="0" r="7"/>
                <circle id="rim2" cx="0" cy="0" r="3.5"/>
                <g id="zoomPlus">
                        <use xlink:href="#rim" fill="#404040">
                                <set attributeName="fill" to="#808080" begin="zoomplus.mouseover" end="zoomplus.mouseout"/>
                        </use>
                        <path d="M-4,0h8M0,-4v8" fill="none" stroke="white" stroke-width="1.5" pointer-events="none"/>
                </g>
                <g id="zoomMin">
                        <use xlink:href="#rim" fill="#404040">
                                <set attributeName="fill" to="#808080" begin="zoomminus.mouseover" end="zoomminus.mouseout"/>
                        </use>
                        <path d="M-4,0h8" fill="none" stroke="white" stroke-width="1.5" pointer-events="none"/>
                </g>
                <g id="dirArrow">
                        <path fill="none" stroke="white" stroke-width="1.5" d="M0,-3.0v7 M-2.5,-0.5L0,-3.0L2.5,-0.5"/>
                </g>
               <g id="resetDef">
                       <use xlink:href="#rim2" fill="#404040">
                               <set attributeName="fill" to="#808080" begin="reset.mouseover" end="reset.mouseout"/>
                       </use>
               </g>
        </defs>

<script type="text/javascript">
var viewWidth = 732;
var viewHeight = 458;
var sectionId = 'dynsection-20';
</script>
<script xlink:href="svgpan.js"/>
<svg id="graph" class="graph">
<g id="viewport">
<title>print_geosum</title>
<polygon fill="white" stroke="transparent" points="-4,4 -4,-453.5 728,-453.5 728,4 -4,4"/>
<!-- Node1 -->
<g id="node1" class="node">
<title>Node1</title>
<g id="a_node1"><a xlink:title=" ">
<polygon fill="#bfbfbf" stroke="black" points="0,-228.5 0,-247.5 75,-247.5 75,-228.5 0,-228.5"/>
<text text-anchor="middle" x="37.5" y="-235.5" font-family="Helvetica,sans-Serif" font-size="10.00">print_geosum</text>
</a>
</g>
</g>
<!-- Node2 -->
<g id="node2" class="node">
<title>Node2</title>
<g id="a_node2"><a xlink:href="namespacextb__approxrab.html#a26e6aa01d1224dd177e9491ae296d652" target="_top" xlink:title=" ">
<polygon fill="white" stroke="black" points="124.5,-419 124.5,-449 234.5,-449 234.5,-419 124.5,-419"/>
<text text-anchor="start" x="132.5" y="-437" font-family="Helvetica,sans-Serif" font-size="10.00">xtb_approxrab::approx</text>
<text text-anchor="middle" x="179.5" y="-426" font-family="Helvetica,sans-Serif" font-size="10.00">_bonds</text>
</a>
</g>
</g>
<!-- Node1&#45;&gt;Node2 -->
<g id="edge1" class="edge">
<title>Node1&#45;&gt;Node2</title>
<path fill="none" stroke="midnightblue" d="M39.87,-247.64C44.45,-276.32 61.79,-362.02 111,-409 112.65,-410.58 114.41,-412.06 116.26,-413.45"/>
<polygon fill="midnightblue" stroke="midnightblue" points="114.51,-416.48 124.81,-418.96 118.3,-410.6 114.51,-416.48"/>
</g>
<!-- Node4 -->
<g id="node4" class="node">
<title>Node4</title>
<g id="a_node4"><a xlink:href="geometry_8f90.html#aab80ef9492e0b7c6aa434d44a6a2e7b0" target="_top" xlink:title=" ">
<polygon fill="white" stroke="black" points="145.5,-380.5 145.5,-399.5 213.5,-399.5 213.5,-380.5 145.5,-380.5"/>
<text text-anchor="middle" x="179.5" y="-387.5" font-family="Helvetica,sans-Serif" font-size="10.00">calc_angles</text>
</a>
</g>
</g>
<!-- Node1&#45;&gt;Node4 -->
<g id="edge3" class="edge">
<title>Node1&#45;&gt;Node4</title>
<path fill="none" stroke="midnightblue" d="M40.97,-247.73C47.71,-272.32 68.85,-337.39 111,-371 118.12,-376.68 126.85,-380.66 135.64,-383.45"/>
<polygon fill="midnightblue" stroke="midnightblue" points="134.93,-386.89 145.49,-386.13 136.76,-380.13 134.93,-386.89"/>
</g>
<!-- Node6 -->
<g id="node6" class="node">
<title>Node6</title>
<g id="a_node6"><a xlink:href="geometry_8f90.html#ab2d4bab965285e2c35d8342a22ce2d45" target="_top" xlink:title=" ">
<polygon fill="white" stroke="black" points="138.5,-342.5 138.5,-361.5 220.5,-361.5 220.5,-342.5 138.5,-342.5"/>
<text text-anchor="middle" x="179.5" y="-349.5" font-family="Helvetica,sans-Serif" font-size="10.00">calc_distances</text>
</a>
</g>
</g>
<!-- Node1&#45;&gt;Node6 -->
<g id="edge5" class="edge">
<title>Node1&#45;&gt;Node6</title>
<path fill="none" stroke="midnightblue" d="M43.19,-247.74C52.99,-267.05 77.53,-310.27 111,-333 116.35,-336.64 122.39,-339.58 128.6,-341.97"/>
<polygon fill="midnightblue" stroke="midnightblue" points="127.84,-345.4 138.43,-345.27 130.07,-338.77 127.84,-345.4"/>
</g>
<!-- Node7 -->
<g id="node7" class="node">
<title>Node7</title>
<g id="a_node7"><a xlink:href="geometry_8f90.html#a548ed51724367c60fe07eb362f66b7f6" target="_top" xlink:title=" ">
<polygon fill="white" stroke="black" points="142.5,-304.5 142.5,-323.5 216.5,-323.5 216.5,-304.5 142.5,-304.5"/>
<text text-anchor="middle" x="179.5" y="-311.5" font-family="Helvetica,sans-Serif" font-size="10.00">calc_torsions</text>
</a>
</g>
</g>
<!-- Node1&#45;&gt;Node7 -->
<g id="edge6" class="edge">
<title>Node1&#45;&gt;Node7</title>
<path fill="none" stroke="midnightblue" d="M48.41,-247.91C61.6,-260.58 86.17,-282.37 111,-295 117.79,-298.45 125.3,-301.35 132.76,-303.76"/>
<polygon fill="midnightblue" stroke="midnightblue" points="131.9,-307.16 142.48,-306.66 133.9,-300.45 131.9,-307.16"/>
</g>
<!-- Node12 -->
<g id="node12" class="node">
<title>Node12</title>
<g id="a_node12"><a xlink:href="header_8f90.html#aa5f107f7eca06612b547c0745e5bbab2" target="_top" xlink:title=" ">
<polygon fill="white" stroke="black" points="138,-266.5 138,-285.5 221,-285.5 221,-266.5 138,-266.5"/>
<text text-anchor="middle" x="179.5" y="-273.5" font-family="Helvetica,sans-Serif" font-size="10.00">generic_header</text>
</a>
</g>
</g>
<!-- Node1&#45;&gt;Node12 -->
<g id="edge12" class="edge">
<title>Node1&#45;&gt;Node12</title>
<path fill="none" stroke="midnightblue" d="M73.83,-247.59C91.9,-252.49 114.1,-258.52 133.39,-263.76"/>
<polygon fill="midnightblue" stroke="midnightblue" points="132.62,-267.17 143.18,-266.41 134.45,-260.42 132.62,-267.17"/>
</g>
<!-- Node13 -->
<g id="node13" class="node">
<title>Node13</title>
<g id="a_node13"><a xlink:href="namespacextb__disp__ncoord.html#a499dfc9ca2e6e04e01f2845d234ea8f5" target="_top" xlink:title=" ">
<polygon fill="white" stroke="black" points="111,-228.5 111,-247.5 248,-247.5 248,-228.5 111,-228.5"/>
<text text-anchor="middle" x="179.5" y="-235.5" font-family="Helvetica,sans-Serif" font-size="10.00">xtb_disp_ncoord::ncoord_erf</text>
</a>
</g>
</g>
<!-- Node1&#45;&gt;Node13 -->
<g id="edge13" class="edge">
<title>Node1&#45;&gt;Node13</title>
<path fill="none" stroke="midnightblue" d="M75.28,-238C83.23,-238 91.92,-238 100.78,-238"/>
<polygon fill="midnightblue" stroke="midnightblue" points="100.82,-241.5 110.82,-238 100.82,-234.5 100.82,-241.5"/>
</g>
<!-- Node14 -->
<g id="node14" class="node">
<title>Node14</title>
<g id="a_node14"><a xlink:href="geometry_8f90.html#a4d2bb384ce483a743db9dc9e11a161db" target="_top" xlink:title=" ">
<polygon fill="white" stroke="black" points="145,-190.5 145,-209.5 214,-209.5 214,-190.5 145,-190.5"/>
<text text-anchor="middle" x="179.5" y="-197.5" font-family="Helvetica,sans-Serif" font-size="10.00">print_angles</text>
</a>
</g>
</g>
<!-- Node1&#45;&gt;Node14 -->
<g id="edge14" class="edge">
<title>Node1&#45;&gt;Node14</title>
<path fill="none" stroke="midnightblue" d="M73.83,-228.41C92.31,-223.39 115.12,-217.2 134.72,-211.88"/>
<polygon fill="midnightblue" stroke="midnightblue" points="135.9,-215.19 144.63,-209.19 134.06,-208.43 135.9,-215.19"/>
</g>
<!-- Node17 -->
<g id="node17" class="node">
<title>Node17</title>
<g id="a_node17"><a xlink:href="geometry_8f90.html#a554df298dcbe9e99639fdcb97d279e23" target="_top" xlink:title=" ">
<polygon fill="white" stroke="black" points="138,-152.5 138,-171.5 221,-171.5 221,-152.5 138,-152.5"/>
<text text-anchor="middle" x="179.5" y="-159.5" font-family="Helvetica,sans-Serif" font-size="10.00">print_distances</text>
</a>
</g>
</g>
<!-- Node1&#45;&gt;Node17 -->
<g id="edge17" class="edge">
<title>Node1&#45;&gt;Node17</title>
<path fill="none" stroke="midnightblue" d="M48.41,-228.09C61.6,-215.42 86.17,-193.63 111,-181 116.35,-178.28 122.15,-175.9 128.02,-173.83"/>
<polygon fill="midnightblue" stroke="midnightblue" points="129.46,-177.05 137.9,-170.65 127.31,-170.39 129.46,-177.05"/>
</g>
<!-- Node18 -->
<g id="node18" class="node">
<title>Node18</title>
<g id="a_node18"><a xlink:href="geometry_8f90.html#a639eac540337b43593b473d984aae1fd" target="_top" xlink:title=" ">
<polygon fill="white" stroke="black" points="138,-114.5 138,-133.5 221,-133.5 221,-114.5 138,-114.5"/>
<text text-anchor="middle" x="179.5" y="-121.5" font-family="Helvetica,sans-Serif" font-size="10.00">print_elem_dist</text>
</a>
</g>
</g>
<!-- Node1&#45;&gt;Node18 -->
<g id="edge19" class="edge">
<title>Node1&#45;&gt;Node18</title>
<path fill="none" stroke="midnightblue" d="M43.19,-228.26C52.99,-208.95 77.53,-165.73 111,-143 116.22,-139.45 122.1,-136.56 128.15,-134.21"/>
<polygon fill="midnightblue" stroke="midnightblue" points="129.39,-137.48 137.73,-130.94 127.13,-130.86 129.39,-137.48"/>
</g>
<!-- Node19 -->
<g id="node19" class="node">
<title>Node19</title>
<g id="a_node19"><a xlink:href="geometry_8f90.html#a684141ddf0ffbb21ab4cb6dcd3f72420" target="_top" xlink:title=" ">
<polygon fill="white" stroke="black" points="139,-38.5 139,-57.5 220,-57.5 220,-38.5 139,-38.5"/>
<text text-anchor="middle" x="179.5" y="-45.5" font-family="Helvetica,sans-Serif" font-size="10.00">print_moments</text>
</a>
</g>
</g>
<!-- Node1&#45;&gt;Node19 -->
<g id="edge21" class="edge">
<title>Node1&#45;&gt;Node19</title>
<path fill="none" stroke="midnightblue" d="M39.7,-228.17C43.8,-198.98 59.94,-111.97 111,-67 116.22,-62.4 122.47,-58.91 129.03,-56.26"/>
<polygon fill="midnightblue" stroke="midnightblue" points="130.43,-59.48 138.78,-52.95 128.18,-52.85 130.43,-59.48"/>
</g>
<!-- Node23 -->
<g id="node23" class="node">
<title>Node23</title>
<g id="a_node23"><a xlink:href="geometry_8f90.html#aed5ee91d57d2f80fc394aa9ab98ba14e" target="_top" xlink:title=" ">
<polygon fill="white" stroke="black" points="142,-76.5 142,-95.5 217,-95.5 217,-76.5 142,-76.5"/>
<text text-anchor="middle" x="179.5" y="-83.5" font-family="Helvetica,sans-Serif" font-size="10.00">print_torsions</text>
</a>
</g>
</g>
<!-- Node1&#45;&gt;Node23 -->
<g id="edge26" class="edge">
<title>Node1&#45;&gt;Node23</title>
<path fill="none" stroke="midnightblue" d="M40.97,-228.27C47.71,-203.68 68.85,-138.61 111,-105 117.16,-100.09 124.51,-96.45 132.07,-93.75"/>
<polygon fill="midnightblue" stroke="midnightblue" points="133.13,-97.08 141.67,-90.81 131.08,-90.39 133.13,-97.08"/>
</g>
<!-- Node3 -->
<g id="node3" class="node">
<title>Node3</title>
<g id="a_node3"><a xlink:href="namespacextb__approxrab.html#a173588bbfef4a08a37b226b9b7bd669f" target="_top" xlink:title=" ">
<polygon fill="white" stroke="black" points="310,-424.5 310,-443.5 399,-443.5 399,-424.5 310,-424.5"/>
<text text-anchor="middle" x="354.5" y="-431.5" font-family="Helvetica,sans-Serif" font-size="10.00">xtb_approxrab::itr</text>
</a>
</g>
</g>
<!-- Node2&#45;&gt;Node3 -->
<g id="edge2" class="edge">
<title>Node2&#45;&gt;Node3</title>
<path fill="none" stroke="midnightblue" d="M234.76,-434C255.45,-434 279,-434 299.65,-434"/>
<polygon fill="midnightblue" stroke="midnightblue" points="299.83,-437.5 309.83,-434 299.83,-430.5 299.83,-437.5"/>
</g>
<!-- Node5 -->
<g id="node5" class="node">
<title>Node5</title>
<g id="a_node5"><a xlink:href="constr_8f90.html#a32be9c5b624117bb5292ce41655493c1" target="_top" xlink:title=" ">
<polygon fill="white" stroke="black" points="334.5,-380.5 334.5,-399.5 374.5,-399.5 374.5,-380.5 334.5,-380.5"/>
<text text-anchor="middle" x="354.5" y="-387.5" font-family="Helvetica,sans-Serif" font-size="10.00">bangl</text>
</a>
</g>
</g>
<!-- Node4&#45;&gt;Node5 -->
<g id="edge4" class="edge">
<title>Node4&#45;&gt;Node5</title>
<path fill="none" stroke="midnightblue" d="M213.86,-390C245.83,-390 293.61,-390 324.17,-390"/>
<polygon fill="midnightblue" stroke="midnightblue" points="324.2,-393.5 334.2,-390 324.2,-386.5 324.2,-393.5"/>
</g>
<!-- Node8 -->
<g id="node8" class="node">
<title>Node8</title>
<g id="a_node8"><a xlink:href="constr_8f90.html#a8b9983c57e44abcd5ef71525d9a9917b" target="_top" xlink:title=" ">
<polygon fill="white" stroke="black" points="334,-304.5 334,-323.5 375,-323.5 375,-304.5 334,-304.5"/>
<text text-anchor="middle" x="354.5" y="-311.5" font-family="Helvetica,sans-Serif" font-size="10.00">valijkl</text>
</a>
</g>
</g>
<!-- Node7&#45;&gt;Node8 -->
<g id="edge7" class="edge">
<title>Node7&#45;&gt;Node8</title>
<path fill="none" stroke="midnightblue" d="M216.77,-314C248.53,-314 294.14,-314 323.79,-314"/>
<polygon fill="midnightblue" stroke="midnightblue" points="323.93,-317.5 333.93,-314 323.93,-310.5 323.93,-317.5"/>
</g>
<!-- Node9 -->
<g id="node9" class="node">
<title>Node9</title>
<g id="a_node9"><a xlink:href="constr_8f90.html#a10258b751fb1a02456622523df6e8b49" target="_top" xlink:title=" ">
<polygon fill="white" stroke="black" points="518,-342.5 518,-361.5 577,-361.5 577,-342.5 518,-342.5"/>
<text text-anchor="middle" x="547.5" y="-349.5" font-family="Helvetica,sans-Serif" font-size="10.00">crossprod</text>
</a>
</g>
</g>
<!-- Node8&#45;&gt;Node9 -->
<g id="edge8" class="edge">
<title>Node8&#45;&gt;Node9</title>
<path fill="none" stroke="midnightblue" d="M375.22,-317.92C406.44,-324.13 467.79,-336.34 507.96,-344.33"/>
<polygon fill="midnightblue" stroke="midnightblue" points="507.45,-347.8 517.94,-346.32 508.81,-340.93 507.45,-347.8"/>
</g>
<!-- Node10 -->
<g id="node10" class="node">
<title>Node10</title>
<g id="a_node10"><a xlink:href="constr_8f90.html#a5fc70d66b0231afec39209517852b818" target="_top" xlink:title=" ">
<polygon fill="white" stroke="black" points="528,-304.5 528,-323.5 567,-323.5 567,-304.5 528,-304.5"/>
<text text-anchor="middle" x="547.5" y="-311.5" font-family="Helvetica,sans-Serif" font-size="10.00">valijk</text>
</a>
</g>
</g>
<!-- Node8&#45;&gt;Node10 -->
<g id="edge9" class="edge">
<title>Node8&#45;&gt;Node10</title>
<path fill="none" stroke="midnightblue" d="M375.22,-314C409.02,-314 478.18,-314 517.49,-314"/>
<polygon fill="midnightblue" stroke="midnightblue" points="517.73,-317.5 527.73,-314 517.73,-310.5 517.73,-317.5"/>
</g>
<!-- Node11 -->
<g id="node11" class="node">
<title>Node11</title>
<g id="a_node11"><a xlink:href="constr_8f90.html#af5b7bb0960a128b6ee8d53b2f0ba2135" target="_top" xlink:title=" ">
<polygon fill="white" stroke="black" points="670,-285.5 670,-304.5 724,-304.5 724,-285.5 670,-285.5"/>
<text text-anchor="middle" x="697" y="-292.5" font-family="Helvetica,sans-Serif" font-size="10.00">vecnorm</text>
</a>
</g>
</g>
<!-- Node8&#45;&gt;Node11 -->
<g id="edge11" class="edge">
<title>Node8&#45;&gt;Node11</title>
<path fill="none" stroke="midnightblue" d="M375.19,-309.37C396.28,-304.66 430.78,-297.7 461,-295 531.12,-288.74 613.48,-290.92 659.73,-293"/>
<polygon fill="midnightblue" stroke="midnightblue" points="659.7,-296.51 669.85,-293.49 660.03,-289.51 659.7,-296.51"/>
</g>
<!-- Node10&#45;&gt;Node11 -->
<g id="edge10" class="edge">
<title>Node10&#45;&gt;Node11</title>
<path fill="none" stroke="midnightblue" d="M567.18,-311.59C590.31,-308.61 630.23,-303.47 659.51,-299.7"/>
<polygon fill="midnightblue" stroke="midnightblue" points="660.3,-303.13 669.77,-298.38 659.4,-296.19 660.3,-303.13"/>
</g>
<!-- Node15 -->
<g id="node15" class="node">
<title>Node15</title>
<g id="a_node15"><a xlink:href="namespacextb__mctc__symbols.html#abe837ad333242b4dd3073c5747c13e28" target="_top" xlink:title="Convert atomic number to element symbol.">
<polygon fill="white" stroke="black" points="284,-133.5 284,-152.5 425,-152.5 425,-133.5 284,-133.5"/>
<text text-anchor="middle" x="354.5" y="-140.5" font-family="Helvetica,sans-Serif" font-size="10.00">xtb_mctc_symbols::tosymbol</text>
</a>
</g>
</g>
<!-- Node14&#45;&gt;Node15 -->
<g id="edge15" class="edge">
<title>Node14&#45;&gt;Node15</title>
<path fill="none" stroke="midnightblue" d="M214.29,-191C225.11,-187.98 237.1,-184.49 248,-181 271.9,-173.34 298.48,-163.76 318.98,-156.14"/>
<polygon fill="midnightblue" stroke="midnightblue" points="320.38,-159.35 328.52,-152.57 317.93,-152.79 320.38,-159.35"/>
</g>
<!-- Node16 -->
<g id="node16" class="node">
<title>Node16</title>
<g id="a_node16"><a xlink:href="namespacextb__mctc__symbols.html#a79bd74e1e6f1eae5387d103d33088dc8" target="_top" xlink:title="Convert atomic number to element symbol.">
<polygon fill="white" stroke="black" points="461,-133.5 461,-152.5 634,-152.5 634,-133.5 461,-133.5"/>
<text text-anchor="middle" x="547.5" y="-140.5" font-family="Helvetica,sans-Serif" font-size="10.00">xtb_mctc_symbols::numbertosymbol</text>
</a>
</g>
</g>
<!-- Node15&#45;&gt;Node16 -->
<g id="edge16" class="edge">
<title>Node15&#45;&gt;Node16</title>
<path fill="none" stroke="midnightblue" d="M425.27,-143C433.61,-143 442.25,-143 450.88,-143"/>
<polygon fill="midnightblue" stroke="midnightblue" points="451,-146.5 461,-143 451,-139.5 451,-146.5"/>
</g>
<!-- Node17&#45;&gt;Node15 -->
<g id="edge18" class="edge">
<title>Node17&#45;&gt;Node15</title>
<path fill="none" stroke="midnightblue" d="M221.06,-157.55C236.82,-155.81 255.44,-153.77 273.67,-151.77"/>
<polygon fill="midnightblue" stroke="midnightblue" points="274.17,-155.23 283.73,-150.66 273.41,-148.28 274.17,-155.23"/>
</g>
<!-- Node18&#45;&gt;Node15 -->
<g id="edge20" class="edge">
<title>Node18&#45;&gt;Node15</title>
<path fill="none" stroke="midnightblue" d="M221.06,-128.45C236.82,-130.19 255.44,-132.23 273.67,-134.23"/>
<polygon fill="midnightblue" stroke="midnightblue" points="273.41,-137.72 283.73,-135.34 274.17,-130.77 273.41,-137.72"/>
</g>
<!-- Node20 -->
<g id="node20" class="node">
<title>Node20</title>
<g id="a_node20"><a xlink:href="geometry_8f90.html#abcc4a95301fdef1b928745a44f3ef1d9" target="_top" xlink:title=" ">
<polygon fill="white" stroke="black" points="504.5,-38.5 504.5,-57.5 590.5,-57.5 590.5,-38.5 504.5,-38.5"/>
<text text-anchor="middle" x="547.5" y="-45.5" font-family="Helvetica,sans-Serif" font-size="10.00">center_of_mass</text>
</a>
</g>
</g>
<!-- Node19&#45;&gt;Node20 -->
<g id="edge22" class="edge">
<title>Node19&#45;&gt;Node20</title>
<path fill="none" stroke="midnightblue" d="M220.08,-57.01C239.27,-60.93 262.71,-65.06 284,-67 346.41,-72.68 362.52,-71.86 425,-67 447.88,-65.22 472.96,-61.59 494.37,-57.97"/>
<polygon fill="midnightblue" stroke="midnightblue" points="494.98,-61.42 504.24,-56.26 493.79,-54.52 494.98,-61.42"/>
</g>
<!-- Node21 -->
<g id="node21" class="node">
<title>Node21</title>
<g id="a_node21"><a xlink:href="geometry_8f90.html#ab6971bf063696638f9c2fc77b0679642" target="_top" xlink:title=" ">
<polygon fill="white" stroke="black" points="310.5,-38.5 310.5,-57.5 398.5,-57.5 398.5,-38.5 310.5,-38.5"/>
<text text-anchor="middle" x="354.5" y="-45.5" font-family="Helvetica,sans-Serif" font-size="10.00">molecular_mass</text>
</a>
</g>
</g>
<!-- Node19&#45;&gt;Node21 -->
<g id="edge23" class="edge">
<title>Node19&#45;&gt;Node21</title>
<path fill="none" stroke="midnightblue" d="M220.19,-48C243.97,-48 274.5,-48 300.34,-48"/>
<polygon fill="midnightblue" stroke="midnightblue" points="300.36,-51.5 310.36,-48 300.36,-44.5 300.36,-51.5"/>
</g>
<!-- Node22 -->
<g id="node22" class="node">
<title>Node22</title>
<g id="a_node22"><a xlink:href="geometry_8f90.html#ab0a97b6ae10e9a4118d97db1ccd8b92c" target="_top" xlink:title=" ">
<polygon fill="white" stroke="black" points="303.5,-0.5 303.5,-19.5 405.5,-19.5 405.5,-0.5 303.5,-0.5"/>
<text text-anchor="middle" x="354.5" y="-7.5" font-family="Helvetica,sans-Serif" font-size="10.00">moments_of_inertia</text>
</a>
</g>
</g>
<!-- Node19&#45;&gt;Node22 -->
<g id="edge24" class="edge">
<title>Node19&#45;&gt;Node22</title>
<path fill="none" stroke="midnightblue" d="M220.19,-39.28C243.88,-34.08 274.27,-27.4 300.05,-21.74"/>
<polygon fill="midnightblue" stroke="midnightblue" points="301.04,-25.11 310.05,-19.54 299.53,-18.27 301.04,-25.11"/>
</g>
<!-- Node22&#45;&gt;Node20 -->
<g id="edge25" class="edge">
<title>Node22&#45;&gt;Node20</title>
<path fill="none" stroke="midnightblue" d="M403.7,-19.59C431.35,-25.09 466.09,-32 494.38,-37.63"/>
<polygon fill="midnightblue" stroke="midnightblue" points="494,-41.12 504.49,-39.64 495.36,-34.26 494,-41.12"/>
</g>
<!-- Node23&#45;&gt;Node15 -->
<g id="edge27" class="edge">
<title>Node23&#45;&gt;Node15</title>
<path fill="none" stroke="midnightblue" d="M216.37,-95.59C226.63,-98.46 237.8,-101.73 248,-105 271.9,-112.66 298.48,-122.24 318.98,-129.86"/>
<polygon fill="midnightblue" stroke="midnightblue" points="317.93,-133.21 328.52,-133.43 320.38,-126.65 317.93,-133.21"/>
</g>
</g>
</svg>
        <g id="navigator" transform="translate(0 0)" fill="#404254">
                <rect fill="#f2f5e9" fill-opacity="0.5" stroke="#606060" stroke-width=".5" x="0" y="0" width="60" height="60"/>
                <use id="zoomplus" xlink:href="#zoomPlus" x="17" y="9" onmousedown="handleZoom(evt,'in')"/>
                <use id="zoomminus" xlink:href="#zoomMin" x="42" y="9" onmousedown="handleZoom(evt,'out')"/>
                <use id="reset" xlink:href="#resetDef" x="30" y="36" onmousedown="handleReset()"/>
                <g id="arrowUp" xlink:href="#dirArrow" transform="translate(30 24)" onmousedown="handlePan(0,-1)">
                  <use xlink:href="#rim" fill="#404040">
                        <set attributeName="fill" to="#808080" begin="arrowUp.mouseover" end="arrowUp.mouseout"/>
                  </use>
                  <path fill="none" stroke="white" stroke-width="1.5" d="M0,-3.0v7 M-2.5,-0.5L0,-3.0L2.5,-0.5"/>
                </g>
                <g id="arrowRight" xlink:href="#dirArrow" transform="rotate(90) translate(36 -43)" onmousedown="handlePan(1,0)">
                  <use xlink:href="#rim" fill="#404040">
                        <set attributeName="fill" to="#808080" begin="arrowRight.mouseover" end="arrowRight.mouseout"/>
                  </use>
                  <path fill="none" stroke="white" stroke-width="1.5" d="M0,-3.0v7 M-2.5,-0.5L0,-3.0L2.5,-0.5"/>
                </g>
                <g id="arrowDown" xlink:href="#dirArrow" transform="rotate(180) translate(-30 -48)" onmousedown="handlePan(0,1)">
                  <use xlink:href="#rim" fill="#404040">
                        <set attributeName="fill" to="#808080" begin="arrowDown.mouseover" end="arrowDown.mouseout"/>
                  </use>
                  <path fill="none" stroke="white" stroke-width="1.5" d="M0,-3.0v7 M-2.5,-0.5L0,-3.0L2.5,-0.5"/>
                </g>
                <g id="arrowLeft" xlink:href="#dirArrow" transform="rotate(270) translate(-36 17)" onmousedown="handlePan(-1,0)">
                  <use xlink:href="#rim" fill="#404040">
                        <set attributeName="fill" to="#808080" begin="arrowLeft.mouseover" end="arrowLeft.mouseout"/>
                  </use>
                  <path fill="none" stroke="white" stroke-width="1.5" d="M0,-3.0v7 M-2.5,-0.5L0,-3.0L2.5,-0.5"/>
                </g>
        </g>
        <svg viewBox="0 0 15 15" width="100%" height="30px" preserveAspectRatio="xMaxYMin meet">
         <g id="arrow_out" transform="scale(0.3 0.3)">
          <a xlink:href="geometry_8f90_a9062f3787220118ef48436b46c7c65cc_cgraph_org.svg" target="_base">
           <rect id="button" ry="5" rx="5" y="6" x="6" height="38" width="38"
                fill="#f2f5e9" fill-opacity="0.5" stroke="#606060" stroke-width="1.0"/>
           <path id="arrow"
             d="M 11.500037,31.436501 C 11.940474,20.09759 22.043105,11.32322 32.158766,21.979434 L 37.068811,17.246167 C 37.068811,17.246167 37.088388,32 37.088388,32 L 22.160133,31.978069 C 22.160133,31.978069 26.997745,27.140456 26.997745,27.140456 C 18.528582,18.264221 13.291696,25.230495 11.500037,31.436501 z"
             style="fill:#404040;"/>
          </a>
         </g>
        </svg>
</svg>
