<?xml version="1.0" encoding="UTF-8" standalone="no"?>
<!DOCTYPE svg PUBLIC "-//W3C//DTD SVG 1.1//EN"
 "http://www.w3.org/Graphics/SVG/1.1/DTD/svg11.dtd">
<!-- Generated by graphviz version 2.43.0 (0)
 -->
<!-- Title: test_geometry_reader_file_coord_camgco_3d Pages: 1 -->
<!--zoomable 450 -->
<svg id="main" version="1.1" xmlns="http://www.w3.org/2000/svg" xmlns:xlink="http://www.w3.org/1999/xlink" xml:space="preserve" onload="init(evt)">
<style type="text/css"><![CDATA[
.edge:hover path { stroke: red; }
.edge:hover polygon { stroke: red; fill: red; }
]]></style>
<script type="text/javascript"><![CDATA[
var edges = document.getElementsByTagName('g');
if (edges && edges.length) {
  for (var i=0;i<edges.length;i++) {
    if (edges[i].id.substr(0,4)=='edge') {
      edges[i].setAttribute('class','edge');
    }
  }
}
]]></script>
        <defs>
                <circle id="rim" cx="0" cy="0" r="7"/>
                <circle id="rim2" cx="0" cy="0" r="3.5"/>
                <g id="zoomPlus">
                        <use xlink:href="#rim" fill="#404040">
                                <set attributeName="fill" to="#808080" begin="zoomplus.mouseover" end="zoomplus.mouseout"/>
                        </use>
                        <path d="M-4,0h8M0,-4v8" fill="none" stroke="white" stroke-width="1.5" pointer-events="none"/>
                </g>
                <g id="zoomMin">
                        <use xlink:href="#rim" fill="#404040">
                                <set attributeName="fill" to="#808080" begin="zoomminus.mouseover" end="zoomminus.mouseout"/>
                        </use>
                        <path d="M-4,0h8" fill="none" stroke="white" stroke-width="1.5" pointer-events="none"/>
                </g>
                <g id="dirArrow">
                        <path fill="none" stroke="white" stroke-width="1.5" d="M0,-3.0v7 M-2.5,-0.5L0,-3.0L2.5,-0.5"/>
                </g>
               <g id="resetDef">
                       <use xlink:href="#rim2" fill="#404040">
                               <set attributeName="fill" to="#808080" begin="reset.mouseover" end="reset.mouseout"/>
                       </use>
               </g>
        </defs>

<script type="text/javascript">
var viewWidth = 1329;
var viewHeight = 450;
var sectionId = 'dynsection-4';
</script>
<script xlink:href="svgpan.js"/>
<svg id="graph" class="graph">
<g id="viewport">
<title>test_geometry_reader_file_coord_camgco_3d</title>
<polygon fill="white" stroke="transparent" points="-4,4 -4,-445.5 1325,-445.5 1325,4 -4,4"/>
<!-- Node1 -->
<g id="node1" class="node">
<title>Node1</title>
<g id="a_node1"><a xlink:title=" ">
<polygon fill="#bfbfbf" stroke="black" points="0,-178.5 0,-208.5 130,-208.5 130,-178.5 0,-178.5"/>
<text text-anchor="start" x="8" y="-196.5" font-family="Helvetica,sans-Serif" font-size="10.00">test_geometry_reader</text>
<text text-anchor="middle" x="65" y="-185.5" font-family="Helvetica,sans-Serif" font-size="10.00">_file_coord_camgco_3d</text>
</a>
</g>
</g>
<!-- Node2 -->
<g id="node2" class="node">
<title>Node2</title>
<g id="a_node2"><a xlink:href="namespaceassertion.html#a733cabc48fbce9210a5fa3007db521f1" target="_top" xlink:title=" ">
<polygon fill="white" stroke="black" points="195,-222 195,-241 293,-241 293,-222 195,-222"/>
<text text-anchor="middle" x="244" y="-229" font-family="Helvetica,sans-Serif" font-size="10.00">assertion::assert</text>
</a>
</g>
</g>
<!-- Node1&#45;&gt;Node2 -->
<g id="edge1" class="edge">
<title>Node1&#45;&gt;Node2</title>
<path fill="none" stroke="midnightblue" d="M130.15,-207.27C149.35,-211.39 170.21,-215.87 188.71,-219.84"/>
<polygon fill="midnightblue" stroke="midnightblue" points="188.21,-223.32 198.72,-221.99 189.68,-216.47 188.21,-223.32"/>
</g>
<!-- Node3 -->
<g id="node3" class="node">
<title>Node3</title>
<g id="a_node3"><a xlink:href="namespacextb__io__reader.html#a3b815f9e75ce60c6ec45733723bdcc4e" target="_top" xlink:title="Generic reader for molecules from input files.">
<polygon fill="white" stroke="black" points="166,-184 166,-203 322,-203 322,-184 166,-184"/>
<text text-anchor="middle" x="244" y="-191" font-family="Helvetica,sans-Serif" font-size="10.00">xtb_io_reader::readmolecule</text>
</a>
</g>
</g>
<!-- Node1&#45;&gt;Node3 -->
<g id="edge2" class="edge">
<title>Node1&#45;&gt;Node3</title>
<path fill="none" stroke="midnightblue" d="M130.15,-193.5C138.47,-193.5 147.1,-193.5 155.72,-193.5"/>
<polygon fill="midnightblue" stroke="midnightblue" points="155.81,-197 165.81,-193.5 155.81,-190 155.81,-197"/>
</g>
<!-- Node26 -->
<g id="node26" class="node">
<title>Node26</title>
<g id="a_node26"><a xlink:href="error_8f90.html#a48d4e8f6658873a149a70800afa89704" target="_top" xlink:title=" ">
<polygon fill="white" stroke="black" points="211.5,-146 211.5,-165 276.5,-165 276.5,-146 211.5,-146"/>
<text text-anchor="middle" x="244" y="-153" font-family="Helvetica,sans-Serif" font-size="10.00">terminate</text>
</a>
</g>
</g>
<!-- Node1&#45;&gt;Node26 -->
<g id="edge41" class="edge">
<title>Node1&#45;&gt;Node26</title>
<path fill="none" stroke="midnightblue" d="M130.15,-179.73C153.79,-174.65 179.94,-169.04 201.11,-164.49"/>
<polygon fill="midnightblue" stroke="midnightblue" points="202.02,-167.88 211.07,-162.36 200.55,-161.03 202.02,-167.88"/>
</g>
<!-- Node4 -->
<g id="node4" class="node">
<title>Node4</title>
<g id="a_node4"><a xlink:href="namespacextb__io__reader__turbomole.html#a85a977e3c4f7d562670ffadf355627ec" target="_top" xlink:title=" ">
<polygon fill="white" stroke="black" points="567.5,-295.5 567.5,-325.5 706.5,-325.5 706.5,-295.5 567.5,-295.5"/>
<text text-anchor="start" x="575.5" y="-313.5" font-family="Helvetica,sans-Serif" font-size="10.00">xtb_io_reader_turbomole</text>
<text text-anchor="middle" x="637" y="-302.5" font-family="Helvetica,sans-Serif" font-size="10.00">::readmoleculecoord</text>
</a>
</g>
</g>
<!-- Node3&#45;&gt;Node4 -->
<g id="edge3" class="edge">
<title>Node3&#45;&gt;Node4</title>
<path fill="none" stroke="midnightblue" d="M298.95,-203.03C306.93,-205.5 314.87,-208.61 322,-212.5 341.32,-223.04 338.6,-236.11 358,-246.5 420.2,-279.8 499.25,-295.86 557.14,-303.55"/>
<polygon fill="midnightblue" stroke="midnightblue" points="556.97,-307.06 567.34,-304.85 557.86,-300.11 556.97,-307.06"/>
</g>
<!-- Node12 -->
<g id="node12" class="node">
<title>Node12</title>
<g id="a_node12"><a xlink:href="namespacextb__io__reader__gaussian.html#a5fe67e8b4eb9276a55aa48542676827d" target="_top" xlink:title=" ">
<polygon fill="white" stroke="black" points="358,-66.5 358,-96.5 531,-96.5 531,-66.5 358,-66.5"/>
<text text-anchor="start" x="366" y="-84.5" font-family="Helvetica,sans-Serif" font-size="10.00">xtb_io_reader_gaussian</text>
<text text-anchor="middle" x="444.5" y="-73.5" font-family="Helvetica,sans-Serif" font-size="10.00">::readmoleculegaussianexternal</text>
</a>
</g>
</g>
<!-- Node3&#45;&gt;Node12 -->
<g id="edge11" class="edge">
<title>Node3&#45;&gt;Node12</title>
<path fill="none" stroke="midnightblue" d="M305.77,-183.86C311.59,-181.4 317.13,-178.33 322,-174.5 349.2,-153.13 331.14,-127.3 358,-105.5 359.57,-104.22 361.21,-103.02 362.89,-101.87"/>
<polygon fill="midnightblue" stroke="midnightblue" points="364.88,-104.76 371.72,-96.67 361.33,-98.73 364.88,-104.76"/>
</g>
<!-- Node13 -->
<g id="node13" class="node">
<title>Node13</title>
<g id="a_node13"><a xlink:href="namespacextb__io__reader__genformat.html#a6dd4a7544ad9070b6190eceb1790b65e" target="_top" xlink:title=" ">
<polygon fill="white" stroke="black" points="567,-344.5 567,-374.5 707,-374.5 707,-344.5 567,-344.5"/>
<text text-anchor="start" x="575" y="-362.5" font-family="Helvetica,sans-Serif" font-size="10.00">xtb_io_reader_genformat</text>
<text text-anchor="middle" x="637" y="-351.5" font-family="Helvetica,sans-Serif" font-size="10.00">::readmoleculegenformat</text>
</a>
</g>
</g>
<!-- Node3&#45;&gt;Node13 -->
<g id="edge13" class="edge">
<title>Node3&#45;&gt;Node13</title>
<path fill="none" stroke="midnightblue" d="M306.29,-203.15C311.94,-205.61 317.3,-208.68 322,-212.5 350.69,-235.82 329.44,-264.01 358,-287.5 413.96,-333.53 495.99,-350.5 556.44,-356.57"/>
<polygon fill="midnightblue" stroke="midnightblue" points="556.43,-360.09 566.71,-357.52 557.08,-353.12 556.43,-360.09"/>
</g>
<!-- Node19 -->
<g id="node19" class="node">
<title>Node19</title>
<g id="a_node19"><a xlink:href="namespacextb__io__reader__ctfile.html#a0799818e84df88fcbbf2f511a191327c" target="_top" xlink:title=" ">
<polygon fill="white" stroke="black" points="575.5,-148.5 575.5,-178.5 698.5,-178.5 698.5,-148.5 575.5,-148.5"/>
<text text-anchor="start" x="583.5" y="-166.5" font-family="Helvetica,sans-Serif" font-size="10.00">xtb_io_reader_ctfile</text>
<text text-anchor="middle" x="637" y="-155.5" font-family="Helvetica,sans-Serif" font-size="10.00">::readmoleculemolfile</text>
</a>
</g>
</g>
<!-- Node3&#45;&gt;Node19 -->
<g id="edge23" class="edge">
<title>Node3&#45;&gt;Node19</title>
<path fill="none" stroke="midnightblue" d="M322.25,-187.57C392.85,-182.16 496.4,-174.21 564.98,-168.95"/>
<polygon fill="midnightblue" stroke="midnightblue" points="565.55,-172.42 575.25,-168.16 565.01,-165.44 565.55,-172.42"/>
</g>
<!-- Node20 -->
<g id="node20" class="node">
<title>Node20</title>
<g id="a_node20"><a xlink:href="namespacextb__io__reader__pdb.html#a026348308d1ff8a713b8c54905dfbb56" target="_top" xlink:title=" ">
<polygon fill="white" stroke="black" points="580.5,-22.5 580.5,-52.5 693.5,-52.5 693.5,-22.5 580.5,-22.5"/>
<text text-anchor="start" x="588.5" y="-40.5" font-family="Helvetica,sans-Serif" font-size="10.00">xtb_io_reader_pdb::</text>
<text text-anchor="middle" x="637" y="-29.5" font-family="Helvetica,sans-Serif" font-size="10.00">readmoleculepdb</text>
</a>
</g>
</g>
<!-- Node3&#45;&gt;Node20 -->
<g id="edge26" class="edge">
<title>Node3&#45;&gt;Node20</title>
<path fill="none" stroke="midnightblue" d="M308.41,-183.84C313.37,-181.36 318,-178.29 322,-174.5 361.81,-136.79 315.07,-90.61 358,-56.5 417.56,-9.17 508.84,-12.82 570.4,-22.67"/>
<polygon fill="midnightblue" stroke="midnightblue" points="569.95,-26.15 580.39,-24.37 571.12,-19.25 569.95,-26.15"/>
</g>
<!-- Node23 -->
<g id="node23" class="node">
<title>Node23</title>
<g id="a_node23"><a xlink:href="namespacextb__io__reader__ctfile.html#acef0c4f2364173c24862519696001485" target="_top" xlink:title=" ">
<polygon fill="white" stroke="black" points="388,-115.5 388,-145.5 501,-145.5 501,-115.5 388,-115.5"/>
<text text-anchor="start" x="396" y="-133.5" font-family="Helvetica,sans-Serif" font-size="10.00">xtb_io_reader_ctfile</text>
<text text-anchor="middle" x="444.5" y="-122.5" font-family="Helvetica,sans-Serif" font-size="10.00">::readmoleculesdf</text>
</a>
</g>
</g>
<!-- Node3&#45;&gt;Node23 -->
<g id="edge31" class="edge">
<title>Node3&#45;&gt;Node23</title>
<path fill="none" stroke="midnightblue" d="M288.04,-183.92C299.18,-181.16 311.1,-177.95 322,-174.5 338.37,-169.32 341.9,-166.45 358,-160.5 368.28,-156.7 379.3,-152.74 389.89,-149"/>
<polygon fill="midnightblue" stroke="midnightblue" points="391.19,-152.25 399.46,-145.64 388.87,-145.65 391.19,-152.25"/>
</g>
<!-- Node24 -->
<g id="node24" class="node">
<title>Node24</title>
<g id="a_node24"><a xlink:href="namespacextb__io__reader__vasp.html#a0c09151e430cc903e6fe7a7da01766de" target="_top" xlink:title=" ">
<polygon fill="white" stroke="black" points="580.5,-246.5 580.5,-276.5 693.5,-276.5 693.5,-246.5 580.5,-246.5"/>
<text text-anchor="start" x="588.5" y="-264.5" font-family="Helvetica,sans-Serif" font-size="10.00">xtb_io_reader_vasp</text>
<text text-anchor="middle" x="637" y="-253.5" font-family="Helvetica,sans-Serif" font-size="10.00">::readmoleculevasp</text>
</a>
</g>
</g>
<!-- Node3&#45;&gt;Node24 -->
<g id="edge34" class="edge">
<title>Node3&#45;&gt;Node24</title>
<path fill="none" stroke="midnightblue" d="M287.29,-203.03C308.47,-207.66 334.53,-213.15 358,-217.5 430.37,-230.9 513.82,-243.77 570.26,-252.09"/>
<polygon fill="midnightblue" stroke="midnightblue" points="570.07,-255.59 580.47,-253.58 571.09,-248.67 570.07,-255.59"/>
</g>
<!-- Node25 -->
<g id="node25" class="node">
<title>Node25</title>
<g id="a_node25"><a xlink:href="namespacextb__io__reader__xyz.html#ac6efec20b6ea8dd630f3dddb611b60b5" target="_top" xlink:title=" ">
<polygon fill="white" stroke="black" points="581,-197.5 581,-227.5 693,-227.5 693,-197.5 581,-197.5"/>
<text text-anchor="start" x="589" y="-215.5" font-family="Helvetica,sans-Serif" font-size="10.00">xtb_io_reader_xyz::</text>
<text text-anchor="middle" x="637" y="-204.5" font-family="Helvetica,sans-Serif" font-size="10.00">readmoleculexyz</text>
</a>
</g>
</g>
<!-- Node3&#45;&gt;Node25 -->
<g id="edge38" class="edge">
<title>Node3&#45;&gt;Node25</title>
<path fill="none" stroke="midnightblue" d="M322.25,-197.25C394.86,-200.78 502.33,-206 570.75,-209.33"/>
<polygon fill="midnightblue" stroke="midnightblue" points="570.81,-212.84 580.97,-209.83 571.15,-205.84 570.81,-212.84"/>
</g>
<!-- Node5 -->
<g id="node5" class="node">
<title>Node5</title>
<g id="a_node5"><a xlink:href="namespacextb__pbc__tools.html#aecf941b359092ea66d4242b845f39335" target="_top" xlink:title="transform from fractional coordinates into cartesian coordinates">
<polygon fill="white" stroke="black" points="770,-372.5 770,-402.5 877,-402.5 877,-372.5 770,-372.5"/>
<text text-anchor="start" x="778" y="-390.5" font-family="Helvetica,sans-Serif" font-size="10.00">xtb_pbc_tools::abc</text>
<text text-anchor="middle" x="823.5" y="-379.5" font-family="Helvetica,sans-Serif" font-size="10.00">_to_xyz</text>
</a>
</g>
</g>
<!-- Node4&#45;&gt;Node5 -->
<g id="edge4" class="edge">
<title>Node4&#45;&gt;Node5</title>
<path fill="none" stroke="midnightblue" d="M687.85,-325.64C694.43,-328.27 700.98,-331.23 707,-334.5 724.81,-344.18 725.05,-353.09 743,-362.5 748.47,-365.37 754.32,-367.97 760.27,-370.32"/>
<polygon fill="midnightblue" stroke="midnightblue" points="759.09,-373.61 769.68,-373.81 761.52,-367.05 759.09,-373.61"/>
</g>
<!-- Node6 -->
<g id="node6" class="node">
<title>Node6</title>
<g id="a_node6"><a xlink:href="namespacextb__pbc__tools.html#a78401582977ddf8f87d315e54a350129" target="_top" xlink:title="convert cell parameters to direct lattice">
<polygon fill="white" stroke="black" points="770,-284.5 770,-314.5 877,-314.5 877,-284.5 770,-284.5"/>
<text text-anchor="start" x="778" y="-302.5" font-family="Helvetica,sans-Serif" font-size="10.00">xtb_pbc_tools::cell</text>
<text text-anchor="middle" x="823.5" y="-291.5" font-family="Helvetica,sans-Serif" font-size="10.00">_to_dlat</text>
</a>
</g>
</g>
<!-- Node4&#45;&gt;Node6 -->
<g id="edge5" class="edge">
<title>Node4&#45;&gt;Node6</title>
<path fill="none" stroke="midnightblue" d="M706.7,-306.4C724.01,-305.37 742.5,-304.27 759.51,-303.26"/>
<polygon fill="midnightblue" stroke="midnightblue" points="760.12,-306.73 769.89,-302.64 759.7,-299.74 760.12,-306.73"/>
</g>
<!-- Node8 -->
<g id="node8" class="node">
<title>Node8</title>
<g id="a_node8"><a xlink:href="io_2reader_2turbomole_8f90.html#a082f3f13693ff13102e215b4454f7cb4" target="_top" xlink:title=" ">
<polygon fill="white" stroke="black" points="788.5,-334 788.5,-353 858.5,-353 858.5,-334 788.5,-334"/>
<text text-anchor="middle" x="823.5" y="-341" font-family="Helvetica,sans-Serif" font-size="10.00">select_unit</text>
</a>
</g>
</g>
<!-- Node4&#45;&gt;Node8 -->
<g id="edge7" class="edge">
<title>Node4&#45;&gt;Node8</title>
<path fill="none" stroke="midnightblue" d="M706.7,-322.79C730.65,-327.07 756.87,-331.76 778.29,-335.59"/>
<polygon fill="midnightblue" stroke="midnightblue" points="777.93,-339.08 788.39,-337.4 779.16,-332.19 777.93,-339.08"/>
</g>
<!-- Node9 -->
<g id="node9" class="node">
<title>Node9</title>
<g id="a_node9"><a xlink:href="namespacextb__mctc__symbols.html#a415078dcb669ace05def9d5ccfad86fa" target="_top" xlink:title="Convert element symbol to atomic number.">
<polygon fill="white" stroke="black" points="743,-203 743,-222 904,-222 904,-203 743,-203"/>
<text text-anchor="middle" x="823.5" y="-210" font-family="Helvetica,sans-Serif" font-size="10.00">xtb_mctc_symbols::tonumber</text>
</a>
</g>
</g>
<!-- Node4&#45;&gt;Node9 -->
<g id="edge8" class="edge">
<title>Node4&#45;&gt;Node9</title>
<path fill="none" stroke="midnightblue" d="M690.22,-295.4C696.16,-292.6 701.9,-289.32 707,-285.5 728.64,-269.31 720.93,-252.1 743,-236.5 749.15,-232.15 756.1,-228.58 763.27,-225.65"/>
<polygon fill="midnightblue" stroke="midnightblue" points="764.95,-228.76 773.13,-222.03 762.54,-222.19 764.95,-228.76"/>
</g>
<!-- Node11 -->
<g id="node11" class="node">
<title>Node11</title>
<g id="a_node11"><a xlink:href="symmetry__i_8c.html#aa77c823a9fc018ae1d437369708d8727" target="_top" xlink:title=" ">
<polygon fill="white" stroke="black" points="805.5,-159 805.5,-178 841.5,-178 841.5,-159 805.5,-159"/>
<text text-anchor="middle" x="823.5" y="-166" font-family="Helvetica,sans-Serif" font-size="10.00">true</text>
</a>
</g>
</g>
<!-- Node4&#45;&gt;Node11 -->
<g id="edge10" class="edge">
<title>Node4&#45;&gt;Node11</title>
<path fill="none" stroke="midnightblue" d="M693.67,-295.32C698.53,-292.57 703.08,-289.32 707,-285.5 738.44,-254.85 710.91,-223.47 743,-193.5 757.27,-180.17 778.6,-173.95 795.57,-171.04"/>
<polygon fill="midnightblue" stroke="midnightblue" points="796.07,-174.51 805.47,-169.63 795.08,-167.58 796.07,-174.51"/>
</g>
<!-- Node7 -->
<g id="node7" class="node">
<title>Node7</title>
<g id="a_node7"><a xlink:href="namespacextb__pbc__tools.html#aa6debe70834a4136aa3c12c27dc5dc59" target="_top" xlink:title="calculate the cell volume from the cell parameters">
<polygon fill="white" stroke="black" points="985,-322.5 985,-352.5 1092,-352.5 1092,-322.5 985,-322.5"/>
<text text-anchor="start" x="993" y="-340.5" font-family="Helvetica,sans-Serif" font-size="10.00">xtb_pbc_tools::cell</text>
<text text-anchor="middle" x="1038.5" y="-329.5" font-family="Helvetica,sans-Serif" font-size="10.00">_to_dvol</text>
</a>
</g>
</g>
<!-- Node6&#45;&gt;Node7 -->
<g id="edge6" class="edge">
<title>Node6&#45;&gt;Node7</title>
<path fill="none" stroke="midnightblue" d="M877.15,-308.89C906.72,-314.17 943.81,-320.78 974.86,-326.33"/>
<polygon fill="midnightblue" stroke="midnightblue" points="974.26,-329.77 984.72,-328.08 975.49,-322.88 974.26,-329.77"/>
</g>
<!-- Node10 -->
<g id="node10" class="node">
<title>Node10</title>
<g id="a_node10"><a xlink:href="namespacextb__mctc__symbols.html#a6443a2bd18736176be30e8db1ddc89dd" target="_top" xlink:title="Convert element symbol to atomic number.">
<polygon fill="white" stroke="black" points="940,-170 940,-189 1137,-189 1137,-170 940,-170"/>
<text text-anchor="middle" x="1038.5" y="-177" font-family="Helvetica,sans-Serif" font-size="10.00">xtb_mctc_symbols::symboltonumber</text>
</a>
</g>
</g>
<!-- Node9&#45;&gt;Node10 -->
<g id="edge9" class="edge">
<title>Node9&#45;&gt;Node10</title>
<path fill="none" stroke="midnightblue" d="M885.82,-203C910.78,-199.13 939.79,-194.64 965.73,-190.62"/>
<polygon fill="midnightblue" stroke="midnightblue" points="966.53,-194.04 975.87,-189.05 965.45,-187.12 966.53,-194.04"/>
</g>
<!-- Node12&#45;&gt;Node11 -->
<g id="edge12" class="edge">
<title>Node12&#45;&gt;Node11</title>
<path fill="none" stroke="midnightblue" d="M531.17,-91.74C582.66,-98.92 649.19,-110.02 707,-125.5 738.15,-133.84 772.65,-147.26 795.76,-156.89"/>
<polygon fill="midnightblue" stroke="midnightblue" points="794.65,-160.22 805.23,-160.89 797.38,-153.77 794.65,-160.22"/>
</g>
<!-- Node13&#45;&gt;Node5 -->
<g id="edge14" class="edge">
<title>Node13&#45;&gt;Node5</title>
<path fill="none" stroke="midnightblue" d="M707.23,-370.01C724.42,-372.61 742.74,-375.4 759.61,-377.96"/>
<polygon fill="midnightblue" stroke="midnightblue" points="759.49,-381.48 769.9,-379.52 760.54,-374.56 759.49,-381.48"/>
</g>
<!-- Node13&#45;&gt;Node9 -->
<g id="edge21" class="edge">
<title>Node13&#45;&gt;Node9</title>
<path fill="none" stroke="midnightblue" d="M693.75,-344.41C698.59,-341.64 703.12,-338.37 707,-334.5 739.88,-301.76 709.24,-268.33 743,-236.5 747.3,-232.45 752.26,-229.07 757.57,-226.27"/>
<polygon fill="midnightblue" stroke="midnightblue" points="759.11,-229.41 766.75,-222.07 756.2,-223.05 759.11,-229.41"/>
</g>
<!-- Node13&#45;&gt;Node11 -->
<g id="edge22" class="edge">
<title>Node13&#45;&gt;Node11</title>
<path fill="none" stroke="midnightblue" d="M694.83,-344.41C699.34,-341.64 703.49,-338.37 707,-334.5 750.45,-286.59 698.53,-240.47 743,-193.5 756.51,-179.23 778.06,-173.07 795.32,-170.42"/>
<polygon fill="midnightblue" stroke="midnightblue" points="795.9,-173.88 805.4,-169.19 795.05,-166.93 795.9,-173.88"/>
</g>
<!-- Node14 -->
<g id="node14" class="node">
<title>Node14</title>
<g id="a_node14"><a xlink:href="reader_2genformat_8f90.html#aa2a6ca831ced15826f80a1b85478863a" target="_top" xlink:title=" ">
<polygon fill="white" stroke="black" points="792.5,-422 792.5,-441 854.5,-441 854.5,-422 792.5,-422"/>
<text text-anchor="middle" x="823.5" y="-429" font-family="Helvetica,sans-Serif" font-size="10.00">next_line</text>
</a>
</g>
</g>
<!-- Node13&#45;&gt;Node14 -->
<g id="edge15" class="edge">
<title>Node13&#45;&gt;Node14</title>
<path fill="none" stroke="midnightblue" d="M663.57,-374.53C684.38,-386.23 714.81,-402.18 743,-412.5 755.51,-417.08 769.54,-420.86 782.29,-423.8"/>
<polygon fill="midnightblue" stroke="midnightblue" points="781.67,-427.25 792.19,-425.99 783.18,-420.42 781.67,-427.25"/>
</g>
<!-- Node15 -->
<g id="node15" class="node">
<title>Node15</title>
<g id="a_node15"><a xlink:href="namespacextb__mctc__strings.html#a5272db42d49f38098924d2587c9e9a78" target="_top" xlink:title="Parses the string &#39;str&#39; into arguments args(1), ..., args(nargs) based on the delimiters contained in...">
<polygon fill="white" stroke="black" points="757,-246 757,-265 890,-265 890,-246 757,-246"/>
<text text-anchor="middle" x="823.5" y="-253" font-family="Helvetica,sans-Serif" font-size="10.00">xtb_mctc_strings::parse</text>
</a>
</g>
</g>
<!-- Node13&#45;&gt;Node15 -->
<g id="edge16" class="edge">
<title>Node13&#45;&gt;Node15</title>
<path fill="none" stroke="midnightblue" d="M691.63,-344.33C697.13,-341.56 702.38,-338.31 707,-334.5 731,-314.73 717.92,-292.88 743,-274.5 745.55,-272.63 748.26,-270.94 751.08,-269.42"/>
<polygon fill="midnightblue" stroke="midnightblue" points="752.81,-272.47 760.41,-265.09 749.86,-266.13 752.81,-272.47"/>
</g>
<!-- Node16 -->
<g id="node16" class="node">
<title>Node16</title>
<g id="a_node16"><a xlink:href="namespacextb__mctc__strings.html#a83fe8976b683970b27e6b64632d50916" target="_top" xlink:title="Converts multiple spaces and tabs to single spaces; deletes control characters; removes initial space...">
<polygon fill="white" stroke="black" points="1173,-246 1173,-265 1321,-265 1321,-246 1173,-246"/>
<text text-anchor="middle" x="1247" y="-253" font-family="Helvetica,sans-Serif" font-size="10.00">xtb_mctc_strings::compact</text>
</a>
</g>
</g>
<!-- Node15&#45;&gt;Node16 -->
<g id="edge17" class="edge">
<title>Node15&#45;&gt;Node16</title>
<path fill="none" stroke="midnightblue" d="M871.49,-265.01C892.37,-268.78 917.32,-272.65 940,-274.5 1027.26,-281.63 1049.77,-282.05 1137,-274.5 1154.92,-272.95 1174.31,-269.99 1191.7,-266.86"/>
<polygon fill="midnightblue" stroke="midnightblue" points="1192.49,-270.28 1201.68,-265.01 1191.21,-263.4 1192.49,-270.28"/>
</g>
<!-- Node17 -->
<g id="node17" class="node">
<title>Node17</title>
<g id="a_node17"><a xlink:href="namespacextb__mctc__strings.html#ac1ac14e68e16e450995779028bd6566f" target="_top" xlink:title="Removes backslash () characters. Double backslashes (\) are replaced by a single backslash.">
<polygon fill="white" stroke="black" points="956.5,-246 956.5,-265 1120.5,-265 1120.5,-246 956.5,-246"/>
<text text-anchor="middle" x="1038.5" y="-253" font-family="Helvetica,sans-Serif" font-size="10.00">xtb_mctc_strings::removebksl</text>
</a>
</g>
</g>
<!-- Node15&#45;&gt;Node17 -->
<g id="edge18" class="edge">
<title>Node15&#45;&gt;Node17</title>
<path fill="none" stroke="midnightblue" d="M890.15,-255.5C907.86,-255.5 927.36,-255.5 946.21,-255.5"/>
<polygon fill="midnightblue" stroke="midnightblue" points="946.29,-259 956.29,-255.5 946.29,-252 946.29,-259"/>
</g>
<!-- Node18 -->
<g id="node18" class="node">
<title>Node18</title>
<g id="a_node18"><a xlink:href="namespacextb__mctc__strings.html#a01f52f6293684260e59260ff5790e5c3" target="_top" xlink:title="Routine finds the first instance of a character from &#39;delims&#39; in the the string &#39;str&#39;....">
<polygon fill="white" stroke="black" points="975,-208 975,-227 1102,-227 1102,-208 975,-208"/>
<text text-anchor="middle" x="1038.5" y="-215" font-family="Helvetica,sans-Serif" font-size="10.00">xtb_mctc_strings::split</text>
</a>
</g>
</g>
<!-- Node15&#45;&gt;Node18 -->
<g id="edge19" class="edge">
<title>Node15&#45;&gt;Node18</title>
<path fill="none" stroke="midnightblue" d="M877.97,-245.96C907.09,-240.77 943.31,-234.3 973.87,-228.85"/>
<polygon fill="midnightblue" stroke="midnightblue" points="974.77,-232.25 984,-227.04 973.54,-225.35 974.77,-232.25"/>
</g>
<!-- Node18&#45;&gt;Node16 -->
<g id="edge20" class="edge">
<title>Node18&#45;&gt;Node16</title>
<path fill="none" stroke="midnightblue" d="M1091.34,-227.04C1119.45,-232.21 1154.38,-238.64 1183.93,-244.08"/>
<polygon fill="midnightblue" stroke="midnightblue" points="1183.67,-247.59 1194.14,-245.96 1184.94,-240.7 1183.67,-247.59"/>
</g>
<!-- Node19&#45;&gt;Node9 -->
<g id="edge24" class="edge">
<title>Node19&#45;&gt;Node9</title>
<path fill="none" stroke="midnightblue" d="M694.61,-178.53C720.96,-185.53 751.89,-193.75 776.73,-200.34"/>
<polygon fill="midnightblue" stroke="midnightblue" points="776.06,-203.79 786.62,-202.97 777.86,-197.02 776.06,-203.79"/>
</g>
<!-- Node19&#45;&gt;Node11 -->
<g id="edge25" class="edge">
<title>Node19&#45;&gt;Node11</title>
<path fill="none" stroke="midnightblue" d="M698.67,-165.14C731.24,-166.03 769.78,-167.07 795.11,-167.76"/>
<polygon fill="midnightblue" stroke="midnightblue" points="795.34,-171.27 805.43,-168.04 795.53,-164.27 795.34,-171.27"/>
</g>
<!-- Node20&#45;&gt;Node9 -->
<g id="edge29" class="edge">
<title>Node20&#45;&gt;Node9</title>
<path fill="none" stroke="midnightblue" d="M648.45,-52.7C674.36,-90.35 739.71,-185.09 743,-187.5 749.64,-192.36 757.25,-196.3 765.08,-199.48"/>
<polygon fill="midnightblue" stroke="midnightblue" points="764.08,-202.85 774.68,-203 766.49,-196.27 764.08,-202.85"/>
</g>
<!-- Node20&#45;&gt;Node11 -->
<g id="edge30" class="edge">
<title>Node20&#45;&gt;Node11</title>
<path fill="none" stroke="midnightblue" d="M678.48,-52.62C688.12,-56.89 698.17,-61.91 707,-67.5 746.09,-92.24 785.3,-129.9 806.48,-151.56"/>
<polygon fill="midnightblue" stroke="midnightblue" points="803.96,-154 813.43,-158.76 809,-149.14 803.96,-154"/>
</g>
<!-- Node21 -->
<g id="node21" class="node">
<title>Node21</title>
<g id="a_node21"><a xlink:href="src_2CMakeLists_8txt.html#a1752f8ed27a298dcd5014319ef2472dd" target="_top" xlink:title=" ">
<polygon fill="white" stroke="black" points="807.5,-50 807.5,-69 839.5,-69 839.5,-50 807.5,-50"/>
<text text-anchor="middle" x="823.5" y="-57" font-family="Helvetica,sans-Serif" font-size="10.00">list</text>
</a>
</g>
</g>
<!-- Node20&#45;&gt;Node21 -->
<g id="edge27" class="edge">
<title>Node20&#45;&gt;Node21</title>
<path fill="none" stroke="midnightblue" d="M693.61,-44.13C728.11,-48.24 770.78,-53.33 797.33,-56.5"/>
<polygon fill="midnightblue" stroke="midnightblue" points="796.97,-59.98 807.32,-57.69 797.8,-53.03 796.97,-59.98"/>
</g>
<!-- Node22 -->
<g id="node22" class="node">
<title>Node22</title>
<g id="a_node22"><a xlink:href="namespacextb__io__reader__pdb.html#ae36c028d9dab3b2319e1f1cf5eccf7d6" target="_top" xlink:title=" ">
<polygon fill="white" stroke="black" points="767,-0.5 767,-30.5 880,-30.5 880,-0.5 767,-0.5"/>
<text text-anchor="start" x="775" y="-18.5" font-family="Helvetica,sans-Serif" font-size="10.00">xtb_io_reader_pdb::</text>
<text text-anchor="middle" x="823.5" y="-7.5" font-family="Helvetica,sans-Serif" font-size="10.00">pdbchrg2int</text>
</a>
</g>
</g>
<!-- Node20&#45;&gt;Node22 -->
<g id="edge28" class="edge">
<title>Node20&#45;&gt;Node22</title>
<path fill="none" stroke="midnightblue" d="M693.61,-30.87C713.48,-28.5 736.07,-25.81 756.73,-23.34"/>
<polygon fill="midnightblue" stroke="midnightblue" points="757.17,-26.81 766.69,-22.15 756.35,-19.86 757.17,-26.81"/>
</g>
<!-- Node23&#45;&gt;Node11 -->
<g id="edge33" class="edge">
<title>Node23&#45;&gt;Node11</title>
<path fill="none" stroke="midnightblue" d="M501.16,-128.62C554.31,-127.67 636.52,-128.4 707,-138.5 737.77,-142.91 772.14,-152.45 795.33,-159.6"/>
<polygon fill="midnightblue" stroke="midnightblue" points="794.55,-163.02 805.14,-162.69 796.65,-156.35 794.55,-163.02"/>
</g>
<!-- Node23&#45;&gt;Node19 -->
<g id="edge32" class="edge">
<title>Node23&#45;&gt;Node19</title>
<path fill="none" stroke="midnightblue" d="M501.11,-140.13C521.21,-143.62 544.18,-147.59 565.39,-151.27"/>
<polygon fill="midnightblue" stroke="midnightblue" points="564.87,-154.73 575.32,-152.99 566.06,-147.83 564.87,-154.73"/>
</g>
<!-- Node24&#45;&gt;Node9 -->
<g id="edge36" class="edge">
<title>Node24&#45;&gt;Node9</title>
<path fill="none" stroke="midnightblue" d="M693.61,-246.73C720.21,-239.67 751.66,-231.31 776.84,-224.63"/>
<polygon fill="midnightblue" stroke="midnightblue" points="777.74,-228.01 786.51,-222.06 775.95,-221.24 777.74,-228.01"/>
</g>
<!-- Node24&#45;&gt;Node11 -->
<g id="edge37" class="edge">
<title>Node24&#45;&gt;Node11</title>
<path fill="none" stroke="midnightblue" d="M689.28,-246.41C695.5,-243.59 701.57,-240.3 707,-236.5 727.42,-222.21 722.28,-207.35 743,-193.5 758.79,-182.95 779.28,-176.64 795.51,-173.01"/>
<polygon fill="midnightblue" stroke="midnightblue" points="796.36,-176.4 805.47,-170.98 794.97,-169.54 796.36,-176.4"/>
</g>
<!-- Node24&#45;&gt;Node15 -->
<g id="edge35" class="edge">
<title>Node24&#45;&gt;Node15</title>
<path fill="none" stroke="midnightblue" d="M693.61,-259.69C710.28,-259.15 728.86,-258.55 746.61,-257.97"/>
<polygon fill="midnightblue" stroke="midnightblue" points="747.06,-261.46 756.94,-257.63 746.83,-254.46 747.06,-261.46"/>
</g>
<!-- Node25&#45;&gt;Node9 -->
<g id="edge39" class="edge">
<title>Node25&#45;&gt;Node9</title>
<path fill="none" stroke="midnightblue" d="M693.36,-212.5C705.79,-212.5 719.29,-212.5 732.73,-212.5"/>
<polygon fill="midnightblue" stroke="midnightblue" points="732.97,-216 742.97,-212.5 732.97,-209 732.97,-216"/>
</g>
<!-- Node25&#45;&gt;Node11 -->
<g id="edge40" class="edge">
<title>Node25&#45;&gt;Node11</title>
<path fill="none" stroke="midnightblue" d="M693.36,-199.3C727.09,-191.25 768.7,-181.33 795.42,-174.96"/>
<polygon fill="midnightblue" stroke="midnightblue" points="796.3,-178.35 805.22,-172.62 794.68,-171.54 796.3,-178.35"/>
</g>
</g>
</svg>
        <g id="navigator" transform="translate(0 0)" fill="#404254">
                <rect fill="#f2f5e9" fill-opacity="0.5" stroke="#606060" stroke-width=".5" x="0" y="0" width="60" height="60"/>
                <use id="zoomplus" xlink:href="#zoomPlus" x="17" y="9" onmousedown="handleZoom(evt,'in')"/>
                <use id="zoomminus" xlink:href="#zoomMin" x="42" y="9" onmousedown="handleZoom(evt,'out')"/>
                <use id="reset" xlink:href="#resetDef" x="30" y="36" onmousedown="handleReset()"/>
                <g id="arrowUp" xlink:href="#dirArrow" transform="translate(30 24)" onmousedown="handlePan(0,-1)">
                  <use xlink:href="#rim" fill="#404040">
                        <set attributeName="fill" to="#808080" begin="arrowUp.mouseover" end="arrowUp.mouseout"/>
                  </use>
                  <path fill="none" stroke="white" stroke-width="1.5" d="M0,-3.0v7 M-2.5,-0.5L0,-3.0L2.5,-0.5"/>
                </g>
                <g id="arrowRight" xlink:href="#dirArrow" transform="rotate(90) translate(36 -43)" onmousedown="handlePan(1,0)">
                  <use xlink:href="#rim" fill="#404040">
                        <set attributeName="fill" to="#808080" begin="arrowRight.mouseover" end="arrowRight.mouseout"/>
                  </use>
                  <path fill="none" stroke="white" stroke-width="1.5" d="M0,-3.0v7 M-2.5,-0.5L0,-3.0L2.5,-0.5"/>
                </g>
                <g id="arrowDown" xlink:href="#dirArrow" transform="rotate(180) translate(-30 -48)" onmousedown="handlePan(0,1)">
                  <use xlink:href="#rim" fill="#404040">
                        <set attributeName="fill" to="#808080" begin="arrowDown.mouseover" end="arrowDown.mouseout"/>
                  </use>
                  <path fill="none" stroke="white" stroke-width="1.5" d="M0,-3.0v7 M-2.5,-0.5L0,-3.0L2.5,-0.5"/>
                </g>
                <g id="arrowLeft" xlink:href="#dirArrow" transform="rotate(270) translate(-36 17)" onmousedown="handlePan(-1,0)">
                  <use xlink:href="#rim" fill="#404040">
                        <set attributeName="fill" to="#808080" begin="arrowLeft.mouseover" end="arrowLeft.mouseout"/>
                  </use>
                  <path fill="none" stroke="white" stroke-width="1.5" d="M0,-3.0v7 M-2.5,-0.5L0,-3.0L2.5,-0.5"/>
                </g>
        </g>
        <svg viewBox="0 0 15 15" width="100%" height="30px" preserveAspectRatio="xMaxYMin meet">
         <g id="arrow_out" transform="scale(0.3 0.3)">
          <a xlink:href="geometry__reader_8f90_a3d3a7a57ea428fa46f1f08e83c78f745_cgraph_org.svg" target="_base">
           <rect id="button" ry="5" rx="5" y="6" x="6" height="38" width="38"
                fill="#f2f5e9" fill-opacity="0.5" stroke="#606060" stroke-width="1.0"/>
           <path id="arrow"
             d="M 11.500037,31.436501 C 11.940474,20.09759 22.043105,11.32322 32.158766,21.979434 L 37.068811,17.246167 C 37.068811,17.246167 37.088388,32 37.088388,32 L 22.160133,31.978069 C 22.160133,31.978069 26.997745,27.140456 26.997745,27.140456 C 18.528582,18.264221 13.291696,25.230495 11.500037,31.436501 z"
             style="fill:#404040;"/>
          </a>
         </g>
        </svg>
</svg>
