<?xml version="1.0" encoding="UTF-8" standalone="no"?>
<!DOCTYPE svg PUBLIC "-//W3C//DTD SVG 1.1//EN"
 "http://www.w3.org/Graphics/SVG/1.1/DTD/svg11.dtd">
<!-- Generated by graphviz version 2.43.0 (0)
 -->
<!-- Title: main_geometry Pages: 1 -->
<!--zoomable 458 -->
<svg id="main" version="1.1" xmlns="http://www.w3.org/2000/svg" xmlns:xlink="http://www.w3.org/1999/xlink" xml:space="preserve" onload="init(evt)">
<style type="text/css"><![CDATA[
.edge:hover path { stroke: red; }
.edge:hover polygon { stroke: red; fill: red; }
]]></style>
<script type="text/javascript"><![CDATA[
var edges = document.getElementsByTagName('g');
if (edges && edges.length) {
  for (var i=0;i<edges.length;i++) {
    if (edges[i].id.substr(0,4)=='edge') {
      edges[i].setAttribute('class','edge');
    }
  }
}
]]></script>
        <defs>
                <circle id="rim" cx="0" cy="0" r="7"/>
                <circle id="rim2" cx="0" cy="0" r="3.5"/>
                <g id="zoomPlus">
                        <use xlink:href="#rim" fill="#404040">
                                <set attributeName="fill" to="#808080" begin="zoomplus.mouseover" end="zoomplus.mouseout"/>
                        </use>
                        <path d="M-4,0h8M0,-4v8" fill="none" stroke="white" stroke-width="1.5" pointer-events="none"/>
                </g>
                <g id="zoomMin">
                        <use xlink:href="#rim" fill="#404040">
                                <set attributeName="fill" to="#808080" begin="zoomminus.mouseover" end="zoomminus.mouseout"/>
                        </use>
                        <path d="M-4,0h8" fill="none" stroke="white" stroke-width="1.5" pointer-events="none"/>
                </g>
                <g id="dirArrow">
                        <path fill="none" stroke="white" stroke-width="1.5" d="M0,-3.0v7 M-2.5,-0.5L0,-3.0L2.5,-0.5"/>
                </g>
               <g id="resetDef">
                       <use xlink:href="#rim2" fill="#404040">
                               <set attributeName="fill" to="#808080" begin="reset.mouseover" end="reset.mouseout"/>
                       </use>
               </g>
        </defs>

<script type="text/javascript">
var viewWidth = 935;
var viewHeight = 458;
var sectionId = 'dynsection-9';
</script>
<script xlink:href="svgpan.js"/>
<svg id="graph" class="graph">
<g id="viewport">
<title>main_geometry</title>
<polygon fill="white" stroke="transparent" points="-4,4 -4,-454 931,-454 931,4 -4,4"/>
<!-- Node1 -->
<g id="node1" class="node">
<title>Node1</title>
<g id="a_node1"><a xlink:title=" ">
<polygon fill="#bfbfbf" stroke="black" points="0,-266.5 0,-285.5 94,-285.5 94,-266.5 0,-266.5"/>
<text text-anchor="middle" x="47" y="-273.5" font-family="Helvetica,sans-Serif" font-size="10.00">main_geometry</text>
</a>
</g>
</g>
<!-- Node2 -->
<g id="node2" class="node">
<title>Node2</title>
<g id="a_node2"><a xlink:href="geometry_8f90.html#a9062f3787220118ef48436b46c7c65cc" target="_top" xlink:title=" ">
<polygon fill="white" stroke="black" points="130,-247.5 130,-266.5 213,-266.5 213,-247.5 130,-247.5"/>
<text text-anchor="middle" x="171.5" y="-254.5" font-family="Helvetica,sans-Serif" font-size="10.00">print_geosum</text>
</a>
</g>
</g>
<!-- Node1&#45;&gt;Node2 -->
<g id="edge1" class="edge">
<title>Node1&#45;&gt;Node2</title>
<path fill="none" stroke="midnightblue" d="M94.31,-268.82C102.6,-267.53 111.27,-266.19 119.67,-264.88"/>
<polygon fill="midnightblue" stroke="midnightblue" points="120.4,-268.31 129.75,-263.32 119.33,-261.4 120.4,-268.31"/>
</g>
<!-- Node25 -->
<g id="node25" class="node">
<title>Node25</title>
<g id="a_node25"><a xlink:href="geometry_8f90.html#a9e7cde1e07dc3395db7141a116690235" target="_top" xlink:title=" ">
<polygon fill="white" stroke="black" points="130,-357.5 130,-376.5 213,-376.5 213,-357.5 130,-357.5"/>
<text text-anchor="middle" x="171.5" y="-364.5" font-family="Helvetica,sans-Serif" font-size="10.00">print_pbcsum</text>
</a>
</g>
</g>
<!-- Node1&#45;&gt;Node25 -->
<g id="edge29" class="edge">
<title>Node1&#45;&gt;Node25</title>
<path fill="none" stroke="midnightblue" d="M61.11,-285.74C82.2,-301.41 123.86,-332.36 149.25,-351.21"/>
<polygon fill="midnightblue" stroke="midnightblue" points="147.37,-354.18 157.48,-357.33 151.54,-348.56 147.37,-354.18"/>
</g>
<!-- Node3 -->
<g id="node3" class="node">
<title>Node3</title>
<g id="a_node3"><a xlink:href="namespacextb__approxrab.html#a26e6aa01d1224dd177e9491ae296d652" target="_top" xlink:title=" ">
<polygon fill="white" stroke="black" points="262.5,-381 262.5,-411 389.5,-411 389.5,-381 262.5,-381"/>
<text text-anchor="start" x="270.5" y="-399" font-family="Helvetica,sans-Serif" font-size="10.00">xtb_approxrab::approx</text>
<text text-anchor="middle" x="326" y="-388" font-family="Helvetica,sans-Serif" font-size="10.00">_bonds</text>
</a>
</g>
</g>
<!-- Node2&#45;&gt;Node3 -->
<g id="edge2" class="edge">
<title>Node2&#45;&gt;Node3</title>
<path fill="none" stroke="midnightblue" d="M176.29,-266.52C185.44,-288.28 210.83,-342.05 249,-371 251.47,-372.87 254.08,-374.6 256.79,-376.21"/>
<polygon fill="midnightblue" stroke="midnightblue" points="255.28,-379.37 265.76,-380.92 258.54,-373.17 255.28,-379.37"/>
</g>
<!-- Node5 -->
<g id="node5" class="node">
<title>Node5</title>
<g id="a_node5"><a xlink:href="geometry_8f90.html#aab80ef9492e0b7c6aa434d44a6a2e7b0" target="_top" xlink:title=" ">
<polygon fill="white" stroke="black" points="289,-342.5 289,-361.5 363,-361.5 363,-342.5 289,-342.5"/>
<text text-anchor="middle" x="326" y="-349.5" font-family="Helvetica,sans-Serif" font-size="10.00">calc_angles</text>
</a>
</g>
</g>
<!-- Node2&#45;&gt;Node5 -->
<g id="edge4" class="edge">
<title>Node2&#45;&gt;Node5</title>
<path fill="none" stroke="midnightblue" d="M179.34,-266.58C191.46,-282.83 218.34,-315.71 249,-333 258.06,-338.11 268.5,-341.86 278.67,-344.61"/>
<polygon fill="midnightblue" stroke="midnightblue" points="278.16,-348.09 288.7,-347.04 279.8,-341.29 278.16,-348.09"/>
</g>
<!-- Node7 -->
<g id="node7" class="node">
<title>Node7</title>
<g id="a_node7"><a xlink:href="geometry_8f90.html#ab2d4bab965285e2c35d8342a22ce2d45" target="_top" xlink:title=" ">
<polygon fill="white" stroke="black" points="282,-304.5 282,-323.5 370,-323.5 370,-304.5 282,-304.5"/>
<text text-anchor="middle" x="326" y="-311.5" font-family="Helvetica,sans-Serif" font-size="10.00">calc_distances</text>
</a>
</g>
</g>
<!-- Node2&#45;&gt;Node7 -->
<g id="edge6" class="edge">
<title>Node2&#45;&gt;Node7</title>
<path fill="none" stroke="midnightblue" d="M189.05,-266.53C204.24,-274.96 227.57,-287.1 249,-295 256.36,-297.71 264.26,-300.16 272.08,-302.34"/>
<polygon fill="midnightblue" stroke="midnightblue" points="271.34,-305.76 281.9,-304.94 273.13,-299 271.34,-305.76"/>
</g>
<!-- Node8 -->
<g id="node8" class="node">
<title>Node8</title>
<g id="a_node8"><a xlink:href="geometry_8f90.html#a548ed51724367c60fe07eb362f66b7f6" target="_top" xlink:title=" ">
<polygon fill="white" stroke="black" points="286,-266.5 286,-285.5 366,-285.5 366,-266.5 286,-266.5"/>
<text text-anchor="middle" x="326" y="-273.5" font-family="Helvetica,sans-Serif" font-size="10.00">calc_torsions</text>
</a>
</g>
</g>
<!-- Node2&#45;&gt;Node8 -->
<g id="edge7" class="edge">
<title>Node2&#45;&gt;Node8</title>
<path fill="none" stroke="midnightblue" d="M213.37,-262.09C232.61,-264.49 255.72,-267.37 275.91,-269.88"/>
<polygon fill="midnightblue" stroke="midnightblue" points="275.51,-273.36 285.86,-271.12 276.37,-266.41 275.51,-273.36"/>
</g>
<!-- Node13 -->
<g id="node13" class="node">
<title>Node13</title>
<g id="a_node13"><a xlink:href="header_8f90.html#aa5f107f7eca06612b547c0745e5bbab2" target="_top" xlink:title=" ">
<polygon fill="white" stroke="black" points="280,-430.5 280,-449.5 372,-449.5 372,-430.5 280,-430.5"/>
<text text-anchor="middle" x="326" y="-437.5" font-family="Helvetica,sans-Serif" font-size="10.00">generic_header</text>
</a>
</g>
</g>
<!-- Node2&#45;&gt;Node13 -->
<g id="edge13" class="edge">
<title>Node2&#45;&gt;Node13</title>
<path fill="none" stroke="midnightblue" d="M176.83,-266.88C192.03,-301.51 242.43,-415.58 249,-421 255.12,-426.05 262.4,-429.79 270,-432.54"/>
<polygon fill="midnightblue" stroke="midnightblue" points="269.13,-435.94 279.72,-435.54 271.19,-429.25 269.13,-435.94"/>
</g>
<!-- Node14 -->
<g id="node14" class="node">
<title>Node14</title>
<g id="a_node14"><a xlink:href="namespacextb__disp__ncoord.html#a499dfc9ca2e6e04e01f2845d234ea8f5" target="_top" xlink:title=" ">
<polygon fill="white" stroke="black" points="249,-228.5 249,-247.5 403,-247.5 403,-228.5 249,-228.5"/>
<text text-anchor="middle" x="326" y="-235.5" font-family="Helvetica,sans-Serif" font-size="10.00">xtb_disp_ncoord::ncoord_erf</text>
</a>
</g>
</g>
<!-- Node2&#45;&gt;Node14 -->
<g id="edge14" class="edge">
<title>Node2&#45;&gt;Node14</title>
<path fill="none" stroke="midnightblue" d="M213.37,-251.91C221.38,-250.91 230.06,-249.83 238.93,-248.72"/>
<polygon fill="midnightblue" stroke="midnightblue" points="239.49,-252.18 248.98,-247.47 238.63,-245.23 239.49,-252.18"/>
</g>
<!-- Node15 -->
<g id="node15" class="node">
<title>Node15</title>
<g id="a_node15"><a xlink:href="geometry_8f90.html#a4d2bb384ce483a743db9dc9e11a161db" target="_top" xlink:title=" ">
<polygon fill="white" stroke="black" points="287.5,-190.5 287.5,-209.5 364.5,-209.5 364.5,-190.5 287.5,-190.5"/>
<text text-anchor="middle" x="326" y="-197.5" font-family="Helvetica,sans-Serif" font-size="10.00">print_angles</text>
</a>
</g>
</g>
<!-- Node2&#45;&gt;Node15 -->
<g id="edge15" class="edge">
<title>Node2&#45;&gt;Node15</title>
<path fill="none" stroke="midnightblue" d="M189.05,-247.47C204.24,-239.04 227.57,-226.9 249,-219 258.09,-215.65 268.01,-212.69 277.59,-210.17"/>
<polygon fill="midnightblue" stroke="midnightblue" points="278.56,-213.53 287.4,-207.7 276.85,-206.75 278.56,-213.53"/>
</g>
<!-- Node18 -->
<g id="node18" class="node">
<title>Node18</title>
<g id="a_node18"><a xlink:href="geometry_8f90.html#a554df298dcbe9e99639fdcb97d279e23" target="_top" xlink:title=" ">
<polygon fill="white" stroke="black" points="280.5,-152.5 280.5,-171.5 371.5,-171.5 371.5,-152.5 280.5,-152.5"/>
<text text-anchor="middle" x="326" y="-159.5" font-family="Helvetica,sans-Serif" font-size="10.00">print_distances</text>
</a>
</g>
</g>
<!-- Node2&#45;&gt;Node18 -->
<g id="edge18" class="edge">
<title>Node2&#45;&gt;Node18</title>
<path fill="none" stroke="midnightblue" d="M179.34,-247.42C191.46,-231.17 218.34,-198.29 249,-181 255.75,-177.19 263.25,-174.14 270.85,-171.7"/>
<polygon fill="midnightblue" stroke="midnightblue" points="271.83,-175.05 280.46,-168.91 269.88,-168.33 271.83,-175.05"/>
</g>
<!-- Node19 -->
<g id="node19" class="node">
<title>Node19</title>
<g id="a_node19"><a xlink:href="geometry_8f90.html#a639eac540337b43593b473d984aae1fd" target="_top" xlink:title=" ">
<polygon fill="white" stroke="black" points="280,-114.5 280,-133.5 372,-133.5 372,-114.5 280,-114.5"/>
<text text-anchor="middle" x="326" y="-121.5" font-family="Helvetica,sans-Serif" font-size="10.00">print_elem_dist</text>
</a>
</g>
</g>
<!-- Node2&#45;&gt;Node19 -->
<g id="edge20" class="edge">
<title>Node2&#45;&gt;Node19</title>
<path fill="none" stroke="midnightblue" d="M176.15,-247.29C185,-225.11 209.8,-170.54 249,-143 255.2,-138.65 262.3,-135.29 269.61,-132.7"/>
<polygon fill="midnightblue" stroke="midnightblue" points="271.11,-135.9 279.65,-129.62 269.06,-129.2 271.11,-135.9"/>
</g>
<!-- Node20 -->
<g id="node20" class="node">
<title>Node20</title>
<g id="a_node20"><a xlink:href="geometry_8f90.html#a684141ddf0ffbb21ab4cb6dcd3f72420" target="_top" xlink:title=" ">
<polygon fill="white" stroke="black" points="280.5,-38.5 280.5,-57.5 371.5,-57.5 371.5,-38.5 280.5,-38.5"/>
<text text-anchor="middle" x="326" y="-45.5" font-family="Helvetica,sans-Serif" font-size="10.00">print_moments</text>
</a>
</g>
</g>
<!-- Node2&#45;&gt;Node20 -->
<g id="edge22" class="edge">
<title>Node2&#45;&gt;Node20</title>
<path fill="none" stroke="midnightblue" d="M173.37,-247.37C176.71,-216.17 191.61,-116.98 249,-67 255.2,-61.6 262.7,-57.69 270.56,-54.87"/>
<polygon fill="midnightblue" stroke="midnightblue" points="271.68,-58.19 280.24,-51.94 269.66,-51.49 271.68,-58.19"/>
</g>
<!-- Node24 -->
<g id="node24" class="node">
<title>Node24</title>
<g id="a_node24"><a xlink:href="geometry_8f90.html#aed5ee91d57d2f80fc394aa9ab98ba14e" target="_top" xlink:title=" ">
<polygon fill="white" stroke="black" points="284.5,-76.5 284.5,-95.5 367.5,-95.5 367.5,-76.5 284.5,-76.5"/>
<text text-anchor="middle" x="326" y="-83.5" font-family="Helvetica,sans-Serif" font-size="10.00">print_torsions</text>
</a>
</g>
</g>
<!-- Node2&#45;&gt;Node24 -->
<g id="edge27" class="edge">
<title>Node2&#45;&gt;Node24</title>
<path fill="none" stroke="midnightblue" d="M174.41,-247.41C180.31,-220.47 200.79,-143.57 249,-105 256.33,-99.13 265.23,-95.05 274.33,-92.22"/>
<polygon fill="midnightblue" stroke="midnightblue" points="275.44,-95.54 284.21,-89.6 273.65,-88.78 275.44,-95.54"/>
</g>
<!-- Node4 -->
<g id="node4" class="node">
<title>Node4</title>
<g id="a_node4"><a xlink:href="namespacextb__approxrab.html#a173588bbfef4a08a37b226b9b7bd669f" target="_top" xlink:title=" ">
<polygon fill="white" stroke="black" points="467,-386.5 467,-405.5 571,-405.5 571,-386.5 467,-386.5"/>
<text text-anchor="middle" x="519" y="-393.5" font-family="Helvetica,sans-Serif" font-size="10.00">xtb_approxrab::itr</text>
</a>
</g>
</g>
<!-- Node3&#45;&gt;Node4 -->
<g id="edge3" class="edge">
<title>Node3&#45;&gt;Node4</title>
<path fill="none" stroke="midnightblue" d="M389.54,-396C411.04,-396 435.09,-396 456.51,-396"/>
<polygon fill="midnightblue" stroke="midnightblue" points="456.79,-399.5 466.79,-396 456.79,-392.5 456.79,-399.5"/>
</g>
<!-- Node6 -->
<g id="node6" class="node">
<title>Node6</title>
<g id="a_node6"><a xlink:href="constr_8f90.html#a32be9c5b624117bb5292ce41655493c1" target="_top" xlink:title=" ">
<polygon fill="white" stroke="black" points="497,-342.5 497,-361.5 541,-361.5 541,-342.5 497,-342.5"/>
<text text-anchor="middle" x="519" y="-349.5" font-family="Helvetica,sans-Serif" font-size="10.00">bangl</text>
</a>
</g>
</g>
<!-- Node5&#45;&gt;Node6 -->
<g id="edge5" class="edge">
<title>Node5&#45;&gt;Node6</title>
<path fill="none" stroke="midnightblue" d="M363.38,-352C399.02,-352 452.79,-352 486.62,-352"/>
<polygon fill="midnightblue" stroke="midnightblue" points="486.85,-355.5 496.85,-352 486.85,-348.5 486.85,-355.5"/>
</g>
<!-- Node9 -->
<g id="node9" class="node">
<title>Node9</title>
<g id="a_node9"><a xlink:href="constr_8f90.html#a8b9983c57e44abcd5ef71525d9a9917b" target="_top" xlink:title=" ">
<polygon fill="white" stroke="black" points="495.5,-266.5 495.5,-285.5 542.5,-285.5 542.5,-266.5 495.5,-266.5"/>
<text text-anchor="middle" x="519" y="-273.5" font-family="Helvetica,sans-Serif" font-size="10.00">valijkl</text>
</a>
</g>
</g>
<!-- Node8&#45;&gt;Node9 -->
<g id="edge8" class="edge">
<title>Node8&#45;&gt;Node9</title>
<path fill="none" stroke="midnightblue" d="M366.11,-276C401.27,-276 452.31,-276 485.34,-276"/>
<polygon fill="midnightblue" stroke="midnightblue" points="485.38,-279.5 495.38,-276 485.38,-272.5 485.38,-279.5"/>
</g>
<!-- Node10 -->
<g id="node10" class="node">
<title>Node10</title>
<g id="a_node10"><a xlink:href="constr_8f90.html#a10258b751fb1a02456622523df6e8b49" target="_top" xlink:title=" ">
<polygon fill="white" stroke="black" points="701.5,-304.5 701.5,-323.5 765.5,-323.5 765.5,-304.5 701.5,-304.5"/>
<text text-anchor="middle" x="733.5" y="-311.5" font-family="Helvetica,sans-Serif" font-size="10.00">crossprod</text>
</a>
</g>
</g>
<!-- Node9&#45;&gt;Node10 -->
<g id="edge9" class="edge">
<title>Node9&#45;&gt;Node10</title>
<path fill="none" stroke="midnightblue" d="M542.74,-280.07C578.2,-286.41 647.19,-298.74 691.49,-306.67"/>
<polygon fill="midnightblue" stroke="midnightblue" points="690.91,-310.12 701.37,-308.43 692.14,-303.23 690.91,-310.12"/>
</g>
<!-- Node11 -->
<g id="node11" class="node">
<title>Node11</title>
<g id="a_node11"><a xlink:href="constr_8f90.html#a5fc70d66b0231afec39209517852b818" target="_top" xlink:title=" ">
<polygon fill="white" stroke="black" points="711.5,-266.5 711.5,-285.5 755.5,-285.5 755.5,-266.5 711.5,-266.5"/>
<text text-anchor="middle" x="733.5" y="-273.5" font-family="Helvetica,sans-Serif" font-size="10.00">valijk</text>
</a>
</g>
</g>
<!-- Node9&#45;&gt;Node11 -->
<g id="edge10" class="edge">
<title>Node9&#45;&gt;Node11</title>
<path fill="none" stroke="midnightblue" d="M542.74,-276C580.84,-276 657.64,-276 700.94,-276"/>
<polygon fill="midnightblue" stroke="midnightblue" points="701.19,-279.5 711.19,-276 701.19,-272.5 701.19,-279.5"/>
</g>
<!-- Node12 -->
<g id="node12" class="node">
<title>Node12</title>
<g id="a_node12"><a xlink:href="constr_8f90.html#af5b7bb0960a128b6ee8d53b2f0ba2135" target="_top" xlink:title=" ">
<polygon fill="white" stroke="black" points="868,-247.5 868,-266.5 927,-266.5 927,-247.5 868,-247.5"/>
<text text-anchor="middle" x="897.5" y="-254.5" font-family="Helvetica,sans-Serif" font-size="10.00">vecnorm</text>
</a>
</g>
</g>
<!-- Node9&#45;&gt;Node12 -->
<g id="edge12" class="edge">
<title>Node9&#45;&gt;Node12</title>
<path fill="none" stroke="midnightblue" d="M542.77,-271.11C565.88,-266.41 602.73,-259.65 635,-257 713.78,-250.54 806.37,-252.86 857.53,-255.02"/>
<polygon fill="midnightblue" stroke="midnightblue" points="857.66,-258.52 867.8,-255.47 857.97,-251.53 857.66,-258.52"/>
</g>
<!-- Node11&#45;&gt;Node12 -->
<g id="edge11" class="edge">
<title>Node11&#45;&gt;Node12</title>
<path fill="none" stroke="midnightblue" d="M755.68,-273.52C781.49,-270.49 825.62,-265.31 857.61,-261.56"/>
<polygon fill="midnightblue" stroke="midnightblue" points="858.42,-264.99 867.95,-260.35 857.61,-258.04 858.42,-264.99"/>
</g>
<!-- Node16 -->
<g id="node16" class="node">
<title>Node16</title>
<g id="a_node16"><a xlink:href="namespacextb__mctc__symbols.html#abe837ad333242b4dd3073c5747c13e28" target="_top" xlink:title="Convert atomic number to element symbol.">
<polygon fill="white" stroke="black" points="439,-133.5 439,-152.5 599,-152.5 599,-133.5 439,-133.5"/>
<text text-anchor="middle" x="519" y="-140.5" font-family="Helvetica,sans-Serif" font-size="10.00">xtb_mctc_symbols::tosymbol</text>
</a>
</g>
</g>
<!-- Node15&#45;&gt;Node16 -->
<g id="edge16" class="edge">
<title>Node15&#45;&gt;Node16</title>
<path fill="none" stroke="midnightblue" d="M364.64,-191.17C376.92,-188.14 390.59,-184.6 403,-181 429.39,-173.35 458.8,-163.61 481.27,-155.91"/>
<polygon fill="midnightblue" stroke="midnightblue" points="482.45,-159.2 490.76,-152.63 480.17,-152.59 482.45,-159.2"/>
</g>
<!-- Node17 -->
<g id="node17" class="node">
<title>Node17</title>
<g id="a_node17"><a xlink:href="namespacextb__mctc__symbols.html#a79bd74e1e6f1eae5387d103d33088dc8" target="_top" xlink:title="Convert atomic number to element symbol.">
<polygon fill="white" stroke="black" points="635,-133.5 635,-152.5 832,-152.5 832,-133.5 635,-133.5"/>
<text text-anchor="middle" x="733.5" y="-140.5" font-family="Helvetica,sans-Serif" font-size="10.00">xtb_mctc_symbols::numbertosymbol</text>
</a>
</g>
</g>
<!-- Node16&#45;&gt;Node17 -->
<g id="edge17" class="edge">
<title>Node16&#45;&gt;Node17</title>
<path fill="none" stroke="midnightblue" d="M599.13,-143C607.52,-143 616.16,-143 624.81,-143"/>
<polygon fill="midnightblue" stroke="midnightblue" points="624.96,-146.5 634.96,-143 624.96,-139.5 624.96,-146.5"/>
</g>
<!-- Node18&#45;&gt;Node16 -->
<g id="edge19" class="edge">
<title>Node18&#45;&gt;Node16</title>
<path fill="none" stroke="midnightblue" d="M371.78,-157.55C388.85,-155.85 408.97,-153.85 428.74,-151.88"/>
<polygon fill="midnightblue" stroke="midnightblue" points="429.1,-155.36 438.7,-150.89 428.41,-148.4 429.1,-155.36"/>
</g>
<!-- Node19&#45;&gt;Node16 -->
<g id="edge21" class="edge">
<title>Node19&#45;&gt;Node16</title>
<path fill="none" stroke="midnightblue" d="M372.26,-128.5C389.17,-130.18 409.02,-132.16 428.53,-134.1"/>
<polygon fill="midnightblue" stroke="midnightblue" points="428.39,-137.6 438.68,-135.11 429.08,-130.64 428.39,-137.6"/>
</g>
<!-- Node21 -->
<g id="node21" class="node">
<title>Node21</title>
<g id="a_node21"><a xlink:href="geometry_8f90.html#abcc4a95301fdef1b928745a44f3ef1d9" target="_top" xlink:title=" ">
<polygon fill="white" stroke="black" points="686.5,-38.5 686.5,-57.5 780.5,-57.5 780.5,-38.5 686.5,-38.5"/>
<text text-anchor="middle" x="733.5" y="-45.5" font-family="Helvetica,sans-Serif" font-size="10.00">center_of_mass</text>
</a>
</g>
</g>
<!-- Node20&#45;&gt;Node21 -->
<g id="edge23" class="edge">
<title>Node20&#45;&gt;Node21</title>
<path fill="none" stroke="midnightblue" d="M371.74,-57.36C392.15,-61.17 416.69,-65.12 439,-67 509.86,-72.97 528.07,-72.02 599,-67 624.54,-65.19 652.63,-61.46 676.42,-57.78"/>
<polygon fill="midnightblue" stroke="midnightblue" points="677,-61.23 686.33,-56.21 675.91,-54.32 677,-61.23"/>
</g>
<!-- Node22 -->
<g id="node22" class="node">
<title>Node22</title>
<g id="a_node22"><a xlink:href="geometry_8f90.html#ab6971bf063696638f9c2fc77b0679642" target="_top" xlink:title=" ">
<polygon fill="white" stroke="black" points="470.5,-38.5 470.5,-57.5 567.5,-57.5 567.5,-38.5 470.5,-38.5"/>
<text text-anchor="middle" x="519" y="-45.5" font-family="Helvetica,sans-Serif" font-size="10.00">molecular_mass</text>
</a>
</g>
</g>
<!-- Node20&#45;&gt;Node22 -->
<g id="edge24" class="edge">
<title>Node20&#45;&gt;Node22</title>
<path fill="none" stroke="midnightblue" d="M371.78,-48C398.2,-48 431.91,-48 460.3,-48"/>
<polygon fill="midnightblue" stroke="midnightblue" points="460.5,-51.5 470.5,-48 460.5,-44.5 460.5,-51.5"/>
</g>
<!-- Node23 -->
<g id="node23" class="node">
<title>Node23</title>
<g id="a_node23"><a xlink:href="geometry_8f90.html#ab0a97b6ae10e9a4118d97db1ccd8b92c" target="_top" xlink:title=" ">
<polygon fill="white" stroke="black" points="461.5,-0.5 461.5,-19.5 576.5,-19.5 576.5,-0.5 461.5,-0.5"/>
<text text-anchor="middle" x="519" y="-7.5" font-family="Helvetica,sans-Serif" font-size="10.00">moments_of_inertia</text>
</a>
</g>
</g>
<!-- Node20&#45;&gt;Node23 -->
<g id="edge25" class="edge">
<title>Node20&#45;&gt;Node23</title>
<path fill="none" stroke="midnightblue" d="M371.78,-39.09C398.1,-33.85 431.66,-27.18 459.98,-21.54"/>
<polygon fill="midnightblue" stroke="midnightblue" points="461.04,-24.9 470.16,-19.52 459.67,-18.04 461.04,-24.9"/>
</g>
<!-- Node23&#45;&gt;Node21 -->
<g id="edge26" class="edge">
<title>Node23&#45;&gt;Node21</title>
<path fill="none" stroke="midnightblue" d="M573.35,-19.54C604.74,-25.15 644.41,-32.25 676.29,-37.95"/>
<polygon fill="midnightblue" stroke="midnightblue" points="675.89,-41.43 686.35,-39.75 677.12,-34.54 675.89,-41.43"/>
</g>
<!-- Node24&#45;&gt;Node16 -->
<g id="edge28" class="edge">
<title>Node24&#45;&gt;Node16</title>
<path fill="none" stroke="midnightblue" d="M367.38,-95.5C378.93,-98.38 391.5,-101.67 403,-105 429.39,-112.65 458.8,-122.39 481.27,-130.09"/>
<polygon fill="midnightblue" stroke="midnightblue" points="480.17,-133.41 490.76,-133.37 482.45,-126.8 480.17,-133.41"/>
</g>
<!-- Node25&#45;&gt;Node13 -->
<g id="edge30" class="edge">
<title>Node25&#45;&gt;Node13</title>
<path fill="none" stroke="midnightblue" d="M183.59,-376.86C197.79,-388.98 223.58,-409.35 249,-421 255.63,-424.04 262.82,-426.64 270.04,-428.85"/>
<polygon fill="midnightblue" stroke="midnightblue" points="269.28,-432.27 279.85,-431.63 271.18,-425.54 269.28,-432.27"/>
</g>
</g>
</svg>
        <g id="navigator" transform="translate(0 0)" fill="#404254">
                <rect fill="#f2f5e9" fill-opacity="0.5" stroke="#606060" stroke-width=".5" x="0" y="0" width="60" height="60"/>
                <use id="zoomplus" xlink:href="#zoomPlus" x="17" y="9" onmousedown="handleZoom(evt,'in')"/>
                <use id="zoomminus" xlink:href="#zoomMin" x="42" y="9" onmousedown="handleZoom(evt,'out')"/>
                <use id="reset" xlink:href="#resetDef" x="30" y="36" onmousedown="handleReset()"/>
                <g id="arrowUp" xlink:href="#dirArrow" transform="translate(30 24)" onmousedown="handlePan(0,-1)">
                  <use xlink:href="#rim" fill="#404040">
                        <set attributeName="fill" to="#808080" begin="arrowUp.mouseover" end="arrowUp.mouseout"/>
                  </use>
                  <path fill="none" stroke="white" stroke-width="1.5" d="M0,-3.0v7 M-2.5,-0.5L0,-3.0L2.5,-0.5"/>
                </g>
                <g id="arrowRight" xlink:href="#dirArrow" transform="rotate(90) translate(36 -43)" onmousedown="handlePan(1,0)">
                  <use xlink:href="#rim" fill="#404040">
                        <set attributeName="fill" to="#808080" begin="arrowRight.mouseover" end="arrowRight.mouseout"/>
                  </use>
                  <path fill="none" stroke="white" stroke-width="1.5" d="M0,-3.0v7 M-2.5,-0.5L0,-3.0L2.5,-0.5"/>
                </g>
                <g id="arrowDown" xlink:href="#dirArrow" transform="rotate(180) translate(-30 -48)" onmousedown="handlePan(0,1)">
                  <use xlink:href="#rim" fill="#404040">
                        <set attributeName="fill" to="#808080" begin="arrowDown.mouseover" end="arrowDown.mouseout"/>
                  </use>
                  <path fill="none" stroke="white" stroke-width="1.5" d="M0,-3.0v7 M-2.5,-0.5L0,-3.0L2.5,-0.5"/>
                </g>
                <g id="arrowLeft" xlink:href="#dirArrow" transform="rotate(270) translate(-36 17)" onmousedown="handlePan(-1,0)">
                  <use xlink:href="#rim" fill="#404040">
                        <set attributeName="fill" to="#808080" begin="arrowLeft.mouseover" end="arrowLeft.mouseout"/>
                  </use>
                  <path fill="none" stroke="white" stroke-width="1.5" d="M0,-3.0v7 M-2.5,-0.5L0,-3.0L2.5,-0.5"/>
                </g>
        </g>
        <svg viewBox="0 0 15 15" width="100%" height="30px" preserveAspectRatio="xMaxYMin meet">
         <g id="arrow_out" transform="scale(0.3 0.3)">
          <a xlink:href="geometry_8f90_a23b2001cff658be234bf77942d0d5fd4_cgraph_org.svg" target="_base">
           <rect id="button" ry="5" rx="5" y="6" x="6" height="38" width="38"
                fill="#f2f5e9" fill-opacity="0.5" stroke="#606060" stroke-width="1.0"/>
           <path id="arrow"
             d="M 11.500037,31.436501 C 11.940474,20.09759 22.043105,11.32322 32.158766,21.979434 L 37.068811,17.246167 C 37.068811,17.246167 37.088388,32 37.088388,32 L 22.160133,31.978069 C 22.160133,31.978069 26.997745,27.140456 26.997745,27.140456 C 18.528582,18.264221 13.291696,25.230495 11.500037,31.436501 z"
             style="fill:#404040;"/>
          </a>
         </g>
        </svg>
</svg>
