<?xml version="1.0" encoding="UTF-8" standalone="no"?>
<!DOCTYPE svg PUBLIC "-//W3C//DTD SVG 1.1//EN"
 "http://www.w3.org/Graphics/SVG/1.1/DTD/svg11.dtd">
<!-- Generated by graphviz version 2.46.1 (20210215.1649)
 -->
<!-- Title: xbangle Pages: 1 -->
<svg width="868pt" height="268pt"
 viewBox="0.00 0.00 868.00 267.50" xmlns="http://www.w3.org/2000/svg" xmlns:xlink="http://www.w3.org/1999/xlink">
<g id="graph0" class="graph" transform="scale(1 1) rotate(0) translate(4 263.5)">
<title>xbangle</title>
<polygon fill="white" stroke="transparent" points="-4,4 -4,-263.5 864,-263.5 864,4 -4,4"/>
<!-- Node1 -->
<g id="node1" class="node">
<title>Node1</title>
<g id="a_node1"><a xlink:title=" ">
<polygon fill="#bfbfbf" stroke="black" points="810,-126 810,-145 860,-145 860,-126 810,-126"/>
<text text-anchor="middle" x="835" y="-133" font-family="Helvetica,sans-Serif" font-size="10.00">xbangle</text>
</a>
</g>
</g>
<!-- Node2 -->
<g id="node2" class="node">
<title>Node2</title>
<g id="a_node2"><a xlink:href="geosum_8f90.html#a79191494bb201c6a1cbae96bf22fbf1b" target="_top" xlink:title=" ">
<polygon fill="white" stroke="black" points="723,-126 723,-145 774,-145 774,-126 723,-126"/>
<text text-anchor="middle" x="748.5" y="-133" font-family="Helvetica,sans-Serif" font-size="10.00">geosum</text>
</a>
</g>
</g>
<!-- Node1&#45;&gt;Node2 -->
<g id="edge1" class="edge">
<title>Node1&#45;&gt;Node2</title>
<path fill="none" stroke="midnightblue" d="M799.51,-135.5C791.02,-135.5 782.1,-135.5 774.18,-135.5"/>
<polygon fill="midnightblue" stroke="midnightblue" points="799.56,-139 809.56,-135.5 799.56,-132 799.56,-139"/>
</g>
<!-- Node3 -->
<g id="node3" class="node">
<title>Node3</title>
<g id="a_node3"><a xlink:href="namespacextb__geoopt.html#a1f0513294f2237b94f355cc4dc5dd867" target="_top" xlink:title=" ">
<polygon fill="white" stroke="black" points="579,-120.5 579,-150.5 687,-150.5 687,-120.5 579,-120.5"/>
<text text-anchor="start" x="587" y="-138.5" font-family="Helvetica,sans-Serif" font-size="10.00">xtb_geoopt::geometry</text>
<text text-anchor="middle" x="633" y="-127.5" font-family="Helvetica,sans-Serif" font-size="10.00">_optimization</text>
</a>
</g>
</g>
<!-- Node2&#45;&gt;Node3 -->
<g id="edge2" class="edge">
<title>Node2&#45;&gt;Node3</title>
<path fill="none" stroke="midnightblue" d="M712.67,-135.5C704.55,-135.5 695.72,-135.5 687,-135.5"/>
<polygon fill="midnightblue" stroke="midnightblue" points="712.87,-139 722.87,-135.5 712.87,-132 712.87,-139"/>
</g>
<!-- Node4 -->
<g id="node4" class="node">
<title>Node4</title>
<g id="a_node4"><a xlink:href="namespacextb__kopt.html#ada4ab70832f563f46c8ffc8cea64c78b" target="_top" xlink:title=" ">
<polygon fill="white" stroke="black" points="439,-240 439,-259 537,-259 537,-240 439,-240"/>
<text text-anchor="middle" x="488" y="-247" font-family="Helvetica,sans-Serif" font-size="10.00">xtb_kopt::get_rmsd</text>
</a>
</g>
</g>
<!-- Node3&#45;&gt;Node4 -->
<g id="edge3" class="edge">
<title>Node3&#45;&gt;Node4</title>
<path fill="none" stroke="midnightblue" d="M613.56,-158.49C596.79,-178.25 570.53,-206.48 543,-225.5 534.73,-231.22 524.88,-236.07 515.87,-239.89"/>
<polygon fill="midnightblue" stroke="midnightblue" points="616.43,-160.52 620.14,-150.6 611.05,-156.04 616.43,-160.52"/>
</g>
<!-- Node6 -->
<g id="node6" class="node">
<title>Node6</title>
<g id="a_node6"><a xlink:href="namespacextb__prog__main.html#a92b3b61ee04235e6343f652095682529" target="_top" xlink:title=" ">
<polygon fill="white" stroke="black" points="126,-126 126,-145 244,-145 244,-126 126,-126"/>
<text text-anchor="middle" x="185" y="-133" font-family="Helvetica,sans-Serif" font-size="10.00">xtb_prog_main::xtbmain</text>
</a>
</g>
</g>
<!-- Node3&#45;&gt;Node6 -->
<g id="edge17" class="edge">
<title>Node3&#45;&gt;Node6</title>
<path fill="none" stroke="midnightblue" d="M588.55,-154.41C521.41,-180.98 388.82,-222.92 280,-192.5 246.91,-183.25 213.88,-158.83 197.19,-145.14"/>
<polygon fill="midnightblue" stroke="midnightblue" points="590,-157.6 597.97,-150.61 587.39,-151.1 590,-157.6"/>
</g>
<!-- Node8 -->
<g id="node8" class="node">
<title>Node8</title>
<g id="a_node8"><a xlink:href="namespacextb__mdoptim.html#ab0ba2195163cd6794115b99516ba5316" target="_top" xlink:title=" ">
<polygon fill="white" stroke="black" points="286.5,-164 286.5,-183 390.5,-183 390.5,-164 286.5,-164"/>
<text text-anchor="middle" x="338.5" y="-171" font-family="Helvetica,sans-Serif" font-size="10.00">xtb_mdoptim::mdopt</text>
</a>
</g>
</g>
<!-- Node3&#45;&gt;Node8 -->
<g id="edge7" class="edge">
<title>Node3&#45;&gt;Node8</title>
<path fill="none" stroke="midnightblue" d="M568.79,-145.75C560.13,-147.06 551.35,-148.35 543,-149.5 491.19,-156.63 431.78,-163.48 390.58,-168.03"/>
<polygon fill="midnightblue" stroke="midnightblue" points="569.52,-149.18 578.87,-144.2 568.45,-142.26 569.52,-149.18"/>
</g>
<!-- Node9 -->
<g id="node9" class="node">
<title>Node9</title>
<g id="a_node9"><a xlink:href="namespacextb__modef.html#a39c4cb408b8b02afb7bf83a1d7f13de3" target="_top" xlink:title=" ">
<polygon fill="white" stroke="black" points="280.5,-126 280.5,-145 396.5,-145 396.5,-126 280.5,-126"/>
<text text-anchor="middle" x="338.5" y="-133" font-family="Helvetica,sans-Serif" font-size="10.00">xtb_modef::modefollow</text>
</a>
</g>
</g>
<!-- Node3&#45;&gt;Node9 -->
<g id="edge9" class="edge">
<title>Node3&#45;&gt;Node9</title>
<path fill="none" stroke="midnightblue" d="M568.42,-135.5C517.28,-135.5 446.06,-135.5 396.69,-135.5"/>
<polygon fill="midnightblue" stroke="midnightblue" points="568.69,-139 578.69,-135.5 568.69,-132 568.69,-139"/>
</g>
<!-- Node10 -->
<g id="node10" class="node">
<title>Node10</title>
<g id="a_node10"><a xlink:href="namespacextb__scan.html#abef8f8d0fa299e9e2caf823f3672f14a" target="_top" xlink:title=" ">
<polygon fill="white" stroke="black" points="280,-88 280,-107 397,-107 397,-88 280,-88"/>
<text text-anchor="middle" x="338.5" y="-95" font-family="Helvetica,sans-Serif" font-size="10.00">xtb_scan::relaxed_scan</text>
</a>
</g>
</g>
<!-- Node3&#45;&gt;Node10 -->
<g id="edge11" class="edge">
<title>Node3&#45;&gt;Node10</title>
<path fill="none" stroke="midnightblue" d="M568.77,-127.29C517.78,-120.66 446.66,-111.42 397.2,-105"/>
<polygon fill="midnightblue" stroke="midnightblue" points="568.32,-130.76 578.69,-128.57 569.23,-123.82 568.32,-130.76"/>
</g>
<!-- Node11 -->
<g id="node11" class="node">
<title>Node11</title>
<g id="a_node11"><a xlink:href="namespacextb__screening.html#a7f4004ff0e65127a38b038f0a7cdcc84" target="_top" xlink:title=" ">
<polygon fill="white" stroke="black" points="433,-50 433,-69 543,-69 543,-50 433,-50"/>
<text text-anchor="middle" x="488" y="-57" font-family="Helvetica,sans-Serif" font-size="10.00">xtb_screening::screen</text>
</a>
</g>
</g>
<!-- Node3&#45;&gt;Node11 -->
<g id="edge13" class="edge">
<title>Node3&#45;&gt;Node11</title>
<path fill="none" stroke="midnightblue" d="M599.08,-115.1C582.51,-105.12 561.95,-93.21 543,-83.5 533.05,-78.4 521.78,-73.29 512.12,-69.11"/>
<polygon fill="midnightblue" stroke="midnightblue" points="597.49,-118.22 607.85,-120.41 601.11,-112.24 597.49,-118.22"/>
</g>
<!-- Node12 -->
<g id="node12" class="node">
<title>Node12</title>
<g id="a_node12"><a xlink:href="namespacextb__gfnff__convert.html#adf399b47b9f2a8364327d9d5c38cb2b8" target="_top" xlink:title=" ">
<polygon fill="white" stroke="black" points="440.5,-0.5 440.5,-30.5 535.5,-30.5 535.5,-0.5 440.5,-0.5"/>
<text text-anchor="start" x="448.5" y="-18.5" font-family="Helvetica,sans-Serif" font-size="10.00">xtb_gfnff_convert::</text>
<text text-anchor="middle" x="488" y="-7.5" font-family="Helvetica,sans-Serif" font-size="10.00">struc_convert</text>
</a>
</g>
</g>
<!-- Node3&#45;&gt;Node12 -->
<g id="edge15" class="edge">
<title>Node3&#45;&gt;Node12</title>
<path fill="none" stroke="midnightblue" d="M614.53,-112.26C597.92,-91.39 571.33,-60.98 543,-40.5 537.98,-36.87 532.34,-33.57 526.66,-30.64"/>
<polygon fill="midnightblue" stroke="midnightblue" points="611.89,-114.57 620.8,-120.29 617.4,-110.26 611.89,-114.57"/>
</g>
<!-- Node5 -->
<g id="node5" class="node">
<title>Node5</title>
<g id="a_node5"><a xlink:href="namespacextb__kopt.html#aed50b40106367857ab2d0bf3a109f62b" target="_top" xlink:title=" ">
<polygon fill="white" stroke="black" points="291,-240 291,-259 386,-259 386,-240 291,-240"/>
<text text-anchor="middle" x="338.5" y="-247" font-family="Helvetica,sans-Serif" font-size="10.00">xtb_kopt::get_kopt</text>
</a>
</g>
</g>
<!-- Node4&#45;&gt;Node5 -->
<g id="edge4" class="edge">
<title>Node4&#45;&gt;Node5</title>
<path fill="none" stroke="midnightblue" d="M428.66,-249.5C414.63,-249.5 399.83,-249.5 386.4,-249.5"/>
<polygon fill="midnightblue" stroke="midnightblue" points="428.7,-253 438.7,-249.5 428.7,-246 428.7,-253"/>
</g>
<!-- Node5&#45;&gt;Node6 -->
<g id="edge5" class="edge">
<title>Node5&#45;&gt;Node6</title>
<path fill="none" stroke="midnightblue" d="M299.32,-235.9C292.66,-232.88 285.96,-229.4 280,-225.5 243.7,-201.74 208.98,-163 193.88,-145.11"/>
<polygon fill="midnightblue" stroke="midnightblue" points="298.39,-239.31 308.96,-239.99 301.12,-232.87 298.39,-239.31"/>
</g>
<!-- Node7 -->
<g id="node7" class="node">
<title>Node7</title>
<g id="a_node7"><a xlink:href="primary_8f90.html#a2a67903cf5be605c5b6d3c362c6a3c5c" target="_top" xlink:title="The primary driver for the xtb program package.">
<polygon fill="white" stroke="black" points="0,-126 0,-145 90,-145 90,-126 0,-126"/>
<text text-anchor="middle" x="45" y="-133" font-family="Helvetica,sans-Serif" font-size="10.00">xtb_prog_primary</text>
</a>
</g>
</g>
<!-- Node6&#45;&gt;Node7 -->
<g id="edge6" class="edge">
<title>Node6&#45;&gt;Node7</title>
<path fill="none" stroke="midnightblue" d="M115.73,-135.5C107.06,-135.5 98.37,-135.5 90.22,-135.5"/>
<polygon fill="midnightblue" stroke="midnightblue" points="115.88,-139 125.88,-135.5 115.88,-132 115.88,-139"/>
</g>
<!-- Node8&#45;&gt;Node6 -->
<g id="edge8" class="edge">
<title>Node8&#45;&gt;Node6</title>
<path fill="none" stroke="midnightblue" d="M289.5,-161.46C268.33,-156.15 243.81,-150 223.95,-145.02"/>
<polygon fill="midnightblue" stroke="midnightblue" points="288.72,-164.87 299.27,-163.91 290.42,-158.08 288.72,-164.87"/>
</g>
<!-- Node9&#45;&gt;Node6 -->
<g id="edge10" class="edge">
<title>Node9&#45;&gt;Node6</title>
<path fill="none" stroke="midnightblue" d="M270.13,-135.5C261.45,-135.5 252.62,-135.5 244.11,-135.5"/>
<polygon fill="midnightblue" stroke="midnightblue" points="270.22,-139 280.22,-135.5 270.22,-132 270.22,-139"/>
</g>
<!-- Node10&#45;&gt;Node6 -->
<g id="edge12" class="edge">
<title>Node10&#45;&gt;Node6</title>
<path fill="none" stroke="midnightblue" d="M289.5,-109.54C268.33,-114.85 243.81,-121 223.95,-125.98"/>
<polygon fill="midnightblue" stroke="midnightblue" points="290.42,-112.92 299.27,-107.09 288.72,-106.13 290.42,-112.92"/>
</g>
<!-- Node11&#45;&gt;Node6 -->
<g id="edge14" class="edge">
<title>Node11&#45;&gt;Node6</title>
<path fill="none" stroke="midnightblue" d="M422.88,-58C381.21,-58.81 326.23,-63.27 280,-78.5 247.73,-89.13 214.89,-112.54 197.88,-125.81"/>
<polygon fill="midnightblue" stroke="midnightblue" points="422.95,-61.5 432.91,-57.88 422.86,-54.5 422.95,-61.5"/>
</g>
<!-- Node12&#45;&gt;Node6 -->
<g id="edge16" class="edge">
<title>Node12&#45;&gt;Node6</title>
<path fill="none" stroke="midnightblue" d="M430.43,-18.21C387.36,-22.11 327.59,-31.59 280,-54.5 242.93,-72.35 208.85,-108.65 193.93,-125.94"/>
<polygon fill="midnightblue" stroke="midnightblue" points="430.77,-21.69 440.45,-17.37 430.19,-14.72 430.77,-21.69"/>
</g>
</g>
</svg>
