<?xml version="1.0" encoding="UTF-8" standalone="no"?>
<!DOCTYPE svg PUBLIC "-//W3C//DTD SVG 1.1//EN"
 "http://www.w3.org/Graphics/SVG/1.1/DTD/svg11.dtd">
<!-- Generated by graphviz version 2.43.0 (0)
 -->
<!-- Title: gfnffqmsolve Pages: 1 -->
<svg width="406pt" height="104pt"
 viewBox="0.00 0.00 406.00 104.00" xmlns="http://www.w3.org/2000/svg" xmlns:xlink="http://www.w3.org/1999/xlink">
<g id="graph0" class="graph" transform="scale(1 1) rotate(0) translate(4 100)">
<title>gfnffqmsolve</title>
<polygon fill="white" stroke="transparent" points="-4,4 -4,-100 402,-100 402,4 -4,4"/>
<!-- Node1 -->
<g id="node1" class="node">
<title>Node1</title>
<g id="a_node1"><a xlink:title=" ">
<polygon fill="#bfbfbf" stroke="black" points="0,-38.5 0,-57.5 81,-57.5 81,-38.5 0,-38.5"/>
<text text-anchor="middle" x="40.5" y="-45.5" font-family="Helvetica,sans-Serif" font-size="10.00">gfnffqmsolve</text>
</a>
</g>
</g>
<!-- Node2 -->
<g id="node2" class="node">
<title>Node2</title>
<g id="a_node2"><a xlink:href="namespacextb__scc__core.html#af5c3cd803d403c23fc0ae9c2eb1229c6" target="_top" xlink:title="density matrix">
<polygon fill="white" stroke="black" points="133,-76.5 133,-95.5 244,-95.5 244,-76.5 133,-76.5"/>
<text text-anchor="middle" x="188.5" y="-83.5" font-family="Helvetica,sans-Serif" font-size="10.00">xtb_scc_core::dmat</text>
</a>
</g>
</g>
<!-- Node1&#45;&gt;Node2 -->
<g id="edge1" class="edge">
<title>Node1&#45;&gt;Node2</title>
<path fill="none" stroke="midnightblue" d="M78.34,-57.59C97.35,-62.54 120.73,-68.62 140.97,-73.89"/>
<polygon fill="midnightblue" stroke="midnightblue" points="140.36,-77.35 150.92,-76.48 142.13,-70.57 140.36,-77.35"/>
</g>
<!-- Node3 -->
<g id="node3" class="node">
<title>Node3</title>
<g id="a_node3"><a xlink:href="namespacextb__scc__core.html#a6464c6f815b95933767e307bbe7b34d1" target="_top" xlink:title=" ">
<polygon fill="white" stroke="black" points="117,-38.5 117,-57.5 260,-57.5 260,-38.5 117,-38.5"/>
<text text-anchor="middle" x="188.5" y="-45.5" font-family="Helvetica,sans-Serif" font-size="10.00">xtb_scc_core::fermismear</text>
</a>
</g>
</g>
<!-- Node1&#45;&gt;Node3 -->
<g id="edge2" class="edge">
<title>Node1&#45;&gt;Node3</title>
<path fill="none" stroke="midnightblue" d="M81.01,-48C89.05,-48 97.78,-48 106.66,-48"/>
<polygon fill="midnightblue" stroke="midnightblue" points="106.73,-51.5 116.73,-48 106.73,-44.5 106.73,-51.5"/>
</g>
<!-- Node5 -->
<g id="node5" class="node">
<title>Node5</title>
<g id="a_node5"><a xlink:href="namespacextb__scc__core.html#aac06c643c8cf37ba0337ace78508ab19" target="_top" xlink:title=" ">
<polygon fill="white" stroke="black" points="134.5,-0.5 134.5,-19.5 242.5,-19.5 242.5,-0.5 134.5,-0.5"/>
<text text-anchor="middle" x="188.5" y="-7.5" font-family="Helvetica,sans-Serif" font-size="10.00">xtb_scc_core::occu</text>
</a>
</g>
</g>
<!-- Node1&#45;&gt;Node5 -->
<g id="edge4" class="edge">
<title>Node1&#45;&gt;Node5</title>
<path fill="none" stroke="midnightblue" d="M78.34,-38.41C97.35,-33.46 120.73,-27.38 140.97,-22.11"/>
<polygon fill="midnightblue" stroke="midnightblue" points="142.13,-25.43 150.92,-19.52 140.36,-18.65 142.13,-25.43"/>
</g>
<!-- Node4 -->
<g id="node4" class="node">
<title>Node4</title>
<g id="a_node4"><a xlink:href="namespacextb__scc__core.html#a3226bc1823e27aac5c97598c51086ea4" target="_top" xlink:title=" ">
<polygon fill="white" stroke="black" points="296,-38.5 296,-57.5 398,-57.5 398,-38.5 296,-38.5"/>
<text text-anchor="middle" x="347" y="-45.5" font-family="Helvetica,sans-Serif" font-size="10.00">xtb_scc_core::occ</text>
</a>
</g>
</g>
<!-- Node3&#45;&gt;Node4 -->
<g id="edge3" class="edge">
<title>Node3&#45;&gt;Node4</title>
<path fill="none" stroke="midnightblue" d="M260.42,-48C268.84,-48 277.37,-48 285.62,-48"/>
<polygon fill="midnightblue" stroke="midnightblue" points="285.89,-51.5 295.89,-48 285.89,-44.5 285.89,-51.5"/>
</g>
</g>
</svg>
