<?xml version="1.0" encoding="UTF-8" standalone="no"?>
<!DOCTYPE svg PUBLIC "-//W3C//DTD SVG 1.1//EN"
 "http://www.w3.org/Graphics/SVG/1.1/DTD/svg11.dtd">
<!-- Generated by graphviz version 2.46.0 (20210122.1329)
 -->
<!-- Title: generic_header Pages: 1 -->
<!--zoomable 674 -->
<svg id="main" version="1.1" xmlns="http://www.w3.org/2000/svg" xmlns:xlink="http://www.w3.org/1999/xlink" xml:space="preserve" onload="init(evt)">
<style type="text/css"><![CDATA[
.edge:hover path { stroke: red; }
.edge:hover polygon { stroke: red; fill: red; }
]]></style>
<script type="text/javascript"><![CDATA[
var edges = document.getElementsByTagName('g');
if (edges && edges.length) {
  for (var i=0;i<edges.length;i++) {
    if (edges[i].id.substr(0,4)=='edge') {
      edges[i].setAttribute('class','edge');
    }
  }
}
]]></script>
        <defs>
                <circle id="rim" cx="0" cy="0" r="7"/>
                <circle id="rim2" cx="0" cy="0" r="3.5"/>
                <g id="zoomPlus">
                        <use xlink:href="#rim" fill="#404040">
                                <set attributeName="fill" to="#808080" begin="zoomplus.mouseover" end="zoomplus.mouseout"/>
                        </use>
                        <path d="M-4,0h8M0,-4v8" fill="none" stroke="white" stroke-width="1.5" pointer-events="none"/>
                </g>
                <g id="zoomMin">
                        <use xlink:href="#rim" fill="#404040">
                                <set attributeName="fill" to="#808080" begin="zoomminus.mouseover" end="zoomminus.mouseout"/>
                        </use>
                        <path d="M-4,0h8" fill="none" stroke="white" stroke-width="1.5" pointer-events="none"/>
                </g>
                <g id="dirArrow">
                        <path fill="none" stroke="white" stroke-width="1.5" d="M0,-3.0v7 M-2.5,-0.5L0,-3.0L2.5,-0.5"/>
                </g>
               <g id="resetDef">
                       <use xlink:href="#rim2" fill="#404040">
                               <set attributeName="fill" to="#808080" begin="reset.mouseover" end="reset.mouseout"/>
                       </use>
               </g>
        </defs>

<script type="text/javascript">
var viewWidth = 831;
var viewHeight = 674;
var sectionId = 'dynsection-3';
</script>
<script xlink:href="svgpan.js"/>
<svg id="graph" class="graph">
<g id="viewport">
<title>generic_header</title>
<polygon fill="white" stroke="transparent" points="-4,4 -4,-670.31 827,-670.31 827,4 -4,4"/>
<!-- Node1 -->
<g id="node1" class="node">
<title>Node1</title>
<g id="a_node1"><a xlink:title=" ">
<polygon fill="#bfbfbf" stroke="black" points="740,-430.5 740,-449.5 823,-449.5 823,-430.5 740,-430.5"/>
<text text-anchor="middle" x="781.5" y="-437.5" font-family="Helvetica,sans-Serif" font-size="10.00">generic_header</text>
</a>
</g>
</g>
<!-- Node2 -->
<g id="node2" class="node">
<title>Node2</title>
<g id="a_node2"><a xlink:href="namespacextb__fixparam.html#aa2a737e2dc6192503d874b4718d7fda2" target="_top" xlink:title=" ">
<polygon fill="white" stroke="black" points="288.5,-446.5 288.5,-465.5 393.5,-465.5 393.5,-446.5 288.5,-446.5"/>
<text text-anchor="middle" x="341" y="-453.5" font-family="Helvetica,sans-Serif" font-size="10.00">xtb_fixparam::fix_info</text>
</a>
</g>
</g>
<!-- Node1&#45;&gt;Node2 -->
<g id="edge1" class="edge">
<title>Node1&#45;&gt;Node2</title>
<path fill="none" stroke="midnightblue" d="M729.87,-450.55C721.27,-451.98 712.41,-453.21 704,-454 593.87,-464.3 464.07,-461.38 393.69,-458.55"/>
<polygon fill="midnightblue" stroke="midnightblue" points="730.54,-453.99 739.79,-448.82 729.34,-447.09 730.54,-453.99"/>
</g>
<!-- Node3 -->
<g id="node3" class="node">
<title>Node3</title>
<g id="a_node3"><a xlink:href="namespacextb__prog__main.html#a92b3b61ee04235e6343f652095682529" target="_top" xlink:title=" ">
<polygon fill="white" stroke="black" points="126,-335.5 126,-354.5 244,-354.5 244,-335.5 126,-335.5"/>
<text text-anchor="middle" x="185" y="-342.5" font-family="Helvetica,sans-Serif" font-size="10.00">xtb_prog_main::xtbmain</text>
</a>
</g>
</g>
<!-- Node1&#45;&gt;Node3 -->
<g id="edge37" class="edge">
<title>Node1&#45;&gt;Node3</title>
<path fill="none" stroke="midnightblue" d="M753.64,-454.16C739.33,-460.95 721.17,-468.37 704,-472 634.02,-486.78 310.05,-490.35 280,-475 228.66,-448.77 198.89,-379.96 189.37,-354.58"/>
<polygon fill="midnightblue" stroke="midnightblue" points="755.45,-457.17 762.88,-449.62 752.36,-450.89 755.45,-457.17"/>
</g>
<!-- Node5 -->
<g id="node5" class="node">
<title>Node5</title>
<g id="a_node5"><a xlink:href="namespacextb__geoopt.html#a1f0513294f2237b94f355cc4dc5dd867" target="_top" xlink:title=" ">
<polygon fill="white" stroke="black" points="593.5,-292 593.5,-322 701.5,-322 701.5,-292 593.5,-292"/>
<text text-anchor="start" x="601.5" y="-310" font-family="Helvetica,sans-Serif" font-size="10.00">xtb_geoopt::geometry</text>
<text text-anchor="middle" x="647.5" y="-299" font-family="Helvetica,sans-Serif" font-size="10.00">_optimization</text>
</a>
</g>
</g>
<!-- Node1&#45;&gt;Node5 -->
<g id="edge4" class="edge">
<title>Node1&#45;&gt;Node5</title>
<path fill="none" stroke="midnightblue" d="M763.8,-423.17C737.98,-397.16 688.76,-347.57 663.82,-322.43"/>
<polygon fill="midnightblue" stroke="midnightblue" points="761.48,-425.8 771.01,-430.43 766.45,-420.87 761.48,-425.8"/>
</g>
<!-- Node7 -->
<g id="node7" class="node">
<title>Node7</title>
<g id="a_node7"><a xlink:href="namespacextb__kopt.html#aed50b40106367857ab2d0bf3a109f62b" target="_top" xlink:title=" ">
<polygon fill="white" stroke="black" points="293.5,-392.5 293.5,-411.5 388.5,-411.5 388.5,-392.5 293.5,-392.5"/>
<text text-anchor="middle" x="341" y="-399.5" font-family="Helvetica,sans-Serif" font-size="10.00">xtb_kopt::get_kopt</text>
</a>
</g>
</g>
<!-- Node1&#45;&gt;Node7 -->
<g id="edge19" class="edge">
<title>Node1&#45;&gt;Node7</title>
<path fill="none" stroke="midnightblue" d="M729.72,-439.4C662.67,-438.1 541.06,-433.99 438,-421 419.96,-418.73 400.23,-415.03 383.38,-411.51"/>
<polygon fill="midnightblue" stroke="midnightblue" points="729.94,-442.9 740,-439.58 730.06,-435.9 729.94,-442.9"/>
</g>
<!-- Node13 -->
<g id="node13" class="node">
<title>Node13</title>
<g id="a_node13"><a xlink:href="namespacextb__propertyoutput.html#ad782985a4e00b53e23bb10b09058997c" target="_top" xlink:title=" ">
<polygon fill="white" stroke="black" points="599.5,-621 599.5,-651 695.5,-651 695.5,-621 599.5,-621"/>
<text text-anchor="start" x="607.5" y="-639" font-family="Helvetica,sans-Serif" font-size="10.00">xtb_propertyoutput</text>
<text text-anchor="middle" x="647.5" y="-628" font-family="Helvetica,sans-Serif" font-size="10.00">::main_freq</text>
</a>
</g>
</g>
<!-- Node1&#45;&gt;Node13 -->
<g id="edge20" class="edge">
<title>Node1&#45;&gt;Node13</title>
<path fill="none" stroke="midnightblue" d="M775.78,-459.83C766.89,-493.53 744.77,-562.55 704,-606 698.53,-611.83 691.67,-616.78 684.65,-620.87"/>
<polygon fill="midnightblue" stroke="midnightblue" points="779.25,-460.39 778.3,-449.84 772.46,-458.68 779.25,-460.39"/>
</g>
<!-- Node14 -->
<g id="node14" class="node">
<title>Node14</title>
<g id="a_node14"><a xlink:href="namespacextb__scanparam.html#a98e6076b6bb1acc609033880889710ae" target="_top" xlink:title=" ">
<polygon fill="white" stroke="black" points="280,-588.5 280,-607.5 402,-607.5 402,-588.5 280,-588.5"/>
<text text-anchor="middle" x="341" y="-595.5" font-family="Helvetica,sans-Serif" font-size="10.00">xtb_scanparam::pot_info</text>
</a>
</g>
</g>
<!-- Node1&#45;&gt;Node14 -->
<g id="edge22" class="edge">
<title>Node1&#45;&gt;Node14</title>
<path fill="none" stroke="midnightblue" d="M774.31,-459.33C764.34,-487.01 741.92,-537.21 704,-561 611.42,-619.08 478.65,-615.56 402.29,-607.17"/>
<polygon fill="midnightblue" stroke="midnightblue" points="777.71,-460.21 777.63,-449.61 771.09,-457.95 777.71,-460.21"/>
</g>
<!-- Node15 -->
<g id="node15" class="node">
<title>Node15</title>
<g id="a_node15"><a xlink:href="geometry_8f90.html#a9062f3787220118ef48436b46c7c65cc" target="_top" xlink:title=" ">
<polygon fill="white" stroke="black" points="610,-193.5 610,-212.5 685,-212.5 685,-193.5 610,-193.5"/>
<text text-anchor="middle" x="647.5" y="-200.5" font-family="Helvetica,sans-Serif" font-size="10.00">print_geosum</text>
</a>
</g>
</g>
<!-- Node1&#45;&gt;Node15 -->
<g id="edge24" class="edge">
<title>Node1&#45;&gt;Node15</title>
<path fill="none" stroke="midnightblue" d="M772.55,-421.14C759.59,-390.99 732.47,-330.41 704,-282 688.7,-255.99 667.48,-227.5 656.23,-212.88"/>
<polygon fill="midnightblue" stroke="midnightblue" points="769.39,-422.64 776.53,-430.47 775.83,-419.89 769.39,-422.64"/>
</g>
<!-- Node17 -->
<g id="node17" class="node">
<title>Node17</title>
<g id="a_node17"><a xlink:href="namespacextb__prog__info.html#a075fccea4f47f761a7b667bb819253da" target="_top" xlink:title="Main program of the info submodule.">
<polygon fill="white" stroke="black" points="287.5,-39.5 287.5,-58.5 394.5,-58.5 394.5,-39.5 287.5,-39.5"/>
<text text-anchor="middle" x="341" y="-46.5" font-family="Helvetica,sans-Serif" font-size="10.00">xtb_prog_info::xtbinfo</text>
</a>
</g>
</g>
<!-- Node1&#45;&gt;Node17 -->
<g id="edge36" class="edge">
<title>Node1&#45;&gt;Node17</title>
<path fill="none" stroke="midnightblue" d="M778.65,-420.16C772.22,-355.26 748.69,-150.83 704,-105 623.08,-22.02 473.91,-28.81 394.67,-39.6"/>
<polygon fill="midnightblue" stroke="midnightblue" points="775.18,-420.66 779.63,-430.28 782.15,-419.99 775.18,-420.66"/>
</g>
<!-- Node18 -->
<g id="node18" class="node">
<title>Node18</title>
<g id="a_node18"><a xlink:href="geometry_8f90.html#a9e7cde1e07dc3395db7141a116690235" target="_top" xlink:title=" ">
<polygon fill="white" stroke="black" points="610,-114.5 610,-133.5 685,-133.5 685,-114.5 610,-114.5"/>
<text text-anchor="middle" x="647.5" y="-121.5" font-family="Helvetica,sans-Serif" font-size="10.00">print_pbcsum</text>
</a>
</g>
</g>
<!-- Node1&#45;&gt;Node18 -->
<g id="edge29" class="edge">
<title>Node1&#45;&gt;Node18</title>
<path fill="none" stroke="midnightblue" d="M777.68,-419.92C770.72,-375.09 749.88,-264.43 704,-184 692.47,-163.79 672.93,-144.85 660.38,-133.85"/>
<polygon fill="midnightblue" stroke="midnightblue" points="774.26,-420.7 779.19,-430.07 781.18,-419.67 774.26,-420.7"/>
</g>
<!-- Node21 -->
<g id="node21" class="node">
<title>Node21</title>
<g id="a_node21"><a xlink:href="namespacextb__printout.html#aca0db6a9ce83509b8eb4036795194dbc" target="_top" xlink:title=" ">
<polygon fill="white" stroke="black" points="293.5,-539 293.5,-569 388.5,-569 388.5,-539 293.5,-539"/>
<text text-anchor="start" x="301.5" y="-557" font-family="Helvetica,sans-Serif" font-size="10.00">xtb_printout::setup</text>
<text text-anchor="middle" x="341" y="-546" font-family="Helvetica,sans-Serif" font-size="10.00">_summary</text>
</a>
</g>
</g>
<!-- Node1&#45;&gt;Node21 -->
<g id="edge33" class="edge">
<title>Node1&#45;&gt;Node21</title>
<path fill="none" stroke="midnightblue" d="M770.94,-458.35C758.65,-479.8 735.13,-514.33 704,-530 601.18,-581.74 460.68,-571.84 388.7,-561.94"/>
<polygon fill="midnightblue" stroke="midnightblue" points="774.03,-459.99 775.78,-449.54 767.9,-456.62 774.03,-459.99"/>
</g>
<!-- Node22 -->
<g id="node22" class="node">
<title>Node22</title>
<g id="a_node22"><a xlink:href="namespacextb__xtb__data.html#a6b8f81dc3017132d35176d1fa619ab70" target="_top" xlink:title=" ">
<polygon fill="white" stroke="black" points="591,-0.5 591,-19.5 704,-19.5 704,-0.5 591,-0.5"/>
<text text-anchor="middle" x="647.5" y="-7.5" font-family="Helvetica,sans-Serif" font-size="10.00">xtb_xtb_data::writeinfo</text>
</a>
</g>
</g>
<!-- Node1&#45;&gt;Node22 -->
<g id="edge35" class="edge">
<title>Node1&#45;&gt;Node22</title>
<path fill="none" stroke="midnightblue" d="M779.19,-420.18C774.03,-347.28 752.89,-95.15 704,-34 698.95,-27.69 691.92,-23 684.55,-19.53"/>
<polygon fill="midnightblue" stroke="midnightblue" points="775.71,-420.54 779.89,-430.28 782.69,-420.06 775.71,-420.54"/>
</g>
<!-- Node2&#45;&gt;Node3 -->
<g id="edge2" class="edge">
<title>Node2&#45;&gt;Node3</title>
<path fill="none" stroke="midnightblue" d="M313.17,-441.5C302.61,-435.5 290.52,-428.26 280,-421 248.39,-399.19 213.94,-369.72 196.86,-354.69"/>
<polygon fill="midnightblue" stroke="midnightblue" points="311.54,-444.6 321.97,-446.43 314.95,-438.49 311.54,-444.6"/>
</g>
<!-- Node4 -->
<g id="node4" class="node">
<title>Node4</title>
<g id="a_node4"><a xlink:href="primary_8f90.html#a2a67903cf5be605c5b6d3c362c6a3c5c" target="_top" xlink:title="The primary driver for the xtb program package.">
<polygon fill="white" stroke="black" points="0,-202.5 0,-221.5 90,-221.5 90,-202.5 0,-202.5"/>
<text text-anchor="middle" x="45" y="-209.5" font-family="Helvetica,sans-Serif" font-size="10.00">xtb_prog_primary</text>
</a>
</g>
</g>
<!-- Node3&#45;&gt;Node4 -->
<g id="edge3" class="edge">
<title>Node3&#45;&gt;Node4</title>
<path fill="none" stroke="midnightblue" d="M166.67,-328.3C137.55,-300.23 79.65,-244.43 56.21,-221.84"/>
<polygon fill="midnightblue" stroke="midnightblue" points="164.45,-331.02 174.08,-335.43 169.3,-325.98 164.45,-331.02"/>
</g>
<!-- Node5&#45;&gt;Node3 -->
<g id="edge18" class="edge">
<title>Node5&#45;&gt;Node3</title>
<path fill="none" stroke="midnightblue" d="M583.09,-304.73C541.73,-303.81 486.6,-303.63 438,-307 367.27,-311.9 350.07,-318.16 280,-329 267.08,-331 253.18,-333.29 240.14,-335.5"/>
<polygon fill="midnightblue" stroke="midnightblue" points="583.22,-308.23 593.3,-304.98 583.39,-301.23 583.22,-308.23"/>
</g>
<!-- Node6 -->
<g id="node6" class="node">
<title>Node6</title>
<g id="a_node6"><a xlink:href="namespacextb__kopt.html#ada4ab70832f563f46c8ffc8cea64c78b" target="_top" xlink:title=" ">
<polygon fill="white" stroke="black" points="447.5,-392.5 447.5,-411.5 545.5,-411.5 545.5,-392.5 447.5,-392.5"/>
<text text-anchor="middle" x="496.5" y="-399.5" font-family="Helvetica,sans-Serif" font-size="10.00">xtb_kopt::get_rmsd</text>
</a>
</g>
</g>
<!-- Node5&#45;&gt;Node6 -->
<g id="edge5" class="edge">
<title>Node5&#45;&gt;Node6</title>
<path fill="none" stroke="midnightblue" d="M624.52,-329.35C607,-346.09 581.16,-368.5 555,-383 548.29,-386.72 540.73,-389.86 533.35,-392.46"/>
<polygon fill="midnightblue" stroke="midnightblue" points="627.23,-331.59 631.95,-322.11 622.34,-326.58 627.23,-331.59"/>
</g>
<!-- Node8 -->
<g id="node8" class="node">
<title>Node8</title>
<g id="a_node8"><a xlink:href="namespacextb__mdoptim.html#ab0ba2195163cd6794115b99516ba5316" target="_top" xlink:title=" ">
<polygon fill="white" stroke="black" points="444.5,-190.5 444.5,-209.5 548.5,-209.5 548.5,-190.5 444.5,-190.5"/>
<text text-anchor="middle" x="496.5" y="-197.5" font-family="Helvetica,sans-Serif" font-size="10.00">xtb_mdoptim::mdopt</text>
</a>
</g>
</g>
<!-- Node5&#45;&gt;Node8 -->
<g id="edge8" class="edge">
<title>Node5&#45;&gt;Node8</title>
<path fill="none" stroke="midnightblue" d="M627.98,-284.15C610.9,-264.42 583.87,-236.4 555,-219 548.79,-215.25 541.75,-212.15 534.78,-209.61"/>
<polygon fill="midnightblue" stroke="midnightblue" points="625.32,-286.43 634.46,-291.79 630.66,-281.9 625.32,-286.43"/>
</g>
<!-- Node9 -->
<g id="node9" class="node">
<title>Node9</title>
<g id="a_node9"><a xlink:href="namespacextb__modef.html#a39c4cb408b8b02afb7bf83a1d7f13de3" target="_top" xlink:title=" ">
<polygon fill="white" stroke="black" points="283,-162.5 283,-181.5 399,-181.5 399,-162.5 283,-162.5"/>
<text text-anchor="middle" x="341" y="-169.5" font-family="Helvetica,sans-Serif" font-size="10.00">xtb_modef::modefollow</text>
</a>
</g>
</g>
<!-- Node5&#45;&gt;Node9 -->
<g id="edge10" class="edge">
<title>Node5&#45;&gt;Node9</title>
<path fill="none" stroke="midnightblue" d="M630.96,-283.35C607.82,-248.5 565.88,-186.84 555,-181 504.29,-153.79 436.59,-156.31 391.26,-162.49"/>
<polygon fill="midnightblue" stroke="midnightblue" points="628.24,-285.58 636.67,-291.99 634.08,-281.72 628.24,-285.58"/>
</g>
<!-- Node10 -->
<g id="node10" class="node">
<title>Node10</title>
<g id="a_node10"><a xlink:href="namespacextb__scan.html#abef8f8d0fa299e9e2caf823f3672f14a" target="_top" xlink:title=" ">
<polygon fill="white" stroke="black" points="438,-354.5 438,-373.5 555,-373.5 555,-354.5 438,-354.5"/>
<text text-anchor="middle" x="496.5" y="-361.5" font-family="Helvetica,sans-Serif" font-size="10.00">xtb_scan::relaxed_scan</text>
</a>
</g>
</g>
<!-- Node5&#45;&gt;Node10 -->
<g id="edge12" class="edge">
<title>Node5&#45;&gt;Node10</title>
<path fill="none" stroke="midnightblue" d="M602.46,-326.07C587.49,-332.34 570.6,-339.19 555,-345 546.23,-348.26 536.61,-351.56 527.79,-354.46"/>
<polygon fill="midnightblue" stroke="midnightblue" points="604.13,-329.16 611.98,-322.05 601.41,-322.71 604.13,-329.16"/>
</g>
<!-- Node11 -->
<g id="node11" class="node">
<title>Node11</title>
<g id="a_node11"><a xlink:href="namespacextb__screening.html#a7f4004ff0e65127a38b038f0a7cdcc84" target="_top" xlink:title=" ">
<polygon fill="white" stroke="black" points="441.5,-316.5 441.5,-335.5 551.5,-335.5 551.5,-316.5 441.5,-316.5"/>
<text text-anchor="middle" x="496.5" y="-323.5" font-family="Helvetica,sans-Serif" font-size="10.00">xtb_screening::screen</text>
</a>
</g>
</g>
<!-- Node5&#45;&gt;Node11 -->
<g id="edge14" class="edge">
<title>Node5&#45;&gt;Node11</title>
<path fill="none" stroke="midnightblue" d="M583.15,-315.08C572.62,-316.42 561.78,-317.8 551.5,-319.11"/>
<polygon fill="midnightblue" stroke="midnightblue" points="583.65,-318.54 593.13,-313.81 582.77,-311.6 583.65,-318.54"/>
</g>
<!-- Node12 -->
<g id="node12" class="node">
<title>Node12</title>
<g id="a_node12"><a xlink:href="namespacextb__gfnff__convert.html#adf399b47b9f2a8364327d9d5c38cb2b8" target="_top" xlink:title=" ">
<polygon fill="white" stroke="black" points="449,-229 449,-259 544,-259 544,-229 449,-229"/>
<text text-anchor="start" x="457" y="-247" font-family="Helvetica,sans-Serif" font-size="10.00">xtb_gfnff_convert::</text>
<text text-anchor="middle" x="496.5" y="-236" font-family="Helvetica,sans-Serif" font-size="10.00">struc_convert</text>
</a>
</g>
</g>
<!-- Node5&#45;&gt;Node12 -->
<g id="edge16" class="edge">
<title>Node5&#45;&gt;Node12</title>
<path fill="none" stroke="midnightblue" d="M601.4,-287.93C579.52,-278.68 553.62,-267.73 533.16,-259.08"/>
<polygon fill="midnightblue" stroke="midnightblue" points="600.24,-291.24 610.81,-291.91 602.96,-284.79 600.24,-291.24"/>
</g>
<!-- Node6&#45;&gt;Node7 -->
<g id="edge6" class="edge">
<title>Node6&#45;&gt;Node7</title>
<path fill="none" stroke="midnightblue" d="M437.03,-402C421.03,-402 403.91,-402 388.66,-402"/>
<polygon fill="midnightblue" stroke="midnightblue" points="437.35,-405.5 447.35,-402 437.35,-398.5 437.35,-405.5"/>
</g>
<!-- Node7&#45;&gt;Node3 -->
<g id="edge7" class="edge">
<title>Node7&#45;&gt;Node3</title>
<path fill="none" stroke="midnightblue" d="M304.7,-388.93C276.39,-378.46 237.32,-363.99 211.86,-354.57"/>
<polygon fill="midnightblue" stroke="midnightblue" points="303.63,-392.27 314.22,-392.46 306.06,-385.71 303.63,-392.27"/>
</g>
<!-- Node8&#45;&gt;Node3 -->
<g id="edge9" class="edge">
<title>Node8&#45;&gt;Node3</title>
<path fill="none" stroke="midnightblue" d="M433.85,-202.18C388.73,-206.09 327.37,-216.4 280,-243 238.42,-266.34 204.93,-314.59 191.89,-335.26"/>
<polygon fill="midnightblue" stroke="midnightblue" points="434.39,-205.64 444.08,-201.37 433.84,-198.67 434.39,-205.64"/>
</g>
<!-- Node9&#45;&gt;Node3 -->
<g id="edge11" class="edge">
<title>Node9&#45;&gt;Node3</title>
<path fill="none" stroke="midnightblue" d="M297.81,-185.68C291.46,-188.81 285.28,-192.56 280,-197 231.8,-237.58 200.09,-309.3 189.72,-335.27"/>
<polygon fill="midnightblue" stroke="midnightblue" points="299.43,-188.79 307.14,-181.53 296.58,-182.39 299.43,-188.79"/>
</g>
<!-- Node10&#45;&gt;Node3 -->
<g id="edge13" class="edge">
<title>Node10&#45;&gt;Node3</title>
<path fill="none" stroke="midnightblue" d="M427.66,-359.84C372.74,-356.46 296.22,-351.77 244.09,-348.57"/>
<polygon fill="midnightblue" stroke="midnightblue" points="427.45,-363.33 437.65,-360.45 427.88,-356.34 427.45,-363.33"/>
</g>
<!-- Node11&#45;&gt;Node3 -->
<g id="edge15" class="edge">
<title>Node11&#45;&gt;Node3</title>
<path fill="none" stroke="midnightblue" d="M431.23,-329.95C376.12,-333.33 297.41,-338.16 244.15,-341.43"/>
<polygon fill="midnightblue" stroke="midnightblue" points="431.47,-333.44 441.24,-329.33 431.04,-326.45 431.47,-333.44"/>
</g>
<!-- Node12&#45;&gt;Node3 -->
<g id="edge17" class="edge">
<title>Node12&#45;&gt;Node3</title>
<path fill="none" stroke="midnightblue" d="M438.66,-244.16C393.98,-246.1 331,-252.88 280,-274 244.67,-288.63 210.8,-319.77 195.1,-335.5"/>
<polygon fill="midnightblue" stroke="midnightblue" points="438.89,-247.66 448.75,-243.8 438.63,-240.66 438.89,-247.66"/>
</g>
<!-- Node13&#45;&gt;Node3 -->
<g id="edge21" class="edge">
<title>Node13&#45;&gt;Node3</title>
<path fill="none" stroke="midnightblue" d="M589.15,-651.04C510.91,-667.91 370.15,-684.81 280,-617 191.36,-550.32 185.77,-394.74 185.84,-354.59"/>
<polygon fill="midnightblue" stroke="midnightblue" points="590.3,-654.37 599.3,-648.78 588.78,-647.54 590.3,-654.37"/>
</g>
<!-- Node14&#45;&gt;Node3 -->
<g id="edge23" class="edge">
<title>Node14&#45;&gt;Node3</title>
<path fill="none" stroke="midnightblue" d="M287.35,-583.69C284.72,-582 282.25,-580.11 280,-578 210.72,-512.87 191.27,-389.7 187.02,-354.57"/>
<polygon fill="midnightblue" stroke="midnightblue" points="285.71,-586.78 296.17,-588.44 289.03,-580.62 285.71,-586.78"/>
</g>
<!-- Node16 -->
<g id="node16" class="node">
<title>Node16</title>
<g id="a_node16"><a xlink:href="geometry_8f90.html#a23b2001cff658be234bf77942d0d5fd4" target="_top" xlink:title=" ">
<polygon fill="white" stroke="black" points="455,-114.5 455,-133.5 538,-133.5 538,-114.5 455,-114.5"/>
<text text-anchor="middle" x="496.5" y="-121.5" font-family="Helvetica,sans-Serif" font-size="10.00">main_geometry</text>
</a>
</g>
</g>
<!-- Node15&#45;&gt;Node16 -->
<g id="edge25" class="edge">
<title>Node15&#45;&gt;Node16</title>
<path fill="none" stroke="midnightblue" d="M623.25,-187.73C605.07,-176.11 578.94,-160.11 555,-148 544.58,-142.73 532.71,-137.63 522.48,-133.5"/>
<polygon fill="midnightblue" stroke="midnightblue" points="621.68,-190.88 631.98,-193.36 625.47,-185 621.68,-190.88"/>
</g>
<!-- Node16&#45;&gt;Node3 -->
<g id="edge28" class="edge">
<title>Node16&#45;&gt;Node3</title>
<path fill="none" stroke="midnightblue" d="M444.58,-118.06C397.51,-115.32 327.83,-118.52 280,-153 215.27,-199.66 192.97,-303.37 187.48,-335.39"/>
<polygon fill="midnightblue" stroke="midnightblue" points="444.63,-121.57 454.85,-118.78 445.12,-114.59 444.63,-121.57"/>
</g>
<!-- Node16&#45;&gt;Node17 -->
<g id="edge26" class="edge">
<title>Node16&#45;&gt;Node17</title>
<path fill="none" stroke="midnightblue" d="M448.55,-110.63C444.88,-108.95 441.31,-107.07 438,-105 418.55,-92.83 421.53,-80.05 402,-68 395.86,-64.21 388.9,-61.12 381.95,-58.6"/>
<polygon fill="midnightblue" stroke="midnightblue" points="447.24,-113.88 457.82,-114.45 449.9,-107.4 447.24,-113.88"/>
</g>
<!-- Node17&#45;&gt;Node4 -->
<g id="edge27" class="edge">
<title>Node17&#45;&gt;Node4</title>
<path fill="none" stroke="midnightblue" d="M295.03,-61.91C289.89,-63.77 284.78,-65.81 280,-68 190.65,-108.89 93.58,-177.22 59.07,-202.35"/>
<polygon fill="midnightblue" stroke="midnightblue" points="296.54,-65.09 304.87,-58.54 294.28,-58.47 296.54,-65.09"/>
</g>
<!-- Node18&#45;&gt;Node16 -->
<g id="edge30" class="edge">
<title>Node18&#45;&gt;Node16</title>
<path fill="none" stroke="midnightblue" d="M599.65,-124C579.9,-124 557.12,-124 538.1,-124"/>
<polygon fill="midnightblue" stroke="midnightblue" points="599.67,-127.5 609.67,-124 599.67,-120.5 599.67,-127.5"/>
</g>
<!-- Node19 -->
<g id="node19" class="node">
<title>Node19</title>
<g id="a_node19"><a xlink:href="peeq_8f90.html#a5122d9bd07a3f4377ee140a5991d1325" target="_top" xlink:title=" ">
<polygon fill="white" stroke="black" points="459,-76.5 459,-95.5 534,-95.5 534,-76.5 459,-76.5"/>
<text text-anchor="middle" x="496.5" y="-83.5" font-family="Helvetica,sans-Serif" font-size="10.00">test_peeq_sp</text>
</a>
</g>
</g>
<!-- Node18&#45;&gt;Node19 -->
<g id="edge31" class="edge">
<title>Node18&#45;&gt;Node19</title>
<path fill="none" stroke="midnightblue" d="M599.9,-112.12C578.71,-106.71 554,-100.41 534.17,-95.35"/>
<polygon fill="midnightblue" stroke="midnightblue" points="599.11,-115.53 609.67,-114.61 600.84,-108.74 599.11,-115.53"/>
</g>
<!-- Node20 -->
<g id="node20" class="node">
<title>Node20</title>
<g id="a_node20"><a xlink:href="tests__peeq_8f90.html#a87ff5319e0d2e627a4f71d7df0d14891" target="_top" xlink:title=" ">
<polygon fill="white" stroke="black" points="307,-77.5 307,-96.5 375,-96.5 375,-77.5 307,-77.5"/>
<text text-anchor="middle" x="341" y="-84.5" font-family="Helvetica,sans-Serif" font-size="10.00">peeq_tester</text>
</a>
</g>
</g>
<!-- Node19&#45;&gt;Node20 -->
<g id="edge32" class="edge">
<title>Node19&#45;&gt;Node20</title>
<path fill="none" stroke="midnightblue" d="M448.52,-86.31C424.77,-86.46 396.51,-86.64 375.07,-86.78"/>
<polygon fill="midnightblue" stroke="midnightblue" points="448.76,-89.8 458.73,-86.24 448.71,-82.8 448.76,-89.8"/>
</g>
<!-- Node21&#45;&gt;Node3 -->
<g id="edge34" class="edge">
<title>Node21&#45;&gt;Node3</title>
<path fill="none" stroke="midnightblue" d="M292.2,-533.71C287.81,-530.81 283.65,-527.58 280,-524 227.11,-472.15 197.55,-384.17 188.79,-354.84"/>
<polygon fill="midnightblue" stroke="midnightblue" points="290.47,-536.75 300.85,-538.88 294.06,-530.75 290.47,-536.75"/>
</g>
</g>
</svg>
        <g id="navigator" transform="translate(0 0)" fill="#404254">
                <rect fill="#f2f5e9" fill-opacity="0.5" stroke="#606060" stroke-width=".5" x="0" y="0" width="60" height="60"/>
                <use id="zoomplus" xlink:href="#zoomPlus" x="17" y="9" onmousedown="handleZoom(evt,'in')"/>
                <use id="zoomminus" xlink:href="#zoomMin" x="42" y="9" onmousedown="handleZoom(evt,'out')"/>
                <use id="reset" xlink:href="#resetDef" x="30" y="36" onmousedown="handleReset()"/>
                <g id="arrowUp" xlink:href="#dirArrow" transform="translate(30 24)" onmousedown="handlePan(0,-1)">
                  <use xlink:href="#rim" fill="#404040">
                        <set attributeName="fill" to="#808080" begin="arrowUp.mouseover" end="arrowUp.mouseout"/>
                  </use>
                  <path fill="none" stroke="white" stroke-width="1.5" d="M0,-3.0v7 M-2.5,-0.5L0,-3.0L2.5,-0.5"/>
                </g>
                <g id="arrowRight" xlink:href="#dirArrow" transform="rotate(90) translate(36 -43)" onmousedown="handlePan(1,0)">
                  <use xlink:href="#rim" fill="#404040">
                        <set attributeName="fill" to="#808080" begin="arrowRight.mouseover" end="arrowRight.mouseout"/>
                  </use>
                  <path fill="none" stroke="white" stroke-width="1.5" d="M0,-3.0v7 M-2.5,-0.5L0,-3.0L2.5,-0.5"/>
                </g>
                <g id="arrowDown" xlink:href="#dirArrow" transform="rotate(180) translate(-30 -48)" onmousedown="handlePan(0,1)">
                  <use xlink:href="#rim" fill="#404040">
                        <set attributeName="fill" to="#808080" begin="arrowDown.mouseover" end="arrowDown.mouseout"/>
                  </use>
                  <path fill="none" stroke="white" stroke-width="1.5" d="M0,-3.0v7 M-2.5,-0.5L0,-3.0L2.5,-0.5"/>
                </g>
                <g id="arrowLeft" xlink:href="#dirArrow" transform="rotate(270) translate(-36 17)" onmousedown="handlePan(-1,0)">
                  <use xlink:href="#rim" fill="#404040">
                        <set attributeName="fill" to="#808080" begin="arrowLeft.mouseover" end="arrowLeft.mouseout"/>
                  </use>
                  <path fill="none" stroke="white" stroke-width="1.5" d="M0,-3.0v7 M-2.5,-0.5L0,-3.0L2.5,-0.5"/>
                </g>
        </g>
        <svg viewBox="0 0 15 15" width="100%" height="30px" preserveAspectRatio="xMaxYMin meet">
         <g id="arrow_out" transform="scale(0.3 0.3)">
          <a xlink:href="header_8f90_aa5f107f7eca06612b547c0745e5bbab2_icgraph_org.svg" target="_base">
           <rect id="button" ry="5" rx="5" y="6" x="6" height="38" width="38"
                fill="#f2f5e9" fill-opacity="0.5" stroke="#606060" stroke-width="1.0"/>
           <path id="arrow"
             d="M 11.500037,31.436501 C 11.940474,20.09759 22.043105,11.32322 32.158766,21.979434 L 37.068811,17.246167 C 37.068811,17.246167 37.088388,32 37.088388,32 L 22.160133,31.978069 C 22.160133,31.978069 26.997745,27.140456 26.997745,27.140456 C 18.528582,18.264221 13.291696,25.230495 11.500037,31.436501 z"
             style="fill:#404040;"/>
          </a>
         </g>
        </svg>
</svg>
