<?xml version="1.0" encoding="UTF-8" standalone="no"?>
<!DOCTYPE svg PUBLIC "-//W3C//DTD SVG 1.1//EN"
 "http://www.w3.org/Graphics/SVG/1.1/DTD/svg11.dtd">
<!-- Generated by graphviz version 2.43.0 (0)
 -->
<!-- Title: generic_header Pages: 1 -->
<!--zoomable 508 -->
<svg id="main" version="1.1" xmlns="http://www.w3.org/2000/svg" xmlns:xlink="http://www.w3.org/1999/xlink" xml:space="preserve" onload="init(evt)">
<style type="text/css"><![CDATA[
.edge:hover path { stroke: red; }
.edge:hover polygon { stroke: red; fill: red; }
]]></style>
<script type="text/javascript"><![CDATA[
var edges = document.getElementsByTagName('g');
if (edges && edges.length) {
  for (var i=0;i<edges.length;i++) {
    if (edges[i].id.substr(0,4)=='edge') {
      edges[i].setAttribute('class','edge');
    }
  }
}
]]></script>
        <defs>
                <circle id="rim" cx="0" cy="0" r="7"/>
                <circle id="rim2" cx="0" cy="0" r="3.5"/>
                <g id="zoomPlus">
                        <use xlink:href="#rim" fill="#404040">
                                <set attributeName="fill" to="#808080" begin="zoomplus.mouseover" end="zoomplus.mouseout"/>
                        </use>
                        <path d="M-4,0h8M0,-4v8" fill="none" stroke="white" stroke-width="1.5" pointer-events="none"/>
                </g>
                <g id="zoomMin">
                        <use xlink:href="#rim" fill="#404040">
                                <set attributeName="fill" to="#808080" begin="zoomminus.mouseover" end="zoomminus.mouseout"/>
                        </use>
                        <path d="M-4,0h8" fill="none" stroke="white" stroke-width="1.5" pointer-events="none"/>
                </g>
                <g id="dirArrow">
                        <path fill="none" stroke="white" stroke-width="1.5" d="M0,-3.0v7 M-2.5,-0.5L0,-3.0L2.5,-0.5"/>
                </g>
               <g id="resetDef">
                       <use xlink:href="#rim2" fill="#404040">
                               <set attributeName="fill" to="#808080" begin="reset.mouseover" end="reset.mouseout"/>
                       </use>
               </g>
        </defs>

<script type="text/javascript">
var viewWidth = 740;
var viewHeight = 508;
var sectionId = 'dynsection-1';
</script>
<script xlink:href="svgpan.js"/>
<svg id="graph" class="graph">
<g id="viewport">
<title>generic_header</title>
<polygon fill="white" stroke="transparent" points="-4,4 -4,-504 736,-504 736,4 -4,4"/>
<!-- Node1 -->
<g id="node1" class="node">
<title>Node1</title>
<g id="a_node1"><a xlink:title=" ">
<polygon fill="#bfbfbf" stroke="black" points="640,-164.5 640,-183.5 732,-183.5 732,-164.5 640,-164.5"/>
<text text-anchor="middle" x="686" y="-171.5" font-family="Helvetica,sans-Serif" font-size="10.00">generic_header</text>
</a>
</g>
</g>
<!-- Node2 -->
<g id="node2" class="node">
<title>Node2</title>
<g id="a_node2"><a xlink:href="namespacextb__fixparam.html#aa2a737e2dc6192503d874b4718d7fda2" target="_top" xlink:title=" ">
<polygon fill="white" stroke="black" points="474,-480.5 474,-499.5 597,-499.5 597,-480.5 474,-480.5"/>
<text text-anchor="middle" x="535.5" y="-487.5" font-family="Helvetica,sans-Serif" font-size="10.00">xtb_fixparam::fix_info</text>
</a>
</g>
</g>
<!-- Node1&#45;&gt;Node2 -->
<g id="edge1" class="edge">
<title>Node1&#45;&gt;Node2</title>
<path fill="none" stroke="midnightblue" d="M685.39,-193.7C685.33,-245.41 678,-386.55 604,-466 598.07,-472.37 590.33,-477.05 582.22,-480.49"/>
<polygon fill="midnightblue" stroke="midnightblue" points="688.89,-193.53 685.31,-183.56 681.89,-193.59 688.89,-193.53"/>
</g>
<!-- Node3 -->
<g id="node3" class="node">
<title>Node3</title>
<g id="a_node3"><a xlink:href="namespacextb__geoopt.html#a1f0513294f2237b94f355cc4dc5dd867" target="_top" xlink:title=" ">
<polygon fill="white" stroke="black" points="473,-285 473,-315 598,-315 598,-285 473,-285"/>
<text text-anchor="start" x="481" y="-303" font-family="Helvetica,sans-Serif" font-size="10.00">xtb_geoopt::geometry</text>
<text text-anchor="middle" x="535.5" y="-292" font-family="Helvetica,sans-Serif" font-size="10.00">_optimization</text>
</a>
</g>
</g>
<!-- Node1&#45;&gt;Node3 -->
<g id="edge2" class="edge">
<title>Node1&#45;&gt;Node3</title>
<path fill="none" stroke="midnightblue" d="M665.55,-190.5C636.57,-215.1 582.46,-261 554.4,-284.81"/>
<polygon fill="midnightblue" stroke="midnightblue" points="667.99,-193.03 673.35,-183.89 663.46,-187.69 667.99,-193.03"/>
</g>
<!-- Node5 -->
<g id="node5" class="node">
<title>Node5</title>
<g id="a_node5"><a xlink:href="namespacextb__kopt.html#aed50b40106367857ab2d0bf3a109f62b" target="_top" xlink:title=" ">
<polygon fill="white" stroke="black" points="147.5,-423.5 147.5,-442.5 254.5,-442.5 254.5,-423.5 147.5,-423.5"/>
<text text-anchor="middle" x="201" y="-430.5" font-family="Helvetica,sans-Serif" font-size="10.00">xtb_kopt::get_kopt</text>
</a>
</g>
</g>
<!-- Node1&#45;&gt;Node5 -->
<g id="edge10" class="edge">
<title>Node1&#45;&gt;Node5</title>
<path fill="none" stroke="midnightblue" d="M678.48,-193.05C667.21,-223.75 641.65,-284.79 604,-325 542.05,-391.16 518.14,-408.03 431,-433 372.33,-449.81 301.69,-446.46 254.52,-441.08"/>
<polygon fill="midnightblue" stroke="midnightblue" points="681.8,-194.13 681.86,-183.54 675.21,-191.79 681.8,-194.13"/>
</g>
<!-- Node11 -->
<g id="node11" class="node">
<title>Node11</title>
<g id="a_node11"><a xlink:href="namespacextb__scanparam.html#a98e6076b6bb1acc609033880889710ae" target="_top" xlink:title=" ">
<polygon fill="white" stroke="black" points="467,-202.5 467,-221.5 604,-221.5 604,-202.5 467,-202.5"/>
<text text-anchor="middle" x="535.5" y="-209.5" font-family="Helvetica,sans-Serif" font-size="10.00">xtb_scanparam::pot_info</text>
</a>
</g>
</g>
<!-- Node1&#45;&gt;Node11 -->
<g id="edge11" class="edge">
<title>Node1&#45;&gt;Node11</title>
<path fill="none" stroke="midnightblue" d="M637.67,-186.11C616.99,-191.4 593.08,-197.52 573.7,-202.48"/>
<polygon fill="midnightblue" stroke="midnightblue" points="638.71,-189.46 647.53,-183.59 636.97,-182.68 638.71,-189.46"/>
</g>
<!-- Node12 -->
<g id="node12" class="node">
<title>Node12</title>
<g id="a_node12"><a xlink:href="geometry_8f90.html#a9062f3787220118ef48436b46c7c65cc" target="_top" xlink:title=" ">
<polygon fill="white" stroke="black" points="494,-126.5 494,-145.5 577,-145.5 577,-126.5 494,-126.5"/>
<text text-anchor="middle" x="535.5" y="-133.5" font-family="Helvetica,sans-Serif" font-size="10.00">print_geosum</text>
</a>
</g>
</g>
<!-- Node1&#45;&gt;Node12 -->
<g id="edge12" class="edge">
<title>Node1&#45;&gt;Node12</title>
<path fill="none" stroke="midnightblue" d="M637.67,-161.89C616.99,-156.6 593.08,-150.48 573.7,-145.52"/>
<polygon fill="midnightblue" stroke="midnightblue" points="636.97,-165.32 647.53,-164.41 638.71,-158.54 636.97,-165.32"/>
</g>
<!-- Node14 -->
<g id="node14" class="node">
<title>Node14</title>
<g id="a_node14"><a xlink:href="namespacextb__prog__info.html#a075fccea4f47f761a7b667bb819253da" target="_top" xlink:title="Main program of the info submodule.">
<polygon fill="white" stroke="black" points="139,-145.5 139,-164.5 263,-164.5 263,-145.5 139,-145.5"/>
<text text-anchor="middle" x="201" y="-152.5" font-family="Helvetica,sans-Serif" font-size="10.00">xtb_prog_info::xtbinfo</text>
</a>
</g>
</g>
<!-- Node1&#45;&gt;Node14 -->
<g id="edge22" class="edge">
<title>Node1&#45;&gt;Node14</title>
<path fill="none" stroke="midnightblue" d="M629.89,-171.83C538.92,-168.25 358,-161.14 263.19,-157.41"/>
<polygon fill="midnightblue" stroke="midnightblue" points="629.86,-175.33 639.99,-172.23 630.14,-168.34 629.86,-175.33"/>
</g>
<!-- Node16 -->
<g id="node16" class="node">
<title>Node16</title>
<g id="a_node16"><a xlink:href="geometry_8f90.html#a9e7cde1e07dc3395db7141a116690235" target="_top" xlink:title=" ">
<polygon fill="white" stroke="black" points="494,-88.5 494,-107.5 577,-107.5 577,-88.5 494,-88.5"/>
<text text-anchor="middle" x="535.5" y="-95.5" font-family="Helvetica,sans-Serif" font-size="10.00">print_pbcsum</text>
</a>
</g>
</g>
<!-- Node1&#45;&gt;Node16 -->
<g id="edge16" class="edge">
<title>Node1&#45;&gt;Node16</title>
<path fill="none" stroke="midnightblue" d="M666.08,-157.87C650.36,-145.19 626.93,-127.9 604,-117 595.64,-113.03 586.3,-109.74 577.29,-107.08"/>
<polygon fill="midnightblue" stroke="midnightblue" points="664.02,-160.71 673.97,-164.37 668.47,-155.31 664.02,-160.71"/>
</g>
<!-- Node19 -->
<g id="node19" class="node">
<title>Node19</title>
<g id="a_node19"><a xlink:href="namespacextb__printout.html#aca0db6a9ce83509b8eb4036795194dbc" target="_top" xlink:title=" ">
<polygon fill="white" stroke="black" points="481,-39 481,-69 590,-69 590,-39 481,-39"/>
<text text-anchor="start" x="489" y="-57" font-family="Helvetica,sans-Serif" font-size="10.00">xtb_printout::setup</text>
<text text-anchor="middle" x="535.5" y="-46" font-family="Helvetica,sans-Serif" font-size="10.00">_summary</text>
</a>
</g>
</g>
<!-- Node1&#45;&gt;Node19 -->
<g id="edge20" class="edge">
<title>Node1&#45;&gt;Node19</title>
<path fill="none" stroke="midnightblue" d="M673.7,-155.81C659.71,-134.66 634.03,-99.98 604,-79 598.57,-75.21 592.5,-71.91 586.28,-69.07"/>
<polygon fill="midnightblue" stroke="midnightblue" points="670.76,-157.71 679.11,-164.22 676.64,-153.92 670.76,-157.71"/>
</g>
<!-- Node20 -->
<g id="node20" class="node">
<title>Node20</title>
<g id="a_node20"><a xlink:href="namespacextb__xtb__data.html#a6b8f81dc3017132d35176d1fa619ab70" target="_top" xlink:title=" ">
<polygon fill="white" stroke="black" points="470.5,-0.5 470.5,-19.5 600.5,-19.5 600.5,-0.5 470.5,-0.5"/>
<text text-anchor="middle" x="535.5" y="-7.5" font-family="Helvetica,sans-Serif" font-size="10.00">xtb_xtb_data::writeinfo</text>
</a>
</g>
</g>
<!-- Node1&#45;&gt;Node20 -->
<g id="edge21" class="edge">
<title>Node1&#45;&gt;Node20</title>
<path fill="none" stroke="midnightblue" d="M679.46,-154.44C669.58,-123.16 645.92,-62.07 604,-29 599.13,-25.15 593.51,-22.09 587.65,-19.64"/>
<polygon fill="midnightblue" stroke="midnightblue" points="676.15,-155.59 682.38,-164.16 682.85,-153.58 676.15,-155.59"/>
</g>
<!-- Node4 -->
<g id="node4" class="node">
<title>Node4</title>
<g id="a_node4"><a xlink:href="namespacextb__kopt.html#ada4ab70832f563f46c8ffc8cea64c78b" target="_top" xlink:title=" ">
<polygon fill="white" stroke="black" points="310,-404.5 310,-423.5 420,-423.5 420,-404.5 310,-404.5"/>
<text text-anchor="middle" x="365" y="-411.5" font-family="Helvetica,sans-Serif" font-size="10.00">xtb_kopt::get_rmsd</text>
</a>
</g>
</g>
<!-- Node3&#45;&gt;Node4 -->
<g id="edge3" class="edge">
<title>Node3&#45;&gt;Node4</title>
<path fill="none" stroke="midnightblue" d="M515.31,-322.85C496.06,-344.38 464.53,-376.09 431,-395 424.24,-398.81 416.65,-401.92 409.1,-404.44"/>
<polygon fill="midnightblue" stroke="midnightblue" points="518.1,-324.97 522.06,-315.14 512.84,-320.36 518.1,-324.97"/>
</g>
<!-- Node6 -->
<g id="node6" class="node">
<title>Node6</title>
<g id="a_node6"><a xlink:href="namespacextb__mdoptim.html#ab0ba2195163cd6794115b99516ba5316" target="_top" xlink:title=" ">
<polygon fill="white" stroke="black" points="305.5,-366.5 305.5,-385.5 424.5,-385.5 424.5,-366.5 305.5,-366.5"/>
<text text-anchor="middle" x="365" y="-373.5" font-family="Helvetica,sans-Serif" font-size="10.00">xtb_mdoptim::mdopt</text>
</a>
</g>
</g>
<!-- Node3&#45;&gt;Node6 -->
<g id="edge5" class="edge">
<title>Node3&#45;&gt;Node6</title>
<path fill="none" stroke="midnightblue" d="M501.9,-320.37C481.96,-332.21 455.64,-346.76 431,-357 422.42,-360.56 412.95,-363.74 403.95,-366.42"/>
<polygon fill="midnightblue" stroke="midnightblue" points="503.81,-323.31 510.57,-315.15 500.2,-317.31 503.81,-323.31"/>
</g>
<!-- Node7 -->
<g id="node7" class="node">
<title>Node7</title>
<g id="a_node7"><a xlink:href="namespacextb__modef.html#a39c4cb408b8b02afb7bf83a1d7f13de3" target="_top" xlink:title=" ">
<polygon fill="white" stroke="black" points="299,-328.5 299,-347.5 431,-347.5 431,-328.5 299,-328.5"/>
<text text-anchor="middle" x="365" y="-335.5" font-family="Helvetica,sans-Serif" font-size="10.00">xtb_modef::modefollow</text>
</a>
</g>
</g>
<!-- Node3&#45;&gt;Node7 -->
<g id="edge6" class="edge">
<title>Node3&#45;&gt;Node7</title>
<path fill="none" stroke="midnightblue" d="M462.8,-316.17C444.23,-320.36 424.83,-324.73 408.31,-328.46"/>
<polygon fill="midnightblue" stroke="midnightblue" points="463.73,-319.55 472.71,-313.93 462.19,-312.72 463.73,-319.55"/>
</g>
<!-- Node8 -->
<g id="node8" class="node">
<title>Node8</title>
<g id="a_node8"><a xlink:href="namespacextb__scan.html#abef8f8d0fa299e9e2caf823f3672f14a" target="_top" xlink:title=" ">
<polygon fill="white" stroke="black" points="300,-290.5 300,-309.5 430,-309.5 430,-290.5 300,-290.5"/>
<text text-anchor="middle" x="365" y="-297.5" font-family="Helvetica,sans-Serif" font-size="10.00">xtb_scan::relaxed_scan</text>
</a>
</g>
</g>
<!-- Node3&#45;&gt;Node8 -->
<g id="edge7" class="edge">
<title>Node3&#45;&gt;Node8</title>
<path fill="none" stroke="midnightblue" d="M462.48,-300C451.7,-300 440.64,-300 430.04,-300"/>
<polygon fill="midnightblue" stroke="midnightblue" points="462.71,-303.5 472.71,-300 462.71,-296.5 462.71,-303.5"/>
</g>
<!-- Node9 -->
<g id="node9" class="node">
<title>Node9</title>
<g id="a_node9"><a xlink:href="namespacextb__screening.html#a7f4004ff0e65127a38b038f0a7cdcc84" target="_top" xlink:title=" ">
<polygon fill="white" stroke="black" points="303.5,-252.5 303.5,-271.5 426.5,-271.5 426.5,-252.5 303.5,-252.5"/>
<text text-anchor="middle" x="365" y="-259.5" font-family="Helvetica,sans-Serif" font-size="10.00">xtb_screening::screen</text>
</a>
</g>
</g>
<!-- Node3&#45;&gt;Node9 -->
<g id="edge8" class="edge">
<title>Node3&#45;&gt;Node9</title>
<path fill="none" stroke="midnightblue" d="M462.8,-283.83C444.23,-279.64 424.83,-275.27 408.31,-271.54"/>
<polygon fill="midnightblue" stroke="midnightblue" points="462.19,-287.28 472.71,-286.07 463.73,-280.45 462.19,-287.28"/>
</g>
<!-- Node10 -->
<g id="node10" class="node">
<title>Node10</title>
<g id="a_node10"><a xlink:href="namespacextb__gfnff__convert.html#adf399b47b9f2a8364327d9d5c38cb2b8" target="_top" xlink:title=" ">
<polygon fill="white" stroke="black" points="311,-203 311,-233 419,-233 419,-203 311,-203"/>
<text text-anchor="start" x="319" y="-221" font-family="Helvetica,sans-Serif" font-size="10.00">xtb_gfnff_convert::</text>
<text text-anchor="middle" x="365" y="-210" font-family="Helvetica,sans-Serif" font-size="10.00">struc_convert</text>
</a>
</g>
</g>
<!-- Node3&#45;&gt;Node10 -->
<g id="edge9" class="edge">
<title>Node3&#45;&gt;Node10</title>
<path fill="none" stroke="midnightblue" d="M500.77,-279.9C480.82,-268.4 454.87,-254.1 431,-243 423.55,-239.53 415.46,-236.14 407.62,-233.04"/>
<polygon fill="midnightblue" stroke="midnightblue" points="499.07,-282.96 509.48,-284.96 502.59,-276.91 499.07,-282.96"/>
</g>
<!-- Node4&#45;&gt;Node5 -->
<g id="edge4" class="edge">
<title>Node4&#45;&gt;Node5</title>
<path fill="none" stroke="midnightblue" d="M299.45,-421.57C284.57,-423.32 268.91,-425.15 254.6,-426.83"/>
<polygon fill="midnightblue" stroke="midnightblue" points="300.08,-425.02 309.61,-420.38 299.27,-418.07 300.08,-425.02"/>
</g>
<!-- Node13 -->
<g id="node13" class="node">
<title>Node13</title>
<g id="a_node13"><a xlink:href="geometry_8f90.html#a23b2001cff658be234bf77942d0d5fd4" target="_top" xlink:title=" ">
<polygon fill="white" stroke="black" points="318,-126.5 318,-145.5 412,-145.5 412,-126.5 318,-126.5"/>
<text text-anchor="middle" x="365" y="-133.5" font-family="Helvetica,sans-Serif" font-size="10.00">main_geometry</text>
</a>
</g>
</g>
<!-- Node12&#45;&gt;Node13 -->
<g id="edge13" class="edge">
<title>Node12&#45;&gt;Node13</title>
<path fill="none" stroke="midnightblue" d="M483.56,-136C460.81,-136 434.21,-136 412.06,-136"/>
<polygon fill="midnightblue" stroke="midnightblue" points="483.71,-139.5 493.71,-136 483.71,-132.5 483.71,-139.5"/>
</g>
<!-- Node13&#45;&gt;Node14 -->
<g id="edge14" class="edge">
<title>Node13&#45;&gt;Node14</title>
<path fill="none" stroke="midnightblue" d="M307.41,-142.64C293.13,-144.31 277.73,-146.12 263.24,-147.82"/>
<polygon fill="midnightblue" stroke="midnightblue" points="308.05,-146.09 317.58,-141.44 307.24,-139.13 308.05,-146.09"/>
</g>
<!-- Node15 -->
<g id="node15" class="node">
<title>Node15</title>
<g id="a_node15"><a xlink:href="primary_8f90.html#a2a67903cf5be605c5b6d3c362c6a3c5c" target="_top" xlink:title="The primary driver for the xtb program package.">
<polygon fill="white" stroke="black" points="0,-145.5 0,-164.5 103,-164.5 103,-145.5 0,-145.5"/>
<text text-anchor="middle" x="51.5" y="-152.5" font-family="Helvetica,sans-Serif" font-size="10.00">xtb_prog_primary</text>
</a>
</g>
</g>
<!-- Node14&#45;&gt;Node15 -->
<g id="edge15" class="edge">
<title>Node14&#45;&gt;Node15</title>
<path fill="none" stroke="midnightblue" d="M128.63,-155C119.99,-155 111.31,-155 103.06,-155"/>
<polygon fill="midnightblue" stroke="midnightblue" points="128.73,-158.5 138.73,-155 128.73,-151.5 128.73,-158.5"/>
</g>
<!-- Node16&#45;&gt;Node13 -->
<g id="edge17" class="edge">
<title>Node16&#45;&gt;Node13</title>
<path fill="none" stroke="midnightblue" d="M483.67,-109.46C459.55,-114.9 431.07,-121.32 408.17,-126.49"/>
<polygon fill="midnightblue" stroke="midnightblue" points="484.73,-112.81 493.71,-107.2 483.19,-105.98 484.73,-112.81"/>
</g>
<!-- Node17 -->
<g id="node17" class="node">
<title>Node17</title>
<g id="a_node17"><a xlink:href="peeq_8f90.html#a5122d9bd07a3f4377ee140a5991d1325" target="_top" xlink:title=" ">
<polygon fill="white" stroke="black" points="324.5,-88.5 324.5,-107.5 405.5,-107.5 405.5,-88.5 324.5,-88.5"/>
<text text-anchor="middle" x="365" y="-95.5" font-family="Helvetica,sans-Serif" font-size="10.00">test_peeq_sp</text>
</a>
</g>
</g>
<!-- Node16&#45;&gt;Node17 -->
<g id="edge18" class="edge">
<title>Node16&#45;&gt;Node17</title>
<path fill="none" stroke="midnightblue" d="M483.65,-98C458.61,-98 428.86,-98 405.54,-98"/>
<polygon fill="midnightblue" stroke="midnightblue" points="483.71,-101.5 493.71,-98 483.71,-94.5 483.71,-101.5"/>
</g>
<!-- Node18 -->
<g id="node18" class="node">
<title>Node18</title>
<g id="a_node18"><a xlink:href="tests__peeq_8f90.html#a87ff5319e0d2e627a4f71d7df0d14891" target="_top" xlink:title=" ">
<polygon fill="white" stroke="black" points="164,-88.5 164,-107.5 238,-107.5 238,-88.5 164,-88.5"/>
<text text-anchor="middle" x="201" y="-95.5" font-family="Helvetica,sans-Serif" font-size="10.00">peeq_tester</text>
</a>
</g>
</g>
<!-- Node17&#45;&gt;Node18 -->
<g id="edge19" class="edge">
<title>Node17&#45;&gt;Node18</title>
<path fill="none" stroke="midnightblue" d="M314.16,-98C289.61,-98 260.56,-98 238.18,-98"/>
<polygon fill="midnightblue" stroke="midnightblue" points="314.37,-101.5 324.37,-98 314.37,-94.5 314.37,-101.5"/>
</g>
</g>
</svg>
        <g id="navigator" transform="translate(0 0)" fill="#404254">
                <rect fill="#f2f5e9" fill-opacity="0.5" stroke="#606060" stroke-width=".5" x="0" y="0" width="60" height="60"/>
                <use id="zoomplus" xlink:href="#zoomPlus" x="17" y="9" onmousedown="handleZoom(evt,'in')"/>
                <use id="zoomminus" xlink:href="#zoomMin" x="42" y="9" onmousedown="handleZoom(evt,'out')"/>
                <use id="reset" xlink:href="#resetDef" x="30" y="36" onmousedown="handleReset()"/>
                <g id="arrowUp" xlink:href="#dirArrow" transform="translate(30 24)" onmousedown="handlePan(0,-1)">
                  <use xlink:href="#rim" fill="#404040">
                        <set attributeName="fill" to="#808080" begin="arrowUp.mouseover" end="arrowUp.mouseout"/>
                  </use>
                  <path fill="none" stroke="white" stroke-width="1.5" d="M0,-3.0v7 M-2.5,-0.5L0,-3.0L2.5,-0.5"/>
                </g>
                <g id="arrowRight" xlink:href="#dirArrow" transform="rotate(90) translate(36 -43)" onmousedown="handlePan(1,0)">
                  <use xlink:href="#rim" fill="#404040">
                        <set attributeName="fill" to="#808080" begin="arrowRight.mouseover" end="arrowRight.mouseout"/>
                  </use>
                  <path fill="none" stroke="white" stroke-width="1.5" d="M0,-3.0v7 M-2.5,-0.5L0,-3.0L2.5,-0.5"/>
                </g>
                <g id="arrowDown" xlink:href="#dirArrow" transform="rotate(180) translate(-30 -48)" onmousedown="handlePan(0,1)">
                  <use xlink:href="#rim" fill="#404040">
                        <set attributeName="fill" to="#808080" begin="arrowDown.mouseover" end="arrowDown.mouseout"/>
                  </use>
                  <path fill="none" stroke="white" stroke-width="1.5" d="M0,-3.0v7 M-2.5,-0.5L0,-3.0L2.5,-0.5"/>
                </g>
                <g id="arrowLeft" xlink:href="#dirArrow" transform="rotate(270) translate(-36 17)" onmousedown="handlePan(-1,0)">
                  <use xlink:href="#rim" fill="#404040">
                        <set attributeName="fill" to="#808080" begin="arrowLeft.mouseover" end="arrowLeft.mouseout"/>
                  </use>
                  <path fill="none" stroke="white" stroke-width="1.5" d="M0,-3.0v7 M-2.5,-0.5L0,-3.0L2.5,-0.5"/>
                </g>
        </g>
        <svg viewBox="0 0 15 15" width="100%" height="30px" preserveAspectRatio="xMaxYMin meet">
         <g id="arrow_out" transform="scale(0.3 0.3)">
          <a xlink:href="header_8f90_aa5f107f7eca06612b547c0745e5bbab2_icgraph_org.svg" target="_base">
           <rect id="button" ry="5" rx="5" y="6" x="6" height="38" width="38"
                fill="#f2f5e9" fill-opacity="0.5" stroke="#606060" stroke-width="1.0"/>
           <path id="arrow"
             d="M 11.500037,31.436501 C 11.940474,20.09759 22.043105,11.32322 32.158766,21.979434 L 37.068811,17.246167 C 37.068811,17.246167 37.088388,32 37.088388,32 L 22.160133,31.978069 C 22.160133,31.978069 26.997745,27.140456 26.997745,27.140456 C 18.528582,18.264221 13.291696,25.230495 11.500037,31.436501 z"
             style="fill:#404040;"/>
          </a>
         </g>
        </svg>
</svg>
