<?xml version="1.0" encoding="UTF-8" standalone="no"?>
<!DOCTYPE svg PUBLIC "-//W3C//DTD SVG 1.1//EN"
 "http://www.w3.org/Graphics/SVG/1.1/DTD/svg11.dtd">
<!-- Generated by graphviz version 2.46.0 (20210122.1329)
 -->
<!-- Title: xtb_sphereparam::set_sphere_radius::set_sphere_radius_aniso Pages: 1 -->
<svg width="217pt" height="50pt"
 viewBox="0.00 0.00 217.00 50.00" xmlns="http://www.w3.org/2000/svg" xmlns:xlink="http://www.w3.org/1999/xlink">
<g id="graph0" class="graph" transform="scale(1 1) rotate(0) translate(4 46)">
<title>xtb_sphereparam::set_sphere_radius::set_sphere_radius_aniso</title>
<polygon fill="white" stroke="transparent" points="-4,4 -4,-46 213,-46 213,4 -4,4"/>
<!-- Node1 -->
<g id="node1" class="node">
<title>Node1</title>
<g id="a_node1"><a xlink:title=" ">
<polygon fill="#bfbfbf" stroke="black" points="0,-0.5 0,-41.5 135,-41.5 135,-0.5 0,-0.5"/>
<text text-anchor="start" x="8" y="-29.5" font-family="Helvetica,sans-Serif" font-size="10.00">xtb_sphereparam::set</text>
<text text-anchor="start" x="8" y="-18.5" font-family="Helvetica,sans-Serif" font-size="10.00">_sphere_radius::set_sphere</text>
<text text-anchor="middle" x="67.5" y="-7.5" font-family="Helvetica,sans-Serif" font-size="10.00">_radius_aniso</text>
</a>
</g>
</g>
<!-- Node2 -->
<g id="node2" class="node">
<title>Node2</title>
<g id="a_node2"><a xlink:href="error_8f90.html#a21a6b76d2bc72d8d2ec0a344a6d2298b" target="_top" xlink:title=" ">
<polygon fill="white" stroke="black" points="171,-11.5 171,-30.5 209,-30.5 209,-11.5 171,-11.5"/>
<text text-anchor="middle" x="190" y="-18.5" font-family="Helvetica,sans-Serif" font-size="10.00">raise</text>
</a>
</g>
</g>
<!-- Node1&#45;&gt;Node2 -->
<g id="edge1" class="edge">
<title>Node1&#45;&gt;Node2</title>
<path fill="none" stroke="midnightblue" d="M135.09,-21C143.97,-21 152.67,-21 160.39,-21"/>
<polygon fill="midnightblue" stroke="midnightblue" points="160.58,-24.5 170.58,-21 160.58,-17.5 160.58,-24.5"/>
</g>
</g>
</svg>
