<?xml version="1.0" encoding="UTF-8" standalone="no"?>
<!DOCTYPE svg PUBLIC "-//W3C//DTD SVG 1.1//EN"
 "http://www.w3.org/Graphics/SVG/1.1/DTD/svg11.dtd">
<!-- Generated by graphviz version 2.46.1 (20210215.1649)
 -->
<!-- Title: xtb_mctc_strings::value::value_dr Pages: 1 -->
<svg width="335pt" height="39pt"
 viewBox="0.00 0.00 335.00 39.00" xmlns="http://www.w3.org/2000/svg" xmlns:xlink="http://www.w3.org/1999/xlink">
<g id="graph0" class="graph" transform="scale(1 1) rotate(0) translate(4 35)">
<title>xtb_mctc_strings::value::value_dr</title>
<polygon fill="white" stroke="transparent" points="-4,4 -4,-35 331,-35 331,4 -4,4"/>
<!-- Node1 -->
<g id="node1" class="node">
<title>Node1</title>
<g id="a_node1"><a xlink:title="Converts number string to a double precision real number.">
<polygon fill="#bfbfbf" stroke="black" points="0,-0.5 0,-30.5 119,-30.5 119,-0.5 0,-0.5"/>
<text text-anchor="start" x="8" y="-18.5" font-family="Helvetica,sans-Serif" font-size="10.00">xtb_mctc_strings::value</text>
<text text-anchor="middle" x="59.5" y="-7.5" font-family="Helvetica,sans-Serif" font-size="10.00">::value_dr</text>
</a>
</g>
</g>
<!-- Node2 -->
<g id="node2" class="node">
<title>Node2</title>
<g id="a_node2"><a xlink:href="namespacextb__mctc__strings.html#a8588fbad4e9114708bc961171bf277c8" target="_top" xlink:title="Returns .true. if ch is a digit (0,1,...,9) and .false. otherwise.">
<polygon fill="white" stroke="black" points="155,-0.5 155,-30.5 258,-30.5 258,-0.5 155,-0.5"/>
<text text-anchor="start" x="163" y="-18.5" font-family="Helvetica,sans-Serif" font-size="10.00">xtb_mctc_strings::is</text>
<text text-anchor="middle" x="206.5" y="-7.5" font-family="Helvetica,sans-Serif" font-size="10.00">_digit</text>
</a>
</g>
</g>
<!-- Node1&#45;&gt;Node2 -->
<g id="edge1" class="edge">
<title>Node1&#45;&gt;Node2</title>
<path fill="none" stroke="midnightblue" d="M119.06,-15.5C127.44,-15.5 136.08,-15.5 144.51,-15.5"/>
<polygon fill="midnightblue" stroke="midnightblue" points="144.65,-19 154.65,-15.5 144.65,-12 144.65,-19"/>
</g>
<!-- Node3 -->
<g id="node3" class="node">
<title>Node3</title>
<g id="a_node3"><a xlink:href="symmetry__i_8c.html#aa77c823a9fc018ae1d437369708d8727" target="_top" xlink:title=" ">
<polygon fill="white" stroke="black" points="294,-6 294,-25 327,-25 327,-6 294,-6"/>
<text text-anchor="middle" x="310.5" y="-13" font-family="Helvetica,sans-Serif" font-size="10.00">true</text>
</a>
</g>
</g>
<!-- Node2&#45;&gt;Node3 -->
<g id="edge2" class="edge">
<title>Node2&#45;&gt;Node3</title>
<path fill="none" stroke="midnightblue" d="M258.2,-15.5C267.04,-15.5 275.88,-15.5 283.68,-15.5"/>
<polygon fill="midnightblue" stroke="midnightblue" points="283.9,-19 293.9,-15.5 283.9,-12 283.9,-19"/>
</g>
</g>
</svg>
