<?xml version="1.0" encoding="UTF-8" standalone="no"?>
<!DOCTYPE svg PUBLIC "-//W3C//DTD SVG 1.1//EN"
 "http://www.w3.org/Graphics/SVG/1.1/DTD/svg11.dtd">
<!-- Generated by graphviz version 2.43.0 (0)
 -->
<!-- Title: xtb_disp_ncoord::get_d4_cn::ncoord_d4_driver Pages: 1 -->
<svg width="342pt" height="165pt"
 viewBox="0.00 0.00 342.00 164.50" xmlns="http://www.w3.org/2000/svg" xmlns:xlink="http://www.w3.org/1999/xlink">
<g id="graph0" class="graph" transform="scale(1 1) rotate(0) translate(4 160.5)">
<title>xtb_disp_ncoord::get_d4_cn::ncoord_d4_driver</title>
<polygon fill="white" stroke="transparent" points="-4,4 -4,-160.5 338,-160.5 338,4 -4,4"/>
<!-- Node1 -->
<g id="node1" class="node">
<title>Node1</title>
<g id="a_node1"><a xlink:title=" ">
<polygon fill="#bfbfbf" stroke="black" points="0,-71.5 0,-101.5 140,-101.5 140,-71.5 0,-71.5"/>
<text text-anchor="start" x="8" y="-89.5" font-family="Helvetica,sans-Serif" font-size="10.00">xtb_disp_ncoord::get</text>
<text text-anchor="middle" x="70" y="-78.5" font-family="Helvetica,sans-Serif" font-size="10.00">_d4_cn::ncoord_d4_driver</text>
</a>
</g>
</g>
<!-- Node2 -->
<g id="node2" class="node">
<title>Node2</title>
<g id="a_node2"><a xlink:href="namespacextb__disp__ncoord.html#a7223f92485410e642c2790106c00345b" target="_top" xlink:title=" ">
<polygon fill="white" stroke="black" points="176,-137 176,-156 334,-156 334,-137 176,-137"/>
<text text-anchor="middle" x="255" y="-144" font-family="Helvetica,sans-Serif" font-size="10.00">xtb_disp_ncoord::dncoord_d4</text>
</a>
</g>
</g>
<!-- Node1&#45;&gt;Node2 -->
<g id="edge1" class="edge">
<title>Node1&#45;&gt;Node2</title>
<path fill="none" stroke="midnightblue" d="M106.06,-101.54C126.27,-109.87 152.3,-120.02 176,-127.5 183.84,-129.97 192.21,-132.32 200.45,-134.46"/>
<polygon fill="midnightblue" stroke="midnightblue" points="199.84,-137.91 210.4,-136.97 201.55,-131.13 199.84,-137.91"/>
</g>
<!-- Node3 -->
<g id="node3" class="node">
<title>Node3</title>
<g id="a_node3"><a xlink:href="namespacextb__disp__ncoord.html#af0b7bd632f8b73879b2a5626d4cb3bf1" target="_top" xlink:title=" ">
<polygon fill="white" stroke="black" points="179,-99 179,-118 331,-118 331,-99 179,-99"/>
<text text-anchor="middle" x="255" y="-106" font-family="Helvetica,sans-Serif" font-size="10.00">xtb_disp_ncoord::ncoord_d4</text>
</a>
</g>
</g>
<!-- Node1&#45;&gt;Node3 -->
<g id="edge2" class="edge">
<title>Node1&#45;&gt;Node3</title>
<path fill="none" stroke="midnightblue" d="M140.18,-94.82C149.57,-95.95 159.3,-97.12 168.93,-98.27"/>
<polygon fill="midnightblue" stroke="midnightblue" points="168.56,-101.75 178.91,-99.47 169.4,-94.8 168.56,-101.75"/>
</g>
<!-- Node4 -->
<g id="node4" class="node">
<title>Node4</title>
<g id="a_node4"><a xlink:href="namespacextb__disp__ncoord.html#a45b51d2b09b8a4c7d017743ba34bb379" target="_top" xlink:title=" ">
<polygon fill="white" stroke="black" points="195.5,-49.5 195.5,-79.5 314.5,-79.5 314.5,-49.5 195.5,-49.5"/>
<text text-anchor="start" x="203.5" y="-67.5" font-family="Helvetica,sans-Serif" font-size="10.00">xtb_disp_ncoord::pbc</text>
<text text-anchor="middle" x="255" y="-56.5" font-family="Helvetica,sans-Serif" font-size="10.00">_dncoord_d4</text>
</a>
</g>
</g>
<!-- Node1&#45;&gt;Node4 -->
<g id="edge3" class="edge">
<title>Node1&#45;&gt;Node4</title>
<path fill="none" stroke="midnightblue" d="M140.18,-78.18C154.99,-76.4 170.62,-74.52 185.4,-72.75"/>
<polygon fill="midnightblue" stroke="midnightblue" points="185.97,-76.2 195.48,-71.54 185.13,-69.25 185.97,-76.2"/>
</g>
<!-- Node5 -->
<g id="node5" class="node">
<title>Node5</title>
<g id="a_node5"><a xlink:href="namespacextb__disp__ncoord.html#aacf303d8e2b4c6aceef4535e55a2661e" target="_top" xlink:title=" ">
<polygon fill="white" stroke="black" points="195.5,-0.5 195.5,-30.5 314.5,-30.5 314.5,-0.5 195.5,-0.5"/>
<text text-anchor="start" x="203.5" y="-18.5" font-family="Helvetica,sans-Serif" font-size="10.00">xtb_disp_ncoord::pbc</text>
<text text-anchor="middle" x="255" y="-7.5" font-family="Helvetica,sans-Serif" font-size="10.00">_ncoord_d4</text>
</a>
</g>
</g>
<!-- Node1&#45;&gt;Node5 -->
<g id="edge4" class="edge">
<title>Node1&#45;&gt;Node5</title>
<path fill="none" stroke="midnightblue" d="M103.28,-71.33C123.87,-61.91 151.24,-49.86 176,-40.5 181.94,-38.26 188.17,-36.03 194.42,-33.9"/>
<polygon fill="midnightblue" stroke="midnightblue" points="195.85,-37.11 204.22,-30.61 193.63,-30.47 195.85,-37.11"/>
</g>
</g>
</svg>
