<?xml version="1.0" encoding="UTF-8" standalone="no"?>
<!DOCTYPE svg PUBLIC "-//W3C//DTD SVG 1.1//EN"
 "http://www.w3.org/Graphics/SVG/1.1/DTD/svg11.dtd">
<!-- Generated by graphviz version 2.46.0 (20210122.1329)
 -->
<!-- Title: xtb_disp_coordinationnumber::getcoordinationnumber::getcoordinationnumbernl Pages: 1 -->
<!--zoomable 352 -->
<svg id="main" version="1.1" xmlns="http://www.w3.org/2000/svg" xmlns:xlink="http://www.w3.org/1999/xlink" xml:space="preserve" onload="init(evt)">
<style type="text/css"><![CDATA[
.edge:hover path { stroke: red; }
.edge:hover polygon { stroke: red; fill: red; }
]]></style>
<script type="text/javascript"><![CDATA[
var edges = document.getElementsByTagName('g');
if (edges && edges.length) {
  for (var i=0;i<edges.length;i++) {
    if (edges[i].id.substr(0,4)=='edge') {
      edges[i].setAttribute('class','edge');
    }
  }
}
]]></script>
        <defs>
                <circle id="rim" cx="0" cy="0" r="7"/>
                <circle id="rim2" cx="0" cy="0" r="3.5"/>
                <g id="zoomPlus">
                        <use xlink:href="#rim" fill="#404040">
                                <set attributeName="fill" to="#808080" begin="zoomplus.mouseover" end="zoomplus.mouseout"/>
                        </use>
                        <path d="M-4,0h8M0,-4v8" fill="none" stroke="white" stroke-width="1.5" pointer-events="none"/>
                </g>
                <g id="zoomMin">
                        <use xlink:href="#rim" fill="#404040">
                                <set attributeName="fill" to="#808080" begin="zoomminus.mouseover" end="zoomminus.mouseout"/>
                        </use>
                        <path d="M-4,0h8" fill="none" stroke="white" stroke-width="1.5" pointer-events="none"/>
                </g>
                <g id="dirArrow">
                        <path fill="none" stroke="white" stroke-width="1.5" d="M0,-3.0v7 M-2.5,-0.5L0,-3.0L2.5,-0.5"/>
                </g>
               <g id="resetDef">
                       <use xlink:href="#rim2" fill="#404040">
                               <set attributeName="fill" to="#808080" begin="reset.mouseover" end="reset.mouseout"/>
                       </use>
               </g>
        </defs>

<script type="text/javascript">
var viewWidth = 509;
var viewHeight = 352;
var sectionId = 'dynsection-1';
</script>
<script xlink:href="svgpan.js"/>
<svg id="graph" class="graph">
<g id="viewport">
<title>xtb_disp_coordinationnumber::getcoordinationnumber::getcoordinationnumbernl</title>
<polygon fill="white" stroke="transparent" points="-4,4 -4,-347.5 505,-347.5 505,4 -4,4"/>
<!-- Node1 -->
<g id="node1" class="node">
<title>Node1</title>
<g id="a_node1"><a xlink:title="Geometric fractional coordination number, supports both error function.">
<polygon fill="#bfbfbf" stroke="black" points="0,-153.5 0,-194.5 143,-194.5 143,-153.5 0,-153.5"/>
<text text-anchor="start" x="8" y="-182.5" font-family="Helvetica,sans-Serif" font-size="10.00">xtb_disp_coordinationnumber</text>
<text text-anchor="start" x="8" y="-171.5" font-family="Helvetica,sans-Serif" font-size="10.00">::getcoordinationnumber</text>
<text text-anchor="middle" x="71.5" y="-160.5" font-family="Helvetica,sans-Serif" font-size="10.00">::getcoordinationnumbernl</text>
</a>
</g>
</g>
<!-- Node2 -->
<g id="node2" class="node">
<title>Node2</title>
<g id="a_node2"><a xlink:href="namespacextb__disp__coordinationnumber.html#a3aa32ae4642e3dcb9546d7385e72e7ab" target="_top" xlink:title="Derivative of the counting function w.r.t. the distance.">
<polygon fill="white" stroke="black" points="179,-313 179,-343 322,-343 322,-313 179,-313"/>
<text text-anchor="start" x="187" y="-331" font-family="Helvetica,sans-Serif" font-size="10.00">xtb_disp_coordinationnumber</text>
<text text-anchor="middle" x="250.5" y="-320" font-family="Helvetica,sans-Serif" font-size="10.00">::derfcount</text>
</a>
</g>
</g>
<!-- Node1&#45;&gt;Node2 -->
<g id="edge1" class="edge">
<title>Node1&#45;&gt;Node2</title>
<path fill="none" stroke="midnightblue" d="M85.7,-194.58C103.87,-221.5 138.92,-268.67 179,-298 184.21,-301.81 189.98,-305.26 195.92,-308.34"/>
<polygon fill="midnightblue" stroke="midnightblue" points="194.78,-311.68 205.31,-312.89 197.83,-305.38 194.78,-311.68"/>
</g>
<!-- Node3 -->
<g id="node3" class="node">
<title>Node3</title>
<g id="a_node3"><a xlink:href="namespacextb__disp__coordinationnumber.html#a9b05796fd247e97025908ce9b9760c66" target="_top" xlink:title="Derivative of the counting function w.r.t. the distance.">
<polygon fill="white" stroke="black" points="358,-249 358,-279 501,-279 501,-249 358,-249"/>
<text text-anchor="start" x="366" y="-267" font-family="Helvetica,sans-Serif" font-size="10.00">xtb_disp_coordinationnumber</text>
<text text-anchor="middle" x="429.5" y="-256" font-family="Helvetica,sans-Serif" font-size="10.00">::dexpcount</text>
</a>
</g>
</g>
<!-- Node1&#45;&gt;Node3 -->
<g id="edge2" class="edge">
<title>Node1&#45;&gt;Node3</title>
<path fill="none" stroke="midnightblue" d="M88.69,-194.65C107.59,-216.91 141.13,-251.02 179,-265 232.8,-284.85 297.67,-283.91 347.78,-278.36"/>
<polygon fill="midnightblue" stroke="midnightblue" points="348.41,-281.81 357.92,-277.16 347.58,-274.86 348.41,-281.81"/>
</g>
<!-- Node4 -->
<g id="node4" class="node">
<title>Node4</title>
<g id="a_node4"><a xlink:href="namespacextb__disp__coordinationnumber.html#a5224b5587a25893c702f49b43fc47dba" target="_top" xlink:title="Derivative of the counting function w.r.t. the distance.">
<polygon fill="white" stroke="black" points="179,-225 179,-255 322,-255 322,-225 179,-225"/>
<text text-anchor="start" x="187" y="-243" font-family="Helvetica,sans-Serif" font-size="10.00">xtb_disp_coordinationnumber</text>
<text text-anchor="middle" x="250.5" y="-232" font-family="Helvetica,sans-Serif" font-size="10.00">::dgfncount</text>
</a>
</g>
</g>
<!-- Node1&#45;&gt;Node4 -->
<g id="edge3" class="edge">
<title>Node1&#45;&gt;Node4</title>
<path fill="none" stroke="midnightblue" d="M127.53,-194.52C150.52,-203.09 177.03,-212.98 199.46,-221.34"/>
<polygon fill="midnightblue" stroke="midnightblue" points="198.53,-224.73 209.12,-224.94 200.97,-218.17 198.53,-224.73"/>
</g>
<!-- Node5 -->
<g id="node5" class="node">
<title>Node5</title>
<g id="a_node5"><a xlink:href="namespacextb__disp__coordinationnumber.html#ad7706209e8851f8c87f8e234852cdbb4" target="_top" xlink:title="Exponential counting function for coordination number contributions.">
<polygon fill="white" stroke="black" points="358,-181 358,-211 501,-211 501,-181 358,-181"/>
<text text-anchor="start" x="366" y="-199" font-family="Helvetica,sans-Serif" font-size="10.00">xtb_disp_coordinationnumber</text>
<text text-anchor="middle" x="429.5" y="-188" font-family="Helvetica,sans-Serif" font-size="10.00">::expcount</text>
</a>
</g>
</g>
<!-- Node1&#45;&gt;Node5 -->
<g id="edge7" class="edge">
<title>Node1&#45;&gt;Node5</title>
<path fill="none" stroke="midnightblue" d="M143.26,-178.37C202.23,-182.02 286.23,-187.21 347.81,-191.01"/>
<polygon fill="midnightblue" stroke="midnightblue" points="347.68,-194.51 357.87,-191.64 348.11,-187.53 347.68,-194.51"/>
</g>
<!-- Node6 -->
<g id="node6" class="node">
<title>Node6</title>
<g id="a_node6"><a xlink:href="namespacextb__disp__coordinationnumber.html#aed134491ffe850858999680c36fd6e24" target="_top" xlink:title="Error function counting function for coordination number contributions.">
<polygon fill="white" stroke="black" points="179,-137 179,-167 322,-167 322,-137 179,-137"/>
<text text-anchor="start" x="187" y="-155" font-family="Helvetica,sans-Serif" font-size="10.00">xtb_disp_coordinationnumber</text>
<text text-anchor="middle" x="250.5" y="-144" font-family="Helvetica,sans-Serif" font-size="10.00">::erfcount</text>
</a>
</g>
</g>
<!-- Node1&#45;&gt;Node6 -->
<g id="edge6" class="edge">
<title>Node1&#45;&gt;Node6</title>
<path fill="none" stroke="midnightblue" d="M143.22,-165.21C151.66,-164.16 160.33,-163.08 168.9,-162.02"/>
<polygon fill="midnightblue" stroke="midnightblue" points="169.4,-165.48 178.89,-160.78 168.54,-158.54 169.4,-165.48"/>
</g>
<!-- Node7 -->
<g id="node7" class="node">
<title>Node7</title>
<g id="a_node7"><a xlink:href="namespacextb__disp__coordinationnumber.html#a1ca5cf801b7a8b72c97cd11a9e6a0846" target="_top" xlink:title="Exponential counting function for coordination number contributions.">
<polygon fill="white" stroke="black" points="179,-88 179,-118 322,-118 322,-88 179,-88"/>
<text text-anchor="start" x="187" y="-106" font-family="Helvetica,sans-Serif" font-size="10.00">xtb_disp_coordinationnumber</text>
<text text-anchor="middle" x="250.5" y="-95" font-family="Helvetica,sans-Serif" font-size="10.00">::gfncount</text>
</a>
</g>
</g>
<!-- Node1&#45;&gt;Node7 -->
<g id="edge8" class="edge">
<title>Node1&#45;&gt;Node7</title>
<path fill="none" stroke="midnightblue" d="M116.7,-153.46C135.71,-144.89 158.29,-135.08 179,-127 183.77,-125.14 188.75,-123.28 193.77,-121.47"/>
<polygon fill="midnightblue" stroke="midnightblue" points="195.15,-124.69 203.4,-118.04 192.81,-118.09 195.15,-124.69"/>
</g>
<!-- Node8 -->
<g id="node8" class="node">
<title>Node8</title>
<g id="a_node8"><a xlink:href="namespacextb__disp__coordinationnumber.html#a6612bcc30fc26ba6431dc1d1fd0f8c4b" target="_top" xlink:title="Actual implementation of the coordination number, takes a generic counting.">
<polygon fill="white" stroke="black" points="179,-39 179,-69 322,-69 322,-39 179,-39"/>
<text text-anchor="start" x="187" y="-57" font-family="Helvetica,sans-Serif" font-size="10.00">xtb_disp_coordinationnumber</text>
<text text-anchor="middle" x="250.5" y="-46" font-family="Helvetica,sans-Serif" font-size="10.00">::ncoordneighs</text>
</a>
</g>
</g>
<!-- Node1&#45;&gt;Node8 -->
<g id="edge10" class="edge">
<title>Node1&#45;&gt;Node8</title>
<path fill="none" stroke="midnightblue" d="M90.6,-153.33C110.4,-131.84 144.01,-98.54 179,-78 181.84,-76.33 184.82,-74.76 187.87,-73.27"/>
<polygon fill="midnightblue" stroke="midnightblue" points="189.52,-76.37 197.22,-69.1 186.66,-69.98 189.52,-76.37"/>
</g>
<!-- Node9 -->
<g id="node9" class="node">
<title>Node9</title>
<g id="a_node9"><a xlink:href="symmetry__i_8c.html#aa77c823a9fc018ae1d437369708d8727" target="_top" xlink:title=" ">
<polygon fill="white" stroke="black" points="234,-0.5 234,-19.5 267,-19.5 267,-0.5 234,-0.5"/>
<text text-anchor="middle" x="250.5" y="-7.5" font-family="Helvetica,sans-Serif" font-size="10.00">true</text>
</a>
</g>
</g>
<!-- Node1&#45;&gt;Node9 -->
<g id="edge11" class="edge">
<title>Node1&#45;&gt;Node9</title>
<path fill="none" stroke="midnightblue" d="M81.91,-153.49C97.49,-121.84 131.7,-61.38 179,-29 192.25,-19.93 209.66,-15.18 223.86,-12.7"/>
<polygon fill="midnightblue" stroke="midnightblue" points="224.59,-16.13 233.97,-11.21 223.57,-9.21 224.59,-16.13"/>
</g>
<!-- Node4&#45;&gt;Node3 -->
<g id="edge4" class="edge">
<title>Node4&#45;&gt;Node3</title>
<path fill="none" stroke="midnightblue" d="M322.22,-249.59C330.66,-250.73 339.33,-251.91 347.9,-253.07"/>
<polygon fill="midnightblue" stroke="midnightblue" points="347.51,-256.55 357.89,-254.43 348.46,-249.61 347.51,-256.55"/>
</g>
<!-- Node4&#45;&gt;Node5 -->
<g id="edge5" class="edge">
<title>Node4&#45;&gt;Node5</title>
<path fill="none" stroke="midnightblue" d="M311.92,-224.98C326.79,-221.28 342.84,-217.29 358.13,-213.49"/>
<polygon fill="midnightblue" stroke="midnightblue" points="359.19,-216.84 368.05,-211.03 357.5,-210.04 359.19,-216.84"/>
</g>
<!-- Node7&#45;&gt;Node5 -->
<g id="edge9" class="edge">
<title>Node7&#45;&gt;Node5</title>
<path fill="none" stroke="midnightblue" d="M301.05,-118.13C308.2,-120.81 315.37,-123.78 322,-127 349.93,-140.54 379.37,-160.07 400.2,-174.9"/>
<polygon fill="midnightblue" stroke="midnightblue" points="398.41,-177.93 408.57,-180.94 402.51,-172.25 398.41,-177.93"/>
</g>
</g>
</svg>
        <g id="navigator" transform="translate(0 0)" fill="#404254">
                <rect fill="#f2f5e9" fill-opacity="0.5" stroke="#606060" stroke-width=".5" x="0" y="0" width="60" height="60"/>
                <use id="zoomplus" xlink:href="#zoomPlus" x="17" y="9" onmousedown="handleZoom(evt,'in')"/>
                <use id="zoomminus" xlink:href="#zoomMin" x="42" y="9" onmousedown="handleZoom(evt,'out')"/>
                <use id="reset" xlink:href="#resetDef" x="30" y="36" onmousedown="handleReset()"/>
                <g id="arrowUp" xlink:href="#dirArrow" transform="translate(30 24)" onmousedown="handlePan(0,-1)">
                  <use xlink:href="#rim" fill="#404040">
                        <set attributeName="fill" to="#808080" begin="arrowUp.mouseover" end="arrowUp.mouseout"/>
                  </use>
                  <path fill="none" stroke="white" stroke-width="1.5" d="M0,-3.0v7 M-2.5,-0.5L0,-3.0L2.5,-0.5"/>
                </g>
                <g id="arrowRight" xlink:href="#dirArrow" transform="rotate(90) translate(36 -43)" onmousedown="handlePan(1,0)">
                  <use xlink:href="#rim" fill="#404040">
                        <set attributeName="fill" to="#808080" begin="arrowRight.mouseover" end="arrowRight.mouseout"/>
                  </use>
                  <path fill="none" stroke="white" stroke-width="1.5" d="M0,-3.0v7 M-2.5,-0.5L0,-3.0L2.5,-0.5"/>
                </g>
                <g id="arrowDown" xlink:href="#dirArrow" transform="rotate(180) translate(-30 -48)" onmousedown="handlePan(0,1)">
                  <use xlink:href="#rim" fill="#404040">
                        <set attributeName="fill" to="#808080" begin="arrowDown.mouseover" end="arrowDown.mouseout"/>
                  </use>
                  <path fill="none" stroke="white" stroke-width="1.5" d="M0,-3.0v7 M-2.5,-0.5L0,-3.0L2.5,-0.5"/>
                </g>
                <g id="arrowLeft" xlink:href="#dirArrow" transform="rotate(270) translate(-36 17)" onmousedown="handlePan(-1,0)">
                  <use xlink:href="#rim" fill="#404040">
                        <set attributeName="fill" to="#808080" begin="arrowLeft.mouseover" end="arrowLeft.mouseout"/>
                  </use>
                  <path fill="none" stroke="white" stroke-width="1.5" d="M0,-3.0v7 M-2.5,-0.5L0,-3.0L2.5,-0.5"/>
                </g>
        </g>
        <svg viewBox="0 0 15 15" width="100%" height="30px" preserveAspectRatio="xMaxYMin meet">
         <g id="arrow_out" transform="scale(0.3 0.3)">
          <a xlink:href="interfacextb__disp__coordinationnumber_1_1getcoordinationnumber_ae4bc7047d85e1e85a2a084c543029c11_cgraph_org.svg" target="_base">
           <rect id="button" ry="5" rx="5" y="6" x="6" height="38" width="38"
                fill="#f2f5e9" fill-opacity="0.5" stroke="#606060" stroke-width="1.0"/>
           <path id="arrow"
             d="M 11.500037,31.436501 C 11.940474,20.09759 22.043105,11.32322 32.158766,21.979434 L 37.068811,17.246167 C 37.068811,17.246167 37.088388,32 37.088388,32 L 22.160133,31.978069 C 22.160133,31.978069 26.997745,27.140456 26.997745,27.140456 C 18.528582,18.264221 13.291696,25.230495 11.500037,31.436501 z"
             style="fill:#404040;"/>
          </a>
         </g>
        </svg>
</svg>
