<?xml version="1.0" encoding="UTF-8" standalone="no"?>
<!DOCTYPE svg PUBLIC "-//W3C//DTD SVG 1.1//EN"
 "http://www.w3.org/Graphics/SVG/1.1/DTD/svg11.dtd">
<!-- Generated by graphviz version 2.46.0 (20210122.1329)
 -->
<!-- Title: xtb_disp_dftd4::d4_gradient::d4_gradient_latp Pages: 1 -->
<svg width="570pt" height="151pt"
 viewBox="0.00 0.00 570.00 150.50" xmlns="http://www.w3.org/2000/svg" xmlns:xlink="http://www.w3.org/1999/xlink">
<g id="graph0" class="graph" transform="scale(1 1) rotate(0) translate(4 146.5)">
<title>xtb_disp_dftd4::d4_gradient::d4_gradient_latp</title>
<polygon fill="white" stroke="transparent" points="-4,4 -4,-146.5 566,-146.5 566,4 -4,4"/>
<!-- Node1 -->
<g id="node1" class="node">
<title>Node1</title>
<g id="a_node1"><a xlink:title="Evaluate gradient of DFT&#45;D4, this routine can handle systems of arbitrary.">
<polygon fill="#bfbfbf" stroke="black" points="0,-63 0,-93 132,-93 132,-63 0,-63"/>
<text text-anchor="start" x="8" y="-81" font-family="Helvetica,sans-Serif" font-size="10.00">xtb_disp_dftd4::d4</text>
<text text-anchor="middle" x="66" y="-70" font-family="Helvetica,sans-Serif" font-size="10.00">_gradient::d4_gradient_latp</text>
</a>
</g>
</g>
<!-- Node2 -->
<g id="node2" class="node">
<title>Node2</title>
<g id="a_node2"><a xlink:href="namespacextb__disp__dftd4.html#a121093b09de6d7f36249fbb442064a36" target="_top" xlink:title=" ">
<polygon fill="white" stroke="black" points="173.5,-112 173.5,-142 275.5,-142 275.5,-112 173.5,-112"/>
<text text-anchor="start" x="181.5" y="-130" font-family="Helvetica,sans-Serif" font-size="10.00">xtb_disp_dftd4::disp</text>
<text text-anchor="middle" x="224.5" y="-119" font-family="Helvetica,sans-Serif" font-size="10.00">_gradient_latp</text>
</a>
</g>
</g>
<!-- Node1&#45;&gt;Node2 -->
<g id="edge1" class="edge">
<title>Node1&#45;&gt;Node2</title>
<path fill="none" stroke="midnightblue" d="M115.23,-93.1C131.22,-98.11 149.19,-103.73 165.82,-108.94"/>
<polygon fill="midnightblue" stroke="midnightblue" points="164.84,-112.3 175.43,-111.95 166.93,-105.62 164.84,-112.3"/>
</g>
<!-- Node3 -->
<g id="node3" class="node">
<title>Node3</title>
<g id="a_node3"><a xlink:href="namespacextb__disp__dftd4.html#a04b1479df97eb6947ada413c02efe672" target="_top" xlink:title="calculate atomic dispersion coefficients and their derivatives w.r.t.">
<polygon fill="white" stroke="black" points="175.5,-63 175.5,-93 273.5,-93 273.5,-63 175.5,-63"/>
<text text-anchor="start" x="183.5" y="-81" font-family="Helvetica,sans-Serif" font-size="10.00">xtb_disp_dftd4::get</text>
<text text-anchor="middle" x="224.5" y="-70" font-family="Helvetica,sans-Serif" font-size="10.00">_atomic_c6</text>
</a>
</g>
</g>
<!-- Node1&#45;&gt;Node3 -->
<g id="edge2" class="edge">
<title>Node1&#45;&gt;Node3</title>
<path fill="none" stroke="midnightblue" d="M132.01,-78C142.96,-78 154.26,-78 165.03,-78"/>
<polygon fill="midnightblue" stroke="midnightblue" points="165.16,-81.5 175.16,-78 165.16,-74.5 165.16,-81.5"/>
</g>
<!-- Node4 -->
<g id="node4" class="node">
<title>Node4</title>
<g id="a_node4"><a xlink:href="namespacextb__disp__dftd4.html#af596f8ddba483a100b9f0052e13e09a1" target="_top" xlink:title="Calculate the weights of the reference system and the derivatives w.r.t.">
<polygon fill="white" stroke="black" points="168,-14 168,-44 281,-44 281,-14 168,-14"/>
<text text-anchor="start" x="176" y="-32" font-family="Helvetica,sans-Serif" font-size="10.00">xtb_disp_dftd4::weight</text>
<text text-anchor="middle" x="224.5" y="-21" font-family="Helvetica,sans-Serif" font-size="10.00">_references</text>
</a>
</g>
</g>
<!-- Node1&#45;&gt;Node4 -->
<g id="edge3" class="edge">
<title>Node1&#45;&gt;Node4</title>
<path fill="none" stroke="midnightblue" d="M115.23,-62.9C131.22,-57.89 149.19,-52.27 165.82,-47.06"/>
<polygon fill="midnightblue" stroke="midnightblue" points="166.93,-50.38 175.43,-44.05 164.84,-43.7 166.93,-50.38"/>
</g>
<!-- Node5 -->
<g id="node5" class="node">
<title>Node5</title>
<g id="a_node5"><a xlink:href="namespacextb__disp__dftd4.html#ab0e32d23b62a0b9663cc78f08da4e21d" target="_top" xlink:title=" ">
<polygon fill="white" stroke="black" points="317,-57.5 317,-76.5 424,-76.5 424,-57.5 317,-57.5"/>
<text text-anchor="middle" x="370.5" y="-64.5" font-family="Helvetica,sans-Serif" font-size="10.00">xtb_disp_dftd4::cngw</text>
</a>
</g>
</g>
<!-- Node4&#45;&gt;Node5 -->
<g id="edge4" class="edge">
<title>Node4&#45;&gt;Node5</title>
<path fill="none" stroke="midnightblue" d="M281.17,-43.69C295.05,-47.35 309.78,-51.24 323.15,-54.77"/>
<polygon fill="midnightblue" stroke="midnightblue" points="322.51,-58.22 333.07,-57.39 324.3,-51.45 322.51,-58.22"/>
</g>
<!-- Node6 -->
<g id="node6" class="node">
<title>Node6</title>
<g id="a_node6"><a xlink:href="namespacextb__disp__dftd4.html#acaf91a2aaed23ff2557b4c4c247f2d65" target="_top" xlink:title=" ">
<polygon fill="white" stroke="black" points="317,-19.5 317,-38.5 424,-38.5 424,-19.5 317,-19.5"/>
<text text-anchor="middle" x="370.5" y="-26.5" font-family="Helvetica,sans-Serif" font-size="10.00">xtb_disp_dftd4::dzeta</text>
</a>
</g>
</g>
<!-- Node4&#45;&gt;Node6 -->
<g id="edge5" class="edge">
<title>Node4&#45;&gt;Node6</title>
<path fill="none" stroke="midnightblue" d="M281.17,-29C289.5,-29 298.14,-29 306.6,-29"/>
<polygon fill="midnightblue" stroke="midnightblue" points="306.81,-32.5 316.81,-29 306.81,-25.5 306.81,-32.5"/>
</g>
<!-- Node7 -->
<g id="node7" class="node">
<title>Node7</title>
<g id="a_node7"><a xlink:href="namespacextb__disp__dftd4.html#a84f2fe9e55715ff22663ba9cbc3b02c2" target="_top" xlink:title=" ">
<polygon fill="white" stroke="black" points="460,-0.5 460,-19.5 562,-19.5 562,-0.5 460,-0.5"/>
<text text-anchor="middle" x="511" y="-7.5" font-family="Helvetica,sans-Serif" font-size="10.00">xtb_disp_dftd4::zeta</text>
</a>
</g>
</g>
<!-- Node4&#45;&gt;Node7 -->
<g id="edge7" class="edge">
<title>Node4&#45;&gt;Node7</title>
<path fill="none" stroke="midnightblue" d="M281.35,-15.51C293.06,-13.22 305.38,-11.19 317,-10 361.18,-5.46 411.34,-5.62 449.46,-6.83"/>
<polygon fill="midnightblue" stroke="midnightblue" points="449.75,-10.35 459.87,-7.2 450,-3.35 449.75,-10.35"/>
</g>
<!-- Node6&#45;&gt;Node7 -->
<g id="edge6" class="edge">
<title>Node6&#45;&gt;Node7</title>
<path fill="none" stroke="midnightblue" d="M424.26,-21.76C432.52,-20.63 441.11,-19.45 449.53,-18.3"/>
<polygon fill="midnightblue" stroke="midnightblue" points="450.24,-21.73 459.67,-16.9 449.29,-14.8 450.24,-21.73"/>
</g>
</g>
</svg>
