<?xml version="1.0" encoding="UTF-8" standalone="no"?>
<!DOCTYPE svg PUBLIC "-//W3C//DTD SVG 1.1//EN"
 "http://www.w3.org/Graphics/SVG/1.1/DTD/svg11.dtd">
<!-- Generated by graphviz version 2.43.0 (0)
 -->
<!-- Title: xtb_param_covalentradd3::getcovalentradd3::getcovalentradd3symbol Pages: 1 -->
<svg width="674pt" height="39pt"
 viewBox="0.00 0.00 674.00 39.00" xmlns="http://www.w3.org/2000/svg" xmlns:xlink="http://www.w3.org/1999/xlink">
<g id="graph0" class="graph" transform="scale(1 1) rotate(0) translate(4 35)">
<title>xtb_param_covalentradd3::getcovalentradd3::getcovalentradd3symbol</title>
<polygon fill="white" stroke="transparent" points="-4,4 -4,-35 670,-35 670,4 -4,4"/>
<!-- Node1 -->
<g id="node1" class="node">
<title>Node1</title>
<g id="a_node1"><a xlink:title="Get covalent radius for species with a given symbol.">
<polygon fill="#bfbfbf" stroke="black" points="0,-0.5 0,-30.5 236,-30.5 236,-0.5 0,-0.5"/>
<text text-anchor="start" x="8" y="-18.5" font-family="Helvetica,sans-Serif" font-size="10.00">xtb_param_covalentradd3</text>
<text text-anchor="middle" x="118" y="-7.5" font-family="Helvetica,sans-Serif" font-size="10.00">::getcovalentradd3::getcovalentradd3symbol</text>
</a>
</g>
</g>
<!-- Node2 -->
<g id="node2" class="node">
<title>Node2</title>
<g id="a_node2"><a xlink:href="namespacextb__mctc__symbols.html#a415078dcb669ace05def9d5ccfad86fa" target="_top" xlink:title="Convert element symbol to atomic number.">
<polygon fill="white" stroke="black" points="272,-6 272,-25 433,-25 433,-6 272,-6"/>
<text text-anchor="middle" x="352.5" y="-13" font-family="Helvetica,sans-Serif" font-size="10.00">xtb_mctc_symbols::tonumber</text>
</a>
</g>
</g>
<!-- Node1&#45;&gt;Node2 -->
<g id="edge1" class="edge">
<title>Node1&#45;&gt;Node2</title>
<path fill="none" stroke="midnightblue" d="M236.27,-15.5C244.86,-15.5 253.43,-15.5 261.82,-15.5"/>
<polygon fill="midnightblue" stroke="midnightblue" points="261.93,-19 271.93,-15.5 261.93,-12 261.93,-19"/>
</g>
<!-- Node3 -->
<g id="node3" class="node">
<title>Node3</title>
<g id="a_node3"><a xlink:href="namespacextb__mctc__symbols.html#a6443a2bd18736176be30e8db1ddc89dd" target="_top" xlink:title="Convert element symbol to atomic number.">
<polygon fill="white" stroke="black" points="469,-6 469,-25 666,-25 666,-6 469,-6"/>
<text text-anchor="middle" x="567.5" y="-13" font-family="Helvetica,sans-Serif" font-size="10.00">xtb_mctc_symbols::symboltonumber</text>
</a>
</g>
</g>
<!-- Node2&#45;&gt;Node3 -->
<g id="edge2" class="edge">
<title>Node2&#45;&gt;Node3</title>
<path fill="none" stroke="midnightblue" d="M433.12,-15.5C441.52,-15.5 450.17,-15.5 458.83,-15.5"/>
<polygon fill="midnightblue" stroke="midnightblue" points="458.98,-19 468.98,-15.5 458.98,-12 458.98,-19"/>
</g>
</g>
</svg>
