<?xml version="1.0" encoding="UTF-8" standalone="no"?>
<!DOCTYPE svg PUBLIC "-//W3C//DTD SVG 1.1//EN"
 "http://www.w3.org/Graphics/SVG/1.1/DTD/svg11.dtd">
<!-- Generated by graphviz version 2.43.0 (0)
 -->
<!-- Title: xtb_disp_dftd3::d3_gradient::d3_full_gradient_latp Pages: 1 -->
<!--zoomable 235 -->
<svg id="main" version="1.1" xmlns="http://www.w3.org/2000/svg" xmlns:xlink="http://www.w3.org/1999/xlink" xml:space="preserve" onload="init(evt)">
<style type="text/css"><![CDATA[
.edge:hover path { stroke: red; }
.edge:hover polygon { stroke: red; fill: red; }
]]></style>
<script type="text/javascript"><![CDATA[
var edges = document.getElementsByTagName('g');
if (edges && edges.length) {
  for (var i=0;i<edges.length;i++) {
    if (edges[i].id.substr(0,4)=='edge') {
      edges[i].setAttribute('class','edge');
    }
  }
}
]]></script>
        <defs>
                <circle id="rim" cx="0" cy="0" r="7"/>
                <circle id="rim2" cx="0" cy="0" r="3.5"/>
                <g id="zoomPlus">
                        <use xlink:href="#rim" fill="#404040">
                                <set attributeName="fill" to="#808080" begin="zoomplus.mouseover" end="zoomplus.mouseout"/>
                        </use>
                        <path d="M-4,0h8M0,-4v8" fill="none" stroke="white" stroke-width="1.5" pointer-events="none"/>
                </g>
                <g id="zoomMin">
                        <use xlink:href="#rim" fill="#404040">
                                <set attributeName="fill" to="#808080" begin="zoomminus.mouseover" end="zoomminus.mouseout"/>
                        </use>
                        <path d="M-4,0h8" fill="none" stroke="white" stroke-width="1.5" pointer-events="none"/>
                </g>
                <g id="dirArrow">
                        <path fill="none" stroke="white" stroke-width="1.5" d="M0,-3.0v7 M-2.5,-0.5L0,-3.0L2.5,-0.5"/>
                </g>
               <g id="resetDef">
                       <use xlink:href="#rim2" fill="#404040">
                               <set attributeName="fill" to="#808080" begin="reset.mouseover" end="reset.mouseout"/>
                       </use>
               </g>
        </defs>

<script type="text/javascript">
var viewWidth = 521;
var viewHeight = 235;
var sectionId = 'dynsection-0';
</script>
<script xlink:href="svgpan.js"/>
<svg id="graph" class="graph">
<g id="viewport">
<title>xtb_disp_dftd3::d3_gradient::d3_full_gradient_latp</title>
<polygon fill="white" stroke="transparent" points="-4,4 -4,-231 517,-231 517,4 -4,4"/>
<!-- Node1 -->
<g id="node1" class="node">
<title>Node1</title>
<g id="a_node1"><a xlink:title=" ">
<polygon fill="#bfbfbf" stroke="black" points="0,-73.5 0,-103.5 171,-103.5 171,-73.5 0,-73.5"/>
<text text-anchor="start" x="8" y="-91.5" font-family="Helvetica,sans-Serif" font-size="10.00">xtb_disp_dftd3::d3</text>
<text text-anchor="middle" x="85.5" y="-80.5" font-family="Helvetica,sans-Serif" font-size="10.00">_gradient::d3_full_gradient_latp</text>
</a>
</g>
</g>
<!-- Node2 -->
<g id="node2" class="node">
<title>Node2</title>
<g id="a_node2"><a xlink:href="namespacextb__disp__dftd3.html#a63be053bd404504d789f600843324192" target="_top" xlink:title=" ">
<polygon fill="white" stroke="black" points="214,-147.5 214,-177.5 327,-177.5 327,-147.5 214,-147.5"/>
<text text-anchor="start" x="222" y="-165.5" font-family="Helvetica,sans-Serif" font-size="10.00">xtb_disp_dftd3::atm</text>
<text text-anchor="middle" x="270.5" y="-154.5" font-family="Helvetica,sans-Serif" font-size="10.00">_gradient_latp</text>
</a>
</g>
</g>
<!-- Node1&#45;&gt;Node2 -->
<g id="edge1" class="edge">
<title>Node1&#45;&gt;Node2</title>
<path fill="none" stroke="midnightblue" d="M121.99,-103.52C145.94,-113.58 178.29,-127.03 207,-138.5 211.24,-140.19 215.66,-141.94 220.09,-143.67"/>
<polygon fill="midnightblue" stroke="midnightblue" points="219.17,-147.07 229.76,-147.42 221.71,-140.54 219.17,-147.07"/>
</g>
<!-- Node6 -->
<g id="node6" class="node">
<title>Node6</title>
<g id="a_node6"><a xlink:href="namespacextb__disp__dftd3.html#aa210a54da767b355552cb47296171126" target="_top" xlink:title="Implementation of the pairwise dispersion energy.">
<polygon fill="white" stroke="black" points="213.5,-98.5 213.5,-128.5 327.5,-128.5 327.5,-98.5 213.5,-98.5"/>
<text text-anchor="start" x="221.5" y="-116.5" font-family="Helvetica,sans-Serif" font-size="10.00">xtb_disp_dftd3::disp</text>
<text text-anchor="middle" x="270.5" y="-105.5" font-family="Helvetica,sans-Serif" font-size="10.00">_gradient_latp</text>
</a>
</g>
</g>
<!-- Node1&#45;&gt;Node6 -->
<g id="edge5" class="edge">
<title>Node1&#45;&gt;Node6</title>
<path fill="none" stroke="midnightblue" d="M171.04,-100.05C181.78,-101.52 192.66,-103 203.06,-104.42"/>
<polygon fill="midnightblue" stroke="midnightblue" points="202.91,-107.94 213.29,-105.82 203.86,-101 202.91,-107.94"/>
</g>
<!-- Node7 -->
<g id="node7" class="node">
<title>Node7</title>
<g id="a_node7"><a xlink:href="namespacextb__disp__dftd3.html#a82e2048362c5fee97120ce5bcdd229e9" target="_top" xlink:title="calculate atomic dispersion coefficients and their derivatives w.r.t.">
<polygon fill="white" stroke="black" points="215.5,-49.5 215.5,-79.5 325.5,-79.5 325.5,-49.5 215.5,-49.5"/>
<text text-anchor="start" x="223.5" y="-67.5" font-family="Helvetica,sans-Serif" font-size="10.00">xtb_disp_dftd3::get</text>
<text text-anchor="middle" x="270.5" y="-56.5" font-family="Helvetica,sans-Serif" font-size="10.00">_atomic_c6</text>
</a>
</g>
</g>
<!-- Node1&#45;&gt;Node7 -->
<g id="edge6" class="edge">
<title>Node1&#45;&gt;Node7</title>
<path fill="none" stroke="midnightblue" d="M171.04,-77.41C182.58,-75.9 194.27,-74.37 205.37,-72.91"/>
<polygon fill="midnightblue" stroke="midnightblue" points="205.92,-76.37 215.38,-71.6 205.01,-69.43 205.92,-76.37"/>
</g>
<!-- Node9 -->
<g id="node9" class="node">
<title>Node9</title>
<g id="a_node9"><a xlink:href="namespacextb__disp__dftd3.html#af51fb8c764abfd81456418dc9c5f8467" target="_top" xlink:title="Calculate the weights of the reference system and the derivatives w.r.t.">
<polygon fill="white" stroke="black" points="207,-0.5 207,-30.5 334,-30.5 334,-0.5 207,-0.5"/>
<text text-anchor="start" x="215" y="-18.5" font-family="Helvetica,sans-Serif" font-size="10.00">xtb_disp_dftd3::weight</text>
<text text-anchor="middle" x="270.5" y="-7.5" font-family="Helvetica,sans-Serif" font-size="10.00">_references</text>
</a>
</g>
</g>
<!-- Node1&#45;&gt;Node9 -->
<g id="edge8" class="edge">
<title>Node1&#45;&gt;Node9</title>
<path fill="none" stroke="midnightblue" d="M123.08,-73.41C146.92,-63.62 178.75,-50.67 207,-39.5 211.25,-37.82 215.67,-36.09 220.1,-34.37"/>
<polygon fill="midnightblue" stroke="midnightblue" points="221.72,-37.49 229.78,-30.62 219.19,-30.97 221.72,-37.49"/>
</g>
<!-- Node3 -->
<g id="node3" class="node">
<title>Node3</title>
<g id="a_node3"><a xlink:href="namespacextb__disp__dftd3.html#aa6bd9f30deb7b8f6569b94cdf1269364" target="_top" xlink:title=" ">
<polygon fill="white" stroke="black" points="382,-196.5 382,-226.5 501,-226.5 501,-196.5 382,-196.5"/>
<text text-anchor="start" x="390" y="-214.5" font-family="Helvetica,sans-Serif" font-size="10.00">xtb_disp_dftd3::deriv</text>
<text text-anchor="middle" x="441.5" y="-203.5" font-family="Helvetica,sans-Serif" font-size="10.00">_atm_triple</text>
</a>
</g>
</g>
<!-- Node2&#45;&gt;Node3 -->
<g id="edge2" class="edge">
<title>Node2&#45;&gt;Node3</title>
<path fill="none" stroke="midnightblue" d="M323.58,-177.6C341.1,-182.68 360.79,-188.39 378.96,-193.66"/>
<polygon fill="midnightblue" stroke="midnightblue" points="378.01,-197.03 388.59,-196.45 379.96,-190.3 378.01,-197.03"/>
</g>
<!-- Node4 -->
<g id="node4" class="node">
<title>Node4</title>
<g id="a_node4"><a xlink:href="namespacextb__disp__dftd3param.html#a97051cffb1b382008fca261780378140" target="_top" xlink:title=" ">
<polygon fill="white" stroke="black" points="382,-147.5 382,-177.5 501,-177.5 501,-147.5 382,-147.5"/>
<text text-anchor="start" x="390" y="-165.5" font-family="Helvetica,sans-Serif" font-size="10.00">xtb_disp_dftd3param</text>
<text text-anchor="middle" x="441.5" y="-154.5" font-family="Helvetica,sans-Serif" font-size="10.00">::get_vdwrad</text>
</a>
</g>
</g>
<!-- Node2&#45;&gt;Node4 -->
<g id="edge3" class="edge">
<title>Node2&#45;&gt;Node4</title>
<path fill="none" stroke="midnightblue" d="M327.31,-162.5C341.52,-162.5 356.97,-162.5 371.75,-162.5"/>
<polygon fill="midnightblue" stroke="midnightblue" points="371.85,-166 381.85,-162.5 371.85,-159 371.85,-166"/>
</g>
<!-- Node5 -->
<g id="node5" class="node">
<title>Node5</title>
<g id="a_node5"><a xlink:href="namespacextb__disp__dftd3.html#a7381f4fa56c9f467b80c163573c7f79b" target="_top" xlink:title="Logic exercise to distribute a triple energy to atomwise energies.">
<polygon fill="white" stroke="black" points="382,-98.5 382,-128.5 501,-128.5 501,-98.5 382,-98.5"/>
<text text-anchor="start" x="390" y="-116.5" font-family="Helvetica,sans-Serif" font-size="10.00">xtb_disp_dftd3::triple</text>
<text text-anchor="middle" x="441.5" y="-105.5" font-family="Helvetica,sans-Serif" font-size="10.00">_scale</text>
</a>
</g>
</g>
<!-- Node2&#45;&gt;Node5 -->
<g id="edge4" class="edge">
<title>Node2&#45;&gt;Node5</title>
<path fill="none" stroke="midnightblue" d="M323.58,-147.4C341.1,-142.32 360.79,-136.61 378.96,-131.34"/>
<polygon fill="midnightblue" stroke="midnightblue" points="379.96,-134.7 388.59,-128.55 378.01,-127.97 379.96,-134.7"/>
</g>
<!-- Node8 -->
<g id="node8" class="node">
<title>Node8</title>
<g id="a_node8"><a xlink:href="namespacextb__disp__dftd3param.html#a31d14f3c121af72cdf7a1735b63e598e" target="_top" xlink:title=" ">
<polygon fill="white" stroke="black" points="382,-49.5 382,-79.5 501,-79.5 501,-49.5 382,-49.5"/>
<text text-anchor="start" x="390" y="-67.5" font-family="Helvetica,sans-Serif" font-size="10.00">xtb_disp_dftd3param</text>
<text text-anchor="middle" x="441.5" y="-56.5" font-family="Helvetica,sans-Serif" font-size="10.00">::get_c6</text>
</a>
</g>
</g>
<!-- Node7&#45;&gt;Node8 -->
<g id="edge7" class="edge">
<title>Node7&#45;&gt;Node8</title>
<path fill="none" stroke="midnightblue" d="M325.9,-64.5C340.41,-64.5 356.27,-64.5 371.45,-64.5"/>
<polygon fill="midnightblue" stroke="midnightblue" points="371.82,-68 381.82,-64.5 371.82,-61 371.82,-68"/>
</g>
<!-- Node10 -->
<g id="node10" class="node">
<title>Node10</title>
<g id="a_node10"><a xlink:href="namespacextb__disp__dftd3.html#a46f9a43b2f4cb1ded589a521aea7c20a" target="_top" xlink:title=" ">
<polygon fill="white" stroke="black" points="370,-6 370,-25 513,-25 513,-6 370,-6"/>
<text text-anchor="middle" x="441.5" y="-13" font-family="Helvetica,sans-Serif" font-size="10.00">xtb_disp_dftd3::weight_cn</text>
</a>
</g>
</g>
<!-- Node9&#45;&gt;Node10 -->
<g id="edge9" class="edge">
<title>Node9&#45;&gt;Node10</title>
<path fill="none" stroke="midnightblue" d="M334.43,-15.5C342.64,-15.5 351.13,-15.5 359.58,-15.5"/>
<polygon fill="midnightblue" stroke="midnightblue" points="359.84,-19 369.84,-15.5 359.84,-12 359.84,-19"/>
</g>
</g>
</svg>
        <g id="navigator" transform="translate(0 0)" fill="#404254">
                <rect fill="#f2f5e9" fill-opacity="0.5" stroke="#606060" stroke-width=".5" x="0" y="0" width="60" height="60"/>
                <use id="zoomplus" xlink:href="#zoomPlus" x="17" y="9" onmousedown="handleZoom(evt,'in')"/>
                <use id="zoomminus" xlink:href="#zoomMin" x="42" y="9" onmousedown="handleZoom(evt,'out')"/>
                <use id="reset" xlink:href="#resetDef" x="30" y="36" onmousedown="handleReset()"/>
                <g id="arrowUp" xlink:href="#dirArrow" transform="translate(30 24)" onmousedown="handlePan(0,-1)">
                  <use xlink:href="#rim" fill="#404040">
                        <set attributeName="fill" to="#808080" begin="arrowUp.mouseover" end="arrowUp.mouseout"/>
                  </use>
                  <path fill="none" stroke="white" stroke-width="1.5" d="M0,-3.0v7 M-2.5,-0.5L0,-3.0L2.5,-0.5"/>
                </g>
                <g id="arrowRight" xlink:href="#dirArrow" transform="rotate(90) translate(36 -43)" onmousedown="handlePan(1,0)">
                  <use xlink:href="#rim" fill="#404040">
                        <set attributeName="fill" to="#808080" begin="arrowRight.mouseover" end="arrowRight.mouseout"/>
                  </use>
                  <path fill="none" stroke="white" stroke-width="1.5" d="M0,-3.0v7 M-2.5,-0.5L0,-3.0L2.5,-0.5"/>
                </g>
                <g id="arrowDown" xlink:href="#dirArrow" transform="rotate(180) translate(-30 -48)" onmousedown="handlePan(0,1)">
                  <use xlink:href="#rim" fill="#404040">
                        <set attributeName="fill" to="#808080" begin="arrowDown.mouseover" end="arrowDown.mouseout"/>
                  </use>
                  <path fill="none" stroke="white" stroke-width="1.5" d="M0,-3.0v7 M-2.5,-0.5L0,-3.0L2.5,-0.5"/>
                </g>
                <g id="arrowLeft" xlink:href="#dirArrow" transform="rotate(270) translate(-36 17)" onmousedown="handlePan(-1,0)">
                  <use xlink:href="#rim" fill="#404040">
                        <set attributeName="fill" to="#808080" begin="arrowLeft.mouseover" end="arrowLeft.mouseout"/>
                  </use>
                  <path fill="none" stroke="white" stroke-width="1.5" d="M0,-3.0v7 M-2.5,-0.5L0,-3.0L2.5,-0.5"/>
                </g>
        </g>
        <svg viewBox="0 0 15 15" width="100%" height="30px" preserveAspectRatio="xMaxYMin meet">
         <g id="arrow_out" transform="scale(0.3 0.3)">
          <a xlink:href="interfacextb__disp__dftd3_1_1d3__gradient_a235d7c22a675fb31046cc4c4c3474c70_cgraph_org.svg" target="_base">
           <rect id="button" ry="5" rx="5" y="6" x="6" height="38" width="38"
                fill="#f2f5e9" fill-opacity="0.5" stroke="#606060" stroke-width="1.0"/>
           <path id="arrow"
             d="M 11.500037,31.436501 C 11.940474,20.09759 22.043105,11.32322 32.158766,21.979434 L 37.068811,17.246167 C 37.068811,17.246167 37.088388,32 37.088388,32 L 22.160133,31.978069 C 22.160133,31.978069 26.997745,27.140456 26.997745,27.140456 C 18.528582,18.264221 13.291696,25.230495 11.500037,31.436501 z"
             style="fill:#404040;"/>
          </a>
         </g>
        </svg>
</svg>
