<?xml version="1.0" encoding="UTF-8" standalone="no"?>
<!DOCTYPE svg PUBLIC "-//W3C//DTD SVG 1.1//EN"
 "http://www.w3.org/Graphics/SVG/1.1/DTD/svg11.dtd">
<!-- Generated by graphviz version 2.46.1 (20210215.1649)
 -->
<!-- Title: xtb_mctc_symbols::getidentity::getidentitynumber Pages: 1 -->
<svg width="421pt" height="66pt"
 viewBox="0.00 0.00 421.00 66.00" xmlns="http://www.w3.org/2000/svg" xmlns:xlink="http://www.w3.org/1999/xlink">
<g id="graph0" class="graph" transform="scale(1 1) rotate(0) translate(4 62)">
<title>xtb_mctc_symbols::getidentity::getidentitynumber</title>
<polygon fill="white" stroke="transparent" points="-4,4 -4,-62 417,-62 417,4 -4,4"/>
<!-- Node1 -->
<g id="node1" class="node">
<title>Node1</title>
<g id="a_node1"><a xlink:title="Get chemical identity from a list of atomic numbers.">
<polygon fill="#bfbfbf" stroke="black" points="0,-14 0,-44 146,-44 146,-14 0,-14"/>
<text text-anchor="start" x="8" y="-32" font-family="Helvetica,sans-Serif" font-size="10.00">xtb_mctc_symbols::getidentity</text>
<text text-anchor="middle" x="73" y="-21" font-family="Helvetica,sans-Serif" font-size="10.00">::getidentitynumber</text>
</a>
</g>
</g>
<!-- Node2 -->
<g id="node2" class="node">
<title>Node2</title>
<g id="a_node2"><a xlink:href="namespacextb__mctc__symbols.html#a75e6380f87e6aedc82e3594d3a84c8f4" target="_top" xlink:title="Append an atomic number to an unsorted list, to ensure no dublicates search for the atomic number fir...">
<polygon fill="white" stroke="black" points="182,-38.5 182,-57.5 348,-57.5 348,-38.5 182,-38.5"/>
<text text-anchor="middle" x="265" y="-45.5" font-family="Helvetica,sans-Serif" font-size="10.00">xtb_mctc_symbols::appendnumber</text>
</a>
</g>
</g>
<!-- Node1&#45;&gt;Node2 -->
<g id="edge1" class="edge">
<title>Node1&#45;&gt;Node2</title>
<path fill="none" stroke="midnightblue" d="M146.1,-36.21C154.48,-37.05 163.11,-37.91 171.7,-38.77"/>
<polygon fill="midnightblue" stroke="midnightblue" points="171.47,-42.26 181.77,-39.78 172.16,-35.3 171.47,-42.26"/>
</g>
<!-- Node4 -->
<g id="node4" class="node">
<title>Node4</title>
<g id="a_node4"><a xlink:href="namespacextb__mctc__symbols.html#ae0f3900d6efdce276d98eef2ae0782a5" target="_top" xlink:title="Find atomic number in an unordered list, all entries are required to be unique.">
<polygon fill="white" stroke="black" points="190.5,-0.5 190.5,-19.5 339.5,-19.5 339.5,-0.5 190.5,-0.5"/>
<text text-anchor="middle" x="265" y="-7.5" font-family="Helvetica,sans-Serif" font-size="10.00">xtb_mctc_symbols::findnumber</text>
</a>
</g>
</g>
<!-- Node1&#45;&gt;Node4 -->
<g id="edge3" class="edge">
<title>Node1&#45;&gt;Node4</title>
<path fill="none" stroke="midnightblue" d="M146.1,-21.79C157.31,-20.67 168.96,-19.5 180.4,-18.36"/>
<polygon fill="midnightblue" stroke="midnightblue" points="180.77,-21.84 190.37,-17.36 180.07,-14.88 180.77,-21.84"/>
</g>
<!-- Node3 -->
<g id="node3" class="node">
<title>Node3</title>
<g id="a_node3"><a xlink:href="src_2CMakeLists_8txt.html#a1752f8ed27a298dcd5014319ef2472dd" target="_top" xlink:title=" ">
<polygon fill="white" stroke="black" points="384,-19.5 384,-38.5 413,-38.5 413,-19.5 384,-19.5"/>
<text text-anchor="middle" x="398.5" y="-26.5" font-family="Helvetica,sans-Serif" font-size="10.00">list</text>
</a>
</g>
</g>
<!-- Node2&#45;&gt;Node3 -->
<g id="edge2" class="edge">
<title>Node2&#45;&gt;Node3</title>
<path fill="none" stroke="midnightblue" d="M332.14,-38.44C346.87,-36.32 361.58,-34.19 373.3,-32.5"/>
<polygon fill="midnightblue" stroke="midnightblue" points="374.13,-35.91 383.53,-31.02 373.13,-28.98 374.13,-35.91"/>
</g>
<!-- Node4&#45;&gt;Node3 -->
<g id="edge4" class="edge">
<title>Node4&#45;&gt;Node3</title>
<path fill="none" stroke="midnightblue" d="M332.14,-19.56C346.87,-21.68 361.58,-23.81 373.3,-25.5"/>
<polygon fill="midnightblue" stroke="midnightblue" points="373.13,-29.02 383.53,-26.98 374.13,-22.09 373.13,-29.02"/>
</g>
</g>
</svg>
