<?xml version="1.0" encoding="UTF-8" standalone="no"?>
<!DOCTYPE svg PUBLIC "-//W3C//DTD SVG 1.1//EN"
 "http://www.w3.org/Graphics/SVG/1.1/DTD/svg11.dtd">
<!-- Generated by graphviz version 2.43.0 (0)
 -->
<!-- Title: xtb_coulomb_klopmanohno::init::initklopmanohno Pages: 1 -->
<!--zoomable 245 -->
<svg id="main" version="1.1" xmlns="http://www.w3.org/2000/svg" xmlns:xlink="http://www.w3.org/1999/xlink" xml:space="preserve" onload="init(evt)">
<style type="text/css"><![CDATA[
.edge:hover path { stroke: red; }
.edge:hover polygon { stroke: red; fill: red; }
]]></style>
<script type="text/javascript"><![CDATA[
var edges = document.getElementsByTagName('g');
if (edges && edges.length) {
  for (var i=0;i<edges.length;i++) {
    if (edges[i].id.substr(0,4)=='edge') {
      edges[i].setAttribute('class','edge');
    }
  }
}
]]></script>
        <defs>
                <circle id="rim" cx="0" cy="0" r="7"/>
                <circle id="rim2" cx="0" cy="0" r="3.5"/>
                <g id="zoomPlus">
                        <use xlink:href="#rim" fill="#404040">
                                <set attributeName="fill" to="#808080" begin="zoomplus.mouseover" end="zoomplus.mouseout"/>
                        </use>
                        <path d="M-4,0h8M0,-4v8" fill="none" stroke="white" stroke-width="1.5" pointer-events="none"/>
                </g>
                <g id="zoomMin">
                        <use xlink:href="#rim" fill="#404040">
                                <set attributeName="fill" to="#808080" begin="zoomminus.mouseover" end="zoomminus.mouseout"/>
                        </use>
                        <path d="M-4,0h8" fill="none" stroke="white" stroke-width="1.5" pointer-events="none"/>
                </g>
                <g id="dirArrow">
                        <path fill="none" stroke="white" stroke-width="1.5" d="M0,-3.0v7 M-2.5,-0.5L0,-3.0L2.5,-0.5"/>
                </g>
               <g id="resetDef">
                       <use xlink:href="#rim2" fill="#404040">
                               <set attributeName="fill" to="#808080" begin="reset.mouseover" end="reset.mouseout"/>
                       </use>
               </g>
        </defs>

<script type="text/javascript">
var viewWidth = 963;
var viewHeight = 245;
var sectionId = 'dynsection-0';
</script>
<script xlink:href="svgpan.js"/>
<svg id="graph" class="graph">
<g id="viewport">
<title>xtb_coulomb_klopmanohno::init::initklopmanohno</title>
<polygon fill="white" stroke="transparent" points="-4,4 -4,-241.15 959,-241.15 959,4 -4,4"/>
<!-- Node1 -->
<g id="node1" class="node">
<title>Node1</title>
<g id="a_node1"><a xlink:title=" ">
<polygon fill="#bfbfbf" stroke="black" points="0,-108.65 0,-138.65 152,-138.65 152,-108.65 0,-108.65"/>
<text text-anchor="start" x="8" y="-126.65" font-family="Helvetica,sans-Serif" font-size="10.00">xtb_coulomb_klopmanohno</text>
<text text-anchor="middle" x="76" y="-115.65" font-family="Helvetica,sans-Serif" font-size="10.00">::init::initklopmanohno</text>
</a>
</g>
</g>
<!-- Node2 -->
<g id="node2" class="node">
<title>Node2</title>
<g id="a_node2"><a xlink:href="namespacextb__coulomb__klopmanohno.html#a8e3143bfbed3d6f41236a4ed90246965" target="_top" xlink:title="Arithmetic averaging functions for hardnesses in GFN2&#45;xTB.">
<polygon fill="white" stroke="black" points="230,-206.65 230,-236.65 382,-236.65 382,-206.65 230,-206.65"/>
<text text-anchor="start" x="238" y="-224.65" font-family="Helvetica,sans-Serif" font-size="10.00">xtb_coulomb_klopmanohno</text>
<text text-anchor="middle" x="306" y="-213.65" font-family="Helvetica,sans-Serif" font-size="10.00">::arithmeticaverage</text>
</a>
</g>
</g>
<!-- Node1&#45;&gt;Node2 -->
<g id="edge1" class="edge">
<title>Node1&#45;&gt;Node2</title>
<path fill="none" stroke="midnightblue" d="M94.98,-138.87C115.94,-155.81 152.3,-182.76 188,-197.65 198.04,-201.84 208.87,-205.32 219.76,-208.2"/>
<polygon fill="midnightblue" stroke="midnightblue" points="219.2,-211.67 229.74,-210.69 220.89,-204.88 219.2,-211.67"/>
</g>
<!-- Node3 -->
<g id="node3" class="node">
<title>Node3</title>
<g id="a_node3"><a xlink:href="namespacextb__coulomb__klopmanohno.html#a209d1f8a90418313b430415fcf569f1c" target="_top" xlink:title="Geometric averaging functions for hardnesses.">
<polygon fill="white" stroke="black" points="230,-157.65 230,-187.65 382,-187.65 382,-157.65 230,-157.65"/>
<text text-anchor="start" x="238" y="-175.65" font-family="Helvetica,sans-Serif" font-size="10.00">xtb_coulomb_klopmanohno</text>
<text text-anchor="middle" x="306" y="-164.65" font-family="Helvetica,sans-Serif" font-size="10.00">::geometricaverage</text>
</a>
</g>
</g>
<!-- Node1&#45;&gt;Node3 -->
<g id="edge2" class="edge">
<title>Node1&#45;&gt;Node3</title>
<path fill="none" stroke="midnightblue" d="M142.69,-138.67C157.58,-142.01 173.32,-145.5 188,-148.65 198.55,-150.92 209.65,-153.26 220.64,-155.55"/>
<polygon fill="midnightblue" stroke="midnightblue" points="220.18,-159.03 230.68,-157.63 221.6,-152.18 220.18,-159.03"/>
</g>
<!-- Node4 -->
<g id="node4" class="node">
<title>Node4</title>
<g id="a_node4"><a xlink:href="namespacextb__coulomb__klopmanohno.html#a3b93e84ab914a0656a4f28b0024b37dc" target="_top" xlink:title="Harmonic averaging functions for hardnesses in GFN1&#45;xTB.">
<polygon fill="white" stroke="black" points="230,-108.65 230,-138.65 382,-138.65 382,-108.65 230,-108.65"/>
<text text-anchor="start" x="238" y="-126.65" font-family="Helvetica,sans-Serif" font-size="10.00">xtb_coulomb_klopmanohno</text>
<text text-anchor="middle" x="306" y="-115.65" font-family="Helvetica,sans-Serif" font-size="10.00">::harmonicaverage</text>
</a>
</g>
</g>
<!-- Node1&#45;&gt;Node4 -->
<g id="edge3" class="edge">
<title>Node1&#45;&gt;Node4</title>
<path fill="none" stroke="midnightblue" d="M152.29,-123.65C173.88,-123.65 197.58,-123.65 219.74,-123.65"/>
<polygon fill="midnightblue" stroke="midnightblue" points="219.79,-127.15 229.79,-123.65 219.79,-120.15 219.79,-127.15"/>
</g>
<!-- Node5 -->
<g id="node5" class="node">
<title>Node5</title>
<g id="a_node5"><a xlink:href="namespacextb__type__coulomb.html#ab46bfaf512989b21d86c72c76475f363" target="_top" xlink:title=" ">
<polygon fill="white" stroke="black" points="188,-70.15 188,-89.15 424,-89.15 424,-70.15 188,-70.15"/>
<text text-anchor="middle" x="306" y="-77.15" font-family="Helvetica,sans-Serif" font-size="10.00">xtb_type_coulomb::setupboundaryconditions</text>
</a>
</g>
</g>
<!-- Node1&#45;&gt;Node5 -->
<g id="edge4" class="edge">
<title>Node1&#45;&gt;Node5</title>
<path fill="none" stroke="midnightblue" d="M144.11,-108.65C158.56,-105.56 173.77,-102.41 188,-99.65 203.52,-96.65 220.24,-93.65 236.05,-90.93"/>
<polygon fill="midnightblue" stroke="midnightblue" points="237.02,-94.31 246.29,-89.17 235.84,-87.41 237.02,-94.31"/>
</g>
<!-- Node14 -->
<g id="node14" class="node">
<title>Node14</title>
<g id="a_node14"><a xlink:href="namespacextb__type__coulomb.html#a43f594fb89f4adb31a5a59d40659ef50" target="_top" xlink:title=" ">
<polygon fill="white" stroke="black" points="210.5,-32.15 210.5,-51.15 401.5,-51.15 401.5,-32.15 210.5,-32.15"/>
<text text-anchor="middle" x="306" y="-39.15" font-family="Helvetica,sans-Serif" font-size="10.00">xtb_type_coulomb::setupindextable</text>
</a>
</g>
</g>
<!-- Node1&#45;&gt;Node14 -->
<g id="edge16" class="edge">
<title>Node1&#45;&gt;Node14</title>
<path fill="none" stroke="midnightblue" d="M98.42,-108.41C120,-93.83 154.77,-72.36 188,-60.65 195.95,-57.85 204.36,-55.46 212.86,-53.42"/>
<polygon fill="midnightblue" stroke="midnightblue" points="213.88,-56.78 222.87,-51.18 212.35,-49.95 213.88,-56.78"/>
</g>
<!-- Node6 -->
<g id="node6" class="node">
<title>Node6</title>
<g id="a_node6"><a xlink:href="namespacextb__coulomb__ewald.html#af895b4c8ffcaa0ad96aa19ed8bb346f9" target="_top" xlink:title="Returns the longest reciprocal vector which gives a bigger contribution to.">
<polygon fill="white" stroke="black" points="475.5,-157.65 475.5,-187.65 595.5,-187.65 595.5,-157.65 475.5,-157.65"/>
<text text-anchor="start" x="483.5" y="-175.65" font-family="Helvetica,sans-Serif" font-size="10.00">xtb_coulomb_ewald::</text>
<text text-anchor="middle" x="535.5" y="-164.65" font-family="Helvetica,sans-Serif" font-size="10.00">getmaxg</text>
</a>
</g>
</g>
<!-- Node5&#45;&gt;Node6 -->
<g id="edge5" class="edge">
<title>Node5&#45;&gt;Node6</title>
<path fill="none" stroke="midnightblue" d="M401.64,-89.2C409.5,-91.94 417.07,-95.38 424,-99.65 446.99,-113.85 438.08,-132.86 460,-148.65 462.07,-150.15 464.25,-151.55 466.49,-152.87"/>
<polygon fill="midnightblue" stroke="midnightblue" points="464.96,-156.02 475.44,-157.55 468.2,-149.82 464.96,-156.02"/>
</g>
<!-- Node8 -->
<g id="node8" class="node">
<title>Node8</title>
<g id="a_node8"><a xlink:href="namespacextb__coulomb__ewald.html#aa74d92ca86f81de2517bfff1bd22394b" target="_top" xlink:title="Returns the longest real space vector which gives a bigger contribution to.">
<polygon fill="white" stroke="black" points="663,-59.65 663,-89.65 783,-89.65 783,-59.65 663,-59.65"/>
<text text-anchor="start" x="671" y="-77.65" font-family="Helvetica,sans-Serif" font-size="10.00">xtb_coulomb_ewald::</text>
<text text-anchor="middle" x="723" y="-66.65" font-family="Helvetica,sans-Serif" font-size="10.00">getmaxr</text>
</a>
</g>
</g>
<!-- Node5&#45;&gt;Node8 -->
<g id="edge7" class="edge">
<title>Node5&#45;&gt;Node8</title>
<path fill="none" stroke="midnightblue" d="M424.26,-78.24C497.94,-77.35 590.46,-76.24 652.65,-75.49"/>
<polygon fill="midnightblue" stroke="midnightblue" points="652.79,-78.99 662.75,-75.37 652.71,-71.99 652.79,-78.99"/>
</g>
<!-- Node10 -->
<g id="node10" class="node">
<title>Node10</title>
<g id="a_node10"><a xlink:href="namespacextb__coulomb__ewald.html#a0578c81cbd7c7bcaf949e8a916d4e7e6" target="_top" xlink:title="Get optimal alpha&#45;parameter for the Ewald summation by finding alpha, where.">
<polygon fill="white" stroke="black" points="475.5,-108.65 475.5,-138.65 595.5,-138.65 595.5,-108.65 475.5,-108.65"/>
<text text-anchor="start" x="483.5" y="-126.65" font-family="Helvetica,sans-Serif" font-size="10.00">xtb_coulomb_ewald::</text>
<text text-anchor="middle" x="535.5" y="-115.65" font-family="Helvetica,sans-Serif" font-size="10.00">getoptimalalpha</text>
</a>
</g>
</g>
<!-- Node5&#45;&gt;Node10 -->
<g id="edge9" class="edge">
<title>Node5&#45;&gt;Node10</title>
<path fill="none" stroke="midnightblue" d="M365.71,-89.16C384.38,-92.33 405.08,-95.98 424,-99.65 437.41,-102.26 451.7,-105.22 465.4,-108.15"/>
<polygon fill="midnightblue" stroke="midnightblue" points="464.73,-111.59 475.25,-110.27 466.21,-104.74 464.73,-111.59"/>
</g>
<!-- Node12 -->
<g id="node12" class="node">
<title>Node12</title>
<g id="a_node12"><a xlink:href="namespacextb__mctc__math.html#a228581ab05d5a9183f2cfc31da44da10" target="_top" xlink:title="Determinat of 3×3 matrix.">
<polygon fill="white" stroke="black" points="647,-8.15 647,-27.15 799,-27.15 799,-8.15 647,-8.15"/>
<text text-anchor="middle" x="723" y="-15.15" font-family="Helvetica,sans-Serif" font-size="10.00">xtb_mctc_math::matdet3x3</text>
</a>
</g>
</g>
<!-- Node5&#45;&gt;Node12 -->
<g id="edge13" class="edge">
<title>Node5&#45;&gt;Node12</title>
<path fill="none" stroke="midnightblue" d="M400.78,-70.12C408.87,-67.61 416.72,-64.5 424,-60.65 444.56,-49.77 438.72,-32.05 460,-22.65 525.82,6.41 610.31,1.47 665.28,-6.55"/>
<polygon fill="midnightblue" stroke="midnightblue" points="664.78,-10.01 675.19,-8.08 665.84,-3.1 664.78,-10.01"/>
</g>
<!-- Node13 -->
<g id="node13" class="node">
<title>Node13</title>
<g id="a_node13"><a xlink:href="namespacextb__mctc__math.html#aeaf5bd07a903a53cdbe7b49e9b3d9d63" target="_top" xlink:title="Performs a direct calculation of the inverse of a 3×3 matrix.">
<polygon fill="white" stroke="black" points="460,-32.15 460,-51.15 611,-51.15 611,-32.15 460,-32.15"/>
<text text-anchor="middle" x="535.5" y="-39.15" font-family="Helvetica,sans-Serif" font-size="10.00">xtb_mctc_math::matinv3x3</text>
</a>
</g>
</g>
<!-- Node5&#45;&gt;Node13 -->
<g id="edge14" class="edge">
<title>Node5&#45;&gt;Node13</title>
<path fill="none" stroke="midnightblue" d="M366.24,-70.14C384.74,-67.14 405.23,-63.79 424,-60.65 438.74,-58.19 454.58,-55.49 469.53,-52.93"/>
<polygon fill="midnightblue" stroke="midnightblue" points="470.46,-56.32 479.72,-51.18 469.27,-49.42 470.46,-56.32"/>
</g>
<!-- Node7 -->
<g id="node7" class="node">
<title>Node7</title>
<g id="a_node7"><a xlink:href="namespacextb__coulomb__ewald.html#a01d5c6447f010a9f1064df29bfe5615c" target="_top" xlink:title="Returns the max. value of a term in the reciprocal space part of the Ewald.">
<polygon fill="white" stroke="black" points="663,-157.65 663,-187.65 783,-187.65 783,-157.65 663,-157.65"/>
<text text-anchor="start" x="671" y="-175.65" font-family="Helvetica,sans-Serif" font-size="10.00">xtb_coulomb_ewald::</text>
<text text-anchor="middle" x="723" y="-164.65" font-family="Helvetica,sans-Serif" font-size="10.00">getgtermpbc3d</text>
</a>
</g>
</g>
<!-- Node6&#45;&gt;Node7 -->
<g id="edge6" class="edge">
<title>Node6&#45;&gt;Node7</title>
<path fill="none" stroke="midnightblue" d="M595.7,-172.65C613.78,-172.65 633.81,-172.65 652.5,-172.65"/>
<polygon fill="midnightblue" stroke="midnightblue" points="652.72,-176.15 662.72,-172.65 652.72,-169.15 652.72,-176.15"/>
</g>
<!-- Node9 -->
<g id="node9" class="node">
<title>Node9</title>
<g id="a_node9"><a xlink:href="namespacextb__coulomb__ewald.html#a85f630579876f0888919a3440f359ea6" target="_top" xlink:title="Returns the max. value of a term in the real space part of the Ewald summation.">
<polygon fill="white" stroke="black" points="835,-83.65 835,-113.65 955,-113.65 955,-83.65 835,-83.65"/>
<text text-anchor="start" x="843" y="-101.65" font-family="Helvetica,sans-Serif" font-size="10.00">xtb_coulomb_ewald::</text>
<text text-anchor="middle" x="895" y="-90.65" font-family="Helvetica,sans-Serif" font-size="10.00">getrterm</text>
</a>
</g>
</g>
<!-- Node8&#45;&gt;Node9 -->
<g id="edge8" class="edge">
<title>Node8&#45;&gt;Node9</title>
<path fill="none" stroke="midnightblue" d="M783.46,-83.05C796.73,-84.92 810.93,-86.93 824.57,-88.85"/>
<polygon fill="midnightblue" stroke="midnightblue" points="824.47,-92.37 834.86,-90.3 825.45,-85.44 824.47,-92.37"/>
</g>
<!-- Node10&#45;&gt;Node7 -->
<g id="edge12" class="edge">
<title>Node10&#45;&gt;Node7</title>
<path fill="none" stroke="midnightblue" d="M593.42,-138.69C613,-143.86 635.11,-149.7 655.4,-155.06"/>
<polygon fill="midnightblue" stroke="midnightblue" points="654.63,-158.48 665.19,-157.65 656.42,-151.71 654.63,-158.48"/>
</g>
<!-- Node11 -->
<g id="node11" class="node">
<title>Node11</title>
<g id="a_node11"><a xlink:href="namespacextb__coulomb__ewald.html#a979ba98f5270b5ea7f1c4ec4740f85f1" target="_top" xlink:title="Returns the difference in the decrease of the real and reciprocal parts of the.">
<polygon fill="white" stroke="black" points="663,-108.65 663,-138.65 783,-138.65 783,-108.65 663,-108.65"/>
<text text-anchor="start" x="671" y="-126.65" font-family="Helvetica,sans-Serif" font-size="10.00">xtb_coulomb_ewald::</text>
<text text-anchor="middle" x="723" y="-115.65" font-family="Helvetica,sans-Serif" font-size="10.00">diffrecreal</text>
</a>
</g>
</g>
<!-- Node10&#45;&gt;Node11 -->
<g id="edge10" class="edge">
<title>Node10&#45;&gt;Node11</title>
<path fill="none" stroke="midnightblue" d="M595.7,-123.65C613.78,-123.65 633.81,-123.65 652.5,-123.65"/>
<polygon fill="midnightblue" stroke="midnightblue" points="652.72,-127.15 662.72,-123.65 652.72,-120.15 652.72,-127.15"/>
</g>
<!-- Node11&#45;&gt;Node9 -->
<g id="edge11" class="edge">
<title>Node11&#45;&gt;Node9</title>
<path fill="none" stroke="midnightblue" d="M783.46,-114.91C796.86,-112.94 811.2,-110.83 824.97,-108.81"/>
<polygon fill="midnightblue" stroke="midnightblue" points="825.48,-112.27 834.86,-107.35 824.46,-105.34 825.48,-112.27"/>
</g>
<!-- Node13&#45;&gt;Node12 -->
<g id="edge15" class="edge">
<title>Node13&#45;&gt;Node12</title>
<path fill="none" stroke="midnightblue" d="M610.08,-32.13C619.37,-30.93 628.92,-29.7 638.35,-28.48"/>
<polygon fill="midnightblue" stroke="midnightblue" points="639.04,-31.92 648.51,-27.16 638.14,-24.97 639.04,-31.92"/>
</g>
</g>
</svg>
        <g id="navigator" transform="translate(0 0)" fill="#404254">
                <rect fill="#f2f5e9" fill-opacity="0.5" stroke="#606060" stroke-width=".5" x="0" y="0" width="60" height="60"/>
                <use id="zoomplus" xlink:href="#zoomPlus" x="17" y="9" onmousedown="handleZoom(evt,'in')"/>
                <use id="zoomminus" xlink:href="#zoomMin" x="42" y="9" onmousedown="handleZoom(evt,'out')"/>
                <use id="reset" xlink:href="#resetDef" x="30" y="36" onmousedown="handleReset()"/>
                <g id="arrowUp" xlink:href="#dirArrow" transform="translate(30 24)" onmousedown="handlePan(0,-1)">
                  <use xlink:href="#rim" fill="#404040">
                        <set attributeName="fill" to="#808080" begin="arrowUp.mouseover" end="arrowUp.mouseout"/>
                  </use>
                  <path fill="none" stroke="white" stroke-width="1.5" d="M0,-3.0v7 M-2.5,-0.5L0,-3.0L2.5,-0.5"/>
                </g>
                <g id="arrowRight" xlink:href="#dirArrow" transform="rotate(90) translate(36 -43)" onmousedown="handlePan(1,0)">
                  <use xlink:href="#rim" fill="#404040">
                        <set attributeName="fill" to="#808080" begin="arrowRight.mouseover" end="arrowRight.mouseout"/>
                  </use>
                  <path fill="none" stroke="white" stroke-width="1.5" d="M0,-3.0v7 M-2.5,-0.5L0,-3.0L2.5,-0.5"/>
                </g>
                <g id="arrowDown" xlink:href="#dirArrow" transform="rotate(180) translate(-30 -48)" onmousedown="handlePan(0,1)">
                  <use xlink:href="#rim" fill="#404040">
                        <set attributeName="fill" to="#808080" begin="arrowDown.mouseover" end="arrowDown.mouseout"/>
                  </use>
                  <path fill="none" stroke="white" stroke-width="1.5" d="M0,-3.0v7 M-2.5,-0.5L0,-3.0L2.5,-0.5"/>
                </g>
                <g id="arrowLeft" xlink:href="#dirArrow" transform="rotate(270) translate(-36 17)" onmousedown="handlePan(-1,0)">
                  <use xlink:href="#rim" fill="#404040">
                        <set attributeName="fill" to="#808080" begin="arrowLeft.mouseover" end="arrowLeft.mouseout"/>
                  </use>
                  <path fill="none" stroke="white" stroke-width="1.5" d="M0,-3.0v7 M-2.5,-0.5L0,-3.0L2.5,-0.5"/>
                </g>
        </g>
        <svg viewBox="0 0 15 15" width="100%" height="30px" preserveAspectRatio="xMaxYMin meet">
         <g id="arrow_out" transform="scale(0.3 0.3)">
          <a xlink:href="interfacextb__coulomb__klopmanohno_1_1init_ae65974389e2ef4951f7413508b2c3a35_cgraph_org.svg" target="_base">
           <rect id="button" ry="5" rx="5" y="6" x="6" height="38" width="38"
                fill="#f2f5e9" fill-opacity="0.5" stroke="#606060" stroke-width="1.0"/>
           <path id="arrow"
             d="M 11.500037,31.436501 C 11.940474,20.09759 22.043105,11.32322 32.158766,21.979434 L 37.068811,17.246167 C 37.068811,17.246167 37.088388,32 37.088388,32 L 22.160133,31.978069 C 22.160133,31.978069 26.997745,27.140456 26.997745,27.140456 C 18.528582,18.264221 13.291696,25.230495 11.500037,31.436501 z"
             style="fill:#404040;"/>
          </a>
         </g>
        </svg>
</svg>
