<?xml version="1.0" encoding="UTF-8" standalone="no"?>
<!DOCTYPE svg PUBLIC "-//W3C//DTD SVG 1.1//EN"
 "http://www.w3.org/Graphics/SVG/1.1/DTD/svg11.dtd">
<!-- Generated by graphviz version 2.43.0 (0)
 -->
<!-- Title: xtb_xtb_gfn1::initgfn1::inithamiltonian Pages: 1 -->
<svg width="491pt" height="180pt"
 viewBox="0.00 0.00 491.00 180.00" xmlns="http://www.w3.org/2000/svg" xmlns:xlink="http://www.w3.org/1999/xlink">
<g id="graph0" class="graph" transform="scale(1 1) rotate(0) translate(4 176)">
<title>xtb_xtb_gfn1::initgfn1::inithamiltonian</title>
<polygon fill="white" stroke="transparent" points="-4,4 -4,-176 487,-176 487,4 -4,4"/>
<!-- Node1 -->
<g id="node1" class="node">
<title>Node1</title>
<g id="a_node1"><a xlink:title=" ">
<polygon fill="#bfbfbf" stroke="black" points="0,-71 0,-101 124,-101 124,-71 0,-71"/>
<text text-anchor="start" x="8" y="-89" font-family="Helvetica,sans-Serif" font-size="10.00">xtb_xtb_gfn1::initgfn1</text>
<text text-anchor="middle" x="62" y="-78" font-family="Helvetica,sans-Serif" font-size="10.00">::inithamiltonian</text>
</a>
</g>
</g>
<!-- Node2 -->
<g id="node2" class="node">
<title>Node2</title>
<g id="a_node2"><a xlink:href="namespacextb__xtb__data.html#aec64d20b7353bc338de9335372c794b9" target="_top" xlink:title="Generator for valence shell data from the angular momenta of the shells.">
<polygon fill="white" stroke="black" points="163.5,-152.5 163.5,-171.5 376.5,-171.5 376.5,-152.5 163.5,-152.5"/>
<text text-anchor="middle" x="270" y="-159.5" font-family="Helvetica,sans-Serif" font-size="10.00">xtb_xtb_data::generatevalenceshelldata</text>
</a>
</g>
</g>
<!-- Node1&#45;&gt;Node2 -->
<g id="edge1" class="edge">
<title>Node1&#45;&gt;Node2</title>
<path fill="none" stroke="midnightblue" d="M83.85,-101.25C102.78,-114.35 131.95,-132.7 160,-143 167.5,-145.75 175.44,-148.11 183.48,-150.14"/>
<polygon fill="midnightblue" stroke="midnightblue" points="182.77,-153.57 193.31,-152.44 184.37,-146.75 182.77,-153.57"/>
</g>
<!-- Node4 -->
<g id="node4" class="node">
<title>Node4</title>
<g id="a_node4"><a xlink:href="namespacextb__xtb__gfn1.html#a98ba7da25e3b64fcef0688c67039c86b" target="_top" xlink:title=" ">
<polygon fill="white" stroke="black" points="200,-114.5 200,-133.5 340,-133.5 340,-114.5 200,-114.5"/>
<text text-anchor="middle" x="270" y="-121.5" font-family="Helvetica,sans-Serif" font-size="10.00">xtb_xtb_gfn1::setgfn1kcn</text>
</a>
</g>
</g>
<!-- Node1&#45;&gt;Node4 -->
<g id="edge3" class="edge">
<title>Node1&#45;&gt;Node4</title>
<path fill="none" stroke="midnightblue" d="M124.02,-98.15C135.94,-100.47 148.36,-102.85 160,-105 173.83,-107.56 188.67,-110.21 202.8,-112.69"/>
<polygon fill="midnightblue" stroke="midnightblue" points="202.5,-116.19 212.95,-114.46 203.7,-109.29 202.5,-116.19"/>
</g>
<!-- Node5 -->
<g id="node5" class="node">
<title>Node5</title>
<g id="a_node5"><a xlink:href="namespacextb__xtb__gfn1.html#ae68fe854197b5ef4626cf4d66339a9c7" target="_top" xlink:title=" ">
<polygon fill="white" stroke="black" points="160,-76.5 160,-95.5 380,-95.5 380,-76.5 160,-76.5"/>
<text text-anchor="middle" x="270" y="-83.5" font-family="Helvetica,sans-Serif" font-size="10.00">xtb_xtb_gfn1::setgfn1numberofprimitives</text>
</a>
</g>
</g>
<!-- Node1&#45;&gt;Node5 -->
<g id="edge4" class="edge">
<title>Node1&#45;&gt;Node5</title>
<path fill="none" stroke="midnightblue" d="M124.25,-86C132.35,-86 140.86,-86 149.53,-86"/>
<polygon fill="midnightblue" stroke="midnightblue" points="149.77,-89.5 159.77,-86 149.77,-82.5 149.77,-89.5"/>
</g>
<!-- Node6 -->
<g id="node6" class="node">
<title>Node6</title>
<g id="a_node6"><a xlink:href="namespacextb__xtb__gfn1.html#aae78d45d8dc38bb4e61966cae64d9456" target="_top" xlink:title=" ">
<polygon fill="white" stroke="black" points="183.5,-38.5 183.5,-57.5 356.5,-57.5 356.5,-38.5 183.5,-38.5"/>
<text text-anchor="middle" x="270" y="-45.5" font-family="Helvetica,sans-Serif" font-size="10.00">xtb_xtb_gfn1::setgfn1pairparam</text>
</a>
</g>
</g>
<!-- Node1&#45;&gt;Node6 -->
<g id="edge5" class="edge">
<title>Node1&#45;&gt;Node6</title>
<path fill="none" stroke="midnightblue" d="M124.02,-73.85C135.94,-71.53 148.36,-69.15 160,-67 173.83,-64.44 188.67,-61.79 202.8,-59.31"/>
<polygon fill="midnightblue" stroke="midnightblue" points="203.7,-62.71 212.95,-57.54 202.5,-55.81 203.7,-62.71"/>
</g>
<!-- Node8 -->
<g id="node8" class="node">
<title>Node8</title>
<g id="a_node8"><a xlink:href="namespacextb__xtb__gfn1.html#a8f43ad203ceab50c4b5d21cc0f58357f" target="_top" xlink:title=" ">
<polygon fill="white" stroke="black" points="177,-0.5 177,-19.5 363,-19.5 363,-0.5 177,-0.5"/>
<text text-anchor="middle" x="270" y="-7.5" font-family="Helvetica,sans-Serif" font-size="10.00">xtb_xtb_gfn1::setgfn1referenceocc</text>
</a>
</g>
</g>
<!-- Node1&#45;&gt;Node8 -->
<g id="edge7" class="edge">
<title>Node1&#45;&gt;Node8</title>
<path fill="none" stroke="midnightblue" d="M83.85,-70.75C102.78,-57.65 131.95,-39.3 160,-29 167.5,-26.25 175.44,-23.89 183.48,-21.86"/>
<polygon fill="midnightblue" stroke="midnightblue" points="184.37,-25.25 193.31,-19.56 182.77,-18.43 184.37,-25.25"/>
</g>
<!-- Node3 -->
<g id="node3" class="node">
<title>Node3</title>
<g id="a_node3"><a xlink:href="symmetry__i_8c.html#aa77c823a9fc018ae1d437369708d8727" target="_top" xlink:title=" ">
<polygon fill="white" stroke="black" points="431.5,-152.5 431.5,-171.5 467.5,-171.5 467.5,-152.5 431.5,-152.5"/>
<text text-anchor="middle" x="449.5" y="-159.5" font-family="Helvetica,sans-Serif" font-size="10.00">true</text>
</a>
</g>
</g>
<!-- Node2&#45;&gt;Node3 -->
<g id="edge2" class="edge">
<title>Node2&#45;&gt;Node3</title>
<path fill="none" stroke="midnightblue" d="M376.56,-162C393.03,-162 408.69,-162 421.18,-162"/>
<polygon fill="midnightblue" stroke="midnightblue" points="421.27,-165.5 431.27,-162 421.27,-158.5 421.27,-165.5"/>
</g>
<!-- Node7 -->
<g id="node7" class="node">
<title>Node7</title>
<g id="a_node7"><a xlink:href="src_2xtb_2gfn1_8f90.html#ac51bddd7d909928d2e8531957a0ef403" target="_top" xlink:title=" ">
<polygon fill="white" stroke="black" points="416,-38.5 416,-57.5 483,-57.5 483,-38.5 416,-38.5"/>
<text text-anchor="middle" x="449.5" y="-45.5" font-family="Helvetica,sans-Serif" font-size="10.00">dblockrow</text>
</a>
</g>
</g>
<!-- Node6&#45;&gt;Node7 -->
<g id="edge6" class="edge">
<title>Node6&#45;&gt;Node7</title>
<path fill="none" stroke="midnightblue" d="M356.63,-48C373.61,-48 390.74,-48 405.53,-48"/>
<polygon fill="midnightblue" stroke="midnightblue" points="405.86,-51.5 415.86,-48 405.86,-44.5 405.86,-51.5"/>
</g>
</g>
</svg>
