<?xml version="1.0" encoding="UTF-8" standalone="no"?>
<!DOCTYPE svg PUBLIC "-//W3C//DTD SVG 1.1//EN"
 "http://www.w3.org/Graphics/SVG/1.1/DTD/svg11.dtd">
<!-- Generated by graphviz version 2.43.0 (0)
 -->
<!-- Title: xtb_disp_dftd3::d3_gradient::d3_full_gradient_neigh Pages: 1 -->
<!--zoomable 235 -->
<svg id="main" version="1.1" xmlns="http://www.w3.org/2000/svg" xmlns:xlink="http://www.w3.org/1999/xlink" xml:space="preserve" onload="init(evt)">
<style type="text/css"><![CDATA[
.edge:hover path { stroke: red; }
.edge:hover polygon { stroke: red; fill: red; }
]]></style>
<script type="text/javascript"><![CDATA[
var edges = document.getElementsByTagName('g');
if (edges && edges.length) {
  for (var i=0;i<edges.length;i++) {
    if (edges[i].id.substr(0,4)=='edge') {
      edges[i].setAttribute('class','edge');
    }
  }
}
]]></script>
        <defs>
                <circle id="rim" cx="0" cy="0" r="7"/>
                <circle id="rim2" cx="0" cy="0" r="3.5"/>
                <g id="zoomPlus">
                        <use xlink:href="#rim" fill="#404040">
                                <set attributeName="fill" to="#808080" begin="zoomplus.mouseover" end="zoomplus.mouseout"/>
                        </use>
                        <path d="M-4,0h8M0,-4v8" fill="none" stroke="white" stroke-width="1.5" pointer-events="none"/>
                </g>
                <g id="zoomMin">
                        <use xlink:href="#rim" fill="#404040">
                                <set attributeName="fill" to="#808080" begin="zoomminus.mouseover" end="zoomminus.mouseout"/>
                        </use>
                        <path d="M-4,0h8" fill="none" stroke="white" stroke-width="1.5" pointer-events="none"/>
                </g>
                <g id="dirArrow">
                        <path fill="none" stroke="white" stroke-width="1.5" d="M0,-3.0v7 M-2.5,-0.5L0,-3.0L2.5,-0.5"/>
                </g>
               <g id="resetDef">
                       <use xlink:href="#rim2" fill="#404040">
                               <set attributeName="fill" to="#808080" begin="reset.mouseover" end="reset.mouseout"/>
                       </use>
               </g>
        </defs>

<script type="text/javascript">
var viewWidth = 529;
var viewHeight = 235;
var sectionId = 'dynsection-1';
</script>
<script xlink:href="svgpan.js"/>
<svg id="graph" class="graph">
<g id="viewport">
<title>xtb_disp_dftd3::d3_gradient::d3_full_gradient_neigh</title>
<polygon fill="white" stroke="transparent" points="-4,4 -4,-231 525,-231 525,4 -4,4"/>
<!-- Node1 -->
<g id="node1" class="node">
<title>Node1</title>
<g id="a_node1"><a xlink:title=" ">
<polygon fill="#bfbfbf" stroke="black" points="0,-73.5 0,-103.5 179,-103.5 179,-73.5 0,-73.5"/>
<text text-anchor="start" x="8" y="-91.5" font-family="Helvetica,sans-Serif" font-size="10.00">xtb_disp_dftd3::d3</text>
<text text-anchor="middle" x="89.5" y="-80.5" font-family="Helvetica,sans-Serif" font-size="10.00">_gradient::d3_full_gradient_neigh</text>
</a>
</g>
</g>
<!-- Node2 -->
<g id="node2" class="node">
<title>Node2</title>
<g id="a_node2"><a xlink:href="namespacextb__disp__dftd3.html#a4e1320321299f37f57ffd65aae3ab5a0" target="_top" xlink:title=" ">
<polygon fill="white" stroke="black" points="222,-147.5 222,-177.5 335,-177.5 335,-147.5 222,-147.5"/>
<text text-anchor="start" x="230" y="-165.5" font-family="Helvetica,sans-Serif" font-size="10.00">xtb_disp_dftd3::atm</text>
<text text-anchor="middle" x="278.5" y="-154.5" font-family="Helvetica,sans-Serif" font-size="10.00">_gradient_neigh</text>
</a>
</g>
</g>
<!-- Node1&#45;&gt;Node2 -->
<g id="edge1" class="edge">
<title>Node1&#45;&gt;Node2</title>
<path fill="none" stroke="midnightblue" d="M127.49,-103.53C152.22,-113.53 185.51,-126.92 215,-138.5 219.43,-140.24 224.05,-142.04 228.67,-143.83"/>
<polygon fill="midnightblue" stroke="midnightblue" points="227.53,-147.14 238.12,-147.48 230.06,-140.62 227.53,-147.14"/>
</g>
<!-- Node6 -->
<g id="node6" class="node">
<title>Node6</title>
<g id="a_node6"><a xlink:href="namespacextb__disp__dftd3.html#af7457605780abcfbce7f7dabc3e810f7" target="_top" xlink:title=" ">
<polygon fill="white" stroke="black" points="221.5,-98.5 221.5,-128.5 335.5,-128.5 335.5,-98.5 221.5,-98.5"/>
<text text-anchor="start" x="229.5" y="-116.5" font-family="Helvetica,sans-Serif" font-size="10.00">xtb_disp_dftd3::disp</text>
<text text-anchor="middle" x="278.5" y="-105.5" font-family="Helvetica,sans-Serif" font-size="10.00">_gradient_neigh</text>
</a>
</g>
</g>
<!-- Node1&#45;&gt;Node6 -->
<g id="edge5" class="edge">
<title>Node1&#45;&gt;Node6</title>
<path fill="none" stroke="midnightblue" d="M179.07,-100.34C190.02,-101.8 201.05,-103.28 211.58,-104.69"/>
<polygon fill="midnightblue" stroke="midnightblue" points="211.11,-108.16 221.49,-106.01 212.04,-101.22 211.11,-108.16"/>
</g>
<!-- Node7 -->
<g id="node7" class="node">
<title>Node7</title>
<g id="a_node7"><a xlink:href="namespacextb__disp__dftd3.html#a82e2048362c5fee97120ce5bcdd229e9" target="_top" xlink:title="calculate atomic dispersion coefficients and their derivatives w.r.t.">
<polygon fill="white" stroke="black" points="223.5,-49.5 223.5,-79.5 333.5,-79.5 333.5,-49.5 223.5,-49.5"/>
<text text-anchor="start" x="231.5" y="-67.5" font-family="Helvetica,sans-Serif" font-size="10.00">xtb_disp_dftd3::get</text>
<text text-anchor="middle" x="278.5" y="-56.5" font-family="Helvetica,sans-Serif" font-size="10.00">_atomic_c6</text>
</a>
</g>
</g>
<!-- Node1&#45;&gt;Node7 -->
<g id="edge6" class="edge">
<title>Node1&#45;&gt;Node7</title>
<path fill="none" stroke="midnightblue" d="M179.07,-77.13C190.64,-75.65 202.3,-74.15 213.36,-72.73"/>
<polygon fill="midnightblue" stroke="midnightblue" points="213.84,-76.2 223.32,-71.45 212.95,-69.26 213.84,-76.2"/>
</g>
<!-- Node9 -->
<g id="node9" class="node">
<title>Node9</title>
<g id="a_node9"><a xlink:href="namespacextb__disp__dftd3.html#af51fb8c764abfd81456418dc9c5f8467" target="_top" xlink:title="Calculate the weights of the reference system and the derivatives w.r.t.">
<polygon fill="white" stroke="black" points="215,-0.5 215,-30.5 342,-30.5 342,-0.5 215,-0.5"/>
<text text-anchor="start" x="223" y="-18.5" font-family="Helvetica,sans-Serif" font-size="10.00">xtb_disp_dftd3::weight</text>
<text text-anchor="middle" x="278.5" y="-7.5" font-family="Helvetica,sans-Serif" font-size="10.00">_references</text>
</a>
</g>
</g>
<!-- Node1&#45;&gt;Node9 -->
<g id="edge8" class="edge">
<title>Node1&#45;&gt;Node9</title>
<path fill="none" stroke="midnightblue" d="M128.61,-73.41C153.24,-63.68 185.99,-50.78 215,-39.5 219.44,-37.77 224.06,-35.99 228.68,-34.2"/>
<polygon fill="midnightblue" stroke="midnightblue" points="230.07,-37.42 238.14,-30.56 227.55,-30.89 230.07,-37.42"/>
</g>
<!-- Node3 -->
<g id="node3" class="node">
<title>Node3</title>
<g id="a_node3"><a xlink:href="namespacextb__disp__dftd3.html#aa6bd9f30deb7b8f6569b94cdf1269364" target="_top" xlink:title=" ">
<polygon fill="white" stroke="black" points="390,-196.5 390,-226.5 509,-226.5 509,-196.5 390,-196.5"/>
<text text-anchor="start" x="398" y="-214.5" font-family="Helvetica,sans-Serif" font-size="10.00">xtb_disp_dftd3::deriv</text>
<text text-anchor="middle" x="449.5" y="-203.5" font-family="Helvetica,sans-Serif" font-size="10.00">_atm_triple</text>
</a>
</g>
</g>
<!-- Node2&#45;&gt;Node3 -->
<g id="edge2" class="edge">
<title>Node2&#45;&gt;Node3</title>
<path fill="none" stroke="midnightblue" d="M331.58,-177.6C349.1,-182.68 368.79,-188.39 386.96,-193.66"/>
<polygon fill="midnightblue" stroke="midnightblue" points="386.01,-197.03 396.59,-196.45 387.96,-190.3 386.01,-197.03"/>
</g>
<!-- Node4 -->
<g id="node4" class="node">
<title>Node4</title>
<g id="a_node4"><a xlink:href="namespacextb__disp__dftd3param.html#a97051cffb1b382008fca261780378140" target="_top" xlink:title=" ">
<polygon fill="white" stroke="black" points="390,-147.5 390,-177.5 509,-177.5 509,-147.5 390,-147.5"/>
<text text-anchor="start" x="398" y="-165.5" font-family="Helvetica,sans-Serif" font-size="10.00">xtb_disp_dftd3param</text>
<text text-anchor="middle" x="449.5" y="-154.5" font-family="Helvetica,sans-Serif" font-size="10.00">::get_vdwrad</text>
</a>
</g>
</g>
<!-- Node2&#45;&gt;Node4 -->
<g id="edge3" class="edge">
<title>Node2&#45;&gt;Node4</title>
<path fill="none" stroke="midnightblue" d="M335.31,-162.5C349.52,-162.5 364.97,-162.5 379.75,-162.5"/>
<polygon fill="midnightblue" stroke="midnightblue" points="379.85,-166 389.85,-162.5 379.85,-159 379.85,-166"/>
</g>
<!-- Node5 -->
<g id="node5" class="node">
<title>Node5</title>
<g id="a_node5"><a xlink:href="namespacextb__disp__dftd3.html#a7381f4fa56c9f467b80c163573c7f79b" target="_top" xlink:title="Logic exercise to distribute a triple energy to atomwise energies.">
<polygon fill="white" stroke="black" points="390,-98.5 390,-128.5 509,-128.5 509,-98.5 390,-98.5"/>
<text text-anchor="start" x="398" y="-116.5" font-family="Helvetica,sans-Serif" font-size="10.00">xtb_disp_dftd3::triple</text>
<text text-anchor="middle" x="449.5" y="-105.5" font-family="Helvetica,sans-Serif" font-size="10.00">_scale</text>
</a>
</g>
</g>
<!-- Node2&#45;&gt;Node5 -->
<g id="edge4" class="edge">
<title>Node2&#45;&gt;Node5</title>
<path fill="none" stroke="midnightblue" d="M331.58,-147.4C349.1,-142.32 368.79,-136.61 386.96,-131.34"/>
<polygon fill="midnightblue" stroke="midnightblue" points="387.96,-134.7 396.59,-128.55 386.01,-127.97 387.96,-134.7"/>
</g>
<!-- Node8 -->
<g id="node8" class="node">
<title>Node8</title>
<g id="a_node8"><a xlink:href="namespacextb__disp__dftd3param.html#a31d14f3c121af72cdf7a1735b63e598e" target="_top" xlink:title=" ">
<polygon fill="white" stroke="black" points="390,-49.5 390,-79.5 509,-79.5 509,-49.5 390,-49.5"/>
<text text-anchor="start" x="398" y="-67.5" font-family="Helvetica,sans-Serif" font-size="10.00">xtb_disp_dftd3param</text>
<text text-anchor="middle" x="449.5" y="-56.5" font-family="Helvetica,sans-Serif" font-size="10.00">::get_c6</text>
</a>
</g>
</g>
<!-- Node7&#45;&gt;Node8 -->
<g id="edge7" class="edge">
<title>Node7&#45;&gt;Node8</title>
<path fill="none" stroke="midnightblue" d="M333.9,-64.5C348.41,-64.5 364.27,-64.5 379.45,-64.5"/>
<polygon fill="midnightblue" stroke="midnightblue" points="379.82,-68 389.82,-64.5 379.82,-61 379.82,-68"/>
</g>
<!-- Node10 -->
<g id="node10" class="node">
<title>Node10</title>
<g id="a_node10"><a xlink:href="namespacextb__disp__dftd3.html#a46f9a43b2f4cb1ded589a521aea7c20a" target="_top" xlink:title=" ">
<polygon fill="white" stroke="black" points="378,-6 378,-25 521,-25 521,-6 378,-6"/>
<text text-anchor="middle" x="449.5" y="-13" font-family="Helvetica,sans-Serif" font-size="10.00">xtb_disp_dftd3::weight_cn</text>
</a>
</g>
</g>
<!-- Node9&#45;&gt;Node10 -->
<g id="edge9" class="edge">
<title>Node9&#45;&gt;Node10</title>
<path fill="none" stroke="midnightblue" d="M342.43,-15.5C350.64,-15.5 359.13,-15.5 367.58,-15.5"/>
<polygon fill="midnightblue" stroke="midnightblue" points="367.84,-19 377.84,-15.5 367.84,-12 367.84,-19"/>
</g>
</g>
</svg>
        <g id="navigator" transform="translate(0 0)" fill="#404254">
                <rect fill="#f2f5e9" fill-opacity="0.5" stroke="#606060" stroke-width=".5" x="0" y="0" width="60" height="60"/>
                <use id="zoomplus" xlink:href="#zoomPlus" x="17" y="9" onmousedown="handleZoom(evt,'in')"/>
                <use id="zoomminus" xlink:href="#zoomMin" x="42" y="9" onmousedown="handleZoom(evt,'out')"/>
                <use id="reset" xlink:href="#resetDef" x="30" y="36" onmousedown="handleReset()"/>
                <g id="arrowUp" xlink:href="#dirArrow" transform="translate(30 24)" onmousedown="handlePan(0,-1)">
                  <use xlink:href="#rim" fill="#404040">
                        <set attributeName="fill" to="#808080" begin="arrowUp.mouseover" end="arrowUp.mouseout"/>
                  </use>
                  <path fill="none" stroke="white" stroke-width="1.5" d="M0,-3.0v7 M-2.5,-0.5L0,-3.0L2.5,-0.5"/>
                </g>
                <g id="arrowRight" xlink:href="#dirArrow" transform="rotate(90) translate(36 -43)" onmousedown="handlePan(1,0)">
                  <use xlink:href="#rim" fill="#404040">
                        <set attributeName="fill" to="#808080" begin="arrowRight.mouseover" end="arrowRight.mouseout"/>
                  </use>
                  <path fill="none" stroke="white" stroke-width="1.5" d="M0,-3.0v7 M-2.5,-0.5L0,-3.0L2.5,-0.5"/>
                </g>
                <g id="arrowDown" xlink:href="#dirArrow" transform="rotate(180) translate(-30 -48)" onmousedown="handlePan(0,1)">
                  <use xlink:href="#rim" fill="#404040">
                        <set attributeName="fill" to="#808080" begin="arrowDown.mouseover" end="arrowDown.mouseout"/>
                  </use>
                  <path fill="none" stroke="white" stroke-width="1.5" d="M0,-3.0v7 M-2.5,-0.5L0,-3.0L2.5,-0.5"/>
                </g>
                <g id="arrowLeft" xlink:href="#dirArrow" transform="rotate(270) translate(-36 17)" onmousedown="handlePan(-1,0)">
                  <use xlink:href="#rim" fill="#404040">
                        <set attributeName="fill" to="#808080" begin="arrowLeft.mouseover" end="arrowLeft.mouseout"/>
                  </use>
                  <path fill="none" stroke="white" stroke-width="1.5" d="M0,-3.0v7 M-2.5,-0.5L0,-3.0L2.5,-0.5"/>
                </g>
        </g>
        <svg viewBox="0 0 15 15" width="100%" height="30px" preserveAspectRatio="xMaxYMin meet">
         <g id="arrow_out" transform="scale(0.3 0.3)">
          <a xlink:href="interfacextb__disp__dftd3_1_1d3__gradient_a5df3d1c13d5dbd2ac47364ff69095a53_cgraph_org.svg" target="_base">
           <rect id="button" ry="5" rx="5" y="6" x="6" height="38" width="38"
                fill="#f2f5e9" fill-opacity="0.5" stroke="#606060" stroke-width="1.0"/>
           <path id="arrow"
             d="M 11.500037,31.436501 C 11.940474,20.09759 22.043105,11.32322 32.158766,21.979434 L 37.068811,17.246167 C 37.068811,17.246167 37.088388,32 37.088388,32 L 22.160133,31.978069 C 22.160133,31.978069 26.997745,27.140456 26.997745,27.140456 C 18.528582,18.264221 13.291696,25.230495 11.500037,31.436501 z"
             style="fill:#404040;"/>
          </a>
         </g>
        </svg>
</svg>
