<?xml version="1.0" encoding="UTF-8" standalone="no"?>
<!DOCTYPE svg PUBLIC "-//W3C//DTD SVG 1.1//EN"
 "http://www.w3.org/Graphics/SVG/1.1/DTD/svg11.dtd">
<!-- Generated by graphviz version 2.46.1 (20210215.1649)
 -->
<!-- Title: xtb_coulomb_gaussian::init::initgaussiansmeared Pages: 1 -->
<svg width="858pt" height="194pt"
 viewBox="0.00 0.00 858.00 193.83" xmlns="http://www.w3.org/2000/svg" xmlns:xlink="http://www.w3.org/1999/xlink">
<g id="graph0" class="graph" transform="scale(1 1) rotate(0) translate(4 189.83)">
<title>xtb_coulomb_gaussian::init::initgaussiansmeared</title>
<polygon fill="white" stroke="transparent" points="-4,4 -4,-189.83 854,-189.83 854,4 -4,4"/>
<!-- Node1 -->
<g id="node1" class="node">
<title>Node1</title>
<g id="a_node1"><a xlink:title=" ">
<polygon fill="#bfbfbf" stroke="black" points="0,-43.33 0,-73.33 128,-73.33 128,-43.33 0,-43.33"/>
<text text-anchor="start" x="8" y="-61.33" font-family="Helvetica,sans-Serif" font-size="10.00">xtb_coulomb_gaussian</text>
<text text-anchor="middle" x="64" y="-50.33" font-family="Helvetica,sans-Serif" font-size="10.00">::init::initgaussiansmeared</text>
</a>
</g>
</g>
<!-- Node2 -->
<g id="node2" class="node">
<title>Node2</title>
<g id="a_node2"><a xlink:href="namespacextb__type__coulomb.html#ab46bfaf512989b21d86c72c76475f363" target="_top" xlink:title=" ">
<polygon fill="white" stroke="black" points="164,-67.83 164,-86.83 370,-86.83 370,-67.83 164,-67.83"/>
<text text-anchor="middle" x="267" y="-74.83" font-family="Helvetica,sans-Serif" font-size="10.00">xtb_type_coulomb::setupboundaryconditions</text>
</a>
</g>
</g>
<!-- Node1&#45;&gt;Node2 -->
<g id="edge1" class="edge">
<title>Node1&#45;&gt;Node2</title>
<path fill="none" stroke="midnightblue" d="M128.05,-64.29C136.75,-65.11 145.9,-65.97 155.17,-66.85"/>
<polygon fill="midnightblue" stroke="midnightblue" points="154.97,-70.35 165.25,-67.8 155.62,-63.38 154.97,-70.35"/>
</g>
<!-- Node11 -->
<g id="node11" class="node">
<title>Node11</title>
<g id="a_node11"><a xlink:href="namespacextb__type__coulomb.html#a43f594fb89f4adb31a5a59d40659ef50" target="_top" xlink:title=" ">
<polygon fill="white" stroke="black" points="183.5,-29.83 183.5,-48.83 350.5,-48.83 350.5,-29.83 183.5,-29.83"/>
<text text-anchor="middle" x="267" y="-36.83" font-family="Helvetica,sans-Serif" font-size="10.00">xtb_type_coulomb::setupindextable</text>
</a>
</g>
</g>
<!-- Node1&#45;&gt;Node11 -->
<g id="edge13" class="edge">
<title>Node1&#45;&gt;Node11</title>
<path fill="none" stroke="midnightblue" d="M128.05,-52.37C142.4,-51.01 157.95,-49.54 173.25,-48.09"/>
<polygon fill="midnightblue" stroke="midnightblue" points="173.63,-51.57 183.26,-47.15 172.97,-44.6 173.63,-51.57"/>
</g>
<!-- Node3 -->
<g id="node3" class="node">
<title>Node3</title>
<g id="a_node3"><a xlink:href="namespacextb__coulomb__ewald.html#af895b4c8ffcaa0ad96aa19ed8bb346f9" target="_top" xlink:title="Returns the longest reciprocal vector which gives a bigger contribution to.">
<polygon fill="white" stroke="black" points="418.5,-155.33 418.5,-185.33 525.5,-185.33 525.5,-155.33 418.5,-155.33"/>
<text text-anchor="start" x="426.5" y="-173.33" font-family="Helvetica,sans-Serif" font-size="10.00">xtb_coulomb_ewald::</text>
<text text-anchor="middle" x="472" y="-162.33" font-family="Helvetica,sans-Serif" font-size="10.00">getmaxg</text>
</a>
</g>
</g>
<!-- Node2&#45;&gt;Node3 -->
<g id="edge2" class="edge">
<title>Node2&#45;&gt;Node3</title>
<path fill="none" stroke="midnightblue" d="M285.57,-86.89C311.5,-100.84 361.76,-127.17 406,-146.33 410.08,-148.09 414.35,-149.85 418.65,-151.57"/>
<polygon fill="midnightblue" stroke="midnightblue" points="417.49,-154.87 428.08,-155.24 420.03,-148.35 417.49,-154.87"/>
</g>
<!-- Node5 -->
<g id="node5" class="node">
<title>Node5</title>
<g id="a_node5"><a xlink:href="namespacextb__coulomb__ewald.html#aa74d92ca86f81de2517bfff1bd22394b" target="_top" xlink:title="Returns the longest real space vector which gives a bigger contribution to.">
<polygon fill="white" stroke="black" points="587,-57.33 587,-87.33 694,-87.33 694,-57.33 587,-57.33"/>
<text text-anchor="start" x="595" y="-75.33" font-family="Helvetica,sans-Serif" font-size="10.00">xtb_coulomb_ewald::</text>
<text text-anchor="middle" x="640.5" y="-64.33" font-family="Helvetica,sans-Serif" font-size="10.00">getmaxr</text>
</a>
</g>
</g>
<!-- Node2&#45;&gt;Node5 -->
<g id="edge4" class="edge">
<title>Node2&#45;&gt;Node5</title>
<path fill="none" stroke="midnightblue" d="M370.01,-75.95C436.13,-75.06 520.16,-73.93 576.66,-73.17"/>
<polygon fill="midnightblue" stroke="midnightblue" points="576.93,-76.67 586.88,-73.03 576.84,-69.67 576.93,-76.67"/>
</g>
<!-- Node7 -->
<g id="node7" class="node">
<title>Node7</title>
<g id="a_node7"><a xlink:href="namespacextb__coulomb__ewald.html#a0578c81cbd7c7bcaf949e8a916d4e7e6" target="_top" xlink:title="Get optimal alpha&#45;parameter for the Ewald summation by finding alpha, where.">
<polygon fill="white" stroke="black" points="418.5,-106.33 418.5,-136.33 525.5,-136.33 525.5,-106.33 418.5,-106.33"/>
<text text-anchor="start" x="426.5" y="-124.33" font-family="Helvetica,sans-Serif" font-size="10.00">xtb_coulomb_ewald::</text>
<text text-anchor="middle" x="472" y="-113.33" font-family="Helvetica,sans-Serif" font-size="10.00">getoptimalalpha</text>
</a>
</g>
</g>
<!-- Node2&#45;&gt;Node7 -->
<g id="edge6" class="edge">
<title>Node2&#45;&gt;Node7</title>
<path fill="none" stroke="midnightblue" d="M312.05,-86.87C340.25,-92.99 377.27,-101.01 408.49,-107.78"/>
<polygon fill="midnightblue" stroke="midnightblue" points="407.89,-111.23 418.4,-109.93 409.37,-104.39 407.89,-111.23"/>
</g>
<!-- Node9 -->
<g id="node9" class="node">
<title>Node9</title>
<g id="a_node9"><a xlink:href="namespacextb__mctc__math.html#a228581ab05d5a9183f2cfc31da44da10" target="_top" xlink:title="Determinat of 3×3 matrix.">
<polygon fill="white" stroke="black" points="574,-5.83 574,-24.83 707,-24.83 707,-5.83 574,-5.83"/>
<text text-anchor="middle" x="640.5" y="-12.83" font-family="Helvetica,sans-Serif" font-size="10.00">xtb_mctc_math::matdet3x3</text>
</a>
</g>
</g>
<!-- Node2&#45;&gt;Node9 -->
<g id="edge10" class="edge">
<title>Node2&#45;&gt;Node9</title>
<path fill="none" stroke="midnightblue" d="M347.14,-67.78C355.11,-65.3 362.88,-62.2 370,-58.33 390.44,-47.21 384.73,-29.75 406,-20.33 461.38,4.2 531.63,1.81 580.54,-4.44"/>
<polygon fill="midnightblue" stroke="midnightblue" points="580.26,-7.94 590.64,-5.83 581.21,-1 580.26,-7.94"/>
</g>
<!-- Node10 -->
<g id="node10" class="node">
<title>Node10</title>
<g id="a_node10"><a xlink:href="namespacextb__mctc__math.html#aeaf5bd07a903a53cdbe7b49e9b3d9d63" target="_top" xlink:title="Performs a direct calculation of the inverse of a 3×3 matrix.">
<polygon fill="white" stroke="black" points="406,-29.83 406,-48.83 538,-48.83 538,-29.83 406,-29.83"/>
<text text-anchor="middle" x="472" y="-36.83" font-family="Helvetica,sans-Serif" font-size="10.00">xtb_mctc_math::matinv3x3</text>
</a>
</g>
</g>
<!-- Node2&#45;&gt;Node10 -->
<g id="edge11" class="edge">
<title>Node2&#45;&gt;Node10</title>
<path fill="none" stroke="midnightblue" d="M319.11,-67.82C335.38,-64.79 353.45,-61.43 370,-58.33 383.07,-55.88 397.08,-53.25 410.39,-50.75"/>
<polygon fill="midnightblue" stroke="midnightblue" points="411.22,-54.15 420.4,-48.86 409.92,-47.27 411.22,-54.15"/>
</g>
<!-- Node4 -->
<g id="node4" class="node">
<title>Node4</title>
<g id="a_node4"><a xlink:href="namespacextb__coulomb__ewald.html#a01d5c6447f010a9f1064df29bfe5615c" target="_top" xlink:title="Returns the max. value of a term in the reciprocal space part of the Ewald.">
<polygon fill="white" stroke="black" points="587,-155.33 587,-185.33 694,-185.33 694,-155.33 587,-155.33"/>
<text text-anchor="start" x="595" y="-173.33" font-family="Helvetica,sans-Serif" font-size="10.00">xtb_coulomb_ewald::</text>
<text text-anchor="middle" x="640.5" y="-162.33" font-family="Helvetica,sans-Serif" font-size="10.00">getgtermpbc3d</text>
</a>
</g>
</g>
<!-- Node3&#45;&gt;Node4 -->
<g id="edge3" class="edge">
<title>Node3&#45;&gt;Node4</title>
<path fill="none" stroke="midnightblue" d="M525.68,-170.33C541.86,-170.33 559.82,-170.33 576.6,-170.33"/>
<polygon fill="midnightblue" stroke="midnightblue" points="576.88,-173.83 586.88,-170.33 576.88,-166.83 576.88,-173.83"/>
</g>
<!-- Node6 -->
<g id="node6" class="node">
<title>Node6</title>
<g id="a_node6"><a xlink:href="namespacextb__coulomb__ewald.html#a85f630579876f0888919a3440f359ea6" target="_top" xlink:title="Returns the max. value of a term in the real space part of the Ewald summation.">
<polygon fill="white" stroke="black" points="743,-81.33 743,-111.33 850,-111.33 850,-81.33 743,-81.33"/>
<text text-anchor="start" x="751" y="-99.33" font-family="Helvetica,sans-Serif" font-size="10.00">xtb_coulomb_ewald::</text>
<text text-anchor="middle" x="796.5" y="-88.33" font-family="Helvetica,sans-Serif" font-size="10.00">getrterm</text>
</a>
</g>
</g>
<!-- Node5&#45;&gt;Node6 -->
<g id="edge5" class="edge">
<title>Node5&#45;&gt;Node6</title>
<path fill="none" stroke="midnightblue" d="M694.07,-80.52C706.51,-82.46 719.91,-84.55 732.75,-86.55"/>
<polygon fill="midnightblue" stroke="midnightblue" points="732.49,-90.05 742.91,-88.13 733.57,-83.13 732.49,-90.05"/>
</g>
<!-- Node7&#45;&gt;Node4 -->
<g id="edge9" class="edge">
<title>Node7&#45;&gt;Node4</title>
<path fill="none" stroke="midnightblue" d="M524.31,-136.43C541.49,-141.48 560.8,-147.16 578.63,-152.41"/>
<polygon fill="midnightblue" stroke="midnightblue" points="577.77,-155.81 588.36,-155.27 579.75,-149.09 577.77,-155.81"/>
</g>
<!-- Node8 -->
<g id="node8" class="node">
<title>Node8</title>
<g id="a_node8"><a xlink:href="namespacextb__coulomb__ewald.html#a979ba98f5270b5ea7f1c4ec4740f85f1" target="_top" xlink:title="Returns the difference in the decrease of the real and reciprocal parts of the.">
<polygon fill="white" stroke="black" points="587,-106.33 587,-136.33 694,-136.33 694,-106.33 587,-106.33"/>
<text text-anchor="start" x="595" y="-124.33" font-family="Helvetica,sans-Serif" font-size="10.00">xtb_coulomb_ewald::</text>
<text text-anchor="middle" x="640.5" y="-113.33" font-family="Helvetica,sans-Serif" font-size="10.00">diffrecreal</text>
</a>
</g>
</g>
<!-- Node7&#45;&gt;Node8 -->
<g id="edge7" class="edge">
<title>Node7&#45;&gt;Node8</title>
<path fill="none" stroke="midnightblue" d="M525.68,-121.33C541.86,-121.33 559.82,-121.33 576.6,-121.33"/>
<polygon fill="midnightblue" stroke="midnightblue" points="576.88,-124.83 586.88,-121.33 576.88,-117.83 576.88,-124.83"/>
</g>
<!-- Node8&#45;&gt;Node6 -->
<g id="edge8" class="edge">
<title>Node8&#45;&gt;Node6</title>
<path fill="none" stroke="midnightblue" d="M694.07,-112.79C706.51,-110.77 719.91,-108.6 732.75,-106.51"/>
<polygon fill="midnightblue" stroke="midnightblue" points="733.6,-109.92 742.91,-104.86 732.48,-103.01 733.6,-109.92"/>
</g>
<!-- Node10&#45;&gt;Node9 -->
<g id="edge12" class="edge">
<title>Node10&#45;&gt;Node9</title>
<path fill="none" stroke="midnightblue" d="M538.33,-29.91C546.71,-28.7 555.35,-27.46 563.87,-26.23"/>
<polygon fill="midnightblue" stroke="midnightblue" points="564.42,-29.69 573.81,-24.79 563.42,-22.76 564.42,-29.69"/>
</g>
</g>
</svg>
