<?xml version="1.0" encoding="UTF-8" standalone="no"?>
<!DOCTYPE svg PUBLIC "-//W3C//DTD SVG 1.1//EN"
 "http://www.w3.org/Graphics/SVG/1.1/DTD/svg11.dtd">
<!-- Generated by graphviz version 2.43.0 (0)
 -->
<!-- Title: xtb_solv_model::init::initsolvmodel Pages: 1 -->
<svg width="580pt" height="180pt"
 viewBox="0.00 0.00 580.00 180.00" xmlns="http://www.w3.org/2000/svg" xmlns:xlink="http://www.w3.org/1999/xlink">
<g id="graph0" class="graph" transform="scale(1 1) rotate(0) translate(4 176)">
<title>xtb_solv_model::init::initsolvmodel</title>
<polygon fill="white" stroke="transparent" points="-4,4 -4,-176 576,-176 576,4 -4,4"/>
<!-- Node1 -->
<g id="node1" class="node">
<title>Node1</title>
<g id="a_node1"><a xlink:title="Initialize solvation model from input.">
<polygon fill="#bfbfbf" stroke="black" points="0,-71 0,-101 116,-101 116,-71 0,-71"/>
<text text-anchor="start" x="8" y="-89" font-family="Helvetica,sans-Serif" font-size="10.00">xtb_solv_model::init</text>
<text text-anchor="middle" x="58" y="-78" font-family="Helvetica,sans-Serif" font-size="10.00">::initsolvmodel</text>
</a>
</g>
</g>
<!-- Node2 -->
<g id="node2" class="node">
<title>Node2</title>
<g id="a_node2"><a xlink:href="namespacextb__solv__model.html#a5efeba0122d10cb544ecfd5655e878a9" target="_top" xlink:title="Try to find a suitable parameter file for parsing.">
<polygon fill="white" stroke="black" points="177,-152.5 177,-171.5 339,-171.5 339,-152.5 177,-152.5"/>
<text text-anchor="middle" x="258" y="-159.5" font-family="Helvetica,sans-Serif" font-size="10.00">xtb_solv_model::getparamfile</text>
</a>
</g>
</g>
<!-- Node1&#45;&gt;Node2 -->
<g id="edge1" class="edge">
<title>Node1&#45;&gt;Node2</title>
<path fill="none" stroke="midnightblue" d="M78.9,-101.24C97,-114.33 124.93,-132.67 152,-143 159.18,-145.74 166.79,-148.09 174.5,-150.11"/>
<polygon fill="midnightblue" stroke="midnightblue" points="173.76,-153.53 184.3,-152.48 175.41,-146.72 173.76,-153.53"/>
</g>
<!-- Node3 -->
<g id="node3" class="node">
<title>Node3</title>
<g id="a_node3"><a xlink:href="namespacextb__solv__state.html#a80bdf23cba49dac29ba2b35b97876b9a" target="_top" xlink:title=" ">
<polygon fill="white" stroke="black" points="180.5,-114.5 180.5,-133.5 335.5,-133.5 335.5,-114.5 180.5,-114.5"/>
<text text-anchor="middle" x="258" y="-121.5" font-family="Helvetica,sans-Serif" font-size="10.00">xtb_solv_state::getstateshift</text>
</a>
</g>
</g>
<!-- Node1&#45;&gt;Node3 -->
<g id="edge2" class="edge">
<title>Node1&#45;&gt;Node3</title>
<path fill="none" stroke="midnightblue" d="M116.01,-97.86C127.9,-100.27 140.35,-102.76 152,-105 165.19,-107.54 179.33,-110.17 192.83,-112.63"/>
<polygon fill="midnightblue" stroke="midnightblue" points="192.54,-116.13 203,-114.47 193.79,-109.24 192.54,-116.13"/>
</g>
<!-- Node4 -->
<g id="node4" class="node">
<title>Node4</title>
<g id="a_node4"><a xlink:href="namespacextb__solv__model.html#ad12159e8fbc4ee0b16646feae1616d90" target="_top" xlink:title="Load internal parameters, if no parameter file is present.">
<polygon fill="white" stroke="black" points="163,-76.5 163,-95.5 353,-95.5 353,-76.5 163,-76.5"/>
<text text-anchor="middle" x="258" y="-83.5" font-family="Helvetica,sans-Serif" font-size="10.00">xtb_solv_model::loadinternalparam</text>
</a>
</g>
</g>
<!-- Node1&#45;&gt;Node4 -->
<g id="edge3" class="edge">
<title>Node1&#45;&gt;Node4</title>
<path fill="none" stroke="midnightblue" d="M116,-86C127.54,-86 140.02,-86 152.61,-86"/>
<polygon fill="midnightblue" stroke="midnightblue" points="152.71,-89.5 162.71,-86 152.71,-82.5 152.71,-89.5"/>
</g>
<!-- Node6 -->
<g id="node6" class="node">
<title>Node6</title>
<g id="a_node6"><a xlink:href="namespacextb__solv__model.html#a7e62110f9788f21d821e3761d2c912fb" target="_top" xlink:title="Try to find a normalized version of an input solvent name.">
<polygon fill="white" stroke="black" points="152,-0.5 152,-19.5 364,-19.5 364,-0.5 152,-0.5"/>
<text text-anchor="middle" x="258" y="-7.5" font-family="Helvetica,sans-Serif" font-size="10.00">xtb_solv_model::normalizesolventname</text>
</a>
</g>
</g>
<!-- Node1&#45;&gt;Node6 -->
<g id="edge5" class="edge">
<title>Node1&#45;&gt;Node6</title>
<path fill="none" stroke="midnightblue" d="M78.9,-70.76C97,-57.67 124.93,-39.33 152,-29 159.18,-26.26 166.79,-23.91 174.5,-21.89"/>
<polygon fill="midnightblue" stroke="midnightblue" points="175.41,-25.28 184.3,-19.52 173.76,-18.47 175.41,-25.28"/>
</g>
<!-- Node8 -->
<g id="node8" class="node">
<title>Node8</title>
<g id="a_node8"><a xlink:href="namespacextb__solv__model.html#ab689ca99e0b6905258798d94f485db80" target="_top" xlink:title=" ">
<polygon fill="white" stroke="black" points="174,-38.5 174,-57.5 342,-57.5 342,-38.5 174,-38.5"/>
<text text-anchor="middle" x="258" y="-45.5" font-family="Helvetica,sans-Serif" font-size="10.00">xtb_solv_model::readparamfile</text>
</a>
</g>
</g>
<!-- Node1&#45;&gt;Node8 -->
<g id="edge7" class="edge">
<title>Node1&#45;&gt;Node8</title>
<path fill="none" stroke="midnightblue" d="M116.01,-74.14C127.9,-71.73 140.35,-69.24 152,-67 165.19,-64.46 179.33,-61.83 192.83,-59.37"/>
<polygon fill="midnightblue" stroke="midnightblue" points="193.79,-62.76 203,-57.53 192.54,-55.87 193.79,-62.76"/>
</g>
<!-- Node5 -->
<g id="node5" class="node">
<title>Node5</title>
<g id="a_node5"><a xlink:href="namespacextb__solv__model.html#a127baa81b58d50b21bf365713b172080" target="_top" xlink:title=" ">
<polygon fill="white" stroke="black" points="400,-57.5 400,-76.5 572,-76.5 572,-57.5 400,-57.5"/>
<text text-anchor="middle" x="486" y="-64.5" font-family="Helvetica,sans-Serif" font-size="10.00">xtb_solv_model::paramtomodel</text>
</a>
</g>
</g>
<!-- Node4&#45;&gt;Node5 -->
<g id="edge4" class="edge">
<title>Node4&#45;&gt;Node5</title>
<path fill="none" stroke="midnightblue" d="M353.21,-78.08C365.32,-77.06 377.73,-76.02 389.85,-75"/>
<polygon fill="midnightblue" stroke="midnightblue" points="390.29,-78.47 399.96,-74.15 389.7,-71.5 390.29,-78.47"/>
</g>
<!-- Node7 -->
<g id="node7" class="node">
<title>Node7</title>
<g id="a_node7"><a xlink:href="namespacextb__mctc__strings.html#ae9ebd6dfc568e607d6557a8762bf28b0" target="_top" xlink:title="convert string to lower case">
<polygon fill="white" stroke="black" points="408.5,-0.5 408.5,-19.5 563.5,-19.5 563.5,-0.5 408.5,-0.5"/>
<text text-anchor="middle" x="486" y="-7.5" font-family="Helvetica,sans-Serif" font-size="10.00">xtb_mctc_strings::lowercase</text>
</a>
</g>
</g>
<!-- Node6&#45;&gt;Node7 -->
<g id="edge6" class="edge">
<title>Node6&#45;&gt;Node7</title>
<path fill="none" stroke="midnightblue" d="M364.06,-10C375.45,-10 386.94,-10 398.07,-10"/>
<polygon fill="midnightblue" stroke="midnightblue" points="398.19,-13.5 408.19,-10 398.19,-6.5 398.19,-13.5"/>
</g>
<!-- Node8&#45;&gt;Node5 -->
<g id="edge8" class="edge">
<title>Node8&#45;&gt;Node5</title>
<path fill="none" stroke="midnightblue" d="M342.19,-54.99C357.57,-56.29 373.75,-57.65 389.47,-58.97"/>
<polygon fill="midnightblue" stroke="midnightblue" points="389.46,-62.48 399.71,-59.83 390.04,-55.5 389.46,-62.48"/>
</g>
</g>
</svg>
