<?xml version="1.0" encoding="UTF-8" standalone="no"?>
<!DOCTYPE svg PUBLIC "-//W3C//DTD SVG 1.1//EN"
 "http://www.w3.org/Graphics/SVG/1.1/DTD/svg11.dtd">
<!-- Generated by graphviz version 2.46.0 (20210122.1329)
 -->
<!-- Title: vsub Pages: 1 -->
<svg width="755pt" height="163pt"
 viewBox="0.00 0.00 755.00 162.50" xmlns="http://www.w3.org/2000/svg" xmlns:xlink="http://www.w3.org/1999/xlink">
<g id="graph0" class="graph" transform="scale(1 1) rotate(0) translate(4 158.5)">
<title>vsub</title>
<polygon fill="white" stroke="transparent" points="-4,4 -4,-158.5 751,-158.5 751,4 -4,4"/>
<!-- Node1 -->
<g id="node1" class="node">
<title>Node1</title>
<g id="a_node1"><a xlink:title=" ">
<polygon fill="#bfbfbf" stroke="black" points="709,-94 709,-113 747,-113 747,-94 709,-94"/>
<text text-anchor="middle" x="728" y="-101" font-family="Helvetica,sans-Serif" font-size="10.00">vsub</text>
</a>
</g>
</g>
<!-- Node2 -->
<g id="node2" class="node">
<title>Node2</title>
<g id="a_node2"><a xlink:href="namespacextb__gfnff__eg.html#afdd45ff3015127dd8ede0b1930fb4a6a" target="_top" xlink:title=" ">
<polygon fill="white" stroke="black" points="559,-135 559,-154 664,-154 664,-135 559,-135"/>
<text text-anchor="middle" x="611.5" y="-142" font-family="Helvetica,sans-Serif" font-size="10.00">xtb_gfnff_eg::egbend</text>
</a>
</g>
</g>
<!-- Node1&#45;&gt;Node2 -->
<g id="edge1" class="edge">
<title>Node1&#45;&gt;Node2</title>
<path fill="none" stroke="midnightblue" d="M699.33,-113.41C681.03,-119.96 657.16,-128.51 639.08,-134.98"/>
<polygon fill="midnightblue" stroke="midnightblue" points="700.62,-116.66 708.86,-110 698.26,-110.07 700.62,-116.66"/>
</g>
<!-- Node7 -->
<g id="node7" class="node">
<title>Node7</title>
<g id="a_node7"><a xlink:href="namespacextb__gfnff__eg.html#ac4893e77f20471a0b00aac264b5090b3" target="_top" xlink:title=" ">
<polygon fill="white" stroke="black" points="550,-94 550,-113 673,-113 673,-94 550,-94"/>
<text text-anchor="middle" x="611.5" y="-101" font-family="Helvetica,sans-Serif" font-size="10.00">xtb_gfnff_eg::egbend_nci</text>
</a>
</g>
</g>
<!-- Node1&#45;&gt;Node7 -->
<g id="edge6" class="edge">
<title>Node1&#45;&gt;Node7</title>
<path fill="none" stroke="midnightblue" d="M698.85,-103.5C691,-103.5 682.16,-103.5 673.2,-103.5"/>
<polygon fill="midnightblue" stroke="midnightblue" points="698.86,-107 708.86,-103.5 698.86,-100 698.86,-107"/>
</g>
<!-- Node9 -->
<g id="node9" class="node">
<title>Node9</title>
<g id="a_node9"><a xlink:href="namespacextb__gfnff__eg.html#a0772d7bbd5499d6ba3a2ec3ed5dc18f6" target="_top" xlink:title=" ">
<polygon fill="white" stroke="black" points="559,-44.5 559,-74.5 664,-74.5 664,-44.5 559,-44.5"/>
<text text-anchor="start" x="567" y="-62.5" font-family="Helvetica,sans-Serif" font-size="10.00">xtb_gfnff_eg::egbend</text>
<text text-anchor="middle" x="611.5" y="-51.5" font-family="Helvetica,sans-Serif" font-size="10.00">_nci_mul</text>
</a>
</g>
</g>
<!-- Node1&#45;&gt;Node9 -->
<g id="edge8" class="edge">
<title>Node1&#45;&gt;Node9</title>
<path fill="none" stroke="midnightblue" d="M699.18,-92.81C684.98,-87.35 667.46,-80.62 651.9,-74.64"/>
<polygon fill="midnightblue" stroke="midnightblue" points="698.27,-96.21 708.86,-96.53 700.78,-89.67 698.27,-96.21"/>
</g>
<!-- Node3 -->
<g id="node3" class="node">
<title>Node3</title>
<g id="a_node3"><a xlink:href="namespacextb__gfnff__eg.html#a3c6317a91da8d6eb6e333fdb8ee1f3d9" target="_top" xlink:title=" ">
<polygon fill="white" stroke="black" points="241,-94 241,-113 349,-113 349,-94 241,-94"/>
<text text-anchor="middle" x="295" y="-101" font-family="Helvetica,sans-Serif" font-size="10.00">xtb_gfnff_eg::gfnff_eg</text>
</a>
</g>
</g>
<!-- Node2&#45;&gt;Node3 -->
<g id="edge2" class="edge">
<title>Node2&#45;&gt;Node3</title>
<path fill="none" stroke="midnightblue" d="M548.62,-143.49C503.08,-141.92 439.82,-138.04 385,-128.5 364.44,-124.92 341.82,-118.53 324.52,-113.11"/>
<polygon fill="midnightblue" stroke="midnightblue" points="548.54,-146.98 558.64,-143.8 548.76,-139.99 548.54,-146.98"/>
</g>
<!-- Node4 -->
<g id="node4" class="node">
<title>Node4</title>
<g id="a_node4"><a xlink:href="namespacextb__gfnff__calculator.html#a8775e737196933e41e48728956ddf782" target="_top" xlink:title=" ">
<polygon fill="white" stroke="black" points="104,-110.5 104,-140.5 205,-140.5 205,-110.5 104,-110.5"/>
<text text-anchor="start" x="112" y="-128.5" font-family="Helvetica,sans-Serif" font-size="10.00">xtb_gfnff_calculator</text>
<text text-anchor="middle" x="154.5" y="-117.5" font-family="Helvetica,sans-Serif" font-size="10.00">::singlepoint</text>
</a>
</g>
</g>
<!-- Node3&#45;&gt;Node4 -->
<g id="edge3" class="edge">
<title>Node3&#45;&gt;Node4</title>
<path fill="none" stroke="midnightblue" d="M230.81,-113.54C222.19,-114.91 213.44,-116.3 205.1,-117.62"/>
<polygon fill="midnightblue" stroke="midnightblue" points="231.52,-116.97 240.85,-111.94 230.42,-110.06 231.52,-116.97"/>
</g>
<!-- Node5 -->
<g id="node5" class="node">
<title>Node5</title>
<g id="a_node5"><a xlink:href="gfnff_8f90.html#a3debb77ee35e9cf115d69ef59490c6c5" target="_top" xlink:title=" ">
<polygon fill="white" stroke="black" points="118,-72 118,-91 191,-91 191,-72 118,-72"/>
<text text-anchor="middle" x="154.5" y="-79" font-family="Helvetica,sans-Serif" font-size="10.00">test_gfnff_sp</text>
</a>
</g>
</g>
<!-- Node3&#45;&gt;Node5 -->
<g id="edge4" class="edge">
<title>Node3&#45;&gt;Node5</title>
<path fill="none" stroke="midnightblue" d="M230.59,-93.43C217.05,-91.28 203.21,-89.08 191.16,-87.16"/>
<polygon fill="midnightblue" stroke="midnightblue" points="230.42,-96.94 240.85,-95.06 231.52,-90.03 230.42,-96.94"/>
</g>
<!-- Node6 -->
<g id="node6" class="node">
<title>Node6</title>
<g id="a_node6"><a xlink:href="tests__peeq_8f90.html#a87ff5319e0d2e627a4f71d7df0d14891" target="_top" xlink:title=" ">
<polygon fill="white" stroke="black" points="0,-72 0,-91 68,-91 68,-72 0,-72"/>
<text text-anchor="middle" x="34" y="-79" font-family="Helvetica,sans-Serif" font-size="10.00">peeq_tester</text>
</a>
</g>
</g>
<!-- Node5&#45;&gt;Node6 -->
<g id="edge5" class="edge">
<title>Node5&#45;&gt;Node6</title>
<path fill="none" stroke="midnightblue" d="M107.63,-81.5C94.45,-81.5 80.34,-81.5 68.1,-81.5"/>
<polygon fill="midnightblue" stroke="midnightblue" points="107.95,-85 117.95,-81.5 107.95,-78 107.95,-85"/>
</g>
<!-- Node8 -->
<g id="node8" class="node">
<title>Node8</title>
<g id="a_node8"><a xlink:href="namespacextb__gfnff__eg.html#a249f6d9c62394b50a1f8cca4389819c3" target="_top" xlink:title=" ">
<polygon fill="white" stroke="black" points="395.5,-88.5 395.5,-118.5 503.5,-118.5 503.5,-88.5 395.5,-88.5"/>
<text text-anchor="start" x="403.5" y="-106.5" font-family="Helvetica,sans-Serif" font-size="10.00">xtb_gfnff_eg::abhgfnff</text>
<text text-anchor="middle" x="449.5" y="-95.5" font-family="Helvetica,sans-Serif" font-size="10.00">_eg3_add</text>
</a>
</g>
</g>
<!-- Node7&#45;&gt;Node8 -->
<g id="edge7" class="edge">
<title>Node7&#45;&gt;Node8</title>
<path fill="none" stroke="midnightblue" d="M539.53,-103.5C527.49,-103.5 515.17,-103.5 503.69,-103.5"/>
<polygon fill="midnightblue" stroke="midnightblue" points="539.55,-107 549.55,-103.5 539.55,-100 539.55,-107"/>
</g>
<!-- Node10 -->
<g id="node10" class="node">
<title>Node10</title>
<g id="a_node10"><a xlink:href="namespacextb__gfnff__eg.html#ac21efbb550b6edae8c66215658f3e721" target="_top" xlink:title=" ">
<polygon fill="white" stroke="black" points="385,-50 385,-69 514,-69 514,-50 385,-50"/>
<text text-anchor="middle" x="449.5" y="-57" font-family="Helvetica,sans-Serif" font-size="10.00">xtb_gfnff_eg::abhgfnff_eg3</text>
</a>
</g>
</g>
<!-- Node9&#45;&gt;Node10 -->
<g id="edge9" class="edge">
<title>Node9&#45;&gt;Node10</title>
<path fill="none" stroke="midnightblue" d="M548.77,-59.5C537.46,-59.5 525.62,-59.5 514.25,-59.5"/>
<polygon fill="midnightblue" stroke="midnightblue" points="548.99,-63 558.99,-59.5 548.99,-56 548.99,-63"/>
</g>
<!-- Node11 -->
<g id="node11" class="node">
<title>Node11</title>
<g id="a_node11"><a xlink:href="namespacextb__gfnff__eg.html#a96f44d5568fa1a8f5911e6c4534b33a1" target="_top" xlink:title=" ">
<polygon fill="white" stroke="black" points="395.5,-0.5 395.5,-30.5 503.5,-30.5 503.5,-0.5 395.5,-0.5"/>
<text text-anchor="start" x="403.5" y="-18.5" font-family="Helvetica,sans-Serif" font-size="10.00">xtb_gfnff_eg::abhgfnff</text>
<text text-anchor="middle" x="449.5" y="-7.5" font-family="Helvetica,sans-Serif" font-size="10.00">_eg3_mul</text>
</a>
</g>
</g>
<!-- Node9&#45;&gt;Node11 -->
<g id="edge11" class="edge">
<title>Node9&#45;&gt;Node11</title>
<path fill="none" stroke="midnightblue" d="M549.26,-42.66C534.2,-38.52 518.2,-34.12 503.56,-30.09"/>
<polygon fill="midnightblue" stroke="midnightblue" points="548.42,-46.06 558.99,-45.34 550.28,-39.31 548.42,-46.06"/>
</g>
<!-- Node10&#45;&gt;Node3 -->
<g id="edge10" class="edge">
<title>Node10&#45;&gt;Node3</title>
<path fill="none" stroke="midnightblue" d="M405.73,-71.84C381.44,-78.85 351.49,-87.49 329.03,-93.97"/>
<polygon fill="midnightblue" stroke="midnightblue" points="406.77,-75.18 415.41,-69.05 404.83,-68.46 406.77,-75.18"/>
</g>
</g>
</svg>
