<?xml version="1.0" encoding="UTF-8" standalone="no"?>
<!DOCTYPE svg PUBLIC "-//W3C//DTD SVG 1.1//EN"
 "http://www.w3.org/Graphics/SVG/1.1/DTD/svg11.dtd">
<!-- Generated by graphviz version 2.43.0 (0)
 -->
<!-- Title: valijklff Pages: 1 -->
<svg width="837pt" height="459pt"
 viewBox="0.00 0.00 837.00 458.92" xmlns="http://www.w3.org/2000/svg" xmlns:xlink="http://www.w3.org/1999/xlink">
<g id="graph0" class="graph" transform="scale(1 1) rotate(0) translate(4 454.92)">
<title>valijklff</title>
<polygon fill="white" stroke="transparent" points="-4,4 -4,-454.92 833,-454.92 833,4 -4,4"/>
<!-- Node1 -->
<g id="node1" class="node">
<title>Node1</title>
<g id="a_node1"><a xlink:title=" ">
<polygon fill="#bfbfbf" stroke="black" points="776,-209.5 776,-228.5 829,-228.5 829,-209.5 776,-209.5"/>
<text text-anchor="middle" x="802.5" y="-216.5" font-family="Helvetica,sans-Serif" font-size="10.00">valijklff</text>
</a>
</g>
</g>
<!-- Node2 -->
<g id="node2" class="node">
<title>Node2</title>
<g id="a_node2"><a xlink:href="namespacextb__gfnff__eg.html#ac21efbb550b6edae8c66215658f3e721" target="_top" xlink:title=" ">
<polygon fill="white" stroke="black" points="418,-356.5 418,-375.5 565,-375.5 565,-356.5 418,-356.5"/>
<text text-anchor="middle" x="491.5" y="-363.5" font-family="Helvetica,sans-Serif" font-size="10.00">xtb_gfnff_eg::abhgfnff_eg3</text>
</a>
</g>
</g>
<!-- Node1&#45;&gt;Node2 -->
<g id="edge1" class="edge">
<title>Node1&#45;&gt;Node2</title>
<path fill="none" stroke="midnightblue" d="M801.37,-239.03C799.92,-276.82 790.72,-358.06 740,-394 668.37,-444.75 554.71,-397.41 510.72,-375.63"/>
<polygon fill="midnightblue" stroke="midnightblue" points="804.88,-238.88 801.61,-228.8 797.88,-238.71 804.88,-238.88"/>
</g>
<!-- Node3 -->
<g id="node3" class="node">
<title>Node3</title>
<g id="a_node3"><a xlink:href="namespacextb__gfnff__eg.html#a3c6317a91da8d6eb6e333fdb8ee1f3d9" target="_top" xlink:title=" ">
<polygon fill="white" stroke="black" points="259,-292.5 259,-311.5 382,-311.5 382,-292.5 259,-292.5"/>
<text text-anchor="middle" x="320.5" y="-299.5" font-family="Helvetica,sans-Serif" font-size="10.00">xtb_gfnff_eg::gfnff_eg</text>
</a>
</g>
</g>
<!-- Node1&#45;&gt;Node3 -->
<g id="edge24" class="edge">
<title>Node1&#45;&gt;Node3</title>
<path fill="none" stroke="midnightblue" d="M765.76,-224.73C725.64,-231.2 658.61,-242.11 601,-252 521.57,-265.64 429.59,-282.25 373.49,-292.48"/>
<polygon fill="midnightblue" stroke="midnightblue" points="766.53,-228.15 775.84,-223.11 765.42,-221.24 766.53,-228.15"/>
</g>
<!-- Node7 -->
<g id="node7" class="node">
<title>Node7</title>
<g id="a_node7"><a xlink:href="namespacextb__gfnff__eg.html#a249f6d9c62394b50a1f8cca4389819c3" target="_top" xlink:title=" ">
<polygon fill="white" stroke="black" points="429.5,-109 429.5,-139 553.5,-139 553.5,-109 429.5,-109"/>
<text text-anchor="start" x="437.5" y="-127" font-family="Helvetica,sans-Serif" font-size="10.00">xtb_gfnff_eg::abhgfnff</text>
<text text-anchor="middle" x="491.5" y="-116" font-family="Helvetica,sans-Serif" font-size="10.00">_eg3_add</text>
</a>
</g>
</g>
<!-- Node1&#45;&gt;Node7 -->
<g id="edge6" class="edge">
<title>Node1&#45;&gt;Node7</title>
<path fill="none" stroke="midnightblue" d="M766.27,-208.17C711.05,-191.19 603.98,-158.27 541.35,-139.02"/>
<polygon fill="midnightblue" stroke="midnightblue" points="765.36,-211.55 775.95,-211.14 767.42,-204.86 765.36,-211.55"/>
</g>
<!-- Node8 -->
<g id="node8" class="node">
<title>Node8</title>
<g id="a_node8"><a xlink:href="namespacextb__gfnff__eg.html#a96f44d5568fa1a8f5911e6c4534b33a1" target="_top" xlink:title=" ">
<polygon fill="white" stroke="black" points="429.5,-305 429.5,-335 553.5,-335 553.5,-305 429.5,-305"/>
<text text-anchor="start" x="437.5" y="-323" font-family="Helvetica,sans-Serif" font-size="10.00">xtb_gfnff_eg::abhgfnff</text>
<text text-anchor="middle" x="491.5" y="-312" font-family="Helvetica,sans-Serif" font-size="10.00">_eg3_mul</text>
</a>
</g>
</g>
<!-- Node1&#45;&gt;Node8 -->
<g id="edge7" class="edge">
<title>Node1&#45;&gt;Node8</title>
<path fill="none" stroke="midnightblue" d="M777.12,-233.71C766.07,-239.95 752.66,-246.94 740,-252 678.24,-276.69 604.37,-295.7 553.5,-307.27"/>
<polygon fill="midnightblue" stroke="midnightblue" points="778.88,-236.74 785.79,-228.7 775.38,-230.68 778.88,-236.74"/>
</g>
<!-- Node9 -->
<g id="node9" class="node">
<title>Node9</title>
<g id="a_node9"><a xlink:href="namespacextb__gfnff__eg.html#afdd45ff3015127dd8ede0b1930fb4a6a" target="_top" xlink:title=" ">
<polygon fill="white" stroke="black" points="432,-190.5 432,-209.5 551,-209.5 551,-190.5 432,-190.5"/>
<text text-anchor="middle" x="491.5" y="-197.5" font-family="Helvetica,sans-Serif" font-size="10.00">xtb_gfnff_eg::egbend</text>
</a>
</g>
</g>
<!-- Node1&#45;&gt;Node9 -->
<g id="edge8" class="edge">
<title>Node1&#45;&gt;Node9</title>
<path fill="none" stroke="midnightblue" d="M765.78,-216.8C713.24,-213.57 614.52,-207.5 551.23,-203.61"/>
<polygon fill="midnightblue" stroke="midnightblue" points="765.75,-220.31 775.95,-217.43 766.18,-213.32 765.75,-220.31"/>
</g>
<!-- Node10 -->
<g id="node10" class="node">
<title>Node10</title>
<g id="a_node10"><a xlink:href="namespacextb__gfnff__eg.html#ac4893e77f20471a0b00aac264b5090b3" target="_top" xlink:title=" ">
<polygon fill="white" stroke="black" points="601,-114.5 601,-133.5 740,-133.5 740,-114.5 601,-114.5"/>
<text text-anchor="middle" x="670.5" y="-121.5" font-family="Helvetica,sans-Serif" font-size="10.00">xtb_gfnff_eg::egbend_nci</text>
</a>
</g>
</g>
<!-- Node1&#45;&gt;Node10 -->
<g id="edge10" class="edge">
<title>Node1&#45;&gt;Node10</title>
<path fill="none" stroke="midnightblue" d="M789.84,-200.83C778.76,-184.89 760.74,-162.1 740,-148 730.93,-141.84 720.12,-137.09 709.79,-133.51"/>
<polygon fill="midnightblue" stroke="midnightblue" points="787.05,-202.96 795.53,-209.31 792.87,-199.06 787.05,-202.96"/>
</g>
<!-- Node11 -->
<g id="node11" class="node">
<title>Node11</title>
<g id="a_node11"><a xlink:href="namespacextb__gfnff__eg.html#a0772d7bbd5499d6ba3a2ec3ed5dc18f6" target="_top" xlink:title=" ">
<polygon fill="white" stroke="black" points="611,-354 611,-384 730,-384 730,-354 611,-354"/>
<text text-anchor="start" x="619" y="-372" font-family="Helvetica,sans-Serif" font-size="10.00">xtb_gfnff_eg::egbend</text>
<text text-anchor="middle" x="670.5" y="-361" font-family="Helvetica,sans-Serif" font-size="10.00">_nci_mul</text>
</a>
</g>
</g>
<!-- Node1&#45;&gt;Node11 -->
<g id="edge12" class="edge">
<title>Node1&#45;&gt;Node11</title>
<path fill="none" stroke="midnightblue" d="M796.92,-238.75C789.54,-266.31 772.45,-316.14 740,-345 736.14,-348.43 731.76,-351.38 727.12,-353.91"/>
<polygon fill="midnightblue" stroke="midnightblue" points="800.39,-239.29 799.43,-228.74 793.6,-237.59 800.39,-239.29"/>
</g>
<!-- Node12 -->
<g id="node12" class="node">
<title>Node12</title>
<g id="a_node12"><a xlink:href="namespacextb__gfnff__eg.html#a3f350a33f3f17790d4a231524334fd89" target="_top" xlink:title=" ">
<polygon fill="white" stroke="black" points="434.5,-417.5 434.5,-436.5 548.5,-436.5 548.5,-417.5 434.5,-417.5"/>
<text text-anchor="middle" x="491.5" y="-424.5" font-family="Helvetica,sans-Serif" font-size="10.00">xtb_gfnff_eg::egtors</text>
</a>
</g>
</g>
<!-- Node1&#45;&gt;Node12 -->
<g id="edge15" class="edge">
<title>Node1&#45;&gt;Node12</title>
<path fill="none" stroke="midnightblue" d="M802.26,-238.77C802.66,-280.12 796.99,-375.46 740,-419 676.63,-467.41 575.14,-449.87 524.05,-436.53"/>
<polygon fill="midnightblue" stroke="midnightblue" points="805.76,-238.55 802.03,-228.63 798.76,-238.71 805.76,-238.55"/>
</g>
<!-- Node13 -->
<g id="node13" class="node">
<title>Node13</title>
<g id="a_node13"><a xlink:href="namespacextb__gfnff__eg.html#a514108220880bca278c1800f27237a4a" target="_top" xlink:title=" ">
<polygon fill="white" stroke="black" points="603.5,-76.5 603.5,-95.5 737.5,-95.5 737.5,-76.5 603.5,-76.5"/>
<text text-anchor="middle" x="670.5" y="-83.5" font-family="Helvetica,sans-Serif" font-size="10.00">xtb_gfnff_eg::egtors_nci</text>
</a>
</g>
</g>
<!-- Node1&#45;&gt;Node13 -->
<g id="edge17" class="edge">
<title>Node1&#45;&gt;Node13</title>
<path fill="none" stroke="midnightblue" d="M796.28,-199.74C788.38,-174.24 770.92,-129.66 740,-105 735.18,-101.15 729.62,-98.08 723.81,-95.63"/>
<polygon fill="midnightblue" stroke="midnightblue" points="792.94,-200.76 799.1,-209.38 799.66,-198.8 792.94,-200.76"/>
</g>
<!-- Node14 -->
<g id="node14" class="node">
<title>Node14</title>
<g id="a_node14"><a xlink:href="namespacextb__gfnff__eg.html#aa69db4968d8352d5ef43c52c26ad5660" target="_top" xlink:title=" ">
<polygon fill="white" stroke="black" points="613.5,-305 613.5,-335 727.5,-335 727.5,-305 613.5,-305"/>
<text text-anchor="start" x="621.5" y="-323" font-family="Helvetica,sans-Serif" font-size="10.00">xtb_gfnff_eg::egtors</text>
<text text-anchor="middle" x="670.5" y="-312" font-family="Helvetica,sans-Serif" font-size="10.00">_nci_mul</text>
</a>
</g>
</g>
<!-- Node1&#45;&gt;Node14 -->
<g id="edge19" class="edge">
<title>Node1&#45;&gt;Node14</title>
<path fill="none" stroke="midnightblue" d="M789.21,-237.31C777.93,-252.98 759.98,-275.29 740,-290 732.16,-295.77 723.03,-300.74 714.05,-304.88"/>
<polygon fill="midnightblue" stroke="midnightblue" points="792.19,-239.16 795.04,-228.96 786.45,-235.15 792.19,-239.16"/>
</g>
<!-- Node15 -->
<g id="node15" class="node">
<title>Node15</title>
<g id="a_node15"><a xlink:href="namespacextb__qmdff.html#ac139343f2e6ae2ee08a1074c9ca536c9" target="_top" xlink:title=" ">
<polygon fill="white" stroke="black" points="622.5,-38.5 622.5,-57.5 718.5,-57.5 718.5,-38.5 622.5,-38.5"/>
<text text-anchor="middle" x="670.5" y="-45.5" font-family="Helvetica,sans-Serif" font-size="10.00">xtb_qmdff::ff_eg</text>
</a>
</g>
</g>
<!-- Node1&#45;&gt;Node15 -->
<g id="edge22" class="edge">
<title>Node1&#45;&gt;Node15</title>
<path fill="none" stroke="midnightblue" d="M799.09,-199.06C794.08,-166.56 779.52,-102.26 740,-67 733.92,-61.58 726.42,-57.69 718.64,-54.9"/>
<polygon fill="midnightblue" stroke="midnightblue" points="795.64,-199.71 800.48,-209.13 802.58,-198.74 795.64,-199.71"/>
</g>
<!-- Node17 -->
<g id="node17" class="node">
<title>Node17</title>
<g id="a_node17"><a xlink:href="namespacextb__qmdff.html#aafafc2817fe56e50c04b8445f8d251cf" target="_top" xlink:title=" ">
<polygon fill="white" stroke="black" points="616,-0.5 616,-19.5 725,-19.5 725,-0.5 616,-0.5"/>
<text text-anchor="middle" x="670.5" y="-7.5" font-family="Helvetica,sans-Serif" font-size="10.00">xtb_qmdff::valijklff</text>
</a>
</g>
</g>
<!-- Node1&#45;&gt;Node17 -->
<g id="edge25" class="edge">
<title>Node1&#45;&gt;Node17</title>
<path fill="none" stroke="midnightblue" d="M800.97,-199.12C798.83,-160.6 788.54,-75.53 740,-29 735.72,-24.9 730.64,-21.67 725.21,-19.13"/>
<polygon fill="midnightblue" stroke="midnightblue" points="797.49,-199.64 801.4,-209.48 804.48,-199.34 797.49,-199.64"/>
</g>
<!-- Node2&#45;&gt;Node3 -->
<g id="edge2" class="edge">
<title>Node2&#45;&gt;Node3</title>
<path fill="none" stroke="midnightblue" d="M444.28,-353.64C435.49,-351 426.41,-348.07 418,-345 390.61,-334.98 360.02,-320.82 340.77,-311.53"/>
<polygon fill="midnightblue" stroke="midnightblue" points="443.46,-357.05 454.04,-356.5 445.43,-350.33 443.46,-357.05"/>
</g>
<!-- Node4 -->
<g id="node4" class="node">
<title>Node4</title>
<g id="a_node4"><a xlink:href="namespacextb__gfnff__calculator.html#a8775e737196933e41e48728956ddf782" target="_top" xlink:title=" ">
<polygon fill="white" stroke="black" points="110,-309 110,-339 223,-339 223,-309 110,-309"/>
<text text-anchor="start" x="118" y="-327" font-family="Helvetica,sans-Serif" font-size="10.00">xtb_gfnff_calculator</text>
<text text-anchor="middle" x="166.5" y="-316" font-family="Helvetica,sans-Serif" font-size="10.00">::singlepoint</text>
</a>
</g>
</g>
<!-- Node3&#45;&gt;Node4 -->
<g id="edge3" class="edge">
<title>Node3&#45;&gt;Node4</title>
<path fill="none" stroke="midnightblue" d="M248.97,-312.21C240.38,-313.45 231.7,-314.71 223.36,-315.91"/>
<polygon fill="midnightblue" stroke="midnightblue" points="249.59,-315.65 258.99,-310.76 248.59,-308.73 249.59,-315.65"/>
</g>
<!-- Node5 -->
<g id="node5" class="node">
<title>Node5</title>
<g id="a_node5"><a xlink:href="gfnff_8f90.html#a3debb77ee35e9cf115d69ef59490c6c5" target="_top" xlink:title=" ">
<polygon fill="white" stroke="black" points="126.5,-270.5 126.5,-289.5 206.5,-289.5 206.5,-270.5 126.5,-270.5"/>
<text text-anchor="middle" x="166.5" y="-277.5" font-family="Helvetica,sans-Serif" font-size="10.00">test_gfnff_sp</text>
</a>
</g>
</g>
<!-- Node3&#45;&gt;Node5 -->
<g id="edge4" class="edge">
<title>Node3&#45;&gt;Node5</title>
<path fill="none" stroke="midnightblue" d="M249.02,-291.8C234.52,-289.7 219.76,-287.56 206.84,-285.69"/>
<polygon fill="midnightblue" stroke="midnightblue" points="248.59,-295.27 258.99,-293.24 249.59,-288.35 248.59,-295.27"/>
</g>
<!-- Node6 -->
<g id="node6" class="node">
<title>Node6</title>
<g id="a_node6"><a xlink:href="tests__peeq_8f90.html#a87ff5319e0d2e627a4f71d7df0d14891" target="_top" xlink:title=" ">
<polygon fill="white" stroke="black" points="0,-270.5 0,-289.5 74,-289.5 74,-270.5 0,-270.5"/>
<text text-anchor="middle" x="37" y="-277.5" font-family="Helvetica,sans-Serif" font-size="10.00">peeq_tester</text>
</a>
</g>
</g>
<!-- Node5&#45;&gt;Node6 -->
<g id="edge5" class="edge">
<title>Node5&#45;&gt;Node6</title>
<path fill="none" stroke="midnightblue" d="M115.85,-280C102.02,-280 87.25,-280 74.34,-280"/>
<polygon fill="midnightblue" stroke="midnightblue" points="116.21,-283.5 126.21,-280 116.21,-276.5 116.21,-283.5"/>
</g>
<!-- Node9&#45;&gt;Node3 -->
<g id="edge9" class="edge">
<title>Node9&#45;&gt;Node3</title>
<path fill="none" stroke="midnightblue" d="M443.27,-212.89C434.63,-216.01 425.86,-219.71 418,-224 382.64,-243.3 347.45,-276.03 331.05,-292.26"/>
<polygon fill="midnightblue" stroke="midnightblue" points="444.57,-216.14 452.92,-209.61 442.32,-209.51 444.57,-216.14"/>
</g>
<!-- Node10&#45;&gt;Node7 -->
<g id="edge11" class="edge">
<title>Node10&#45;&gt;Node7</title>
<path fill="none" stroke="midnightblue" d="M590.51,-124C578.14,-124 565.53,-124 553.65,-124"/>
<polygon fill="midnightblue" stroke="midnightblue" points="590.81,-127.5 600.81,-124 590.81,-120.5 590.81,-127.5"/>
</g>
<!-- Node11&#45;&gt;Node2 -->
<g id="edge13" class="edge">
<title>Node11&#45;&gt;Node2</title>
<path fill="none" stroke="midnightblue" d="M600.49,-367.83C588.86,-367.63 576.76,-367.43 565.04,-367.23"/>
<polygon fill="midnightblue" stroke="midnightblue" points="600.5,-371.33 610.56,-368 600.62,-364.33 600.5,-371.33"/>
</g>
<!-- Node11&#45;&gt;Node8 -->
<g id="edge14" class="edge">
<title>Node11&#45;&gt;Node8</title>
<path fill="none" stroke="midnightblue" d="M605.13,-351.18C586.01,-345.89 565.28,-340.15 546.87,-335.05"/>
<polygon fill="midnightblue" stroke="midnightblue" points="604.38,-354.6 614.95,-353.9 606.25,-347.86 604.38,-354.6"/>
</g>
<!-- Node12&#45;&gt;Node3 -->
<g id="edge16" class="edge">
<title>Node12&#45;&gt;Node3</title>
<path fill="none" stroke="midnightblue" d="M462.71,-412.49C448.89,-404.88 432.16,-395.06 418,-385 384.31,-361.07 348.35,-327.81 331.41,-311.62"/>
<polygon fill="midnightblue" stroke="midnightblue" points="461.28,-415.69 471.74,-417.38 464.62,-409.54 461.28,-415.69"/>
</g>
<!-- Node13&#45;&gt;Node7 -->
<g id="edge18" class="edge">
<title>Node13&#45;&gt;Node7</title>
<path fill="none" stroke="midnightblue" d="M614.93,-97.72C595.49,-101.89 573.48,-106.62 553.53,-110.9"/>
<polygon fill="midnightblue" stroke="midnightblue" points="615.79,-101.11 624.84,-95.59 614.32,-94.27 615.79,-101.11"/>
</g>
<!-- Node14&#45;&gt;Node2 -->
<g id="edge20" class="edge">
<title>Node14&#45;&gt;Node2</title>
<path fill="none" stroke="midnightblue" d="M603.63,-337.12C578.46,-343.66 550.67,-350.88 529.17,-356.47"/>
<polygon fill="midnightblue" stroke="midnightblue" points="604.7,-340.46 613.5,-334.55 602.94,-333.68 604.7,-340.46"/>
</g>
<!-- Node14&#45;&gt;Node8 -->
<g id="edge21" class="edge">
<title>Node14&#45;&gt;Node8</title>
<path fill="none" stroke="midnightblue" d="M603.49,-320C587.17,-320 569.75,-320 553.66,-320"/>
<polygon fill="midnightblue" stroke="midnightblue" points="603.5,-323.5 613.5,-320 603.5,-316.5 603.5,-323.5"/>
</g>
<!-- Node16 -->
<g id="node16" class="node">
<title>Node16</title>
<g id="a_node16"><a xlink:href="namespacextb__type__dummycalc.html#a28a36738c316fb4a0655328844e94957" target="_top" xlink:title=" ">
<polygon fill="white" stroke="black" points="430.5,-33 430.5,-63 552.5,-63 552.5,-33 430.5,-33"/>
<text text-anchor="start" x="438.5" y="-51" font-family="Helvetica,sans-Serif" font-size="10.00">xtb_type_dummycalc</text>
<text text-anchor="middle" x="491.5" y="-40" font-family="Helvetica,sans-Serif" font-size="10.00">::singlepoint</text>
</a>
</g>
</g>
<!-- Node15&#45;&gt;Node16 -->
<g id="edge23" class="edge">
<title>Node15&#45;&gt;Node16</title>
<path fill="none" stroke="midnightblue" d="M611.81,-48C592.9,-48 571.86,-48 552.76,-48"/>
<polygon fill="midnightblue" stroke="midnightblue" points="612.07,-51.5 622.07,-48 612.07,-44.5 612.07,-51.5"/>
</g>
</g>
</svg>
