<?xml version="1.0" encoding="UTF-8" standalone="no"?>
<!DOCTYPE svg PUBLIC "-//W3C//DTD SVG 1.1//EN"
 "http://www.w3.org/Graphics/SVG/1.1/DTD/svg11.dtd">
<!-- Generated by graphviz version 2.46.0 (20210122.1329)
 -->
<!-- Title: ddvopt Pages: 1 -->
<svg width="298pt" height="161pt"
 viewBox="0.00 0.00 298.00 161.00" xmlns="http://www.w3.org/2000/svg" xmlns:xlink="http://www.w3.org/1999/xlink">
<g id="graph0" class="graph" transform="scale(1 1) rotate(0) translate(4 157)">
<title>ddvopt</title>
<polygon fill="white" stroke="transparent" points="-4,4 -4,-157 294,-157 294,4 -4,4"/>
<!-- Node1 -->
<g id="node1" class="node">
<title>Node1</title>
<g id="a_node1"><a xlink:title=" ">
<polygon fill="#bfbfbf" stroke="black" points="0,-76.5 0,-95.5 46,-95.5 46,-76.5 0,-76.5"/>
<text text-anchor="middle" x="23" y="-83.5" font-family="Helvetica,sans-Serif" font-size="10.00">ddvopt</text>
</a>
</g>
</g>
<!-- Node2 -->
<g id="node2" class="node">
<title>Node2</title>
<g id="a_node2"><a xlink:href="lindh_8f90.html#ab2e7f77ee373a0a959c69716f8f68442" target="_top" xlink:title=" ">
<polygon fill="white" stroke="black" points="82,-133.5 82,-152.5 139,-152.5 139,-133.5 82,-133.5"/>
<text text-anchor="middle" x="110.5" y="-140.5" font-family="Helvetica,sans-Serif" font-size="10.00">getvdwxx</text>
</a>
</g>
</g>
<!-- Node1&#45;&gt;Node2 -->
<g id="edge1" class="edge">
<title>Node1&#45;&gt;Node2</title>
<path fill="none" stroke="midnightblue" d="M38.5,-95.67C51.73,-104.48 71.47,-117.65 86.79,-127.86"/>
<polygon fill="midnightblue" stroke="midnightblue" points="84.95,-130.84 95.21,-133.47 88.83,-125.01 84.95,-130.84"/>
</g>
<!-- Node3 -->
<g id="node3" class="node">
<title>Node3</title>
<g id="a_node3"><a xlink:href="lindh_8f90.html#a2bc30e925179306ac08c6efada837793" target="_top" xlink:title=" ">
<polygon fill="white" stroke="black" points="82,-95.5 82,-114.5 139,-114.5 139,-95.5 82,-95.5"/>
<text text-anchor="middle" x="110.5" y="-102.5" font-family="Helvetica,sans-Serif" font-size="10.00">getvdwxy</text>
</a>
</g>
</g>
<!-- Node1&#45;&gt;Node3 -->
<g id="edge2" class="edge">
<title>Node1&#45;&gt;Node3</title>
<path fill="none" stroke="midnightblue" d="M46.02,-90.89C53.93,-92.65 63.09,-94.69 71.94,-96.65"/>
<polygon fill="midnightblue" stroke="midnightblue" points="71.21,-100.08 81.73,-98.83 72.73,-93.24 71.21,-100.08"/>
</g>
<!-- Node4 -->
<g id="node4" class="node">
<title>Node4</title>
<g id="a_node4"><a xlink:href="lindh_8f90.html#af84af60a86977b94234c903100d21729" target="_top" xlink:title=" ">
<polygon fill="white" stroke="black" points="86.5,-57.5 86.5,-76.5 134.5,-76.5 134.5,-57.5 86.5,-57.5"/>
<text text-anchor="middle" x="110.5" y="-64.5" font-family="Helvetica,sans-Serif" font-size="10.00">itabrow</text>
</a>
</g>
</g>
<!-- Node1&#45;&gt;Node4 -->
<g id="edge3" class="edge">
<title>Node1&#45;&gt;Node4</title>
<path fill="none" stroke="midnightblue" d="M46.02,-81.11C55.3,-79.05 66.29,-76.6 76.5,-74.33"/>
<polygon fill="midnightblue" stroke="midnightblue" points="77.36,-77.73 86.36,-72.14 75.84,-70.89 77.36,-77.73"/>
</g>
<!-- Node5 -->
<g id="node5" class="node">
<title>Node5</title>
<g id="a_node5"><a xlink:href="lindh_8f90.html#a6304b4e92807509179a79dc1e6977779" target="_top" xlink:title=" ">
<polygon fill="white" stroke="black" points="94,-19.5 94,-38.5 127,-38.5 127,-19.5 94,-19.5"/>
<text text-anchor="middle" x="110.5" y="-26.5" font-family="Helvetica,sans-Serif" font-size="10.00">trsn</text>
</a>
</g>
</g>
<!-- Node1&#45;&gt;Node5 -->
<g id="edge4" class="edge">
<title>Node1&#45;&gt;Node5</title>
<path fill="none" stroke="midnightblue" d="M38.5,-76.33C51.73,-67.52 71.47,-54.35 86.79,-44.14"/>
<polygon fill="midnightblue" stroke="midnightblue" points="88.83,-46.99 95.21,-38.53 84.95,-41.16 88.83,-46.99"/>
</g>
<!-- Node6 -->
<g id="node6" class="node">
<title>Node6</title>
<g id="a_node6"><a xlink:href="lindh_8f90.html#abc18b46e53824a4bb5485d7ad437d4a7" target="_top" xlink:title=" ">
<polygon fill="white" stroke="black" points="175,-38.5 175,-57.5 213,-57.5 213,-38.5 175,-38.5"/>
<text text-anchor="middle" x="194" y="-45.5" font-family="Helvetica,sans-Serif" font-size="10.00">bend</text>
</a>
</g>
</g>
<!-- Node5&#45;&gt;Node6 -->
<g id="edge5" class="edge">
<title>Node5&#45;&gt;Node6</title>
<path fill="none" stroke="midnightblue" d="M127.21,-32.66C137.84,-35.14 152.17,-38.48 164.74,-41.41"/>
<polygon fill="midnightblue" stroke="midnightblue" points="164.24,-44.89 174.77,-43.75 165.83,-38.07 164.24,-44.89"/>
</g>
<!-- Node9 -->
<g id="node9" class="node">
<title>Node9</title>
<g id="a_node9"><a xlink:href="lindh_8f90.html#a70967be59b6966a7f256345c2b671e87" target="_top" xlink:title=" ">
<polygon fill="white" stroke="black" points="249,-0.5 249,-19.5 290,-19.5 290,-0.5 249,-0.5"/>
<text text-anchor="middle" x="269.5" y="-7.5" font-family="Helvetica,sans-Serif" font-size="10.00">strtch</text>
</a>
</g>
</g>
<!-- Node5&#45;&gt;Node9 -->
<g id="edge9" class="edge">
<title>Node5&#45;&gt;Node9</title>
<path fill="none" stroke="midnightblue" d="M127.13,-27.11C153.09,-23.97 205.54,-17.62 238.74,-13.6"/>
<polygon fill="midnightblue" stroke="midnightblue" points="239.28,-17.06 248.79,-12.39 238.44,-10.11 239.28,-17.06"/>
</g>
<!-- Node7 -->
<g id="node7" class="node">
<title>Node7</title>
<g id="a_node7"><a xlink:href="lindh_8f90.html#a26effd4ed88876ebede4e054337a4b8c" target="_top" xlink:title=" ">
<polygon fill="white" stroke="black" points="249,-76.5 249,-95.5 290,-95.5 290,-76.5 249,-76.5"/>
<text text-anchor="middle" x="269.5" y="-83.5" font-family="Helvetica,sans-Serif" font-size="10.00">arcos</text>
</a>
</g>
</g>
<!-- Node6&#45;&gt;Node7 -->
<g id="edge6" class="edge">
<title>Node6&#45;&gt;Node7</title>
<path fill="none" stroke="midnightblue" d="M213.17,-57.39C221.59,-61.74 231.77,-67.01 241.09,-71.83"/>
<polygon fill="midnightblue" stroke="midnightblue" points="239.54,-74.97 250.03,-76.45 242.75,-68.75 239.54,-74.97"/>
</g>
<!-- Node8 -->
<g id="node8" class="node">
<title>Node8</title>
<g id="a_node8"><a xlink:href="lindh_8f90.html#aa2cc6880bd5b22a10380abda14af93e7" target="_top" xlink:title=" ">
<polygon fill="white" stroke="black" points="250.5,-38.5 250.5,-57.5 288.5,-57.5 288.5,-38.5 250.5,-38.5"/>
<text text-anchor="middle" x="269.5" y="-45.5" font-family="Helvetica,sans-Serif" font-size="10.00">arsin</text>
</a>
</g>
</g>
<!-- Node6&#45;&gt;Node8 -->
<g id="edge7" class="edge">
<title>Node6&#45;&gt;Node8</title>
<path fill="none" stroke="midnightblue" d="M213.17,-48C221.3,-48 231.07,-48 240.13,-48"/>
<polygon fill="midnightblue" stroke="midnightblue" points="240.29,-51.5 250.29,-48 240.29,-44.5 240.29,-51.5"/>
</g>
<!-- Node6&#45;&gt;Node9 -->
<g id="edge8" class="edge">
<title>Node6&#45;&gt;Node9</title>
<path fill="none" stroke="midnightblue" d="M213.17,-38.61C221.59,-34.26 231.77,-28.99 241.09,-24.17"/>
<polygon fill="midnightblue" stroke="midnightblue" points="242.75,-27.25 250.03,-19.55 239.54,-21.03 242.75,-27.25"/>
</g>
</g>
</svg>
