<?xml version="1.0" encoding="UTF-8" standalone="no"?>
<!DOCTYPE svg PUBLIC "-//W3C//DTD SVG 1.1//EN"
 "http://www.w3.org/Graphics/SVG/1.1/DTD/svg11.dtd">
<!-- Generated by graphviz version 2.43.0 (0)
 -->
<!-- Title: xtb_disp_dftd3::atm_gradient_latp Pages: 1 -->
<svg width="328pt" height="100pt"
 viewBox="0.00 0.00 328.00 99.50" xmlns="http://www.w3.org/2000/svg" xmlns:xlink="http://www.w3.org/1999/xlink">
<g id="graph0" class="graph" transform="scale(1 1) rotate(0) translate(4 95.5)">
<title>xtb_disp_dftd3::atm_gradient_latp</title>
<polygon fill="white" stroke="transparent" points="-4,4 -4,-95.5 324,-95.5 324,4 -4,4"/>
<!-- Node1 -->
<g id="node1" class="node">
<title>Node1</title>
<g id="a_node1"><a xlink:title=" ">
<polygon fill="#bfbfbf" stroke="black" points="207,-27.5 207,-57.5 320,-57.5 320,-27.5 207,-27.5"/>
<text text-anchor="start" x="215" y="-45.5" font-family="Helvetica,sans-Serif" font-size="10.00">xtb_disp_dftd3::atm</text>
<text text-anchor="middle" x="263.5" y="-34.5" font-family="Helvetica,sans-Serif" font-size="10.00">_gradient_latp</text>
</a>
</g>
</g>
<!-- Node2 -->
<g id="node2" class="node">
<title>Node2</title>
<g id="a_node2"><a xlink:href="interfacextb__disp__dftd3_1_1d3__atm__gradient.html#a15c51e72bc3a117518398eb6050027a1" target="_top" xlink:title=" ">
<polygon fill="white" stroke="black" points="20.5,-50 20.5,-91 150.5,-91 150.5,-50 20.5,-50"/>
<text text-anchor="start" x="28.5" y="-79" font-family="Helvetica,sans-Serif" font-size="10.00">xtb_disp_dftd3::d3</text>
<text text-anchor="start" x="28.5" y="-68" font-family="Helvetica,sans-Serif" font-size="10.00">_atm_gradient::d3_atm</text>
<text text-anchor="middle" x="85.5" y="-57" font-family="Helvetica,sans-Serif" font-size="10.00">_gradient_latp</text>
</a>
</g>
</g>
<!-- Node1&#45;&gt;Node2 -->
<g id="edge1" class="edge">
<title>Node1&#45;&gt;Node2</title>
<path fill="none" stroke="midnightblue" d="M196.59,-52.99C181.59,-55.37 165.66,-57.91 150.72,-60.28"/>
<polygon fill="midnightblue" stroke="midnightblue" points="197.49,-56.39 206.81,-51.36 196.39,-49.47 197.49,-56.39"/>
</g>
<!-- Node3 -->
<g id="node3" class="node">
<title>Node3</title>
<g id="a_node3"><a xlink:href="interfacextb__disp__dftd3_1_1d3__gradient.html#a235d7c22a675fb31046cc4c4c3474c70" target="_top" xlink:title=" ">
<polygon fill="white" stroke="black" points="0,-0.5 0,-30.5 171,-30.5 171,-0.5 0,-0.5"/>
<text text-anchor="start" x="8" y="-18.5" font-family="Helvetica,sans-Serif" font-size="10.00">xtb_disp_dftd3::d3</text>
<text text-anchor="middle" x="85.5" y="-7.5" font-family="Helvetica,sans-Serif" font-size="10.00">_gradient::d3_full_gradient_latp</text>
</a>
</g>
</g>
<!-- Node1&#45;&gt;Node3 -->
<g id="edge2" class="edge">
<title>Node1&#45;&gt;Node3</title>
<path fill="none" stroke="midnightblue" d="M196.76,-32.41C188.38,-31.13 179.71,-29.8 171.08,-28.48"/>
<polygon fill="midnightblue" stroke="midnightblue" points="196.4,-35.9 206.81,-33.96 197.46,-28.98 196.4,-35.9"/>
</g>
</g>
</svg>
