<?xml version="1.0" encoding="UTF-8" standalone="no"?>
<!DOCTYPE svg PUBLIC "-//W3C//DTD SVG 1.1//EN"
 "http://www.w3.org/Graphics/SVG/1.1/DTD/svg11.dtd">
<!-- Generated by graphviz version 2.43.0 (0)
 -->
<!-- Title: xtb_optimizer::ancopt Pages: 1 -->
<svg width="611pt" height="230pt"
 viewBox="0.00 0.00 611.00 229.50" xmlns="http://www.w3.org/2000/svg" xmlns:xlink="http://www.w3.org/1999/xlink">
<g id="graph0" class="graph" transform="scale(1 1) rotate(0) translate(4 225.5)">
<title>xtb_optimizer::ancopt</title>
<polygon fill="white" stroke="transparent" points="-4,4 -4,-225.5 607,-225.5 607,4 -4,4"/>
<!-- Node1 -->
<g id="node1" class="node">
<title>Node1</title>
<g id="a_node1"><a xlink:title=" ">
<polygon fill="#bfbfbf" stroke="black" points="480,-129 480,-148 603,-148 603,-129 480,-129"/>
<text text-anchor="middle" x="541.5" y="-136" font-family="Helvetica,sans-Serif" font-size="10.00">xtb_optimizer::ancopt</text>
</a>
</g>
</g>
<!-- Node2 -->
<g id="node2" class="node">
<title>Node2</title>
<g id="a_node2"><a xlink:href="namespacextb__biaspath.html#a17ea22b101e578a3df8d2b58b96811a5" target="_top" xlink:title=" ">
<polygon fill="white" stroke="black" points="311,-151 311,-170 444,-170 444,-151 311,-151"/>
<text text-anchor="middle" x="377.5" y="-158" font-family="Helvetica,sans-Serif" font-size="10.00">xtb_biaspath::bias_path</text>
</a>
</g>
</g>
<!-- Node1&#45;&gt;Node2 -->
<g id="edge1" class="edge">
<title>Node1&#45;&gt;Node2</title>
<path fill="none" stroke="midnightblue" d="M469.55,-148.14C461.14,-149.28 452.57,-150.44 444.24,-151.57"/>
<polygon fill="midnightblue" stroke="midnightblue" points="470.28,-151.57 479.72,-146.75 469.34,-144.63 470.28,-151.57"/>
</g>
<!-- Node3 -->
<g id="node3" class="node">
<title>Node3</title>
<g id="a_node3"><a xlink:href="namespacextb__geoopt.html#a1f0513294f2237b94f355cc4dc5dd867" target="_top" xlink:title=" ">
<polygon fill="white" stroke="black" points="315,-101.5 315,-131.5 440,-131.5 440,-101.5 315,-101.5"/>
<text text-anchor="start" x="323" y="-119.5" font-family="Helvetica,sans-Serif" font-size="10.00">xtb_geoopt::geometry</text>
<text text-anchor="middle" x="377.5" y="-108.5" font-family="Helvetica,sans-Serif" font-size="10.00">_optimization</text>
</a>
</g>
</g>
<!-- Node1&#45;&gt;Node3 -->
<g id="edge2" class="edge">
<title>Node1&#45;&gt;Node3</title>
<path fill="none" stroke="midnightblue" d="M469.6,-128.87C459.79,-127.54 449.78,-126.18 440.16,-124.87"/>
<polygon fill="midnightblue" stroke="midnightblue" points="469.34,-132.37 479.72,-130.25 470.28,-125.43 469.34,-132.37"/>
</g>
<!-- Node4 -->
<g id="node4" class="node">
<title>Node4</title>
<g id="a_node4"><a xlink:href="namespacextb__kopt.html#ada4ab70832f563f46c8ffc8cea64c78b" target="_top" xlink:title=" ">
<polygon fill="white" stroke="black" points="154,-202 154,-221 264,-221 264,-202 154,-202"/>
<text text-anchor="middle" x="209" y="-209" font-family="Helvetica,sans-Serif" font-size="10.00">xtb_kopt::get_rmsd</text>
</a>
</g>
</g>
<!-- Node3&#45;&gt;Node4 -->
<g id="edge3" class="edge">
<title>Node3&#45;&gt;Node4</title>
<path fill="none" stroke="midnightblue" d="M318.27,-136.49C315.74,-138.05 313.3,-139.72 311,-141.5 289.09,-158.52 297.58,-176.37 275,-192.5 269.55,-196.4 263.3,-199.5 256.88,-201.97"/>
<polygon fill="midnightblue" stroke="midnightblue" points="320.11,-139.47 327.19,-131.59 316.74,-133.33 320.11,-139.47"/>
</g>
<!-- Node6 -->
<g id="node6" class="node">
<title>Node6</title>
<g id="a_node6"><a xlink:href="namespacextb__mdoptim.html#ab0ba2195163cd6794115b99516ba5316" target="_top" xlink:title=" ">
<polygon fill="white" stroke="black" points="149.5,-164 149.5,-183 268.5,-183 268.5,-164 149.5,-164"/>
<text text-anchor="middle" x="209" y="-171" font-family="Helvetica,sans-Serif" font-size="10.00">xtb_mdoptim::mdopt</text>
</a>
</g>
</g>
<!-- Node3&#45;&gt;Node6 -->
<g id="edge5" class="edge">
<title>Node3&#45;&gt;Node6</title>
<path fill="none" stroke="midnightblue" d="M327.8,-135.12C307.08,-142.96 285.33,-151.06 275,-154.5 265.18,-157.77 254.44,-161.03 244.56,-163.91"/>
<polygon fill="midnightblue" stroke="midnightblue" points="329.1,-138.37 337.21,-131.55 326.61,-131.83 329.1,-138.37"/>
</g>
<!-- Node7 -->
<g id="node7" class="node">
<title>Node7</title>
<g id="a_node7"><a xlink:href="namespacextb__modef.html#a39c4cb408b8b02afb7bf83a1d7f13de3" target="_top" xlink:title=" ">
<polygon fill="white" stroke="black" points="143,-126 143,-145 275,-145 275,-126 143,-126"/>
<text text-anchor="middle" x="209" y="-133" font-family="Helvetica,sans-Serif" font-size="10.00">xtb_modef::modefollow</text>
</a>
</g>
</g>
<!-- Node3&#45;&gt;Node7 -->
<g id="edge6" class="edge">
<title>Node3&#45;&gt;Node7</title>
<path fill="none" stroke="midnightblue" d="M304.82,-124.68C294.97,-125.8 284.9,-126.95 275.18,-128.06"/>
<polygon fill="midnightblue" stroke="midnightblue" points="305.44,-128.13 314.97,-123.52 304.64,-121.18 305.44,-128.13"/>
</g>
<!-- Node8 -->
<g id="node8" class="node">
<title>Node8</title>
<g id="a_node8"><a xlink:href="namespacextb__scan.html#abef8f8d0fa299e9e2caf823f3672f14a" target="_top" xlink:title=" ">
<polygon fill="white" stroke="black" points="144,-88 144,-107 274,-107 274,-88 144,-88"/>
<text text-anchor="middle" x="209" y="-95" font-family="Helvetica,sans-Serif" font-size="10.00">xtb_scan::relaxed_scan</text>
</a>
</g>
</g>
<!-- Node3&#45;&gt;Node8 -->
<g id="edge7" class="edge">
<title>Node3&#45;&gt;Node8</title>
<path fill="none" stroke="midnightblue" d="M304.84,-108.32C294.61,-107.16 284.14,-105.96 274.06,-104.81"/>
<polygon fill="midnightblue" stroke="midnightblue" points="304.64,-111.82 314.97,-109.48 305.44,-104.87 304.64,-111.82"/>
</g>
<!-- Node9 -->
<g id="node9" class="node">
<title>Node9</title>
<g id="a_node9"><a xlink:href="namespacextb__screening.html#a7f4004ff0e65127a38b038f0a7cdcc84" target="_top" xlink:title=" ">
<polygon fill="white" stroke="black" points="147.5,-50 147.5,-69 270.5,-69 270.5,-50 147.5,-50"/>
<text text-anchor="middle" x="209" y="-57" font-family="Helvetica,sans-Serif" font-size="10.00">xtb_screening::screen</text>
</a>
</g>
</g>
<!-- Node3&#45;&gt;Node9 -->
<g id="edge8" class="edge">
<title>Node3&#45;&gt;Node9</title>
<path fill="none" stroke="midnightblue" d="M328.56,-97.72C311.72,-91.35 292.61,-84.36 275,-78.5 265.18,-75.23 254.44,-71.97 244.56,-69.09"/>
<polygon fill="midnightblue" stroke="midnightblue" points="327.59,-101.1 338.18,-101.39 330.08,-94.56 327.59,-101.1"/>
</g>
<!-- Node10 -->
<g id="node10" class="node">
<title>Node10</title>
<g id="a_node10"><a xlink:href="namespacextb__gfnff__convert.html#adf399b47b9f2a8364327d9d5c38cb2b8" target="_top" xlink:title=" ">
<polygon fill="white" stroke="black" points="155,-0.5 155,-30.5 263,-30.5 263,-0.5 155,-0.5"/>
<text text-anchor="start" x="163" y="-18.5" font-family="Helvetica,sans-Serif" font-size="10.00">xtb_gfnff_convert::</text>
<text text-anchor="middle" x="209" y="-7.5" font-family="Helvetica,sans-Serif" font-size="10.00">struc_convert</text>
</a>
</g>
</g>
<!-- Node3&#45;&gt;Node10 -->
<g id="edge9" class="edge">
<title>Node3&#45;&gt;Node10</title>
<path fill="none" stroke="midnightblue" d="M351.66,-94.82C331.89,-78.35 302.98,-55.97 275,-40.5 268.44,-36.87 261.24,-33.54 254.11,-30.56"/>
<polygon fill="midnightblue" stroke="midnightblue" points="349.65,-97.7 359.54,-101.48 354.16,-92.35 349.65,-97.7"/>
</g>
<!-- Node5 -->
<g id="node5" class="node">
<title>Node5</title>
<g id="a_node5"><a xlink:href="namespacextb__kopt.html#aed50b40106367857ab2d0bf3a109f62b" target="_top" xlink:title=" ">
<polygon fill="white" stroke="black" points="0,-202 0,-221 107,-221 107,-202 0,-202"/>
<text text-anchor="middle" x="53.5" y="-209" font-family="Helvetica,sans-Serif" font-size="10.00">xtb_kopt::get_kopt</text>
</a>
</g>
</g>
<!-- Node4&#45;&gt;Node5 -->
<g id="edge4" class="edge">
<title>Node4&#45;&gt;Node5</title>
<path fill="none" stroke="midnightblue" d="M143.75,-211.5C131.54,-211.5 118.9,-211.5 107.1,-211.5"/>
<polygon fill="midnightblue" stroke="midnightblue" points="143.88,-215 153.88,-211.5 143.88,-208 143.88,-215"/>
</g>
</g>
</svg>
