<?xml version="1.0" encoding="UTF-8" standalone="no"?>
<!DOCTYPE svg PUBLIC "-//W3C//DTD SVG 1.1//EN"
 "http://www.w3.org/Graphics/SVG/1.1/DTD/svg11.dtd">
<!-- Generated by graphviz version 2.43.0 (0)
 -->
<!-- Title: xtb_modelhessian::ind Pages: 1 -->
<svg width="303pt" height="66pt"
 viewBox="0.00 0.00 303.00 66.00" xmlns="http://www.w3.org/2000/svg" xmlns:xlink="http://www.w3.org/1999/xlink">
<g id="graph0" class="graph" transform="scale(1 1) rotate(0) translate(4 62)">
<title>xtb_modelhessian::ind</title>
<polygon fill="white" stroke="transparent" points="-4,4 -4,-62 299,-62 299,4 -4,4"/>
<!-- Node1 -->
<g id="node1" class="node">
<title>Node1</title>
<g id="a_node1"><a xlink:title=" ">
<polygon fill="#bfbfbf" stroke="black" points="0,-19.5 0,-38.5 127,-38.5 127,-19.5 0,-19.5"/>
<text text-anchor="middle" x="63.5" y="-26.5" font-family="Helvetica,sans-Serif" font-size="10.00">xtb_modelhessian::ind</text>
</a>
</g>
</g>
<!-- Node2 -->
<g id="node2" class="node">
<title>Node2</title>
<g id="a_node2"><a xlink:href="namespacextb__modelhessian.html#ad5b302d227ff0bda37ab6e452a7e71f0" target="_top" xlink:title=" ">
<polygon fill="white" stroke="black" points="163,-38.5 163,-57.5 295,-57.5 295,-38.5 163,-38.5"/>
<text text-anchor="middle" x="229" y="-45.5" font-family="Helvetica,sans-Serif" font-size="10.00">xtb_modelhessian::ixyz</text>
</a>
</g>
</g>
<!-- Node1&#45;&gt;Node2 -->
<g id="edge1" class="edge">
<title>Node1&#45;&gt;Node2</title>
<path fill="none" stroke="midnightblue" d="M127.25,-36.29C135.66,-37.27 144.36,-38.28 152.96,-39.28"/>
<polygon fill="midnightblue" stroke="midnightblue" points="152.65,-42.77 162.98,-40.44 153.46,-35.81 152.65,-42.77"/>
</g>
<!-- Node3 -->
<g id="node3" class="node">
<title>Node3</title>
<g id="a_node3"><a xlink:href="namespacextb__modelhessian.html#a4c09cd1aade9a59a35a770f0908823fc" target="_top" xlink:title=" ">
<polygon fill="white" stroke="black" points="165.5,-0.5 165.5,-19.5 292.5,-19.5 292.5,-0.5 165.5,-0.5"/>
<text text-anchor="middle" x="229" y="-7.5" font-family="Helvetica,sans-Serif" font-size="10.00">xtb_modelhessian::jnd</text>
</a>
</g>
</g>
<!-- Node1&#45;&gt;Node3 -->
<g id="edge2" class="edge">
<title>Node1&#45;&gt;Node3</title>
<path fill="none" stroke="midnightblue" d="M127.25,-21.71C136.44,-20.64 145.97,-19.53 155.34,-18.44"/>
<polygon fill="midnightblue" stroke="midnightblue" points="155.89,-21.9 165.42,-17.27 155.08,-14.95 155.89,-21.9"/>
</g>
</g>
</svg>
