<?xml version="1.0" encoding="UTF-8" standalone="no"?>
<!DOCTYPE svg PUBLIC "-//W3C//DTD SVG 1.1//EN"
 "http://www.w3.org/Graphics/SVG/1.1/DTD/svg11.dtd">
<!-- Generated by graphviz version 2.43.0 (0)
 -->
<!-- Title: xtb_pbc_tools::cell_to_dlat Pages: 1 -->
<svg width="814pt" height="790pt"
 viewBox="0.00 0.00 814.00 790.01" xmlns="http://www.w3.org/2000/svg" xmlns:xlink="http://www.w3.org/1999/xlink">
<g id="graph0" class="graph" transform="scale(1 1) rotate(0) translate(4 786.01)">
<title>xtb_pbc_tools::cell_to_dlat</title>
<polygon fill="white" stroke="transparent" points="-4,4 -4,-786.01 810,-786.01 810,4 -4,4"/>
<!-- Node1 -->
<g id="node1" class="node">
<title>Node1</title>
<g id="a_node1"><a xlink:title="convert cell parameters to direct lattice">
<polygon fill="#bfbfbf" stroke="black" points="699,-565 699,-595 806,-595 806,-565 699,-565"/>
<text text-anchor="start" x="707" y="-583" font-family="Helvetica,sans-Serif" font-size="10.00">xtb_pbc_tools::cell</text>
<text text-anchor="middle" x="752.5" y="-572" font-family="Helvetica,sans-Serif" font-size="10.00">_to_dlat</text>
</a>
</g>
</g>
<!-- Node2 -->
<g id="node2" class="node">
<title>Node2</title>
<g id="a_node2"><a xlink:href="namespacextb__io__reader__turbomole.html#a85a977e3c4f7d562670ffadf355627ec" target="_top" xlink:title=" ">
<polygon fill="white" stroke="black" points="524,-543 524,-573 663,-573 663,-543 524,-543"/>
<text text-anchor="start" x="532" y="-561" font-family="Helvetica,sans-Serif" font-size="10.00">xtb_io_reader_turbomole</text>
<text text-anchor="middle" x="593.5" y="-550" font-family="Helvetica,sans-Serif" font-size="10.00">::readmoleculecoord</text>
</a>
</g>
</g>
<!-- Node1&#45;&gt;Node2 -->
<g id="edge1" class="edge">
<title>Node1&#45;&gt;Node2</title>
<path fill="none" stroke="midnightblue" d="M688.72,-571.2C680.34,-570.03 671.72,-568.82 663.25,-567.63"/>
<polygon fill="midnightblue" stroke="midnightblue" points="688.4,-574.69 698.78,-572.61 689.37,-567.76 688.4,-574.69"/>
</g>
<!-- Node22 -->
<g id="node22" class="node">
<title>Node22</title>
<g id="a_node22"><a xlink:href="TESTSUITE_2pbc__tools_8f90.html#a69f132175fef558954e512a5959a7910" target="_top" xlink:title=" ">
<polygon fill="white" stroke="black" points="345.5,-721.5 345.5,-740.5 474.5,-740.5 474.5,-721.5 345.5,-721.5"/>
<text text-anchor="middle" x="410" y="-728.5" font-family="Helvetica,sans-Serif" font-size="10.00">test_pbc_tools_convert</text>
</a>
</g>
</g>
<!-- Node1&#45;&gt;Node22 -->
<g id="edge35" class="edge">
<title>Node1&#45;&gt;Node22</title>
<path fill="none" stroke="midnightblue" d="M708.16,-599.22C634.62,-631.83 488,-696.85 432.74,-721.36"/>
<polygon fill="midnightblue" stroke="midnightblue" points="709.88,-602.28 717.61,-595.03 707.05,-595.88 709.88,-602.28"/>
</g>
<!-- Node3 -->
<g id="node3" class="node">
<title>Node3</title>
<g id="a_node3"><a xlink:href="namespacextb__io__reader.html#a3b815f9e75ce60c6ec45733723bdcc4e" target="_top" xlink:title="Generic reader for molecules from input files.">
<polygon fill="white" stroke="black" points="332,-377.5 332,-396.5 488,-396.5 488,-377.5 332,-377.5"/>
<text text-anchor="middle" x="410" y="-384.5" font-family="Helvetica,sans-Serif" font-size="10.00">xtb_io_reader::readmolecule</text>
</a>
</g>
</g>
<!-- Node2&#45;&gt;Node3 -->
<g id="edge2" class="edge">
<title>Node2&#45;&gt;Node3</title>
<path fill="none" stroke="midnightblue" d="M568.95,-535.81C528.93,-498.11 449.29,-423.07 421.14,-396.55"/>
<polygon fill="midnightblue" stroke="midnightblue" points="566.71,-538.51 576.39,-542.82 571.51,-533.42 566.71,-538.51"/>
</g>
<!-- Node4 -->
<g id="node4" class="node">
<title>Node4</title>
<g id="a_node4"><a xlink:href="geometry__reader_8f90.html#a84df8c9da6da2b8e69a9381a90cbe404" target="_top" xlink:title=" ">
<polygon fill="white" stroke="black" points="155,-617 155,-647 280,-647 280,-617 155,-617"/>
<text text-anchor="start" x="163" y="-635" font-family="Helvetica,sans-Serif" font-size="10.00">test_geometry_reader</text>
<text text-anchor="middle" x="217.5" y="-624" font-family="Helvetica,sans-Serif" font-size="10.00">_file_coord_caf2_3d</text>
</a>
</g>
</g>
<!-- Node3&#45;&gt;Node4 -->
<g id="edge3" class="edge">
<title>Node3&#45;&gt;Node4</title>
<path fill="none" stroke="midnightblue" d="M404.55,-406.38C393.71,-449.23 361.84,-552.63 296,-608 291.26,-611.99 285.85,-615.32 280.16,-618.09"/>
<polygon fill="midnightblue" stroke="midnightblue" points="407.96,-407.18 406.91,-396.63 401.16,-405.53 407.96,-407.18"/>
</g>
<!-- Node6 -->
<g id="node6" class="node">
<title>Node6</title>
<g id="a_node6"><a xlink:href="geometry__reader_8f90.html#a3d3a7a57ea428fa46f1f08e83c78f745" target="_top" xlink:title=" ">
<polygon fill="white" stroke="black" points="152.5,-568 152.5,-598 282.5,-598 282.5,-568 152.5,-568"/>
<text text-anchor="start" x="160.5" y="-586" font-family="Helvetica,sans-Serif" font-size="10.00">test_geometry_reader</text>
<text text-anchor="middle" x="217.5" y="-575" font-family="Helvetica,sans-Serif" font-size="10.00">_file_coord_camgco_3d</text>
</a>
</g>
</g>
<!-- Node3&#45;&gt;Node6 -->
<g id="edge5" class="edge">
<title>Node3&#45;&gt;Node6</title>
<path fill="none" stroke="midnightblue" d="M401.44,-406.58C386.68,-442.25 350.6,-517.93 296,-559 291.38,-562.47 286.26,-565.45 280.91,-568"/>
<polygon fill="midnightblue" stroke="midnightblue" points="404.86,-407.46 405.34,-396.87 398.36,-404.85 404.86,-407.46"/>
</g>
<!-- Node7 -->
<g id="node7" class="node">
<title>Node7</title>
<g id="a_node7"><a xlink:href="geometry__reader_8f90.html#a8bd5f73ebcc9f1e758050e4afce3ff08" target="_top" xlink:title=" ">
<polygon fill="white" stroke="black" points="153.5,-519 153.5,-549 281.5,-549 281.5,-519 153.5,-519"/>
<text text-anchor="start" x="161.5" y="-537" font-family="Helvetica,sans-Serif" font-size="10.00">test_geometry_reader</text>
<text text-anchor="middle" x="217.5" y="-526" font-family="Helvetica,sans-Serif" font-size="10.00">_file_coord_general_0d</text>
</a>
</g>
</g>
<!-- Node3&#45;&gt;Node7 -->
<g id="edge7" class="edge">
<title>Node3&#45;&gt;Node7</title>
<path fill="none" stroke="midnightblue" d="M397.19,-405C378.73,-431.75 340.5,-481.85 296,-510 290.64,-513.39 284.78,-516.33 278.74,-518.87"/>
<polygon fill="midnightblue" stroke="midnightblue" points="400.17,-406.83 402.87,-396.59 394.37,-402.91 400.17,-406.83"/>
</g>
<!-- Node8 -->
<g id="node8" class="node">
<title>Node8</title>
<g id="a_node8"><a xlink:href="geometry__reader_8f90.html#a33958a3cdab97c9fdcf3b39c1b3269cc" target="_top" xlink:title=" ">
<polygon fill="white" stroke="black" points="155,-470 155,-500 280,-500 280,-470 155,-470"/>
<text text-anchor="start" x="163" y="-488" font-family="Helvetica,sans-Serif" font-size="10.00">test_geometry_reader</text>
<text text-anchor="middle" x="217.5" y="-477" font-family="Helvetica,sans-Serif" font-size="10.00">_file_gen</text>
</a>
</g>
</g>
<!-- Node3&#45;&gt;Node8 -->
<g id="edge9" class="edge">
<title>Node3&#45;&gt;Node8</title>
<path fill="none" stroke="midnightblue" d="M388.63,-402.88C366.76,-419.3 330.5,-444.76 296,-461 288.99,-464.3 281.42,-467.29 273.84,-469.95"/>
<polygon fill="midnightblue" stroke="midnightblue" points="390.97,-405.5 396.8,-396.65 386.73,-399.93 390.97,-405.5"/>
</g>
<!-- Node9 -->
<g id="node9" class="node">
<title>Node9</title>
<g id="a_node9"><a xlink:href="geometry__reader_8f90.html#ae65c3cc2e4be8ed6156790c7fcbc3bd1" target="_top" xlink:title=" ">
<polygon fill="white" stroke="black" points="155,-421 155,-451 280,-451 280,-421 155,-421"/>
<text text-anchor="start" x="163" y="-439" font-family="Helvetica,sans-Serif" font-size="10.00">test_geometry_reader</text>
<text text-anchor="middle" x="217.5" y="-428" font-family="Helvetica,sans-Serif" font-size="10.00">_file_pdb_4qxx</text>
</a>
</g>
</g>
<!-- Node3&#45;&gt;Node9 -->
<g id="edge11" class="edge">
<title>Node3&#45;&gt;Node9</title>
<path fill="none" stroke="midnightblue" d="M361.95,-399.1C336.27,-405.71 304.24,-413.95 276.96,-420.96"/>
<polygon fill="midnightblue" stroke="midnightblue" points="363,-402.44 371.82,-396.56 361.26,-395.67 363,-402.44"/>
</g>
<!-- Node10 -->
<g id="node10" class="node">
<title>Node10</title>
<g id="a_node10"><a xlink:href="geometry__reader_8f90.html#acdd883299c6aaeb3bc0f678733a4f8fe" target="_top" xlink:title=" ">
<polygon fill="white" stroke="black" points="155,-372 155,-402 280,-402 280,-372 155,-372"/>
<text text-anchor="start" x="163" y="-390" font-family="Helvetica,sans-Serif" font-size="10.00">test_geometry_reader</text>
<text text-anchor="middle" x="217.5" y="-379" font-family="Helvetica,sans-Serif" font-size="10.00">_file_pdb_4qxx_noh</text>
</a>
</g>
</g>
<!-- Node3&#45;&gt;Node10 -->
<g id="edge13" class="edge">
<title>Node3&#45;&gt;Node10</title>
<path fill="none" stroke="midnightblue" d="M321.62,-387C307.58,-387 293.31,-387 280.03,-387"/>
<polygon fill="midnightblue" stroke="midnightblue" points="321.79,-390.5 331.79,-387 321.79,-383.5 321.79,-390.5"/>
</g>
<!-- Node11 -->
<g id="node11" class="node">
<title>Node11</title>
<g id="a_node11"><a xlink:href="geometry__reader_8f90.html#a447c657c04f6da62559ff8cbd28179b8" target="_top" xlink:title="test disperion under 3D periodic boundary conditions">
<polygon fill="white" stroke="black" points="155,-323 155,-353 280,-353 280,-323 155,-323"/>
<text text-anchor="start" x="163" y="-341" font-family="Helvetica,sans-Serif" font-size="10.00">test_geometry_reader</text>
<text text-anchor="middle" x="217.5" y="-330" font-family="Helvetica,sans-Serif" font-size="10.00">_file_poscar_sio2_3d</text>
</a>
</g>
</g>
<!-- Node3&#45;&gt;Node11 -->
<g id="edge15" class="edge">
<title>Node3&#45;&gt;Node11</title>
<path fill="none" stroke="midnightblue" d="M361.95,-374.9C336.27,-368.29 304.24,-360.05 276.96,-353.04"/>
<polygon fill="midnightblue" stroke="midnightblue" points="361.26,-378.33 371.82,-377.44 363,-371.56 361.26,-378.33"/>
</g>
<!-- Node12 -->
<g id="node12" class="node">
<title>Node12</title>
<g id="a_node12"><a xlink:href="geometry__reader_8f90.html#a70179301c217963115b29ff25236d430" target="_top" xlink:title=" ">
<polygon fill="white" stroke="black" points="149,-274 149,-304 286,-304 286,-274 149,-274"/>
<text text-anchor="start" x="157" y="-292" font-family="Helvetica,sans-Serif" font-size="10.00">test_geometry_reader</text>
<text text-anchor="middle" x="217.5" y="-281" font-family="Helvetica,sans-Serif" font-size="10.00">_file_sdf_benzen_hquery</text>
</a>
</g>
</g>
<!-- Node3&#45;&gt;Node12 -->
<g id="edge17" class="edge">
<title>Node3&#45;&gt;Node12</title>
<path fill="none" stroke="midnightblue" d="M388.2,-371.17C366.23,-355.05 330.13,-330.18 296,-314 288.34,-310.37 280.01,-307.06 271.75,-304.13"/>
<polygon fill="midnightblue" stroke="midnightblue" points="386.31,-374.14 396.43,-377.29 390.49,-368.52 386.31,-374.14"/>
</g>
<!-- Node13 -->
<g id="node13" class="node">
<title>Node13</title>
<g id="a_node13"><a xlink:href="geometry__reader_8f90.html#adf86dcb44294d357e76e31a08c5f0ded" target="_top" xlink:title=" ">
<polygon fill="white" stroke="black" points="155,-225 155,-255 280,-255 280,-225 155,-225"/>
<text text-anchor="start" x="163" y="-243" font-family="Helvetica,sans-Serif" font-size="10.00">test_geometry_reader</text>
<text text-anchor="middle" x="217.5" y="-232" font-family="Helvetica,sans-Serif" font-size="10.00">_file_sdf_h2o</text>
</a>
</g>
</g>
<!-- Node3&#45;&gt;Node13 -->
<g id="edge19" class="edge">
<title>Node3&#45;&gt;Node13</title>
<path fill="none" stroke="midnightblue" d="M396.84,-368.82C378.17,-342.29 339.98,-293.06 296,-265 290.04,-261.2 283.45,-257.93 276.71,-255.13"/>
<polygon fill="midnightblue" stroke="midnightblue" points="394.04,-370.94 402.6,-377.19 399.81,-366.97 394.04,-370.94"/>
</g>
<!-- Node14 -->
<g id="node14" class="node">
<title>Node14</title>
<g id="a_node14"><a xlink:href="geometry__reader_8f90.html#a680700b05c6e54fbb1e053d471842539" target="_top" xlink:title=" ">
<polygon fill="white" stroke="black" points="155,-176 155,-206 280,-206 280,-176 155,-176"/>
<text text-anchor="start" x="163" y="-194" font-family="Helvetica,sans-Serif" font-size="10.00">test_geometry_reader</text>
<text text-anchor="middle" x="217.5" y="-183" font-family="Helvetica,sans-Serif" font-size="10.00">_file_sdf_h2o_flat</text>
</a>
</g>
</g>
<!-- Node3&#45;&gt;Node14 -->
<g id="edge21" class="edge">
<title>Node3&#45;&gt;Node14</title>
<path fill="none" stroke="midnightblue" d="M401.36,-367.6C386.47,-332.23 350.19,-257.15 296,-216 290.93,-212.15 285.25,-208.89 279.33,-206.11"/>
<polygon fill="midnightblue" stroke="midnightblue" points="398.27,-369.28 405.3,-377.22 404.75,-366.63 398.27,-369.28"/>
</g>
<!-- Node15 -->
<g id="node15" class="node">
<title>Node15</title>
<g id="a_node15"><a xlink:href="geometry__reader_8f90.html#a13b94051100cb2fee8f50563ed9b666f" target="_top" xlink:title=" ">
<polygon fill="white" stroke="black" points="155,-127 155,-157 280,-157 280,-127 155,-127"/>
<text text-anchor="start" x="163" y="-145" font-family="Helvetica,sans-Serif" font-size="10.00">test_geometry_reader</text>
<text text-anchor="middle" x="217.5" y="-134" font-family="Helvetica,sans-Serif" font-size="10.00">_file_xmol_water_0d</text>
</a>
</g>
</g>
<!-- Node3&#45;&gt;Node15 -->
<g id="edge23" class="edge">
<title>Node3&#45;&gt;Node15</title>
<path fill="none" stroke="midnightblue" d="M404.41,-367.49C393.35,-324.78 361.19,-222.37 296,-167 291.26,-162.97 285.86,-159.59 280.16,-156.75"/>
<polygon fill="midnightblue" stroke="midnightblue" points="401.07,-368.58 406.88,-377.44 407.86,-366.89 401.07,-368.58"/>
</g>
<!-- Node16 -->
<g id="node16" class="node">
<title>Node16</title>
<g id="a_node16"><a xlink:href="geometry__reader_8f90.html#a2663766e0f62b9a0573285a0b750036a" target="_top" xlink:title=" ">
<polygon fill="white" stroke="black" points="155,-715 155,-745 280,-745 280,-715 155,-715"/>
<text text-anchor="start" x="163" y="-733" font-family="Helvetica,sans-Serif" font-size="10.00">test_geometry_reader</text>
<text text-anchor="middle" x="217.5" y="-722" font-family="Helvetica,sans-Serif" font-size="10.00">_molfile_benzen</text>
</a>
</g>
</g>
<!-- Node3&#45;&gt;Node16 -->
<g id="edge25" class="edge">
<title>Node3&#45;&gt;Node16</title>
<path fill="none" stroke="midnightblue" d="M407.91,-406.98C403.77,-462.66 384.41,-621.07 296,-706 291.43,-710.39 286.07,-713.98 280.34,-716.91"/>
<polygon fill="midnightblue" stroke="midnightblue" points="411.42,-406.93 408.58,-396.72 404.43,-406.47 411.42,-406.93"/>
</g>
<!-- Node17 -->
<g id="node17" class="node">
<title>Node17</title>
<g id="a_node17"><a xlink:href="geometry__reader_8f90.html#a9bcab70c2d08e30830998a745aad4798" target="_top" xlink:title=" ">
<polygon fill="white" stroke="black" points="155,-666 155,-696 280,-696 280,-666 155,-666"/>
<text text-anchor="start" x="163" y="-684" font-family="Helvetica,sans-Serif" font-size="10.00">test_geometry_reader</text>
<text text-anchor="middle" x="217.5" y="-673" font-family="Helvetica,sans-Serif" font-size="10.00">_molfile_benzen_flat</text>
</a>
</g>
</g>
<!-- Node3&#45;&gt;Node17 -->
<g id="edge27" class="edge">
<title>Node3&#45;&gt;Node17</title>
<path fill="none" stroke="midnightblue" d="M406.52,-406.52C399.19,-455.92 373.12,-586.95 296,-657 291.31,-661.26 285.87,-664.77 280.1,-667.65"/>
<polygon fill="midnightblue" stroke="midnightblue" points="410,-406.91 407.9,-396.53 403.06,-405.95 410,-406.91"/>
</g>
<!-- Node18 -->
<g id="node18" class="node">
<title>Node18</title>
<g id="a_node18"><a xlink:href="namespacextb__prog__info.html#a075fccea4f47f761a7b667bb819253da" target="_top" xlink:title="Main program of the info submodule.">
<polygon fill="white" stroke="black" points="155.5,-0.5 155.5,-19.5 279.5,-19.5 279.5,-0.5 155.5,-0.5"/>
<text text-anchor="middle" x="217.5" y="-7.5" font-family="Helvetica,sans-Serif" font-size="10.00">xtb_prog_info::xtbinfo</text>
</a>
</g>
</g>
<!-- Node3&#45;&gt;Node18 -->
<g id="edge29" class="edge">
<title>Node3&#45;&gt;Node18</title>
<path fill="none" stroke="midnightblue" d="M409.07,-367.15C408.14,-306.72 396.77,-123.39 296,-29 291.25,-24.55 285.63,-21.09 279.62,-18.41"/>
<polygon fill="midnightblue" stroke="midnightblue" points="405.57,-367.27 409.14,-377.24 412.57,-367.22 405.57,-367.27"/>
</g>
<!-- Node20 -->
<g id="node20" class="node">
<title>Node20</title>
<g id="a_node20"><a xlink:href="namespacextb__prog__thermo.html#adb2b1af9c4536efaa8d399da0c89d209" target="_top" xlink:title="Main program of the thermo submodule.">
<polygon fill="white" stroke="black" points="139,-88.5 139,-107.5 296,-107.5 296,-88.5 139,-88.5"/>
<text text-anchor="middle" x="217.5" y="-95.5" font-family="Helvetica,sans-Serif" font-size="10.00">xtb_prog_thermo::xtbthermo</text>
</a>
</g>
</g>
<!-- Node3&#45;&gt;Node20 -->
<g id="edge31" class="edge">
<title>Node3&#45;&gt;Node20</title>
<path fill="none" stroke="midnightblue" d="M406.69,-367.33C399.77,-317.59 374.57,-185.92 296,-118 290.95,-113.64 285.08,-110.21 278.85,-107.52"/>
<polygon fill="midnightblue" stroke="midnightblue" points="403.24,-367.93 407.99,-377.4 410.18,-367.03 403.24,-367.93"/>
</g>
<!-- Node21 -->
<g id="node21" class="node">
<title>Node21</title>
<g id="a_node21"><a xlink:href="namespacextb__prog__topology.html#aa263269ef9a32674220b4f1bfda0c066" target="_top" xlink:title="Main program of the topology submodule.">
<polygon fill="white" stroke="black" points="161,-39 161,-69 274,-69 274,-39 161,-39"/>
<text text-anchor="start" x="169" y="-57" font-family="Helvetica,sans-Serif" font-size="10.00">xtb_prog_topology::</text>
<text text-anchor="middle" x="217.5" y="-46" font-family="Helvetica,sans-Serif" font-size="10.00">xtbtopology</text>
</a>
</g>
</g>
<!-- Node3&#45;&gt;Node21 -->
<g id="edge33" class="edge">
<title>Node3&#45;&gt;Node21</title>
<path fill="none" stroke="midnightblue" d="M407.59,-367.38C402.67,-313.39 381.49,-161.17 296,-79 289.78,-73.02 282.13,-68.48 274.07,-65.02"/>
<polygon fill="midnightblue" stroke="midnightblue" points="404.11,-367.67 408.42,-377.35 411.08,-367.1 404.11,-367.67"/>
</g>
<!-- Node5 -->
<g id="node5" class="node">
<title>Node5</title>
<g id="a_node5"><a xlink:href="tests__peeq_8f90.html#a87ff5319e0d2e627a4f71d7df0d14891" target="_top" xlink:title=" ">
<polygon fill="white" stroke="black" points="14.5,-450.5 14.5,-469.5 88.5,-469.5 88.5,-450.5 14.5,-450.5"/>
<text text-anchor="middle" x="51.5" y="-457.5" font-family="Helvetica,sans-Serif" font-size="10.00">peeq_tester</text>
</a>
</g>
</g>
<!-- Node4&#45;&gt;Node5 -->
<g id="edge4" class="edge">
<title>Node4&#45;&gt;Node5</title>
<path fill="none" stroke="midnightblue" d="M145.54,-612.61C143.26,-611.18 141.08,-609.65 139,-608 90.52,-569.51 63.72,-495.86 55.37,-469.6"/>
<polygon fill="midnightblue" stroke="midnightblue" points="144.23,-615.88 154.68,-617.63 147.59,-609.75 144.23,-615.88"/>
</g>
<!-- Node6&#45;&gt;Node5 -->
<g id="edge6" class="edge">
<title>Node6&#45;&gt;Node5</title>
<path fill="none" stroke="midnightblue" d="M146.6,-563.46C143.98,-562.07 141.44,-560.58 139,-559 101.5,-534.62 70.71,-489.54 58.35,-469.75"/>
<polygon fill="midnightblue" stroke="midnightblue" points="145.24,-566.68 155.77,-567.83 148.25,-560.37 145.24,-566.68"/>
</g>
<!-- Node7&#45;&gt;Node5 -->
<g id="edge8" class="edge">
<title>Node7&#45;&gt;Node5</title>
<path fill="none" stroke="midnightblue" d="M152.57,-515.46C147.94,-513.73 143.37,-511.91 139,-510 112.3,-498.33 83.39,-480.44 66.67,-469.52"/>
<polygon fill="midnightblue" stroke="midnightblue" points="151.56,-518.82 162.15,-518.87 153.9,-512.22 151.56,-518.82"/>
</g>
<!-- Node8&#45;&gt;Node5 -->
<g id="edge10" class="edge">
<title>Node8&#45;&gt;Node5</title>
<path fill="none" stroke="midnightblue" d="M144.89,-474.08C125.44,-471.12 105.19,-468.03 88.63,-465.51"/>
<polygon fill="midnightblue" stroke="midnightblue" points="144.55,-477.57 154.97,-475.62 145.61,-470.65 144.55,-477.57"/>
</g>
<!-- Node9&#45;&gt;Node5 -->
<g id="edge12" class="edge">
<title>Node9&#45;&gt;Node5</title>
<path fill="none" stroke="midnightblue" d="M144.89,-446.48C125.44,-449.33 105.19,-452.29 88.63,-454.71"/>
<polygon fill="midnightblue" stroke="midnightblue" points="145.58,-449.92 154.97,-445 144.56,-442.99 145.58,-449.92"/>
</g>
<!-- Node10&#45;&gt;Node5 -->
<g id="edge14" class="edge">
<title>Node10&#45;&gt;Node5</title>
<path fill="none" stroke="midnightblue" d="M155.58,-405.4C149.92,-407.48 144.32,-409.69 139,-412 113,-423.28 84.58,-439.96 67.66,-450.39"/>
<polygon fill="midnightblue" stroke="midnightblue" points="156.86,-408.66 165.12,-402.02 154.52,-402.06 156.86,-408.66"/>
</g>
<!-- Node11&#45;&gt;Node5 -->
<g id="edge16" class="edge">
<title>Node11&#45;&gt;Node5</title>
<path fill="none" stroke="midnightblue" d="M148.91,-357.31C145.47,-359.06 142.15,-360.95 139,-363 101.94,-387.14 70.92,-431.17 58.42,-450.49"/>
<polygon fill="midnightblue" stroke="midnightblue" points="150.61,-360.38 158.22,-353.02 147.67,-354.03 150.61,-360.38"/>
</g>
<!-- Node12&#45;&gt;Node5 -->
<g id="edge18" class="edge">
<title>Node12&#45;&gt;Node5</title>
<path fill="none" stroke="midnightblue" d="M146.21,-308.92C143.69,-310.49 141.28,-312.18 139,-314 91.35,-352.06 64.2,-424.03 55.56,-450.18"/>
<polygon fill="midnightblue" stroke="midnightblue" points="148,-311.93 155.08,-304.05 144.63,-305.8 148,-311.93"/>
</g>
<!-- Node13&#45;&gt;Node5 -->
<g id="edge20" class="edge">
<title>Node13&#45;&gt;Node5</title>
<path fill="none" stroke="midnightblue" d="M146.09,-259.48C143.59,-261.17 141.22,-263.01 139,-265 80.08,-318.01 59.22,-418.66 53.96,-450.26"/>
<polygon fill="midnightblue" stroke="midnightblue" points="148.12,-262.35 154.98,-254.28 144.58,-256.31 148.12,-262.35"/>
</g>
<!-- Node14&#45;&gt;Node5 -->
<g id="edge22" class="edge">
<title>Node14&#45;&gt;Node5</title>
<path fill="none" stroke="midnightblue" d="M145.89,-210.27C143.45,-212.02 141.14,-213.92 139,-216 68.41,-284.6 55.29,-414.39 52.97,-450.48"/>
<polygon fill="midnightblue" stroke="midnightblue" points="147.94,-213.12 154.64,-204.92 144.28,-207.15 147.94,-213.12"/>
</g>
<!-- Node15&#45;&gt;Node5 -->
<g id="edge24" class="edge">
<title>Node15&#45;&gt;Node5</title>
<path fill="none" stroke="midnightblue" d="M145.91,-161.01C143.45,-162.83 141.13,-164.82 139,-167 56.79,-251.29 52.11,-409.73 52.32,-450.33"/>
<polygon fill="midnightblue" stroke="midnightblue" points="148.15,-163.74 154.77,-155.47 144.44,-157.8 148.15,-163.74"/>
</g>
<!-- Node16&#45;&gt;Node5 -->
<g id="edge26" class="edge">
<title>Node16&#45;&gt;Node5</title>
<path fill="none" stroke="midnightblue" d="M145.9,-711.67C143.45,-709.94 141.14,-708.06 139,-706 67.58,-637.23 55.05,-506.09 52.92,-469.62"/>
<polygon fill="midnightblue" stroke="midnightblue" points="144.27,-714.77 154.65,-716.92 147.88,-708.77 144.27,-714.77"/>
</g>
<!-- Node17&#45;&gt;Node5 -->
<g id="edge28" class="edge">
<title>Node17&#45;&gt;Node5</title>
<path fill="none" stroke="midnightblue" d="M146.09,-662.46C143.59,-660.79 141.22,-658.98 139,-657 79.36,-603.77 58.99,-501.87 53.91,-469.87"/>
<polygon fill="midnightblue" stroke="midnightblue" points="144.56,-665.62 154.98,-667.57 148.05,-659.55 144.56,-665.62"/>
</g>
<!-- Node19 -->
<g id="node19" class="node">
<title>Node19</title>
<g id="a_node19"><a xlink:href="primary_8f90.html#a2a67903cf5be605c5b6d3c362c6a3c5c" target="_top" xlink:title="The primary driver for the xtb program package.">
<polygon fill="white" stroke="black" points="0,-44.5 0,-63.5 103,-63.5 103,-44.5 0,-44.5"/>
<text text-anchor="middle" x="51.5" y="-51.5" font-family="Helvetica,sans-Serif" font-size="10.00">xtb_prog_primary</text>
</a>
</g>
</g>
<!-- Node18&#45;&gt;Node19 -->
<g id="edge30" class="edge">
<title>Node18&#45;&gt;Node19</title>
<path fill="none" stroke="midnightblue" d="M166.43,-21.96C157.29,-24.23 147.85,-26.64 139,-29 120.88,-33.84 100.74,-39.63 84.45,-44.43"/>
<polygon fill="midnightblue" stroke="midnightblue" points="167.32,-25.34 176.2,-19.55 165.65,-18.54 167.32,-25.34"/>
</g>
<!-- Node20&#45;&gt;Node19 -->
<g id="edge32" class="edge">
<title>Node20&#45;&gt;Node19</title>
<path fill="none" stroke="midnightblue" d="M169.23,-85.95C159.24,-83.36 148.77,-80.61 139,-78 121.69,-73.36 102.47,-68.05 86.56,-63.6"/>
<polygon fill="midnightblue" stroke="midnightblue" points="168.46,-89.36 179.02,-88.47 170.21,-82.58 168.46,-89.36"/>
</g>
<!-- Node21&#45;&gt;Node19 -->
<g id="edge34" class="edge">
<title>Node21&#45;&gt;Node19</title>
<path fill="none" stroke="midnightblue" d="M150.68,-54C134.8,-54 118.06,-54 103,-54"/>
<polygon fill="midnightblue" stroke="midnightblue" points="150.98,-57.5 160.98,-54 150.98,-50.5 150.98,-57.5"/>
</g>
<!-- Node22&#45;&gt;Node5 -->
<g id="edge36" class="edge">
<title>Node22&#45;&gt;Node5</title>
<path fill="none" stroke="midnightblue" d="M380.8,-744.71C327.66,-768.36 211.52,-809.31 139,-755 90.73,-718.85 60.27,-516.62 53.8,-469.71"/>
<polygon fill="midnightblue" stroke="midnightblue" points="382.33,-747.87 389.97,-740.53 379.42,-741.5 382.33,-747.87"/>
</g>
</g>
</svg>
