<?xml version="1.0" encoding="UTF-8" standalone="no"?>
<!DOCTYPE svg PUBLIC "-//W3C//DTD SVG 1.1//EN"
 "http://www.w3.org/Graphics/SVG/1.1/DTD/svg11.dtd">
<!-- Generated by graphviz version 2.46.1 (20210215.1649)
 -->
<!-- Title: xtb_gfnff_eg::egtors_nci Pages: 1 -->
<svg width="485pt" height="195pt"
 viewBox="0.00 0.00 485.00 194.91" xmlns="http://www.w3.org/2000/svg" xmlns:xlink="http://www.w3.org/1999/xlink">
<g id="graph0" class="graph" transform="scale(1 1) rotate(0) translate(4 190.91)">
<title>xtb_gfnff_eg::egtors_nci</title>
<polygon fill="white" stroke="transparent" points="-4,4 -4,-190.91 481,-190.91 481,4 -4,4"/>
<!-- Node1 -->
<g id="node1" class="node">
<title>Node1</title>
<g id="a_node1"><a xlink:title=" ">
<polygon fill="#bfbfbf" stroke="black" points="0,-76.5 0,-95.5 119,-95.5 119,-76.5 0,-76.5"/>
<text text-anchor="middle" x="59.5" y="-83.5" font-family="Helvetica,sans-Serif" font-size="10.00">xtb_gfnff_eg::egtors_nci</text>
</a>
</g>
</g>
<!-- Node2 -->
<g id="node2" class="node">
<title>Node2</title>
<g id="a_node2"><a xlink:href="constr_8f90.html#abc3ba680c5057c12990e2e14673a87a6" target="_top" xlink:title=" ">
<polygon fill="white" stroke="black" points="202,-114.5 202,-133.5 245,-133.5 245,-114.5 202,-114.5"/>
<text text-anchor="middle" x="223.5" y="-121.5" font-family="Helvetica,sans-Serif" font-size="10.00">dphidr</text>
</a>
</g>
</g>
<!-- Node1&#45;&gt;Node2 -->
<g id="edge1" class="edge">
<title>Node1&#45;&gt;Node2</title>
<path fill="none" stroke="midnightblue" d="M101.38,-95.59C129.55,-102.2 166.39,-110.84 192.01,-116.85"/>
<polygon fill="midnightblue" stroke="midnightblue" points="191.38,-120.29 201.91,-119.17 192.97,-113.48 191.38,-120.29"/>
</g>
<!-- Node5 -->
<g id="node5" class="node">
<title>Node5</title>
<g id="a_node5"><a xlink:href="namespacextb__gfnff__eg.html#a014b41921217789ad5208cab42b42849" target="_top" xlink:title=" ">
<polygon fill="white" stroke="black" points="155,-38.5 155,-57.5 292,-57.5 292,-38.5 155,-38.5"/>
<text text-anchor="middle" x="223.5" y="-45.5" font-family="Helvetica,sans-Serif" font-size="10.00">xtb_gfnff_eg::gfnffdampt_nci</text>
</a>
</g>
</g>
<!-- Node1&#45;&gt;Node5 -->
<g id="edge4" class="edge">
<title>Node1&#45;&gt;Node5</title>
<path fill="none" stroke="midnightblue" d="M101.38,-76.41C122.85,-71.37 149.36,-65.16 172.1,-59.82"/>
<polygon fill="midnightblue" stroke="midnightblue" points="172.98,-63.21 181.91,-57.52 171.38,-56.4 172.98,-63.21"/>
</g>
<!-- Node6 -->
<g id="node6" class="node">
<title>Node6</title>
<g id="a_node6"><a xlink:href="constr_8f90.html#ae82fbacd108d547258e599e6ee56178b" target="_top" xlink:title=" ">
<polygon fill="white" stroke="black" points="200.5,-76.5 200.5,-95.5 246.5,-95.5 246.5,-76.5 200.5,-76.5"/>
<text text-anchor="middle" x="223.5" y="-83.5" font-family="Helvetica,sans-Serif" font-size="10.00">omega</text>
</a>
</g>
</g>
<!-- Node1&#45;&gt;Node6 -->
<g id="edge5" class="edge">
<title>Node1&#45;&gt;Node6</title>
<path fill="none" stroke="midnightblue" d="M119.44,-86C143.22,-86 169.73,-86 189.92,-86"/>
<polygon fill="midnightblue" stroke="midnightblue" points="190.13,-89.5 200.13,-86 190.13,-82.5 190.13,-89.5"/>
</g>
<!-- Node7 -->
<g id="node7" class="node">
<title>Node7</title>
<g id="a_node7"><a xlink:href="math_8f.html#ac9ee911a71ac94ef47b9d30cb1253cc5" target="_top" xlink:title=" ">
<polygon fill="white" stroke="black" points="200,-152.5 200,-171.5 247,-171.5 247,-152.5 200,-152.5"/>
<text text-anchor="middle" x="223.5" y="-159.5" font-family="Helvetica,sans-Serif" font-size="10.00">valijklff</text>
</a>
</g>
</g>
<!-- Node1&#45;&gt;Node7 -->
<g id="edge8" class="edge">
<title>Node1&#45;&gt;Node7</title>
<path fill="none" stroke="midnightblue" d="M73.65,-95.51C91.37,-107.93 124.23,-129.68 155,-143 166.03,-147.78 178.6,-151.7 189.88,-154.71"/>
<polygon fill="midnightblue" stroke="midnightblue" points="189.23,-158.16 199.79,-157.22 190.95,-151.37 189.23,-158.16"/>
</g>
<!-- Node9 -->
<g id="node9" class="node">
<title>Node9</title>
<g id="a_node9"><a xlink:href="math_8f.html#acd26482df43e25a260c09d58fc43406b" target="_top" xlink:title=" ">
<polygon fill="white" stroke="black" points="206,-0.5 206,-19.5 241,-19.5 241,-0.5 206,-0.5"/>
<text text-anchor="middle" x="223.5" y="-7.5" font-family="Helvetica,sans-Serif" font-size="10.00">vlen</text>
</a>
</g>
</g>
<!-- Node1&#45;&gt;Node9 -->
<g id="edge13" class="edge">
<title>Node1&#45;&gt;Node9</title>
<path fill="none" stroke="midnightblue" d="M73.65,-76.49C91.37,-64.07 124.23,-42.32 155,-29 168.09,-23.33 183.34,-18.87 196.03,-15.7"/>
<polygon fill="midnightblue" stroke="midnightblue" points="197.06,-19.05 205.98,-13.34 195.45,-12.24 197.06,-19.05"/>
</g>
<!-- Node3 -->
<g id="node3" class="node">
<title>Node3</title>
<g id="a_node3"><a xlink:href="constr_8f90.html#a10258b751fb1a02456622523df6e8b49" target="_top" xlink:title=" ">
<polygon fill="white" stroke="black" points="328,-76.5 328,-95.5 387,-95.5 387,-76.5 328,-76.5"/>
<text text-anchor="middle" x="357.5" y="-83.5" font-family="Helvetica,sans-Serif" font-size="10.00">crossprod</text>
</a>
</g>
</g>
<!-- Node2&#45;&gt;Node3 -->
<g id="edge2" class="edge">
<title>Node2&#45;&gt;Node3</title>
<path fill="none" stroke="midnightblue" d="M245.2,-118.24C258.56,-114.51 276.32,-109.51 292,-105 300.47,-102.56 309.55,-99.91 318.14,-97.38"/>
<polygon fill="midnightblue" stroke="midnightblue" points="319.34,-100.68 327.94,-94.49 317.36,-93.96 319.34,-100.68"/>
</g>
<!-- Node4 -->
<g id="node4" class="node">
<title>Node4</title>
<g id="a_node4"><a xlink:href="constr_8f90.html#af5b7bb0960a128b6ee8d53b2f0ba2135" target="_top" xlink:title=" ">
<polygon fill="white" stroke="black" points="423,-133.5 423,-152.5 477,-152.5 477,-133.5 423,-133.5"/>
<text text-anchor="middle" x="450" y="-140.5" font-family="Helvetica,sans-Serif" font-size="10.00">vecnorm</text>
</a>
</g>
</g>
<!-- Node2&#45;&gt;Node4 -->
<g id="edge3" class="edge">
<title>Node2&#45;&gt;Node4</title>
<path fill="none" stroke="midnightblue" d="M245.22,-125.75C283.36,-128.98 365.15,-135.9 412.7,-139.93"/>
<polygon fill="midnightblue" stroke="midnightblue" points="412.6,-143.43 422.86,-140.79 413.19,-136.46 412.6,-143.43"/>
</g>
<!-- Node6&#45;&gt;Node3 -->
<g id="edge6" class="edge">
<title>Node6&#45;&gt;Node3</title>
<path fill="none" stroke="midnightblue" d="M246.59,-86C265.94,-86 294.5,-86 317.66,-86"/>
<polygon fill="midnightblue" stroke="midnightblue" points="317.87,-89.5 327.87,-86 317.87,-82.5 317.87,-89.5"/>
</g>
<!-- Node6&#45;&gt;Node4 -->
<g id="edge7" class="edge">
<title>Node6&#45;&gt;Node4</title>
<path fill="none" stroke="midnightblue" d="M246.78,-80.48C285.33,-71.41 362.69,-55.46 387,-67 411.9,-78.82 430.11,-106.09 440.12,-124.54"/>
<polygon fill="midnightblue" stroke="midnightblue" points="437.04,-126.19 444.72,-133.49 443.26,-122.99 437.04,-126.19"/>
</g>
<!-- Node7&#45;&gt;Node3 -->
<g id="edge9" class="edge">
<title>Node7&#45;&gt;Node3</title>
<path fill="none" stroke="midnightblue" d="M247.05,-158.29C260.65,-155.43 278,-150.63 292,-143 310.94,-132.67 329.03,-115.87 341.21,-103.17"/>
<polygon fill="midnightblue" stroke="midnightblue" points="344.06,-105.24 348.31,-95.53 338.94,-100.48 344.06,-105.24"/>
</g>
<!-- Node7&#45;&gt;Node4 -->
<g id="edge12" class="edge">
<title>Node7&#45;&gt;Node4</title>
<path fill="none" stroke="midnightblue" d="M247.01,-170.04C278.79,-180.18 338.34,-194.73 387,-181 402.49,-176.63 417.93,-167.19 429.53,-158.81"/>
<polygon fill="midnightblue" stroke="midnightblue" points="431.72,-161.54 437.58,-152.71 427.5,-155.95 431.72,-161.54"/>
</g>
<!-- Node8 -->
<g id="node8" class="node">
<title>Node8</title>
<g id="a_node8"><a xlink:href="constr_8f90.html#a5fc70d66b0231afec39209517852b818" target="_top" xlink:title=" ">
<polygon fill="white" stroke="black" points="338,-152.5 338,-171.5 377,-171.5 377,-152.5 338,-152.5"/>
<text text-anchor="middle" x="357.5" y="-159.5" font-family="Helvetica,sans-Serif" font-size="10.00">valijk</text>
</a>
</g>
</g>
<!-- Node7&#45;&gt;Node8 -->
<g id="edge10" class="edge">
<title>Node7&#45;&gt;Node8</title>
<path fill="none" stroke="midnightblue" d="M247.19,-162C269.54,-162 303.74,-162 327.93,-162"/>
<polygon fill="midnightblue" stroke="midnightblue" points="327.94,-165.5 337.94,-162 327.94,-158.5 327.94,-165.5"/>
</g>
<!-- Node8&#45;&gt;Node4 -->
<g id="edge11" class="edge">
<title>Node8&#45;&gt;Node4</title>
<path fill="none" stroke="midnightblue" d="M377.25,-158.06C387.53,-155.91 400.61,-153.16 412.79,-150.6"/>
<polygon fill="midnightblue" stroke="midnightblue" points="413.66,-154 422.72,-148.52 412.22,-147.15 413.66,-154"/>
</g>
</g>
</svg>
