<?xml version="1.0" encoding="UTF-8" standalone="no"?>
<!DOCTYPE svg PUBLIC "-//W3C//DTD SVG 1.1//EN"
 "http://www.w3.org/Graphics/SVG/1.1/DTD/svg11.dtd">
<!-- Generated by graphviz version 2.43.0 (0)
 -->
<!-- Title: xtb_readin::bool2string Pages: 1 -->
<svg width="828pt" height="550pt"
 viewBox="0.00 0.00 828.00 549.50" xmlns="http://www.w3.org/2000/svg" xmlns:xlink="http://www.w3.org/1999/xlink">
<g id="graph0" class="graph" transform="scale(1 1) rotate(0) translate(4 545.5)">
<title>xtb_readin::bool2string</title>
<polygon fill="white" stroke="transparent" points="-4,4 -4,-545.5 824,-545.5 824,4 -4,4"/>
<!-- Node1 -->
<g id="node1" class="node">
<title>Node1</title>
<g id="a_node1"><a xlink:title=" ">
<polygon fill="#bfbfbf" stroke="black" points="691,-213 691,-232 820,-232 820,-213 691,-213"/>
<text text-anchor="middle" x="755.5" y="-220" font-family="Helvetica,sans-Serif" font-size="10.00">xtb_readin::bool2string</text>
</a>
</g>
</g>
<!-- Node2 -->
<g id="node2" class="node">
<title>Node2</title>
<g id="a_node2"><a xlink:href="namespacextb__optimizer.html#a1743159550358c92fb2761af80e15285" target="_top" xlink:title=" ">
<polygon fill="white" stroke="black" points="506,-415 506,-434 629,-434 629,-415 506,-415"/>
<text text-anchor="middle" x="567.5" y="-422" font-family="Helvetica,sans-Serif" font-size="10.00">xtb_optimizer::ancopt</text>
</a>
</g>
</g>
<!-- Node1&#45;&gt;Node2 -->
<g id="edge1" class="edge">
<title>Node1&#45;&gt;Node2</title>
<path fill="none" stroke="midnightblue" d="M749.67,-242.17C739.27,-280.11 711.04,-363.38 655,-405.5 647.38,-411.23 638.38,-415.29 629.11,-418.17"/>
<polygon fill="midnightblue" stroke="midnightblue" points="753.09,-242.9 752.23,-232.34 746.32,-241.13 753.09,-242.9"/>
</g>
<!-- Node12 -->
<g id="node12" class="node">
<title>Node12</title>
<g id="a_node12"><a xlink:href="namespacextb__extern__mopac.html#abf70d4a34b558c9c6fa141710cd6a26b" target="_top" xlink:title=" ">
<polygon fill="white" stroke="black" points="480,-377 480,-396 655,-396 655,-377 480,-377"/>
<text text-anchor="middle" x="567.5" y="-384" font-family="Helvetica,sans-Serif" font-size="10.00">xtb_extern_mopac::checkmopac</text>
</a>
</g>
</g>
<!-- Node1&#45;&gt;Node12 -->
<g id="edge11" class="edge">
<title>Node1&#45;&gt;Node12</title>
<path fill="none" stroke="midnightblue" d="M747,-241.53C733.57,-273.02 702.32,-335.62 655,-367.5 649.26,-371.37 642.87,-374.46 636.23,-376.93"/>
<polygon fill="midnightblue" stroke="midnightblue" points="750.3,-242.72 750.87,-232.14 743.83,-240.05 750.3,-242.72"/>
</g>
<!-- Node13 -->
<g id="node13" class="node">
<title>Node13</title>
<g id="a_node13"><a xlink:href="namespacextb__extern__orca.html#a3fc12de9e8291735f58a709be30fc5f8" target="_top" xlink:title=" ">
<polygon fill="white" stroke="black" points="492.5,-339 492.5,-358 642.5,-358 642.5,-339 492.5,-339"/>
<text text-anchor="middle" x="567.5" y="-346" font-family="Helvetica,sans-Serif" font-size="10.00">xtb_extern_orca::checkorca</text>
</a>
</g>
</g>
<!-- Node1&#45;&gt;Node13 -->
<g id="edge12" class="edge">
<title>Node1&#45;&gt;Node13</title>
<path fill="none" stroke="midnightblue" d="M742.94,-240.6C726.47,-264.82 693.89,-307.29 655,-329.5 648.19,-333.39 640.66,-336.48 632.97,-338.94"/>
<polygon fill="midnightblue" stroke="midnightblue" points="746.02,-242.28 748.62,-232.01 740.19,-238.42 746.02,-242.28"/>
</g>
<!-- Node14 -->
<g id="node14" class="node">
<title>Node14</title>
<g id="a_node14"><a xlink:href="namespacextb__peeq.html#ac2d6fc22b842455765bdb4f69279095c" target="_top" xlink:title=" ">
<polygon fill="white" stroke="black" points="521.5,-301 521.5,-320 613.5,-320 613.5,-301 521.5,-301"/>
<text text-anchor="middle" x="567.5" y="-308" font-family="Helvetica,sans-Serif" font-size="10.00">xtb_peeq::peeq</text>
</a>
</g>
</g>
<!-- Node1&#45;&gt;Node14 -->
<g id="edge13" class="edge">
<title>Node1&#45;&gt;Node14</title>
<path fill="none" stroke="midnightblue" d="M735.87,-238.79C716.82,-254.59 685.75,-278.09 655,-291.5 642.03,-297.15 627.22,-301.2 613.55,-304.06"/>
<polygon fill="midnightblue" stroke="midnightblue" points="738.36,-241.27 743.73,-232.13 733.83,-235.92 738.36,-241.27"/>
</g>
<!-- Node19 -->
<g id="node19" class="node">
<title>Node19</title>
<g id="a_node19"><a xlink:href="namespacextb__setmod.html#a8fd5325a5779e581e47b05a8455aeefb" target="_top" xlink:title=" ">
<polygon fill="white" stroke="black" points="505,-251.5 505,-281.5 630,-281.5 630,-251.5 505,-251.5"/>
<text text-anchor="start" x="513" y="-269.5" font-family="Helvetica,sans-Serif" font-size="10.00">xtb_setmod::write_set</text>
<text text-anchor="middle" x="567.5" y="-258.5" font-family="Helvetica,sans-Serif" font-size="10.00">_embedding</text>
</a>
</g>
</g>
<!-- Node1&#45;&gt;Node19 -->
<g id="edge19" class="edge">
<title>Node1&#45;&gt;Node19</title>
<path fill="none" stroke="midnightblue" d="M704.3,-234.38C681.42,-239.79 654.11,-246.25 630.01,-251.95"/>
<polygon fill="midnightblue" stroke="midnightblue" points="705.22,-237.76 714.14,-232.05 703.6,-230.94 705.22,-237.76"/>
</g>
<!-- Node21 -->
<g id="node21" class="node">
<title>Node21</title>
<g id="a_node21"><a xlink:href="namespacextb__setmod.html#a25b6b6f5e6af77b87c3b9cf046f6fe44" target="_top" xlink:title=" ">
<polygon fill="white" stroke="black" points="490.5,-213 490.5,-232 644.5,-232 644.5,-213 490.5,-213"/>
<text text-anchor="middle" x="567.5" y="-220" font-family="Helvetica,sans-Serif" font-size="10.00">xtb_setmod::write_set_gbsa</text>
</a>
</g>
</g>
<!-- Node1&#45;&gt;Node21 -->
<g id="edge21" class="edge">
<title>Node1&#45;&gt;Node21</title>
<path fill="none" stroke="midnightblue" d="M680.52,-222.5C668.73,-222.5 656.52,-222.5 644.69,-222.5"/>
<polygon fill="midnightblue" stroke="midnightblue" points="680.75,-226 690.75,-222.5 680.75,-219 680.75,-226"/>
</g>
<!-- Node22 -->
<g id="node22" class="node">
<title>Node22</title>
<g id="a_node22"><a xlink:href="namespacextb__setmod.html#ac22bae775b842ecafa07aac45a68fd4f" target="_top" xlink:title=" ">
<polygon fill="white" stroke="black" points="494.5,-175 494.5,-194 640.5,-194 640.5,-175 494.5,-175"/>
<text text-anchor="middle" x="567.5" y="-182" font-family="Helvetica,sans-Serif" font-size="10.00">xtb_setmod::write_set_gfn</text>
</a>
</g>
</g>
<!-- Node1&#45;&gt;Node22 -->
<g id="edge23" class="edge">
<title>Node1&#45;&gt;Node22</title>
<path fill="none" stroke="midnightblue" d="M697.67,-210.89C671.22,-205.49 640.14,-199.14 615.1,-194.02"/>
<polygon fill="midnightblue" stroke="midnightblue" points="697.07,-214.34 707.56,-212.91 698.47,-207.48 697.07,-214.34"/>
</g>
<!-- Node23 -->
<g id="node23" class="node">
<title>Node23</title>
<g id="a_node23"><a xlink:href="namespacextb__setmod.html#ab59428b5771a85c761f944fe5a166b03" target="_top" xlink:title=" ">
<polygon fill="white" stroke="black" points="494.5,-137 494.5,-156 640.5,-156 640.5,-137 494.5,-137"/>
<text text-anchor="middle" x="567.5" y="-144" font-family="Helvetica,sans-Serif" font-size="10.00">xtb_setmod::write_set_md</text>
</a>
</g>
</g>
<!-- Node1&#45;&gt;Node23 -->
<g id="edge25" class="edge">
<title>Node1&#45;&gt;Node23</title>
<path fill="none" stroke="midnightblue" d="M732.53,-207.3C712.99,-194.43 683.22,-176.39 655,-165.5 645.25,-161.74 634.57,-158.63 624.15,-156.1"/>
<polygon fill="midnightblue" stroke="midnightblue" points="730.74,-210.31 741,-212.97 734.64,-204.5 730.74,-210.31"/>
</g>
<!-- Node24 -->
<g id="node24" class="node">
<title>Node24</title>
<g id="a_node24"><a xlink:href="namespacextb__setmod.html#a7b77c420bf4f3f911bb16f9fc6be634e" target="_top" xlink:title=" ">
<polygon fill="white" stroke="black" points="494.5,-99 494.5,-118 640.5,-118 640.5,-99 494.5,-99"/>
<text text-anchor="middle" x="567.5" y="-106" font-family="Helvetica,sans-Serif" font-size="10.00">xtb_setmod::write_set_opt</text>
</a>
</g>
</g>
<!-- Node1&#45;&gt;Node24 -->
<g id="edge27" class="edge">
<title>Node1&#45;&gt;Node24</title>
<path fill="none" stroke="midnightblue" d="M741.18,-204.86C723.81,-183.17 691.32,-146.84 655,-127.5 647.67,-123.6 639.59,-120.5 631.39,-118.03"/>
<polygon fill="midnightblue" stroke="midnightblue" points="738.56,-207.19 747.47,-212.92 744.08,-202.88 738.56,-207.19"/>
</g>
<!-- Node25 -->
<g id="node25" class="node">
<title>Node25</title>
<g id="a_node25"><a xlink:href="namespacextb__setmod.html#a25ef508a73f07241bdd24f3d87662983" target="_top" xlink:title=" ">
<polygon fill="white" stroke="black" points="505,-49.5 505,-79.5 630,-79.5 630,-49.5 505,-49.5"/>
<text text-anchor="start" x="513" y="-67.5" font-family="Helvetica,sans-Serif" font-size="10.00">xtb_setmod::write_set</text>
<text text-anchor="middle" x="567.5" y="-56.5" font-family="Helvetica,sans-Serif" font-size="10.00">_siman</text>
</a>
</g>
</g>
<!-- Node1&#45;&gt;Node25 -->
<g id="edge29" class="edge">
<title>Node1&#45;&gt;Node25</title>
<path fill="none" stroke="midnightblue" d="M745.52,-203.72C730.73,-174.81 698.5,-119.57 655,-89.5 647.54,-84.34 639.02,-80.24 630.31,-76.98"/>
<polygon fill="midnightblue" stroke="midnightblue" points="742.43,-205.37 750.02,-212.77 748.7,-202.26 742.43,-205.37"/>
</g>
<!-- Node26 -->
<g id="node26" class="node">
<title>Node26</title>
<g id="a_node26"><a xlink:href="namespacextb__setmod.html#a9a5fb0977050ae85a922b9c41859c617" target="_top" xlink:title=" ">
<polygon fill="white" stroke="black" points="505,-0.5 505,-30.5 630,-30.5 630,-0.5 505,-0.5"/>
<text text-anchor="start" x="513" y="-18.5" font-family="Helvetica,sans-Serif" font-size="10.00">xtb_setmod::write_set</text>
<text text-anchor="middle" x="567.5" y="-7.5" font-family="Helvetica,sans-Serif" font-size="10.00">_write</text>
</a>
</g>
</g>
<!-- Node1&#45;&gt;Node26 -->
<g id="edge31" class="edge">
<title>Node1&#45;&gt;Node26</title>
<path fill="none" stroke="midnightblue" d="M749.24,-202.78C738.25,-165.37 709.23,-83.99 655,-40.5 647.68,-34.63 639.04,-30.14 630.11,-26.71"/>
<polygon fill="midnightblue" stroke="midnightblue" points="746.01,-204.2 752.09,-212.88 752.75,-202.31 746.01,-204.2"/>
</g>
<!-- Node3 -->
<g id="node3" class="node">
<title>Node3</title>
<g id="a_node3"><a xlink:href="namespacextb__biaspath.html#a17ea22b101e578a3df8d2b58b96811a5" target="_top" xlink:title=" ">
<polygon fill="white" stroke="black" points="311,-456 311,-475 444,-475 444,-456 311,-456"/>
<text text-anchor="middle" x="377.5" y="-463" font-family="Helvetica,sans-Serif" font-size="10.00">xtb_biaspath::bias_path</text>
</a>
</g>
</g>
<!-- Node2&#45;&gt;Node3 -->
<g id="edge2" class="edge">
<title>Node2&#45;&gt;Node3</title>
<path fill="none" stroke="midnightblue" d="M513.01,-436.16C484.27,-442.43 449.28,-450.06 422.19,-455.97"/>
<polygon fill="midnightblue" stroke="midnightblue" points="513.87,-439.56 522.9,-434.01 512.38,-432.72 513.87,-439.56"/>
</g>
<!-- Node4 -->
<g id="node4" class="node">
<title>Node4</title>
<g id="a_node4"><a xlink:href="namespacextb__geoopt.html#a1f0513294f2237b94f355cc4dc5dd867" target="_top" xlink:title=" ">
<polygon fill="white" stroke="black" points="315,-406.5 315,-436.5 440,-436.5 440,-406.5 315,-406.5"/>
<text text-anchor="start" x="323" y="-424.5" font-family="Helvetica,sans-Serif" font-size="10.00">xtb_geoopt::geometry</text>
<text text-anchor="middle" x="377.5" y="-413.5" font-family="Helvetica,sans-Serif" font-size="10.00">_optimization</text>
</a>
</g>
</g>
<!-- Node2&#45;&gt;Node4 -->
<g id="edge3" class="edge">
<title>Node2&#45;&gt;Node4</title>
<path fill="none" stroke="midnightblue" d="M495.95,-423.37C477.62,-423.08 458.03,-422.77 440.2,-422.48"/>
<polygon fill="midnightblue" stroke="midnightblue" points="495.93,-426.87 505.98,-423.53 496.04,-419.88 495.93,-426.87"/>
</g>
<!-- Node5 -->
<g id="node5" class="node">
<title>Node5</title>
<g id="a_node5"><a xlink:href="namespacextb__kopt.html#ada4ab70832f563f46c8ffc8cea64c78b" target="_top" xlink:title=" ">
<polygon fill="white" stroke="black" points="154,-522 154,-541 264,-541 264,-522 154,-522"/>
<text text-anchor="middle" x="209" y="-529" font-family="Helvetica,sans-Serif" font-size="10.00">xtb_kopt::get_rmsd</text>
</a>
</g>
</g>
<!-- Node4&#45;&gt;Node5 -->
<g id="edge4" class="edge">
<title>Node4&#45;&gt;Node5</title>
<path fill="none" stroke="midnightblue" d="M317.12,-441.77C314.97,-443.24 312.92,-444.82 311,-446.5 285.84,-468.48 301.02,-491.54 275,-512.5 270.15,-516.41 264.52,-519.51 258.64,-521.98"/>
<polygon fill="midnightblue" stroke="midnightblue" points="318.99,-444.73 325.76,-436.58 315.38,-438.73 318.99,-444.73"/>
</g>
<!-- Node7 -->
<g id="node7" class="node">
<title>Node7</title>
<g id="a_node7"><a xlink:href="namespacextb__mdoptim.html#ab0ba2195163cd6794115b99516ba5316" target="_top" xlink:title=" ">
<polygon fill="white" stroke="black" points="149.5,-484 149.5,-503 268.5,-503 268.5,-484 149.5,-484"/>
<text text-anchor="middle" x="209" y="-491" font-family="Helvetica,sans-Serif" font-size="10.00">xtb_mdoptim::mdopt</text>
</a>
</g>
</g>
<!-- Node4&#45;&gt;Node7 -->
<g id="edge6" class="edge">
<title>Node4&#45;&gt;Node7</title>
<path fill="none" stroke="midnightblue" d="M322.4,-440.66C318.48,-442.5 314.64,-444.45 311,-446.5 293.34,-456.45 293.05,-465.27 275,-474.5 267.67,-478.25 259.49,-481.37 251.47,-483.92"/>
<polygon fill="midnightblue" stroke="midnightblue" points="323.91,-443.82 331.65,-436.58 321.08,-437.42 323.91,-443.82"/>
</g>
<!-- Node8 -->
<g id="node8" class="node">
<title>Node8</title>
<g id="a_node8"><a xlink:href="namespacextb__modef.html#a39c4cb408b8b02afb7bf83a1d7f13de3" target="_top" xlink:title=" ">
<polygon fill="white" stroke="black" points="143,-446 143,-465 275,-465 275,-446 143,-446"/>
<text text-anchor="middle" x="209" y="-453" font-family="Helvetica,sans-Serif" font-size="10.00">xtb_modef::modefollow</text>
</a>
</g>
</g>
<!-- Node4&#45;&gt;Node8 -->
<g id="edge7" class="edge">
<title>Node4&#45;&gt;Node8</title>
<path fill="none" stroke="midnightblue" d="M304.91,-436.12C288.59,-439.45 271.66,-442.91 256.7,-445.96"/>
<polygon fill="midnightblue" stroke="midnightblue" points="305.88,-439.49 314.97,-434.06 304.48,-432.64 305.88,-439.49"/>
</g>
<!-- Node9 -->
<g id="node9" class="node">
<title>Node9</title>
<g id="a_node9"><a xlink:href="namespacextb__scan.html#abef8f8d0fa299e9e2caf823f3672f14a" target="_top" xlink:title=" ">
<polygon fill="white" stroke="black" points="144,-408 144,-427 274,-427 274,-408 144,-408"/>
<text text-anchor="middle" x="209" y="-415" font-family="Helvetica,sans-Serif" font-size="10.00">xtb_scan::relaxed_scan</text>
</a>
</g>
</g>
<!-- Node4&#45;&gt;Node9 -->
<g id="edge8" class="edge">
<title>Node4&#45;&gt;Node9</title>
<path fill="none" stroke="midnightblue" d="M304.84,-419.78C294.61,-419.53 284.14,-419.28 274.06,-419.04"/>
<polygon fill="midnightblue" stroke="midnightblue" points="304.89,-423.28 314.97,-420.02 305.06,-416.28 304.89,-423.28"/>
</g>
<!-- Node10 -->
<g id="node10" class="node">
<title>Node10</title>
<g id="a_node10"><a xlink:href="namespacextb__screening.html#a7f4004ff0e65127a38b038f0a7cdcc84" target="_top" xlink:title=" ">
<polygon fill="white" stroke="black" points="147.5,-370 147.5,-389 270.5,-389 270.5,-370 147.5,-370"/>
<text text-anchor="middle" x="209" y="-377" font-family="Helvetica,sans-Serif" font-size="10.00">xtb_screening::screen</text>
</a>
</g>
</g>
<!-- Node4&#45;&gt;Node10 -->
<g id="edge9" class="edge">
<title>Node4&#45;&gt;Node10</title>
<path fill="none" stroke="midnightblue" d="M307.04,-403.98C286.82,-398.88 265.48,-393.49 247.97,-389.08"/>
<polygon fill="midnightblue" stroke="midnightblue" points="306.31,-407.4 316.86,-406.46 308.02,-400.62 306.31,-407.4"/>
</g>
<!-- Node11 -->
<g id="node11" class="node">
<title>Node11</title>
<g id="a_node11"><a xlink:href="namespacextb__gfnff__convert.html#adf399b47b9f2a8364327d9d5c38cb2b8" target="_top" xlink:title=" ">
<polygon fill="white" stroke="black" points="155,-320.5 155,-350.5 263,-350.5 263,-320.5 155,-320.5"/>
<text text-anchor="start" x="163" y="-338.5" font-family="Helvetica,sans-Serif" font-size="10.00">xtb_gfnff_convert::</text>
<text text-anchor="middle" x="209" y="-327.5" font-family="Helvetica,sans-Serif" font-size="10.00">struc_convert</text>
</a>
</g>
</g>
<!-- Node4&#45;&gt;Node11 -->
<g id="edge10" class="edge">
<title>Node4&#45;&gt;Node11</title>
<path fill="none" stroke="midnightblue" d="M345.21,-400.76C325.54,-388.21 299.35,-372.39 275,-360.5 267.83,-357 260.04,-353.64 252.42,-350.59"/>
<polygon fill="midnightblue" stroke="midnightblue" points="343.46,-403.79 353.76,-406.27 347.25,-397.91 343.46,-403.79"/>
</g>
<!-- Node6 -->
<g id="node6" class="node">
<title>Node6</title>
<g id="a_node6"><a xlink:href="namespacextb__kopt.html#aed50b40106367857ab2d0bf3a109f62b" target="_top" xlink:title=" ">
<polygon fill="white" stroke="black" points="0,-522 0,-541 107,-541 107,-522 0,-522"/>
<text text-anchor="middle" x="53.5" y="-529" font-family="Helvetica,sans-Serif" font-size="10.00">xtb_kopt::get_kopt</text>
</a>
</g>
</g>
<!-- Node5&#45;&gt;Node6 -->
<g id="edge5" class="edge">
<title>Node5&#45;&gt;Node6</title>
<path fill="none" stroke="midnightblue" d="M143.75,-531.5C131.54,-531.5 118.9,-531.5 107.1,-531.5"/>
<polygon fill="midnightblue" stroke="midnightblue" points="143.88,-535 153.88,-531.5 143.88,-528 143.88,-535"/>
</g>
<!-- Node15 -->
<g id="node15" class="node">
<title>Node15</title>
<g id="a_node15"><a xlink:href="namespacextb__xtb__calculator.html#a75c96263c235c99dfeeda3e865f9898c" target="_top" xlink:title=" ">
<polygon fill="white" stroke="black" points="324,-339.5 324,-369.5 431,-369.5 431,-339.5 324,-339.5"/>
<text text-anchor="start" x="332" y="-357.5" font-family="Helvetica,sans-Serif" font-size="10.00">xtb_xtb_calculator</text>
<text text-anchor="middle" x="377.5" y="-346.5" font-family="Helvetica,sans-Serif" font-size="10.00">::singlepoint</text>
</a>
</g>
</g>
<!-- Node14&#45;&gt;Node15 -->
<g id="edge14" class="edge">
<title>Node14&#45;&gt;Node15</title>
<path fill="none" stroke="midnightblue" d="M511.99,-322.25C501.37,-324.61 490.33,-327.09 480,-329.5 464.09,-333.21 446.82,-337.4 431.12,-341.27"/>
<polygon fill="midnightblue" stroke="midnightblue" points="512.99,-325.62 522,-320.05 511.48,-318.78 512.99,-325.62"/>
</g>
<!-- Node16 -->
<g id="node16" class="node">
<title>Node16</title>
<g id="a_node16"><a xlink:href="TESTSUITE_2gfn0_8f90.html#ac2abd1dbadf75b71866d509eaad7957d" target="_top" xlink:title=" ">
<polygon fill="white" stroke="black" points="338,-301 338,-320 417,-320 417,-301 338,-301"/>
<text text-anchor="middle" x="377.5" y="-308" font-family="Helvetica,sans-Serif" font-size="10.00">test_gfn0_sp</text>
</a>
</g>
</g>
<!-- Node14&#45;&gt;Node16 -->
<g id="edge15" class="edge">
<title>Node14&#45;&gt;Node16</title>
<path fill="none" stroke="midnightblue" d="M511.08,-310.5C480.87,-310.5 444.23,-310.5 417.13,-310.5"/>
<polygon fill="midnightblue" stroke="midnightblue" points="511.47,-314 521.47,-310.5 511.47,-307 511.47,-314"/>
</g>
<!-- Node18 -->
<g id="node18" class="node">
<title>Node18</title>
<g id="a_node18"><a xlink:href="peeq_8f90.html#a5122d9bd07a3f4377ee140a5991d1325" target="_top" xlink:title=" ">
<polygon fill="white" stroke="black" points="337,-263 337,-282 418,-282 418,-263 337,-263"/>
<text text-anchor="middle" x="377.5" y="-270" font-family="Helvetica,sans-Serif" font-size="10.00">test_peeq_sp</text>
</a>
</g>
</g>
<!-- Node14&#45;&gt;Node18 -->
<g id="edge17" class="edge">
<title>Node14&#45;&gt;Node18</title>
<path fill="none" stroke="midnightblue" d="M511.58,-299.4C481.62,-293.34 445.21,-285.98 418.06,-280.5"/>
<polygon fill="midnightblue" stroke="midnightblue" points="510.97,-302.85 521.47,-301.4 512.36,-295.99 510.97,-302.85"/>
</g>
<!-- Node17 -->
<g id="node17" class="node">
<title>Node17</title>
<g id="a_node17"><a xlink:href="tests__peeq_8f90.html#a87ff5319e0d2e627a4f71d7df0d14891" target="_top" xlink:title=" ">
<polygon fill="white" stroke="black" points="172,-276 172,-295 246,-295 246,-276 172,-276"/>
<text text-anchor="middle" x="209" y="-283" font-family="Helvetica,sans-Serif" font-size="10.00">peeq_tester</text>
</a>
</g>
</g>
<!-- Node16&#45;&gt;Node17 -->
<g id="edge16" class="edge">
<title>Node16&#45;&gt;Node17</title>
<path fill="none" stroke="midnightblue" d="M327.8,-303.19C301.68,-299.27 270.04,-294.51 246.13,-290.92"/>
<polygon fill="midnightblue" stroke="midnightblue" points="327.47,-306.68 337.88,-304.7 328.51,-299.76 327.47,-306.68"/>
</g>
<!-- Node18&#45;&gt;Node17 -->
<g id="edge18" class="edge">
<title>Node18&#45;&gt;Node17</title>
<path fill="none" stroke="midnightblue" d="M326.61,-276.39C300.73,-278.42 269.69,-280.84 246.15,-282.68"/>
<polygon fill="midnightblue" stroke="midnightblue" points="326.92,-279.88 336.62,-275.61 326.38,-272.9 326.92,-279.88"/>
</g>
<!-- Node20 -->
<g id="node20" class="node">
<title>Node20</title>
<g id="a_node20"><a xlink:href="namespacextb__setmod.html#a231f7ceb2d188fd5e2b52effdca24ce9" target="_top" xlink:title=" ">
<polygon fill="white" stroke="black" points="315,-137 315,-156 440,-156 440,-137 315,-137"/>
<text text-anchor="middle" x="377.5" y="-144" font-family="Helvetica,sans-Serif" font-size="10.00">xtb_setmod::write_set</text>
</a>
</g>
</g>
<!-- Node19&#45;&gt;Node20 -->
<g id="edge20" class="edge">
<title>Node19&#45;&gt;Node20</title>
<path fill="none" stroke="midnightblue" d="M495.32,-248.94C490.01,-246.72 484.84,-244.25 480,-241.5 439.08,-218.24 401.61,-175.3 386.07,-156.15"/>
<polygon fill="midnightblue" stroke="midnightblue" points="494.41,-252.33 505,-252.65 496.92,-245.8 494.41,-252.33"/>
</g>
<!-- Node21&#45;&gt;Node20 -->
<g id="edge22" class="edge">
<title>Node21&#45;&gt;Node20</title>
<path fill="none" stroke="midnightblue" d="M501.38,-210.39C494.08,-208.38 486.82,-206.1 480,-203.5 446.76,-190.84 411.25,-168.64 392.3,-156.01"/>
<polygon fill="midnightblue" stroke="midnightblue" points="500.78,-213.84 511.33,-212.94 502.52,-207.06 500.78,-213.84"/>
</g>
<!-- Node22&#45;&gt;Node20 -->
<g id="edge24" class="edge">
<title>Node22&#45;&gt;Node20</title>
<path fill="none" stroke="midnightblue" d="M509.06,-172.89C482.33,-167.49 450.91,-161.14 425.6,-156.02"/>
<polygon fill="midnightblue" stroke="midnightblue" points="508.56,-176.36 519.06,-174.91 509.95,-169.5 508.56,-176.36"/>
</g>
<!-- Node23&#45;&gt;Node20 -->
<g id="edge26" class="edge">
<title>Node23&#45;&gt;Node20</title>
<path fill="none" stroke="midnightblue" d="M484.18,-146.5C469.36,-146.5 454.15,-146.5 440.05,-146.5"/>
<polygon fill="midnightblue" stroke="midnightblue" points="484.35,-150 494.35,-146.5 484.35,-143 484.35,-150"/>
</g>
<!-- Node24&#45;&gt;Node20 -->
<g id="edge28" class="edge">
<title>Node24&#45;&gt;Node20</title>
<path fill="none" stroke="midnightblue" d="M509.06,-120.11C482.33,-125.51 450.91,-131.86 425.6,-136.98"/>
<polygon fill="midnightblue" stroke="midnightblue" points="509.95,-123.5 519.06,-118.09 508.56,-116.64 509.95,-123.5"/>
</g>
<!-- Node25&#45;&gt;Node20 -->
<g id="edge30" class="edge">
<title>Node25&#45;&gt;Node20</title>
<path fill="none" stroke="midnightblue" d="M498.01,-82.7C491.85,-84.81 485.77,-87.08 480,-89.5 447.56,-103.08 412.33,-124.53 393.09,-136.88"/>
<polygon fill="midnightblue" stroke="midnightblue" points="499.3,-85.96 507.7,-79.51 497.11,-79.31 499.3,-85.96"/>
</g>
<!-- Node26&#45;&gt;Node20 -->
<g id="edge32" class="edge">
<title>Node26&#45;&gt;Node20</title>
<path fill="none" stroke="midnightblue" d="M495.15,-32.77C489.88,-35.05 484.76,-37.62 480,-40.5 436.62,-66.75 399.35,-116.24 384.9,-136.98"/>
<polygon fill="midnightblue" stroke="midnightblue" points="496.76,-35.9 504.77,-28.97 494.19,-29.39 496.76,-35.9"/>
</g>
</g>
</svg>
