<?xml version="1.0" encoding="UTF-8" standalone="no"?>
<!DOCTYPE svg PUBLIC "-//W3C//DTD SVG 1.1//EN"
 "http://www.w3.org/Graphics/SVG/1.1/DTD/svg11.dtd">
<!-- Generated by graphviz version 2.46.1 (20210215.1649)
 -->
<!-- Title: xtb_setparam::initrand Pages: 1 -->
<svg width="798pt" height="97pt"
 viewBox="0.00 0.00 798.00 96.50" xmlns="http://www.w3.org/2000/svg" xmlns:xlink="http://www.w3.org/1999/xlink">
<g id="graph0" class="graph" transform="scale(1 1) rotate(0) translate(4 92.5)">
<title>xtb_setparam::initrand</title>
<polygon fill="white" stroke="transparent" points="-4,4 -4,-92.5 794,-92.5 794,4 -4,4"/>
<!-- Node1 -->
<g id="node1" class="node">
<title>Node1</title>
<g id="a_node1"><a xlink:title=" ">
<polygon fill="#bfbfbf" stroke="black" points="679,-0.5 679,-19.5 790,-19.5 790,-0.5 679,-0.5"/>
<text text-anchor="middle" x="734.5" y="-7.5" font-family="Helvetica,sans-Serif" font-size="10.00">xtb_setparam::initrand</text>
</a>
</g>
</g>
<!-- Node2 -->
<g id="node2" class="node">
<title>Node2</title>
<g id="a_node2"><a xlink:href="namespacextb__dynamic.html#add5223b8fd66453ad90ee19acdcc8f84" target="_top" xlink:title=" ">
<polygon fill="white" stroke="black" points="536,-19.5 536,-38.5 643,-38.5 643,-19.5 536,-19.5"/>
<text text-anchor="middle" x="589.5" y="-26.5" font-family="Helvetica,sans-Serif" font-size="10.00">xtb_dynamic::mdinitu</text>
</a>
</g>
</g>
<!-- Node1&#45;&gt;Node2 -->
<g id="edge1" class="edge">
<title>Node1&#45;&gt;Node2</title>
<path fill="none" stroke="midnightblue" d="M668.67,-18.61C660.11,-19.75 651.43,-20.9 643.11,-22.01"/>
<polygon fill="midnightblue" stroke="midnightblue" points="669.17,-22.08 678.62,-17.29 668.25,-15.14 669.17,-22.08"/>
</g>
<!-- Node5 -->
<g id="node5" class="node">
<title>Node5</title>
<g id="a_node5"><a xlink:href="namespacextb__prog__main.html#a92b3b61ee04235e6343f652095682529" target="_top" xlink:title=" ">
<polygon fill="white" stroke="black" points="126,-19.5 126,-38.5 244,-38.5 244,-19.5 126,-19.5"/>
<text text-anchor="middle" x="185" y="-26.5" font-family="Helvetica,sans-Serif" font-size="10.00">xtb_prog_main::xtbmain</text>
</a>
</g>
</g>
<!-- Node1&#45;&gt;Node5 -->
<g id="edge7" class="edge">
<title>Node1&#45;&gt;Node5</title>
<path fill="none" stroke="midnightblue" d="M668.86,-8.4C603.72,-7.17 500.34,-6.23 411,-10 354.21,-12.39 289.57,-18.17 244.19,-22.73"/>
<polygon fill="midnightblue" stroke="midnightblue" points="668.91,-11.9 678.98,-8.6 669.05,-4.9 668.91,-11.9"/>
</g>
<!-- Node3 -->
<g id="node3" class="node">
<title>Node3</title>
<g id="a_node3"><a xlink:href="namespacextb__dynamic.html#adbb00c924fbe26c7a6945fed202881e1" target="_top" xlink:title=" ">
<polygon fill="white" stroke="black" points="411,-19.5 411,-38.5 500,-38.5 500,-19.5 411,-19.5"/>
<text text-anchor="middle" x="455.5" y="-26.5" font-family="Helvetica,sans-Serif" font-size="10.00">xtb_dynamic::md</text>
</a>
</g>
</g>
<!-- Node2&#45;&gt;Node3 -->
<g id="edge2" class="edge">
<title>Node2&#45;&gt;Node3</title>
<path fill="none" stroke="midnightblue" d="M525.9,-29C517.27,-29 508.57,-29 500.38,-29"/>
<polygon fill="midnightblue" stroke="midnightblue" points="525.95,-32.5 535.95,-29 525.95,-25.5 525.95,-32.5"/>
</g>
<!-- Node4 -->
<g id="node4" class="node">
<title>Node4</title>
<g id="a_node4"><a xlink:href="namespacextb__gfnff__convert.html#adf399b47b9f2a8364327d9d5c38cb2b8" target="_top" xlink:title=" ">
<polygon fill="white" stroke="black" points="280,-58 280,-88 375,-88 375,-58 280,-58"/>
<text text-anchor="start" x="288" y="-76" font-family="Helvetica,sans-Serif" font-size="10.00">xtb_gfnff_convert::</text>
<text text-anchor="middle" x="327.5" y="-65" font-family="Helvetica,sans-Serif" font-size="10.00">struc_convert</text>
</a>
</g>
</g>
<!-- Node3&#45;&gt;Node4 -->
<g id="edge3" class="edge">
<title>Node3&#45;&gt;Node4</title>
<path fill="none" stroke="midnightblue" d="M417.59,-41.89C403.19,-46.92 386.59,-52.72 371.64,-57.93"/>
<polygon fill="midnightblue" stroke="midnightblue" points="418.87,-45.15 427.16,-38.55 416.57,-38.54 418.87,-45.15"/>
</g>
<!-- Node3&#45;&gt;Node5 -->
<g id="edge6" class="edge">
<title>Node3&#45;&gt;Node5</title>
<path fill="none" stroke="midnightblue" d="M400.55,-29C355.28,-29 290.74,-29 244.29,-29"/>
<polygon fill="midnightblue" stroke="midnightblue" points="400.76,-32.5 410.76,-29 400.76,-25.5 400.76,-32.5"/>
</g>
<!-- Node4&#45;&gt;Node5 -->
<g id="edge4" class="edge">
<title>Node4&#45;&gt;Node5</title>
<path fill="none" stroke="midnightblue" d="M270.04,-55.32C251.82,-49.61 232.31,-43.5 216.68,-38.61"/>
<polygon fill="midnightblue" stroke="midnightblue" points="269.13,-58.7 279.72,-58.35 271.22,-52.02 269.13,-58.7"/>
</g>
<!-- Node6 -->
<g id="node6" class="node">
<title>Node6</title>
<g id="a_node6"><a xlink:href="primary_8f90.html#a2a67903cf5be605c5b6d3c362c6a3c5c" target="_top" xlink:title="The primary driver for the xtb program package.">
<polygon fill="white" stroke="black" points="0,-19.5 0,-38.5 90,-38.5 90,-19.5 0,-19.5"/>
<text text-anchor="middle" x="45" y="-26.5" font-family="Helvetica,sans-Serif" font-size="10.00">xtb_prog_primary</text>
</a>
</g>
</g>
<!-- Node5&#45;&gt;Node6 -->
<g id="edge5" class="edge">
<title>Node5&#45;&gt;Node6</title>
<path fill="none" stroke="midnightblue" d="M115.73,-29C107.06,-29 98.37,-29 90.22,-29"/>
<polygon fill="midnightblue" stroke="midnightblue" points="115.88,-32.5 125.88,-29 115.88,-25.5 115.88,-32.5"/>
</g>
</g>
</svg>
