<?xml version="1.0" encoding="UTF-8" standalone="no"?>
<!DOCTYPE svg PUBLIC "-//W3C//DTD SVG 1.1//EN"
 "http://www.w3.org/Graphics/SVG/1.1/DTD/svg11.dtd">
<!-- Generated by graphviz version 2.43.0 (0)
 -->
<!-- Title: xtb_metadynamic::prob_metadynamic Pages: 1 -->
<svg width="726pt" height="107pt"
 viewBox="0.00 0.00 726.00 107.00" xmlns="http://www.w3.org/2000/svg" xmlns:xlink="http://www.w3.org/1999/xlink">
<g id="graph0" class="graph" transform="scale(1 1) rotate(0) translate(4 103)">
<title>xtb_metadynamic::prob_metadynamic</title>
<polygon fill="white" stroke="transparent" points="-4,4 -4,-103 722,-103 722,4 -4,4"/>
<!-- Node1 -->
<g id="node1" class="node">
<title>Node1</title>
<g id="a_node1"><a xlink:title=" ">
<polygon fill="#bfbfbf" stroke="black" points="0,-14 0,-44 133,-44 133,-14 0,-14"/>
<text text-anchor="start" x="8" y="-32" font-family="Helvetica,sans-Serif" font-size="10.00">xtb_metadynamic::prob</text>
<text text-anchor="middle" x="66.5" y="-21" font-family="Helvetica,sans-Serif" font-size="10.00">_metadynamic</text>
</a>
</g>
</g>
<!-- Node2 -->
<g id="node2" class="node">
<title>Node2</title>
<g id="a_node2"><a xlink:href="namespacextb__lsrmsd.html#a7de6c8c9dfc5be748e05c80b2cb8b092" target="_top" xlink:title=" ">
<polygon fill="white" stroke="black" points="169,-38.5 169,-57.5 270,-57.5 270,-38.5 169,-38.5"/>
<text text-anchor="middle" x="219.5" y="-45.5" font-family="Helvetica,sans-Serif" font-size="10.00">xtb_lsrmsd::rmsd</text>
</a>
</g>
</g>
<!-- Node1&#45;&gt;Node2 -->
<g id="edge1" class="edge">
<title>Node1&#45;&gt;Node2</title>
<path fill="none" stroke="midnightblue" d="M133.29,-37.28C141.77,-38.34 150.41,-39.43 158.78,-40.49"/>
<polygon fill="midnightblue" stroke="midnightblue" points="158.47,-43.97 168.82,-41.75 159.34,-37.03 158.47,-43.97"/>
</g>
<!-- Node8 -->
<g id="node8" class="node">
<title>Node8</title>
<g id="a_node8"><a xlink:href="symmetry__i_8c.html#aa77c823a9fc018ae1d437369708d8727" target="_top" xlink:title=" ">
<polygon fill="white" stroke="black" points="201.5,-0.5 201.5,-19.5 237.5,-19.5 237.5,-0.5 201.5,-0.5"/>
<text text-anchor="middle" x="219.5" y="-7.5" font-family="Helvetica,sans-Serif" font-size="10.00">true</text>
</a>
</g>
</g>
<!-- Node1&#45;&gt;Node8 -->
<g id="edge8" class="edge">
<title>Node1&#45;&gt;Node8</title>
<path fill="none" stroke="midnightblue" d="M133.29,-20.72C153.57,-18.17 174.79,-15.5 190.99,-13.46"/>
<polygon fill="midnightblue" stroke="midnightblue" points="191.84,-16.88 201.32,-12.16 190.96,-9.94 191.84,-16.88"/>
</g>
<!-- Node3 -->
<g id="node3" class="node">
<title>Node3</title>
<g id="a_node3"><a xlink:href="namespacextb__lsrmsd.html#a2089ab1a59ee635dbe99bdc26e653c93" target="_top" xlink:title=" ">
<polygon fill="white" stroke="black" points="307,-60.5 307,-79.5 420,-79.5 420,-60.5 307,-60.5"/>
<text text-anchor="middle" x="363.5" y="-67.5" font-family="Helvetica,sans-Serif" font-size="10.00">xtb_lsrmsd::dstmev</text>
</a>
</g>
</g>
<!-- Node2&#45;&gt;Node3 -->
<g id="edge2" class="edge">
<title>Node2&#45;&gt;Node3</title>
<path fill="none" stroke="midnightblue" d="M270.16,-55.69C278.76,-57.03 287.83,-58.43 296.77,-59.82"/>
<polygon fill="midnightblue" stroke="midnightblue" points="296.38,-63.3 306.8,-61.37 297.45,-56.38 296.38,-63.3"/>
</g>
<!-- Node7 -->
<g id="node7" class="node">
<title>Node7</title>
<g id="a_node7"><a xlink:href="namespacextb__lsrmsd.html#aa8d3e601b87d4dd4b0f010fe884a7898" target="_top" xlink:title=" ">
<polygon fill="white" stroke="black" points="306,-11 306,-41 421,-41 421,-11 306,-11"/>
<text text-anchor="start" x="314" y="-29" font-family="Helvetica,sans-Serif" font-size="10.00">xtb_lsrmsd::rotation</text>
<text text-anchor="middle" x="363.5" y="-18" font-family="Helvetica,sans-Serif" font-size="10.00">_matrix</text>
</a>
</g>
</g>
<!-- Node2&#45;&gt;Node7 -->
<g id="edge7" class="edge">
<title>Node2&#45;&gt;Node7</title>
<path fill="none" stroke="midnightblue" d="M270.16,-40.31C278.44,-39.02 287.15,-37.67 295.77,-36.34"/>
<polygon fill="midnightblue" stroke="midnightblue" points="296.47,-39.77 305.82,-34.78 295.4,-32.85 296.47,-39.77"/>
</g>
<!-- Node4 -->
<g id="node4" class="node">
<title>Node4</title>
<g id="a_node4"><a xlink:href="namespacextb__lsrmsd.html#a50efb5ac3121b59e1b70a31f8f09ec04" target="_top" xlink:title=" ">
<polygon fill="white" stroke="black" points="457,-79.5 457,-98.5 572,-98.5 572,-79.5 457,-79.5"/>
<text text-anchor="middle" x="514.5" y="-86.5" font-family="Helvetica,sans-Serif" font-size="10.00">xtb_lsrmsd::givens4</text>
</a>
</g>
</g>
<!-- Node3&#45;&gt;Node4 -->
<g id="edge3" class="edge">
<title>Node3&#45;&gt;Node4</title>
<path fill="none" stroke="midnightblue" d="M420.41,-77.13C428.95,-78.22 437.85,-79.35 446.6,-80.47"/>
<polygon fill="midnightblue" stroke="midnightblue" points="446.42,-83.97 456.78,-81.77 447.31,-77.03 446.42,-83.97"/>
</g>
<!-- Node6 -->
<g id="node6" class="node">
<title>Node6</title>
<g id="a_node6"><a xlink:href="namespacextb__lsrmsd.html#a41788222f5aa8657d1070e4474cb7668" target="_top" xlink:title=" ">
<polygon fill="white" stroke="black" points="457,-41.5 457,-60.5 572,-60.5 572,-41.5 457,-41.5"/>
<text text-anchor="middle" x="514.5" y="-48.5" font-family="Helvetica,sans-Serif" font-size="10.00">xtb_lsrmsd::svdcmp</text>
</a>
</g>
</g>
<!-- Node3&#45;&gt;Node6 -->
<g id="edge5" class="edge">
<title>Node3&#45;&gt;Node6</title>
<path fill="none" stroke="midnightblue" d="M420.41,-62.87C428.95,-61.78 437.85,-60.65 446.6,-59.53"/>
<polygon fill="midnightblue" stroke="midnightblue" points="447.31,-62.97 456.78,-58.23 446.42,-56.03 447.31,-62.97"/>
</g>
<!-- Node5 -->
<g id="node5" class="node">
<title>Node5</title>
<g id="a_node5"><a xlink:href="namespacextb__lsrmsd.html#a847587107e9240be90b490511caf3fd8" target="_top" xlink:title=" ">
<polygon fill="white" stroke="black" points="608,-60.5 608,-79.5 718,-79.5 718,-60.5 608,-60.5"/>
<text text-anchor="middle" x="663" y="-67.5" font-family="Helvetica,sans-Serif" font-size="10.00">xtb_lsrmsd::pythag</text>
</a>
</g>
</g>
<!-- Node4&#45;&gt;Node5 -->
<g id="edge4" class="edge">
<title>Node4&#45;&gt;Node5</title>
<path fill="none" stroke="midnightblue" d="M572.14,-81.65C580.59,-80.56 589.35,-79.42 597.94,-78.31"/>
<polygon fill="midnightblue" stroke="midnightblue" points="598.45,-81.77 607.92,-77.01 597.55,-74.83 598.45,-81.77"/>
</g>
<!-- Node6&#45;&gt;Node5 -->
<g id="edge6" class="edge">
<title>Node6&#45;&gt;Node5</title>
<path fill="none" stroke="midnightblue" d="M572.14,-58.35C580.59,-59.44 589.35,-60.58 597.94,-61.69"/>
<polygon fill="midnightblue" stroke="midnightblue" points="597.55,-65.17 607.92,-62.99 598.45,-58.23 597.55,-65.17"/>
</g>
</g>
</svg>
