<?xml version="1.0" encoding="UTF-8" standalone="no"?>
<!DOCTYPE svg PUBLIC "-//W3C//DTD SVG 1.1//EN"
 "http://www.w3.org/Graphics/SVG/1.1/DTD/svg11.dtd">
<!-- Generated by graphviz version 2.46.1 (20210215.1649)
 -->
<!-- Title: xtb_thermo::chg_inverted Pages: 1 -->
<svg width="846pt" height="121pt"
 viewBox="0.00 0.00 846.00 120.50" xmlns="http://www.w3.org/2000/svg" xmlns:xlink="http://www.w3.org/1999/xlink">
<g id="graph0" class="graph" transform="scale(1 1) rotate(0) translate(4 116.5)">
<title>xtb_thermo::chg_inverted</title>
<polygon fill="white" stroke="transparent" points="-4,4 -4,-116.5 842,-116.5 842,4 -4,4"/>
<!-- Node1 -->
<g id="node1" class="node">
<title>Node1</title>
<g id="a_node1"><a xlink:title=" ">
<polygon fill="#bfbfbf" stroke="black" points="713,-62.5 713,-81.5 838,-81.5 838,-62.5 713,-62.5"/>
<text text-anchor="middle" x="775.5" y="-69.5" font-family="Helvetica,sans-Serif" font-size="10.00">xtb_thermo::chg_inverted</text>
</a>
</g>
</g>
<!-- Node2 -->
<g id="node2" class="node">
<title>Node2</title>
<g id="a_node2"><a xlink:href="namespacextb__propertyoutput.html#ab05c73b07c03d7c638d4f33e9c488cf8" target="_top" xlink:title=" ">
<polygon fill="white" stroke="black" points="562,-82 562,-112 677,-112 677,-82 562,-82"/>
<text text-anchor="start" x="570" y="-100" font-family="Helvetica,sans-Serif" font-size="10.00">xtb_propertyoutput</text>
<text text-anchor="middle" x="619.5" y="-89" font-family="Helvetica,sans-Serif" font-size="10.00">::print_thermo_sthr_lnq</text>
</a>
</g>
</g>
<!-- Node1&#45;&gt;Node2 -->
<g id="edge1" class="edge">
<title>Node1&#45;&gt;Node2</title>
<path fill="none" stroke="midnightblue" d="M705.93,-83.13C696.33,-84.69 686.56,-86.28 677.22,-87.79"/>
<polygon fill="midnightblue" stroke="midnightblue" points="706.53,-86.58 715.84,-81.52 705.41,-79.67 706.53,-86.58"/>
</g>
<!-- Node3 -->
<g id="node3" class="node">
<title>Node3</title>
<g id="a_node3"><a xlink:href="namespacextb__propertyoutput.html#af4ab9588482fd5bebb0dc92661c49b44" target="_top" xlink:title=" ">
<polygon fill="white" stroke="black" points="564.5,-33 564.5,-63 674.5,-63 674.5,-33 564.5,-33"/>
<text text-anchor="start" x="572.5" y="-51" font-family="Helvetica,sans-Serif" font-size="10.00">xtb_propertyoutput</text>
<text text-anchor="middle" x="619.5" y="-40" font-family="Helvetica,sans-Serif" font-size="10.00">::print_thermo_sthr_ts</text>
</a>
</g>
</g>
<!-- Node1&#45;&gt;Node3 -->
<g id="edge2" class="edge">
<title>Node1&#45;&gt;Node3</title>
<path fill="none" stroke="midnightblue" d="M703.24,-60.89C693.62,-59.4 683.88,-57.88 674.63,-56.44"/>
<polygon fill="midnightblue" stroke="midnightblue" points="702.77,-64.36 713.19,-62.45 703.85,-57.45 702.77,-64.36"/>
</g>
<!-- Node4 -->
<g id="node4" class="node">
<title>Node4</title>
<g id="a_node4"><a xlink:href="namespacextb__propertyoutput.html#aa250913f1797598da5324c3d57611005" target="_top" xlink:title=" ">
<polygon fill="white" stroke="black" points="430,-33 430,-63 526,-63 526,-33 430,-33"/>
<text text-anchor="start" x="438" y="-51" font-family="Helvetica,sans-Serif" font-size="10.00">xtb_propertyoutput</text>
<text text-anchor="middle" x="478" y="-40" font-family="Helvetica,sans-Serif" font-size="10.00">::print_thermo</text>
</a>
</g>
</g>
<!-- Node3&#45;&gt;Node4 -->
<g id="edge3" class="edge">
<title>Node3&#45;&gt;Node4</title>
<path fill="none" stroke="midnightblue" d="M554.05,-48C544.66,-48 535.13,-48 526.16,-48"/>
<polygon fill="midnightblue" stroke="midnightblue" points="554.17,-51.5 564.17,-48 554.17,-44.5 554.17,-51.5"/>
</g>
<!-- Node5 -->
<g id="node5" class="node">
<title>Node5</title>
<g id="a_node5"><a xlink:href="namespacextb__propertyoutput.html#ad782985a4e00b53e23bb10b09058997c" target="_top" xlink:title=" ">
<polygon fill="white" stroke="black" points="298,-77 298,-107 394,-107 394,-77 298,-77"/>
<text text-anchor="start" x="306" y="-95" font-family="Helvetica,sans-Serif" font-size="10.00">xtb_propertyoutput</text>
<text text-anchor="middle" x="346" y="-84" font-family="Helvetica,sans-Serif" font-size="10.00">::main_freq</text>
</a>
</g>
</g>
<!-- Node4&#45;&gt;Node5 -->
<g id="edge4" class="edge">
<title>Node4&#45;&gt;Node5</title>
<path fill="none" stroke="midnightblue" d="M423.14,-66.23C412.65,-69.78 401.76,-73.46 391.62,-76.9"/>
<polygon fill="midnightblue" stroke="midnightblue" points="424.27,-69.54 432.62,-63.02 422.03,-62.91 424.27,-69.54"/>
</g>
<!-- Node8 -->
<g id="node8" class="node">
<title>Node8</title>
<g id="a_node8"><a xlink:href="TESTSUITE_2thermo_8f90.html#a2311074eb38e16a7d479e8e28b792361" target="_top" xlink:title=" ">
<polygon fill="white" stroke="black" points="300,-38.5 300,-57.5 392,-57.5 392,-38.5 300,-38.5"/>
<text text-anchor="middle" x="346" y="-45.5" font-family="Helvetica,sans-Serif" font-size="10.00">test_print_thermo</text>
</a>
</g>
</g>
<!-- Node4&#45;&gt;Node8 -->
<g id="edge7" class="edge">
<title>Node4&#45;&gt;Node8</title>
<path fill="none" stroke="midnightblue" d="M419.53,-48C410.42,-48 401.1,-48 392.31,-48"/>
<polygon fill="midnightblue" stroke="midnightblue" points="419.7,-51.5 429.7,-48 419.7,-44.5 419.7,-51.5"/>
</g>
<!-- Node10 -->
<g id="node10" class="node">
<title>Node10</title>
<g id="a_node10"><a xlink:href="namespacextb__prog__thermo.html#adb2b1af9c4536efaa8d399da0c89d209" target="_top" xlink:title="Main program of the thermo submodule.">
<polygon fill="white" stroke="black" points="126,-0.5 126,-19.5 262,-19.5 262,-0.5 126,-0.5"/>
<text text-anchor="middle" x="194" y="-7.5" font-family="Helvetica,sans-Serif" font-size="10.00">xtb_prog_thermo::xtbthermo</text>
</a>
</g>
</g>
<!-- Node4&#45;&gt;Node10 -->
<g id="edge9" class="edge">
<title>Node4&#45;&gt;Node10</title>
<path fill="none" stroke="midnightblue" d="M419.82,-33.89C411.2,-32.06 402.39,-30.36 394,-29 350.32,-21.95 300.78,-17.2 262.06,-14.22"/>
<polygon fill="midnightblue" stroke="midnightblue" points="419.29,-37.36 429.8,-36.08 420.79,-30.52 419.29,-37.36"/>
</g>
<!-- Node6 -->
<g id="node6" class="node">
<title>Node6</title>
<g id="a_node6"><a xlink:href="namespacextb__prog__main.html#a92b3b61ee04235e6343f652095682529" target="_top" xlink:title=" ">
<polygon fill="white" stroke="black" points="135,-79.5 135,-98.5 253,-98.5 253,-79.5 135,-79.5"/>
<text text-anchor="middle" x="194" y="-86.5" font-family="Helvetica,sans-Serif" font-size="10.00">xtb_prog_main::xtbmain</text>
</a>
</g>
</g>
<!-- Node5&#45;&gt;Node6 -->
<g id="edge5" class="edge">
<title>Node5&#45;&gt;Node6</title>
<path fill="none" stroke="midnightblue" d="M287.76,-90.86C276.45,-90.63 264.57,-90.39 253.23,-90.16"/>
<polygon fill="midnightblue" stroke="midnightblue" points="287.88,-94.36 297.95,-91.06 288.02,-87.36 287.88,-94.36"/>
</g>
<!-- Node7 -->
<g id="node7" class="node">
<title>Node7</title>
<g id="a_node7"><a xlink:href="primary_8f90.html#a2a67903cf5be605c5b6d3c362c6a3c5c" target="_top" xlink:title="The primary driver for the xtb program package.">
<polygon fill="white" stroke="black" points="0,-38.5 0,-57.5 90,-57.5 90,-38.5 0,-38.5"/>
<text text-anchor="middle" x="45" y="-45.5" font-family="Helvetica,sans-Serif" font-size="10.00">xtb_prog_primary</text>
</a>
</g>
</g>
<!-- Node6&#45;&gt;Node7 -->
<g id="edge6" class="edge">
<title>Node6&#45;&gt;Node7</title>
<path fill="none" stroke="midnightblue" d="M149.1,-76.76C127.04,-70.6 100.7,-63.26 80.16,-57.53"/>
<polygon fill="midnightblue" stroke="midnightblue" points="148.33,-80.18 158.91,-79.49 150.21,-73.43 148.33,-80.18"/>
</g>
<!-- Node9 -->
<g id="node9" class="node">
<title>Node9</title>
<g id="a_node9"><a xlink:href="tests__peeq_8f90.html#a87ff5319e0d2e627a4f71d7df0d14891" target="_top" xlink:title=" ">
<polygon fill="white" stroke="black" points="160,-38.5 160,-57.5 228,-57.5 228,-38.5 160,-38.5"/>
<text text-anchor="middle" x="194" y="-45.5" font-family="Helvetica,sans-Serif" font-size="10.00">peeq_tester</text>
</a>
</g>
</g>
<!-- Node8&#45;&gt;Node9 -->
<g id="edge8" class="edge">
<title>Node8&#45;&gt;Node9</title>
<path fill="none" stroke="midnightblue" d="M289.72,-48C269,-48 246.13,-48 228.05,-48"/>
<polygon fill="midnightblue" stroke="midnightblue" points="290,-51.5 300,-48 290,-44.5 290,-51.5"/>
</g>
<!-- Node10&#45;&gt;Node7 -->
<g id="edge10" class="edge">
<title>Node10&#45;&gt;Node7</title>
<path fill="none" stroke="midnightblue" d="M146.15,-22.11C125.67,-27.4 102.01,-33.52 82.83,-38.48"/>
<polygon fill="midnightblue" stroke="midnightblue" points="147.1,-25.48 155.91,-19.59 145.35,-18.7 147.1,-25.48"/>
</g>
</g>
</svg>
