<?xml version="1.0" encoding="UTF-8" standalone="no"?>
<!DOCTYPE svg PUBLIC "-//W3C//DTD SVG 1.1//EN"
 "http://www.w3.org/Graphics/SVG/1.1/DTD/svg11.dtd">
<!-- Generated by graphviz version 2.43.0 (0)
 -->
<!-- Title: xtb_dtrafo::cao2saop Pages: 1 -->
<svg width="253pt" height="66pt"
 viewBox="0.00 0.00 253.00 66.00" xmlns="http://www.w3.org/2000/svg" xmlns:xlink="http://www.w3.org/1999/xlink">
<g id="graph0" class="graph" transform="scale(1 1) rotate(0) translate(4 62)">
<title>xtb_dtrafo::cao2saop</title>
<polygon fill="white" stroke="transparent" points="-4,4 -4,-62 249,-62 249,4 -4,4"/>
<!-- Node1 -->
<g id="node1" class="node">
<title>Node1</title>
<g id="a_node1"><a xlink:title=" ">
<polygon fill="#bfbfbf" stroke="black" points="126,-19.5 126,-38.5 245,-38.5 245,-19.5 126,-19.5"/>
<text text-anchor="middle" x="185.5" y="-26.5" font-family="Helvetica,sans-Serif" font-size="10.00">xtb_dtrafo::cao2saop</text>
</a>
</g>
</g>
<!-- Node2 -->
<g id="node2" class="node">
<title>Node2</title>
<g id="a_node2"><a xlink:href="namespacextb__hlex.html#a9567145f01de2589b8d5a029c45d42db" target="_top" xlink:title=" ">
<polygon fill="white" stroke="black" points="2,-38.5 2,-57.5 88,-57.5 88,-38.5 2,-38.5"/>
<text text-anchor="middle" x="45" y="-45.5" font-family="Helvetica,sans-Serif" font-size="10.00">xtb_hlex::hlex</text>
</a>
</g>
</g>
<!-- Node1&#45;&gt;Node2 -->
<g id="edge1" class="edge">
<title>Node1&#45;&gt;Node2</title>
<path fill="none" stroke="midnightblue" d="M115.59,-38.45C106.18,-39.74 96.76,-41.04 88.03,-42.23"/>
<polygon fill="midnightblue" stroke="midnightblue" points="116.33,-41.88 125.76,-37.06 115.38,-34.95 116.33,-41.88"/>
</g>
<!-- Node3 -->
<g id="node3" class="node">
<title>Node3</title>
<g id="a_node3"><a xlink:href="namespacextb__local.html#a6aafec43f9ac7235a5dfd2c36ed1f56b" target="_top" xlink:title=" ">
<polygon fill="white" stroke="black" points="0,-0.5 0,-19.5 90,-19.5 90,-0.5 0,-0.5"/>
<text text-anchor="middle" x="45" y="-7.5" font-family="Helvetica,sans-Serif" font-size="10.00">xtb_local::local</text>
</a>
</g>
</g>
<!-- Node1&#45;&gt;Node3 -->
<g id="edge2" class="edge">
<title>Node1&#45;&gt;Node3</title>
<path fill="none" stroke="midnightblue" d="M115.62,-19.55C106.94,-18.36 98.26,-17.17 90.12,-16.05"/>
<polygon fill="midnightblue" stroke="midnightblue" points="115.38,-23.05 125.76,-20.94 116.33,-16.12 115.38,-23.05"/>
</g>
</g>
</svg>
