<?xml version="1.0" encoding="UTF-8" standalone="no"?>
<!DOCTYPE svg PUBLIC "-//W3C//DTD SVG 1.1//EN"
 "http://www.w3.org/Graphics/SVG/1.1/DTD/svg11.dtd">
<!-- Generated by graphviz version 2.43.0 (0)
 -->
<!-- Title: xtb_disp_ncoord::erf_count Pages: 1 -->
<svg width="474pt" height="382pt"
 viewBox="0.00 0.00 474.00 382.00" xmlns="http://www.w3.org/2000/svg" xmlns:xlink="http://www.w3.org/1999/xlink">
<g id="graph0" class="graph" transform="scale(1 1) rotate(0) translate(4 378)">
<title>xtb_disp_ncoord::erf_count</title>
<polygon fill="white" stroke="transparent" points="-4,4 -4,-378 470,-378 470,4 -4,4"/>
<!-- Node1 -->
<g id="node1" class="node">
<title>Node1</title>
<g id="a_node1"><a xlink:title=" ">
<polygon fill="#bfbfbf" stroke="black" points="350,-171.5 350,-201.5 466,-201.5 466,-171.5 350,-171.5"/>
<text text-anchor="start" x="358" y="-189.5" font-family="Helvetica,sans-Serif" font-size="10.00">xtb_disp_ncoord::erf</text>
<text text-anchor="middle" x="408" y="-178.5" font-family="Helvetica,sans-Serif" font-size="10.00">_count</text>
</a>
</g>
</g>
<!-- Node2 -->
<g id="node2" class="node">
<title>Node2</title>
<g id="a_node2"><a xlink:href="interfacextb__disp__ncoord_1_1get__d4__cn.html#a14a7f08392f12d0a695e4c10987924b0" target="_top" xlink:title=" ">
<polygon fill="white" stroke="black" points="187.5,-343.5 187.5,-373.5 305.5,-373.5 305.5,-343.5 187.5,-343.5"/>
<text text-anchor="start" x="195.5" y="-361.5" font-family="Helvetica,sans-Serif" font-size="10.00">xtb_disp_ncoord::get</text>
<text text-anchor="middle" x="246.5" y="-350.5" font-family="Helvetica,sans-Serif" font-size="10.00">_d4_cn::dncoord_d4</text>
</a>
</g>
</g>
<!-- Node1&#45;&gt;Node2 -->
<g id="edge1" class="edge">
<title>Node1&#45;&gt;Node2</title>
<path fill="none" stroke="midnightblue" d="M397.57,-211.12C383.89,-243.73 355.55,-301.03 314,-334.5 309.79,-337.89 305.07,-340.82 300.13,-343.35"/>
<polygon fill="midnightblue" stroke="midnightblue" points="400.82,-212.42 401.35,-201.84 394.34,-209.78 400.82,-212.42"/>
</g>
<!-- Node3 -->
<g id="node3" class="node">
<title>Node3</title>
<g id="a_node3"><a xlink:href="interfacextb__disp__ncoord_1_1get__erf__cn.html#a8540dc8b5d96edd78296b9ae139aa716" target="_top" xlink:title=" ">
<polygon fill="white" stroke="black" points="187.5,-294.5 187.5,-324.5 305.5,-324.5 305.5,-294.5 187.5,-294.5"/>
<text text-anchor="start" x="195.5" y="-312.5" font-family="Helvetica,sans-Serif" font-size="10.00">xtb_disp_ncoord::get</text>
<text text-anchor="middle" x="246.5" y="-301.5" font-family="Helvetica,sans-Serif" font-size="10.00">_erf_cn::dncoord_erf</text>
</a>
</g>
</g>
<!-- Node1&#45;&gt;Node3 -->
<g id="edge2" class="edge">
<title>Node1&#45;&gt;Node3</title>
<path fill="none" stroke="midnightblue" d="M390.24,-209.91C373.27,-232.11 345.14,-265.03 314,-285.5 308.87,-288.87 303.21,-291.84 297.42,-294.44"/>
<polygon fill="midnightblue" stroke="midnightblue" points="393.21,-211.79 396.39,-201.69 387.6,-207.6 393.21,-211.79"/>
</g>
<!-- Node4 -->
<g id="node4" class="node">
<title>Node4</title>
<g id="a_node4"><a xlink:href="interfacextb__disp__ncoord_1_1get__d4__cn.html#a95af99865b982d7e8498f565e72fa084" target="_top" xlink:title=" ">
<polygon fill="white" stroke="black" points="187.5,-245.5 187.5,-275.5 305.5,-275.5 305.5,-245.5 187.5,-245.5"/>
<text text-anchor="start" x="195.5" y="-263.5" font-family="Helvetica,sans-Serif" font-size="10.00">xtb_disp_ncoord::get</text>
<text text-anchor="middle" x="246.5" y="-252.5" font-family="Helvetica,sans-Serif" font-size="10.00">_d4_cn::ncoord_d4</text>
</a>
</g>
</g>
<!-- Node1&#45;&gt;Node4 -->
<g id="edge3" class="edge">
<title>Node1&#45;&gt;Node4</title>
<path fill="none" stroke="midnightblue" d="M372.34,-206.71C355.1,-216.35 333.77,-227.67 314,-236.5 307.05,-239.6 299.57,-242.61 292.22,-245.39"/>
<polygon fill="midnightblue" stroke="midnightblue" points="374.47,-209.52 381.46,-201.55 371.03,-203.43 374.47,-209.52"/>
</g>
<!-- Node5 -->
<g id="node5" class="node">
<title>Node5</title>
<g id="a_node5"><a xlink:href="interfacextb__disp__ncoord_1_1get__erf__cn.html#aaf026e926a17ee3572b1be47e2e31913" target="_top" xlink:title=" ">
<polygon fill="white" stroke="black" points="187.5,-196.5 187.5,-226.5 305.5,-226.5 305.5,-196.5 187.5,-196.5"/>
<text text-anchor="start" x="195.5" y="-214.5" font-family="Helvetica,sans-Serif" font-size="10.00">xtb_disp_ncoord::get</text>
<text text-anchor="middle" x="246.5" y="-203.5" font-family="Helvetica,sans-Serif" font-size="10.00">_erf_cn::ncoord_erf</text>
</a>
</g>
</g>
<!-- Node1&#45;&gt;Node5 -->
<g id="edge4" class="edge">
<title>Node1&#45;&gt;Node5</title>
<path fill="none" stroke="midnightblue" d="M339.95,-197.01C328.52,-198.8 316.74,-200.65 305.58,-202.4"/>
<polygon fill="midnightblue" stroke="midnightblue" points="340.53,-200.46 349.87,-195.45 339.45,-193.55 340.53,-200.46"/>
</g>
<!-- Node6 -->
<g id="node6" class="node">
<title>Node6</title>
<g id="a_node6"><a xlink:href="namespacextb__disp__ncoord.html#aa678f920b7ba8cf8de66975462a03b00" target="_top" xlink:title=" ">
<polygon fill="white" stroke="black" points="187,-147.5 187,-177.5 306,-177.5 306,-147.5 187,-147.5"/>
<text text-anchor="start" x="195" y="-165.5" font-family="Helvetica,sans-Serif" font-size="10.00">xtb_disp_ncoord::pbc</text>
<text text-anchor="middle" x="246.5" y="-154.5" font-family="Helvetica,sans-Serif" font-size="10.00">_derfcoord</text>
</a>
</g>
</g>
<!-- Node1&#45;&gt;Node6 -->
<g id="edge5" class="edge">
<title>Node1&#45;&gt;Node6</title>
<path fill="none" stroke="midnightblue" d="M339.73,-176.38C328.56,-174.7 317.05,-172.97 306.11,-171.32"/>
<polygon fill="midnightblue" stroke="midnightblue" points="339.46,-179.88 349.87,-177.9 340.5,-172.95 339.46,-179.88"/>
</g>
<!-- Node8 -->
<g id="node8" class="node">
<title>Node8</title>
<g id="a_node8"><a xlink:href="interfacextb__disp__ncoord_1_1get__d4__cn.html#a49660812434072921db899134b6743c9" target="_top" xlink:title=" ">
<polygon fill="white" stroke="black" points="179,-98.5 179,-128.5 314,-128.5 314,-98.5 179,-98.5"/>
<text text-anchor="start" x="187" y="-116.5" font-family="Helvetica,sans-Serif" font-size="10.00">xtb_disp_ncoord::get</text>
<text text-anchor="middle" x="246.5" y="-105.5" font-family="Helvetica,sans-Serif" font-size="10.00">_d4_cn::pbc_dncoord_d4</text>
</a>
</g>
</g>
<!-- Node1&#45;&gt;Node8 -->
<g id="edge7" class="edge">
<title>Node1&#45;&gt;Node8</title>
<path fill="none" stroke="midnightblue" d="M370.71,-166.52C353.71,-157.48 333.05,-146.96 314,-138.5 306.22,-135.05 297.81,-131.64 289.66,-128.5"/>
<polygon fill="midnightblue" stroke="midnightblue" points="369.27,-169.72 379.74,-171.36 372.58,-163.55 369.27,-169.72"/>
</g>
<!-- Node9 -->
<g id="node9" class="node">
<title>Node9</title>
<g id="a_node9"><a xlink:href="namespacextb__disp__ncoord.html#a3053f4038c013fd9bb4c7169303b7629" target="_top" xlink:title=" ">
<polygon fill="white" stroke="black" points="187,-49.5 187,-79.5 306,-79.5 306,-49.5 187,-49.5"/>
<text text-anchor="start" x="195" y="-67.5" font-family="Helvetica,sans-Serif" font-size="10.00">xtb_disp_ncoord::pbc</text>
<text text-anchor="middle" x="246.5" y="-56.5" font-family="Helvetica,sans-Serif" font-size="10.00">_erfcoord</text>
</a>
</g>
</g>
<!-- Node1&#45;&gt;Node9 -->
<g id="edge8" class="edge">
<title>Node1&#45;&gt;Node9</title>
<path fill="none" stroke="midnightblue" d="M389.8,-163.31C372.68,-141.64 344.6,-109.68 314,-89.5 308.34,-85.77 302.04,-82.48 295.64,-79.63"/>
<polygon fill="midnightblue" stroke="midnightblue" points="387.13,-165.57 396.02,-171.34 392.66,-161.29 387.13,-165.57"/>
</g>
<!-- Node10 -->
<g id="node10" class="node">
<title>Node10</title>
<g id="a_node10"><a xlink:href="interfacextb__disp__ncoord_1_1get__d4__cn.html#af8e5487b727b483d395afd60eee915a1" target="_top" xlink:title=" ">
<polygon fill="white" stroke="black" points="182,-0.5 182,-30.5 311,-30.5 311,-0.5 182,-0.5"/>
<text text-anchor="start" x="190" y="-18.5" font-family="Helvetica,sans-Serif" font-size="10.00">xtb_disp_ncoord::get</text>
<text text-anchor="middle" x="246.5" y="-7.5" font-family="Helvetica,sans-Serif" font-size="10.00">_d4_cn::pbc_ncoord_d4</text>
</a>
</g>
</g>
<!-- Node1&#45;&gt;Node10 -->
<g id="edge10" class="edge">
<title>Node1&#45;&gt;Node10</title>
<path fill="none" stroke="midnightblue" d="M397.24,-161.88C383.32,-129.73 354.85,-73.65 314,-40.5 309.31,-36.69 303.97,-33.43 298.42,-30.63"/>
<polygon fill="midnightblue" stroke="midnightblue" points="394.15,-163.56 401.24,-171.42 400.6,-160.85 394.15,-163.56"/>
</g>
<!-- Node7 -->
<g id="node7" class="node">
<title>Node7</title>
<g id="a_node7"><a xlink:href="interfacextb__disp__ncoord_1_1get__erf__cn.html#ac0c802a2c517bd9d66baef997ec5e309" target="_top" xlink:title=" ">
<polygon fill="white" stroke="black" points="0,-98.5 0,-128.5 143,-128.5 143,-98.5 0,-98.5"/>
<text text-anchor="start" x="8" y="-116.5" font-family="Helvetica,sans-Serif" font-size="10.00">xtb_disp_ncoord::get</text>
<text text-anchor="middle" x="71.5" y="-105.5" font-family="Helvetica,sans-Serif" font-size="10.00">_erf_cn::ncoord_erf_driver</text>
</a>
</g>
</g>
<!-- Node6&#45;&gt;Node7 -->
<g id="edge6" class="edge">
<title>Node6&#45;&gt;Node7</title>
<path fill="none" stroke="midnightblue" d="M182.32,-144.61C163.72,-139.34 143.55,-133.62 125.64,-128.55"/>
<polygon fill="midnightblue" stroke="midnightblue" points="181.61,-148.04 192.18,-147.4 183.51,-141.31 181.61,-148.04"/>
</g>
<!-- Node9&#45;&gt;Node7 -->
<g id="edge9" class="edge">
<title>Node9&#45;&gt;Node7</title>
<path fill="none" stroke="midnightblue" d="M182.32,-82.39C163.72,-87.66 143.55,-93.38 125.64,-98.45"/>
<polygon fill="midnightblue" stroke="midnightblue" points="183.51,-85.69 192.18,-79.6 181.61,-78.96 183.51,-85.69"/>
</g>
</g>
</svg>
