<?xml version="1.0" encoding="UTF-8" standalone="no"?>
<!DOCTYPE svg PUBLIC "-//W3C//DTD SVG 1.1//EN"
 "http://www.w3.org/Graphics/SVG/1.1/DTD/svg11.dtd">
<!-- Generated by graphviz version 2.46.1 (20210215.1649)
 -->
<!-- Title: xtb_modelhessian::mh_lindh_outofp Pages: 1 -->
<!--zoomable 306 -->
<svg id="main" version="1.1" xmlns="http://www.w3.org/2000/svg" xmlns:xlink="http://www.w3.org/1999/xlink" xml:space="preserve" onload="init(evt)">
<style type="text/css"><![CDATA[
.edge:hover path { stroke: red; }
.edge:hover polygon { stroke: red; fill: red; }
]]></style>
<script type="text/javascript"><![CDATA[
var edges = document.getElementsByTagName('g');
if (edges && edges.length) {
  for (var i=0;i<edges.length;i++) {
    if (edges[i].id.substr(0,4)=='edge') {
      edges[i].setAttribute('class','edge');
    }
  }
}
]]></script>
        <defs>
                <circle id="rim" cx="0" cy="0" r="7"/>
                <circle id="rim2" cx="0" cy="0" r="3.5"/>
                <g id="zoomPlus">
                        <use xlink:href="#rim" fill="#404040">
                                <set attributeName="fill" to="#808080" begin="zoomplus.mouseover" end="zoomplus.mouseout"/>
                        </use>
                        <path d="M-4,0h8M0,-4v8" fill="none" stroke="white" stroke-width="1.5" pointer-events="none"/>
                </g>
                <g id="zoomMin">
                        <use xlink:href="#rim" fill="#404040">
                                <set attributeName="fill" to="#808080" begin="zoomminus.mouseover" end="zoomminus.mouseout"/>
                        </use>
                        <path d="M-4,0h8" fill="none" stroke="white" stroke-width="1.5" pointer-events="none"/>
                </g>
                <g id="dirArrow">
                        <path fill="none" stroke="white" stroke-width="1.5" d="M0,-3.0v7 M-2.5,-0.5L0,-3.0L2.5,-0.5"/>
                </g>
               <g id="resetDef">
                       <use xlink:href="#rim2" fill="#404040">
                               <set attributeName="fill" to="#808080" begin="reset.mouseover" end="reset.mouseout"/>
                       </use>
               </g>
        </defs>

<script type="text/javascript">
var viewWidth = 1296;
var viewHeight = 306;
var sectionId = 'dynsection-19';
</script>
<script xlink:href="svgpan.js"/>
<svg id="graph" class="graph">
<g id="viewport">
<title>xtb_modelhessian::mh_lindh_outofp</title>
<polygon fill="white" stroke="transparent" points="-4,4 -4,-301.5 1292,-301.5 1292,4 -4,4"/>
<!-- Node1 -->
<g id="node1" class="node">
<title>Node1</title>
<g id="a_node1"><a xlink:title=" ">
<polygon fill="#bfbfbf" stroke="black" points="1175,-164.5 1175,-194.5 1288,-194.5 1288,-164.5 1175,-164.5"/>
<text text-anchor="start" x="1183" y="-182.5" font-family="Helvetica,sans-Serif" font-size="10.00">xtb_modelhessian::mh</text>
<text text-anchor="middle" x="1231.5" y="-171.5" font-family="Helvetica,sans-Serif" font-size="10.00">_lindh_outofp</text>
</a>
</g>
</g>
<!-- Node2 -->
<g id="node2" class="node">
<title>Node2</title>
<g id="a_node2"><a xlink:href="namespacextb__modelhessian.html#a6bc2a8d29739cdd126d59aafcd2dee6d" target="_top" xlink:title=" ">
<polygon fill="white" stroke="black" points="1026,-189.5 1026,-219.5 1139,-219.5 1139,-189.5 1026,-189.5"/>
<text text-anchor="start" x="1034" y="-207.5" font-family="Helvetica,sans-Serif" font-size="10.00">xtb_modelhessian::mh</text>
<text text-anchor="middle" x="1082.5" y="-196.5" font-family="Helvetica,sans-Serif" font-size="10.00">_lindh</text>
</a>
</g>
</g>
<!-- Node1&#45;&gt;Node2 -->
<g id="edge1" class="edge">
<title>Node1&#45;&gt;Node2</title>
<path fill="none" stroke="midnightblue" d="M1164.92,-190.65C1156.32,-192.12 1147.57,-193.6 1139.15,-195.04"/>
<polygon fill="midnightblue" stroke="midnightblue" points="1165.65,-194.08 1174.93,-188.95 1164.48,-187.18 1165.65,-194.08"/>
</g>
<!-- Node18 -->
<g id="node18" class="node">
<title>Node18</title>
<g id="a_node18"><a xlink:href="namespacextb__modelhessian.html#aeac126ed2b182b5b9b95cc656eeebdd8" target="_top" xlink:title=" ">
<polygon fill="white" stroke="black" points="1026,-140.5 1026,-170.5 1139,-170.5 1139,-140.5 1026,-140.5"/>
<text text-anchor="start" x="1034" y="-158.5" font-family="Helvetica,sans-Serif" font-size="10.00">xtb_modelhessian::mh</text>
<text text-anchor="middle" x="1082.5" y="-147.5" font-family="Helvetica,sans-Serif" font-size="10.00">_lindh_d2</text>
</a>
</g>
</g>
<!-- Node1&#45;&gt;Node18 -->
<g id="edge26" class="edge">
<title>Node1&#45;&gt;Node18</title>
<path fill="none" stroke="midnightblue" d="M1164.92,-168.79C1156.32,-167.39 1147.57,-165.96 1139.15,-164.59"/>
<polygon fill="midnightblue" stroke="midnightblue" points="1164.49,-172.27 1174.93,-170.43 1165.62,-165.36 1164.49,-172.27"/>
</g>
<!-- Node3 -->
<g id="node3" class="node">
<title>Node3</title>
<g id="a_node3"><a xlink:href="namespacextb__optimizer.html#a9fc9ad9955c0a2ef4872d25495d02901" target="_top" xlink:title=" ">
<polygon fill="white" stroke="black" points="877,-170 877,-189 990,-189 990,-170 877,-170"/>
<text text-anchor="middle" x="933.5" y="-177" font-family="Helvetica,sans-Serif" font-size="10.00">xtb_optimizer::modhes</text>
</a>
</g>
</g>
<!-- Node2&#45;&gt;Node3 -->
<g id="edge2" class="edge">
<title>Node2&#45;&gt;Node3</title>
<path fill="none" stroke="midnightblue" d="M1015.92,-193.35C1007.32,-191.88 998.57,-190.4 990.15,-188.96"/>
<polygon fill="midnightblue" stroke="midnightblue" points="1015.48,-196.82 1025.93,-195.05 1016.65,-189.92 1015.48,-196.82"/>
</g>
<!-- Node4 -->
<g id="node4" class="node">
<title>Node4</title>
<g id="a_node4"><a xlink:href="namespacextb__optimizer.html#a1743159550358c92fb2761af80e15285" target="_top" xlink:title=" ">
<polygon fill="white" stroke="black" points="732.5,-214 732.5,-233 839.5,-233 839.5,-214 732.5,-214"/>
<text text-anchor="middle" x="786" y="-221" font-family="Helvetica,sans-Serif" font-size="10.00">xtb_optimizer::ancopt</text>
</a>
</g>
</g>
<!-- Node3&#45;&gt;Node4 -->
<g id="edge3" class="edge">
<title>Node3&#45;&gt;Node4</title>
<path fill="none" stroke="midnightblue" d="M891.07,-192.03C868.01,-199 839.76,-207.55 818.51,-213.97"/>
<polygon fill="midnightblue" stroke="midnightblue" points="892.37,-195.29 900.93,-189.05 890.34,-188.59 892.37,-195.29"/>
</g>
<!-- Node16 -->
<g id="node16" class="node">
<title>Node16</title>
<g id="a_node16"><a xlink:href="namespacextb__relaxation__engine.html#a930f6aac4b13eab0de82f2b71bcde96b" target="_top" xlink:title="frontend implementation of the fast inertial relaxation engine">
<polygon fill="white" stroke="black" points="731,-164.5 731,-194.5 841,-194.5 841,-164.5 731,-164.5"/>
<text text-anchor="start" x="739" y="-182.5" font-family="Helvetica,sans-Serif" font-size="10.00">xtb_relaxation_engine</text>
<text text-anchor="middle" x="786" y="-171.5" font-family="Helvetica,sans-Serif" font-size="10.00">::fire</text>
</a>
</g>
</g>
<!-- Node3&#45;&gt;Node16 -->
<g id="edge22" class="edge">
<title>Node3&#45;&gt;Node16</title>
<path fill="none" stroke="midnightblue" d="M866.39,-179.5C857.9,-179.5 849.28,-179.5 841.01,-179.5"/>
<polygon fill="midnightblue" stroke="midnightblue" points="866.66,-183 876.66,-179.5 866.66,-176 866.66,-183"/>
</g>
<!-- Node17 -->
<g id="node17" class="node">
<title>Node17</title>
<g id="a_node17"><a xlink:href="namespacextb__relaxation__engine.html#a93ca131c43cfa21276f1bc353c189423" target="_top" xlink:title="frontend implementation of the low memory/linear scaling (by taste)">
<polygon fill="white" stroke="black" points="731,-115.5 731,-145.5 841,-145.5 841,-115.5 731,-115.5"/>
<text text-anchor="start" x="739" y="-133.5" font-family="Helvetica,sans-Serif" font-size="10.00">xtb_relaxation_engine</text>
<text text-anchor="middle" x="786" y="-122.5" font-family="Helvetica,sans-Serif" font-size="10.00">::l_ancopt</text>
</a>
</g>
</g>
<!-- Node3&#45;&gt;Node17 -->
<g id="edge24" class="edge">
<title>Node3&#45;&gt;Node17</title>
<path fill="none" stroke="midnightblue" d="M894.46,-166.69C875.22,-160.21 851.75,-152.3 831.65,-145.54"/>
<polygon fill="midnightblue" stroke="midnightblue" points="893.51,-170.06 904.1,-169.94 895.74,-163.43 893.51,-170.06"/>
</g>
<!-- Node5 -->
<g id="node5" class="node">
<title>Node5</title>
<g id="a_node5"><a xlink:href="namespacextb__biaspath.html#a17ea22b101e578a3df8d2b58b96811a5" target="_top" xlink:title=" ">
<polygon fill="white" stroke="black" points="280,-278 280,-297 398,-297 398,-278 280,-278"/>
<text text-anchor="middle" x="339" y="-285" font-family="Helvetica,sans-Serif" font-size="10.00">xtb_biaspath::bias_path</text>
</a>
</g>
</g>
<!-- Node4&#45;&gt;Node5 -->
<g id="edge4" class="edge">
<title>Node4&#45;&gt;Node5</title>
<path fill="none" stroke="midnightblue" d="M722,-233.13C674.92,-240.28 608.96,-250.18 551,-258.5 499.39,-265.91 440.62,-273.95 398.24,-279.68"/>
<polygon fill="midnightblue" stroke="midnightblue" points="722.69,-236.57 732.05,-231.6 721.64,-229.64 722.69,-236.57"/>
</g>
<!-- Node8 -->
<g id="node8" class="node">
<title>Node8</title>
<g id="a_node8"><a xlink:href="namespacextb__geoopt.html#a1f0513294f2237b94f355cc4dc5dd867" target="_top" xlink:title=" ">
<polygon fill="white" stroke="black" points="587,-139.5 587,-169.5 695,-169.5 695,-139.5 587,-139.5"/>
<text text-anchor="start" x="595" y="-157.5" font-family="Helvetica,sans-Serif" font-size="10.00">xtb_geoopt::geometry</text>
<text text-anchor="middle" x="641" y="-146.5" font-family="Helvetica,sans-Serif" font-size="10.00">_optimization</text>
</a>
</g>
</g>
<!-- Node4&#45;&gt;Node8 -->
<g id="edge7" class="edge">
<title>Node4&#45;&gt;Node8</title>
<path fill="none" stroke="midnightblue" d="M747.02,-210.24C741.59,-208.12 736.11,-205.84 731,-203.5 708.86,-193.38 684.73,-179.93 667.19,-169.68"/>
<polygon fill="midnightblue" stroke="midnightblue" points="746.06,-213.63 756.65,-213.9 748.54,-207.08 746.06,-213.63"/>
</g>
<!-- Node6 -->
<g id="node6" class="node">
<title>Node6</title>
<g id="a_node6"><a xlink:href="namespacextb__prog__main.html#a92b3b61ee04235e6343f652095682529" target="_top" xlink:title=" ">
<polygon fill="white" stroke="black" points="126,-145 126,-164 244,-164 244,-145 126,-145"/>
<text text-anchor="middle" x="185" y="-152" font-family="Helvetica,sans-Serif" font-size="10.00">xtb_prog_main::xtbmain</text>
</a>
</g>
</g>
<!-- Node5&#45;&gt;Node6 -->
<g id="edge5" class="edge">
<title>Node5&#45;&gt;Node6</title>
<path fill="none" stroke="midnightblue" d="M298.14,-273.93C291.8,-270.96 285.52,-267.49 280,-263.5 239.9,-234.52 205.6,-185.16 192.11,-164.29"/>
<polygon fill="midnightblue" stroke="midnightblue" points="296.82,-277.17 307.39,-277.92 299.6,-270.74 296.82,-277.17"/>
</g>
<!-- Node7 -->
<g id="node7" class="node">
<title>Node7</title>
<g id="a_node7"><a xlink:href="primary_8f90.html#a2a67903cf5be605c5b6d3c362c6a3c5c" target="_top" xlink:title="The primary driver for the xtb program package.">
<polygon fill="white" stroke="black" points="0,-145 0,-164 90,-164 90,-145 0,-145"/>
<text text-anchor="middle" x="45" y="-152" font-family="Helvetica,sans-Serif" font-size="10.00">xtb_prog_primary</text>
</a>
</g>
</g>
<!-- Node6&#45;&gt;Node7 -->
<g id="edge6" class="edge">
<title>Node6&#45;&gt;Node7</title>
<path fill="none" stroke="midnightblue" d="M115.73,-154.5C107.06,-154.5 98.37,-154.5 90.22,-154.5"/>
<polygon fill="midnightblue" stroke="midnightblue" points="115.88,-158 125.88,-154.5 115.88,-151 115.88,-158"/>
</g>
<!-- Node8&#45;&gt;Node6 -->
<g id="edge21" class="edge">
<title>Node8&#45;&gt;Node6</title>
<path fill="none" stroke="midnightblue" d="M621.29,-177.68C604.95,-195.95 579.43,-220.01 551,-230.5 438,-272.18 393.55,-270.66 280,-230.5 242.21,-217.13 208.48,-181.41 193.79,-164.13"/>
<polygon fill="midnightblue" stroke="midnightblue" points="624.24,-179.63 628.13,-169.77 618.94,-175.05 624.24,-179.63"/>
</g>
<!-- Node9 -->
<g id="node9" class="node">
<title>Node9</title>
<g id="a_node9"><a xlink:href="namespacextb__kopt.html#ada4ab70832f563f46c8ffc8cea64c78b" target="_top" xlink:title=" ">
<polygon fill="white" stroke="black" points="443.5,-202 443.5,-221 541.5,-221 541.5,-202 443.5,-202"/>
<text text-anchor="middle" x="492.5" y="-209" font-family="Helvetica,sans-Serif" font-size="10.00">xtb_kopt::get_rmsd</text>
</a>
</g>
</g>
<!-- Node8&#45;&gt;Node9 -->
<g id="edge8" class="edge">
<title>Node8&#45;&gt;Node9</title>
<path fill="none" stroke="midnightblue" d="M591.6,-173.33C567.05,-182.88 538.28,-194.08 518.27,-201.86"/>
<polygon fill="midnightblue" stroke="midnightblue" points="593.07,-176.51 601.13,-169.63 590.54,-169.99 593.07,-176.51"/>
</g>
<!-- Node11 -->
<g id="node11" class="node">
<title>Node11</title>
<g id="a_node11"><a xlink:href="namespacextb__mdoptim.html#ab0ba2195163cd6794115b99516ba5316" target="_top" xlink:title=" ">
<polygon fill="white" stroke="black" points="287,-164 287,-183 391,-183 391,-164 287,-164"/>
<text text-anchor="middle" x="339" y="-171" font-family="Helvetica,sans-Serif" font-size="10.00">xtb_mdoptim::mdopt</text>
</a>
</g>
</g>
<!-- Node8&#45;&gt;Node11 -->
<g id="edge11" class="edge">
<title>Node8&#45;&gt;Node11</title>
<path fill="none" stroke="midnightblue" d="M576.7,-158.51C521.55,-162 442.57,-167 391.29,-170.25"/>
<polygon fill="midnightblue" stroke="midnightblue" points="576.95,-162 586.71,-157.87 576.51,-155.01 576.95,-162"/>
</g>
<!-- Node12 -->
<g id="node12" class="node">
<title>Node12</title>
<g id="a_node12"><a xlink:href="namespacextb__modef.html#a39c4cb408b8b02afb7bf83a1d7f13de3" target="_top" xlink:title=" ">
<polygon fill="white" stroke="black" points="281,-126 281,-145 397,-145 397,-126 281,-126"/>
<text text-anchor="middle" x="339" y="-133" font-family="Helvetica,sans-Serif" font-size="10.00">xtb_modef::modefollow</text>
</a>
</g>
</g>
<!-- Node8&#45;&gt;Node12 -->
<g id="edge13" class="edge">
<title>Node8&#45;&gt;Node12</title>
<path fill="none" stroke="midnightblue" d="M576.4,-150.47C523.32,-147.11 448.33,-142.36 397.13,-139.12"/>
<polygon fill="midnightblue" stroke="midnightblue" points="576.51,-153.99 586.71,-151.13 576.95,-147 576.51,-153.99"/>
</g>
<!-- Node13 -->
<g id="node13" class="node">
<title>Node13</title>
<g id="a_node13"><a xlink:href="namespacextb__scan.html#abef8f8d0fa299e9e2caf823f3672f14a" target="_top" xlink:title=" ">
<polygon fill="white" stroke="black" points="434,-88 434,-107 551,-107 551,-88 434,-88"/>
<text text-anchor="middle" x="492.5" y="-95" font-family="Helvetica,sans-Serif" font-size="10.00">xtb_scan::relaxed_scan</text>
</a>
</g>
</g>
<!-- Node8&#45;&gt;Node13 -->
<g id="edge15" class="edge">
<title>Node8&#45;&gt;Node13</title>
<path fill="none" stroke="midnightblue" d="M591.6,-135.67C567.05,-126.12 538.28,-114.92 518.27,-107.14"/>
<polygon fill="midnightblue" stroke="midnightblue" points="590.54,-139.01 601.13,-139.37 593.07,-132.49 590.54,-139.01"/>
</g>
<!-- Node14 -->
<g id="node14" class="node">
<title>Node14</title>
<g id="a_node14"><a xlink:href="namespacextb__screening.html#a7f4004ff0e65127a38b038f0a7cdcc84" target="_top" xlink:title=" ">
<polygon fill="white" stroke="black" points="437.5,-50 437.5,-69 547.5,-69 547.5,-50 437.5,-50"/>
<text text-anchor="middle" x="492.5" y="-57" font-family="Helvetica,sans-Serif" font-size="10.00">xtb_screening::screen</text>
</a>
</g>
</g>
<!-- Node8&#45;&gt;Node14 -->
<g id="edge17" class="edge">
<title>Node8&#45;&gt;Node14</title>
<path fill="none" stroke="midnightblue" d="M618.73,-132.12C601.75,-115.36 576.64,-92.94 551,-78.5 544.4,-74.79 536.97,-71.66 529.69,-69.08"/>
<polygon fill="midnightblue" stroke="midnightblue" points="616.4,-134.74 625.93,-139.37 621.36,-129.81 616.4,-134.74"/>
</g>
<!-- Node15 -->
<g id="node15" class="node">
<title>Node15</title>
<g id="a_node15"><a xlink:href="namespacextb__gfnff__convert.html#adf399b47b9f2a8364327d9d5c38cb2b8" target="_top" xlink:title=" ">
<polygon fill="white" stroke="black" points="445,-0.5 445,-30.5 540,-30.5 540,-0.5 445,-0.5"/>
<text text-anchor="start" x="453" y="-18.5" font-family="Helvetica,sans-Serif" font-size="10.00">xtb_gfnff_convert::</text>
<text text-anchor="middle" x="492.5" y="-7.5" font-family="Helvetica,sans-Serif" font-size="10.00">struc_convert</text>
</a>
</g>
</g>
<!-- Node8&#45;&gt;Node15 -->
<g id="edge19" class="edge">
<title>Node8&#45;&gt;Node15</title>
<path fill="none" stroke="midnightblue" d="M626.36,-130.62C610.88,-105.35 583.53,-65.7 551,-40.5 546.18,-36.77 540.72,-33.47 535.13,-30.6"/>
<polygon fill="midnightblue" stroke="midnightblue" points="623.37,-132.45 631.51,-139.23 629.38,-128.85 623.37,-132.45"/>
</g>
<!-- Node10 -->
<g id="node10" class="node">
<title>Node10</title>
<g id="a_node10"><a xlink:href="namespacextb__kopt.html#aed50b40106367857ab2d0bf3a109f62b" target="_top" xlink:title=" ">
<polygon fill="white" stroke="black" points="291.5,-202 291.5,-221 386.5,-221 386.5,-202 291.5,-202"/>
<text text-anchor="middle" x="339" y="-209" font-family="Helvetica,sans-Serif" font-size="10.00">xtb_kopt::get_kopt</text>
</a>
</g>
</g>
<!-- Node9&#45;&gt;Node10 -->
<g id="edge9" class="edge">
<title>Node9&#45;&gt;Node10</title>
<path fill="none" stroke="midnightblue" d="M432.75,-211.5C417.45,-211.5 401.18,-211.5 386.6,-211.5"/>
<polygon fill="midnightblue" stroke="midnightblue" points="433.15,-215 443.15,-211.5 433.15,-208 433.15,-215"/>
</g>
<!-- Node10&#45;&gt;Node6 -->
<g id="edge10" class="edge">
<title>Node10&#45;&gt;Node6</title>
<path fill="none" stroke="midnightblue" d="M297.63,-198.67C291.7,-196.67 285.67,-194.57 280,-192.5 255.37,-183.5 227.56,-172.1 208.63,-164.15"/>
<polygon fill="midnightblue" stroke="midnightblue" points="296.87,-202.1 307.46,-201.93 299.07,-195.46 296.87,-202.1"/>
</g>
<!-- Node11&#45;&gt;Node6 -->
<g id="edge12" class="edge">
<title>Node11&#45;&gt;Node6</title>
<path fill="none" stroke="midnightblue" d="M276.81,-165.85C266.07,-164.51 254.91,-163.11 244.25,-161.78"/>
<polygon fill="midnightblue" stroke="midnightblue" points="276.61,-169.35 286.96,-167.12 277.47,-162.41 276.61,-169.35"/>
</g>
<!-- Node12&#45;&gt;Node6 -->
<g id="edge14" class="edge">
<title>Node12&#45;&gt;Node6</title>
<path fill="none" stroke="midnightblue" d="M270.96,-143.88C262.01,-145 252.89,-146.14 244.11,-147.24"/>
<polygon fill="midnightblue" stroke="midnightblue" points="271.48,-147.34 280.97,-142.63 270.61,-140.4 271.48,-147.34"/>
</g>
<!-- Node13&#45;&gt;Node6 -->
<g id="edge16" class="edge">
<title>Node13&#45;&gt;Node6</title>
<path fill="none" stroke="midnightblue" d="M423.66,-98.53C381.76,-100.41 327.18,-105.11 280,-116.5 252.96,-123.03 223.49,-135.97 204.89,-144.93"/>
<polygon fill="midnightblue" stroke="midnightblue" points="423.91,-102.02 433.76,-98.12 423.62,-95.03 423.91,-102.02"/>
</g>
<!-- Node14&#45;&gt;Node6 -->
<g id="edge18" class="edge">
<title>Node14&#45;&gt;Node6</title>
<path fill="none" stroke="midnightblue" d="M427.41,-64.34C384.58,-69.11 327.58,-78.43 280,-96.5 248.27,-108.55 215.48,-131.67 198.27,-144.78"/>
<polygon fill="midnightblue" stroke="midnightblue" points="427.85,-67.82 437.43,-63.28 427.11,-60.86 427.85,-67.82"/>
</g>
<!-- Node15&#45;&gt;Node6 -->
<g id="edge20" class="edge">
<title>Node15&#45;&gt;Node6</title>
<path fill="none" stroke="midnightblue" d="M434.87,-20.75C390.55,-26.72 328.51,-39.31 280,-65.5 241.83,-86.11 207.79,-126.23 193.34,-144.73"/>
<polygon fill="midnightblue" stroke="midnightblue" points="435.41,-24.21 444.88,-19.47 434.52,-17.26 435.41,-24.21"/>
</g>
<!-- Node16&#45;&gt;Node8 -->
<g id="edge23" class="edge">
<title>Node16&#45;&gt;Node8</title>
<path fill="none" stroke="midnightblue" d="M720.93,-168.3C712.33,-166.8 703.58,-165.27 695.19,-163.8"/>
<polygon fill="midnightblue" stroke="midnightblue" points="720.48,-171.77 730.94,-170.05 721.69,-164.88 720.48,-171.77"/>
</g>
<!-- Node17&#45;&gt;Node8 -->
<g id="edge25" class="edge">
<title>Node17&#45;&gt;Node8</title>
<path fill="none" stroke="midnightblue" d="M720.93,-141.25C712.33,-142.7 703.58,-144.16 695.19,-145.57"/>
<polygon fill="midnightblue" stroke="midnightblue" points="721.66,-144.68 730.94,-139.57 720.5,-137.78 721.66,-144.68"/>
</g>
<!-- Node18&#45;&gt;Node3 -->
<g id="edge27" class="edge">
<title>Node18&#45;&gt;Node3</title>
<path fill="none" stroke="midnightblue" d="M1015.92,-166.21C1007.32,-167.61 998.57,-169.04 990.15,-170.41"/>
<polygon fill="midnightblue" stroke="midnightblue" points="1016.62,-169.64 1025.93,-164.57 1015.49,-162.73 1016.62,-169.64"/>
</g>
</g>
</svg>
        <g id="navigator" transform="translate(0 0)" fill="#404254">
                <rect fill="#f2f5e9" fill-opacity="0.5" stroke="#606060" stroke-width=".5" x="0" y="0" width="60" height="60"/>
                <use id="zoomplus" xlink:href="#zoomPlus" x="17" y="9" onmousedown="handleZoom(evt,'in')"/>
                <use id="zoomminus" xlink:href="#zoomMin" x="42" y="9" onmousedown="handleZoom(evt,'out')"/>
                <use id="reset" xlink:href="#resetDef" x="30" y="36" onmousedown="handleReset()"/>
                <g id="arrowUp" xlink:href="#dirArrow" transform="translate(30 24)" onmousedown="handlePan(0,-1)">
                  <use xlink:href="#rim" fill="#404040">
                        <set attributeName="fill" to="#808080" begin="arrowUp.mouseover" end="arrowUp.mouseout"/>
                  </use>
                  <path fill="none" stroke="white" stroke-width="1.5" d="M0,-3.0v7 M-2.5,-0.5L0,-3.0L2.5,-0.5"/>
                </g>
                <g id="arrowRight" xlink:href="#dirArrow" transform="rotate(90) translate(36 -43)" onmousedown="handlePan(1,0)">
                  <use xlink:href="#rim" fill="#404040">
                        <set attributeName="fill" to="#808080" begin="arrowRight.mouseover" end="arrowRight.mouseout"/>
                  </use>
                  <path fill="none" stroke="white" stroke-width="1.5" d="M0,-3.0v7 M-2.5,-0.5L0,-3.0L2.5,-0.5"/>
                </g>
                <g id="arrowDown" xlink:href="#dirArrow" transform="rotate(180) translate(-30 -48)" onmousedown="handlePan(0,1)">
                  <use xlink:href="#rim" fill="#404040">
                        <set attributeName="fill" to="#808080" begin="arrowDown.mouseover" end="arrowDown.mouseout"/>
                  </use>
                  <path fill="none" stroke="white" stroke-width="1.5" d="M0,-3.0v7 M-2.5,-0.5L0,-3.0L2.5,-0.5"/>
                </g>
                <g id="arrowLeft" xlink:href="#dirArrow" transform="rotate(270) translate(-36 17)" onmousedown="handlePan(-1,0)">
                  <use xlink:href="#rim" fill="#404040">
                        <set attributeName="fill" to="#808080" begin="arrowLeft.mouseover" end="arrowLeft.mouseout"/>
                  </use>
                  <path fill="none" stroke="white" stroke-width="1.5" d="M0,-3.0v7 M-2.5,-0.5L0,-3.0L2.5,-0.5"/>
                </g>
        </g>
        <svg viewBox="0 0 15 15" width="100%" height="30px" preserveAspectRatio="xMaxYMin meet">
         <g id="arrow_out" transform="scale(0.3 0.3)">
          <a xlink:href="namespacextb__modelhessian_a2e8976cb9c4591516b0900268639467c_icgraph_org.svg" target="_base">
           <rect id="button" ry="5" rx="5" y="6" x="6" height="38" width="38"
                fill="#f2f5e9" fill-opacity="0.5" stroke="#606060" stroke-width="1.0"/>
           <path id="arrow"
             d="M 11.500037,31.436501 C 11.940474,20.09759 22.043105,11.32322 32.158766,21.979434 L 37.068811,17.246167 C 37.068811,17.246167 37.088388,32 37.088388,32 L 22.160133,31.978069 C 22.160133,31.978069 26.997745,27.140456 26.997745,27.140456 C 18.528582,18.264221 13.291696,25.230495 11.500037,31.436501 z"
             style="fill:#404040;"/>
          </a>
         </g>
        </svg>
</svg>
