<?xml version="1.0" encoding="UTF-8" standalone="no"?>
<!DOCTYPE svg PUBLIC "-//W3C//DTD SVG 1.1//EN"
 "http://www.w3.org/Graphics/SVG/1.1/DTD/svg11.dtd">
<!-- Generated by graphviz version 2.46.0 (20210122.1329)
 -->
<!-- Title: xtb_pbc_tools::cell_to_rlat Pages: 1 -->
<svg width="236pt" height="39pt"
 viewBox="0.00 0.00 236.00 39.00" xmlns="http://www.w3.org/2000/svg" xmlns:xlink="http://www.w3.org/1999/xlink">
<g id="graph0" class="graph" transform="scale(1 1) rotate(0) translate(4 35)">
<title>xtb_pbc_tools::cell_to_rlat</title>
<polygon fill="white" stroke="transparent" points="-4,4 -4,-35 232,-35 232,4 -4,4"/>
<!-- Node1 -->
<g id="node1" class="node">
<title>Node1</title>
<g id="a_node1"><a xlink:title="convert cell parameters to reciprocal lattice">
<polygon fill="#bfbfbf" stroke="black" points="0,-0.5 0,-30.5 96,-30.5 96,-0.5 0,-0.5"/>
<text text-anchor="start" x="8" y="-18.5" font-family="Helvetica,sans-Serif" font-size="10.00">xtb_pbc_tools::cell</text>
<text text-anchor="middle" x="48" y="-7.5" font-family="Helvetica,sans-Serif" font-size="10.00">_to_rlat</text>
</a>
</g>
</g>
<!-- Node2 -->
<g id="node2" class="node">
<title>Node2</title>
<g id="a_node2"><a xlink:href="namespacextb__pbc__tools.html#aa6debe70834a4136aa3c12c27dc5dc59" target="_top" xlink:title="calculate the cell volume from the cell parameters">
<polygon fill="white" stroke="black" points="132,-0.5 132,-30.5 228,-30.5 228,-0.5 132,-0.5"/>
<text text-anchor="start" x="140" y="-18.5" font-family="Helvetica,sans-Serif" font-size="10.00">xtb_pbc_tools::cell</text>
<text text-anchor="middle" x="180" y="-7.5" font-family="Helvetica,sans-Serif" font-size="10.00">_to_dvol</text>
</a>
</g>
</g>
<!-- Node1&#45;&gt;Node2 -->
<g id="edge1" class="edge">
<title>Node1&#45;&gt;Node2</title>
<path fill="none" stroke="midnightblue" d="M96.3,-15.5C104.56,-15.5 113.23,-15.5 121.72,-15.5"/>
<polygon fill="midnightblue" stroke="midnightblue" points="121.95,-19 131.95,-15.5 121.95,-12 121.95,-19"/>
</g>
</g>
</svg>
