<?xml version="1.0" encoding="UTF-8" standalone="no"?>
<!DOCTYPE svg PUBLIC "-//W3C//DTD SVG 1.1//EN"
 "http://www.w3.org/Graphics/SVG/1.1/DTD/svg11.dtd">
<!-- Generated by graphviz version 2.43.0 (0)
 -->
<!-- Title: xtb_biaspath::cqpath_damped_cube_spline Pages: 1 -->
<svg width="470pt" height="66pt"
 viewBox="0.00 0.00 470.00 66.00" xmlns="http://www.w3.org/2000/svg" xmlns:xlink="http://www.w3.org/1999/xlink">
<g id="graph0" class="graph" transform="scale(1 1) rotate(0) translate(4 62)">
<title>xtb_biaspath::cqpath_damped_cube_spline</title>
<polygon fill="white" stroke="transparent" points="-4,4 -4,-62 466,-62 466,4 -4,4"/>
<!-- Node1 -->
<g id="node1" class="node">
<title>Node1</title>
<g id="a_node1"><a xlink:title=" ">
<polygon fill="#bfbfbf" stroke="black" points="337,-14 337,-44 462,-44 462,-14 337,-14"/>
<text text-anchor="start" x="345" y="-32" font-family="Helvetica,sans-Serif" font-size="10.00">xtb_biaspath::cqpath</text>
<text text-anchor="middle" x="399.5" y="-21" font-family="Helvetica,sans-Serif" font-size="10.00">_damped_cube_spline</text>
</a>
</g>
</g>
<!-- Node2 -->
<g id="node2" class="node">
<title>Node2</title>
<g id="a_node2"><a xlink:href="namespacextb__biaspath.html#a6f9d83fe7ca02e9a40b61aa415ecdb5a" target="_top" xlink:title=" ">
<polygon fill="white" stroke="black" points="170,-19.5 170,-38.5 301,-38.5 301,-19.5 170,-19.5"/>
<text text-anchor="middle" x="235.5" y="-26.5" font-family="Helvetica,sans-Serif" font-size="10.00">xtb_biaspath::alignpath</text>
</a>
</g>
</g>
<!-- Node1&#45;&gt;Node2 -->
<g id="edge1" class="edge">
<title>Node1&#45;&gt;Node2</title>
<path fill="none" stroke="midnightblue" d="M326.6,-29C318.16,-29 309.6,-29 301.27,-29"/>
<polygon fill="midnightblue" stroke="midnightblue" points="326.79,-32.5 336.79,-29 326.79,-25.5 326.79,-32.5"/>
</g>
<!-- Node3 -->
<g id="node3" class="node">
<title>Node3</title>
<g id="a_node3"><a xlink:href="namespacextb__biaspath.html#a17ea22b101e578a3df8d2b58b96811a5" target="_top" xlink:title=" ">
<polygon fill="white" stroke="black" points="0.5,-38.5 0.5,-57.5 133.5,-57.5 133.5,-38.5 0.5,-38.5"/>
<text text-anchor="middle" x="67" y="-45.5" font-family="Helvetica,sans-Serif" font-size="10.00">xtb_biaspath::bias_path</text>
</a>
</g>
</g>
<!-- Node2&#45;&gt;Node3 -->
<g id="edge2" class="edge">
<title>Node2&#45;&gt;Node3</title>
<path fill="none" stroke="midnightblue" d="M159.61,-37.55C150.99,-38.53 142.25,-39.53 133.77,-40.49"/>
<polygon fill="midnightblue" stroke="midnightblue" points="160.11,-41.01 169.65,-36.4 159.32,-34.06 160.11,-41.01"/>
</g>
<!-- Node4 -->
<g id="node4" class="node">
<title>Node4</title>
<g id="a_node4"><a xlink:href="namespacextb__biaspath.html#a4af869e3f5ee79bac78f5ea768a0c2eb" target="_top" xlink:title=" ">
<polygon fill="white" stroke="black" points="0,-0.5 0,-19.5 134,-19.5 134,-0.5 0,-0.5"/>
<text text-anchor="middle" x="67" y="-7.5" font-family="Helvetica,sans-Serif" font-size="10.00">xtb_biaspath::cleanpath</text>
</a>
</g>
</g>
<!-- Node2&#45;&gt;Node4 -->
<g id="edge3" class="edge">
<title>Node2&#45;&gt;Node4</title>
<path fill="none" stroke="midnightblue" d="M159.69,-20.46C151.14,-19.49 142.47,-18.5 134.04,-17.54"/>
<polygon fill="midnightblue" stroke="midnightblue" points="159.32,-23.94 169.65,-21.6 160.11,-16.99 159.32,-23.94"/>
</g>
</g>
</svg>
