<?xml version="1.0" encoding="UTF-8" standalone="no"?>
<!DOCTYPE svg PUBLIC "-//W3C//DTD SVG 1.1//EN"
 "http://www.w3.org/Graphics/SVG/1.1/DTD/svg11.dtd">
<!-- Generated by graphviz version 2.46.0 (20210122.1329)
 -->
<!-- Title: xtb_disp_dftd3param::get_c6 Pages: 1 -->
<svg width="845pt" height="469pt"
 viewBox="0.00 0.00 845.00 469.00" xmlns="http://www.w3.org/2000/svg" xmlns:xlink="http://www.w3.org/1999/xlink">
<g id="graph0" class="graph" transform="scale(1 1) rotate(0) translate(4 465)">
<title>xtb_disp_dftd3param::get_c6</title>
<polygon fill="white" stroke="transparent" points="-4,4 -4,-465 841,-465 841,4 -4,4"/>
<!-- Node1 -->
<g id="node1" class="node">
<title>Node1</title>
<g id="a_node1"><a xlink:title=" ">
<polygon fill="#bfbfbf" stroke="black" points="730,-115 730,-145 837,-145 837,-115 730,-115"/>
<text text-anchor="start" x="738" y="-133" font-family="Helvetica,sans-Serif" font-size="10.00">xtb_disp_dftd3param</text>
<text text-anchor="middle" x="783.5" y="-122" font-family="Helvetica,sans-Serif" font-size="10.00">::get_c6</text>
</a>
</g>
</g>
<!-- Node2 -->
<g id="node2" class="node">
<title>Node2</title>
<g id="a_node2"><a xlink:href="namespacextb__disp__dftd3.html#a82e2048362c5fee97120ce5bcdd229e9" target="_top" xlink:title="calculate atomic dispersion coefficients and their derivatives w.r.t.">
<polygon fill="white" stroke="black" points="592.5,-262 592.5,-292 690.5,-292 690.5,-262 592.5,-262"/>
<text text-anchor="start" x="600.5" y="-280" font-family="Helvetica,sans-Serif" font-size="10.00">xtb_disp_dftd3::get</text>
<text text-anchor="middle" x="641.5" y="-269" font-family="Helvetica,sans-Serif" font-size="10.00">_atomic_c6</text>
</a>
</g>
</g>
<!-- Node1&#45;&gt;Node2 -->
<g id="edge1" class="edge">
<title>Node1&#45;&gt;Node2</title>
<path fill="none" stroke="midnightblue" d="M760.86,-152.72C732.04,-182.99 681.8,-235.73 657.09,-261.68"/>
<polygon fill="midnightblue" stroke="midnightblue" points="763.68,-154.83 768.04,-145.18 758.61,-150.01 763.68,-154.83"/>
</g>
<!-- Node9 -->
<g id="node9" class="node">
<title>Node9</title>
<g id="a_node9"><a xlink:href="namespacextb__gfnff__gdisp0.html#a8a95379cab904d8b4984b2279775cf5f" target="_top" xlink:title="calculate atomic dispersion coefficients and their derivatives w.r.t.">
<polygon fill="white" stroke="black" points="589,-164 589,-194 694,-194 694,-164 589,-164"/>
<text text-anchor="start" x="597" y="-182" font-family="Helvetica,sans-Serif" font-size="10.00">xtb_gfnff_gdisp0::get</text>
<text text-anchor="middle" x="641.5" y="-171" font-family="Helvetica,sans-Serif" font-size="10.00">_atomic_c6</text>
</a>
</g>
</g>
<!-- Node1&#45;&gt;Node9 -->
<g id="edge8" class="edge">
<title>Node1&#45;&gt;Node9</title>
<path fill="none" stroke="midnightblue" d="M729.54,-148.54C715.08,-153.6 699.59,-159.02 685.75,-163.86"/>
<polygon fill="midnightblue" stroke="midnightblue" points="731.07,-151.71 739.35,-145.1 728.76,-145.1 731.07,-151.71"/>
</g>
<!-- Node10 -->
<g id="node10" class="node">
<title>Node10</title>
<g id="a_node10"><a xlink:href="namespacextb__gfnff__gdisp0.html#a7e363b52ff1c9d4bbc5ed1e003de4a26" target="_top" xlink:title="calculate atomic dispersion coefficients and their derivatives w.r.t.">
<polygon fill="white" stroke="black" points="589,-115 589,-145 694,-145 694,-115 589,-115"/>
<text text-anchor="start" x="597" y="-133" font-family="Helvetica,sans-Serif" font-size="10.00">xtb_gfnff_gdisp0::get</text>
<text text-anchor="middle" x="641.5" y="-122" font-family="Helvetica,sans-Serif" font-size="10.00">_atomic_c6_d4</text>
</a>
</g>
</g>
<!-- Node1&#45;&gt;Node10 -->
<g id="edge9" class="edge">
<title>Node1&#45;&gt;Node10</title>
<path fill="none" stroke="midnightblue" d="M719.74,-130C711.27,-130 702.65,-130 694.39,-130"/>
<polygon fill="midnightblue" stroke="midnightblue" points="719.97,-133.5 729.97,-130 719.97,-126.5 719.97,-133.5"/>
</g>
<!-- Node16 -->
<g id="node16" class="node">
<title>Node16</title>
<g id="a_node16"><a xlink:href="dftd3_8f.html#a3b10b4bd7a53c785365d6a7f08aa0dce" target="_top" xlink:title=" ">
<polygon fill="white" stroke="black" points="603,-76.5 603,-95.5 680,-95.5 680,-76.5 603,-76.5"/>
<text text-anchor="middle" x="641.5" y="-83.5" font-family="Helvetica,sans-Serif" font-size="10.00">get_dc6_dcnij</text>
</a>
</g>
</g>
<!-- Node1&#45;&gt;Node16 -->
<g id="edge15" class="edge">
<title>Node1&#45;&gt;Node16</title>
<path fill="none" stroke="midnightblue" d="M724.96,-111.91C707.13,-106.31 688.2,-100.36 672.98,-95.58"/>
<polygon fill="midnightblue" stroke="midnightblue" points="724.12,-115.32 734.71,-114.98 726.22,-108.64 724.12,-115.32"/>
</g>
<!-- Node19 -->
<g id="node19" class="node">
<title>Node19</title>
<g id="a_node19"><a xlink:href="dftd3_8f.html#ad39882452aa1913d054022bae3cdab4a" target="_top" xlink:title=" ">
<polygon fill="white" stroke="black" points="621,-19.5 621,-38.5 662,-38.5 662,-19.5 621,-19.5"/>
<text text-anchor="middle" x="641.5" y="-26.5" font-family="Helvetica,sans-Serif" font-size="10.00">getc6</text>
</a>
</g>
</g>
<!-- Node1&#45;&gt;Node19 -->
<g id="edge18" class="edge">
<title>Node1&#45;&gt;Node19</title>
<path fill="none" stroke="midnightblue" d="M753.17,-108.84C723.29,-87.29 678.28,-54.81 655.99,-38.73"/>
<polygon fill="midnightblue" stroke="midnightblue" points="751.38,-111.87 761.54,-114.88 755.48,-106.19 751.38,-111.87"/>
</g>
<!-- Node3 -->
<g id="node3" class="node">
<title>Node3</title>
<g id="a_node3"><a xlink:href="interfacextb__disp__dftd3_1_1d3__atm__gradient.html#a15c51e72bc3a117518398eb6050027a1" target="_top" xlink:title=" ">
<polygon fill="white" stroke="black" points="416.5,-419.5 416.5,-460.5 531.5,-460.5 531.5,-419.5 416.5,-419.5"/>
<text text-anchor="start" x="424.5" y="-448.5" font-family="Helvetica,sans-Serif" font-size="10.00">xtb_disp_dftd3::d3</text>
<text text-anchor="start" x="424.5" y="-437.5" font-family="Helvetica,sans-Serif" font-size="10.00">_atm_gradient::d3_atm</text>
<text text-anchor="middle" x="474" y="-426.5" font-family="Helvetica,sans-Serif" font-size="10.00">_gradient_latp</text>
</a>
</g>
</g>
<!-- Node2&#45;&gt;Node3 -->
<g id="edge2" class="edge">
<title>Node2&#45;&gt;Node3</title>
<path fill="none" stroke="midnightblue" d="M630.07,-301.6C616.39,-331.14 589.74,-380.41 553,-410 546.67,-415.1 539.38,-419.4 531.85,-423.01"/>
<polygon fill="midnightblue" stroke="midnightblue" points="633.3,-302.95 634.21,-292.39 626.91,-300.08 633.3,-302.95"/>
</g>
<!-- Node4 -->
<g id="node4" class="node">
<title>Node4</title>
<g id="a_node4"><a xlink:href="interfacextb__disp__dftd3_1_1d3__atm__gradient.html#ae23b23e139e2883ae9cbe059a124cf5f" target="_top" xlink:title=" ">
<polygon fill="white" stroke="black" points="416.5,-359.5 416.5,-400.5 531.5,-400.5 531.5,-359.5 416.5,-359.5"/>
<text text-anchor="start" x="424.5" y="-388.5" font-family="Helvetica,sans-Serif" font-size="10.00">xtb_disp_dftd3::d3</text>
<text text-anchor="start" x="424.5" y="-377.5" font-family="Helvetica,sans-Serif" font-size="10.00">_atm_gradient::d3_atm</text>
<text text-anchor="middle" x="474" y="-366.5" font-family="Helvetica,sans-Serif" font-size="10.00">_gradient_neigh</text>
</a>
</g>
</g>
<!-- Node2&#45;&gt;Node4 -->
<g id="edge3" class="edge">
<title>Node2&#45;&gt;Node4</title>
<path fill="none" stroke="midnightblue" d="M618.34,-299.54C601.57,-315.59 577.35,-336.76 553,-351 546.39,-354.86 539.17,-358.37 531.88,-361.5"/>
<polygon fill="midnightblue" stroke="midnightblue" points="621.22,-301.61 625.93,-292.12 616.33,-296.61 621.22,-301.61"/>
</g>
<!-- Node5 -->
<g id="node5" class="node">
<title>Node5</title>
<g id="a_node5"><a xlink:href="interfacextb__disp__dftd3_1_1d3__gradient.html#a235d7c22a675fb31046cc4c4c3474c70" target="_top" xlink:title=" ">
<polygon fill="white" stroke="black" points="399,-311 399,-341 549,-341 549,-311 399,-311"/>
<text text-anchor="start" x="407" y="-329" font-family="Helvetica,sans-Serif" font-size="10.00">xtb_disp_dftd3::d3</text>
<text text-anchor="middle" x="474" y="-318" font-family="Helvetica,sans-Serif" font-size="10.00">_gradient::d3_full_gradient_latp</text>
</a>
</g>
</g>
<!-- Node2&#45;&gt;Node5 -->
<g id="edge4" class="edge">
<title>Node2&#45;&gt;Node5</title>
<path fill="none" stroke="midnightblue" d="M582.41,-294.2C563.92,-299.67 543.61,-305.69 525.68,-311"/>
<polygon fill="midnightblue" stroke="midnightblue" points="583.59,-297.5 592.19,-291.3 581.6,-290.79 583.59,-297.5"/>
</g>
<!-- Node6 -->
<g id="node6" class="node">
<title>Node6</title>
<g id="a_node6"><a xlink:href="interfacextb__disp__dftd3_1_1d3__gradient.html#a5df3d1c13d5dbd2ac47364ff69095a53" target="_top" xlink:title=" ">
<polygon fill="white" stroke="black" points="395,-262 395,-292 553,-292 553,-262 395,-262"/>
<text text-anchor="start" x="403" y="-280" font-family="Helvetica,sans-Serif" font-size="10.00">xtb_disp_dftd3::d3</text>
<text text-anchor="middle" x="474" y="-269" font-family="Helvetica,sans-Serif" font-size="10.00">_gradient::d3_full_gradient_neigh</text>
</a>
</g>
</g>
<!-- Node2&#45;&gt;Node6 -->
<g id="edge5" class="edge">
<title>Node2&#45;&gt;Node6</title>
<path fill="none" stroke="midnightblue" d="M581.92,-277C572.64,-277 562.91,-277 553.27,-277"/>
<polygon fill="midnightblue" stroke="midnightblue" points="582.19,-280.5 592.19,-277 582.19,-273.5 582.19,-280.5"/>
</g>
<!-- Node7 -->
<g id="node7" class="node">
<title>Node7</title>
<g id="a_node7"><a xlink:href="interfacextb__disp__dftd3_1_1d3__gradient.html#a60fac913c14ad0a482b3d48bcb51eea3" target="_top" xlink:title=" ">
<polygon fill="white" stroke="black" points="408,-213 408,-243 540,-243 540,-213 408,-213"/>
<text text-anchor="start" x="416" y="-231" font-family="Helvetica,sans-Serif" font-size="10.00">xtb_disp_dftd3::d3</text>
<text text-anchor="middle" x="474" y="-220" font-family="Helvetica,sans-Serif" font-size="10.00">_gradient::d3_gradient_latp</text>
</a>
</g>
</g>
<!-- Node2&#45;&gt;Node7 -->
<g id="edge6" class="edge">
<title>Node2&#45;&gt;Node7</title>
<path fill="none" stroke="midnightblue" d="M582.41,-259.8C563.92,-254.33 543.61,-248.31 525.68,-243"/>
<polygon fill="midnightblue" stroke="midnightblue" points="581.6,-263.21 592.19,-262.7 583.59,-256.5 581.6,-263.21"/>
</g>
<!-- Node8 -->
<g id="node8" class="node">
<title>Node8</title>
<g id="a_node8"><a xlink:href="interfacextb__disp__dftd3_1_1d3__gradient.html#a6681298ee7cb38104f69c149cd8118d1" target="_top" xlink:title=" ">
<polygon fill="white" stroke="black" points="404,-164 404,-194 544,-194 544,-164 404,-164"/>
<text text-anchor="start" x="412" y="-182" font-family="Helvetica,sans-Serif" font-size="10.00">xtb_disp_dftd3::d3</text>
<text text-anchor="middle" x="474" y="-171" font-family="Helvetica,sans-Serif" font-size="10.00">_gradient::d3_gradient_neigh</text>
</a>
</g>
</g>
<!-- Node2&#45;&gt;Node8 -->
<g id="edge7" class="edge">
<title>Node2&#45;&gt;Node8</title>
<path fill="none" stroke="midnightblue" d="M618.47,-254.45C601.78,-238.46 577.58,-217.52 553,-204 546.15,-200.23 538.64,-196.93 531.07,-194.06"/>
<polygon fill="midnightblue" stroke="midnightblue" points="616.44,-257.36 626.03,-261.85 621.33,-252.35 616.44,-257.36"/>
</g>
<!-- Node11 -->
<g id="node11" class="node">
<title>Node11</title>
<g id="a_node11"><a xlink:href="namespacextb__gfnff__gdisp0.html#a5e1bf72fe19e65fda312d50ec43c2449" target="_top" xlink:title=" ">
<polygon fill="white" stroke="black" points="423,-115 423,-145 525,-145 525,-115 423,-115"/>
<text text-anchor="start" x="431" y="-133" font-family="Helvetica,sans-Serif" font-size="10.00">xtb_gfnff_gdisp0::d3</text>
<text text-anchor="middle" x="474" y="-122" font-family="Helvetica,sans-Serif" font-size="10.00">_gradient</text>
</a>
</g>
</g>
<!-- Node10&#45;&gt;Node11 -->
<g id="edge10" class="edge">
<title>Node10&#45;&gt;Node11</title>
<path fill="none" stroke="midnightblue" d="M578.4,-130C560.78,-130 541.83,-130 525.03,-130"/>
<polygon fill="midnightblue" stroke="midnightblue" points="578.59,-133.5 588.59,-130 578.59,-126.5 578.59,-133.5"/>
</g>
<!-- Node12 -->
<g id="node12" class="node">
<title>Node12</title>
<g id="a_node12"><a xlink:href="namespacextb__gfnff__eg.html#a3c6317a91da8d6eb6e333fdb8ee1f3d9" target="_top" xlink:title=" ">
<polygon fill="white" stroke="black" points="246,-120.5 246,-139.5 354,-139.5 354,-120.5 246,-120.5"/>
<text text-anchor="middle" x="300" y="-127.5" font-family="Helvetica,sans-Serif" font-size="10.00">xtb_gfnff_eg::gfnff_eg</text>
</a>
</g>
</g>
<!-- Node11&#45;&gt;Node12 -->
<g id="edge11" class="edge">
<title>Node11&#45;&gt;Node12</title>
<path fill="none" stroke="midnightblue" d="M412.73,-130C393.68,-130 372.79,-130 354.27,-130"/>
<polygon fill="midnightblue" stroke="midnightblue" points="412.79,-133.5 422.79,-130 412.79,-126.5 412.79,-133.5"/>
</g>
<!-- Node13 -->
<g id="node13" class="node">
<title>Node13</title>
<g id="a_node13"><a xlink:href="namespacextb__gfnff__calculator.html#a8775e737196933e41e48728956ddf782" target="_top" xlink:title=" ">
<polygon fill="white" stroke="black" points="104,-137 104,-167 205,-167 205,-137 104,-137"/>
<text text-anchor="start" x="112" y="-155" font-family="Helvetica,sans-Serif" font-size="10.00">xtb_gfnff_calculator</text>
<text text-anchor="middle" x="154.5" y="-144" font-family="Helvetica,sans-Serif" font-size="10.00">::singlepoint</text>
</a>
</g>
</g>
<!-- Node12&#45;&gt;Node13 -->
<g id="edge12" class="edge">
<title>Node12&#45;&gt;Node13</title>
<path fill="none" stroke="midnightblue" d="M235.89,-139.67C225.7,-141.24 215.28,-142.84 205.45,-144.34"/>
<polygon fill="midnightblue" stroke="midnightblue" points="236.62,-143.1 245.97,-138.13 235.56,-136.19 236.62,-143.1"/>
</g>
<!-- Node14 -->
<g id="node14" class="node">
<title>Node14</title>
<g id="a_node14"><a xlink:href="gfnff_8f90.html#a3debb77ee35e9cf115d69ef59490c6c5" target="_top" xlink:title=" ">
<polygon fill="white" stroke="black" points="118,-98.5 118,-117.5 191,-117.5 191,-98.5 118,-98.5"/>
<text text-anchor="middle" x="154.5" y="-105.5" font-family="Helvetica,sans-Serif" font-size="10.00">test_gfnff_sp</text>
</a>
</g>
</g>
<!-- Node12&#45;&gt;Node14 -->
<g id="edge13" class="edge">
<title>Node12&#45;&gt;Node14</title>
<path fill="none" stroke="midnightblue" d="M236.02,-120.35C220.72,-118 204.87,-115.57 191.33,-113.49"/>
<polygon fill="midnightblue" stroke="midnightblue" points="235.56,-123.81 245.97,-121.87 236.62,-116.9 235.56,-123.81"/>
</g>
<!-- Node15 -->
<g id="node15" class="node">
<title>Node15</title>
<g id="a_node15"><a xlink:href="tests__peeq_8f90.html#a87ff5319e0d2e627a4f71d7df0d14891" target="_top" xlink:title=" ">
<polygon fill="white" stroke="black" points="0,-98.5 0,-117.5 68,-117.5 68,-98.5 0,-98.5"/>
<text text-anchor="middle" x="34" y="-105.5" font-family="Helvetica,sans-Serif" font-size="10.00">peeq_tester</text>
</a>
</g>
</g>
<!-- Node14&#45;&gt;Node15 -->
<g id="edge14" class="edge">
<title>Node14&#45;&gt;Node15</title>
<path fill="none" stroke="midnightblue" d="M107.63,-108C94.45,-108 80.34,-108 68.1,-108"/>
<polygon fill="midnightblue" stroke="midnightblue" points="107.95,-111.5 117.95,-108 107.95,-104.5 107.95,-111.5"/>
</g>
<!-- Node17 -->
<g id="node17" class="node">
<title>Node17</title>
<g id="a_node17"><a xlink:href="dftd3_8f.html#ad1317d4fc229ffbb40b74e19dbca1d06" target="_top" xlink:title=" ">
<polygon fill="white" stroke="black" points="449,-76.5 449,-95.5 499,-95.5 499,-76.5 449,-76.5"/>
<text text-anchor="middle" x="474" y="-83.5" font-family="Helvetica,sans-Serif" font-size="10.00">abcdisp</text>
</a>
</g>
</g>
<!-- Node16&#45;&gt;Node17 -->
<g id="edge16" class="edge">
<title>Node16&#45;&gt;Node17</title>
<path fill="none" stroke="midnightblue" d="M592.87,-86C562.18,-86 523.58,-86 499.09,-86"/>
<polygon fill="midnightblue" stroke="midnightblue" points="592.95,-89.5 602.95,-86 592.95,-82.5 592.95,-89.5"/>
</g>
<!-- Node18 -->
<g id="node18" class="node">
<title>Node18</title>
<g id="a_node18"><a xlink:href="dftd3_8f.html#a8de533fcfca38ce7c36380bc6f1a51be" target="_top" xlink:title=" ">
<polygon fill="white" stroke="black" points="454,-38.5 454,-57.5 494,-57.5 494,-38.5 454,-38.5"/>
<text text-anchor="middle" x="474" y="-45.5" font-family="Helvetica,sans-Serif" font-size="10.00">gdisp</text>
</a>
</g>
</g>
<!-- Node16&#45;&gt;Node18 -->
<g id="edge17" class="edge">
<title>Node16&#45;&gt;Node18</title>
<path fill="none" stroke="midnightblue" d="M593.1,-75.12C560.33,-67.59 518.46,-57.98 494.39,-52.45"/>
<polygon fill="midnightblue" stroke="midnightblue" points="592.42,-78.55 602.95,-77.38 593.98,-71.73 592.42,-78.55"/>
</g>
<!-- Node20 -->
<g id="node20" class="node">
<title>Node20</title>
<g id="a_node20"><a xlink:href="namespacextb__qmdff.html#ab568a7f7e79e9d9dcf27553a50797aa9" target="_top" xlink:title=" ">
<polygon fill="white" stroke="black" points="432.5,-0.5 432.5,-19.5 515.5,-19.5 515.5,-0.5 432.5,-0.5"/>
<text text-anchor="middle" x="474" y="-7.5" font-family="Helvetica,sans-Serif" font-size="10.00">xtb_qmdff::ff_ini</text>
</a>
</g>
</g>
<!-- Node19&#45;&gt;Node20 -->
<g id="edge19" class="edge">
<title>Node19&#45;&gt;Node20</title>
<path fill="none" stroke="midnightblue" d="M610.68,-25.58C584.16,-22.53 545.16,-18.05 515.77,-14.68"/>
<polygon fill="midnightblue" stroke="midnightblue" points="610.53,-29.08 620.87,-26.75 611.33,-22.13 610.53,-29.08"/>
</g>
<!-- Node21 -->
<g id="node21" class="node">
<title>Node21</title>
<g id="a_node21"><a xlink:href="namespacextb__prog__main.html#a92b3b61ee04235e6343f652095682529" target="_top" xlink:title=" ">
<polygon fill="white" stroke="black" points="241,-0.5 241,-19.5 359,-19.5 359,-0.5 241,-0.5"/>
<text text-anchor="middle" x="300" y="-7.5" font-family="Helvetica,sans-Serif" font-size="10.00">xtb_prog_main::xtbmain</text>
</a>
</g>
</g>
<!-- Node20&#45;&gt;Node21 -->
<g id="edge20" class="edge">
<title>Node20&#45;&gt;Node21</title>
<path fill="none" stroke="midnightblue" d="M422.17,-10C402.35,-10 379.51,-10 359.04,-10"/>
<polygon fill="midnightblue" stroke="midnightblue" points="422.24,-13.5 432.24,-10 422.24,-6.5 422.24,-13.5"/>
</g>
<!-- Node22 -->
<g id="node22" class="node">
<title>Node22</title>
<g id="a_node22"><a xlink:href="primary_8f90.html#a2a67903cf5be605c5b6d3c362c6a3c5c" target="_top" xlink:title="The primary driver for the xtb program package.">
<polygon fill="white" stroke="black" points="109.5,-0.5 109.5,-19.5 199.5,-19.5 199.5,-0.5 109.5,-0.5"/>
<text text-anchor="middle" x="154.5" y="-7.5" font-family="Helvetica,sans-Serif" font-size="10.00">xtb_prog_primary</text>
</a>
</g>
</g>
<!-- Node21&#45;&gt;Node22 -->
<g id="edge21" class="edge">
<title>Node21&#45;&gt;Node22</title>
<path fill="none" stroke="midnightblue" d="M230.62,-10C220.12,-10 209.52,-10 199.73,-10"/>
<polygon fill="midnightblue" stroke="midnightblue" points="230.63,-13.5 240.63,-10 230.63,-6.5 230.63,-13.5"/>
</g>
</g>
</svg>
