<?xml version="1.0" encoding="UTF-8" standalone="no"?>
<!DOCTYPE svg PUBLIC "-//W3C//DTD SVG 1.1//EN"
 "http://www.w3.org/Graphics/SVG/1.1/DTD/svg11.dtd">
<!-- Generated by graphviz version 2.46.0 (20210122.1329)
 -->
<!-- Title: xtb_solv_model::newbornmodel Pages: 1 -->
<!--zoomable 214 -->
<svg id="main" version="1.1" xmlns="http://www.w3.org/2000/svg" xmlns:xlink="http://www.w3.org/1999/xlink" xml:space="preserve" onload="init(evt)">
<style type="text/css"><![CDATA[
.edge:hover path { stroke: red; }
.edge:hover polygon { stroke: red; fill: red; }
]]></style>
<script type="text/javascript"><![CDATA[
var edges = document.getElementsByTagName('g');
if (edges && edges.length) {
  for (var i=0;i<edges.length;i++) {
    if (edges[i].id.substr(0,4)=='edge') {
      edges[i].setAttribute('class','edge');
    }
  }
}
]]></script>
        <defs>
                <circle id="rim" cx="0" cy="0" r="7"/>
                <circle id="rim2" cx="0" cy="0" r="3.5"/>
                <g id="zoomPlus">
                        <use xlink:href="#rim" fill="#404040">
                                <set attributeName="fill" to="#808080" begin="zoomplus.mouseover" end="zoomplus.mouseout"/>
                        </use>
                        <path d="M-4,0h8M0,-4v8" fill="none" stroke="white" stroke-width="1.5" pointer-events="none"/>
                </g>
                <g id="zoomMin">
                        <use xlink:href="#rim" fill="#404040">
                                <set attributeName="fill" to="#808080" begin="zoomminus.mouseover" end="zoomminus.mouseout"/>
                        </use>
                        <path d="M-4,0h8" fill="none" stroke="white" stroke-width="1.5" pointer-events="none"/>
                </g>
                <g id="dirArrow">
                        <path fill="none" stroke="white" stroke-width="1.5" d="M0,-3.0v7 M-2.5,-0.5L0,-3.0L2.5,-0.5"/>
                </g>
               <g id="resetDef">
                       <use xlink:href="#rim2" fill="#404040">
                               <set attributeName="fill" to="#808080" begin="reset.mouseover" end="reset.mouseout"/>
                       </use>
               </g>
        </defs>

<script type="text/javascript">
var viewWidth = 588;
var viewHeight = 214;
var sectionId = 'dynsection-5';
</script>
<script xlink:href="svgpan.js"/>
<svg id="graph" class="graph">
<g id="viewport">
<title>xtb_solv_model::newbornmodel</title>
<polygon fill="white" stroke="transparent" points="-4,4 -4,-209.5 584,-209.5 584,4 -4,4"/>
<!-- Node1 -->
<g id="node1" class="node">
<title>Node1</title>
<g id="a_node1"><a xlink:title=" ">
<polygon fill="#bfbfbf" stroke="black" points="428,-82.5 428,-101.5 580,-101.5 580,-82.5 428,-82.5"/>
<text text-anchor="middle" x="504" y="-89.5" font-family="Helvetica,sans-Serif" font-size="10.00">xtb_solv_model::newbornmodel</text>
</a>
</g>
</g>
<!-- Node2 -->
<g id="node2" class="node">
<title>Node2</title>
<g id="a_node2"><a xlink:href="namespacextb__propertyoutput.html#a74ca9110d4ecdd9fc1a790d9a2027a02" target="_top" xlink:title=" ">
<polygon fill="white" stroke="black" points="288,-175 288,-205 384,-205 384,-175 288,-175"/>
<text text-anchor="start" x="296" y="-193" font-family="Helvetica,sans-Serif" font-size="10.00">xtb_propertyoutput</text>
<text text-anchor="middle" x="336" y="-182" font-family="Helvetica,sans-Serif" font-size="10.00">::main_property</text>
</a>
</g>
</g>
<!-- Node1&#45;&gt;Node2 -->
<g id="edge1" class="edge">
<title>Node1&#45;&gt;Node2</title>
<path fill="none" stroke="midnightblue" d="M481.94,-107.67C460.12,-123.52 424.7,-148.15 392,-166 386.33,-169.1 380.18,-172.1 374.12,-174.87"/>
<polygon fill="midnightblue" stroke="midnightblue" points="484.15,-110.4 490.14,-101.67 480.01,-104.75 484.15,-110.4"/>
</g>
<!-- Node5 -->
<g id="node5" class="node">
<title>Node5</title>
<g id="a_node5"><a xlink:href="namespacextb__gfnff__calculator.html#a8775e737196933e41e48728956ddf782" target="_top" xlink:title=" ">
<polygon fill="white" stroke="black" points="285.5,-126 285.5,-156 386.5,-156 386.5,-126 285.5,-126"/>
<text text-anchor="start" x="293.5" y="-144" font-family="Helvetica,sans-Serif" font-size="10.00">xtb_gfnff_calculator</text>
<text text-anchor="middle" x="336" y="-133" font-family="Helvetica,sans-Serif" font-size="10.00">::singlepoint</text>
</a>
</g>
</g>
<!-- Node1&#45;&gt;Node5 -->
<g id="edge4" class="edge">
<title>Node1&#45;&gt;Node5</title>
<path fill="none" stroke="midnightblue" d="M460.95,-104.41C438.34,-111.09 410.32,-119.36 386.65,-126.34"/>
<polygon fill="midnightblue" stroke="midnightblue" points="462,-107.75 470.6,-101.56 460.02,-101.04 462,-107.75"/>
</g>
<!-- Node6 -->
<g id="node6" class="node">
<title>Node6</title>
<g id="a_node6"><a xlink:href="namespacextb__xtb__calculator.html#a75c96263c235c99dfeeda3e865f9898c" target="_top" xlink:title=" ">
<polygon fill="white" stroke="black" points="288.5,-77 288.5,-107 383.5,-107 383.5,-77 288.5,-77"/>
<text text-anchor="start" x="296.5" y="-95" font-family="Helvetica,sans-Serif" font-size="10.00">xtb_xtb_calculator</text>
<text text-anchor="middle" x="336" y="-84" font-family="Helvetica,sans-Serif" font-size="10.00">::singlepoint</text>
</a>
</g>
</g>
<!-- Node1&#45;&gt;Node6 -->
<g id="edge5" class="edge">
<title>Node1&#45;&gt;Node6</title>
<path fill="none" stroke="midnightblue" d="M417.6,-92C406.01,-92 394.49,-92 383.93,-92"/>
<polygon fill="midnightblue" stroke="midnightblue" points="417.77,-95.5 427.77,-92 417.77,-88.5 417.77,-95.5"/>
</g>
<!-- Node7 -->
<g id="node7" class="node">
<title>Node7</title>
<g id="a_node7"><a xlink:href="TESTSUITE_2eeq__model_8f90.html#a461c95e42194309779576f022e293a00" target="_top" xlink:title=" ">
<polygon fill="white" stroke="black" points="280,-38.5 280,-57.5 392,-57.5 392,-38.5 280,-38.5"/>
<text text-anchor="middle" x="336" y="-45.5" font-family="Helvetica,sans-Serif" font-size="10.00">test_eeq_model_gbsa</text>
</a>
</g>
</g>
<!-- Node1&#45;&gt;Node7 -->
<g id="edge6" class="edge">
<title>Node1&#45;&gt;Node7</title>
<path fill="none" stroke="midnightblue" d="M457.14,-79.85C430.58,-72.8 397.62,-64.07 372.95,-57.53"/>
<polygon fill="midnightblue" stroke="midnightblue" points="456.42,-83.27 466.98,-82.45 458.21,-76.51 456.42,-83.27"/>
</g>
<!-- Node9 -->
<g id="node9" class="node">
<title>Node9</title>
<g id="a_node9"><a xlink:href="TESTSUITE_2eeq__model_8f90.html#a28eab1a463da2de3bfc8701b9b65b503" target="_top" xlink:title=" ">
<polygon fill="white" stroke="black" points="282.5,-0.5 282.5,-19.5 389.5,-19.5 389.5,-0.5 282.5,-0.5"/>
<text text-anchor="middle" x="336" y="-7.5" font-family="Helvetica,sans-Serif" font-size="10.00">test_eeq_model_salt</text>
</a>
</g>
</g>
<!-- Node1&#45;&gt;Node9 -->
<g id="edge8" class="edge">
<title>Node1&#45;&gt;Node9</title>
<path fill="none" stroke="midnightblue" d="M479.36,-76.89C457.33,-63.22 423.27,-43.13 392,-29 384.36,-25.55 375.89,-22.34 367.94,-19.57"/>
<polygon fill="midnightblue" stroke="midnightblue" points="477.69,-79.97 488.02,-82.32 481.41,-74.04 477.69,-79.97"/>
</g>
<!-- Node3 -->
<g id="node3" class="node">
<title>Node3</title>
<g id="a_node3"><a xlink:href="namespacextb__prog__main.html#a92b3b61ee04235e6343f652095682529" target="_top" xlink:title=" ">
<polygon fill="white" stroke="black" points="126,-180.5 126,-199.5 244,-199.5 244,-180.5 126,-180.5"/>
<text text-anchor="middle" x="185" y="-187.5" font-family="Helvetica,sans-Serif" font-size="10.00">xtb_prog_main::xtbmain</text>
</a>
</g>
</g>
<!-- Node2&#45;&gt;Node3 -->
<g id="edge2" class="edge">
<title>Node2&#45;&gt;Node3</title>
<path fill="none" stroke="midnightblue" d="M277.53,-190C266.56,-190 255.07,-190 244.09,-190"/>
<polygon fill="midnightblue" stroke="midnightblue" points="277.86,-193.5 287.86,-190 277.86,-186.5 277.86,-193.5"/>
</g>
<!-- Node4 -->
<g id="node4" class="node">
<title>Node4</title>
<g id="a_node4"><a xlink:href="primary_8f90.html#a2a67903cf5be605c5b6d3c362c6a3c5c" target="_top" xlink:title="The primary driver for the xtb program package.">
<polygon fill="white" stroke="black" points="0,-180.5 0,-199.5 90,-199.5 90,-180.5 0,-180.5"/>
<text text-anchor="middle" x="45" y="-187.5" font-family="Helvetica,sans-Serif" font-size="10.00">xtb_prog_primary</text>
</a>
</g>
</g>
<!-- Node3&#45;&gt;Node4 -->
<g id="edge3" class="edge">
<title>Node3&#45;&gt;Node4</title>
<path fill="none" stroke="midnightblue" d="M115.73,-190C107.06,-190 98.37,-190 90.22,-190"/>
<polygon fill="midnightblue" stroke="midnightblue" points="115.88,-193.5 125.88,-190 115.88,-186.5 115.88,-193.5"/>
</g>
<!-- Node8 -->
<g id="node8" class="node">
<title>Node8</title>
<g id="a_node8"><a xlink:href="tests__peeq_8f90.html#a87ff5319e0d2e627a4f71d7df0d14891" target="_top" xlink:title=" ">
<polygon fill="white" stroke="black" points="151,-19.5 151,-38.5 219,-38.5 219,-19.5 151,-19.5"/>
<text text-anchor="middle" x="185" y="-26.5" font-family="Helvetica,sans-Serif" font-size="10.00">peeq_tester</text>
</a>
</g>
</g>
<!-- Node7&#45;&gt;Node8 -->
<g id="edge7" class="edge">
<title>Node7&#45;&gt;Node8</title>
<path fill="none" stroke="midnightblue" d="M269.76,-39.68C252.3,-37.45 234.14,-35.14 219.21,-33.23"/>
<polygon fill="midnightblue" stroke="midnightblue" points="269.58,-43.19 279.94,-40.98 270.46,-36.24 269.58,-43.19"/>
</g>
<!-- Node9&#45;&gt;Node8 -->
<g id="edge9" class="edge">
<title>Node9&#45;&gt;Node8</title>
<path fill="none" stroke="midnightblue" d="M272.41,-17.98C254.07,-20.32 234.75,-22.78 219.03,-24.79"/>
<polygon fill="midnightblue" stroke="midnightblue" points="272.99,-21.44 282.47,-16.7 272.11,-14.49 272.99,-21.44"/>
</g>
</g>
</svg>
        <g id="navigator" transform="translate(0 0)" fill="#404254">
                <rect fill="#f2f5e9" fill-opacity="0.5" stroke="#606060" stroke-width=".5" x="0" y="0" width="60" height="60"/>
                <use id="zoomplus" xlink:href="#zoomPlus" x="17" y="9" onmousedown="handleZoom(evt,'in')"/>
                <use id="zoomminus" xlink:href="#zoomMin" x="42" y="9" onmousedown="handleZoom(evt,'out')"/>
                <use id="reset" xlink:href="#resetDef" x="30" y="36" onmousedown="handleReset()"/>
                <g id="arrowUp" xlink:href="#dirArrow" transform="translate(30 24)" onmousedown="handlePan(0,-1)">
                  <use xlink:href="#rim" fill="#404040">
                        <set attributeName="fill" to="#808080" begin="arrowUp.mouseover" end="arrowUp.mouseout"/>
                  </use>
                  <path fill="none" stroke="white" stroke-width="1.5" d="M0,-3.0v7 M-2.5,-0.5L0,-3.0L2.5,-0.5"/>
                </g>
                <g id="arrowRight" xlink:href="#dirArrow" transform="rotate(90) translate(36 -43)" onmousedown="handlePan(1,0)">
                  <use xlink:href="#rim" fill="#404040">
                        <set attributeName="fill" to="#808080" begin="arrowRight.mouseover" end="arrowRight.mouseout"/>
                  </use>
                  <path fill="none" stroke="white" stroke-width="1.5" d="M0,-3.0v7 M-2.5,-0.5L0,-3.0L2.5,-0.5"/>
                </g>
                <g id="arrowDown" xlink:href="#dirArrow" transform="rotate(180) translate(-30 -48)" onmousedown="handlePan(0,1)">
                  <use xlink:href="#rim" fill="#404040">
                        <set attributeName="fill" to="#808080" begin="arrowDown.mouseover" end="arrowDown.mouseout"/>
                  </use>
                  <path fill="none" stroke="white" stroke-width="1.5" d="M0,-3.0v7 M-2.5,-0.5L0,-3.0L2.5,-0.5"/>
                </g>
                <g id="arrowLeft" xlink:href="#dirArrow" transform="rotate(270) translate(-36 17)" onmousedown="handlePan(-1,0)">
                  <use xlink:href="#rim" fill="#404040">
                        <set attributeName="fill" to="#808080" begin="arrowLeft.mouseover" end="arrowLeft.mouseout"/>
                  </use>
                  <path fill="none" stroke="white" stroke-width="1.5" d="M0,-3.0v7 M-2.5,-0.5L0,-3.0L2.5,-0.5"/>
                </g>
        </g>
        <svg viewBox="0 0 15 15" width="100%" height="30px" preserveAspectRatio="xMaxYMin meet">
         <g id="arrow_out" transform="scale(0.3 0.3)">
          <a xlink:href="namespacextb__solv__model_a09669408f1afcf859c02d75c40ba59ff_icgraph_org.svg" target="_base">
           <rect id="button" ry="5" rx="5" y="6" x="6" height="38" width="38"
                fill="#f2f5e9" fill-opacity="0.5" stroke="#606060" stroke-width="1.0"/>
           <path id="arrow"
             d="M 11.500037,31.436501 C 11.940474,20.09759 22.043105,11.32322 32.158766,21.979434 L 37.068811,17.246167 C 37.068811,17.246167 37.088388,32 37.088388,32 L 22.160133,31.978069 C 22.160133,31.978069 26.997745,27.140456 26.997745,27.140456 C 18.528582,18.264221 13.291696,25.230495 11.500037,31.436501 z"
             style="fill:#404040;"/>
          </a>
         </g>
        </svg>
</svg>
