<?xml version="1.0" encoding="UTF-8" standalone="no"?>
<!DOCTYPE svg PUBLIC "-//W3C//DTD SVG 1.1//EN"
 "http://www.w3.org/Graphics/SVG/1.1/DTD/svg11.dtd">
<!-- Generated by graphviz version 2.43.0 (0)
 -->
<!-- Title: xtb_aespot::mmomgabzero Pages: 1 -->
<svg width="299pt" height="66pt"
 viewBox="0.00 0.00 299.00 66.00" xmlns="http://www.w3.org/2000/svg" xmlns:xlink="http://www.w3.org/1999/xlink">
<g id="graph0" class="graph" transform="scale(1 1) rotate(0) translate(4 62)">
<title>xtb_aespot::mmomgabzero</title>
<polygon fill="white" stroke="transparent" points="-4,4 -4,-62 295,-62 295,4 -4,4"/>
<!-- Node1 -->
<g id="node1" class="node">
<title>Node1</title>
<g id="a_node1"><a xlink:title=" ">
<polygon fill="#bfbfbf" stroke="black" points="0,-19.5 0,-38.5 151,-38.5 151,-19.5 0,-19.5"/>
<text text-anchor="middle" x="75.5" y="-26.5" font-family="Helvetica,sans-Serif" font-size="10.00">xtb_aespot::mmomgabzero</text>
</a>
</g>
</g>
<!-- Node2 -->
<g id="node2" class="node">
<title>Node2</title>
<g id="a_node2"><a xlink:href="namespacextb__aespot.html#afac1514dc9bcd3e46c74e7c137bcd2f4" target="_top" xlink:title=" ">
<polygon fill="white" stroke="black" points="187,-38.5 187,-57.5 291,-57.5 291,-38.5 187,-38.5"/>
<text text-anchor="middle" x="239" y="-45.5" font-family="Helvetica,sans-Serif" font-size="10.00">xtb_aespot::dzero</text>
</a>
</g>
</g>
<!-- Node1&#45;&gt;Node2 -->
<g id="edge1" class="edge">
<title>Node1&#45;&gt;Node2</title>
<path fill="none" stroke="midnightblue" d="M151.1,-37.78C159.68,-38.79 168.35,-39.81 176.73,-40.79"/>
<polygon fill="midnightblue" stroke="midnightblue" points="176.43,-44.28 186.77,-41.97 177.25,-37.33 176.43,-44.28"/>
</g>
<!-- Node3 -->
<g id="node3" class="node">
<title>Node3</title>
<g id="a_node3"><a xlink:href="namespacextb__aespot.html#a8c0f5ca1618a048cdb12d513094eb231" target="_top" xlink:title=" ">
<polygon fill="white" stroke="black" points="191.5,-0.5 191.5,-19.5 286.5,-19.5 286.5,-0.5 191.5,-0.5"/>
<text text-anchor="middle" x="239" y="-7.5" font-family="Helvetica,sans-Serif" font-size="10.00">xtb_aespot::gab</text>
</a>
</g>
</g>
<!-- Node1&#45;&gt;Node3 -->
<g id="edge2" class="edge">
<title>Node1&#45;&gt;Node3</title>
<path fill="none" stroke="midnightblue" d="M151.1,-20.22C161.29,-19.03 171.6,-17.81 181.39,-16.66"/>
<polygon fill="midnightblue" stroke="midnightblue" points="181.86,-20.13 191.38,-15.48 181.04,-13.18 181.86,-20.13"/>
</g>
</g>
</svg>
