<?xml version="1.0" encoding="UTF-8" standalone="no"?>
<!DOCTYPE svg PUBLIC "-//W3C//DTD SVG 1.1//EN"
 "http://www.w3.org/Graphics/SVG/1.1/DTD/svg11.dtd">
<!-- Generated by graphviz version 2.43.0 (0)
 -->
<!-- Title: xtb_solv_model::paramtomodel Pages: 1 -->
<svg width="558pt" height="66pt"
 viewBox="0.00 0.00 558.00 66.00" xmlns="http://www.w3.org/2000/svg" xmlns:xlink="http://www.w3.org/1999/xlink">
<g id="graph0" class="graph" transform="scale(1 1) rotate(0) translate(4 62)">
<title>xtb_solv_model::paramtomodel</title>
<polygon fill="white" stroke="transparent" points="-4,4 -4,-62 554,-62 554,4 -4,4"/>
<!-- Node1 -->
<g id="node1" class="node">
<title>Node1</title>
<g id="a_node1"><a xlink:title=" ">
<polygon fill="#bfbfbf" stroke="black" points="378,-19.5 378,-38.5 550,-38.5 550,-19.5 378,-19.5"/>
<text text-anchor="middle" x="464" y="-26.5" font-family="Helvetica,sans-Serif" font-size="10.00">xtb_solv_model::paramtomodel</text>
</a>
</g>
</g>
<!-- Node2 -->
<g id="node2" class="node">
<title>Node2</title>
<g id="a_node2"><a xlink:href="namespacextb__solv__model.html#ad12159e8fbc4ee0b16646feae1616d90" target="_top" xlink:title="Load internal parameters, if no parameter file is present.">
<polygon fill="white" stroke="black" points="152,-38.5 152,-57.5 342,-57.5 342,-38.5 152,-38.5"/>
<text text-anchor="middle" x="247" y="-45.5" font-family="Helvetica,sans-Serif" font-size="10.00">xtb_solv_model::loadinternalparam</text>
</a>
</g>
</g>
<!-- Node1&#45;&gt;Node2 -->
<g id="edge1" class="edge">
<title>Node1&#45;&gt;Node2</title>
<path fill="none" stroke="midnightblue" d="M367.75,-37.42C359.21,-38.17 350.56,-38.94 342.03,-39.69"/>
<polygon fill="midnightblue" stroke="midnightblue" points="368.06,-40.9 377.72,-36.54 367.45,-33.93 368.06,-40.9"/>
</g>
<!-- Node4 -->
<g id="node4" class="node">
<title>Node4</title>
<g id="a_node4"><a xlink:href="namespacextb__solv__model.html#ab689ca99e0b6905258798d94f485db80" target="_top" xlink:title=" ">
<polygon fill="white" stroke="black" points="163,-0.5 163,-19.5 331,-19.5 331,-0.5 163,-0.5"/>
<text text-anchor="middle" x="247" y="-7.5" font-family="Helvetica,sans-Serif" font-size="10.00">xtb_solv_model::readparamfile</text>
</a>
</g>
</g>
<!-- Node1&#45;&gt;Node4 -->
<g id="edge3" class="edge">
<title>Node1&#45;&gt;Node4</title>
<path fill="none" stroke="midnightblue" d="M367.56,-20.57C355.4,-19.49 343.02,-18.4 331.07,-17.34"/>
<polygon fill="midnightblue" stroke="midnightblue" points="367.45,-24.07 377.72,-21.46 368.06,-17.1 367.45,-24.07"/>
</g>
<!-- Node3 -->
<g id="node3" class="node">
<title>Node3</title>
<g id="a_node3"><a xlink:href="interfacextb__solv__model_1_1init.html#a37e1fd9e006e5887c3978a6f6a3858c8" target="_top" xlink:title="Initialize solvation model from input.">
<polygon fill="white" stroke="black" points="0,-14 0,-44 116,-44 116,-14 0,-14"/>
<text text-anchor="start" x="8" y="-32" font-family="Helvetica,sans-Serif" font-size="10.00">xtb_solv_model::init</text>
<text text-anchor="middle" x="58" y="-21" font-family="Helvetica,sans-Serif" font-size="10.00">::initsolvmodel</text>
</a>
</g>
</g>
<!-- Node2&#45;&gt;Node3 -->
<g id="edge2" class="edge">
<title>Node2&#45;&gt;Node3</title>
<path fill="none" stroke="midnightblue" d="M142.15,-37.45C133.26,-36.55 124.5,-35.66 116.19,-34.81"/>
<polygon fill="midnightblue" stroke="midnightblue" points="141.92,-40.94 152.23,-38.47 142.63,-33.98 141.92,-40.94"/>
</g>
<!-- Node4&#45;&gt;Node3 -->
<g id="edge4" class="edge">
<title>Node4&#45;&gt;Node3</title>
<path fill="none" stroke="midnightblue" d="M152.85,-19.46C140.32,-20.74 127.77,-22.01 116.12,-23.2"/>
<polygon fill="midnightblue" stroke="midnightblue" points="153.3,-22.94 162.89,-18.44 152.59,-15.97 153.3,-22.94"/>
</g>
</g>
</svg>
