<?xml version="1.0" encoding="UTF-8" standalone="no"?>
<!DOCTYPE svg PUBLIC "-//W3C//DTD SVG 1.1//EN"
 "http://www.w3.org/Graphics/SVG/1.1/DTD/svg11.dtd">
<!-- Generated by graphviz version 2.46.1 (20210215.1649)
 -->
<!-- Title: xtb_modelhessian::fk_lindh Pages: 1 -->
<!--zoomable 304 -->
<svg id="main" version="1.1" xmlns="http://www.w3.org/2000/svg" xmlns:xlink="http://www.w3.org/1999/xlink" xml:space="preserve" onload="init(evt)">
<style type="text/css"><![CDATA[
.edge:hover path { stroke: red; }
.edge:hover polygon { stroke: red; fill: red; }
]]></style>
<script type="text/javascript"><![CDATA[
var edges = document.getElementsByTagName('g');
if (edges && edges.length) {
  for (var i=0;i<edges.length;i++) {
    if (edges[i].id.substr(0,4)=='edge') {
      edges[i].setAttribute('class','edge');
    }
  }
}
]]></script>
        <defs>
                <circle id="rim" cx="0" cy="0" r="7"/>
                <circle id="rim2" cx="0" cy="0" r="3.5"/>
                <g id="zoomPlus">
                        <use xlink:href="#rim" fill="#404040">
                                <set attributeName="fill" to="#808080" begin="zoomplus.mouseover" end="zoomplus.mouseout"/>
                        </use>
                        <path d="M-4,0h8M0,-4v8" fill="none" stroke="white" stroke-width="1.5" pointer-events="none"/>
                </g>
                <g id="zoomMin">
                        <use xlink:href="#rim" fill="#404040">
                                <set attributeName="fill" to="#808080" begin="zoomminus.mouseover" end="zoomminus.mouseout"/>
                        </use>
                        <path d="M-4,0h8" fill="none" stroke="white" stroke-width="1.5" pointer-events="none"/>
                </g>
                <g id="dirArrow">
                        <path fill="none" stroke="white" stroke-width="1.5" d="M0,-3.0v7 M-2.5,-0.5L0,-3.0L2.5,-0.5"/>
                </g>
               <g id="resetDef">
                       <use xlink:href="#rim2" fill="#404040">
                               <set attributeName="fill" to="#808080" begin="reset.mouseover" end="reset.mouseout"/>
                       </use>
               </g>
        </defs>

<script type="text/javascript">
var viewWidth = 1439;
var viewHeight = 304;
var sectionId = 'dynsection-2';
</script>
<script xlink:href="svgpan.js"/>
<svg id="graph" class="graph">
<g id="viewport">
<title>xtb_modelhessian::fk_lindh</title>
<polygon fill="white" stroke="transparent" points="-4,4 -4,-300 1435,-300 1435,4 -4,4"/>
<!-- Node1 -->
<g id="node1" class="node">
<title>Node1</title>
<g id="a_node1"><a xlink:title=" ">
<polygon fill="#bfbfbf" stroke="black" points="1324,-156 1324,-186 1431,-186 1431,-156 1324,-156"/>
<text text-anchor="start" x="1332" y="-174" font-family="Helvetica,sans-Serif" font-size="10.00">xtb_modelhessian::fk</text>
<text text-anchor="middle" x="1377.5" y="-163" font-family="Helvetica,sans-Serif" font-size="10.00">_lindh</text>
</a>
</g>
</g>
<!-- Node2 -->
<g id="node2" class="node">
<title>Node2</title>
<g id="a_node2"><a xlink:href="namespacextb__modelhessian.html#ab29d7b93ed20ce3214ef992f8ef0370f" target="_top" xlink:title=" ">
<polygon fill="white" stroke="black" points="1175,-132 1175,-162 1288,-162 1288,-132 1175,-132"/>
<text text-anchor="start" x="1183" y="-150" font-family="Helvetica,sans-Serif" font-size="10.00">xtb_modelhessian::mh</text>
<text text-anchor="middle" x="1231.5" y="-139" font-family="Helvetica,sans-Serif" font-size="10.00">_lindh_bend</text>
</a>
</g>
</g>
<!-- Node1&#45;&gt;Node2 -->
<g id="edge1" class="edge">
<title>Node1&#45;&gt;Node2</title>
<path fill="none" stroke="midnightblue" d="M1313.81,-160.55C1305.28,-159.13 1296.59,-157.68 1288.2,-156.28"/>
<polygon fill="midnightblue" stroke="midnightblue" points="1313.26,-164.01 1323.7,-162.2 1314.41,-157.1 1313.26,-164.01"/>
</g>
<!-- Node20 -->
<g id="node20" class="node">
<title>Node20</title>
<g id="a_node20"><a xlink:href="namespacextb__modelhessian.html#a2e8976cb9c4591516b0900268639467c" target="_top" xlink:title=" ">
<polygon fill="white" stroke="black" points="1175,-83 1175,-113 1288,-113 1288,-83 1175,-83"/>
<text text-anchor="start" x="1183" y="-101" font-family="Helvetica,sans-Serif" font-size="10.00">xtb_modelhessian::mh</text>
<text text-anchor="middle" x="1231.5" y="-90" font-family="Helvetica,sans-Serif" font-size="10.00">_lindh_outofp</text>
</a>
</g>
</g>
<!-- Node1&#45;&gt;Node20 -->
<g id="edge29" class="edge">
<title>Node1&#45;&gt;Node20</title>
<path fill="none" stroke="midnightblue" d="M1341.83,-150.78C1325.66,-141.61 1306.05,-130.87 1288,-122 1281.88,-118.99 1275.28,-115.96 1268.86,-113.12"/>
<polygon fill="midnightblue" stroke="midnightblue" points="1340.49,-154.04 1350.91,-155.96 1343.96,-147.96 1340.49,-154.04"/>
</g>
<!-- Node21 -->
<g id="node21" class="node">
<title>Node21</title>
<g id="a_node21"><a xlink:href="namespacextb__modelhessian.html#a4c17f34c7e6e077f473d0251740f2869" target="_top" xlink:title=" ">
<polygon fill="white" stroke="black" points="1175,-230 1175,-260 1288,-260 1288,-230 1175,-230"/>
<text text-anchor="start" x="1183" y="-248" font-family="Helvetica,sans-Serif" font-size="10.00">xtb_modelhessian::mh</text>
<text text-anchor="middle" x="1231.5" y="-237" font-family="Helvetica,sans-Serif" font-size="10.00">_lindh_stretch</text>
</a>
</g>
</g>
<!-- Node1&#45;&gt;Node21 -->
<g id="edge32" class="edge">
<title>Node1&#45;&gt;Node21</title>
<path fill="none" stroke="midnightblue" d="M1342.68,-191.22C1326.37,-200.69 1306.4,-211.86 1288,-221 1281.89,-224.04 1275.3,-227.08 1268.88,-229.93"/>
<polygon fill="midnightblue" stroke="midnightblue" points="1344.46,-194.24 1351.33,-186.17 1340.93,-188.19 1344.46,-194.24"/>
</g>
<!-- Node22 -->
<g id="node22" class="node">
<title>Node22</title>
<g id="a_node22"><a xlink:href="namespacextb__modelhessian.html#a976dfe1c65e67443be6dd32dfc9c5799" target="_top" xlink:title=" ">
<polygon fill="white" stroke="black" points="1175,-181 1175,-211 1288,-211 1288,-181 1175,-181"/>
<text text-anchor="start" x="1183" y="-199" font-family="Helvetica,sans-Serif" font-size="10.00">xtb_modelhessian::mh</text>
<text text-anchor="middle" x="1231.5" y="-188" font-family="Helvetica,sans-Serif" font-size="10.00">_lindh_torsion</text>
</a>
</g>
</g>
<!-- Node1&#45;&gt;Node22 -->
<g id="edge35" class="edge">
<title>Node1&#45;&gt;Node22</title>
<path fill="none" stroke="midnightblue" d="M1313.81,-181.88C1305.28,-183.36 1296.59,-184.87 1288.2,-186.33"/>
<polygon fill="midnightblue" stroke="midnightblue" points="1314.44,-185.33 1323.7,-180.17 1313.25,-178.43 1314.44,-185.33"/>
</g>
<!-- Node3 -->
<g id="node3" class="node">
<title>Node3</title>
<g id="a_node3"><a xlink:href="namespacextb__modelhessian.html#a6bc2a8d29739cdd126d59aafcd2dee6d" target="_top" xlink:title=" ">
<polygon fill="white" stroke="black" points="1026,-181 1026,-211 1139,-211 1139,-181 1026,-181"/>
<text text-anchor="start" x="1034" y="-199" font-family="Helvetica,sans-Serif" font-size="10.00">xtb_modelhessian::mh</text>
<text text-anchor="middle" x="1082.5" y="-188" font-family="Helvetica,sans-Serif" font-size="10.00">_lindh</text>
</a>
</g>
</g>
<!-- Node2&#45;&gt;Node3 -->
<g id="edge2" class="edge">
<title>Node2&#45;&gt;Node3</title>
<path fill="none" stroke="midnightblue" d="M1175.28,-165.41C1159.9,-170.53 1143.38,-176.04 1128.65,-180.95"/>
<polygon fill="midnightblue" stroke="midnightblue" points="1176.82,-168.58 1185.2,-162.1 1174.6,-161.94 1176.82,-168.58"/>
</g>
<!-- Node19 -->
<g id="node19" class="node">
<title>Node19</title>
<g id="a_node19"><a xlink:href="namespacextb__modelhessian.html#aeac126ed2b182b5b9b95cc656eeebdd8" target="_top" xlink:title=" ">
<polygon fill="white" stroke="black" points="1026,-132 1026,-162 1139,-162 1139,-132 1026,-132"/>
<text text-anchor="start" x="1034" y="-150" font-family="Helvetica,sans-Serif" font-size="10.00">xtb_modelhessian::mh</text>
<text text-anchor="middle" x="1082.5" y="-139" font-family="Helvetica,sans-Serif" font-size="10.00">_lindh_d2</text>
</a>
</g>
</g>
<!-- Node2&#45;&gt;Node19 -->
<g id="edge27" class="edge">
<title>Node2&#45;&gt;Node19</title>
<path fill="none" stroke="midnightblue" d="M1164.92,-147C1156.32,-147 1147.57,-147 1139.15,-147"/>
<polygon fill="midnightblue" stroke="midnightblue" points="1164.93,-150.5 1174.93,-147 1164.93,-143.5 1164.93,-150.5"/>
</g>
<!-- Node4 -->
<g id="node4" class="node">
<title>Node4</title>
<g id="a_node4"><a xlink:href="namespacextb__optimizer.html#a9fc9ad9955c0a2ef4872d25495d02901" target="_top" xlink:title=" ">
<polygon fill="white" stroke="black" points="877,-161.5 877,-180.5 990,-180.5 990,-161.5 877,-161.5"/>
<text text-anchor="middle" x="933.5" y="-168.5" font-family="Helvetica,sans-Serif" font-size="10.00">xtb_optimizer::modhes</text>
</a>
</g>
</g>
<!-- Node3&#45;&gt;Node4 -->
<g id="edge3" class="edge">
<title>Node3&#45;&gt;Node4</title>
<path fill="none" stroke="midnightblue" d="M1015.92,-184.85C1007.32,-183.38 998.57,-181.9 990.15,-180.46"/>
<polygon fill="midnightblue" stroke="midnightblue" points="1015.48,-188.32 1025.93,-186.55 1016.65,-181.42 1015.48,-188.32"/>
</g>
<!-- Node5 -->
<g id="node5" class="node">
<title>Node5</title>
<g id="a_node5"><a xlink:href="namespacextb__optimizer.html#a1743159550358c92fb2761af80e15285" target="_top" xlink:title=" ">
<polygon fill="white" stroke="black" points="732.5,-205.5 732.5,-224.5 839.5,-224.5 839.5,-205.5 732.5,-205.5"/>
<text text-anchor="middle" x="786" y="-212.5" font-family="Helvetica,sans-Serif" font-size="10.00">xtb_optimizer::ancopt</text>
</a>
</g>
</g>
<!-- Node4&#45;&gt;Node5 -->
<g id="edge4" class="edge">
<title>Node4&#45;&gt;Node5</title>
<path fill="none" stroke="midnightblue" d="M891.07,-183.53C868.01,-190.5 839.76,-199.05 818.51,-205.47"/>
<polygon fill="midnightblue" stroke="midnightblue" points="892.37,-186.79 900.93,-180.55 890.34,-180.09 892.37,-186.79"/>
</g>
<!-- Node17 -->
<g id="node17" class="node">
<title>Node17</title>
<g id="a_node17"><a xlink:href="namespacextb__relaxation__engine.html#a930f6aac4b13eab0de82f2b71bcde96b" target="_top" xlink:title="frontend implementation of the fast inertial relaxation engine">
<polygon fill="white" stroke="black" points="731,-107 731,-137 841,-137 841,-107 731,-107"/>
<text text-anchor="start" x="739" y="-125" font-family="Helvetica,sans-Serif" font-size="10.00">xtb_relaxation_engine</text>
<text text-anchor="middle" x="786" y="-114" font-family="Helvetica,sans-Serif" font-size="10.00">::fire</text>
</a>
</g>
</g>
<!-- Node4&#45;&gt;Node17 -->
<g id="edge23" class="edge">
<title>Node4&#45;&gt;Node17</title>
<path fill="none" stroke="midnightblue" d="M894.46,-158.19C875.22,-151.71 851.75,-143.8 831.65,-137.04"/>
<polygon fill="midnightblue" stroke="midnightblue" points="893.51,-161.56 904.1,-161.44 895.74,-154.93 893.51,-161.56"/>
</g>
<!-- Node18 -->
<g id="node18" class="node">
<title>Node18</title>
<g id="a_node18"><a xlink:href="namespacextb__relaxation__engine.html#a93ca131c43cfa21276f1bc353c189423" target="_top" xlink:title="frontend implementation of the low memory/linear scaling (by taste)">
<polygon fill="white" stroke="black" points="731,-156 731,-186 841,-186 841,-156 731,-156"/>
<text text-anchor="start" x="739" y="-174" font-family="Helvetica,sans-Serif" font-size="10.00">xtb_relaxation_engine</text>
<text text-anchor="middle" x="786" y="-163" font-family="Helvetica,sans-Serif" font-size="10.00">::l_ancopt</text>
</a>
</g>
</g>
<!-- Node4&#45;&gt;Node18 -->
<g id="edge25" class="edge">
<title>Node4&#45;&gt;Node18</title>
<path fill="none" stroke="midnightblue" d="M866.39,-171C857.9,-171 849.28,-171 841.01,-171"/>
<polygon fill="midnightblue" stroke="midnightblue" points="866.66,-174.5 876.66,-171 866.66,-167.5 866.66,-174.5"/>
</g>
<!-- Node6 -->
<g id="node6" class="node">
<title>Node6</title>
<g id="a_node6"><a xlink:href="namespacextb__biaspath.html#a17ea22b101e578a3df8d2b58b96811a5" target="_top" xlink:title=" ">
<polygon fill="white" stroke="black" points="280,-276.5 280,-295.5 398,-295.5 398,-276.5 280,-276.5"/>
<text text-anchor="middle" x="339" y="-283.5" font-family="Helvetica,sans-Serif" font-size="10.00">xtb_biaspath::bias_path</text>
</a>
</g>
</g>
<!-- Node5&#45;&gt;Node6 -->
<g id="edge5" class="edge">
<title>Node5&#45;&gt;Node6</title>
<path fill="none" stroke="midnightblue" d="M741.01,-227.18C694.26,-239.65 617.98,-258.63 551,-269 499.61,-276.96 440.57,-281.31 398.03,-283.61"/>
<polygon fill="midnightblue" stroke="midnightblue" points="742.06,-230.53 750.81,-224.55 740.25,-223.77 742.06,-230.53"/>
</g>
<!-- Node9 -->
<g id="node9" class="node">
<title>Node9</title>
<g id="a_node9"><a xlink:href="namespacextb__geoopt.html#a1f0513294f2237b94f355cc4dc5dd867" target="_top" xlink:title=" ">
<polygon fill="white" stroke="black" points="587,-131 587,-161 695,-161 695,-131 587,-131"/>
<text text-anchor="start" x="595" y="-149" font-family="Helvetica,sans-Serif" font-size="10.00">xtb_geoopt::geometry</text>
<text text-anchor="middle" x="641" y="-138" font-family="Helvetica,sans-Serif" font-size="10.00">_optimization</text>
</a>
</g>
</g>
<!-- Node5&#45;&gt;Node9 -->
<g id="edge8" class="edge">
<title>Node5&#45;&gt;Node9</title>
<path fill="none" stroke="midnightblue" d="M747.02,-201.74C741.59,-199.62 736.11,-197.34 731,-195 708.86,-184.88 684.73,-171.43 667.19,-161.18"/>
<polygon fill="midnightblue" stroke="midnightblue" points="746.06,-205.13 756.65,-205.4 748.54,-198.58 746.06,-205.13"/>
</g>
<!-- Node7 -->
<g id="node7" class="node">
<title>Node7</title>
<g id="a_node7"><a xlink:href="namespacextb__prog__main.html#a92b3b61ee04235e6343f652095682529" target="_top" xlink:title=" ">
<polygon fill="white" stroke="black" points="126,-133.5 126,-152.5 244,-152.5 244,-133.5 126,-133.5"/>
<text text-anchor="middle" x="185" y="-140.5" font-family="Helvetica,sans-Serif" font-size="10.00">xtb_prog_main::xtbmain</text>
</a>
</g>
</g>
<!-- Node6&#45;&gt;Node7 -->
<g id="edge6" class="edge">
<title>Node6&#45;&gt;Node7</title>
<path fill="none" stroke="midnightblue" d="M298.62,-272.17C292.09,-269.01 285.62,-265.29 280,-261 238.17,-229.03 204.08,-174.52 191.36,-152.57"/>
<polygon fill="midnightblue" stroke="midnightblue" points="297.59,-275.54 308.15,-276.4 300.43,-269.14 297.59,-275.54"/>
</g>
<!-- Node8 -->
<g id="node8" class="node">
<title>Node8</title>
<g id="a_node8"><a xlink:href="primary_8f90.html#a2a67903cf5be605c5b6d3c362c6a3c5c" target="_top" xlink:title="The primary driver for the xtb program package.">
<polygon fill="white" stroke="black" points="0,-133.5 0,-152.5 90,-152.5 90,-133.5 0,-133.5"/>
<text text-anchor="middle" x="45" y="-140.5" font-family="Helvetica,sans-Serif" font-size="10.00">xtb_prog_primary</text>
</a>
</g>
</g>
<!-- Node7&#45;&gt;Node8 -->
<g id="edge7" class="edge">
<title>Node7&#45;&gt;Node8</title>
<path fill="none" stroke="midnightblue" d="M115.73,-143C107.06,-143 98.37,-143 90.22,-143"/>
<polygon fill="midnightblue" stroke="midnightblue" points="115.88,-146.5 125.88,-143 115.88,-139.5 115.88,-146.5"/>
</g>
<!-- Node9&#45;&gt;Node7 -->
<g id="edge22" class="edge">
<title>Node9&#45;&gt;Node7</title>
<path fill="none" stroke="midnightblue" d="M576.76,-143.61C568.1,-143.35 559.33,-143.14 551,-143 442.66,-141.17 316.2,-141.79 244.16,-142.4"/>
<polygon fill="midnightblue" stroke="midnightblue" points="576.72,-147.11 586.83,-143.91 576.94,-140.11 576.72,-147.11"/>
</g>
<!-- Node10 -->
<g id="node10" class="node">
<title>Node10</title>
<g id="a_node10"><a xlink:href="namespacextb__kopt.html#ada4ab70832f563f46c8ffc8cea64c78b" target="_top" xlink:title=" ">
<polygon fill="white" stroke="black" points="443.5,-76.5 443.5,-95.5 541.5,-95.5 541.5,-76.5 443.5,-76.5"/>
<text text-anchor="middle" x="492.5" y="-83.5" font-family="Helvetica,sans-Serif" font-size="10.00">xtb_kopt::get_rmsd</text>
</a>
</g>
</g>
<!-- Node9&#45;&gt;Node10 -->
<g id="edge9" class="edge">
<title>Node9&#45;&gt;Node10</title>
<path fill="none" stroke="midnightblue" d="M593.5,-126.96C567.91,-116.48 537.28,-103.93 516.71,-95.51"/>
<polygon fill="midnightblue" stroke="midnightblue" points="592.45,-130.31 603.03,-130.86 595.1,-123.83 592.45,-130.31"/>
</g>
<!-- Node12 -->
<g id="node12" class="node">
<title>Node12</title>
<g id="a_node12"><a xlink:href="namespacextb__mdoptim.html#ab0ba2195163cd6794115b99516ba5316" target="_top" xlink:title=" ">
<polygon fill="white" stroke="black" points="287,-38.5 287,-57.5 391,-57.5 391,-38.5 287,-38.5"/>
<text text-anchor="middle" x="339" y="-45.5" font-family="Helvetica,sans-Serif" font-size="10.00">xtb_mdoptim::mdopt</text>
</a>
</g>
</g>
<!-- Node9&#45;&gt;Node12 -->
<g id="edge12" class="edge">
<title>Node9&#45;&gt;Node12</title>
<path fill="none" stroke="midnightblue" d="M621.72,-123.17C605.35,-104.54 579.58,-79.35 551,-67 499.85,-44.9 435.34,-42.3 391.2,-43.86"/>
<polygon fill="midnightblue" stroke="midnightblue" points="619.2,-125.6 628.35,-130.94 624.53,-121.06 619.2,-125.6"/>
</g>
<!-- Node13 -->
<g id="node13" class="node">
<title>Node13</title>
<g id="a_node13"><a xlink:href="namespacextb__modef.html#a39c4cb408b8b02afb7bf83a1d7f13de3" target="_top" xlink:title=" ">
<polygon fill="white" stroke="black" points="281,-0.5 281,-19.5 397,-19.5 397,-0.5 281,-0.5"/>
<text text-anchor="middle" x="339" y="-7.5" font-family="Helvetica,sans-Serif" font-size="10.00">xtb_modef::modefollow</text>
</a>
</g>
</g>
<!-- Node9&#45;&gt;Node13 -->
<g id="edge14" class="edge">
<title>Node9&#45;&gt;Node13</title>
<path fill="none" stroke="midnightblue" d="M626.82,-122.05C611.88,-97.38 585.09,-59.92 551,-41 503.74,-14.76 441.75,-8.37 397.21,-7.72"/>
<polygon fill="midnightblue" stroke="midnightblue" points="623.89,-123.96 631.96,-130.82 629.92,-120.42 623.89,-123.96"/>
</g>
<!-- Node14 -->
<g id="node14" class="node">
<title>Node14</title>
<g id="a_node14"><a xlink:href="namespacextb__scan.html#abef8f8d0fa299e9e2caf823f3672f14a" target="_top" xlink:title=" ">
<polygon fill="white" stroke="black" points="434,-240.5 434,-259.5 551,-259.5 551,-240.5 434,-240.5"/>
<text text-anchor="middle" x="492.5" y="-247.5" font-family="Helvetica,sans-Serif" font-size="10.00">xtb_scan::relaxed_scan</text>
</a>
</g>
</g>
<!-- Node9&#45;&gt;Node14 -->
<g id="edge16" class="edge">
<title>Node9&#45;&gt;Node14</title>
<path fill="none" stroke="midnightblue" d="M621.45,-168.64C604.78,-187.67 578.73,-214.35 551,-231 544.69,-234.79 537.53,-237.93 530.46,-240.48"/>
<polygon fill="midnightblue" stroke="midnightblue" points="624.14,-170.88 627.99,-161.01 618.83,-166.32 624.14,-170.88"/>
</g>
<!-- Node15 -->
<g id="node15" class="node">
<title>Node15</title>
<g id="a_node15"><a xlink:href="namespacextb__screening.html#a7f4004ff0e65127a38b038f0a7cdcc84" target="_top" xlink:title=" ">
<polygon fill="white" stroke="black" points="437.5,-202.5 437.5,-221.5 547.5,-221.5 547.5,-202.5 437.5,-202.5"/>
<text text-anchor="middle" x="492.5" y="-209.5" font-family="Helvetica,sans-Serif" font-size="10.00">xtb_screening::screen</text>
</a>
</g>
</g>
<!-- Node9&#45;&gt;Node15 -->
<g id="edge18" class="edge">
<title>Node9&#45;&gt;Node15</title>
<path fill="none" stroke="midnightblue" d="M604.2,-165.99C588.18,-174.54 568.9,-184.31 551,-192 542.26,-195.76 532.56,-199.34 523.65,-202.42"/>
<polygon fill="midnightblue" stroke="midnightblue" points="606.08,-168.95 613.22,-161.11 602.75,-162.79 606.08,-168.95"/>
</g>
<!-- Node16 -->
<g id="node16" class="node">
<title>Node16</title>
<g id="a_node16"><a xlink:href="namespacextb__gfnff__convert.html#adf399b47b9f2a8364327d9d5c38cb2b8" target="_top" xlink:title=" ">
<polygon fill="white" stroke="black" points="445,-153 445,-183 540,-183 540,-153 445,-153"/>
<text text-anchor="start" x="453" y="-171" font-family="Helvetica,sans-Serif" font-size="10.00">xtb_gfnff_convert::</text>
<text text-anchor="middle" x="492.5" y="-160" font-family="Helvetica,sans-Serif" font-size="10.00">struc_convert</text>
</a>
</g>
</g>
<!-- Node9&#45;&gt;Node16 -->
<g id="edge20" class="edge">
<title>Node9&#45;&gt;Node16</title>
<path fill="none" stroke="midnightblue" d="M576.56,-155.53C564.36,-157.36 551.78,-159.25 540.23,-160.98"/>
<polygon fill="midnightblue" stroke="midnightblue" points="577.33,-158.95 586.7,-154 576.29,-152.03 577.33,-158.95"/>
</g>
<!-- Node11 -->
<g id="node11" class="node">
<title>Node11</title>
<g id="a_node11"><a xlink:href="namespacextb__kopt.html#aed50b40106367857ab2d0bf3a109f62b" target="_top" xlink:title=" ">
<polygon fill="white" stroke="black" points="291.5,-76.5 291.5,-95.5 386.5,-95.5 386.5,-76.5 291.5,-76.5"/>
<text text-anchor="middle" x="339" y="-83.5" font-family="Helvetica,sans-Serif" font-size="10.00">xtb_kopt::get_kopt</text>
</a>
</g>
</g>
<!-- Node10&#45;&gt;Node11 -->
<g id="edge10" class="edge">
<title>Node10&#45;&gt;Node11</title>
<path fill="none" stroke="midnightblue" d="M432.75,-86C417.45,-86 401.18,-86 386.6,-86"/>
<polygon fill="midnightblue" stroke="midnightblue" points="433.15,-89.5 443.15,-86 433.15,-82.5 433.15,-89.5"/>
</g>
<!-- Node11&#45;&gt;Node7 -->
<g id="edge11" class="edge">
<title>Node11&#45;&gt;Node7</title>
<path fill="none" stroke="midnightblue" d="M303.16,-99.07C275.22,-109.54 236.65,-124.01 211.52,-133.43"/>
<polygon fill="midnightblue" stroke="midnightblue" points="304.42,-102.33 312.56,-95.54 301.97,-95.77 304.42,-102.33"/>
</g>
<!-- Node12&#45;&gt;Node7 -->
<g id="edge13" class="edge">
<title>Node12&#45;&gt;Node7</title>
<path fill="none" stroke="midnightblue" d="M292.43,-61.15C288.14,-62.91 283.93,-64.86 280,-67 245.53,-85.75 211.26,-117.66 195.29,-133.5"/>
<polygon fill="midnightblue" stroke="midnightblue" points="293.76,-64.39 301.88,-57.58 291.28,-57.84 293.76,-64.39"/>
</g>
<!-- Node13&#45;&gt;Node7 -->
<g id="edge15" class="edge">
<title>Node13&#45;&gt;Node7</title>
<path fill="none" stroke="midnightblue" d="M289.22,-23.65C286,-25.25 282.89,-27.03 280,-29 237.63,-57.92 204.09,-111.23 191.44,-133.17"/>
<polygon fill="midnightblue" stroke="midnightblue" points="290.76,-26.79 298.51,-19.58 287.95,-20.38 290.76,-26.79"/>
</g>
<!-- Node14&#45;&gt;Node7 -->
<g id="edge17" class="edge">
<title>Node14&#45;&gt;Node7</title>
<path fill="none" stroke="midnightblue" d="M425.9,-238.43C383.37,-229.75 327.29,-216.08 280,-197 249.81,-184.82 217.49,-164.44 199.71,-152.51"/>
<polygon fill="midnightblue" stroke="midnightblue" points="425.36,-241.89 435.85,-240.42 426.73,-235.03 425.36,-241.89"/>
</g>
<!-- Node15&#45;&gt;Node7 -->
<g id="edge19" class="edge">
<title>Node15&#45;&gt;Node7</title>
<path fill="none" stroke="midnightblue" d="M427.49,-200.73C385.38,-192.96 329.17,-181.92 280,-170 258.71,-164.84 235.01,-158.02 216.73,-152.53"/>
<polygon fill="midnightblue" stroke="midnightblue" points="426.86,-204.17 437.33,-202.53 428.13,-197.29 426.86,-204.17"/>
</g>
<!-- Node16&#45;&gt;Node7 -->
<g id="edge21" class="edge">
<title>Node16&#45;&gt;Node7</title>
<path fill="none" stroke="midnightblue" d="M434.63,-163.35C380.34,-158.9 298.95,-152.24 244.22,-147.76"/>
<polygon fill="midnightblue" stroke="midnightblue" points="434.52,-166.85 444.77,-164.18 435.09,-159.87 434.52,-166.85"/>
</g>
<!-- Node17&#45;&gt;Node9 -->
<g id="edge24" class="edge">
<title>Node17&#45;&gt;Node9</title>
<path fill="none" stroke="midnightblue" d="M720.93,-132.75C712.33,-134.2 703.58,-135.66 695.19,-137.07"/>
<polygon fill="midnightblue" stroke="midnightblue" points="721.66,-136.18 730.94,-131.07 720.5,-129.28 721.66,-136.18"/>
</g>
<!-- Node18&#45;&gt;Node9 -->
<g id="edge26" class="edge">
<title>Node18&#45;&gt;Node9</title>
<path fill="none" stroke="midnightblue" d="M720.93,-159.8C712.33,-158.3 703.58,-156.77 695.19,-155.3"/>
<polygon fill="midnightblue" stroke="midnightblue" points="720.48,-163.27 730.94,-161.55 721.69,-156.38 720.48,-163.27"/>
</g>
<!-- Node19&#45;&gt;Node4 -->
<g id="edge28" class="edge">
<title>Node19&#45;&gt;Node4</title>
<path fill="none" stroke="midnightblue" d="M1015.92,-157.71C1007.32,-159.11 998.57,-160.54 990.15,-161.91"/>
<polygon fill="midnightblue" stroke="midnightblue" points="1016.62,-161.14 1025.93,-156.07 1015.49,-154.23 1016.62,-161.14"/>
</g>
<!-- Node20&#45;&gt;Node3 -->
<g id="edge30" class="edge">
<title>Node20&#45;&gt;Node3</title>
<path fill="none" stroke="midnightblue" d="M1179.92,-118.41C1178.22,-119.55 1176.57,-120.75 1175,-122 1153.86,-138.84 1160.01,-154 1139,-171 1134.4,-174.72 1129.16,-178.01 1123.77,-180.88"/>
<polygon fill="midnightblue" stroke="midnightblue" points="1182,-121.24 1188.79,-113.1 1178.41,-115.23 1182,-121.24"/>
</g>
<!-- Node20&#45;&gt;Node19 -->
<g id="edge31" class="edge">
<title>Node20&#45;&gt;Node19</title>
<path fill="none" stroke="midnightblue" d="M1175.28,-116.41C1159.9,-121.53 1143.38,-127.04 1128.65,-131.95"/>
<polygon fill="midnightblue" stroke="midnightblue" points="1176.82,-119.58 1185.2,-113.1 1174.6,-112.94 1176.82,-119.58"/>
</g>
<!-- Node21&#45;&gt;Node3 -->
<g id="edge33" class="edge">
<title>Node21&#45;&gt;Node3</title>
<path fill="none" stroke="midnightblue" d="M1175.28,-226.59C1159.9,-221.47 1143.38,-215.96 1128.65,-211.05"/>
<polygon fill="midnightblue" stroke="midnightblue" points="1174.6,-230.06 1185.2,-229.9 1176.82,-223.42 1174.6,-230.06"/>
</g>
<!-- Node21&#45;&gt;Node19 -->
<g id="edge34" class="edge">
<title>Node21&#45;&gt;Node19</title>
<path fill="none" stroke="midnightblue" d="M1179.9,-224.61C1178.2,-223.46 1176.56,-222.26 1175,-221 1153.66,-203.84 1160.34,-188.16 1139,-171 1134.83,-167.64 1130.12,-164.67 1125.24,-162.07"/>
<polygon fill="midnightblue" stroke="midnightblue" points="1178.38,-227.78 1188.76,-229.93 1181.99,-221.78 1178.38,-227.78"/>
</g>
<!-- Node22&#45;&gt;Node3 -->
<g id="edge36" class="edge">
<title>Node22&#45;&gt;Node3</title>
<path fill="none" stroke="midnightblue" d="M1164.92,-196C1156.32,-196 1147.57,-196 1139.15,-196"/>
<polygon fill="midnightblue" stroke="midnightblue" points="1164.93,-199.5 1174.93,-196 1164.93,-192.5 1164.93,-199.5"/>
</g>
<!-- Node22&#45;&gt;Node19 -->
<g id="edge37" class="edge">
<title>Node22&#45;&gt;Node19</title>
<path fill="none" stroke="midnightblue" d="M1175.28,-177.59C1159.9,-172.47 1143.38,-166.96 1128.65,-162.05"/>
<polygon fill="midnightblue" stroke="midnightblue" points="1174.6,-181.06 1185.2,-180.9 1176.82,-174.42 1174.6,-181.06"/>
</g>
</g>
</svg>
        <g id="navigator" transform="translate(0 0)" fill="#404254">
                <rect fill="#f2f5e9" fill-opacity="0.5" stroke="#606060" stroke-width=".5" x="0" y="0" width="60" height="60"/>
                <use id="zoomplus" xlink:href="#zoomPlus" x="17" y="9" onmousedown="handleZoom(evt,'in')"/>
                <use id="zoomminus" xlink:href="#zoomMin" x="42" y="9" onmousedown="handleZoom(evt,'out')"/>
                <use id="reset" xlink:href="#resetDef" x="30" y="36" onmousedown="handleReset()"/>
                <g id="arrowUp" xlink:href="#dirArrow" transform="translate(30 24)" onmousedown="handlePan(0,-1)">
                  <use xlink:href="#rim" fill="#404040">
                        <set attributeName="fill" to="#808080" begin="arrowUp.mouseover" end="arrowUp.mouseout"/>
                  </use>
                  <path fill="none" stroke="white" stroke-width="1.5" d="M0,-3.0v7 M-2.5,-0.5L0,-3.0L2.5,-0.5"/>
                </g>
                <g id="arrowRight" xlink:href="#dirArrow" transform="rotate(90) translate(36 -43)" onmousedown="handlePan(1,0)">
                  <use xlink:href="#rim" fill="#404040">
                        <set attributeName="fill" to="#808080" begin="arrowRight.mouseover" end="arrowRight.mouseout"/>
                  </use>
                  <path fill="none" stroke="white" stroke-width="1.5" d="M0,-3.0v7 M-2.5,-0.5L0,-3.0L2.5,-0.5"/>
                </g>
                <g id="arrowDown" xlink:href="#dirArrow" transform="rotate(180) translate(-30 -48)" onmousedown="handlePan(0,1)">
                  <use xlink:href="#rim" fill="#404040">
                        <set attributeName="fill" to="#808080" begin="arrowDown.mouseover" end="arrowDown.mouseout"/>
                  </use>
                  <path fill="none" stroke="white" stroke-width="1.5" d="M0,-3.0v7 M-2.5,-0.5L0,-3.0L2.5,-0.5"/>
                </g>
                <g id="arrowLeft" xlink:href="#dirArrow" transform="rotate(270) translate(-36 17)" onmousedown="handlePan(-1,0)">
                  <use xlink:href="#rim" fill="#404040">
                        <set attributeName="fill" to="#808080" begin="arrowLeft.mouseover" end="arrowLeft.mouseout"/>
                  </use>
                  <path fill="none" stroke="white" stroke-width="1.5" d="M0,-3.0v7 M-2.5,-0.5L0,-3.0L2.5,-0.5"/>
                </g>
        </g>
        <svg viewBox="0 0 15 15" width="100%" height="30px" preserveAspectRatio="xMaxYMin meet">
         <g id="arrow_out" transform="scale(0.3 0.3)">
          <a xlink:href="namespacextb__modelhessian_a915ee380effab4d68fe155bef992194e_icgraph_org.svg" target="_base">
           <rect id="button" ry="5" rx="5" y="6" x="6" height="38" width="38"
                fill="#f2f5e9" fill-opacity="0.5" stroke="#606060" stroke-width="1.0"/>
           <path id="arrow"
             d="M 11.500037,31.436501 C 11.940474,20.09759 22.043105,11.32322 32.158766,21.979434 L 37.068811,17.246167 C 37.068811,17.246167 37.088388,32 37.088388,32 L 22.160133,31.978069 C 22.160133,31.978069 26.997745,27.140456 26.997745,27.140456 C 18.528582,18.264221 13.291696,25.230495 11.500037,31.436501 z"
             style="fill:#404040;"/>
          </a>
         </g>
        </svg>
</svg>
