<?xml version="1.0" encoding="UTF-8" standalone="no"?>
<!DOCTYPE svg PUBLIC "-//W3C//DTD SVG 1.1//EN"
 "http://www.w3.org/Graphics/SVG/1.1/DTD/svg11.dtd">
<!-- Generated by graphviz version 2.43.0 (0)
 -->
<!-- Title: xtb_setmod::set_chrg Pages: 1 -->
<svg width="459pt" height="97pt"
 viewBox="0.00 0.00 459.00 96.50" xmlns="http://www.w3.org/2000/svg" xmlns:xlink="http://www.w3.org/1999/xlink">
<g id="graph0" class="graph" transform="scale(1 1) rotate(0) translate(4 92.5)">
<title>xtb_setmod::set_chrg</title>
<polygon fill="white" stroke="transparent" points="-4,4 -4,-92.5 455,-92.5 455,4 -4,4"/>
<!-- Node1 -->
<g id="node1" class="node">
<title>Node1</title>
<g id="a_node1"><a xlink:title=" ">
<polygon fill="#bfbfbf" stroke="black" points="329,-50 329,-69 451,-69 451,-50 329,-50"/>
<text text-anchor="middle" x="390" y="-57" font-family="Helvetica,sans-Serif" font-size="10.00">xtb_setmod::set_chrg</text>
</a>
</g>
</g>
<!-- Node2 -->
<g id="node2" class="node">
<title>Node2</title>
<g id="a_node2"><a xlink:href="namespacextb__setmod.html#af256a658a95d1cc74d76dbc0b607c01a" target="_top" xlink:title=" ">
<polygon fill="white" stroke="black" points="0,-69 0,-88 124,-88 124,-69 0,-69"/>
<text text-anchor="middle" x="62" y="-76" font-family="Helvetica,sans-Serif" font-size="10.00">xtb_setmod::rdcontrol</text>
</a>
</g>
</g>
<!-- Node1&#45;&gt;Node2 -->
<g id="edge1" class="edge">
<title>Node1&#45;&gt;Node2</title>
<path fill="none" stroke="midnightblue" d="M339.94,-71.12C324.97,-74.16 308.39,-76.99 293,-78.5 235.97,-84.09 170.61,-83.41 124.17,-81.74"/>
<polygon fill="midnightblue" stroke="midnightblue" points="340.96,-74.49 350.02,-69.01 339.52,-67.64 340.96,-74.49"/>
</g>
<!-- Node3 -->
<g id="node3" class="node">
<title>Node3</title>
<g id="a_node3"><a xlink:href="namespacextb__setmod.html#ae624d63242f16501ab4fc3040b92ec15" target="_top" xlink:title=" ">
<polygon fill="white" stroke="black" points="160,-50 160,-69 293,-69 293,-50 160,-50"/>
<text text-anchor="middle" x="226.5" y="-57" font-family="Helvetica,sans-Serif" font-size="10.00">xtb_setmod::set_legacy</text>
</a>
</g>
</g>
<!-- Node1&#45;&gt;Node3 -->
<g id="edge2" class="edge">
<title>Node1&#45;&gt;Node3</title>
<path fill="none" stroke="midnightblue" d="M318.62,-59.5C310.15,-59.5 301.51,-59.5 293.11,-59.5"/>
<polygon fill="midnightblue" stroke="midnightblue" points="318.86,-63 328.86,-59.5 318.86,-56 318.86,-63"/>
</g>
<!-- Node4 -->
<g id="node4" class="node">
<title>Node4</title>
<g id="a_node4"><a xlink:href="namespacextb__prog__topology.html#aa263269ef9a32674220b4f1bfda0c066" target="_top" xlink:title="Main program of the topology submodule.">
<polygon fill="white" stroke="black" points="170,-0.5 170,-30.5 283,-30.5 283,-0.5 170,-0.5"/>
<text text-anchor="start" x="178" y="-18.5" font-family="Helvetica,sans-Serif" font-size="10.00">xtb_prog_topology::</text>
<text text-anchor="middle" x="226.5" y="-7.5" font-family="Helvetica,sans-Serif" font-size="10.00">xtbtopology</text>
</a>
</g>
</g>
<!-- Node1&#45;&gt;Node4 -->
<g id="edge4" class="edge">
<title>Node1&#45;&gt;Node4</title>
<path fill="none" stroke="midnightblue" d="M344.07,-47.26C325.08,-42.09 302.78,-36.01 282.8,-30.57"/>
<polygon fill="midnightblue" stroke="midnightblue" points="343.39,-50.7 353.96,-49.95 345.23,-43.95 343.39,-50.7"/>
</g>
<!-- Node3&#45;&gt;Node2 -->
<g id="edge3" class="edge">
<title>Node3&#45;&gt;Node2</title>
<path fill="none" stroke="midnightblue" d="M149.83,-68.35C141.22,-69.35 132.53,-70.37 124.14,-71.35"/>
<polygon fill="midnightblue" stroke="midnightblue" points="150.35,-71.81 159.87,-67.17 149.53,-64.86 150.35,-71.81"/>
</g>
<!-- Node5 -->
<g id="node5" class="node">
<title>Node5</title>
<g id="a_node5"><a xlink:href="primary_8f90.html#a2a67903cf5be605c5b6d3c362c6a3c5c" target="_top" xlink:title="The primary driver for the xtb program package.">
<polygon fill="white" stroke="black" points="10.5,-6 10.5,-25 113.5,-25 113.5,-6 10.5,-6"/>
<text text-anchor="middle" x="62" y="-13" font-family="Helvetica,sans-Serif" font-size="10.00">xtb_prog_primary</text>
</a>
</g>
</g>
<!-- Node4&#45;&gt;Node5 -->
<g id="edge5" class="edge">
<title>Node4&#45;&gt;Node5</title>
<path fill="none" stroke="midnightblue" d="M159.18,-15.5C143.96,-15.5 128.01,-15.5 113.58,-15.5"/>
<polygon fill="midnightblue" stroke="midnightblue" points="159.58,-19 169.58,-15.5 159.58,-12 159.58,-19"/>
</g>
</g>
</svg>
