<?xml version="1.0" encoding="UTF-8" standalone="no"?>
<!DOCTYPE svg PUBLIC "-//W3C//DTD SVG 1.1//EN"
 "http://www.w3.org/Graphics/SVG/1.1/DTD/svg11.dtd">
<!-- Generated by graphviz version 2.46.1 (20210215.1649)
 -->
<!-- Title: xtb_intpack::fmc Pages: 1 -->
<svg width="848pt" height="39pt"
 viewBox="0.00 0.00 848.00 39.00" xmlns="http://www.w3.org/2000/svg" xmlns:xlink="http://www.w3.org/1999/xlink">
<g id="graph0" class="graph" transform="scale(1 1) rotate(0) translate(4 35)">
<title>xtb_intpack::fmc</title>
<polygon fill="white" stroke="transparent" points="-4,4 -4,-35 844,-35 844,4 -4,4"/>
<!-- Node1 -->
<g id="node1" class="node">
<title>Node1</title>
<g id="a_node1"><a xlink:title=" ">
<polygon fill="#bfbfbf" stroke="black" points="753,-6 753,-25 840,-25 840,-6 753,-6"/>
<text text-anchor="middle" x="796.5" y="-13" font-family="Helvetica,sans-Serif" font-size="10.00">xtb_intpack::fmc</text>
</a>
</g>
</g>
<!-- Node2 -->
<g id="node2" class="node">
<title>Node2</title>
<g id="a_node2"><a xlink:href="namespacextb__intpack.html#a40ed452923996826bc8ef5a751802fc4" target="_top" xlink:title=" ">
<polygon fill="white" stroke="black" points="620,-6 620,-25 717,-25 717,-6 620,-6"/>
<text text-anchor="middle" x="668.5" y="-13" font-family="Helvetica,sans-Serif" font-size="10.00">xtb_intpack::opaa0</text>
</a>
</g>
</g>
<!-- Node1&#45;&gt;Node2 -->
<g id="edge1" class="edge">
<title>Node1&#45;&gt;Node2</title>
<path fill="none" stroke="midnightblue" d="M742.73,-15.5C734.3,-15.5 725.62,-15.5 717.31,-15.5"/>
<polygon fill="midnightblue" stroke="midnightblue" points="742.84,-19 752.84,-15.5 742.84,-12 742.84,-19"/>
</g>
<!-- Node3 -->
<g id="node3" class="node">
<title>Node3</title>
<g id="a_node3"><a xlink:href="namespaceesp.html#a7f5b94790a5710ee69270b88580d5ec9" target="_top" xlink:title=" ">
<polygon fill="white" stroke="black" points="516,-6 516,-25 584,-25 584,-6 516,-6"/>
<text text-anchor="middle" x="550" y="-13" font-family="Helvetica,sans-Serif" font-size="10.00">esp::espints</text>
</a>
</g>
</g>
<!-- Node2&#45;&gt;Node3 -->
<g id="edge2" class="edge">
<title>Node2&#45;&gt;Node3</title>
<path fill="none" stroke="midnightblue" d="M609.61,-15.5C600.9,-15.5 592.18,-15.5 584.23,-15.5"/>
<polygon fill="midnightblue" stroke="midnightblue" points="609.78,-19 619.78,-15.5 609.78,-12 609.78,-19"/>
</g>
<!-- Node4 -->
<g id="node4" class="node">
<title>Node4</title>
<g id="a_node4"><a xlink:href="namespaceesp.html#abbb507b0106b5a5f8d4ebdac1f0a1681" target="_top" xlink:title=" ">
<polygon fill="white" stroke="black" points="412,-6 412,-25 480,-25 480,-6 412,-6"/>
<text text-anchor="middle" x="446" y="-13" font-family="Helvetica,sans-Serif" font-size="10.00">esp::espplot</text>
</a>
</g>
</g>
<!-- Node3&#45;&gt;Node4 -->
<g id="edge3" class="edge">
<title>Node3&#45;&gt;Node4</title>
<path fill="none" stroke="midnightblue" d="M505.72,-15.5C497.21,-15.5 488.42,-15.5 480.3,-15.5"/>
<polygon fill="midnightblue" stroke="midnightblue" points="505.88,-19 515.88,-15.5 505.88,-12 505.88,-19"/>
</g>
<!-- Node5 -->
<g id="node5" class="node">
<title>Node5</title>
<g id="a_node5"><a xlink:href="namespacextb__propertyoutput.html#aa23d3ac2a820741df00f0cbd43f91a14" target="_top" xlink:title=" ">
<polygon fill="white" stroke="black" points="280,-0.5 280,-30.5 376,-30.5 376,-0.5 280,-0.5"/>
<text text-anchor="start" x="288" y="-18.5" font-family="Helvetica,sans-Serif" font-size="10.00">xtb_propertyoutput</text>
<text text-anchor="middle" x="328" y="-7.5" font-family="Helvetica,sans-Serif" font-size="10.00">::main_cube</text>
</a>
</g>
</g>
<!-- Node4&#45;&gt;Node5 -->
<g id="edge4" class="edge">
<title>Node4&#45;&gt;Node5</title>
<path fill="none" stroke="midnightblue" d="M401.52,-15.5C393.22,-15.5 384.49,-15.5 376.08,-15.5"/>
<polygon fill="midnightblue" stroke="midnightblue" points="401.76,-19 411.76,-15.5 401.76,-12 401.76,-19"/>
</g>
<!-- Node6 -->
<g id="node6" class="node">
<title>Node6</title>
<g id="a_node6"><a xlink:href="namespacextb__prog__main.html#a92b3b61ee04235e6343f652095682529" target="_top" xlink:title=" ">
<polygon fill="white" stroke="black" points="126,-6 126,-25 244,-25 244,-6 126,-6"/>
<text text-anchor="middle" x="185" y="-13" font-family="Helvetica,sans-Serif" font-size="10.00">xtb_prog_main::xtbmain</text>
</a>
</g>
</g>
<!-- Node5&#45;&gt;Node6 -->
<g id="edge5" class="edge">
<title>Node5&#45;&gt;Node6</title>
<path fill="none" stroke="midnightblue" d="M269.61,-15.5C261.25,-15.5 252.62,-15.5 244.24,-15.5"/>
<polygon fill="midnightblue" stroke="midnightblue" points="269.66,-19 279.66,-15.5 269.66,-12 269.66,-19"/>
</g>
<!-- Node7 -->
<g id="node7" class="node">
<title>Node7</title>
<g id="a_node7"><a xlink:href="primary_8f90.html#a2a67903cf5be605c5b6d3c362c6a3c5c" target="_top" xlink:title="The primary driver for the xtb program package.">
<polygon fill="white" stroke="black" points="0,-6 0,-25 90,-25 90,-6 0,-6"/>
<text text-anchor="middle" x="45" y="-13" font-family="Helvetica,sans-Serif" font-size="10.00">xtb_prog_primary</text>
</a>
</g>
</g>
<!-- Node6&#45;&gt;Node7 -->
<g id="edge6" class="edge">
<title>Node6&#45;&gt;Node7</title>
<path fill="none" stroke="midnightblue" d="M115.73,-15.5C107.06,-15.5 98.37,-15.5 90.22,-15.5"/>
<polygon fill="midnightblue" stroke="midnightblue" points="115.88,-19 125.88,-15.5 115.88,-12 115.88,-19"/>
</g>
</g>
</svg>
