<?xml version="1.0" encoding="UTF-8" standalone="no"?>
<!DOCTYPE svg PUBLIC "-//W3C//DTD SVG 1.1//EN"
 "http://www.w3.org/Graphics/SVG/1.1/DTD/svg11.dtd">
<!-- Generated by graphviz version 2.46.1 (20210215.1649)
 -->
<!-- Title: xtb_xtb_hamiltonian_gpu::build_sdqh0_gpu Pages: 1 -->
<svg width="557pt" height="344pt"
 viewBox="0.00 0.00 557.00 343.50" xmlns="http://www.w3.org/2000/svg" xmlns:xlink="http://www.w3.org/1999/xlink">
<g id="graph0" class="graph" transform="scale(1 1) rotate(0) translate(4 339.5)">
<title>xtb_xtb_hamiltonian_gpu::build_sdqh0_gpu</title>
<polygon fill="white" stroke="transparent" points="-4,4 -4,-339.5 553,-339.5 553,4 -4,4"/>
<!-- Node1 -->
<g id="node1" class="node">
<title>Node1</title>
<g id="a_node1"><a xlink:title="Computes the dipole and quadrupole integrals and performs screening to.">
<polygon fill="#bfbfbf" stroke="black" points="0,-109 0,-139 115,-139 115,-109 0,-109"/>
<text text-anchor="start" x="8" y="-127" font-family="Helvetica,sans-Serif" font-size="10.00">xtb_xtb_hamiltonian</text>
<text text-anchor="middle" x="57.5" y="-116" font-family="Helvetica,sans-Serif" font-size="10.00">_gpu::build_sdqh0_gpu</text>
</a>
</g>
</g>
<!-- Node2 -->
<g id="node2" class="node">
<title>Node2</title>
<g id="a_node2"><a xlink:href="namespacextb__intgrad.html#a221d8f15f3cb047b495acc86f9e54a37" target="_top" xlink:title=" ">
<polygon fill="white" stroke="black" points="321.5,-141 321.5,-171 410.5,-171 410.5,-141 321.5,-141"/>
<text text-anchor="start" x="329.5" y="-159" font-family="Helvetica,sans-Serif" font-size="10.00">xtb_intgrad::build</text>
<text text-anchor="middle" x="366" y="-148" font-family="Helvetica,sans-Serif" font-size="10.00">_sdq_ints_gpu</text>
</a>
</g>
</g>
<!-- Node1&#45;&gt;Node2 -->
<g id="edge1" class="edge">
<title>Node1&#45;&gt;Node2</title>
<path fill="none" stroke="midnightblue" d="M115.03,-136.94C126.86,-139.27 139.3,-141.45 151,-143 205.32,-150.19 267.92,-153.41 311.33,-154.85"/>
<polygon fill="midnightblue" stroke="midnightblue" points="311.28,-158.35 321.38,-155.16 311.49,-151.35 311.28,-158.35"/>
</g>
<!-- Node5 -->
<g id="node5" class="node">
<title>Node5</title>
<g id="a_node5"><a xlink:href="namespacextb__intgrad.html#a3123173ad7d8c3991074f793fdc9c593" target="_top" xlink:title=" ">
<polygon fill="white" stroke="black" points="169,-114.5 169,-133.5 257,-133.5 257,-114.5 169,-114.5"/>
<text text-anchor="middle" x="213" y="-121.5" font-family="Helvetica,sans-Serif" font-size="10.00">xtb_intgrad::dtrf2</text>
</a>
</g>
</g>
<!-- Node1&#45;&gt;Node5 -->
<g id="edge4" class="edge">
<title>Node1&#45;&gt;Node5</title>
<path fill="none" stroke="midnightblue" d="M115.22,-124C129.52,-124 144.81,-124 158.92,-124"/>
<polygon fill="midnightblue" stroke="midnightblue" points="158.95,-127.5 168.95,-124 158.95,-120.5 158.95,-127.5"/>
</g>
<!-- Node6 -->
<g id="node6" class="node">
<title>Node6</title>
<g id="a_node6"><a xlink:href="namespacextb__intgrad.html#a75f1b6ec8c7f75caeec5fac307179505" target="_top" xlink:title=" ">
<polygon fill="white" stroke="black" points="151,-228.5 151,-247.5 275,-247.5 275,-228.5 151,-228.5"/>
<text text-anchor="middle" x="213" y="-235.5" font-family="Helvetica,sans-Serif" font-size="10.00">xtb_intgrad::get_multiints</text>
</a>
</g>
</g>
<!-- Node1&#45;&gt;Node6 -->
<g id="edge5" class="edge">
<title>Node1&#45;&gt;Node6</title>
<path fill="none" stroke="midnightblue" d="M70.81,-139.28C87.28,-158.88 118.25,-192.85 151,-214 157.24,-218.03 164.27,-221.57 171.28,-224.6"/>
<polygon fill="midnightblue" stroke="midnightblue" points="170.16,-227.92 180.74,-228.42 172.78,-221.43 170.16,-227.92"/>
</g>
<!-- Node10 -->
<g id="node10" class="node">
<title>Node10</title>
<g id="a_node10"><a xlink:href="namespacextb__intgrad.html#a61582fac6cd8cc05eb76d4ced531ef6e" target="_top" xlink:title="calculates a partial overlap in one cartesian direction">
<polygon fill="white" stroke="black" points="320,-190.5 320,-209.5 412,-209.5 412,-190.5 320,-190.5"/>
<text text-anchor="middle" x="366" y="-197.5" font-family="Helvetica,sans-Serif" font-size="10.00">xtb_intgrad::olapp</text>
</a>
</g>
</g>
<!-- Node1&#45;&gt;Node10 -->
<g id="edge14" class="edge">
<title>Node1&#45;&gt;Node10</title>
<path fill="none" stroke="midnightblue" d="M89.53,-139.18C107.19,-147.28 129.93,-156.82 151,-163 203.76,-178.46 265.84,-188.31 309.51,-193.93"/>
<polygon fill="midnightblue" stroke="midnightblue" points="309.29,-197.43 319.64,-195.2 310.16,-190.48 309.29,-197.43"/>
</g>
<!-- Node11 -->
<g id="node11" class="node">
<title>Node11</title>
<g id="a_node11"><a xlink:href="namespacextb__scc__core.html#a136cd39a28befead4338400b448fddc3" target="_top" xlink:title="H0 off&#45;diag scaling.">
<polygon fill="white" stroke="black" points="159.5,-76.5 159.5,-95.5 266.5,-95.5 266.5,-76.5 159.5,-76.5"/>
<text text-anchor="middle" x="213" y="-83.5" font-family="Helvetica,sans-Serif" font-size="10.00">xtb_scc_core::h0scal</text>
</a>
</g>
</g>
<!-- Node1&#45;&gt;Node11 -->
<g id="edge12" class="edge">
<title>Node1&#45;&gt;Node11</title>
<path fill="none" stroke="midnightblue" d="M115.22,-109.96C131.05,-106.04 148.11,-101.82 163.43,-98.02"/>
<polygon fill="midnightblue" stroke="midnightblue" points="164.35,-101.4 173.21,-95.6 162.66,-94.61 164.35,-101.4"/>
</g>
<!-- Node12 -->
<g id="node12" class="node">
<title>Node12</title>
<g id="a_node12"><a xlink:href="constrain__pot_8f90.html#ac62613d43f31c7bfa652ee80083b400b" target="_top" xlink:title=" ">
<polygon fill="white" stroke="black" points="198.5,-38.5 198.5,-57.5 227.5,-57.5 227.5,-38.5 198.5,-38.5"/>
<text text-anchor="middle" x="213" y="-45.5" font-family="Helvetica,sans-Serif" font-size="10.00">lin</text>
</a>
</g>
</g>
<!-- Node1&#45;&gt;Node12 -->
<g id="edge13" class="edge">
<title>Node1&#45;&gt;Node12</title>
<path fill="none" stroke="midnightblue" d="M79.7,-108.8C97.92,-96.28 125.25,-78.72 151,-67 162.9,-61.58 176.78,-57.12 188.29,-53.89"/>
<polygon fill="midnightblue" stroke="midnightblue" points="189.31,-57.24 198.07,-51.28 187.5,-50.48 189.31,-57.24"/>
</g>
<!-- Node13 -->
<g id="node13" class="node">
<title>Node13</title>
<g id="a_node13"><a xlink:href="namespacextb__scc__core.html#ab589fe59f0960d1e9adf8ef9d48a6e45" target="_top" xlink:title=" ">
<polygon fill="white" stroke="black" points="155,-0.5 155,-19.5 271,-19.5 271,-0.5 155,-0.5"/>
<text text-anchor="middle" x="213" y="-7.5" font-family="Helvetica,sans-Serif" font-size="10.00">xtb_scc_core::shellpoly</text>
</a>
</g>
</g>
<!-- Node1&#45;&gt;Node13 -->
<g id="edge15" class="edge">
<title>Node1&#45;&gt;Node13</title>
<path fill="none" stroke="midnightblue" d="M69.3,-108.88C85,-87.99 116.07,-50.43 151,-29 154.41,-26.91 158.08,-25.03 161.85,-23.34"/>
<polygon fill="midnightblue" stroke="midnightblue" points="163.39,-26.49 171.38,-19.54 160.8,-19.99 163.39,-26.49"/>
</g>
<!-- Node3 -->
<g id="node3" class="node">
<title>Node3</title>
<g id="a_node3"><a xlink:href="namespacextb__intgrad.html#a5bc6f86d12b5b4734f597a88800d8330" target="_top" xlink:title=" ">
<polygon fill="white" stroke="black" points="458.5,-275 458.5,-305 547.5,-305 547.5,-275 458.5,-275"/>
<text text-anchor="start" x="466.5" y="-293" font-family="Helvetica,sans-Serif" font-size="10.00">xtb_intgrad::build</text>
<text text-anchor="middle" x="503" y="-282" font-family="Helvetica,sans-Serif" font-size="10.00">_hshift2</text>
</a>
</g>
</g>
<!-- Node2&#45;&gt;Node3 -->
<g id="edge2" class="edge">
<title>Node2&#45;&gt;Node3</title>
<path fill="none" stroke="midnightblue" d="M406.33,-171.04C411.55,-173.92 416.61,-177.24 421,-181 442.91,-199.76 439.85,-211.81 457,-235 465.02,-245.85 474.41,-257.47 482.52,-267.22"/>
<polygon fill="midnightblue" stroke="midnightblue" points="479.87,-269.5 488.98,-274.91 485.23,-265 479.87,-269.5"/>
</g>
<!-- Node4 -->
<g id="node4" class="node">
<title>Node4</title>
<g id="a_node4"><a xlink:href="namespacextb__intgrad.html#a040b47e4b45c55028569fcad9704172a" target="_top" xlink:title=" ">
<polygon fill="white" stroke="black" points="457,-206.5 457,-225.5 549,-225.5 549,-206.5 457,-206.5"/>
<text text-anchor="middle" x="503" y="-213.5" font-family="Helvetica,sans-Serif" font-size="10.00">xtb_intgrad::prod3</text>
</a>
</g>
</g>
<!-- Node2&#45;&gt;Node4 -->
<g id="edge3" class="edge">
<title>Node2&#45;&gt;Node4</title>
<path fill="none" stroke="midnightblue" d="M401.07,-171.14C422.64,-180.73 450.32,-193.03 471.23,-202.33"/>
<polygon fill="midnightblue" stroke="midnightblue" points="470.05,-205.63 480.61,-206.49 472.89,-199.23 470.05,-205.63"/>
</g>
<!-- Node7 -->
<g id="node7" class="node">
<title>Node7</title>
<g id="a_node7"><a xlink:href="namespacextb__intgrad.html#a1f9cf61176ecca277a73a81137c39a39" target="_top" xlink:title=" ">
<polygon fill="white" stroke="black" points="311,-228.5 311,-247.5 421,-247.5 421,-228.5 311,-228.5"/>
<text text-anchor="middle" x="366" y="-235.5" font-family="Helvetica,sans-Serif" font-size="10.00">xtb_intgrad::build_kab</text>
</a>
</g>
</g>
<!-- Node6&#45;&gt;Node7 -->
<g id="edge6" class="edge">
<title>Node6&#45;&gt;Node7</title>
<path fill="none" stroke="midnightblue" d="M275.42,-238C283.78,-238 292.37,-238 300.78,-238"/>
<polygon fill="midnightblue" stroke="midnightblue" points="300.91,-241.5 310.91,-238 300.91,-234.5 300.91,-241.5"/>
</g>
<!-- Node8 -->
<g id="node8" class="node">
<title>Node8</title>
<g id="a_node8"><a xlink:href="namespacextb__intgrad.html#af483e162e73c1238a72bd8559f9b26e8" target="_top" xlink:title=" ">
<polygon fill="white" stroke="black" points="321.5,-305 321.5,-335 410.5,-335 410.5,-305 321.5,-305"/>
<text text-anchor="start" x="329.5" y="-323" font-family="Helvetica,sans-Serif" font-size="10.00">xtb_intgrad::build</text>
<text text-anchor="middle" x="366" y="-312" font-family="Helvetica,sans-Serif" font-size="10.00">_sdq_ints</text>
</a>
</g>
</g>
<!-- Node6&#45;&gt;Node8 -->
<g id="edge7" class="edge">
<title>Node6&#45;&gt;Node8</title>
<path fill="none" stroke="midnightblue" d="M229.19,-247.55C248.07,-259.28 281.41,-279.5 311,-295 314.5,-296.83 318.17,-298.68 321.86,-300.49"/>
<polygon fill="midnightblue" stroke="midnightblue" points="320.52,-303.73 331.05,-304.9 323.55,-297.42 320.52,-303.73"/>
</g>
<!-- Node9 -->
<g id="node9" class="node">
<title>Node9</title>
<g id="a_node9"><a xlink:href="namespacextb__intgrad.html#a49b854bf505ac013ac50d12edb2e0de5" target="_top" xlink:title="returns center of product Gaussian from two Gaussians by GPT">
<polygon fill="white" stroke="black" points="313,-266.5 313,-285.5 419,-285.5 419,-266.5 313,-266.5"/>
<text text-anchor="middle" x="366" y="-273.5" font-family="Helvetica,sans-Serif" font-size="10.00">xtb_intgrad::gpcenter</text>
</a>
</g>
</g>
<!-- Node6&#45;&gt;Node9 -->
<g id="edge10" class="edge">
<title>Node6&#45;&gt;Node9</title>
<path fill="none" stroke="midnightblue" d="M252.1,-247.59C271.94,-252.58 296.38,-258.73 317.45,-264.03"/>
<polygon fill="midnightblue" stroke="midnightblue" points="316.62,-267.43 327.17,-266.48 318.33,-260.65 316.62,-267.43"/>
</g>
<!-- Node6&#45;&gt;Node10 -->
<g id="edge11" class="edge">
<title>Node6&#45;&gt;Node10</title>
<path fill="none" stroke="midnightblue" d="M252.1,-228.41C271.94,-223.42 296.38,-217.27 317.45,-211.97"/>
<polygon fill="midnightblue" stroke="midnightblue" points="318.33,-215.35 327.17,-209.52 316.62,-208.57 318.33,-215.35"/>
</g>
<!-- Node8&#45;&gt;Node3 -->
<g id="edge8" class="edge">
<title>Node8&#45;&gt;Node3</title>
<path fill="none" stroke="midnightblue" d="M410.83,-310.26C422.86,-307.59 436.04,-304.66 448.54,-301.88"/>
<polygon fill="midnightblue" stroke="midnightblue" points="449.39,-305.28 458.39,-299.69 447.87,-298.44 449.39,-305.28"/>
</g>
<!-- Node8&#45;&gt;Node4 -->
<g id="edge9" class="edge">
<title>Node8&#45;&gt;Node4</title>
<path fill="none" stroke="midnightblue" d="M403.94,-304.95C409.84,-301.97 415.73,-298.63 421,-295 447,-277.09 472.27,-250.54 487.49,-233.25"/>
<polygon fill="midnightblue" stroke="midnightblue" points="490.22,-235.44 494.11,-225.58 484.93,-230.86 490.22,-235.44"/>
</g>
</g>
</svg>
