<?xml version="1.0" encoding="UTF-8" standalone="no"?>
<!DOCTYPE svg PUBLIC "-//W3C//DTD SVG 1.1//EN"
 "http://www.w3.org/Graphics/SVG/1.1/DTD/svg11.dtd">
<!-- Generated by graphviz version 2.43.0 (0)
 -->
<!-- Title: xtb_setmod::optlevel2int Pages: 1 -->
<svg width="628pt" height="47pt"
 viewBox="0.00 0.00 628.00 47.00" xmlns="http://www.w3.org/2000/svg" xmlns:xlink="http://www.w3.org/1999/xlink">
<g id="graph0" class="graph" transform="scale(1 1) rotate(0) translate(4 43)">
<title>xtb_setmod::optlevel2int</title>
<polygon fill="white" stroke="transparent" points="-4,4 -4,-43 624,-43 624,4 -4,4"/>
<!-- Node1 -->
<g id="node1" class="node">
<title>Node1</title>
<g id="a_node1"><a xlink:title=" ">
<polygon fill="#bfbfbf" stroke="black" points="481,-19.5 481,-38.5 620,-38.5 620,-19.5 481,-19.5"/>
<text text-anchor="middle" x="550.5" y="-26.5" font-family="Helvetica,sans-Serif" font-size="10.00">xtb_setmod::optlevel2int</text>
</a>
</g>
</g>
<!-- Node2 -->
<g id="node2" class="node">
<title>Node2</title>
<g id="a_node2"><a xlink:href="namespacextb__setmod.html#ae132eb50d51aa08edbb334a0f858c79c" target="_top" xlink:title=" ">
<polygon fill="white" stroke="black" points="329,-19.5 329,-38.5 445,-38.5 445,-19.5 329,-19.5"/>
<text text-anchor="middle" x="387" y="-26.5" font-family="Helvetica,sans-Serif" font-size="10.00">xtb_setmod::set_opt</text>
</a>
</g>
</g>
<!-- Node1&#45;&gt;Node2 -->
<g id="edge1" class="edge">
<title>Node1&#45;&gt;Node2</title>
<path fill="none" stroke="midnightblue" d="M470.5,-29C461.92,-29 453.31,-29 445.06,-29"/>
<polygon fill="midnightblue" stroke="midnightblue" points="470.54,-32.5 480.54,-29 470.54,-25.5 470.54,-32.5"/>
</g>
<!-- Node3 -->
<g id="node3" class="node">
<title>Node3</title>
<g id="a_node3"><a xlink:href="namespacextb__setmod.html#af256a658a95d1cc74d76dbc0b607c01a" target="_top" xlink:title=" ">
<polygon fill="white" stroke="black" points="0,-19.5 0,-38.5 124,-38.5 124,-19.5 0,-19.5"/>
<text text-anchor="middle" x="62" y="-26.5" font-family="Helvetica,sans-Serif" font-size="10.00">xtb_setmod::rdcontrol</text>
</a>
</g>
</g>
<!-- Node2&#45;&gt;Node3 -->
<g id="edge2" class="edge">
<title>Node2&#45;&gt;Node3</title>
<path fill="none" stroke="midnightblue" d="M318.94,-29C261.57,-29 179.68,-29 124.1,-29"/>
<polygon fill="midnightblue" stroke="midnightblue" points="319,-32.5 329,-29 319,-25.5 319,-32.5"/>
</g>
<!-- Node4 -->
<g id="node4" class="node">
<title>Node4</title>
<g id="a_node4"><a xlink:href="namespacextb__setmod.html#ae624d63242f16501ab4fc3040b92ec15" target="_top" xlink:title=" ">
<polygon fill="white" stroke="black" points="160,-0.5 160,-19.5 293,-19.5 293,-0.5 160,-0.5"/>
<text text-anchor="middle" x="226.5" y="-7.5" font-family="Helvetica,sans-Serif" font-size="10.00">xtb_setmod::set_legacy</text>
</a>
</g>
</g>
<!-- Node2&#45;&gt;Node4 -->
<g id="edge3" class="edge">
<title>Node2&#45;&gt;Node4</title>
<path fill="none" stroke="midnightblue" d="M318.64,-20.93C310.23,-19.92 301.64,-18.89 293.26,-17.88"/>
<polygon fill="midnightblue" stroke="midnightblue" points="318.43,-24.43 328.78,-22.14 319.27,-17.48 318.43,-24.43"/>
</g>
<!-- Node4&#45;&gt;Node3 -->
<g id="edge4" class="edge">
<title>Node4&#45;&gt;Node3</title>
<path fill="none" stroke="midnightblue" d="M149.83,-18.85C141.22,-19.85 132.53,-20.87 124.14,-21.85"/>
<polygon fill="midnightblue" stroke="midnightblue" points="150.35,-22.31 159.87,-17.67 149.53,-15.36 150.35,-22.31"/>
</g>
</g>
</svg>
