<?xml version="1.0" encoding="UTF-8" standalone="no"?>
<!DOCTYPE svg PUBLIC "-//W3C//DTD SVG 1.1//EN"
 "http://www.w3.org/Graphics/SVG/1.1/DTD/svg11.dtd">
<!-- Generated by graphviz version 2.46.0 (20210122.1329)
 -->
<!-- Title: xtb_metadynamic::load_metadynamic Pages: 1 -->
<svg width="560pt" height="192pt"
 viewBox="0.00 0.00 560.00 192.00" xmlns="http://www.w3.org/2000/svg" xmlns:xlink="http://www.w3.org/1999/xlink">
<g id="graph0" class="graph" transform="scale(1 1) rotate(0) translate(4 188)">
<title>xtb_metadynamic::load_metadynamic</title>
<polygon fill="white" stroke="transparent" points="-4,4 -4,-188 556,-188 556,4 -4,4"/>
<!-- Node1 -->
<g id="node1" class="node">
<title>Node1</title>
<g id="a_node1"><a xlink:title=" ">
<polygon fill="#bfbfbf" stroke="black" points="0,-71 0,-101 115,-101 115,-71 0,-71"/>
<text text-anchor="start" x="8" y="-89" font-family="Helvetica,sans-Serif" font-size="10.00">xtb_metadynamic::load</text>
<text text-anchor="middle" x="57.5" y="-78" font-family="Helvetica,sans-Serif" font-size="10.00">_metadynamic</text>
</a>
</g>
</g>
<!-- Node2 -->
<g id="node2" class="node">
<title>Node2</title>
<g id="a_node2"><a xlink:href="namespacextb__readin.html#a8a067ee293b6d42499264f799016383d" target="_top" xlink:title=" ">
<polygon fill="white" stroke="black" points="151,-76.5 151,-95.5 248,-95.5 248,-76.5 151,-76.5"/>
<text text-anchor="middle" x="199.5" y="-83.5" font-family="Helvetica,sans-Serif" font-size="10.00">xtb_readin::readlog</text>
</a>
</g>
</g>
<!-- Node1&#45;&gt;Node2 -->
<g id="edge1" class="edge">
<title>Node1&#45;&gt;Node2</title>
<path fill="none" stroke="midnightblue" d="M115.04,-86C123.46,-86 132.14,-86 140.59,-86"/>
<polygon fill="midnightblue" stroke="midnightblue" points="140.73,-89.5 150.73,-86 140.73,-82.5 140.73,-89.5"/>
</g>
<!-- Node3 -->
<g id="node3" class="node">
<title>Node3</title>
<g id="a_node3"><a xlink:href="filetools_8F90.html#abe40c19bea97456da4d616af69059aeb" target="_top" xlink:title=" ">
<polygon fill="white" stroke="black" points="306.5,-164.5 306.5,-183.5 363.5,-183.5 363.5,-164.5 306.5,-164.5"/>
<text text-anchor="middle" x="335" y="-171.5" font-family="Helvetica,sans-Serif" font-size="10.00">close_file</text>
</a>
</g>
</g>
<!-- Node2&#45;&gt;Node3 -->
<g id="edge2" class="edge">
<title>Node2&#45;&gt;Node3</title>
<path fill="none" stroke="midnightblue" d="M209.98,-95.65C224.69,-110.18 254.42,-137.79 284,-155 287.99,-157.32 292.32,-159.46 296.7,-161.39"/>
<polygon fill="midnightblue" stroke="midnightblue" points="295.69,-164.76 306.27,-165.3 298.34,-158.28 295.69,-164.76"/>
</g>
<!-- Node4 -->
<g id="node4" class="node">
<title>Node4</title>
<g id="a_node4"><a xlink:href="namespacextb__mctc__systools.html#a7b18e6c9bb5206d8fe0fbba49da3fbdb" target="_top" xlink:title=" ">
<polygon fill="white" stroke="black" points="284,-115 284,-145 386,-145 386,-115 284,-115"/>
<text text-anchor="start" x="292" y="-133" font-family="Helvetica,sans-Serif" font-size="10.00">xtb_mctc_systools::</text>
<text text-anchor="middle" x="335" y="-122" font-family="Helvetica,sans-Serif" font-size="10.00">getline</text>
</a>
</g>
</g>
<!-- Node2&#45;&gt;Node4 -->
<g id="edge3" class="edge">
<title>Node2&#45;&gt;Node4</title>
<path fill="none" stroke="midnightblue" d="M229.47,-95.55C243.83,-100.28 261.66,-106.16 278.52,-111.71"/>
<polygon fill="midnightblue" stroke="midnightblue" points="277.7,-115.13 288.29,-114.93 279.89,-108.48 277.7,-115.13"/>
</g>
<!-- Node5 -->
<g id="node5" class="node">
<title>Node5</title>
<g id="a_node5"><a xlink:href="filetools_8F90.html#a68160ec369d61855ea12b180c7ce8c21" target="_top" xlink:title=" ">
<polygon fill="white" stroke="black" points="307.5,-76.5 307.5,-95.5 362.5,-95.5 362.5,-76.5 307.5,-76.5"/>
<text text-anchor="middle" x="335" y="-83.5" font-family="Helvetica,sans-Serif" font-size="10.00">open_file</text>
</a>
</g>
</g>
<!-- Node2&#45;&gt;Node5 -->
<g id="edge4" class="edge">
<title>Node2&#45;&gt;Node5</title>
<path fill="none" stroke="midnightblue" d="M248.32,-86C264.49,-86 282.27,-86 297.43,-86"/>
<polygon fill="midnightblue" stroke="midnightblue" points="297.45,-89.5 307.45,-86 297.45,-82.5 297.45,-89.5"/>
</g>
<!-- Node6 -->
<g id="node6" class="node">
<title>Node6</title>
<g id="a_node6"><a xlink:href="error_8f90.html#a21a6b76d2bc72d8d2ec0a344a6d2298b" target="_top" xlink:title=" ">
<polygon fill="white" stroke="black" points="316,-38.5 316,-57.5 354,-57.5 354,-38.5 316,-38.5"/>
<text text-anchor="middle" x="335" y="-45.5" font-family="Helvetica,sans-Serif" font-size="10.00">raise</text>
</a>
</g>
</g>
<!-- Node2&#45;&gt;Node6 -->
<g id="edge5" class="edge">
<title>Node2&#45;&gt;Node6</title>
<path fill="none" stroke="midnightblue" d="M234.19,-76.41C256.39,-70.09 285.12,-61.91 306.05,-55.95"/>
<polygon fill="midnightblue" stroke="midnightblue" points="307.27,-59.25 315.93,-53.14 305.35,-52.52 307.27,-59.25"/>
</g>
<!-- Node7 -->
<g id="node7" class="node">
<title>Node7</title>
<g id="a_node7"><a xlink:href="rdcoord2_8f90.html#a9b38798a8c538ebdc4c2be235d5bf8d6" target="_top" xlink:title=" ">
<polygon fill="white" stroke="black" points="310,-0.5 310,-19.5 360,-19.5 360,-0.5 310,-0.5"/>
<text text-anchor="middle" x="335" y="-7.5" font-family="Helvetica,sans-Serif" font-size="10.00">readline</text>
</a>
</g>
</g>
<!-- Node2&#45;&gt;Node7 -->
<g id="edge6" class="edge">
<title>Node2&#45;&gt;Node7</title>
<path fill="none" stroke="midnightblue" d="M212.65,-76.34C228.41,-64.14 257.08,-43.05 284,-29 289.09,-26.34 294.65,-23.86 300.14,-21.62"/>
<polygon fill="midnightblue" stroke="midnightblue" points="301.78,-24.74 309.85,-17.87 299.26,-18.21 301.78,-24.74"/>
</g>
<!-- Node8 -->
<g id="node8" class="node">
<title>Node8</title>
<g id="a_node8"><a xlink:href="readl2_8f90.html#a194c35a25c60bb77cc8af6abea165a5c" target="_top" xlink:title=" ">
<polygon fill="white" stroke="black" points="422,-0.5 422,-19.5 483,-19.5 483,-0.5 422,-0.5"/>
<text text-anchor="middle" x="452.5" y="-7.5" font-family="Helvetica,sans-Serif" font-size="10.00">checktype</text>
</a>
</g>
</g>
<!-- Node7&#45;&gt;Node8 -->
<g id="edge7" class="edge">
<title>Node7&#45;&gt;Node8</title>
<path fill="none" stroke="midnightblue" d="M360.21,-10C375.11,-10 394.57,-10 411.69,-10"/>
<polygon fill="midnightblue" stroke="midnightblue" points="411.99,-13.5 421.99,-10 411.99,-6.5 411.99,-13.5"/>
</g>
<!-- Node9 -->
<g id="node9" class="node">
<title>Node9</title>
<g id="a_node9"><a xlink:href="symmetry__i_8c.html#aa77c823a9fc018ae1d437369708d8727" target="_top" xlink:title=" ">
<polygon fill="white" stroke="black" points="519,-0.5 519,-19.5 552,-19.5 552,-0.5 519,-0.5"/>
<text text-anchor="middle" x="535.5" y="-7.5" font-family="Helvetica,sans-Serif" font-size="10.00">true</text>
</a>
</g>
</g>
<!-- Node8&#45;&gt;Node9 -->
<g id="edge8" class="edge">
<title>Node8&#45;&gt;Node9</title>
<path fill="none" stroke="midnightblue" d="M483.2,-10C491.62,-10 500.7,-10 508.85,-10"/>
<polygon fill="midnightblue" stroke="midnightblue" points="508.9,-13.5 518.9,-10 508.9,-6.5 508.9,-13.5"/>
</g>
</g>
</svg>
