<?xml version="1.0" encoding="UTF-8" standalone="no"?>
<!DOCTYPE svg PUBLIC "-//W3C//DTD SVG 1.1//EN"
 "http://www.w3.org/Graphics/SVG/1.1/DTD/svg11.dtd">
<!-- Generated by graphviz version 2.46.1 (20210215.1649)
 -->
<!-- Title: xtb_intgrad::get_grad_multiint Pages: 1 -->
<svg width="388pt" height="214pt"
 viewBox="0.00 0.00 388.00 213.50" xmlns="http://www.w3.org/2000/svg" xmlns:xlink="http://www.w3.org/1999/xlink">
<g id="graph0" class="graph" transform="scale(1 1) rotate(0) translate(4 209.5)">
<title>xtb_intgrad::get_grad_multiint</title>
<polygon fill="white" stroke="transparent" points="-4,4 -4,-209.5 384,-209.5 384,4 -4,4"/>
<!-- Node1 -->
<g id="node1" class="node">
<title>Node1</title>
<g id="a_node1"><a xlink:title=" ">
<polygon fill="#bfbfbf" stroke="black" points="0,-71 0,-101 106,-101 106,-71 0,-71"/>
<text text-anchor="start" x="8" y="-89" font-family="Helvetica,sans-Serif" font-size="10.00">xtb_intgrad::get_grad</text>
<text text-anchor="middle" x="53" y="-78" font-family="Helvetica,sans-Serif" font-size="10.00">_multiint</text>
</a>
</g>
</g>
<!-- Node2 -->
<g id="node2" class="node">
<title>Node2</title>
<g id="a_node2"><a xlink:href="namespacextb__intgrad.html#a515a1507379a42ee41f4b3f24189fe4a" target="_top" xlink:title=" ">
<polygon fill="white" stroke="black" points="152.5,-153 152.5,-183 241.5,-183 241.5,-153 152.5,-153"/>
<text text-anchor="start" x="160.5" y="-171" font-family="Helvetica,sans-Serif" font-size="10.00">xtb_intgrad::build</text>
<text text-anchor="middle" x="197" y="-160" font-family="Helvetica,sans-Serif" font-size="10.00">_dsdq_ints</text>
</a>
</g>
</g>
<!-- Node1&#45;&gt;Node2 -->
<g id="edge1" class="edge">
<title>Node1&#45;&gt;Node2</title>
<path fill="none" stroke="midnightblue" d="M75.53,-101.17C93.03,-113.2 118.57,-130.07 142,-143 145.41,-144.88 148.99,-146.75 152.62,-148.58"/>
<polygon fill="midnightblue" stroke="midnightblue" points="151.12,-151.74 161.65,-152.98 154.19,-145.45 151.12,-151.74"/>
</g>
<!-- Node5 -->
<g id="node5" class="node">
<title>Node5</title>
<g id="a_node5"><a xlink:href="namespacextb__intgrad.html#a1f9cf61176ecca277a73a81137c39a39" target="_top" xlink:title=" ">
<polygon fill="white" stroke="black" points="142,-114.5 142,-133.5 252,-133.5 252,-114.5 142,-114.5"/>
<text text-anchor="middle" x="197" y="-121.5" font-family="Helvetica,sans-Serif" font-size="10.00">xtb_intgrad::build_kab</text>
</a>
</g>
</g>
<!-- Node1&#45;&gt;Node5 -->
<g id="edge4" class="edge">
<title>Node1&#45;&gt;Node5</title>
<path fill="none" stroke="midnightblue" d="M106.07,-99.93C120.59,-103.82 136.25,-108.01 150.37,-111.79"/>
<polygon fill="midnightblue" stroke="midnightblue" points="149.78,-115.25 160.34,-114.46 151.59,-108.49 149.78,-115.25"/>
</g>
<!-- Node6 -->
<g id="node6" class="node">
<title>Node6</title>
<g id="a_node6"><a xlink:href="namespacextb__intgrad.html#a49b854bf505ac013ac50d12edb2e0de5" target="_top" xlink:title="returns center of product Gaussian from two Gaussians by GPT">
<polygon fill="white" stroke="black" points="144,-76.5 144,-95.5 250,-95.5 250,-76.5 144,-76.5"/>
<text text-anchor="middle" x="197" y="-83.5" font-family="Helvetica,sans-Serif" font-size="10.00">xtb_intgrad::gpcenter</text>
</a>
</g>
</g>
<!-- Node1&#45;&gt;Node6 -->
<g id="edge5" class="edge">
<title>Node1&#45;&gt;Node6</title>
<path fill="none" stroke="midnightblue" d="M106.07,-86C115.04,-86 124.45,-86 133.66,-86"/>
<polygon fill="midnightblue" stroke="midnightblue" points="133.94,-89.5 143.94,-86 133.94,-82.5 133.94,-89.5"/>
</g>
<!-- Node7 -->
<g id="node7" class="node">
<title>Node7</title>
<g id="a_node7"><a xlink:href="namespacextb__intgrad.html#a61582fac6cd8cc05eb76d4ced531ef6e" target="_top" xlink:title="calculates a partial overlap in one cartesian direction">
<polygon fill="white" stroke="black" points="151,-38.5 151,-57.5 243,-57.5 243,-38.5 151,-38.5"/>
<text text-anchor="middle" x="197" y="-45.5" font-family="Helvetica,sans-Serif" font-size="10.00">xtb_intgrad::olapp</text>
</a>
</g>
</g>
<!-- Node1&#45;&gt;Node7 -->
<g id="edge6" class="edge">
<title>Node1&#45;&gt;Node7</title>
<path fill="none" stroke="midnightblue" d="M106.07,-72.07C120.59,-68.18 136.25,-63.99 150.37,-60.21"/>
<polygon fill="midnightblue" stroke="midnightblue" points="151.59,-63.51 160.34,-57.54 149.78,-56.75 151.59,-63.51"/>
</g>
<!-- Node8 -->
<g id="node8" class="node">
<title>Node8</title>
<g id="a_node8"><a xlink:href="namespacextb__intgrad.html#a3182051be33b106f6c819954040fdc1b" target="_top" xlink:title="move gradient operator from center a to center b">
<polygon fill="white" stroke="black" points="145.5,-0.5 145.5,-19.5 248.5,-19.5 248.5,-0.5 145.5,-0.5"/>
<text text-anchor="middle" x="197" y="-7.5" font-family="Helvetica,sans-Serif" font-size="10.00">xtb_intgrad::shiftintg</text>
</a>
</g>
</g>
<!-- Node1&#45;&gt;Node8 -->
<g id="edge7" class="edge">
<title>Node1&#45;&gt;Node8</title>
<path fill="none" stroke="midnightblue" d="M74.16,-70.97C91.49,-58.54 117.49,-41.04 142,-29 146.29,-26.89 150.87,-24.91 155.49,-23.07"/>
<polygon fill="midnightblue" stroke="midnightblue" points="156.8,-26.32 164.93,-19.52 154.33,-19.77 156.8,-26.32"/>
</g>
<!-- Node3 -->
<g id="node3" class="node">
<title>Node3</title>
<g id="a_node3"><a xlink:href="namespacextb__intgrad.html#a5bc6f86d12b5b4734f597a88800d8330" target="_top" xlink:title=" ">
<polygon fill="white" stroke="black" points="289.5,-175 289.5,-205 378.5,-205 378.5,-175 289.5,-175"/>
<text text-anchor="start" x="297.5" y="-193" font-family="Helvetica,sans-Serif" font-size="10.00">xtb_intgrad::build</text>
<text text-anchor="middle" x="334" y="-182" font-family="Helvetica,sans-Serif" font-size="10.00">_hshift2</text>
</a>
</g>
</g>
<!-- Node2&#45;&gt;Node3 -->
<g id="edge2" class="edge">
<title>Node2&#45;&gt;Node3</title>
<path fill="none" stroke="midnightblue" d="M241.83,-175.14C253.74,-177.08 266.78,-179.21 279.17,-181.23"/>
<polygon fill="midnightblue" stroke="midnightblue" points="278.96,-184.74 289.39,-182.89 280.08,-177.83 278.96,-184.74"/>
</g>
<!-- Node4 -->
<g id="node4" class="node">
<title>Node4</title>
<g id="a_node4"><a xlink:href="namespacextb__intgrad.html#a040b47e4b45c55028569fcad9704172a" target="_top" xlink:title=" ">
<polygon fill="white" stroke="black" points="288,-136.5 288,-155.5 380,-155.5 380,-136.5 288,-136.5"/>
<text text-anchor="middle" x="334" y="-143.5" font-family="Helvetica,sans-Serif" font-size="10.00">xtb_intgrad::prod3</text>
</a>
</g>
</g>
<!-- Node2&#45;&gt;Node4 -->
<g id="edge3" class="edge">
<title>Node2&#45;&gt;Node4</title>
<path fill="none" stroke="midnightblue" d="M241.83,-160.86C253.26,-158.99 265.72,-156.96 277.66,-155.02"/>
<polygon fill="midnightblue" stroke="midnightblue" points="278.23,-158.47 287.53,-153.41 277.1,-151.56 278.23,-158.47"/>
</g>
</g>
</svg>
