<?xml version="1.0" encoding="UTF-8" standalone="no"?>
<!DOCTYPE svg PUBLIC "-//W3C//DTD SVG 1.1//EN"
 "http://www.w3.org/Graphics/SVG/1.1/DTD/svg11.dtd">
<!-- Generated by graphviz version 2.43.0 (0)
 -->
<!-- Title: xtb_type_timer::timer Pages: 1 -->
<!--zoomable 204 -->
<svg id="main" version="1.1" xmlns="http://www.w3.org/2000/svg" xmlns:xlink="http://www.w3.org/1999/xlink" xml:space="preserve" onload="init(evt)">
<style type="text/css"><![CDATA[
.edge:hover path { stroke: red; }
.edge:hover polygon { stroke: red; fill: red; }
]]></style>
<script type="text/javascript"><![CDATA[
var edges = document.getElementsByTagName('g');
if (edges && edges.length) {
  for (var i=0;i<edges.length;i++) {
    if (edges[i].id.substr(0,4)=='edge') {
      edges[i].setAttribute('class','edge');
    }
  }
}
]]></script>
        <defs>
                <circle id="rim" cx="0" cy="0" r="7"/>
                <circle id="rim2" cx="0" cy="0" r="3.5"/>
                <g id="zoomPlus">
                        <use xlink:href="#rim" fill="#404040">
                                <set attributeName="fill" to="#808080" begin="zoomplus.mouseover" end="zoomplus.mouseout"/>
                        </use>
                        <path d="M-4,0h8M0,-4v8" fill="none" stroke="white" stroke-width="1.5" pointer-events="none"/>
                </g>
                <g id="zoomMin">
                        <use xlink:href="#rim" fill="#404040">
                                <set attributeName="fill" to="#808080" begin="zoomminus.mouseover" end="zoomminus.mouseout"/>
                        </use>
                        <path d="M-4,0h8" fill="none" stroke="white" stroke-width="1.5" pointer-events="none"/>
                </g>
                <g id="dirArrow">
                        <path fill="none" stroke="white" stroke-width="1.5" d="M0,-3.0v7 M-2.5,-0.5L0,-3.0L2.5,-0.5"/>
                </g>
               <g id="resetDef">
                       <use xlink:href="#rim2" fill="#404040">
                               <set attributeName="fill" to="#808080" begin="reset.mouseover" end="reset.mouseout"/>
                       </use>
               </g>
        </defs>

<script type="text/javascript">
var viewWidth = 549;
var viewHeight = 204;
var sectionId = 'dynsection-4';
</script>
<script xlink:href="svgpan.js"/>
<svg id="graph" class="graph">
<g id="viewport">
<title>xtb_type_timer::timer</title>
<polygon fill="white" stroke="transparent" points="-4,4 -4,-199.5 545,-199.5 545,4 -4,4"/>
<!-- Node1 -->
<g id="node1" class="node">
<title>Node1</title>
<g id="a_node1"><a xlink:title=" ">
<polygon fill="#bfbfbf" stroke="black" points="418,-82.5 418,-101.5 541,-101.5 541,-82.5 418,-82.5"/>
<text text-anchor="middle" x="479.5" y="-89.5" font-family="Helvetica,sans-Serif" font-size="10.00">xtb_type_timer::timer</text>
</a>
</g>
</g>
<!-- Node2 -->
<g id="node2" class="node">
<title>Node2</title>
<g id="a_node2"><a xlink:href="namespacextb__gfnff__eg.html#a3c6317a91da8d6eb6e333fdb8ee1f3d9" target="_top" xlink:title=" ">
<polygon fill="white" stroke="black" points="259,-126.5 259,-145.5 382,-145.5 382,-126.5 259,-126.5"/>
<text text-anchor="middle" x="320.5" y="-133.5" font-family="Helvetica,sans-Serif" font-size="10.00">xtb_gfnff_eg::gfnff_eg</text>
</a>
</g>
</g>
<!-- Node1&#45;&gt;Node2 -->
<g id="edge1" class="edge">
<title>Node1&#45;&gt;Node2</title>
<path fill="none" stroke="midnightblue" d="M434.8,-104.25C409.73,-111.27 378.73,-119.96 355.5,-126.47"/>
<polygon fill="midnightblue" stroke="midnightblue" points="435.75,-107.62 444.43,-101.55 433.86,-100.88 435.75,-107.62"/>
</g>
<!-- Node6 -->
<g id="node6" class="node">
<title>Node6</title>
<g id="a_node6"><a xlink:href="namespacextb__peeq.html#ac2d6fc22b842455765bdb4f69279095c" target="_top" xlink:title=" ">
<polygon fill="white" stroke="black" points="274.5,-60.5 274.5,-79.5 366.5,-79.5 366.5,-60.5 274.5,-60.5"/>
<text text-anchor="middle" x="320.5" y="-67.5" font-family="Helvetica,sans-Serif" font-size="10.00">xtb_peeq::peeq</text>
</a>
</g>
</g>
<!-- Node1&#45;&gt;Node6 -->
<g id="edge5" class="edge">
<title>Node1&#45;&gt;Node6</title>
<path fill="none" stroke="midnightblue" d="M407.78,-82.09C393.91,-80.15 379.71,-78.16 366.94,-76.37"/>
<polygon fill="midnightblue" stroke="midnightblue" points="407.41,-85.57 417.8,-83.49 408.38,-78.64 407.41,-85.57"/>
</g>
<!-- Node3 -->
<g id="node3" class="node">
<title>Node3</title>
<g id="a_node3"><a xlink:href="namespacextb__gfnff__calculator.html#a8775e737196933e41e48728956ddf782" target="_top" xlink:title=" ">
<polygon fill="white" stroke="black" points="110,-165 110,-195 223,-195 223,-165 110,-165"/>
<text text-anchor="start" x="118" y="-183" font-family="Helvetica,sans-Serif" font-size="10.00">xtb_gfnff_calculator</text>
<text text-anchor="middle" x="166.5" y="-172" font-family="Helvetica,sans-Serif" font-size="10.00">::singlepoint</text>
</a>
</g>
</g>
<!-- Node2&#45;&gt;Node3 -->
<g id="edge2" class="edge">
<title>Node2&#45;&gt;Node3</title>
<path fill="none" stroke="midnightblue" d="M276.47,-148.46C258.76,-153.58 238.09,-159.56 219.54,-164.93"/>
<polygon fill="midnightblue" stroke="midnightblue" points="277.89,-151.69 286.52,-145.55 275.94,-144.97 277.89,-151.69"/>
</g>
<!-- Node4 -->
<g id="node4" class="node">
<title>Node4</title>
<g id="a_node4"><a xlink:href="gfnff_8f90.html#a3debb77ee35e9cf115d69ef59490c6c5" target="_top" xlink:title=" ">
<polygon fill="white" stroke="black" points="126.5,-126.5 126.5,-145.5 206.5,-145.5 206.5,-126.5 126.5,-126.5"/>
<text text-anchor="middle" x="166.5" y="-133.5" font-family="Helvetica,sans-Serif" font-size="10.00">test_gfnff_sp</text>
</a>
</g>
</g>
<!-- Node2&#45;&gt;Node4 -->
<g id="edge3" class="edge">
<title>Node2&#45;&gt;Node4</title>
<path fill="none" stroke="midnightblue" d="M248.6,-136C234.24,-136 219.63,-136 206.84,-136"/>
<polygon fill="midnightblue" stroke="midnightblue" points="248.99,-139.5 258.99,-136 248.99,-132.5 248.99,-139.5"/>
</g>
<!-- Node5 -->
<g id="node5" class="node">
<title>Node5</title>
<g id="a_node5"><a xlink:href="tests__peeq_8f90.html#a87ff5319e0d2e627a4f71d7df0d14891" target="_top" xlink:title=" ">
<polygon fill="white" stroke="black" points="0,-38.5 0,-57.5 74,-57.5 74,-38.5 0,-38.5"/>
<text text-anchor="middle" x="37" y="-45.5" font-family="Helvetica,sans-Serif" font-size="10.00">peeq_tester</text>
</a>
</g>
</g>
<!-- Node4&#45;&gt;Node5 -->
<g id="edge4" class="edge">
<title>Node4&#45;&gt;Node5</title>
<path fill="none" stroke="midnightblue" d="M120.73,-122.62C117.01,-120.93 113.38,-119.06 110,-117 83.09,-100.61 58.05,-72.65 45.82,-57.85"/>
<polygon fill="midnightblue" stroke="midnightblue" points="119.53,-125.91 130.11,-126.47 122.19,-119.43 119.53,-125.91"/>
</g>
<!-- Node7 -->
<g id="node7" class="node">
<title>Node7</title>
<g id="a_node7"><a xlink:href="namespacextb__xtb__calculator.html#a75c96263c235c99dfeeda3e865f9898c" target="_top" xlink:title=" ">
<polygon fill="white" stroke="black" points="113,-77 113,-107 220,-107 220,-77 113,-77"/>
<text text-anchor="start" x="121" y="-95" font-family="Helvetica,sans-Serif" font-size="10.00">xtb_xtb_calculator</text>
<text text-anchor="middle" x="166.5" y="-84" font-family="Helvetica,sans-Serif" font-size="10.00">::singlepoint</text>
</a>
</g>
</g>
<!-- Node6&#45;&gt;Node7 -->
<g id="edge6" class="edge">
<title>Node6&#45;&gt;Node7</title>
<path fill="none" stroke="midnightblue" d="M264.05,-78.02C249.67,-80.11 234.23,-82.34 220.01,-84.4"/>
<polygon fill="midnightblue" stroke="midnightblue" points="264.91,-81.44 274.31,-76.54 263.91,-74.51 264.91,-81.44"/>
</g>
<!-- Node8 -->
<g id="node8" class="node">
<title>Node8</title>
<g id="a_node8"><a xlink:href="TESTSUITE_2gfn0_8f90.html#ac2abd1dbadf75b71866d509eaad7957d" target="_top" xlink:title=" ">
<polygon fill="white" stroke="black" points="127,-38.5 127,-57.5 206,-57.5 206,-38.5 127,-38.5"/>
<text text-anchor="middle" x="166.5" y="-45.5" font-family="Helvetica,sans-Serif" font-size="10.00">test_gfn0_sp</text>
</a>
</g>
</g>
<!-- Node6&#45;&gt;Node8 -->
<g id="edge7" class="edge">
<title>Node6&#45;&gt;Node8</title>
<path fill="none" stroke="midnightblue" d="M264.4,-62.03C245.07,-59.23 223.78,-56.15 206.1,-53.59"/>
<polygon fill="midnightblue" stroke="midnightblue" points="263.91,-65.49 274.31,-63.46 264.91,-58.56 263.91,-65.49"/>
</g>
<!-- Node9 -->
<g id="node9" class="node">
<title>Node9</title>
<g id="a_node9"><a xlink:href="peeq_8f90.html#a5122d9bd07a3f4377ee140a5991d1325" target="_top" xlink:title=" ">
<polygon fill="white" stroke="black" points="126,-0.5 126,-19.5 207,-19.5 207,-0.5 126,-0.5"/>
<text text-anchor="middle" x="166.5" y="-7.5" font-family="Helvetica,sans-Serif" font-size="10.00">test_peeq_sp</text>
</a>
</g>
</g>
<!-- Node6&#45;&gt;Node9 -->
<g id="edge9" class="edge">
<title>Node6&#45;&gt;Node9</title>
<path fill="none" stroke="midnightblue" d="M288.93,-56.35C270.07,-48.09 245.29,-37.54 223,-29 214.54,-25.76 205.25,-22.47 196.73,-19.57"/>
<polygon fill="midnightblue" stroke="midnightblue" points="287.65,-59.61 298.22,-60.44 290.48,-53.2 287.65,-59.61"/>
</g>
<!-- Node8&#45;&gt;Node5 -->
<g id="edge8" class="edge">
<title>Node8&#45;&gt;Node5</title>
<path fill="none" stroke="midnightblue" d="M116.84,-48C102.7,-48 87.52,-48 74.29,-48"/>
<polygon fill="midnightblue" stroke="midnightblue" points="116.9,-51.5 126.9,-48 116.9,-44.5 116.9,-51.5"/>
</g>
<!-- Node9&#45;&gt;Node5 -->
<g id="edge10" class="edge">
<title>Node9&#45;&gt;Node5</title>
<path fill="none" stroke="midnightblue" d="M123.44,-22.54C106.1,-27.7 86.32,-33.6 70.16,-38.41"/>
<polygon fill="midnightblue" stroke="midnightblue" points="124.74,-25.8 133.33,-19.59 122.74,-19.09 124.74,-25.8"/>
</g>
</g>
</svg>
        <g id="navigator" transform="translate(0 0)" fill="#404254">
                <rect fill="#f2f5e9" fill-opacity="0.5" stroke="#606060" stroke-width=".5" x="0" y="0" width="60" height="60"/>
                <use id="zoomplus" xlink:href="#zoomPlus" x="17" y="9" onmousedown="handleZoom(evt,'in')"/>
                <use id="zoomminus" xlink:href="#zoomMin" x="42" y="9" onmousedown="handleZoom(evt,'out')"/>
                <use id="reset" xlink:href="#resetDef" x="30" y="36" onmousedown="handleReset()"/>
                <g id="arrowUp" xlink:href="#dirArrow" transform="translate(30 24)" onmousedown="handlePan(0,-1)">
                  <use xlink:href="#rim" fill="#404040">
                        <set attributeName="fill" to="#808080" begin="arrowUp.mouseover" end="arrowUp.mouseout"/>
                  </use>
                  <path fill="none" stroke="white" stroke-width="1.5" d="M0,-3.0v7 M-2.5,-0.5L0,-3.0L2.5,-0.5"/>
                </g>
                <g id="arrowRight" xlink:href="#dirArrow" transform="rotate(90) translate(36 -43)" onmousedown="handlePan(1,0)">
                  <use xlink:href="#rim" fill="#404040">
                        <set attributeName="fill" to="#808080" begin="arrowRight.mouseover" end="arrowRight.mouseout"/>
                  </use>
                  <path fill="none" stroke="white" stroke-width="1.5" d="M0,-3.0v7 M-2.5,-0.5L0,-3.0L2.5,-0.5"/>
                </g>
                <g id="arrowDown" xlink:href="#dirArrow" transform="rotate(180) translate(-30 -48)" onmousedown="handlePan(0,1)">
                  <use xlink:href="#rim" fill="#404040">
                        <set attributeName="fill" to="#808080" begin="arrowDown.mouseover" end="arrowDown.mouseout"/>
                  </use>
                  <path fill="none" stroke="white" stroke-width="1.5" d="M0,-3.0v7 M-2.5,-0.5L0,-3.0L2.5,-0.5"/>
                </g>
                <g id="arrowLeft" xlink:href="#dirArrow" transform="rotate(270) translate(-36 17)" onmousedown="handlePan(-1,0)">
                  <use xlink:href="#rim" fill="#404040">
                        <set attributeName="fill" to="#808080" begin="arrowLeft.mouseover" end="arrowLeft.mouseout"/>
                  </use>
                  <path fill="none" stroke="white" stroke-width="1.5" d="M0,-3.0v7 M-2.5,-0.5L0,-3.0L2.5,-0.5"/>
                </g>
        </g>
        <svg viewBox="0 0 15 15" width="100%" height="30px" preserveAspectRatio="xMaxYMin meet">
         <g id="arrow_out" transform="scale(0.3 0.3)">
          <a xlink:href="namespacextb__type__timer_a1dcf014087e66f68529af68ba3ab41b0_icgraph_org.svg" target="_base">
           <rect id="button" ry="5" rx="5" y="6" x="6" height="38" width="38"
                fill="#f2f5e9" fill-opacity="0.5" stroke="#606060" stroke-width="1.0"/>
           <path id="arrow"
             d="M 11.500037,31.436501 C 11.940474,20.09759 22.043105,11.32322 32.158766,21.979434 L 37.068811,17.246167 C 37.068811,17.246167 37.088388,32 37.088388,32 L 22.160133,31.978069 C 22.160133,31.978069 26.997745,27.140456 26.997745,27.140456 C 18.528582,18.264221 13.291696,25.230495 11.500037,31.436501 z"
             style="fill:#404040;"/>
          </a>
         </g>
        </svg>
</svg>
