<?xml version="1.0" encoding="UTF-8" standalone="no"?>
<!DOCTYPE svg PUBLIC "-//W3C//DTD SVG 1.1//EN"
 "http://www.w3.org/Graphics/SVG/1.1/DTD/svg11.dtd">
<!-- Generated by graphviz version 2.43.0 (0)
 -->
<!-- Title: xtb_peeq::pbc_build_dsh0 Pages: 1 -->
<svg width="628pt" height="192pt"
 viewBox="0.00 0.00 628.00 191.50" xmlns="http://www.w3.org/2000/svg" xmlns:xlink="http://www.w3.org/1999/xlink">
<g id="graph0" class="graph" transform="scale(1 1) rotate(0) translate(4 187.5)">
<title>xtb_peeq::pbc_build_dsh0</title>
<polygon fill="white" stroke="transparent" points="-4,4 -4,-187.5 624,-187.5 624,4 -4,4"/>
<!-- Node1 -->
<g id="node1" class="node">
<title>Node1</title>
<g id="a_node1"><a xlink:title=" ">
<polygon fill="#bfbfbf" stroke="black" points="0,-120.5 0,-139.5 143,-139.5 143,-120.5 0,-120.5"/>
<text text-anchor="middle" x="71.5" y="-127.5" font-family="Helvetica,sans-Serif" font-size="10.00">xtb_peeq::pbc_build_dsh0</text>
</a>
</g>
</g>
<!-- Node2 -->
<g id="node2" class="node">
<title>Node2</title>
<g id="a_node2"><a xlink:href="namespacextb__grad__core.html#afcd07cdba5580e023801c661c0dda52d" target="_top" xlink:title=" ">
<polygon fill="white" stroke="black" points="179,-158.5 179,-177.5 321,-177.5 321,-158.5 179,-158.5"/>
<text text-anchor="middle" x="250" y="-165.5" font-family="Helvetica,sans-Serif" font-size="10.00">xtb_grad_core::dshellpoly</text>
</a>
</g>
</g>
<!-- Node1&#45;&gt;Node2 -->
<g id="edge1" class="edge">
<title>Node1&#45;&gt;Node2</title>
<path fill="none" stroke="midnightblue" d="M117.04,-139.59C140.64,-144.67 169.83,-150.96 194.75,-156.32"/>
<polygon fill="midnightblue" stroke="midnightblue" points="194.27,-159.8 204.78,-158.48 195.74,-152.95 194.27,-159.8"/>
</g>
<!-- Node3 -->
<g id="node3" class="node">
<title>Node3</title>
<g id="a_node3"><a xlink:href="namespacextb__intgrad.html#a3123173ad7d8c3991074f793fdc9c593" target="_top" xlink:title=" ">
<polygon fill="white" stroke="black" points="199.5,-120.5 199.5,-139.5 300.5,-139.5 300.5,-120.5 199.5,-120.5"/>
<text text-anchor="middle" x="250" y="-127.5" font-family="Helvetica,sans-Serif" font-size="10.00">xtb_intgrad::dtrf2</text>
</a>
</g>
</g>
<!-- Node1&#45;&gt;Node3 -->
<g id="edge2" class="edge">
<title>Node1&#45;&gt;Node3</title>
<path fill="none" stroke="midnightblue" d="M143.02,-130C158.39,-130 174.51,-130 189.4,-130"/>
<polygon fill="midnightblue" stroke="midnightblue" points="189.49,-133.5 199.49,-130 189.49,-126.5 189.49,-133.5"/>
</g>
<!-- Node4 -->
<g id="node4" class="node">
<title>Node4</title>
<g id="a_node4"><a xlink:href="namespacextb__peeq.html#a0fcfc4df44aaa9a0446dca518f96cf59" target="_top" xlink:title=" ">
<polygon fill="white" stroke="black" points="195,-71 195,-101 305,-101 305,-71 195,-71"/>
<text text-anchor="start" x="203" y="-89" font-family="Helvetica,sans-Serif" font-size="10.00">xtb_peeq::get_grad</text>
<text text-anchor="middle" x="250" y="-78" font-family="Helvetica,sans-Serif" font-size="10.00">_overlap</text>
</a>
</g>
</g>
<!-- Node1&#45;&gt;Node4 -->
<g id="edge3" class="edge">
<title>Node1&#45;&gt;Node4</title>
<path fill="none" stroke="midnightblue" d="M110.8,-120.45C132.46,-115.05 160.1,-108.16 184.97,-101.96"/>
<polygon fill="midnightblue" stroke="midnightblue" points="185.85,-105.35 194.71,-99.54 184.16,-98.56 185.85,-105.35"/>
</g>
<!-- Node5 -->
<g id="node5" class="node">
<title>Node5</title>
<g id="a_node5"><a xlink:href="namespacextb__intgrad.html#ae34171826fede48284f04beb036fb2bd" target="_top" xlink:title=" ">
<polygon fill="white" stroke="black" points="357,-71 357,-101 459,-101 459,-71 357,-71"/>
<text text-anchor="start" x="365" y="-89" font-family="Helvetica,sans-Serif" font-size="10.00">xtb_intgrad::build</text>
<text text-anchor="middle" x="408" y="-78" font-family="Helvetica,sans-Serif" font-size="10.00">_ds_ints</text>
</a>
</g>
</g>
<!-- Node4&#45;&gt;Node5 -->
<g id="edge4" class="edge">
<title>Node4&#45;&gt;Node5</title>
<path fill="none" stroke="midnightblue" d="M305.12,-86C318.52,-86 332.95,-86 346.62,-86"/>
<polygon fill="midnightblue" stroke="midnightblue" points="346.9,-89.5 356.9,-86 346.9,-82.5 346.9,-89.5"/>
</g>
<!-- Node6 -->
<g id="node6" class="node">
<title>Node6</title>
<g id="a_node6"><a xlink:href="namespacextb__intgrad.html#a5bc6f86d12b5b4734f597a88800d8330" target="_top" xlink:title=" ">
<polygon fill="white" stroke="black" points="506.5,-153 506.5,-183 608.5,-183 608.5,-153 506.5,-153"/>
<text text-anchor="start" x="514.5" y="-171" font-family="Helvetica,sans-Serif" font-size="10.00">xtb_intgrad::build</text>
<text text-anchor="middle" x="557.5" y="-160" font-family="Helvetica,sans-Serif" font-size="10.00">_hshift2</text>
</a>
</g>
</g>
<!-- Node5&#45;&gt;Node6 -->
<g id="edge5" class="edge">
<title>Node5&#45;&gt;Node6</title>
<path fill="none" stroke="midnightblue" d="M429.14,-101.02C446.14,-113.28 471.4,-130.54 495,-143 498.78,-145 502.76,-146.94 506.8,-148.81"/>
<polygon fill="midnightblue" stroke="midnightblue" points="505.71,-152.15 516.27,-153 508.54,-145.75 505.71,-152.15"/>
</g>
<!-- Node7 -->
<g id="node7" class="node">
<title>Node7</title>
<g id="a_node7"><a xlink:href="namespacextb__intgrad.html#a1f9cf61176ecca277a73a81137c39a39" target="_top" xlink:title=" ">
<polygon fill="white" stroke="black" points="495,-114.5 495,-133.5 620,-133.5 620,-114.5 495,-114.5"/>
<text text-anchor="middle" x="557.5" y="-121.5" font-family="Helvetica,sans-Serif" font-size="10.00">xtb_intgrad::build_kab</text>
</a>
</g>
</g>
<!-- Node5&#45;&gt;Node7 -->
<g id="edge6" class="edge">
<title>Node5&#45;&gt;Node7</title>
<path fill="none" stroke="midnightblue" d="M459.35,-98.97C475.66,-103.17 493.67,-107.81 509.71,-111.95"/>
<polygon fill="midnightblue" stroke="midnightblue" points="508.86,-115.34 519.41,-114.45 510.6,-108.56 508.86,-115.34"/>
</g>
<!-- Node8 -->
<g id="node8" class="node">
<title>Node8</title>
<g id="a_node8"><a xlink:href="namespacextb__intgrad.html#a49b854bf505ac013ac50d12edb2e0de5" target="_top" xlink:title="returns center of product Gaussian from two Gaussians by GPT">
<polygon fill="white" stroke="black" points="497,-76.5 497,-95.5 618,-95.5 618,-76.5 497,-76.5"/>
<text text-anchor="middle" x="557.5" y="-83.5" font-family="Helvetica,sans-Serif" font-size="10.00">xtb_intgrad::gpcenter</text>
</a>
</g>
</g>
<!-- Node5&#45;&gt;Node8 -->
<g id="edge7" class="edge">
<title>Node5&#45;&gt;Node8</title>
<path fill="none" stroke="midnightblue" d="M459.35,-86C468.24,-86 477.63,-86 486.93,-86"/>
<polygon fill="midnightblue" stroke="midnightblue" points="486.96,-89.5 496.96,-86 486.96,-82.5 486.96,-89.5"/>
</g>
<!-- Node9 -->
<g id="node9" class="node">
<title>Node9</title>
<g id="a_node9"><a xlink:href="namespacextb__intgrad.html#a61582fac6cd8cc05eb76d4ced531ef6e" target="_top" xlink:title="calculates a partial overlap in one cartesian direction">
<polygon fill="white" stroke="black" points="505,-38.5 505,-57.5 610,-57.5 610,-38.5 505,-38.5"/>
<text text-anchor="middle" x="557.5" y="-45.5" font-family="Helvetica,sans-Serif" font-size="10.00">xtb_intgrad::olapp</text>
</a>
</g>
</g>
<!-- Node5&#45;&gt;Node9 -->
<g id="edge8" class="edge">
<title>Node5&#45;&gt;Node9</title>
<path fill="none" stroke="midnightblue" d="M459.35,-73.03C475.66,-68.83 493.67,-64.19 509.71,-60.05"/>
<polygon fill="midnightblue" stroke="midnightblue" points="510.6,-63.44 519.41,-57.55 508.86,-56.66 510.6,-63.44"/>
</g>
<!-- Node10 -->
<g id="node10" class="node">
<title>Node10</title>
<g id="a_node10"><a xlink:href="namespacextb__intgrad.html#a040b47e4b45c55028569fcad9704172a" target="_top" xlink:title=" ">
<polygon fill="white" stroke="black" points="504.5,-0.5 504.5,-19.5 610.5,-19.5 610.5,-0.5 504.5,-0.5"/>
<text text-anchor="middle" x="557.5" y="-7.5" font-family="Helvetica,sans-Serif" font-size="10.00">xtb_intgrad::prod3</text>
</a>
</g>
</g>
<!-- Node5&#45;&gt;Node10 -->
<g id="edge9" class="edge">
<title>Node5&#45;&gt;Node10</title>
<path fill="none" stroke="midnightblue" d="M428.2,-70.94C445.03,-58.33 470.56,-40.58 495,-29 499.68,-26.78 504.67,-24.75 509.72,-22.9"/>
<polygon fill="midnightblue" stroke="midnightblue" points="511.1,-26.13 519.43,-19.58 508.83,-19.51 511.1,-26.13"/>
</g>
</g>
</svg>
