<?xml version="1.0" encoding="UTF-8" standalone="no"?>
<!DOCTYPE svg PUBLIC "-//W3C//DTD SVG 1.1//EN"
 "http://www.w3.org/Graphics/SVG/1.1/DTD/svg11.dtd">
<!-- Generated by graphviz version 2.46.0 (20210122.1329)
 -->
<!-- Title: xtb_type_anc::generate_anc_blowup Pages: 1 -->
<svg width="344pt" height="142pt"
 viewBox="0.00 0.00 344.00 142.00" xmlns="http://www.w3.org/2000/svg" xmlns:xlink="http://www.w3.org/1999/xlink">
<g id="graph0" class="graph" transform="scale(1 1) rotate(0) translate(4 138)">
<title>xtb_type_anc::generate_anc_blowup</title>
<polygon fill="white" stroke="transparent" points="-4,4 -4,-138 340,-138 340,4 -4,4"/>
<!-- Node1 -->
<g id="node1" class="node">
<title>Node1</title>
<g id="a_node1"><a xlink:title=" ">
<polygon fill="#bfbfbf" stroke="black" points="0,-52 0,-82 116,-82 116,-52 0,-52"/>
<text text-anchor="start" x="8" y="-70" font-family="Helvetica,sans-Serif" font-size="10.00">xtb_type_anc::generate</text>
<text text-anchor="middle" x="58" y="-59" font-family="Helvetica,sans-Serif" font-size="10.00">_anc_blowup</text>
</a>
</g>
</g>
<!-- Node2 -->
<g id="node2" class="node">
<title>Node2</title>
<g id="a_node2"><a xlink:href="namespacextb__detrotra.html#a217868883ae57c2ab6f1ffd57d356812" target="_top" xlink:title=" ">
<polygon fill="white" stroke="black" points="152,-114.5 152,-133.5 262,-133.5 262,-114.5 152,-114.5"/>
<text text-anchor="middle" x="207" y="-121.5" font-family="Helvetica,sans-Serif" font-size="10.00">xtb_detrotra::detrotra8</text>
</a>
</g>
</g>
<!-- Node1&#45;&gt;Node2 -->
<g id="edge1" class="edge">
<title>Node1&#45;&gt;Node2</title>
<path fill="none" stroke="midnightblue" d="M94.61,-82.03C111.86,-89.19 132.92,-97.75 152,-105 157.28,-107.01 162.89,-109.06 168.4,-111.04"/>
<polygon fill="midnightblue" stroke="midnightblue" points="167.56,-114.46 178.16,-114.5 169.9,-107.86 167.56,-114.46"/>
</g>
<!-- Node4 -->
<g id="node4" class="node">
<title>Node4</title>
<g id="a_node4"><a xlink:href="error_8f90.html#a21a6b76d2bc72d8d2ec0a344a6d2298b" target="_top" xlink:title=" ">
<polygon fill="white" stroke="black" points="188,-76.5 188,-95.5 226,-95.5 226,-76.5 188,-76.5"/>
<text text-anchor="middle" x="207" y="-83.5" font-family="Helvetica,sans-Serif" font-size="10.00">raise</text>
</a>
</g>
</g>
<!-- Node1&#45;&gt;Node4 -->
<g id="edge3" class="edge">
<title>Node1&#45;&gt;Node4</title>
<path fill="none" stroke="midnightblue" d="M116.25,-74.4C137.35,-77.13 160.33,-80.1 177.75,-82.35"/>
<polygon fill="midnightblue" stroke="midnightblue" points="177.45,-85.84 187.81,-83.65 178.34,-78.9 177.45,-85.84"/>
</g>
<!-- Node5 -->
<g id="node5" class="node">
<title>Node5</title>
<g id="a_node5"><a xlink:href="namespacextb__type__anc.html#af5a838f93151f192814eca27d28ca06b" target="_top" xlink:title=" ">
<polygon fill="white" stroke="black" points="159.5,-38.5 159.5,-57.5 254.5,-57.5 254.5,-38.5 159.5,-38.5"/>
<text text-anchor="middle" x="207" y="-45.5" font-family="Helvetica,sans-Serif" font-size="10.00">xtb_type_anc::sort</text>
</a>
</g>
</g>
<!-- Node1&#45;&gt;Node5 -->
<g id="edge4" class="edge">
<title>Node1&#45;&gt;Node5</title>
<path fill="none" stroke="midnightblue" d="M116.25,-59.6C127.01,-58.21 138.25,-56.76 148.99,-55.37"/>
<polygon fill="midnightblue" stroke="midnightblue" points="149.64,-58.81 159.11,-54.06 148.74,-51.87 149.64,-58.81"/>
</g>
<!-- Node6 -->
<g id="node6" class="node">
<title>Node6</title>
<g id="a_node6"><a xlink:href="symmetry__i_8c.html#aa77c823a9fc018ae1d437369708d8727" target="_top" xlink:title=" ">
<polygon fill="white" stroke="black" points="190.5,-0.5 190.5,-19.5 223.5,-19.5 223.5,-0.5 190.5,-0.5"/>
<text text-anchor="middle" x="207" y="-7.5" font-family="Helvetica,sans-Serif" font-size="10.00">true</text>
</a>
</g>
</g>
<!-- Node1&#45;&gt;Node6 -->
<g id="edge5" class="edge">
<title>Node1&#45;&gt;Node6</title>
<path fill="none" stroke="midnightblue" d="M94.61,-51.97C111.86,-44.81 132.92,-36.25 152,-29 161.32,-25.46 171.62,-21.78 180.7,-18.61"/>
<polygon fill="midnightblue" stroke="midnightblue" points="182.02,-21.86 190.33,-15.28 179.73,-15.24 182.02,-21.86"/>
</g>
<!-- Node3 -->
<g id="node3" class="node">
<title>Node3</title>
<g id="a_node3"><a xlink:href="qsort_8f90.html#ae4f9c8baf3ca1ba168e51848d421579c" target="_top" xlink:title=" ">
<polygon fill="white" stroke="black" points="298,-114.5 298,-133.5 336,-133.5 336,-114.5 298,-114.5"/>
<text text-anchor="middle" x="317" y="-121.5" font-family="Helvetica,sans-Serif" font-size="10.00">qsort</text>
</a>
</g>
</g>
<!-- Node2&#45;&gt;Node3 -->
<g id="edge2" class="edge">
<title>Node2&#45;&gt;Node3</title>
<path fill="none" stroke="midnightblue" d="M262.32,-124C271.13,-124 279.93,-124 287.78,-124"/>
<polygon fill="midnightblue" stroke="midnightblue" points="287.81,-127.5 297.81,-124 287.81,-120.5 287.81,-127.5"/>
</g>
</g>
</svg>
