<?xml version="1.0" encoding="UTF-8" standalone="no"?>
<!DOCTYPE svg PUBLIC "-//W3C//DTD SVG 1.1//EN"
 "http://www.w3.org/Graphics/SVG/1.1/DTD/svg11.dtd">
<!-- Generated by graphviz version 2.46.1 (20210215.1649)
 -->
<!-- Title: xtb_basic_geo::valijkl Pages: 1 -->
<svg width="435pt" height="85pt"
 viewBox="0.00 0.00 435.00 85.00" xmlns="http://www.w3.org/2000/svg" xmlns:xlink="http://www.w3.org/1999/xlink">
<g id="graph0" class="graph" transform="scale(1 1) rotate(0) translate(4 81)">
<title>xtb_basic_geo::valijkl</title>
<polygon fill="white" stroke="transparent" points="-4,4 -4,-81 431,-81 431,4 -4,4"/>
<!-- Node1 -->
<g id="node1" class="node">
<title>Node1</title>
<g id="a_node1"><a xlink:title=" ">
<polygon fill="#bfbfbf" stroke="black" points="0,-19.5 0,-38.5 108,-38.5 108,-19.5 0,-19.5"/>
<text text-anchor="middle" x="54" y="-26.5" font-family="Helvetica,sans-Serif" font-size="10.00">xtb_basic_geo::valijkl</text>
</a>
</g>
</g>
<!-- Node2 -->
<g id="node2" class="node">
<title>Node2</title>
<g id="a_node2"><a xlink:href="namespacextb__basic__geo.html#a6e8e92267164a5a45bac607201944cc0" target="_top" xlink:title=" ">
<polygon fill="white" stroke="black" points="144,-57.5 144,-76.5 270,-76.5 270,-57.5 144,-57.5"/>
<text text-anchor="middle" x="207" y="-64.5" font-family="Helvetica,sans-Serif" font-size="10.00">xtb_basic_geo::crossprod</text>
</a>
</g>
</g>
<!-- Node1&#45;&gt;Node2 -->
<g id="edge1" class="edge">
<title>Node1&#45;&gt;Node2</title>
<path fill="none" stroke="midnightblue" d="M93.1,-38.59C112.94,-43.58 137.38,-49.73 158.45,-55.03"/>
<polygon fill="midnightblue" stroke="midnightblue" points="157.62,-58.43 168.17,-57.48 159.33,-51.65 157.62,-58.43"/>
</g>
<!-- Node3 -->
<g id="node3" class="node">
<title>Node3</title>
<g id="a_node3"><a xlink:href="namespacextb__basic__geo.html#ac6d22aed86cc153f217f39447a2701cc" target="_top" xlink:title=" ">
<polygon fill="white" stroke="black" points="154,-19.5 154,-38.5 260,-38.5 260,-19.5 154,-19.5"/>
<text text-anchor="middle" x="207" y="-26.5" font-family="Helvetica,sans-Serif" font-size="10.00">xtb_basic_geo::valijk</text>
</a>
</g>
</g>
<!-- Node1&#45;&gt;Node3 -->
<g id="edge2" class="edge">
<title>Node1&#45;&gt;Node3</title>
<path fill="none" stroke="midnightblue" d="M108.24,-29C119.66,-29 131.84,-29 143.58,-29"/>
<polygon fill="midnightblue" stroke="midnightblue" points="143.75,-32.5 153.75,-29 143.75,-25.5 143.75,-32.5"/>
</g>
<!-- Node4 -->
<g id="node4" class="node">
<title>Node4</title>
<g id="a_node4"><a xlink:href="namespacextb__basic__geo.html#a9dd5846373471f74781248b52d92baed" target="_top" xlink:title=" ">
<polygon fill="white" stroke="black" points="306,-0.5 306,-19.5 427,-19.5 427,-0.5 306,-0.5"/>
<text text-anchor="middle" x="366.5" y="-7.5" font-family="Helvetica,sans-Serif" font-size="10.00">xtb_basic_geo::vecnorm</text>
</a>
</g>
</g>
<!-- Node1&#45;&gt;Node4 -->
<g id="edge4" class="edge">
<title>Node1&#45;&gt;Node4</title>
<path fill="none" stroke="midnightblue" d="M91.1,-19.49C107.17,-15.73 126.4,-11.86 144,-10 194.45,-4.67 251.73,-4.84 295.39,-6.25"/>
<polygon fill="midnightblue" stroke="midnightblue" points="295.51,-9.75 305.62,-6.61 295.75,-2.76 295.51,-9.75"/>
</g>
<!-- Node3&#45;&gt;Node4 -->
<g id="edge3" class="edge">
<title>Node3&#45;&gt;Node4</title>
<path fill="none" stroke="midnightblue" d="M260.01,-22.73C271.49,-21.34 283.83,-19.85 295.88,-18.4"/>
<polygon fill="midnightblue" stroke="midnightblue" points="296.4,-21.86 305.91,-17.19 295.56,-14.91 296.4,-21.86"/>
</g>
</g>
</svg>
