<?xml version="1.0" encoding="UTF-8" standalone="no"?>
<!DOCTYPE svg PUBLIC "-//W3C//DTD SVG 1.1//EN"
 "http://www.w3.org/Graphics/SVG/1.1/DTD/svg11.dtd">
<!-- Generated by graphviz version 2.46.1 (20210215.1649)
 -->
<!-- Title: xtb_freq_io::wrhess Pages: 1 -->
<svg width="201pt" height="104pt"
 viewBox="0.00 0.00 201.00 104.00" xmlns="http://www.w3.org/2000/svg" xmlns:xlink="http://www.w3.org/1999/xlink">
<g id="graph0" class="graph" transform="scale(1 1) rotate(0) translate(4 100)">
<title>xtb_freq_io::wrhess</title>
<polygon fill="white" stroke="transparent" points="-4,4 -4,-100 197,-100 197,4 -4,4"/>
<!-- Node1 -->
<g id="node1" class="node">
<title>Node1</title>
<g id="a_node1"><a xlink:title=" ">
<polygon fill="#bfbfbf" stroke="black" points="0,-38.5 0,-57.5 100,-57.5 100,-38.5 0,-38.5"/>
<text text-anchor="middle" x="50" y="-45.5" font-family="Helvetica,sans-Serif" font-size="10.00">xtb_freq_io::wrhess</text>
</a>
</g>
</g>
<!-- Node2 -->
<g id="node2" class="node">
<title>Node2</title>
<g id="a_node2"><a xlink:href="filetools_8F90.html#abe40c19bea97456da4d616af69059aeb" target="_top" xlink:title=" ">
<polygon fill="white" stroke="black" points="136,-76.5 136,-95.5 193,-95.5 193,-76.5 136,-76.5"/>
<text text-anchor="middle" x="164.5" y="-83.5" font-family="Helvetica,sans-Serif" font-size="10.00">close_file</text>
</a>
</g>
</g>
<!-- Node1&#45;&gt;Node2 -->
<g id="edge1" class="edge">
<title>Node1&#45;&gt;Node2</title>
<path fill="none" stroke="midnightblue" d="M79.39,-57.59C93.59,-62.39 110.97,-68.26 126.23,-73.41"/>
<polygon fill="midnightblue" stroke="midnightblue" points="125.3,-76.79 135.9,-76.68 127.54,-70.16 125.3,-76.79"/>
</g>
<!-- Node3 -->
<g id="node3" class="node">
<title>Node3</title>
<g id="a_node3"><a xlink:href="constrain__pot_8f90.html#ac62613d43f31c7bfa652ee80083b400b" target="_top" xlink:title=" ">
<polygon fill="white" stroke="black" points="150,-38.5 150,-57.5 179,-57.5 179,-38.5 150,-38.5"/>
<text text-anchor="middle" x="164.5" y="-45.5" font-family="Helvetica,sans-Serif" font-size="10.00">lin</text>
</a>
</g>
</g>
<!-- Node1&#45;&gt;Node3 -->
<g id="edge2" class="edge">
<title>Node1&#45;&gt;Node3</title>
<path fill="none" stroke="midnightblue" d="M100.02,-48C113.84,-48 128.25,-48 139.84,-48"/>
<polygon fill="midnightblue" stroke="midnightblue" points="139.98,-51.5 149.98,-48 139.98,-44.5 139.98,-51.5"/>
</g>
<!-- Node4 -->
<g id="node4" class="node">
<title>Node4</title>
<g id="a_node4"><a xlink:href="filetools_8F90.html#a68160ec369d61855ea12b180c7ce8c21" target="_top" xlink:title=" ">
<polygon fill="white" stroke="black" points="137,-0.5 137,-19.5 192,-19.5 192,-0.5 137,-0.5"/>
<text text-anchor="middle" x="164.5" y="-7.5" font-family="Helvetica,sans-Serif" font-size="10.00">open_file</text>
</a>
</g>
</g>
<!-- Node1&#45;&gt;Node4 -->
<g id="edge3" class="edge">
<title>Node1&#45;&gt;Node4</title>
<path fill="none" stroke="midnightblue" d="M79.39,-38.41C93.81,-33.54 111.49,-27.57 126.92,-22.36"/>
<polygon fill="midnightblue" stroke="midnightblue" points="128.32,-25.58 136.67,-19.06 126.08,-18.95 128.32,-25.58"/>
</g>
</g>
</svg>
