<?xml version="1.0" encoding="UTF-8" standalone="no"?>
<!DOCTYPE svg PUBLIC "-//W3C//DTD SVG 1.1//EN"
 "http://www.w3.org/Graphics/SVG/1.1/DTD/svg11.dtd">
<!-- Generated by graphviz version 2.46.1 (20210215.1649)
 -->
<!-- Title: xtb_mctc_strings::trimzero Pages: 1 -->
<svg width="296pt" height="186pt"
 viewBox="0.00 0.00 296.00 186.00" xmlns="http://www.w3.org/2000/svg" xmlns:xlink="http://www.w3.org/1999/xlink">
<g id="graph0" class="graph" transform="scale(1 1) rotate(0) translate(4 182)">
<title>xtb_mctc_strings::trimzero</title>
<polygon fill="white" stroke="transparent" points="-4,4 -4,-182 292,-182 292,4 -4,4"/>
<!-- Node1 -->
<g id="node1" class="node">
<title>Node1</title>
<g id="a_node1"><a xlink:title="Deletes nonsignificant trailing zeroes from number string str. If number string ends in a decimal poi...">
<polygon fill="#bfbfbf" stroke="black" points="158,-79 158,-98 288,-98 288,-79 158,-79"/>
<text text-anchor="middle" x="223" y="-86" font-family="Helvetica,sans-Serif" font-size="10.00">xtb_mctc_strings::trimzero</text>
</a>
</g>
</g>
<!-- Node2 -->
<g id="node2" class="node">
<title>Node2</title>
<g id="a_node2"><a xlink:href="interfacextb__mctc__strings_1_1writeq.html#a1640f3f19854b1b97422a2abcbb22d4f" target="_top" xlink:title="Writes a string of the form &lt;name&gt; = ivalue to unit.">
<polygon fill="white" stroke="black" points="0,-147.5 0,-177.5 122,-177.5 122,-147.5 0,-147.5"/>
<text text-anchor="start" x="8" y="-165.5" font-family="Helvetica,sans-Serif" font-size="10.00">xtb_mctc_strings::writeq</text>
<text text-anchor="middle" x="61" y="-154.5" font-family="Helvetica,sans-Serif" font-size="10.00">::writeq_di</text>
</a>
</g>
</g>
<!-- Node1&#45;&gt;Node2 -->
<g id="edge1" class="edge">
<title>Node1&#45;&gt;Node2</title>
<path fill="none" stroke="midnightblue" d="M194.68,-102.93C174.74,-113.27 146.96,-127.29 122,-138.5 115.25,-141.53 107.99,-144.6 100.93,-147.48"/>
<polygon fill="midnightblue" stroke="midnightblue" points="196.54,-105.91 203.79,-98.18 193.3,-99.7 196.54,-105.91"/>
</g>
<!-- Node3 -->
<g id="node3" class="node">
<title>Node3</title>
<g id="a_node3"><a xlink:href="interfacextb__mctc__strings_1_1writeq.html#a1c40560a29b81735599069ffe55692c3" target="_top" xlink:title="Writes a string of the form &lt;name&gt; = value to unit.">
<polygon fill="white" stroke="black" points="0,-98.5 0,-128.5 122,-128.5 122,-98.5 0,-98.5"/>
<text text-anchor="start" x="8" y="-116.5" font-family="Helvetica,sans-Serif" font-size="10.00">xtb_mctc_strings::writeq</text>
<text text-anchor="middle" x="61" y="-105.5" font-family="Helvetica,sans-Serif" font-size="10.00">::writeq_dr</text>
</a>
</g>
</g>
<!-- Node1&#45;&gt;Node3 -->
<g id="edge2" class="edge">
<title>Node1&#45;&gt;Node3</title>
<path fill="none" stroke="midnightblue" d="M151.11,-99.58C141.48,-101.08 131.67,-102.61 122.25,-104.09"/>
<polygon fill="midnightblue" stroke="midnightblue" points="151.71,-103.02 161.05,-98.02 150.63,-96.11 151.71,-103.02"/>
</g>
<!-- Node4 -->
<g id="node4" class="node">
<title>Node4</title>
<g id="a_node4"><a xlink:href="interfacextb__mctc__strings_1_1writeq.html#a7bede3ab8ef35f81bdca16c69936b1a3" target="_top" xlink:title="Writes a string of the form &lt;name&gt; = ivalue to unit.">
<polygon fill="white" stroke="black" points="0,-49.5 0,-79.5 122,-79.5 122,-49.5 0,-49.5"/>
<text text-anchor="start" x="8" y="-67.5" font-family="Helvetica,sans-Serif" font-size="10.00">xtb_mctc_strings::writeq</text>
<text text-anchor="middle" x="61" y="-56.5" font-family="Helvetica,sans-Serif" font-size="10.00">::writeq_si</text>
</a>
</g>
</g>
<!-- Node1&#45;&gt;Node4 -->
<g id="edge3" class="edge">
<title>Node1&#45;&gt;Node4</title>
<path fill="none" stroke="midnightblue" d="M148.14,-77.42C139.41,-76.11 130.59,-74.79 122.09,-73.51"/>
<polygon fill="midnightblue" stroke="midnightblue" points="147.9,-80.92 158.3,-78.95 148.93,-74 147.9,-80.92"/>
</g>
<!-- Node5 -->
<g id="node5" class="node">
<title>Node5</title>
<g id="a_node5"><a xlink:href="interfacextb__mctc__strings_1_1writeq.html#a3950b5acaf61eb6f02593e0190b28e74" target="_top" xlink:title="Writes a string of the form &lt;name&gt; = value to unit.">
<polygon fill="white" stroke="black" points="0,-0.5 0,-30.5 122,-30.5 122,-0.5 0,-0.5"/>
<text text-anchor="start" x="8" y="-18.5" font-family="Helvetica,sans-Serif" font-size="10.00">xtb_mctc_strings::writeq</text>
<text text-anchor="middle" x="61" y="-7.5" font-family="Helvetica,sans-Serif" font-size="10.00">::writeq_sr</text>
</a>
</g>
</g>
<!-- Node1&#45;&gt;Node5 -->
<g id="edge4" class="edge">
<title>Node1&#45;&gt;Node5</title>
<path fill="none" stroke="midnightblue" d="M193.83,-74.49C173.9,-64.7 146.47,-51.46 122,-40.5 114.58,-37.18 106.59,-33.75 98.94,-30.53"/>
<polygon fill="midnightblue" stroke="midnightblue" points="192.45,-77.71 202.97,-79 195.55,-71.43 192.45,-77.71"/>
</g>
</g>
</svg>
