<?xml version="1.0" encoding="UTF-8" standalone="no"?>
<!DOCTYPE svg PUBLIC "-//W3C//DTD SVG 1.1//EN"
 "http://www.w3.org/Graphics/SVG/1.1/DTD/svg11.dtd">
<!-- Generated by graphviz version 2.46.1 (20210215.1649)
 -->
<!-- Title: xtb_intpack::prola Pages: 1 -->
<svg width="231pt" height="104pt"
 viewBox="0.00 0.00 231.00 104.00" xmlns="http://www.w3.org/2000/svg" xmlns:xlink="http://www.w3.org/1999/xlink">
<g id="graph0" class="graph" transform="scale(1 1) rotate(0) translate(4 100)">
<title>xtb_intpack::prola</title>
<polygon fill="white" stroke="transparent" points="-4,4 -4,-100 227,-100 227,4 -4,4"/>
<!-- Node1 -->
<g id="node1" class="node">
<title>Node1</title>
<g id="a_node1"><a xlink:title=" ">
<polygon fill="#bfbfbf" stroke="black" points="0,-38.5 0,-57.5 92,-57.5 92,-38.5 0,-38.5"/>
<text text-anchor="middle" x="46" y="-45.5" font-family="Helvetica,sans-Serif" font-size="10.00">xtb_intpack::prola</text>
</a>
</g>
</g>
<!-- Node2 -->
<g id="node2" class="node">
<title>Node2</title>
<g id="a_node2"><a xlink:href="namespacextb__intpack.html#a89bc54e2e899167f10c6f3f78a7246e7" target="_top" xlink:title=" ">
<polygon fill="white" stroke="black" points="129.5,-76.5 129.5,-95.5 221.5,-95.5 221.5,-76.5 129.5,-76.5"/>
<text text-anchor="middle" x="175.5" y="-83.5" font-family="Helvetica,sans-Serif" font-size="10.00">xtb_intpack::divpt</text>
</a>
</g>
</g>
<!-- Node1&#45;&gt;Node2 -->
<g id="edge1" class="edge">
<title>Node1&#45;&gt;Node2</title>
<path fill="none" stroke="midnightblue" d="M79.17,-57.59C95.33,-62.4 115.11,-68.3 132.45,-73.47"/>
<polygon fill="midnightblue" stroke="midnightblue" points="131.75,-76.91 142.34,-76.41 133.75,-70.2 131.75,-76.91"/>
</g>
<!-- Node3 -->
<g id="node3" class="node">
<title>Node3</title>
<g id="a_node3"><a xlink:href="namespacextb__intpack.html#acf64e33c75cc6fd8c468bf9edb4cafbb" target="_top" xlink:title=" ">
<polygon fill="white" stroke="black" points="131,-38.5 131,-57.5 220,-57.5 220,-38.5 131,-38.5"/>
<text text-anchor="middle" x="175.5" y="-45.5" font-family="Helvetica,sans-Serif" font-size="10.00">xtb_intpack::prod</text>
</a>
</g>
</g>
<!-- Node1&#45;&gt;Node3 -->
<g id="edge2" class="edge">
<title>Node1&#45;&gt;Node3</title>
<path fill="none" stroke="midnightblue" d="M92.31,-48C101.46,-48 111.16,-48 120.57,-48"/>
<polygon fill="midnightblue" stroke="midnightblue" points="120.62,-51.5 130.62,-48 120.62,-44.5 120.62,-51.5"/>
</g>
<!-- Node4 -->
<g id="node4" class="node">
<title>Node4</title>
<g id="a_node4"><a xlink:href="namespacextb__intpack.html#a9a40f9f0fbd48320267942da84027862" target="_top" xlink:title=" ">
<polygon fill="white" stroke="black" points="128,-0.5 128,-19.5 223,-19.5 223,-0.5 128,-0.5"/>
<text text-anchor="middle" x="175.5" y="-7.5" font-family="Helvetica,sans-Serif" font-size="10.00">xtb_intpack::rhftce</text>
</a>
</g>
</g>
<!-- Node1&#45;&gt;Node4 -->
<g id="edge3" class="edge">
<title>Node1&#45;&gt;Node4</title>
<path fill="none" stroke="midnightblue" d="M79.17,-38.41C95.33,-33.6 115.11,-27.7 132.45,-22.53"/>
<polygon fill="midnightblue" stroke="midnightblue" points="133.75,-25.8 142.34,-19.59 131.75,-19.09 133.75,-25.8"/>
</g>
</g>
</svg>
