<?xml version="1.0" encoding="UTF-8" standalone="no"?>
<!DOCTYPE svg PUBLIC "-//W3C//DTD SVG 1.1//EN"
 "http://www.w3.org/Graphics/SVG/1.1/DTD/svg11.dtd">
<!-- Generated by graphviz version 2.46.1 (20210215.1649)
 -->
<!-- Title: xtb_intgrad::get_overlap Pages: 1 -->
<svg width="401pt" height="154pt"
 viewBox="0.00 0.00 401.00 154.00" xmlns="http://www.w3.org/2000/svg" xmlns:xlink="http://www.w3.org/1999/xlink">
<g id="graph0" class="graph" transform="scale(1 1) rotate(0) translate(4 150)">
<title>xtb_intgrad::get_overlap</title>
<polygon fill="white" stroke="transparent" points="-4,4 -4,-150 397,-150 397,4 -4,4"/>
<!-- Node1 -->
<g id="node1" class="node">
<title>Node1</title>
<g id="a_node1"><a xlink:title=" ">
<polygon fill="#bfbfbf" stroke="black" points="0,-60.5 0,-79.5 119,-79.5 119,-60.5 0,-60.5"/>
<text text-anchor="middle" x="59.5" y="-67.5" font-family="Helvetica,sans-Serif" font-size="10.00">xtb_intgrad::get_overlap</text>
</a>
</g>
</g>
<!-- Node2 -->
<g id="node2" class="node">
<title>Node2</title>
<g id="a_node2"><a xlink:href="namespacextb__intgrad.html#a1f9cf61176ecca277a73a81137c39a39" target="_top" xlink:title=" ">
<polygon fill="white" stroke="black" points="155,-126.5 155,-145.5 265,-145.5 265,-126.5 155,-126.5"/>
<text text-anchor="middle" x="210" y="-133.5" font-family="Helvetica,sans-Serif" font-size="10.00">xtb_intgrad::build_kab</text>
</a>
</g>
</g>
<!-- Node1&#45;&gt;Node2 -->
<g id="edge1" class="edge">
<title>Node1&#45;&gt;Node2</title>
<path fill="none" stroke="midnightblue" d="M78.72,-79.53C97.57,-89.24 127.99,-104.46 155,-116 160.48,-118.34 166.33,-120.68 172.09,-122.88"/>
<polygon fill="midnightblue" stroke="midnightblue" points="171.01,-126.21 181.6,-126.44 173.46,-119.66 171.01,-126.21"/>
</g>
<!-- Node3 -->
<g id="node3" class="node">
<title>Node3</title>
<g id="a_node3"><a xlink:href="namespacextb__intgrad.html#af483e162e73c1238a72bd8559f9b26e8" target="_top" xlink:title=" ">
<polygon fill="white" stroke="black" points="165.5,-77 165.5,-107 254.5,-107 254.5,-77 165.5,-77"/>
<text text-anchor="start" x="173.5" y="-95" font-family="Helvetica,sans-Serif" font-size="10.00">xtb_intgrad::build</text>
<text text-anchor="middle" x="210" y="-84" font-family="Helvetica,sans-Serif" font-size="10.00">_sdq_ints</text>
</a>
</g>
</g>
<!-- Node1&#45;&gt;Node3 -->
<g id="edge2" class="edge">
<title>Node1&#45;&gt;Node3</title>
<path fill="none" stroke="midnightblue" d="M119.19,-78.69C131.1,-80.46 143.58,-82.31 155.31,-84.05"/>
<polygon fill="midnightblue" stroke="midnightblue" points="154.99,-87.54 165.39,-85.54 156.01,-80.61 154.99,-87.54"/>
</g>
<!-- Node6 -->
<g id="node6" class="node">
<title>Node6</title>
<g id="a_node6"><a xlink:href="namespacextb__intgrad.html#a49b854bf505ac013ac50d12edb2e0de5" target="_top" xlink:title="returns center of product Gaussian from two Gaussians by GPT">
<polygon fill="white" stroke="black" points="157,-38.5 157,-57.5 263,-57.5 263,-38.5 157,-38.5"/>
<text text-anchor="middle" x="210" y="-45.5" font-family="Helvetica,sans-Serif" font-size="10.00">xtb_intgrad::gpcenter</text>
</a>
</g>
</g>
<!-- Node1&#45;&gt;Node6 -->
<g id="edge5" class="edge">
<title>Node1&#45;&gt;Node6</title>
<path fill="none" stroke="midnightblue" d="M119.19,-61.31C128.36,-59.95 137.86,-58.54 147.1,-57.17"/>
<polygon fill="midnightblue" stroke="midnightblue" points="147.61,-60.63 156.99,-55.71 146.59,-53.71 147.61,-60.63"/>
</g>
<!-- Node7 -->
<g id="node7" class="node">
<title>Node7</title>
<g id="a_node7"><a xlink:href="namespacextb__intgrad.html#a61582fac6cd8cc05eb76d4ced531ef6e" target="_top" xlink:title="calculates a partial overlap in one cartesian direction">
<polygon fill="white" stroke="black" points="164,-0.5 164,-19.5 256,-19.5 256,-0.5 164,-0.5"/>
<text text-anchor="middle" x="210" y="-7.5" font-family="Helvetica,sans-Serif" font-size="10.00">xtb_intgrad::olapp</text>
</a>
</g>
</g>
<!-- Node1&#45;&gt;Node7 -->
<g id="edge6" class="edge">
<title>Node1&#45;&gt;Node7</title>
<path fill="none" stroke="midnightblue" d="M81.34,-60.45C100.37,-51.85 129.36,-39.06 155,-29 160.15,-26.98 165.61,-24.94 171,-22.99"/>
<polygon fill="midnightblue" stroke="midnightblue" points="172.31,-26.24 180.55,-19.58 169.96,-19.64 172.31,-26.24"/>
</g>
<!-- Node4 -->
<g id="node4" class="node">
<title>Node4</title>
<g id="a_node4"><a xlink:href="namespacextb__intgrad.html#a5bc6f86d12b5b4734f597a88800d8330" target="_top" xlink:title=" ">
<polygon fill="white" stroke="black" points="302.5,-99 302.5,-129 391.5,-129 391.5,-99 302.5,-99"/>
<text text-anchor="start" x="310.5" y="-117" font-family="Helvetica,sans-Serif" font-size="10.00">xtb_intgrad::build</text>
<text text-anchor="middle" x="347" y="-106" font-family="Helvetica,sans-Serif" font-size="10.00">_hshift2</text>
</a>
</g>
</g>
<!-- Node3&#45;&gt;Node4 -->
<g id="edge3" class="edge">
<title>Node3&#45;&gt;Node4</title>
<path fill="none" stroke="midnightblue" d="M254.83,-99.14C266.74,-101.08 279.78,-103.21 292.17,-105.23"/>
<polygon fill="midnightblue" stroke="midnightblue" points="291.96,-108.74 302.39,-106.89 293.08,-101.83 291.96,-108.74"/>
</g>
<!-- Node5 -->
<g id="node5" class="node">
<title>Node5</title>
<g id="a_node5"><a xlink:href="namespacextb__intgrad.html#a040b47e4b45c55028569fcad9704172a" target="_top" xlink:title=" ">
<polygon fill="white" stroke="black" points="301,-60.5 301,-79.5 393,-79.5 393,-60.5 301,-60.5"/>
<text text-anchor="middle" x="347" y="-67.5" font-family="Helvetica,sans-Serif" font-size="10.00">xtb_intgrad::prod3</text>
</a>
</g>
</g>
<!-- Node3&#45;&gt;Node5 -->
<g id="edge4" class="edge">
<title>Node3&#45;&gt;Node5</title>
<path fill="none" stroke="midnightblue" d="M254.83,-84.86C266.26,-82.99 278.72,-80.96 290.66,-79.02"/>
<polygon fill="midnightblue" stroke="midnightblue" points="291.23,-82.47 300.53,-77.41 290.1,-75.56 291.23,-82.47"/>
</g>
</g>
</svg>
