<?xml version="1.0" encoding="UTF-8" standalone="no"?>
<!DOCTYPE svg PUBLIC "-//W3C//DTD SVG 1.1//EN"
 "http://www.w3.org/Graphics/SVG/1.1/DTD/svg11.dtd">
<!-- Generated by graphviz version 2.46.1 (20210215.1649)
 -->
<!-- Title: xtb_david2::sdavid2 Pages: 1 -->
<svg width="196pt" height="104pt"
 viewBox="0.00 0.00 196.00 104.00" xmlns="http://www.w3.org/2000/svg" xmlns:xlink="http://www.w3.org/1999/xlink">
<g id="graph0" class="graph" transform="scale(1 1) rotate(0) translate(4 100)">
<title>xtb_david2::sdavid2</title>
<polygon fill="white" stroke="transparent" points="-4,4 -4,-100 192,-100 192,4 -4,4"/>
<!-- Node1 -->
<g id="node1" class="node">
<title>Node1</title>
<g id="a_node1"><a xlink:title=" ">
<polygon fill="#bfbfbf" stroke="black" points="0,-38.5 0,-57.5 101,-57.5 101,-38.5 0,-38.5"/>
<text text-anchor="middle" x="50.5" y="-45.5" font-family="Helvetica,sans-Serif" font-size="10.00">xtb_david2::sdavid2</text>
</a>
</g>
</g>
<!-- Node2 -->
<g id="node2" class="node">
<title>Node2</title>
<g id="a_node2"><a xlink:href="david_8f.html#ac816f7560baf3b33dab8c9e3584632d4" target="_top" xlink:title=" ">
<polygon fill="white" stroke="black" points="138,-76.5 138,-95.5 187,-95.5 187,-76.5 138,-76.5"/>
<text text-anchor="middle" x="162.5" y="-83.5" font-family="Helvetica,sans-Serif" font-size="10.00">smread</text>
</a>
</g>
</g>
<!-- Node1&#45;&gt;Node2 -->
<g id="edge1" class="edge">
<title>Node1&#45;&gt;Node2</title>
<path fill="none" stroke="midnightblue" d="M79.26,-57.59C94.09,-62.71 112.45,-69.05 128.06,-74.45"/>
<polygon fill="midnightblue" stroke="midnightblue" points="127.26,-77.87 137.85,-77.83 129.54,-71.26 127.26,-77.87"/>
</g>
<!-- Node3 -->
<g id="node3" class="node">
<title>Node3</title>
<g id="a_node3"><a xlink:href="david_8f.html#a539c7f10ee754f41d6633b2fc46a1e95" target="_top" xlink:title=" ">
<polygon fill="white" stroke="black" points="137,-38.5 137,-57.5 188,-57.5 188,-38.5 137,-38.5"/>
<text text-anchor="middle" x="162.5" y="-45.5" font-family="Helvetica,sans-Serif" font-size="10.00">smwrite</text>
</a>
</g>
</g>
<!-- Node1&#45;&gt;Node3 -->
<g id="edge2" class="edge">
<title>Node1&#45;&gt;Node3</title>
<path fill="none" stroke="midnightblue" d="M101.03,-48C109.67,-48 118.5,-48 126.64,-48"/>
<polygon fill="midnightblue" stroke="midnightblue" points="126.88,-51.5 136.88,-48 126.88,-44.5 126.88,-51.5"/>
</g>
<!-- Node4 -->
<g id="node4" class="node">
<title>Node4</title>
<g id="a_node4"><a xlink:href="symmetry__i_8c.html#aa77c823a9fc018ae1d437369708d8727" target="_top" xlink:title=" ">
<polygon fill="white" stroke="black" points="146,-0.5 146,-19.5 179,-19.5 179,-0.5 146,-0.5"/>
<text text-anchor="middle" x="162.5" y="-7.5" font-family="Helvetica,sans-Serif" font-size="10.00">true</text>
</a>
</g>
</g>
<!-- Node1&#45;&gt;Node4 -->
<g id="edge3" class="edge">
<title>Node1&#45;&gt;Node4</title>
<path fill="none" stroke="midnightblue" d="M79.26,-38.41C96.76,-32.37 119.18,-24.62 136.19,-18.74"/>
<polygon fill="midnightblue" stroke="midnightblue" points="137.68,-21.93 145.99,-15.36 135.39,-15.32 137.68,-21.93"/>
</g>
</g>
</svg>
