<?xml version="1.0" encoding="UTF-8" standalone="no"?>
<!DOCTYPE svg PUBLIC "-//W3C//DTD SVG 1.1//EN"
 "http://www.w3.org/Graphics/SVG/1.1/DTD/svg11.dtd">
<!-- Generated by graphviz version 2.43.0 (0)
 -->
<!-- Title: xtb_peeq::dsrb_grad Pages: 1 -->
<svg width="427pt" height="78pt"
 viewBox="0.00 0.00 427.00 77.50" xmlns="http://www.w3.org/2000/svg" xmlns:xlink="http://www.w3.org/1999/xlink">
<g id="graph0" class="graph" transform="scale(1 1) rotate(0) translate(4 73.5)">
<title>xtb_peeq::dsrb_grad</title>
<polygon fill="white" stroke="transparent" points="-4,4 -4,-73.5 423,-73.5 423,4 -4,4"/>
<!-- Node1 -->
<g id="node1" class="node">
<title>Node1</title>
<g id="a_node1"><a xlink:title=" ">
<polygon fill="#bfbfbf" stroke="black" points="0,-28 0,-47 116,-47 116,-28 0,-28"/>
<text text-anchor="middle" x="58" y="-35" font-family="Helvetica,sans-Serif" font-size="10.00">xtb_peeq::dsrb_grad</text>
</a>
</g>
</g>
<!-- Node2 -->
<g id="node2" class="node">
<title>Node2</title>
<g id="a_node2"><a xlink:href="namespacextb__peeq.html#a9a42f869480d94dc05ae91714cc510b1" target="_top" xlink:title=" ">
<polygon fill="white" stroke="black" points="152,-50 152,-69 279,-69 279,-50 152,-50"/>
<text text-anchor="middle" x="215.5" y="-57" font-family="Helvetica,sans-Serif" font-size="10.00">xtb_peeq::build_srblist</text>
</a>
</g>
</g>
<!-- Node1&#45;&gt;Node2 -->
<g id="edge1" class="edge">
<title>Node1&#45;&gt;Node2</title>
<path fill="none" stroke="midnightblue" d="M116.02,-45.57C124.43,-46.76 133.19,-48 141.86,-49.22"/>
<polygon fill="midnightblue" stroke="midnightblue" points="141.59,-52.72 151.98,-50.66 142.57,-45.79 141.59,-52.72"/>
</g>
<!-- Node4 -->
<g id="node4" class="node">
<title>Node4</title>
<g id="a_node4"><a xlink:href="namespacextb__approxrab.html#a3276472187bdbdb24e686112778526e7" target="_top" xlink:title=" ">
<polygon fill="white" stroke="black" points="160.5,-0.5 160.5,-30.5 270.5,-30.5 270.5,-0.5 160.5,-0.5"/>
<text text-anchor="start" x="168.5" y="-18.5" font-family="Helvetica,sans-Serif" font-size="10.00">xtb_approxrab::pbc</text>
<text text-anchor="middle" x="215.5" y="-7.5" font-family="Helvetica,sans-Serif" font-size="10.00">_approx_rab</text>
</a>
</g>
</g>
<!-- Node1&#45;&gt;Node4 -->
<g id="edge3" class="edge">
<title>Node1&#45;&gt;Node4</title>
<path fill="none" stroke="midnightblue" d="M116.02,-29.43C127.1,-27.86 138.79,-26.21 150.09,-24.61"/>
<polygon fill="midnightblue" stroke="midnightblue" points="150.92,-28.03 160.33,-23.16 149.94,-21.1 150.92,-28.03"/>
</g>
<!-- Node3 -->
<g id="node3" class="node">
<title>Node3</title>
<g id="a_node3"><a xlink:href="peeq__module_8f90.html#a4d20337f496054e2af2fb121db579462" target="_top" xlink:title=" ">
<polygon fill="white" stroke="black" points="338.5,-50 338.5,-69 395.5,-69 395.5,-50 338.5,-50"/>
<text text-anchor="middle" x="367" y="-57" font-family="Helvetica,sans-Serif" font-size="10.00">srbatom</text>
</a>
</g>
</g>
<!-- Node2&#45;&gt;Node3 -->
<g id="edge2" class="edge">
<title>Node2&#45;&gt;Node3</title>
<path fill="none" stroke="midnightblue" d="M279.04,-59.5C295.65,-59.5 313.09,-59.5 327.95,-59.5"/>
<polygon fill="midnightblue" stroke="midnightblue" points="328.27,-63 338.27,-59.5 328.27,-56 328.27,-63"/>
</g>
<!-- Node5 -->
<g id="node5" class="node">
<title>Node5</title>
<g id="a_node5"><a xlink:href="namespacextb__approxrab.html#a173588bbfef4a08a37b226b9b7bd669f" target="_top" xlink:title=" ">
<polygon fill="white" stroke="black" points="315,-6 315,-25 419,-25 419,-6 315,-6"/>
<text text-anchor="middle" x="367" y="-13" font-family="Helvetica,sans-Serif" font-size="10.00">xtb_approxrab::itr</text>
</a>
</g>
</g>
<!-- Node4&#45;&gt;Node5 -->
<g id="edge4" class="edge">
<title>Node4&#45;&gt;Node5</title>
<path fill="none" stroke="midnightblue" d="M270.9,-15.5C281.89,-15.5 293.52,-15.5 304.73,-15.5"/>
<polygon fill="midnightblue" stroke="midnightblue" points="304.88,-19 314.88,-15.5 304.88,-12 304.88,-19"/>
</g>
</g>
</svg>
