<?xml version="1.0" encoding="UTF-8" standalone="no"?>
<!DOCTYPE svg PUBLIC "-//W3C//DTD SVG 1.1//EN"
 "http://www.w3.org/Graphics/SVG/1.1/DTD/svg11.dtd">
<!-- Generated by graphviz version 2.46.0 (20210122.1329)
 -->
<!-- Title: xtb_intgrad::get_multiints Pages: 1 -->
<svg width="696pt" height="177pt"
 viewBox="0.00 0.00 696.00 176.50" xmlns="http://www.w3.org/2000/svg" xmlns:xlink="http://www.w3.org/1999/xlink">
<g id="graph0" class="graph" transform="scale(1 1) rotate(0) translate(4 172.5)">
<title>xtb_intgrad::get_multiints</title>
<polygon fill="white" stroke="transparent" points="-4,4 -4,-172.5 692,-172.5 692,4 -4,4"/>
<!-- Node1 -->
<g id="node1" class="node">
<title>Node1</title>
<g id="a_node1"><a xlink:title=" ">
<polygon fill="#bfbfbf" stroke="black" points="564,-60.5 564,-79.5 688,-79.5 688,-60.5 564,-60.5"/>
<text text-anchor="middle" x="626" y="-67.5" font-family="Helvetica,sans-Serif" font-size="10.00">xtb_intgrad::get_multiints</text>
</a>
</g>
</g>
<!-- Node2 -->
<g id="node2" class="node">
<title>Node2</title>
<g id="a_node2"><a xlink:href="namespacextb__xtb__hamiltonian.html#a9f0d8be35a4ef0f2dbbbafd2ef873d64" target="_top" xlink:title="Computes the dipole and quadrupole integrals and performs screening to.">
<polygon fill="white" stroke="black" points="419,-126 419,-156 521,-156 521,-126 419,-126"/>
<text text-anchor="start" x="427" y="-144" font-family="Helvetica,sans-Serif" font-size="10.00">xtb_xtb_hamiltonian</text>
<text text-anchor="middle" x="470" y="-133" font-family="Helvetica,sans-Serif" font-size="10.00">::build_sdqh0</text>
</a>
</g>
</g>
<!-- Node1&#45;&gt;Node2 -->
<g id="edge1" class="edge">
<title>Node1&#45;&gt;Node2</title>
<path fill="none" stroke="midnightblue" d="M596.7,-84.2C577.45,-93.74 551.34,-106.44 528,-117 521.45,-119.97 514.42,-123.02 507.61,-125.92"/>
<polygon fill="midnightblue" stroke="midnightblue" points="598.42,-87.25 605.82,-79.66 595.3,-80.98 598.42,-87.25"/>
</g>
<!-- Node8 -->
<g id="node8" class="node">
<title>Node8</title>
<g id="a_node8"><a xlink:href="namespacextb__xtb__hamiltonian__gpu.html#aee3ffc022ae0b9686cef17ce77e6b117" target="_top" xlink:title="Computes the dipole and quadrupole integrals and performs screening to.">
<polygon fill="white" stroke="black" points="412.5,-77 412.5,-107 527.5,-107 527.5,-77 412.5,-77"/>
<text text-anchor="start" x="420.5" y="-95" font-family="Helvetica,sans-Serif" font-size="10.00">xtb_xtb_hamiltonian</text>
<text text-anchor="middle" x="470" y="-84" font-family="Helvetica,sans-Serif" font-size="10.00">_gpu::build_sdqh0_gpu</text>
</a>
</g>
</g>
<!-- Node1&#45;&gt;Node8 -->
<g id="edge8" class="edge">
<title>Node1&#45;&gt;Node8</title>
<path fill="none" stroke="midnightblue" d="M553.55,-80.21C544.84,-81.45 536.04,-82.71 527.6,-83.91"/>
<polygon fill="midnightblue" stroke="midnightblue" points="554.29,-83.64 563.69,-78.76 553.3,-76.71 554.29,-83.64"/>
</g>
<!-- Node9 -->
<g id="node9" class="node">
<title>Node9</title>
<g id="a_node9"><a xlink:href="namespacextb__intgrad.html#a45fdbd10e8d62595c60b79d516e52cbd" target="_top" xlink:title="computes the dipole and quadrupole integrals and performs screening to">
<polygon fill="white" stroke="black" points="422.5,-38.5 422.5,-57.5 517.5,-57.5 517.5,-38.5 422.5,-38.5"/>
<text text-anchor="middle" x="470" y="-45.5" font-family="Helvetica,sans-Serif" font-size="10.00">xtb_intgrad::sdqint</text>
</a>
</g>
</g>
<!-- Node1&#45;&gt;Node9 -->
<g id="edge10" class="edge">
<title>Node1&#45;&gt;Node9</title>
<path fill="none" stroke="midnightblue" d="M553.58,-59.8C541.45,-58.06 529.14,-56.31 517.86,-54.69"/>
<polygon fill="midnightblue" stroke="midnightblue" points="553.3,-63.29 563.69,-61.24 554.29,-56.36 553.3,-63.29"/>
</g>
<!-- Node13 -->
<g id="node13" class="node">
<title>Node13</title>
<g id="a_node13"><a xlink:href="namespacextb__intgrad.html#acfb80861031d50fbbfc7f6a4d203b94f" target="_top" xlink:title="Computes the overlap dipole and quadrupole integrals.">
<polygon fill="white" stroke="black" points="412,-0.5 412,-19.5 528,-19.5 528,-0.5 412,-0.5"/>
<text text-anchor="middle" x="470" y="-7.5" font-family="Helvetica,sans-Serif" font-size="10.00">xtb_intgrad::sdqint_gpu</text>
</a>
</g>
</g>
<!-- Node1&#45;&gt;Node13 -->
<g id="edge14" class="edge">
<title>Node1&#45;&gt;Node13</title>
<path fill="none" stroke="midnightblue" d="M594.29,-56.3C575.34,-48.02 550.43,-37.46 528,-29 519.31,-25.72 509.78,-22.43 501.03,-19.52"/>
<polygon fill="midnightblue" stroke="midnightblue" points="593.06,-59.57 603.62,-60.39 595.87,-53.17 593.06,-59.57"/>
</g>
<!-- Node3 -->
<g id="node3" class="node">
<title>Node3</title>
<g id="a_node3"><a xlink:href="namespacextb__scf.html#a7390c40a38032c3d210c39edecfa49ed" target="_top" xlink:title=" ">
<polygon fill="white" stroke="black" points="295,-99.5 295,-118.5 361,-118.5 361,-99.5 295,-99.5"/>
<text text-anchor="middle" x="328" y="-106.5" font-family="Helvetica,sans-Serif" font-size="10.00">xtb_scf::scf</text>
</a>
</g>
</g>
<!-- Node2&#45;&gt;Node3 -->
<g id="edge2" class="edge">
<title>Node2&#45;&gt;Node3</title>
<path fill="none" stroke="midnightblue" d="M408.82,-127.25C392.51,-123.52 375.47,-119.62 361.35,-116.39"/>
<polygon fill="midnightblue" stroke="midnightblue" points="408.32,-130.72 418.85,-129.54 409.88,-123.9 408.32,-130.72"/>
</g>
<!-- Node4 -->
<g id="node4" class="node">
<title>Node4</title>
<g id="a_node4"><a xlink:href="namespacextb__xtb__calculator.html#a75c96263c235c99dfeeda3e865f9898c" target="_top" xlink:title=" ">
<polygon fill="white" stroke="black" points="137.5,-138 137.5,-168 232.5,-168 232.5,-138 137.5,-138"/>
<text text-anchor="start" x="145.5" y="-156" font-family="Helvetica,sans-Serif" font-size="10.00">xtb_xtb_calculator</text>
<text text-anchor="middle" x="185" y="-145" font-family="Helvetica,sans-Serif" font-size="10.00">::singlepoint</text>
</a>
</g>
</g>
<!-- Node3&#45;&gt;Node4 -->
<g id="edge3" class="edge">
<title>Node3&#45;&gt;Node4</title>
<path fill="none" stroke="midnightblue" d="M286.83,-121.54C269.93,-126.81 250.16,-132.98 232.63,-138.45"/>
<polygon fill="midnightblue" stroke="midnightblue" points="287.9,-124.87 296.41,-118.55 285.82,-118.19 287.9,-124.87"/>
</g>
<!-- Node5 -->
<g id="node5" class="node">
<title>Node5</title>
<g id="a_node5"><a xlink:href="TESTSUITE_2gfn1_8f90.html#ab5cc37cef2d483d9d9cde17aa03c55a8" target="_top" xlink:title=" ">
<polygon fill="white" stroke="black" points="146,-99.5 146,-118.5 224,-118.5 224,-99.5 146,-99.5"/>
<text text-anchor="middle" x="185" y="-106.5" font-family="Helvetica,sans-Serif" font-size="10.00">test_gfn1_scc</text>
</a>
</g>
</g>
<!-- Node3&#45;&gt;Node5 -->
<g id="edge4" class="edge">
<title>Node3&#45;&gt;Node5</title>
<path fill="none" stroke="midnightblue" d="M284.39,-109C265.24,-109 242.8,-109 224.2,-109"/>
<polygon fill="midnightblue" stroke="midnightblue" points="284.65,-112.5 294.65,-109 284.65,-105.5 284.65,-112.5"/>
</g>
<!-- Node7 -->
<g id="node7" class="node">
<title>Node7</title>
<g id="a_node7"><a xlink:href="TESTSUITE_2gfn2_8f90.html#af47afba0207cbca2dc950fb5e339ce03" target="_top" xlink:title=" ">
<polygon fill="white" stroke="black" points="146,-61.5 146,-80.5 224,-80.5 224,-61.5 146,-61.5"/>
<text text-anchor="middle" x="185" y="-68.5" font-family="Helvetica,sans-Serif" font-size="10.00">test_gfn2_scc</text>
</a>
</g>
</g>
<!-- Node3&#45;&gt;Node7 -->
<g id="edge6" class="edge">
<title>Node3&#45;&gt;Node7</title>
<path fill="none" stroke="midnightblue" d="M284.77,-97.62C264.57,-92.17 240.65,-85.73 221.41,-80.54"/>
<polygon fill="midnightblue" stroke="midnightblue" points="284.09,-101.06 294.65,-100.28 285.91,-94.3 284.09,-101.06"/>
</g>
<!-- Node6 -->
<g id="node6" class="node">
<title>Node6</title>
<g id="a_node6"><a xlink:href="tests__peeq_8f90.html#a87ff5319e0d2e627a4f71d7df0d14891" target="_top" xlink:title=" ">
<polygon fill="white" stroke="black" points="11,-77.5 11,-96.5 79,-96.5 79,-77.5 11,-77.5"/>
<text text-anchor="middle" x="45" y="-84.5" font-family="Helvetica,sans-Serif" font-size="10.00">peeq_tester</text>
</a>
</g>
</g>
<!-- Node5&#45;&gt;Node6 -->
<g id="edge5" class="edge">
<title>Node5&#45;&gt;Node6</title>
<path fill="none" stroke="midnightblue" d="M135.82,-101.32C117.14,-98.34 96.21,-95 79.26,-92.3"/>
<polygon fill="midnightblue" stroke="midnightblue" points="135.5,-104.81 145.93,-102.93 136.6,-97.9 135.5,-104.81"/>
</g>
<!-- Node7&#45;&gt;Node6 -->
<g id="edge7" class="edge">
<title>Node7&#45;&gt;Node6</title>
<path fill="none" stroke="midnightblue" d="M135.82,-76.59C117.14,-78.75 96.21,-81.18 79.26,-83.14"/>
<polygon fill="midnightblue" stroke="midnightblue" points="136.4,-80.04 145.93,-75.41 135.59,-73.09 136.4,-80.04"/>
</g>
<!-- Node8&#45;&gt;Node3 -->
<g id="edge9" class="edge">
<title>Node8&#45;&gt;Node3</title>
<path fill="none" stroke="midnightblue" d="M402.13,-100.12C387.86,-101.85 373.42,-103.61 361.18,-105.09"/>
<polygon fill="midnightblue" stroke="midnightblue" points="402.96,-103.55 412.46,-98.87 402.11,-96.6 402.96,-103.55"/>
</g>
<!-- Node10 -->
<g id="node10" class="node">
<title>Node10</title>
<g id="a_node10"><a xlink:href="namespacextb__propertyoutput.html#a74ca9110d4ecdd9fc1a790d9a2027a02" target="_top" xlink:title=" ">
<polygon fill="white" stroke="black" points="280,-15 280,-45 376,-45 376,-15 280,-15"/>
<text text-anchor="start" x="288" y="-33" font-family="Helvetica,sans-Serif" font-size="10.00">xtb_propertyoutput</text>
<text text-anchor="middle" x="328" y="-22" font-family="Helvetica,sans-Serif" font-size="10.00">::main_property</text>
</a>
</g>
</g>
<!-- Node9&#45;&gt;Node10 -->
<g id="edge11" class="edge">
<title>Node9&#45;&gt;Node10</title>
<path fill="none" stroke="midnightblue" d="M412.12,-40.69C400.25,-39.16 387.85,-37.57 376.37,-36.09"/>
<polygon fill="midnightblue" stroke="midnightblue" points="412.02,-44.2 422.38,-42.01 412.91,-37.26 412.02,-44.2"/>
</g>
<!-- Node11 -->
<g id="node11" class="node">
<title>Node11</title>
<g id="a_node11"><a xlink:href="namespacextb__prog__main.html#a92b3b61ee04235e6343f652095682529" target="_top" xlink:title=" ">
<polygon fill="white" stroke="black" points="126,-20.5 126,-39.5 244,-39.5 244,-20.5 126,-20.5"/>
<text text-anchor="middle" x="185" y="-27.5" font-family="Helvetica,sans-Serif" font-size="10.00">xtb_prog_main::xtbmain</text>
</a>
</g>
</g>
<!-- Node10&#45;&gt;Node11 -->
<g id="edge12" class="edge">
<title>Node10&#45;&gt;Node11</title>
<path fill="none" stroke="midnightblue" d="M269.61,-30C261.25,-30 252.62,-30 244.24,-30"/>
<polygon fill="midnightblue" stroke="midnightblue" points="269.66,-33.5 279.66,-30 269.66,-26.5 269.66,-33.5"/>
</g>
<!-- Node12 -->
<g id="node12" class="node">
<title>Node12</title>
<g id="a_node12"><a xlink:href="primary_8f90.html#a2a67903cf5be605c5b6d3c362c6a3c5c" target="_top" xlink:title="The primary driver for the xtb program package.">
<polygon fill="white" stroke="black" points="0,-20.5 0,-39.5 90,-39.5 90,-20.5 0,-20.5"/>
<text text-anchor="middle" x="45" y="-27.5" font-family="Helvetica,sans-Serif" font-size="10.00">xtb_prog_primary</text>
</a>
</g>
</g>
<!-- Node11&#45;&gt;Node12 -->
<g id="edge13" class="edge">
<title>Node11&#45;&gt;Node12</title>
<path fill="none" stroke="midnightblue" d="M115.73,-30C107.06,-30 98.37,-30 90.22,-30"/>
<polygon fill="midnightblue" stroke="midnightblue" points="115.88,-33.5 125.88,-30 115.88,-26.5 115.88,-33.5"/>
</g>
<!-- Node13&#45;&gt;Node10 -->
<g id="edge15" class="edge">
<title>Node13&#45;&gt;Node10</title>
<path fill="none" stroke="midnightblue" d="M401.63,-19.62C393.04,-20.85 384.4,-22.09 376.22,-23.25"/>
<polygon fill="midnightblue" stroke="midnightblue" points="402.25,-23.07 411.65,-18.19 401.26,-16.14 402.25,-23.07"/>
</g>
</g>
</svg>
