<?xml version="1.0" encoding="UTF-8" standalone="no"?>
<!DOCTYPE svg PUBLIC "-//W3C//DTD SVG 1.1//EN"
 "http://www.w3.org/Graphics/SVG/1.1/DTD/svg11.dtd">
<!-- Generated by graphviz version 2.46.1 (20210215.1649)
 -->
<!-- Title: xtb_gfnff_ini2::bond_hbset0 Pages: 1 -->
<svg width="1053pt" height="483pt"
 viewBox="0.00 0.00 1053.00 483.21" xmlns="http://www.w3.org/2000/svg" xmlns:xlink="http://www.w3.org/1999/xlink">
<g id="graph0" class="graph" transform="scale(1 1) rotate(0) translate(4 479.21)">
<title>xtb_gfnff_ini2::bond_hbset0</title>
<polygon fill="white" stroke="transparent" points="-4,4 -4,-479.21 1049,-479.21 1049,4 -4,4"/>
<!-- Node1 -->
<g id="node1" class="node">
<title>Node1</title>
<g id="a_node1"><a xlink:title=" ">
<polygon fill="#bfbfbf" stroke="black" points="946,-205.71 946,-235.71 1045,-235.71 1045,-205.71 946,-205.71"/>
<text text-anchor="start" x="954" y="-223.71" font-family="Helvetica,sans-Serif" font-size="10.00">xtb_gfnff_ini2::bond</text>
<text text-anchor="middle" x="995.5" y="-212.71" font-family="Helvetica,sans-Serif" font-size="10.00">_hbset0</text>
</a>
</g>
</g>
<!-- Node2 -->
<g id="node2" class="node">
<title>Node2</title>
<g id="a_node2"><a xlink:href="namespacextb__gfnff__ini.html#ad57146d4119080bb244e8f19309414b5" target="_top" xlink:title=" ">
<polygon fill="white" stroke="black" points="803,-211.21 803,-230.21 910,-230.21 910,-211.21 803,-211.21"/>
<text text-anchor="middle" x="856.5" y="-218.21" font-family="Helvetica,sans-Serif" font-size="10.00">xtb_gfnff_ini::gfnff_ini</text>
</a>
</g>
</g>
<!-- Node1&#45;&gt;Node2 -->
<g id="edge1" class="edge">
<title>Node1&#45;&gt;Node2</title>
<path fill="none" stroke="midnightblue" d="M935.64,-220.71C927.19,-220.71 918.54,-220.71 910.21,-220.71"/>
<polygon fill="midnightblue" stroke="midnightblue" points="935.81,-224.21 945.81,-220.71 935.81,-217.21 935.81,-224.21"/>
</g>
<!-- Node3 -->
<g id="node3" class="node">
<title>Node3</title>
<g id="a_node3"><a xlink:href="namespacextb__gfnff__setup.html#a4aeb50102462398d4f57781b1c421257" target="_top" xlink:title=" ">
<polygon fill="white" stroke="black" points="661,-205.71 661,-235.71 767,-235.71 767,-205.71 661,-205.71"/>
<text text-anchor="start" x="669" y="-223.71" font-family="Helvetica,sans-Serif" font-size="10.00">xtb_gfnff_setup::gfnff</text>
<text text-anchor="middle" x="714" y="-212.71" font-family="Helvetica,sans-Serif" font-size="10.00">_setup</text>
</a>
</g>
</g>
<!-- Node2&#45;&gt;Node3 -->
<g id="edge2" class="edge">
<title>Node2&#45;&gt;Node3</title>
<path fill="none" stroke="midnightblue" d="M792.52,-220.71C784.01,-220.71 775.36,-220.71 767.08,-220.71"/>
<polygon fill="midnightblue" stroke="midnightblue" points="792.78,-224.21 802.78,-220.71 792.78,-217.21 792.78,-224.21"/>
</g>
<!-- Node4 -->
<g id="node4" class="node">
<title>Node4</title>
<g id="a_node4"><a xlink:href="namespacextb__main__setup.html#a01dff07fc5b7e8c442d7e62c00377fc4" target="_top" xlink:title=" ">
<polygon fill="white" stroke="black" points="465,-211.21 465,-230.21 625,-230.21 625,-211.21 465,-211.21"/>
<text text-anchor="middle" x="545" y="-218.21" font-family="Helvetica,sans-Serif" font-size="10.00">xtb_main_setup::newgffcalculator</text>
</a>
</g>
</g>
<!-- Node3&#45;&gt;Node4 -->
<g id="edge3" class="edge">
<title>Node3&#45;&gt;Node4</title>
<path fill="none" stroke="midnightblue" d="M650.36,-220.71C642.11,-220.71 633.58,-220.71 625.11,-220.71"/>
<polygon fill="midnightblue" stroke="midnightblue" points="650.62,-224.21 660.62,-220.71 650.62,-217.21 650.62,-224.21"/>
</g>
<!-- Node5 -->
<g id="node5" class="node">
<title>Node5</title>
<g id="a_node5"><a xlink:href="namespacextb__api__calculator.html#a6d6689e12fc963d1bc325f687a8d7d5d" target="_top" xlink:title=" ">
<polygon fill="white" stroke="black" points="307,-444.71 307,-474.71 402,-474.71 402,-444.71 307,-444.71"/>
<text text-anchor="start" x="315" y="-462.71" font-family="Helvetica,sans-Serif" font-size="10.00">xtb_api_calculator</text>
<text text-anchor="middle" x="354.5" y="-451.71" font-family="Helvetica,sans-Serif" font-size="10.00">::loadgfnff_api</text>
</a>
</g>
</g>
<!-- Node4&#45;&gt;Node5 -->
<g id="edge4" class="edge">
<title>Node4&#45;&gt;Node5</title>
<path fill="none" stroke="midnightblue" d="M538.83,-240.19C526.76,-281.95 492.81,-380.65 429,-434.71 421.29,-441.24 411.78,-446.09 402.2,-449.69"/>
<polygon fill="midnightblue" stroke="midnightblue" points="542.24,-241.01 541.55,-230.44 535.49,-239.13 542.24,-241.01"/>
</g>
<!-- Node6 -->
<g id="node6" class="node">
<title>Node6</title>
<g id="a_node6"><a xlink:href="namespacextb__main__setup.html#a2873ec6fc259dc1f93f4c74d34501d91" target="_top" xlink:title=" ">
<polygon fill="white" stroke="black" points="280,-406.21 280,-425.21 429,-425.21 429,-406.21 280,-406.21"/>
<text text-anchor="middle" x="354.5" y="-413.21" font-family="Helvetica,sans-Serif" font-size="10.00">xtb_main_setup::newcalculator</text>
</a>
</g>
</g>
<!-- Node4&#45;&gt;Node6 -->
<g id="edge5" class="edge">
<title>Node4&#45;&gt;Node6</title>
<path fill="none" stroke="midnightblue" d="M536.92,-240C522.51,-276.5 486.22,-355.64 429,-396.71 423.65,-400.55 417.58,-403.62 411.28,-406.06"/>
<polygon fill="midnightblue" stroke="midnightblue" points="540.25,-241.11 540.55,-230.52 533.71,-238.61 540.25,-241.11"/>
</g>
<!-- Node9 -->
<g id="node9" class="node">
<title>Node9</title>
<g id="a_node9"><a xlink:href="namespacextb__gfnff__convert.html#adf399b47b9f2a8364327d9d5c38cb2b8" target="_top" xlink:title=" ">
<polygon fill="white" stroke="black" points="307,-356.71 307,-386.71 402,-386.71 402,-356.71 307,-356.71"/>
<text text-anchor="start" x="315" y="-374.71" font-family="Helvetica,sans-Serif" font-size="10.00">xtb_gfnff_convert::</text>
<text text-anchor="middle" x="354.5" y="-363.71" font-family="Helvetica,sans-Serif" font-size="10.00">struc_convert</text>
</a>
</g>
</g>
<!-- Node4&#45;&gt;Node9 -->
<g id="edge8" class="edge">
<title>Node4&#45;&gt;Node9</title>
<path fill="none" stroke="midnightblue" d="M531.91,-238.99C513.02,-266.19 474,-317.26 429,-346.71 420.88,-352.02 411.51,-356.32 402.24,-359.76"/>
<polygon fill="midnightblue" stroke="midnightblue" points="534.99,-240.68 537.72,-230.44 529.2,-236.74 534.99,-240.68"/>
</g>
<!-- Node10 -->
<g id="node10" class="node">
<title>Node10</title>
<g id="a_node10"><a xlink:href="gfnff_8f90.html#a37a3363fde733941b6467279048767fb" target="_top" xlink:title=" ">
<polygon fill="white" stroke="black" points="313,-318.21 313,-337.21 396,-337.21 396,-318.21 313,-318.21"/>
<text text-anchor="middle" x="354.5" y="-325.21" font-family="Helvetica,sans-Serif" font-size="10.00">test_gfnff_gbsa</text>
</a>
</g>
</g>
<!-- Node4&#45;&gt;Node10 -->
<g id="edge10" class="edge">
<title>Node4&#45;&gt;Node10</title>
<path fill="none" stroke="midnightblue" d="M526.94,-237.36C505.7,-257.18 467.51,-289.96 429,-308.71 418.81,-313.67 407.17,-317.44 396.21,-320.26"/>
<polygon fill="midnightblue" stroke="midnightblue" points="529.62,-239.64 534.46,-230.21 524.8,-234.56 529.62,-239.64"/>
</g>
<!-- Node12 -->
<g id="node12" class="node">
<title>Node12</title>
<g id="a_node12"><a xlink:href="gfnff_8f90.html#a1537c4a10909349e4a2fd085248fc0cb" target="_top" xlink:title=" ">
<polygon fill="white" stroke="black" points="318,-280.21 318,-299.21 391,-299.21 391,-280.21 318,-280.21"/>
<text text-anchor="middle" x="354.5" y="-287.21" font-family="Helvetica,sans-Serif" font-size="10.00">test_gfnff_hb</text>
</a>
</g>
</g>
<!-- Node4&#45;&gt;Node12 -->
<g id="edge12" class="edge">
<title>Node4&#45;&gt;Node12</title>
<path fill="none" stroke="midnightblue" d="M515.25,-234.71C492.29,-245.53 459.08,-260.35 429,-270.71 416.91,-274.87 403.43,-278.6 391.35,-281.64"/>
<polygon fill="midnightblue" stroke="midnightblue" points="516.9,-237.8 524.43,-230.34 513.9,-231.48 516.9,-237.8"/>
</g>
<!-- Node13 -->
<g id="node13" class="node">
<title>Node13</title>
<g id="a_node13"><a xlink:href="gfnff_8f90.html#a99d4eefcd1d33ae189dc8ce62bb94464" target="_top" xlink:title=" ">
<polygon fill="white" stroke="black" points="304,-230.71 304,-260.71 405,-260.71 405,-230.71 304,-230.71"/>
<text text-anchor="start" x="312" y="-248.71" font-family="Helvetica,sans-Serif" font-size="10.00">test_gfnff_mindless</text>
<text text-anchor="middle" x="354.5" y="-237.71" font-family="Helvetica,sans-Serif" font-size="10.00">_basic</text>
</a>
</g>
</g>
<!-- Node4&#45;&gt;Node13 -->
<g id="edge14" class="edge">
<title>Node4&#45;&gt;Node13</title>
<path fill="none" stroke="midnightblue" d="M462.14,-231.56C442.74,-234.14 422.63,-236.8 405.17,-239.12"/>
<polygon fill="midnightblue" stroke="midnightblue" points="462.75,-235.01 472.2,-230.23 461.83,-228.08 462.75,-235.01"/>
</g>
<!-- Node14 -->
<g id="node14" class="node">
<title>Node14</title>
<g id="a_node14"><a xlink:href="gfnff_8f90.html#a0e92e95bfacd9d1eead0f4b7059859b2" target="_top" xlink:title=" ">
<polygon fill="white" stroke="black" points="304,-181.71 304,-211.71 405,-211.71 405,-181.71 304,-181.71"/>
<text text-anchor="start" x="312" y="-199.71" font-family="Helvetica,sans-Serif" font-size="10.00">test_gfnff_mindless</text>
<text text-anchor="middle" x="354.5" y="-188.71" font-family="Helvetica,sans-Serif" font-size="10.00">_solvation</text>
</a>
</g>
</g>
<!-- Node4&#45;&gt;Node14 -->
<g id="edge16" class="edge">
<title>Node4&#45;&gt;Node14</title>
<path fill="none" stroke="midnightblue" d="M459.07,-209.89C440.67,-207.55 421.79,-205.15 405.28,-203.04"/>
<polygon fill="midnightblue" stroke="midnightblue" points="458.87,-213.4 469.23,-211.19 459.75,-206.45 458.87,-213.4"/>
</g>
<!-- Node15 -->
<g id="node15" class="node">
<title>Node15</title>
<g id="a_node15"><a xlink:href="gfnff_8f90.html#a3524b271100f047e2d666a7567eb379a" target="_top" xlink:title=" ">
<polygon fill="white" stroke="black" points="315.5,-143.21 315.5,-162.21 393.5,-162.21 393.5,-143.21 315.5,-143.21"/>
<text text-anchor="middle" x="354.5" y="-150.21" font-family="Helvetica,sans-Serif" font-size="10.00">test_gfnff_pdb</text>
</a>
</g>
</g>
<!-- Node4&#45;&gt;Node15 -->
<g id="edge18" class="edge">
<title>Node4&#45;&gt;Node15</title>
<path fill="none" stroke="midnightblue" d="M513.91,-206.88C490.94,-196.65 458.37,-182.78 429,-172.71 417.62,-168.8 405.04,-165.15 393.55,-162.05"/>
<polygon fill="midnightblue" stroke="midnightblue" points="512.57,-210.12 523.12,-211.03 515.44,-203.73 512.57,-210.12"/>
</g>
<!-- Node16 -->
<g id="node16" class="node">
<title>Node16</title>
<g id="a_node16"><a xlink:href="gfnff_8f90.html#a191f0af42b3874a93555aee466e8bc8c" target="_top" xlink:title=" ">
<polygon fill="white" stroke="black" points="306.5,-105.21 306.5,-124.21 402.5,-124.21 402.5,-105.21 306.5,-105.21"/>
<text text-anchor="middle" x="354.5" y="-112.21" font-family="Helvetica,sans-Serif" font-size="10.00">test_gfnff_scaleup</text>
</a>
</g>
</g>
<!-- Node4&#45;&gt;Node16 -->
<g id="edge20" class="edge">
<title>Node4&#45;&gt;Node16</title>
<path fill="none" stroke="midnightblue" d="M526.57,-203.95C505.23,-184.33 467.2,-152.18 429,-133.71 420.81,-129.75 411.7,-126.54 402.75,-123.97"/>
<polygon fill="midnightblue" stroke="midnightblue" points="524.45,-206.76 534.15,-211.04 529.23,-201.65 524.45,-206.76"/>
</g>
<!-- Node17 -->
<g id="node17" class="node">
<title>Node17</title>
<g id="a_node17"><a xlink:href="gfnff_8f90.html#a63adb2c49c27ebcfcd6ea49fe8259b80" target="_top" xlink:title=" ">
<polygon fill="white" stroke="black" points="316.5,-67.21 316.5,-86.21 392.5,-86.21 392.5,-67.21 316.5,-67.21"/>
<text text-anchor="middle" x="354.5" y="-74.21" font-family="Helvetica,sans-Serif" font-size="10.00">test_gfnff_sdf</text>
</a>
</g>
</g>
<!-- Node4&#45;&gt;Node17 -->
<g id="edge22" class="edge">
<title>Node4&#45;&gt;Node17</title>
<path fill="none" stroke="midnightblue" d="M532.41,-202.55C513.94,-175.11 475.15,-123.37 429,-95.71 418.03,-89.13 404.83,-84.81 392.65,-81.98"/>
<polygon fill="midnightblue" stroke="midnightblue" points="529.66,-204.73 538.08,-211.16 535.51,-200.88 529.66,-204.73"/>
</g>
<!-- Node18 -->
<g id="node18" class="node">
<title>Node18</title>
<g id="a_node18"><a xlink:href="gfnff_8f90.html#a3debb77ee35e9cf115d69ef59490c6c5" target="_top" xlink:title=" ">
<polygon fill="white" stroke="black" points="318,-29.21 318,-48.21 391,-48.21 391,-29.21 318,-29.21"/>
<text text-anchor="middle" x="354.5" y="-36.21" font-family="Helvetica,sans-Serif" font-size="10.00">test_gfnff_sp</text>
</a>
</g>
</g>
<!-- Node4&#45;&gt;Node18 -->
<g id="edge24" class="edge">
<title>Node4&#45;&gt;Node18</title>
<path fill="none" stroke="midnightblue" d="M535.88,-201.42C520.38,-167.02 483.22,-95.18 429,-57.71 417.94,-50.06 404.03,-45.5 391.29,-42.76"/>
<polygon fill="midnightblue" stroke="midnightblue" points="532.78,-203.06 539.99,-210.81 539.19,-200.25 532.78,-203.06"/>
</g>
<!-- Node19 -->
<g id="node19" class="node">
<title>Node19</title>
<g id="a_node19"><a xlink:href="namespacextb__prog__topology.html#aa263269ef9a32674220b4f1bfda0c066" target="_top" xlink:title="Main program of the topology submodule.">
<polygon fill="white" stroke="black" points="135.5,-61.71 135.5,-91.71 234.5,-91.71 234.5,-61.71 135.5,-61.71"/>
<text text-anchor="start" x="143.5" y="-79.71" font-family="Helvetica,sans-Serif" font-size="10.00">xtb_prog_topology::</text>
<text text-anchor="middle" x="185" y="-68.71" font-family="Helvetica,sans-Serif" font-size="10.00">xtbtopology</text>
</a>
</g>
</g>
<!-- Node4&#45;&gt;Node19 -->
<g id="edge26" class="edge">
<title>Node4&#45;&gt;Node19</title>
<path fill="none" stroke="midnightblue" d="M539.76,-201.35C529.37,-159.24 498.28,-59.89 429,-19.71 371.71,13.52 343.78,-1.88 280,-19.71 250.96,-27.82 221.96,-47.63 204.01,-61.61"/>
<polygon fill="midnightblue" stroke="midnightblue" points="536.37,-202.24 542.06,-211.18 543.19,-200.65 536.37,-202.24"/>
</g>
<!-- Node7 -->
<g id="node7" class="node">
<title>Node7</title>
<g id="a_node7"><a xlink:href="namespacextb__prog__main.html#a92b3b61ee04235e6343f652095682529" target="_top" xlink:title=" ">
<polygon fill="white" stroke="black" points="126,-362.21 126,-381.21 244,-381.21 244,-362.21 126,-362.21"/>
<text text-anchor="middle" x="185" y="-369.21" font-family="Helvetica,sans-Serif" font-size="10.00">xtb_prog_main::xtbmain</text>
</a>
</g>
</g>
<!-- Node6&#45;&gt;Node7 -->
<g id="edge6" class="edge">
<title>Node6&#45;&gt;Node7</title>
<path fill="none" stroke="midnightblue" d="M306.66,-403.65C297.8,-401.36 288.61,-398.97 280,-396.71 260.73,-391.65 239.25,-385.95 221.69,-381.26"/>
<polygon fill="midnightblue" stroke="midnightblue" points="305.91,-407.07 316.47,-406.19 307.67,-400.3 305.91,-407.07"/>
</g>
<!-- Node8 -->
<g id="node8" class="node">
<title>Node8</title>
<g id="a_node8"><a xlink:href="primary_8f90.html#a2a67903cf5be605c5b6d3c362c6a3c5c" target="_top" xlink:title="The primary driver for the xtb program package.">
<polygon fill="white" stroke="black" points="0,-198.21 0,-217.21 90,-217.21 90,-198.21 0,-198.21"/>
<text text-anchor="middle" x="45" y="-205.21" font-family="Helvetica,sans-Serif" font-size="10.00">xtb_prog_primary</text>
</a>
</g>
</g>
<!-- Node7&#45;&gt;Node8 -->
<g id="edge7" class="edge">
<title>Node7&#45;&gt;Node8</title>
<path fill="none" stroke="midnightblue" d="M169.18,-354.09C140.09,-319.52 76.42,-243.86 54,-217.22"/>
<polygon fill="midnightblue" stroke="midnightblue" points="166.66,-356.54 175.78,-361.94 172.02,-352.03 166.66,-356.54"/>
</g>
<!-- Node9&#45;&gt;Node7 -->
<g id="edge9" class="edge">
<title>Node9&#45;&gt;Node7</title>
<path fill="none" stroke="midnightblue" d="M296.54,-371.71C279.61,-371.71 261.05,-371.71 244.06,-371.71"/>
<polygon fill="midnightblue" stroke="midnightblue" points="296.84,-375.21 306.84,-371.71 296.84,-368.21 296.84,-375.21"/>
</g>
<!-- Node11 -->
<g id="node11" class="node">
<title>Node11</title>
<g id="a_node11"><a xlink:href="tests__peeq_8f90.html#a87ff5319e0d2e627a4f71d7df0d14891" target="_top" xlink:title=" ">
<polygon fill="white" stroke="black" points="151,-165.21 151,-184.21 219,-184.21 219,-165.21 151,-165.21"/>
<text text-anchor="middle" x="185" y="-172.21" font-family="Helvetica,sans-Serif" font-size="10.00">peeq_tester</text>
</a>
</g>
</g>
<!-- Node10&#45;&gt;Node11 -->
<g id="edge11" class="edge">
<title>Node10&#45;&gt;Node11</title>
<path fill="none" stroke="midnightblue" d="M302.9,-319.69C294.81,-317.02 286.85,-313.46 280,-308.71 231.89,-275.36 200.34,-208.91 189.85,-184.23"/>
<polygon fill="midnightblue" stroke="midnightblue" points="302.2,-323.13 312.78,-322.53 304.14,-316.4 302.2,-323.13"/>
</g>
<!-- Node12&#45;&gt;Node11 -->
<g id="edge13" class="edge">
<title>Node12&#45;&gt;Node11</title>
<path fill="none" stroke="midnightblue" d="M308.05,-282.06C298.4,-279.33 288.55,-275.65 280,-270.71 240.43,-247.81 206.35,-203.7 192.55,-184.28"/>
<polygon fill="midnightblue" stroke="midnightblue" points="307.41,-285.51 317.97,-284.58 309.13,-278.73 307.41,-285.51"/>
</g>
<!-- Node13&#45;&gt;Node11 -->
<g id="edge15" class="edge">
<title>Node13&#45;&gt;Node11</title>
<path fill="none" stroke="midnightblue" d="M294.56,-227.32C289.6,-225.51 284.69,-223.63 280,-221.71 252.49,-210.41 221.9,-194.44 203.31,-184.34"/>
<polygon fill="midnightblue" stroke="midnightblue" points="293.51,-230.66 304.11,-230.69 295.85,-224.06 293.51,-230.66"/>
</g>
<!-- Node14&#45;&gt;Node11 -->
<g id="edge17" class="edge">
<title>Node14&#45;&gt;Node11</title>
<path fill="none" stroke="midnightblue" d="M293.56,-188.83C268.53,-185.55 240.4,-181.85 219.2,-179.07"/>
<polygon fill="midnightblue" stroke="midnightblue" points="293.33,-192.33 303.7,-190.17 294.24,-185.39 293.33,-192.33"/>
</g>
<!-- Node15&#45;&gt;Node11 -->
<g id="edge19" class="edge">
<title>Node15&#45;&gt;Node11</title>
<path fill="none" stroke="midnightblue" d="M305.24,-159.05C277.61,-162.67 243.65,-167.14 219.05,-170.37"/>
<polygon fill="midnightblue" stroke="midnightblue" points="306.03,-162.47 315.49,-157.7 305.12,-155.53 306.03,-162.47"/>
</g>
<!-- Node16&#45;&gt;Node11 -->
<g id="edge21" class="edge">
<title>Node16&#45;&gt;Node11</title>
<path fill="none" stroke="midnightblue" d="M302.19,-126.86C294.69,-128.96 287.1,-131.26 280,-133.71 253.57,-142.82 224.21,-156.18 205.44,-165.14"/>
<polygon fill="midnightblue" stroke="midnightblue" points="303.21,-130.21 311.95,-124.22 301.39,-123.45 303.21,-130.21"/>
</g>
<!-- Node17&#45;&gt;Node11 -->
<g id="edge23" class="edge">
<title>Node17&#45;&gt;Node11</title>
<path fill="none" stroke="midnightblue" d="M306.66,-85.47C297.54,-88.1 288.26,-91.45 280,-95.71 244.19,-114.17 210.02,-148.43 194.59,-165.1"/>
<polygon fill="midnightblue" stroke="midnightblue" points="307.65,-88.83 316.44,-82.9 305.87,-82.06 307.65,-88.83"/>
</g>
<!-- Node18&#45;&gt;Node11 -->
<g id="edge25" class="edge">
<title>Node18&#45;&gt;Node11</title>
<path fill="none" stroke="midnightblue" d="M308.26,-45.56C298.44,-48.34 288.47,-52.24 280,-57.71 278.56,-58.63 216.23,-136.77 193.88,-164.82"/>
<polygon fill="midnightblue" stroke="midnightblue" points="309.11,-48.96 317.97,-43.14 307.42,-42.17 309.11,-48.96"/>
</g>
<!-- Node19&#45;&gt;Node8 -->
<g id="edge27" class="edge">
<title>Node19&#45;&gt;Node8</title>
<path fill="none" stroke="midnightblue" d="M160.54,-98.97C130.04,-127.93 78.08,-177.25 56.2,-198.03"/>
<polygon fill="midnightblue" stroke="midnightblue" points="163.33,-101.16 168.17,-91.73 158.51,-96.08 163.33,-101.16"/>
</g>
</g>
</svg>
