<?xml version="1.0" encoding="UTF-8" standalone="no"?>
<!DOCTYPE svg PUBLIC "-//W3C//DTD SVG 1.1//EN"
 "http://www.w3.org/Graphics/SVG/1.1/DTD/svg11.dtd">
<!-- Generated by graphviz version 2.46.0 (20210122.1329)
 -->
<!-- Title: xtb_disp_coordinationnumber::dexpcount Pages: 1 -->
<svg width="509pt" height="117pt"
 viewBox="0.00 0.00 509.00 117.00" xmlns="http://www.w3.org/2000/svg" xmlns:xlink="http://www.w3.org/1999/xlink">
<g id="graph0" class="graph" transform="scale(1 1) rotate(0) translate(4 113)">
<title>xtb_disp_coordinationnumber::dexpcount</title>
<polygon fill="white" stroke="transparent" points="-4,4 -4,-113 505,-113 505,4 -4,4"/>
<!-- Node1 -->
<g id="node1" class="node">
<title>Node1</title>
<g id="a_node1"><a xlink:title="Derivative of the counting function w.r.t. the distance.">
<polygon fill="#bfbfbf" stroke="black" points="358,-36 358,-66 501,-66 501,-36 358,-36"/>
<text text-anchor="start" x="366" y="-54" font-family="Helvetica,sans-Serif" font-size="10.00">xtb_disp_coordinationnumber</text>
<text text-anchor="middle" x="429.5" y="-43" font-family="Helvetica,sans-Serif" font-size="10.00">::dexpcount</text>
</a>
</g>
</g>
<!-- Node2 -->
<g id="node2" class="node">
<title>Node2</title>
<g id="a_node2"><a xlink:href="namespacextb__disp__coordinationnumber.html#a5224b5587a25893c702f49b43fc47dba" target="_top" xlink:title="Derivative of the counting function w.r.t. the distance.">
<polygon fill="white" stroke="black" points="179,-36 179,-66 322,-66 322,-36 179,-36"/>
<text text-anchor="start" x="187" y="-54" font-family="Helvetica,sans-Serif" font-size="10.00">xtb_disp_coordinationnumber</text>
<text text-anchor="middle" x="250.5" y="-43" font-family="Helvetica,sans-Serif" font-size="10.00">::dgfncount</text>
</a>
</g>
</g>
<!-- Node1&#45;&gt;Node2 -->
<g id="edge1" class="edge">
<title>Node1&#45;&gt;Node2</title>
<path fill="none" stroke="midnightblue" d="M347.51,-51C339.03,-51 330.46,-51 322.11,-51"/>
<polygon fill="midnightblue" stroke="midnightblue" points="347.78,-54.5 357.78,-51 347.78,-47.5 347.78,-54.5"/>
</g>
<!-- Node3 -->
<g id="node3" class="node">
<title>Node3</title>
<g id="a_node3"><a xlink:href="interfacextb__disp__coordinationnumber_1_1getcoordinationnumber.html#a2f2b31a469b2b6f68bbe0006d5dbe6cd" target="_top" xlink:title="Geometric fractional coordination number, supports both error function.">
<polygon fill="white" stroke="black" points="0,-67.5 0,-108.5 143,-108.5 143,-67.5 0,-67.5"/>
<text text-anchor="start" x="8" y="-96.5" font-family="Helvetica,sans-Serif" font-size="10.00">xtb_disp_coordinationnumber</text>
<text text-anchor="start" x="8" y="-85.5" font-family="Helvetica,sans-Serif" font-size="10.00">::getcoordinationnumber</text>
<text text-anchor="middle" x="71.5" y="-74.5" font-family="Helvetica,sans-Serif" font-size="10.00">::getcoordinationnumberlp</text>
</a>
</g>
</g>
<!-- Node1&#45;&gt;Node3 -->
<g id="edge4" class="edge">
<title>Node1&#45;&gt;Node3</title>
<path fill="none" stroke="midnightblue" d="M360.23,-68.18C347.58,-70.85 334.44,-73.29 322,-75 262.06,-83.25 193.36,-86.37 143.24,-87.5"/>
<polygon fill="midnightblue" stroke="midnightblue" points="361.21,-71.55 370.23,-66 359.72,-64.71 361.21,-71.55"/>
</g>
<!-- Node4 -->
<g id="node4" class="node">
<title>Node4</title>
<g id="a_node4"><a xlink:href="interfacextb__disp__coordinationnumber_1_1getcoordinationnumber.html#ae4bc7047d85e1e85a2a084c543029c11" target="_top" xlink:title="Geometric fractional coordination number, supports both error function.">
<polygon fill="white" stroke="black" points="0,-0.5 0,-41.5 143,-41.5 143,-0.5 0,-0.5"/>
<text text-anchor="start" x="8" y="-29.5" font-family="Helvetica,sans-Serif" font-size="10.00">xtb_disp_coordinationnumber</text>
<text text-anchor="start" x="8" y="-18.5" font-family="Helvetica,sans-Serif" font-size="10.00">::getcoordinationnumber</text>
<text text-anchor="middle" x="71.5" y="-7.5" font-family="Helvetica,sans-Serif" font-size="10.00">::getcoordinationnumbernl</text>
</a>
</g>
</g>
<!-- Node1&#45;&gt;Node4 -->
<g id="edge5" class="edge">
<title>Node1&#45;&gt;Node4</title>
<path fill="none" stroke="midnightblue" d="M364.48,-33.68C350.58,-30.56 335.87,-27.75 322,-26 262.04,-18.45 193.34,-17.64 143.23,-18.47"/>
<polygon fill="midnightblue" stroke="midnightblue" points="363.92,-37.14 374.45,-35.99 365.5,-30.32 363.92,-37.14"/>
</g>
<!-- Node2&#45;&gt;Node3 -->
<g id="edge2" class="edge">
<title>Node2&#45;&gt;Node3</title>
<path fill="none" stroke="midnightblue" d="M168.79,-67.87C160.22,-69.66 151.55,-71.48 143.11,-73.24"/>
<polygon fill="midnightblue" stroke="midnightblue" points="169.71,-71.26 178.78,-65.78 168.28,-64.4 169.71,-71.26"/>
</g>
<!-- Node2&#45;&gt;Node4 -->
<g id="edge3" class="edge">
<title>Node2&#45;&gt;Node4</title>
<path fill="none" stroke="midnightblue" d="M168.79,-37.32C160.22,-35.87 151.55,-34.4 143.11,-32.97"/>
<polygon fill="midnightblue" stroke="midnightblue" points="168.34,-40.79 178.78,-39.01 169.51,-33.89 168.34,-40.79"/>
</g>
</g>
</svg>
