<?xml version="1.0" encoding="UTF-8" standalone="no"?>
<!DOCTYPE svg PUBLIC "-//W3C//DTD SVG 1.1//EN"
 "http://www.w3.org/Graphics/SVG/1.1/DTD/svg11.dtd">
<!-- Generated by graphviz version 2.46.1 (20210215.1649)
 -->
<!-- Title: forpy_mod::get_data_complex_real64_3d Pages: 1 -->
<svg width="247pt" height="39pt"
 viewBox="0.00 0.00 247.00 39.00" xmlns="http://www.w3.org/2000/svg" xmlns:xlink="http://www.w3.org/1999/xlink">
<g id="graph0" class="graph" transform="scale(1 1) rotate(0) translate(4 35)">
<title>forpy_mod::get_data_complex_real64_3d</title>
<polygon fill="white" stroke="transparent" points="-4,4 -4,-35 243,-35 243,4 -4,4"/>
<!-- Node1 -->
<g id="node1" class="node">
<title>Node1</title>
<g id="a_node1"><a xlink:title="Get pointer to data of numpy array.">
<polygon fill="#bfbfbf" stroke="black" points="134,-0.5 134,-30.5 239,-30.5 239,-0.5 134,-0.5"/>
<text text-anchor="start" x="142" y="-18.5" font-family="Helvetica,sans-Serif" font-size="10.00">forpy_mod::get_data</text>
<text text-anchor="middle" x="186.5" y="-7.5" font-family="Helvetica,sans-Serif" font-size="10.00">_complex_real64_3d</text>
</a>
</g>
</g>
<!-- Node2 -->
<g id="node2" class="node">
<title>Node2</title>
<g id="a_node2"><a xlink:href="structforpy__mod_1_1ndarray.html#a58b78de1d927471b1976e2d07092e934" target="_top" xlink:title="Retrieve a Fortran pointer to the array data.">
<polygon fill="white" stroke="black" points="0,-0.5 0,-30.5 98,-30.5 98,-0.5 0,-0.5"/>
<text text-anchor="start" x="8" y="-18.5" font-family="Helvetica,sans-Serif" font-size="10.00">forpy_mod::ndarray</text>
<text text-anchor="middle" x="49" y="-7.5" font-family="Helvetica,sans-Serif" font-size="10.00">::get_data</text>
</a>
</g>
</g>
<!-- Node1&#45;&gt;Node2 -->
<g id="edge1" class="edge">
<title>Node1&#45;&gt;Node2</title>
<path fill="none" stroke="midnightblue" d="M123.64,-15.5C115.15,-15.5 106.54,-15.5 98.35,-15.5"/>
<polygon fill="midnightblue" stroke="midnightblue" points="123.89,-19 133.89,-15.5 123.89,-12 123.89,-19"/>
</g>
</g>
</svg>
