<?xml version="1.0" encoding="UTF-8" standalone="no"?>
<!DOCTYPE svg PUBLIC "-//W3C//DTD SVG 1.1//EN"
 "http://www.w3.org/Graphics/SVG/1.1/DTD/svg11.dtd">
<!-- Generated by graphviz version 2.46.1 (20210215.1649)
 -->
<!-- Title: xtb_intmodes::intmodestep Pages: 1 -->
<svg width="353pt" height="28pt"
 viewBox="0.00 0.00 353.00 28.00" xmlns="http://www.w3.org/2000/svg" xmlns:xlink="http://www.w3.org/1999/xlink">
<g id="graph0" class="graph" transform="scale(1 1) rotate(0) translate(4 24)">
<title>xtb_intmodes::intmodestep</title>
<polygon fill="white" stroke="transparent" points="-4,4 -4,-24 349,-24 349,4 -4,4"/>
<!-- Node1 -->
<g id="node1" class="node">
<title>Node1</title>
<g id="a_node1"><a xlink:title=" ">
<polygon fill="#bfbfbf" stroke="black" points="0,-0.5 0,-19.5 132,-19.5 132,-0.5 0,-0.5"/>
<text text-anchor="middle" x="66" y="-7.5" font-family="Helvetica,sans-Serif" font-size="10.00">xtb_intmodes::intmodestep</text>
</a>
</g>
</g>
<!-- Node2 -->
<g id="node2" class="node">
<title>Node2</title>
<g id="a_node2"><a xlink:href="namespacextb__intmodes.html#a2c27733fcaa41d729fdc96d06a305da5" target="_top" xlink:title=" ">
<polygon fill="white" stroke="black" points="168,-0.5 168,-19.5 276,-19.5 276,-0.5 168,-0.5"/>
<text text-anchor="middle" x="222" y="-7.5" font-family="Helvetica,sans-Serif" font-size="10.00">xtb_intmodes::gmetry</text>
</a>
</g>
</g>
<!-- Node1&#45;&gt;Node2 -->
<g id="edge1" class="edge">
<title>Node1&#45;&gt;Node2</title>
<path fill="none" stroke="midnightblue" d="M132.31,-10C140.7,-10 149.28,-10 157.65,-10"/>
<polygon fill="midnightblue" stroke="midnightblue" points="157.71,-13.5 167.71,-10 157.71,-6.5 157.71,-13.5"/>
</g>
<!-- Node3 -->
<g id="node3" class="node">
<title>Node3</title>
<g id="a_node3"><a xlink:href="symmetry__i_8c.html#aa77c823a9fc018ae1d437369708d8727" target="_top" xlink:title=" ">
<polygon fill="white" stroke="black" points="312,-0.5 312,-19.5 345,-19.5 345,-0.5 312,-0.5"/>
<text text-anchor="middle" x="328.5" y="-7.5" font-family="Helvetica,sans-Serif" font-size="10.00">true</text>
</a>
</g>
</g>
<!-- Node2&#45;&gt;Node3 -->
<g id="edge2" class="edge">
<title>Node2&#45;&gt;Node3</title>
<path fill="none" stroke="midnightblue" d="M276.17,-10C285.08,-10 293.95,-10 301.76,-10"/>
<polygon fill="midnightblue" stroke="midnightblue" points="301.96,-13.5 311.96,-10 301.96,-6.5 301.96,-13.5"/>
</g>
</g>
</svg>
