<?xml version="1.0" encoding="UTF-8" standalone="no"?>
<!DOCTYPE svg PUBLIC "-//W3C//DTD SVG 1.1//EN"
 "http://www.w3.org/Graphics/SVG/1.1/DTD/svg11.dtd">
<!-- Generated by graphviz version 2.43.0 (0)
 -->
<!-- Title: xtb_intmodes::xyzgeo Pages: 1 -->
<svg width="440pt" height="66pt"
 viewBox="0.00 0.00 440.00 66.00" xmlns="http://www.w3.org/2000/svg" xmlns:xlink="http://www.w3.org/1999/xlink">
<g id="graph0" class="graph" transform="scale(1 1) rotate(0) translate(4 62)">
<title>xtb_intmodes::xyzgeo</title>
<polygon fill="white" stroke="transparent" points="-4,4 -4,-62 436,-62 436,4 -4,4"/>
<!-- Node1 -->
<g id="node1" class="node">
<title>Node1</title>
<g id="a_node1"><a xlink:title=" ">
<polygon fill="#bfbfbf" stroke="black" points="0,-19.5 0,-38.5 125,-38.5 125,-19.5 0,-19.5"/>
<text text-anchor="middle" x="62.5" y="-26.5" font-family="Helvetica,sans-Serif" font-size="10.00">xtb_intmodes::xyzgeo</text>
</a>
</g>
</g>
<!-- Node2 -->
<g id="node2" class="node">
<title>Node2</title>
<g id="a_node2"><a xlink:href="namespacextb__intmodes.html#a2319a6467dc790a7f6157f25a331ae95" target="_top" xlink:title=" ">
<polygon fill="white" stroke="black" points="161,-38.5 161,-57.5 283,-57.5 283,-38.5 161,-38.5"/>
<text text-anchor="middle" x="222" y="-45.5" font-family="Helvetica,sans-Serif" font-size="10.00">xtb_intmodes::bangle</text>
</a>
</g>
</g>
<!-- Node1&#45;&gt;Node2 -->
<g id="edge1" class="edge">
<title>Node1&#45;&gt;Node2</title>
<path fill="none" stroke="midnightblue" d="M125.3,-36.45C133.72,-37.47 142.42,-38.52 150.97,-39.55"/>
<polygon fill="midnightblue" stroke="midnightblue" points="150.58,-43.03 160.93,-40.75 151.42,-36.08 150.58,-43.03"/>
</g>
<!-- Node3 -->
<g id="node3" class="node">
<title>Node3</title>
<g id="a_node3"><a xlink:href="namespacextb__intmodes.html#a8f66f8bd3e86779b19c8ab4c55f9b805" target="_top" xlink:title=" ">
<polygon fill="white" stroke="black" points="164,-0.5 164,-19.5 280,-19.5 280,-0.5 164,-0.5"/>
<text text-anchor="middle" x="222" y="-7.5" font-family="Helvetica,sans-Serif" font-size="10.00">xtb_intmodes::dihed</text>
</a>
</g>
</g>
<!-- Node1&#45;&gt;Node3 -->
<g id="edge2" class="edge">
<title>Node1&#45;&gt;Node3</title>
<path fill="none" stroke="midnightblue" d="M125.3,-21.55C134.6,-20.42 144.23,-19.26 153.65,-18.13"/>
<polygon fill="midnightblue" stroke="midnightblue" points="154.24,-21.58 163.75,-16.91 153.4,-14.63 154.24,-21.58"/>
</g>
<!-- Node4 -->
<g id="node4" class="node">
<title>Node4</title>
<g id="a_node4"><a xlink:href="namespacextb__intmodes.html#ad7e4a46c34d25501731d350f2ed11e6d" target="_top" xlink:title=" ">
<polygon fill="white" stroke="black" points="319,-0.5 319,-19.5 432,-19.5 432,-0.5 319,-0.5"/>
<text text-anchor="middle" x="375.5" y="-7.5" font-family="Helvetica,sans-Serif" font-size="10.00">xtb_intmodes::dang</text>
</a>
</g>
</g>
<!-- Node3&#45;&gt;Node4 -->
<g id="edge3" class="edge">
<title>Node3&#45;&gt;Node4</title>
<path fill="none" stroke="midnightblue" d="M280.28,-10C289.57,-10 299.25,-10 308.73,-10"/>
<polygon fill="midnightblue" stroke="midnightblue" points="308.9,-13.5 318.9,-10 308.9,-6.5 308.9,-13.5"/>
</g>
</g>
</svg>
