<?xml version="1.0" encoding="UTF-8" standalone="no"?>
<!DOCTYPE svg PUBLIC "-//W3C//DTD SVG 1.1//EN"
 "http://www.w3.org/Graphics/SVG/1.1/DTD/svg11.dtd">
<!-- Generated by graphviz version 2.46.1 (20210215.1649)
 -->
<!-- Title: xtb_disp_ncoord::exp_count Pages: 1 -->
<svg width="258pt" height="186pt"
 viewBox="0.00 0.00 258.00 186.00" xmlns="http://www.w3.org/2000/svg" xmlns:xlink="http://www.w3.org/1999/xlink">
<g id="graph0" class="graph" transform="scale(1 1) rotate(0) translate(4 182)">
<title>xtb_disp_ncoord::exp_count</title>
<polygon fill="white" stroke="transparent" points="-4,4 -4,-182 254,-182 254,4 -4,4"/>
<!-- Node1 -->
<g id="node1" class="node">
<title>Node1</title>
<g id="a_node1"><a xlink:title=" ">
<polygon fill="#bfbfbf" stroke="black" points="143,-73.5 143,-103.5 250,-103.5 250,-73.5 143,-73.5"/>
<text text-anchor="start" x="151" y="-91.5" font-family="Helvetica,sans-Serif" font-size="10.00">xtb_disp_ncoord::exp</text>
<text text-anchor="middle" x="196.5" y="-80.5" font-family="Helvetica,sans-Serif" font-size="10.00">_count</text>
</a>
</g>
</g>
<!-- Node2 -->
<g id="node2" class="node">
<title>Node2</title>
<g id="a_node2"><a xlink:href="interfacextb__disp__ncoord_1_1get__d3__cn.html#a2984475cfc62d73bc13e36dfbd47bfe4" target="_top" xlink:title=" ">
<polygon fill="white" stroke="black" points="1,-147.5 1,-177.5 106,-177.5 106,-147.5 1,-147.5"/>
<text text-anchor="start" x="9" y="-165.5" font-family="Helvetica,sans-Serif" font-size="10.00">xtb_disp_ncoord::get</text>
<text text-anchor="middle" x="53.5" y="-154.5" font-family="Helvetica,sans-Serif" font-size="10.00">_d3_cn::dncoord_d3</text>
</a>
</g>
</g>
<!-- Node1&#45;&gt;Node2 -->
<g id="edge1" class="edge">
<title>Node1&#45;&gt;Node2</title>
<path fill="none" stroke="midnightblue" d="M161.59,-108.56C145.27,-117.98 125.31,-129.17 107,-138.5 101.11,-141.5 94.76,-144.56 88.59,-147.43"/>
<polygon fill="midnightblue" stroke="midnightblue" points="163.36,-111.57 170.25,-103.53 159.85,-105.52 163.36,-111.57"/>
</g>
<!-- Node3 -->
<g id="node3" class="node">
<title>Node3</title>
<g id="a_node3"><a xlink:href="interfacextb__disp__ncoord_1_1get__d3__cn.html#a0798ec906aff1d191344db72d32ac8a7" target="_top" xlink:title="original D3 type coordination number from 2010">
<polygon fill="white" stroke="black" points="1,-98.5 1,-128.5 106,-128.5 106,-98.5 1,-98.5"/>
<text text-anchor="start" x="9" y="-116.5" font-family="Helvetica,sans-Serif" font-size="10.00">xtb_disp_ncoord::get</text>
<text text-anchor="middle" x="53.5" y="-105.5" font-family="Helvetica,sans-Serif" font-size="10.00">_d3_cn::ncoord_d3</text>
</a>
</g>
</g>
<!-- Node1&#45;&gt;Node3 -->
<g id="edge2" class="edge">
<title>Node1&#45;&gt;Node3</title>
<path fill="none" stroke="midnightblue" d="M132.97,-99.59C123.99,-101.18 114.84,-102.8 106.11,-104.35"/>
<polygon fill="midnightblue" stroke="midnightblue" points="133.76,-103 143,-97.81 132.54,-96.11 133.76,-103"/>
</g>
<!-- Node4 -->
<g id="node4" class="node">
<title>Node4</title>
<g id="a_node4"><a xlink:href="interfacextb__disp__ncoord_1_1get__gfn__cn.html#ad1e874b4b3d3fd5ab832702d7578a55f" target="_top" xlink:title=" ">
<polygon fill="white" stroke="black" points="1,-49.5 1,-79.5 106,-79.5 106,-49.5 1,-49.5"/>
<text text-anchor="start" x="9" y="-67.5" font-family="Helvetica,sans-Serif" font-size="10.00">xtb_disp_ncoord::get</text>
<text text-anchor="middle" x="53.5" y="-56.5" font-family="Helvetica,sans-Serif" font-size="10.00">_gfn_cn::ncoord_gfn</text>
</a>
</g>
</g>
<!-- Node1&#45;&gt;Node4 -->
<g id="edge3" class="edge">
<title>Node1&#45;&gt;Node4</title>
<path fill="none" stroke="midnightblue" d="M132.97,-77.86C123.99,-76.33 114.84,-74.77 106.11,-73.28"/>
<polygon fill="midnightblue" stroke="midnightblue" points="132.55,-81.34 143,-79.56 133.73,-74.43 132.55,-81.34"/>
</g>
<!-- Node5 -->
<g id="node5" class="node">
<title>Node5</title>
<g id="a_node5"><a xlink:href="namespacextb__disp__ncoord.html#ae6b5d5317c7f07bad93ab86b68b01f67" target="_top" xlink:title=" ">
<polygon fill="white" stroke="black" points="0,-0.5 0,-30.5 107,-30.5 107,-0.5 0,-0.5"/>
<text text-anchor="start" x="8" y="-18.5" font-family="Helvetica,sans-Serif" font-size="10.00">xtb_disp_ncoord::pbc</text>
<text text-anchor="middle" x="53.5" y="-7.5" font-family="Helvetica,sans-Serif" font-size="10.00">_dncoord_d3</text>
</a>
</g>
</g>
<!-- Node1&#45;&gt;Node5 -->
<g id="edge4" class="edge">
<title>Node1&#45;&gt;Node5</title>
<path fill="none" stroke="midnightblue" d="M159.56,-68.45C143.57,-59.68 124.45,-49.38 107,-40.5 100.52,-37.2 93.53,-33.78 86.84,-30.57"/>
<polygon fill="midnightblue" stroke="midnightblue" points="158.13,-71.66 168.58,-73.42 161.51,-65.53 158.13,-71.66"/>
</g>
</g>
</svg>
