<?xml version="1.0" encoding="UTF-8" standalone="no"?>
<!DOCTYPE svg PUBLIC "-//W3C//DTD SVG 1.1//EN"
 "http://www.w3.org/Graphics/SVG/1.1/DTD/svg11.dtd">
<!-- Generated by graphviz version 2.46.1 (20210215.1649)
 -->
<!-- Title: xtb_coulomb_ewald::ewaldderivpbc3d Pages: 1 -->
<svg width="565pt" height="186pt"
 viewBox="0.00 0.00 565.00 186.00" xmlns="http://www.w3.org/2000/svg" xmlns:xlink="http://www.w3.org/1999/xlink">
<g id="graph0" class="graph" transform="scale(1 1) rotate(0) translate(4 182)">
<title>xtb_coulomb_ewald::ewaldderivpbc3d</title>
<polygon fill="white" stroke="transparent" points="-4,4 -4,-182 561,-182 561,4 -4,4"/>
<!-- Node1 -->
<g id="node1" class="node">
<title>Node1</title>
<g id="a_node1"><a xlink:title=" ">
<polygon fill="#bfbfbf" stroke="black" points="450,-63 450,-93 557,-93 557,-63 450,-63"/>
<text text-anchor="start" x="458" y="-81" font-family="Helvetica,sans-Serif" font-size="10.00">xtb_coulomb_ewald::</text>
<text text-anchor="middle" x="503.5" y="-70" font-family="Helvetica,sans-Serif" font-size="10.00">ewaldderivpbc3d</text>
</a>
</g>
</g>
<!-- Node2 -->
<g id="node2" class="node">
<title>Node2</title>
<g id="a_node2"><a xlink:href="interfacextb__eeq_1_1get__coulomb__derivs.html#a68261d305d18ef0069fdf37b8fc2b079" target="_top" xlink:title=" ">
<polygon fill="white" stroke="black" points="258,-136.5 258,-177.5 368,-177.5 368,-136.5 258,-136.5"/>
<text text-anchor="start" x="266" y="-165.5" font-family="Helvetica,sans-Serif" font-size="10.00">xtb_eeq::get_coulomb</text>
<text text-anchor="start" x="266" y="-154.5" font-family="Helvetica,sans-Serif" font-size="10.00">_derivs::get_coulomb</text>
<text text-anchor="middle" x="313" y="-143.5" font-family="Helvetica,sans-Serif" font-size="10.00">_derivs_3d</text>
</a>
</g>
</g>
<!-- Node1&#45;&gt;Node2 -->
<g id="edge1" class="edge">
<title>Node1&#45;&gt;Node2</title>
<path fill="none" stroke="midnightblue" d="M470.56,-98.43C454.12,-108.32 433.49,-119.8 414,-128 399.5,-134.1 383.31,-139.4 368.25,-143.75"/>
<polygon fill="midnightblue" stroke="midnightblue" points="472.52,-101.34 479.22,-93.13 468.86,-95.37 472.52,-101.34"/>
</g>
<!-- Node3 -->
<g id="node3" class="node">
<title>Node3</title>
<g id="a_node3"><a xlink:href="namespacextb__coulomb__klopmanohno.html#ad73bc65a822346169cc900a7ebd37ce2" target="_top" xlink:title=" ">
<polygon fill="white" stroke="black" points="246,-88 246,-118 380,-118 380,-88 246,-88"/>
<text text-anchor="start" x="254" y="-106" font-family="Helvetica,sans-Serif" font-size="10.00">xtb_coulomb_klopmanohno</text>
<text text-anchor="middle" x="313" y="-95" font-family="Helvetica,sans-Serif" font-size="10.00">::getcoulombderivspbc3d</text>
</a>
</g>
</g>
<!-- Node1&#45;&gt;Node3 -->
<g id="edge2" class="edge">
<title>Node1&#45;&gt;Node3</title>
<path fill="none" stroke="midnightblue" d="M439.85,-86.31C420.64,-88.86 399.45,-91.67 380.03,-94.24"/>
<polygon fill="midnightblue" stroke="midnightblue" points="440.54,-89.75 449.99,-84.96 439.62,-82.81 440.54,-89.75"/>
</g>
<!-- Node5 -->
<g id="node5" class="node">
<title>Node5</title>
<g id="a_node5"><a xlink:href="namespacextb__coulomb__gaussian.html#ae20125ff9683209e0da1a6ba6b0cf487" target="_top" xlink:title=" ">
<polygon fill="white" stroke="black" points="251,-39 251,-69 375,-69 375,-39 251,-39"/>
<text text-anchor="start" x="259" y="-57" font-family="Helvetica,sans-Serif" font-size="10.00">xtb_coulomb_gaussian</text>
<text text-anchor="middle" x="313" y="-46" font-family="Helvetica,sans-Serif" font-size="10.00">::getcoulombderivspbc3d</text>
</a>
</g>
</g>
<!-- Node1&#45;&gt;Node5 -->
<g id="edge4" class="edge">
<title>Node1&#45;&gt;Node5</title>
<path fill="none" stroke="midnightblue" d="M439.97,-70.04C419.14,-67.39 395.96,-64.44 375.23,-61.8"/>
<polygon fill="midnightblue" stroke="midnightblue" points="439.63,-73.52 449.99,-71.31 440.51,-66.58 439.63,-73.52"/>
</g>
<!-- Node7 -->
<g id="node7" class="node">
<title>Node7</title>
<g id="a_node7"><a xlink:href="namespacextb__type__coulomb.html#a7ccc0f2992afedcadb5dbaaa0252f2a5" target="_top" xlink:title=" ">
<polygon fill="white" stroke="black" points="212,-0.5 212,-19.5 414,-19.5 414,-0.5 212,-0.5"/>
<text text-anchor="middle" x="313" y="-7.5" font-family="Helvetica,sans-Serif" font-size="10.00">xtb_type_coulomb::getcoulombderivspbc3d</text>
</a>
</g>
</g>
<!-- Node1&#45;&gt;Node7 -->
<g id="edge6" class="edge">
<title>Node1&#45;&gt;Node7</title>
<path fill="none" stroke="midnightblue" d="M471.16,-57.43C454.73,-47.5 433.93,-36.2 414,-29 403.36,-25.16 391.79,-22.05 380.43,-19.55"/>
<polygon fill="midnightblue" stroke="midnightblue" points="469.45,-60.49 479.8,-62.78 473.13,-54.54 469.45,-60.49"/>
</g>
<!-- Node4 -->
<g id="node4" class="node">
<title>Node4</title>
<g id="a_node4"><a xlink:href="namespacextb__coulomb__klopmanohno.html#ab1ae45764e512c36f8626c8eb2898449" target="_top" xlink:title=" ">
<polygon fill="white" stroke="black" points="21,-88 21,-118 155,-118 155,-88 21,-88"/>
<text text-anchor="start" x="29" y="-106" font-family="Helvetica,sans-Serif" font-size="10.00">xtb_coulomb_klopmanohno</text>
<text text-anchor="middle" x="88" y="-95" font-family="Helvetica,sans-Serif" font-size="10.00">::getcoulombderivs</text>
</a>
</g>
</g>
<!-- Node3&#45;&gt;Node4 -->
<g id="edge3" class="edge">
<title>Node3&#45;&gt;Node4</title>
<path fill="none" stroke="midnightblue" d="M235.75,-103C209.58,-103 180.52,-103 155.22,-103"/>
<polygon fill="midnightblue" stroke="midnightblue" points="236,-106.5 246,-103 236,-99.5 236,-106.5"/>
</g>
<!-- Node6 -->
<g id="node6" class="node">
<title>Node6</title>
<g id="a_node6"><a xlink:href="namespacextb__coulomb__gaussian.html#a1ed072a8fdf3487609a11b65c4fc6b38" target="_top" xlink:title=" ">
<polygon fill="white" stroke="black" points="30,-39 30,-69 146,-69 146,-39 30,-39"/>
<text text-anchor="start" x="38" y="-57" font-family="Helvetica,sans-Serif" font-size="10.00">xtb_coulomb_gaussian</text>
<text text-anchor="middle" x="88" y="-46" font-family="Helvetica,sans-Serif" font-size="10.00">::getcoulombderivs</text>
</a>
</g>
</g>
<!-- Node5&#45;&gt;Node6 -->
<g id="edge5" class="edge">
<title>Node5&#45;&gt;Node6</title>
<path fill="none" stroke="midnightblue" d="M240.62,-54C210.13,-54 175.02,-54 146.26,-54"/>
<polygon fill="midnightblue" stroke="midnightblue" points="240.77,-57.5 250.77,-54 240.77,-50.5 240.77,-57.5"/>
</g>
<!-- Node8 -->
<g id="node8" class="node">
<title>Node8</title>
<g id="a_node8"><a xlink:href="namespacextb__type__coulomb.html#ad7ff9ff89dbbd7bc4717575b45c4c8a0" target="_top" xlink:title=" ">
<polygon fill="white" stroke="black" points="0,-0.5 0,-19.5 176,-19.5 176,-0.5 0,-0.5"/>
<text text-anchor="middle" x="88" y="-7.5" font-family="Helvetica,sans-Serif" font-size="10.00">xtb_type_coulomb::getcoulombderivs</text>
</a>
</g>
</g>
<!-- Node7&#45;&gt;Node8 -->
<g id="edge7" class="edge">
<title>Node7&#45;&gt;Node8</title>
<path fill="none" stroke="midnightblue" d="M201.82,-10C193.21,-10 184.59,-10 176.16,-10"/>
<polygon fill="midnightblue" stroke="midnightblue" points="201.92,-13.5 211.92,-10 201.92,-6.5 201.92,-13.5"/>
</g>
</g>
</svg>
