<?xml version="1.0" encoding="UTF-8" standalone="no"?>
<!DOCTYPE svg PUBLIC "-//W3C//DTD SVG 1.1//EN"
 "http://www.w3.org/Graphics/SVG/1.1/DTD/svg11.dtd">
<!-- Generated by graphviz version 2.43.0 (0)
 -->
<!-- Title: xtb_modelhessian::trsn2 Pages: 1 -->
<svg width="505pt" height="47pt"
 viewBox="0.00 0.00 505.00 47.00" xmlns="http://www.w3.org/2000/svg" xmlns:xlink="http://www.w3.org/1999/xlink">
<g id="graph0" class="graph" transform="scale(1 1) rotate(0) translate(4 43)">
<title>xtb_modelhessian::trsn2</title>
<polygon fill="white" stroke="transparent" points="-4,4 -4,-43 501,-43 501,4 -4,4"/>
<!-- Node1 -->
<g id="node1" class="node">
<title>Node1</title>
<g id="a_node1"><a xlink:title=" ">
<polygon fill="#bfbfbf" stroke="black" points="0,-0.5 0,-19.5 137,-19.5 137,-0.5 0,-0.5"/>
<text text-anchor="middle" x="68.5" y="-7.5" font-family="Helvetica,sans-Serif" font-size="10.00">xtb_modelhessian::trsn2</text>
</a>
</g>
</g>
<!-- Node2 -->
<g id="node2" class="node">
<title>Node2</title>
<g id="a_node2"><a xlink:href="namespacextb__modelhessian.html#ab4301b91a670e55ec855e23eddcf4e21" target="_top" xlink:title=" ">
<polygon fill="white" stroke="black" points="173,-19.5 173,-38.5 315,-38.5 315,-19.5 173,-19.5"/>
<text text-anchor="middle" x="244" y="-26.5" font-family="Helvetica,sans-Serif" font-size="10.00">xtb_modelhessian::bend2</text>
</a>
</g>
</g>
<!-- Node1&#45;&gt;Node2 -->
<g id="edge1" class="edge">
<title>Node1&#45;&gt;Node2</title>
<path fill="none" stroke="midnightblue" d="M137.08,-17.4C145.49,-18.32 154.15,-19.27 162.73,-20.21"/>
<polygon fill="midnightblue" stroke="midnightblue" points="162.42,-23.7 172.75,-21.31 163.19,-16.74 162.42,-23.7"/>
</g>
<!-- Node3 -->
<g id="node3" class="node">
<title>Node3</title>
<g id="a_node3"><a xlink:href="namespacextb__modelhessian.html#af7d3c309b0a8fdcbd7ec6fe9bcc92235" target="_top" xlink:title=" ">
<polygon fill="white" stroke="black" points="351,-0.5 351,-19.5 497,-19.5 497,-0.5 351,-0.5"/>
<text text-anchor="middle" x="424" y="-7.5" font-family="Helvetica,sans-Serif" font-size="10.00">xtb_modelhessian::strtch2</text>
</a>
</g>
</g>
<!-- Node1&#45;&gt;Node3 -->
<g id="edge3" class="edge">
<title>Node1&#45;&gt;Node3</title>
<path fill="none" stroke="midnightblue" d="M137.24,-10C195.26,-10 278.98,-10 340.82,-10"/>
<polygon fill="midnightblue" stroke="midnightblue" points="340.93,-13.5 350.93,-10 340.93,-6.5 340.93,-13.5"/>
</g>
<!-- Node2&#45;&gt;Node3 -->
<g id="edge2" class="edge">
<title>Node2&#45;&gt;Node3</title>
<path fill="none" stroke="midnightblue" d="M315.09,-21.52C323.56,-20.61 332.26,-19.69 340.87,-18.77"/>
<polygon fill="midnightblue" stroke="midnightblue" points="341.35,-22.24 350.92,-17.69 340.61,-15.27 341.35,-22.24"/>
</g>
</g>
</svg>
