<?xml version="1.0" encoding="UTF-8" standalone="no"?>
<!DOCTYPE svg PUBLIC "-//W3C//DTD SVG 1.1//EN"
 "http://www.w3.org/Graphics/SVG/1.1/DTD/svg11.dtd">
<!-- Generated by graphviz version 2.43.0 (0)
 -->
<!-- Title: xtb_main_defaults::initdefaults Pages: 1 -->
<svg width="351pt" height="66pt"
 viewBox="0.00 0.00 351.00 66.00" xmlns="http://www.w3.org/2000/svg" xmlns:xlink="http://www.w3.org/1999/xlink">
<g id="graph0" class="graph" transform="scale(1 1) rotate(0) translate(4 62)">
<title>xtb_main_defaults::initdefaults</title>
<polygon fill="white" stroke="transparent" points="-4,4 -4,-62 347,-62 347,4 -4,4"/>
<!-- Node1 -->
<g id="node1" class="node">
<title>Node1</title>
<g id="a_node1"><a xlink:title=" ">
<polygon fill="#bfbfbf" stroke="black" points="0,-14 0,-44 113,-44 113,-14 0,-14"/>
<text text-anchor="start" x="8" y="-32" font-family="Helvetica,sans-Serif" font-size="10.00">xtb_main_defaults::</text>
<text text-anchor="middle" x="56.5" y="-21" font-family="Helvetica,sans-Serif" font-size="10.00">initdefaults</text>
</a>
</g>
</g>
<!-- Node2 -->
<g id="node2" class="node">
<title>Node2</title>
<g id="a_node2"><a xlink:href="namespacextb__main__setup.html#a065de5665dcca9d932dd5b54c6276527" target="_top" xlink:title=" ">
<polygon fill="white" stroke="black" points="149,-38.5 149,-57.5 343,-57.5 343,-38.5 149,-38.5"/>
<text text-anchor="middle" x="246" y="-45.5" font-family="Helvetica,sans-Serif" font-size="10.00">xtb_main_setup::addsolvationmodel</text>
</a>
</g>
</g>
<!-- Node1&#45;&gt;Node2 -->
<g id="edge1" class="edge">
<title>Node1&#45;&gt;Node2</title>
<path fill="none" stroke="midnightblue" d="M113.25,-34.65C122.14,-35.55 131.58,-36.51 141.17,-37.48"/>
<polygon fill="midnightblue" stroke="midnightblue" points="140.89,-40.97 151.19,-38.49 141.59,-34 140.89,-40.97"/>
</g>
<!-- Node3 -->
<g id="node3" class="node">
<title>Node3</title>
<g id="a_node3"><a xlink:href="namespacextb__embedding.html#a5d8bc97244c239792bc3dd91e438f4ce" target="_top" xlink:title=" ">
<polygon fill="white" stroke="black" points="173,-0.5 173,-19.5 319,-19.5 319,-0.5 173,-0.5"/>
<text text-anchor="middle" x="246" y="-7.5" font-family="Helvetica,sans-Serif" font-size="10.00">xtb_embedding::init_pcem</text>
</a>
</g>
</g>
<!-- Node1&#45;&gt;Node3 -->
<g id="edge2" class="edge">
<title>Node1&#45;&gt;Node3</title>
<path fill="none" stroke="midnightblue" d="M113.25,-23.35C128.71,-21.78 145.84,-20.05 162.49,-18.36"/>
<polygon fill="midnightblue" stroke="midnightblue" points="163.17,-21.81 172.77,-17.32 162.47,-14.85 163.17,-21.81"/>
</g>
</g>
</svg>
