<?xml version="1.0" encoding="UTF-8" standalone="no"?>
<!DOCTYPE svg PUBLIC "-//W3C//DTD SVG 1.1//EN"
 "http://www.w3.org/Graphics/SVG/1.1/DTD/svg11.dtd">
<!-- Generated by graphviz version 2.46.1 (20210215.1649)
 -->
<!-- Title: xtb_basic_geo::crossprod Pages: 1 -->
<!--zoomable 332 -->
<svg id="main" version="1.1" xmlns="http://www.w3.org/2000/svg" xmlns:xlink="http://www.w3.org/1999/xlink" xml:space="preserve" onload="init(evt)">
<style type="text/css"><![CDATA[
.edge:hover path { stroke: red; }
.edge:hover polygon { stroke: red; fill: red; }
]]></style>
<script type="text/javascript"><![CDATA[
var edges = document.getElementsByTagName('g');
if (edges && edges.length) {
  for (var i=0;i<edges.length;i++) {
    if (edges[i].id.substr(0,4)=='edge') {
      edges[i].setAttribute('class','edge');
    }
  }
}
]]></script>
        <defs>
                <circle id="rim" cx="0" cy="0" r="7"/>
                <circle id="rim2" cx="0" cy="0" r="3.5"/>
                <g id="zoomPlus">
                        <use xlink:href="#rim" fill="#404040">
                                <set attributeName="fill" to="#808080" begin="zoomplus.mouseover" end="zoomplus.mouseout"/>
                        </use>
                        <path d="M-4,0h8M0,-4v8" fill="none" stroke="white" stroke-width="1.5" pointer-events="none"/>
                </g>
                <g id="zoomMin">
                        <use xlink:href="#rim" fill="#404040">
                                <set attributeName="fill" to="#808080" begin="zoomminus.mouseover" end="zoomminus.mouseout"/>
                        </use>
                        <path d="M-4,0h8" fill="none" stroke="white" stroke-width="1.5" pointer-events="none"/>
                </g>
                <g id="dirArrow">
                        <path fill="none" stroke="white" stroke-width="1.5" d="M0,-3.0v7 M-2.5,-0.5L0,-3.0L2.5,-0.5"/>
                </g>
               <g id="resetDef">
                       <use xlink:href="#rim2" fill="#404040">
                               <set attributeName="fill" to="#808080" begin="reset.mouseover" end="reset.mouseout"/>
                       </use>
               </g>
        </defs>

<script type="text/javascript">
var viewWidth = 1677;
var viewHeight = 332;
var sectionId = 'dynsection-0';
</script>
<script xlink:href="svgpan.js"/>
<svg id="graph" class="graph">
<g id="viewport">
<title>xtb_basic_geo::crossprod</title>
<polygon fill="white" stroke="transparent" points="-4,4 -4,-327.99 1673,-327.99 1673,4 -4,4"/>
<!-- Node1 -->
<g id="node1" class="node">
<title>Node1</title>
<g id="a_node1"><a xlink:title=" ">
<polygon fill="#bfbfbf" stroke="black" points="1543,-166.5 1543,-185.5 1669,-185.5 1669,-166.5 1543,-166.5"/>
<text text-anchor="middle" x="1606" y="-173.5" font-family="Helvetica,sans-Serif" font-size="10.00">xtb_basic_geo::crossprod</text>
</a>
</g>
</g>
<!-- Node2 -->
<g id="node2" class="node">
<title>Node2</title>
<g id="a_node2"><a xlink:href="namespacextb__basic__geo.html#a2687d96b649d9e28ba700d87ac956a51" target="_top" xlink:title=" ">
<polygon fill="white" stroke="black" points="1229,-196.5 1229,-215.5 1355,-215.5 1355,-196.5 1229,-196.5"/>
<text text-anchor="middle" x="1292" y="-203.5" font-family="Helvetica,sans-Serif" font-size="10.00">xtb_basic_geo::domegadr</text>
</a>
</g>
</g>
<!-- Node1&#45;&gt;Node2 -->
<g id="edge1" class="edge">
<title>Node1&#45;&gt;Node2</title>
<path fill="none" stroke="midnightblue" d="M1577.4,-189.88C1558.19,-198.73 1531.7,-209.38 1507,-214 1456.57,-223.44 1398.32,-220.37 1355.34,-215.55"/>
<polygon fill="midnightblue" stroke="midnightblue" points="1578.92,-193.03 1586.46,-185.58 1575.92,-186.7 1578.92,-193.03"/>
</g>
<!-- Node3 -->
<g id="node3" class="node">
<title>Node3</title>
<g id="a_node3"><a xlink:href="namespacextb__basic__geo.html#a46453de5c31b3d8b0fca71de0f1a9b30" target="_top" xlink:title=" ">
<polygon fill="white" stroke="black" points="1395.5,-147.5 1395.5,-166.5 1505.5,-166.5 1505.5,-147.5 1395.5,-147.5"/>
<text text-anchor="middle" x="1450.5" y="-154.5" font-family="Helvetica,sans-Serif" font-size="10.00">xtb_basic_geo::dphidr</text>
</a>
</g>
</g>
<!-- Node1&#45;&gt;Node3 -->
<g id="edge2" class="edge">
<title>Node1&#45;&gt;Node3</title>
<path fill="none" stroke="midnightblue" d="M1532.4,-167.01C1523.35,-165.89 1514.21,-164.76 1505.51,-163.69"/>
<polygon fill="midnightblue" stroke="midnightblue" points="1532.21,-170.52 1542.57,-168.27 1533.07,-163.57 1532.21,-170.52"/>
</g>
<!-- Node26 -->
<g id="node26" class="node">
<title>Node26</title>
<g id="a_node26"><a xlink:href="namespacextb__basic__geo.html#a786b9c6a47740705958d7087a3a98d61" target="_top" xlink:title=" ">
<polygon fill="white" stroke="black" points="1394,-185.5 1394,-204.5 1507,-204.5 1507,-185.5 1394,-185.5"/>
<text text-anchor="middle" x="1450.5" y="-192.5" font-family="Helvetica,sans-Serif" font-size="10.00">xtb_basic_geo::omega</text>
</a>
</g>
</g>
<!-- Node1&#45;&gt;Node26 -->
<g id="edge35" class="edge">
<title>Node1&#45;&gt;Node26</title>
<path fill="none" stroke="midnightblue" d="M1532.4,-184.99C1524.02,-186.02 1515.57,-187.07 1507.46,-188.07"/>
<polygon fill="midnightblue" stroke="midnightblue" points="1533.07,-188.43 1542.57,-183.73 1532.21,-181.48 1533.07,-188.43"/>
</g>
<!-- Node27 -->
<g id="node27" class="node">
<title>Node27</title>
<g id="a_node27"><a xlink:href="namespacextb__basic__geo.html#ad8c2f50bb68be7fd81ece4eb6f5b2ae8" target="_top" xlink:title=" ">
<polygon fill="white" stroke="black" points="1396.5,-109.5 1396.5,-128.5 1504.5,-128.5 1504.5,-109.5 1396.5,-109.5"/>
<text text-anchor="middle" x="1450.5" y="-116.5" font-family="Helvetica,sans-Serif" font-size="10.00">xtb_basic_geo::valijkl</text>
</a>
</g>
</g>
<!-- Node1&#45;&gt;Node27 -->
<g id="edge37" class="edge">
<title>Node1&#45;&gt;Node27</title>
<path fill="none" stroke="midnightblue" d="M1571.58,-162.66C1552.69,-155.21 1528.61,-145.88 1507,-138 1498.29,-134.82 1488.76,-131.5 1480.1,-128.55"/>
<polygon fill="midnightblue" stroke="midnightblue" points="1570.35,-165.94 1580.94,-166.36 1572.93,-159.43 1570.35,-165.94"/>
</g>
<!-- Node4 -->
<g id="node4" class="node">
<title>Node4</title>
<g id="a_node4"><a xlink:href="namespacextb__constrainpot.html#a07cff63f1e1c8aa4556f80b093011335" target="_top" xlink:title=" ">
<polygon fill="white" stroke="black" points="1226,-131 1226,-161 1358,-161 1358,-131 1226,-131"/>
<text text-anchor="start" x="1234" y="-149" font-family="Helvetica,sans-Serif" font-size="10.00">xtb_constrainpot::constrain</text>
<text text-anchor="middle" x="1292" y="-138" font-family="Helvetica,sans-Serif" font-size="10.00">_dihedral</text>
</a>
</g>
</g>
<!-- Node3&#45;&gt;Node4 -->
<g id="edge3" class="edge">
<title>Node3&#45;&gt;Node4</title>
<path fill="none" stroke="midnightblue" d="M1384.98,-152.47C1376.15,-151.84 1367.09,-151.21 1358.25,-150.59"/>
<polygon fill="midnightblue" stroke="midnightblue" points="1384.98,-155.97 1395.2,-153.18 1385.47,-148.99 1384.98,-155.97"/>
</g>
<!-- Node5 -->
<g id="node5" class="node">
<title>Node5</title>
<g id="a_node5"><a xlink:href="namespacextb__constrainpot.html#ad9b8afcae411277c3328be0e3ff8c8b4" target="_top" xlink:title=" ">
<polygon fill="white" stroke="black" points="1039,-204.5 1039,-223.5 1190,-223.5 1190,-204.5 1039,-204.5"/>
<text text-anchor="middle" x="1114.5" y="-211.5" font-family="Helvetica,sans-Serif" font-size="10.00">xtb_constrainpot::constrain_pot</text>
</a>
</g>
</g>
<!-- Node4&#45;&gt;Node5 -->
<g id="edge4" class="edge">
<title>Node4&#45;&gt;Node5</title>
<path fill="none" stroke="midnightblue" d="M1242.53,-164.78C1209.35,-177.64 1166.73,-194.15 1140.27,-204.4"/>
<polygon fill="midnightblue" stroke="midnightblue" points="1243.99,-167.97 1252.05,-161.09 1241.46,-161.44 1243.99,-167.97"/>
</g>
<!-- Node9 -->
<g id="node9" class="node">
<title>Node9</title>
<g id="a_node9"><a xlink:href="constr_8f90.html#a32820f74383b0f93c743faceb8385214" target="_top" xlink:title=" ">
<polygon fill="white" stroke="black" points="1082,-136.5 1082,-155.5 1147,-155.5 1147,-136.5 1082,-136.5"/>
<text text-anchor="middle" x="1114.5" y="-143.5" font-family="Helvetica,sans-Serif" font-size="10.00">constrhess</text>
</a>
</g>
</g>
<!-- Node4&#45;&gt;Node9 -->
<g id="edge8" class="edge">
<title>Node4&#45;&gt;Node9</title>
<path fill="none" stroke="midnightblue" d="M1215.52,-146C1191.65,-146 1166.55,-146 1147.47,-146"/>
<polygon fill="midnightblue" stroke="midnightblue" points="1215.65,-149.5 1225.65,-146 1215.65,-142.5 1215.65,-149.5"/>
</g>
<!-- Node25 -->
<g id="node25" class="node">
<title>Node25</title>
<g id="a_node25"><a xlink:href="namespacextb__scanparam.html#a98e6076b6bb1acc609033880889710ae" target="_top" xlink:title=" ">
<polygon fill="white" stroke="black" points="280,-0.5 280,-19.5 402,-19.5 402,-0.5 280,-0.5"/>
<text text-anchor="middle" x="341" y="-7.5" font-family="Helvetica,sans-Serif" font-size="10.00">xtb_scanparam::pot_info</text>
</a>
</g>
</g>
<!-- Node4&#45;&gt;Node25 -->
<g id="edge33" class="edge">
<title>Node4&#45;&gt;Node25</title>
<path fill="none" stroke="midnightblue" d="M1261.54,-124.99C1204.08,-86.14 1071.77,-7 947.5,-7 947.5,-7 947.5,-7 648,-7 562.6,-7 463.79,-8.18 402.09,-9.06"/>
<polygon fill="midnightblue" stroke="midnightblue" points="1259.88,-128.09 1270.1,-130.86 1263.83,-122.32 1259.88,-128.09"/>
</g>
<!-- Node6 -->
<g id="node6" class="node">
<title>Node6</title>
<g id="a_node6"><a xlink:href="namespacextb__gfnff__calculator.html#a8775e737196933e41e48728956ddf782" target="_top" xlink:title=" ">
<polygon fill="white" stroke="black" points="896,-273 896,-303 997,-303 997,-273 896,-273"/>
<text text-anchor="start" x="904" y="-291" font-family="Helvetica,sans-Serif" font-size="10.00">xtb_gfnff_calculator</text>
<text text-anchor="middle" x="946.5" y="-280" font-family="Helvetica,sans-Serif" font-size="10.00">::singlepoint</text>
</a>
</g>
</g>
<!-- Node5&#45;&gt;Node6 -->
<g id="edge5" class="edge">
<title>Node5&#45;&gt;Node6</title>
<path fill="none" stroke="midnightblue" d="M1083.54,-227.72C1061.35,-237.84 1030.34,-251.9 1003,-264 996.38,-266.93 989.29,-270.03 982.47,-272.98"/>
<polygon fill="midnightblue" stroke="midnightblue" points="1085.13,-230.84 1092.77,-223.5 1082.22,-224.47 1085.13,-230.84"/>
</g>
<!-- Node7 -->
<g id="node7" class="node">
<title>Node7</title>
<g id="a_node7"><a xlink:href="namespacextb__type__dummycalc.html#a28a36738c316fb4a0655328844e94957" target="_top" xlink:title=" ">
<polygon fill="white" stroke="black" points="893,-224 893,-254 1000,-254 1000,-224 893,-224"/>
<text text-anchor="start" x="901" y="-242" font-family="Helvetica,sans-Serif" font-size="10.00">xtb_type_dummycalc</text>
<text text-anchor="middle" x="946.5" y="-231" font-family="Helvetica,sans-Serif" font-size="10.00">::singlepoint</text>
</a>
</g>
</g>
<!-- Node5&#45;&gt;Node7 -->
<g id="edge6" class="edge">
<title>Node5&#45;&gt;Node7</title>
<path fill="none" stroke="midnightblue" d="M1040.05,-225.06C1026.57,-227.09 1012.74,-229.17 1000.03,-231.09"/>
<polygon fill="midnightblue" stroke="midnightblue" points="1040.9,-228.47 1050.27,-223.52 1039.86,-221.55 1040.9,-228.47"/>
</g>
<!-- Node8 -->
<g id="node8" class="node">
<title>Node8</title>
<g id="a_node8"><a xlink:href="namespacextb__xtb__calculator.html#a75c96263c235c99dfeeda3e865f9898c" target="_top" xlink:title=" ">
<polygon fill="white" stroke="black" points="899,-175 899,-205 994,-205 994,-175 899,-175"/>
<text text-anchor="start" x="907" y="-193" font-family="Helvetica,sans-Serif" font-size="10.00">xtb_xtb_calculator</text>
<text text-anchor="middle" x="946.5" y="-182" font-family="Helvetica,sans-Serif" font-size="10.00">::singlepoint</text>
</a>
</g>
</g>
<!-- Node5&#45;&gt;Node8 -->
<g id="edge7" class="edge">
<title>Node5&#45;&gt;Node8</title>
<path fill="none" stroke="midnightblue" d="M1037.3,-202.98C1022.6,-200.86 1007.61,-198.69 994.2,-196.75"/>
<polygon fill="midnightblue" stroke="midnightblue" points="1037.02,-206.48 1047.42,-204.45 1038.02,-199.55 1037.02,-206.48"/>
</g>
<!-- Node10 -->
<g id="node10" class="node">
<title>Node10</title>
<g id="a_node10"><a xlink:href="namespacextb__optimizer.html#a9fc9ad9955c0a2ef4872d25495d02901" target="_top" xlink:title=" ">
<polygon fill="white" stroke="black" points="890,-136.5 890,-155.5 1003,-155.5 1003,-136.5 890,-136.5"/>
<text text-anchor="middle" x="946.5" y="-143.5" font-family="Helvetica,sans-Serif" font-size="10.00">xtb_optimizer::modhes</text>
</a>
</g>
</g>
<!-- Node9&#45;&gt;Node10 -->
<g id="edge9" class="edge">
<title>Node9&#45;&gt;Node10</title>
<path fill="none" stroke="midnightblue" d="M1071.79,-146C1051.02,-146 1025.61,-146 1003.2,-146"/>
<polygon fill="midnightblue" stroke="midnightblue" points="1071.89,-149.5 1081.89,-146 1071.89,-142.5 1071.89,-149.5"/>
</g>
<!-- Node11 -->
<g id="node11" class="node">
<title>Node11</title>
<g id="a_node11"><a xlink:href="namespacextb__optimizer.html#a1743159550358c92fb2761af80e15285" target="_top" xlink:title=" ">
<polygon fill="white" stroke="black" points="745.5,-205.5 745.5,-224.5 852.5,-224.5 852.5,-205.5 745.5,-205.5"/>
<text text-anchor="middle" x="799" y="-212.5" font-family="Helvetica,sans-Serif" font-size="10.00">xtb_optimizer::ancopt</text>
</a>
</g>
</g>
<!-- Node10&#45;&gt;Node11 -->
<g id="edge10" class="edge">
<title>Node10&#45;&gt;Node11</title>
<path fill="none" stroke="midnightblue" d="M903.42,-159.38C898.79,-161.37 894.22,-163.58 890,-166 871.93,-176.35 872.11,-185.71 854,-196 847.52,-199.68 840.2,-202.84 833.09,-205.46"/>
<polygon fill="midnightblue" stroke="midnightblue" points="904.96,-162.53 912.95,-155.59 902.37,-156.03 904.96,-162.53"/>
</g>
<!-- Node23 -->
<g id="node23" class="node">
<title>Node23</title>
<g id="a_node23"><a xlink:href="namespacextb__relaxation__engine.html#a930f6aac4b13eab0de82f2b71bcde96b" target="_top" xlink:title="frontend implementation of the fast inertial relaxation engine">
<polygon fill="white" stroke="black" points="744,-156 744,-186 854,-186 854,-156 744,-156"/>
<text text-anchor="start" x="752" y="-174" font-family="Helvetica,sans-Serif" font-size="10.00">xtb_relaxation_engine</text>
<text text-anchor="middle" x="799" y="-163" font-family="Helvetica,sans-Serif" font-size="10.00">::fire</text>
</a>
</g>
</g>
<!-- Node10&#45;&gt;Node23 -->
<g id="edge29" class="edge">
<title>Node10&#45;&gt;Node23</title>
<path fill="none" stroke="midnightblue" d="M880.06,-157.24C871.45,-158.72 862.7,-160.23 854.31,-161.67"/>
<polygon fill="midnightblue" stroke="midnightblue" points="880.81,-160.67 890.08,-155.52 879.63,-153.77 880.81,-160.67"/>
</g>
<!-- Node24 -->
<g id="node24" class="node">
<title>Node24</title>
<g id="a_node24"><a xlink:href="namespacextb__relaxation__engine.html#a93ca131c43cfa21276f1bc353c189423" target="_top" xlink:title="frontend implementation of the low memory/linear scaling (by taste)">
<polygon fill="white" stroke="black" points="744,-107 744,-137 854,-137 854,-107 744,-107"/>
<text text-anchor="start" x="752" y="-125" font-family="Helvetica,sans-Serif" font-size="10.00">xtb_relaxation_engine</text>
<text text-anchor="middle" x="799" y="-114" font-family="Helvetica,sans-Serif" font-size="10.00">::l_ancopt</text>
</a>
</g>
</g>
<!-- Node10&#45;&gt;Node24 -->
<g id="edge31" class="edge">
<title>Node10&#45;&gt;Node24</title>
<path fill="none" stroke="midnightblue" d="M879.67,-135.14C871.09,-133.73 862.37,-132.29 854.01,-130.91"/>
<polygon fill="midnightblue" stroke="midnightblue" points="879.23,-138.62 889.66,-136.79 880.36,-131.71 879.23,-138.62"/>
</g>
<!-- Node12 -->
<g id="node12" class="node">
<title>Node12</title>
<g id="a_node12"><a xlink:href="namespacextb__biaspath.html#a17ea22b101e578a3df8d2b58b96811a5" target="_top" xlink:title=" ">
<polygon fill="white" stroke="black" points="590,-259.5 590,-278.5 708,-278.5 708,-259.5 590,-259.5"/>
<text text-anchor="middle" x="649" y="-266.5" font-family="Helvetica,sans-Serif" font-size="10.00">xtb_biaspath::bias_path</text>
</a>
</g>
</g>
<!-- Node11&#45;&gt;Node12 -->
<g id="edge11" class="edge">
<title>Node11&#45;&gt;Node12</title>
<path fill="none" stroke="midnightblue" d="M762.22,-228.06C735.74,-237.72 700.27,-250.66 676.36,-259.38"/>
<polygon fill="midnightblue" stroke="midnightblue" points="763.69,-231.25 771.88,-224.53 761.29,-224.67 763.69,-231.25"/>
</g>
<!-- Node15 -->
<g id="node15" class="node">
<title>Node15</title>
<g id="a_node15"><a xlink:href="namespacextb__geoopt.html#a1f0513294f2237b94f355cc4dc5dd867" target="_top" xlink:title=" ">
<polygon fill="white" stroke="black" points="595,-156 595,-186 703,-186 703,-156 595,-156"/>
<text text-anchor="start" x="603" y="-174" font-family="Helvetica,sans-Serif" font-size="10.00">xtb_geoopt::geometry</text>
<text text-anchor="middle" x="649" y="-163" font-family="Helvetica,sans-Serif" font-size="10.00">_optimization</text>
</a>
</g>
</g>
<!-- Node11&#45;&gt;Node15 -->
<g id="edge14" class="edge">
<title>Node11&#45;&gt;Node15</title>
<path fill="none" stroke="midnightblue" d="M756.11,-202.54C738.86,-197.42 718.74,-191.44 700.67,-186.07"/>
<polygon fill="midnightblue" stroke="midnightblue" points="755.3,-205.96 765.89,-205.45 757.3,-199.25 755.3,-205.96"/>
</g>
<!-- Node13 -->
<g id="node13" class="node">
<title>Node13</title>
<g id="a_node13"><a xlink:href="namespacextb__prog__main.html#a92b3b61ee04235e6343f652095682529" target="_top" xlink:title=" ">
<polygon fill="white" stroke="black" points="126,-161.5 126,-180.5 244,-180.5 244,-161.5 126,-161.5"/>
<text text-anchor="middle" x="185" y="-168.5" font-family="Helvetica,sans-Serif" font-size="10.00">xtb_prog_main::xtbmain</text>
</a>
</g>
</g>
<!-- Node12&#45;&gt;Node13 -->
<g id="edge12" class="edge">
<title>Node12&#45;&gt;Node13</title>
<path fill="none" stroke="midnightblue" d="M615.27,-282.19C548.24,-307.01 392.22,-353.29 280,-297 229.75,-271.79 199.5,-205.57 189.61,-180.66"/>
<polygon fill="midnightblue" stroke="midnightblue" points="616.76,-285.37 624.87,-278.56 614.28,-278.83 616.76,-285.37"/>
</g>
<!-- Node14 -->
<g id="node14" class="node">
<title>Node14</title>
<g id="a_node14"><a xlink:href="primary_8f90.html#a2a67903cf5be605c5b6d3c362c6a3c5c" target="_top" xlink:title="The primary driver for the xtb program package.">
<polygon fill="white" stroke="black" points="0,-161.5 0,-180.5 90,-180.5 90,-161.5 0,-161.5"/>
<text text-anchor="middle" x="45" y="-168.5" font-family="Helvetica,sans-Serif" font-size="10.00">xtb_prog_primary</text>
</a>
</g>
</g>
<!-- Node13&#45;&gt;Node14 -->
<g id="edge13" class="edge">
<title>Node13&#45;&gt;Node14</title>
<path fill="none" stroke="midnightblue" d="M115.73,-171C107.06,-171 98.37,-171 90.22,-171"/>
<polygon fill="midnightblue" stroke="midnightblue" points="115.88,-174.5 125.88,-171 115.88,-167.5 115.88,-174.5"/>
</g>
<!-- Node15&#45;&gt;Node13 -->
<g id="edge28" class="edge">
<title>Node15&#45;&gt;Node13</title>
<path fill="none" stroke="midnightblue" d="M633.13,-194.43C616.9,-217.59 588.56,-251.58 554,-266 441.62,-312.9 392.38,-312.9 280,-266 237.6,-248.31 204.56,-201.15 191.76,-180.7"/>
<polygon fill="midnightblue" stroke="midnightblue" points="636.03,-196.39 638.75,-186.15 630.24,-192.46 636.03,-196.39"/>
</g>
<!-- Node16 -->
<g id="node16" class="node">
<title>Node16</title>
<g id="a_node16"><a xlink:href="namespacextb__kopt.html#ada4ab70832f563f46c8ffc8cea64c78b" target="_top" xlink:title=" ">
<polygon fill="white" stroke="black" points="447,-237.5 447,-256.5 545,-256.5 545,-237.5 447,-237.5"/>
<text text-anchor="middle" x="496" y="-244.5" font-family="Helvetica,sans-Serif" font-size="10.00">xtb_kopt::get_rmsd</text>
</a>
</g>
</g>
<!-- Node15&#45;&gt;Node16 -->
<g id="edge15" class="edge">
<title>Node15&#45;&gt;Node16</title>
<path fill="none" stroke="midnightblue" d="M613.68,-191.14C596.07,-201.18 574.15,-213.22 554,-223 543.47,-228.11 531.57,-233.22 521.38,-237.4"/>
<polygon fill="midnightblue" stroke="midnightblue" points="615.53,-194.12 622.46,-186.1 612.04,-188.04 615.53,-194.12"/>
</g>
<!-- Node18 -->
<g id="node18" class="node">
<title>Node18</title>
<g id="a_node18"><a xlink:href="namespacextb__mdoptim.html#ab0ba2195163cd6794115b99516ba5316" target="_top" xlink:title=" ">
<polygon fill="white" stroke="black" points="289,-199.5 289,-218.5 393,-218.5 393,-199.5 289,-199.5"/>
<text text-anchor="middle" x="341" y="-206.5" font-family="Helvetica,sans-Serif" font-size="10.00">xtb_mdoptim::mdopt</text>
</a>
</g>
</g>
<!-- Node15&#45;&gt;Node18 -->
<g id="edge18" class="edge">
<title>Node15&#45;&gt;Node18</title>
<path fill="none" stroke="midnightblue" d="M585.16,-184.7C574.78,-186.67 564.11,-188.53 554,-190 499.33,-197.95 436.21,-203.09 393.16,-206"/>
<polygon fill="midnightblue" stroke="midnightblue" points="585.84,-188.13 594.99,-182.78 584.5,-181.26 585.84,-188.13"/>
</g>
<!-- Node19 -->
<g id="node19" class="node">
<title>Node19</title>
<g id="a_node19"><a xlink:href="namespacextb__modef.html#a39c4cb408b8b02afb7bf83a1d7f13de3" target="_top" xlink:title=" ">
<polygon fill="white" stroke="black" points="438,-161.5 438,-180.5 554,-180.5 554,-161.5 438,-161.5"/>
<text text-anchor="middle" x="496" y="-168.5" font-family="Helvetica,sans-Serif" font-size="10.00">xtb_modef::modefollow</text>
</a>
</g>
</g>
<!-- Node15&#45;&gt;Node19 -->
<g id="edge20" class="edge">
<title>Node15&#45;&gt;Node19</title>
<path fill="none" stroke="midnightblue" d="M584.73,-171C574.58,-171 564.12,-171 554.11,-171"/>
<polygon fill="midnightblue" stroke="midnightblue" points="584.76,-174.5 594.76,-171 584.76,-167.5 584.76,-174.5"/>
</g>
<!-- Node20 -->
<g id="node20" class="node">
<title>Node20</title>
<g id="a_node20"><a xlink:href="namespacextb__scan.html#abef8f8d0fa299e9e2caf823f3672f14a" target="_top" xlink:title=" ">
<polygon fill="white" stroke="black" points="282.5,-123.5 282.5,-142.5 399.5,-142.5 399.5,-123.5 282.5,-123.5"/>
<text text-anchor="middle" x="341" y="-130.5" font-family="Helvetica,sans-Serif" font-size="10.00">xtb_scan::relaxed_scan</text>
</a>
</g>
</g>
<!-- Node15&#45;&gt;Node20 -->
<g id="edge22" class="edge">
<title>Node15&#45;&gt;Node20</title>
<path fill="none" stroke="midnightblue" d="M585.16,-157.3C574.78,-155.33 564.11,-153.47 554,-152 502.07,-144.45 442.52,-139.43 399.79,-136.46"/>
<polygon fill="midnightblue" stroke="midnightblue" points="584.5,-160.74 594.99,-159.22 585.84,-153.87 584.5,-160.74"/>
</g>
<!-- Node21 -->
<g id="node21" class="node">
<title>Node21</title>
<g id="a_node21"><a xlink:href="namespacextb__screening.html#a7f4004ff0e65127a38b038f0a7cdcc84" target="_top" xlink:title=" ">
<polygon fill="white" stroke="black" points="441,-85.5 441,-104.5 551,-104.5 551,-85.5 441,-85.5"/>
<text text-anchor="middle" x="496" y="-92.5" font-family="Helvetica,sans-Serif" font-size="10.00">xtb_screening::screen</text>
</a>
</g>
</g>
<!-- Node15&#45;&gt;Node21 -->
<g id="edge24" class="edge">
<title>Node15&#45;&gt;Node21</title>
<path fill="none" stroke="midnightblue" d="M613.68,-150.86C596.07,-140.82 574.15,-128.78 554,-119 543.47,-113.89 531.57,-108.78 521.38,-104.6"/>
<polygon fill="midnightblue" stroke="midnightblue" points="612.04,-153.96 622.46,-155.9 615.53,-147.88 612.04,-153.96"/>
</g>
<!-- Node22 -->
<g id="node22" class="node">
<title>Node22</title>
<g id="a_node22"><a xlink:href="namespacextb__gfnff__convert.html#adf399b47b9f2a8364327d9d5c38cb2b8" target="_top" xlink:title=" ">
<polygon fill="white" stroke="black" points="448.5,-36 448.5,-66 543.5,-66 543.5,-36 448.5,-36"/>
<text text-anchor="start" x="456.5" y="-54" font-family="Helvetica,sans-Serif" font-size="10.00">xtb_gfnff_convert::</text>
<text text-anchor="middle" x="496" y="-43" font-family="Helvetica,sans-Serif" font-size="10.00">struc_convert</text>
</a>
</g>
</g>
<!-- Node15&#45;&gt;Node22 -->
<g id="edge26" class="edge">
<title>Node15&#45;&gt;Node22</title>
<path fill="none" stroke="midnightblue" d="M629.62,-147.97C611.98,-127.04 583.71,-96.42 554,-76 548.66,-72.33 542.69,-69 536.68,-66.07"/>
<polygon fill="midnightblue" stroke="midnightblue" points="626.98,-150.27 636.06,-155.74 632.37,-145.81 626.98,-150.27"/>
</g>
<!-- Node17 -->
<g id="node17" class="node">
<title>Node17</title>
<g id="a_node17"><a xlink:href="namespacextb__kopt.html#aed50b40106367857ab2d0bf3a109f62b" target="_top" xlink:title=" ">
<polygon fill="white" stroke="black" points="293.5,-237.5 293.5,-256.5 388.5,-256.5 388.5,-237.5 293.5,-237.5"/>
<text text-anchor="middle" x="341" y="-244.5" font-family="Helvetica,sans-Serif" font-size="10.00">xtb_kopt::get_kopt</text>
</a>
</g>
</g>
<!-- Node16&#45;&gt;Node17 -->
<g id="edge16" class="edge">
<title>Node16&#45;&gt;Node17</title>
<path fill="none" stroke="midnightblue" d="M436.37,-247C420.53,-247 403.61,-247 388.53,-247"/>
<polygon fill="midnightblue" stroke="midnightblue" points="436.59,-250.5 446.59,-247 436.59,-243.5 436.59,-250.5"/>
</g>
<!-- Node17&#45;&gt;Node13 -->
<g id="edge17" class="edge">
<title>Node17&#45;&gt;Node13</title>
<path fill="none" stroke="midnightblue" d="M295.04,-234.06C289.9,-232.2 284.79,-230.17 280,-228 249.76,-214.28 217.2,-192.88 199.45,-180.58"/>
<polygon fill="midnightblue" stroke="midnightblue" points="294.29,-237.5 304.89,-237.43 296.56,-230.88 294.29,-237.5"/>
</g>
<!-- Node18&#45;&gt;Node13 -->
<g id="edge19" class="edge">
<title>Node18&#45;&gt;Node13</title>
<path fill="none" stroke="midnightblue" d="M291.21,-196.96C269.69,-191.65 244.77,-185.5 224.58,-180.52"/>
<polygon fill="midnightblue" stroke="midnightblue" points="290.59,-200.41 301.14,-199.41 292.27,-193.62 290.59,-200.41"/>
</g>
<!-- Node19&#45;&gt;Node13 -->
<g id="edge21" class="edge">
<title>Node19&#45;&gt;Node13</title>
<path fill="none" stroke="midnightblue" d="M427.64,-171C372.79,-171 296.17,-171 244.01,-171"/>
<polygon fill="midnightblue" stroke="midnightblue" points="427.96,-174.5 437.96,-171 427.96,-167.5 427.96,-174.5"/>
</g>
<!-- Node20&#45;&gt;Node13 -->
<g id="edge23" class="edge">
<title>Node20&#45;&gt;Node13</title>
<path fill="none" stroke="midnightblue" d="M291.21,-145.04C269.69,-150.35 244.77,-156.5 224.58,-161.48"/>
<polygon fill="midnightblue" stroke="midnightblue" points="292.27,-148.38 301.14,-142.59 290.59,-141.59 292.27,-148.38"/>
</g>
<!-- Node21&#45;&gt;Node13 -->
<g id="edge25" class="edge">
<title>Node21&#45;&gt;Node13</title>
<path fill="none" stroke="midnightblue" d="M430.46,-93.14C386.94,-93.7 328.79,-98.01 280,-114 247.72,-124.58 214.88,-148 197.87,-161.3"/>
<polygon fill="midnightblue" stroke="midnightblue" points="430.65,-96.64 440.63,-93.07 430.61,-89.64 430.65,-96.64"/>
</g>
<!-- Node22&#45;&gt;Node13 -->
<g id="edge27" class="edge">
<title>Node22&#45;&gt;Node13</title>
<path fill="none" stroke="midnightblue" d="M438.28,-53.56C393.44,-57.43 330.24,-67.07 280,-91 243.24,-108.51 209.27,-144.1 194.19,-161.28"/>
<polygon fill="midnightblue" stroke="midnightblue" points="438.72,-57.04 448.41,-52.76 438.17,-50.06 438.72,-57.04"/>
</g>
<!-- Node23&#45;&gt;Node15 -->
<g id="edge30" class="edge">
<title>Node23&#45;&gt;Node15</title>
<path fill="none" stroke="midnightblue" d="M733.69,-171C723.54,-171 713.14,-171 703.27,-171"/>
<polygon fill="midnightblue" stroke="midnightblue" points="733.73,-174.5 743.73,-171 733.73,-167.5 733.73,-174.5"/>
</g>
<!-- Node24&#45;&gt;Node15 -->
<g id="edge32" class="edge">
<title>Node24&#45;&gt;Node15</title>
<path fill="none" stroke="midnightblue" d="M742.85,-140.26C727.24,-145.43 710.43,-150.99 695.46,-155.95"/>
<polygon fill="midnightblue" stroke="midnightblue" points="743.99,-143.57 752.39,-137.1 741.79,-136.92 743.99,-143.57"/>
</g>
<!-- Node25&#45;&gt;Node13 -->
<g id="edge34" class="edge">
<title>Node25&#45;&gt;Node13</title>
<path fill="none" stroke="midnightblue" d="M305.13,-23.88C296.4,-28.28 287.42,-33.67 280,-40 236.76,-76.87 202.99,-137.64 190.86,-161.22"/>
<polygon fill="midnightblue" stroke="midnightblue" points="306.87,-26.93 314.42,-19.5 303.89,-20.6 306.87,-26.93"/>
</g>
<!-- Node26&#45;&gt;Node2 -->
<g id="edge36" class="edge">
<title>Node26&#45;&gt;Node2</title>
<path fill="none" stroke="midnightblue" d="M1383.72,-199.62C1374.24,-200.29 1364.5,-200.97 1355.09,-201.64"/>
<polygon fill="midnightblue" stroke="midnightblue" points="1384.15,-203.1 1393.88,-198.91 1383.66,-196.12 1384.15,-203.1"/>
</g>
<!-- Node27&#45;&gt;Node4 -->
<g id="edge38" class="edge">
<title>Node27&#45;&gt;Node4</title>
<path fill="none" stroke="midnightblue" d="M1386.18,-129.92C1376.92,-131.52 1367.38,-133.17 1358.09,-134.77"/>
<polygon fill="midnightblue" stroke="midnightblue" points="1386.82,-133.37 1396.08,-128.22 1385.63,-126.47 1386.82,-133.37"/>
</g>
</g>
</svg>
        <g id="navigator" transform="translate(0 0)" fill="#404254">
                <rect fill="#f2f5e9" fill-opacity="0.5" stroke="#606060" stroke-width=".5" x="0" y="0" width="60" height="60"/>
                <use id="zoomplus" xlink:href="#zoomPlus" x="17" y="9" onmousedown="handleZoom(evt,'in')"/>
                <use id="zoomminus" xlink:href="#zoomMin" x="42" y="9" onmousedown="handleZoom(evt,'out')"/>
                <use id="reset" xlink:href="#resetDef" x="30" y="36" onmousedown="handleReset()"/>
                <g id="arrowUp" xlink:href="#dirArrow" transform="translate(30 24)" onmousedown="handlePan(0,-1)">
                  <use xlink:href="#rim" fill="#404040">
                        <set attributeName="fill" to="#808080" begin="arrowUp.mouseover" end="arrowUp.mouseout"/>
                  </use>
                  <path fill="none" stroke="white" stroke-width="1.5" d="M0,-3.0v7 M-2.5,-0.5L0,-3.0L2.5,-0.5"/>
                </g>
                <g id="arrowRight" xlink:href="#dirArrow" transform="rotate(90) translate(36 -43)" onmousedown="handlePan(1,0)">
                  <use xlink:href="#rim" fill="#404040">
                        <set attributeName="fill" to="#808080" begin="arrowRight.mouseover" end="arrowRight.mouseout"/>
                  </use>
                  <path fill="none" stroke="white" stroke-width="1.5" d="M0,-3.0v7 M-2.5,-0.5L0,-3.0L2.5,-0.5"/>
                </g>
                <g id="arrowDown" xlink:href="#dirArrow" transform="rotate(180) translate(-30 -48)" onmousedown="handlePan(0,1)">
                  <use xlink:href="#rim" fill="#404040">
                        <set attributeName="fill" to="#808080" begin="arrowDown.mouseover" end="arrowDown.mouseout"/>
                  </use>
                  <path fill="none" stroke="white" stroke-width="1.5" d="M0,-3.0v7 M-2.5,-0.5L0,-3.0L2.5,-0.5"/>
                </g>
                <g id="arrowLeft" xlink:href="#dirArrow" transform="rotate(270) translate(-36 17)" onmousedown="handlePan(-1,0)">
                  <use xlink:href="#rim" fill="#404040">
                        <set attributeName="fill" to="#808080" begin="arrowLeft.mouseover" end="arrowLeft.mouseout"/>
                  </use>
                  <path fill="none" stroke="white" stroke-width="1.5" d="M0,-3.0v7 M-2.5,-0.5L0,-3.0L2.5,-0.5"/>
                </g>
        </g>
        <svg viewBox="0 0 15 15" width="100%" height="30px" preserveAspectRatio="xMaxYMin meet">
         <g id="arrow_out" transform="scale(0.3 0.3)">
          <a xlink:href="namespacextb__basic__geo_a6e8e92267164a5a45bac607201944cc0_icgraph_org.svg" target="_base">
           <rect id="button" ry="5" rx="5" y="6" x="6" height="38" width="38"
                fill="#f2f5e9" fill-opacity="0.5" stroke="#606060" stroke-width="1.0"/>
           <path id="arrow"
             d="M 11.500037,31.436501 C 11.940474,20.09759 22.043105,11.32322 32.158766,21.979434 L 37.068811,17.246167 C 37.068811,17.246167 37.088388,32 37.088388,32 L 22.160133,31.978069 C 22.160133,31.978069 26.997745,27.140456 26.997745,27.140456 C 18.528582,18.264221 13.291696,25.230495 11.500037,31.436501 z"
             style="fill:#404040;"/>
          </a>
         </g>
        </svg>
</svg>
