<?xml version="1.0" encoding="UTF-8" standalone="no"?>
<!DOCTYPE svg PUBLIC "-//W3C//DTD SVG 1.1//EN"
 "http://www.w3.org/Graphics/SVG/1.1/DTD/svg11.dtd">
<!-- Generated by graphviz version 2.43.0 (0)
 -->
<!-- Title: xtb_io_reader::readhessian Pages: 1 -->
<svg width="405pt" height="88pt"
 viewBox="0.00 0.00 405.00 88.00" xmlns="http://www.w3.org/2000/svg" xmlns:xlink="http://www.w3.org/1999/xlink">
<g id="graph0" class="graph" transform="scale(1 1) rotate(0) translate(4 84)">
<title>xtb_io_reader::readhessian</title>
<polygon fill="white" stroke="transparent" points="-4,4 -4,-84 401,-84 401,4 -4,4"/>
<!-- Node1 -->
<g id="node1" class="node">
<title>Node1</title>
<g id="a_node1"><a xlink:title=" ">
<polygon fill="#bfbfbf" stroke="black" points="0,-30 0,-49 149,-49 149,-30 0,-30"/>
<text text-anchor="middle" x="74.5" y="-37" font-family="Helvetica,sans-Serif" font-size="10.00">xtb_io_reader::readhessian</text>
</a>
</g>
</g>
<!-- Node2 -->
<g id="node2" class="node">
<title>Node2</title>
<g id="a_node2"><a xlink:href="namespacextb__io__reader__genformat.html#ab5b4cc788d4cc29fdde9596e9437a3e5" target="_top" xlink:title=" ">
<polygon fill="white" stroke="black" points="185,-49.5 185,-79.5 325,-79.5 325,-49.5 185,-49.5"/>
<text text-anchor="start" x="193" y="-67.5" font-family="Helvetica,sans-Serif" font-size="10.00">xtb_io_reader_genformat</text>
<text text-anchor="middle" x="255" y="-56.5" font-family="Helvetica,sans-Serif" font-size="10.00">::readhessiandftbplus</text>
</a>
</g>
</g>
<!-- Node1&#45;&gt;Node2 -->
<g id="edge1" class="edge">
<title>Node1&#45;&gt;Node2</title>
<path fill="none" stroke="midnightblue" d="M143.49,-49.02C153.72,-50.46 164.35,-51.94 174.78,-53.41"/>
<polygon fill="midnightblue" stroke="midnightblue" points="174.33,-56.88 184.72,-54.8 175.3,-49.94 174.33,-56.88"/>
</g>
<!-- Node4 -->
<g id="node4" class="node">
<title>Node4</title>
<g id="a_node4"><a xlink:href="namespacextb__io__reader__turbomole.html#af69fee3184cbb9f909c22e9b52f42288" target="_top" xlink:title=" ">
<polygon fill="white" stroke="black" points="185.5,-0.5 185.5,-30.5 324.5,-30.5 324.5,-0.5 185.5,-0.5"/>
<text text-anchor="start" x="193.5" y="-18.5" font-family="Helvetica,sans-Serif" font-size="10.00">xtb_io_reader_turbomole</text>
<text text-anchor="middle" x="255" y="-7.5" font-family="Helvetica,sans-Serif" font-size="10.00">::readhessianturbomole</text>
</a>
</g>
</g>
<!-- Node1&#45;&gt;Node4 -->
<g id="edge3" class="edge">
<title>Node1&#45;&gt;Node4</title>
<path fill="none" stroke="midnightblue" d="M146.3,-29.98C155.84,-28.7 165.67,-27.38 175.33,-26.08"/>
<polygon fill="midnightblue" stroke="midnightblue" points="175.88,-29.54 185.32,-24.73 174.94,-22.6 175.88,-29.54"/>
</g>
<!-- Node3 -->
<g id="node3" class="node">
<title>Node3</title>
<g id="a_node3"><a xlink:href="symmetry__i_8c.html#aa77c823a9fc018ae1d437369708d8727" target="_top" xlink:title=" ">
<polygon fill="white" stroke="black" points="361,-30 361,-49 397,-49 397,-30 361,-30"/>
<text text-anchor="middle" x="379" y="-37" font-family="Helvetica,sans-Serif" font-size="10.00">true</text>
</a>
</g>
</g>
<!-- Node2&#45;&gt;Node3 -->
<g id="edge2" class="edge">
<title>Node2&#45;&gt;Node3</title>
<path fill="none" stroke="midnightblue" d="M325.2,-50.32C334.22,-48.47 343,-46.67 350.72,-45.09"/>
<polygon fill="midnightblue" stroke="midnightblue" points="351.44,-48.52 360.53,-43.08 350.03,-41.66 351.44,-48.52"/>
</g>
<!-- Node4&#45;&gt;Node3 -->
<g id="edge4" class="edge">
<title>Node4&#45;&gt;Node3</title>
<path fill="none" stroke="midnightblue" d="M324.84,-29.04C334.06,-30.86 343.03,-32.62 350.9,-34.17"/>
<polygon fill="midnightblue" stroke="midnightblue" points="350.38,-37.63 360.87,-36.13 351.73,-30.77 350.38,-37.63"/>
</g>
</g>
</svg>
