<?xml version="1.0" encoding="UTF-8" standalone="no"?>
<!DOCTYPE svg PUBLIC "-//W3C//DTD SVG 1.1//EN"
 "http://www.w3.org/Graphics/SVG/1.1/DTD/svg11.dtd">
<!-- Generated by graphviz version 2.46.1 (20210215.1649)
 -->
<!-- Title: xtb_setmod::set_gbsa Pages: 1 -->
<svg width="743pt" height="104pt"
 viewBox="0.00 0.00 743.00 104.00" xmlns="http://www.w3.org/2000/svg" xmlns:xlink="http://www.w3.org/1999/xlink">
<g id="graph0" class="graph" transform="scale(1 1) rotate(0) translate(4 100)">
<title>xtb_setmod::set_gbsa</title>
<polygon fill="white" stroke="transparent" points="-4,4 -4,-100 739,-100 739,4 -4,4"/>
<!-- Node1 -->
<g id="node1" class="node">
<title>Node1</title>
<g id="a_node1"><a xlink:title=" ">
<polygon fill="#bfbfbf" stroke="black" points="624,-38.5 624,-57.5 735,-57.5 735,-38.5 624,-38.5"/>
<text text-anchor="middle" x="679.5" y="-45.5" font-family="Helvetica,sans-Serif" font-size="10.00">xtb_setmod::set_gbsa</text>
</a>
</g>
</g>
<!-- Node2 -->
<g id="node2" class="node">
<title>Node2</title>
<g id="a_node2"><a xlink:href="namespacextb__prog__main.html#a7342d7c4bae29e1a79a8c6c8e8141d70" target="_top" xlink:title="Parse command line arguments and forward them to settings.">
<polygon fill="white" stroke="black" points="280,-76.5 280,-95.5 434,-95.5 434,-76.5 280,-76.5"/>
<text text-anchor="middle" x="357" y="-83.5" font-family="Helvetica,sans-Serif" font-size="10.00">xtb_prog_main::parsearguments</text>
</a>
</g>
</g>
<!-- Node1&#45;&gt;Node2 -->
<g id="edge1" class="edge">
<title>Node1&#45;&gt;Node2</title>
<path fill="none" stroke="midnightblue" d="M613.53,-58.45C604.96,-59.71 596.27,-60.93 588,-62 536.84,-68.62 479.09,-74.64 434.25,-79"/>
<polygon fill="midnightblue" stroke="midnightblue" points="614.15,-61.89 623.52,-56.95 613.12,-54.97 614.15,-61.89"/>
</g>
<!-- Node5 -->
<g id="node5" class="node">
<title>Node5</title>
<g id="a_node5"><a xlink:href="namespacextb__setmod.html#af256a658a95d1cc74d76dbc0b607c01a" target="_top" xlink:title=" ">
<polygon fill="white" stroke="black" points="302.5,-38.5 302.5,-57.5 411.5,-57.5 411.5,-38.5 302.5,-38.5"/>
<text text-anchor="middle" x="357" y="-45.5" font-family="Helvetica,sans-Serif" font-size="10.00">xtb_setmod::rdcontrol</text>
</a>
</g>
</g>
<!-- Node1&#45;&gt;Node5 -->
<g id="edge4" class="edge">
<title>Node1&#45;&gt;Node5</title>
<path fill="none" stroke="midnightblue" d="M613.75,-48C554.33,-48 467.35,-48 411.7,-48"/>
<polygon fill="midnightblue" stroke="midnightblue" points="613.77,-51.5 623.77,-48 613.77,-44.5 613.77,-51.5"/>
</g>
<!-- Node6 -->
<g id="node6" class="node">
<title>Node6</title>
<g id="a_node6"><a xlink:href="namespacextb__setmod.html#ae624d63242f16501ab4fc3040b92ec15" target="_top" xlink:title=" ">
<polygon fill="white" stroke="black" points="470,-0.5 470,-19.5 588,-19.5 588,-0.5 470,-0.5"/>
<text text-anchor="middle" x="529" y="-7.5" font-family="Helvetica,sans-Serif" font-size="10.00">xtb_setmod::set_legacy</text>
</a>
</g>
</g>
<!-- Node1&#45;&gt;Node6 -->
<g id="edge6" class="edge">
<title>Node1&#45;&gt;Node6</title>
<path fill="none" stroke="midnightblue" d="M631.17,-35.89C610.49,-30.6 586.58,-24.48 567.2,-19.52"/>
<polygon fill="midnightblue" stroke="midnightblue" points="630.47,-39.32 641.03,-38.41 632.21,-32.54 630.47,-39.32"/>
</g>
<!-- Node3 -->
<g id="node3" class="node">
<title>Node3</title>
<g id="a_node3"><a xlink:href="namespacextb__prog__main.html#a92b3b61ee04235e6343f652095682529" target="_top" xlink:title=" ">
<polygon fill="white" stroke="black" points="126,-57.5 126,-76.5 244,-76.5 244,-57.5 126,-57.5"/>
<text text-anchor="middle" x="185" y="-64.5" font-family="Helvetica,sans-Serif" font-size="10.00">xtb_prog_main::xtbmain</text>
</a>
</g>
</g>
<!-- Node2&#45;&gt;Node3 -->
<g id="edge2" class="edge">
<title>Node2&#45;&gt;Node3</title>
<path fill="none" stroke="midnightblue" d="M269.77,-76.36C261.09,-75.39 252.42,-74.42 244.13,-73.5"/>
<polygon fill="midnightblue" stroke="midnightblue" points="269.62,-79.87 279.95,-77.5 270.4,-72.91 269.62,-79.87"/>
</g>
<!-- Node4 -->
<g id="node4" class="node">
<title>Node4</title>
<g id="a_node4"><a xlink:href="primary_8f90.html#a2a67903cf5be605c5b6d3c362c6a3c5c" target="_top" xlink:title="The primary driver for the xtb program package.">
<polygon fill="white" stroke="black" points="0,-57.5 0,-76.5 90,-76.5 90,-57.5 0,-57.5"/>
<text text-anchor="middle" x="45" y="-64.5" font-family="Helvetica,sans-Serif" font-size="10.00">xtb_prog_primary</text>
</a>
</g>
</g>
<!-- Node3&#45;&gt;Node4 -->
<g id="edge3" class="edge">
<title>Node3&#45;&gt;Node4</title>
<path fill="none" stroke="midnightblue" d="M115.73,-67C107.06,-67 98.37,-67 90.22,-67"/>
<polygon fill="midnightblue" stroke="midnightblue" points="115.88,-70.5 125.88,-67 115.88,-63.5 115.88,-70.5"/>
</g>
<!-- Node5&#45;&gt;Node3 -->
<g id="edge5" class="edge">
<title>Node5&#45;&gt;Node3</title>
<path fill="none" stroke="midnightblue" d="M292.05,-55.15C276.33,-56.9 259.58,-58.78 244.15,-60.5"/>
<polygon fill="midnightblue" stroke="midnightblue" points="292.66,-58.6 302.21,-54.01 291.88,-51.64 292.66,-58.6"/>
</g>
<!-- Node6&#45;&gt;Node5 -->
<g id="edge7" class="edge">
<title>Node6&#45;&gt;Node5</title>
<path fill="none" stroke="midnightblue" d="M475.1,-21.82C451.13,-27.18 423.18,-33.43 400.59,-38.48"/>
<polygon fill="midnightblue" stroke="midnightblue" points="476.11,-25.19 485.1,-19.59 474.58,-18.35 476.11,-25.19"/>
</g>
</g>
</svg>
