<?xml version="1.0" encoding="UTF-8" standalone="no"?>
<!DOCTYPE svg PUBLIC "-//W3C//DTD SVG 1.1//EN"
 "http://www.w3.org/Graphics/SVG/1.1/DTD/svg11.dtd">
<!-- Generated by graphviz version 2.46.1 (20210215.1649)
 -->
<!-- Title: xtb_readin::bool2int Pages: 1 -->
<svg width="700pt" height="252pt"
 viewBox="0.00 0.00 700.00 252.00" xmlns="http://www.w3.org/2000/svg" xmlns:xlink="http://www.w3.org/1999/xlink">
<g id="graph0" class="graph" transform="scale(1 1) rotate(0) translate(4 248)">
<title>xtb_readin::bool2int</title>
<polygon fill="white" stroke="transparent" points="-4,4 -4,-248 696,-248 696,4 -4,4"/>
<!-- Node1 -->
<g id="node1" class="node">
<title>Node1</title>
<g id="a_node1"><a xlink:title=" ">
<polygon fill="#bfbfbf" stroke="black" points="593,-118 593,-137 692,-137 692,-118 593,-118"/>
<text text-anchor="middle" x="642.5" y="-125" font-family="Helvetica,sans-Serif" font-size="10.00">xtb_readin::bool2int</text>
</a>
</g>
</g>
<!-- Node2 -->
<g id="node2" class="node">
<title>Node2</title>
<g id="a_node2"><a xlink:href="namespacextb__setmod.html#a8fd5325a5779e581e47b05a8455aeefb" target="_top" xlink:title=" ">
<polygon fill="white" stroke="black" points="436.5,-213.5 436.5,-243.5 547.5,-243.5 547.5,-213.5 436.5,-213.5"/>
<text text-anchor="start" x="444.5" y="-231.5" font-family="Helvetica,sans-Serif" font-size="10.00">xtb_setmod::write_set</text>
<text text-anchor="middle" x="492" y="-220.5" font-family="Helvetica,sans-Serif" font-size="10.00">_embedding</text>
</a>
</g>
</g>
<!-- Node1&#45;&gt;Node2 -->
<g id="edge1" class="edge">
<title>Node1&#45;&gt;Node2</title>
<path fill="none" stroke="midnightblue" d="M626.05,-144.61C610.11,-161.44 583.85,-186.95 557,-203.5 551.01,-207.19 544.38,-210.51 537.73,-213.43"/>
<polygon fill="midnightblue" stroke="midnightblue" points="628.77,-146.83 633.01,-137.12 623.64,-142.06 628.77,-146.83"/>
</g>
<!-- Node6 -->
<g id="node6" class="node">
<title>Node6</title>
<g id="a_node6"><a xlink:href="namespacextb__setmod.html#ac22bae775b842ecafa07aac45a68fd4f" target="_top" xlink:title=" ">
<polygon fill="white" stroke="black" points="427,-175 427,-194 557,-194 557,-175 427,-175"/>
<text text-anchor="middle" x="492" y="-182" font-family="Helvetica,sans-Serif" font-size="10.00">xtb_setmod::write_set_gfn</text>
</a>
</g>
</g>
<!-- Node1&#45;&gt;Node6 -->
<g id="edge5" class="edge">
<title>Node1&#45;&gt;Node6</title>
<path fill="none" stroke="midnightblue" d="M612.91,-141.51C596.73,-149.15 575.98,-158.45 557,-165.5 547.76,-168.93 537.61,-172.18 528.16,-174.98"/>
<polygon fill="midnightblue" stroke="midnightblue" points="614.83,-144.47 622.34,-137 611.81,-138.16 614.83,-144.47"/>
</g>
<!-- Node7 -->
<g id="node7" class="node">
<title>Node7</title>
<g id="a_node7"><a xlink:href="namespacextb__setmod.html#ab59428b5771a85c761f944fe5a166b03" target="_top" xlink:title=" ">
<polygon fill="white" stroke="black" points="427,-137 427,-156 557,-156 557,-137 427,-137"/>
<text text-anchor="middle" x="492" y="-144" font-family="Helvetica,sans-Serif" font-size="10.00">xtb_setmod::write_set_md</text>
</a>
</g>
</g>
<!-- Node1&#45;&gt;Node7 -->
<g id="edge7" class="edge">
<title>Node1&#45;&gt;Node7</title>
<path fill="none" stroke="midnightblue" d="M582.77,-135.01C574.35,-136.09 565.65,-137.2 557.13,-138.29"/>
<polygon fill="midnightblue" stroke="midnightblue" points="583.4,-138.46 592.88,-133.72 582.51,-131.52 583.4,-138.46"/>
</g>
<!-- Node8 -->
<g id="node8" class="node">
<title>Node8</title>
<g id="a_node8"><a xlink:href="namespacextb__setmod.html#a7b77c420bf4f3f911bb16f9fc6be634e" target="_top" xlink:title=" ">
<polygon fill="white" stroke="black" points="427,-99 427,-118 557,-118 557,-99 427,-99"/>
<text text-anchor="middle" x="492" y="-106" font-family="Helvetica,sans-Serif" font-size="10.00">xtb_setmod::write_set_opt</text>
</a>
</g>
</g>
<!-- Node1&#45;&gt;Node8 -->
<g id="edge9" class="edge">
<title>Node1&#45;&gt;Node8</title>
<path fill="none" stroke="midnightblue" d="M582.77,-119.99C574.35,-118.91 565.65,-117.8 557.13,-116.71"/>
<polygon fill="midnightblue" stroke="midnightblue" points="582.51,-123.48 592.88,-121.28 583.4,-116.54 582.51,-123.48"/>
</g>
<!-- Node9 -->
<g id="node9" class="node">
<title>Node9</title>
<g id="a_node9"><a xlink:href="namespacextb__setmod.html#a25ef508a73f07241bdd24f3d87662983" target="_top" xlink:title=" ">
<polygon fill="white" stroke="black" points="436.5,-49.5 436.5,-79.5 547.5,-79.5 547.5,-49.5 436.5,-49.5"/>
<text text-anchor="start" x="444.5" y="-67.5" font-family="Helvetica,sans-Serif" font-size="10.00">xtb_setmod::write_set</text>
<text text-anchor="middle" x="492" y="-56.5" font-family="Helvetica,sans-Serif" font-size="10.00">_siman</text>
</a>
</g>
</g>
<!-- Node1&#45;&gt;Node9 -->
<g id="edge11" class="edge">
<title>Node1&#45;&gt;Node9</title>
<path fill="none" stroke="midnightblue" d="M611.7,-113.66C595.59,-106.29 575.3,-97.18 557,-89.5 549.08,-86.18 540.55,-82.74 532.39,-79.53"/>
<polygon fill="midnightblue" stroke="midnightblue" points="610.59,-117 621.14,-118 613.51,-110.64 610.59,-117"/>
</g>
<!-- Node10 -->
<g id="node10" class="node">
<title>Node10</title>
<g id="a_node10"><a xlink:href="namespacextb__setmod.html#a9a5fb0977050ae85a922b9c41859c617" target="_top" xlink:title=" ">
<polygon fill="white" stroke="black" points="436.5,-0.5 436.5,-30.5 547.5,-30.5 547.5,-0.5 436.5,-0.5"/>
<text text-anchor="start" x="444.5" y="-18.5" font-family="Helvetica,sans-Serif" font-size="10.00">xtb_setmod::write_set</text>
<text text-anchor="middle" x="492" y="-7.5" font-family="Helvetica,sans-Serif" font-size="10.00">_write</text>
</a>
</g>
</g>
<!-- Node1&#45;&gt;Node10 -->
<g id="edge13" class="edge">
<title>Node1&#45;&gt;Node10</title>
<path fill="none" stroke="midnightblue" d="M628.21,-109.84C612.88,-90.54 586.05,-59.79 557,-40.5 551.34,-36.74 545.02,-33.41 538.63,-30.52"/>
<polygon fill="midnightblue" stroke="midnightblue" points="625.51,-112.07 634.4,-117.82 631.04,-107.78 625.51,-112.07"/>
</g>
<!-- Node3 -->
<g id="node3" class="node">
<title>Node3</title>
<g id="a_node3"><a xlink:href="namespacextb__setmod.html#a231f7ceb2d188fd5e2b52effdca24ce9" target="_top" xlink:title=" ">
<polygon fill="white" stroke="black" points="280,-118 280,-137 391,-137 391,-118 280,-118"/>
<text text-anchor="middle" x="335.5" y="-125" font-family="Helvetica,sans-Serif" font-size="10.00">xtb_setmod::write_set</text>
</a>
</g>
</g>
<!-- Node2&#45;&gt;Node3 -->
<g id="edge2" class="edge">
<title>Node2&#45;&gt;Node3</title>
<path fill="none" stroke="midnightblue" d="M437.56,-209.18C433.92,-207.39 430.37,-205.5 427,-203.5 394.18,-184.03 361.28,-152.73 345.74,-137.07"/>
<polygon fill="midnightblue" stroke="midnightblue" points="436.18,-212.4 446.72,-213.4 439.1,-206.04 436.18,-212.4"/>
</g>
<!-- Node4 -->
<g id="node4" class="node">
<title>Node4</title>
<g id="a_node4"><a xlink:href="namespacextb__prog__main.html#a92b3b61ee04235e6343f652095682529" target="_top" xlink:title=" ">
<polygon fill="white" stroke="black" points="126,-118 126,-137 244,-137 244,-118 126,-118"/>
<text text-anchor="middle" x="185" y="-125" font-family="Helvetica,sans-Serif" font-size="10.00">xtb_prog_main::xtbmain</text>
</a>
</g>
</g>
<!-- Node3&#45;&gt;Node4 -->
<g id="edge3" class="edge">
<title>Node3&#45;&gt;Node4</title>
<path fill="none" stroke="midnightblue" d="M269.46,-127.5C261.03,-127.5 252.44,-127.5 244.14,-127.5"/>
<polygon fill="midnightblue" stroke="midnightblue" points="269.63,-131 279.63,-127.5 269.63,-124 269.63,-131"/>
</g>
<!-- Node5 -->
<g id="node5" class="node">
<title>Node5</title>
<g id="a_node5"><a xlink:href="primary_8f90.html#a2a67903cf5be605c5b6d3c362c6a3c5c" target="_top" xlink:title="The primary driver for the xtb program package.">
<polygon fill="white" stroke="black" points="0,-118 0,-137 90,-137 90,-118 0,-118"/>
<text text-anchor="middle" x="45" y="-125" font-family="Helvetica,sans-Serif" font-size="10.00">xtb_prog_primary</text>
</a>
</g>
</g>
<!-- Node4&#45;&gt;Node5 -->
<g id="edge4" class="edge">
<title>Node4&#45;&gt;Node5</title>
<path fill="none" stroke="midnightblue" d="M115.73,-127.5C107.06,-127.5 98.37,-127.5 90.22,-127.5"/>
<polygon fill="midnightblue" stroke="midnightblue" points="115.88,-131 125.88,-127.5 115.88,-124 115.88,-131"/>
</g>
<!-- Node6&#45;&gt;Node3 -->
<g id="edge6" class="edge">
<title>Node6&#45;&gt;Node3</title>
<path fill="none" stroke="midnightblue" d="M446.65,-172.02C440.03,-169.96 433.31,-167.75 427,-165.5 402.77,-156.84 375.64,-145.18 357.46,-137.07"/>
<polygon fill="midnightblue" stroke="midnightblue" points="445.65,-175.37 456.23,-174.93 447.68,-168.67 445.65,-175.37"/>
</g>
<!-- Node7&#45;&gt;Node3 -->
<g id="edge8" class="edge">
<title>Node7&#45;&gt;Node3</title>
<path fill="none" stroke="midnightblue" d="M416.81,-137.38C408.25,-136.32 399.63,-135.26 391.39,-134.25"/>
<polygon fill="midnightblue" stroke="midnightblue" points="416.47,-140.86 426.82,-138.61 417.32,-133.91 416.47,-140.86"/>
</g>
<!-- Node8&#45;&gt;Node3 -->
<g id="edge10" class="edge">
<title>Node8&#45;&gt;Node3</title>
<path fill="none" stroke="midnightblue" d="M416.81,-117.62C408.25,-118.68 399.63,-119.74 391.39,-120.75"/>
<polygon fill="midnightblue" stroke="midnightblue" points="417.32,-121.09 426.82,-116.39 416.47,-114.14 417.32,-121.09"/>
</g>
<!-- Node9&#45;&gt;Node3 -->
<g id="edge12" class="edge">
<title>Node9&#45;&gt;Node3</title>
<path fill="none" stroke="midnightblue" d="M442.59,-83.26C437.32,-85.35 432.04,-87.46 427,-89.5 403.63,-98.97 377.03,-110.19 358.75,-117.97"/>
<polygon fill="midnightblue" stroke="midnightblue" points="444,-86.47 452.02,-79.55 441.43,-79.96 444,-86.47"/>
</g>
<!-- Node10&#45;&gt;Node3 -->
<g id="edge14" class="edge">
<title>Node10&#45;&gt;Node3</title>
<path fill="none" stroke="midnightblue" d="M436.75,-34.9C433.37,-36.65 430.1,-38.52 427,-40.5 391.93,-62.93 358.81,-100.32 344.26,-117.86"/>
<polygon fill="midnightblue" stroke="midnightblue" points="438.33,-38.03 445.83,-30.54 435.3,-31.72 438.33,-38.03"/>
</g>
</g>
</svg>
