<?xml version="1.0" encoding="UTF-8" standalone="no"?>
<!DOCTYPE svg PUBLIC "-//W3C//DTD SVG 1.1//EN"
 "http://www.w3.org/Graphics/SVG/1.1/DTD/svg11.dtd">
<!-- Generated by graphviz version 2.46.1 (20210215.1649)
 -->
<!-- Title: prob_module::prob_metadynamic Pages: 1 -->
<!--zoomable 508 -->
<svg id="main" version="1.1" xmlns="http://www.w3.org/2000/svg" xmlns:xlink="http://www.w3.org/1999/xlink" xml:space="preserve" onload="init(evt)">
<style type="text/css"><![CDATA[
.edge:hover path { stroke: red; }
.edge:hover polygon { stroke: red; fill: red; }
]]></style>
<script type="text/javascript"><![CDATA[
var edges = document.getElementsByTagName('g');
if (edges && edges.length) {
  for (var i=0;i<edges.length;i++) {
    if (edges[i].id.substr(0,4)=='edge') {
      edges[i].setAttribute('class','edge');
    }
  }
}
]]></script>
        <defs>
                <circle id="rim" cx="0" cy="0" r="7"/>
                <circle id="rim2" cx="0" cy="0" r="3.5"/>
                <g id="zoomPlus">
                        <use xlink:href="#rim" fill="#404040">
                                <set attributeName="fill" to="#808080" begin="zoomplus.mouseover" end="zoomplus.mouseout"/>
                        </use>
                        <path d="M-4,0h8M0,-4v8" fill="none" stroke="white" stroke-width="1.5" pointer-events="none"/>
                </g>
                <g id="zoomMin">
                        <use xlink:href="#rim" fill="#404040">
                                <set attributeName="fill" to="#808080" begin="zoomminus.mouseover" end="zoomminus.mouseout"/>
                        </use>
                        <path d="M-4,0h8" fill="none" stroke="white" stroke-width="1.5" pointer-events="none"/>
                </g>
                <g id="dirArrow">
                        <path fill="none" stroke="white" stroke-width="1.5" d="M0,-3.0v7 M-2.5,-0.5L0,-3.0L2.5,-0.5"/>
                </g>
               <g id="resetDef">
                       <use xlink:href="#rim2" fill="#404040">
                               <set attributeName="fill" to="#808080" begin="reset.mouseover" end="reset.mouseout"/>
                       </use>
               </g>
        </defs>

<script type="text/javascript">
var viewWidth = 1367;
var viewHeight = 508;
var sectionId = 'dynsection-5';
</script>
<script xlink:href="svgpan.js"/>
<svg id="graph" class="graph">
<g id="viewport">
<title>prob_module::prob_metadynamic</title>
<polygon fill="white" stroke="transparent" points="-4,4 -4,-503.5 1363,-503.5 1363,4 -4,4"/>
<!-- Node1 -->
<g id="node1" class="node">
<title>Node1</title>
<g id="a_node1"><a xlink:title=" ">
<polygon fill="#bfbfbf" stroke="black" points="1201,-126 1201,-145 1359,-145 1359,-126 1201,-126"/>
<text text-anchor="middle" x="1280" y="-133" font-family="Helvetica,sans-Serif" font-size="10.00">prob_module::prob_metadynamic</text>
</a>
</g>
</g>
<!-- Node2 -->
<g id="node2" class="node">
<title>Node2</title>
<g id="a_node2"><a xlink:href="constr_8f90.html#a32820f74383b0f93c743faceb8385214" target="_top" xlink:title=" ">
<polygon fill="white" stroke="black" points="1062.5,-264 1062.5,-283 1127.5,-283 1127.5,-264 1062.5,-264"/>
<text text-anchor="middle" x="1095" y="-271" font-family="Helvetica,sans-Serif" font-size="10.00">constrhess</text>
</a>
</g>
</g>
<!-- Node1&#45;&gt;Node2 -->
<g id="edge1" class="edge">
<title>Node1&#45;&gt;Node2</title>
<path fill="none" stroke="midnightblue" d="M1257.74,-151.53C1219.34,-180.49 1139.52,-240.68 1108.61,-263.99"/>
<polygon fill="midnightblue" stroke="midnightblue" points="1260.25,-154.02 1266.13,-145.2 1256.04,-148.43 1260.25,-154.02"/>
</g>
<!-- Node18 -->
<g id="node18" class="node">
<title>Node18</title>
<g id="a_node18"><a xlink:href="namespacextb__dynamic.html#adbb00c924fbe26c7a6945fed202881e1" target="_top" xlink:title=" ">
<polygon fill="white" stroke="black" points="595.5,-186 595.5,-205 684.5,-205 684.5,-186 595.5,-186"/>
<text text-anchor="middle" x="640" y="-193" font-family="Helvetica,sans-Serif" font-size="10.00">xtb_dynamic::md</text>
</a>
</g>
</g>
<!-- Node1&#45;&gt;Node18 -->
<g id="edge26" class="edge">
<title>Node1&#45;&gt;Node18</title>
<path fill="none" stroke="midnightblue" d="M1249.17,-149.11C1226.58,-158.7 1194.5,-170.8 1165,-176.5 989.59,-210.37 775.18,-203.48 684.64,-198.41"/>
<polygon fill="midnightblue" stroke="midnightblue" points="1250.75,-152.24 1258.54,-145.05 1247.97,-145.81 1250.75,-152.24"/>
</g>
<!-- Node19 -->
<g id="node19" class="node">
<title>Node19</title>
<g id="a_node19"><a xlink:href="namespacextb__hessian.html#aeb3ba56bd4b7f589649c764b13382bfd" target="_top" xlink:title=" ">
<polygon fill="white" stroke="black" points="1025,-148 1025,-167 1165,-167 1165,-148 1025,-148"/>
<text text-anchor="middle" x="1095" y="-155" font-family="Helvetica,sans-Serif" font-size="10.00">xtb_hessian::numhess_rmsd</text>
</a>
</g>
</g>
<!-- Node1&#45;&gt;Node19 -->
<g id="edge29" class="edge">
<title>Node1&#45;&gt;Node19</title>
<path fill="none" stroke="midnightblue" d="M1190.81,-146.1C1182.21,-147.14 1173.58,-148.17 1165.21,-149.18"/>
<polygon fill="midnightblue" stroke="midnightblue" points="1191.35,-149.56 1200.86,-144.89 1190.51,-142.61 1191.35,-149.56"/>
</g>
<!-- Node21 -->
<g id="node21" class="node">
<title>Node21</title>
<g id="a_node21"><a xlink:href="namespacextb__gfnff__calculator.html#a8775e737196933e41e48728956ddf782" target="_top" xlink:title=" ">
<polygon fill="white" stroke="black" points="1044.5,-98.5 1044.5,-128.5 1145.5,-128.5 1145.5,-98.5 1044.5,-98.5"/>
<text text-anchor="start" x="1052.5" y="-116.5" font-family="Helvetica,sans-Serif" font-size="10.00">xtb_gfnff_calculator</text>
<text text-anchor="middle" x="1095" y="-105.5" font-family="Helvetica,sans-Serif" font-size="10.00">::singlepoint</text>
</a>
</g>
</g>
<!-- Node1&#45;&gt;Node21 -->
<g id="edge32" class="edge">
<title>Node1&#45;&gt;Node21</title>
<path fill="none" stroke="midnightblue" d="M1190.7,-124.88C1175.18,-123.02 1159.54,-121.14 1145.56,-119.46"/>
<polygon fill="midnightblue" stroke="midnightblue" points="1190.51,-128.39 1200.86,-126.11 1191.35,-121.44 1190.51,-128.39"/>
</g>
<!-- Node22 -->
<g id="node22" class="node">
<title>Node22</title>
<g id="a_node22"><a xlink:href="namespacextb__type__dummycalc.html#a28a36738c316fb4a0655328844e94957" target="_top" xlink:title=" ">
<polygon fill="white" stroke="black" points="1041.5,-49.5 1041.5,-79.5 1148.5,-79.5 1148.5,-49.5 1041.5,-49.5"/>
<text text-anchor="start" x="1049.5" y="-67.5" font-family="Helvetica,sans-Serif" font-size="10.00">xtb_type_dummycalc</text>
<text text-anchor="middle" x="1095" y="-56.5" font-family="Helvetica,sans-Serif" font-size="10.00">::singlepoint</text>
</a>
</g>
</g>
<!-- Node1&#45;&gt;Node22 -->
<g id="edge33" class="edge">
<title>Node1&#45;&gt;Node22</title>
<path fill="none" stroke="midnightblue" d="M1247.37,-121.9C1224.6,-112.24 1193.07,-99.16 1165,-88.5 1157.17,-85.53 1148.8,-82.49 1140.67,-79.63"/>
<polygon fill="midnightblue" stroke="midnightblue" points="1246.29,-125.24 1256.87,-125.94 1249.04,-118.8 1246.29,-125.24"/>
</g>
<!-- Node23 -->
<g id="node23" class="node">
<title>Node23</title>
<g id="a_node23"><a xlink:href="namespacextb__xtb__calculator.html#a75c96263c235c99dfeeda3e865f9898c" target="_top" xlink:title=" ">
<polygon fill="white" stroke="black" points="1047.5,-0.5 1047.5,-30.5 1142.5,-30.5 1142.5,-0.5 1047.5,-0.5"/>
<text text-anchor="start" x="1055.5" y="-18.5" font-family="Helvetica,sans-Serif" font-size="10.00">xtb_xtb_calculator</text>
<text text-anchor="middle" x="1095" y="-7.5" font-family="Helvetica,sans-Serif" font-size="10.00">::singlepoint</text>
</a>
</g>
</g>
<!-- Node1&#45;&gt;Node23 -->
<g id="edge34" class="edge">
<title>Node1&#45;&gt;Node23</title>
<path fill="none" stroke="midnightblue" d="M1263.06,-118.72C1242.25,-97.66 1203.89,-61.63 1165,-39.5 1158.06,-35.55 1150.35,-32.09 1142.68,-29.12"/>
<polygon fill="midnightblue" stroke="midnightblue" points="1260.65,-121.27 1270.14,-126 1265.67,-116.39 1260.65,-121.27"/>
</g>
<!-- Node3 -->
<g id="node3" class="node">
<title>Node3</title>
<g id="a_node3"><a xlink:href="namespacextb__optimizer.html#a9fc9ad9955c0a2ef4872d25495d02901" target="_top" xlink:title=" ">
<polygon fill="white" stroke="black" points="876,-303 876,-322 989,-322 989,-303 876,-303"/>
<text text-anchor="middle" x="932.5" y="-310" font-family="Helvetica,sans-Serif" font-size="10.00">xtb_optimizer::modhes</text>
</a>
</g>
</g>
<!-- Node2&#45;&gt;Node3 -->
<g id="edge2" class="edge">
<title>Node2&#45;&gt;Node3</title>
<path fill="none" stroke="midnightblue" d="M1052.53,-283.58C1027.96,-289.55 997,-297.07 972.82,-302.95"/>
<polygon fill="midnightblue" stroke="midnightblue" points="1053.4,-286.97 1062.29,-281.21 1051.75,-280.17 1053.4,-286.97"/>
</g>
<!-- Node4 -->
<g id="node4" class="node">
<title>Node4</title>
<g id="a_node4"><a xlink:href="namespacextb__optimizer.html#a1743159550358c92fb2761af80e15285" target="_top" xlink:title=" ">
<polygon fill="white" stroke="black" points="731.5,-372 731.5,-391 838.5,-391 838.5,-372 731.5,-372"/>
<text text-anchor="middle" x="785" y="-379" font-family="Helvetica,sans-Serif" font-size="10.00">xtb_optimizer::ancopt</text>
</a>
</g>
</g>
<!-- Node3&#45;&gt;Node4 -->
<g id="edge3" class="edge">
<title>Node3&#45;&gt;Node4</title>
<path fill="none" stroke="midnightblue" d="M906.95,-327.33C888.83,-337.93 863.37,-352.08 840,-362.5 832.28,-365.94 823.74,-369.19 815.77,-372"/>
<polygon fill="midnightblue" stroke="midnightblue" points="908.87,-330.26 915.7,-322.16 905.31,-324.24 908.87,-330.26"/>
</g>
<!-- Node16 -->
<g id="node16" class="node">
<title>Node16</title>
<g id="a_node16"><a xlink:href="namespacextb__relaxation__engine.html#a930f6aac4b13eab0de82f2b71bcde96b" target="_top" xlink:title="frontend implementation of the fast inertial relaxation engine">
<polygon fill="white" stroke="black" points="730,-322.5 730,-352.5 840,-352.5 840,-322.5 730,-322.5"/>
<text text-anchor="start" x="738" y="-340.5" font-family="Helvetica,sans-Serif" font-size="10.00">xtb_relaxation_engine</text>
<text text-anchor="middle" x="785" y="-329.5" font-family="Helvetica,sans-Serif" font-size="10.00">::fire</text>
</a>
</g>
</g>
<!-- Node3&#45;&gt;Node16 -->
<g id="edge22" class="edge">
<title>Node3&#45;&gt;Node16</title>
<path fill="none" stroke="midnightblue" d="M866.06,-323.74C857.45,-325.22 848.7,-326.73 840.31,-328.17"/>
<polygon fill="midnightblue" stroke="midnightblue" points="866.81,-327.17 876.08,-322.02 865.63,-320.27 866.81,-327.17"/>
</g>
<!-- Node17 -->
<g id="node17" class="node">
<title>Node17</title>
<g id="a_node17"><a xlink:href="namespacextb__relaxation__engine.html#a93ca131c43cfa21276f1bc353c189423" target="_top" xlink:title="frontend implementation of the low memory/linear scaling (by taste)">
<polygon fill="white" stroke="black" points="730,-273.5 730,-303.5 840,-303.5 840,-273.5 730,-273.5"/>
<text text-anchor="start" x="738" y="-291.5" font-family="Helvetica,sans-Serif" font-size="10.00">xtb_relaxation_engine</text>
<text text-anchor="middle" x="785" y="-280.5" font-family="Helvetica,sans-Serif" font-size="10.00">::l_ancopt</text>
</a>
</g>
</g>
<!-- Node3&#45;&gt;Node17 -->
<g id="edge24" class="edge">
<title>Node3&#45;&gt;Node17</title>
<path fill="none" stroke="midnightblue" d="M865.67,-301.64C857.09,-300.23 848.37,-298.79 840.01,-297.41"/>
<polygon fill="midnightblue" stroke="midnightblue" points="865.23,-305.12 875.66,-303.29 866.36,-298.21 865.23,-305.12"/>
</g>
<!-- Node5 -->
<g id="node5" class="node">
<title>Node5</title>
<g id="a_node5"><a xlink:href="namespacextb__biaspath.html#a17ea22b101e578a3df8d2b58b96811a5" target="_top" xlink:title=" ">
<polygon fill="white" stroke="black" points="280,-480 280,-499 398,-499 398,-480 280,-480"/>
<text text-anchor="middle" x="339" y="-487" font-family="Helvetica,sans-Serif" font-size="10.00">xtb_biaspath::bias_path</text>
</a>
</g>
</g>
<!-- Node4&#45;&gt;Node5 -->
<g id="edge4" class="edge">
<title>Node4&#45;&gt;Node5</title>
<path fill="none" stroke="midnightblue" d="M752.52,-394.96C708.19,-413.36 624.42,-446.06 550,-463.5 499.39,-475.36 440.57,-482.05 398.08,-485.66"/>
<polygon fill="midnightblue" stroke="midnightblue" points="754.01,-398.14 761.89,-391.05 751.31,-391.68 754.01,-398.14"/>
</g>
<!-- Node8 -->
<g id="node8" class="node">
<title>Node8</title>
<g id="a_node8"><a xlink:href="namespacextb__geoopt.html#a1f0513294f2237b94f355cc4dc5dd867" target="_top" xlink:title=" ">
<polygon fill="white" stroke="black" points="586,-322.5 586,-352.5 694,-352.5 694,-322.5 586,-322.5"/>
<text text-anchor="start" x="594" y="-340.5" font-family="Helvetica,sans-Serif" font-size="10.00">xtb_geoopt::geometry</text>
<text text-anchor="middle" x="640" y="-329.5" font-family="Helvetica,sans-Serif" font-size="10.00">_optimization</text>
</a>
</g>
</g>
<!-- Node4&#45;&gt;Node8 -->
<g id="edge7" class="edge">
<title>Node4&#45;&gt;Node8</title>
<path fill="none" stroke="midnightblue" d="M743.05,-368.9C726.5,-363.81 707.25,-357.88 689.96,-352.57"/>
<polygon fill="midnightblue" stroke="midnightblue" points="742.38,-372.36 752.97,-371.95 744.44,-365.67 742.38,-372.36"/>
</g>
<!-- Node6 -->
<g id="node6" class="node">
<title>Node6</title>
<g id="a_node6"><a xlink:href="namespacextb__prog__main.html#a92b3b61ee04235e6343f652095682529" target="_top" xlink:title=" ">
<polygon fill="white" stroke="black" points="126,-309 126,-328 244,-328 244,-309 126,-309"/>
<text text-anchor="middle" x="185" y="-316" font-family="Helvetica,sans-Serif" font-size="10.00">xtb_prog_main::xtbmain</text>
</a>
</g>
</g>
<!-- Node5&#45;&gt;Node6 -->
<g id="edge5" class="edge">
<title>Node5&#45;&gt;Node6</title>
<path fill="none" stroke="midnightblue" d="M295.6,-475.58C290.03,-472.74 284.66,-469.4 280,-465.5 231.92,-425.24 200.14,-353.98 189.73,-328.17"/>
<polygon fill="midnightblue" stroke="midnightblue" points="294.5,-478.92 305.05,-479.89 297.4,-472.55 294.5,-478.92"/>
</g>
<!-- Node7 -->
<g id="node7" class="node">
<title>Node7</title>
<g id="a_node7"><a xlink:href="primary_8f90.html#a2a67903cf5be605c5b6d3c362c6a3c5c" target="_top" xlink:title="The primary driver for the xtb program package.">
<polygon fill="white" stroke="black" points="0,-309 0,-328 90,-328 90,-309 0,-309"/>
<text text-anchor="middle" x="45" y="-316" font-family="Helvetica,sans-Serif" font-size="10.00">xtb_prog_primary</text>
</a>
</g>
</g>
<!-- Node6&#45;&gt;Node7 -->
<g id="edge6" class="edge">
<title>Node6&#45;&gt;Node7</title>
<path fill="none" stroke="midnightblue" d="M115.73,-318.5C107.06,-318.5 98.37,-318.5 90.22,-318.5"/>
<polygon fill="midnightblue" stroke="midnightblue" points="115.88,-322 125.88,-318.5 115.88,-315 115.88,-322"/>
</g>
<!-- Node8&#45;&gt;Node6 -->
<g id="edge21" class="edge">
<title>Node8&#45;&gt;Node6</title>
<path fill="none" stroke="midnightblue" d="M625.03,-361.2C609.87,-384.32 583.32,-418.06 550,-432.5 439.9,-480.22 388.54,-483.68 280,-432.5 232.9,-410.29 201.39,-351.62 190.36,-328.28"/>
<polygon fill="midnightblue" stroke="midnightblue" points="628.06,-362.95 630.45,-352.62 622.15,-359.21 628.06,-362.95"/>
</g>
<!-- Node9 -->
<g id="node9" class="node">
<title>Node9</title>
<g id="a_node9"><a xlink:href="namespacextb__kopt.html#ada4ab70832f563f46c8ffc8cea64c78b" target="_top" xlink:title=" ">
<polygon fill="white" stroke="black" points="443,-404 443,-423 541,-423 541,-404 443,-404"/>
<text text-anchor="middle" x="492" y="-411" font-family="Helvetica,sans-Serif" font-size="10.00">xtb_kopt::get_rmsd</text>
</a>
</g>
</g>
<!-- Node8&#45;&gt;Node9 -->
<g id="edge8" class="edge">
<title>Node8&#45;&gt;Node9</title>
<path fill="none" stroke="midnightblue" d="M606.17,-358.06C589.61,-368.08 569.04,-379.98 550,-389.5 539.63,-394.69 527.86,-399.77 517.73,-403.91"/>
<polygon fill="midnightblue" stroke="midnightblue" points="608.21,-360.92 614.92,-352.72 604.56,-354.94 608.21,-360.92"/>
</g>
<!-- Node11 -->
<g id="node11" class="node">
<title>Node11</title>
<g id="a_node11"><a xlink:href="namespacextb__mdoptim.html#ab0ba2195163cd6794115b99516ba5316" target="_top" xlink:title=" ">
<polygon fill="white" stroke="black" points="287,-366 287,-385 391,-385 391,-366 287,-366"/>
<text text-anchor="middle" x="339" y="-373" font-family="Helvetica,sans-Serif" font-size="10.00">xtb_mdoptim::mdopt</text>
</a>
</g>
</g>
<!-- Node8&#45;&gt;Node11 -->
<g id="edge11" class="edge">
<title>Node8&#45;&gt;Node11</title>
<path fill="none" stroke="midnightblue" d="M575.57,-352.01C567.01,-353.69 558.31,-355.24 550,-356.5 496.07,-364.67 433.78,-369.76 391.13,-372.6"/>
<polygon fill="midnightblue" stroke="midnightblue" points="576.43,-355.41 585.54,-350 575.04,-348.55 576.43,-355.41"/>
</g>
<!-- Node12 -->
<g id="node12" class="node">
<title>Node12</title>
<g id="a_node12"><a xlink:href="namespacextb__modef.html#a39c4cb408b8b02afb7bf83a1d7f13de3" target="_top" xlink:title=" ">
<polygon fill="white" stroke="black" points="434,-328 434,-347 550,-347 550,-328 434,-328"/>
<text text-anchor="middle" x="492" y="-335" font-family="Helvetica,sans-Serif" font-size="10.00">xtb_modef::modefollow</text>
</a>
</g>
</g>
<!-- Node8&#45;&gt;Node12 -->
<g id="edge13" class="edge">
<title>Node8&#45;&gt;Node12</title>
<path fill="none" stroke="midnightblue" d="M575.69,-337.5C567.24,-337.5 558.61,-337.5 550.27,-337.5"/>
<polygon fill="midnightblue" stroke="midnightblue" points="575.88,-341 585.88,-337.5 575.88,-334 575.88,-341"/>
</g>
<!-- Node13 -->
<g id="node13" class="node">
<title>Node13</title>
<g id="a_node13"><a xlink:href="namespacextb__scan.html#abef8f8d0fa299e9e2caf823f3672f14a" target="_top" xlink:title=" ">
<polygon fill="white" stroke="black" points="280.5,-290 280.5,-309 397.5,-309 397.5,-290 280.5,-290"/>
<text text-anchor="middle" x="339" y="-297" font-family="Helvetica,sans-Serif" font-size="10.00">xtb_scan::relaxed_scan</text>
</a>
</g>
</g>
<!-- Node8&#45;&gt;Node13 -->
<g id="edge15" class="edge">
<title>Node8&#45;&gt;Node13</title>
<path fill="none" stroke="midnightblue" d="M575.57,-322.99C567.01,-321.31 558.31,-319.76 550,-318.5 498.78,-310.74 440.03,-305.76 397.71,-302.85"/>
<polygon fill="midnightblue" stroke="midnightblue" points="575.04,-326.45 585.54,-325 576.43,-319.59 575.04,-326.45"/>
</g>
<!-- Node14 -->
<g id="node14" class="node">
<title>Node14</title>
<g id="a_node14"><a xlink:href="namespacextb__screening.html#a7f4004ff0e65127a38b038f0a7cdcc84" target="_top" xlink:title=" ">
<polygon fill="white" stroke="black" points="437,-252 437,-271 547,-271 547,-252 437,-252"/>
<text text-anchor="middle" x="492" y="-259" font-family="Helvetica,sans-Serif" font-size="10.00">xtb_screening::screen</text>
</a>
</g>
</g>
<!-- Node8&#45;&gt;Node14 -->
<g id="edge17" class="edge">
<title>Node8&#45;&gt;Node14</title>
<path fill="none" stroke="midnightblue" d="M606.17,-316.94C589.61,-306.92 569.04,-295.02 550,-285.5 539.63,-280.31 527.86,-275.23 517.73,-271.09"/>
<polygon fill="midnightblue" stroke="midnightblue" points="604.56,-320.06 614.92,-322.28 608.21,-314.08 604.56,-320.06"/>
</g>
<!-- Node15 -->
<g id="node15" class="node">
<title>Node15</title>
<g id="a_node15"><a xlink:href="namespacextb__gfnff__convert.html#adf399b47b9f2a8364327d9d5c38cb2b8" target="_top" xlink:title=" ">
<polygon fill="white" stroke="black" points="444.5,-202.5 444.5,-232.5 539.5,-232.5 539.5,-202.5 444.5,-202.5"/>
<text text-anchor="start" x="452.5" y="-220.5" font-family="Helvetica,sans-Serif" font-size="10.00">xtb_gfnff_convert::</text>
<text text-anchor="middle" x="492" y="-209.5" font-family="Helvetica,sans-Serif" font-size="10.00">struc_convert</text>
</a>
</g>
</g>
<!-- Node8&#45;&gt;Node15 -->
<g id="edge19" class="edge">
<title>Node8&#45;&gt;Node15</title>
<path fill="none" stroke="midnightblue" d="M621.63,-314.13C605.09,-293.17 578.54,-262.69 550,-242.5 544.8,-238.82 538.96,-235.51 533.07,-232.59"/>
<polygon fill="midnightblue" stroke="midnightblue" points="618.98,-316.43 627.87,-322.2 624.52,-312.15 618.98,-316.43"/>
</g>
<!-- Node10 -->
<g id="node10" class="node">
<title>Node10</title>
<g id="a_node10"><a xlink:href="namespacextb__kopt.html#aed50b40106367857ab2d0bf3a109f62b" target="_top" xlink:title=" ">
<polygon fill="white" stroke="black" points="291.5,-404 291.5,-423 386.5,-423 386.5,-404 291.5,-404"/>
<text text-anchor="middle" x="339" y="-411" font-family="Helvetica,sans-Serif" font-size="10.00">xtb_kopt::get_kopt</text>
</a>
</g>
</g>
<!-- Node9&#45;&gt;Node10 -->
<g id="edge9" class="edge">
<title>Node9&#45;&gt;Node10</title>
<path fill="none" stroke="midnightblue" d="M432.49,-413.5C417.32,-413.5 401.18,-413.5 386.7,-413.5"/>
<polygon fill="midnightblue" stroke="midnightblue" points="432.81,-417 442.81,-413.5 432.81,-410 432.81,-417"/>
</g>
<!-- Node10&#45;&gt;Node6 -->
<g id="edge10" class="edge">
<title>Node10&#45;&gt;Node6</title>
<path fill="none" stroke="midnightblue" d="M292.43,-400.35C288.14,-398.59 283.93,-396.64 280,-394.5 245.53,-375.75 211.26,-343.84 195.29,-328"/>
<polygon fill="midnightblue" stroke="midnightblue" points="291.28,-403.66 301.88,-403.92 293.76,-397.11 291.28,-403.66"/>
</g>
<!-- Node11&#45;&gt;Node6 -->
<g id="edge12" class="edge">
<title>Node11&#45;&gt;Node6</title>
<path fill="none" stroke="midnightblue" d="M303.16,-362.43C275.22,-351.96 236.65,-337.49 211.52,-328.07"/>
<polygon fill="midnightblue" stroke="midnightblue" points="301.97,-365.73 312.56,-365.96 304.42,-359.17 301.97,-365.73"/>
</g>
<!-- Node12&#45;&gt;Node6 -->
<g id="edge14" class="edge">
<title>Node12&#45;&gt;Node6</title>
<path fill="none" stroke="midnightblue" d="M423.86,-333.32C370.03,-329.96 295.28,-325.31 244.03,-322.11"/>
<polygon fill="midnightblue" stroke="midnightblue" points="423.79,-336.82 433.99,-333.95 424.23,-329.83 423.79,-336.82"/>
</g>
<!-- Node13&#45;&gt;Node6 -->
<g id="edge16" class="edge">
<title>Node13&#45;&gt;Node6</title>
<path fill="none" stroke="midnightblue" d="M270.07,-307.99C261.45,-309.07 252.69,-310.16 244.24,-311.22"/>
<polygon fill="midnightblue" stroke="midnightblue" points="270.61,-311.45 280.1,-306.74 269.74,-304.5 270.61,-311.45"/>
</g>
<!-- Node14&#45;&gt;Node6 -->
<g id="edge18" class="edge">
<title>Node14&#45;&gt;Node6</title>
<path fill="none" stroke="midnightblue" d="M426.81,-262.4C384.59,-264.17 328.39,-268.81 280,-280.5 252.97,-287.03 223.5,-299.97 204.89,-308.93"/>
<polygon fill="midnightblue" stroke="midnightblue" points="427.1,-265.89 436.96,-262.01 426.84,-258.89 427.1,-265.89"/>
</g>
<!-- Node15&#45;&gt;Node6 -->
<g id="edge20" class="edge">
<title>Node15&#45;&gt;Node6</title>
<path fill="none" stroke="midnightblue" d="M434.26,-223.12C390.85,-228.76 330.12,-239.57 280,-259.5 248.13,-272.17 215.13,-295.75 197.99,-308.94"/>
<polygon fill="midnightblue" stroke="midnightblue" points="434.86,-226.57 444.35,-221.86 433.99,-219.63 434.86,-226.57"/>
</g>
<!-- Node16&#45;&gt;Node8 -->
<g id="edge23" class="edge">
<title>Node16&#45;&gt;Node8</title>
<path fill="none" stroke="midnightblue" d="M719.93,-337.5C711.33,-337.5 702.58,-337.5 694.19,-337.5"/>
<polygon fill="midnightblue" stroke="midnightblue" points="719.94,-341 729.94,-337.5 719.94,-334 719.94,-341"/>
</g>
<!-- Node17&#45;&gt;Node8 -->
<g id="edge25" class="edge">
<title>Node17&#45;&gt;Node8</title>
<path fill="none" stroke="midnightblue" d="M730.33,-306.89C715.44,-311.99 699.45,-317.47 685.17,-322.36"/>
<polygon fill="midnightblue" stroke="midnightblue" points="731.6,-310.15 739.93,-303.6 729.33,-303.53 731.6,-310.15"/>
</g>
<!-- Node18&#45;&gt;Node6 -->
<g id="edge28" class="edge">
<title>Node18&#45;&gt;Node6</title>
<path fill="none" stroke="midnightblue" d="M585.27,-187.05C511.61,-178.17 377.35,-171.93 280,-224.5 240.2,-245.99 206.24,-289.68 192.51,-308.97"/>
<polygon fill="midnightblue" stroke="midnightblue" points="584.89,-190.53 595.25,-188.31 585.77,-183.58 584.89,-190.53"/>
</g>
<!-- Node18&#45;&gt;Node15 -->
<g id="edge27" class="edge">
<title>Node18&#45;&gt;Node15</title>
<path fill="none" stroke="midnightblue" d="M585.07,-203.63C570.13,-205.88 554.05,-208.3 539.57,-210.48"/>
<polygon fill="midnightblue" stroke="midnightblue" points="585.83,-207.05 595.2,-202.1 584.79,-200.13 585.83,-207.05"/>
</g>
<!-- Node20 -->
<g id="node20" class="node">
<title>Node20</title>
<g id="a_node20"><a xlink:href="namespacextb__hessian.html#a00a164f8b73c075f59a6547e93d5793b" target="_top" xlink:title=" ">
<polygon fill="white" stroke="black" points="282.5,-126 282.5,-145 395.5,-145 395.5,-126 282.5,-126"/>
<text text-anchor="middle" x="339" y="-133" font-family="Helvetica,sans-Serif" font-size="10.00">xtb_hessian::numhess</text>
</a>
</g>
</g>
<!-- Node19&#45;&gt;Node20 -->
<g id="edge30" class="edge">
<title>Node19&#45;&gt;Node20</title>
<path fill="none" stroke="midnightblue" d="M1014.86,-148.73C952.71,-142.6 863.95,-135.5 786,-135.5 786,-135.5 786,-135.5 639,-135.5 554.13,-135.5 455.7,-135.5 395.66,-135.5"/>
<polygon fill="midnightblue" stroke="midnightblue" points="1014.69,-152.23 1024.99,-149.74 1015.39,-145.26 1014.69,-152.23"/>
</g>
<!-- Node20&#45;&gt;Node6 -->
<g id="edge31" class="edge">
<title>Node20&#45;&gt;Node6</title>
<path fill="none" stroke="midnightblue" d="M295.28,-149.37C289.8,-152.21 284.53,-155.57 280,-159.5 229.38,-203.42 198.76,-281.6 189.22,-308.83"/>
<polygon fill="midnightblue" stroke="midnightblue" points="296.99,-152.44 304.6,-145.07 294.06,-146.08 296.99,-152.44"/>
</g>
</g>
</svg>
        <g id="navigator" transform="translate(0 0)" fill="#404254">
                <rect fill="#f2f5e9" fill-opacity="0.5" stroke="#606060" stroke-width=".5" x="0" y="0" width="60" height="60"/>
                <use id="zoomplus" xlink:href="#zoomPlus" x="17" y="9" onmousedown="handleZoom(evt,'in')"/>
                <use id="zoomminus" xlink:href="#zoomMin" x="42" y="9" onmousedown="handleZoom(evt,'out')"/>
                <use id="reset" xlink:href="#resetDef" x="30" y="36" onmousedown="handleReset()"/>
                <g id="arrowUp" xlink:href="#dirArrow" transform="translate(30 24)" onmousedown="handlePan(0,-1)">
                  <use xlink:href="#rim" fill="#404040">
                        <set attributeName="fill" to="#808080" begin="arrowUp.mouseover" end="arrowUp.mouseout"/>
                  </use>
                  <path fill="none" stroke="white" stroke-width="1.5" d="M0,-3.0v7 M-2.5,-0.5L0,-3.0L2.5,-0.5"/>
                </g>
                <g id="arrowRight" xlink:href="#dirArrow" transform="rotate(90) translate(36 -43)" onmousedown="handlePan(1,0)">
                  <use xlink:href="#rim" fill="#404040">
                        <set attributeName="fill" to="#808080" begin="arrowRight.mouseover" end="arrowRight.mouseout"/>
                  </use>
                  <path fill="none" stroke="white" stroke-width="1.5" d="M0,-3.0v7 M-2.5,-0.5L0,-3.0L2.5,-0.5"/>
                </g>
                <g id="arrowDown" xlink:href="#dirArrow" transform="rotate(180) translate(-30 -48)" onmousedown="handlePan(0,1)">
                  <use xlink:href="#rim" fill="#404040">
                        <set attributeName="fill" to="#808080" begin="arrowDown.mouseover" end="arrowDown.mouseout"/>
                  </use>
                  <path fill="none" stroke="white" stroke-width="1.5" d="M0,-3.0v7 M-2.5,-0.5L0,-3.0L2.5,-0.5"/>
                </g>
                <g id="arrowLeft" xlink:href="#dirArrow" transform="rotate(270) translate(-36 17)" onmousedown="handlePan(-1,0)">
                  <use xlink:href="#rim" fill="#404040">
                        <set attributeName="fill" to="#808080" begin="arrowLeft.mouseover" end="arrowLeft.mouseout"/>
                  </use>
                  <path fill="none" stroke="white" stroke-width="1.5" d="M0,-3.0v7 M-2.5,-0.5L0,-3.0L2.5,-0.5"/>
                </g>
        </g>
        <svg viewBox="0 0 15 15" width="100%" height="30px" preserveAspectRatio="xMaxYMin meet">
         <g id="arrow_out" transform="scale(0.3 0.3)">
          <a xlink:href="namespaceprob__module_a6bdcd0e8188113e5477fd5097c89ede3_icgraph_org.svg" target="_base">
           <rect id="button" ry="5" rx="5" y="6" x="6" height="38" width="38"
                fill="#f2f5e9" fill-opacity="0.5" stroke="#606060" stroke-width="1.0"/>
           <path id="arrow"
             d="M 11.500037,31.436501 C 11.940474,20.09759 22.043105,11.32322 32.158766,21.979434 L 37.068811,17.246167 C 37.068811,17.246167 37.088388,32 37.088388,32 L 22.160133,31.978069 C 22.160133,31.978069 26.997745,27.140456 26.997745,27.140456 C 18.528582,18.264221 13.291696,25.230495 11.500037,31.436501 z"
             style="fill:#404040;"/>
          </a>
         </g>
        </svg>
</svg>
