<?xml version="1.0" encoding="UTF-8" standalone="no"?>
<!DOCTYPE svg PUBLIC "-//W3C//DTD SVG 1.1//EN"
 "http://www.w3.org/Graphics/SVG/1.1/DTD/svg11.dtd">
<!-- Generated by graphviz version 2.46.1 (20210215.1649)
 -->
<!-- Title: xtb_setmod::int2optlevel Pages: 1 -->
<svg width="1029pt" height="338pt"
 viewBox="0.00 0.00 1029.00 337.89" xmlns="http://www.w3.org/2000/svg" xmlns:xlink="http://www.w3.org/1999/xlink">
<g id="graph0" class="graph" transform="scale(1 1) rotate(0) translate(4 333.89)">
<title>xtb_setmod::int2optlevel</title>
<polygon fill="white" stroke="transparent" points="-4,4 -4,-333.89 1025,-333.89 1025,4 -4,4"/>
<!-- Node1 -->
<g id="node1" class="node">
<title>Node1</title>
<g id="a_node1"><a xlink:title=" ">
<polygon fill="#bfbfbf" stroke="black" points="900,-136.39 900,-155.39 1021,-155.39 1021,-136.39 900,-136.39"/>
<text text-anchor="middle" x="960.5" y="-143.39" font-family="Helvetica,sans-Serif" font-size="10.00">xtb_setmod::int2optlevel</text>
</a>
</g>
</g>
<!-- Node2 -->
<g id="node2" class="node">
<title>Node2</title>
<g id="a_node2"><a xlink:href="namespacextb__optimizer.html#a1743159550358c92fb2761af80e15285" target="_top" xlink:title=" ">
<polygon fill="white" stroke="black" points="745.5,-158.39 745.5,-177.39 852.5,-177.39 852.5,-158.39 745.5,-158.39"/>
<text text-anchor="middle" x="799" y="-165.39" font-family="Helvetica,sans-Serif" font-size="10.00">xtb_optimizer::ancopt</text>
</a>
</g>
</g>
<!-- Node1&#45;&gt;Node2 -->
<g id="edge1" class="edge">
<title>Node1&#45;&gt;Node2</title>
<path fill="none" stroke="midnightblue" d="M889.75,-155.51C877.27,-157.23 864.47,-159 852.58,-160.64"/>
<polygon fill="midnightblue" stroke="midnightblue" points="890.23,-158.98 899.65,-154.15 889.27,-152.04 890.23,-158.98"/>
</g>
<!-- Node14 -->
<g id="node14" class="node">
<title>Node14</title>
<g id="a_node14"><a xlink:href="namespacextb__setmod.html#a7b77c420bf4f3f911bb16f9fc6be634e" target="_top" xlink:title=" ">
<polygon fill="white" stroke="black" points="734,-117.39 734,-136.39 864,-136.39 864,-117.39 734,-117.39"/>
<text text-anchor="middle" x="799" y="-124.39" font-family="Helvetica,sans-Serif" font-size="10.00">xtb_setmod::write_set_opt</text>
</a>
</g>
</g>
<!-- Node1&#45;&gt;Node14 -->
<g id="edge20" class="edge">
<title>Node1&#45;&gt;Node14</title>
<path fill="none" stroke="midnightblue" d="M889.49,-137.55C881.07,-136.55 872.51,-135.53 864.18,-134.54"/>
<polygon fill="midnightblue" stroke="midnightblue" points="889.31,-141.05 899.65,-138.76 890.14,-134.1 889.31,-141.05"/>
</g>
<!-- Node3 -->
<g id="node3" class="node">
<title>Node3</title>
<g id="a_node3"><a xlink:href="namespacextb__biaspath.html#a17ea22b101e578a3df8d2b58b96811a5" target="_top" xlink:title=" ">
<polygon fill="white" stroke="black" points="280,-310.39 280,-329.39 398,-329.39 398,-310.39 280,-310.39"/>
<text text-anchor="middle" x="339" y="-317.39" font-family="Helvetica,sans-Serif" font-size="10.00">xtb_biaspath::bias_path</text>
</a>
</g>
</g>
<!-- Node2&#45;&gt;Node3 -->
<g id="edge2" class="edge">
<title>Node2&#45;&gt;Node3</title>
<path fill="none" stroke="midnightblue" d="M775.31,-182.93C733.13,-210.09 638.91,-266.97 551,-293.89 500.89,-309.24 441.45,-315.56 398.45,-318.14"/>
<polygon fill="midnightblue" stroke="midnightblue" points="777.25,-185.84 783.73,-177.46 773.44,-179.97 777.25,-185.84"/>
</g>
<!-- Node6 -->
<g id="node6" class="node">
<title>Node6</title>
<g id="a_node6"><a xlink:href="namespacextb__geoopt.html#a1f0513294f2237b94f355cc4dc5dd867" target="_top" xlink:title=" ">
<polygon fill="white" stroke="black" points="588.5,-152.89 588.5,-182.89 696.5,-182.89 696.5,-152.89 588.5,-152.89"/>
<text text-anchor="start" x="596.5" y="-170.89" font-family="Helvetica,sans-Serif" font-size="10.00">xtb_geoopt::geometry</text>
<text text-anchor="middle" x="642.5" y="-159.89" font-family="Helvetica,sans-Serif" font-size="10.00">_optimization</text>
</a>
</g>
</g>
<!-- Node2&#45;&gt;Node6 -->
<g id="edge5" class="edge">
<title>Node2&#45;&gt;Node6</title>
<path fill="none" stroke="midnightblue" d="M735.13,-167.89C722.32,-167.89 708.96,-167.89 696.52,-167.89"/>
<polygon fill="midnightblue" stroke="midnightblue" points="735.26,-171.39 745.26,-167.89 735.26,-164.39 735.26,-171.39"/>
</g>
<!-- Node4 -->
<g id="node4" class="node">
<title>Node4</title>
<g id="a_node4"><a xlink:href="namespacextb__prog__main.html#a92b3b61ee04235e6343f652095682529" target="_top" xlink:title=" ">
<polygon fill="white" stroke="black" points="126,-158.39 126,-177.39 244,-177.39 244,-158.39 126,-158.39"/>
<text text-anchor="middle" x="185" y="-165.39" font-family="Helvetica,sans-Serif" font-size="10.00">xtb_prog_main::xtbmain</text>
</a>
</g>
</g>
<!-- Node3&#45;&gt;Node4 -->
<g id="edge3" class="edge">
<title>Node3&#45;&gt;Node4</title>
<path fill="none" stroke="midnightblue" d="M296.83,-306.18C290.88,-303.28 285.07,-299.86 280,-295.89 235.95,-261.36 202.65,-201.11 190.75,-177.64"/>
<polygon fill="midnightblue" stroke="midnightblue" points="295.64,-309.48 306.2,-310.34 298.48,-303.09 295.64,-309.48"/>
</g>
<!-- Node5 -->
<g id="node5" class="node">
<title>Node5</title>
<g id="a_node5"><a xlink:href="primary_8f90.html#a2a67903cf5be605c5b6d3c362c6a3c5c" target="_top" xlink:title="The primary driver for the xtb program package.">
<polygon fill="white" stroke="black" points="0,-158.39 0,-177.39 90,-177.39 90,-158.39 0,-158.39"/>
<text text-anchor="middle" x="45" y="-165.39" font-family="Helvetica,sans-Serif" font-size="10.00">xtb_prog_primary</text>
</a>
</g>
</g>
<!-- Node4&#45;&gt;Node5 -->
<g id="edge4" class="edge">
<title>Node4&#45;&gt;Node5</title>
<path fill="none" stroke="midnightblue" d="M115.73,-167.89C107.06,-167.89 98.37,-167.89 90.22,-167.89"/>
<polygon fill="midnightblue" stroke="midnightblue" points="115.88,-171.39 125.88,-167.89 115.88,-164.39 115.88,-171.39"/>
</g>
<!-- Node6&#45;&gt;Node4 -->
<g id="edge19" class="edge">
<title>Node6&#45;&gt;Node4</title>
<path fill="none" stroke="midnightblue" d="M627.19,-191.6C611.7,-214.73 584.64,-248.48 551,-262.89 440.29,-310.33 391.15,-309.28 280,-262.89 237.6,-245.2 204.56,-198.04 191.76,-177.59"/>
<polygon fill="midnightblue" stroke="midnightblue" points="630.25,-193.32 632.74,-183.02 624.37,-189.52 630.25,-193.32"/>
</g>
<!-- Node7 -->
<g id="node7" class="node">
<title>Node7</title>
<g id="a_node7"><a xlink:href="namespacextb__kopt.html#ada4ab70832f563f46c8ffc8cea64c78b" target="_top" xlink:title=" ">
<polygon fill="white" stroke="black" points="443.5,-234.39 443.5,-253.39 541.5,-253.39 541.5,-234.39 443.5,-234.39"/>
<text text-anchor="middle" x="492.5" y="-241.39" font-family="Helvetica,sans-Serif" font-size="10.00">xtb_kopt::get_rmsd</text>
</a>
</g>
</g>
<!-- Node6&#45;&gt;Node7 -->
<g id="edge6" class="edge">
<title>Node6&#45;&gt;Node7</title>
<path fill="none" stroke="midnightblue" d="M608.09,-188.44C591.24,-198.45 570.33,-210.35 551,-219.89 540.52,-225.06 528.65,-230.14 518.43,-234.29"/>
<polygon fill="midnightblue" stroke="midnightblue" points="610.21,-191.24 616.99,-183.1 606.61,-185.24 610.21,-191.24"/>
</g>
<!-- Node9 -->
<g id="node9" class="node">
<title>Node9</title>
<g id="a_node9"><a xlink:href="namespacextb__mdoptim.html#ab0ba2195163cd6794115b99516ba5316" target="_top" xlink:title=" ">
<polygon fill="white" stroke="black" points="287,-196.39 287,-215.39 391,-215.39 391,-196.39 287,-196.39"/>
<text text-anchor="middle" x="339" y="-203.39" font-family="Helvetica,sans-Serif" font-size="10.00">xtb_mdoptim::mdopt</text>
</a>
</g>
</g>
<!-- Node6&#45;&gt;Node9 -->
<g id="edge9" class="edge">
<title>Node6&#45;&gt;Node9</title>
<path fill="none" stroke="midnightblue" d="M577.99,-182.2C568.96,-183.95 559.77,-185.58 551,-186.89 496.8,-194.99 434.21,-200.1 391.36,-202.95"/>
<polygon fill="midnightblue" stroke="midnightblue" points="578.97,-185.58 588.09,-180.19 577.6,-178.71 578.97,-185.58"/>
</g>
<!-- Node10 -->
<g id="node10" class="node">
<title>Node10</title>
<g id="a_node10"><a xlink:href="namespacextb__modef.html#a39c4cb408b8b02afb7bf83a1d7f13de3" target="_top" xlink:title=" ">
<polygon fill="white" stroke="black" points="434.5,-158.39 434.5,-177.39 550.5,-177.39 550.5,-158.39 434.5,-158.39"/>
<text text-anchor="middle" x="492.5" y="-165.39" font-family="Helvetica,sans-Serif" font-size="10.00">xtb_modef::modefollow</text>
</a>
</g>
</g>
<!-- Node6&#45;&gt;Node10 -->
<g id="edge11" class="edge">
<title>Node6&#45;&gt;Node10</title>
<path fill="none" stroke="midnightblue" d="M578.26,-167.89C569.09,-167.89 559.69,-167.89 550.65,-167.89"/>
<polygon fill="midnightblue" stroke="midnightblue" points="578.49,-171.39 588.49,-167.89 578.49,-164.39 578.49,-171.39"/>
</g>
<!-- Node11 -->
<g id="node11" class="node">
<title>Node11</title>
<g id="a_node11"><a xlink:href="namespacextb__scan.html#abef8f8d0fa299e9e2caf823f3672f14a" target="_top" xlink:title=" ">
<polygon fill="white" stroke="black" points="434,-120.39 434,-139.39 551,-139.39 551,-120.39 434,-120.39"/>
<text text-anchor="middle" x="492.5" y="-127.39" font-family="Helvetica,sans-Serif" font-size="10.00">xtb_scan::relaxed_scan</text>
</a>
</g>
</g>
<!-- Node6&#45;&gt;Node11 -->
<g id="edge13" class="edge">
<title>Node6&#45;&gt;Node11</title>
<path fill="none" stroke="midnightblue" d="M578.5,-151.71C562.26,-147.55 545.3,-143.19 530.84,-139.48"/>
<polygon fill="midnightblue" stroke="midnightblue" points="577.93,-155.18 588.49,-154.28 579.67,-148.4 577.93,-155.18"/>
</g>
<!-- Node12 -->
<g id="node12" class="node">
<title>Node12</title>
<g id="a_node12"><a xlink:href="namespacextb__screening.html#a7f4004ff0e65127a38b038f0a7cdcc84" target="_top" xlink:title=" ">
<polygon fill="white" stroke="black" points="284,-82.39 284,-101.39 394,-101.39 394,-82.39 284,-82.39"/>
<text text-anchor="middle" x="339" y="-89.39" font-family="Helvetica,sans-Serif" font-size="10.00">xtb_screening::screen</text>
</a>
</g>
</g>
<!-- Node6&#45;&gt;Node12 -->
<g id="edge15" class="edge">
<title>Node6&#45;&gt;Node12</title>
<path fill="none" stroke="midnightblue" d="M615.04,-146.49C597.85,-133.84 574.37,-118.79 551,-110.89 499.78,-93.58 437.81,-89.88 394.33,-89.88"/>
<polygon fill="midnightblue" stroke="midnightblue" points="613.34,-149.59 623.42,-152.84 617.56,-144.01 613.34,-149.59"/>
</g>
<!-- Node13 -->
<g id="node13" class="node">
<title>Node13</title>
<g id="a_node13"><a xlink:href="namespacextb__gfnff__convert.html#adf399b47b9f2a8364327d9d5c38cb2b8" target="_top" xlink:title=" ">
<polygon fill="white" stroke="black" points="445,-32.89 445,-62.89 540,-62.89 540,-32.89 445,-32.89"/>
<text text-anchor="start" x="453" y="-50.89" font-family="Helvetica,sans-Serif" font-size="10.00">xtb_gfnff_convert::</text>
<text text-anchor="middle" x="492.5" y="-39.89" font-family="Helvetica,sans-Serif" font-size="10.00">struc_convert</text>
</a>
</g>
</g>
<!-- Node6&#45;&gt;Node13 -->
<g id="edge17" class="edge">
<title>Node6&#45;&gt;Node13</title>
<path fill="none" stroke="midnightblue" d="M622.07,-145.01C604.77,-125.55 578.07,-97.7 551,-77.89 543.46,-72.37 534.76,-67.28 526.45,-62.91"/>
<polygon fill="midnightblue" stroke="midnightblue" points="619.66,-147.57 628.88,-152.78 624.93,-142.95 619.66,-147.57"/>
</g>
<!-- Node8 -->
<g id="node8" class="node">
<title>Node8</title>
<g id="a_node8"><a xlink:href="namespacextb__kopt.html#aed50b40106367857ab2d0bf3a109f62b" target="_top" xlink:title=" ">
<polygon fill="white" stroke="black" points="291.5,-234.39 291.5,-253.39 386.5,-253.39 386.5,-234.39 291.5,-234.39"/>
<text text-anchor="middle" x="339" y="-241.39" font-family="Helvetica,sans-Serif" font-size="10.00">xtb_kopt::get_kopt</text>
</a>
</g>
</g>
<!-- Node7&#45;&gt;Node8 -->
<g id="edge7" class="edge">
<title>Node7&#45;&gt;Node8</title>
<path fill="none" stroke="midnightblue" d="M432.75,-243.89C417.45,-243.89 401.18,-243.89 386.6,-243.89"/>
<polygon fill="midnightblue" stroke="midnightblue" points="433.15,-247.39 443.15,-243.89 433.15,-240.39 433.15,-247.39"/>
</g>
<!-- Node8&#45;&gt;Node4 -->
<g id="edge8" class="edge">
<title>Node8&#45;&gt;Node4</title>
<path fill="none" stroke="midnightblue" d="M294.74,-230.94C289.7,-229.07 284.69,-227.05 280,-224.89 249.83,-211.02 217.24,-189.67 199.47,-177.42"/>
<polygon fill="midnightblue" stroke="midnightblue" points="293.78,-234.31 304.37,-234.32 296.1,-227.7 293.78,-234.31"/>
</g>
<!-- Node9&#45;&gt;Node4 -->
<g id="edge10" class="edge">
<title>Node9&#45;&gt;Node4</title>
<path fill="none" stroke="midnightblue" d="M289.84,-193.85C268.6,-188.54 244,-182.39 224.08,-177.41"/>
<polygon fill="midnightblue" stroke="midnightblue" points="289.09,-197.27 299.64,-196.3 290.79,-190.48 289.09,-197.27"/>
</g>
<!-- Node10&#45;&gt;Node4 -->
<g id="edge12" class="edge">
<title>Node10&#45;&gt;Node4</title>
<path fill="none" stroke="midnightblue" d="M424.25,-167.89C370.33,-167.89 295.46,-167.89 244.12,-167.89"/>
<polygon fill="midnightblue" stroke="midnightblue" points="424.4,-171.39 434.4,-167.89 424.4,-164.39 424.4,-171.39"/>
</g>
<!-- Node11&#45;&gt;Node4 -->
<g id="edge14" class="edge">
<title>Node11&#45;&gt;Node4</title>
<path fill="none" stroke="midnightblue" d="M423.53,-138.34C369.67,-145.04 295.22,-154.31 244.1,-160.66"/>
<polygon fill="midnightblue" stroke="midnightblue" points="424.19,-141.79 433.68,-137.08 423.32,-134.84 424.19,-141.79"/>
</g>
<!-- Node12&#45;&gt;Node4 -->
<g id="edge16" class="edge">
<title>Node12&#45;&gt;Node4</title>
<path fill="none" stroke="midnightblue" d="M303.82,-105.28C295.93,-108.58 287.61,-112.23 280,-115.89 251.94,-129.4 220.49,-147.42 202.01,-158.31"/>
<polygon fill="midnightblue" stroke="midnightblue" points="305.25,-108.48 313.18,-101.44 302.6,-102 305.25,-108.48"/>
</g>
<!-- Node13&#45;&gt;Node4 -->
<g id="edge18" class="edge">
<title>Node13&#45;&gt;Node4</title>
<path fill="none" stroke="midnightblue" d="M434.89,-44.65C390.58,-44.4 328.55,-49.19 280,-72.89 238.93,-92.94 205.4,-138.39 192.13,-158.27"/>
<polygon fill="midnightblue" stroke="midnightblue" points="434.85,-48.15 444.9,-44.8 434.95,-41.15 434.85,-48.15"/>
</g>
<!-- Node15 -->
<g id="node15" class="node">
<title>Node15</title>
<g id="a_node15"><a xlink:href="namespacextb__setmod.html#a231f7ceb2d188fd5e2b52effdca24ce9" target="_top" xlink:title=" ">
<polygon fill="white" stroke="black" points="587,-54.39 587,-73.39 698,-73.39 698,-54.39 587,-54.39"/>
<text text-anchor="middle" x="642.5" y="-61.39" font-family="Helvetica,sans-Serif" font-size="10.00">xtb_setmod::write_set</text>
</a>
</g>
</g>
<!-- Node14&#45;&gt;Node15 -->
<g id="edge21" class="edge">
<title>Node14&#45;&gt;Node15</title>
<path fill="none" stroke="midnightblue" d="M765.08,-113.47C735.59,-101.44 693.08,-84.11 666.93,-73.45"/>
<polygon fill="midnightblue" stroke="midnightblue" points="763.95,-116.79 774.53,-117.32 766.6,-110.31 763.95,-116.79"/>
</g>
<!-- Node15&#45;&gt;Node4 -->
<g id="edge22" class="edge">
<title>Node15&#45;&gt;Node4</title>
<path fill="none" stroke="midnightblue" d="M616.84,-49.24C599.18,-39.64 574.47,-27.96 551,-22.89 432.98,2.6 384.4,18.76 280,-41.89 231.62,-70 200.45,-133.89 189.95,-158.23"/>
<polygon fill="midnightblue" stroke="midnightblue" points="615.44,-52.47 625.87,-54.31 618.86,-46.36 615.44,-52.47"/>
</g>
</g>
</svg>
