<?xml version="1.0" encoding="UTF-8" standalone="no"?>
<!DOCTYPE svg PUBLIC "-//W3C//DTD SVG 1.1//EN"
 "http://www.w3.org/Graphics/SVG/1.1/DTD/svg11.dtd">
<!-- Generated by graphviz version 2.43.0 (0)
 -->
<!-- Title: xtb_scc_core::scc Pages: 1 -->
<svg width="264pt" height="28pt"
 viewBox="0.00 0.00 264.00 28.00" xmlns="http://www.w3.org/2000/svg" xmlns:xlink="http://www.w3.org/1999/xlink">
<g id="graph0" class="graph" transform="scale(1 1) rotate(0) translate(4 24)">
<title>xtb_scc_core::scc</title>
<polygon fill="white" stroke="transparent" points="-4,4 -4,-24 260,-24 260,4 -4,4"/>
<!-- Node1 -->
<g id="node1" class="node">
<title>Node1</title>
<g id="a_node1"><a xlink:title="self consistent charge iterator">
<polygon fill="#bfbfbf" stroke="black" points="155,-0.5 155,-19.5 256,-19.5 256,-0.5 155,-0.5"/>
<text text-anchor="middle" x="205.5" y="-7.5" font-family="Helvetica,sans-Serif" font-size="10.00">xtb_scc_core::scc</text>
</a>
</g>
</g>
<!-- Node2 -->
<g id="node2" class="node">
<title>Node2</title>
<g id="a_node2"><a xlink:href="namespacextb__scc__core.html#a242df5f670f054274ad6af4fc5b68a7c" target="_top" xlink:title=" ">
<polygon fill="white" stroke="black" points="0,-0.5 0,-19.5 119,-19.5 119,-0.5 0,-0.5"/>
<text text-anchor="middle" x="59.5" y="-7.5" font-family="Helvetica,sans-Serif" font-size="10.00">xtb_scc_core::electro</text>
</a>
</g>
</g>
<!-- Node1&#45;&gt;Node2 -->
<g id="edge1" class="edge">
<title>Node1&#45;&gt;Node2</title>
<path fill="none" stroke="midnightblue" d="M144.74,-3.34C136.26,-3.22 127.54,-3.22 119.08,-3.36"/>
<polygon fill="midnightblue" stroke="midnightblue" points="144.87,-6.84 154.94,-3.55 145.02,0.16 144.87,-6.84"/>
</g>
<!-- Node2&#45;&gt;Node1 -->
<g id="edge2" class="edge">
<title>Node2&#45;&gt;Node1</title>
<path fill="none" stroke="midnightblue" d="M129.21,-16.74C137.89,-16.78 146.64,-16.68 154.94,-16.45"/>
<polygon fill="midnightblue" stroke="midnightblue" points="129.11,-13.24 119.08,-16.64 129.05,-20.24 129.11,-13.24"/>
</g>
</g>
</svg>
