<?xml version="1.0" encoding="UTF-8" standalone="no"?>
<!DOCTYPE svg PUBLIC "-//W3C//DTD SVG 1.1//EN"
 "http://www.w3.org/Graphics/SVG/1.1/DTD/svg11.dtd">
<!-- Generated by graphviz version 2.46.1 (20210215.1649)
 -->
<!-- Title: xtb_peeq::drep_grad Pages: 1 -->
<svg width="372pt" height="88pt"
 viewBox="0.00 0.00 372.00 88.00" xmlns="http://www.w3.org/2000/svg" xmlns:xlink="http://www.w3.org/1999/xlink">
<g id="graph0" class="graph" transform="scale(1 1) rotate(0) translate(4 84)">
<title>xtb_peeq::drep_grad</title>
<polygon fill="white" stroke="transparent" points="-4,4 -4,-84 368,-84 368,4 -4,4"/>
<!-- Node1 -->
<g id="node1" class="node">
<title>Node1</title>
<g id="a_node1"><a xlink:title=" ">
<polygon fill="#bfbfbf" stroke="black" points="0,-30 0,-49 103,-49 103,-30 0,-30"/>
<text text-anchor="middle" x="51.5" y="-37" font-family="Helvetica,sans-Serif" font-size="10.00">xtb_peeq::drep_grad</text>
</a>
</g>
</g>
<!-- Node2 -->
<g id="node2" class="node">
<title>Node2</title>
<g id="a_node2"><a xlink:href="namespacextb__pbc.html#a39926cdca0e558a5e002c9a2860a59ee" target="_top" xlink:title=" ">
<polygon fill="white" stroke="black" points="139,-49.5 139,-79.5 255,-79.5 255,-49.5 139,-49.5"/>
<text text-anchor="start" x="147" y="-67.5" font-family="Helvetica,sans-Serif" font-size="10.00">xtb_pbc::get_realspace</text>
<text text-anchor="middle" x="197" y="-56.5" font-family="Helvetica,sans-Serif" font-size="10.00">_cutoff</text>
</a>
</g>
</g>
<!-- Node1&#45;&gt;Node2 -->
<g id="edge1" class="edge">
<title>Node1&#45;&gt;Node2</title>
<path fill="none" stroke="midnightblue" d="M103.09,-48.31C111.33,-49.75 119.97,-51.25 128.53,-52.75"/>
<polygon fill="midnightblue" stroke="midnightblue" points="128.07,-56.22 138.52,-54.49 129.27,-49.32 128.07,-56.22"/>
</g>
<!-- Node4 -->
<g id="node4" class="node">
<title>Node4</title>
<g id="a_node4"><a xlink:href="namespacextb__pbc__tools.html#a3f53b54339fd354c0c2493b89aa211a8" target="_top" xlink:title=" ">
<polygon fill="white" stroke="black" points="145.5,-0.5 145.5,-30.5 248.5,-30.5 248.5,-0.5 145.5,-0.5"/>
<text text-anchor="start" x="153.5" y="-18.5" font-family="Helvetica,sans-Serif" font-size="10.00">xtb_pbc_tools::outer</text>
<text text-anchor="middle" x="197" y="-7.5" font-family="Helvetica,sans-Serif" font-size="10.00">_prod_3x3</text>
</a>
</g>
</g>
<!-- Node1&#45;&gt;Node4 -->
<g id="edge3" class="edge">
<title>Node1&#45;&gt;Node4</title>
<path fill="none" stroke="midnightblue" d="M103.09,-31.04C113.49,-29.3 124.53,-27.45 135.25,-25.66"/>
<polygon fill="midnightblue" stroke="midnightblue" points="136.09,-29.07 145.38,-23.97 134.94,-22.16 136.09,-29.07"/>
</g>
<!-- Node3 -->
<g id="node3" class="node">
<title>Node3</title>
<g id="a_node3"><a xlink:href="pbc_8f90.html#aa9a2fc33e7cc54debf8cbeb1e0546b09" target="_top" xlink:title=" ">
<polygon fill="white" stroke="black" points="291,-55 291,-74 364,-74 364,-55 291,-55"/>
<text text-anchor="middle" x="327.5" y="-62" font-family="Helvetica,sans-Serif" font-size="10.00">crossproduct</text>
</a>
</g>
</g>
<!-- Node2&#45;&gt;Node3 -->
<g id="edge2" class="edge">
<title>Node2&#45;&gt;Node3</title>
<path fill="none" stroke="midnightblue" d="M255.11,-64.5C263.69,-64.5 272.44,-64.5 280.74,-64.5"/>
<polygon fill="midnightblue" stroke="midnightblue" points="280.96,-68 290.96,-64.5 280.96,-61 280.96,-68"/>
</g>
</g>
</svg>
