<?xml version="1.0" encoding="UTF-8" standalone="no"?>
<!DOCTYPE svg PUBLIC "-//W3C//DTD SVG 1.1//EN"
 "http://www.w3.org/Graphics/SVG/1.1/DTD/svg11.dtd">
<!-- Generated by graphviz version 2.43.0 (0)
 -->
<!-- Title: xtb_peeq::get_grad_overlap Pages: 1 -->
<svg width="681pt" height="116pt"
 viewBox="0.00 0.00 681.00 115.50" xmlns="http://www.w3.org/2000/svg" xmlns:xlink="http://www.w3.org/1999/xlink">
<g id="graph0" class="graph" transform="scale(1 1) rotate(0) translate(4 111.5)">
<title>xtb_peeq::get_grad_overlap</title>
<polygon fill="white" stroke="transparent" points="-4,4 -4,-111.5 677,-111.5 677,4 -4,4"/>
<!-- Node1 -->
<g id="node1" class="node">
<title>Node1</title>
<g id="a_node1"><a xlink:title=" ">
<polygon fill="#bfbfbf" stroke="black" points="563,-33 563,-63 673,-63 673,-33 563,-33"/>
<text text-anchor="start" x="571" y="-51" font-family="Helvetica,sans-Serif" font-size="10.00">xtb_peeq::get_grad</text>
<text text-anchor="middle" x="618" y="-40" font-family="Helvetica,sans-Serif" font-size="10.00">_overlap</text>
</a>
</g>
</g>
<!-- Node2 -->
<g id="node2" class="node">
<title>Node2</title>
<g id="a_node2"><a xlink:href="namespacextb__peeq.html#a40797d7eda755bad4031e16951ae29b7" target="_top" xlink:title=" ">
<polygon fill="white" stroke="black" points="381,-57.5 381,-76.5 527,-76.5 527,-57.5 381,-57.5"/>
<text text-anchor="middle" x="454" y="-64.5" font-family="Helvetica,sans-Serif" font-size="10.00">xtb_peeq::ccm_build_dsh0</text>
</a>
</g>
</g>
<!-- Node1&#45;&gt;Node2 -->
<g id="edge1" class="edge">
<title>Node1&#45;&gt;Node2</title>
<path fill="none" stroke="midnightblue" d="M552.55,-55.56C544.18,-56.54 535.57,-57.55 527.09,-58.54"/>
<polygon fill="midnightblue" stroke="midnightblue" points="553.08,-59.02 562.61,-54.38 552.27,-52.07 553.08,-59.02"/>
</g>
<!-- Node8 -->
<g id="node8" class="node">
<title>Node8</title>
<g id="a_node8"><a xlink:href="namespacextb__peeq.html#a101bc81468c2cd4ddd3221efaa59b142" target="_top" xlink:title=" ">
<polygon fill="white" stroke="black" points="382.5,-19.5 382.5,-38.5 525.5,-38.5 525.5,-19.5 382.5,-19.5"/>
<text text-anchor="middle" x="454" y="-26.5" font-family="Helvetica,sans-Serif" font-size="10.00">xtb_peeq::pbc_build_dsh0</text>
</a>
</g>
</g>
<!-- Node1&#45;&gt;Node8 -->
<g id="edge8" class="edge">
<title>Node1&#45;&gt;Node8</title>
<path fill="none" stroke="midnightblue" d="M552.42,-40.43C543.62,-39.39 534.55,-38.33 525.65,-37.29"/>
<polygon fill="midnightblue" stroke="midnightblue" points="552.27,-43.93 562.61,-41.62 553.08,-36.98 552.27,-43.93"/>
</g>
<!-- Node3 -->
<g id="node3" class="node">
<title>Node3</title>
<g id="a_node3"><a xlink:href="namespacextb__peeq.html#ac2d6fc22b842455765bdb4f69279095c" target="_top" xlink:title=" ">
<polygon fill="white" stroke="black" points="253,-38.5 253,-57.5 345,-57.5 345,-38.5 253,-38.5"/>
<text text-anchor="middle" x="299" y="-45.5" font-family="Helvetica,sans-Serif" font-size="10.00">xtb_peeq::peeq</text>
</a>
</g>
</g>
<!-- Node2&#45;&gt;Node3 -->
<g id="edge2" class="edge">
<title>Node2&#45;&gt;Node3</title>
<path fill="none" stroke="midnightblue" d="M370.93,-56.81C362.04,-55.7 353.25,-54.61 345.04,-53.59"/>
<polygon fill="midnightblue" stroke="midnightblue" points="370.63,-60.3 380.98,-58.06 371.49,-53.35 370.63,-60.3"/>
</g>
<!-- Node4 -->
<g id="node4" class="node">
<title>Node4</title>
<g id="a_node4"><a xlink:href="namespacextb__xtb__calculator.html#a75c96263c235c99dfeeda3e865f9898c" target="_top" xlink:title=" ">
<polygon fill="white" stroke="black" points="110,-77 110,-107 217,-107 217,-77 110,-77"/>
<text text-anchor="start" x="118" y="-95" font-family="Helvetica,sans-Serif" font-size="10.00">xtb_xtb_calculator</text>
<text text-anchor="middle" x="163.5" y="-84" font-family="Helvetica,sans-Serif" font-size="10.00">::singlepoint</text>
</a>
</g>
</g>
<!-- Node3&#45;&gt;Node4 -->
<g id="edge3" class="edge">
<title>Node3&#45;&gt;Node4</title>
<path fill="none" stroke="midnightblue" d="M259.33,-60.74C243.98,-65.8 226.2,-71.67 210.21,-76.93"/>
<polygon fill="midnightblue" stroke="midnightblue" points="260.63,-64 269.03,-57.55 258.44,-57.35 260.63,-64"/>
</g>
<!-- Node5 -->
<g id="node5" class="node">
<title>Node5</title>
<g id="a_node5"><a xlink:href="TESTSUITE_2gfn0_8f90.html#ac2abd1dbadf75b71866d509eaad7957d" target="_top" xlink:title=" ">
<polygon fill="white" stroke="black" points="124,-38.5 124,-57.5 203,-57.5 203,-38.5 124,-38.5"/>
<text text-anchor="middle" x="163.5" y="-45.5" font-family="Helvetica,sans-Serif" font-size="10.00">test_gfn0_sp</text>
</a>
</g>
</g>
<!-- Node3&#45;&gt;Node5 -->
<g id="edge4" class="edge">
<title>Node3&#45;&gt;Node5</title>
<path fill="none" stroke="midnightblue" d="M242.45,-48C229.33,-48 215.61,-48 203.41,-48"/>
<polygon fill="midnightblue" stroke="midnightblue" points="242.8,-51.5 252.8,-48 242.8,-44.5 242.8,-51.5"/>
</g>
<!-- Node7 -->
<g id="node7" class="node">
<title>Node7</title>
<g id="a_node7"><a xlink:href="peeq_8f90.html#a5122d9bd07a3f4377ee140a5991d1325" target="_top" xlink:title=" ">
<polygon fill="white" stroke="black" points="123,-0.5 123,-19.5 204,-19.5 204,-0.5 123,-0.5"/>
<text text-anchor="middle" x="163.5" y="-7.5" font-family="Helvetica,sans-Serif" font-size="10.00">test_peeq_sp</text>
</a>
</g>
</g>
<!-- Node3&#45;&gt;Node7 -->
<g id="edge6" class="edge">
<title>Node3&#45;&gt;Node7</title>
<path fill="none" stroke="midnightblue" d="M254.47,-35.61C236.19,-30.41 215.25,-24.45 198.18,-19.59"/>
<polygon fill="midnightblue" stroke="midnightblue" points="253.74,-39.04 264.31,-38.41 255.65,-32.31 253.74,-39.04"/>
</g>
<!-- Node6 -->
<g id="node6" class="node">
<title>Node6</title>
<g id="a_node6"><a xlink:href="tests__peeq_8f90.html#a87ff5319e0d2e627a4f71d7df0d14891" target="_top" xlink:title=" ">
<polygon fill="white" stroke="black" points="0,-19.5 0,-38.5 74,-38.5 74,-19.5 0,-19.5"/>
<text text-anchor="middle" x="37" y="-26.5" font-family="Helvetica,sans-Serif" font-size="10.00">peeq_tester</text>
</a>
</g>
</g>
<!-- Node5&#45;&gt;Node6 -->
<g id="edge5" class="edge">
<title>Node5&#45;&gt;Node6</title>
<path fill="none" stroke="midnightblue" d="M113.88,-40.58C100.65,-38.56 86.55,-36.41 74.14,-34.52"/>
<polygon fill="midnightblue" stroke="midnightblue" points="113.38,-44.04 123.79,-42.09 114.43,-37.12 113.38,-44.04"/>
</g>
<!-- Node7&#45;&gt;Node6 -->
<g id="edge7" class="edge">
<title>Node7&#45;&gt;Node6</title>
<path fill="none" stroke="midnightblue" d="M112.7,-17.6C99.91,-19.55 86.38,-21.62 74.4,-23.44"/>
<polygon fill="midnightblue" stroke="midnightblue" points="113.41,-21.03 122.77,-16.06 112.35,-14.11 113.41,-21.03"/>
</g>
<!-- Node8&#45;&gt;Node3 -->
<g id="edge9" class="edge">
<title>Node8&#45;&gt;Node3</title>
<path fill="none" stroke="midnightblue" d="M372.2,-39.03C362.87,-40.19 353.63,-41.34 345.03,-42.41"/>
<polygon fill="midnightblue" stroke="midnightblue" points="372.83,-42.48 382.32,-37.78 371.97,-35.54 372.83,-42.48"/>
</g>
</g>
</svg>
