<?xml version="1.0" encoding="UTF-8" standalone="no"?>
<!DOCTYPE svg PUBLIC "-//W3C//DTD SVG 1.1//EN"
 "http://www.w3.org/Graphics/SVG/1.1/DTD/svg11.dtd">
<!-- Generated by graphviz version 2.43.0 (0)
 -->
<!-- Title: xtb_gfnff_setup::gfnff_input Pages: 1 -->
<svg width="396pt" height="53pt"
 viewBox="0.00 0.00 396.00 52.50" xmlns="http://www.w3.org/2000/svg" xmlns:xlink="http://www.w3.org/1999/xlink">
<g id="graph0" class="graph" transform="scale(1 1) rotate(0) translate(4 48.5)">
<title>xtb_gfnff_setup::gfnff_input</title>
<polygon fill="white" stroke="transparent" points="-4,4 -4,-48.5 392,-48.5 392,4 -4,4"/>
<!-- Node1 -->
<g id="node1" class="node">
<title>Node1</title>
<g id="a_node1"><a xlink:title=" ">
<polygon fill="#bfbfbf" stroke="black" points="0,-0.5 0,-30.5 121,-30.5 121,-0.5 0,-0.5"/>
<text text-anchor="start" x="8" y="-18.5" font-family="Helvetica,sans-Serif" font-size="10.00">xtb_gfnff_setup::gfnff</text>
<text text-anchor="middle" x="60.5" y="-7.5" font-family="Helvetica,sans-Serif" font-size="10.00">_input</text>
</a>
</g>
</g>
<!-- Node2 -->
<g id="node2" class="node">
<title>Node2</title>
<g id="a_node2"><a xlink:href="rdcoord2_8f90.html#a9b38798a8c538ebdc4c2be235d5bf8d6" target="_top" xlink:title=" ">
<polygon fill="white" stroke="black" points="157,-25 157,-44 213,-44 213,-25 157,-25"/>
<text text-anchor="middle" x="185" y="-32" font-family="Helvetica,sans-Serif" font-size="10.00">readline</text>
</a>
</g>
</g>
<!-- Node1&#45;&gt;Node2 -->
<g id="edge1" class="edge">
<title>Node1&#45;&gt;Node2</title>
<path fill="none" stroke="midnightblue" d="M121.31,-24.78C130.11,-26.14 138.95,-27.51 147.1,-28.78"/>
<polygon fill="midnightblue" stroke="midnightblue" points="146.58,-32.24 157,-30.31 147.65,-25.32 146.58,-32.24"/>
</g>
<!-- Node4 -->
<g id="node4" class="node">
<title>Node4</title>
<g id="a_node4"><a xlink:href="symmetry__i_8c.html#aa77c823a9fc018ae1d437369708d8727" target="_top" xlink:title=" ">
<polygon fill="white" stroke="black" points="352,-6 352,-25 388,-25 388,-6 352,-6"/>
<text text-anchor="middle" x="370" y="-13" font-family="Helvetica,sans-Serif" font-size="10.00">true</text>
</a>
</g>
</g>
<!-- Node1&#45;&gt;Node4 -->
<g id="edge4" class="edge">
<title>Node1&#45;&gt;Node4</title>
<path fill="none" stroke="midnightblue" d="M121.15,-15.5C187.73,-15.5 292.54,-15.5 341.76,-15.5"/>
<polygon fill="midnightblue" stroke="midnightblue" points="341.94,-19 351.94,-15.5 341.94,-12 341.94,-19"/>
</g>
<!-- Node3 -->
<g id="node3" class="node">
<title>Node3</title>
<g id="a_node3"><a xlink:href="readl2_8f90.html#a194c35a25c60bb77cc8af6abea165a5c" target="_top" xlink:title=" ">
<polygon fill="white" stroke="black" points="249,-25 249,-44 316,-44 316,-25 249,-25"/>
<text text-anchor="middle" x="282.5" y="-32" font-family="Helvetica,sans-Serif" font-size="10.00">checktype</text>
</a>
</g>
</g>
<!-- Node2&#45;&gt;Node3 -->
<g id="edge2" class="edge">
<title>Node2&#45;&gt;Node3</title>
<path fill="none" stroke="midnightblue" d="M213.11,-34.5C221.12,-34.5 230.08,-34.5 238.82,-34.5"/>
<polygon fill="midnightblue" stroke="midnightblue" points="238.9,-38 248.9,-34.5 238.9,-31 238.9,-38"/>
</g>
<!-- Node3&#45;&gt;Node4 -->
<g id="edge3" class="edge">
<title>Node3&#45;&gt;Node4</title>
<path fill="none" stroke="midnightblue" d="M316.31,-27.21C324.69,-25.35 333.62,-23.36 341.69,-21.57"/>
<polygon fill="midnightblue" stroke="midnightblue" points="342.7,-24.93 351.7,-19.34 341.18,-18.1 342.7,-24.93"/>
</g>
</g>
</svg>
