<?xml version="1.0" encoding="UTF-8" standalone="no"?>
<!DOCTYPE svg PUBLIC "-//W3C//DTD SVG 1.1//EN"
 "http://www.w3.org/Graphics/SVG/1.1/DTD/svg11.dtd">
<!-- Generated by graphviz version 2.43.0 (0)
 -->
<!-- Title: xtb_io_writer_genformat::writemoleculegenformat Pages: 1 -->
<!--zoomable 492 -->
<svg id="main" version="1.1" xmlns="http://www.w3.org/2000/svg" xmlns:xlink="http://www.w3.org/1999/xlink" xml:space="preserve" onload="init(evt)">
<style type="text/css"><![CDATA[
.edge:hover path { stroke: red; }
.edge:hover polygon { stroke: red; fill: red; }
]]></style>
<script type="text/javascript"><![CDATA[
var edges = document.getElementsByTagName('g');
if (edges && edges.length) {
  for (var i=0;i<edges.length;i++) {
    if (edges[i].id.substr(0,4)=='edge') {
      edges[i].setAttribute('class','edge');
    }
  }
}
]]></script>
        <defs>
                <circle id="rim" cx="0" cy="0" r="7"/>
                <circle id="rim2" cx="0" cy="0" r="3.5"/>
                <g id="zoomPlus">
                        <use xlink:href="#rim" fill="#404040">
                                <set attributeName="fill" to="#808080" begin="zoomplus.mouseover" end="zoomplus.mouseout"/>
                        </use>
                        <path d="M-4,0h8M0,-4v8" fill="none" stroke="white" stroke-width="1.5" pointer-events="none"/>
                </g>
                <g id="zoomMin">
                        <use xlink:href="#rim" fill="#404040">
                                <set attributeName="fill" to="#808080" begin="zoomminus.mouseover" end="zoomminus.mouseout"/>
                        </use>
                        <path d="M-4,0h8" fill="none" stroke="white" stroke-width="1.5" pointer-events="none"/>
                </g>
                <g id="dirArrow">
                        <path fill="none" stroke="white" stroke-width="1.5" d="M0,-3.0v7 M-2.5,-0.5L0,-3.0L2.5,-0.5"/>
                </g>
               <g id="resetDef">
                       <use xlink:href="#rim2" fill="#404040">
                               <set attributeName="fill" to="#808080" begin="reset.mouseover" end="reset.mouseout"/>
                       </use>
               </g>
        </defs>

<script type="text/javascript">
var viewWidth = 1177;
var viewHeight = 492;
var sectionId = 'dynsection-1';
</script>
<script xlink:href="svgpan.js"/>
<svg id="graph" class="graph">
<g id="viewport">
<title>xtb_io_writer_genformat::writemoleculegenformat</title>
<polygon fill="white" stroke="transparent" points="-4,4 -4,-488.13 1173,-488.13 1173,4 -4,4"/>
<!-- Node1 -->
<g id="node1" class="node">
<title>Node1</title>
<g id="a_node1"><a xlink:title=" ">
<polygon fill="#bfbfbf" stroke="black" points="1026,-212.5 1026,-242.5 1169,-242.5 1169,-212.5 1026,-212.5"/>
<text text-anchor="start" x="1034" y="-230.5" font-family="Helvetica,sans-Serif" font-size="10.00">xtb_io_writer_genformat</text>
<text text-anchor="middle" x="1097.5" y="-219.5" font-family="Helvetica,sans-Serif" font-size="10.00">::writemoleculegenformat</text>
</a>
</g>
</g>
<!-- Node2 -->
<g id="node2" class="node">
<title>Node2</title>
<g id="a_node2"><a xlink:href="namespacextb__io__writer.html#ae62f58fb1a818b9986af6af30a759ba8" target="_top" xlink:title=" ">
<polygon fill="white" stroke="black" points="834,-218 834,-237 990,-237 990,-218 834,-218"/>
<text text-anchor="middle" x="912" y="-225" font-family="Helvetica,sans-Serif" font-size="10.00">xtb_io_writer::writemolecule</text>
</a>
</g>
</g>
<!-- Node1&#45;&gt;Node2 -->
<g id="edge1" class="edge">
<title>Node1&#45;&gt;Node2</title>
<path fill="none" stroke="midnightblue" d="M1015.56,-227.5C1007.08,-227.5 998.48,-227.5 990.05,-227.5"/>
<polygon fill="midnightblue" stroke="midnightblue" points="1015.82,-231 1025.82,-227.5 1015.82,-224 1015.82,-231"/>
</g>
<!-- Node3 -->
<g id="node3" class="node">
<title>Node3</title>
<g id="a_node3"><a xlink:href="namespacextb__biaspath.html#a17ea22b101e578a3df8d2b58b96811a5" target="_top" xlink:title=" ">
<polygon fill="white" stroke="black" points="311,-391 311,-410 444,-410 444,-391 311,-391"/>
<text text-anchor="middle" x="377.5" y="-398" font-family="Helvetica,sans-Serif" font-size="10.00">xtb_biaspath::bias_path</text>
</a>
</g>
</g>
<!-- Node2&#45;&gt;Node3 -->
<g id="edge2" class="edge">
<title>Node2&#45;&gt;Node3</title>
<path fill="none" stroke="midnightblue" d="M905.07,-247.28C892.49,-285.22 859.16,-367.4 798,-400.5 669.1,-470.27 483.61,-430.34 410.17,-410.07"/>
<polygon fill="midnightblue" stroke="midnightblue" points="908.51,-248.01 908.19,-237.42 901.84,-245.9 908.51,-248.01"/>
</g>
<!-- Node4 -->
<g id="node4" class="node">
<title>Node4</title>
<g id="a_node4"><a xlink:href="namespacextb__topology.html#a33f9e3fab4233477cd7539b5af834c2d" target="_top" xlink:title=" ">
<polygon fill="white" stroke="black" points="641,-44 641,-63 798,-63 798,-44 641,-44"/>
<text text-anchor="middle" x="719.5" y="-51" font-family="Helvetica,sans-Serif" font-size="10.00">xtb_topology::checktopology</text>
</a>
</g>
</g>
<!-- Node2&#45;&gt;Node4 -->
<g id="edge3" class="edge">
<title>Node2&#45;&gt;Node4</title>
<path fill="none" stroke="midnightblue" d="M901.85,-208.68C885.46,-176.91 848.06,-112.69 798,-77.5 789.01,-71.18 778.31,-66.49 767.76,-63.01"/>
<polygon fill="midnightblue" stroke="midnightblue" points="898.8,-210.41 906.42,-217.77 905.06,-207.26 898.8,-210.41"/>
</g>
<!-- Node5 -->
<g id="node5" class="node">
<title>Node5</title>
<g id="a_node5"><a xlink:href="namespacextb__relaxation__engine.html#a930f6aac4b13eab0de82f2b71bcde96b" target="_top" xlink:title="frontend implementation of the fast inertial relaxation engine">
<polygon fill="white" stroke="black" points="480,-278.5 480,-308.5 605,-308.5 605,-278.5 480,-278.5"/>
<text text-anchor="start" x="488" y="-296.5" font-family="Helvetica,sans-Serif" font-size="10.00">xtb_relaxation_engine</text>
<text text-anchor="middle" x="542.5" y="-285.5" font-family="Helvetica,sans-Serif" font-size="10.00">::fire</text>
</a>
</g>
</g>
<!-- Node2&#45;&gt;Node5 -->
<g id="edge4" class="edge">
<title>Node2&#45;&gt;Node5</title>
<path fill="none" stroke="midnightblue" d="M883.17,-241.66C860.77,-252.35 828.16,-266.36 798,-273.5 733.42,-288.79 657.31,-293.04 605.25,-293.93"/>
<polygon fill="midnightblue" stroke="midnightblue" points="884.94,-244.69 892.4,-237.16 881.87,-238.39 884.94,-244.69"/>
</g>
<!-- Node9 -->
<g id="node9" class="node">
<title>Node9</title>
<g id="a_node9"><a xlink:href="namespacextb__mdoptim.html#ab0ba2195163cd6794115b99516ba5316" target="_top" xlink:title=" ">
<polygon fill="white" stroke="black" points="149.5,-370 149.5,-389 268.5,-389 268.5,-370 149.5,-370"/>
<text text-anchor="middle" x="209" y="-377" font-family="Helvetica,sans-Serif" font-size="10.00">xtb_mdoptim::mdopt</text>
</a>
</g>
</g>
<!-- Node2&#45;&gt;Node9 -->
<g id="edge21" class="edge">
<title>Node2&#45;&gt;Node9</title>
<path fill="none" stroke="midnightblue" d="M906.94,-247.04C896.96,-289.61 866.83,-390.31 798,-433.5 606.1,-553.92 307.32,-426.18 229.21,-389"/>
<polygon fill="midnightblue" stroke="midnightblue" points="910.4,-247.63 909.15,-237.11 903.57,-246.11 910.4,-247.63"/>
</g>
<!-- Node11 -->
<g id="node11" class="node">
<title>Node11</title>
<g id="a_node11"><a xlink:href="namespacextb__scan.html#abef8f8d0fa299e9e2caf823f3672f14a" target="_top" xlink:title=" ">
<polygon fill="white" stroke="black" points="144,-178 144,-197 274,-197 274,-178 144,-178"/>
<text text-anchor="middle" x="209" y="-185" font-family="Helvetica,sans-Serif" font-size="10.00">xtb_scan::relaxed_scan</text>
</a>
</g>
</g>
<!-- Node2&#45;&gt;Node11 -->
<g id="edge26" class="edge">
<title>Node2&#45;&gt;Node11</title>
<path fill="none" stroke="midnightblue" d="M823.71,-219.77C762.53,-214.57 678.82,-207.89 605,-203.5 488.36,-196.57 352.16,-191.78 274,-189.35"/>
<polygon fill="midnightblue" stroke="midnightblue" points="823.45,-223.26 833.71,-220.63 824.05,-216.29 823.45,-223.26"/>
</g>
<!-- Node12 -->
<g id="node12" class="node">
<title>Node12</title>
<g id="a_node12"><a xlink:href="namespacextb__screening.html#a7f4004ff0e65127a38b038f0a7cdcc84" target="_top" xlink:title=" ">
<polygon fill="white" stroke="black" points="147.5,-136 147.5,-155 270.5,-155 270.5,-136 147.5,-136"/>
<text text-anchor="middle" x="209" y="-143" font-family="Helvetica,sans-Serif" font-size="10.00">xtb_screening::screen</text>
</a>
</g>
</g>
<!-- Node2&#45;&gt;Node12 -->
<g id="edge29" class="edge">
<title>Node2&#45;&gt;Node12</title>
<path fill="none" stroke="midnightblue" d="M863.45,-215.64C843.36,-210.98 819.65,-205.93 798,-202.5 606.8,-172.2 377.9,-155.59 270.83,-148.96"/>
<polygon fill="midnightblue" stroke="midnightblue" points="862.76,-219.07 873.29,-217.96 864.36,-212.26 862.76,-219.07"/>
</g>
<!-- Node14 -->
<g id="node14" class="node">
<title>Node14</title>
<g id="a_node14"><a xlink:href="namespacextb__relaxation__engine.html#a95175ad328e19b564cba2303d30d4b18" target="_top" xlink:title="backend implementation of the fast inertial relaxation engine">
<polygon fill="white" stroke="black" points="657,-322.5 657,-352.5 782,-352.5 782,-322.5 657,-322.5"/>
<text text-anchor="start" x="665" y="-340.5" font-family="Helvetica,sans-Serif" font-size="10.00">xtb_relaxation_engine</text>
<text text-anchor="middle" x="719.5" y="-329.5" font-family="Helvetica,sans-Serif" font-size="10.00">::inertial_relax</text>
</a>
</g>
</g>
<!-- Node2&#45;&gt;Node14 -->
<g id="edge13" class="edge">
<title>Node2&#45;&gt;Node14</title>
<path fill="none" stroke="midnightblue" d="M891.6,-243.5C869.82,-260.9 832.96,-288.73 798,-307.5 787.7,-313.03 776.16,-318.06 765.2,-322.36"/>
<polygon fill="midnightblue" stroke="midnightblue" points="893.85,-246.18 899.43,-237.17 889.45,-240.73 893.85,-246.18"/>
</g>
<!-- Node15 -->
<g id="node15" class="node">
<title>Node15</title>
<g id="a_node15"><a xlink:href="namespacextb__relaxation__engine.html#a93ca131c43cfa21276f1bc353c189423" target="_top" xlink:title="frontend implementation of the low memory/linear scaling (by taste)">
<polygon fill="white" stroke="black" points="480,-213.5 480,-243.5 605,-243.5 605,-213.5 480,-213.5"/>
<text text-anchor="start" x="488" y="-231.5" font-family="Helvetica,sans-Serif" font-size="10.00">xtb_relaxation_engine</text>
<text text-anchor="middle" x="542.5" y="-220.5" font-family="Helvetica,sans-Serif" font-size="10.00">::l_ancopt</text>
</a>
</g>
</g>
<!-- Node2&#45;&gt;Node15 -->
<g id="edge15" class="edge">
<title>Node2&#45;&gt;Node15</title>
<path fill="none" stroke="midnightblue" d="M823.65,-224.95C814.99,-224.77 806.32,-224.61 798,-224.5 728.23,-223.57 710.76,-223.07 641,-224.5 629.4,-224.74 617.02,-225.13 605.12,-225.59"/>
<polygon fill="midnightblue" stroke="midnightblue" points="823.73,-228.45 833.81,-225.18 823.89,-221.45 823.73,-228.45"/>
</g>
<!-- Node16 -->
<g id="node16" class="node">
<title>Node16</title>
<g id="a_node16"><a xlink:href="namespacextb__relaxation__engine.html#af0280194bd95772c5dfc4a3dece60d0c" target="_top" xlink:title="backend implementation of the low memory BFGS algorithm, this implementation">
<polygon fill="white" stroke="black" points="657,-234.5 657,-264.5 782,-264.5 782,-234.5 657,-234.5"/>
<text text-anchor="start" x="665" y="-252.5" font-family="Helvetica,sans-Serif" font-size="10.00">xtb_relaxation_engine</text>
<text text-anchor="middle" x="719.5" y="-241.5" font-family="Helvetica,sans-Serif" font-size="10.00">::lbfgs_relax</text>
</a>
</g>
</g>
<!-- Node2&#45;&gt;Node16 -->
<g id="edge17" class="edge">
<title>Node2&#45;&gt;Node16</title>
<path fill="none" stroke="midnightblue" d="M823.62,-237.59C809.58,-239.21 795.31,-240.86 782.03,-242.39"/>
<polygon fill="midnightblue" stroke="midnightblue" points="824.26,-241.04 833.79,-236.42 823.46,-234.09 824.26,-241.04"/>
</g>
<!-- Node17 -->
<g id="node17" class="node">
<title>Node17</title>
<g id="a_node17"><a xlink:href="namespacextb__dynamic.html#adbb00c924fbe26c7a6945fed202881e1" target="_top" xlink:title=" ">
<polygon fill="white" stroke="black" points="327,-82 327,-101 428,-101 428,-82 327,-82"/>
<text text-anchor="middle" x="377.5" y="-89" font-family="Helvetica,sans-Serif" font-size="10.00">xtb_dynamic::md</text>
</a>
</g>
</g>
<!-- Node2&#45;&gt;Node17 -->
<g id="edge19" class="edge">
<title>Node2&#45;&gt;Node17</title>
<path fill="none" stroke="midnightblue" d="M899.02,-209.06C880.79,-182.83 843.39,-135.72 798,-115.5 674.39,-60.44 509.65,-72.57 428.3,-83.43"/>
<polygon fill="midnightblue" stroke="midnightblue" points="896.34,-211.35 904.84,-217.68 902.15,-207.44 896.34,-211.35"/>
</g>
<!-- Node18 -->
<g id="node18" class="node">
<title>Node18</title>
<g id="a_node18"><a xlink:href="namespacextb__optimizer.html#a0ae8aa844914d8a5dfd34b5a91faaf32" target="_top" xlink:title="actual optimization procedure">
<polygon fill="white" stroke="black" points="662,-372 662,-391 777,-391 777,-372 662,-372"/>
<text text-anchor="middle" x="719.5" y="-379" font-family="Helvetica,sans-Serif" font-size="10.00">xtb_optimizer::relax</text>
</a>
</g>
</g>
<!-- Node2&#45;&gt;Node18 -->
<g id="edge22" class="edge">
<title>Node2&#45;&gt;Node18</title>
<path fill="none" stroke="midnightblue" d="M900.84,-245.96C883.67,-275.37 846.01,-332.59 798,-362.5 791.65,-366.46 784.53,-369.59 777.25,-372.07"/>
<polygon fill="midnightblue" stroke="midnightblue" points="903.96,-247.55 905.87,-237.13 897.88,-244.09 903.96,-247.55"/>
</g>
<!-- Node20 -->
<g id="node20" class="node">
<title>Node20</title>
<g id="a_node20"><a xlink:href="namespacextb__extern__orca.html#a901f1a12914ee12c83e6c7ef9c7808e9" target="_top" xlink:title=" ">
<polygon fill="white" stroke="black" points="650.5,-6 650.5,-25 788.5,-25 788.5,-6 650.5,-6"/>
<text text-anchor="middle" x="719.5" y="-13" font-family="Helvetica,sans-Serif" font-size="10.00">xtb_extern_orca::runorca</text>
</a>
</g>
</g>
<!-- Node2&#45;&gt;Node20 -->
<g id="edge27" class="edge">
<title>Node2&#45;&gt;Node20</title>
<path fill="none" stroke="midnightblue" d="M905.27,-207.93C892.7,-168.6 858.88,-79.9 798,-34.5 792.78,-30.61 786.87,-27.5 780.69,-25.03"/>
<polygon fill="midnightblue" stroke="midnightblue" points="901.97,-209.1 908.25,-217.63 908.66,-207.04 901.97,-209.1"/>
</g>
<!-- Node6 -->
<g id="node6" class="node">
<title>Node6</title>
<g id="a_node6"><a xlink:href="namespacextb__geoopt.html#a1f0513294f2237b94f355cc4dc5dd867" target="_top" xlink:title=" ">
<polygon fill="white" stroke="black" points="315,-213.5 315,-243.5 440,-243.5 440,-213.5 315,-213.5"/>
<text text-anchor="start" x="323" y="-231.5" font-family="Helvetica,sans-Serif" font-size="10.00">xtb_geoopt::geometry</text>
<text text-anchor="middle" x="377.5" y="-220.5" font-family="Helvetica,sans-Serif" font-size="10.00">_optimization</text>
</a>
</g>
</g>
<!-- Node5&#45;&gt;Node6 -->
<g id="edge5" class="edge">
<title>Node5&#45;&gt;Node6</title>
<path fill="none" stroke="midnightblue" d="M494.14,-274.62C469.41,-264.75 439.56,-252.85 416.38,-243.61"/>
<polygon fill="midnightblue" stroke="midnightblue" points="493.11,-277.97 503.69,-278.42 495.7,-271.47 493.11,-277.97"/>
</g>
<!-- Node7 -->
<g id="node7" class="node">
<title>Node7</title>
<g id="a_node7"><a xlink:href="namespacextb__kopt.html#ada4ab70832f563f46c8ffc8cea64c78b" target="_top" xlink:title=" ">
<polygon fill="white" stroke="black" points="154,-256 154,-275 264,-275 264,-256 154,-256"/>
<text text-anchor="middle" x="209" y="-263" font-family="Helvetica,sans-Serif" font-size="10.00">xtb_kopt::get_rmsd</text>
</a>
</g>
</g>
<!-- Node6&#45;&gt;Node7 -->
<g id="edge6" class="edge">
<title>Node6&#45;&gt;Node7</title>
<path fill="none" stroke="midnightblue" d="M305.17,-244.35C287.35,-248.31 268.79,-252.44 252.83,-255.98"/>
<polygon fill="midnightblue" stroke="midnightblue" points="305.97,-247.76 314.97,-242.17 304.45,-240.93 305.97,-247.76"/>
</g>
<!-- Node6&#45;&gt;Node9 -->
<g id="edge8" class="edge">
<title>Node6&#45;&gt;Node9</title>
<path fill="none" stroke="midnightblue" d="M352.14,-250.59C315.29,-284.02 246.88,-346.05 220.63,-369.86"/>
<polygon fill="midnightblue" stroke="midnightblue" points="354.87,-252.84 359.93,-243.53 350.17,-247.66 354.87,-252.84"/>
</g>
<!-- Node10 -->
<g id="node10" class="node">
<title>Node10</title>
<g id="a_node10"><a xlink:href="namespacextb__modef.html#a39c4cb408b8b02afb7bf83a1d7f13de3" target="_top" xlink:title=" ">
<polygon fill="white" stroke="black" points="143,-218 143,-237 275,-237 275,-218 143,-218"/>
<text text-anchor="middle" x="209" y="-225" font-family="Helvetica,sans-Serif" font-size="10.00">xtb_modef::modefollow</text>
</a>
</g>
</g>
<!-- Node6&#45;&gt;Node10 -->
<g id="edge9" class="edge">
<title>Node6&#45;&gt;Node10</title>
<path fill="none" stroke="midnightblue" d="M304.82,-228.07C294.97,-228.01 284.9,-227.95 275.18,-227.89"/>
<polygon fill="midnightblue" stroke="midnightblue" points="304.95,-231.57 314.97,-228.13 305,-224.57 304.95,-231.57"/>
</g>
<!-- Node6&#45;&gt;Node11 -->
<g id="edge10" class="edge">
<title>Node6&#45;&gt;Node11</title>
<path fill="none" stroke="midnightblue" d="M305.67,-211.06C286.17,-206.26 265.75,-201.23 248.8,-197.05"/>
<polygon fill="midnightblue" stroke="midnightblue" points="304.9,-214.47 315.45,-213.47 306.57,-207.68 304.9,-214.47"/>
</g>
<!-- Node6&#45;&gt;Node12 -->
<g id="edge11" class="edge">
<title>Node6&#45;&gt;Node12</title>
<path fill="none" stroke="midnightblue" d="M345.28,-207.9C325.63,-195.49 299.45,-179.92 275,-168.5 264.15,-163.43 251.86,-158.82 240.91,-155.07"/>
<polygon fill="midnightblue" stroke="midnightblue" points="343.5,-210.92 353.81,-213.36 347.27,-205.02 343.5,-210.92"/>
</g>
<!-- Node13 -->
<g id="node13" class="node">
<title>Node13</title>
<g id="a_node13"><a xlink:href="namespacextb__gfnff__convert.html#adf399b47b9f2a8364327d9d5c38cb2b8" target="_top" xlink:title=" ">
<polygon fill="white" stroke="black" points="155,-78.5 155,-108.5 263,-108.5 263,-78.5 155,-78.5"/>
<text text-anchor="start" x="163" y="-96.5" font-family="Helvetica,sans-Serif" font-size="10.00">xtb_gfnff_convert::</text>
<text text-anchor="middle" x="209" y="-85.5" font-family="Helvetica,sans-Serif" font-size="10.00">struc_convert</text>
</a>
</g>
</g>
<!-- Node6&#45;&gt;Node13 -->
<g id="edge12" class="edge">
<title>Node6&#45;&gt;Node13</title>
<path fill="none" stroke="midnightblue" d="M357.49,-205.53C338.31,-183.35 307.03,-149.79 275,-126.5 265.69,-119.73 254.78,-113.6 244.59,-108.51"/>
<polygon fill="midnightblue" stroke="midnightblue" points="354.84,-207.81 363.99,-213.15 360.16,-203.27 354.84,-207.81"/>
</g>
<!-- Node8 -->
<g id="node8" class="node">
<title>Node8</title>
<g id="a_node8"><a xlink:href="namespacextb__kopt.html#aed50b40106367857ab2d0bf3a109f62b" target="_top" xlink:title=" ">
<polygon fill="white" stroke="black" points="0,-256 0,-275 107,-275 107,-256 0,-256"/>
<text text-anchor="middle" x="53.5" y="-263" font-family="Helvetica,sans-Serif" font-size="10.00">xtb_kopt::get_kopt</text>
</a>
</g>
</g>
<!-- Node7&#45;&gt;Node8 -->
<g id="edge7" class="edge">
<title>Node7&#45;&gt;Node8</title>
<path fill="none" stroke="midnightblue" d="M143.75,-265.5C131.54,-265.5 118.9,-265.5 107.1,-265.5"/>
<polygon fill="midnightblue" stroke="midnightblue" points="143.88,-269 153.88,-265.5 143.88,-262 143.88,-269"/>
</g>
<!-- Node14&#45;&gt;Node5 -->
<g id="edge14" class="edge">
<title>Node14&#45;&gt;Node5</title>
<path fill="none" stroke="midnightblue" d="M648.96,-320.01C633.83,-316.21 617.97,-312.22 603.26,-308.53"/>
<polygon fill="midnightblue" stroke="midnightblue" points="648.21,-323.44 658.76,-322.48 649.92,-316.65 648.21,-323.44"/>
</g>
<!-- Node15&#45;&gt;Node6 -->
<g id="edge16" class="edge">
<title>Node15&#45;&gt;Node6</title>
<path fill="none" stroke="midnightblue" d="M469.72,-228.5C459.88,-228.5 449.85,-228.5 440.21,-228.5"/>
<polygon fill="midnightblue" stroke="midnightblue" points="469.88,-232 479.88,-228.5 469.88,-225 469.88,-232"/>
</g>
<!-- Node16&#45;&gt;Node15 -->
<g id="edge18" class="edge">
<title>Node16&#45;&gt;Node15</title>
<path fill="none" stroke="midnightblue" d="M646.86,-240.9C633.05,-239.25 618.69,-237.52 605.23,-235.91"/>
<polygon fill="midnightblue" stroke="midnightblue" points="646.46,-244.38 656.8,-242.1 647.29,-237.43 646.46,-244.38"/>
</g>
<!-- Node17&#45;&gt;Node13 -->
<g id="edge20" class="edge">
<title>Node17&#45;&gt;Node13</title>
<path fill="none" stroke="midnightblue" d="M316.86,-92.22C299.3,-92.43 280.21,-92.66 263.08,-92.86"/>
<polygon fill="midnightblue" stroke="midnightblue" points="317.04,-95.71 327,-92.09 316.95,-88.72 317.04,-95.71"/>
</g>
<!-- Node19 -->
<g id="node19" class="node">
<title>Node19</title>
<g id="a_node19"><a xlink:href="namespacextb__optimizer.html#a1743159550358c92fb2761af80e15285" target="_top" xlink:title=" ">
<polygon fill="white" stroke="black" points="481,-372 481,-391 604,-391 604,-372 481,-372"/>
<text text-anchor="middle" x="542.5" y="-379" font-family="Helvetica,sans-Serif" font-size="10.00">xtb_optimizer::ancopt</text>
</a>
</g>
</g>
<!-- Node18&#45;&gt;Node19 -->
<g id="edge23" class="edge">
<title>Node18&#45;&gt;Node19</title>
<path fill="none" stroke="midnightblue" d="M651.61,-381.5C636.04,-381.5 619.54,-381.5 604.25,-381.5"/>
<polygon fill="midnightblue" stroke="midnightblue" points="651.68,-385 661.68,-381.5 651.68,-378 651.68,-385"/>
</g>
<!-- Node19&#45;&gt;Node3 -->
<g id="edge24" class="edge">
<title>Node19&#45;&gt;Node3</title>
<path fill="none" stroke="midnightblue" d="M470.6,-389.76C461.81,-390.79 452.87,-391.83 444.17,-392.85"/>
<polygon fill="midnightblue" stroke="midnightblue" points="471.28,-393.21 480.8,-388.57 470.47,-386.26 471.28,-393.21"/>
</g>
<!-- Node19&#45;&gt;Node6 -->
<g id="edge25" class="edge">
<title>Node19&#45;&gt;Node6</title>
<path fill="none" stroke="midnightblue" d="M523.62,-364.72C491.71,-334.77 425.42,-272.54 394.73,-243.74"/>
<polygon fill="midnightblue" stroke="midnightblue" points="521.62,-367.64 531.3,-371.93 526.41,-362.53 521.62,-367.64"/>
</g>
<!-- Node21 -->
<g id="node21" class="node">
<title>Node21</title>
<g id="a_node21"><a xlink:href="namespacextb__type__dummycalc.html#a28a36738c316fb4a0655328844e94957" target="_top" xlink:title=" ">
<polygon fill="white" stroke="black" points="481.5,-0.5 481.5,-30.5 603.5,-30.5 603.5,-0.5 481.5,-0.5"/>
<text text-anchor="start" x="489.5" y="-18.5" font-family="Helvetica,sans-Serif" font-size="10.00">xtb_type_dummycalc</text>
<text text-anchor="middle" x="542.5" y="-7.5" font-family="Helvetica,sans-Serif" font-size="10.00">::singlepoint</text>
</a>
</g>
</g>
<!-- Node20&#45;&gt;Node21 -->
<g id="edge28" class="edge">
<title>Node20&#45;&gt;Node21</title>
<path fill="none" stroke="midnightblue" d="M640.1,-15.5C627.82,-15.5 615.29,-15.5 603.51,-15.5"/>
<polygon fill="midnightblue" stroke="midnightblue" points="640.34,-19 650.34,-15.5 640.34,-12 640.34,-19"/>
</g>
</g>
</svg>
        <g id="navigator" transform="translate(0 0)" fill="#404254">
                <rect fill="#f2f5e9" fill-opacity="0.5" stroke="#606060" stroke-width=".5" x="0" y="0" width="60" height="60"/>
                <use id="zoomplus" xlink:href="#zoomPlus" x="17" y="9" onmousedown="handleZoom(evt,'in')"/>
                <use id="zoomminus" xlink:href="#zoomMin" x="42" y="9" onmousedown="handleZoom(evt,'out')"/>
                <use id="reset" xlink:href="#resetDef" x="30" y="36" onmousedown="handleReset()"/>
                <g id="arrowUp" xlink:href="#dirArrow" transform="translate(30 24)" onmousedown="handlePan(0,-1)">
                  <use xlink:href="#rim" fill="#404040">
                        <set attributeName="fill" to="#808080" begin="arrowUp.mouseover" end="arrowUp.mouseout"/>
                  </use>
                  <path fill="none" stroke="white" stroke-width="1.5" d="M0,-3.0v7 M-2.5,-0.5L0,-3.0L2.5,-0.5"/>
                </g>
                <g id="arrowRight" xlink:href="#dirArrow" transform="rotate(90) translate(36 -43)" onmousedown="handlePan(1,0)">
                  <use xlink:href="#rim" fill="#404040">
                        <set attributeName="fill" to="#808080" begin="arrowRight.mouseover" end="arrowRight.mouseout"/>
                  </use>
                  <path fill="none" stroke="white" stroke-width="1.5" d="M0,-3.0v7 M-2.5,-0.5L0,-3.0L2.5,-0.5"/>
                </g>
                <g id="arrowDown" xlink:href="#dirArrow" transform="rotate(180) translate(-30 -48)" onmousedown="handlePan(0,1)">
                  <use xlink:href="#rim" fill="#404040">
                        <set attributeName="fill" to="#808080" begin="arrowDown.mouseover" end="arrowDown.mouseout"/>
                  </use>
                  <path fill="none" stroke="white" stroke-width="1.5" d="M0,-3.0v7 M-2.5,-0.5L0,-3.0L2.5,-0.5"/>
                </g>
                <g id="arrowLeft" xlink:href="#dirArrow" transform="rotate(270) translate(-36 17)" onmousedown="handlePan(-1,0)">
                  <use xlink:href="#rim" fill="#404040">
                        <set attributeName="fill" to="#808080" begin="arrowLeft.mouseover" end="arrowLeft.mouseout"/>
                  </use>
                  <path fill="none" stroke="white" stroke-width="1.5" d="M0,-3.0v7 M-2.5,-0.5L0,-3.0L2.5,-0.5"/>
                </g>
        </g>
        <svg viewBox="0 0 15 15" width="100%" height="30px" preserveAspectRatio="xMaxYMin meet">
         <g id="arrow_out" transform="scale(0.3 0.3)">
          <a xlink:href="namespacextb__io__writer__genformat_a1810561c53a9646168270599b5046a16_icgraph_org.svg" target="_base">
           <rect id="button" ry="5" rx="5" y="6" x="6" height="38" width="38"
                fill="#f2f5e9" fill-opacity="0.5" stroke="#606060" stroke-width="1.0"/>
           <path id="arrow"
             d="M 11.500037,31.436501 C 11.940474,20.09759 22.043105,11.32322 32.158766,21.979434 L 37.068811,17.246167 C 37.068811,17.246167 37.088388,32 37.088388,32 L 22.160133,31.978069 C 22.160133,31.978069 26.997745,27.140456 26.997745,27.140456 C 18.528582,18.264221 13.291696,25.230495 11.500037,31.436501 z"
             style="fill:#404040;"/>
          </a>
         </g>
        </svg>
</svg>
