<?xml version="1.0" encoding="UTF-8" standalone="no"?>
<!DOCTYPE svg PUBLIC "-//W3C//DTD SVG 1.1//EN"
 "http://www.w3.org/Graphics/SVG/1.1/DTD/svg11.dtd">
<!-- Generated by graphviz version 2.46.1 (20210215.1649)
 -->
<!-- Title: xtb_modelhessian::mh_swart_stretch Pages: 1 -->
<svg width="439pt" height="230pt"
 viewBox="0.00 0.00 439.00 229.50" xmlns="http://www.w3.org/2000/svg" xmlns:xlink="http://www.w3.org/1999/xlink">
<g id="graph0" class="graph" transform="scale(1 1) rotate(0) translate(4 225.5)">
<title>xtb_modelhessian::mh_swart_stretch</title>
<polygon fill="white" stroke="transparent" points="-4,4 -4,-225.5 435,-225.5 435,4 -4,4"/>
<!-- Node1 -->
<g id="node1" class="node">
<title>Node1</title>
<g id="a_node1"><a xlink:title=" ">
<polygon fill="#bfbfbf" stroke="black" points="0,-90 0,-120 113,-120 113,-90 0,-90"/>
<text text-anchor="start" x="8" y="-108" font-family="Helvetica,sans-Serif" font-size="10.00">xtb_modelhessian::mh</text>
<text text-anchor="middle" x="56.5" y="-97" font-family="Helvetica,sans-Serif" font-size="10.00">_swart_stretch</text>
</a>
</g>
</g>
<!-- Node2 -->
<g id="node2" class="node">
<title>Node2</title>
<g id="a_node2"><a xlink:href="namespacextb__modelhessian.html#a32eebf22d776cb8137dafb8e6d0eb2ba" target="_top" xlink:title=" ">
<polygon fill="white" stroke="black" points="161,-191 161,-221 268,-221 268,-191 161,-191"/>
<text text-anchor="start" x="169" y="-209" font-family="Helvetica,sans-Serif" font-size="10.00">xtb_modelhessian::fk</text>
<text text-anchor="middle" x="214.5" y="-198" font-family="Helvetica,sans-Serif" font-size="10.00">_swart</text>
</a>
</g>
</g>
<!-- Node1&#45;&gt;Node2 -->
<g id="edge1" class="edge">
<title>Node1&#45;&gt;Node2</title>
<path fill="none" stroke="midnightblue" d="M72.52,-120.13C89.75,-136.83 119.45,-163.63 149,-181 152.4,-183 155.98,-184.89 159.65,-186.68"/>
<polygon fill="midnightblue" stroke="midnightblue" points="158.34,-189.93 168.89,-190.9 161.25,-183.56 158.34,-189.93"/>
</g>
<!-- Node3 -->
<g id="node3" class="node">
<title>Node3</title>
<g id="a_node3"><a xlink:href="namespacextb__modelhessian.html#a5f74ce78dbaa3ff66d505b6126cd6674" target="_top" xlink:title=" ">
<polygon fill="white" stroke="black" points="149,-152.5 149,-171.5 280,-171.5 280,-152.5 149,-152.5"/>
<text text-anchor="middle" x="214.5" y="-159.5" font-family="Helvetica,sans-Serif" font-size="10.00">xtb_modelhessian::fk_vdw</text>
</a>
</g>
</g>
<!-- Node1&#45;&gt;Node3 -->
<g id="edge2" class="edge">
<title>Node1&#45;&gt;Node3</title>
<path fill="none" stroke="midnightblue" d="M91.49,-120.13C108.57,-127.48 129.7,-136.17 149,-143 155.36,-145.25 162.13,-147.45 168.81,-149.51"/>
<polygon fill="midnightblue" stroke="midnightblue" points="167.88,-152.89 178.47,-152.42 169.9,-146.19 167.88,-152.89"/>
</g>
<!-- Node4 -->
<g id="node4" class="node">
<title>Node4</title>
<g id="a_node4"><a xlink:href="lindh_8f90.html#ab2e7f77ee373a0a959c69716f8f68442" target="_top" xlink:title=" ">
<polygon fill="white" stroke="black" points="186,-114.5 186,-133.5 243,-133.5 243,-114.5 186,-114.5"/>
<text text-anchor="middle" x="214.5" y="-121.5" font-family="Helvetica,sans-Serif" font-size="10.00">getvdwxx</text>
</a>
</g>
</g>
<!-- Node1&#45;&gt;Node4 -->
<g id="edge3" class="edge">
<title>Node1&#45;&gt;Node4</title>
<path fill="none" stroke="midnightblue" d="M113.38,-111.81C134.18,-114.34 157.27,-117.15 176.03,-119.44"/>
<polygon fill="midnightblue" stroke="midnightblue" points="175.62,-122.91 185.97,-120.65 176.46,-115.96 175.62,-122.91"/>
</g>
<!-- Node5 -->
<g id="node5" class="node">
<title>Node5</title>
<g id="a_node5"><a xlink:href="lindh_8f90.html#a2bc30e925179306ac08c6efada837793" target="_top" xlink:title=" ">
<polygon fill="white" stroke="black" points="186,-76.5 186,-95.5 243,-95.5 243,-76.5 186,-76.5"/>
<text text-anchor="middle" x="214.5" y="-83.5" font-family="Helvetica,sans-Serif" font-size="10.00">getvdwxy</text>
</a>
</g>
</g>
<!-- Node1&#45;&gt;Node5 -->
<g id="edge4" class="edge">
<title>Node1&#45;&gt;Node5</title>
<path fill="none" stroke="midnightblue" d="M113.38,-98.19C134.18,-95.66 157.27,-92.85 176.03,-90.56"/>
<polygon fill="midnightblue" stroke="midnightblue" points="176.46,-94.04 185.97,-89.35 175.62,-87.09 176.46,-94.04"/>
</g>
<!-- Node6 -->
<g id="node6" class="node">
<title>Node6</title>
<g id="a_node6"><a xlink:href="namespacextb__modelhessian.html#a0fc5c82305ca92f7b9625a6869c279c8" target="_top" xlink:title=" ">
<polygon fill="white" stroke="black" points="158.5,-38.5 158.5,-57.5 270.5,-57.5 270.5,-38.5 158.5,-38.5"/>
<text text-anchor="middle" x="214.5" y="-45.5" font-family="Helvetica,sans-Serif" font-size="10.00">xtb_modelhessian::ind</text>
</a>
</g>
</g>
<!-- Node1&#45;&gt;Node6 -->
<g id="edge5" class="edge">
<title>Node1&#45;&gt;Node6</title>
<path fill="none" stroke="midnightblue" d="M91.49,-89.87C108.57,-82.52 129.7,-73.83 149,-67 155.36,-64.75 162.13,-62.55 168.81,-60.49"/>
<polygon fill="midnightblue" stroke="midnightblue" points="169.9,-63.81 178.47,-57.58 167.88,-57.11 169.9,-63.81"/>
</g>
<!-- Node9 -->
<g id="node9" class="node">
<title>Node9</title>
<g id="a_node9"><a xlink:href="lindh_8f90.html#a07fb38a4e66c854d96be3365e27e13da" target="_top" xlink:title=" ">
<polygon fill="white" stroke="black" points="192.5,-0.5 192.5,-19.5 236.5,-19.5 236.5,-0.5 192.5,-0.5"/>
<text text-anchor="middle" x="214.5" y="-7.5" font-family="Helvetica,sans-Serif" font-size="10.00">rcutoff</text>
</a>
</g>
</g>
<!-- Node1&#45;&gt;Node9 -->
<g id="edge8" class="edge">
<title>Node1&#45;&gt;Node9</title>
<path fill="none" stroke="midnightblue" d="M71.95,-89.71C88.9,-72.62 118.57,-45.22 149,-29 159.3,-23.51 171.4,-19.41 182.32,-16.45"/>
<polygon fill="midnightblue" stroke="midnightblue" points="183.48,-19.77 192.33,-13.95 181.78,-12.97 183.48,-19.77"/>
</g>
<!-- Node7 -->
<g id="node7" class="node">
<title>Node7</title>
<g id="a_node7"><a xlink:href="namespacextb__modelhessian.html#ad5b302d227ff0bda37ab6e452a7e71f0" target="_top" xlink:title=" ">
<polygon fill="white" stroke="black" points="316,-76.5 316,-95.5 431,-95.5 431,-76.5 316,-76.5"/>
<text text-anchor="middle" x="373.5" y="-83.5" font-family="Helvetica,sans-Serif" font-size="10.00">xtb_modelhessian::ixyz</text>
</a>
</g>
</g>
<!-- Node6&#45;&gt;Node7 -->
<g id="edge6" class="edge">
<title>Node6&#45;&gt;Node7</title>
<path fill="none" stroke="midnightblue" d="M255.12,-57.59C275.84,-62.6 301.39,-68.79 323.36,-74.11"/>
<polygon fill="midnightblue" stroke="midnightblue" points="322.62,-77.53 333.17,-76.48 324.27,-70.73 322.62,-77.53"/>
</g>
<!-- Node8 -->
<g id="node8" class="node">
<title>Node8</title>
<g id="a_node8"><a xlink:href="namespacextb__modelhessian.html#a4c09cd1aade9a59a35a770f0908823fc" target="_top" xlink:title=" ">
<polygon fill="white" stroke="black" points="317.5,-38.5 317.5,-57.5 429.5,-57.5 429.5,-38.5 317.5,-38.5"/>
<text text-anchor="middle" x="373.5" y="-45.5" font-family="Helvetica,sans-Serif" font-size="10.00">xtb_modelhessian::jnd</text>
</a>
</g>
</g>
<!-- Node6&#45;&gt;Node8 -->
<g id="edge7" class="edge">
<title>Node6&#45;&gt;Node8</title>
<path fill="none" stroke="midnightblue" d="M270.85,-48C282.65,-48 295.21,-48 307.33,-48"/>
<polygon fill="midnightblue" stroke="midnightblue" points="307.38,-51.5 317.38,-48 307.38,-44.5 307.38,-51.5"/>
</g>
<!-- Node10 -->
<g id="node10" class="node">
<title>Node10</title>
<g id="a_node10"><a xlink:href="symmetry__i_8c.html#aa77c823a9fc018ae1d437369708d8727" target="_top" xlink:title=" ">
<polygon fill="white" stroke="black" points="357,-0.5 357,-19.5 390,-19.5 390,-0.5 357,-0.5"/>
<text text-anchor="middle" x="373.5" y="-7.5" font-family="Helvetica,sans-Serif" font-size="10.00">true</text>
</a>
</g>
</g>
<!-- Node9&#45;&gt;Node10 -->
<g id="edge9" class="edge">
<title>Node9&#45;&gt;Node10</title>
<path fill="none" stroke="midnightblue" d="M236.67,-10C265.15,-10 315.76,-10 346.51,-10"/>
<polygon fill="midnightblue" stroke="midnightblue" points="346.86,-13.5 356.86,-10 346.86,-6.5 346.86,-13.5"/>
</g>
</g>
</svg>
