<?xml version="1.0" encoding="UTF-8" standalone="no"?>
<!DOCTYPE svg PUBLIC "-//W3C//DTD SVG 1.1//EN"
 "http://www.w3.org/Graphics/SVG/1.1/DTD/svg11.dtd">
<!-- Generated by graphviz version 2.43.0 (0)
 -->
<!-- Title: xtb_constrain_param::set_metadyn Pages: 1 -->
<svg width="437pt" height="61pt"
 viewBox="0.00 0.00 437.00 61.00" xmlns="http://www.w3.org/2000/svg" xmlns:xlink="http://www.w3.org/1999/xlink">
<g id="graph0" class="graph" transform="scale(1 1) rotate(0) translate(4 57)">
<title>xtb_constrain_param::set_metadyn</title>
<polygon fill="white" stroke="transparent" points="-4,4 -4,-57 433,-57 433,4 -4,4"/>
<!-- Node1 -->
<g id="node1" class="node">
<title>Node1</title>
<g id="a_node1"><a xlink:title=" ">
<polygon fill="#bfbfbf" stroke="black" points="310,-22.5 310,-52.5 429,-52.5 429,-22.5 310,-22.5"/>
<text text-anchor="start" x="318" y="-40.5" font-family="Helvetica,sans-Serif" font-size="10.00">xtb_constrain_param</text>
<text text-anchor="middle" x="369.5" y="-29.5" font-family="Helvetica,sans-Serif" font-size="10.00">::set_metadyn</text>
</a>
</g>
</g>
<!-- Node2 -->
<g id="node2" class="node">
<title>Node2</title>
<g id="a_node2"><a xlink:href="namespacextb__constrain__param.html#ad84b3d616937ffe722a0b7c064a1f3df" target="_top" xlink:title=" ">
<polygon fill="white" stroke="black" points="0,-22.5 0,-52.5 119,-52.5 119,-22.5 0,-22.5"/>
<text text-anchor="start" x="8" y="-40.5" font-family="Helvetica,sans-Serif" font-size="10.00">xtb_constrain_param</text>
<text text-anchor="middle" x="59.5" y="-29.5" font-family="Helvetica,sans-Serif" font-size="10.00">::read_userdata</text>
</a>
</g>
</g>
<!-- Node1&#45;&gt;Node2 -->
<g id="edge1" class="edge">
<title>Node1&#45;&gt;Node2</title>
<path fill="none" stroke="midnightblue" d="M299.69,-39.94C291.04,-40.17 282.32,-40.37 274,-40.5 221.12,-41.34 207.88,-41.34 155,-40.5 143.43,-40.32 131.06,-40.01 119.22,-39.65"/>
<polygon fill="midnightblue" stroke="midnightblue" points="299.88,-43.44 309.78,-39.65 299.68,-36.44 299.88,-43.44"/>
</g>
<!-- Node3 -->
<g id="node3" class="node">
<title>Node3</title>
<g id="a_node3"><a xlink:href="namespacextb__constrain__param.html#a3b378166df878393b40454007360051e" target="_top" xlink:title=" ">
<polygon fill="white" stroke="black" points="155,-0.5 155,-30.5 274,-30.5 274,-0.5 155,-0.5"/>
<text text-anchor="start" x="163" y="-18.5" font-family="Helvetica,sans-Serif" font-size="10.00">xtb_constrain_param</text>
<text text-anchor="middle" x="214.5" y="-7.5" font-family="Helvetica,sans-Serif" font-size="10.00">::set_legacy</text>
</a>
</g>
</g>
<!-- Node1&#45;&gt;Node3 -->
<g id="edge2" class="edge">
<title>Node1&#45;&gt;Node3</title>
<path fill="none" stroke="midnightblue" d="M299.79,-27.62C291.2,-26.38 282.47,-25.13 274.06,-23.92"/>
<polygon fill="midnightblue" stroke="midnightblue" points="299.39,-31.1 309.78,-29.06 300.38,-24.17 299.39,-31.1"/>
</g>
<!-- Node3&#45;&gt;Node2 -->
<g id="edge3" class="edge">
<title>Node3&#45;&gt;Node2</title>
<path fill="none" stroke="midnightblue" d="M144.79,-25.38C136.2,-26.62 127.47,-27.87 119.06,-29.08"/>
<polygon fill="midnightblue" stroke="midnightblue" points="145.38,-28.83 154.78,-23.94 144.39,-21.9 145.38,-28.83"/>
</g>
</g>
</svg>
