<?xml version="1.0" encoding="UTF-8" standalone="no"?>
<!DOCTYPE svg PUBLIC "-//W3C//DTD SVG 1.1//EN"
 "http://www.w3.org/Graphics/SVG/1.1/DTD/svg11.dtd">
<!-- Generated by graphviz version 2.46.1 (20210215.1649)
 -->
<!-- Title: xtb_hessian::numhess Pages: 1 -->
<svg width="1026pt" height="503pt"
 viewBox="0.00 0.00 1026.00 503.00" xmlns="http://www.w3.org/2000/svg" xmlns:xlink="http://www.w3.org/1999/xlink">
<g id="graph0" class="graph" transform="scale(1 1) rotate(0) translate(4 499)">
<title>xtb_hessian::numhess</title>
<polygon fill="white" stroke="transparent" points="-4,4 -4,-499 1022,-499 1022,4 -4,4"/>
<!-- Node1 -->
<g id="node1" class="node">
<title>Node1</title>
<g id="a_node1"><a xlink:title=" ">
<polygon fill="#bfbfbf" stroke="black" points="0,-190.5 0,-209.5 113,-209.5 113,-190.5 0,-190.5"/>
<text text-anchor="middle" x="56.5" y="-197.5" font-family="Helvetica,sans-Serif" font-size="10.00">xtb_hessian::numhess</text>
</a>
</g>
</g>
<!-- Node2 -->
<g id="node2" class="node">
<title>Node2</title>
<g id="a_node2"><a xlink:href="namespacextb__axis.html#a17d974ca7396eb007888d7fd9743edac" target="_top" xlink:title=" ">
<polygon fill="white" stroke="black" points="182,-380.5 182,-399.5 256,-399.5 256,-380.5 182,-380.5"/>
<text text-anchor="middle" x="219" y="-387.5" font-family="Helvetica,sans-Serif" font-size="10.00">xtb_axis::axis</text>
</a>
</g>
</g>
<!-- Node1&#45;&gt;Node2 -->
<g id="edge1" class="edge">
<title>Node1&#45;&gt;Node2</title>
<path fill="none" stroke="midnightblue" d="M62.89,-209.68C75.9,-232.58 110.76,-291.25 149,-333 163.25,-348.56 181.8,-363.66 196.08,-374.4"/>
<polygon fill="midnightblue" stroke="midnightblue" points="194.21,-377.37 204.34,-380.49 198.37,-371.74 194.21,-377.37"/>
</g>
<!-- Node8 -->
<g id="node8" class="node">
<title>Node8</title>
<g id="a_node8"><a xlink:href="namespacextb__hessian.html#aeb3ba56bd4b7f589649c764b13382bfd" target="_top" xlink:title=" ">
<polygon fill="white" stroke="black" points="149,-304.5 149,-323.5 289,-323.5 289,-304.5 149,-304.5"/>
<text text-anchor="middle" x="219" y="-311.5" font-family="Helvetica,sans-Serif" font-size="10.00">xtb_hessian::numhess_rmsd</text>
</a>
</g>
</g>
<!-- Node1&#45;&gt;Node8 -->
<g id="edge7" class="edge">
<title>Node1&#45;&gt;Node8</title>
<path fill="none" stroke="midnightblue" d="M64.76,-209.55C79.02,-227.68 112.47,-267.31 149,-290 155.89,-294.28 163.65,-297.92 171.41,-300.98"/>
<polygon fill="midnightblue" stroke="midnightblue" points="170.22,-304.27 180.82,-304.41 172.63,-297.69 170.22,-304.27"/>
</g>
<!-- Node16 -->
<g id="node16" class="node">
<title>Node16</title>
<g id="a_node16"><a xlink:href="symmetry__i_8c.html#aa77c823a9fc018ae1d437369708d8727" target="_top" xlink:title=" ">
<polygon fill="white" stroke="black" points="547.5,-285.5 547.5,-304.5 580.5,-304.5 580.5,-285.5 547.5,-285.5"/>
<text text-anchor="middle" x="564" y="-292.5" font-family="Helvetica,sans-Serif" font-size="10.00">true</text>
</a>
</g>
</g>
<!-- Node1&#45;&gt;Node16 -->
<g id="edge25" class="edge">
<title>Node1&#45;&gt;Node16</title>
<path fill="none" stroke="midnightblue" d="M69.01,-209.69C85.52,-222.97 117.42,-246.38 149,-257 221.54,-281.39 458,-291.45 537.02,-294.18"/>
<polygon fill="midnightblue" stroke="midnightblue" points="537.39,-297.7 547.5,-294.53 537.62,-290.7 537.39,-297.7"/>
</g>
<!-- Node18 -->
<g id="node18" class="node">
<title>Node18</title>
<g id="a_node18"><a xlink:href="prmat_8f90.html#af6c22e177300d9e3cba17adaa1dfaab8" target="_top" xlink:title=" ">
<polygon fill="white" stroke="black" points="198.5,-228.5 198.5,-247.5 239.5,-247.5 239.5,-228.5 198.5,-228.5"/>
<text text-anchor="middle" x="219" y="-235.5" font-family="Helvetica,sans-Serif" font-size="10.00">preigf</text>
</a>
</g>
</g>
<!-- Node1&#45;&gt;Node18 -->
<g id="edge20" class="edge">
<title>Node1&#45;&gt;Node18</title>
<path fill="none" stroke="midnightblue" d="M98,-209.59C126.24,-216.28 163.27,-225.04 188.68,-231.06"/>
<polygon fill="midnightblue" stroke="midnightblue" points="187.93,-234.48 198.47,-233.38 189.55,-227.67 187.93,-234.48"/>
</g>
<!-- Node19 -->
<g id="node19" class="node">
<title>Node19</title>
<g id="a_node19"><a xlink:href="namespacextb__hessian.html#a2c33e2ba984e0c31ca78fe3c779e4dcb" target="_top" xlink:title=" ">
<polygon fill="white" stroke="black" points="169,-190.5 169,-209.5 269,-209.5 269,-190.5 169,-190.5"/>
<text text-anchor="middle" x="219" y="-197.5" font-family="Helvetica,sans-Serif" font-size="10.00">xtb_hessian::rotmol</text>
</a>
</g>
</g>
<!-- Node1&#45;&gt;Node19 -->
<g id="edge21" class="edge">
<title>Node1&#45;&gt;Node19</title>
<path fill="none" stroke="midnightblue" d="M113.18,-200C127.9,-200 143.83,-200 158.72,-200"/>
<polygon fill="midnightblue" stroke="midnightblue" points="158.84,-203.5 168.84,-200 158.84,-196.5 158.84,-203.5"/>
</g>
<!-- Node20 -->
<g id="node20" class="node">
<title>Node20</title>
<g id="a_node20"><a xlink:href="namespacextb__hessian.html#aaee309867f55bb4d73c4e1ff3175b7b1" target="_top" xlink:title=" ">
<polygon fill="white" stroke="black" points="168,-152.5 168,-171.5 270,-171.5 270,-152.5 168,-152.5"/>
<text text-anchor="middle" x="219" y="-159.5" font-family="Helvetica,sans-Serif" font-size="10.00">xtb_hessian::sortind</text>
</a>
</g>
</g>
<!-- Node1&#45;&gt;Node20 -->
<g id="edge22" class="edge">
<title>Node1&#45;&gt;Node20</title>
<path fill="none" stroke="midnightblue" d="M98,-190.41C119.18,-185.4 145.3,-179.21 167.76,-173.89"/>
<polygon fill="midnightblue" stroke="midnightblue" points="168.87,-177.23 177.79,-171.52 167.25,-170.42 168.87,-177.23"/>
</g>
<!-- Node21 -->
<g id="node21" class="node">
<title>Node21</title>
<g id="a_node21"><a xlink:href="namespacextb__freq__project.html#a7a6b2c08be5feda97968392fb2557680" target="_top" xlink:title=" ">
<polygon fill="white" stroke="black" points="163,-114.5 163,-133.5 275,-133.5 275,-114.5 163,-114.5"/>
<text text-anchor="middle" x="219" y="-121.5" font-family="Helvetica,sans-Serif" font-size="10.00">xtb_freq_project::trproj</text>
</a>
</g>
</g>
<!-- Node1&#45;&gt;Node21 -->
<g id="edge23" class="edge">
<title>Node1&#45;&gt;Node21</title>
<path fill="none" stroke="midnightblue" d="M70.17,-190.44C87.26,-177.95 119,-156.14 149,-143 154.4,-140.64 160.16,-138.5 165.97,-136.58"/>
<polygon fill="midnightblue" stroke="midnightblue" points="167.21,-139.86 175.73,-133.56 165.15,-133.17 167.21,-139.86"/>
</g>
<!-- Node23 -->
<g id="node23" class="node">
<title>Node23</title>
<g id="a_node23"><a xlink:href="namespacextb__freq__io.html#a16e4a725f0bb2ca5dfdad4de4be92698" target="_top" xlink:title=" ">
<polygon fill="white" stroke="black" points="169,-38.5 169,-57.5 269,-57.5 269,-38.5 169,-38.5"/>
<text text-anchor="middle" x="219" y="-45.5" font-family="Helvetica,sans-Serif" font-size="10.00">xtb_freq_io::wrhess</text>
</a>
</g>
</g>
<!-- Node1&#45;&gt;Node23 -->
<g id="edge26" class="edge">
<title>Node1&#45;&gt;Node23</title>
<path fill="none" stroke="midnightblue" d="M61.37,-190.23C71.67,-165.56 102.19,-100.31 149,-67 152.27,-64.68 155.81,-62.64 159.5,-60.84"/>
<polygon fill="midnightblue" stroke="midnightblue" points="161.05,-63.99 168.92,-56.89 158.34,-57.53 161.05,-63.99"/>
</g>
<!-- Node27 -->
<g id="node27" class="node">
<title>Node27</title>
<g id="a_node27"><a xlink:href="namespacextb__freq__io.html#a19321cb191dd0e67f5e6bf5efd1148d0" target="_top" xlink:title="Write the second derivative matrix.">
<polygon fill="white" stroke="black" points="150.5,-76.5 150.5,-95.5 287.5,-95.5 287.5,-76.5 150.5,-76.5"/>
<text text-anchor="middle" x="219" y="-83.5" font-family="Helvetica,sans-Serif" font-size="10.00">xtb_freq_io::writehessianout</text>
</a>
</g>
</g>
<!-- Node1&#45;&gt;Node27 -->
<g id="edge30" class="edge">
<title>Node1&#45;&gt;Node27</title>
<path fill="none" stroke="midnightblue" d="M64.07,-190.28C77.62,-171 110.62,-127.82 149,-105 152.66,-102.82 156.59,-100.88 160.63,-99.17"/>
<polygon fill="midnightblue" stroke="midnightblue" points="162.11,-102.35 170.23,-95.54 159.63,-95.8 162.11,-102.35"/>
</g>
<!-- Node3 -->
<g id="node3" class="node">
<title>Node3</title>
<g id="a_node3"><a xlink:href="drsp_8f.html#ac8791cdbe49427e661f00b126ce4dbbc" target="_top" xlink:title=" ">
<polygon fill="white" stroke="black" points="389,-399.5 389,-418.5 419,-418.5 419,-399.5 389,-399.5"/>
<text text-anchor="middle" x="404" y="-406.5" font-family="Helvetica,sans-Serif" font-size="10.00">rsp</text>
</a>
</g>
</g>
<!-- Node2&#45;&gt;Node3 -->
<g id="edge2" class="edge">
<title>Node2&#45;&gt;Node3</title>
<path fill="none" stroke="midnightblue" d="M256.15,-393.75C292.49,-397.53 347.49,-403.24 378.84,-406.49"/>
<polygon fill="midnightblue" stroke="midnightblue" points="378.57,-409.98 388.88,-407.53 379.3,-403.02 378.57,-409.98"/>
</g>
<!-- Node4 -->
<g id="node4" class="node">
<title>Node4</title>
<g id="a_node4"><a xlink:href="drsp_8f.html#a163d6464d6ff31893ac0abcfa0d6eeec" target="_top" xlink:title=" ">
<polygon fill="white" stroke="black" points="548,-399.5 548,-418.5 580,-418.5 580,-399.5 548,-399.5"/>
<text text-anchor="middle" x="564" y="-406.5" font-family="Helvetica,sans-Serif" font-size="10.00">tql2</text>
</a>
</g>
</g>
<!-- Node3&#45;&gt;Node4 -->
<g id="edge3" class="edge">
<title>Node3&#45;&gt;Node4</title>
<path fill="none" stroke="midnightblue" d="M419.02,-409C445.62,-409 503.75,-409 537.45,-409"/>
<polygon fill="midnightblue" stroke="midnightblue" points="537.86,-412.5 547.86,-409 537.86,-405.5 537.86,-412.5"/>
</g>
<!-- Node5 -->
<g id="node5" class="node">
<title>Node5</title>
<g id="a_node5"><a xlink:href="drsp_8f.html#a47a86ab7ed20a30b44b28253866ac7ff" target="_top" xlink:title=" ">
<polygon fill="white" stroke="black" points="545,-361.5 545,-380.5 583,-380.5 583,-361.5 545,-361.5"/>
<text text-anchor="middle" x="564" y="-368.5" font-family="Helvetica,sans-Serif" font-size="10.00">tqlrat</text>
</a>
</g>
</g>
<!-- Node3&#45;&gt;Node5 -->
<g id="edge4" class="edge">
<title>Node3&#45;&gt;Node5</title>
<path fill="none" stroke="midnightblue" d="M419.02,-405.63C445.03,-399.37 501.19,-385.87 535.17,-377.69"/>
<polygon fill="midnightblue" stroke="midnightblue" points="536.04,-381.08 544.95,-375.34 534.41,-374.28 536.04,-381.08"/>
</g>
<!-- Node6 -->
<g id="node6" class="node">
<title>Node6</title>
<g id="a_node6"><a xlink:href="drsp_8f.html#a035138691289fce6e2d30c8b3c41188f" target="_top" xlink:title=" ">
<polygon fill="white" stroke="black" points="542,-475.5 542,-494.5 586,-494.5 586,-475.5 542,-475.5"/>
<text text-anchor="middle" x="564" y="-482.5" font-family="Helvetica,sans-Serif" font-size="10.00">trbak3</text>
</a>
</g>
</g>
<!-- Node3&#45;&gt;Node6 -->
<g id="edge5" class="edge">
<title>Node3&#45;&gt;Node6</title>
<path fill="none" stroke="midnightblue" d="M419.27,-416.46C440.74,-427.6 482.69,-449.1 519,-466 523.39,-468.04 528.06,-470.14 532.65,-472.16"/>
<polygon fill="midnightblue" stroke="midnightblue" points="531.29,-475.38 541.86,-476.15 534.08,-468.96 531.29,-475.38"/>
</g>
<!-- Node7 -->
<g id="node7" class="node">
<title>Node7</title>
<g id="a_node7"><a xlink:href="drsp_8f.html#a160df22dcc004ea7373039d1db601e3d" target="_top" xlink:title=" ">
<polygon fill="white" stroke="black" points="545,-437.5 545,-456.5 583,-456.5 583,-437.5 545,-437.5"/>
<text text-anchor="middle" x="564" y="-444.5" font-family="Helvetica,sans-Serif" font-size="10.00">tred3</text>
</a>
</g>
</g>
<!-- Node3&#45;&gt;Node7 -->
<g id="edge6" class="edge">
<title>Node3&#45;&gt;Node7</title>
<path fill="none" stroke="midnightblue" d="M419.02,-412.37C445.03,-418.63 501.19,-432.13 535.17,-440.31"/>
<polygon fill="midnightblue" stroke="midnightblue" points="534.41,-443.72 544.95,-442.66 536.04,-436.92 534.41,-443.72"/>
</g>
<!-- Node9 -->
<g id="node9" class="node">
<title>Node9</title>
<g id="a_node9"><a xlink:href="namespacextb__metadynamic.html#ae7437d6a2a352639b984f99cfaa9800a" target="_top" xlink:title=" ">
<polygon fill="white" stroke="black" points="326.5,-342.5 326.5,-361.5 481.5,-361.5 481.5,-342.5 326.5,-342.5"/>
<text text-anchor="middle" x="404" y="-349.5" font-family="Helvetica,sans-Serif" font-size="10.00">xtb_metadynamic::metadynamic</text>
</a>
</g>
</g>
<!-- Node8&#45;&gt;Node9 -->
<g id="edge8" class="edge">
<title>Node8&#45;&gt;Node9</title>
<path fill="none" stroke="midnightblue" d="M266.18,-323.59C290.76,-328.69 321.19,-335.01 347.1,-340.39"/>
<polygon fill="midnightblue" stroke="midnightblue" points="346.65,-343.87 357.15,-342.48 348.07,-337.02 346.65,-343.87"/>
</g>
<!-- Node17 -->
<g id="node17" class="node">
<title>Node17</title>
<g id="a_node17"><a xlink:href="namespaceprob__module.html#a6bdcd0e8188113e5477fd5097c89ede3" target="_top" xlink:title=" ">
<polygon fill="white" stroke="black" points="325,-304.5 325,-323.5 483,-323.5 483,-304.5 325,-304.5"/>
<text text-anchor="middle" x="404" y="-311.5" font-family="Helvetica,sans-Serif" font-size="10.00">prob_module::prob_metadynamic</text>
</a>
</g>
</g>
<!-- Node8&#45;&gt;Node17 -->
<g id="edge17" class="edge">
<title>Node8&#45;&gt;Node17</title>
<path fill="none" stroke="midnightblue" d="M289.18,-314C297.55,-314 306.18,-314 314.77,-314"/>
<polygon fill="midnightblue" stroke="midnightblue" points="314.83,-317.5 324.83,-314 314.83,-310.5 314.83,-317.5"/>
</g>
<!-- Node10 -->
<g id="node10" class="node">
<title>Node10</title>
<g id="a_node10"><a xlink:href="namespacextb__lsrmsd.html#a7de6c8c9dfc5be748e05c80b2cb8b092" target="_top" xlink:title=" ">
<polygon fill="white" stroke="black" points="519,-323.5 519,-342.5 609,-342.5 609,-323.5 519,-323.5"/>
<text text-anchor="middle" x="564" y="-330.5" font-family="Helvetica,sans-Serif" font-size="10.00">xtb_lsrmsd::rmsd</text>
</a>
</g>
</g>
<!-- Node9&#45;&gt;Node10 -->
<g id="edge9" class="edge">
<title>Node9&#45;&gt;Node10</title>
<path fill="none" stroke="midnightblue" d="M481.69,-342.78C490.84,-341.68 500.04,-340.57 508.78,-339.52"/>
<polygon fill="midnightblue" stroke="midnightblue" points="509.3,-342.98 518.81,-338.31 508.47,-336.03 509.3,-342.98"/>
</g>
<!-- Node9&#45;&gt;Node16 -->
<g id="edge16" class="edge">
<title>Node9&#45;&gt;Node16</title>
<path fill="none" stroke="midnightblue" d="M452.18,-342.49C462.48,-339.87 473.23,-336.7 483,-333 499.92,-326.59 502.68,-321.81 519,-314 525.11,-311.08 531.78,-308.09 538.04,-305.38"/>
<polygon fill="midnightblue" stroke="midnightblue" points="539.56,-308.53 547.39,-301.39 536.82,-302.09 539.56,-308.53"/>
</g>
<!-- Node11 -->
<g id="node11" class="node">
<title>Node11</title>
<g id="a_node11"><a xlink:href="namespacextb__lsrmsd.html#a2089ab1a59ee635dbe99bdc26e653c93" target="_top" xlink:title=" ">
<polygon fill="white" stroke="black" points="645,-345.5 645,-364.5 746,-364.5 746,-345.5 645,-345.5"/>
<text text-anchor="middle" x="695.5" y="-352.5" font-family="Helvetica,sans-Serif" font-size="10.00">xtb_lsrmsd::dstmev</text>
</a>
</g>
</g>
<!-- Node10&#45;&gt;Node11 -->
<g id="edge10" class="edge">
<title>Node10&#45;&gt;Node11</title>
<path fill="none" stroke="midnightblue" d="M609.2,-340.51C617.42,-341.91 626.13,-343.38 634.72,-344.84"/>
<polygon fill="midnightblue" stroke="midnightblue" points="634.27,-348.32 644.71,-346.54 635.44,-341.42 634.27,-348.32"/>
</g>
<!-- Node15 -->
<g id="node15" class="node">
<title>Node15</title>
<g id="a_node15"><a xlink:href="namespacextb__lsrmsd.html#aa8d3e601b87d4dd4b0f010fe884a7898" target="_top" xlink:title=" ">
<polygon fill="white" stroke="black" points="645,-296 645,-326 746,-326 746,-296 645,-296"/>
<text text-anchor="start" x="653" y="-314" font-family="Helvetica,sans-Serif" font-size="10.00">xtb_lsrmsd::rotation</text>
<text text-anchor="middle" x="695.5" y="-303" font-family="Helvetica,sans-Serif" font-size="10.00">_matrix</text>
</a>
</g>
</g>
<!-- Node10&#45;&gt;Node15 -->
<g id="edge15" class="edge">
<title>Node10&#45;&gt;Node15</title>
<path fill="none" stroke="midnightblue" d="M609.2,-325.49C617.42,-324.09 626.13,-322.62 634.72,-321.16"/>
<polygon fill="midnightblue" stroke="midnightblue" points="635.44,-324.58 644.71,-319.46 634.27,-317.68 635.44,-324.58"/>
</g>
<!-- Node12 -->
<g id="node12" class="node">
<title>Node12</title>
<g id="a_node12"><a xlink:href="namespacextb__lsrmsd.html#a50efb5ac3121b59e1b70a31f8f09ec04" target="_top" xlink:title=" ">
<polygon fill="white" stroke="black" points="782.5,-364.5 782.5,-383.5 884.5,-383.5 884.5,-364.5 782.5,-364.5"/>
<text text-anchor="middle" x="833.5" y="-371.5" font-family="Helvetica,sans-Serif" font-size="10.00">xtb_lsrmsd::givens4</text>
</a>
</g>
</g>
<!-- Node11&#45;&gt;Node12 -->
<g id="edge11" class="edge">
<title>Node11&#45;&gt;Node12</title>
<path fill="none" stroke="midnightblue" d="M746.37,-361.97C754.76,-363.14 763.55,-364.37 772.17,-365.57"/>
<polygon fill="midnightblue" stroke="midnightblue" points="771.79,-369.05 782.18,-366.97 772.76,-362.12 771.79,-369.05"/>
</g>
<!-- Node14 -->
<g id="node14" class="node">
<title>Node14</title>
<g id="a_node14"><a xlink:href="namespacextb__lsrmsd.html#a41788222f5aa8657d1070e4474cb7668" target="_top" xlink:title=" ">
<polygon fill="white" stroke="black" points="782,-326.5 782,-345.5 885,-345.5 885,-326.5 782,-326.5"/>
<text text-anchor="middle" x="833.5" y="-333.5" font-family="Helvetica,sans-Serif" font-size="10.00">xtb_lsrmsd::svdcmp</text>
</a>
</g>
</g>
<!-- Node11&#45;&gt;Node14 -->
<g id="edge13" class="edge">
<title>Node11&#45;&gt;Node14</title>
<path fill="none" stroke="midnightblue" d="M746.37,-348.03C754.56,-346.89 763.13,-345.69 771.56,-344.51"/>
<polygon fill="midnightblue" stroke="midnightblue" points="772.31,-347.94 781.73,-343.09 771.34,-341.01 772.31,-347.94"/>
</g>
<!-- Node13 -->
<g id="node13" class="node">
<title>Node13</title>
<g id="a_node13"><a xlink:href="namespacextb__lsrmsd.html#a847587107e9240be90b490511caf3fd8" target="_top" xlink:title=" ">
<polygon fill="white" stroke="black" points="921,-345.5 921,-364.5 1018,-364.5 1018,-345.5 921,-345.5"/>
<text text-anchor="middle" x="969.5" y="-352.5" font-family="Helvetica,sans-Serif" font-size="10.00">xtb_lsrmsd::pythag</text>
</a>
</g>
</g>
<!-- Node12&#45;&gt;Node13 -->
<g id="edge12" class="edge">
<title>Node12&#45;&gt;Node13</title>
<path fill="none" stroke="midnightblue" d="M884.78,-366.87C893.21,-365.68 902.02,-364.43 910.63,-363.21"/>
<polygon fill="midnightblue" stroke="midnightblue" points="911.19,-366.66 920.6,-361.79 910.21,-359.73 911.19,-366.66"/>
</g>
<!-- Node14&#45;&gt;Node13 -->
<g id="edge14" class="edge">
<title>Node14&#45;&gt;Node13</title>
<path fill="none" stroke="midnightblue" d="M885.16,-343.18C893.58,-344.38 902.36,-345.62 910.93,-346.84"/>
<polygon fill="midnightblue" stroke="midnightblue" points="910.47,-350.31 920.86,-348.25 911.45,-343.38 910.47,-350.31"/>
</g>
<!-- Node17&#45;&gt;Node10 -->
<g id="edge18" class="edge">
<title>Node17&#45;&gt;Node10</title>
<path fill="none" stroke="midnightblue" d="M483.07,-323.39C491.81,-324.44 500.56,-325.49 508.89,-326.49"/>
<polygon fill="midnightblue" stroke="midnightblue" points="508.48,-329.97 518.83,-327.69 509.32,-323.02 508.48,-329.97"/>
</g>
<!-- Node17&#45;&gt;Node16 -->
<g id="edge19" class="edge">
<title>Node17&#45;&gt;Node16</title>
<path fill="none" stroke="midnightblue" d="M483.07,-304.61C502.72,-302.25 522.44,-299.88 537.38,-298.08"/>
<polygon fill="midnightblue" stroke="midnightblue" points="537.83,-301.55 547.34,-296.88 536.99,-294.6 537.83,-301.55"/>
</g>
<!-- Node22 -->
<g id="node22" class="node">
<title>Node22</title>
<g id="a_node22"><a xlink:href="namespacextb__freq__project.html#af93dd41a4f0206b10e596ccd19ebe786" target="_top" xlink:title=" ">
<polygon fill="white" stroke="black" points="341.5,-114.5 341.5,-133.5 466.5,-133.5 466.5,-114.5 341.5,-114.5"/>
<text text-anchor="middle" x="404" y="-121.5" font-family="Helvetica,sans-Serif" font-size="10.00">xtb_freq_project::gtrprojm</text>
</a>
</g>
</g>
<!-- Node21&#45;&gt;Node22 -->
<g id="edge24" class="edge">
<title>Node21&#45;&gt;Node22</title>
<path fill="none" stroke="midnightblue" d="M275.4,-124C292.98,-124 312.67,-124 331.22,-124"/>
<polygon fill="midnightblue" stroke="midnightblue" points="331.39,-127.5 341.39,-124 331.39,-120.5 331.39,-127.5"/>
</g>
<!-- Node24 -->
<g id="node24" class="node">
<title>Node24</title>
<g id="a_node24"><a xlink:href="filetools_8F90.html#abe40c19bea97456da4d616af69059aeb" target="_top" xlink:title=" ">
<polygon fill="white" stroke="black" points="375.5,-76.5 375.5,-95.5 432.5,-95.5 432.5,-76.5 375.5,-76.5"/>
<text text-anchor="middle" x="404" y="-83.5" font-family="Helvetica,sans-Serif" font-size="10.00">close_file</text>
</a>
</g>
</g>
<!-- Node23&#45;&gt;Node24 -->
<g id="edge27" class="edge">
<title>Node23&#45;&gt;Node24</title>
<path fill="none" stroke="midnightblue" d="M266.18,-57.59C296.83,-63.95 336.55,-72.2 365.29,-78.17"/>
<polygon fill="midnightblue" stroke="midnightblue" points="364.85,-81.65 375.35,-80.26 366.27,-74.8 364.85,-81.65"/>
</g>
<!-- Node25 -->
<g id="node25" class="node">
<title>Node25</title>
<g id="a_node25"><a xlink:href="constrain__pot_8f90.html#ac62613d43f31c7bfa652ee80083b400b" target="_top" xlink:title=" ">
<polygon fill="white" stroke="black" points="389.5,-0.5 389.5,-19.5 418.5,-19.5 418.5,-0.5 389.5,-0.5"/>
<text text-anchor="middle" x="404" y="-7.5" font-family="Helvetica,sans-Serif" font-size="10.00">lin</text>
</a>
</g>
</g>
<!-- Node23&#45;&gt;Node25 -->
<g id="edge28" class="edge">
<title>Node23&#45;&gt;Node25</title>
<path fill="none" stroke="midnightblue" d="M266.18,-38.41C302.23,-30.92 350.84,-20.83 379.37,-14.91"/>
<polygon fill="midnightblue" stroke="midnightblue" points="380.17,-18.32 389.25,-12.86 378.74,-11.46 380.17,-18.32"/>
</g>
<!-- Node26 -->
<g id="node26" class="node">
<title>Node26</title>
<g id="a_node26"><a xlink:href="filetools_8F90.html#a68160ec369d61855ea12b180c7ce8c21" target="_top" xlink:title=" ">
<polygon fill="white" stroke="black" points="376.5,-38.5 376.5,-57.5 431.5,-57.5 431.5,-38.5 376.5,-38.5"/>
<text text-anchor="middle" x="404" y="-45.5" font-family="Helvetica,sans-Serif" font-size="10.00">open_file</text>
</a>
</g>
</g>
<!-- Node23&#45;&gt;Node26 -->
<g id="edge29" class="edge">
<title>Node23&#45;&gt;Node26</title>
<path fill="none" stroke="midnightblue" d="M269.04,-48C299.65,-48 338.39,-48 366.33,-48"/>
<polygon fill="midnightblue" stroke="midnightblue" points="366.47,-51.5 376.47,-48 366.47,-44.5 366.47,-51.5"/>
</g>
<!-- Node27&#45;&gt;Node24 -->
<g id="edge31" class="edge">
<title>Node27&#45;&gt;Node24</title>
<path fill="none" stroke="midnightblue" d="M287.62,-86C313.82,-86 342.82,-86 365.19,-86"/>
<polygon fill="midnightblue" stroke="midnightblue" points="365.28,-89.5 375.28,-86 365.28,-82.5 365.28,-89.5"/>
</g>
<!-- Node27&#45;&gt;Node26 -->
<g id="edge32" class="edge">
<title>Node27&#45;&gt;Node26</title>
<path fill="none" stroke="midnightblue" d="M266.18,-76.41C297.2,-69.97 337.53,-61.59 366.35,-55.61"/>
<polygon fill="midnightblue" stroke="midnightblue" points="367.33,-58.98 376.41,-53.52 365.91,-52.13 367.33,-58.98"/>
</g>
</g>
</svg>
