<?xml version="1.0" encoding="UTF-8" standalone="no"?>
<!DOCTYPE svg PUBLIC "-//W3C//DTD SVG 1.1//EN"
 "http://www.w3.org/Graphics/SVG/1.1/DTD/svg11.dtd">
<!-- Generated by graphviz version 2.46.0 (20210122.1329)
 -->
<!-- Title: xtb_disp_ncoord::derf_count Pages: 1 -->
<svg width="440pt" height="186pt"
 viewBox="0.00 0.00 440.00 186.00" xmlns="http://www.w3.org/2000/svg" xmlns:xlink="http://www.w3.org/1999/xlink">
<g id="graph0" class="graph" transform="scale(1 1) rotate(0) translate(4 182)">
<title>xtb_disp_ncoord::derf_count</title>
<polygon fill="white" stroke="transparent" points="-4,4 -4,-182 436,-182 436,4 -4,4"/>
<!-- Node1 -->
<g id="node1" class="node">
<title>Node1</title>
<g id="a_node1"><a xlink:title=" ">
<polygon fill="#bfbfbf" stroke="black" points="324,-73.5 324,-103.5 432,-103.5 432,-73.5 324,-73.5"/>
<text text-anchor="start" x="332" y="-91.5" font-family="Helvetica,sans-Serif" font-size="10.00">xtb_disp_ncoord::derf</text>
<text text-anchor="middle" x="378" y="-80.5" font-family="Helvetica,sans-Serif" font-size="10.00">_count</text>
</a>
</g>
</g>
<!-- Node2 -->
<g id="node2" class="node">
<title>Node2</title>
<g id="a_node2"><a xlink:href="interfacextb__disp__ncoord_1_1get__d4__cn.html#a14a7f08392f12d0a695e4c10987924b0" target="_top" xlink:title=" ">
<polygon fill="white" stroke="black" points="173.5,-147.5 173.5,-177.5 278.5,-177.5 278.5,-147.5 173.5,-147.5"/>
<text text-anchor="start" x="181.5" y="-165.5" font-family="Helvetica,sans-Serif" font-size="10.00">xtb_disp_ncoord::get</text>
<text text-anchor="middle" x="226" y="-154.5" font-family="Helvetica,sans-Serif" font-size="10.00">_d4_cn::dncoord_d4</text>
</a>
</g>
</g>
<!-- Node1&#45;&gt;Node2 -->
<g id="edge1" class="edge">
<title>Node1&#45;&gt;Node2</title>
<path fill="none" stroke="midnightblue" d="M343.46,-108.78C327.03,-118.34 306.78,-129.58 288,-138.5 281.52,-141.58 274.54,-144.59 267.69,-147.39"/>
<polygon fill="midnightblue" stroke="midnightblue" points="345.32,-111.75 352.17,-103.66 341.77,-105.71 345.32,-111.75"/>
</g>
<!-- Node3 -->
<g id="node3" class="node">
<title>Node3</title>
<g id="a_node3"><a xlink:href="interfacextb__disp__ncoord_1_1get__erf__cn.html#a8540dc8b5d96edd78296b9ae139aa716" target="_top" xlink:title=" ">
<polygon fill="white" stroke="black" points="173.5,-98.5 173.5,-128.5 278.5,-128.5 278.5,-98.5 173.5,-98.5"/>
<text text-anchor="start" x="181.5" y="-116.5" font-family="Helvetica,sans-Serif" font-size="10.00">xtb_disp_ncoord::get</text>
<text text-anchor="middle" x="226" y="-105.5" font-family="Helvetica,sans-Serif" font-size="10.00">_erf_cn::dncoord_erf</text>
</a>
</g>
</g>
<!-- Node1&#45;&gt;Node3 -->
<g id="edge2" class="edge">
<title>Node1&#45;&gt;Node3</title>
<path fill="none" stroke="midnightblue" d="M313.58,-99.07C301.92,-101.01 289.88,-103.02 278.62,-104.9"/>
<polygon fill="midnightblue" stroke="midnightblue" points="314.4,-102.48 323.69,-97.38 313.25,-95.58 314.4,-102.48"/>
</g>
<!-- Node4 -->
<g id="node4" class="node">
<title>Node4</title>
<g id="a_node4"><a xlink:href="namespacextb__disp__ncoord.html#aa678f920b7ba8cf8de66975462a03b00" target="_top" xlink:title=" ">
<polygon fill="white" stroke="black" points="172.5,-49.5 172.5,-79.5 279.5,-79.5 279.5,-49.5 172.5,-49.5"/>
<text text-anchor="start" x="180.5" y="-67.5" font-family="Helvetica,sans-Serif" font-size="10.00">xtb_disp_ncoord::pbc</text>
<text text-anchor="middle" x="226" y="-56.5" font-family="Helvetica,sans-Serif" font-size="10.00">_derfcoord</text>
</a>
</g>
</g>
<!-- Node1&#45;&gt;Node4 -->
<g id="edge3" class="edge">
<title>Node1&#45;&gt;Node4</title>
<path fill="none" stroke="midnightblue" d="M313.81,-78.39C302.43,-76.57 290.67,-74.69 279.63,-72.92"/>
<polygon fill="midnightblue" stroke="midnightblue" points="313.27,-81.85 323.69,-79.97 314.37,-74.93 313.27,-81.85"/>
</g>
<!-- Node6 -->
<g id="node6" class="node">
<title>Node6</title>
<g id="a_node6"><a xlink:href="interfacextb__disp__ncoord_1_1get__d4__cn.html#a49660812434072921db899134b6743c9" target="_top" xlink:title=" ">
<polygon fill="white" stroke="black" points="164,-0.5 164,-30.5 288,-30.5 288,-0.5 164,-0.5"/>
<text text-anchor="start" x="172" y="-18.5" font-family="Helvetica,sans-Serif" font-size="10.00">xtb_disp_ncoord::get</text>
<text text-anchor="middle" x="226" y="-7.5" font-family="Helvetica,sans-Serif" font-size="10.00">_d4_cn::pbc_dncoord_d4</text>
</a>
</g>
</g>
<!-- Node1&#45;&gt;Node6 -->
<g id="edge5" class="edge">
<title>Node1&#45;&gt;Node6</title>
<path fill="none" stroke="midnightblue" d="M341.79,-68.4C325.61,-59.45 306.04,-49.03 288,-40.5 280.86,-37.12 273.14,-33.75 265.67,-30.63"/>
<polygon fill="midnightblue" stroke="midnightblue" points="340.45,-71.66 350.89,-73.48 343.86,-65.55 340.45,-71.66"/>
</g>
<!-- Node5 -->
<g id="node5" class="node">
<title>Node5</title>
<g id="a_node5"><a xlink:href="interfacextb__disp__ncoord_1_1get__erf__cn.html#ac0c802a2c517bd9d66baef997ec5e309" target="_top" xlink:title=" ">
<polygon fill="white" stroke="black" points="0,-49.5 0,-79.5 128,-79.5 128,-49.5 0,-49.5"/>
<text text-anchor="start" x="8" y="-67.5" font-family="Helvetica,sans-Serif" font-size="10.00">xtb_disp_ncoord::get</text>
<text text-anchor="middle" x="64" y="-56.5" font-family="Helvetica,sans-Serif" font-size="10.00">_erf_cn::ncoord_erf_driver</text>
</a>
</g>
</g>
<!-- Node4&#45;&gt;Node5 -->
<g id="edge4" class="edge">
<title>Node4&#45;&gt;Node5</title>
<path fill="none" stroke="midnightblue" d="M162.06,-64.5C150.89,-64.5 139.25,-64.5 128.07,-64.5"/>
<polygon fill="midnightblue" stroke="midnightblue" points="162.17,-68 172.17,-64.5 162.17,-61 162.17,-68"/>
</g>
</g>
</svg>
