<?xml version="1.0" encoding="UTF-8" standalone="no"?>
<!DOCTYPE svg PUBLIC "-//W3C//DTD SVG 1.1//EN"
 "http://www.w3.org/Graphics/SVG/1.1/DTD/svg11.dtd">
<!-- Generated by graphviz version 2.43.0 (0)
 -->
<!-- Title: xtb_api_environment::delenvironment_api Pages: 1 -->
<svg width="481pt" height="61pt"
 viewBox="0.00 0.00 481.00 61.00" xmlns="http://www.w3.org/2000/svg" xmlns:xlink="http://www.w3.org/1999/xlink">
<g id="graph0" class="graph" transform="scale(1 1) rotate(0) translate(4 57)">
<title>xtb_api_environment::delenvironment_api</title>
<polygon fill="white" stroke="transparent" points="-4,4 -4,-57 477,-57 477,4 -4,4"/>
<!-- Node1 -->
<g id="node1" class="node">
<title>Node1</title>
<g id="a_node1"><a xlink:title="Delete a xtb calculation environment object.">
<polygon fill="#bfbfbf" stroke="black" points="0,-22.5 0,-52.5 120,-52.5 120,-22.5 0,-22.5"/>
<text text-anchor="start" x="8" y="-40.5" font-family="Helvetica,sans-Serif" font-size="10.00">xtb_api_environment</text>
<text text-anchor="middle" x="60" y="-29.5" font-family="Helvetica,sans-Serif" font-size="10.00">::delenvironment_api</text>
</a>
</g>
</g>
<!-- Node2 -->
<g id="node2" class="node">
<title>Node2</title>
<g id="a_node2"><a xlink:href="namespacextb__api__utils.html#afd6a69e4c8c1021ccc4bbab8431de1a2" target="_top" xlink:title=" ">
<polygon fill="white" stroke="black" points="312,-28 312,-47 473,-47 473,-28 312,-28"/>
<text text-anchor="middle" x="392.5" y="-35" font-family="Helvetica,sans-Serif" font-size="10.00">xtb_api_utils::checkglobalenv</text>
</a>
</g>
</g>
<!-- Node1&#45;&gt;Node2 -->
<g id="edge1" class="edge">
<title>Node1&#45;&gt;Node2</title>
<path fill="none" stroke="midnightblue" d="M120.03,-39.65C131.94,-40.01 144.37,-40.32 156,-40.5 209.33,-41.34 222.67,-41.19 276,-40.5 284.36,-40.39 293.06,-40.24 301.77,-40.06"/>
<polygon fill="midnightblue" stroke="midnightblue" points="302.06,-43.55 311.98,-39.84 301.9,-36.56 302.06,-43.55"/>
</g>
<!-- Node3 -->
<g id="node3" class="node">
<title>Node3</title>
<g id="a_node3"><a xlink:href="namespacextb__api__environment.html#a1962b75eb266dc250db836f97e2fd4ec" target="_top" xlink:title="Release output unit from this environment.">
<polygon fill="white" stroke="black" points="156,-0.5 156,-30.5 276,-30.5 276,-0.5 156,-0.5"/>
<text text-anchor="start" x="164" y="-18.5" font-family="Helvetica,sans-Serif" font-size="10.00">xtb_api_environment</text>
<text text-anchor="middle" x="216" y="-7.5" font-family="Helvetica,sans-Serif" font-size="10.00">::releaseoutput_api</text>
</a>
</g>
</g>
<!-- Node1&#45;&gt;Node3 -->
<g id="edge2" class="edge">
<title>Node1&#45;&gt;Node3</title>
<path fill="none" stroke="midnightblue" d="M120.1,-29.06C128.51,-27.86 137.23,-26.61 145.81,-25.38"/>
<polygon fill="midnightblue" stroke="midnightblue" points="146.4,-28.84 155.8,-23.96 145.41,-21.91 146.4,-28.84"/>
</g>
<!-- Node3&#45;&gt;Node2 -->
<g id="edge3" class="edge">
<title>Node3&#45;&gt;Node2</title>
<path fill="none" stroke="midnightblue" d="M276.08,-22.95C285.72,-24.16 295.87,-25.44 306,-26.72"/>
<polygon fill="midnightblue" stroke="midnightblue" points="305.73,-30.21 316.09,-27.99 306.6,-23.27 305.73,-30.21"/>
</g>
</g>
</svg>
