<?xml version="1.0" encoding="UTF-8" standalone="no"?>
<!DOCTYPE svg PUBLIC "-//W3C//DTD SVG 1.1//EN"
 "http://www.w3.org/Graphics/SVG/1.1/DTD/svg11.dtd">
<!-- Generated by graphviz version 2.46.0 (20210122.1329)
 -->
<!-- Title: xtb_solv_gbsa::update Pages: 1 -->
<svg width="498pt" height="283pt"
 viewBox="0.00 0.00 498.00 283.00" xmlns="http://www.w3.org/2000/svg" xmlns:xlink="http://www.w3.org/1999/xlink">
<g id="graph0" class="graph" transform="scale(1 1) rotate(0) translate(4 279)">
<title>xtb_solv_gbsa::update</title>
<polygon fill="white" stroke="transparent" points="-4,4 -4,-279 494,-279 494,4 -4,4"/>
<!-- Node1 -->
<g id="node1" class="node">
<title>Node1</title>
<g id="a_node1"><a xlink:title=" ">
<polygon fill="#bfbfbf" stroke="black" points="0,-140 0,-159 113,-159 113,-140 0,-140"/>
<text text-anchor="middle" x="56.5" y="-147" font-family="Helvetica,sans-Serif" font-size="10.00">xtb_solv_gbsa::update</text>
</a>
</g>
</g>
<!-- Node2 -->
<g id="node2" class="node">
<title>Node2</title>
<g id="a_node2"><a xlink:href="namespacextb__solv__born.html#ab427db3f8a1a90c6422d2f18beff9884" target="_top" xlink:title=" ">
<polygon fill="white" stroke="black" points="167.5,-244.5 167.5,-274.5 286.5,-274.5 286.5,-244.5 167.5,-244.5"/>
<text text-anchor="start" x="175.5" y="-262.5" font-family="Helvetica,sans-Serif" font-size="10.00">xtb_solv_born::compute</text>
<text text-anchor="middle" x="227" y="-251.5" font-family="Helvetica,sans-Serif" font-size="10.00">_bornr</text>
</a>
</g>
</g>
<!-- Node1&#45;&gt;Node2 -->
<g id="edge1" class="edge">
<title>Node1&#45;&gt;Node2</title>
<path fill="none" stroke="midnightblue" d="M65.3,-159.1C79.93,-176.53 113.3,-213.52 149,-234.5 152.61,-236.62 156.43,-238.59 160.35,-240.41"/>
<polygon fill="midnightblue" stroke="midnightblue" points="159.08,-243.67 169.65,-244.39 161.83,-237.24 159.08,-243.67"/>
</g>
<!-- Node4 -->
<g id="node4" class="node">
<title>Node4</title>
<g id="a_node4"><a xlink:href="namespacextb__solv__gbsa.html#a9931f777dd6dbcca36c06139ba0ef6ff" target="_top" xlink:title="Compute contributions to potential for hydrogen bonding correction.">
<polygon fill="white" stroke="black" points="157,-206 157,-225 297,-225 297,-206 157,-206"/>
<text text-anchor="middle" x="227" y="-213" font-family="Helvetica,sans-Serif" font-size="10.00">xtb_solv_gbsa::compute_fhb</text>
</a>
</g>
</g>
<!-- Node1&#45;&gt;Node4 -->
<g id="edge3" class="edge">
<title>Node1&#45;&gt;Node4</title>
<path fill="none" stroke="midnightblue" d="M73.5,-159.18C91.37,-169.63 121.4,-186.17 149,-196.5 155.74,-199.02 162.93,-201.31 170.12,-203.34"/>
<polygon fill="midnightblue" stroke="midnightblue" points="169.3,-206.75 179.86,-205.97 171.12,-199.99 169.3,-206.75"/>
</g>
<!-- Node5 -->
<g id="node5" class="node">
<title>Node5</title>
<g id="a_node5"><a xlink:href="namespacextb__solv__sasa.html#a8dbe1d5c2ebb2fe7cef7af83a9e8649a" target="_top" xlink:title=" ">
<polygon fill="white" stroke="black" points="166.5,-156.5 166.5,-186.5 287.5,-186.5 287.5,-156.5 166.5,-156.5"/>
<text text-anchor="start" x="174.5" y="-174.5" font-family="Helvetica,sans-Serif" font-size="10.00">xtb_solv_sasa::compute</text>
<text text-anchor="middle" x="227" y="-163.5" font-family="Helvetica,sans-Serif" font-size="10.00">_numsa</text>
</a>
</g>
</g>
<!-- Node1&#45;&gt;Node5 -->
<g id="edge4" class="edge">
<title>Node1&#45;&gt;Node5</title>
<path fill="none" stroke="midnightblue" d="M113.14,-156.76C126.87,-158.56 141.75,-160.5 156.06,-162.37"/>
<polygon fill="midnightblue" stroke="midnightblue" points="155.99,-165.89 166.36,-163.71 156.9,-158.95 155.99,-165.89"/>
</g>
<!-- Node7 -->
<g id="node7" class="node">
<title>Node7</title>
<g id="a_node7"><a xlink:href="namespacextb__solv__gbsa.html#aa54887d0cc99845fa6c6882cbfeb6216" target="_top" xlink:title=" ">
<polygon fill="white" stroke="black" points="169,-118 169,-137 285,-137 285,-118 169,-118"/>
<text text-anchor="middle" x="227" y="-125" font-family="Helvetica,sans-Serif" font-size="10.00">xtb_solv_gbsa::getadet</text>
</a>
</g>
</g>
<!-- Node1&#45;&gt;Node7 -->
<g id="edge6" class="edge">
<title>Node1&#45;&gt;Node7</title>
<path fill="none" stroke="midnightblue" d="M113.14,-142.24C127.7,-140.33 143.56,-138.26 158.67,-136.29"/>
<polygon fill="midnightblue" stroke="midnightblue" points="159.51,-139.71 168.98,-134.95 158.61,-132.77 159.51,-139.71"/>
</g>
<!-- Node9 -->
<g id="node9" class="node">
<title>Node9</title>
<g id="a_node9"><a xlink:href="namespacextb__solv__gbsa.html#ad70b3ce3ff7c32fdf03412a02f131971" target="_top" xlink:title="compute the Debye&#45;Hueckel ion exclusion term">
<polygon fill="white" stroke="black" points="149,-80 149,-99 305,-99 305,-80 149,-80"/>
<text text-anchor="middle" x="227" y="-87" font-family="Helvetica,sans-Serif" font-size="10.00">xtb_solv_gbsa::getdebyehueckel</text>
</a>
</g>
</g>
<!-- Node1&#45;&gt;Node9 -->
<g id="edge8" class="edge">
<title>Node1&#45;&gt;Node9</title>
<path fill="none" stroke="midnightblue" d="M76.37,-139.84C94.6,-130.8 123.16,-117.4 149,-108.5 156.32,-105.98 164.15,-103.65 171.89,-101.55"/>
<polygon fill="midnightblue" stroke="midnightblue" points="172.83,-104.92 181.63,-99.01 171.07,-98.14 172.83,-104.92"/>
</g>
<!-- Node10 -->
<g id="node10" class="node">
<title>Node10</title>
<g id="a_node10"><a xlink:href="namespacextb__solv__gbsa.html#a967cd088d0238fd9f6359c884eaf0ad4" target="_top" xlink:title="setup a pairlist and compute pair distances of all neighbors">
<polygon fill="white" stroke="black" points="170.5,-30.5 170.5,-60.5 283.5,-60.5 283.5,-30.5 170.5,-30.5"/>
<text text-anchor="start" x="178.5" y="-48.5" font-family="Helvetica,sans-Serif" font-size="10.00">xtb_solv_gbsa::update</text>
<text text-anchor="middle" x="227" y="-37.5" font-family="Helvetica,sans-Serif" font-size="10.00">_nnlist_gbsa</text>
</a>
</g>
</g>
<!-- Node1&#45;&gt;Node10 -->
<g id="edge9" class="edge">
<title>Node1&#45;&gt;Node10</title>
<path fill="none" stroke="midnightblue" d="M66.16,-139.84C81.39,-123.39 114.62,-89.87 149,-70.5 152.89,-68.31 157.01,-66.27 161.23,-64.39"/>
<polygon fill="midnightblue" stroke="midnightblue" points="162.69,-67.57 170.59,-60.52 160.01,-61.11 162.69,-67.57"/>
</g>
<!-- Node3 -->
<g id="node3" class="node">
<title>Node3</title>
<g id="a_node3"><a xlink:href="namespacextb__solv__born.html#afdcc42e89c563c6fc2535e9555d0917f" target="_top" xlink:title=" ">
<polygon fill="white" stroke="black" points="347,-250 347,-269 484,-269 484,-250 347,-250"/>
<text text-anchor="middle" x="415.5" y="-257" font-family="Helvetica,sans-Serif" font-size="10.00">xtb_solv_born::compute_psi</text>
</a>
</g>
</g>
<!-- Node2&#45;&gt;Node3 -->
<g id="edge2" class="edge">
<title>Node2&#45;&gt;Node3</title>
<path fill="none" stroke="midnightblue" d="M286.75,-259.5C302.58,-259.5 319.95,-259.5 336.65,-259.5"/>
<polygon fill="midnightblue" stroke="midnightblue" points="336.93,-263 346.93,-259.5 336.93,-256 336.93,-263"/>
</g>
<!-- Node6 -->
<g id="node6" class="node">
<title>Node6</title>
<g id="a_node6"><a xlink:href="namespacextb__solv__sasa.html#a1e2d28b6f014d63951480fcc3882fc56" target="_top" xlink:title=" ">
<polygon fill="white" stroke="black" points="341,-162 341,-181 490,-181 490,-162 341,-162"/>
<text text-anchor="middle" x="415.5" y="-169" font-family="Helvetica,sans-Serif" font-size="10.00">xtb_solv_sasa::compute_w_sp</text>
</a>
</g>
</g>
<!-- Node5&#45;&gt;Node6 -->
<g id="edge5" class="edge">
<title>Node5&#45;&gt;Node6</title>
<path fill="none" stroke="midnightblue" d="M287.52,-171.5C301.29,-171.5 316.2,-171.5 330.79,-171.5"/>
<polygon fill="midnightblue" stroke="midnightblue" points="330.82,-175 340.82,-171.5 330.82,-168 330.82,-175"/>
</g>
<!-- Node8 -->
<g id="node8" class="node">
<title>Node8</title>
<g id="a_node8"><a xlink:href="namespacextb__mctc__math.html#a228581ab05d5a9183f2cfc31da44da10" target="_top" xlink:title="Determinat of 3×3 matrix.">
<polygon fill="white" stroke="black" points="349,-118 349,-137 482,-137 482,-118 349,-118"/>
<text text-anchor="middle" x="415.5" y="-125" font-family="Helvetica,sans-Serif" font-size="10.00">xtb_mctc_math::matdet3x3</text>
</a>
</g>
</g>
<!-- Node7&#45;&gt;Node8 -->
<g id="edge7" class="edge">
<title>Node7&#45;&gt;Node8</title>
<path fill="none" stroke="midnightblue" d="M285.22,-127.5C302.05,-127.5 320.73,-127.5 338.53,-127.5"/>
<polygon fill="midnightblue" stroke="midnightblue" points="338.9,-131 348.9,-127.5 338.9,-124 338.9,-131"/>
</g>
<!-- Node11 -->
<g id="node11" class="node">
<title>Node11</title>
<g id="a_node11"><a xlink:href="namespacextb__solv__gbsa.html#a4a709a30f50fc951023a822cb0dc7c21" target="_top" xlink:title="setup a pairlist and compute pair distances of all neighbors">
<polygon fill="white" stroke="black" points="359,-49.5 359,-79.5 472,-79.5 472,-49.5 359,-49.5"/>
<text text-anchor="start" x="367" y="-67.5" font-family="Helvetica,sans-Serif" font-size="10.00">xtb_solv_gbsa::update</text>
<text text-anchor="middle" x="415.5" y="-56.5" font-family="Helvetica,sans-Serif" font-size="10.00">_nnlist_gbsa_parallel</text>
</a>
</g>
</g>
<!-- Node10&#45;&gt;Node11 -->
<g id="edge10" class="edge">
<title>Node10&#45;&gt;Node11</title>
<path fill="none" stroke="midnightblue" d="M283.7,-51.17C304.09,-53.25 327.35,-55.62 348.54,-57.78"/>
<polygon fill="midnightblue" stroke="midnightblue" points="348.46,-61.29 358.76,-58.82 349.17,-54.33 348.46,-61.29"/>
</g>
<!-- Node12 -->
<g id="node12" class="node">
<title>Node12</title>
<g id="a_node12"><a xlink:href="namespacextb__solv__gbsa.html#a08baa19cc3cde60bede2d2023cdb9784" target="_top" xlink:title="setup a pairlist and compute pair distances of all neighbors">
<polygon fill="white" stroke="black" points="355,-0.5 355,-30.5 476,-30.5 476,-0.5 355,-0.5"/>
<text text-anchor="start" x="363" y="-18.5" font-family="Helvetica,sans-Serif" font-size="10.00">xtb_solv_gbsa::update</text>
<text text-anchor="middle" x="415.5" y="-7.5" font-family="Helvetica,sans-Serif" font-size="10.00">_nnlist_gbsa_sequential</text>
</a>
</g>
</g>
<!-- Node10&#45;&gt;Node12 -->
<g id="edge11" class="edge">
<title>Node10&#45;&gt;Node12</title>
<path fill="none" stroke="midnightblue" d="M283.7,-36.54C302.89,-33.45 324.63,-29.96 344.8,-26.71"/>
<polygon fill="midnightblue" stroke="midnightblue" points="345.55,-30.14 354.86,-25.09 344.43,-23.23 345.55,-30.14"/>
</g>
</g>
</svg>
