<?xml version="1.0" encoding="UTF-8" standalone="no"?>
<!DOCTYPE svg PUBLIC "-//W3C//DTD SVG 1.1//EN"
 "http://www.w3.org/Graphics/SVG/1.1/DTD/svg11.dtd">
<!-- Generated by graphviz version 2.46.0 (20210122.1329)
 -->
<!-- Title: xtb_type_coulomb::setupindextable Pages: 1 -->
<svg width="345pt" height="137pt"
 viewBox="0.00 0.00 345.00 137.00" xmlns="http://www.w3.org/2000/svg" xmlns:xlink="http://www.w3.org/1999/xlink">
<g id="graph0" class="graph" transform="scale(1 1) rotate(0) translate(4 133)">
<title>xtb_type_coulomb::setupindextable</title>
<polygon fill="white" stroke="transparent" points="-4,4 -4,-133 341,-133 341,4 -4,4"/>
<!-- Node1 -->
<g id="node1" class="node">
<title>Node1</title>
<g id="a_node1"><a xlink:title=" ">
<polygon fill="#bfbfbf" stroke="black" points="170,-55 170,-74 337,-74 337,-55 170,-55"/>
<text text-anchor="middle" x="253.5" y="-62" font-family="Helvetica,sans-Serif" font-size="10.00">xtb_type_coulomb::setupindextable</text>
</a>
</g>
</g>
<!-- Node2 -->
<g id="node2" class="node">
<title>Node2</title>
<g id="a_node2"><a xlink:href="interfacextb__type__coulomb_1_1init.html#ac936ce358455d216ff3bf7ce2fc2dc72" target="_top" xlink:title=" ">
<polygon fill="white" stroke="black" points="11,-98.5 11,-128.5 123,-128.5 123,-98.5 11,-98.5"/>
<text text-anchor="start" x="19" y="-116.5" font-family="Helvetica,sans-Serif" font-size="10.00">xtb_type_coulomb::init</text>
<text text-anchor="middle" x="67" y="-105.5" font-family="Helvetica,sans-Serif" font-size="10.00">::initcoulomb</text>
</a>
</g>
</g>
<!-- Node1&#45;&gt;Node2 -->
<g id="edge1" class="edge">
<title>Node1&#45;&gt;Node2</title>
<path fill="none" stroke="midnightblue" d="M206.77,-76.64C181.47,-83.36 149.85,-91.76 123.18,-98.84"/>
<polygon fill="midnightblue" stroke="midnightblue" points="207.72,-80.01 216.49,-74.06 205.93,-73.25 207.72,-80.01"/>
</g>
<!-- Node3 -->
<g id="node3" class="node">
<title>Node3</title>
<g id="a_node3"><a xlink:href="interfacextb__coulomb__gaussian_1_1init.html#aa9e54b0d7c3e5fd0ef19ae9b5abda847" target="_top" xlink:title=" ">
<polygon fill="white" stroke="black" points="3,-49.5 3,-79.5 131,-79.5 131,-49.5 3,-49.5"/>
<text text-anchor="start" x="11" y="-67.5" font-family="Helvetica,sans-Serif" font-size="10.00">xtb_coulomb_gaussian</text>
<text text-anchor="middle" x="67" y="-56.5" font-family="Helvetica,sans-Serif" font-size="10.00">::init::initgaussiansmeared</text>
</a>
</g>
</g>
<!-- Node1&#45;&gt;Node3 -->
<g id="edge2" class="edge">
<title>Node1&#45;&gt;Node3</title>
<path fill="none" stroke="midnightblue" d="M159.84,-64.5C150.1,-64.5 140.38,-64.5 131.09,-64.5"/>
<polygon fill="midnightblue" stroke="midnightblue" points="159.96,-68 169.96,-64.5 159.96,-61 159.96,-68"/>
</g>
<!-- Node4 -->
<g id="node4" class="node">
<title>Node4</title>
<g id="a_node4"><a xlink:href="interfacextb__coulomb__klopmanohno_1_1init.html#ae65974389e2ef4951f7413508b2c3a35" target="_top" xlink:title=" ">
<polygon fill="white" stroke="black" points="0,-0.5 0,-30.5 134,-30.5 134,-0.5 0,-0.5"/>
<text text-anchor="start" x="8" y="-18.5" font-family="Helvetica,sans-Serif" font-size="10.00">xtb_coulomb_klopmanohno</text>
<text text-anchor="middle" x="67" y="-7.5" font-family="Helvetica,sans-Serif" font-size="10.00">::init::initklopmanohno</text>
</a>
</g>
</g>
<!-- Node1&#45;&gt;Node4 -->
<g id="edge3" class="edge">
<title>Node1&#45;&gt;Node4</title>
<path fill="none" stroke="midnightblue" d="M206.6,-52.31C181.78,-45.72 150.92,-37.52 124.62,-30.54"/>
<polygon fill="midnightblue" stroke="midnightblue" points="205.93,-55.75 216.49,-54.94 207.72,-48.99 205.93,-55.75"/>
</g>
</g>
</svg>
