<?xml version="1.0" encoding="UTF-8" standalone="no"?>
<!DOCTYPE svg PUBLIC "-//W3C//DTD SVG 1.1//EN"
 "http://www.w3.org/Graphics/SVG/1.1/DTD/svg11.dtd">
<!-- Generated by graphviz version 2.43.0 (0)
 -->
<!-- Title: xtb_scanparam::pot_info Pages: 1 -->
<svg width="934pt" height="364pt"
 viewBox="0.00 0.00 934.00 364.00" xmlns="http://www.w3.org/2000/svg" xmlns:xlink="http://www.w3.org/1999/xlink">
<g id="graph0" class="graph" transform="scale(1 1) rotate(0) translate(4 360)">
<title>xtb_scanparam::pot_info</title>
<polygon fill="white" stroke="transparent" points="-4,4 -4,-360 930,-360 930,4 -4,4"/>
<!-- Node1 -->
<g id="node1" class="node">
<title>Node1</title>
<g id="a_node1"><a xlink:title=" ">
<polygon fill="#bfbfbf" stroke="black" points="0,-180.5 0,-199.5 137,-199.5 137,-180.5 0,-180.5"/>
<text text-anchor="middle" x="68.5" y="-187.5" font-family="Helvetica,sans-Serif" font-size="10.00">xtb_scanparam::pot_info</text>
</a>
</g>
</g>
<!-- Node2 -->
<g id="node2" class="node">
<title>Node2</title>
<g id="a_node2"><a xlink:href="constr_8f90.html#a32be9c5b624117bb5292ce41655493c1" target="_top" xlink:title=" ">
<polygon fill="white" stroke="black" points="237.5,-336.5 237.5,-355.5 281.5,-355.5 281.5,-336.5 237.5,-336.5"/>
<text text-anchor="middle" x="259.5" y="-343.5" font-family="Helvetica,sans-Serif" font-size="10.00">bangl</text>
</a>
</g>
</g>
<!-- Node1&#45;&gt;Node2 -->
<g id="edge1" class="edge">
<title>Node1&#45;&gt;Node2</title>
<path fill="none" stroke="midnightblue" d="M73.89,-199.84C85.8,-225.32 121.34,-293.8 173,-327 189.1,-337.35 210.04,-342.11 227.17,-344.28"/>
<polygon fill="midnightblue" stroke="midnightblue" points="226.95,-347.78 237.26,-345.33 227.67,-340.82 226.95,-347.78"/>
</g>
<!-- Node3 -->
<g id="node3" class="node">
<title>Node3</title>
<g id="a_node3"><a xlink:href="namespacextb__constrainpot.html#aee05a132cdbd72139dc12ad55378e5c6" target="_top" xlink:title=" ">
<polygon fill="white" stroke="black" points="185,-287 185,-317 334,-317 334,-287 185,-287"/>
<text text-anchor="start" x="193" y="-305" font-family="Helvetica,sans-Serif" font-size="10.00">xtb_constrainpot::constrain</text>
<text text-anchor="middle" x="259.5" y="-294" font-family="Helvetica,sans-Serif" font-size="10.00">_angle</text>
</a>
</g>
</g>
<!-- Node1&#45;&gt;Node3 -->
<g id="edge2" class="edge">
<title>Node1&#45;&gt;Node3</title>
<path fill="none" stroke="midnightblue" d="M78.18,-199.76C94.79,-217.86 133.03,-256.72 173,-278 176.5,-279.86 180.16,-281.59 183.91,-283.2"/>
<polygon fill="midnightblue" stroke="midnightblue" points="182.79,-286.52 193.38,-286.94 185.36,-280.01 182.79,-286.52"/>
</g>
<!-- Node6 -->
<g id="node6" class="node">
<title>Node6</title>
<g id="a_node6"><a xlink:href="namespacextb__constrainpot.html#a07cff63f1e1c8aa4556f80b093011335" target="_top" xlink:title=" ">
<polygon fill="white" stroke="black" points="185,-238 185,-268 334,-268 334,-238 185,-238"/>
<text text-anchor="start" x="193" y="-256" font-family="Helvetica,sans-Serif" font-size="10.00">xtb_constrainpot::constrain</text>
<text text-anchor="middle" x="259.5" y="-245" font-family="Helvetica,sans-Serif" font-size="10.00">_dihedral</text>
</a>
</g>
</g>
<!-- Node1&#45;&gt;Node6 -->
<g id="edge5" class="edge">
<title>Node1&#45;&gt;Node6</title>
<path fill="none" stroke="midnightblue" d="M94.01,-199.53C114.88,-207.52 145.73,-219.02 173,-228 180.15,-230.35 187.67,-232.72 195.16,-235"/>
<polygon fill="midnightblue" stroke="midnightblue" points="194.38,-238.42 204.97,-237.95 196.4,-231.72 194.38,-238.42"/>
</g>
<!-- Node12 -->
<g id="node12" class="node">
<title>Node12</title>
<g id="a_node12"><a xlink:href="namespacextb__constrainpot.html#a9fcbaa23bce9aadbe621da4b688e2a76" target="_top" xlink:title=" ">
<polygon fill="white" stroke="black" points="173,-199.5 173,-218.5 346,-218.5 346,-199.5 173,-199.5"/>
<text text-anchor="middle" x="259.5" y="-206.5" font-family="Helvetica,sans-Serif" font-size="10.00">xtb_constrainpot::constrain_dist</text>
</a>
</g>
</g>
<!-- Node1&#45;&gt;Node12 -->
<g id="edge14" class="edge">
<title>Node1&#45;&gt;Node12</title>
<path fill="none" stroke="midnightblue" d="M137.2,-196.81C145.5,-197.64 154.1,-198.5 162.71,-199.37"/>
<polygon fill="midnightblue" stroke="midnightblue" points="162.51,-202.87 172.81,-200.39 163.21,-195.9 162.51,-202.87"/>
</g>
<!-- Node13 -->
<g id="node13" class="node">
<title>Node13</title>
<g id="a_node13"><a xlink:href="namespacextb__constrainpot.html#aab4813f6ef3f6d77c7b0fcaeb7b49fe7" target="_top" xlink:title=" ">
<polygon fill="white" stroke="black" points="173.5,-161.5 173.5,-180.5 345.5,-180.5 345.5,-161.5 173.5,-161.5"/>
<text text-anchor="middle" x="259.5" y="-168.5" font-family="Helvetica,sans-Serif" font-size="10.00">xtb_constrainpot::constrain_pos</text>
</a>
</g>
</g>
<!-- Node1&#45;&gt;Node13 -->
<g id="edge15" class="edge">
<title>Node1&#45;&gt;Node13</title>
<path fill="none" stroke="midnightblue" d="M137.2,-183.19C145.74,-182.34 154.6,-181.44 163.47,-180.55"/>
<polygon fill="midnightblue" stroke="midnightblue" points="163.87,-184.03 173.47,-179.55 163.17,-177.07 163.87,-184.03"/>
</g>
<!-- Node14 -->
<g id="node14" class="node">
<title>Node14</title>
<g id="a_node14"><a xlink:href="header_8f90.html#aa5f107f7eca06612b547c0745e5bbab2" target="_top" xlink:title=" ">
<polygon fill="white" stroke="black" points="213.5,-123.5 213.5,-142.5 305.5,-142.5 305.5,-123.5 213.5,-123.5"/>
<text text-anchor="middle" x="259.5" y="-130.5" font-family="Helvetica,sans-Serif" font-size="10.00">generic_header</text>
</a>
</g>
</g>
<!-- Node1&#45;&gt;Node14 -->
<g id="edge16" class="edge">
<title>Node1&#45;&gt;Node14</title>
<path fill="none" stroke="midnightblue" d="M92.63,-180.5C113.42,-172.21 144.9,-160.24 173,-152 182.74,-149.14 193.21,-146.49 203.38,-144.12"/>
<polygon fill="midnightblue" stroke="midnightblue" points="204.42,-147.47 213.4,-141.85 202.87,-140.64 204.42,-147.47"/>
</g>
<!-- Node15 -->
<g id="node15" class="node">
<title>Node15</title>
<g id="a_node15"><a xlink:href="namespacextb__mctc__symbols.html#abe837ad333242b4dd3073c5747c13e28" target="_top" xlink:title="Convert atomic number to element symbol.">
<polygon fill="white" stroke="black" points="179.5,-85.5 179.5,-104.5 339.5,-104.5 339.5,-85.5 179.5,-85.5"/>
<text text-anchor="middle" x="259.5" y="-92.5" font-family="Helvetica,sans-Serif" font-size="10.00">xtb_mctc_symbols::tosymbol</text>
</a>
</g>
</g>
<!-- Node1&#45;&gt;Node15 -->
<g id="edge17" class="edge">
<title>Node1&#45;&gt;Node15</title>
<path fill="none" stroke="midnightblue" d="M79.45,-180.43C96.91,-164.19 134.84,-131.32 173,-114 178.41,-111.54 184.16,-109.4 190.02,-107.52"/>
<polygon fill="midnightblue" stroke="midnightblue" points="191.34,-110.78 199.95,-104.61 189.37,-104.06 191.34,-110.78"/>
</g>
<!-- Node17 -->
<g id="node17" class="node">
<title>Node17</title>
<g id="a_node17"><a xlink:href="constr_8f90.html#a8b9983c57e44abcd5ef71525d9a9917b" target="_top" xlink:title=" ">
<polygon fill="white" stroke="black" points="236,-38.5 236,-57.5 283,-57.5 283,-38.5 236,-38.5"/>
<text text-anchor="middle" x="259.5" y="-45.5" font-family="Helvetica,sans-Serif" font-size="10.00">valijkl</text>
</a>
</g>
</g>
<!-- Node1&#45;&gt;Node17 -->
<g id="edge19" class="edge">
<title>Node1&#45;&gt;Node17</title>
<path fill="none" stroke="midnightblue" d="M75.75,-180.2C90.2,-158.3 128.14,-105.08 173,-76 188.96,-65.66 209.07,-58.82 225.78,-54.49"/>
<polygon fill="midnightblue" stroke="midnightblue" points="226.77,-57.85 235.68,-52.11 225.14,-51.05 226.77,-57.85"/>
</g>
<!-- Node4 -->
<g id="node4" class="node">
<title>Node4</title>
<g id="a_node4"><a xlink:href="namespacextb__basic__geo.html#abb38f4d2470dee94794c991509a85c6f" target="_top" xlink:title=" ">
<polygon fill="white" stroke="black" points="419,-327.5 419,-346.5 542,-346.5 542,-327.5 419,-327.5"/>
<text text-anchor="middle" x="480.5" y="-334.5" font-family="Helvetica,sans-Serif" font-size="10.00">xtb_basic_geo::crprod</text>
</a>
</g>
</g>
<!-- Node3&#45;&gt;Node4 -->
<g id="edge3" class="edge">
<title>Node3&#45;&gt;Node4</title>
<path fill="none" stroke="midnightblue" d="M334.03,-313.75C358.5,-317.66 385.66,-322 409.82,-325.86"/>
<polygon fill="midnightblue" stroke="midnightblue" points="409.55,-329.36 419.97,-327.49 410.65,-322.45 409.55,-329.36"/>
</g>
<!-- Node5 -->
<g id="node5" class="node">
<title>Node5</title>
<g id="a_node5"><a xlink:href="namespacextb__basic__geo.html#abde6eb97f003096d4a102534eb767967" target="_top" xlink:title=" ">
<polygon fill="white" stroke="black" points="419.5,-289.5 419.5,-308.5 541.5,-308.5 541.5,-289.5 419.5,-289.5"/>
<text text-anchor="middle" x="480.5" y="-296.5" font-family="Helvetica,sans-Serif" font-size="10.00">xtb_basic_geo::impsc</text>
</a>
</g>
</g>
<!-- Node3&#45;&gt;Node5 -->
<g id="edge4" class="edge">
<title>Node3&#45;&gt;Node5</title>
<path fill="none" stroke="midnightblue" d="M334.03,-300.99C358.28,-300.66 385.17,-300.29 409.17,-299.96"/>
<polygon fill="midnightblue" stroke="midnightblue" points="409.32,-303.46 419.27,-299.83 409.22,-296.46 409.32,-303.46"/>
</g>
<!-- Node7 -->
<g id="node7" class="node">
<title>Node7</title>
<g id="a_node7"><a xlink:href="namespacextb__basic__geo.html#a46453de5c31b3d8b0fca71de0f1a9b30" target="_top" xlink:title=" ">
<polygon fill="white" stroke="black" points="419,-246.5 419,-265.5 542,-265.5 542,-246.5 419,-246.5"/>
<text text-anchor="middle" x="480.5" y="-253.5" font-family="Helvetica,sans-Serif" font-size="10.00">xtb_basic_geo::dphidr</text>
</a>
</g>
</g>
<!-- Node6&#45;&gt;Node7 -->
<g id="edge6" class="edge">
<title>Node6&#45;&gt;Node7</title>
<path fill="none" stroke="midnightblue" d="M334.03,-254.01C358.17,-254.34 384.93,-254.7 408.85,-255.03"/>
<polygon fill="midnightblue" stroke="midnightblue" points="408.86,-258.53 418.91,-255.17 408.96,-251.53 408.86,-258.53"/>
</g>
<!-- Node10 -->
<g id="node10" class="node">
<title>Node10</title>
<g id="a_node10"><a xlink:href="namespacextb__basic__geo.html#ad8c2f50bb68be7fd81ece4eb6f5b2ae8" target="_top" xlink:title=" ">
<polygon fill="white" stroke="black" points="419.5,-208.5 419.5,-227.5 541.5,-227.5 541.5,-208.5 419.5,-208.5"/>
<text text-anchor="middle" x="480.5" y="-215.5" font-family="Helvetica,sans-Serif" font-size="10.00">xtb_basic_geo::valijkl</text>
</a>
</g>
</g>
<!-- Node6&#45;&gt;Node10 -->
<g id="edge9" class="edge">
<title>Node6&#45;&gt;Node10</title>
<path fill="none" stroke="midnightblue" d="M334.03,-241.25C358.5,-237.34 385.66,-233 409.82,-229.14"/>
<polygon fill="midnightblue" stroke="midnightblue" points="410.65,-232.55 419.97,-227.51 409.55,-225.64 410.65,-232.55"/>
</g>
<!-- Node8 -->
<g id="node8" class="node">
<title>Node8</title>
<g id="a_node8"><a xlink:href="namespacextb__basic__geo.html#a6e8e92267164a5a45bac607201944cc0" target="_top" xlink:title=" ">
<polygon fill="white" stroke="black" points="615,-246.5 615,-265.5 755,-265.5 755,-246.5 615,-246.5"/>
<text text-anchor="middle" x="685" y="-253.5" font-family="Helvetica,sans-Serif" font-size="10.00">xtb_basic_geo::crossprod</text>
</a>
</g>
</g>
<!-- Node7&#45;&gt;Node8 -->
<g id="edge7" class="edge">
<title>Node7&#45;&gt;Node8</title>
<path fill="none" stroke="midnightblue" d="M542.26,-256C561.88,-256 583.93,-256 604.69,-256"/>
<polygon fill="midnightblue" stroke="midnightblue" points="604.76,-259.5 614.76,-256 604.76,-252.5 604.76,-259.5"/>
</g>
<!-- Node9 -->
<g id="node9" class="node">
<title>Node9</title>
<g id="a_node9"><a xlink:href="namespacextb__basic__geo.html#a9dd5846373471f74781248b52d92baed" target="_top" xlink:title=" ">
<polygon fill="white" stroke="black" points="791,-208.5 791,-227.5 926,-227.5 926,-208.5 791,-208.5"/>
<text text-anchor="middle" x="858.5" y="-215.5" font-family="Helvetica,sans-Serif" font-size="10.00">xtb_basic_geo::vecnorm</text>
</a>
</g>
</g>
<!-- Node7&#45;&gt;Node9 -->
<g id="edge8" class="edge">
<title>Node7&#45;&gt;Node9</title>
<path fill="none" stroke="midnightblue" d="M516.7,-265.51C569.42,-278.17 671.61,-296.63 755,-275 785.77,-267.02 817.12,-247.58 836.91,-233.62"/>
<polygon fill="midnightblue" stroke="midnightblue" points="839.1,-236.36 845.14,-227.66 834.99,-230.69 839.1,-236.36"/>
</g>
<!-- Node10&#45;&gt;Node8 -->
<g id="edge10" class="edge">
<title>Node10&#45;&gt;Node8</title>
<path fill="none" stroke="midnightblue" d="M532.34,-227.54C559.9,-232.71 594.15,-239.14 623.13,-244.58"/>
<polygon fill="midnightblue" stroke="midnightblue" points="622.67,-248.05 633.14,-246.46 623.96,-241.17 622.67,-248.05"/>
</g>
<!-- Node10&#45;&gt;Node9 -->
<g id="edge13" class="edge">
<title>Node10&#45;&gt;Node9</title>
<path fill="none" stroke="midnightblue" d="M541.91,-218C606.81,-218 710.11,-218 780.73,-218"/>
<polygon fill="midnightblue" stroke="midnightblue" points="780.9,-221.5 790.9,-218 780.9,-214.5 780.9,-221.5"/>
</g>
<!-- Node11 -->
<g id="node11" class="node">
<title>Node11</title>
<g id="a_node11"><a xlink:href="namespacextb__basic__geo.html#ac6d22aed86cc153f217f39447a2701cc" target="_top" xlink:title=" ">
<polygon fill="white" stroke="black" points="625.5,-170.5 625.5,-189.5 744.5,-189.5 744.5,-170.5 625.5,-170.5"/>
<text text-anchor="middle" x="685" y="-177.5" font-family="Helvetica,sans-Serif" font-size="10.00">xtb_basic_geo::valijk</text>
</a>
</g>
</g>
<!-- Node10&#45;&gt;Node11 -->
<g id="edge11" class="edge">
<title>Node10&#45;&gt;Node11</title>
<path fill="none" stroke="midnightblue" d="M532.34,-208.46C559.9,-203.29 594.15,-196.86 623.13,-191.42"/>
<polygon fill="midnightblue" stroke="midnightblue" points="623.96,-194.83 633.14,-189.54 622.67,-187.95 623.96,-194.83"/>
</g>
<!-- Node11&#45;&gt;Node9 -->
<g id="edge12" class="edge">
<title>Node11&#45;&gt;Node9</title>
<path fill="none" stroke="midnightblue" d="M729.28,-189.59C752.11,-194.65 780.32,-200.9 804.46,-206.25"/>
<polygon fill="midnightblue" stroke="midnightblue" points="804.01,-209.73 814.53,-208.48 805.53,-202.9 804.01,-209.73"/>
</g>
<!-- Node16 -->
<g id="node16" class="node">
<title>Node16</title>
<g id="a_node16"><a xlink:href="namespacextb__mctc__symbols.html#a79bd74e1e6f1eae5387d103d33088dc8" target="_top" xlink:title="Convert atomic number to element symbol.">
<polygon fill="white" stroke="black" points="382,-95.5 382,-114.5 579,-114.5 579,-95.5 382,-95.5"/>
<text text-anchor="middle" x="480.5" y="-102.5" font-family="Helvetica,sans-Serif" font-size="10.00">xtb_mctc_symbols::numbertosymbol</text>
</a>
</g>
</g>
<!-- Node15&#45;&gt;Node16 -->
<g id="edge18" class="edge">
<title>Node15&#45;&gt;Node16</title>
<path fill="none" stroke="midnightblue" d="M339.56,-98.61C349.96,-99.09 360.76,-99.58 371.54,-100.07"/>
<polygon fill="midnightblue" stroke="midnightblue" points="371.7,-103.58 381.85,-100.54 372.02,-96.59 371.7,-103.58"/>
</g>
<!-- Node18 -->
<g id="node18" class="node">
<title>Node18</title>
<g id="a_node18"><a xlink:href="constr_8f90.html#a10258b751fb1a02456622523df6e8b49" target="_top" xlink:title=" ">
<polygon fill="white" stroke="black" points="448.5,-57.5 448.5,-76.5 512.5,-76.5 512.5,-57.5 448.5,-57.5"/>
<text text-anchor="middle" x="480.5" y="-64.5" font-family="Helvetica,sans-Serif" font-size="10.00">crossprod</text>
</a>
</g>
</g>
<!-- Node17&#45;&gt;Node18 -->
<g id="edge20" class="edge">
<title>Node17&#45;&gt;Node18</title>
<path fill="none" stroke="midnightblue" d="M283.11,-49.96C319.61,-53.13 392.06,-59.41 438.02,-63.4"/>
<polygon fill="midnightblue" stroke="midnightblue" points="437.99,-66.91 448.25,-64.29 438.59,-59.94 437.99,-66.91"/>
</g>
<!-- Node19 -->
<g id="node19" class="node">
<title>Node19</title>
<g id="a_node19"><a xlink:href="constr_8f90.html#a5fc70d66b0231afec39209517852b818" target="_top" xlink:title=" ">
<polygon fill="white" stroke="black" points="458.5,-19.5 458.5,-38.5 502.5,-38.5 502.5,-19.5 458.5,-19.5"/>
<text text-anchor="middle" x="480.5" y="-26.5" font-family="Helvetica,sans-Serif" font-size="10.00">valijk</text>
</a>
</g>
</g>
<!-- Node17&#45;&gt;Node19 -->
<g id="edge21" class="edge">
<title>Node17&#45;&gt;Node19</title>
<path fill="none" stroke="midnightblue" d="M283.11,-46.04C322.47,-42.62 403.62,-35.58 448.3,-31.71"/>
<polygon fill="midnightblue" stroke="midnightblue" points="448.64,-35.19 458.3,-30.84 448.04,-28.22 448.64,-35.19"/>
</g>
<!-- Node20 -->
<g id="node20" class="node">
<title>Node20</title>
<g id="a_node20"><a xlink:href="constr_8f90.html#af5b7bb0960a128b6ee8d53b2f0ba2135" target="_top" xlink:title=" ">
<polygon fill="white" stroke="black" points="655.5,-0.5 655.5,-19.5 714.5,-19.5 714.5,-0.5 655.5,-0.5"/>
<text text-anchor="middle" x="685" y="-7.5" font-family="Helvetica,sans-Serif" font-size="10.00">vecnorm</text>
</a>
</g>
</g>
<!-- Node17&#45;&gt;Node20 -->
<g id="edge23" class="edge">
<title>Node17&#45;&gt;Node20</title>
<path fill="none" stroke="midnightblue" d="M283.3,-38.58C307.35,-29.19 346.61,-15.41 382,-10 475.68,4.31 587.63,-1.59 645.34,-6.29"/>
<polygon fill="midnightblue" stroke="midnightblue" points="645.21,-9.79 655.47,-7.15 645.8,-2.82 645.21,-9.79"/>
</g>
<!-- Node19&#45;&gt;Node20 -->
<g id="edge22" class="edge">
<title>Node19&#45;&gt;Node20</title>
<path fill="none" stroke="midnightblue" d="M502.79,-27C536.56,-23.83 602.92,-17.61 645.28,-13.63"/>
<polygon fill="midnightblue" stroke="midnightblue" points="645.61,-17.12 655.24,-12.7 644.95,-10.15 645.61,-17.12"/>
</g>
</g>
</svg>
