<?xml version="1.0" encoding="UTF-8" standalone="no"?>
<!DOCTYPE svg PUBLIC "-//W3C//DTD SVG 1.1//EN"
 "http://www.w3.org/Graphics/SVG/1.1/DTD/svg11.dtd">
<!-- Generated by graphviz version 2.46.1 (20210215.1649)
 -->
<!-- Title: xtb_solv_lebedev::genoh2 Pages: 1 -->
<svg width="606pt" height="598pt"
 viewBox="0.00 0.00 606.00 598.00" xmlns="http://www.w3.org/2000/svg" xmlns:xlink="http://www.w3.org/1999/xlink">
<g id="graph0" class="graph" transform="scale(1 1) rotate(0) translate(4 594)">
<title>xtb_solv_lebedev::genoh2</title>
<polygon fill="white" stroke="transparent" points="-4,4 -4,-594 602,-594 602,4 -4,4"/>
<!-- Node1 -->
<g id="node1" class="node">
<title>Node1</title>
<g id="a_node1"><a xlink:title="Generate 12 new points with Oh symmetry from (0,a,a), a=1/sqrt(2)">
<polygon fill="#bfbfbf" stroke="black" points="470,-285.5 470,-304.5 598,-304.5 598,-285.5 470,-285.5"/>
<text text-anchor="middle" x="534" y="-292.5" font-family="Helvetica,sans-Serif" font-size="10.00">xtb_solv_lebedev::genoh2</text>
</a>
</g>
</g>
<!-- Node2 -->
<g id="node2" class="node">
<title>Node2</title>
<g id="a_node2"><a xlink:href="namespacextb__solv__lebedev.html#a33d55e0712b458ebfc76352cc058d8e1" target="_top" xlink:title=" ">
<polygon fill="white" stroke="black" points="309,-570.5 309,-589.5 434,-589.5 434,-570.5 309,-570.5"/>
<text text-anchor="middle" x="371.5" y="-577.5" font-family="Helvetica,sans-Serif" font-size="10.00">xtb_solv_lebedev::ld0026</text>
</a>
</g>
</g>
<!-- Node1&#45;&gt;Node2 -->
<g id="edge1" class="edge">
<title>Node1&#45;&gt;Node2</title>
<path fill="none" stroke="midnightblue" d="M531.46,-314.82C526.57,-363.87 507.11,-491.92 434,-561 429.86,-564.91 424.92,-568.02 419.68,-570.49"/>
<polygon fill="midnightblue" stroke="midnightblue" points="534.97,-314.89 532.37,-304.62 527.99,-314.27 534.97,-314.89"/>
</g>
<!-- Node5 -->
<g id="node5" class="node">
<title>Node5</title>
<g id="a_node5"><a xlink:href="namespacextb__solv__lebedev.html#a9a40f5fc99d96bb20df12cc7b43db4ae" target="_top" xlink:title=" ">
<polygon fill="white" stroke="black" points="309,-532.5 309,-551.5 434,-551.5 434,-532.5 309,-532.5"/>
<text text-anchor="middle" x="371.5" y="-539.5" font-family="Helvetica,sans-Serif" font-size="10.00">xtb_solv_lebedev::ld0050</text>
</a>
</g>
</g>
<!-- Node1&#45;&gt;Node5 -->
<g id="edge4" class="edge">
<title>Node1&#45;&gt;Node5</title>
<path fill="none" stroke="midnightblue" d="M530.05,-314.94C522.46,-359.05 498.17,-465.53 434,-523 429.67,-526.88 424.56,-529.96 419.17,-532.42"/>
<polygon fill="midnightblue" stroke="midnightblue" points="533.53,-315.34 531.66,-304.91 526.62,-314.23 533.53,-315.34"/>
</g>
<!-- Node6 -->
<g id="node6" class="node">
<title>Node6</title>
<g id="a_node6"><a xlink:href="namespacextb__solv__lebedev.html#a38b4fa991841a749e8da6f444eabd4a7" target="_top" xlink:title=" ">
<polygon fill="white" stroke="black" points="309,-494.5 309,-513.5 434,-513.5 434,-494.5 309,-494.5"/>
<text text-anchor="middle" x="371.5" y="-501.5" font-family="Helvetica,sans-Serif" font-size="10.00">xtb_solv_lebedev::ld0074</text>
</a>
</g>
</g>
<!-- Node1&#45;&gt;Node6 -->
<g id="edge6" class="edge">
<title>Node1&#45;&gt;Node6</title>
<path fill="none" stroke="midnightblue" d="M528.27,-314.44C517.92,-352.82 489.64,-438.6 434,-485 429.37,-488.86 423.95,-491.94 418.29,-494.4"/>
<polygon fill="midnightblue" stroke="midnightblue" points="531.71,-315.1 530.82,-304.55 524.93,-313.36 531.71,-315.1"/>
</g>
<!-- Node7 -->
<g id="node7" class="node">
<title>Node7</title>
<g id="a_node7"><a xlink:href="namespacextb__solv__lebedev.html#aed0ccbb0f9cbe64105fe5b078faec200" target="_top" xlink:title=" ">
<polygon fill="white" stroke="black" points="309,-456.5 309,-475.5 434,-475.5 434,-456.5 309,-456.5"/>
<text text-anchor="middle" x="371.5" y="-463.5" font-family="Helvetica,sans-Serif" font-size="10.00">xtb_solv_lebedev::ld0146</text>
</a>
</g>
</g>
<!-- Node1&#45;&gt;Node7 -->
<g id="edge8" class="edge">
<title>Node1&#45;&gt;Node7</title>
<path fill="none" stroke="midnightblue" d="M525.52,-314.51C512.12,-346.86 480.97,-411.54 434,-447 428.83,-450.9 422.84,-454.02 416.68,-456.49"/>
<polygon fill="midnightblue" stroke="midnightblue" points="528.91,-315.45 529.38,-304.87 522.41,-312.85 528.91,-315.45"/>
</g>
<!-- Node8 -->
<g id="node8" class="node">
<title>Node8</title>
<g id="a_node8"><a xlink:href="namespacextb__solv__lebedev.html#a7f1a595d41d4605ccf5fce14594da670" target="_top" xlink:title=" ">
<polygon fill="white" stroke="black" points="309,-418.5 309,-437.5 434,-437.5 434,-418.5 309,-418.5"/>
<text text-anchor="middle" x="371.5" y="-425.5" font-family="Helvetica,sans-Serif" font-size="10.00">xtb_solv_lebedev::ld0170</text>
</a>
</g>
</g>
<!-- Node1&#45;&gt;Node8 -->
<g id="edge10" class="edge">
<title>Node1&#45;&gt;Node8</title>
<path fill="none" stroke="midnightblue" d="M521.98,-313.11C505.77,-338.24 473.14,-383.49 434,-409 428.1,-412.84 421.38,-415.95 414.6,-418.44"/>
<polygon fill="midnightblue" stroke="midnightblue" points="525,-314.87 527.37,-304.54 519.08,-311.14 525,-314.87"/>
</g>
<!-- Node9 -->
<g id="node9" class="node">
<title>Node9</title>
<g id="a_node9"><a xlink:href="namespacextb__solv__lebedev.html#a7c3db474684db5ae3087a9da0b1d8e7d" target="_top" xlink:title=" ">
<polygon fill="white" stroke="black" points="309,-380.5 309,-399.5 434,-399.5 434,-380.5 309,-380.5"/>
<text text-anchor="middle" x="371.5" y="-387.5" font-family="Helvetica,sans-Serif" font-size="10.00">xtb_solv_lebedev::ld0194</text>
</a>
</g>
</g>
<!-- Node1&#45;&gt;Node9 -->
<g id="edge12" class="edge">
<title>Node1&#45;&gt;Node9</title>
<path fill="none" stroke="midnightblue" d="M515.68,-311.41C496.89,-328.44 465.35,-354.79 434,-371 426.75,-374.75 418.64,-377.9 410.74,-380.5"/>
<polygon fill="midnightblue" stroke="midnightblue" points="518.17,-313.88 523.15,-304.53 513.42,-308.74 518.17,-313.88"/>
</g>
<!-- Node10 -->
<g id="node10" class="node">
<title>Node10</title>
<g id="a_node10"><a xlink:href="namespacextb__solv__lebedev.html#ae5bf49bca7baf7dbd431a709bfcf339c" target="_top" xlink:title=" ">
<polygon fill="white" stroke="black" points="309,-342.5 309,-361.5 434,-361.5 434,-342.5 309,-342.5"/>
<text text-anchor="middle" x="371.5" y="-349.5" font-family="Helvetica,sans-Serif" font-size="10.00">xtb_solv_lebedev::ld0266</text>
</a>
</g>
</g>
<!-- Node1&#45;&gt;Node10 -->
<g id="edge14" class="edge">
<title>Node1&#45;&gt;Node10</title>
<path fill="none" stroke="midnightblue" d="M500.08,-308.27C480.92,-315.83 456.22,-325.31 434,-333 424.6,-336.25 414.3,-339.54 404.87,-342.44"/>
<polygon fill="midnightblue" stroke="midnightblue" points="501.56,-311.45 509.56,-304.51 498.97,-304.94 501.56,-311.45"/>
</g>
<!-- Node11 -->
<g id="node11" class="node">
<title>Node11</title>
<g id="a_node11"><a xlink:href="namespacextb__solv__lebedev.html#a767bff6205c4b2c33e8fce55640f9b85" target="_top" xlink:title=" ">
<polygon fill="white" stroke="black" points="309,-304.5 309,-323.5 434,-323.5 434,-304.5 309,-304.5"/>
<text text-anchor="middle" x="371.5" y="-311.5" font-family="Helvetica,sans-Serif" font-size="10.00">xtb_solv_lebedev::ld0434</text>
</a>
</g>
</g>
<!-- Node1&#45;&gt;Node11 -->
<g id="edge16" class="edge">
<title>Node1&#45;&gt;Node11</title>
<path fill="none" stroke="midnightblue" d="M459.36,-303.72C450.93,-304.71 442.41,-305.72 434.16,-306.7"/>
<polygon fill="midnightblue" stroke="midnightblue" points="460.05,-307.16 469.57,-302.51 459.22,-300.21 460.05,-307.16"/>
</g>
<!-- Node12 -->
<g id="node12" class="node">
<title>Node12</title>
<g id="a_node12"><a xlink:href="namespacextb__solv__lebedev.html#a40d8c864d947e686fa789bfffcc09604" target="_top" xlink:title=" ">
<polygon fill="white" stroke="black" points="309,-266.5 309,-285.5 434,-285.5 434,-266.5 309,-266.5"/>
<text text-anchor="middle" x="371.5" y="-273.5" font-family="Helvetica,sans-Serif" font-size="10.00">xtb_solv_lebedev::ld0770</text>
</a>
</g>
</g>
<!-- Node1&#45;&gt;Node12 -->
<g id="edge18" class="edge">
<title>Node1&#45;&gt;Node12</title>
<path fill="none" stroke="midnightblue" d="M459.36,-286.28C450.93,-285.29 442.41,-284.28 434.16,-283.3"/>
<polygon fill="midnightblue" stroke="midnightblue" points="459.22,-289.79 469.57,-287.49 460.05,-282.84 459.22,-289.79"/>
</g>
<!-- Node13 -->
<g id="node13" class="node">
<title>Node13</title>
<g id="a_node13"><a xlink:href="namespacextb__solv__lebedev.html#a595d7a53ab33e2ab8766a89935acd282" target="_top" xlink:title=" ">
<polygon fill="white" stroke="black" points="309,-228.5 309,-247.5 434,-247.5 434,-228.5 309,-228.5"/>
<text text-anchor="middle" x="371.5" y="-235.5" font-family="Helvetica,sans-Serif" font-size="10.00">xtb_solv_lebedev::ld1202</text>
</a>
</g>
</g>
<!-- Node1&#45;&gt;Node13 -->
<g id="edge20" class="edge">
<title>Node1&#45;&gt;Node13</title>
<path fill="none" stroke="midnightblue" d="M500.08,-281.73C480.92,-274.17 456.22,-264.69 434,-257 424.6,-253.75 414.3,-250.46 404.87,-247.56"/>
<polygon fill="midnightblue" stroke="midnightblue" points="498.97,-285.06 509.56,-285.49 501.56,-278.55 498.97,-285.06"/>
</g>
<!-- Node14 -->
<g id="node14" class="node">
<title>Node14</title>
<g id="a_node14"><a xlink:href="namespacextb__solv__lebedev.html#a10ee6a3eb1933644ccbbf1ccf9ab5cbc" target="_top" xlink:title=" ">
<polygon fill="white" stroke="black" points="309,-190.5 309,-209.5 434,-209.5 434,-190.5 309,-190.5"/>
<text text-anchor="middle" x="371.5" y="-197.5" font-family="Helvetica,sans-Serif" font-size="10.00">xtb_solv_lebedev::ld1730</text>
</a>
</g>
</g>
<!-- Node1&#45;&gt;Node14 -->
<g id="edge22" class="edge">
<title>Node1&#45;&gt;Node14</title>
<path fill="none" stroke="midnightblue" d="M515.68,-278.59C496.89,-261.56 465.35,-235.21 434,-219 426.75,-215.25 418.64,-212.1 410.74,-209.5"/>
<polygon fill="midnightblue" stroke="midnightblue" points="513.42,-281.26 523.15,-285.47 518.17,-276.12 513.42,-281.26"/>
</g>
<!-- Node15 -->
<g id="node15" class="node">
<title>Node15</title>
<g id="a_node15"><a xlink:href="namespacextb__solv__lebedev.html#a533fe73b076e0eb71e77c2219585525a" target="_top" xlink:title=" ">
<polygon fill="white" stroke="black" points="309,-152.5 309,-171.5 434,-171.5 434,-152.5 309,-152.5"/>
<text text-anchor="middle" x="371.5" y="-159.5" font-family="Helvetica,sans-Serif" font-size="10.00">xtb_solv_lebedev::ld2354</text>
</a>
</g>
</g>
<!-- Node1&#45;&gt;Node15 -->
<g id="edge24" class="edge">
<title>Node1&#45;&gt;Node15</title>
<path fill="none" stroke="midnightblue" d="M521.98,-276.89C505.77,-251.76 473.14,-206.51 434,-181 428.1,-177.16 421.38,-174.05 414.6,-171.56"/>
<polygon fill="midnightblue" stroke="midnightblue" points="519.08,-278.86 527.37,-285.46 525,-275.13 519.08,-278.86"/>
</g>
<!-- Node16 -->
<g id="node16" class="node">
<title>Node16</title>
<g id="a_node16"><a xlink:href="namespacextb__solv__lebedev.html#ac4fa0459254a74cff4d67b01d742d693" target="_top" xlink:title=" ">
<polygon fill="white" stroke="black" points="309,-114.5 309,-133.5 434,-133.5 434,-114.5 309,-114.5"/>
<text text-anchor="middle" x="371.5" y="-121.5" font-family="Helvetica,sans-Serif" font-size="10.00">xtb_solv_lebedev::ld3074</text>
</a>
</g>
</g>
<!-- Node1&#45;&gt;Node16 -->
<g id="edge26" class="edge">
<title>Node1&#45;&gt;Node16</title>
<path fill="none" stroke="midnightblue" d="M525.52,-275.49C512.12,-243.14 480.97,-178.46 434,-143 428.83,-139.1 422.84,-135.98 416.68,-133.51"/>
<polygon fill="midnightblue" stroke="midnightblue" points="522.41,-277.15 529.38,-285.13 528.91,-274.55 522.41,-277.15"/>
</g>
<!-- Node17 -->
<g id="node17" class="node">
<title>Node17</title>
<g id="a_node17"><a xlink:href="namespacextb__solv__lebedev.html#a6f54a4b602cd42fc9fb45d28bff7b049" target="_top" xlink:title=" ">
<polygon fill="white" stroke="black" points="309,-76.5 309,-95.5 434,-95.5 434,-76.5 309,-76.5"/>
<text text-anchor="middle" x="371.5" y="-83.5" font-family="Helvetica,sans-Serif" font-size="10.00">xtb_solv_lebedev::ld3890</text>
</a>
</g>
</g>
<!-- Node1&#45;&gt;Node17 -->
<g id="edge28" class="edge">
<title>Node1&#45;&gt;Node17</title>
<path fill="none" stroke="midnightblue" d="M528.27,-275.56C517.92,-237.18 489.64,-151.4 434,-105 429.37,-101.14 423.95,-98.06 418.29,-95.6"/>
<polygon fill="midnightblue" stroke="midnightblue" points="524.93,-276.64 530.82,-285.45 531.71,-274.9 524.93,-276.64"/>
</g>
<!-- Node18 -->
<g id="node18" class="node">
<title>Node18</title>
<g id="a_node18"><a xlink:href="namespacextb__solv__lebedev.html#a45d7142289088c922195cddb22828181" target="_top" xlink:title=" ">
<polygon fill="white" stroke="black" points="309,-38.5 309,-57.5 434,-57.5 434,-38.5 309,-38.5"/>
<text text-anchor="middle" x="371.5" y="-45.5" font-family="Helvetica,sans-Serif" font-size="10.00">xtb_solv_lebedev::ld4802</text>
</a>
</g>
</g>
<!-- Node1&#45;&gt;Node18 -->
<g id="edge30" class="edge">
<title>Node1&#45;&gt;Node18</title>
<path fill="none" stroke="midnightblue" d="M530.05,-275.06C522.46,-230.95 498.17,-124.47 434,-67 429.67,-63.12 424.56,-60.04 419.17,-57.58"/>
<polygon fill="midnightblue" stroke="midnightblue" points="526.62,-275.77 531.66,-285.09 533.53,-274.66 526.62,-275.77"/>
</g>
<!-- Node19 -->
<g id="node19" class="node">
<title>Node19</title>
<g id="a_node19"><a xlink:href="namespacextb__solv__lebedev.html#aee42b2e83eba3386f988f508504b7acf" target="_top" xlink:title=" ">
<polygon fill="white" stroke="black" points="309,-0.5 309,-19.5 434,-19.5 434,-0.5 309,-0.5"/>
<text text-anchor="middle" x="371.5" y="-7.5" font-family="Helvetica,sans-Serif" font-size="10.00">xtb_solv_lebedev::ld5810</text>
</a>
</g>
</g>
<!-- Node1&#45;&gt;Node19 -->
<g id="edge32" class="edge">
<title>Node1&#45;&gt;Node19</title>
<path fill="none" stroke="midnightblue" d="M531.46,-275.18C526.57,-226.13 507.11,-98.08 434,-29 429.86,-25.09 424.92,-21.98 419.68,-19.51"/>
<polygon fill="midnightblue" stroke="midnightblue" points="527.99,-275.73 532.37,-285.38 534.97,-275.11 527.99,-275.73"/>
</g>
<!-- Node3 -->
<g id="node3" class="node">
<title>Node3</title>
<g id="a_node3"><a xlink:href="namespacextb__solv__lebedev.html#ac83e2c4405adc3111ba955be33a53f60" target="_top" xlink:title="Wrapper for generation of angular Lebedev&#45;Laikov grids.">
<polygon fill="white" stroke="black" points="132,-285.5 132,-304.5 273,-304.5 273,-285.5 132,-285.5"/>
<text text-anchor="middle" x="202.5" y="-292.5" font-family="Helvetica,sans-Serif" font-size="10.00">xtb_solv_lebedev::getanggrid</text>
</a>
</g>
</g>
<!-- Node2&#45;&gt;Node3 -->
<g id="edge2" class="edge">
<title>Node2&#45;&gt;Node3</title>
<path fill="none" stroke="midnightblue" d="M314.45,-565.34C312.53,-564.01 310.7,-562.57 309,-561 228.58,-486.62 208.43,-343.03 204.38,-304.64"/>
<polygon fill="midnightblue" stroke="midnightblue" points="312.97,-568.52 323.4,-570.41 316.42,-562.43 312.97,-568.52"/>
</g>
<!-- Node4 -->
<g id="node4" class="node">
<title>Node4</title>
<g id="a_node4"><a xlink:href="interfacextb__solv__gbsa_1_1init.html#ac841e40409ec6f0da1b15c41f24db116" target="_top" xlink:title="Initialize data straucture.">
<polygon fill="white" stroke="black" points="0,-280 0,-310 96,-310 96,-280 0,-280"/>
<text text-anchor="start" x="8" y="-298" font-family="Helvetica,sans-Serif" font-size="10.00">xtb_solv_gbsa::init</text>
<text text-anchor="middle" x="48" y="-287" font-family="Helvetica,sans-Serif" font-size="10.00">::initborn</text>
</a>
</g>
</g>
<!-- Node3&#45;&gt;Node4 -->
<g id="edge3" class="edge">
<title>Node3&#45;&gt;Node4</title>
<path fill="none" stroke="midnightblue" d="M121.71,-295C112.99,-295 104.34,-295 96.2,-295"/>
<polygon fill="midnightblue" stroke="midnightblue" points="121.94,-298.5 131.94,-295 121.94,-291.5 121.94,-298.5"/>
</g>
<!-- Node5&#45;&gt;Node3 -->
<g id="edge5" class="edge">
<title>Node5&#45;&gt;Node3</title>
<path fill="none" stroke="midnightblue" d="M315.26,-527.67C313.05,-526.26 310.95,-524.71 309,-523 237.75,-460.7 211.49,-340.19 205.14,-304.92"/>
<polygon fill="midnightblue" stroke="midnightblue" points="313.76,-530.84 324.23,-532.46 317.06,-524.66 313.76,-530.84"/>
</g>
<!-- Node6&#45;&gt;Node3 -->
<g id="edge7" class="edge">
<title>Node6&#45;&gt;Node3</title>
<path fill="none" stroke="midnightblue" d="M316.17,-489.94C313.65,-488.46 311.24,-486.82 309,-485 246.31,-434.12 214.71,-335.53 206.02,-304.56"/>
<polygon fill="midnightblue" stroke="midnightblue" points="314.61,-493.08 325.12,-494.42 317.74,-486.82 314.61,-493.08"/>
</g>
<!-- Node7&#45;&gt;Node3 -->
<g id="edge9" class="edge">
<title>Node7&#45;&gt;Node3</title>
<path fill="none" stroke="midnightblue" d="M317.51,-452.27C314.52,-450.7 311.66,-448.95 309,-447 255.08,-407.54 219.14,-331.86 207.55,-304.87"/>
<polygon fill="midnightblue" stroke="midnightblue" points="316.19,-455.52 326.75,-456.48 319.1,-449.15 316.19,-455.52"/>
</g>
<!-- Node8&#45;&gt;Node3 -->
<g id="edge11" class="edge">
<title>Node8&#45;&gt;Node3</title>
<path fill="none" stroke="midnightblue" d="M319.53,-414.63C315.86,-412.95 312.31,-411.08 309,-409 263.13,-380.12 224.25,-326.31 209.66,-304.53"/>
<polygon fill="midnightblue" stroke="midnightblue" points="318.24,-417.88 328.82,-418.4 320.87,-411.39 318.24,-417.88"/>
</g>
<!-- Node9&#45;&gt;Node3 -->
<g id="edge13" class="edge">
<title>Node9&#45;&gt;Node3</title>
<path fill="none" stroke="midnightblue" d="M322.86,-376.99C318.09,-375.19 313.4,-373.19 309,-371 271.41,-352.29 232.75,-320.65 214.42,-304.74"/>
<polygon fill="midnightblue" stroke="midnightblue" points="322.08,-380.43 332.67,-380.43 324.39,-373.82 322.08,-380.43"/>
</g>
<!-- Node10&#45;&gt;Node3 -->
<g id="edge15" class="edge">
<title>Node10&#45;&gt;Node3</title>
<path fill="none" stroke="midnightblue" d="M328.89,-339.43C322.22,-337.33 315.41,-335.14 309,-333 281.49,-323.8 250.26,-312.44 228.97,-304.55"/>
<polygon fill="midnightblue" stroke="midnightblue" points="327.9,-342.79 338.49,-342.42 329.98,-336.1 327.9,-342.79"/>
</g>
<!-- Node11&#45;&gt;Node3 -->
<g id="edge17" class="edge">
<title>Node11&#45;&gt;Node3</title>
<path fill="none" stroke="midnightblue" d="M298.59,-305.82C290.14,-304.86 281.54,-303.88 273.12,-302.92"/>
<polygon fill="midnightblue" stroke="midnightblue" points="298.46,-309.33 308.79,-306.98 299.25,-302.37 298.46,-309.33"/>
</g>
<!-- Node12&#45;&gt;Node3 -->
<g id="edge19" class="edge">
<title>Node12&#45;&gt;Node3</title>
<path fill="none" stroke="midnightblue" d="M298.59,-284.18C290.14,-285.14 281.54,-286.12 273.12,-287.08"/>
<polygon fill="midnightblue" stroke="midnightblue" points="299.25,-287.63 308.79,-283.02 298.46,-280.67 299.25,-287.63"/>
</g>
<!-- Node13&#45;&gt;Node3 -->
<g id="edge21" class="edge">
<title>Node13&#45;&gt;Node3</title>
<path fill="none" stroke="midnightblue" d="M328.89,-250.57C322.22,-252.67 315.41,-254.86 309,-257 281.49,-266.2 250.26,-277.56 228.97,-285.45"/>
<polygon fill="midnightblue" stroke="midnightblue" points="329.98,-253.9 338.49,-247.58 327.9,-247.21 329.98,-253.9"/>
</g>
<!-- Node14&#45;&gt;Node3 -->
<g id="edge23" class="edge">
<title>Node14&#45;&gt;Node3</title>
<path fill="none" stroke="midnightblue" d="M322.86,-213.01C318.09,-214.81 313.4,-216.81 309,-219 271.41,-237.71 232.75,-269.35 214.42,-285.26"/>
<polygon fill="midnightblue" stroke="midnightblue" points="324.39,-216.18 332.67,-209.57 322.08,-209.57 324.39,-216.18"/>
</g>
<!-- Node15&#45;&gt;Node3 -->
<g id="edge25" class="edge">
<title>Node15&#45;&gt;Node3</title>
<path fill="none" stroke="midnightblue" d="M319.53,-175.37C315.86,-177.05 312.31,-178.92 309,-181 263.13,-209.88 224.25,-263.69 209.66,-285.47"/>
<polygon fill="midnightblue" stroke="midnightblue" points="320.87,-178.61 328.82,-171.6 318.24,-172.12 320.87,-178.61"/>
</g>
<!-- Node16&#45;&gt;Node3 -->
<g id="edge27" class="edge">
<title>Node16&#45;&gt;Node3</title>
<path fill="none" stroke="midnightblue" d="M317.51,-137.73C314.52,-139.3 311.66,-141.05 309,-143 255.08,-182.46 219.14,-258.14 207.55,-285.13"/>
<polygon fill="midnightblue" stroke="midnightblue" points="319.1,-140.85 326.75,-133.52 316.19,-134.48 319.1,-140.85"/>
</g>
<!-- Node17&#45;&gt;Node3 -->
<g id="edge29" class="edge">
<title>Node17&#45;&gt;Node3</title>
<path fill="none" stroke="midnightblue" d="M316.17,-100.06C313.65,-101.54 311.24,-103.18 309,-105 246.31,-155.88 214.71,-254.47 206.02,-285.44"/>
<polygon fill="midnightblue" stroke="midnightblue" points="317.74,-103.18 325.12,-95.58 314.61,-96.92 317.74,-103.18"/>
</g>
<!-- Node18&#45;&gt;Node3 -->
<g id="edge31" class="edge">
<title>Node18&#45;&gt;Node3</title>
<path fill="none" stroke="midnightblue" d="M315.26,-62.33C313.05,-63.74 310.95,-65.29 309,-67 237.75,-129.3 211.49,-249.81 205.14,-285.08"/>
<polygon fill="midnightblue" stroke="midnightblue" points="317.06,-65.34 324.23,-57.54 313.76,-59.16 317.06,-65.34"/>
</g>
<!-- Node19&#45;&gt;Node3 -->
<g id="edge33" class="edge">
<title>Node19&#45;&gt;Node3</title>
<path fill="none" stroke="midnightblue" d="M314.45,-24.66C312.53,-25.99 310.7,-27.43 309,-29 228.58,-103.38 208.43,-246.97 204.38,-285.36"/>
<polygon fill="midnightblue" stroke="midnightblue" points="316.42,-27.57 323.4,-19.59 312.97,-21.48 316.42,-27.57"/>
</g>
</g>
</svg>
