<?xml version="1.0" encoding="UTF-8" standalone="no"?>
<!DOCTYPE svg PUBLIC "-//W3C//DTD SVG 1.1//EN"
 "http://www.w3.org/Graphics/SVG/1.1/DTD/svg11.dtd">
<!-- Generated by graphviz version 2.46.1 (20210215.1649)
 -->
<!-- Title: xtb_basis::newbasisset Pages: 1 -->
<svg width="821pt" height="1251pt"
 viewBox="0.00 0.00 821.00 1251.22" xmlns="http://www.w3.org/2000/svg" xmlns:xlink="http://www.w3.org/1999/xlink">
<g id="graph0" class="graph" transform="scale(1 1) rotate(0) translate(4 1247.22)">
<title>xtb_basis::newbasisset</title>
<polygon fill="white" stroke="transparent" points="-4,4 -4,-1247.22 817,-1247.22 817,4 -4,4"/>
<!-- Node1 -->
<g id="node1" class="node">
<title>Node1</title>
<g id="a_node1"><a xlink:title=" ">
<polygon fill="#bfbfbf" stroke="black" points="696,-80.22 696,-99.22 813,-99.22 813,-80.22 696,-80.22"/>
<text text-anchor="middle" x="754.5" y="-87.22" font-family="Helvetica,sans-Serif" font-size="10.00">xtb_basis::newbasisset</text>
</a>
</g>
</g>
<!-- Node2 -->
<g id="node2" class="node">
<title>Node2</title>
<g id="a_node2"><a xlink:href="namespacextb__main__setup.html#a8c34f442041bce692a001d62921171a2" target="_top" xlink:title=" ">
<polygon fill="white" stroke="black" points="498,-654.22 498,-673.22 660,-673.22 660,-654.22 498,-654.22"/>
<text text-anchor="middle" x="579" y="-661.22" font-family="Helvetica,sans-Serif" font-size="10.00">xtb_main_setup::newxtbcalculator</text>
</a>
</g>
</g>
<!-- Node1&#45;&gt;Node2 -->
<g id="edge1" class="edge">
<title>Node1&#45;&gt;Node2</title>
<path fill="none" stroke="midnightblue" d="M747.55,-109.41C719.74,-201.41 603.07,-587.39 582.96,-653.93"/>
<polygon fill="midnightblue" stroke="midnightblue" points="750.95,-110.27 750.49,-99.68 744.24,-108.24 750.95,-110.27"/>
</g>
<!-- Node34 -->
<g id="node34" class="node">
<title>Node34</title>
<g id="a_node34"><a xlink:href="TESTSUITE_2gfn0_8f90.html#ac2abd1dbadf75b71866d509eaad7957d" target="_top" xlink:title=" ">
<polygon fill="white" stroke="black" points="542.5,-118.22 542.5,-137.22 615.5,-137.22 615.5,-118.22 542.5,-118.22"/>
<text text-anchor="middle" x="579" y="-125.22" font-family="Helvetica,sans-Serif" font-size="10.00">test_gfn0_sp</text>
</a>
</g>
</g>
<!-- Node1&#45;&gt;Node34 -->
<g id="edge55" class="edge">
<title>Node1&#45;&gt;Node34</title>
<path fill="none" stroke="midnightblue" d="M699.88,-101.47C672.47,-107.47 639.88,-114.61 615.59,-119.93"/>
<polygon fill="midnightblue" stroke="midnightblue" points="700.7,-104.87 709.72,-99.31 699.2,-98.03 700.7,-104.87"/>
</g>
<!-- Node35 -->
<g id="node35" class="node">
<title>Node35</title>
<g id="a_node35"><a xlink:href="TESTSUITE_2gfn1_8f90.html#ab5cc37cef2d483d9d9cde17aa03c55a8" target="_top" xlink:title=" ">
<polygon fill="white" stroke="black" points="162.5,-80.22 162.5,-99.22 240.5,-99.22 240.5,-80.22 162.5,-80.22"/>
<text text-anchor="middle" x="201.5" y="-87.22" font-family="Helvetica,sans-Serif" font-size="10.00">test_gfn1_scc</text>
</a>
</g>
</g>
<!-- Node1&#45;&gt;Node35 -->
<g id="edge57" class="edge">
<title>Node1&#45;&gt;Node35</title>
<path fill="none" stroke="midnightblue" d="M685.57,-89.72C568.6,-89.72 332.83,-89.72 240.66,-89.72"/>
<polygon fill="midnightblue" stroke="midnightblue" points="685.83,-93.22 695.83,-89.72 685.83,-86.22 685.83,-93.22"/>
</g>
<!-- Node36 -->
<g id="node36" class="node">
<title>Node36</title>
<g id="a_node36"><a xlink:href="TESTSUITE_2gfn2_8f90.html#af47afba0207cbca2dc950fb5e339ce03" target="_top" xlink:title=" ">
<polygon fill="white" stroke="black" points="540,-42.22 540,-61.22 618,-61.22 618,-42.22 540,-42.22"/>
<text text-anchor="middle" x="579" y="-49.22" font-family="Helvetica,sans-Serif" font-size="10.00">test_gfn2_scc</text>
</a>
</g>
</g>
<!-- Node1&#45;&gt;Node36 -->
<g id="edge59" class="edge">
<title>Node1&#45;&gt;Node36</title>
<path fill="none" stroke="midnightblue" d="M699.85,-77.97C673.4,-72.18 642.13,-65.33 618.16,-60.08"/>
<polygon fill="midnightblue" stroke="midnightblue" points="699.2,-81.41 709.72,-80.13 700.7,-74.57 699.2,-81.41"/>
</g>
<!-- Node37 -->
<g id="node37" class="node">
<title>Node37</title>
<g id="a_node37"><a xlink:href="peeq_8f90.html#a5122d9bd07a3f4377ee140a5991d1325" target="_top" xlink:title=" ">
<polygon fill="white" stroke="black" points="164,-4.22 164,-23.22 239,-23.22 239,-4.22 164,-4.22"/>
<text text-anchor="middle" x="201.5" y="-11.22" font-family="Helvetica,sans-Serif" font-size="10.00">test_peeq_sp</text>
</a>
</g>
</g>
<!-- Node1&#45;&gt;Node37 -->
<g id="edge61" class="edge">
<title>Node1&#45;&gt;Node37</title>
<path fill="none" stroke="midnightblue" d="M734.08,-73.79C716.1,-60.08 687.99,-41.21 660,-32.72 509.37,12.96 318.07,-0.65 239.12,-9.17"/>
<polygon fill="midnightblue" stroke="midnightblue" points="732.02,-76.62 742.05,-80.03 736.34,-71.11 732.02,-76.62"/>
</g>
<!-- Node3 -->
<g id="node3" class="node">
<title>Node3</title>
<g id="a_node3"><a xlink:href="namespacextb__api__calculator.html#a9d6feb3a53eb3b2edb400109a7158040" target="_top" xlink:title=" ">
<polygon fill="white" stroke="black" points="340,-1212.72 340,-1242.72 435,-1242.72 435,-1212.72 340,-1212.72"/>
<text text-anchor="start" x="348" y="-1230.72" font-family="Helvetica,sans-Serif" font-size="10.00">xtb_api_calculator</text>
<text text-anchor="middle" x="387.5" y="-1219.72" font-family="Helvetica,sans-Serif" font-size="10.00">::loadgfn0xtb_api</text>
</a>
</g>
</g>
<!-- Node2&#45;&gt;Node3 -->
<g id="edge2" class="edge">
<title>Node2&#45;&gt;Node3</title>
<path fill="none" stroke="midnightblue" d="M576.35,-683.54C568.69,-771.3 533.79,-1124.05 462,-1203.72 454.9,-1211.6 445.18,-1216.9 435.14,-1220.47"/>
<polygon fill="midnightblue" stroke="midnightblue" points="579.84,-683.84 577.21,-673.58 572.87,-683.24 579.84,-683.84"/>
</g>
<!-- Node4 -->
<g id="node4" class="node">
<title>Node4</title>
<g id="a_node4"><a xlink:href="namespacextb__api__calculator.html#a880727e8708090d0d366d861124c0d48" target="_top" xlink:title=" ">
<polygon fill="white" stroke="black" points="340,-1163.72 340,-1193.72 435,-1193.72 435,-1163.72 340,-1163.72"/>
<text text-anchor="start" x="348" y="-1181.72" font-family="Helvetica,sans-Serif" font-size="10.00">xtb_api_calculator</text>
<text text-anchor="middle" x="387.5" y="-1170.72" font-family="Helvetica,sans-Serif" font-size="10.00">::loadgfn1xtb_api</text>
</a>
</g>
</g>
<!-- Node2&#45;&gt;Node4 -->
<g id="edge3" class="edge">
<title>Node2&#45;&gt;Node4</title>
<path fill="none" stroke="midnightblue" d="M575.89,-683.55C566.74,-766.32 527.83,-1083.14 462,-1154.72 454.82,-1162.53 445.07,-1167.8 435.03,-1171.36"/>
<polygon fill="midnightblue" stroke="midnightblue" points="579.39,-683.8 576.99,-673.48 572.43,-683.04 579.39,-683.8"/>
</g>
<!-- Node5 -->
<g id="node5" class="node">
<title>Node5</title>
<g id="a_node5"><a xlink:href="namespacextb__api__calculator.html#a382f3cb8f313fadf0cccd4dea5df7ba6" target="_top" xlink:title=" ">
<polygon fill="white" stroke="black" points="340,-1114.72 340,-1144.72 435,-1144.72 435,-1114.72 340,-1114.72"/>
<text text-anchor="start" x="348" y="-1132.72" font-family="Helvetica,sans-Serif" font-size="10.00">xtb_api_calculator</text>
<text text-anchor="middle" x="387.5" y="-1121.72" font-family="Helvetica,sans-Serif" font-size="10.00">::loadgfn2xtb_api</text>
</a>
</g>
</g>
<!-- Node2&#45;&gt;Node5 -->
<g id="edge4" class="edge">
<title>Node2&#45;&gt;Node5</title>
<path fill="none" stroke="midnightblue" d="M575.31,-683.45C564.44,-760.61 521.42,-1040.95 462,-1104.72 454.83,-1112.41 445.21,-1117.74 435.29,-1121.43"/>
<polygon fill="midnightblue" stroke="midnightblue" points="578.82,-683.61 576.73,-673.22 571.89,-682.65 578.82,-683.61"/>
</g>
<!-- Node6 -->
<g id="node6" class="node">
<title>Node6</title>
<g id="a_node6"><a xlink:href="namespacextb__main__setup.html#a2873ec6fc259dc1f93f4c74d34501d91" target="_top" xlink:title=" ">
<polygon fill="white" stroke="black" points="313,-1076.22 313,-1095.22 462,-1095.22 462,-1076.22 313,-1076.22"/>
<text text-anchor="middle" x="387.5" y="-1083.22" font-family="Helvetica,sans-Serif" font-size="10.00">xtb_main_setup::newcalculator</text>
</a>
</g>
</g>
<!-- Node2&#45;&gt;Node6 -->
<g id="edge5" class="edge">
<title>Node2&#45;&gt;Node6</title>
<path fill="none" stroke="midnightblue" d="M578.31,-683.68C578.19,-747.87 569,-951.24 462,-1061.72 455.84,-1068.09 447.97,-1072.76 439.68,-1076.2"/>
<polygon fill="midnightblue" stroke="midnightblue" points="581.81,-683.35 578.25,-673.37 574.81,-683.39 581.81,-683.35"/>
</g>
<!-- Node9 -->
<g id="node9" class="node">
<title>Node9</title>
<g id="a_node9"><a xlink:href="TESTSUITE_2gfn0_8f90.html#ad2ca0eac6e8faac5aee1f1c04fb3d5d6" target="_top" xlink:title=" ">
<polygon fill="white" stroke="black" points="164,-1037.22 164,-1056.22 239,-1056.22 239,-1037.22 164,-1037.22"/>
<text text-anchor="middle" x="201.5" y="-1044.22" font-family="Helvetica,sans-Serif" font-size="10.00">test_gfn0_api</text>
</a>
</g>
</g>
<!-- Node2&#45;&gt;Node9 -->
<g id="edge8" class="edge">
<title>Node2&#45;&gt;Node9</title>
<path fill="none" stroke="midnightblue" d="M577.7,-683.49C575.68,-742.06 561.21,-915.91 462,-1000.72 398.71,-1054.84 294.25,-1055.26 239.15,-1050.98"/>
<polygon fill="midnightblue" stroke="midnightblue" points="581.21,-683.46 577.96,-673.37 574.21,-683.28 581.21,-683.46"/>
</g>
<!-- Node11 -->
<g id="node11" class="node">
<title>Node11</title>
<g id="a_node11"><a xlink:href="TESTSUITE_2gfn0_8f90.html#ae7a4844af5e348fce6ad37d938d3cd25" target="_top" xlink:title=" ">
<polygon fill="white" stroke="black" points="154.5,-998.22 154.5,-1017.22 248.5,-1017.22 248.5,-998.22 154.5,-998.22"/>
<text text-anchor="middle" x="201.5" y="-1005.22" font-family="Helvetica,sans-Serif" font-size="10.00">test_gfn0_api_srb</text>
</a>
</g>
</g>
<!-- Node2&#45;&gt;Node11 -->
<g id="edge10" class="edge">
<title>Node2&#45;&gt;Node11</title>
<path fill="none" stroke="midnightblue" d="M576.76,-683.43C572.22,-737.54 551.68,-889.27 462,-962.72 401.33,-1012.41 305.49,-1015.72 248.82,-1012.49"/>
<polygon fill="midnightblue" stroke="midnightblue" points="580.25,-683.66 577.5,-673.42 573.27,-683.14 580.25,-683.66"/>
</g>
<!-- Node12 -->
<g id="node12" class="node">
<title>Node12</title>
<g id="a_node12"><a xlink:href="TESTSUITE_2gfn0_8f90.html#af9aea625a1cc2d244354c4688d85f069" target="_top" xlink:title=" ">
<polygon fill="white" stroke="black" points="151,-945.72 151,-975.72 252,-975.72 252,-945.72 151,-945.72"/>
<text text-anchor="start" x="159" y="-963.72" font-family="Helvetica,sans-Serif" font-size="10.00">test_gfn0_mindless</text>
<text text-anchor="middle" x="201.5" y="-952.72" font-family="Helvetica,sans-Serif" font-size="10.00">_basic</text>
</a>
</g>
</g>
<!-- Node2&#45;&gt;Node12 -->
<g id="edge12" class="edge">
<title>Node2&#45;&gt;Node12</title>
<path fill="none" stroke="midnightblue" d="M575.9,-683.4C569.4,-733.64 544.75,-867.05 462,-928.72 401.03,-974.16 308.75,-973.83 252.24,-968.18"/>
<polygon fill="midnightblue" stroke="midnightblue" points="579.4,-683.59 577.11,-673.24 572.45,-682.76 579.4,-683.59"/>
</g>
<!-- Node13 -->
<g id="node13" class="node">
<title>Node13</title>
<g id="a_node13"><a xlink:href="TESTSUITE_2gfn0_8f90.html#a68420832428671e396fef51203d23bcc" target="_top" xlink:title=" ">
<polygon fill="white" stroke="black" points="151,-891.72 151,-921.72 252,-921.72 252,-891.72 151,-891.72"/>
<text text-anchor="start" x="159" y="-909.72" font-family="Helvetica,sans-Serif" font-size="10.00">test_gfn0_mindless</text>
<text text-anchor="middle" x="201.5" y="-898.72" font-family="Helvetica,sans-Serif" font-size="10.00">_solvation</text>
</a>
</g>
</g>
<!-- Node2&#45;&gt;Node13 -->
<g id="edge14" class="edge">
<title>Node2&#45;&gt;Node13</title>
<path fill="none" stroke="midnightblue" d="M575.24,-683.37C567.44,-730.65 540.42,-850.53 462,-900.72 398.71,-941.23 307.77,-931.51 252.05,-919.81"/>
<polygon fill="midnightblue" stroke="midnightblue" points="578.74,-683.66 576.8,-673.24 571.82,-682.59 578.74,-683.66"/>
</g>
<!-- Node14 -->
<g id="node14" class="node">
<title>Node14</title>
<g id="a_node14"><a xlink:href="TESTSUITE_2gfn1_8f90.html#abe41d4ad906b878400fafc939111175d" target="_top" xlink:title=" ">
<polygon fill="white" stroke="black" points="164,-843.22 164,-862.22 239,-862.22 239,-843.22 164,-843.22"/>
<text text-anchor="middle" x="201.5" y="-850.22" font-family="Helvetica,sans-Serif" font-size="10.00">test_gfn1_api</text>
</a>
</g>
</g>
<!-- Node2&#45;&gt;Node14 -->
<g id="edge16" class="edge">
<title>Node2&#45;&gt;Node14</title>
<path fill="none" stroke="midnightblue" d="M574.25,-683.31C564.64,-727.32 534.6,-833.59 462,-876.72 384.2,-922.94 269.58,-882.29 223.15,-862.3"/>
<polygon fill="midnightblue" stroke="midnightblue" points="577.72,-683.81 576.31,-673.31 570.86,-682.4 577.72,-683.81"/>
</g>
<!-- Node15 -->
<g id="node15" class="node">
<title>Node15</title>
<g id="a_node15"><a xlink:href="namespacetest__hessian.html#a696b2a220cd73168272e18f3c57d4907" target="_top" xlink:title=" ">
<polygon fill="white" stroke="black" points="341,-836.72 341,-866.72 434,-866.72 434,-836.72 341,-836.72"/>
<text text-anchor="start" x="349" y="-854.72" font-family="Helvetica,sans-Serif" font-size="10.00">test_hessian::test</text>
<text text-anchor="middle" x="387.5" y="-843.72" font-family="Helvetica,sans-Serif" font-size="10.00">_gfn1_hessian</text>
</a>
</g>
</g>
<!-- Node2&#45;&gt;Node15 -->
<g id="edge18" class="edge">
<title>Node2&#45;&gt;Node15</title>
<path fill="none" stroke="midnightblue" d="M569.56,-682.79C553.52,-716.87 515.42,-788.33 462,-827.72 453.79,-833.78 443.98,-838.35 434.23,-841.79"/>
<polygon fill="midnightblue" stroke="midnightblue" points="572.84,-684.04 573.82,-673.49 566.47,-681.13 572.84,-684.04"/>
</g>
<!-- Node17 -->
<g id="node17" class="node">
<title>Node17</title>
<g id="a_node17"><a xlink:href="TESTSUITE_2gfn1_8f90.html#ad89d89ff73f2ceea96f403ea85561032" target="_top" xlink:title=" ">
<polygon fill="white" stroke="black" points="151,-754.72 151,-784.72 252,-784.72 252,-754.72 151,-754.72"/>
<text text-anchor="start" x="159" y="-772.72" font-family="Helvetica,sans-Serif" font-size="10.00">test_gfn1_mindless</text>
<text text-anchor="middle" x="201.5" y="-761.72" font-family="Helvetica,sans-Serif" font-size="10.00">_basic</text>
</a>
</g>
</g>
<!-- Node2&#45;&gt;Node17 -->
<g id="edge21" class="edge">
<title>Node2&#45;&gt;Node17</title>
<path fill="none" stroke="midnightblue" d="M545.89,-677.17C522.81,-686.53 490.82,-698.85 462,-707.72 390.06,-729.86 304.89,-748.87 252.27,-759.81"/>
<polygon fill="midnightblue" stroke="midnightblue" points="547.26,-680.39 555.19,-673.37 544.61,-673.91 547.26,-680.39"/>
</g>
<!-- Node18 -->
<g id="node18" class="node">
<title>Node18</title>
<g id="a_node18"><a xlink:href="TESTSUITE_2gfn1_8f90.html#a1e6bbb9dcd9a59e4ae8cdcfebde28e32" target="_top" xlink:title=" ">
<polygon fill="white" stroke="black" points="151,-705.72 151,-735.72 252,-735.72 252,-705.72 151,-705.72"/>
<text text-anchor="start" x="159" y="-723.72" font-family="Helvetica,sans-Serif" font-size="10.00">test_gfn1_mindless</text>
<text text-anchor="middle" x="201.5" y="-712.72" font-family="Helvetica,sans-Serif" font-size="10.00">_solvation</text>
</a>
</g>
</g>
<!-- Node2&#45;&gt;Node18 -->
<g id="edge23" class="edge">
<title>Node2&#45;&gt;Node18</title>
<path fill="none" stroke="midnightblue" d="M514.75,-674.97C497.65,-677.92 479.13,-681.02 462,-683.72 389.17,-695.19 304.6,-706.96 252.31,-714.06"/>
<polygon fill="midnightblue" stroke="midnightblue" points="515.38,-678.41 524.64,-673.26 514.18,-671.52 515.38,-678.41"/>
</g>
<!-- Node19 -->
<g id="node19" class="node">
<title>Node19</title>
<g id="a_node19"><a xlink:href="TESTSUITE_2gfn1_8f90.html#a30ff8f20e9f97fe83d17dcbce7e3c909" target="_top" xlink:title=" ">
<polygon fill="white" stroke="black" points="157,-667.22 157,-686.22 246,-686.22 246,-667.22 157,-667.22"/>
<text text-anchor="middle" x="201.5" y="-674.22" font-family="Helvetica,sans-Serif" font-size="10.00">test_gfn1_pbc3d</text>
</a>
</g>
</g>
<!-- Node2&#45;&gt;Node19 -->
<g id="edge25" class="edge">
<title>Node2&#45;&gt;Node19</title>
<path fill="none" stroke="midnightblue" d="M487.8,-666.84C411.37,-669.49 305.08,-673.17 246.19,-675.21"/>
<polygon fill="midnightblue" stroke="midnightblue" points="488.03,-670.34 497.91,-666.49 487.79,-663.34 488.03,-670.34"/>
</g>
<!-- Node20 -->
<g id="node20" class="node">
<title>Node20</title>
<g id="a_node20"><a xlink:href="TESTSUITE_2gfn1_8f90.html#ac31f203722d8bcd244f862a758833c52" target="_top" xlink:title=" ">
<polygon fill="white" stroke="black" points="149.5,-629.22 149.5,-648.22 253.5,-648.22 253.5,-629.22 149.5,-629.22"/>
<text text-anchor="middle" x="201.5" y="-636.22" font-family="Helvetica,sans-Serif" font-size="10.00">test_gfn1_pcem_api</text>
</a>
</g>
</g>
<!-- Node2&#45;&gt;Node20 -->
<g id="edge27" class="edge">
<title>Node2&#45;&gt;Node20</title>
<path fill="none" stroke="midnightblue" d="M487.75,-657.71C414.46,-652.83 313.73,-646.13 253.66,-642.13"/>
<polygon fill="midnightblue" stroke="midnightblue" points="487.7,-661.22 497.91,-658.39 488.16,-654.23 487.7,-661.22"/>
</g>
<!-- Node21 -->
<g id="node21" class="node">
<title>Node21</title>
<g id="a_node21"><a xlink:href="TESTSUITE_2gfn1_8f90.html#abbfab6177e30eca12113e729bde19ce5" target="_top" xlink:title=" ">
<polygon fill="white" stroke="black" points="165.5,-591.22 165.5,-610.22 237.5,-610.22 237.5,-591.22 165.5,-591.22"/>
<text text-anchor="middle" x="201.5" y="-598.22" font-family="Helvetica,sans-Serif" font-size="10.00">test_gfn1_xb</text>
</a>
</g>
</g>
<!-- Node2&#45;&gt;Node21 -->
<g id="edge29" class="edge">
<title>Node2&#45;&gt;Node21</title>
<path fill="none" stroke="midnightblue" d="M519.54,-652.27C501.14,-648.77 480.74,-644.98 462,-641.72 382.01,-627.82 287.8,-613.43 237.81,-605.95"/>
<polygon fill="midnightblue" stroke="midnightblue" points="519.04,-655.74 529.52,-654.18 520.36,-648.87 519.04,-655.74"/>
</g>
<!-- Node22 -->
<g id="node22" class="node">
<title>Node22</title>
<g id="a_node22"><a xlink:href="TESTSUITE_2gfn1_8f90.html#a1490695b43193805cceeef8a37fcbf7c" target="_top" xlink:title=" ">
<polygon fill="white" stroke="black" points="153.5,-553.22 153.5,-572.22 249.5,-572.22 249.5,-553.22 153.5,-553.22"/>
<text text-anchor="middle" x="201.5" y="-560.22" font-family="Helvetica,sans-Serif" font-size="10.00">test_gfn1gbsa_api</text>
</a>
</g>
</g>
<!-- Node2&#45;&gt;Node22 -->
<g id="edge31" class="edge">
<title>Node2&#45;&gt;Node22</title>
<path fill="none" stroke="midnightblue" d="M550.43,-649.5C527.34,-638.1 493.24,-622.46 462,-612.72 389.51,-590.12 302.29,-575.84 249.68,-568.57"/>
<polygon fill="midnightblue" stroke="midnightblue" points="549.1,-652.75 559.61,-654.09 552.23,-646.49 549.1,-652.75"/>
</g>
<!-- Node23 -->
<g id="node23" class="node">
<title>Node23</title>
<g id="a_node23"><a xlink:href="TESTSUITE_2gfn2_8f90.html#a70d451e4314ff3bf542cb76987d99403" target="_top" xlink:title=" ">
<polygon fill="white" stroke="black" points="350,-521.22 350,-540.22 425,-540.22 425,-521.22 350,-521.22"/>
<text text-anchor="middle" x="387.5" y="-528.22" font-family="Helvetica,sans-Serif" font-size="10.00">test_gfn2_api</text>
</a>
</g>
</g>
<!-- Node2&#45;&gt;Node23 -->
<g id="edge33" class="edge">
<title>Node2&#45;&gt;Node23</title>
<path fill="none" stroke="midnightblue" d="M563.78,-646.21C543.53,-622.33 504.14,-579.69 462,-554.72 450.68,-548.02 437.26,-542.93 425,-539.2"/>
<polygon fill="midnightblue" stroke="midnightblue" points="561.25,-648.64 570.34,-654.09 566.63,-644.16 561.25,-648.64"/>
</g>
<!-- Node24 -->
<g id="node24" class="node">
<title>Node24</title>
<g id="a_node24"><a xlink:href="TESTSUITE_2gfn2_8f90.html#af04fdb55f7b260a1fcd7b8edd8324f3b" target="_top" xlink:title=" ">
<polygon fill="white" stroke="black" points="155.5,-477.22 155.5,-496.22 247.5,-496.22 247.5,-477.22 155.5,-477.22"/>
<text text-anchor="middle" x="201.5" y="-484.22" font-family="Helvetica,sans-Serif" font-size="10.00">test_gfn2_dmetal</text>
</a>
</g>
</g>
<!-- Node2&#45;&gt;Node24 -->
<g id="edge35" class="edge">
<title>Node2&#45;&gt;Node24</title>
<path fill="none" stroke="midnightblue" d="M569.91,-644.9C554.44,-611.48 517.21,-542.42 462,-511.72 394.75,-474.33 302.39,-475.57 247.91,-480.63"/>
<polygon fill="midnightblue" stroke="midnightblue" points="566.73,-646.35 574.01,-654.04 573.12,-643.49 566.73,-646.35"/>
</g>
<!-- Node25 -->
<g id="node25" class="node">
<title>Node25</title>
<g id="a_node25"><a xlink:href="namespacetest__hessian.html#aa2cbc8daec8e2dacc7b6f3c63d0a3520" target="_top" xlink:title=" ">
<polygon fill="white" stroke="black" points="341,-787.72 341,-817.72 434,-817.72 434,-787.72 341,-787.72"/>
<text text-anchor="start" x="349" y="-805.72" font-family="Helvetica,sans-Serif" font-size="10.00">test_hessian::test</text>
<text text-anchor="middle" x="387.5" y="-794.72" font-family="Helvetica,sans-Serif" font-size="10.00">_gfn2_hessian</text>
</a>
</g>
</g>
<!-- Node2&#45;&gt;Node25 -->
<g id="edge37" class="edge">
<title>Node2&#45;&gt;Node25</title>
<path fill="none" stroke="midnightblue" d="M563.21,-681.17C542.56,-704.61 503,-746.39 462,-772.72 453.07,-778.46 442.86,-783.46 432.95,-787.64"/>
<polygon fill="midnightblue" stroke="midnightblue" points="566.02,-683.27 569.92,-673.42 560.73,-678.68 566.02,-683.27"/>
</g>
<!-- Node26 -->
<g id="node26" class="node">
<title>Node26</title>
<g id="a_node26"><a xlink:href="TESTSUITE_2gfn2_8f90.html#a1eefadfec1879c0b6523b30390aa7e5d" target="_top" xlink:title=" ">
<polygon fill="white" stroke="black" points="337,-433.72 337,-463.72 438,-463.72 438,-433.72 337,-433.72"/>
<text text-anchor="start" x="345" y="-451.72" font-family="Helvetica,sans-Serif" font-size="10.00">test_gfn2_mindless</text>
<text text-anchor="middle" x="387.5" y="-440.72" font-family="Helvetica,sans-Serif" font-size="10.00">_basic</text>
</a>
</g>
</g>
<!-- Node2&#45;&gt;Node26 -->
<g id="edge39" class="edge">
<title>Node2&#45;&gt;Node26</title>
<path fill="none" stroke="midnightblue" d="M570.76,-644.67C555.83,-607.77 518.25,-526.02 462,-478.72 454.83,-472.69 446.28,-467.75 437.59,-463.74"/>
<polygon fill="midnightblue" stroke="midnightblue" points="567.59,-646.19 574.51,-654.22 574.11,-643.63 567.59,-646.19"/>
</g>
<!-- Node27 -->
<g id="node27" class="node">
<title>Node27</title>
<g id="a_node27"><a xlink:href="TESTSUITE_2gfn2_8f90.html#a4f23556f554318a8e634c449c615c141" target="_top" xlink:title=" ">
<polygon fill="white" stroke="black" points="337,-384.72 337,-414.72 438,-414.72 438,-384.72 337,-384.72"/>
<text text-anchor="start" x="345" y="-402.72" font-family="Helvetica,sans-Serif" font-size="10.00">test_gfn2_mindless</text>
<text text-anchor="middle" x="387.5" y="-391.72" font-family="Helvetica,sans-Serif" font-size="10.00">_solvation</text>
</a>
</g>
</g>
<!-- Node2&#45;&gt;Node27 -->
<g id="edge41" class="edge">
<title>Node2&#45;&gt;Node27</title>
<path fill="none" stroke="midnightblue" d="M573.86,-643.84C563.36,-598.39 531.48,-486.08 462,-424.72 455.13,-418.66 446.72,-414.05 438.08,-410.55"/>
<polygon fill="midnightblue" stroke="midnightblue" points="570.5,-644.88 576.07,-653.89 577.33,-643.37 570.5,-644.88"/>
</g>
<!-- Node28 -->
<g id="node28" class="node">
<title>Node28</title>
<g id="a_node28"><a xlink:href="TESTSUITE_2gfn2_8f90.html#ac81932f59165e0c385bd69cb64d26596" target="_top" xlink:title=" ">
<polygon fill="white" stroke="black" points="335.5,-346.22 335.5,-365.22 439.5,-365.22 439.5,-346.22 335.5,-346.22"/>
<text text-anchor="middle" x="387.5" y="-353.22" font-family="Helvetica,sans-Serif" font-size="10.00">test_gfn2_pcem_api</text>
</a>
</g>
</g>
<!-- Node2&#45;&gt;Node28 -->
<g id="edge43" class="edge">
<title>Node2&#45;&gt;Node28</title>
<path fill="none" stroke="midnightblue" d="M575.99,-643.8C569.62,-591.57 545.14,-449.65 462,-375.72 455.68,-370.1 447.92,-366.04 439.84,-363.11"/>
<polygon fill="midnightblue" stroke="midnightblue" points="572.54,-644.49 577.14,-654.04 579.5,-643.71 572.54,-644.49"/>
</g>
<!-- Node29 -->
<g id="node29" class="node">
<title>Node29</title>
<g id="a_node29"><a xlink:href="TESTSUITE_2gfn2_8f90.html#aed7ca214cd762d9050db7170b51a35c8" target="_top" xlink:title=" ">
<polygon fill="white" stroke="black" points="339.5,-308.22 339.5,-327.22 435.5,-327.22 435.5,-308.22 339.5,-308.22"/>
<text text-anchor="middle" x="387.5" y="-315.22" font-family="Helvetica,sans-Serif" font-size="10.00">test_gfn2gbsa_api</text>
</a>
</g>
</g>
<!-- Node2&#45;&gt;Node29 -->
<g id="edge45" class="edge">
<title>Node2&#45;&gt;Node29</title>
<path fill="none" stroke="midnightblue" d="M577.12,-643.76C573.51,-586.78 555.1,-421.97 462,-336.72 454.71,-330.05 445.38,-325.65 435.84,-322.77"/>
<polygon fill="midnightblue" stroke="midnightblue" points="573.64,-644.15 577.68,-653.94 580.63,-643.77 573.64,-644.15"/>
</g>
<!-- Node30 -->
<g id="node30" class="node">
<title>Node30</title>
<g id="a_node30"><a xlink:href="TESTSUITE_2gfn2_8f90.html#ad7949dacaa3e9437ec5b0ba340a3fd0a" target="_top" xlink:title=" ">
<polygon fill="white" stroke="black" points="342,-270.22 342,-289.22 433,-289.22 433,-270.22 342,-270.22"/>
<text text-anchor="middle" x="387.5" y="-277.22" font-family="Helvetica,sans-Serif" font-size="10.00">test_gfn2salt_api</text>
</a>
</g>
</g>
<!-- Node2&#45;&gt;Node30 -->
<g id="edge47" class="edge">
<title>Node2&#45;&gt;Node30</title>
<path fill="none" stroke="midnightblue" d="M577.98,-643.94C576.78,-582.91 564.52,-395.78 462,-298.72 454.15,-291.29 443.79,-286.67 433.33,-283.83"/>
<polygon fill="midnightblue" stroke="midnightblue" points="574.48,-644.16 578.09,-654.12 581.48,-644.08 574.48,-644.16"/>
</g>
<!-- Node31 -->
<g id="node31" class="node">
<title>Node31</title>
<g id="a_node31"><a xlink:href="TESTSUITE_2gfn1_8f90.html#a03515b0f61961cb6b2f5e13846b87f34" target="_top" xlink:title=" ">
<polygon fill="white" stroke="black" points="344,-232.22 344,-251.22 431,-251.22 431,-232.22 344,-232.22"/>
<text text-anchor="middle" x="387.5" y="-239.22" font-family="Helvetica,sans-Serif" font-size="10.00">test_ipea_indole</text>
</a>
</g>
</g>
<!-- Node2&#45;&gt;Node31 -->
<g id="edge49" class="edge">
<title>Node2&#45;&gt;Node31</title>
<path fill="none" stroke="midnightblue" d="M578.67,-644.07C579.73,-579.19 573.98,-369.69 462,-260.72 453.69,-252.63 442.4,-247.86 431.18,-245.08"/>
<polygon fill="midnightblue" stroke="midnightblue" points="575.16,-644.06 578.42,-654.14 582.16,-644.23 575.16,-644.06"/>
</g>
<!-- Node32 -->
<g id="node32" class="node">
<title>Node32</title>
<g id="a_node32"><a xlink:href="peeq_8f90.html#af8323e2db7eee67ddad752d011ed55b4" target="_top" xlink:title=" ">
<polygon fill="white" stroke="black" points="349,-194.22 349,-213.22 426,-213.22 426,-194.22 349,-194.22"/>
<text text-anchor="middle" x="387.5" y="-201.22" font-family="Helvetica,sans-Serif" font-size="10.00">test_peeq_api</text>
</a>
</g>
</g>
<!-- Node2&#45;&gt;Node32 -->
<g id="edge51" class="edge">
<title>Node2&#45;&gt;Node32</title>
<path fill="none" stroke="midnightblue" d="M575.45,-643.87C565.1,-566.2 523.76,-284.22 462,-222.72 452.57,-213.33 439.14,-208.39 426.33,-205.85"/>
<polygon fill="midnightblue" stroke="midnightblue" points="572.03,-644.69 576.8,-654.15 578.97,-643.78 572.03,-644.69"/>
</g>
<!-- Node33 -->
<g id="node33" class="node">
<title>Node33</title>
<g id="a_node33"><a xlink:href="peeq_8f90.html#ae06226ed496a8128c1273abc638b62d0" target="_top" xlink:title=" ">
<polygon fill="white" stroke="black" points="339.5,-156.22 339.5,-175.22 435.5,-175.22 435.5,-156.22 339.5,-156.22"/>
<text text-anchor="middle" x="387.5" y="-163.22" font-family="Helvetica,sans-Serif" font-size="10.00">test_peeq_api_srb</text>
</a>
</g>
</g>
<!-- Node2&#45;&gt;Node33 -->
<g id="edge53" class="edge">
<title>Node2&#45;&gt;Node33</title>
<path fill="none" stroke="midnightblue" d="M575.88,-643.76C566.8,-561.8 528.52,-252.27 462,-184.72 454.88,-177.49 445.39,-172.89 435.61,-169.99"/>
<polygon fill="midnightblue" stroke="midnightblue" points="572.45,-644.58 577.01,-654.15 579.41,-643.83 572.45,-644.58"/>
</g>
<!-- Node7 -->
<g id="node7" class="node">
<title>Node7</title>
<g id="a_node7"><a xlink:href="namespacextb__prog__main.html#a92b3b61ee04235e6343f652095682529" target="_top" xlink:title=" ">
<polygon fill="white" stroke="black" points="142.5,-1076.22 142.5,-1095.22 260.5,-1095.22 260.5,-1076.22 142.5,-1076.22"/>
<text text-anchor="middle" x="201.5" y="-1083.22" font-family="Helvetica,sans-Serif" font-size="10.00">xtb_prog_main::xtbmain</text>
</a>
</g>
</g>
<!-- Node6&#45;&gt;Node7 -->
<g id="edge6" class="edge">
<title>Node6&#45;&gt;Node7</title>
<path fill="none" stroke="midnightblue" d="M302.69,-1085.72C288.47,-1085.72 273.98,-1085.72 260.61,-1085.72"/>
<polygon fill="midnightblue" stroke="midnightblue" points="302.99,-1089.22 312.99,-1085.72 302.99,-1082.22 302.99,-1089.22"/>
</g>
<!-- Node8 -->
<g id="node8" class="node">
<title>Node8</title>
<g id="a_node8"><a xlink:href="primary_8f90.html#a2a67903cf5be605c5b6d3c362c6a3c5c" target="_top" xlink:title="The primary driver for the xtb program package.">
<polygon fill="white" stroke="black" points="0,-1076.22 0,-1095.22 90,-1095.22 90,-1076.22 0,-1076.22"/>
<text text-anchor="middle" x="45" y="-1083.22" font-family="Helvetica,sans-Serif" font-size="10.00">xtb_prog_primary</text>
</a>
</g>
</g>
<!-- Node7&#45;&gt;Node8 -->
<g id="edge7" class="edge">
<title>Node7&#45;&gt;Node8</title>
<path fill="none" stroke="midnightblue" d="M131.85,-1085.72C117.66,-1085.72 103.07,-1085.72 90.04,-1085.72"/>
<polygon fill="midnightblue" stroke="midnightblue" points="132.09,-1089.22 142.09,-1085.72 132.09,-1082.22 132.09,-1089.22"/>
</g>
<!-- Node10 -->
<g id="node10" class="node">
<title>Node10</title>
<g id="a_node10"><a xlink:href="tests__peeq_8f90.html#a87ff5319e0d2e627a4f71d7df0d14891" target="_top" xlink:title=" ">
<polygon fill="white" stroke="black" points="11,-496.22 11,-515.22 79,-515.22 79,-496.22 11,-496.22"/>
<text text-anchor="middle" x="45" y="-503.22" font-family="Helvetica,sans-Serif" font-size="10.00">peeq_tester</text>
</a>
</g>
</g>
<!-- Node9&#45;&gt;Node10 -->
<g id="edge9" class="edge">
<title>Node9&#45;&gt;Node10</title>
<path fill="none" stroke="midnightblue" d="M153.83,-1042.8C143.37,-1039.78 133.25,-1034.81 126,-1026.72 54.72,-947.14 46.91,-579.29 46.09,-515.24"/>
<polygon fill="midnightblue" stroke="midnightblue" points="153.35,-1046.28 163.88,-1045.13 154.93,-1039.46 153.35,-1046.28"/>
</g>
<!-- Node11&#45;&gt;Node10 -->
<g id="edge11" class="edge">
<title>Node11&#45;&gt;Node10</title>
<path fill="none" stroke="midnightblue" d="M144.44,-998.84C137.47,-995.67 131.04,-991.42 126,-985.72 60.92,-912.17 48.06,-576.3 46.25,-515.25"/>
<polygon fill="midnightblue" stroke="midnightblue" points="143.6,-1002.26 154.19,-1002.53 146.07,-995.72 143.6,-1002.26"/>
</g>
<!-- Node12&#45;&gt;Node10 -->
<g id="edge13" class="edge">
<title>Node12&#45;&gt;Node10</title>
<path fill="none" stroke="midnightblue" d="M141.68,-944.78C135.76,-941.26 130.35,-936.96 126,-931.72 70.62,-864.98 50.11,-573.07 46.57,-515.57"/>
<polygon fill="midnightblue" stroke="midnightblue" points="140.15,-947.93 150.64,-949.4 143.36,-941.71 140.15,-947.93"/>
</g>
<!-- Node13&#45;&gt;Node10 -->
<g id="edge15" class="edge">
<title>Node13&#45;&gt;Node10</title>
<path fill="none" stroke="midnightblue" d="M142.64,-886.43C136.36,-882.34 130.6,-877.48 126,-871.72 79.66,-813.63 52.31,-567.65 46.97,-515.47"/>
<polygon fill="midnightblue" stroke="midnightblue" points="141.05,-889.55 151.46,-891.54 144.56,-883.5 141.05,-889.55"/>
</g>
<!-- Node14&#45;&gt;Node10 -->
<g id="edge17" class="edge">
<title>Node14&#45;&gt;Node10</title>
<path fill="none" stroke="midnightblue" d="M154.03,-848.26C143.66,-845.25 133.52,-840.41 126,-832.72 79.62,-785.29 52.59,-564.87 47.06,-515.53"/>
<polygon fill="midnightblue" stroke="midnightblue" points="153.42,-851.71 163.96,-850.62 155.04,-844.9 153.42,-851.71"/>
</g>
<!-- Node16 -->
<g id="node16" class="node">
<title>Node16</title>
<g id="a_node16"><a xlink:href="namespacetest__hessian.html#aa70e893a0726ba1d7adb8ac2fa421d5f" target="_top" xlink:title=" ">
<polygon fill="white" stroke="black" points="126,-804.22 126,-823.22 277,-823.22 277,-804.22 126,-804.22"/>
<text text-anchor="middle" x="201.5" y="-811.22" font-family="Helvetica,sans-Serif" font-size="10.00">test_hessian::run_hessian_test</text>
</a>
</g>
</g>
<!-- Node15&#45;&gt;Node16 -->
<g id="edge19" class="edge">
<title>Node15&#45;&gt;Node16</title>
<path fill="none" stroke="midnightblue" d="M330.72,-840.2C304.43,-834.77 273.43,-828.37 248.51,-823.22"/>
<polygon fill="midnightblue" stroke="midnightblue" points="330.04,-843.64 340.54,-842.23 331.46,-836.78 330.04,-843.64"/>
</g>
<!-- Node16&#45;&gt;Node10 -->
<g id="edge20" class="edge">
<title>Node16&#45;&gt;Node10</title>
<path fill="none" stroke="midnightblue" d="M130.66,-798.73C129.02,-797.49 127.47,-796.16 126,-794.72 43.45,-713.83 43.91,-555.9 45.49,-515.38"/>
<polygon fill="midnightblue" stroke="midnightblue" points="129.05,-801.84 139.39,-804.13 132.73,-795.89 129.05,-801.84"/>
</g>
<!-- Node17&#45;&gt;Node10 -->
<g id="edge22" class="edge">
<title>Node17&#45;&gt;Node10</title>
<path fill="none" stroke="midnightblue" d="M141.54,-756.76C135.83,-753.8 130.5,-750.18 126,-745.72 57.96,-678.36 47.79,-551.69 46.27,-515.56"/>
<polygon fill="midnightblue" stroke="midnightblue" points="140.2,-759.99 150.75,-760.87 143.05,-753.6 140.2,-759.99"/>
</g>
<!-- Node18&#45;&gt;Node10 -->
<g id="edge24" class="edge">
<title>Node18&#45;&gt;Node10</title>
<path fill="none" stroke="midnightblue" d="M141.62,-706.46C135.94,-703.52 130.59,-699.98 126,-695.72 70.12,-643.87 51.84,-546.77 47.28,-515.61"/>
<polygon fill="midnightblue" stroke="midnightblue" points="140.2,-709.66 150.75,-710.59 143.08,-703.28 140.2,-709.66"/>
</g>
<!-- Node19&#45;&gt;Node10 -->
<g id="edge26" class="edge">
<title>Node19&#45;&gt;Node10</title>
<path fill="none" stroke="midnightblue" d="M147.05,-668.96C139.49,-666.25 132.19,-662.61 126,-657.72 77.07,-619.12 54.71,-542.24 48.15,-515.31"/>
<polygon fill="midnightblue" stroke="midnightblue" points="146.13,-672.34 156.72,-671.92 148.18,-665.64 146.13,-672.34"/>
</g>
<!-- Node20&#45;&gt;Node10 -->
<g id="edge28" class="edge">
<title>Node20&#45;&gt;Node10</title>
<path fill="none" stroke="midnightblue" d="M139.66,-627.19C134.84,-625.1 130.22,-622.63 126,-619.72 86.01,-592.11 59.5,-537.58 49.95,-515.42"/>
<polygon fill="midnightblue" stroke="midnightblue" points="138.52,-630.5 149.11,-630.75 141,-623.95 138.52,-630.5"/>
</g>
<!-- Node21&#45;&gt;Node10 -->
<g id="edge30" class="edge">
<title>Node21&#45;&gt;Node10</title>
<path fill="none" stroke="midnightblue" d="M155.46,-593.16C145.39,-590.42 135.03,-586.71 126,-581.72 94.48,-564.31 66.11,-531.48 53.26,-515.27"/>
<polygon fill="midnightblue" stroke="midnightblue" points="154.82,-596.61 165.37,-595.6 156.5,-589.81 154.82,-596.61"/>
</g>
<!-- Node22&#45;&gt;Node10 -->
<g id="edge32" class="edge">
<title>Node22&#45;&gt;Node10</title>
<path fill="none" stroke="midnightblue" d="M159.1,-550.03C148.27,-546.53 136.65,-542.63 126,-538.72 106.11,-531.43 83.86,-522.16 67.89,-515.3"/>
<polygon fill="midnightblue" stroke="midnightblue" points="158.18,-553.41 168.77,-553.11 160.31,-546.74 158.18,-553.41"/>
</g>
<!-- Node23&#45;&gt;Node10 -->
<g id="edge34" class="edge">
<title>Node23&#45;&gt;Node10</title>
<path fill="none" stroke="midnightblue" d="M339.46,-527.27C269.52,-522.13 139.87,-512.61 79.08,-508.15"/>
<polygon fill="midnightblue" stroke="midnightblue" points="339.51,-530.78 349.74,-528.02 340.02,-523.8 339.51,-530.78"/>
</g>
<!-- Node24&#45;&gt;Node10 -->
<g id="edge36" class="edge">
<title>Node24&#45;&gt;Node10</title>
<path fill="none" stroke="midnightblue" d="M145.43,-493.49C123.26,-496.22 98.42,-499.28 79.12,-501.65"/>
<polygon fill="midnightblue" stroke="midnightblue" points="145.9,-496.96 155.4,-492.27 145.04,-490.02 145.9,-496.96"/>
</g>
<!-- Node25&#45;&gt;Node16 -->
<g id="edge38" class="edge">
<title>Node25&#45;&gt;Node16</title>
<path fill="none" stroke="midnightblue" d="M330.37,-806.08C313.6,-807.08 294.95,-808.2 277.19,-809.26"/>
<polygon fill="midnightblue" stroke="midnightblue" points="330.77,-809.56 340.54,-805.47 330.35,-802.57 330.77,-809.56"/>
</g>
<!-- Node26&#45;&gt;Node10 -->
<g id="edge40" class="edge">
<title>Node26&#45;&gt;Node10</title>
<path fill="none" stroke="midnightblue" d="M326.3,-446.87C272.83,-446.69 193,-450.03 126,-467.72 102.36,-473.96 77.23,-487.11 61.57,-496.18"/>
<polygon fill="midnightblue" stroke="midnightblue" points="326.61,-450.37 336.64,-446.95 326.66,-443.38 326.61,-450.37"/>
</g>
<!-- Node27&#45;&gt;Node10 -->
<g id="edge42" class="edge">
<title>Node27&#45;&gt;Node10</title>
<path fill="none" stroke="midnightblue" d="M326.77,-401.56C272.39,-405.12 190.91,-415.25 126,-443.72 97.03,-456.43 69.25,-481.92 55.31,-495.93"/>
<polygon fill="midnightblue" stroke="midnightblue" points="327.16,-405.04 336.93,-400.95 326.74,-398.06 327.16,-405.04"/>
</g>
<!-- Node28&#45;&gt;Node10 -->
<g id="edge44" class="edge">
<title>Node28&#45;&gt;Node10</title>
<path fill="none" stroke="midnightblue" d="M325.41,-354.66C269.68,-356.37 186.97,-365.8 126,-402.72 87.46,-426.06 60.5,-475.35 50.4,-496.15"/>
<polygon fill="midnightblue" stroke="midnightblue" points="325.57,-358.16 335.49,-354.43 325.41,-351.16 325.57,-358.16"/>
</g>
<!-- Node29&#45;&gt;Node10 -->
<g id="edge46" class="edge">
<title>Node29&#45;&gt;Node10</title>
<path fill="none" stroke="midnightblue" d="M328.84,-311.39C272.14,-308.21 185.64,-311.88 126,-353.72 74.98,-389.52 53.94,-468.18 47.94,-495.85"/>
<polygon fill="midnightblue" stroke="midnightblue" points="328.87,-314.9 339.07,-312.05 329.32,-307.91 328.87,-314.9"/>
</g>
<!-- Node30&#45;&gt;Node10 -->
<g id="edge48" class="edge">
<title>Node30&#45;&gt;Node10</title>
<path fill="none" stroke="midnightblue" d="M331.98,-270.19C274.83,-263.37 185.26,-262.06 126,-306.72 61.77,-355.13 48.98,-463.52 46.54,-496.21"/>
<polygon fill="midnightblue" stroke="midnightblue" points="331.55,-273.66 341.92,-271.46 332.44,-266.72 331.55,-273.66"/>
</g>
<!-- Node31&#45;&gt;Node10 -->
<g id="edge50" class="edge">
<title>Node31&#45;&gt;Node10</title>
<path fill="none" stroke="midnightblue" d="M333.45,-239.98C266.7,-238.9 157.03,-241.11 126,-265.72 50.46,-325.62 45.65,-459.24 45.81,-496.13"/>
<polygon fill="midnightblue" stroke="midnightblue" points="333.71,-243.49 343.78,-240.18 333.85,-236.49 333.71,-243.49"/>
</g>
<!-- Node32&#45;&gt;Node10 -->
<g id="edge52" class="edge">
<title>Node32&#45;&gt;Node10</title>
<path fill="none" stroke="midnightblue" d="M338.47,-195.24C281.04,-187.99 185.26,-185.56 126,-235.72 43.35,-305.69 43.83,-456.71 45.46,-496.14"/>
<polygon fill="midnightblue" stroke="midnightblue" points="338.35,-198.75 348.73,-196.63 339.3,-191.81 338.35,-198.75"/>
</g>
<!-- Node33&#45;&gt;Node10 -->
<g id="edge54" class="edge">
<title>Node33&#45;&gt;Node10</title>
<path fill="none" stroke="midnightblue" d="M337.78,-154.33C280.2,-143.95 184.79,-136.93 126,-186.72 76.55,-228.61 51.89,-447.03 46.94,-495.98"/>
<polygon fill="midnightblue" stroke="midnightblue" points="337.25,-157.79 347.73,-156.22 338.56,-150.91 337.25,-157.79"/>
</g>
<!-- Node34&#45;&gt;Node10 -->
<g id="edge56" class="edge">
<title>Node34&#45;&gt;Node10</title>
<path fill="none" stroke="midnightblue" d="M532.18,-122.45C429.77,-111.73 186.56,-92.38 126,-142.72 69.18,-189.96 50,-443.15 46.59,-496.04"/>
<polygon fill="midnightblue" stroke="midnightblue" points="531.91,-125.94 542.22,-123.53 532.65,-118.98 531.91,-125.94"/>
</g>
<!-- Node35&#45;&gt;Node10 -->
<g id="edge58" class="edge">
<title>Node35&#45;&gt;Node10</title>
<path fill="none" stroke="midnightblue" d="M152.81,-96.94C142.76,-100.51 133.08,-105.82 126,-113.72 72.83,-173.1 50.7,-441.06 46.69,-495.9"/>
<polygon fill="midnightblue" stroke="midnightblue" points="153.92,-100.26 162.48,-94.02 151.9,-93.56 153.92,-100.26"/>
</g>
<!-- Node36&#45;&gt;Node10 -->
<g id="edge60" class="edge">
<title>Node36&#45;&gt;Node10</title>
<path fill="none" stroke="midnightblue" d="M529.78,-46.53C425.78,-36.44 185.03,-19.42 126,-70.72 58.91,-129.03 47.74,-437.6 46.21,-496.13"/>
<polygon fill="midnightblue" stroke="midnightblue" points="529.7,-50.04 540,-47.54 530.39,-43.07 529.7,-50.04"/>
</g>
<!-- Node37&#45;&gt;Node10 -->
<g id="edge62" class="edge">
<title>Node37&#45;&gt;Node10</title>
<path fill="none" stroke="midnightblue" d="M154.12,-20.25C143.55,-23.82 133.29,-29.31 126,-37.72 63.37,-109.97 48.55,-435.63 46.33,-496.06"/>
<polygon fill="midnightblue" stroke="midnightblue" points="155.19,-23.59 163.84,-17.48 153.27,-16.86 155.19,-23.59"/>
</g>
</g>
</svg>
