<?xml version="1.0" encoding="UTF-8" standalone="no"?>
<!DOCTYPE svg PUBLIC "-//W3C//DTD SVG 1.1//EN"
 "http://www.w3.org/Graphics/SVG/1.1/DTD/svg11.dtd">
<!-- Generated by graphviz version 2.43.0 (0)
 -->
<!-- Title: xtb_xtb_hamiltonian_gpu::build_dsdqh0_gpu Pages: 1 -->
<svg width="465pt" height="275pt"
 viewBox="0.00 0.00 465.00 275.00" xmlns="http://www.w3.org/2000/svg" xmlns:xlink="http://www.w3.org/1999/xlink">
<g id="graph0" class="graph" transform="scale(1 1) rotate(0) translate(4 271)">
<title>xtb_xtb_hamiltonian_gpu::build_dsdqh0_gpu</title>
<polygon fill="white" stroke="transparent" points="-4,4 -4,-271 461,-271 461,4 -4,4"/>
<!-- Node1 -->
<g id="node1" class="node">
<title>Node1</title>
<g id="a_node1"><a xlink:title="Computes the gradient of the dipole/qpole integral contribution.">
<polygon fill="#bfbfbf" stroke="black" points="0,-104.5 0,-134.5 134,-134.5 134,-104.5 0,-104.5"/>
<text text-anchor="start" x="8" y="-122.5" font-family="Helvetica,sans-Serif" font-size="10.00">xtb_xtb_hamiltonian</text>
<text text-anchor="middle" x="67" y="-111.5" font-family="Helvetica,sans-Serif" font-size="10.00">_gpu::build_dsdqh0_gpu</text>
</a>
</g>
</g>
<!-- Node2 -->
<g id="node2" class="node">
<title>Node2</title>
<g id="a_node2"><a xlink:href="namespacextb__xtb__hamiltonian__gpu.html#a7453a62b3ae977525a80a4e3f1b0b6d6" target="_top" xlink:title=" ">
<polygon fill="white" stroke="black" points="170,-214.5 170,-244.5 315,-244.5 315,-214.5 170,-214.5"/>
<text text-anchor="start" x="178" y="-232.5" font-family="Helvetica,sans-Serif" font-size="10.00">xtb_xtb_hamiltonian</text>
<text text-anchor="middle" x="242.5" y="-221.5" font-family="Helvetica,sans-Serif" font-size="10.00">_gpu::build_dsdq_ints_gpu</text>
</a>
</g>
</g>
<!-- Node1&#45;&gt;Node2 -->
<g id="edge1" class="edge">
<title>Node1&#45;&gt;Node2</title>
<path fill="none" stroke="midnightblue" d="M82.6,-134.64C101.32,-153.3 135.51,-184.95 170,-204.5 173.67,-206.58 177.54,-208.53 181.5,-210.35"/>
<polygon fill="midnightblue" stroke="midnightblue" points="180.31,-213.64 190.88,-214.37 183.06,-207.21 180.31,-213.64"/>
</g>
<!-- Node5 -->
<g id="node5" class="node">
<title>Node5</title>
<g id="a_node5"><a xlink:href="namespacextb__grad__core.html#afcd07cdba5580e023801c661c0dda52d" target="_top" xlink:title=" ">
<polygon fill="white" stroke="black" points="171.5,-176 171.5,-195 313.5,-195 313.5,-176 171.5,-176"/>
<text text-anchor="middle" x="242.5" y="-183" font-family="Helvetica,sans-Serif" font-size="10.00">xtb_grad_core::dshellpoly</text>
</a>
</g>
</g>
<!-- Node1&#45;&gt;Node5 -->
<g id="edge4" class="edge">
<title>Node1&#45;&gt;Node5</title>
<path fill="none" stroke="midnightblue" d="M98.3,-134.62C118.33,-144.25 145.35,-156.55 170,-165.5 177.5,-168.22 185.55,-170.8 193.44,-173.13"/>
<polygon fill="midnightblue" stroke="midnightblue" points="192.74,-176.57 203.31,-175.97 194.67,-169.84 192.74,-176.57"/>
</g>
<!-- Node6 -->
<g id="node6" class="node">
<title>Node6</title>
<g id="a_node6"><a xlink:href="namespacextb__xtb__hamiltonian__gpu.html#a7d54eea1711bd68961410b4349a08f51" target="_top" xlink:title=" ">
<polygon fill="white" stroke="black" points="184,-126.5 184,-156.5 301,-156.5 301,-126.5 184,-126.5"/>
<text text-anchor="start" x="192" y="-144.5" font-family="Helvetica,sans-Serif" font-size="10.00">xtb_xtb_hamiltonian</text>
<text text-anchor="middle" x="242.5" y="-133.5" font-family="Helvetica,sans-Serif" font-size="10.00">_gpu::dtrf2_gpu</text>
</a>
</g>
</g>
<!-- Node1&#45;&gt;Node6 -->
<g id="edge5" class="edge">
<title>Node1&#45;&gt;Node6</title>
<path fill="none" stroke="midnightblue" d="M134.09,-127.88C147.01,-129.52 160.58,-131.24 173.56,-132.89"/>
<polygon fill="midnightblue" stroke="midnightblue" points="173.46,-136.4 183.82,-134.19 174.34,-129.46 173.46,-136.4"/>
</g>
<!-- Node7 -->
<g id="node7" class="node">
<title>Node7</title>
<g id="a_node7"><a xlink:href="namespacextb__scc__core.html#a136cd39a28befead4338400b448fddc3" target="_top" xlink:title="H0 off&#45;diag scaling.">
<polygon fill="white" stroke="black" points="184,-88 184,-107 301,-107 301,-88 184,-88"/>
<text text-anchor="middle" x="242.5" y="-95" font-family="Helvetica,sans-Serif" font-size="10.00">xtb_scc_core::h0scal</text>
</a>
</g>
</g>
<!-- Node1&#45;&gt;Node7 -->
<g id="edge6" class="edge">
<title>Node1&#45;&gt;Node7</title>
<path fill="none" stroke="midnightblue" d="M134.09,-111.12C147.01,-109.48 160.58,-107.76 173.56,-106.11"/>
<polygon fill="midnightblue" stroke="midnightblue" points="174.34,-109.54 183.82,-104.81 173.46,-102.6 174.34,-109.54"/>
</g>
<!-- Node8 -->
<g id="node8" class="node">
<title>Node8</title>
<g id="a_node8"><a xlink:href="namespacextb__intgrad.html#a61582fac6cd8cc05eb76d4ced531ef6e" target="_top" xlink:title="calculates a partial overlap in one cartesian direction">
<polygon fill="white" stroke="black" points="190,-50 190,-69 295,-69 295,-50 190,-50"/>
<text text-anchor="middle" x="242.5" y="-57" font-family="Helvetica,sans-Serif" font-size="10.00">xtb_intgrad::olapp</text>
</a>
</g>
</g>
<!-- Node1&#45;&gt;Node8 -->
<g id="edge7" class="edge">
<title>Node1&#45;&gt;Node8</title>
<path fill="none" stroke="midnightblue" d="M102.54,-104.39C122.11,-96.14 147.18,-86.09 170,-78.5 177.12,-76.13 184.71,-73.86 192.19,-71.75"/>
<polygon fill="midnightblue" stroke="midnightblue" points="193.19,-75.11 201.91,-69.1 191.34,-68.36 193.19,-75.11"/>
</g>
<!-- Node9 -->
<g id="node9" class="node">
<title>Node9</title>
<g id="a_node9"><a xlink:href="namespacextb__xtb__hamiltonian__gpu.html#a3cf5de5a38c04846879f52398d415e07" target="_top" xlink:title="move gradient operator from center a to center b">
<polygon fill="white" stroke="black" points="184,-0.5 184,-30.5 301,-30.5 301,-0.5 184,-0.5"/>
<text text-anchor="start" x="192" y="-18.5" font-family="Helvetica,sans-Serif" font-size="10.00">xtb_xtb_hamiltonian</text>
<text text-anchor="middle" x="242.5" y="-7.5" font-family="Helvetica,sans-Serif" font-size="10.00">_gpu::shiftintg_gpu</text>
</a>
</g>
</g>
<!-- Node1&#45;&gt;Node9 -->
<g id="edge8" class="edge">
<title>Node1&#45;&gt;Node9</title>
<path fill="none" stroke="midnightblue" d="M84.15,-104.28C103.34,-86.87 136.94,-58.46 170,-40.5 173.94,-38.36 178.1,-36.34 182.35,-34.46"/>
<polygon fill="midnightblue" stroke="midnightblue" points="183.87,-37.62 191.75,-30.55 181.18,-31.16 183.87,-37.62"/>
</g>
<!-- Node3 -->
<g id="node3" class="node">
<title>Node3</title>
<g id="a_node3"><a xlink:href="namespacextb__intgrad.html#a5bc6f86d12b5b4734f597a88800d8330" target="_top" xlink:title=" ">
<polygon fill="white" stroke="black" points="353,-236.5 353,-266.5 455,-266.5 455,-236.5 353,-236.5"/>
<text text-anchor="start" x="361" y="-254.5" font-family="Helvetica,sans-Serif" font-size="10.00">xtb_intgrad::build</text>
<text text-anchor="middle" x="404" y="-243.5" font-family="Helvetica,sans-Serif" font-size="10.00">_hshift2</text>
</a>
</g>
</g>
<!-- Node2&#45;&gt;Node3 -->
<g id="edge2" class="edge">
<title>Node2&#45;&gt;Node3</title>
<path fill="none" stroke="midnightblue" d="M315.32,-239.41C324.35,-240.65 333.52,-241.92 342.36,-243.14"/>
<polygon fill="midnightblue" stroke="midnightblue" points="342.17,-246.64 352.55,-244.54 343.13,-239.71 342.17,-246.64"/>
</g>
<!-- Node4 -->
<g id="node4" class="node">
<title>Node4</title>
<g id="a_node4"><a xlink:href="namespacextb__intgrad.html#a040b47e4b45c55028569fcad9704172a" target="_top" xlink:title=" ">
<polygon fill="white" stroke="black" points="351,-198 351,-217 457,-217 457,-198 351,-198"/>
<text text-anchor="middle" x="404" y="-205" font-family="Helvetica,sans-Serif" font-size="10.00">xtb_intgrad::prod3</text>
</a>
</g>
</g>
<!-- Node2&#45;&gt;Node4 -->
<g id="edge3" class="edge">
<title>Node2&#45;&gt;Node4</title>
<path fill="none" stroke="midnightblue" d="M315.32,-219.59C323.78,-218.43 332.37,-217.24 340.69,-216.09"/>
<polygon fill="midnightblue" stroke="midnightblue" points="341.25,-219.55 350.68,-214.72 340.29,-212.62 341.25,-219.55"/>
</g>
</g>
</svg>
