<?xml version="1.0" encoding="UTF-8" standalone="no"?>
<!DOCTYPE svg PUBLIC "-//W3C//DTD SVG 1.1//EN"
 "http://www.w3.org/Graphics/SVG/1.1/DTD/svg11.dtd">
<!-- Generated by graphviz version 2.43.0 (0)
 -->
<!-- Title: xtb_disp_coordinationnumber::dgfncount Pages: 1 -->
<svg width="366pt" height="110pt"
 viewBox="0.00 0.00 366.00 110.00" xmlns="http://www.w3.org/2000/svg" xmlns:xlink="http://www.w3.org/1999/xlink">
<g id="graph0" class="graph" transform="scale(1 1) rotate(0) translate(4 106)">
<title>xtb_disp_coordinationnumber::dgfncount</title>
<polygon fill="white" stroke="transparent" points="-4,4 -4,-106 362,-106 362,4 -4,4"/>
<!-- Node1 -->
<g id="node1" class="node">
<title>Node1</title>
<g id="a_node1"><a xlink:title="Derivative of the counting function w.r.t. the distance.">
<polygon fill="#bfbfbf" stroke="black" points="197,-36 197,-66 358,-66 358,-36 197,-36"/>
<text text-anchor="start" x="205" y="-54" font-family="Helvetica,sans-Serif" font-size="10.00">xtb_disp_coordinationnumber</text>
<text text-anchor="middle" x="277.5" y="-43" font-family="Helvetica,sans-Serif" font-size="10.00">::dgfncount</text>
</a>
</g>
</g>
<!-- Node2 -->
<g id="node2" class="node">
<title>Node2</title>
<g id="a_node2"><a xlink:href="interfacextb__disp__coordinationnumber_1_1getcoordinationnumber.html#a2f2b31a469b2b6f68bbe0006d5dbe6cd" target="_top" xlink:title="Geometric fractional coordination number, supports both error function.">
<polygon fill="white" stroke="black" points="0,-60.5 0,-101.5 161,-101.5 161,-60.5 0,-60.5"/>
<text text-anchor="start" x="8" y="-89.5" font-family="Helvetica,sans-Serif" font-size="10.00">xtb_disp_coordinationnumber</text>
<text text-anchor="start" x="8" y="-78.5" font-family="Helvetica,sans-Serif" font-size="10.00">::getcoordinationnumber</text>
<text text-anchor="middle" x="80.5" y="-67.5" font-family="Helvetica,sans-Serif" font-size="10.00">::getcoordinationnumberlp</text>
</a>
</g>
</g>
<!-- Node1&#45;&gt;Node2 -->
<g id="edge1" class="edge">
<title>Node1&#45;&gt;Node2</title>
<path fill="none" stroke="midnightblue" d="M186.88,-64.79C178.3,-66.11 169.64,-67.44 161.16,-68.75"/>
<polygon fill="midnightblue" stroke="midnightblue" points="187.55,-68.23 196.9,-63.25 186.49,-61.31 187.55,-68.23"/>
</g>
<!-- Node3 -->
<g id="node3" class="node">
<title>Node3</title>
<g id="a_node3"><a xlink:href="interfacextb__disp__coordinationnumber_1_1getcoordinationnumber.html#ae4bc7047d85e1e85a2a084c543029c11" target="_top" xlink:title="Geometric fractional coordination number, supports both error function.">
<polygon fill="white" stroke="black" points="0,-0.5 0,-41.5 161,-41.5 161,-0.5 0,-0.5"/>
<text text-anchor="start" x="8" y="-29.5" font-family="Helvetica,sans-Serif" font-size="10.00">xtb_disp_coordinationnumber</text>
<text text-anchor="start" x="8" y="-18.5" font-family="Helvetica,sans-Serif" font-size="10.00">::getcoordinationnumber</text>
<text text-anchor="middle" x="80.5" y="-7.5" font-family="Helvetica,sans-Serif" font-size="10.00">::getcoordinationnumbernl</text>
</a>
</g>
</g>
<!-- Node1&#45;&gt;Node3 -->
<g id="edge2" class="edge">
<title>Node1&#45;&gt;Node3</title>
<path fill="none" stroke="midnightblue" d="M186.88,-37.21C178.3,-35.89 169.64,-34.56 161.16,-33.25"/>
<polygon fill="midnightblue" stroke="midnightblue" points="186.49,-40.69 196.9,-38.75 187.55,-33.77 186.49,-40.69"/>
</g>
</g>
</svg>
