<?xml version="1.0" encoding="UTF-8" standalone="no"?>
<!DOCTYPE svg PUBLIC "-//W3C//DTD SVG 1.1//EN"
 "http://www.w3.org/Graphics/SVG/1.1/DTD/svg11.dtd">
<!-- Generated by graphviz version 2.46.0 (20210122.1329)
 -->
<!-- Title: xtb_disp_dftd4::weight_references Pages: 1 -->
<svg width="402pt" height="85pt"
 viewBox="0.00 0.00 402.00 85.00" xmlns="http://www.w3.org/2000/svg" xmlns:xlink="http://www.w3.org/1999/xlink">
<g id="graph0" class="graph" transform="scale(1 1) rotate(0) translate(4 81)">
<title>xtb_disp_dftd4::weight_references</title>
<polygon fill="white" stroke="transparent" points="-4,4 -4,-81 398,-81 398,4 -4,4"/>
<!-- Node1 -->
<g id="node1" class="node">
<title>Node1</title>
<g id="a_node1"><a xlink:title="Calculate the weights of the reference system and the derivatives w.r.t.">
<polygon fill="#bfbfbf" stroke="black" points="0,-14 0,-44 113,-44 113,-14 0,-14"/>
<text text-anchor="start" x="8" y="-32" font-family="Helvetica,sans-Serif" font-size="10.00">xtb_disp_dftd4::weight</text>
<text text-anchor="middle" x="56.5" y="-21" font-family="Helvetica,sans-Serif" font-size="10.00">_references</text>
</a>
</g>
</g>
<!-- Node2 -->
<g id="node2" class="node">
<title>Node2</title>
<g id="a_node2"><a xlink:href="namespacextb__disp__dftd4.html#ab0e32d23b62a0b9663cc78f08da4e21d" target="_top" xlink:title=" ">
<polygon fill="white" stroke="black" points="149,-57.5 149,-76.5 256,-76.5 256,-57.5 149,-57.5"/>
<text text-anchor="middle" x="202.5" y="-64.5" font-family="Helvetica,sans-Serif" font-size="10.00">xtb_disp_dftd4::cngw</text>
</a>
</g>
</g>
<!-- Node1&#45;&gt;Node2 -->
<g id="edge1" class="edge">
<title>Node1&#45;&gt;Node2</title>
<path fill="none" stroke="midnightblue" d="M113.17,-43.69C127.05,-47.35 141.78,-51.24 155.15,-54.77"/>
<polygon fill="midnightblue" stroke="midnightblue" points="154.51,-58.22 165.07,-57.39 156.3,-51.45 154.51,-58.22"/>
</g>
<!-- Node3 -->
<g id="node3" class="node">
<title>Node3</title>
<g id="a_node3"><a xlink:href="namespacextb__disp__dftd4.html#acaf91a2aaed23ff2557b4c4c247f2d65" target="_top" xlink:title=" ">
<polygon fill="white" stroke="black" points="149,-19.5 149,-38.5 256,-38.5 256,-19.5 149,-19.5"/>
<text text-anchor="middle" x="202.5" y="-26.5" font-family="Helvetica,sans-Serif" font-size="10.00">xtb_disp_dftd4::dzeta</text>
</a>
</g>
</g>
<!-- Node1&#45;&gt;Node3 -->
<g id="edge2" class="edge">
<title>Node1&#45;&gt;Node3</title>
<path fill="none" stroke="midnightblue" d="M113.17,-29C121.5,-29 130.14,-29 138.6,-29"/>
<polygon fill="midnightblue" stroke="midnightblue" points="138.81,-32.5 148.81,-29 138.81,-25.5 138.81,-32.5"/>
</g>
<!-- Node4 -->
<g id="node4" class="node">
<title>Node4</title>
<g id="a_node4"><a xlink:href="namespacextb__disp__dftd4.html#a84f2fe9e55715ff22663ba9cbc3b02c2" target="_top" xlink:title=" ">
<polygon fill="white" stroke="black" points="292,-0.5 292,-19.5 394,-19.5 394,-0.5 292,-0.5"/>
<text text-anchor="middle" x="343" y="-7.5" font-family="Helvetica,sans-Serif" font-size="10.00">xtb_disp_dftd4::zeta</text>
</a>
</g>
</g>
<!-- Node1&#45;&gt;Node4 -->
<g id="edge4" class="edge">
<title>Node1&#45;&gt;Node4</title>
<path fill="none" stroke="midnightblue" d="M113.35,-15.51C125.06,-13.22 137.38,-11.19 149,-10 193.18,-5.46 243.34,-5.62 281.46,-6.83"/>
<polygon fill="midnightblue" stroke="midnightblue" points="281.75,-10.35 291.87,-7.2 282,-3.35 281.75,-10.35"/>
</g>
<!-- Node3&#45;&gt;Node4 -->
<g id="edge3" class="edge">
<title>Node3&#45;&gt;Node4</title>
<path fill="none" stroke="midnightblue" d="M256.26,-21.76C264.52,-20.63 273.11,-19.45 281.53,-18.3"/>
<polygon fill="midnightblue" stroke="midnightblue" points="282.24,-21.73 291.67,-16.9 281.29,-14.8 282.24,-21.73"/>
</g>
</g>
</svg>
