<?xml version="1.0" encoding="UTF-8" standalone="no"?>
<!DOCTYPE svg PUBLIC "-//W3C//DTD SVG 1.1//EN"
 "http://www.w3.org/Graphics/SVG/1.1/DTD/svg11.dtd">
<!-- Generated by graphviz version 2.46.0 (20210122.1329)
 -->
<!-- Title: xtb_scc_core::h0scal Pages: 1 -->
<!--zoomable 225 -->
<svg id="main" version="1.1" xmlns="http://www.w3.org/2000/svg" xmlns:xlink="http://www.w3.org/1999/xlink" xml:space="preserve" onload="init(evt)">
<style type="text/css"><![CDATA[
.edge:hover path { stroke: red; }
.edge:hover polygon { stroke: red; fill: red; }
]]></style>
<script type="text/javascript"><![CDATA[
var edges = document.getElementsByTagName('g');
if (edges && edges.length) {
  for (var i=0;i<edges.length;i++) {
    if (edges[i].id.substr(0,4)=='edge') {
      edges[i].setAttribute('class','edge');
    }
  }
}
]]></script>
        <defs>
                <circle id="rim" cx="0" cy="0" r="7"/>
                <circle id="rim2" cx="0" cy="0" r="3.5"/>
                <g id="zoomPlus">
                        <use xlink:href="#rim" fill="#404040">
                                <set attributeName="fill" to="#808080" begin="zoomplus.mouseover" end="zoomplus.mouseout"/>
                        </use>
                        <path d="M-4,0h8M0,-4v8" fill="none" stroke="white" stroke-width="1.5" pointer-events="none"/>
                </g>
                <g id="zoomMin">
                        <use xlink:href="#rim" fill="#404040">
                                <set attributeName="fill" to="#808080" begin="zoomminus.mouseover" end="zoomminus.mouseout"/>
                        </use>
                        <path d="M-4,0h8" fill="none" stroke="white" stroke-width="1.5" pointer-events="none"/>
                </g>
                <g id="dirArrow">
                        <path fill="none" stroke="white" stroke-width="1.5" d="M0,-3.0v7 M-2.5,-0.5L0,-3.0L2.5,-0.5"/>
                </g>
               <g id="resetDef">
                       <use xlink:href="#rim2" fill="#404040">
                               <set attributeName="fill" to="#808080" begin="reset.mouseover" end="reset.mouseout"/>
                       </use>
               </g>
        </defs>

<script type="text/javascript">
var viewWidth = 608;
var viewHeight = 225;
var sectionId = 'dynsection-11';
</script>
<script xlink:href="svgpan.js"/>
<svg id="graph" class="graph">
<g id="viewport">
<title>xtb_scc_core::h0scal</title>
<polygon fill="white" stroke="transparent" points="-4,4 -4,-221 604,-221 604,4 -4,4"/>
<!-- Node1 -->
<g id="node1" class="node">
<title>Node1</title>
<g id="a_node1"><a xlink:title="H0 off&#45;diag scaling.">
<polygon fill="#bfbfbf" stroke="black" points="493,-99 493,-118 600,-118 600,-99 493,-99"/>
<text text-anchor="middle" x="546.5" y="-106" font-family="Helvetica,sans-Serif" font-size="10.00">xtb_scc_core::h0scal</text>
</a>
</g>
</g>
<!-- Node2 -->
<g id="node2" class="node">
<title>Node2</title>
<g id="a_node2"><a xlink:href="namespacextb__xtb__hamiltonian.html#a8364d9293f8dac8d5de89c5186f7effc" target="_top" xlink:title="Computes the gradient of the dipole/qpole integral contribution.">
<polygon fill="white" stroke="black" points="346,-186.5 346,-216.5 448,-216.5 448,-186.5 346,-186.5"/>
<text text-anchor="start" x="354" y="-204.5" font-family="Helvetica,sans-Serif" font-size="10.00">xtb_xtb_hamiltonian</text>
<text text-anchor="middle" x="397" y="-193.5" font-family="Helvetica,sans-Serif" font-size="10.00">::build_dsdqh0</text>
</a>
</g>
</g>
<!-- Node1&#45;&gt;Node2 -->
<g id="edge1" class="edge">
<title>Node1&#45;&gt;Node2</title>
<path fill="none" stroke="midnightblue" d="M527.72,-124.78C510.56,-139.88 483.38,-162.25 457,-177.5 451.45,-180.71 445.38,-183.7 439.32,-186.4"/>
<polygon fill="midnightblue" stroke="midnightblue" points="530.16,-127.29 535.29,-118.01 525.5,-122.07 530.16,-127.29"/>
</g>
<!-- Node8 -->
<g id="node8" class="node">
<title>Node8</title>
<g id="a_node8"><a xlink:href="namespacextb__xtb__hamiltonian__gpu.html#a3fc32a40afb82002170a6633d8870ddb" target="_top" xlink:title="Computes the gradient of the dipole/qpole integral contribution.">
<polygon fill="white" stroke="black" points="337,-137.5 337,-167.5 457,-167.5 457,-137.5 337,-137.5"/>
<text text-anchor="start" x="345" y="-155.5" font-family="Helvetica,sans-Serif" font-size="10.00">xtb_xtb_hamiltonian</text>
<text text-anchor="middle" x="397" y="-144.5" font-family="Helvetica,sans-Serif" font-size="10.00">_gpu::build_dsdqh0_gpu</text>
</a>
</g>
</g>
<!-- Node1&#45;&gt;Node8 -->
<g id="edge8" class="edge">
<title>Node1&#45;&gt;Node8</title>
<path fill="none" stroke="midnightblue" d="M503.75,-120.96C486.56,-126.08 466.5,-132.06 448.5,-137.43"/>
<polygon fill="midnightblue" stroke="midnightblue" points="504.91,-124.26 513.49,-118.05 502.91,-117.55 504.91,-124.26"/>
</g>
<!-- Node9 -->
<g id="node9" class="node">
<title>Node9</title>
<g id="a_node9"><a xlink:href="namespacextb__scc__core.html#a283a0b5552f059cc1b825cf6f29bc47b" target="_top" xlink:title=" ">
<polygon fill="white" stroke="black" points="339.5,-99 339.5,-118 454.5,-118 454.5,-99 339.5,-99"/>
<text text-anchor="middle" x="397" y="-106" font-family="Helvetica,sans-Serif" font-size="10.00">xtb_scc_core::build_h0</text>
</a>
</g>
</g>
<!-- Node1&#45;&gt;Node9 -->
<g id="edge10" class="edge">
<title>Node1&#45;&gt;Node9</title>
<path fill="none" stroke="midnightblue" d="M482.4,-108.5C473.2,-108.5 463.77,-108.5 454.71,-108.5"/>
<polygon fill="midnightblue" stroke="midnightblue" points="482.67,-112 492.67,-108.5 482.67,-105 482.67,-112"/>
</g>
<!-- Node10 -->
<g id="node10" class="node">
<title>Node10</title>
<g id="a_node10"><a xlink:href="namespacextb__xtb__hamiltonian.html#a9f0d8be35a4ef0f2dbbbafd2ef873d64" target="_top" xlink:title="Computes the dipole and quadrupole integrals and performs screening to.">
<polygon fill="white" stroke="black" points="346,-49.5 346,-79.5 448,-79.5 448,-49.5 346,-49.5"/>
<text text-anchor="start" x="354" y="-67.5" font-family="Helvetica,sans-Serif" font-size="10.00">xtb_xtb_hamiltonian</text>
<text text-anchor="middle" x="397" y="-56.5" font-family="Helvetica,sans-Serif" font-size="10.00">::build_sdqh0</text>
</a>
</g>
</g>
<!-- Node1&#45;&gt;Node10 -->
<g id="edge11" class="edge">
<title>Node1&#45;&gt;Node10</title>
<path fill="none" stroke="midnightblue" d="M503.7,-96.03C486.44,-90.88 466.27,-84.87 448.21,-79.48"/>
<polygon fill="midnightblue" stroke="midnightblue" points="502.91,-99.45 513.49,-98.95 504.91,-92.74 502.91,-99.45"/>
</g>
<!-- Node11 -->
<g id="node11" class="node">
<title>Node11</title>
<g id="a_node11"><a xlink:href="namespacextb__xtb__hamiltonian__gpu.html#aee3ffc022ae0b9686cef17ce77e6b117" target="_top" xlink:title="Computes the dipole and quadrupole integrals and performs screening to.">
<polygon fill="white" stroke="black" points="339.5,-0.5 339.5,-30.5 454.5,-30.5 454.5,-0.5 339.5,-0.5"/>
<text text-anchor="start" x="347.5" y="-18.5" font-family="Helvetica,sans-Serif" font-size="10.00">xtb_xtb_hamiltonian</text>
<text text-anchor="middle" x="397" y="-7.5" font-family="Helvetica,sans-Serif" font-size="10.00">_gpu::build_sdqh0_gpu</text>
</a>
</g>
</g>
<!-- Node1&#45;&gt;Node11 -->
<g id="edge13" class="edge">
<title>Node1&#45;&gt;Node11</title>
<path fill="none" stroke="midnightblue" d="M527.34,-92.32C510.1,-77.52 483.04,-55.68 457,-40.5 450.85,-36.91 444.09,-33.56 437.4,-30.54"/>
<polygon fill="midnightblue" stroke="midnightblue" points="525.12,-95.03 534.96,-98.96 529.72,-89.75 525.12,-95.03"/>
</g>
<!-- Node3 -->
<g id="node3" class="node">
<title>Node3</title>
<g id="a_node3"><a xlink:href="namespacextb__scf.html#a7390c40a38032c3d210c39edecfa49ed" target="_top" xlink:title=" ">
<polygon fill="white" stroke="black" points="235,-99 235,-118 301,-118 301,-99 235,-99"/>
<text text-anchor="middle" x="268" y="-106" font-family="Helvetica,sans-Serif" font-size="10.00">xtb_scf::scf</text>
</a>
</g>
</g>
<!-- Node2&#45;&gt;Node3 -->
<g id="edge2" class="edge">
<title>Node2&#45;&gt;Node3</title>
<path fill="none" stroke="midnightblue" d="M344.03,-181.81C341.61,-180.44 339.25,-179 337,-177.5 311.56,-160.48 287.92,-132.79 276.38,-118.2"/>
<polygon fill="midnightblue" stroke="midnightblue" points="342.55,-184.98 353.04,-186.45 345.76,-178.76 342.55,-184.98"/>
</g>
<!-- Node4 -->
<g id="node4" class="node">
<title>Node4</title>
<g id="a_node4"><a xlink:href="namespacextb__xtb__calculator.html#a75c96263c235c99dfeeda3e865f9898c" target="_top" xlink:title=" ">
<polygon fill="white" stroke="black" points="104,-137.5 104,-167.5 199,-167.5 199,-137.5 104,-137.5"/>
<text text-anchor="start" x="112" y="-155.5" font-family="Helvetica,sans-Serif" font-size="10.00">xtb_xtb_calculator</text>
<text text-anchor="middle" x="151.5" y="-144.5" font-family="Helvetica,sans-Serif" font-size="10.00">::singlepoint</text>
</a>
</g>
</g>
<!-- Node3&#45;&gt;Node4 -->
<g id="edge3" class="edge">
<title>Node3&#45;&gt;Node4</title>
<path fill="none" stroke="midnightblue" d="M232.7,-121.68C219.8,-126.64 205.02,-132.32 191.7,-137.43"/>
<polygon fill="midnightblue" stroke="midnightblue" points="234.08,-124.9 242.16,-118.05 231.57,-118.37 234.08,-124.9"/>
</g>
<!-- Node5 -->
<g id="node5" class="node">
<title>Node5</title>
<g id="a_node5"><a xlink:href="TESTSUITE_2gfn1_8f90.html#ab5cc37cef2d483d9d9cde17aa03c55a8" target="_top" xlink:title=" ">
<polygon fill="white" stroke="black" points="112.5,-99 112.5,-118 190.5,-118 190.5,-99 112.5,-99"/>
<text text-anchor="middle" x="151.5" y="-106" font-family="Helvetica,sans-Serif" font-size="10.00">test_gfn1_scc</text>
</a>
</g>
</g>
<!-- Node3&#45;&gt;Node5 -->
<g id="edge4" class="edge">
<title>Node3&#45;&gt;Node5</title>
<path fill="none" stroke="midnightblue" d="M224.79,-108.5C213.57,-108.5 201.52,-108.5 190.54,-108.5"/>
<polygon fill="midnightblue" stroke="midnightblue" points="224.8,-112 234.8,-108.5 224.8,-105 224.8,-112"/>
</g>
<!-- Node7 -->
<g id="node7" class="node">
<title>Node7</title>
<g id="a_node7"><a xlink:href="TESTSUITE_2gfn2_8f90.html#af47afba0207cbca2dc950fb5e339ce03" target="_top" xlink:title=" ">
<polygon fill="white" stroke="black" points="112.5,-61 112.5,-80 190.5,-80 190.5,-61 112.5,-61"/>
<text text-anchor="middle" x="151.5" y="-68" font-family="Helvetica,sans-Serif" font-size="10.00">test_gfn2_scc</text>
</a>
</g>
</g>
<!-- Node3&#45;&gt;Node7 -->
<g id="edge6" class="edge">
<title>Node3&#45;&gt;Node7</title>
<path fill="none" stroke="midnightblue" d="M228.35,-95.67C212.99,-90.58 195.62,-84.81 181.38,-80.09"/>
<polygon fill="midnightblue" stroke="midnightblue" points="227.51,-99.08 238.11,-98.91 229.72,-92.44 227.51,-99.08"/>
</g>
<!-- Node6 -->
<g id="node6" class="node">
<title>Node6</title>
<g id="a_node6"><a xlink:href="tests__peeq_8f90.html#a87ff5319e0d2e627a4f71d7df0d14891" target="_top" xlink:title=" ">
<polygon fill="white" stroke="black" points="0,-80 0,-99 68,-99 68,-80 0,-80"/>
<text text-anchor="middle" x="34" y="-87" font-family="Helvetica,sans-Serif" font-size="10.00">peeq_tester</text>
</a>
</g>
</g>
<!-- Node5&#45;&gt;Node6 -->
<g id="edge5" class="edge">
<title>Node5&#45;&gt;Node6</title>
<path fill="none" stroke="midnightblue" d="M102.39,-100.59C90.84,-98.69 78.75,-96.7 68.06,-94.94"/>
<polygon fill="midnightblue" stroke="midnightblue" points="101.93,-104.06 112.36,-102.23 103.06,-97.15 101.93,-104.06"/>
</g>
<!-- Node7&#45;&gt;Node6 -->
<g id="edge7" class="edge">
<title>Node7&#45;&gt;Node6</title>
<path fill="none" stroke="midnightblue" d="M102.39,-78.41C90.84,-80.31 78.75,-82.3 68.06,-84.06"/>
<polygon fill="midnightblue" stroke="midnightblue" points="103.06,-81.85 112.36,-76.77 101.93,-74.94 103.06,-81.85"/>
</g>
<!-- Node8&#45;&gt;Node3 -->
<g id="edge9" class="edge">
<title>Node8&#45;&gt;Node3</title>
<path fill="none" stroke="midnightblue" d="M342.9,-134.1C327,-128.59 310.2,-122.77 296.65,-118.08"/>
<polygon fill="midnightblue" stroke="midnightblue" points="342.05,-137.51 352.65,-137.48 344.35,-130.9 342.05,-137.51"/>
</g>
<!-- Node10&#45;&gt;Node3 -->
<g id="edge12" class="edge">
<title>Node10&#45;&gt;Node3</title>
<path fill="none" stroke="midnightblue" d="M342.9,-82.9C327,-88.41 310.2,-94.23 296.65,-98.92"/>
<polygon fill="midnightblue" stroke="midnightblue" points="344.35,-86.1 352.65,-79.52 342.05,-79.49 344.35,-86.1"/>
</g>
<!-- Node11&#45;&gt;Node3 -->
<g id="edge14" class="edge">
<title>Node11&#45;&gt;Node3</title>
<path fill="none" stroke="midnightblue" d="M345.56,-35.27C342.6,-36.92 339.72,-38.67 337,-40.5 311.8,-57.48 288.06,-84.69 276.44,-99"/>
<polygon fill="midnightblue" stroke="midnightblue" points="347.33,-38.3 354.63,-30.61 344.13,-32.07 347.33,-38.3"/>
</g>
</g>
</svg>
        <g id="navigator" transform="translate(0 0)" fill="#404254">
                <rect fill="#f2f5e9" fill-opacity="0.5" stroke="#606060" stroke-width=".5" x="0" y="0" width="60" height="60"/>
                <use id="zoomplus" xlink:href="#zoomPlus" x="17" y="9" onmousedown="handleZoom(evt,'in')"/>
                <use id="zoomminus" xlink:href="#zoomMin" x="42" y="9" onmousedown="handleZoom(evt,'out')"/>
                <use id="reset" xlink:href="#resetDef" x="30" y="36" onmousedown="handleReset()"/>
                <g id="arrowUp" xlink:href="#dirArrow" transform="translate(30 24)" onmousedown="handlePan(0,-1)">
                  <use xlink:href="#rim" fill="#404040">
                        <set attributeName="fill" to="#808080" begin="arrowUp.mouseover" end="arrowUp.mouseout"/>
                  </use>
                  <path fill="none" stroke="white" stroke-width="1.5" d="M0,-3.0v7 M-2.5,-0.5L0,-3.0L2.5,-0.5"/>
                </g>
                <g id="arrowRight" xlink:href="#dirArrow" transform="rotate(90) translate(36 -43)" onmousedown="handlePan(1,0)">
                  <use xlink:href="#rim" fill="#404040">
                        <set attributeName="fill" to="#808080" begin="arrowRight.mouseover" end="arrowRight.mouseout"/>
                  </use>
                  <path fill="none" stroke="white" stroke-width="1.5" d="M0,-3.0v7 M-2.5,-0.5L0,-3.0L2.5,-0.5"/>
                </g>
                <g id="arrowDown" xlink:href="#dirArrow" transform="rotate(180) translate(-30 -48)" onmousedown="handlePan(0,1)">
                  <use xlink:href="#rim" fill="#404040">
                        <set attributeName="fill" to="#808080" begin="arrowDown.mouseover" end="arrowDown.mouseout"/>
                  </use>
                  <path fill="none" stroke="white" stroke-width="1.5" d="M0,-3.0v7 M-2.5,-0.5L0,-3.0L2.5,-0.5"/>
                </g>
                <g id="arrowLeft" xlink:href="#dirArrow" transform="rotate(270) translate(-36 17)" onmousedown="handlePan(-1,0)">
                  <use xlink:href="#rim" fill="#404040">
                        <set attributeName="fill" to="#808080" begin="arrowLeft.mouseover" end="arrowLeft.mouseout"/>
                  </use>
                  <path fill="none" stroke="white" stroke-width="1.5" d="M0,-3.0v7 M-2.5,-0.5L0,-3.0L2.5,-0.5"/>
                </g>
        </g>
        <svg viewBox="0 0 15 15" width="100%" height="30px" preserveAspectRatio="xMaxYMin meet">
         <g id="arrow_out" transform="scale(0.3 0.3)">
          <a xlink:href="namespacextb__scc__core_a136cd39a28befead4338400b448fddc3_icgraph_org.svg" target="_base">
           <rect id="button" ry="5" rx="5" y="6" x="6" height="38" width="38"
                fill="#f2f5e9" fill-opacity="0.5" stroke="#606060" stroke-width="1.0"/>
           <path id="arrow"
             d="M 11.500037,31.436501 C 11.940474,20.09759 22.043105,11.32322 32.158766,21.979434 L 37.068811,17.246167 C 37.068811,17.246167 37.088388,32 37.088388,32 L 22.160133,31.978069 C 22.160133,31.978069 26.997745,27.140456 26.997745,27.140456 C 18.528582,18.264221 13.291696,25.230495 11.500037,31.436501 z"
             style="fill:#404040;"/>
          </a>
         </g>
        </svg>
</svg>
