<?xml version="1.0" encoding="UTF-8" standalone="no"?>
<!DOCTYPE svg PUBLIC "-//W3C//DTD SVG 1.1//EN"
 "http://www.w3.org/Graphics/SVG/1.1/DTD/svg11.dtd">
<!-- Generated by graphviz version 2.46.1 (20210215.1649)
 -->
<!-- Title: xtb_embedding::read_pcem Pages: 1 -->
<!--zoomable 152 -->
<svg id="main" version="1.1" xmlns="http://www.w3.org/2000/svg" xmlns:xlink="http://www.w3.org/1999/xlink" xml:space="preserve" onload="init(evt)">
<style type="text/css"><![CDATA[
.edge:hover path { stroke: red; }
.edge:hover polygon { stroke: red; fill: red; }
]]></style>
<script type="text/javascript"><![CDATA[
var edges = document.getElementsByTagName('g');
if (edges && edges.length) {
  for (var i=0;i<edges.length;i++) {
    if (edges[i].id.substr(0,4)=='edge') {
      edges[i].setAttribute('class','edge');
    }
  }
}
]]></script>
        <defs>
                <circle id="rim" cx="0" cy="0" r="7"/>
                <circle id="rim2" cx="0" cy="0" r="3.5"/>
                <g id="zoomPlus">
                        <use xlink:href="#rim" fill="#404040">
                                <set attributeName="fill" to="#808080" begin="zoomplus.mouseover" end="zoomplus.mouseout"/>
                        </use>
                        <path d="M-4,0h8M0,-4v8" fill="none" stroke="white" stroke-width="1.5" pointer-events="none"/>
                </g>
                <g id="zoomMin">
                        <use xlink:href="#rim" fill="#404040">
                                <set attributeName="fill" to="#808080" begin="zoomminus.mouseover" end="zoomminus.mouseout"/>
                        </use>
                        <path d="M-4,0h8" fill="none" stroke="white" stroke-width="1.5" pointer-events="none"/>
                </g>
                <g id="dirArrow">
                        <path fill="none" stroke="white" stroke-width="1.5" d="M0,-3.0v7 M-2.5,-0.5L0,-3.0L2.5,-0.5"/>
                </g>
               <g id="resetDef">
                       <use xlink:href="#rim2" fill="#404040">
                               <set attributeName="fill" to="#808080" begin="reset.mouseover" end="reset.mouseout"/>
                       </use>
               </g>
        </defs>

<script type="text/javascript">
var viewWidth = 648;
var viewHeight = 152;
var sectionId = 'dynsection-6';
</script>
<script xlink:href="svgpan.js"/>
<svg id="graph" class="graph">
<g id="viewport">
<title>xtb_embedding::read_pcem</title>
<polygon fill="white" stroke="transparent" points="-4,4 -4,-147.5 644,-147.5 644,4 -4,4"/>
<!-- Node1 -->
<g id="node1" class="node">
<title>Node1</title>
<g id="a_node1"><a xlink:title=" ">
<polygon fill="#bfbfbf" stroke="black" points="0,-67 0,-86 134,-86 134,-67 0,-67"/>
<text text-anchor="middle" x="67" y="-74" font-family="Helvetica,sans-Serif" font-size="10.00">xtb_embedding::read_pcem</text>
</a>
</g>
</g>
<!-- Node2 -->
<g id="node2" class="node">
<title>Node2</title>
<g id="a_node2"><a xlink:href="elem_8f90.html#ae2a0e630d3a8fea4a12abcc607d7fc5d" target="_top" xlink:title=" ">
<polygon fill="white" stroke="black" points="210.5,-124 210.5,-143 248.5,-143 248.5,-124 210.5,-124"/>
<text text-anchor="middle" x="229.5" y="-131" font-family="Helvetica,sans-Serif" font-size="10.00">elem</text>
</a>
</g>
</g>
<!-- Node1&#45;&gt;Node2 -->
<g id="edge1" class="edge">
<title>Node1&#45;&gt;Node2</title>
<path fill="none" stroke="midnightblue" d="M92.63,-86.01C113.22,-93.88 143.41,-105.23 170,-114.5 179.95,-117.97 190.93,-121.59 200.66,-124.72"/>
<polygon fill="midnightblue" stroke="midnightblue" points="199.66,-128.08 210.25,-127.79 201.79,-121.41 199.66,-128.08"/>
</g>
<!-- Node3 -->
<g id="node3" class="node">
<title>Node3</title>
<g id="a_node3"><a xlink:href="namespacextb__mctc__strings.html#a5272db42d49f38098924d2587c9e9a78" target="_top" xlink:title="Parses the string &#39;str&#39; into arguments args(1), ..., args(nargs) based on the delimiters contained in...">
<polygon fill="white" stroke="black" points="170,-86 170,-105 289,-105 289,-86 170,-86"/>
<text text-anchor="middle" x="229.5" y="-93" font-family="Helvetica,sans-Serif" font-size="10.00">xtb_mctc_strings::parse</text>
</a>
</g>
</g>
<!-- Node1&#45;&gt;Node3 -->
<g id="edge2" class="edge">
<title>Node1&#45;&gt;Node3</title>
<path fill="none" stroke="midnightblue" d="M134.21,-84.34C142.62,-85.33 151.24,-86.35 159.69,-87.35"/>
<polygon fill="midnightblue" stroke="midnightblue" points="159.54,-90.86 169.89,-88.56 160.37,-83.91 159.54,-90.86"/>
</g>
<!-- Node7 -->
<g id="node7" class="node">
<title>Node7</title>
<g id="a_node7"><a xlink:href="error_8f90.html#a21a6b76d2bc72d8d2ec0a344a6d2298b" target="_top" xlink:title=" ">
<polygon fill="white" stroke="black" points="210.5,-48 210.5,-67 248.5,-67 248.5,-48 210.5,-48"/>
<text text-anchor="middle" x="229.5" y="-55" font-family="Helvetica,sans-Serif" font-size="10.00">raise</text>
</a>
</g>
</g>
<!-- Node1&#45;&gt;Node7 -->
<g id="edge7" class="edge">
<title>Node1&#45;&gt;Node7</title>
<path fill="none" stroke="midnightblue" d="M134.21,-68.66C157.31,-65.93 182.01,-63 200.33,-60.83"/>
<polygon fill="midnightblue" stroke="midnightblue" points="200.8,-64.3 210.32,-59.65 199.98,-57.35 200.8,-64.3"/>
</g>
<!-- Node8 -->
<g id="node8" class="node">
<title>Node8</title>
<g id="a_node8"><a xlink:href="namespacextb__readin.html#aa4cba2ddf891393117f495075dbdbfbd" target="_top" xlink:title=" ">
<polygon fill="white" stroke="black" points="177.5,-9 177.5,-28 281.5,-28 281.5,-9 177.5,-9"/>
<text text-anchor="middle" x="229.5" y="-16" font-family="Helvetica,sans-Serif" font-size="10.00">xtb_readin::strip_line</text>
</a>
</g>
</g>
<!-- Node1&#45;&gt;Node8 -->
<g id="edge8" class="edge">
<title>Node1&#45;&gt;Node8</title>
<path fill="none" stroke="midnightblue" d="M93.08,-66.94C113.69,-59.14 143.66,-47.91 170,-38.5 176.59,-36.15 183.61,-33.7 190.43,-31.35"/>
<polygon fill="midnightblue" stroke="midnightblue" points="191.85,-34.56 200.18,-28.01 189.58,-27.94 191.85,-34.56"/>
</g>
<!-- Node4 -->
<g id="node4" class="node">
<title>Node4</title>
<g id="a_node4"><a xlink:href="namespacextb__mctc__strings.html#a83fe8976b683970b27e6b64632d50916" target="_top" xlink:title="Converts multiple spaces and tabs to single spaces; deletes control characters; removes initial space...">
<polygon fill="white" stroke="black" points="507,-88 507,-107 640,-107 640,-88 507,-88"/>
<text text-anchor="middle" x="573.5" y="-95" font-family="Helvetica,sans-Serif" font-size="10.00">xtb_mctc_strings::compact</text>
</a>
</g>
</g>
<!-- Node3&#45;&gt;Node4 -->
<g id="edge3" class="edge">
<title>Node3&#45;&gt;Node4</title>
<path fill="none" stroke="midnightblue" d="M264.76,-105.01C282.57,-109.47 304.79,-114.28 325,-116.5 389.5,-123.58 406.39,-122.5 471,-116.5 487.4,-114.98 505.1,-112.1 521.06,-109.04"/>
<polygon fill="midnightblue" stroke="midnightblue" points="522.14,-112.39 531.26,-107.01 520.77,-105.53 522.14,-112.39"/>
</g>
<!-- Node5 -->
<g id="node5" class="node">
<title>Node5</title>
<g id="a_node5"><a xlink:href="namespacextb__mctc__strings.html#ac1ac14e68e16e450995779028bd6566f" target="_top" xlink:title="Removes backslash () characters. Double backslashes (\) are replaced by a single backslash.">
<polygon fill="white" stroke="black" points="325,-88 325,-107 471,-107 471,-88 325,-88"/>
<text text-anchor="middle" x="398" y="-95" font-family="Helvetica,sans-Serif" font-size="10.00">xtb_mctc_strings::removebksl</text>
</a>
</g>
</g>
<!-- Node3&#45;&gt;Node5 -->
<g id="edge4" class="edge">
<title>Node3&#45;&gt;Node5</title>
<path fill="none" stroke="midnightblue" d="M289.2,-96.21C297.48,-96.3 306.11,-96.41 314.73,-96.51"/>
<polygon fill="midnightblue" stroke="midnightblue" points="314.78,-100.01 324.82,-96.63 314.86,-93.01 314.78,-100.01"/>
</g>
<!-- Node6 -->
<g id="node6" class="node">
<title>Node6</title>
<g id="a_node6"><a xlink:href="namespacextb__mctc__strings.html#a01f52f6293684260e59260ff5790e5c3" target="_top" xlink:title="Routine finds the first instance of a character from &#39;delims&#39; in the the string &#39;str&#39;....">
<polygon fill="white" stroke="black" points="341.5,-50 341.5,-69 454.5,-69 454.5,-50 341.5,-50"/>
<text text-anchor="middle" x="398" y="-57" font-family="Helvetica,sans-Serif" font-size="10.00">xtb_mctc_strings::split</text>
</a>
</g>
</g>
<!-- Node3&#45;&gt;Node6 -->
<g id="edge5" class="edge">
<title>Node3&#45;&gt;Node6</title>
<path fill="none" stroke="midnightblue" d="M274.68,-85.95C295.65,-81.41 320.9,-75.95 343,-71.18"/>
<polygon fill="midnightblue" stroke="midnightblue" points="343.87,-74.57 352.9,-69.03 342.39,-67.73 343.87,-74.57"/>
</g>
<!-- Node6&#45;&gt;Node4 -->
<g id="edge6" class="edge">
<title>Node6&#45;&gt;Node4</title>
<path fill="none" stroke="midnightblue" d="M442.78,-69.09C465.99,-74.17 494.68,-80.46 519.17,-85.82"/>
<polygon fill="midnightblue" stroke="midnightblue" points="518.52,-89.26 529.03,-87.98 520.01,-82.42 518.52,-89.26"/>
</g>
<!-- Node9 -->
<g id="node9" class="node">
<title>Node9</title>
<g id="a_node9"><a xlink:href="namespacextb__mctc__systools.html#a7b18e6c9bb5206d8fe0fbba49da3fbdb" target="_top" xlink:title=" ">
<polygon fill="white" stroke="black" points="347,-0.5 347,-30.5 449,-30.5 449,-0.5 347,-0.5"/>
<text text-anchor="start" x="355" y="-18.5" font-family="Helvetica,sans-Serif" font-size="10.00">xtb_mctc_systools::</text>
<text text-anchor="middle" x="398" y="-7.5" font-family="Helvetica,sans-Serif" font-size="10.00">getline</text>
</a>
</g>
</g>
<!-- Node8&#45;&gt;Node9 -->
<g id="edge9" class="edge">
<title>Node8&#45;&gt;Node9</title>
<path fill="none" stroke="midnightblue" d="M281.81,-17.58C299.23,-17.26 318.84,-16.91 336.88,-16.58"/>
<polygon fill="midnightblue" stroke="midnightblue" points="337.06,-20.08 347,-16.4 336.94,-13.08 337.06,-20.08"/>
</g>
</g>
</svg>
        <g id="navigator" transform="translate(0 0)" fill="#404254">
                <rect fill="#f2f5e9" fill-opacity="0.5" stroke="#606060" stroke-width=".5" x="0" y="0" width="60" height="60"/>
                <use id="zoomplus" xlink:href="#zoomPlus" x="17" y="9" onmousedown="handleZoom(evt,'in')"/>
                <use id="zoomminus" xlink:href="#zoomMin" x="42" y="9" onmousedown="handleZoom(evt,'out')"/>
                <use id="reset" xlink:href="#resetDef" x="30" y="36" onmousedown="handleReset()"/>
                <g id="arrowUp" xlink:href="#dirArrow" transform="translate(30 24)" onmousedown="handlePan(0,-1)">
                  <use xlink:href="#rim" fill="#404040">
                        <set attributeName="fill" to="#808080" begin="arrowUp.mouseover" end="arrowUp.mouseout"/>
                  </use>
                  <path fill="none" stroke="white" stroke-width="1.5" d="M0,-3.0v7 M-2.5,-0.5L0,-3.0L2.5,-0.5"/>
                </g>
                <g id="arrowRight" xlink:href="#dirArrow" transform="rotate(90) translate(36 -43)" onmousedown="handlePan(1,0)">
                  <use xlink:href="#rim" fill="#404040">
                        <set attributeName="fill" to="#808080" begin="arrowRight.mouseover" end="arrowRight.mouseout"/>
                  </use>
                  <path fill="none" stroke="white" stroke-width="1.5" d="M0,-3.0v7 M-2.5,-0.5L0,-3.0L2.5,-0.5"/>
                </g>
                <g id="arrowDown" xlink:href="#dirArrow" transform="rotate(180) translate(-30 -48)" onmousedown="handlePan(0,1)">
                  <use xlink:href="#rim" fill="#404040">
                        <set attributeName="fill" to="#808080" begin="arrowDown.mouseover" end="arrowDown.mouseout"/>
                  </use>
                  <path fill="none" stroke="white" stroke-width="1.5" d="M0,-3.0v7 M-2.5,-0.5L0,-3.0L2.5,-0.5"/>
                </g>
                <g id="arrowLeft" xlink:href="#dirArrow" transform="rotate(270) translate(-36 17)" onmousedown="handlePan(-1,0)">
                  <use xlink:href="#rim" fill="#404040">
                        <set attributeName="fill" to="#808080" begin="arrowLeft.mouseover" end="arrowLeft.mouseout"/>
                  </use>
                  <path fill="none" stroke="white" stroke-width="1.5" d="M0,-3.0v7 M-2.5,-0.5L0,-3.0L2.5,-0.5"/>
                </g>
        </g>
        <svg viewBox="0 0 15 15" width="100%" height="30px" preserveAspectRatio="xMaxYMin meet">
         <g id="arrow_out" transform="scale(0.3 0.3)">
          <a xlink:href="namespacextb__embedding_af628c36bfe42493ab8e772f39b4559c4_cgraph_org.svg" target="_base">
           <rect id="button" ry="5" rx="5" y="6" x="6" height="38" width="38"
                fill="#f2f5e9" fill-opacity="0.5" stroke="#606060" stroke-width="1.0"/>
           <path id="arrow"
             d="M 11.500037,31.436501 C 11.940474,20.09759 22.043105,11.32322 32.158766,21.979434 L 37.068811,17.246167 C 37.068811,17.246167 37.088388,32 37.088388,32 L 22.160133,31.978069 C 22.160133,31.978069 26.997745,27.140456 26.997745,27.140456 C 18.528582,18.264221 13.291696,25.230495 11.500037,31.436501 z"
             style="fill:#404040;"/>
          </a>
         </g>
        </svg>
</svg>
