<?xml version="1.0" encoding="UTF-8" standalone="no"?>
<!DOCTYPE svg PUBLIC "-//W3C//DTD SVG 1.1//EN"
 "http://www.w3.org/Graphics/SVG/1.1/DTD/svg11.dtd">
<!-- Generated by graphviz version 2.46.1 (20210215.1649)
 -->
<!-- Title: xtb_slater::slatertogauss Pages: 1 -->
<!--zoomable 1286 -->
<svg id="main" version="1.1" xmlns="http://www.w3.org/2000/svg" xmlns:xlink="http://www.w3.org/1999/xlink" xml:space="preserve" onload="init(evt)">
<style type="text/css"><![CDATA[
.edge:hover path { stroke: red; }
.edge:hover polygon { stroke: red; fill: red; }
]]></style>
<script type="text/javascript"><![CDATA[
var edges = document.getElementsByTagName('g');
if (edges && edges.length) {
  for (var i=0;i<edges.length;i++) {
    if (edges[i].id.substr(0,4)=='edge') {
      edges[i].setAttribute('class','edge');
    }
  }
}
]]></script>
        <defs>
                <circle id="rim" cx="0" cy="0" r="7"/>
                <circle id="rim2" cx="0" cy="0" r="3.5"/>
                <g id="zoomPlus">
                        <use xlink:href="#rim" fill="#404040">
                                <set attributeName="fill" to="#808080" begin="zoomplus.mouseover" end="zoomplus.mouseout"/>
                        </use>
                        <path d="M-4,0h8M0,-4v8" fill="none" stroke="white" stroke-width="1.5" pointer-events="none"/>
                </g>
                <g id="zoomMin">
                        <use xlink:href="#rim" fill="#404040">
                                <set attributeName="fill" to="#808080" begin="zoomminus.mouseover" end="zoomminus.mouseout"/>
                        </use>
                        <path d="M-4,0h8" fill="none" stroke="white" stroke-width="1.5" pointer-events="none"/>
                </g>
                <g id="dirArrow">
                        <path fill="none" stroke="white" stroke-width="1.5" d="M0,-3.0v7 M-2.5,-0.5L0,-3.0L2.5,-0.5"/>
                </g>
               <g id="resetDef">
                       <use xlink:href="#rim2" fill="#404040">
                               <set attributeName="fill" to="#808080" begin="reset.mouseover" end="reset.mouseout"/>
                       </use>
               </g>
        </defs>

<script type="text/javascript">
var viewWidth = 1141;
var viewHeight = 1286;
var sectionId = 'dynsection-1';
</script>
<script xlink:href="svgpan.js"/>
<svg id="graph" class="graph">
<g id="viewport">
<title>xtb_slater::slatertogauss</title>
<polygon fill="white" stroke="transparent" points="-4,4 -4,-1281.5 1137,-1281.5 1137,4 -4,4"/>
<!-- Node1 -->
<g id="node1" class="node">
<title>Node1</title>
<g id="a_node1"><a xlink:title="Expand Slater function in primitive gaussian functions.">
<polygon fill="#bfbfbf" stroke="black" points="1011,-76.5 1011,-95.5 1133,-95.5 1133,-76.5 1011,-76.5"/>
<text text-anchor="middle" x="1072" y="-83.5" font-family="Helvetica,sans-Serif" font-size="10.00">xtb_slater::slatertogauss</text>
</a>
</g>
</g>
<!-- Node2 -->
<g id="node2" class="node">
<title>Node2</title>
<g id="a_node2"><a xlink:href="namespacextb__basis.html#a8dcefdb6cf2cc7d1c5f0daaea80140f9" target="_top" xlink:title=" ">
<polygon fill="white" stroke="black" points="696,-114.5 696,-133.5 813,-133.5 813,-114.5 696,-114.5"/>
<text text-anchor="middle" x="754.5" y="-121.5" font-family="Helvetica,sans-Serif" font-size="10.00">xtb_basis::newbasisset</text>
</a>
</g>
</g>
<!-- Node1&#45;&gt;Node2 -->
<g id="edge1" class="edge">
<title>Node1&#45;&gt;Node2</title>
<path fill="none" stroke="midnightblue" d="M1051.63,-101.8C1033.2,-115.73 1004.05,-135.03 975,-143 909.9,-160.87 830.23,-145.07 787.02,-133.53"/>
<polygon fill="midnightblue" stroke="midnightblue" points="1053.79,-104.55 1059.54,-95.65 1049.49,-99.02 1053.79,-104.55"/>
</g>
<!-- Node39 -->
<g id="node39" class="node">
<title>Node39</title>
<g id="a_node39"><a xlink:href="namespacextb__basis.html#a2e276b3c4c3f7524048f34c4d244660e" target="_top" xlink:title=" ">
<polygon fill="white" stroke="black" points="849,-114.5 849,-133.5 975,-133.5 975,-114.5 849,-114.5"/>
<text text-anchor="middle" x="912" y="-121.5" font-family="Helvetica,sans-Serif" font-size="10.00">xtb_basis::set_d_function</text>
</a>
</g>
</g>
<!-- Node1&#45;&gt;Node39 -->
<g id="edge64" class="edge">
<title>Node1&#45;&gt;Node39</title>
<path fill="none" stroke="midnightblue" d="M1021.24,-97.97C999.1,-103.29 973.39,-109.48 952.58,-114.48"/>
<polygon fill="midnightblue" stroke="midnightblue" points="1022.23,-101.33 1031.13,-95.59 1020.59,-94.52 1022.23,-101.33"/>
</g>
<!-- Node40 -->
<g id="node40" class="node">
<title>Node40</title>
<g id="a_node40"><a xlink:href="namespacextb__basis.html#afbd86663a0bcc9342163998348c7ee50" target="_top" xlink:title=" ">
<polygon fill="white" stroke="black" points="850,-76.5 850,-95.5 974,-95.5 974,-76.5 850,-76.5"/>
<text text-anchor="middle" x="912" y="-83.5" font-family="Helvetica,sans-Serif" font-size="10.00">xtb_basis::set_f_function</text>
</a>
</g>
</g>
<!-- Node1&#45;&gt;Node40 -->
<g id="edge66" class="edge">
<title>Node1&#45;&gt;Node40</title>
<path fill="none" stroke="midnightblue" d="M1000.54,-86C991.71,-86 982.74,-86 974.06,-86"/>
<polygon fill="midnightblue" stroke="midnightblue" points="1000.82,-89.5 1010.82,-86 1000.82,-82.5 1000.82,-89.5"/>
</g>
<!-- Node41 -->
<g id="node41" class="node">
<title>Node41</title>
<g id="a_node41"><a xlink:href="namespacextb__basis.html#a1eb0e2fb75404083a639d4baa8e938bf" target="_top" xlink:title=" ">
<polygon fill="white" stroke="black" points="849,-38.5 849,-57.5 975,-57.5 975,-38.5 849,-38.5"/>
<text text-anchor="middle" x="912" y="-45.5" font-family="Helvetica,sans-Serif" font-size="10.00">xtb_basis::set_p_function</text>
</a>
</g>
</g>
<!-- Node1&#45;&gt;Node41 -->
<g id="edge68" class="edge">
<title>Node1&#45;&gt;Node41</title>
<path fill="none" stroke="midnightblue" d="M1021.24,-74.03C999.1,-68.71 973.39,-62.52 952.58,-57.52"/>
<polygon fill="midnightblue" stroke="midnightblue" points="1020.59,-77.48 1031.13,-76.41 1022.23,-70.67 1020.59,-77.48"/>
</g>
<!-- Node42 -->
<g id="node42" class="node">
<title>Node42</title>
<g id="a_node42"><a xlink:href="namespacextb__basis.html#a3f32a7226531b9e0933006f696157fb2" target="_top" xlink:title=" ">
<polygon fill="white" stroke="black" points="849,-0.5 849,-19.5 975,-19.5 975,-0.5 849,-0.5"/>
<text text-anchor="middle" x="912" y="-7.5" font-family="Helvetica,sans-Serif" font-size="10.00">xtb_basis::set_s_function</text>
</a>
</g>
</g>
<!-- Node1&#45;&gt;Node42 -->
<g id="edge69" class="edge">
<title>Node1&#45;&gt;Node42</title>
<path fill="none" stroke="midnightblue" d="M1048.75,-70.71C1029.8,-58.2 1001.5,-40.73 975,-29 966.87,-25.4 957.85,-22.21 949.27,-19.53"/>
<polygon fill="midnightblue" stroke="midnightblue" points="1047,-73.75 1057.25,-76.4 1050.89,-67.93 1047,-73.75"/>
</g>
<!-- Node3 -->
<g id="node3" class="node">
<title>Node3</title>
<g id="a_node3"><a xlink:href="namespacextb__main__setup.html#a8c34f442041bce692a001d62921171a2" target="_top" xlink:title=" ">
<polygon fill="white" stroke="black" points="498,-688.5 498,-707.5 660,-707.5 660,-688.5 498,-688.5"/>
<text text-anchor="middle" x="579" y="-695.5" font-family="Helvetica,sans-Serif" font-size="10.00">xtb_main_setup::newxtbcalculator</text>
</a>
</g>
</g>
<!-- Node2&#45;&gt;Node3 -->
<g id="edge2" class="edge">
<title>Node2&#45;&gt;Node3</title>
<path fill="none" stroke="midnightblue" d="M747.55,-143.68C719.74,-235.69 603.07,-621.67 582.96,-688.21"/>
<polygon fill="midnightblue" stroke="midnightblue" points="750.95,-144.55 750.49,-133.96 744.24,-142.52 750.95,-144.55"/>
</g>
<!-- Node35 -->
<g id="node35" class="node">
<title>Node35</title>
<g id="a_node35"><a xlink:href="TESTSUITE_2gfn0_8f90.html#ac2abd1dbadf75b71866d509eaad7957d" target="_top" xlink:title=" ">
<polygon fill="white" stroke="black" points="165,-161.5 165,-180.5 238,-180.5 238,-161.5 165,-161.5"/>
<text text-anchor="middle" x="201.5" y="-168.5" font-family="Helvetica,sans-Serif" font-size="10.00">test_gfn0_sp</text>
</a>
</g>
</g>
<!-- Node2&#45;&gt;Node35 -->
<g id="edge56" class="edge">
<title>Node2&#45;&gt;Node35</title>
<path fill="none" stroke="midnightblue" d="M689.17,-135.09C679.42,-136.55 669.46,-137.91 660,-139 503.38,-157 315.35,-166.3 238.19,-169.59"/>
<polygon fill="midnightblue" stroke="midnightblue" points="689.88,-138.53 699.23,-133.55 688.81,-131.61 689.88,-138.53"/>
</g>
<!-- Node36 -->
<g id="node36" class="node">
<title>Node36</title>
<g id="a_node36"><a xlink:href="TESTSUITE_2gfn1_8f90.html#ab5cc37cef2d483d9d9cde17aa03c55a8" target="_top" xlink:title=" ">
<polygon fill="white" stroke="black" points="162.5,-120.5 162.5,-139.5 240.5,-139.5 240.5,-120.5 162.5,-120.5"/>
<text text-anchor="middle" x="201.5" y="-127.5" font-family="Helvetica,sans-Serif" font-size="10.00">test_gfn1_scc</text>
</a>
</g>
</g>
<!-- Node2&#45;&gt;Node36 -->
<g id="edge58" class="edge">
<title>Node2&#45;&gt;Node36</title>
<path fill="none" stroke="midnightblue" d="M685.57,-124.74C568.6,-126.01 332.83,-128.58 240.66,-129.58"/>
<polygon fill="midnightblue" stroke="midnightblue" points="685.87,-128.24 695.83,-124.63 685.8,-121.24 685.87,-128.24"/>
</g>
<!-- Node37 -->
<g id="node37" class="node">
<title>Node37</title>
<g id="a_node37"><a xlink:href="TESTSUITE_2gfn2_8f90.html#af47afba0207cbca2dc950fb5e339ce03" target="_top" xlink:title=" ">
<polygon fill="white" stroke="black" points="540,-76.5 540,-95.5 618,-95.5 618,-76.5 540,-76.5"/>
<text text-anchor="middle" x="579" y="-83.5" font-family="Helvetica,sans-Serif" font-size="10.00">test_gfn2_scc</text>
</a>
</g>
</g>
<!-- Node2&#45;&gt;Node37 -->
<g id="edge60" class="edge">
<title>Node2&#45;&gt;Node37</title>
<path fill="none" stroke="midnightblue" d="M699.85,-112.25C673.4,-106.46 642.13,-99.61 618.16,-94.36"/>
<polygon fill="midnightblue" stroke="midnightblue" points="699.2,-115.69 709.72,-114.41 700.7,-108.85 699.2,-115.69"/>
</g>
<!-- Node38 -->
<g id="node38" class="node">
<title>Node38</title>
<g id="a_node38"><a xlink:href="peeq_8f90.html#a5122d9bd07a3f4377ee140a5991d1325" target="_top" xlink:title=" ">
<polygon fill="white" stroke="black" points="541.5,-38.5 541.5,-57.5 616.5,-57.5 616.5,-38.5 541.5,-38.5"/>
<text text-anchor="middle" x="579" y="-45.5" font-family="Helvetica,sans-Serif" font-size="10.00">test_peeq_sp</text>
</a>
</g>
</g>
<!-- Node2&#45;&gt;Node38 -->
<g id="edge62" class="edge">
<title>Node2&#45;&gt;Node38</title>
<path fill="none" stroke="midnightblue" d="M732.39,-108.46C714.08,-95.65 686.44,-77.88 660,-67 646.27,-61.35 630.49,-57.16 616.6,-54.17"/>
<polygon fill="midnightblue" stroke="midnightblue" points="730.41,-111.34 740.58,-114.29 734.47,-105.64 730.41,-111.34"/>
</g>
<!-- Node4 -->
<g id="node4" class="node">
<title>Node4</title>
<g id="a_node4"><a xlink:href="namespacextb__api__calculator.html#a9d6feb3a53eb3b2edb400109a7158040" target="_top" xlink:title=" ">
<polygon fill="white" stroke="black" points="340,-1247 340,-1277 435,-1277 435,-1247 340,-1247"/>
<text text-anchor="start" x="348" y="-1265" font-family="Helvetica,sans-Serif" font-size="10.00">xtb_api_calculator</text>
<text text-anchor="middle" x="387.5" y="-1254" font-family="Helvetica,sans-Serif" font-size="10.00">::loadgfn0xtb_api</text>
</a>
</g>
</g>
<!-- Node3&#45;&gt;Node4 -->
<g id="edge3" class="edge">
<title>Node3&#45;&gt;Node4</title>
<path fill="none" stroke="midnightblue" d="M576.35,-717.82C568.69,-805.58 533.79,-1158.32 462,-1238 454.9,-1245.88 445.18,-1251.18 435.14,-1254.74"/>
<polygon fill="midnightblue" stroke="midnightblue" points="579.84,-718.12 577.21,-707.85 572.87,-717.52 579.84,-718.12"/>
</g>
<!-- Node5 -->
<g id="node5" class="node">
<title>Node5</title>
<g id="a_node5"><a xlink:href="namespacextb__api__calculator.html#a880727e8708090d0d366d861124c0d48" target="_top" xlink:title=" ">
<polygon fill="white" stroke="black" points="340,-1198 340,-1228 435,-1228 435,-1198 340,-1198"/>
<text text-anchor="start" x="348" y="-1216" font-family="Helvetica,sans-Serif" font-size="10.00">xtb_api_calculator</text>
<text text-anchor="middle" x="387.5" y="-1205" font-family="Helvetica,sans-Serif" font-size="10.00">::loadgfn1xtb_api</text>
</a>
</g>
</g>
<!-- Node3&#45;&gt;Node5 -->
<g id="edge4" class="edge">
<title>Node3&#45;&gt;Node5</title>
<path fill="none" stroke="midnightblue" d="M575.89,-717.83C566.74,-800.59 527.83,-1117.42 462,-1189 454.82,-1196.81 445.07,-1202.08 435.03,-1205.64"/>
<polygon fill="midnightblue" stroke="midnightblue" points="579.39,-718.08 576.99,-707.76 572.43,-717.32 579.39,-718.08"/>
</g>
<!-- Node6 -->
<g id="node6" class="node">
<title>Node6</title>
<g id="a_node6"><a xlink:href="namespacextb__api__calculator.html#a382f3cb8f313fadf0cccd4dea5df7ba6" target="_top" xlink:title=" ">
<polygon fill="white" stroke="black" points="340,-1149 340,-1179 435,-1179 435,-1149 340,-1149"/>
<text text-anchor="start" x="348" y="-1167" font-family="Helvetica,sans-Serif" font-size="10.00">xtb_api_calculator</text>
<text text-anchor="middle" x="387.5" y="-1156" font-family="Helvetica,sans-Serif" font-size="10.00">::loadgfn2xtb_api</text>
</a>
</g>
</g>
<!-- Node3&#45;&gt;Node6 -->
<g id="edge5" class="edge">
<title>Node3&#45;&gt;Node6</title>
<path fill="none" stroke="midnightblue" d="M575.31,-717.72C564.44,-794.89 521.42,-1075.23 462,-1139 454.83,-1146.69 445.21,-1152.02 435.29,-1155.7"/>
<polygon fill="midnightblue" stroke="midnightblue" points="578.82,-717.89 576.73,-707.5 571.89,-716.93 578.82,-717.89"/>
</g>
<!-- Node7 -->
<g id="node7" class="node">
<title>Node7</title>
<g id="a_node7"><a xlink:href="namespacextb__main__setup.html#a2873ec6fc259dc1f93f4c74d34501d91" target="_top" xlink:title=" ">
<polygon fill="white" stroke="black" points="313,-1110.5 313,-1129.5 462,-1129.5 462,-1110.5 313,-1110.5"/>
<text text-anchor="middle" x="387.5" y="-1117.5" font-family="Helvetica,sans-Serif" font-size="10.00">xtb_main_setup::newcalculator</text>
</a>
</g>
</g>
<!-- Node3&#45;&gt;Node7 -->
<g id="edge6" class="edge">
<title>Node3&#45;&gt;Node7</title>
<path fill="none" stroke="midnightblue" d="M578.31,-717.96C578.19,-782.15 569,-985.52 462,-1096 455.84,-1102.36 447.97,-1107.04 439.68,-1110.48"/>
<polygon fill="midnightblue" stroke="midnightblue" points="581.81,-717.63 578.25,-707.65 574.81,-717.67 581.81,-717.63"/>
</g>
<!-- Node10 -->
<g id="node10" class="node">
<title>Node10</title>
<g id="a_node10"><a xlink:href="TESTSUITE_2gfn0_8f90.html#ad2ca0eac6e8faac5aee1f1c04fb3d5d6" target="_top" xlink:title=" ">
<polygon fill="white" stroke="black" points="164,-1071.5 164,-1090.5 239,-1090.5 239,-1071.5 164,-1071.5"/>
<text text-anchor="middle" x="201.5" y="-1078.5" font-family="Helvetica,sans-Serif" font-size="10.00">test_gfn0_api</text>
</a>
</g>
</g>
<!-- Node3&#45;&gt;Node10 -->
<g id="edge9" class="edge">
<title>Node3&#45;&gt;Node10</title>
<path fill="none" stroke="midnightblue" d="M578,-717.96C576.83,-777.89 564.53,-957.36 462,-1043 398.4,-1096.13 294.07,-1092.92 239.07,-1086.63"/>
<polygon fill="midnightblue" stroke="midnightblue" points="581.5,-717.67 578.11,-707.63 574.5,-717.6 581.5,-717.67"/>
</g>
<!-- Node12 -->
<g id="node12" class="node">
<title>Node12</title>
<g id="a_node12"><a xlink:href="TESTSUITE_2gfn0_8f90.html#ae7a4844af5e348fce6ad37d938d3cd25" target="_top" xlink:title=" ">
<polygon fill="white" stroke="black" points="154.5,-1032.5 154.5,-1051.5 248.5,-1051.5 248.5,-1032.5 154.5,-1032.5"/>
<text text-anchor="middle" x="201.5" y="-1039.5" font-family="Helvetica,sans-Serif" font-size="10.00">test_gfn0_api_srb</text>
</a>
</g>
</g>
<!-- Node3&#45;&gt;Node12 -->
<g id="edge11" class="edge">
<title>Node3&#45;&gt;Node12</title>
<path fill="none" stroke="midnightblue" d="M577.18,-717.77C573.73,-773.45 555.71,-932.32 462,-1007 401.03,-1055.59 305.29,-1054.78 248.73,-1048.96"/>
<polygon fill="midnightblue" stroke="midnightblue" points="580.69,-717.7 577.72,-707.53 573.7,-717.33 580.69,-717.7"/>
</g>
<!-- Node13 -->
<g id="node13" class="node">
<title>Node13</title>
<g id="a_node13"><a xlink:href="TESTSUITE_2gfn0_8f90.html#af9aea625a1cc2d244354c4688d85f069" target="_top" xlink:title=" ">
<polygon fill="white" stroke="black" points="151,-980 151,-1010 252,-1010 252,-980 151,-980"/>
<text text-anchor="start" x="159" y="-998" font-family="Helvetica,sans-Serif" font-size="10.00">test_gfn0_mindless</text>
<text text-anchor="middle" x="201.5" y="-987" font-family="Helvetica,sans-Serif" font-size="10.00">_basic</text>
</a>
</g>
</g>
<!-- Node3&#45;&gt;Node13 -->
<g id="edge13" class="edge">
<title>Node3&#45;&gt;Node13</title>
<path fill="none" stroke="midnightblue" d="M576.48,-717.75C571.3,-769.94 549.41,-911.86 462,-975 400.65,-1019.32 308.49,-1014.2 252.1,-1005.37"/>
<polygon fill="midnightblue" stroke="midnightblue" points="579.97,-718.05 577.37,-707.77 572.99,-717.42 579.97,-718.05"/>
</g>
<!-- Node14 -->
<g id="node14" class="node">
<title>Node14</title>
<g id="a_node14"><a xlink:href="TESTSUITE_2gfn0_8f90.html#a68420832428671e396fef51203d23bcc" target="_top" xlink:title=" ">
<polygon fill="white" stroke="black" points="151,-926 151,-956 252,-956 252,-926 151,-926"/>
<text text-anchor="start" x="159" y="-944" font-family="Helvetica,sans-Serif" font-size="10.00">test_gfn0_mindless</text>
<text text-anchor="middle" x="201.5" y="-933" font-family="Helvetica,sans-Serif" font-size="10.00">_solvation</text>
</a>
</g>
</g>
<!-- Node3&#45;&gt;Node14 -->
<g id="edge15" class="edge">
<title>Node3&#45;&gt;Node14</title>
<path fill="none" stroke="midnightblue" d="M575.9,-717.58C569.43,-766.89 544.92,-895.97 462,-949 396.12,-991.13 300.34,-972.48 245.45,-956.08"/>
<polygon fill="midnightblue" stroke="midnightblue" points="579.38,-717.93 577.1,-707.59 572.43,-717.1 579.38,-717.93"/>
</g>
<!-- Node15 -->
<g id="node15" class="node">
<title>Node15</title>
<g id="a_node15"><a xlink:href="TESTSUITE_2gfn1_8f90.html#abe41d4ad906b878400fafc939111175d" target="_top" xlink:title=" ">
<polygon fill="white" stroke="black" points="350,-920.5 350,-939.5 425,-939.5 425,-920.5 350,-920.5"/>
<text text-anchor="middle" x="387.5" y="-927.5" font-family="Helvetica,sans-Serif" font-size="10.00">test_gfn1_api</text>
</a>
</g>
</g>
<!-- Node3&#45;&gt;Node15 -->
<g id="edge17" class="edge">
<title>Node3&#45;&gt;Node15</title>
<path fill="none" stroke="midnightblue" d="M573.01,-717.77C561.27,-760.06 527.83,-859.64 462,-911 451.5,-919.19 437.85,-923.87 425.16,-926.54"/>
<polygon fill="midnightblue" stroke="midnightblue" points="576.45,-718.44 575.64,-707.88 569.69,-716.64 576.45,-718.44"/>
</g>
<!-- Node16 -->
<g id="node16" class="node">
<title>Node16</title>
<g id="a_node16"><a xlink:href="namespacetest__hessian.html#a696b2a220cd73168272e18f3c57d4907" target="_top" xlink:title=" ">
<polygon fill="white" stroke="black" points="341,-871 341,-901 434,-901 434,-871 341,-871"/>
<text text-anchor="start" x="349" y="-889" font-family="Helvetica,sans-Serif" font-size="10.00">test_hessian::test</text>
<text text-anchor="middle" x="387.5" y="-878" font-family="Helvetica,sans-Serif" font-size="10.00">_gfn1_hessian</text>
</a>
</g>
</g>
<!-- Node3&#45;&gt;Node16 -->
<g id="edge19" class="edge">
<title>Node3&#45;&gt;Node16</title>
<path fill="none" stroke="midnightblue" d="M569.56,-717.07C553.52,-751.15 515.42,-822.61 462,-862 453.79,-868.05 443.98,-872.63 434.23,-876.07"/>
<polygon fill="midnightblue" stroke="midnightblue" points="572.84,-718.32 573.82,-707.77 566.47,-715.41 572.84,-718.32"/>
</g>
<!-- Node18 -->
<g id="node18" class="node">
<title>Node18</title>
<g id="a_node18"><a xlink:href="TESTSUITE_2gfn1_8f90.html#ad89d89ff73f2ceea96f403ea85561032" target="_top" xlink:title=" ">
<polygon fill="white" stroke="black" points="151,-789 151,-819 252,-819 252,-789 151,-789"/>
<text text-anchor="start" x="159" y="-807" font-family="Helvetica,sans-Serif" font-size="10.00">test_gfn1_mindless</text>
<text text-anchor="middle" x="201.5" y="-796" font-family="Helvetica,sans-Serif" font-size="10.00">_basic</text>
</a>
</g>
</g>
<!-- Node3&#45;&gt;Node18 -->
<g id="edge22" class="edge">
<title>Node3&#45;&gt;Node18</title>
<path fill="none" stroke="midnightblue" d="M545.89,-711.45C522.81,-720.8 490.82,-733.13 462,-742 390.06,-764.14 304.89,-783.15 252.27,-794.09"/>
<polygon fill="midnightblue" stroke="midnightblue" points="547.26,-714.67 555.19,-707.65 544.61,-708.19 547.26,-714.67"/>
</g>
<!-- Node19 -->
<g id="node19" class="node">
<title>Node19</title>
<g id="a_node19"><a xlink:href="TESTSUITE_2gfn1_8f90.html#a1e6bbb9dcd9a59e4ae8cdcfebde28e32" target="_top" xlink:title=" ">
<polygon fill="white" stroke="black" points="151,-740 151,-770 252,-770 252,-740 151,-740"/>
<text text-anchor="start" x="159" y="-758" font-family="Helvetica,sans-Serif" font-size="10.00">test_gfn1_mindless</text>
<text text-anchor="middle" x="201.5" y="-747" font-family="Helvetica,sans-Serif" font-size="10.00">_solvation</text>
</a>
</g>
</g>
<!-- Node3&#45;&gt;Node19 -->
<g id="edge24" class="edge">
<title>Node3&#45;&gt;Node19</title>
<path fill="none" stroke="midnightblue" d="M514.75,-709.25C497.65,-712.2 479.13,-715.3 462,-718 389.17,-729.47 304.6,-741.24 252.31,-748.34"/>
<polygon fill="midnightblue" stroke="midnightblue" points="515.38,-712.69 524.64,-707.54 514.18,-705.79 515.38,-712.69"/>
</g>
<!-- Node20 -->
<g id="node20" class="node">
<title>Node20</title>
<g id="a_node20"><a xlink:href="TESTSUITE_2gfn1_8f90.html#a30ff8f20e9f97fe83d17dcbce7e3c909" target="_top" xlink:title=" ">
<polygon fill="white" stroke="black" points="157,-701.5 157,-720.5 246,-720.5 246,-701.5 157,-701.5"/>
<text text-anchor="middle" x="201.5" y="-708.5" font-family="Helvetica,sans-Serif" font-size="10.00">test_gfn1_pbc3d</text>
</a>
</g>
</g>
<!-- Node3&#45;&gt;Node20 -->
<g id="edge26" class="edge">
<title>Node3&#45;&gt;Node20</title>
<path fill="none" stroke="midnightblue" d="M487.8,-701.12C411.37,-703.77 305.08,-707.45 246.19,-709.49"/>
<polygon fill="midnightblue" stroke="midnightblue" points="488.03,-704.62 497.91,-700.77 487.79,-697.62 488.03,-704.62"/>
</g>
<!-- Node21 -->
<g id="node21" class="node">
<title>Node21</title>
<g id="a_node21"><a xlink:href="TESTSUITE_2gfn1_8f90.html#ac31f203722d8bcd244f862a758833c52" target="_top" xlink:title=" ">
<polygon fill="white" stroke="black" points="149.5,-663.5 149.5,-682.5 253.5,-682.5 253.5,-663.5 149.5,-663.5"/>
<text text-anchor="middle" x="201.5" y="-670.5" font-family="Helvetica,sans-Serif" font-size="10.00">test_gfn1_pcem_api</text>
</a>
</g>
</g>
<!-- Node3&#45;&gt;Node21 -->
<g id="edge28" class="edge">
<title>Node3&#45;&gt;Node21</title>
<path fill="none" stroke="midnightblue" d="M487.75,-691.99C414.46,-687.11 313.73,-680.41 253.66,-676.41"/>
<polygon fill="midnightblue" stroke="midnightblue" points="487.7,-695.5 497.91,-692.67 488.16,-688.51 487.7,-695.5"/>
</g>
<!-- Node22 -->
<g id="node22" class="node">
<title>Node22</title>
<g id="a_node22"><a xlink:href="TESTSUITE_2gfn1_8f90.html#abbfab6177e30eca12113e729bde19ce5" target="_top" xlink:title=" ">
<polygon fill="white" stroke="black" points="165.5,-625.5 165.5,-644.5 237.5,-644.5 237.5,-625.5 165.5,-625.5"/>
<text text-anchor="middle" x="201.5" y="-632.5" font-family="Helvetica,sans-Serif" font-size="10.00">test_gfn1_xb</text>
</a>
</g>
</g>
<!-- Node3&#45;&gt;Node22 -->
<g id="edge30" class="edge">
<title>Node3&#45;&gt;Node22</title>
<path fill="none" stroke="midnightblue" d="M519.54,-686.55C501.14,-683.04 480.74,-679.26 462,-676 382.01,-662.1 287.8,-647.71 237.81,-640.23"/>
<polygon fill="midnightblue" stroke="midnightblue" points="519.04,-690.02 529.52,-688.46 520.36,-683.14 519.04,-690.02"/>
</g>
<!-- Node23 -->
<g id="node23" class="node">
<title>Node23</title>
<g id="a_node23"><a xlink:href="TESTSUITE_2gfn1_8f90.html#a1490695b43193805cceeef8a37fcbf7c" target="_top" xlink:title=" ">
<polygon fill="white" stroke="black" points="153.5,-587.5 153.5,-606.5 249.5,-606.5 249.5,-587.5 153.5,-587.5"/>
<text text-anchor="middle" x="201.5" y="-594.5" font-family="Helvetica,sans-Serif" font-size="10.00">test_gfn1gbsa_api</text>
</a>
</g>
</g>
<!-- Node3&#45;&gt;Node23 -->
<g id="edge32" class="edge">
<title>Node3&#45;&gt;Node23</title>
<path fill="none" stroke="midnightblue" d="M550.43,-683.78C527.34,-672.38 493.24,-656.74 462,-647 389.51,-624.39 302.29,-610.12 249.68,-602.85"/>
<polygon fill="midnightblue" stroke="midnightblue" points="549.1,-687.02 559.61,-688.37 552.23,-680.76 549.1,-687.02"/>
</g>
<!-- Node24 -->
<g id="node24" class="node">
<title>Node24</title>
<g id="a_node24"><a xlink:href="TESTSUITE_2gfn2_8f90.html#a70d451e4314ff3bf542cb76987d99403" target="_top" xlink:title=" ">
<polygon fill="white" stroke="black" points="164,-549.5 164,-568.5 239,-568.5 239,-549.5 164,-549.5"/>
<text text-anchor="middle" x="201.5" y="-556.5" font-family="Helvetica,sans-Serif" font-size="10.00">test_gfn2_api</text>
</a>
</g>
</g>
<!-- Node3&#45;&gt;Node24 -->
<g id="edge34" class="edge">
<title>Node3&#45;&gt;Node24</title>
<path fill="none" stroke="midnightblue" d="M561.6,-681.33C540.51,-660.93 501.83,-626.9 462,-609 387.51,-575.52 291.15,-564.43 239.35,-560.77"/>
<polygon fill="midnightblue" stroke="midnightblue" points="559.21,-683.89 568.79,-688.42 564.13,-678.91 559.21,-683.89"/>
</g>
<!-- Node25 -->
<g id="node25" class="node">
<title>Node25</title>
<g id="a_node25"><a xlink:href="TESTSUITE_2gfn2_8f90.html#af04fdb55f7b260a1fcd7b8edd8324f3b" target="_top" xlink:title=" ">
<polygon fill="white" stroke="black" points="341.5,-517.5 341.5,-536.5 433.5,-536.5 433.5,-517.5 341.5,-517.5"/>
<text text-anchor="middle" x="387.5" y="-524.5" font-family="Helvetica,sans-Serif" font-size="10.00">test_gfn2_dmetal</text>
</a>
</g>
</g>
<!-- Node3&#45;&gt;Node25 -->
<g id="edge36" class="edge">
<title>Node3&#45;&gt;Node25</title>
<path fill="none" stroke="midnightblue" d="M568.07,-679.19C550.68,-648.04 511.8,-585.75 462,-551 453.08,-544.78 442.45,-540.09 432.08,-536.59"/>
<polygon fill="midnightblue" stroke="midnightblue" points="565.08,-681.03 572.94,-688.14 571.23,-677.68 565.08,-681.03"/>
</g>
<!-- Node26 -->
<g id="node26" class="node">
<title>Node26</title>
<g id="a_node26"><a xlink:href="namespacetest__hessian.html#aa2cbc8daec8e2dacc7b6f3c63d0a3520" target="_top" xlink:title=" ">
<polygon fill="white" stroke="black" points="341,-822 341,-852 434,-852 434,-822 341,-822"/>
<text text-anchor="start" x="349" y="-840" font-family="Helvetica,sans-Serif" font-size="10.00">test_hessian::test</text>
<text text-anchor="middle" x="387.5" y="-829" font-family="Helvetica,sans-Serif" font-size="10.00">_gfn2_hessian</text>
</a>
</g>
</g>
<!-- Node3&#45;&gt;Node26 -->
<g id="edge38" class="edge">
<title>Node3&#45;&gt;Node26</title>
<path fill="none" stroke="midnightblue" d="M563.21,-715.44C542.56,-738.89 503,-780.67 462,-807 453.07,-812.73 442.86,-817.73 432.95,-821.92"/>
<polygon fill="midnightblue" stroke="midnightblue" points="566.02,-717.54 569.92,-707.7 560.73,-712.96 566.02,-717.54"/>
</g>
<!-- Node27 -->
<g id="node27" class="node">
<title>Node27</title>
<g id="a_node27"><a xlink:href="TESTSUITE_2gfn2_8f90.html#a1eefadfec1879c0b6523b30390aa7e5d" target="_top" xlink:title=" ">
<polygon fill="white" stroke="black" points="337,-468 337,-498 438,-498 438,-468 337,-468"/>
<text text-anchor="start" x="345" y="-486" font-family="Helvetica,sans-Serif" font-size="10.00">test_gfn2_mindless</text>
<text text-anchor="middle" x="387.5" y="-475" font-family="Helvetica,sans-Serif" font-size="10.00">_basic</text>
</a>
</g>
</g>
<!-- Node3&#45;&gt;Node27 -->
<g id="edge40" class="edge">
<title>Node3&#45;&gt;Node27</title>
<path fill="none" stroke="midnightblue" d="M571.33,-678.62C557.22,-640.42 520.73,-555.04 462,-508 454.95,-502.35 446.56,-497.95 438.01,-494.53"/>
<polygon fill="midnightblue" stroke="midnightblue" points="568.05,-679.84 574.72,-688.07 574.64,-677.48 568.05,-679.84"/>
</g>
<!-- Node28 -->
<g id="node28" class="node">
<title>Node28</title>
<g id="a_node28"><a xlink:href="TESTSUITE_2gfn2_8f90.html#a4f23556f554318a8e634c449c615c141" target="_top" xlink:title=" ">
<polygon fill="white" stroke="black" points="337,-419 337,-449 438,-449 438,-419 337,-419"/>
<text text-anchor="start" x="345" y="-437" font-family="Helvetica,sans-Serif" font-size="10.00">test_gfn2_mindless</text>
<text text-anchor="middle" x="387.5" y="-426" font-family="Helvetica,sans-Serif" font-size="10.00">_solvation</text>
</a>
</g>
</g>
<!-- Node3&#45;&gt;Node28 -->
<g id="edge42" class="edge">
<title>Node3&#45;&gt;Node28</title>
<path fill="none" stroke="midnightblue" d="M573.86,-678.12C563.36,-632.67 531.48,-520.36 462,-459 455.13,-452.93 446.72,-448.33 438.08,-444.83"/>
<polygon fill="midnightblue" stroke="midnightblue" points="570.5,-679.15 576.07,-688.16 577.33,-677.65 570.5,-679.15"/>
</g>
<!-- Node29 -->
<g id="node29" class="node">
<title>Node29</title>
<g id="a_node29"><a xlink:href="TESTSUITE_2gfn2_8f90.html#ac81932f59165e0c385bd69cb64d26596" target="_top" xlink:title=" ">
<polygon fill="white" stroke="black" points="335.5,-380.5 335.5,-399.5 439.5,-399.5 439.5,-380.5 335.5,-380.5"/>
<text text-anchor="middle" x="387.5" y="-387.5" font-family="Helvetica,sans-Serif" font-size="10.00">test_gfn2_pcem_api</text>
</a>
</g>
</g>
<!-- Node3&#45;&gt;Node29 -->
<g id="edge44" class="edge">
<title>Node3&#45;&gt;Node29</title>
<path fill="none" stroke="midnightblue" d="M575.99,-678.07C569.62,-625.85 545.14,-483.92 462,-410 455.68,-404.38 447.92,-400.31 439.84,-397.38"/>
<polygon fill="midnightblue" stroke="midnightblue" points="572.54,-678.77 577.14,-688.32 579.5,-677.99 572.54,-678.77"/>
</g>
<!-- Node30 -->
<g id="node30" class="node">
<title>Node30</title>
<g id="a_node30"><a xlink:href="TESTSUITE_2gfn2_8f90.html#aed7ca214cd762d9050db7170b51a35c8" target="_top" xlink:title=" ">
<polygon fill="white" stroke="black" points="339.5,-342.5 339.5,-361.5 435.5,-361.5 435.5,-342.5 339.5,-342.5"/>
<text text-anchor="middle" x="387.5" y="-349.5" font-family="Helvetica,sans-Serif" font-size="10.00">test_gfn2gbsa_api</text>
</a>
</g>
</g>
<!-- Node3&#45;&gt;Node30 -->
<g id="edge46" class="edge">
<title>Node3&#45;&gt;Node30</title>
<path fill="none" stroke="midnightblue" d="M577.12,-678.04C573.51,-621.06 555.1,-456.25 462,-371 454.71,-364.32 445.38,-359.93 435.84,-357.05"/>
<polygon fill="midnightblue" stroke="midnightblue" points="573.64,-678.43 577.68,-688.22 580.63,-678.04 573.64,-678.43"/>
</g>
<!-- Node31 -->
<g id="node31" class="node">
<title>Node31</title>
<g id="a_node31"><a xlink:href="TESTSUITE_2gfn2_8f90.html#ad7949dacaa3e9437ec5b0ba340a3fd0a" target="_top" xlink:title=" ">
<polygon fill="white" stroke="black" points="342,-304.5 342,-323.5 433,-323.5 433,-304.5 342,-304.5"/>
<text text-anchor="middle" x="387.5" y="-311.5" font-family="Helvetica,sans-Serif" font-size="10.00">test_gfn2salt_api</text>
</a>
</g>
</g>
<!-- Node3&#45;&gt;Node31 -->
<g id="edge48" class="edge">
<title>Node3&#45;&gt;Node31</title>
<path fill="none" stroke="midnightblue" d="M577.98,-678.22C576.78,-617.18 564.52,-430.05 462,-333 454.15,-325.57 443.79,-320.95 433.33,-318.1"/>
<polygon fill="midnightblue" stroke="midnightblue" points="574.48,-678.43 578.09,-688.39 581.48,-678.35 574.48,-678.43"/>
</g>
<!-- Node32 -->
<g id="node32" class="node">
<title>Node32</title>
<g id="a_node32"><a xlink:href="TESTSUITE_2gfn1_8f90.html#a03515b0f61961cb6b2f5e13846b87f34" target="_top" xlink:title=" ">
<polygon fill="white" stroke="black" points="344,-266.5 344,-285.5 431,-285.5 431,-266.5 344,-266.5"/>
<text text-anchor="middle" x="387.5" y="-273.5" font-family="Helvetica,sans-Serif" font-size="10.00">test_ipea_indole</text>
</a>
</g>
</g>
<!-- Node3&#45;&gt;Node32 -->
<g id="edge50" class="edge">
<title>Node3&#45;&gt;Node32</title>
<path fill="none" stroke="midnightblue" d="M578.67,-678.35C579.73,-613.46 573.98,-403.97 462,-295 453.69,-286.91 442.4,-282.14 431.18,-279.36"/>
<polygon fill="midnightblue" stroke="midnightblue" points="575.16,-678.34 578.42,-688.42 582.16,-678.51 575.16,-678.34"/>
</g>
<!-- Node33 -->
<g id="node33" class="node">
<title>Node33</title>
<g id="a_node33"><a xlink:href="peeq_8f90.html#af8323e2db7eee67ddad752d011ed55b4" target="_top" xlink:title=" ">
<polygon fill="white" stroke="black" points="349,-228.5 349,-247.5 426,-247.5 426,-228.5 349,-228.5"/>
<text text-anchor="middle" x="387.5" y="-235.5" font-family="Helvetica,sans-Serif" font-size="10.00">test_peeq_api</text>
</a>
</g>
</g>
<!-- Node3&#45;&gt;Node33 -->
<g id="edge52" class="edge">
<title>Node3&#45;&gt;Node33</title>
<path fill="none" stroke="midnightblue" d="M575.45,-678.14C565.1,-600.47 523.76,-318.5 462,-257 452.57,-247.61 439.14,-242.67 426.33,-240.13"/>
<polygon fill="midnightblue" stroke="midnightblue" points="572.03,-678.97 576.8,-688.43 578.97,-678.06 572.03,-678.97"/>
</g>
<!-- Node34 -->
<g id="node34" class="node">
<title>Node34</title>
<g id="a_node34"><a xlink:href="peeq_8f90.html#ae06226ed496a8128c1273abc638b62d0" target="_top" xlink:title=" ">
<polygon fill="white" stroke="black" points="153.5,-200.5 153.5,-219.5 249.5,-219.5 249.5,-200.5 153.5,-200.5"/>
<text text-anchor="middle" x="201.5" y="-207.5" font-family="Helvetica,sans-Serif" font-size="10.00">test_peeq_api_srb</text>
</a>
</g>
</g>
<!-- Node3&#45;&gt;Node34 -->
<g id="edge54" class="edge">
<title>Node3&#45;&gt;Node34</title>
<path fill="none" stroke="midnightblue" d="M576.31,-678.13C568.8,-595.31 535.63,-279.03 462,-219 395.96,-165.17 285.99,-185.92 232.95,-200.46"/>
<polygon fill="midnightblue" stroke="midnightblue" points="572.83,-678.57 577.2,-688.22 579.8,-677.95 572.83,-678.57"/>
</g>
<!-- Node8 -->
<g id="node8" class="node">
<title>Node8</title>
<g id="a_node8"><a xlink:href="namespacextb__prog__main.html#a92b3b61ee04235e6343f652095682529" target="_top" xlink:title=" ">
<polygon fill="white" stroke="black" points="142.5,-1110.5 142.5,-1129.5 260.5,-1129.5 260.5,-1110.5 142.5,-1110.5"/>
<text text-anchor="middle" x="201.5" y="-1117.5" font-family="Helvetica,sans-Serif" font-size="10.00">xtb_prog_main::xtbmain</text>
</a>
</g>
</g>
<!-- Node7&#45;&gt;Node8 -->
<g id="edge7" class="edge">
<title>Node7&#45;&gt;Node8</title>
<path fill="none" stroke="midnightblue" d="M302.69,-1120C288.47,-1120 273.98,-1120 260.61,-1120"/>
<polygon fill="midnightblue" stroke="midnightblue" points="302.99,-1123.5 312.99,-1120 302.99,-1116.5 302.99,-1123.5"/>
</g>
<!-- Node9 -->
<g id="node9" class="node">
<title>Node9</title>
<g id="a_node9"><a xlink:href="primary_8f90.html#a2a67903cf5be605c5b6d3c362c6a3c5c" target="_top" xlink:title="The primary driver for the xtb program package.">
<polygon fill="white" stroke="black" points="0,-1110.5 0,-1129.5 90,-1129.5 90,-1110.5 0,-1110.5"/>
<text text-anchor="middle" x="45" y="-1117.5" font-family="Helvetica,sans-Serif" font-size="10.00">xtb_prog_primary</text>
</a>
</g>
</g>
<!-- Node8&#45;&gt;Node9 -->
<g id="edge8" class="edge">
<title>Node8&#45;&gt;Node9</title>
<path fill="none" stroke="midnightblue" d="M131.85,-1120C117.66,-1120 103.07,-1120 90.04,-1120"/>
<polygon fill="midnightblue" stroke="midnightblue" points="132.09,-1123.5 142.09,-1120 132.09,-1116.5 132.09,-1123.5"/>
</g>
<!-- Node11 -->
<g id="node11" class="node">
<title>Node11</title>
<g id="a_node11"><a xlink:href="tests__peeq_8f90.html#a87ff5319e0d2e627a4f71d7df0d14891" target="_top" xlink:title=" ">
<polygon fill="white" stroke="black" points="11,-530.5 11,-549.5 79,-549.5 79,-530.5 11,-530.5"/>
<text text-anchor="middle" x="45" y="-537.5" font-family="Helvetica,sans-Serif" font-size="10.00">peeq_tester</text>
</a>
</g>
</g>
<!-- Node10&#45;&gt;Node11 -->
<g id="edge10" class="edge">
<title>Node10&#45;&gt;Node11</title>
<path fill="none" stroke="midnightblue" d="M153.83,-1077.08C143.37,-1074.06 133.25,-1069.09 126,-1061 54.72,-981.42 46.91,-613.57 46.09,-549.52"/>
<polygon fill="midnightblue" stroke="midnightblue" points="153.35,-1080.56 163.88,-1079.41 154.93,-1073.74 153.35,-1080.56"/>
</g>
<!-- Node12&#45;&gt;Node11 -->
<g id="edge12" class="edge">
<title>Node12&#45;&gt;Node11</title>
<path fill="none" stroke="midnightblue" d="M144.44,-1033.12C137.47,-1029.95 131.04,-1025.69 126,-1020 60.92,-946.45 48.06,-610.58 46.25,-549.53"/>
<polygon fill="midnightblue" stroke="midnightblue" points="143.6,-1036.54 154.19,-1036.8 146.07,-1029.99 143.6,-1036.54"/>
</g>
<!-- Node13&#45;&gt;Node11 -->
<g id="edge14" class="edge">
<title>Node13&#45;&gt;Node11</title>
<path fill="none" stroke="midnightblue" d="M141.68,-979.06C135.76,-975.53 130.35,-971.24 126,-966 70.62,-899.26 50.11,-607.34 46.57,-549.85"/>
<polygon fill="midnightblue" stroke="midnightblue" points="140.15,-982.2 150.64,-983.68 143.36,-975.98 140.15,-982.2"/>
</g>
<!-- Node14&#45;&gt;Node11 -->
<g id="edge16" class="edge">
<title>Node14&#45;&gt;Node11</title>
<path fill="none" stroke="midnightblue" d="M148.82,-920.9C140.17,-915.56 132.05,-908.99 126,-901 81.73,-842.53 52.75,-600.83 47.04,-549.58"/>
<polygon fill="midnightblue" stroke="midnightblue" points="147.17,-923.99 157.6,-925.84 150.6,-917.89 147.17,-923.99"/>
</g>
<!-- Node15&#45;&gt;Node11 -->
<g id="edge18" class="edge">
<title>Node15&#45;&gt;Node11</title>
<path fill="none" stroke="midnightblue" d="M339.75,-924.54C273.16,-915.83 155.75,-896.67 126,-867 78.93,-820.05 52.34,-598.3 47,-549.51"/>
<polygon fill="midnightblue" stroke="midnightblue" points="339.61,-928.06 349.98,-925.85 340.5,-921.11 339.61,-928.06"/>
</g>
<!-- Node17 -->
<g id="node17" class="node">
<title>Node17</title>
<g id="a_node17"><a xlink:href="namespacetest__hessian.html#aa70e893a0726ba1d7adb8ac2fa421d5f" target="_top" xlink:title=" ">
<polygon fill="white" stroke="black" points="126,-838.5 126,-857.5 277,-857.5 277,-838.5 126,-838.5"/>
<text text-anchor="middle" x="201.5" y="-845.5" font-family="Helvetica,sans-Serif" font-size="10.00">test_hessian::run_hessian_test</text>
</a>
</g>
</g>
<!-- Node16&#45;&gt;Node17 -->
<g id="edge20" class="edge">
<title>Node16&#45;&gt;Node17</title>
<path fill="none" stroke="midnightblue" d="M330.72,-874.48C304.43,-869.05 273.43,-862.65 248.51,-857.5"/>
<polygon fill="midnightblue" stroke="midnightblue" points="330.04,-877.91 340.54,-876.51 331.46,-871.06 330.04,-877.91"/>
</g>
<!-- Node17&#45;&gt;Node11 -->
<g id="edge21" class="edge">
<title>Node17&#45;&gt;Node11</title>
<path fill="none" stroke="midnightblue" d="M130.66,-833C129.02,-831.77 127.47,-830.44 126,-829 43.45,-748.11 43.91,-590.18 45.49,-549.66"/>
<polygon fill="midnightblue" stroke="midnightblue" points="129.05,-836.12 139.39,-838.41 132.73,-830.17 129.05,-836.12"/>
</g>
<!-- Node18&#45;&gt;Node11 -->
<g id="edge23" class="edge">
<title>Node18&#45;&gt;Node11</title>
<path fill="none" stroke="midnightblue" d="M141.54,-791.04C135.83,-788.08 130.5,-784.45 126,-780 57.96,-712.64 47.79,-585.96 46.27,-549.84"/>
<polygon fill="midnightblue" stroke="midnightblue" points="140.2,-794.27 150.75,-795.15 143.05,-787.88 140.2,-794.27"/>
</g>
<!-- Node19&#45;&gt;Node11 -->
<g id="edge25" class="edge">
<title>Node19&#45;&gt;Node11</title>
<path fill="none" stroke="midnightblue" d="M141.62,-740.74C135.94,-737.8 130.59,-734.26 126,-730 70.12,-678.15 51.84,-581.05 47.28,-549.89"/>
<polygon fill="midnightblue" stroke="midnightblue" points="140.2,-743.94 150.75,-744.87 143.08,-737.56 140.2,-743.94"/>
</g>
<!-- Node20&#45;&gt;Node11 -->
<g id="edge27" class="edge">
<title>Node20&#45;&gt;Node11</title>
<path fill="none" stroke="midnightblue" d="M147.05,-703.24C139.49,-700.52 132.19,-696.88 126,-692 77.07,-653.39 54.71,-576.51 48.15,-549.59"/>
<polygon fill="midnightblue" stroke="midnightblue" points="146.13,-706.62 156.72,-706.2 148.18,-699.92 146.13,-706.62"/>
</g>
<!-- Node21&#45;&gt;Node11 -->
<g id="edge29" class="edge">
<title>Node21&#45;&gt;Node11</title>
<path fill="none" stroke="midnightblue" d="M139.66,-661.47C134.84,-659.38 130.22,-656.91 126,-654 86.01,-626.39 59.5,-571.86 49.95,-549.7"/>
<polygon fill="midnightblue" stroke="midnightblue" points="138.52,-664.78 149.11,-665.03 141,-658.23 138.52,-664.78"/>
</g>
<!-- Node22&#45;&gt;Node11 -->
<g id="edge31" class="edge">
<title>Node22&#45;&gt;Node11</title>
<path fill="none" stroke="midnightblue" d="M155.46,-627.44C145.39,-624.69 135.03,-620.99 126,-616 94.48,-598.58 66.11,-565.76 53.26,-549.55"/>
<polygon fill="midnightblue" stroke="midnightblue" points="154.82,-630.89 165.37,-629.88 156.5,-624.09 154.82,-630.89"/>
</g>
<!-- Node23&#45;&gt;Node11 -->
<g id="edge33" class="edge">
<title>Node23&#45;&gt;Node11</title>
<path fill="none" stroke="midnightblue" d="M147.33,-584.79C140.1,-582.74 132.82,-580.46 126,-578 103.87,-570.01 79.62,-558 63.68,-549.62"/>
<polygon fill="midnightblue" stroke="midnightblue" points="146.56,-588.21 157.13,-587.45 148.4,-581.45 146.56,-588.21"/>
</g>
<!-- Node24&#45;&gt;Node11 -->
<g id="edge35" class="edge">
<title>Node24&#45;&gt;Node11</title>
<path fill="none" stroke="midnightblue" d="M153.89,-553.27C129.81,-550.31 100.99,-546.76 79.19,-544.08"/>
<polygon fill="midnightblue" stroke="midnightblue" points="153.53,-556.75 163.89,-554.5 154.39,-549.8 153.53,-556.75"/>
</g>
<!-- Node25&#45;&gt;Node11 -->
<g id="edge37" class="edge">
<title>Node25&#45;&gt;Node11</title>
<path fill="none" stroke="midnightblue" d="M331.12,-529.11C259.66,-531.84 137.58,-536.5 79.11,-538.74"/>
<polygon fill="midnightblue" stroke="midnightblue" points="331.43,-532.61 341.28,-528.73 331.16,-525.61 331.43,-532.61"/>
</g>
<!-- Node26&#45;&gt;Node17 -->
<g id="edge39" class="edge">
<title>Node26&#45;&gt;Node17</title>
<path fill="none" stroke="midnightblue" d="M330.37,-840.36C313.6,-841.36 294.95,-842.47 277.19,-843.54"/>
<polygon fill="midnightblue" stroke="midnightblue" points="330.77,-843.84 340.54,-839.75 330.35,-836.85 330.77,-843.84"/>
</g>
<!-- Node27&#45;&gt;Node11 -->
<g id="edge41" class="edge">
<title>Node27&#45;&gt;Node11</title>
<path fill="none" stroke="midnightblue" d="M326.72,-493.01C254.74,-505.06 136.41,-524.87 79.13,-534.45"/>
<polygon fill="midnightblue" stroke="midnightblue" points="327.7,-496.39 336.99,-491.29 326.55,-489.49 327.7,-496.39"/>
</g>
<!-- Node28&#45;&gt;Node11 -->
<g id="edge43" class="edge">
<title>Node28&#45;&gt;Node11</title>
<path fill="none" stroke="midnightblue" d="M326.85,-443.92C273.18,-453.9 192.76,-471.47 126,-497 102.29,-506.07 76.76,-520.74 61.08,-530.38"/>
<polygon fill="midnightblue" stroke="midnightblue" points="327.67,-447.33 336.88,-442.09 326.41,-440.44 327.67,-447.33"/>
</g>
<!-- Node29&#45;&gt;Node11 -->
<g id="edge45" class="edge">
<title>Node29&#45;&gt;Node11</title>
<path fill="none" stroke="midnightblue" d="M325.34,-393.55C269.92,-399.12 187.72,-413.4 126,-450 91.12,-470.69 63.16,-511.71 51.67,-530.36"/>
<polygon fill="midnightblue" stroke="midnightblue" points="325.74,-397.03 335.37,-392.61 325.08,-390.06 325.74,-397.03"/>
</g>
<!-- Node30&#45;&gt;Node11 -->
<g id="edge47" class="edge">
<title>Node30&#45;&gt;Node11</title>
<path fill="none" stroke="midnightblue" d="M328.89,-348.04C272.23,-347.07 185.76,-353.74 126,-396 77.43,-430.35 54.97,-503.94 48.26,-530.33"/>
<polygon fill="midnightblue" stroke="midnightblue" points="329.03,-351.54 339.12,-348.3 329.21,-344.55 329.03,-351.54"/>
</g>
<!-- Node31&#45;&gt;Node11 -->
<g id="edge49" class="edge">
<title>Node31&#45;&gt;Node11</title>
<path fill="none" stroke="midnightblue" d="M331.6,-305.5C274.4,-299.79 185.05,-300.11 126,-345 63.37,-392.61 49.51,-497.79 46.68,-530.26"/>
<polygon fill="midnightblue" stroke="midnightblue" points="331.57,-309.02 341.89,-306.63 332.33,-302.06 331.57,-309.02"/>
</g>
<!-- Node32&#45;&gt;Node11 -->
<g id="edge51" class="edge">
<title>Node32&#45;&gt;Node11</title>
<path fill="none" stroke="midnightblue" d="M333.45,-274.49C266.69,-273.68 157.01,-276.34 126,-301 50.82,-360.77 45.75,-493.75 45.83,-530.46"/>
<polygon fill="midnightblue" stroke="midnightblue" points="333.72,-277.99 343.77,-274.64 333.83,-270.99 333.72,-277.99"/>
</g>
<!-- Node33&#45;&gt;Node11 -->
<g id="edge53" class="edge">
<title>Node33&#45;&gt;Node11</title>
<path fill="none" stroke="midnightblue" d="M338.61,-237.79C272.3,-238.49 157.15,-243.63 126,-270 43.35,-339.97 43.83,-490.99 45.46,-530.42"/>
<polygon fill="midnightblue" stroke="midnightblue" points="338.84,-241.29 348.81,-237.71 338.78,-234.29 338.84,-241.29"/>
</g>
<!-- Node34&#45;&gt;Node11 -->
<g id="edge55" class="edge">
<title>Node34&#45;&gt;Node11</title>
<path fill="none" stroke="midnightblue" d="M144.06,-222.02C137.33,-225.35 131.06,-229.59 126,-235 42.82,-323.97 43.8,-488.68 45.48,-530.27"/>
<polygon fill="midnightblue" stroke="midnightblue" points="145.62,-225.16 153.46,-218.04 142.89,-218.72 145.62,-225.16"/>
</g>
<!-- Node35&#45;&gt;Node11 -->
<g id="edge57" class="edge">
<title>Node35&#45;&gt;Node11</title>
<path fill="none" stroke="midnightblue" d="M154.86,-175.12C144.18,-178.12 133.68,-183.03 126,-191 76.83,-242.03 51.79,-478.99 46.9,-530.22"/>
<polygon fill="midnightblue" stroke="midnightblue" points="155.69,-178.53 164.65,-172.88 154.13,-171.7 155.69,-178.53"/>
</g>
<!-- Node36&#45;&gt;Node11 -->
<g id="edge59" class="edge">
<title>Node36&#45;&gt;Node11</title>
<path fill="none" stroke="midnightblue" d="M152.28,-136.08C142.45,-139.39 132.98,-144.41 126,-152 72.58,-210.1 50.65,-475.86 46.68,-530.26"/>
<polygon fill="midnightblue" stroke="midnightblue" points="153.48,-139.38 162.16,-133.31 151.59,-132.64 153.48,-139.38"/>
</g>
<!-- Node37&#45;&gt;Node11 -->
<g id="edge61" class="edge">
<title>Node37&#45;&gt;Node11</title>
<path fill="none" stroke="midnightblue" d="M529.74,-81.51C425.68,-72.93 184.79,-59.35 126,-111 60.26,-168.76 48.02,-471.58 46.26,-530.18"/>
<polygon fill="midnightblue" stroke="midnightblue" points="529.71,-85.02 539.97,-82.37 530.3,-78.05 529.71,-85.02"/>
</g>
<!-- Node38&#45;&gt;Node11 -->
<g id="edge63" class="edge">
<title>Node38&#45;&gt;Node11</title>
<path fill="none" stroke="midnightblue" d="M538.28,-35.62C451.39,-11.25 242.88,32.03 126,-72 54.57,-135.57 46.9,-468.28 46.09,-530.11"/>
<polygon fill="midnightblue" stroke="midnightblue" points="537.44,-39.02 548.02,-38.42 539.37,-32.29 537.44,-39.02"/>
</g>
<!-- Node39&#45;&gt;Node2 -->
<g id="edge65" class="edge">
<title>Node39&#45;&gt;Node2</title>
<path fill="none" stroke="midnightblue" d="M838.65,-124C830.07,-124 821.41,-124 813.08,-124"/>
<polygon fill="midnightblue" stroke="midnightblue" points="838.65,-127.5 848.65,-124 838.65,-120.5 838.65,-127.5"/>
</g>
<!-- Node40&#45;&gt;Node2 -->
<g id="edge67" class="edge">
<title>Node40&#45;&gt;Node2</title>
<path fill="none" stroke="midnightblue" d="M862.03,-97.97C840.23,-103.29 814.93,-109.48 794.46,-114.48"/>
<polygon fill="midnightblue" stroke="midnightblue" points="862.88,-101.36 871.76,-95.59 861.22,-94.56 862.88,-101.36"/>
</g>
</g>
</svg>
        <g id="navigator" transform="translate(0 0)" fill="#404254">
                <rect fill="#f2f5e9" fill-opacity="0.5" stroke="#606060" stroke-width=".5" x="0" y="0" width="60" height="60"/>
                <use id="zoomplus" xlink:href="#zoomPlus" x="17" y="9" onmousedown="handleZoom(evt,'in')"/>
                <use id="zoomminus" xlink:href="#zoomMin" x="42" y="9" onmousedown="handleZoom(evt,'out')"/>
                <use id="reset" xlink:href="#resetDef" x="30" y="36" onmousedown="handleReset()"/>
                <g id="arrowUp" xlink:href="#dirArrow" transform="translate(30 24)" onmousedown="handlePan(0,-1)">
                  <use xlink:href="#rim" fill="#404040">
                        <set attributeName="fill" to="#808080" begin="arrowUp.mouseover" end="arrowUp.mouseout"/>
                  </use>
                  <path fill="none" stroke="white" stroke-width="1.5" d="M0,-3.0v7 M-2.5,-0.5L0,-3.0L2.5,-0.5"/>
                </g>
                <g id="arrowRight" xlink:href="#dirArrow" transform="rotate(90) translate(36 -43)" onmousedown="handlePan(1,0)">
                  <use xlink:href="#rim" fill="#404040">
                        <set attributeName="fill" to="#808080" begin="arrowRight.mouseover" end="arrowRight.mouseout"/>
                  </use>
                  <path fill="none" stroke="white" stroke-width="1.5" d="M0,-3.0v7 M-2.5,-0.5L0,-3.0L2.5,-0.5"/>
                </g>
                <g id="arrowDown" xlink:href="#dirArrow" transform="rotate(180) translate(-30 -48)" onmousedown="handlePan(0,1)">
                  <use xlink:href="#rim" fill="#404040">
                        <set attributeName="fill" to="#808080" begin="arrowDown.mouseover" end="arrowDown.mouseout"/>
                  </use>
                  <path fill="none" stroke="white" stroke-width="1.5" d="M0,-3.0v7 M-2.5,-0.5L0,-3.0L2.5,-0.5"/>
                </g>
                <g id="arrowLeft" xlink:href="#dirArrow" transform="rotate(270) translate(-36 17)" onmousedown="handlePan(-1,0)">
                  <use xlink:href="#rim" fill="#404040">
                        <set attributeName="fill" to="#808080" begin="arrowLeft.mouseover" end="arrowLeft.mouseout"/>
                  </use>
                  <path fill="none" stroke="white" stroke-width="1.5" d="M0,-3.0v7 M-2.5,-0.5L0,-3.0L2.5,-0.5"/>
                </g>
        </g>
        <svg viewBox="0 0 15 15" width="100%" height="30px" preserveAspectRatio="xMaxYMin meet">
         <g id="arrow_out" transform="scale(0.3 0.3)">
          <a xlink:href="namespacextb__slater_a19c2732e2b22af63a29d5e157f8415b3_icgraph_org.svg" target="_base">
           <rect id="button" ry="5" rx="5" y="6" x="6" height="38" width="38"
                fill="#f2f5e9" fill-opacity="0.5" stroke="#606060" stroke-width="1.0"/>
           <path id="arrow"
             d="M 11.500037,31.436501 C 11.940474,20.09759 22.043105,11.32322 32.158766,21.979434 L 37.068811,17.246167 C 37.068811,17.246167 37.088388,32 37.088388,32 L 22.160133,31.978069 C 22.160133,31.978069 26.997745,27.140456 26.997745,27.140456 C 18.528582,18.264221 13.291696,25.230495 11.500037,31.436501 z"
             style="fill:#404040;"/>
          </a>
         </g>
        </svg>
</svg>
