<?xml version="1.0" encoding="UTF-8" standalone="no"?>
<!DOCTYPE svg PUBLIC "-//W3C//DTD SVG 1.1//EN"
 "http://www.w3.org/Graphics/SVG/1.1/DTD/svg11.dtd">
<!-- Generated by graphviz version 2.43.0 (0)
 -->
<!-- Title: xtb_screening::qmdfftoscreen Pages: 1 -->
<svg width="737pt" height="28pt"
 viewBox="0.00 0.00 737.00 28.00" xmlns="http://www.w3.org/2000/svg" xmlns:xlink="http://www.w3.org/1999/xlink">
<g id="graph0" class="graph" transform="scale(1 1) rotate(0) translate(4 24)">
<title>xtb_screening::qmdfftoscreen</title>
<polygon fill="white" stroke="transparent" points="-4,4 -4,-24 733,-24 733,4 -4,4"/>
<!-- Node1 -->
<g id="node1" class="node">
<title>Node1</title>
<g id="a_node1"><a xlink:title=" ">
<polygon fill="#bfbfbf" stroke="black" points="0,-0.5 0,-19.5 161,-19.5 161,-0.5 0,-0.5"/>
<text text-anchor="middle" x="80.5" y="-7.5" font-family="Helvetica,sans-Serif" font-size="10.00">xtb_screening::qmdfftoscreen</text>
</a>
</g>
</g>
<!-- Node2 -->
<g id="node2" class="node">
<title>Node2</title>
<g id="a_node2"><a xlink:href="namespacextb__dynamic.html#aec7be712ef1a516d6d7f55481c391145" target="_top" xlink:title=" ">
<polygon fill="white" stroke="black" points="197,-0.5 197,-19.5 300,-19.5 300,-0.5 197,-0.5"/>
<text text-anchor="middle" x="248.5" y="-7.5" font-family="Helvetica,sans-Serif" font-size="10.00">xtb_dynamic::wrc</text>
</a>
</g>
</g>
<!-- Node1&#45;&gt;Node2 -->
<g id="edge1" class="edge">
<title>Node1&#45;&gt;Node2</title>
<path fill="none" stroke="midnightblue" d="M161.1,-10C169.73,-10 178.42,-10 186.78,-10"/>
<polygon fill="midnightblue" stroke="midnightblue" points="186.79,-13.5 196.79,-10 186.79,-6.5 186.79,-13.5"/>
</g>
<!-- Node3 -->
<g id="node3" class="node">
<title>Node3</title>
<g id="a_node3"><a xlink:href="namespacextb__mctc__symbols.html#abe837ad333242b4dd3073c5747c13e28" target="_top" xlink:title="Convert atomic number to element symbol.">
<polygon fill="white" stroke="black" points="336,-0.5 336,-19.5 496,-19.5 496,-0.5 336,-0.5"/>
<text text-anchor="middle" x="416" y="-7.5" font-family="Helvetica,sans-Serif" font-size="10.00">xtb_mctc_symbols::tosymbol</text>
</a>
</g>
</g>
<!-- Node2&#45;&gt;Node3 -->
<g id="edge2" class="edge">
<title>Node2&#45;&gt;Node3</title>
<path fill="none" stroke="midnightblue" d="M300.05,-10C308.19,-10 316.81,-10 325.53,-10"/>
<polygon fill="midnightblue" stroke="midnightblue" points="325.79,-13.5 335.79,-10 325.79,-6.5 325.79,-13.5"/>
</g>
<!-- Node4 -->
<g id="node4" class="node">
<title>Node4</title>
<g id="a_node4"><a xlink:href="namespacextb__mctc__symbols.html#a79bd74e1e6f1eae5387d103d33088dc8" target="_top" xlink:title="Convert atomic number to element symbol.">
<polygon fill="white" stroke="black" points="532,-0.5 532,-19.5 729,-19.5 729,-0.5 532,-0.5"/>
<text text-anchor="middle" x="630.5" y="-7.5" font-family="Helvetica,sans-Serif" font-size="10.00">xtb_mctc_symbols::numbertosymbol</text>
</a>
</g>
</g>
<!-- Node3&#45;&gt;Node4 -->
<g id="edge3" class="edge">
<title>Node3&#45;&gt;Node4</title>
<path fill="none" stroke="midnightblue" d="M496.13,-10C504.52,-10 513.16,-10 521.81,-10"/>
<polygon fill="midnightblue" stroke="midnightblue" points="521.96,-13.5 531.96,-10 521.96,-6.5 521.96,-13.5"/>
</g>
</g>
</svg>
