<?xml version="1.0" encoding="UTF-8" standalone="no"?>
<!DOCTYPE svg PUBLIC "-//W3C//DTD SVG 1.1//EN"
 "http://www.w3.org/Graphics/SVG/1.1/DTD/svg11.dtd">
<!-- Generated by graphviz version 2.43.0 (0)
 -->
<!-- Title: xtb_readin::bool2int Pages: 1 -->
<svg width="465pt" height="252pt"
 viewBox="0.00 0.00 465.00 252.00" xmlns="http://www.w3.org/2000/svg" xmlns:xlink="http://www.w3.org/1999/xlink">
<g id="graph0" class="graph" transform="scale(1 1) rotate(0) translate(4 248)">
<title>xtb_readin::bool2int</title>
<polygon fill="white" stroke="transparent" points="-4,4 -4,-248 461,-248 461,4 -4,4"/>
<!-- Node1 -->
<g id="node1" class="node">
<title>Node1</title>
<g id="a_node1"><a xlink:title=" ">
<polygon fill="#bfbfbf" stroke="black" points="343,-118 343,-137 457,-137 457,-118 343,-118"/>
<text text-anchor="middle" x="400" y="-125" font-family="Helvetica,sans-Serif" font-size="10.00">xtb_readin::bool2int</text>
</a>
</g>
</g>
<!-- Node2 -->
<g id="node2" class="node">
<title>Node2</title>
<g id="a_node2"><a xlink:href="namespacextb__setmod.html#a8fd5325a5779e581e47b05a8455aeefb" target="_top" xlink:title=" ">
<polygon fill="white" stroke="black" points="171.5,-213.5 171.5,-243.5 296.5,-243.5 296.5,-213.5 171.5,-213.5"/>
<text text-anchor="start" x="179.5" y="-231.5" font-family="Helvetica,sans-Serif" font-size="10.00">xtb_setmod::write_set</text>
<text text-anchor="middle" x="234" y="-220.5" font-family="Helvetica,sans-Serif" font-size="10.00">_embedding</text>
</a>
</g>
</g>
<!-- Node1&#45;&gt;Node2 -->
<g id="edge1" class="edge">
<title>Node1&#45;&gt;Node2</title>
<path fill="none" stroke="midnightblue" d="M382.5,-144.28C365.07,-161.21 336.13,-187.12 307,-203.5 300.43,-207.2 293.21,-210.49 285.96,-213.37"/>
<polygon fill="midnightblue" stroke="midnightblue" points="385.01,-146.72 389.66,-137.2 380.09,-141.75 385.01,-146.72"/>
</g>
<!-- Node4 -->
<g id="node4" class="node">
<title>Node4</title>
<g id="a_node4"><a xlink:href="namespacextb__setmod.html#ac22bae775b842ecafa07aac45a68fd4f" target="_top" xlink:title=" ">
<polygon fill="white" stroke="black" points="161,-175 161,-194 307,-194 307,-175 161,-175"/>
<text text-anchor="middle" x="234" y="-182" font-family="Helvetica,sans-Serif" font-size="10.00">xtb_setmod::write_set_gfn</text>
</a>
</g>
</g>
<!-- Node1&#45;&gt;Node4 -->
<g id="edge3" class="edge">
<title>Node1&#45;&gt;Node4</title>
<path fill="none" stroke="midnightblue" d="M368.83,-141.16C351.05,-148.9 328,-158.43 307,-165.5 296.71,-168.97 285.42,-172.2 274.89,-174.99"/>
<polygon fill="midnightblue" stroke="midnightblue" points="370.37,-144.3 378.11,-137.07 367.55,-137.9 370.37,-144.3"/>
</g>
<!-- Node5 -->
<g id="node5" class="node">
<title>Node5</title>
<g id="a_node5"><a xlink:href="namespacextb__setmod.html#ab59428b5771a85c761f944fe5a166b03" target="_top" xlink:title=" ">
<polygon fill="white" stroke="black" points="161,-137 161,-156 307,-156 307,-137 161,-137"/>
<text text-anchor="middle" x="234" y="-144" font-family="Helvetica,sans-Serif" font-size="10.00">xtb_setmod::write_set_md</text>
</a>
</g>
</g>
<!-- Node1&#45;&gt;Node5 -->
<g id="edge5" class="edge">
<title>Node1&#45;&gt;Node5</title>
<path fill="none" stroke="midnightblue" d="M332.52,-135.2C324.18,-136.17 315.61,-137.16 307.18,-138.14"/>
<polygon fill="midnightblue" stroke="midnightblue" points="333.03,-138.67 342.56,-134.04 332.22,-131.71 333.03,-138.67"/>
</g>
<!-- Node6 -->
<g id="node6" class="node">
<title>Node6</title>
<g id="a_node6"><a xlink:href="namespacextb__setmod.html#a7b77c420bf4f3f911bb16f9fc6be634e" target="_top" xlink:title=" ">
<polygon fill="white" stroke="black" points="161,-99 161,-118 307,-118 307,-99 161,-99"/>
<text text-anchor="middle" x="234" y="-106" font-family="Helvetica,sans-Serif" font-size="10.00">xtb_setmod::write_set_opt</text>
</a>
</g>
</g>
<!-- Node1&#45;&gt;Node6 -->
<g id="edge7" class="edge">
<title>Node1&#45;&gt;Node6</title>
<path fill="none" stroke="midnightblue" d="M332.52,-119.8C324.18,-118.83 315.61,-117.84 307.18,-116.86"/>
<polygon fill="midnightblue" stroke="midnightblue" points="332.22,-123.29 342.56,-120.96 333.03,-116.33 332.22,-123.29"/>
</g>
<!-- Node7 -->
<g id="node7" class="node">
<title>Node7</title>
<g id="a_node7"><a xlink:href="namespacextb__setmod.html#a25ef508a73f07241bdd24f3d87662983" target="_top" xlink:title=" ">
<polygon fill="white" stroke="black" points="171.5,-49.5 171.5,-79.5 296.5,-79.5 296.5,-49.5 171.5,-49.5"/>
<text text-anchor="start" x="179.5" y="-67.5" font-family="Helvetica,sans-Serif" font-size="10.00">xtb_setmod::write_set</text>
<text text-anchor="middle" x="234" y="-56.5" font-family="Helvetica,sans-Serif" font-size="10.00">_siman</text>
</a>
</g>
</g>
<!-- Node1&#45;&gt;Node7 -->
<g id="edge9" class="edge">
<title>Node1&#45;&gt;Node7</title>
<path fill="none" stroke="midnightblue" d="M367.55,-113.99C349.86,-106.52 327.31,-97.21 307,-89.5 298.22,-86.16 288.77,-82.76 279.7,-79.57"/>
<polygon fill="midnightblue" stroke="midnightblue" points="366.26,-117.24 376.83,-117.92 369,-110.8 366.26,-117.24"/>
</g>
<!-- Node8 -->
<g id="node8" class="node">
<title>Node8</title>
<g id="a_node8"><a xlink:href="namespacextb__setmod.html#a9a5fb0977050ae85a922b9c41859c617" target="_top" xlink:title=" ">
<polygon fill="white" stroke="black" points="171.5,-0.5 171.5,-30.5 296.5,-30.5 296.5,-0.5 171.5,-0.5"/>
<text text-anchor="start" x="179.5" y="-18.5" font-family="Helvetica,sans-Serif" font-size="10.00">xtb_setmod::write_set</text>
<text text-anchor="middle" x="234" y="-7.5" font-family="Helvetica,sans-Serif" font-size="10.00">_write</text>
</a>
</g>
</g>
<!-- Node1&#45;&gt;Node8 -->
<g id="edge11" class="edge">
<title>Node1&#45;&gt;Node8</title>
<path fill="none" stroke="midnightblue" d="M384.56,-109.96C367.75,-90.54 338.26,-59.49 307,-40.5 300.78,-36.72 293.91,-33.41 286.95,-30.55"/>
<polygon fill="midnightblue" stroke="midnightblue" points="382.02,-112.37 391.16,-117.74 387.36,-107.85 382.02,-112.37"/>
</g>
<!-- Node3 -->
<g id="node3" class="node">
<title>Node3</title>
<g id="a_node3"><a xlink:href="namespacextb__setmod.html#a231f7ceb2d188fd5e2b52effdca24ce9" target="_top" xlink:title=" ">
<polygon fill="white" stroke="black" points="0,-118 0,-137 125,-137 125,-118 0,-118"/>
<text text-anchor="middle" x="62.5" y="-125" font-family="Helvetica,sans-Serif" font-size="10.00">xtb_setmod::write_set</text>
</a>
</g>
</g>
<!-- Node2&#45;&gt;Node3 -->
<g id="edge2" class="edge">
<title>Node2&#45;&gt;Node3</title>
<path fill="none" stroke="midnightblue" d="M173.43,-209.57C169.15,-207.68 164.96,-205.66 161,-203.5 125.93,-184.43 90.35,-152.95 73.52,-137.16"/>
<polygon fill="midnightblue" stroke="midnightblue" points="172.32,-212.9 182.89,-213.5 175,-206.43 172.32,-212.9"/>
</g>
<!-- Node4&#45;&gt;Node3 -->
<g id="edge4" class="edge">
<title>Node4&#45;&gt;Node3</title>
<path fill="none" stroke="midnightblue" d="M183.63,-172.27C176.01,-170.15 168.27,-167.87 161,-165.5 134.92,-157.01 105.68,-145.31 86.09,-137.15"/>
<polygon fill="midnightblue" stroke="midnightblue" points="182.96,-175.71 193.53,-174.95 184.79,-168.96 182.96,-175.71"/>
</g>
<!-- Node5&#45;&gt;Node3 -->
<g id="edge6" class="edge">
<title>Node5&#45;&gt;Node3</title>
<path fill="none" stroke="midnightblue" d="M150.62,-137.27C142.07,-136.31 133.49,-135.35 125.22,-134.42"/>
<polygon fill="midnightblue" stroke="midnightblue" points="150.3,-140.75 160.63,-138.39 151.08,-133.79 150.3,-140.75"/>
</g>
<!-- Node6&#45;&gt;Node3 -->
<g id="edge8" class="edge">
<title>Node6&#45;&gt;Node3</title>
<path fill="none" stroke="midnightblue" d="M150.62,-117.73C142.07,-118.69 133.49,-119.65 125.22,-120.58"/>
<polygon fill="midnightblue" stroke="midnightblue" points="151.08,-121.21 160.63,-116.61 150.3,-114.25 151.08,-121.21"/>
</g>
<!-- Node7&#45;&gt;Node3 -->
<g id="edge10" class="edge">
<title>Node7&#45;&gt;Node3</title>
<path fill="none" stroke="midnightblue" d="M179.16,-82.95C173.02,-85.12 166.87,-87.34 161,-89.5 135.77,-98.79 107.12,-110.04 87.45,-117.88"/>
<polygon fill="midnightblue" stroke="midnightblue" points="180.47,-86.2 188.74,-79.58 178.14,-79.59 180.47,-86.2"/>
</g>
<!-- Node8&#45;&gt;Node3 -->
<g id="edge12" class="edge">
<title>Node8&#45;&gt;Node3</title>
<path fill="none" stroke="midnightblue" d="M172.29,-34.58C168.39,-36.42 164.59,-38.39 161,-40.5 123.64,-62.46 87.76,-100.08 71.94,-117.77"/>
<polygon fill="midnightblue" stroke="midnightblue" points="173.76,-37.76 181.53,-30.56 170.96,-31.35 173.76,-37.76"/>
</g>
</g>
</svg>
