<?xml version="1.0" encoding="UTF-8" standalone="no"?>
<!DOCTYPE svg PUBLIC "-//W3C//DTD SVG 1.1//EN"
 "http://www.w3.org/Graphics/SVG/1.1/DTD/svg11.dtd">
<!-- Generated by graphviz version 2.43.0 (0)
 -->
<!-- Title: xtb_intgrad::get_grad_multiint Pages: 1 -->
<svg width="444pt" height="192pt"
 viewBox="0.00 0.00 444.00 191.50" xmlns="http://www.w3.org/2000/svg" xmlns:xlink="http://www.w3.org/1999/xlink">
<g id="graph0" class="graph" transform="scale(1 1) rotate(0) translate(4 187.5)">
<title>xtb_intgrad::get_grad_multiint</title>
<polygon fill="white" stroke="transparent" points="-4,4 -4,-187.5 440,-187.5 440,4 -4,4"/>
<!-- Node1 -->
<g id="node1" class="node">
<title>Node1</title>
<g id="a_node1"><a xlink:title=" ">
<polygon fill="#bfbfbf" stroke="black" points="0,-49 0,-79 121,-79 121,-49 0,-49"/>
<text text-anchor="start" x="8" y="-67" font-family="Helvetica,sans-Serif" font-size="10.00">xtb_intgrad::get_grad</text>
<text text-anchor="middle" x="60.5" y="-56" font-family="Helvetica,sans-Serif" font-size="10.00">_multiint</text>
</a>
</g>
</g>
<!-- Node2 -->
<g id="node2" class="node">
<title>Node2</title>
<g id="a_node2"><a xlink:href="namespacextb__intgrad.html#adb53ca5789261bb96d2c95507842a461" target="_top" xlink:title=" ">
<polygon fill="white" stroke="black" points="165,-71 165,-101 267,-101 267,-71 165,-71"/>
<text text-anchor="start" x="173" y="-89" font-family="Helvetica,sans-Serif" font-size="10.00">xtb_intgrad::build</text>
<text text-anchor="middle" x="216" y="-78" font-family="Helvetica,sans-Serif" font-size="10.00">_dsdq_ints</text>
</a>
</g>
</g>
<!-- Node1&#45;&gt;Node2 -->
<g id="edge1" class="edge">
<title>Node1&#45;&gt;Node2</title>
<path fill="none" stroke="midnightblue" d="M121.29,-72.57C132.24,-74.14 143.69,-75.78 154.66,-77.35"/>
<polygon fill="midnightblue" stroke="midnightblue" points="154.18,-80.82 164.58,-78.77 155.17,-73.89 154.18,-80.82"/>
</g>
<!-- Node8 -->
<g id="node8" class="node">
<title>Node8</title>
<g id="a_node8"><a xlink:href="namespacextb__intgrad.html#a3182051be33b106f6c819954040fdc1b" target="_top" xlink:title="move gradient operator from center a to center b">
<polygon fill="white" stroke="black" points="157,-32.5 157,-51.5 275,-51.5 275,-32.5 157,-32.5"/>
<text text-anchor="middle" x="216" y="-39.5" font-family="Helvetica,sans-Serif" font-size="10.00">xtb_intgrad::shiftintg</text>
</a>
</g>
</g>
<!-- Node1&#45;&gt;Node8 -->
<g id="edge7" class="edge">
<title>Node1&#45;&gt;Node8</title>
<path fill="none" stroke="midnightblue" d="M121.29,-55.43C129.7,-54.23 138.39,-52.98 146.94,-51.75"/>
<polygon fill="midnightblue" stroke="midnightblue" points="147.49,-55.21 156.89,-50.33 146.49,-48.28 147.49,-55.21"/>
</g>
<!-- Node3 -->
<g id="node3" class="node">
<title>Node3</title>
<g id="a_node3"><a xlink:href="namespacextb__intgrad.html#a5bc6f86d12b5b4734f597a88800d8330" target="_top" xlink:title=" ">
<polygon fill="white" stroke="black" points="322.5,-153 322.5,-183 424.5,-183 424.5,-153 322.5,-153"/>
<text text-anchor="start" x="330.5" y="-171" font-family="Helvetica,sans-Serif" font-size="10.00">xtb_intgrad::build</text>
<text text-anchor="middle" x="373.5" y="-160" font-family="Helvetica,sans-Serif" font-size="10.00">_hshift2</text>
</a>
</g>
</g>
<!-- Node2&#45;&gt;Node3 -->
<g id="edge2" class="edge">
<title>Node2&#45;&gt;Node3</title>
<path fill="none" stroke="midnightblue" d="M239.6,-101.1C258.29,-113.25 285.76,-130.32 311,-143 314.99,-145 319.18,-146.97 323.42,-148.87"/>
<polygon fill="midnightblue" stroke="midnightblue" points="322.15,-152.14 332.72,-152.91 324.94,-145.72 322.15,-152.14"/>
</g>
<!-- Node4 -->
<g id="node4" class="node">
<title>Node4</title>
<g id="a_node4"><a xlink:href="namespacextb__intgrad.html#a1f9cf61176ecca277a73a81137c39a39" target="_top" xlink:title=" ">
<polygon fill="white" stroke="black" points="311,-114.5 311,-133.5 436,-133.5 436,-114.5 311,-114.5"/>
<text text-anchor="middle" x="373.5" y="-121.5" font-family="Helvetica,sans-Serif" font-size="10.00">xtb_intgrad::build_kab</text>
</a>
</g>
</g>
<!-- Node2&#45;&gt;Node4 -->
<g id="edge3" class="edge">
<title>Node2&#45;&gt;Node4</title>
<path fill="none" stroke="midnightblue" d="M267.06,-98.23C285.19,-102.66 305.62,-107.66 323.65,-112.06"/>
<polygon fill="midnightblue" stroke="midnightblue" points="322.84,-115.47 333.38,-114.44 324.5,-108.67 322.84,-115.47"/>
</g>
<!-- Node5 -->
<g id="node5" class="node">
<title>Node5</title>
<g id="a_node5"><a xlink:href="namespacextb__intgrad.html#a49b854bf505ac013ac50d12edb2e0de5" target="_top" xlink:title="returns center of product Gaussian from two Gaussians by GPT">
<polygon fill="white" stroke="black" points="313,-76.5 313,-95.5 434,-95.5 434,-76.5 313,-76.5"/>
<text text-anchor="middle" x="373.5" y="-83.5" font-family="Helvetica,sans-Serif" font-size="10.00">xtb_intgrad::gpcenter</text>
</a>
</g>
</g>
<!-- Node2&#45;&gt;Node5 -->
<g id="edge4" class="edge">
<title>Node2&#45;&gt;Node5</title>
<path fill="none" stroke="midnightblue" d="M267.06,-86C278.43,-86 290.72,-86 302.75,-86"/>
<polygon fill="midnightblue" stroke="midnightblue" points="302.76,-89.5 312.76,-86 302.76,-82.5 302.76,-89.5"/>
</g>
<!-- Node6 -->
<g id="node6" class="node">
<title>Node6</title>
<g id="a_node6"><a xlink:href="namespacextb__intgrad.html#a61582fac6cd8cc05eb76d4ced531ef6e" target="_top" xlink:title="calculates a partial overlap in one cartesian direction">
<polygon fill="white" stroke="black" points="321,-38.5 321,-57.5 426,-57.5 426,-38.5 321,-38.5"/>
<text text-anchor="middle" x="373.5" y="-45.5" font-family="Helvetica,sans-Serif" font-size="10.00">xtb_intgrad::olapp</text>
</a>
</g>
</g>
<!-- Node2&#45;&gt;Node6 -->
<g id="edge5" class="edge">
<title>Node2&#45;&gt;Node6</title>
<path fill="none" stroke="midnightblue" d="M267.06,-73.77C285.19,-69.34 305.62,-64.34 323.65,-59.94"/>
<polygon fill="midnightblue" stroke="midnightblue" points="324.5,-63.33 333.38,-57.56 322.84,-56.53 324.5,-63.33"/>
</g>
<!-- Node7 -->
<g id="node7" class="node">
<title>Node7</title>
<g id="a_node7"><a xlink:href="namespacextb__intgrad.html#a040b47e4b45c55028569fcad9704172a" target="_top" xlink:title=" ">
<polygon fill="white" stroke="black" points="320.5,-0.5 320.5,-19.5 426.5,-19.5 426.5,-0.5 320.5,-0.5"/>
<text text-anchor="middle" x="373.5" y="-7.5" font-family="Helvetica,sans-Serif" font-size="10.00">xtb_intgrad::prod3</text>
</a>
</g>
</g>
<!-- Node2&#45;&gt;Node7 -->
<g id="edge6" class="edge">
<title>Node2&#45;&gt;Node7</title>
<path fill="none" stroke="midnightblue" d="M256.56,-70.98C262.91,-68 269.26,-64.65 275,-61 293.06,-49.51 292.35,-39.51 311,-29 314.88,-26.81 319.05,-24.84 323.32,-23.08"/>
<polygon fill="midnightblue" stroke="midnightblue" points="324.61,-26.33 332.75,-19.54 322.16,-19.78 324.61,-26.33"/>
</g>
</g>
</svg>
