<?xml version="1.0" encoding="UTF-8" standalone="no"?>
<!DOCTYPE svg PUBLIC "-//W3C//DTD SVG 1.1//EN"
 "http://www.w3.org/Graphics/SVG/1.1/DTD/svg11.dtd">
<!-- Generated by graphviz version 2.43.0 (0)
 -->
<!-- Title: xtb_gfnff_eg::abhgfnff_eg3_mul Pages: 1 -->
<svg width="577pt" height="294pt"
 viewBox="0.00 0.00 577.00 294.00" xmlns="http://www.w3.org/2000/svg" xmlns:xlink="http://www.w3.org/1999/xlink">
<g id="graph0" class="graph" transform="scale(1 1) rotate(0) translate(4 290)">
<title>xtb_gfnff_eg::abhgfnff_eg3_mul</title>
<polygon fill="white" stroke="transparent" points="-4,4 -4,-290 573,-290 573,4 -4,4"/>
<!-- Node1 -->
<g id="node1" class="node">
<title>Node1</title>
<g id="a_node1"><a xlink:title=" ">
<polygon fill="#bfbfbf" stroke="black" points="0,-98 0,-128 124,-128 124,-98 0,-98"/>
<text text-anchor="start" x="8" y="-116" font-family="Helvetica,sans-Serif" font-size="10.00">xtb_gfnff_eg::abhgfnff</text>
<text text-anchor="middle" x="62" y="-105" font-family="Helvetica,sans-Serif" font-size="10.00">_eg3_mul</text>
</a>
</g>
</g>
<!-- Node2 -->
<g id="node2" class="node">
<title>Node2</title>
<g id="a_node2"><a xlink:href="constr_8f90.html#a32be9c5b624117bb5292ce41655493c1" target="_top" xlink:title=" ">
<polygon fill="white" stroke="black" points="200.5,-196.5 200.5,-215.5 244.5,-215.5 244.5,-196.5 200.5,-196.5"/>
<text text-anchor="middle" x="222.5" y="-203.5" font-family="Helvetica,sans-Serif" font-size="10.00">bangl</text>
</a>
</g>
</g>
<!-- Node1&#45;&gt;Node2 -->
<g id="edge1" class="edge">
<title>Node1&#45;&gt;Node2</title>
<path fill="none" stroke="midnightblue" d="M78.95,-128.04C97.24,-144.56 128.74,-170.9 160,-187 169.54,-191.91 180.57,-195.81 190.64,-198.77"/>
<polygon fill="midnightblue" stroke="midnightblue" points="189.72,-202.15 200.29,-201.41 191.57,-195.4 189.72,-202.15"/>
</g>
<!-- Node3 -->
<g id="node3" class="node">
<title>Node3</title>
<g id="a_node3"><a xlink:href="namespacextb__gfnff__eg.html#a0772d7bbd5499d6ba3a2ec3ed5dc18f6" target="_top" xlink:title=" ">
<polygon fill="white" stroke="black" points="163,-147 163,-177 282,-177 282,-147 163,-147"/>
<text text-anchor="start" x="171" y="-165" font-family="Helvetica,sans-Serif" font-size="10.00">xtb_gfnff_eg::egbend</text>
<text text-anchor="middle" x="222.5" y="-154" font-family="Helvetica,sans-Serif" font-size="10.00">_nci_mul</text>
</a>
</g>
</g>
<!-- Node1&#45;&gt;Node3 -->
<g id="edge2" class="edge">
<title>Node1&#45;&gt;Node3</title>
<path fill="none" stroke="midnightblue" d="M111.85,-128.1C128.04,-133.11 146.24,-138.73 163.08,-143.94"/>
<polygon fill="midnightblue" stroke="midnightblue" points="162.23,-147.34 172.81,-146.95 164.29,-140.65 162.23,-147.34"/>
</g>
<!-- Node9 -->
<g id="node9" class="node">
<title>Node9</title>
<g id="a_node9"><a xlink:href="math_8f.html#ac9ee911a71ac94ef47b9d30cb1253cc5" target="_top" xlink:title=" ">
<polygon fill="white" stroke="black" points="321,-38.5 321,-57.5 374,-57.5 374,-38.5 321,-38.5"/>
<text text-anchor="middle" x="347.5" y="-45.5" font-family="Helvetica,sans-Serif" font-size="10.00">valijklff</text>
</a>
</g>
</g>
<!-- Node1&#45;&gt;Node9 -->
<g id="edge23" class="edge">
<title>Node1&#45;&gt;Node9</title>
<path fill="none" stroke="midnightblue" d="M122.71,-97.97C135.02,-94.94 147.92,-91.82 160,-89 212.38,-76.77 273.28,-63.57 310.86,-55.55"/>
<polygon fill="midnightblue" stroke="midnightblue" points="311.76,-58.93 320.81,-53.43 310.3,-52.09 311.76,-58.93"/>
</g>
<!-- Node13 -->
<g id="node13" class="node">
<title>Node13</title>
<g id="a_node13"><a xlink:href="namespacextb__gfnff__eg.html#aa69db4968d8352d5ef43c52c26ad5660" target="_top" xlink:title=" ">
<polygon fill="white" stroke="black" points="165.5,-98 165.5,-128 279.5,-128 279.5,-98 165.5,-98"/>
<text text-anchor="start" x="173.5" y="-116" font-family="Helvetica,sans-Serif" font-size="10.00">xtb_gfnff_eg::egtors</text>
<text text-anchor="middle" x="222.5" y="-105" font-family="Helvetica,sans-Serif" font-size="10.00">_nci_mul</text>
</a>
</g>
</g>
<!-- Node1&#45;&gt;Node13 -->
<g id="edge15" class="edge">
<title>Node1&#45;&gt;Node13</title>
<path fill="none" stroke="midnightblue" d="M124.28,-113C134.41,-113 144.95,-113 155.19,-113"/>
<polygon fill="midnightblue" stroke="midnightblue" points="155.31,-116.5 165.31,-113 155.31,-109.5 155.31,-116.5"/>
</g>
<!-- Node15 -->
<g id="node15" class="node">
<title>Node15</title>
<g id="a_node15"><a xlink:href="namespacextb__gfnff__ini2.html#a68d1d020d0e7196fce23a88fac12e883" target="_top" xlink:title=" ">
<polygon fill="white" stroke="black" points="160,-21.5 160,-40.5 285,-40.5 285,-21.5 160,-21.5"/>
<text text-anchor="middle" x="222.5" y="-28.5" font-family="Helvetica,sans-Serif" font-size="10.00">xtb_gfnff_ini2::hbonds</text>
</a>
</g>
</g>
<!-- Node1&#45;&gt;Node15 -->
<g id="edge22" class="edge">
<title>Node1&#45;&gt;Node15</title>
<path fill="none" stroke="midnightblue" d="M85.91,-97.81C105.19,-85.4 133.75,-67.86 160,-55 167.84,-51.16 176.46,-47.48 184.71,-44.2"/>
<polygon fill="midnightblue" stroke="midnightblue" points="186.07,-47.43 194.14,-40.56 183.55,-40.9 186.07,-47.43"/>
</g>
<!-- Node4 -->
<g id="node4" class="node">
<title>Node4</title>
<g id="a_node4"><a xlink:href="constr_8f90.html#a33141d5407d1f5a7228c0039622893dd" target="_top" xlink:title=" ">
<polygon fill="white" stroke="black" points="324,-266.5 324,-285.5 371,-285.5 371,-266.5 324,-266.5"/>
<text text-anchor="middle" x="347.5" y="-273.5" font-family="Helvetica,sans-Serif" font-size="10.00">crprod</text>
</a>
</g>
</g>
<!-- Node3&#45;&gt;Node4 -->
<g id="edge3" class="edge">
<title>Node3&#45;&gt;Node4</title>
<path fill="none" stroke="midnightblue" d="M270.93,-177.13C276.01,-179.92 280.83,-183.19 285,-187 310.81,-210.61 298.39,-230.3 321,-257 321.82,-257.97 322.7,-258.92 323.63,-259.85"/>
<polygon fill="midnightblue" stroke="midnightblue" points="321.36,-262.52 331.23,-266.39 325.93,-257.21 321.36,-262.52"/>
</g>
<!-- Node5 -->
<g id="node5" class="node">
<title>Node5</title>
<g id="a_node5"><a xlink:href="constr_8f90.html#ae4f480642c40f2729449a02839cf06ce" target="_top" xlink:title=" ">
<polygon fill="white" stroke="black" points="324.5,-228.5 324.5,-247.5 370.5,-247.5 370.5,-228.5 324.5,-228.5"/>
<text text-anchor="middle" x="347.5" y="-235.5" font-family="Helvetica,sans-Serif" font-size="10.00">impsc</text>
</a>
</g>
</g>
<!-- Node3&#45;&gt;Node5 -->
<g id="edge4" class="edge">
<title>Node3&#45;&gt;Node5</title>
<path fill="none" stroke="midnightblue" d="M266.12,-177.1C272.63,-180.03 279.13,-183.35 285,-187 303.18,-198.31 304.4,-205.48 321,-219 322.32,-220.08 323.7,-221.17 325.1,-222.27"/>
<polygon fill="midnightblue" stroke="midnightblue" points="323.02,-225.08 333.1,-228.35 327.26,-219.51 323.02,-225.08"/>
</g>
<!-- Node6 -->
<g id="node6" class="node">
<title>Node6</title>
<g id="a_node6"><a xlink:href="constr_8f90.html#ae82fbacd108d547258e599e6ee56178b" target="_top" xlink:title=" ">
<polygon fill="white" stroke="black" points="322.5,-114.5 322.5,-133.5 372.5,-133.5 372.5,-114.5 322.5,-114.5"/>
<text text-anchor="middle" x="347.5" y="-121.5" font-family="Helvetica,sans-Serif" font-size="10.00">omega</text>
</a>
</g>
</g>
<!-- Node3&#45;&gt;Node6 -->
<g id="edge5" class="edge">
<title>Node3&#45;&gt;Node6</title>
<path fill="none" stroke="midnightblue" d="M272.11,-146.98C285.68,-142.79 300.12,-138.33 312.63,-134.46"/>
<polygon fill="midnightblue" stroke="midnightblue" points="313.68,-137.8 322.2,-131.51 311.61,-131.12 313.68,-137.8"/>
</g>
<!-- Node3&#45;&gt;Node9 -->
<g id="edge8" class="edge">
<title>Node3&#45;&gt;Node9</title>
<path fill="none" stroke="midnightblue" d="M272.49,-146.85C277,-144.32 281.27,-141.39 285,-138 311.2,-114.23 298.21,-94.06 321,-67 321.82,-66.03 322.7,-65.07 323.62,-64.15"/>
<polygon fill="midnightblue" stroke="midnightblue" points="325.92,-66.78 331.21,-57.6 321.35,-61.48 325.92,-66.78"/>
</g>
<!-- Node11 -->
<g id="node11" class="node">
<title>Node11</title>
<g id="a_node11"><a xlink:href="math_8f.html#acd26482df43e25a260c09d58fc43406b" target="_top" xlink:title=" ">
<polygon fill="white" stroke="black" points="328.5,-152.5 328.5,-171.5 366.5,-171.5 366.5,-152.5 328.5,-152.5"/>
<text text-anchor="middle" x="347.5" y="-159.5" font-family="Helvetica,sans-Serif" font-size="10.00">vlen</text>
</a>
</g>
</g>
<!-- Node3&#45;&gt;Node11 -->
<g id="edge13" class="edge">
<title>Node3&#45;&gt;Node11</title>
<path fill="none" stroke="midnightblue" d="M282.12,-162C294.74,-162 307.53,-162 318.34,-162"/>
<polygon fill="midnightblue" stroke="midnightblue" points="318.42,-165.5 328.42,-162 318.42,-158.5 318.42,-165.5"/>
</g>
<!-- Node12 -->
<g id="node12" class="node">
<title>Node12</title>
<g id="a_node12"><a xlink:href="math_8f.html#a2657695e1d293c10b5c09b6a7cc34fc0" target="_top" xlink:title=" ">
<polygon fill="white" stroke="black" points="327.5,-190.5 327.5,-209.5 367.5,-209.5 367.5,-190.5 327.5,-190.5"/>
<text text-anchor="middle" x="347.5" y="-197.5" font-family="Helvetica,sans-Serif" font-size="10.00">vsub</text>
</a>
</g>
</g>
<!-- Node3&#45;&gt;Node12 -->
<g id="edge14" class="edge">
<title>Node3&#45;&gt;Node12</title>
<path fill="none" stroke="midnightblue" d="M272.11,-177.02C287.52,-181.78 304.06,-186.89 317.63,-191.08"/>
<polygon fill="midnightblue" stroke="midnightblue" points="316.76,-194.48 327.35,-194.08 318.83,-187.79 316.76,-194.48"/>
</g>
<!-- Node7 -->
<g id="node7" class="node">
<title>Node7</title>
<g id="a_node7"><a xlink:href="constr_8f90.html#a10258b751fb1a02456622523df6e8b49" target="_top" xlink:title=" ">
<polygon fill="white" stroke="black" points="410,-76.5 410,-95.5 474,-95.5 474,-76.5 410,-76.5"/>
<text text-anchor="middle" x="442" y="-83.5" font-family="Helvetica,sans-Serif" font-size="10.00">crossprod</text>
</a>
</g>
</g>
<!-- Node6&#45;&gt;Node7 -->
<g id="edge6" class="edge">
<title>Node6&#45;&gt;Node7</title>
<path fill="none" stroke="midnightblue" d="M371.84,-114.41C382.91,-109.87 396.31,-104.36 408.36,-99.41"/>
<polygon fill="midnightblue" stroke="midnightblue" points="409.75,-102.62 417.67,-95.59 407.09,-96.15 409.75,-102.62"/>
</g>
<!-- Node8 -->
<g id="node8" class="node">
<title>Node8</title>
<g id="a_node8"><a xlink:href="constr_8f90.html#af5b7bb0960a128b6ee8d53b2f0ba2135" target="_top" xlink:title=" ">
<polygon fill="white" stroke="black" points="510,-76.5 510,-95.5 569,-95.5 569,-76.5 510,-76.5"/>
<text text-anchor="middle" x="539.5" y="-83.5" font-family="Helvetica,sans-Serif" font-size="10.00">vecnorm</text>
</a>
</g>
</g>
<!-- Node6&#45;&gt;Node8 -->
<g id="edge7" class="edge">
<title>Node6&#45;&gt;Node8</title>
<path fill="none" stroke="midnightblue" d="M372.55,-126.4C398.16,-128.22 439.65,-129.08 474,-120 488.87,-116.07 504.16,-108.21 516.11,-101.04"/>
<polygon fill="midnightblue" stroke="midnightblue" points="518.3,-103.79 524.92,-95.52 514.58,-97.86 518.3,-103.79"/>
</g>
<!-- Node9&#45;&gt;Node7 -->
<g id="edge9" class="edge">
<title>Node9&#45;&gt;Node7</title>
<path fill="none" stroke="midnightblue" d="M371.84,-57.59C382.91,-62.13 396.31,-67.64 408.36,-72.59"/>
<polygon fill="midnightblue" stroke="midnightblue" points="407.09,-75.85 417.67,-76.41 409.75,-69.38 407.09,-75.85"/>
</g>
<!-- Node9&#45;&gt;Node8 -->
<g id="edge12" class="edge">
<title>Node9&#45;&gt;Node8</title>
<path fill="none" stroke="midnightblue" d="M374.17,-50.85C399.67,-53.92 439.79,-59.41 474,-67 482.52,-68.89 491.56,-71.3 500.1,-73.76"/>
<polygon fill="midnightblue" stroke="midnightblue" points="499.24,-77.15 509.82,-76.64 501.23,-70.44 499.24,-77.15"/>
</g>
<!-- Node10 -->
<g id="node10" class="node">
<title>Node10</title>
<g id="a_node10"><a xlink:href="constr_8f90.html#a5fc70d66b0231afec39209517852b818" target="_top" xlink:title=" ">
<polygon fill="white" stroke="black" points="420,-0.5 420,-19.5 464,-19.5 464,-0.5 420,-0.5"/>
<text text-anchor="middle" x="442" y="-7.5" font-family="Helvetica,sans-Serif" font-size="10.00">valijk</text>
</a>
</g>
</g>
<!-- Node9&#45;&gt;Node10 -->
<g id="edge10" class="edge">
<title>Node9&#45;&gt;Node10</title>
<path fill="none" stroke="midnightblue" d="M371.84,-38.41C383.5,-33.62 397.75,-27.77 410.28,-22.62"/>
<polygon fill="midnightblue" stroke="midnightblue" points="411.96,-25.71 419.88,-18.68 409.3,-19.24 411.96,-25.71"/>
</g>
<!-- Node10&#45;&gt;Node8 -->
<g id="edge11" class="edge">
<title>Node10&#45;&gt;Node8</title>
<path fill="none" stroke="midnightblue" d="M455.41,-19.52C461.1,-23.9 467.91,-29.19 474,-34 489.04,-45.88 505.9,-59.48 518.61,-69.79"/>
<polygon fill="midnightblue" stroke="midnightblue" points="516.7,-72.76 526.67,-76.35 521.11,-67.32 516.7,-72.76"/>
</g>
<!-- Node13&#45;&gt;Node6 -->
<g id="edge19" class="edge">
<title>Node13&#45;&gt;Node6</title>
<path fill="none" stroke="midnightblue" d="M279.6,-118.02C290.79,-119.02 302.22,-120.04 312.4,-120.95"/>
<polygon fill="midnightblue" stroke="midnightblue" points="312.21,-124.45 322.48,-121.85 312.84,-117.48 312.21,-124.45"/>
</g>
<!-- Node13&#45;&gt;Node9 -->
<g id="edge20" class="edge">
<title>Node13&#45;&gt;Node9</title>
<path fill="none" stroke="midnightblue" d="M255.3,-97.97C264.9,-93.3 275.44,-88.05 285,-83 297.14,-76.59 310.39,-69.11 321.48,-62.72"/>
<polygon fill="midnightblue" stroke="midnightblue" points="323.32,-65.69 330.21,-57.64 319.81,-59.64 323.32,-65.69"/>
</g>
<!-- Node13&#45;&gt;Node11 -->
<g id="edge21" class="edge">
<title>Node13&#45;&gt;Node11</title>
<path fill="none" stroke="midnightblue" d="M261.41,-128.1C280.05,-135.53 302.11,-144.32 319.09,-151.08"/>
<polygon fill="midnightblue" stroke="midnightblue" points="317.86,-154.36 328.44,-154.81 320.45,-147.85 317.86,-154.36"/>
</g>
<!-- Node14 -->
<g id="node14" class="node">
<title>Node14</title>
<g id="a_node14"><a xlink:href="constr_8f90.html#abc3ba680c5057c12990e2e14673a87a6" target="_top" xlink:title=" ">
<polygon fill="white" stroke="black" points="324,-76.5 324,-95.5 371,-95.5 371,-76.5 324,-76.5"/>
<text text-anchor="middle" x="347.5" y="-83.5" font-family="Helvetica,sans-Serif" font-size="10.00">dphidr</text>
</a>
</g>
</g>
<!-- Node13&#45;&gt;Node14 -->
<g id="edge16" class="edge">
<title>Node13&#45;&gt;Node14</title>
<path fill="none" stroke="midnightblue" d="M279.6,-100.69C291.29,-98.12 303.24,-95.5 313.75,-93.19"/>
<polygon fill="midnightblue" stroke="midnightblue" points="314.7,-96.56 323.71,-91 313.19,-89.73 314.7,-96.56"/>
</g>
<!-- Node14&#45;&gt;Node7 -->
<g id="edge17" class="edge">
<title>Node14&#45;&gt;Node7</title>
<path fill="none" stroke="midnightblue" d="M371.37,-86C379.85,-86 389.76,-86 399.4,-86"/>
<polygon fill="midnightblue" stroke="midnightblue" points="399.68,-89.5 409.68,-86 399.68,-82.5 399.68,-89.5"/>
</g>
<!-- Node14&#45;&gt;Node8 -->
<g id="edge18" class="edge">
<title>Node14&#45;&gt;Node8</title>
<path fill="none" stroke="midnightblue" d="M371.19,-94.79C382.64,-98.77 396.85,-103.02 410,-105 438.13,-109.25 445.85,-109.06 474,-105 483.5,-103.63 493.56,-101.18 502.83,-98.48"/>
<polygon fill="midnightblue" stroke="midnightblue" points="503.99,-101.79 512.52,-95.5 501.93,-95.1 503.99,-101.79"/>
</g>
</g>
</svg>
