<?xml version="1.0" encoding="UTF-8" standalone="no"?>
<!DOCTYPE svg PUBLIC "-//W3C//DTD SVG 1.1//EN"
 "http://www.w3.org/Graphics/SVG/1.1/DTD/svg11.dtd">
<!-- Generated by graphviz version 2.43.0 (0)
 -->
<!-- Title: xtb_mctc_symbols::numbertosymbol Pages: 1 -->
<svg width="1659pt" height="1165pt"
 viewBox="0.00 0.00 1659.00 1164.87" xmlns="http://www.w3.org/2000/svg" xmlns:xlink="http://www.w3.org/1999/xlink">
<g id="graph0" class="graph" transform="scale(1 1) rotate(0) translate(4 1160.87)">
<title>xtb_mctc_symbols::numbertosymbol</title>
<polygon fill="white" stroke="transparent" points="-4,4 -4,-1160.87 1655,-1160.87 1655,4 -4,4"/>
<!-- Node1 -->
<g id="node1" class="node">
<title>Node1</title>
<g id="a_node1"><a xlink:title="Convert atomic number to element symbol.">
<polygon fill="#bfbfbf" stroke="black" points="1454,-392.5 1454,-411.5 1651,-411.5 1651,-392.5 1454,-392.5"/>
<text text-anchor="middle" x="1552.5" y="-399.5" font-family="Helvetica,sans-Serif" font-size="10.00">xtb_mctc_symbols::numbertosymbol</text>
</a>
</g>
</g>
<!-- Node2 -->
<g id="node2" class="node">
<title>Node2</title>
<g id="a_node2"><a xlink:href="namespacextb__mctc__symbols.html#abe837ad333242b4dd3073c5747c13e28" target="_top" xlink:title="Convert atomic number to element symbol.">
<polygon fill="white" stroke="black" points="1258,-392.5 1258,-411.5 1418,-411.5 1418,-392.5 1258,-392.5"/>
<text text-anchor="middle" x="1338" y="-399.5" font-family="Helvetica,sans-Serif" font-size="10.00">xtb_mctc_symbols::tosymbol</text>
</a>
</g>
</g>
<!-- Node1&#45;&gt;Node2 -->
<g id="edge1" class="edge">
<title>Node1&#45;&gt;Node2</title>
<path fill="none" stroke="midnightblue" d="M1443.81,-402C1435.16,-402 1426.52,-402 1418.12,-402"/>
<polygon fill="midnightblue" stroke="midnightblue" points="1443.96,-405.5 1453.96,-402 1443.96,-398.5 1443.96,-405.5"/>
</g>
<!-- Node3 -->
<g id="node3" class="node">
<title>Node3</title>
<g id="a_node3"><a xlink:href="namespacextb__fixparam.html#aa2a737e2dc6192503d874b4718d7fda2" target="_top" xlink:title=" ">
<polygon fill="white" stroke="black" points="1079.5,-796.5 1079.5,-815.5 1202.5,-815.5 1202.5,-796.5 1079.5,-796.5"/>
<text text-anchor="middle" x="1141" y="-803.5" font-family="Helvetica,sans-Serif" font-size="10.00">xtb_fixparam::fix_info</text>
</a>
</g>
</g>
<!-- Node2&#45;&gt;Node3 -->
<g id="edge2" class="edge">
<title>Node2&#45;&gt;Node3</title>
<path fill="none" stroke="midnightblue" d="M1337.16,-421.59C1336.55,-483.69 1326.05,-678.2 1222,-782 1215.64,-788.35 1207.66,-793.03 1199.23,-796.48"/>
<polygon fill="midnightblue" stroke="midnightblue" points="1340.66,-421.59 1337.17,-411.58 1333.66,-421.58 1340.66,-421.59"/>
</g>
<!-- Node4 -->
<g id="node4" class="node">
<title>Node4</title>
<g id="a_node4"><a xlink:href="geosum_8f90.html#a79191494bb201c6a1cbae96bf22fbf1b" target="_top" xlink:title=" ">
<polygon fill="white" stroke="black" points="915,-1024.5 915,-1043.5 971,-1043.5 971,-1024.5 915,-1024.5"/>
<text text-anchor="middle" x="943" y="-1031.5" font-family="Helvetica,sans-Serif" font-size="10.00">geosum</text>
</a>
</g>
</g>
<!-- Node2&#45;&gt;Node4 -->
<g id="edge3" class="edge">
<title>Node2&#45;&gt;Node4</title>
<path fill="none" stroke="midnightblue" d="M1336.75,-422.07C1334.86,-481.61 1320.81,-658.67 1222,-749 1167.42,-798.9 1115.06,-737.63 1060,-787 1024.21,-819.09 1043.68,-845.14 1024,-889 1000.23,-941.99 964.16,-1001.63 950,-1024.44"/>
<polygon fill="midnightblue" stroke="midnightblue" points="1340.25,-421.87 1336.99,-411.79 1333.26,-421.71 1340.25,-421.87"/>
</g>
<!-- Node9 -->
<g id="node9" class="node">
<title>Node9</title>
<g id="a_node9"><a xlink:href="namespacextb__modef.html#a39c4cb408b8b02afb7bf83a1d7f13de3" target="_top" xlink:title=" ">
<polygon fill="white" stroke="black" points="143,-518.5 143,-537.5 275,-537.5 275,-518.5 143,-518.5"/>
<text text-anchor="middle" x="209" y="-525.5" font-family="Helvetica,sans-Serif" font-size="10.00">xtb_modef::modefollow</text>
</a>
</g>
</g>
<!-- Node2&#45;&gt;Node9 -->
<g id="edge14" class="edge">
<title>Node2&#45;&gt;Node9</title>
<path fill="none" stroke="midnightblue" d="M1317.02,-418.05C1295.14,-434.62 1258.31,-459.59 1222,-471 1103.85,-508.11 1067.84,-490 944,-490 944,-490 944,-490 569.5,-490 454.3,-490 425.23,-494.11 311,-509 292.42,-511.42 272.09,-515.05 254.57,-518.5"/>
<polygon fill="midnightblue" stroke="midnightblue" points="1319.41,-420.63 1325.17,-411.74 1315.12,-415.1 1319.41,-420.63"/>
</g>
<!-- Node13 -->
<g id="node13" class="node">
<title>Node13</title>
<g id="a_node13"><a xlink:href="interfacextb__type__molecule_1_1init.html#a2b883d005efd91060d64685833279d3c" target="_top" xlink:title="Constructor for the molecular structure type.">
<polygon fill="white" stroke="black" points="1070,-431 1070,-461 1212,-461 1212,-431 1070,-431"/>
<text text-anchor="start" x="1078" y="-449" font-family="Helvetica,sans-Serif" font-size="10.00">xtb_type_molecule::</text>
<text text-anchor="middle" x="1141" y="-438" font-family="Helvetica,sans-Serif" font-size="10.00">init::initmoleculenumbers</text>
</a>
</g>
</g>
<!-- Node2&#45;&gt;Node13 -->
<g id="edge12" class="edge">
<title>Node2&#45;&gt;Node13</title>
<path fill="none" stroke="midnightblue" d="M1284.65,-413.81C1261.32,-419.08 1233.57,-425.34 1208.77,-430.93"/>
<polygon fill="midnightblue" stroke="midnightblue" points="1285.7,-417.16 1294.69,-411.55 1284.16,-410.33 1285.7,-417.16"/>
</g>
<!-- Node14 -->
<g id="node14" class="node">
<title>Node14</title>
<g id="a_node14"><a xlink:href="namespacextb__local.html#a6aafec43f9ac7235a5dfd2c36ed1f56b" target="_top" xlink:title=" ">
<polygon fill="white" stroke="black" points="1096,-392.5 1096,-411.5 1186,-411.5 1186,-392.5 1096,-392.5"/>
<text text-anchor="middle" x="1141" y="-399.5" font-family="Helvetica,sans-Serif" font-size="10.00">xtb_local::local</text>
</a>
</g>
</g>
<!-- Node2&#45;&gt;Node14 -->
<g id="edge13" class="edge">
<title>Node2&#45;&gt;Node14</title>
<path fill="none" stroke="midnightblue" d="M1247.85,-402C1226.43,-402 1204.46,-402 1186.14,-402"/>
<polygon fill="midnightblue" stroke="midnightblue" points="1247.97,-405.5 1257.97,-402 1247.97,-398.5 1247.97,-405.5"/>
</g>
<!-- Node15 -->
<g id="node15" class="node">
<title>Node15</title>
<g id="a_node15"><a xlink:href="structxtb__type__molecule_1_1tmolecule.html#aa6a9303ca81f04f7ce1cad8814c787be" target="_top" xlink:title="Constructor for the molecular structure type, compatible with C input.">
<polygon fill="white" stroke="black" points="1060,-343 1060,-373 1222,-373 1222,-343 1060,-343"/>
<text text-anchor="start" x="1068" y="-361" font-family="Helvetica,sans-Serif" font-size="10.00">xtb_type_molecule::</text>
<text text-anchor="middle" x="1141" y="-350" font-family="Helvetica,sans-Serif" font-size="10.00">tmolecule::new_molecule_api</text>
</a>
</g>
</g>
<!-- Node2&#45;&gt;Node15 -->
<g id="edge15" class="edge">
<title>Node2&#45;&gt;Node15</title>
<path fill="none" stroke="midnightblue" d="M1284.65,-390.19C1261.32,-384.92 1233.57,-378.66 1208.77,-373.07"/>
<polygon fill="midnightblue" stroke="midnightblue" points="1284.16,-393.67 1294.69,-392.45 1285.7,-386.84 1284.16,-393.67"/>
</g>
<!-- Node16 -->
<g id="node16" class="node">
<title>Node16</title>
<g id="a_node16"><a xlink:href="pocketscan_8f90.html#a0c9b80c2209ef5e38483d2af2e8e1c26" target="_top" xlink:title=" ">
<polygon fill="white" stroke="black" points="356,-518.5 356,-537.5 427,-537.5 427,-518.5 356,-518.5"/>
<text text-anchor="middle" x="391.5" y="-525.5" font-family="Helvetica,sans-Serif" font-size="10.00">pocketscan</text>
</a>
</g>
</g>
<!-- Node2&#45;&gt;Node16 -->
<g id="edge16" class="edge">
<title>Node2&#45;&gt;Node16</title>
<path fill="none" stroke="midnightblue" d="M1323.38,-419.72C1303.86,-443.62 1265.46,-485.33 1222,-504 1108.06,-552.96 1068.02,-528 944,-528 944,-528 944,-528 746.5,-528 629.42,-528 490.56,-528 427.17,-528"/>
<polygon fill="midnightblue" stroke="midnightblue" points="1326.2,-421.8 1329.69,-411.8 1320.72,-417.44 1326.2,-421.8"/>
</g>
<!-- Node17 -->
<g id="node17" class="node">
<title>Node17</title>
<g id="a_node17"><a xlink:href="namespacextb__scanparam.html#a98e6076b6bb1acc609033880889710ae" target="_top" xlink:title=" ">
<polygon fill="white" stroke="black" points="1072.5,-304.5 1072.5,-323.5 1209.5,-323.5 1209.5,-304.5 1072.5,-304.5"/>
<text text-anchor="middle" x="1141" y="-311.5" font-family="Helvetica,sans-Serif" font-size="10.00">xtb_scanparam::pot_info</text>
</a>
</g>
</g>
<!-- Node2&#45;&gt;Node17 -->
<g id="edge18" class="edge">
<title>Node2&#45;&gt;Node17</title>
<path fill="none" stroke="midnightblue" d="M1315.45,-386.67C1293.05,-371.37 1256.51,-348.17 1222,-334 1211.8,-329.81 1200.5,-326.34 1189.68,-323.52"/>
<polygon fill="midnightblue" stroke="midnightblue" points="1313.65,-389.68 1323.86,-392.5 1317.63,-383.92 1313.65,-389.68"/>
</g>
<!-- Node18 -->
<g id="node18" class="node">
<title>Node18</title>
<g id="a_node18"><a xlink:href="geometry_8f90.html#a4d2bb384ce483a743db9dc9e11a161db" target="_top" xlink:title=" ">
<polygon fill="white" stroke="black" points="1102.5,-228.5 1102.5,-247.5 1179.5,-247.5 1179.5,-228.5 1102.5,-228.5"/>
<text text-anchor="middle" x="1141" y="-235.5" font-family="Helvetica,sans-Serif" font-size="10.00">print_angles</text>
</a>
</g>
</g>
<!-- Node2&#45;&gt;Node18 -->
<g id="edge19" class="edge">
<title>Node2&#45;&gt;Node18</title>
<path fill="none" stroke="midnightblue" d="M1327.67,-383.45C1310.97,-352.22 1272.88,-289.38 1222,-257 1209.47,-249.03 1193.92,-244.4 1179.87,-241.71"/>
<polygon fill="midnightblue" stroke="midnightblue" points="1324.61,-385.15 1332.33,-392.4 1330.82,-381.92 1324.61,-385.15"/>
</g>
<!-- Node23 -->
<g id="node23" class="node">
<title>Node23</title>
<g id="a_node23"><a xlink:href="geometry_8f90.html#a554df298dcbe9e99639fdcb97d279e23" target="_top" xlink:title=" ">
<polygon fill="white" stroke="black" points="1095.5,-190.5 1095.5,-209.5 1186.5,-209.5 1186.5,-190.5 1095.5,-190.5"/>
<text text-anchor="middle" x="1141" y="-197.5" font-family="Helvetica,sans-Serif" font-size="10.00">print_distances</text>
</a>
</g>
</g>
<!-- Node2&#45;&gt;Node23 -->
<g id="edge24" class="edge">
<title>Node2&#45;&gt;Node23</title>
<path fill="none" stroke="midnightblue" d="M1330.42,-382.38C1316.66,-344.51 1281.14,-261.35 1222,-219 1211.67,-211.6 1198.85,-207.05 1186.53,-204.26"/>
<polygon fill="midnightblue" stroke="midnightblue" points="1327.24,-383.91 1333.86,-392.18 1333.85,-381.59 1327.24,-383.91"/>
</g>
<!-- Node24 -->
<g id="node24" class="node">
<title>Node24</title>
<g id="a_node24"><a xlink:href="geometry_8f90.html#a639eac540337b43593b473d984aae1fd" target="_top" xlink:title=" ">
<polygon fill="white" stroke="black" points="1095,-152.5 1095,-171.5 1187,-171.5 1187,-152.5 1095,-152.5"/>
<text text-anchor="middle" x="1141" y="-159.5" font-family="Helvetica,sans-Serif" font-size="10.00">print_elem_dist</text>
</a>
</g>
</g>
<!-- Node2&#45;&gt;Node24 -->
<g id="edge26" class="edge">
<title>Node2&#45;&gt;Node24</title>
<path fill="none" stroke="midnightblue" d="M1332.63,-382.29C1321.92,-338.76 1290.1,-234.08 1222,-181 1212.09,-173.28 1199.54,-168.62 1187.34,-165.83"/>
<polygon fill="midnightblue" stroke="midnightblue" points="1329.26,-383.26 1334.96,-392.19 1336.08,-381.66 1329.26,-383.26"/>
</g>
<!-- Node25 -->
<g id="node25" class="node">
<title>Node25</title>
<g id="a_node25"><a xlink:href="geometry_8f90.html#aed5ee91d57d2f80fc394aa9ab98ba14e" target="_top" xlink:title=" ">
<polygon fill="white" stroke="black" points="1099.5,-266.5 1099.5,-285.5 1182.5,-285.5 1182.5,-266.5 1099.5,-266.5"/>
<text text-anchor="middle" x="1141" y="-273.5" font-family="Helvetica,sans-Serif" font-size="10.00">print_torsions</text>
</a>
</g>
</g>
<!-- Node2&#45;&gt;Node25 -->
<g id="edge28" class="edge">
<title>Node2&#45;&gt;Node25</title>
<path fill="none" stroke="midnightblue" d="M1323.14,-384.32C1303.35,-360.32 1264.62,-317.8 1222,-295 1209.92,-288.53 1195.65,-284.25 1182.53,-281.41"/>
<polygon fill="midnightblue" stroke="midnightblue" points="1320.55,-386.68 1329.55,-392.26 1325.99,-382.28 1320.55,-386.68"/>
</g>
<!-- Node26 -->
<g id="node26" class="node">
<title>Node26</title>
<g id="a_node26"><a xlink:href="printmold_8f90.html#ad469ddc7f149974ab6ffd7b9fe8f855f" target="_top" xlink:title=" ">
<polygon fill="white" stroke="black" points="1109,-114.5 1109,-133.5 1173,-133.5 1173,-114.5 1109,-114.5"/>
<text text-anchor="middle" x="1141" y="-121.5" font-family="Helvetica,sans-Serif" font-size="10.00">printmold</text>
</a>
</g>
</g>
<!-- Node2&#45;&gt;Node26 -->
<g id="edge30" class="edge">
<title>Node2&#45;&gt;Node26</title>
<path fill="none" stroke="midnightblue" d="M1334.27,-382.32C1326.43,-333.68 1299.26,-207.16 1222,-143 1208.38,-131.69 1189.19,-126.88 1173.01,-124.92"/>
<polygon fill="midnightblue" stroke="midnightblue" points="1330.84,-383.07 1335.79,-392.44 1337.76,-382.03 1330.84,-383.07"/>
</g>
<!-- Node27 -->
<g id="node27" class="node">
<title>Node27</title>
<g id="a_node27"><a xlink:href="printmold_8f90.html#aa91a441b8fff5454b5b28c94613c924e" target="_top" xlink:title=" ">
<polygon fill="white" stroke="black" points="1106,-76.5 1106,-95.5 1176,-95.5 1176,-76.5 1106,-76.5"/>
<text text-anchor="middle" x="1141" y="-83.5" font-family="Helvetica,sans-Serif" font-size="10.00">printumold</text>
</a>
</g>
</g>
<!-- Node2&#45;&gt;Node27 -->
<g id="edge31" class="edge">
<title>Node2&#45;&gt;Node27</title>
<path fill="none" stroke="midnightblue" d="M1335.48,-382.02C1330.27,-328.4 1308.38,-180.34 1222,-105 1209.41,-94.02 1191.62,-89.11 1176.01,-87.01"/>
<polygon fill="midnightblue" stroke="midnightblue" points="1332.01,-382.57 1336.37,-392.23 1338.98,-381.96 1332.01,-382.57"/>
</g>
<!-- Node28 -->
<g id="node28" class="node">
<title>Node28</title>
<g id="a_node28"><a xlink:href="namespacextb__extern__mopac.html#a359cbd3fd1b222d1133d464e771a6aa6" target="_top" xlink:title=" ">
<polygon fill="white" stroke="black" points="862,-556.5 862,-575.5 1024,-575.5 1024,-556.5 862,-556.5"/>
<text text-anchor="middle" x="943" y="-563.5" font-family="Helvetica,sans-Serif" font-size="10.00">xtb_extern_mopac::runmopac</text>
</a>
</g>
</g>
<!-- Node2&#45;&gt;Node28 -->
<g id="edge32" class="edge">
<title>Node2&#45;&gt;Node28</title>
<path fill="none" stroke="midnightblue" d="M1327.96,-420.71C1311.69,-452.07 1274.24,-514.5 1222,-542 1161.13,-574.05 1082.25,-577.93 1024.07,-575.03"/>
<polygon fill="midnightblue" stroke="midnightblue" points="1331.13,-422.21 1332.49,-411.71 1324.87,-419.07 1331.13,-422.21"/>
</g>
<!-- Node30 -->
<g id="node30" class="node">
<title>Node30</title>
<g id="a_node30"><a xlink:href="namespacextb__extern__orca.html#a901f1a12914ee12c83e6c7ef9c7808e9" target="_top" xlink:title=" ">
<polygon fill="white" stroke="black" points="678.5,-632.5 678.5,-651.5 816.5,-651.5 816.5,-632.5 678.5,-632.5"/>
<text text-anchor="middle" x="747.5" y="-639.5" font-family="Helvetica,sans-Serif" font-size="10.00">xtb_extern_orca::runorca</text>
</a>
</g>
</g>
<!-- Node2&#45;&gt;Node30 -->
<g id="edge34" class="edge">
<title>Node2&#45;&gt;Node30</title>
<path fill="none" stroke="midnightblue" d="M1333.52,-421.79C1324.42,-466.78 1295.39,-576.42 1222,-623 1156.62,-664.5 931.35,-655.24 816.7,-647.43"/>
<polygon fill="midnightblue" stroke="midnightblue" points="1336.98,-422.3 1335.41,-411.82 1330.1,-420.99 1336.98,-422.3"/>
</g>
<!-- Node31 -->
<g id="node31" class="node">
<title>Node31</title>
<g id="a_node31"><a xlink:href="namespacextb__dynamic.html#aec7be712ef1a516d6d7f55481c391145" target="_top" xlink:title=" ">
<polygon fill="white" stroke="black" points="519,-670.5 519,-689.5 622,-689.5 622,-670.5 519,-670.5"/>
<text text-anchor="middle" x="570.5" y="-677.5" font-family="Helvetica,sans-Serif" font-size="10.00">xtb_dynamic::wrc</text>
</a>
</g>
</g>
<!-- Node2&#45;&gt;Node31 -->
<g id="edge36" class="edge">
<title>Node2&#45;&gt;Node31</title>
<path fill="none" stroke="midnightblue" d="M1334.58,-421.69C1327.48,-470.21 1301.85,-595.57 1222,-651 1125.66,-717.89 758.13,-695.4 622.32,-684.47"/>
<polygon fill="midnightblue" stroke="midnightblue" points="1338.08,-421.96 1335.95,-411.58 1331.14,-421.02 1338.08,-421.96"/>
</g>
<!-- Node33 -->
<g id="node33" class="node">
<title>Node33</title>
<g id="a_node33"><a xlink:href="namespacextb__printout.html#ad46f4deae1a660692a7f8b73cf9ce2bb" target="_top" xlink:title=" ">
<polygon fill="white" stroke="black" points="1064,-38.5 1064,-57.5 1218,-57.5 1218,-38.5 1064,-38.5"/>
<text text-anchor="middle" x="1141" y="-45.5" font-family="Helvetica,sans-Serif" font-size="10.00">xtb_printout::writecosmofile</text>
</a>
</g>
</g>
<!-- Node2&#45;&gt;Node33 -->
<g id="edge40" class="edge">
<title>Node2&#45;&gt;Node33</title>
<path fill="none" stroke="midnightblue" d="M1336.48,-382.23C1333.83,-324.36 1317.86,-153.95 1222,-67 1217.77,-63.16 1212.91,-60.06 1207.72,-57.56"/>
<polygon fill="midnightblue" stroke="midnightblue" points="1332.98,-382.38 1336.85,-392.24 1339.98,-382.12 1332.98,-382.38"/>
</g>
<!-- Node35 -->
<g id="node35" class="node">
<title>Node35</title>
<g id="a_node35"><a xlink:href="namespacextb__io__writer__genformat.html#a1810561c53a9646168270599b5046a16" target="_top" xlink:title=" ">
<polygon fill="white" stroke="black" points="1069.5,-709 1069.5,-739 1212.5,-739 1212.5,-709 1069.5,-709"/>
<text text-anchor="start" x="1077.5" y="-727" font-family="Helvetica,sans-Serif" font-size="10.00">xtb_io_writer_genformat</text>
<text text-anchor="middle" x="1141" y="-716" font-family="Helvetica,sans-Serif" font-size="10.00">::writemoleculegenformat</text>
</a>
</g>
</g>
<!-- Node2&#45;&gt;Node35 -->
<g id="edge42" class="edge">
<title>Node2&#45;&gt;Node35</title>
<path fill="none" stroke="midnightblue" d="M1334.75,-421.76C1327.82,-473.64 1302.16,-615.14 1222,-694 1215.76,-700.14 1208.15,-705.04 1200.13,-708.95"/>
<polygon fill="midnightblue" stroke="midnightblue" points="1338.25,-421.95 1336.02,-411.6 1331.31,-421.09 1338.25,-421.95"/>
</g>
<!-- Node46 -->
<g id="node46" class="node">
<title>Node46</title>
<g id="a_node46"><a xlink:href="extern_2turbomole_8f90.html#a1b2f083787559efa63c60fcbe7b22486" target="_top" xlink:title=" ">
<polygon fill="white" stroke="black" points="1120,-594.5 1120,-613.5 1162,-613.5 1162,-594.5 1120,-594.5"/>
<text text-anchor="middle" x="1141" y="-601.5" font-family="Helvetica,sans-Serif" font-size="10.00">wrtm</text>
</a>
</g>
</g>
<!-- Node2&#45;&gt;Node46 -->
<g id="edge64" class="edge">
<title>Node2&#45;&gt;Node46</title>
<path fill="none" stroke="midnightblue" d="M1329.84,-421.31C1315.29,-457.88 1278.76,-537.36 1222,-580 1204.38,-593.24 1179.48,-599.22 1162.16,-601.89"/>
<polygon fill="midnightblue" stroke="midnightblue" points="1333.17,-422.4 1333.5,-411.82 1326.64,-419.88 1333.17,-422.4"/>
</g>
<!-- Node48 -->
<g id="node48" class="node">
<title>Node48</title>
<g id="a_node48"><a xlink:href="zmatpr_8f90.html#a837a96eb93a9168d9ad8d7f05de10490" target="_top" xlink:title=" ">
<polygon fill="white" stroke="black" points="1115.5,-0.5 1115.5,-19.5 1166.5,-19.5 1166.5,-0.5 1115.5,-0.5"/>
<text text-anchor="middle" x="1141" y="-7.5" font-family="Helvetica,sans-Serif" font-size="10.00">zmatpr</text>
</a>
</g>
</g>
<!-- Node2&#45;&gt;Node48 -->
<g id="edge67" class="edge">
<title>Node2&#45;&gt;Node48</title>
<path fill="none" stroke="midnightblue" d="M1337.27,-382.13C1336.99,-319.97 1327.26,-127.55 1222,-29 1207.2,-15.15 1184.21,-10.82 1166.66,-9.71"/>
<polygon fill="midnightblue" stroke="midnightblue" points="1333.77,-382.45 1337.23,-392.46 1340.77,-382.47 1333.77,-382.45"/>
</g>
<!-- Node5 -->
<g id="node5" class="node">
<title>Node5</title>
<g id="a_node5"><a xlink:href="namespacextb__geoopt.html#a1f0513294f2237b94f355cc4dc5dd867" target="_top" xlink:title=" ">
<polygon fill="white" stroke="black" points="329,-913 329,-943 454,-943 454,-913 329,-913"/>
<text text-anchor="start" x="337" y="-931" font-family="Helvetica,sans-Serif" font-size="10.00">xtb_geoopt::geometry</text>
<text text-anchor="middle" x="391.5" y="-920" font-family="Helvetica,sans-Serif" font-size="10.00">_optimization</text>
</a>
</g>
</g>
<!-- Node4&#45;&gt;Node5 -->
<g id="edge4" class="edge">
<title>Node4&#45;&gt;Node5</title>
<path fill="none" stroke="midnightblue" d="M904.93,-1046.56C882.4,-1053.52 852.88,-1061.47 826,-1065 756.82,-1074.08 738.16,-1074.28 669,-1065 595.48,-1055.13 574.06,-1054.75 508,-1021 467.42,-1000.27 427.74,-963.75 407.12,-943.18"/>
<polygon fill="midnightblue" stroke="midnightblue" points="906.27,-1049.8 914.75,-1043.45 904.16,-1043.13 906.27,-1049.8"/>
</g>
<!-- Node6 -->
<g id="node6" class="node">
<title>Node6</title>
<g id="a_node6"><a xlink:href="namespacextb__kopt.html#ada4ab70832f563f46c8ffc8cea64c78b" target="_top" xlink:title=" ">
<polygon fill="white" stroke="black" points="154,-918.5 154,-937.5 264,-937.5 264,-918.5 154,-918.5"/>
<text text-anchor="middle" x="209" y="-925.5" font-family="Helvetica,sans-Serif" font-size="10.00">xtb_kopt::get_rmsd</text>
</a>
</g>
</g>
<!-- Node5&#45;&gt;Node6 -->
<g id="edge5" class="edge">
<title>Node5&#45;&gt;Node6</title>
<path fill="none" stroke="midnightblue" d="M318.88,-928C300.62,-928 281.31,-928 264.09,-928"/>
<polygon fill="midnightblue" stroke="midnightblue" points="318.89,-931.5 328.89,-928 318.89,-924.5 318.89,-931.5"/>
</g>
<!-- Node8 -->
<g id="node8" class="node">
<title>Node8</title>
<g id="a_node8"><a xlink:href="namespacextb__mdoptim.html#ab0ba2195163cd6794115b99516ba5316" target="_top" xlink:title=" ">
<polygon fill="white" stroke="black" points="149.5,-1082.5 149.5,-1101.5 268.5,-1101.5 268.5,-1082.5 149.5,-1082.5"/>
<text text-anchor="middle" x="209" y="-1089.5" font-family="Helvetica,sans-Serif" font-size="10.00">xtb_mdoptim::mdopt</text>
</a>
</g>
</g>
<!-- Node5&#45;&gt;Node8 -->
<g id="edge7" class="edge">
<title>Node5&#45;&gt;Node8</title>
<path fill="none" stroke="midnightblue" d="M369.95,-950.59C347.54,-974.74 310.19,-1013.65 275,-1044 258.32,-1058.39 237.65,-1073.18 224.16,-1082.47"/>
<polygon fill="midnightblue" stroke="midnightblue" points="372.74,-952.73 376.94,-943.01 367.59,-947.98 372.74,-952.73"/>
</g>
<!-- Node5&#45;&gt;Node9 -->
<g id="edge8" class="edge">
<title>Node5&#45;&gt;Node9</title>
<path fill="none" stroke="midnightblue" d="M363.97,-905.83C346.32,-889.64 324.06,-866.2 311,-841 276.66,-774.75 298.03,-747.98 275,-677 257.32,-622.5 226.81,-560.74 214.93,-537.51"/>
<polygon fill="midnightblue" stroke="midnightblue" points="361.91,-908.68 371.7,-912.73 366.57,-903.46 361.91,-908.68"/>
</g>
<!-- Node10 -->
<g id="node10" class="node">
<title>Node10</title>
<g id="a_node10"><a xlink:href="namespacextb__scan.html#abef8f8d0fa299e9e2caf823f3672f14a" target="_top" xlink:title=" ">
<polygon fill="white" stroke="black" points="144,-1015.5 144,-1034.5 274,-1034.5 274,-1015.5 144,-1015.5"/>
<text text-anchor="middle" x="209" y="-1022.5" font-family="Helvetica,sans-Serif" font-size="10.00">xtb_scan::relaxed_scan</text>
</a>
</g>
</g>
<!-- Node5&#45;&gt;Node10 -->
<g id="edge9" class="edge">
<title>Node5&#45;&gt;Node10</title>
<path fill="none" stroke="midnightblue" d="M353.04,-948.13C314.84,-968.66 257.2,-999.63 228.13,-1015.26"/>
<polygon fill="midnightblue" stroke="midnightblue" points="355.15,-950.97 362.3,-943.16 351.83,-944.81 355.15,-950.97"/>
</g>
<!-- Node11 -->
<g id="node11" class="node">
<title>Node11</title>
<g id="a_node11"><a xlink:href="namespacextb__screening.html#a7f4004ff0e65127a38b038f0a7cdcc84" target="_top" xlink:title=" ">
<polygon fill="white" stroke="black" points="147.5,-686.5 147.5,-705.5 270.5,-705.5 270.5,-686.5 147.5,-686.5"/>
<text text-anchor="middle" x="209" y="-693.5" font-family="Helvetica,sans-Serif" font-size="10.00">xtb_screening::screen</text>
</a>
</g>
</g>
<!-- Node5&#45;&gt;Node11 -->
<g id="edge10" class="edge">
<title>Node5&#45;&gt;Node11</title>
<path fill="none" stroke="midnightblue" d="M368.41,-905.5C351.96,-888.35 329.28,-863.87 311,-841 272.11,-792.36 231.39,-729.68 216.19,-705.82"/>
<polygon fill="midnightblue" stroke="midnightblue" points="366.03,-908.07 375.5,-912.83 371.07,-903.21 366.03,-908.07"/>
</g>
<!-- Node12 -->
<g id="node12" class="node">
<title>Node12</title>
<g id="a_node12"><a xlink:href="namespacextb__gfnff__convert.html#adf399b47b9f2a8364327d9d5c38cb2b8" target="_top" xlink:title=" ">
<polygon fill="white" stroke="black" points="155,-809 155,-839 263,-839 263,-809 155,-809"/>
<text text-anchor="start" x="163" y="-827" font-family="Helvetica,sans-Serif" font-size="10.00">xtb_gfnff_convert::</text>
<text text-anchor="middle" x="209" y="-816" font-family="Helvetica,sans-Serif" font-size="10.00">struc_convert</text>
</a>
</g>
</g>
<!-- Node5&#45;&gt;Node12 -->
<g id="edge11" class="edge">
<title>Node5&#45;&gt;Node12</title>
<path fill="none" stroke="midnightblue" d="M355.35,-907.75C320.44,-887.63 267.71,-857.25 236.28,-839.14"/>
<polygon fill="midnightblue" stroke="midnightblue" points="353.84,-910.92 364.25,-912.88 357.34,-904.85 353.84,-910.92"/>
</g>
<!-- Node7 -->
<g id="node7" class="node">
<title>Node7</title>
<g id="a_node7"><a xlink:href="namespacextb__kopt.html#aed50b40106367857ab2d0bf3a109f62b" target="_top" xlink:title=" ">
<polygon fill="white" stroke="black" points="0,-918.5 0,-937.5 107,-937.5 107,-918.5 0,-918.5"/>
<text text-anchor="middle" x="53.5" y="-925.5" font-family="Helvetica,sans-Serif" font-size="10.00">xtb_kopt::get_kopt</text>
</a>
</g>
</g>
<!-- Node6&#45;&gt;Node7 -->
<g id="edge6" class="edge">
<title>Node6&#45;&gt;Node7</title>
<path fill="none" stroke="midnightblue" d="M143.75,-928C131.54,-928 118.9,-928 107.1,-928"/>
<polygon fill="midnightblue" stroke="midnightblue" points="143.88,-931.5 153.88,-928 143.88,-924.5 143.88,-931.5"/>
</g>
<!-- Node16&#45;&gt;Node9 -->
<g id="edge17" class="edge">
<title>Node16&#45;&gt;Node9</title>
<path fill="none" stroke="midnightblue" d="M345.63,-528C324.32,-528 298.44,-528 275.02,-528"/>
<polygon fill="midnightblue" stroke="midnightblue" points="345.7,-531.5 355.7,-528 345.7,-524.5 345.7,-531.5"/>
</g>
<!-- Node19 -->
<g id="node19" class="node">
<title>Node19</title>
<g id="a_node19"><a xlink:href="geometry_8f90.html#a9062f3787220118ef48436b46c7c65cc" target="_top" xlink:title=" ">
<polygon fill="white" stroke="black" points="901.5,-209.5 901.5,-228.5 984.5,-228.5 984.5,-209.5 901.5,-209.5"/>
<text text-anchor="middle" x="943" y="-216.5" font-family="Helvetica,sans-Serif" font-size="10.00">print_geosum</text>
</a>
</g>
</g>
<!-- Node18&#45;&gt;Node19 -->
<g id="edge20" class="edge">
<title>Node18&#45;&gt;Node19</title>
<path fill="none" stroke="midnightblue" d="M1091.92,-233.34C1059.03,-230.15 1015.91,-225.97 984.72,-222.95"/>
<polygon fill="midnightblue" stroke="midnightblue" points="1091.92,-236.86 1102.21,-234.34 1092.59,-229.89 1091.92,-236.86"/>
</g>
<!-- Node20 -->
<g id="node20" class="node">
<title>Node20</title>
<g id="a_node20"><a xlink:href="geometry_8f90.html#a23b2001cff658be234bf77942d0d5fd4" target="_top" xlink:title=" ">
<polygon fill="white" stroke="black" points="700.5,-209.5 700.5,-228.5 794.5,-228.5 794.5,-209.5 700.5,-209.5"/>
<text text-anchor="middle" x="747.5" y="-216.5" font-family="Helvetica,sans-Serif" font-size="10.00">main_geometry</text>
</a>
</g>
</g>
<!-- Node19&#45;&gt;Node20 -->
<g id="edge21" class="edge">
<title>Node19&#45;&gt;Node20</title>
<path fill="none" stroke="midnightblue" d="M891.21,-219C861.34,-219 823.84,-219 794.79,-219"/>
<polygon fill="midnightblue" stroke="midnightblue" points="891.44,-222.5 901.44,-219 891.44,-215.5 891.44,-222.5"/>
</g>
<!-- Node21 -->
<g id="node21" class="node">
<title>Node21</title>
<g id="a_node21"><a xlink:href="namespacextb__prog__info.html#a075fccea4f47f761a7b667bb819253da" target="_top" xlink:title="Main program of the info submodule.">
<polygon fill="white" stroke="black" points="508.5,-209.5 508.5,-228.5 632.5,-228.5 632.5,-209.5 508.5,-209.5"/>
<text text-anchor="middle" x="570.5" y="-216.5" font-family="Helvetica,sans-Serif" font-size="10.00">xtb_prog_info::xtbinfo</text>
</a>
</g>
</g>
<!-- Node20&#45;&gt;Node21 -->
<g id="edge22" class="edge">
<title>Node20&#45;&gt;Node21</title>
<path fill="none" stroke="midnightblue" d="M689.86,-219C671.59,-219 651.26,-219 632.67,-219"/>
<polygon fill="midnightblue" stroke="midnightblue" points="690.06,-222.5 700.06,-219 690.06,-215.5 690.06,-222.5"/>
</g>
<!-- Node22 -->
<g id="node22" class="node">
<title>Node22</title>
<g id="a_node22"><a xlink:href="primary_8f90.html#a2a67903cf5be605c5b6d3c362c6a3c5c" target="_top" xlink:title="The primary driver for the xtb program package.">
<polygon fill="white" stroke="black" points="340,-209.5 340,-228.5 443,-228.5 443,-209.5 340,-209.5"/>
<text text-anchor="middle" x="391.5" y="-216.5" font-family="Helvetica,sans-Serif" font-size="10.00">xtb_prog_primary</text>
</a>
</g>
</g>
<!-- Node21&#45;&gt;Node22 -->
<g id="edge23" class="edge">
<title>Node21&#45;&gt;Node22</title>
<path fill="none" stroke="midnightblue" d="M498.02,-219C479.67,-219 460.31,-219 443.25,-219"/>
<polygon fill="midnightblue" stroke="midnightblue" points="498.09,-222.5 508.09,-219 498.09,-215.5 498.09,-222.5"/>
</g>
<!-- Node23&#45;&gt;Node19 -->
<g id="edge25" class="edge">
<title>Node23&#45;&gt;Node19</title>
<path fill="none" stroke="midnightblue" d="M1084.99,-205.33C1053.16,-208.42 1013.8,-212.23 984.75,-215.05"/>
<polygon fill="midnightblue" stroke="midnightblue" points="1085.42,-208.81 1095.03,-204.36 1084.74,-201.84 1085.42,-208.81"/>
</g>
<!-- Node24&#45;&gt;Node19 -->
<g id="edge27" class="edge">
<title>Node24&#45;&gt;Node19</title>
<path fill="none" stroke="midnightblue" d="M1087.29,-173.86C1078.16,-176.1 1068.78,-178.52 1060,-181 1029.2,-189.69 994.38,-201.35 970.99,-209.45"/>
<polygon fill="midnightblue" stroke="midnightblue" points="1088.17,-177.25 1097.07,-171.5 1086.52,-170.44 1088.17,-177.25"/>
</g>
<!-- Node25&#45;&gt;Node19 -->
<g id="edge29" class="edge">
<title>Node25&#45;&gt;Node19</title>
<path fill="none" stroke="midnightblue" d="M1089.17,-264.6C1079.45,-262.23 1069.38,-259.65 1060,-257 1029.2,-248.31 994.38,-236.65 970.99,-228.55"/>
<polygon fill="midnightblue" stroke="midnightblue" points="1088.59,-268.06 1099.13,-266.99 1090.22,-261.25 1088.59,-268.06"/>
</g>
<!-- Node29 -->
<g id="node29" class="node">
<title>Node29</title>
<g id="a_node29"><a xlink:href="namespacextb__type__dummycalc.html#a28a36738c316fb4a0655328844e94957" target="_top" xlink:title=" ">
<polygon fill="white" stroke="black" points="509.5,-589 509.5,-619 631.5,-619 631.5,-589 509.5,-589"/>
<text text-anchor="start" x="517.5" y="-607" font-family="Helvetica,sans-Serif" font-size="10.00">xtb_type_dummycalc</text>
<text text-anchor="middle" x="570.5" y="-596" font-family="Helvetica,sans-Serif" font-size="10.00">::singlepoint</text>
</a>
</g>
</g>
<!-- Node28&#45;&gt;Node29 -->
<g id="edge33" class="edge">
<title>Node28&#45;&gt;Node29</title>
<path fill="none" stroke="midnightblue" d="M851.27,-575.31C782.93,-582.31 691.14,-591.73 631.65,-597.83"/>
<polygon fill="midnightblue" stroke="midnightblue" points="852.02,-578.75 861.61,-574.25 851.3,-571.78 852.02,-578.75"/>
</g>
<!-- Node30&#45;&gt;Node29 -->
<g id="edge35" class="edge">
<title>Node30&#45;&gt;Node29</title>
<path fill="none" stroke="midnightblue" d="M692.5,-630.27C673.18,-626.08 651.3,-621.33 631.51,-617.03"/>
<polygon fill="midnightblue" stroke="midnightblue" points="691.83,-633.71 702.34,-632.41 693.31,-626.87 691.83,-633.71"/>
</g>
<!-- Node31&#45;&gt;Node11 -->
<g id="edge39" class="edge">
<title>Node31&#45;&gt;Node11</title>
<path fill="none" stroke="midnightblue" d="M508.46,-682.72C442.15,-685.67 336.86,-690.35 270.69,-693.3"/>
<polygon fill="midnightblue" stroke="midnightblue" points="508.92,-686.2 518.75,-682.26 508.61,-679.21 508.92,-686.2"/>
</g>
<!-- Node32 -->
<g id="node32" class="node">
<title>Node32</title>
<g id="a_node32"><a xlink:href="namespacextb__screening.html#a68981a279668553e9f69004a476e9df8" target="_top" xlink:title=" ">
<polygon fill="white" stroke="black" points="311,-632.5 311,-651.5 472,-651.5 472,-632.5 311,-632.5"/>
<text text-anchor="middle" x="391.5" y="-639.5" font-family="Helvetica,sans-Serif" font-size="10.00">xtb_screening::qmdfftoscreen</text>
</a>
</g>
</g>
<!-- Node31&#45;&gt;Node32 -->
<g id="edge37" class="edge">
<title>Node31&#45;&gt;Node32</title>
<path fill="none" stroke="midnightblue" d="M514.76,-668.25C489.73,-662.87 460.47,-656.59 436.84,-651.52"/>
<polygon fill="midnightblue" stroke="midnightblue" points="514.32,-671.73 524.84,-670.41 515.79,-664.89 514.32,-671.73"/>
</g>
<!-- Node32&#45;&gt;Node11 -->
<g id="edge38" class="edge">
<title>Node32&#45;&gt;Node11</title>
<path fill="none" stroke="midnightblue" d="M348.95,-654.43C316.35,-664.18 271.64,-677.56 241.84,-686.47"/>
<polygon fill="midnightblue" stroke="midnightblue" points="350.07,-657.75 358.65,-651.53 348.06,-651.04 350.07,-657.75"/>
</g>
<!-- Node34 -->
<g id="node34" class="node">
<title>Node34</title>
<g id="a_node34"><a xlink:href="namespaceesp.html#abbb507b0106b5a5f8d4ebdac1f0a1681" target="_top" xlink:title=" ">
<polygon fill="white" stroke="black" points="905,-38.5 905,-57.5 981,-57.5 981,-38.5 905,-38.5"/>
<text text-anchor="middle" x="943" y="-45.5" font-family="Helvetica,sans-Serif" font-size="10.00">esp::espplot</text>
</a>
</g>
</g>
<!-- Node33&#45;&gt;Node34 -->
<g id="edge41" class="edge">
<title>Node33&#45;&gt;Node34</title>
<path fill="none" stroke="midnightblue" d="M1053.86,-48C1028.37,-48 1001.79,-48 981.17,-48"/>
<polygon fill="midnightblue" stroke="midnightblue" points="1053.94,-51.5 1063.94,-48 1053.94,-44.5 1053.94,-51.5"/>
</g>
<!-- Node36 -->
<g id="node36" class="node">
<title>Node36</title>
<g id="a_node36"><a xlink:href="namespacextb__io__writer.html#ae62f58fb1a818b9986af6af30a759ba8" target="_top" xlink:title=" ">
<polygon fill="white" stroke="black" points="865,-860.5 865,-879.5 1021,-879.5 1021,-860.5 865,-860.5"/>
<text text-anchor="middle" x="943" y="-867.5" font-family="Helvetica,sans-Serif" font-size="10.00">xtb_io_writer::writemolecule</text>
</a>
</g>
</g>
<!-- Node35&#45;&gt;Node36 -->
<g id="edge43" class="edge">
<title>Node35&#45;&gt;Node36</title>
<path fill="none" stroke="midnightblue" d="M1080.16,-743.18C1073.14,-746.37 1066.26,-749.97 1060,-754 1012.11,-784.84 968.25,-838.29 951.35,-860.2"/>
<polygon fill="midnightblue" stroke="midnightblue" points="1081.93,-746.22 1089.76,-739.09 1079.19,-739.78 1081.93,-746.22"/>
</g>
<!-- Node36&#45;&gt;Node8 -->
<g id="edge56" class="edge">
<title>Node36&#45;&gt;Node8</title>
<path fill="none" stroke="midnightblue" d="M931.28,-888.63C915.6,-916.06 885.69,-969.02 862,-1015 845.06,-1047.87 857.09,-1069.99 826,-1090 632.89,-1214.32 330.29,-1131.47 237.79,-1101.54"/>
<polygon fill="midnightblue" stroke="midnightblue" points="934.44,-890.16 936.37,-879.74 928.36,-886.68 934.44,-890.16"/>
</g>
<!-- Node36&#45;&gt;Node10 -->
<g id="edge61" class="edge">
<title>Node36&#45;&gt;Node10</title>
<path fill="none" stroke="midnightblue" d="M931.59,-888.61C904.78,-936.39 834.83,-1059.98 826,-1065 729.11,-1120.1 383.01,-1059.26 256.63,-1034.5"/>
<polygon fill="midnightblue" stroke="midnightblue" points="934.78,-890.07 936.62,-879.64 928.68,-886.65 934.78,-890.07"/>
</g>
<!-- Node36&#45;&gt;Node11 -->
<g id="edge63" class="edge">
<title>Node36&#45;&gt;Node11</title>
<path fill="none" stroke="midnightblue" d="M930.07,-852.2C911.37,-825.97 872.46,-777.7 826,-756 776.44,-732.86 415.99,-708.57 270.58,-699.6"/>
<polygon fill="midnightblue" stroke="midnightblue" points="927.24,-854.27 935.82,-860.48 932.99,-850.27 927.24,-854.27"/>
</g>
<!-- Node36&#45;&gt;Node30 -->
<g id="edge62" class="edge">
<title>Node36&#45;&gt;Node30</title>
<path fill="none" stroke="midnightblue" d="M931.51,-851.55C912.79,-819.5 871.32,-752.36 826,-704 806.32,-683 779.34,-663.02 762.95,-651.66"/>
<polygon fill="midnightblue" stroke="midnightblue" points="928.54,-853.4 936.57,-860.31 934.6,-849.9 928.54,-853.4"/>
</g>
<!-- Node37 -->
<g id="node37" class="node">
<title>Node37</title>
<g id="a_node37"><a xlink:href="namespacextb__biaspath.html#a17ea22b101e578a3df8d2b58b96811a5" target="_top" xlink:title=" ">
<polygon fill="white" stroke="black" points="325,-812.5 325,-831.5 458,-831.5 458,-812.5 325,-812.5"/>
<text text-anchor="middle" x="391.5" y="-819.5" font-family="Helvetica,sans-Serif" font-size="10.00">xtb_biaspath::bias_path</text>
</a>
</g>
</g>
<!-- Node36&#45;&gt;Node37 -->
<g id="edge44" class="edge">
<title>Node36&#45;&gt;Node37</title>
<path fill="none" stroke="midnightblue" d="M919.29,-854.92C896.72,-840.91 860.58,-821.04 826,-813 692.37,-781.94 529.3,-799.67 446.43,-812.46"/>
<polygon fill="midnightblue" stroke="midnightblue" points="917.48,-857.92 927.8,-860.33 921.24,-852.01 917.48,-857.92"/>
</g>
<!-- Node38 -->
<g id="node38" class="node">
<title>Node38</title>
<g id="a_node38"><a xlink:href="namespacextb__topology.html#a33f9e3fab4233477cd7539b5af834c2d" target="_top" xlink:title=" ">
<polygon fill="white" stroke="black" points="669,-860.5 669,-879.5 826,-879.5 826,-860.5 669,-860.5"/>
<text text-anchor="middle" x="747.5" y="-867.5" font-family="Helvetica,sans-Serif" font-size="10.00">xtb_topology::checktopology</text>
</a>
</g>
</g>
<!-- Node36&#45;&gt;Node38 -->
<g id="edge45" class="edge">
<title>Node36&#45;&gt;Node38</title>
<path fill="none" stroke="midnightblue" d="M854.72,-870C845.22,-870 835.59,-870 826.22,-870"/>
<polygon fill="midnightblue" stroke="midnightblue" points="854.97,-873.5 864.97,-870 854.97,-866.5 854.97,-873.5"/>
</g>
<!-- Node39 -->
<g id="node39" class="node">
<title>Node39</title>
<g id="a_node39"><a xlink:href="namespacextb__relaxation__engine.html#a930f6aac4b13eab0de82f2b71bcde96b" target="_top" xlink:title="frontend implementation of the fast inertial relaxation engine">
<polygon fill="white" stroke="black" points="508,-981 508,-1011 633,-1011 633,-981 508,-981"/>
<text text-anchor="start" x="516" y="-999" font-family="Helvetica,sans-Serif" font-size="10.00">xtb_relaxation_engine</text>
<text text-anchor="middle" x="570.5" y="-988" font-family="Helvetica,sans-Serif" font-size="10.00">::fire</text>
</a>
</g>
</g>
<!-- Node36&#45;&gt;Node39 -->
<g id="edge46" class="edge">
<title>Node36&#45;&gt;Node39</title>
<path fill="none" stroke="midnightblue" d="M929.04,-887.91C909.78,-912.93 870.99,-957.46 826,-977 764.33,-1003.79 686.35,-1005.49 633.06,-1002.44"/>
<polygon fill="midnightblue" stroke="midnightblue" points="932.03,-889.76 935.23,-879.66 926.43,-885.56 932.03,-889.76"/>
</g>
<!-- Node40 -->
<g id="node40" class="node">
<title>Node40</title>
<g id="a_node40"><a xlink:href="namespacextb__relaxation__engine.html#a95175ad328e19b564cba2303d30d4b18" target="_top" xlink:title="backend implementation of the fast inertial relaxation engine">
<polygon fill="white" stroke="black" points="685,-1025 685,-1055 810,-1055 810,-1025 685,-1025"/>
<text text-anchor="start" x="693" y="-1043" font-family="Helvetica,sans-Serif" font-size="10.00">xtb_relaxation_engine</text>
<text text-anchor="middle" x="747.5" y="-1032" font-family="Helvetica,sans-Serif" font-size="10.00">::inertial_relax</text>
</a>
</g>
</g>
<!-- Node36&#45;&gt;Node40 -->
<g id="edge48" class="edge">
<title>Node36&#45;&gt;Node40</title>
<path fill="none" stroke="midnightblue" d="M931.14,-888.42C912.9,-917.91 873.41,-975.86 826,-1010 817.8,-1015.9 808.3,-1020.82 798.81,-1024.85"/>
<polygon fill="midnightblue" stroke="midnightblue" points="934.3,-889.95 936.49,-879.59 928.32,-886.33 934.3,-889.95"/>
</g>
<!-- Node41 -->
<g id="node41" class="node">
<title>Node41</title>
<g id="a_node41"><a xlink:href="namespacextb__relaxation__engine.html#a93ca131c43cfa21276f1bc353c189423" target="_top" xlink:title="frontend implementation of the low memory/linear scaling (by taste)">
<polygon fill="white" stroke="black" points="508,-913 508,-943 633,-943 633,-913 508,-913"/>
<text text-anchor="start" x="516" y="-931" font-family="Helvetica,sans-Serif" font-size="10.00">xtb_relaxation_engine</text>
<text text-anchor="middle" x="570.5" y="-920" font-family="Helvetica,sans-Serif" font-size="10.00">::l_ancopt</text>
</a>
</g>
</g>
<!-- Node36&#45;&gt;Node41 -->
<g id="edge50" class="edge">
<title>Node36&#45;&gt;Node41</title>
<path fill="none" stroke="midnightblue" d="M874.25,-881.22C858.42,-883.8 841.62,-886.52 826,-889 760.22,-899.43 684.8,-910.93 633.24,-918.72"/>
<polygon fill="midnightblue" stroke="midnightblue" points="875.19,-884.61 884.49,-879.54 874.06,-877.7 875.19,-884.61"/>
</g>
<!-- Node42 -->
<g id="node42" class="node">
<title>Node42</title>
<g id="a_node42"><a xlink:href="namespacextb__relaxation__engine.html#af0280194bd95772c5dfc4a3dece60d0c" target="_top" xlink:title="backend implementation of the low memory BFGS algorithm, this implementation">
<polygon fill="white" stroke="black" points="685,-937 685,-967 810,-967 810,-937 685,-937"/>
<text text-anchor="start" x="693" y="-955" font-family="Helvetica,sans-Serif" font-size="10.00">xtb_relaxation_engine</text>
<text text-anchor="middle" x="747.5" y="-944" font-family="Helvetica,sans-Serif" font-size="10.00">::lbfgs_relax</text>
</a>
</g>
</g>
<!-- Node36&#45;&gt;Node42 -->
<g id="edge52" class="edge">
<title>Node36&#45;&gt;Node42</title>
<path fill="none" stroke="midnightblue" d="M912.26,-883.84C888.94,-894.58 855.58,-909.65 826,-922 813.88,-927.06 800.59,-932.31 788.48,-936.98"/>
<polygon fill="midnightblue" stroke="midnightblue" points="913.99,-886.9 921.61,-879.53 911.06,-880.54 913.99,-886.9"/>
</g>
<!-- Node43 -->
<g id="node43" class="node">
<title>Node43</title>
<g id="a_node43"><a xlink:href="namespacextb__dynamic.html#adbb00c924fbe26c7a6945fed202881e1" target="_top" xlink:title=" ">
<polygon fill="white" stroke="black" points="341,-755.5 341,-774.5 442,-774.5 442,-755.5 341,-755.5"/>
<text text-anchor="middle" x="391.5" y="-762.5" font-family="Helvetica,sans-Serif" font-size="10.00">xtb_dynamic::md</text>
</a>
</g>
</g>
<!-- Node36&#45;&gt;Node43 -->
<g id="edge54" class="edge">
<title>Node36&#45;&gt;Node43</title>
<path fill="none" stroke="midnightblue" d="M924.61,-853.61C903.27,-834.65 865.09,-804.34 826,-791 693.28,-745.7 524.58,-752.5 442.24,-759.61"/>
<polygon fill="midnightblue" stroke="midnightblue" points="922.42,-856.35 932.18,-860.49 927.13,-851.17 922.42,-856.35"/>
</g>
<!-- Node44 -->
<g id="node44" class="node">
<title>Node44</title>
<g id="a_node44"><a xlink:href="namespacextb__optimizer.html#a0ae8aa844914d8a5dfd34b5a91faaf32" target="_top" xlink:title="actual optimization procedure">
<polygon fill="white" stroke="black" points="690,-822.5 690,-841.5 805,-841.5 805,-822.5 690,-822.5"/>
<text text-anchor="middle" x="747.5" y="-829.5" font-family="Helvetica,sans-Serif" font-size="10.00">xtb_optimizer::relax</text>
</a>
</g>
</g>
<!-- Node36&#45;&gt;Node44 -->
<g id="edge57" class="edge">
<title>Node36&#45;&gt;Node44</title>
<path fill="none" stroke="midnightblue" d="M883.25,-858.46C855.65,-853.04 823.15,-846.66 796.98,-841.52"/>
<polygon fill="midnightblue" stroke="midnightblue" points="882.68,-861.92 893.17,-860.41 884.03,-855.05 882.68,-861.92"/>
</g>
<!-- Node39&#45;&gt;Node5 -->
<g id="edge47" class="edge">
<title>Node39&#45;&gt;Node5</title>
<path fill="none" stroke="midnightblue" d="M520.61,-977.22C492.59,-966.45 457.89,-953.12 431.67,-943.05"/>
<polygon fill="midnightblue" stroke="midnightblue" points="519.63,-980.59 530.22,-980.91 522.14,-974.06 519.63,-980.59"/>
</g>
<!-- Node40&#45;&gt;Node39 -->
<g id="edge49" class="edge">
<title>Node40&#45;&gt;Node39</title>
<path fill="none" stroke="midnightblue" d="M676.96,-1022.51C661.83,-1018.71 645.97,-1014.72 631.26,-1011.03"/>
<polygon fill="midnightblue" stroke="midnightblue" points="676.21,-1025.94 686.76,-1024.98 677.92,-1019.15 676.21,-1025.94"/>
</g>
<!-- Node41&#45;&gt;Node5 -->
<g id="edge51" class="edge">
<title>Node41&#45;&gt;Node5</title>
<path fill="none" stroke="midnightblue" d="M497.28,-928C482.94,-928 468.01,-928 454.07,-928"/>
<polygon fill="midnightblue" stroke="midnightblue" points="497.59,-931.5 507.59,-928 497.59,-924.5 497.59,-931.5"/>
</g>
<!-- Node42&#45;&gt;Node41 -->
<g id="edge53" class="edge">
<title>Node42&#45;&gt;Node41</title>
<path fill="none" stroke="midnightblue" d="M674.86,-942.18C661.05,-940.28 646.69,-938.31 633.23,-936.47"/>
<polygon fill="midnightblue" stroke="midnightblue" points="674.42,-945.65 684.8,-943.54 675.37,-938.71 674.42,-945.65"/>
</g>
<!-- Node43&#45;&gt;Node12 -->
<g id="edge55" class="edge">
<title>Node43&#45;&gt;Node12</title>
<path fill="none" stroke="midnightblue" d="M351.25,-777.83C323.22,-786.99 285.42,-799.35 255.98,-808.97"/>
<polygon fill="midnightblue" stroke="midnightblue" points="352.68,-781.04 361.1,-774.61 350.51,-774.39 352.68,-781.04"/>
</g>
<!-- Node45 -->
<g id="node45" class="node">
<title>Node45</title>
<g id="a_node45"><a xlink:href="namespacextb__optimizer.html#a1743159550358c92fb2761af80e15285" target="_top" xlink:title=" ">
<polygon fill="white" stroke="black" points="509,-822.5 509,-841.5 632,-841.5 632,-822.5 509,-822.5"/>
<text text-anchor="middle" x="570.5" y="-829.5" font-family="Helvetica,sans-Serif" font-size="10.00">xtb_optimizer::ancopt</text>
</a>
</g>
</g>
<!-- Node44&#45;&gt;Node45 -->
<g id="edge58" class="edge">
<title>Node44&#45;&gt;Node45</title>
<path fill="none" stroke="midnightblue" d="M679.61,-832C664.04,-832 647.54,-832 632.25,-832"/>
<polygon fill="midnightblue" stroke="midnightblue" points="679.68,-835.5 689.68,-832 679.68,-828.5 679.68,-835.5"/>
</g>
<!-- Node45&#45;&gt;Node5 -->
<g id="edge60" class="edge">
<title>Node45&#45;&gt;Node5</title>
<path fill="none" stroke="midnightblue" d="M542.83,-846.47C509.86,-864.35 454,-894.64 420.45,-912.84"/>
<polygon fill="midnightblue" stroke="midnightblue" points="544.76,-849.4 551.88,-841.56 541.42,-843.25 544.76,-849.4"/>
</g>
<!-- Node45&#45;&gt;Node37 -->
<g id="edge59" class="edge">
<title>Node45&#45;&gt;Node37</title>
<path fill="none" stroke="midnightblue" d="M498.5,-827.99C485.15,-827.23 471.24,-826.45 458.06,-825.7"/>
<polygon fill="midnightblue" stroke="midnightblue" points="498.41,-831.49 508.59,-828.56 498.8,-824.5 498.41,-831.49"/>
</g>
<!-- Node47 -->
<g id="node47" class="node">
<title>Node47</title>
<g id="a_node47"><a xlink:href="extern_2turbomole_8f90.html#a740743c240475a4bb3f6452d1fd04185" target="_top" xlink:title=" ">
<polygon fill="white" stroke="black" points="886.5,-594.5 886.5,-613.5 999.5,-613.5 999.5,-594.5 886.5,-594.5"/>
<text text-anchor="middle" x="943" y="-601.5" font-family="Helvetica,sans-Serif" font-size="10.00">external_turbomole</text>
</a>
</g>
</g>
<!-- Node46&#45;&gt;Node47 -->
<g id="edge65" class="edge">
<title>Node46&#45;&gt;Node47</title>
<path fill="none" stroke="midnightblue" d="M1109.75,-604C1080.49,-604 1035.47,-604 999.73,-604"/>
<polygon fill="midnightblue" stroke="midnightblue" points="1109.76,-607.5 1119.76,-604 1109.76,-600.5 1109.76,-607.5"/>
</g>
<!-- Node47&#45;&gt;Node29 -->
<g id="edge66" class="edge">
<title>Node47&#45;&gt;Node29</title>
<path fill="none" stroke="midnightblue" d="M875.77,-604C806.41,-604 698.45,-604 631.52,-604"/>
<polygon fill="midnightblue" stroke="midnightblue" points="876.13,-607.5 886.13,-604 876.13,-600.5 876.13,-607.5"/>
</g>
<!-- Node49 -->
<g id="node49" class="node">
<title>Node49</title>
<g id="a_node49"><a xlink:href="namespacextb__intmodes.html#a4a86b34215997a61ae390bcb96e6afe0" target="_top" xlink:title=" ">
<polygon fill="white" stroke="black" points="873,-0.5 873,-19.5 1013,-19.5 1013,-0.5 873,-0.5"/>
<text text-anchor="middle" x="943" y="-7.5" font-family="Helvetica,sans-Serif" font-size="10.00">xtb_intmodes::makenabc</text>
</a>
</g>
</g>
<!-- Node48&#45;&gt;Node49 -->
<g id="edge68" class="edge">
<title>Node48&#45;&gt;Node49</title>
<path fill="none" stroke="midnightblue" d="M1104.91,-10C1079.48,-10 1044.24,-10 1013.22,-10"/>
<polygon fill="midnightblue" stroke="midnightblue" points="1105.18,-13.5 1115.18,-10 1105.18,-6.5 1105.18,-13.5"/>
</g>
</g>
</svg>
