<?xml version="1.0" encoding="UTF-8" standalone="no"?>
<!DOCTYPE svg PUBLIC "-//W3C//DTD SVG 1.1//EN"
 "http://www.w3.org/Graphics/SVG/1.1/DTD/svg11.dtd">
<!-- Generated by graphviz version 2.43.0 (0)
 -->
<!-- Title: xtb_intgrad::olapp Pages: 1 -->
<svg width="1025pt" height="416pt"
 viewBox="0.00 0.00 1025.00 416.00" xmlns="http://www.w3.org/2000/svg" xmlns:xlink="http://www.w3.org/1999/xlink">
<g id="graph0" class="graph" transform="scale(1 1) rotate(0) translate(4 412)">
<title>xtb_intgrad::olapp</title>
<polygon fill="white" stroke="transparent" points="-4,4 -4,-412 1021,-412 1021,4 -4,4"/>
<!-- Node1 -->
<g id="node1" class="node">
<title>Node1</title>
<g id="a_node1"><a xlink:title="calculates a partial overlap in one cartesian direction">
<polygon fill="#bfbfbf" stroke="black" points="912,-149 912,-168 1017,-168 1017,-149 912,-149"/>
<text text-anchor="middle" x="964.5" y="-156" font-family="Helvetica,sans-Serif" font-size="10.00">xtb_intgrad::olapp</text>
</a>
</g>
</g>
<!-- Node2 -->
<g id="node2" class="node">
<title>Node2</title>
<g id="a_node2"><a xlink:href="namespacextb__intgrad.html#ae34171826fede48284f04beb036fb2bd" target="_top" xlink:title=" ">
<polygon fill="white" stroke="black" points="758,-143.5 758,-173.5 860,-173.5 860,-143.5 758,-143.5"/>
<text text-anchor="start" x="766" y="-161.5" font-family="Helvetica,sans-Serif" font-size="10.00">xtb_intgrad::build</text>
<text text-anchor="middle" x="809" y="-150.5" font-family="Helvetica,sans-Serif" font-size="10.00">_ds_ints</text>
</a>
</g>
</g>
<!-- Node1&#45;&gt;Node2 -->
<g id="edge1" class="edge">
<title>Node1&#45;&gt;Node2</title>
<path fill="none" stroke="midnightblue" d="M901.58,-158.5C887.79,-158.5 873.34,-158.5 860.1,-158.5"/>
<polygon fill="midnightblue" stroke="midnightblue" points="901.96,-162 911.96,-158.5 901.96,-155 901.96,-162"/>
</g>
<!-- Node12 -->
<g id="node12" class="node">
<title>Node12</title>
<g id="a_node12"><a xlink:href="namespacextb__intgrad.html#adb53ca5789261bb96d2c95507842a461" target="_top" xlink:title=" ">
<polygon fill="white" stroke="black" points="758,-94.5 758,-124.5 860,-124.5 860,-94.5 758,-94.5"/>
<text text-anchor="start" x="766" y="-112.5" font-family="Helvetica,sans-Serif" font-size="10.00">xtb_intgrad::build</text>
<text text-anchor="middle" x="809" y="-101.5" font-family="Helvetica,sans-Serif" font-size="10.00">_dsdq_ints</text>
</a>
</g>
</g>
<!-- Node1&#45;&gt;Node12 -->
<g id="edge13" class="edge">
<title>Node1&#45;&gt;Node12</title>
<path fill="none" stroke="midnightblue" d="M923.93,-145.87C903.53,-139.36 878.5,-131.37 857.11,-124.54"/>
<polygon fill="midnightblue" stroke="midnightblue" points="922.95,-149.23 933.54,-148.94 925.08,-142.56 922.95,-149.23"/>
</g>
<!-- Node16 -->
<g id="node16" class="node">
<title>Node16</title>
<g id="a_node16"><a xlink:href="namespacextb__xtb__hamiltonian__gpu.html#a3fc32a40afb82002170a6633d8870ddb" target="_top" xlink:title="Computes the gradient of the dipole/qpole integral contribution.">
<polygon fill="white" stroke="black" points="742,-45.5 742,-75.5 876,-75.5 876,-45.5 742,-45.5"/>
<text text-anchor="start" x="750" y="-63.5" font-family="Helvetica,sans-Serif" font-size="10.00">xtb_xtb_hamiltonian</text>
<text text-anchor="middle" x="809" y="-52.5" font-family="Helvetica,sans-Serif" font-size="10.00">_gpu::build_dsdqh0_gpu</text>
</a>
</g>
</g>
<!-- Node1&#45;&gt;Node16 -->
<g id="edge17" class="edge">
<title>Node1&#45;&gt;Node16</title>
<path fill="none" stroke="midnightblue" d="M946.84,-141.24C930.19,-124.8 903.22,-100.28 876,-84.5 870.3,-81.2 864.07,-78.22 857.79,-75.58"/>
<polygon fill="midnightblue" stroke="midnightblue" points="944.61,-143.96 954.14,-148.59 949.58,-139.03 944.61,-143.96"/>
</g>
<!-- Node17 -->
<g id="node17" class="node">
<title>Node17</title>
<g id="a_node17"><a xlink:href="namespacextb__intgrad.html#aa938e4391a764ecf662013cd966899ba" target="_top" xlink:title=" ">
<polygon fill="white" stroke="black" points="758,-197.5 758,-227.5 860,-227.5 860,-197.5 758,-197.5"/>
<text text-anchor="start" x="766" y="-215.5" font-family="Helvetica,sans-Serif" font-size="10.00">xtb_intgrad::build</text>
<text text-anchor="middle" x="809" y="-204.5" font-family="Helvetica,sans-Serif" font-size="10.00">_sdq_ints</text>
</a>
</g>
</g>
<!-- Node1&#45;&gt;Node17 -->
<g id="edge18" class="edge">
<title>Node1&#45;&gt;Node17</title>
<path fill="none" stroke="midnightblue" d="M926.97,-171.35C904.68,-179.19 876.09,-189.25 852.75,-197.46"/>
<polygon fill="midnightblue" stroke="midnightblue" points="928.14,-174.65 936.41,-168.03 925.82,-168.05 928.14,-174.65"/>
</g>
<!-- Node20 -->
<g id="node20" class="node">
<title>Node20</title>
<g id="a_node20"><a xlink:href="namespacextb__xtb__hamiltonian__gpu.html#aee3ffc022ae0b9686cef17ce77e6b117" target="_top" xlink:title="Computes the dipole and quadrupole integrals and performs screening to.">
<polygon fill="white" stroke="black" points="390,-377.5 390,-407.5 518,-407.5 518,-377.5 390,-377.5"/>
<text text-anchor="start" x="398" y="-395.5" font-family="Helvetica,sans-Serif" font-size="10.00">xtb_xtb_hamiltonian</text>
<text text-anchor="middle" x="454" y="-384.5" font-family="Helvetica,sans-Serif" font-size="10.00">_gpu::build_sdqh0_gpu</text>
</a>
</g>
</g>
<!-- Node1&#45;&gt;Node20 -->
<g id="edge29" class="edge">
<title>Node1&#45;&gt;Node20</title>
<path fill="none" stroke="midnightblue" d="M955.56,-177.57C942.8,-206 915.15,-259.47 876,-290.5 770.65,-374 607.16,-390.62 518.09,-393.05"/>
<polygon fill="midnightblue" stroke="midnightblue" points="958.8,-178.88 959.58,-168.31 952.38,-176.09 958.8,-178.88"/>
</g>
<!-- Node22 -->
<g id="node22" class="node">
<title>Node22</title>
<g id="a_node22"><a xlink:href="namespacextb__intgrad.html#acfb80861031d50fbbfc7f6a4d203b94f" target="_top" xlink:title="Computes the overlap dipole and quadrupole integrals.">
<polygon fill="white" stroke="black" points="388.5,-339 388.5,-358 519.5,-358 519.5,-339 388.5,-339"/>
<text text-anchor="middle" x="454" y="-346" font-family="Helvetica,sans-Serif" font-size="10.00">xtb_intgrad::sdqint_gpu</text>
</a>
</g>
</g>
<!-- Node1&#45;&gt;Node22 -->
<g id="edge31" class="edge">
<title>Node1&#45;&gt;Node22</title>
<path fill="none" stroke="midnightblue" d="M947.05,-175.57C930.18,-192.52 902.72,-218.62 876,-237.5 805.84,-287.08 788.43,-305.28 706,-329.5 644.47,-347.58 571,-351.18 519.5,-350.95"/>
<polygon fill="midnightblue" stroke="midnightblue" points="949.91,-177.65 954.42,-168.06 944.92,-172.74 949.91,-177.65"/>
</g>
<!-- Node26 -->
<g id="node26" class="node">
<title>Node26</title>
<g id="a_node26"><a xlink:href="namespacextb__intgrad.html#a56c0d9c60dccfa7d445a3d5ac2df7ed9" target="_top" xlink:title=" ">
<polygon fill="white" stroke="black" points="751,-7 751,-26 867,-26 867,-7 751,-7"/>
<text text-anchor="middle" x="809" y="-14" font-family="Helvetica,sans-Serif" font-size="10.00">xtb_intgrad::dsawab</text>
</a>
</g>
</g>
<!-- Node1&#45;&gt;Node26 -->
<g id="edge30" class="edge">
<title>Node1&#45;&gt;Node26</title>
<path fill="none" stroke="midnightblue" d="M955.12,-139.63C942.11,-112.5 914.49,-62.77 876,-35.5 870.55,-31.64 864.33,-28.56 857.93,-26.1"/>
<polygon fill="midnightblue" stroke="midnightblue" points="952,-141.22 959.38,-148.82 958.35,-138.28 952,-141.22"/>
</g>
<!-- Node3 -->
<g id="node3" class="node">
<title>Node3</title>
<g id="a_node3"><a xlink:href="namespacextb__aespot.html#aa4d2436b7234ef3194dfff0592b1ed7c" target="_top" xlink:title=" ">
<polygon fill="white" stroke="black" points="584,-102 584,-121 685,-121 685,-102 584,-102"/>
<text text-anchor="middle" x="634.5" y="-109" font-family="Helvetica,sans-Serif" font-size="10.00">xtb_aespot::dsint</text>
</a>
</g>
</g>
<!-- Node2&#45;&gt;Node3 -->
<g id="edge2" class="edge">
<title>Node2&#45;&gt;Node3</title>
<path fill="none" stroke="midnightblue" d="M748.06,-142C734.25,-138.21 719.62,-134.2 706,-130.5 694.62,-127.41 682.21,-124.05 671.01,-121.04"/>
<polygon fill="midnightblue" stroke="midnightblue" points="747.38,-145.44 757.95,-144.71 749.23,-138.69 747.38,-145.44"/>
</g>
<!-- Node4 -->
<g id="node4" class="node">
<title>Node4</title>
<g id="a_node4"><a xlink:href="namespacextb__peeq.html#a0fcfc4df44aaa9a0446dca518f96cf59" target="_top" xlink:title=" ">
<polygon fill="white" stroke="black" points="579.5,-140.5 579.5,-170.5 689.5,-170.5 689.5,-140.5 579.5,-140.5"/>
<text text-anchor="start" x="587.5" y="-158.5" font-family="Helvetica,sans-Serif" font-size="10.00">xtb_peeq::get_grad</text>
<text text-anchor="middle" x="634.5" y="-147.5" font-family="Helvetica,sans-Serif" font-size="10.00">_overlap</text>
</a>
</g>
</g>
<!-- Node2&#45;&gt;Node4 -->
<g id="edge3" class="edge">
<title>Node2&#45;&gt;Node4</title>
<path fill="none" stroke="midnightblue" d="M747.38,-157.45C728.54,-157.12 707.9,-156.76 689.53,-156.44"/>
<polygon fill="midnightblue" stroke="midnightblue" points="747.58,-160.95 757.64,-157.62 747.7,-153.95 747.58,-160.95"/>
</g>
<!-- Node5 -->
<g id="node5" class="node">
<title>Node5</title>
<g id="a_node5"><a xlink:href="namespacextb__peeq.html#a40797d7eda755bad4031e16951ae29b7" target="_top" xlink:title=" ">
<polygon fill="white" stroke="black" points="381,-137 381,-156 527,-156 527,-137 381,-137"/>
<text text-anchor="middle" x="454" y="-144" font-family="Helvetica,sans-Serif" font-size="10.00">xtb_peeq::ccm_build_dsh0</text>
</a>
</g>
</g>
<!-- Node4&#45;&gt;Node5 -->
<g id="edge4" class="edge">
<title>Node4&#45;&gt;Node5</title>
<path fill="none" stroke="midnightblue" d="M569.24,-152.26C555.64,-151.57 541.19,-150.85 527.31,-150.15"/>
<polygon fill="midnightblue" stroke="midnightblue" points="569.3,-155.77 579.46,-152.78 569.65,-148.78 569.3,-155.77"/>
</g>
<!-- Node11 -->
<g id="node11" class="node">
<title>Node11</title>
<g id="a_node11"><a xlink:href="namespacextb__peeq.html#a101bc81468c2cd4ddd3221efaa59b142" target="_top" xlink:title=" ">
<polygon fill="white" stroke="black" points="382.5,-99 382.5,-118 525.5,-118 525.5,-99 382.5,-99"/>
<text text-anchor="middle" x="454" y="-106" font-family="Helvetica,sans-Serif" font-size="10.00">xtb_peeq::pbc_build_dsh0</text>
</a>
</g>
</g>
<!-- Node4&#45;&gt;Node11 -->
<g id="edge11" class="edge">
<title>Node4&#45;&gt;Node11</title>
<path fill="none" stroke="midnightblue" d="M569.57,-138.67C543.29,-131.75 513.82,-123.99 491.35,-118.07"/>
<polygon fill="midnightblue" stroke="midnightblue" points="568.9,-142.11 579.46,-141.27 570.68,-135.34 568.9,-142.11"/>
</g>
<!-- Node6 -->
<g id="node6" class="node">
<title>Node6</title>
<g id="a_node6"><a xlink:href="namespacextb__peeq.html#ac2d6fc22b842455765bdb4f69279095c" target="_top" xlink:title=" ">
<polygon fill="white" stroke="black" points="253,-156 253,-175 345,-175 345,-156 253,-156"/>
<text text-anchor="middle" x="299" y="-163" font-family="Helvetica,sans-Serif" font-size="10.00">xtb_peeq::peeq</text>
</a>
</g>
</g>
<!-- Node5&#45;&gt;Node6 -->
<g id="edge5" class="edge">
<title>Node5&#45;&gt;Node6</title>
<path fill="none" stroke="midnightblue" d="M370.93,-156.69C362.04,-157.8 353.25,-158.89 345.04,-159.91"/>
<polygon fill="midnightblue" stroke="midnightblue" points="371.49,-160.15 380.98,-155.44 370.63,-153.2 371.49,-160.15"/>
</g>
<!-- Node7 -->
<g id="node7" class="node">
<title>Node7</title>
<g id="a_node7"><a xlink:href="namespacextb__xtb__calculator.html#a75c96263c235c99dfeeda3e865f9898c" target="_top" xlink:title=" ">
<polygon fill="white" stroke="black" points="110,-194.5 110,-224.5 217,-224.5 217,-194.5 110,-194.5"/>
<text text-anchor="start" x="118" y="-212.5" font-family="Helvetica,sans-Serif" font-size="10.00">xtb_xtb_calculator</text>
<text text-anchor="middle" x="163.5" y="-201.5" font-family="Helvetica,sans-Serif" font-size="10.00">::singlepoint</text>
</a>
</g>
</g>
<!-- Node6&#45;&gt;Node7 -->
<g id="edge6" class="edge">
<title>Node6&#45;&gt;Node7</title>
<path fill="none" stroke="midnightblue" d="M259.33,-178.24C243.98,-183.3 226.2,-189.17 210.21,-194.43"/>
<polygon fill="midnightblue" stroke="midnightblue" points="260.63,-181.5 269.03,-175.05 258.44,-174.85 260.63,-181.5"/>
</g>
<!-- Node8 -->
<g id="node8" class="node">
<title>Node8</title>
<g id="a_node8"><a xlink:href="TESTSUITE_2gfn0_8f90.html#ac2abd1dbadf75b71866d509eaad7957d" target="_top" xlink:title=" ">
<polygon fill="white" stroke="black" points="124,-118 124,-137 203,-137 203,-118 124,-118"/>
<text text-anchor="middle" x="163.5" y="-125" font-family="Helvetica,sans-Serif" font-size="10.00">test_gfn0_sp</text>
</a>
</g>
</g>
<!-- Node6&#45;&gt;Node8 -->
<g id="edge7" class="edge">
<title>Node6&#45;&gt;Node8</title>
<path fill="none" stroke="midnightblue" d="M254.47,-153.11C236.19,-147.91 215.25,-141.95 198.18,-137.09"/>
<polygon fill="midnightblue" stroke="midnightblue" points="253.74,-156.54 264.31,-155.91 255.65,-149.81 253.74,-156.54"/>
</g>
<!-- Node10 -->
<g id="node10" class="node">
<title>Node10</title>
<g id="a_node10"><a xlink:href="peeq_8f90.html#a5122d9bd07a3f4377ee140a5991d1325" target="_top" xlink:title=" ">
<polygon fill="white" stroke="black" points="123,-156 123,-175 204,-175 204,-156 123,-156"/>
<text text-anchor="middle" x="163.5" y="-163" font-family="Helvetica,sans-Serif" font-size="10.00">test_peeq_sp</text>
</a>
</g>
</g>
<!-- Node6&#45;&gt;Node10 -->
<g id="edge9" class="edge">
<title>Node6&#45;&gt;Node10</title>
<path fill="none" stroke="midnightblue" d="M242.65,-165.5C229.78,-165.5 216.33,-165.5 204.28,-165.5"/>
<polygon fill="midnightblue" stroke="midnightblue" points="242.8,-169 252.8,-165.5 242.8,-162 242.8,-169"/>
</g>
<!-- Node9 -->
<g id="node9" class="node">
<title>Node9</title>
<g id="a_node9"><a xlink:href="tests__peeq_8f90.html#a87ff5319e0d2e627a4f71d7df0d14891" target="_top" xlink:title=" ">
<polygon fill="white" stroke="black" points="0,-137 0,-156 74,-156 74,-137 0,-137"/>
<text text-anchor="middle" x="37" y="-144" font-family="Helvetica,sans-Serif" font-size="10.00">peeq_tester</text>
</a>
</g>
</g>
<!-- Node8&#45;&gt;Node9 -->
<g id="edge8" class="edge">
<title>Node8&#45;&gt;Node9</title>
<path fill="none" stroke="midnightblue" d="M113.88,-134.92C100.65,-136.94 86.55,-139.09 74.14,-140.98"/>
<polygon fill="midnightblue" stroke="midnightblue" points="114.43,-138.38 123.79,-133.41 113.38,-131.46 114.43,-138.38"/>
</g>
<!-- Node10&#45;&gt;Node9 -->
<g id="edge10" class="edge">
<title>Node10&#45;&gt;Node9</title>
<path fill="none" stroke="midnightblue" d="M112.7,-157.9C99.91,-155.95 86.38,-153.88 74.4,-152.06"/>
<polygon fill="midnightblue" stroke="midnightblue" points="112.35,-161.39 122.77,-159.44 113.41,-154.47 112.35,-161.39"/>
</g>
<!-- Node11&#45;&gt;Node6 -->
<g id="edge12" class="edge">
<title>Node11&#45;&gt;Node6</title>
<path fill="none" stroke="midnightblue" d="M401.42,-120.9C394.49,-122.91 387.53,-125.13 381,-127.5 358.66,-135.61 334.09,-147.6 317.94,-155.94"/>
<polygon fill="midnightblue" stroke="midnightblue" points="402.79,-124.15 411.48,-118.09 400.91,-117.41 402.79,-124.15"/>
</g>
<!-- Node13 -->
<g id="node13" class="node">
<title>Node13</title>
<g id="a_node13"><a xlink:href="namespacextb__intgrad.html#a84a16c374ef42e274a28bfac818995e7" target="_top" xlink:title=" ">
<polygon fill="white" stroke="black" points="574,-49.5 574,-79.5 695,-79.5 695,-49.5 574,-49.5"/>
<text text-anchor="start" x="582" y="-67.5" font-family="Helvetica,sans-Serif" font-size="10.00">xtb_intgrad::get_grad</text>
<text text-anchor="middle" x="634.5" y="-56.5" font-family="Helvetica,sans-Serif" font-size="10.00">_multiint</text>
</a>
</g>
</g>
<!-- Node12&#45;&gt;Node13 -->
<g id="edge14" class="edge">
<title>Node12&#45;&gt;Node13</title>
<path fill="none" stroke="midnightblue" d="M747.47,-93.71C729.85,-89.11 710.65,-84.1 693.21,-79.55"/>
<polygon fill="midnightblue" stroke="midnightblue" points="747.08,-97.23 757.64,-96.36 748.85,-90.45 747.08,-97.23"/>
</g>
<!-- Node14 -->
<g id="node14" class="node">
<title>Node14</title>
<g id="a_node14"><a xlink:href="namespacextb__xtb__hamiltonian.html#a8364d9293f8dac8d5de89c5186f7effc" target="_top" xlink:title="Computes the gradient of the dipole/qpole integral contribution.">
<polygon fill="white" stroke="black" points="395.5,-49.5 395.5,-79.5 512.5,-79.5 512.5,-49.5 395.5,-49.5"/>
<text text-anchor="start" x="403.5" y="-67.5" font-family="Helvetica,sans-Serif" font-size="10.00">xtb_xtb_hamiltonian</text>
<text text-anchor="middle" x="454" y="-56.5" font-family="Helvetica,sans-Serif" font-size="10.00">::build_dsdqh0</text>
</a>
</g>
</g>
<!-- Node13&#45;&gt;Node14 -->
<g id="edge15" class="edge">
<title>Node13&#45;&gt;Node14</title>
<path fill="none" stroke="midnightblue" d="M563.27,-64.5C546.5,-64.5 528.79,-64.5 512.66,-64.5"/>
<polygon fill="midnightblue" stroke="midnightblue" points="563.57,-68 573.57,-64.5 563.57,-61 563.57,-68"/>
</g>
<!-- Node15 -->
<g id="node15" class="node">
<title>Node15</title>
<g id="a_node15"><a xlink:href="namespacextb__xtb__hamiltonian.html#a299eaa3877160d0aff3f63dc55b12fde" target="_top" xlink:title="Computes the gradient of the dipole/qpole integral contribution.">
<polygon fill="white" stroke="black" points="389.5,-0.5 389.5,-30.5 518.5,-30.5 518.5,-0.5 389.5,-0.5"/>
<text text-anchor="start" x="397.5" y="-18.5" font-family="Helvetica,sans-Serif" font-size="10.00">xtb_xtb_hamiltonian</text>
<text text-anchor="middle" x="454" y="-7.5" font-family="Helvetica,sans-Serif" font-size="10.00">::build_dsdqh0_noreset</text>
</a>
</g>
</g>
<!-- Node13&#45;&gt;Node15 -->
<g id="edge16" class="edge">
<title>Node13&#45;&gt;Node15</title>
<path fill="none" stroke="midnightblue" d="M568.58,-46.68C549.31,-41.39 528.4,-35.65 509.83,-30.55"/>
<polygon fill="midnightblue" stroke="midnightblue" points="567.92,-50.13 578.49,-49.4 569.77,-43.38 567.92,-50.13"/>
</g>
<!-- Node18 -->
<g id="node18" class="node">
<title>Node18</title>
<g id="a_node18"><a xlink:href="namespacextb__intgrad.html#aee9600380d10f057eefb0773b7fb2b06" target="_top" xlink:title=" ">
<polygon fill="white" stroke="black" points="563,-301 563,-320 706,-320 706,-301 563,-301"/>
<text text-anchor="middle" x="634.5" y="-308" font-family="Helvetica,sans-Serif" font-size="10.00">xtb_intgrad::get_multiints</text>
</a>
</g>
</g>
<!-- Node17&#45;&gt;Node18 -->
<g id="edge19" class="edge">
<title>Node17&#45;&gt;Node18</title>
<path fill="none" stroke="midnightblue" d="M772.54,-232.64C735.87,-253.48 680.18,-285.12 652.44,-300.88"/>
<polygon fill="midnightblue" stroke="midnightblue" points="774.46,-235.58 781.42,-227.6 771,-229.49 774.46,-235.58"/>
</g>
<!-- Node23 -->
<g id="node23" class="node">
<title>Node23</title>
<g id="a_node23"><a xlink:href="namespacextb__peeq.html#a287e8583f9e8cdee5b6e958662be4f9a" target="_top" xlink:title=" ">
<polygon fill="white" stroke="black" points="572,-203 572,-222 697,-222 697,-203 572,-203"/>
<text text-anchor="middle" x="634.5" y="-210" font-family="Helvetica,sans-Serif" font-size="10.00">xtb_peeq::get_overlap</text>
</a>
</g>
</g>
<!-- Node17&#45;&gt;Node23 -->
<g id="edge24" class="edge">
<title>Node17&#45;&gt;Node23</title>
<path fill="none" stroke="midnightblue" d="M747.21,-212.5C731.01,-212.5 713.5,-212.5 697.25,-212.5"/>
<polygon fill="midnightblue" stroke="midnightblue" points="747.64,-216 757.64,-212.5 747.64,-209 747.64,-216"/>
</g>
<!-- Node19 -->
<g id="node19" class="node">
<title>Node19</title>
<g id="a_node19"><a xlink:href="namespacextb__xtb__hamiltonian.html#a9f0d8be35a4ef0f2dbbbafd2ef873d64" target="_top" xlink:title="Computes the dipole and quadrupole integrals and performs screening to.">
<polygon fill="white" stroke="black" points="395.5,-251.5 395.5,-281.5 512.5,-281.5 512.5,-251.5 395.5,-251.5"/>
<text text-anchor="start" x="403.5" y="-269.5" font-family="Helvetica,sans-Serif" font-size="10.00">xtb_xtb_hamiltonian</text>
<text text-anchor="middle" x="454" y="-258.5" font-family="Helvetica,sans-Serif" font-size="10.00">::build_sdqh0</text>
</a>
</g>
</g>
<!-- Node18&#45;&gt;Node19 -->
<g id="edge20" class="edge">
<title>Node18&#45;&gt;Node19</title>
<path fill="none" stroke="midnightblue" d="M584.85,-298.51C562.55,-293.01 535.95,-286.45 512.65,-280.71"/>
<polygon fill="midnightblue" stroke="midnightblue" points="584.22,-301.96 594.77,-300.95 585.9,-295.16 584.22,-301.96"/>
</g>
<!-- Node18&#45;&gt;Node20 -->
<g id="edge21" class="edge">
<title>Node18&#45;&gt;Node20</title>
<path fill="none" stroke="midnightblue" d="M608.59,-325.28C587.35,-337.52 555.78,-354.89 527,-367.5 519,-371 510.34,-374.36 501.89,-377.42"/>
<polygon fill="midnightblue" stroke="midnightblue" points="610.41,-328.26 617.3,-320.21 606.89,-322.21 610.41,-328.26"/>
</g>
<!-- Node21 -->
<g id="node21" class="node">
<title>Node21</title>
<g id="a_node21"><a xlink:href="namespacextb__intgrad.html#a45fdbd10e8d62595c60b79d516e52cbd" target="_top" xlink:title="computes the dipole and quadrupole integrals and performs screening to">
<polygon fill="white" stroke="black" points="400,-301 400,-320 508,-320 508,-301 400,-301"/>
<text text-anchor="middle" x="454" y="-308" font-family="Helvetica,sans-Serif" font-size="10.00">xtb_intgrad::sdqint</text>
</a>
</g>
</g>
<!-- Node18&#45;&gt;Node21 -->
<g id="edge22" class="edge">
<title>Node18&#45;&gt;Node21</title>
<path fill="none" stroke="midnightblue" d="M552.61,-310.5C537.56,-310.5 522.2,-310.5 508.24,-310.5"/>
<polygon fill="midnightblue" stroke="midnightblue" points="552.95,-314 562.95,-310.5 552.95,-307 552.95,-314"/>
</g>
<!-- Node18&#45;&gt;Node22 -->
<g id="edge23" class="edge">
<title>Node18&#45;&gt;Node22</title>
<path fill="none" stroke="midnightblue" d="M578.63,-322.18C553.32,-327.57 523.65,-333.89 499.72,-338.98"/>
<polygon fill="midnightblue" stroke="midnightblue" points="579.4,-325.59 588.46,-320.09 577.95,-318.75 579.4,-325.59"/>
</g>
<!-- Node24 -->
<g id="node24" class="node">
<title>Node24</title>
<g id="a_node24"><a xlink:href="namespacextb__peeq.html#a88e7865d904c0f99f485a16db19d88aa" target="_top" xlink:title=" ">
<polygon fill="white" stroke="black" points="384,-213 384,-232 524,-232 524,-213 384,-213"/>
<text text-anchor="middle" x="454" y="-220" font-family="Helvetica,sans-Serif" font-size="10.00">xtb_peeq::ccm_build_sh0</text>
</a>
</g>
</g>
<!-- Node23&#45;&gt;Node24 -->
<g id="edge25" class="edge">
<title>Node23&#45;&gt;Node24</title>
<path fill="none" stroke="midnightblue" d="M561.55,-216.53C549.17,-217.22 536.32,-217.94 524.02,-218.63"/>
<polygon fill="midnightblue" stroke="midnightblue" points="562.03,-220.01 571.82,-215.96 561.64,-213.02 562.03,-220.01"/>
</g>
<!-- Node25 -->
<g id="node25" class="node">
<title>Node25</title>
<g id="a_node25"><a xlink:href="namespacextb__peeq.html#a9e3625eb7bd9b7e395c110aacfe6eaeb" target="_top" xlink:title=" ">
<polygon fill="white" stroke="black" points="385.5,-175 385.5,-194 522.5,-194 522.5,-175 385.5,-175"/>
<text text-anchor="middle" x="454" y="-182" font-family="Helvetica,sans-Serif" font-size="10.00">xtb_peeq::pbc_build_sh0</text>
</a>
</g>
</g>
<!-- Node23&#45;&gt;Node25 -->
<g id="edge27" class="edge">
<title>Node23&#45;&gt;Node25</title>
<path fill="none" stroke="midnightblue" d="M562.51,-201.36C547,-198.93 530.72,-196.38 515.66,-194.01"/>
<polygon fill="midnightblue" stroke="midnightblue" points="562.15,-204.85 572.57,-202.94 563.23,-197.93 562.15,-204.85"/>
</g>
<!-- Node24&#45;&gt;Node6 -->
<g id="edge26" class="edge">
<title>Node24&#45;&gt;Node6</title>
<path fill="none" stroke="midnightblue" d="M401.42,-210.1C394.49,-208.09 387.53,-205.87 381,-203.5 358.66,-195.39 334.09,-183.4 317.94,-175.06"/>
<polygon fill="midnightblue" stroke="midnightblue" points="400.91,-213.59 411.48,-212.91 402.79,-206.85 400.91,-213.59"/>
</g>
<!-- Node25&#45;&gt;Node6 -->
<g id="edge28" class="edge">
<title>Node25&#45;&gt;Node6</title>
<path fill="none" stroke="midnightblue" d="M375.52,-174.88C365.14,-173.59 354.79,-172.3 345.23,-171.12"/>
<polygon fill="midnightblue" stroke="midnightblue" points="375.09,-178.35 385.45,-176.11 375.95,-171.41 375.09,-178.35"/>
</g>
</g>
</svg>
