<?xml version="1.0" encoding="UTF-8" standalone="no"?>
<!DOCTYPE svg PUBLIC "-//W3C//DTD SVG 1.1//EN"
 "http://www.w3.org/Graphics/SVG/1.1/DTD/svg11.dtd">
<!-- Generated by graphviz version 2.43.0 (0)
 -->
<!-- Title: xtb_prog_thermo::parsearguments Pages: 1 -->
<svg width="944pt" height="180pt"
 viewBox="0.00 0.00 944.00 180.00" xmlns="http://www.w3.org/2000/svg" xmlns:xlink="http://www.w3.org/1999/xlink">
<g id="graph0" class="graph" transform="scale(1 1) rotate(0) translate(4 176)">
<title>xtb_prog_thermo::parsearguments</title>
<polygon fill="white" stroke="transparent" points="-4,4 -4,-176 940,-176 940,4 -4,4"/>
<!-- Node1 -->
<g id="node1" class="node">
<title>Node1</title>
<g id="a_node1"><a xlink:title="Parse command line arguments.">
<polygon fill="#bfbfbf" stroke="black" points="0,-76.5 0,-95.5 185,-95.5 185,-76.5 0,-76.5"/>
<text text-anchor="middle" x="92.5" y="-83.5" font-family="Helvetica,sans-Serif" font-size="10.00">xtb_prog_thermo::parsearguments</text>
</a>
</g>
</g>
<!-- Node2 -->
<g id="node2" class="node">
<title>Node2</title>
<g id="a_node2"><a xlink:href="namespacextb__setmod.html#a8ba41228cce5a9f406ba0a934ce4c59a" target="_top" xlink:title=" ">
<polygon fill="white" stroke="black" points="226.5,-152.5 226.5,-171.5 377.5,-171.5 377.5,-152.5 226.5,-152.5"/>
<text text-anchor="middle" x="302" y="-159.5" font-family="Helvetica,sans-Serif" font-size="10.00">xtb_setmod::set_symmetry</text>
</a>
</g>
</g>
<!-- Node1&#45;&gt;Node2 -->
<g id="edge1" class="edge">
<title>Node1&#45;&gt;Node2</title>
<path fill="none" stroke="midnightblue" d="M112.07,-95.63C136.5,-107.99 181.04,-129.46 221,-143 228.41,-145.51 236.32,-147.82 244.18,-149.9"/>
<polygon fill="midnightblue" stroke="midnightblue" points="243.5,-153.34 254.05,-152.4 245.22,-146.55 243.5,-153.34"/>
</g>
<!-- Node3 -->
<g id="node3" class="node">
<title>Node3</title>
<g id="a_node3"><a xlink:href="namespacextb__setmod.html#abddbb765a922ac85c17d501db639e4f5" target="_top" xlink:title=" ">
<polygon fill="white" stroke="black" points="234,-114.5 234,-133.5 370,-133.5 370,-114.5 234,-114.5"/>
<text text-anchor="middle" x="302" y="-121.5" font-family="Helvetica,sans-Serif" font-size="10.00">xtb_setmod::set_thermo</text>
</a>
</g>
</g>
<!-- Node1&#45;&gt;Node3 -->
<g id="edge2" class="edge">
<title>Node1&#45;&gt;Node3</title>
<path fill="none" stroke="midnightblue" d="M145.59,-95.54C173.96,-100.73 209.24,-107.2 239.02,-112.65"/>
<polygon fill="midnightblue" stroke="midnightblue" points="238.42,-116.1 248.89,-114.46 239.68,-109.21 238.42,-116.1"/>
</g>
<!-- Node8 -->
<g id="node8" class="node">
<title>Node8</title>
<g id="a_node8"><a xlink:href="error_8f90.html#a48d4e8f6658873a149a70800afa89704" target="_top" xlink:title=" ">
<polygon fill="white" stroke="black" points="269.5,-76.5 269.5,-95.5 334.5,-95.5 334.5,-76.5 269.5,-76.5"/>
<text text-anchor="middle" x="302" y="-83.5" font-family="Helvetica,sans-Serif" font-size="10.00">terminate</text>
</a>
</g>
</g>
<!-- Node1&#45;&gt;Node8 -->
<g id="edge8" class="edge">
<title>Node1&#45;&gt;Node8</title>
<path fill="none" stroke="midnightblue" d="M185.12,-86C211.05,-86 238.02,-86 259.4,-86"/>
<polygon fill="midnightblue" stroke="midnightblue" points="259.42,-89.5 269.42,-86 259.42,-82.5 259.42,-89.5"/>
</g>
<!-- Node9 -->
<g id="node9" class="node">
<title>Node9</title>
<g id="a_node9"><a xlink:href="namespacextb__prog__thermo.html#a471b3f540893ba4acbd76802bf6836ba" target="_top" xlink:title=" ">
<polygon fill="white" stroke="black" points="221,-38.5 221,-57.5 383,-57.5 383,-38.5 221,-38.5"/>
<text text-anchor="middle" x="302" y="-45.5" font-family="Helvetica,sans-Serif" font-size="10.00">xtb_prog_thermo::thermohelp</text>
</a>
</g>
</g>
<!-- Node1&#45;&gt;Node9 -->
<g id="edge9" class="edge">
<title>Node1&#45;&gt;Node9</title>
<path fill="none" stroke="midnightblue" d="M145.59,-76.46C173.96,-71.27 209.24,-64.8 239.02,-59.35"/>
<polygon fill="midnightblue" stroke="midnightblue" points="239.68,-62.79 248.89,-57.54 238.42,-55.9 239.68,-62.79"/>
</g>
<!-- Node10 -->
<g id="node10" class="node">
<title>Node10</title>
<g id="a_node10"><a xlink:href="symmetry__i_8c.html#aa77c823a9fc018ae1d437369708d8727" target="_top" xlink:title=" ">
<polygon fill="white" stroke="black" points="284,-0.5 284,-19.5 320,-19.5 320,-0.5 284,-0.5"/>
<text text-anchor="middle" x="302" y="-7.5" font-family="Helvetica,sans-Serif" font-size="10.00">true</text>
</a>
</g>
</g>
<!-- Node1&#45;&gt;Node10 -->
<g id="edge10" class="edge">
<title>Node1&#45;&gt;Node10</title>
<path fill="none" stroke="midnightblue" d="M112.07,-76.37C136.5,-64.01 181.04,-42.54 221,-29 238.25,-23.15 258.17,-18.42 273.82,-15.13"/>
<polygon fill="midnightblue" stroke="midnightblue" points="274.78,-18.51 283.88,-13.1 273.39,-11.65 274.78,-18.51"/>
</g>
<!-- Node4 -->
<g id="node4" class="node">
<title>Node4</title>
<g id="a_node4"><a xlink:href="namespacextb__mctc__strings.html#a5272db42d49f38098924d2587c9e9a78" target="_top" xlink:title="Parses the string &#39;str&#39; into arguments args(1), ..., args(nargs) based on the delimiters contained in...">
<polygon fill="white" stroke="black" points="419,-114.5 419,-133.5 552,-133.5 552,-114.5 419,-114.5"/>
<text text-anchor="middle" x="485.5" y="-121.5" font-family="Helvetica,sans-Serif" font-size="10.00">xtb_mctc_strings::parse</text>
</a>
</g>
</g>
<!-- Node3&#45;&gt;Node4 -->
<g id="edge3" class="edge">
<title>Node3&#45;&gt;Node4</title>
<path fill="none" stroke="midnightblue" d="M370.07,-124C382.66,-124 395.9,-124 408.73,-124"/>
<polygon fill="midnightblue" stroke="midnightblue" points="408.92,-127.5 418.92,-124 408.92,-120.5 408.92,-127.5"/>
</g>
<!-- Node5 -->
<g id="node5" class="node">
<title>Node5</title>
<g id="a_node5"><a xlink:href="namespacextb__mctc__strings.html#a83fe8976b683970b27e6b64632d50916" target="_top" xlink:title="Converts multiple spaces and tabs to single spaces; deletes control characters; removes initial space...">
<polygon fill="white" stroke="black" points="788,-114.5 788,-133.5 936,-133.5 936,-114.5 788,-114.5"/>
<text text-anchor="middle" x="862" y="-121.5" font-family="Helvetica,sans-Serif" font-size="10.00">xtb_mctc_strings::compact</text>
</a>
</g>
</g>
<!-- Node4&#45;&gt;Node5 -->
<g id="edge4" class="edge">
<title>Node4&#45;&gt;Node5</title>
<path fill="none" stroke="midnightblue" d="M527.74,-133.51C546.08,-137.28 568.01,-141.14 588,-143 660.58,-149.73 679.38,-149.28 752,-143 769.92,-141.45 789.31,-138.49 806.7,-135.36"/>
<polygon fill="midnightblue" stroke="midnightblue" points="807.49,-138.78 816.68,-133.51 806.21,-131.9 807.49,-138.78"/>
</g>
<!-- Node6 -->
<g id="node6" class="node">
<title>Node6</title>
<g id="a_node6"><a xlink:href="namespacextb__mctc__strings.html#ac1ac14e68e16e450995779028bd6566f" target="_top" xlink:title="Removes backslash () characters. Double backslashes (\) are replaced by a single backslash.">
<polygon fill="white" stroke="black" points="588,-114.5 588,-133.5 752,-133.5 752,-114.5 588,-114.5"/>
<text text-anchor="middle" x="670" y="-121.5" font-family="Helvetica,sans-Serif" font-size="10.00">xtb_mctc_strings::removebksl</text>
</a>
</g>
</g>
<!-- Node4&#45;&gt;Node6 -->
<g id="edge5" class="edge">
<title>Node4&#45;&gt;Node6</title>
<path fill="none" stroke="midnightblue" d="M552.13,-124C560.43,-124 569.04,-124 577.64,-124"/>
<polygon fill="midnightblue" stroke="midnightblue" points="577.73,-127.5 587.73,-124 577.73,-120.5 577.73,-127.5"/>
</g>
<!-- Node7 -->
<g id="node7" class="node">
<title>Node7</title>
<g id="a_node7"><a xlink:href="namespacextb__mctc__strings.html#a01f52f6293684260e59260ff5790e5c3" target="_top" xlink:title="Routine finds the first instance of a character from &#39;delims&#39; in the the string &#39;str&#39;....">
<polygon fill="white" stroke="black" points="606.5,-76.5 606.5,-95.5 733.5,-95.5 733.5,-76.5 606.5,-76.5"/>
<text text-anchor="middle" x="670" y="-83.5" font-family="Helvetica,sans-Serif" font-size="10.00">xtb_mctc_strings::split</text>
</a>
</g>
</g>
<!-- Node4&#45;&gt;Node7 -->
<g id="edge6" class="edge">
<title>Node4&#45;&gt;Node7</title>
<path fill="none" stroke="midnightblue" d="M532.55,-114.41C557.07,-109.31 587.41,-102.99 613.25,-97.61"/>
<polygon fill="midnightblue" stroke="midnightblue" points="614.2,-100.99 623.28,-95.52 612.78,-94.13 614.2,-100.99"/>
</g>
<!-- Node7&#45;&gt;Node5 -->
<g id="edge7" class="edge">
<title>Node7&#45;&gt;Node5</title>
<path fill="none" stroke="midnightblue" d="M718.95,-95.59C744.58,-100.72 776.34,-107.07 803.32,-112.46"/>
<polygon fill="midnightblue" stroke="midnightblue" points="802.91,-115.95 813.4,-114.48 804.28,-109.09 802.91,-115.95"/>
</g>
</g>
</svg>
