<?xml version="1.0" encoding="UTF-8" standalone="no"?>
<!DOCTYPE svg PUBLIC "-//W3C//DTD SVG 1.1//EN"
 "http://www.w3.org/Graphics/SVG/1.1/DTD/svg11.dtd">
<!-- Generated by graphviz version 2.43.0 (0)
 -->
<!-- Title: xtb_thermo::chg_switching Pages: 1 -->
<svg width="571pt" height="104pt"
 viewBox="0.00 0.00 571.00 104.00" xmlns="http://www.w3.org/2000/svg" xmlns:xlink="http://www.w3.org/1999/xlink">
<g id="graph0" class="graph" transform="scale(1 1) rotate(0) translate(4 100)">
<title>xtb_thermo::chg_switching</title>
<polygon fill="white" stroke="transparent" points="-4,4 -4,-100 567,-100 567,4 -4,4"/>
<!-- Node1 -->
<g id="node1" class="node">
<title>Node1</title>
<g id="a_node1"><a xlink:title=" ">
<polygon fill="#bfbfbf" stroke="black" points="415,-38.5 415,-57.5 563,-57.5 563,-38.5 415,-38.5"/>
<text text-anchor="middle" x="489" y="-45.5" font-family="Helvetica,sans-Serif" font-size="10.00">xtb_thermo::chg_switching</text>
</a>
</g>
</g>
<!-- Node2 -->
<g id="node2" class="node">
<title>Node2</title>
<g id="a_node2"><a xlink:href="namespacextb__thermo.html#a3fb6db9d7faae3155841d1c2385abe67" target="_top" xlink:title=" ">
<polygon fill="white" stroke="black" points="247.5,-76.5 247.5,-95.5 378.5,-95.5 378.5,-76.5 247.5,-76.5"/>
<text text-anchor="middle" x="313" y="-83.5" font-family="Helvetica,sans-Serif" font-size="10.00">xtb_thermo::lnqvibmod</text>
</a>
</g>
</g>
<!-- Node1&#45;&gt;Node2 -->
<g id="edge1" class="edge">
<title>Node1&#45;&gt;Node2</title>
<path fill="none" stroke="midnightblue" d="M434.19,-59.75C409.58,-65.13 380.81,-71.41 357.59,-76.48"/>
<polygon fill="midnightblue" stroke="midnightblue" points="435.07,-63.14 444.09,-57.59 433.58,-56.3 435.07,-63.14"/>
</g>
<!-- Node3 -->
<g id="node3" class="node">
<title>Node3</title>
<g id="a_node3"><a xlink:href="namespacextb__thermo.html#ad6ca7c6a05627f3a93a4eb4272260189" target="_top" xlink:title=" ">
<polygon fill="white" stroke="black" points="248.5,-38.5 248.5,-57.5 377.5,-57.5 377.5,-38.5 248.5,-38.5"/>
<text text-anchor="middle" x="313" y="-45.5" font-family="Helvetica,sans-Serif" font-size="10.00">xtb_thermo::oldthermo</text>
</a>
</g>
</g>
<!-- Node1&#45;&gt;Node3 -->
<g id="edge2" class="edge">
<title>Node1&#45;&gt;Node3</title>
<path fill="none" stroke="midnightblue" d="M404.75,-48C395.67,-48 386.53,-48 377.73,-48"/>
<polygon fill="midnightblue" stroke="midnightblue" points="404.96,-51.5 414.96,-48 404.96,-44.5 404.96,-51.5"/>
</g>
<!-- Node4 -->
<g id="node4" class="node">
<title>Node4</title>
<g id="a_node4"><a xlink:href="namespacextb__thermo.html#a2bc496861f25686ce7adee4c0d886777" target="_top" xlink:title=" ">
<polygon fill="white" stroke="black" points="247,-0.5 247,-19.5 379,-19.5 379,-0.5 247,-0.5"/>
<text text-anchor="middle" x="313" y="-7.5" font-family="Helvetica,sans-Serif" font-size="10.00">xtb_thermo::thermodyn</text>
</a>
</g>
</g>
<!-- Node1&#45;&gt;Node4 -->
<g id="edge3" class="edge">
<title>Node1&#45;&gt;Node4</title>
<path fill="none" stroke="midnightblue" d="M434.19,-36.25C409.58,-30.87 380.81,-24.59 357.59,-19.52"/>
<polygon fill="midnightblue" stroke="midnightblue" points="433.58,-39.7 444.09,-38.41 435.07,-32.86 433.58,-39.7"/>
</g>
<!-- Node5 -->
<g id="node5" class="node">
<title>Node5</title>
<g id="a_node5"><a xlink:href="TESTSUITE_2thermo_8f90.html#a160584aab23feea2451ed5391e6e4ebf" target="_top" xlink:title=" ">
<polygon fill="white" stroke="black" points="110,-0.5 110,-19.5 211,-19.5 211,-0.5 110,-0.5"/>
<text text-anchor="middle" x="160.5" y="-7.5" font-family="Helvetica,sans-Serif" font-size="10.00">test_thermo_calc</text>
</a>
</g>
</g>
<!-- Node4&#45;&gt;Node5 -->
<g id="edge4" class="edge">
<title>Node4&#45;&gt;Node5</title>
<path fill="none" stroke="midnightblue" d="M236.75,-10C228.12,-10 219.49,-10 211.31,-10"/>
<polygon fill="midnightblue" stroke="midnightblue" points="236.86,-13.5 246.86,-10 236.86,-6.5 236.86,-13.5"/>
</g>
<!-- Node6 -->
<g id="node6" class="node">
<title>Node6</title>
<g id="a_node6"><a xlink:href="tests__peeq_8f90.html#a87ff5319e0d2e627a4f71d7df0d14891" target="_top" xlink:title=" ">
<polygon fill="white" stroke="black" points="0,-0.5 0,-19.5 74,-19.5 74,-0.5 0,-0.5"/>
<text text-anchor="middle" x="37" y="-7.5" font-family="Helvetica,sans-Serif" font-size="10.00">peeq_tester</text>
</a>
</g>
</g>
<!-- Node5&#45;&gt;Node6 -->
<g id="edge5" class="edge">
<title>Node5&#45;&gt;Node6</title>
<path fill="none" stroke="midnightblue" d="M99.57,-10C90.87,-10 82.15,-10 74.12,-10"/>
<polygon fill="midnightblue" stroke="midnightblue" points="99.73,-13.5 109.73,-10 99.73,-6.5 99.73,-13.5"/>
</g>
</g>
</svg>
