<?xml version="1.0" encoding="UTF-8" standalone="no"?>
<!DOCTYPE svg PUBLIC "-//W3C//DTD SVG 1.1//EN"
 "http://www.w3.org/Graphics/SVG/1.1/DTD/svg11.dtd">
<!-- Generated by graphviz version 2.46.0 (20210122.1329)
 -->
<!-- Title: xtb_basic_geo::crprod Pages: 1 -->
<svg width="1513pt" height="335pt"
 viewBox="0.00 0.00 1513.00 335.08" xmlns="http://www.w3.org/2000/svg" xmlns:xlink="http://www.w3.org/1999/xlink">
<g id="graph0" class="graph" transform="scale(1 1) rotate(0) translate(4 331.08)">
<title>xtb_basic_geo::crprod</title>
<polygon fill="white" stroke="transparent" points="-4,4 -4,-331.08 1509,-331.08 1509,4 -4,4"/>
<!-- Node1 -->
<g id="node1" class="node">
<title>Node1</title>
<g id="a_node1"><a xlink:title=" ">
<polygon fill="#bfbfbf" stroke="black" points="1395,-139.5 1395,-158.5 1505,-158.5 1505,-139.5 1395,-139.5"/>
<text text-anchor="middle" x="1450" y="-146.5" font-family="Helvetica,sans-Serif" font-size="10.00">xtb_basic_geo::crprod</text>
</a>
</g>
</g>
<!-- Node2 -->
<g id="node2" class="node">
<title>Node2</title>
<g id="a_node2"><a xlink:href="namespacextb__constrainpot.html#aee05a132cdbd72139dc12ad55378e5c6" target="_top" xlink:title=" ">
<polygon fill="white" stroke="black" points="1227,-134 1227,-164 1359,-164 1359,-134 1227,-134"/>
<text text-anchor="start" x="1235" y="-152" font-family="Helvetica,sans-Serif" font-size="10.00">xtb_constrainpot::constrain</text>
<text text-anchor="middle" x="1293" y="-141" font-family="Helvetica,sans-Serif" font-size="10.00">_angle</text>
</a>
</g>
</g>
<!-- Node1&#45;&gt;Node2 -->
<g id="edge1" class="edge">
<title>Node1&#45;&gt;Node2</title>
<path fill="none" stroke="midnightblue" d="M1384.63,-149C1376.2,-149 1367.55,-149 1359.1,-149"/>
<polygon fill="midnightblue" stroke="midnightblue" points="1384.79,-152.5 1394.79,-149 1384.79,-145.5 1384.79,-152.5"/>
</g>
<!-- Node3 -->
<g id="node3" class="node">
<title>Node3</title>
<g id="a_node3"><a xlink:href="namespacextb__constrainpot.html#ad9b8afcae411277c3328be0e3ff8c8b4" target="_top" xlink:title=" ">
<polygon fill="white" stroke="black" points="1040,-207.5 1040,-226.5 1191,-226.5 1191,-207.5 1040,-207.5"/>
<text text-anchor="middle" x="1115.5" y="-214.5" font-family="Helvetica,sans-Serif" font-size="10.00">xtb_constrainpot::constrain_pot</text>
</a>
</g>
</g>
<!-- Node2&#45;&gt;Node3 -->
<g id="edge2" class="edge">
<title>Node2&#45;&gt;Node3</title>
<path fill="none" stroke="midnightblue" d="M1243.53,-167.78C1210.35,-180.64 1167.73,-197.15 1141.27,-207.4"/>
<polygon fill="midnightblue" stroke="midnightblue" points="1244.99,-170.97 1253.05,-164.09 1242.46,-164.44 1244.99,-170.97"/>
</g>
<!-- Node7 -->
<g id="node7" class="node">
<title>Node7</title>
<g id="a_node7"><a xlink:href="constr_8f90.html#a32820f74383b0f93c743faceb8385214" target="_top" xlink:title=" ">
<polygon fill="white" stroke="black" points="1083,-139.5 1083,-158.5 1148,-158.5 1148,-139.5 1083,-139.5"/>
<text text-anchor="middle" x="1115.5" y="-146.5" font-family="Helvetica,sans-Serif" font-size="10.00">constrhess</text>
</a>
</g>
</g>
<!-- Node2&#45;&gt;Node7 -->
<g id="edge6" class="edge">
<title>Node2&#45;&gt;Node7</title>
<path fill="none" stroke="midnightblue" d="M1216.52,-149C1192.65,-149 1167.55,-149 1148.47,-149"/>
<polygon fill="midnightblue" stroke="midnightblue" points="1216.65,-152.5 1226.65,-149 1216.65,-145.5 1216.65,-152.5"/>
</g>
<!-- Node23 -->
<g id="node23" class="node">
<title>Node23</title>
<g id="a_node23"><a xlink:href="namespacextb__scanparam.html#a98e6076b6bb1acc609033880889710ae" target="_top" xlink:title=" ">
<polygon fill="white" stroke="black" points="280,-0.5 280,-19.5 402,-19.5 402,-0.5 280,-0.5"/>
<text text-anchor="middle" x="341" y="-7.5" font-family="Helvetica,sans-Serif" font-size="10.00">xtb_scanparam::pot_info</text>
</a>
</g>
</g>
<!-- Node2&#45;&gt;Node23 -->
<g id="edge31" class="edge">
<title>Node2&#45;&gt;Node23</title>
<path fill="none" stroke="midnightblue" d="M1262.04,-128.16C1204.24,-90.05 1072.09,-13 948.5,-13 948.5,-13 948.5,-13 649,-13 563.19,-13 463.88,-11.81 402,-10.93"/>
<polygon fill="midnightblue" stroke="midnightblue" points="1260.41,-131.28 1270.67,-133.93 1264.3,-125.46 1260.41,-131.28"/>
</g>
<!-- Node4 -->
<g id="node4" class="node">
<title>Node4</title>
<g id="a_node4"><a xlink:href="namespacextb__gfnff__calculator.html#a8775e737196933e41e48728956ddf782" target="_top" xlink:title=" ">
<polygon fill="white" stroke="black" points="897,-276 897,-306 998,-306 998,-276 897,-276"/>
<text text-anchor="start" x="905" y="-294" font-family="Helvetica,sans-Serif" font-size="10.00">xtb_gfnff_calculator</text>
<text text-anchor="middle" x="947.5" y="-283" font-family="Helvetica,sans-Serif" font-size="10.00">::singlepoint</text>
</a>
</g>
</g>
<!-- Node3&#45;&gt;Node4 -->
<g id="edge3" class="edge">
<title>Node3&#45;&gt;Node4</title>
<path fill="none" stroke="midnightblue" d="M1084.54,-230.72C1062.35,-240.84 1031.34,-254.9 1004,-267 997.38,-269.93 990.29,-273.03 983.47,-275.98"/>
<polygon fill="midnightblue" stroke="midnightblue" points="1086.13,-233.84 1093.77,-226.5 1083.22,-227.47 1086.13,-233.84"/>
</g>
<!-- Node5 -->
<g id="node5" class="node">
<title>Node5</title>
<g id="a_node5"><a xlink:href="namespacextb__type__dummycalc.html#a28a36738c316fb4a0655328844e94957" target="_top" xlink:title=" ">
<polygon fill="white" stroke="black" points="894,-227 894,-257 1001,-257 1001,-227 894,-227"/>
<text text-anchor="start" x="902" y="-245" font-family="Helvetica,sans-Serif" font-size="10.00">xtb_type_dummycalc</text>
<text text-anchor="middle" x="947.5" y="-234" font-family="Helvetica,sans-Serif" font-size="10.00">::singlepoint</text>
</a>
</g>
</g>
<!-- Node3&#45;&gt;Node5 -->
<g id="edge4" class="edge">
<title>Node3&#45;&gt;Node5</title>
<path fill="none" stroke="midnightblue" d="M1041.05,-228.06C1027.57,-230.09 1013.74,-232.17 1001.03,-234.09"/>
<polygon fill="midnightblue" stroke="midnightblue" points="1041.9,-231.47 1051.27,-226.52 1040.86,-224.55 1041.9,-231.47"/>
</g>
<!-- Node6 -->
<g id="node6" class="node">
<title>Node6</title>
<g id="a_node6"><a xlink:href="namespacextb__xtb__calculator.html#a75c96263c235c99dfeeda3e865f9898c" target="_top" xlink:title=" ">
<polygon fill="white" stroke="black" points="900,-178 900,-208 995,-208 995,-178 900,-178"/>
<text text-anchor="start" x="908" y="-196" font-family="Helvetica,sans-Serif" font-size="10.00">xtb_xtb_calculator</text>
<text text-anchor="middle" x="947.5" y="-185" font-family="Helvetica,sans-Serif" font-size="10.00">::singlepoint</text>
</a>
</g>
</g>
<!-- Node3&#45;&gt;Node6 -->
<g id="edge5" class="edge">
<title>Node3&#45;&gt;Node6</title>
<path fill="none" stroke="midnightblue" d="M1038.3,-205.98C1023.6,-203.86 1008.61,-201.69 995.2,-199.75"/>
<polygon fill="midnightblue" stroke="midnightblue" points="1038.02,-209.48 1048.42,-207.45 1039.02,-202.55 1038.02,-209.48"/>
</g>
<!-- Node8 -->
<g id="node8" class="node">
<title>Node8</title>
<g id="a_node8"><a xlink:href="namespacextb__optimizer.html#a9fc9ad9955c0a2ef4872d25495d02901" target="_top" xlink:title=" ">
<polygon fill="white" stroke="black" points="891,-139.5 891,-158.5 1004,-158.5 1004,-139.5 891,-139.5"/>
<text text-anchor="middle" x="947.5" y="-146.5" font-family="Helvetica,sans-Serif" font-size="10.00">xtb_optimizer::modhes</text>
</a>
</g>
</g>
<!-- Node7&#45;&gt;Node8 -->
<g id="edge7" class="edge">
<title>Node7&#45;&gt;Node8</title>
<path fill="none" stroke="midnightblue" d="M1072.79,-149C1052.02,-149 1026.61,-149 1004.2,-149"/>
<polygon fill="midnightblue" stroke="midnightblue" points="1072.89,-152.5 1082.89,-149 1072.89,-145.5 1072.89,-152.5"/>
</g>
<!-- Node9 -->
<g id="node9" class="node">
<title>Node9</title>
<g id="a_node9"><a xlink:href="namespacextb__optimizer.html#a1743159550358c92fb2761af80e15285" target="_top" xlink:title=" ">
<polygon fill="white" stroke="black" points="746.5,-208.5 746.5,-227.5 853.5,-227.5 853.5,-208.5 746.5,-208.5"/>
<text text-anchor="middle" x="800" y="-215.5" font-family="Helvetica,sans-Serif" font-size="10.00">xtb_optimizer::ancopt</text>
</a>
</g>
</g>
<!-- Node8&#45;&gt;Node9 -->
<g id="edge8" class="edge">
<title>Node8&#45;&gt;Node9</title>
<path fill="none" stroke="midnightblue" d="M904.42,-162.38C899.79,-164.37 895.22,-166.58 891,-169 872.93,-179.35 873.11,-188.71 855,-199 848.52,-202.68 841.2,-205.84 834.09,-208.46"/>
<polygon fill="midnightblue" stroke="midnightblue" points="905.96,-165.53 913.95,-158.59 903.37,-159.03 905.96,-165.53"/>
</g>
<!-- Node21 -->
<g id="node21" class="node">
<title>Node21</title>
<g id="a_node21"><a xlink:href="namespacextb__relaxation__engine.html#a930f6aac4b13eab0de82f2b71bcde96b" target="_top" xlink:title="frontend implementation of the fast inertial relaxation engine">
<polygon fill="white" stroke="black" points="745,-159 745,-189 855,-189 855,-159 745,-159"/>
<text text-anchor="start" x="753" y="-177" font-family="Helvetica,sans-Serif" font-size="10.00">xtb_relaxation_engine</text>
<text text-anchor="middle" x="800" y="-166" font-family="Helvetica,sans-Serif" font-size="10.00">::fire</text>
</a>
</g>
</g>
<!-- Node8&#45;&gt;Node21 -->
<g id="edge27" class="edge">
<title>Node8&#45;&gt;Node21</title>
<path fill="none" stroke="midnightblue" d="M881.06,-160.24C872.45,-161.72 863.7,-163.23 855.31,-164.67"/>
<polygon fill="midnightblue" stroke="midnightblue" points="881.81,-163.67 891.08,-158.52 880.63,-156.77 881.81,-163.67"/>
</g>
<!-- Node22 -->
<g id="node22" class="node">
<title>Node22</title>
<g id="a_node22"><a xlink:href="namespacextb__relaxation__engine.html#a93ca131c43cfa21276f1bc353c189423" target="_top" xlink:title="frontend implementation of the low memory/linear scaling (by taste)">
<polygon fill="white" stroke="black" points="745,-110 745,-140 855,-140 855,-110 745,-110"/>
<text text-anchor="start" x="753" y="-128" font-family="Helvetica,sans-Serif" font-size="10.00">xtb_relaxation_engine</text>
<text text-anchor="middle" x="800" y="-117" font-family="Helvetica,sans-Serif" font-size="10.00">::l_ancopt</text>
</a>
</g>
</g>
<!-- Node8&#45;&gt;Node22 -->
<g id="edge29" class="edge">
<title>Node8&#45;&gt;Node22</title>
<path fill="none" stroke="midnightblue" d="M880.67,-138.14C872.09,-136.73 863.37,-135.29 855.01,-133.91"/>
<polygon fill="midnightblue" stroke="midnightblue" points="880.23,-141.62 890.66,-139.79 881.36,-134.71 880.23,-141.62"/>
</g>
<!-- Node10 -->
<g id="node10" class="node">
<title>Node10</title>
<g id="a_node10"><a xlink:href="namespacextb__biaspath.html#a17ea22b101e578a3df8d2b58b96811a5" target="_top" xlink:title=" ">
<polygon fill="white" stroke="black" points="591,-262.5 591,-281.5 709,-281.5 709,-262.5 591,-262.5"/>
<text text-anchor="middle" x="650" y="-269.5" font-family="Helvetica,sans-Serif" font-size="10.00">xtb_biaspath::bias_path</text>
</a>
</g>
</g>
<!-- Node9&#45;&gt;Node10 -->
<g id="edge9" class="edge">
<title>Node9&#45;&gt;Node10</title>
<path fill="none" stroke="midnightblue" d="M763.22,-231.06C736.74,-240.72 701.27,-253.66 677.36,-262.38"/>
<polygon fill="midnightblue" stroke="midnightblue" points="764.69,-234.25 772.88,-227.53 762.29,-227.67 764.69,-234.25"/>
</g>
<!-- Node13 -->
<g id="node13" class="node">
<title>Node13</title>
<g id="a_node13"><a xlink:href="namespacextb__geoopt.html#a1f0513294f2237b94f355cc4dc5dd867" target="_top" xlink:title=" ">
<polygon fill="white" stroke="black" points="596,-159 596,-189 704,-189 704,-159 596,-159"/>
<text text-anchor="start" x="604" y="-177" font-family="Helvetica,sans-Serif" font-size="10.00">xtb_geoopt::geometry</text>
<text text-anchor="middle" x="650" y="-166" font-family="Helvetica,sans-Serif" font-size="10.00">_optimization</text>
</a>
</g>
</g>
<!-- Node9&#45;&gt;Node13 -->
<g id="edge12" class="edge">
<title>Node9&#45;&gt;Node13</title>
<path fill="none" stroke="midnightblue" d="M757.11,-205.54C739.86,-200.42 719.74,-194.44 701.67,-189.07"/>
<polygon fill="midnightblue" stroke="midnightblue" points="756.3,-208.96 766.89,-208.45 758.3,-202.25 756.3,-208.96"/>
</g>
<!-- Node11 -->
<g id="node11" class="node">
<title>Node11</title>
<g id="a_node11"><a xlink:href="namespacextb__prog__main.html#a92b3b61ee04235e6343f652095682529" target="_top" xlink:title=" ">
<polygon fill="white" stroke="black" points="126,-164.5 126,-183.5 244,-183.5 244,-164.5 126,-164.5"/>
<text text-anchor="middle" x="185" y="-171.5" font-family="Helvetica,sans-Serif" font-size="10.00">xtb_prog_main::xtbmain</text>
</a>
</g>
</g>
<!-- Node10&#45;&gt;Node11 -->
<g id="edge10" class="edge">
<title>Node10&#45;&gt;Node11</title>
<path fill="none" stroke="midnightblue" d="M616.18,-285.22C548.97,-310.08 392.52,-356.44 280,-300 229.75,-274.79 199.5,-208.57 189.61,-183.66"/>
<polygon fill="midnightblue" stroke="midnightblue" points="617.69,-288.39 625.81,-281.58 615.22,-281.84 617.69,-288.39"/>
</g>
<!-- Node12 -->
<g id="node12" class="node">
<title>Node12</title>
<g id="a_node12"><a xlink:href="primary_8f90.html#a2a67903cf5be605c5b6d3c362c6a3c5c" target="_top" xlink:title="The primary driver for the xtb program package.">
<polygon fill="white" stroke="black" points="0,-164.5 0,-183.5 90,-183.5 90,-164.5 0,-164.5"/>
<text text-anchor="middle" x="45" y="-171.5" font-family="Helvetica,sans-Serif" font-size="10.00">xtb_prog_primary</text>
</a>
</g>
</g>
<!-- Node11&#45;&gt;Node12 -->
<g id="edge11" class="edge">
<title>Node11&#45;&gt;Node12</title>
<path fill="none" stroke="midnightblue" d="M115.73,-174C107.06,-174 98.37,-174 90.22,-174"/>
<polygon fill="midnightblue" stroke="midnightblue" points="115.88,-177.5 125.88,-174 115.88,-170.5 115.88,-177.5"/>
</g>
<!-- Node13&#45;&gt;Node11 -->
<g id="edge26" class="edge">
<title>Node13&#45;&gt;Node11</title>
<path fill="none" stroke="midnightblue" d="M634.13,-197.43C617.9,-220.59 589.56,-254.58 555,-269 442.21,-316.07 392.79,-316.07 280,-269 237.6,-251.31 204.56,-204.15 191.76,-183.7"/>
<polygon fill="midnightblue" stroke="midnightblue" points="637.03,-199.39 639.75,-189.15 631.24,-195.46 637.03,-199.39"/>
</g>
<!-- Node14 -->
<g id="node14" class="node">
<title>Node14</title>
<g id="a_node14"><a xlink:href="namespacextb__kopt.html#ada4ab70832f563f46c8ffc8cea64c78b" target="_top" xlink:title=" ">
<polygon fill="white" stroke="black" points="447.5,-240.5 447.5,-259.5 545.5,-259.5 545.5,-240.5 447.5,-240.5"/>
<text text-anchor="middle" x="496.5" y="-247.5" font-family="Helvetica,sans-Serif" font-size="10.00">xtb_kopt::get_rmsd</text>
</a>
</g>
</g>
<!-- Node13&#45;&gt;Node14 -->
<g id="edge13" class="edge">
<title>Node13&#45;&gt;Node14</title>
<path fill="none" stroke="midnightblue" d="M619.02,-194.58C601.02,-206.32 577.34,-220.7 555,-231 547.36,-234.52 538.88,-237.7 530.83,-240.4"/>
<polygon fill="midnightblue" stroke="midnightblue" points="620.96,-197.49 627.37,-189.06 617.1,-191.65 620.96,-197.49"/>
</g>
<!-- Node16 -->
<g id="node16" class="node">
<title>Node16</title>
<g id="a_node16"><a xlink:href="namespacextb__mdoptim.html#ab0ba2195163cd6794115b99516ba5316" target="_top" xlink:title=" ">
<polygon fill="white" stroke="black" points="444.5,-202.5 444.5,-221.5 548.5,-221.5 548.5,-202.5 444.5,-202.5"/>
<text text-anchor="middle" x="496.5" y="-209.5" font-family="Helvetica,sans-Serif" font-size="10.00">xtb_mdoptim::mdopt</text>
</a>
</g>
</g>
<!-- Node13&#45;&gt;Node16 -->
<g id="edge16" class="edge">
<title>Node13&#45;&gt;Node16</title>
<path fill="none" stroke="midnightblue" d="M585.71,-189.88C568.71,-194.14 550.85,-198.62 535.69,-202.42"/>
<polygon fill="midnightblue" stroke="midnightblue" points="586.74,-193.23 595.59,-187.4 585.04,-186.44 586.74,-193.23"/>
</g>
<!-- Node17 -->
<g id="node17" class="node">
<title>Node17</title>
<g id="a_node17"><a xlink:href="namespacextb__modef.html#a39c4cb408b8b02afb7bf83a1d7f13de3" target="_top" xlink:title=" ">
<polygon fill="white" stroke="black" points="283,-164.5 283,-183.5 399,-183.5 399,-164.5 283,-164.5"/>
<text text-anchor="middle" x="341" y="-171.5" font-family="Helvetica,sans-Serif" font-size="10.00">xtb_modef::modefollow</text>
</a>
</g>
</g>
<!-- Node13&#45;&gt;Node17 -->
<g id="edge18" class="edge">
<title>Node13&#45;&gt;Node17</title>
<path fill="none" stroke="midnightblue" d="M585.58,-174C530.72,-174 452.11,-174 399.16,-174"/>
<polygon fill="midnightblue" stroke="midnightblue" points="585.88,-177.5 595.88,-174 585.88,-170.5 585.88,-177.5"/>
</g>
<!-- Node18 -->
<g id="node18" class="node">
<title>Node18</title>
<g id="a_node18"><a xlink:href="namespacextb__scan.html#abef8f8d0fa299e9e2caf823f3672f14a" target="_top" xlink:title=" ">
<polygon fill="white" stroke="black" points="438,-126.5 438,-145.5 555,-145.5 555,-126.5 438,-126.5"/>
<text text-anchor="middle" x="496.5" y="-133.5" font-family="Helvetica,sans-Serif" font-size="10.00">xtb_scan::relaxed_scan</text>
</a>
</g>
</g>
<!-- Node13&#45;&gt;Node18 -->
<g id="edge20" class="edge">
<title>Node13&#45;&gt;Node18</title>
<path fill="none" stroke="midnightblue" d="M585.71,-158.12C568.71,-153.86 550.85,-149.38 535.69,-145.58"/>
<polygon fill="midnightblue" stroke="midnightblue" points="585.04,-161.56 595.59,-160.6 586.74,-154.77 585.04,-161.56"/>
</g>
<!-- Node19 -->
<g id="node19" class="node">
<title>Node19</title>
<g id="a_node19"><a xlink:href="namespacextb__screening.html#a7f4004ff0e65127a38b038f0a7cdcc84" target="_top" xlink:title=" ">
<polygon fill="white" stroke="black" points="441.5,-88.5 441.5,-107.5 551.5,-107.5 551.5,-88.5 441.5,-88.5"/>
<text text-anchor="middle" x="496.5" y="-95.5" font-family="Helvetica,sans-Serif" font-size="10.00">xtb_screening::screen</text>
</a>
</g>
</g>
<!-- Node13&#45;&gt;Node19 -->
<g id="edge22" class="edge">
<title>Node13&#45;&gt;Node19</title>
<path fill="none" stroke="midnightblue" d="M619.02,-153.42C601.02,-141.68 577.34,-127.3 555,-117 547.36,-113.48 538.88,-110.3 530.83,-107.6"/>
<polygon fill="midnightblue" stroke="midnightblue" points="617.1,-156.35 627.37,-158.94 620.96,-150.51 617.1,-156.35"/>
</g>
<!-- Node20 -->
<g id="node20" class="node">
<title>Node20</title>
<g id="a_node20"><a xlink:href="namespacextb__gfnff__convert.html#adf399b47b9f2a8364327d9d5c38cb2b8" target="_top" xlink:title=" ">
<polygon fill="white" stroke="black" points="293.5,-39 293.5,-69 388.5,-69 388.5,-39 293.5,-39"/>
<text text-anchor="start" x="301.5" y="-57" font-family="Helvetica,sans-Serif" font-size="10.00">xtb_gfnff_convert::</text>
<text text-anchor="middle" x="341" y="-46" font-family="Helvetica,sans-Serif" font-size="10.00">struc_convert</text>
</a>
</g>
</g>
<!-- Node13&#45;&gt;Node20 -->
<g id="edge24" class="edge">
<title>Node13&#45;&gt;Node20</title>
<path fill="none" stroke="midnightblue" d="M632.99,-150.34C616.36,-127.86 588.14,-95.16 555,-79 502.29,-53.29 433.82,-49.76 388.93,-50.84"/>
<polygon fill="midnightblue" stroke="midnightblue" points="630.31,-152.61 638.99,-158.69 636,-148.53 630.31,-152.61"/>
</g>
<!-- Node15 -->
<g id="node15" class="node">
<title>Node15</title>
<g id="a_node15"><a xlink:href="namespacextb__kopt.html#aed50b40106367857ab2d0bf3a109f62b" target="_top" xlink:title=" ">
<polygon fill="white" stroke="black" points="293.5,-240.5 293.5,-259.5 388.5,-259.5 388.5,-240.5 293.5,-240.5"/>
<text text-anchor="middle" x="341" y="-247.5" font-family="Helvetica,sans-Serif" font-size="10.00">xtb_kopt::get_kopt</text>
</a>
</g>
</g>
<!-- Node14&#45;&gt;Node15 -->
<g id="edge14" class="edge">
<title>Node14&#45;&gt;Node15</title>
<path fill="none" stroke="midnightblue" d="M437.03,-250C421.03,-250 403.91,-250 388.66,-250"/>
<polygon fill="midnightblue" stroke="midnightblue" points="437.35,-253.5 447.35,-250 437.35,-246.5 437.35,-253.5"/>
</g>
<!-- Node15&#45;&gt;Node11 -->
<g id="edge15" class="edge">
<title>Node15&#45;&gt;Node11</title>
<path fill="none" stroke="midnightblue" d="M304.66,-236.72C296.48,-233.41 287.87,-229.73 280,-226 251.86,-212.65 220.43,-194.59 201.98,-183.65"/>
<polygon fill="midnightblue" stroke="midnightblue" points="303.42,-239.99 314,-240.42 305.99,-233.48 303.42,-239.99"/>
</g>
<!-- Node16&#45;&gt;Node11 -->
<g id="edge17" class="edge">
<title>Node16&#45;&gt;Node11</title>
<path fill="none" stroke="midnightblue" d="M434.29,-208.43C391.04,-205.46 331.79,-200.49 280,-193 262.86,-190.52 244.14,-186.92 227.94,-183.52"/>
<polygon fill="midnightblue" stroke="midnightblue" points="434.16,-211.93 444.37,-209.1 434.63,-204.94 434.16,-211.93"/>
</g>
<!-- Node17&#45;&gt;Node11 -->
<g id="edge19" class="edge">
<title>Node17&#45;&gt;Node11</title>
<path fill="none" stroke="midnightblue" d="M272.51,-174C263.06,-174 253.42,-174 244.16,-174"/>
<polygon fill="midnightblue" stroke="midnightblue" points="272.66,-177.5 282.66,-174 272.66,-170.5 272.66,-177.5"/>
</g>
<!-- Node18&#45;&gt;Node11 -->
<g id="edge21" class="edge">
<title>Node18&#45;&gt;Node11</title>
<path fill="none" stroke="midnightblue" d="M427.44,-140.05C384.92,-143.06 329.11,-147.89 280,-155 262.86,-157.48 244.14,-161.08 227.94,-164.48"/>
<polygon fill="midnightblue" stroke="midnightblue" points="427.94,-143.52 437.67,-139.34 427.46,-136.54 427.94,-143.52"/>
</g>
<!-- Node19&#45;&gt;Node11 -->
<g id="edge23" class="edge">
<title>Node19&#45;&gt;Node11</title>
<path fill="none" stroke="midnightblue" d="M431.2,-106.79C387.99,-113.47 330.01,-123.91 280,-138 254.6,-145.16 226.46,-156.4 207.65,-164.41"/>
<polygon fill="midnightblue" stroke="midnightblue" points="431.93,-110.22 441.29,-105.26 430.88,-103.3 431.93,-110.22"/>
</g>
<!-- Node20&#45;&gt;Node11 -->
<g id="edge25" class="edge">
<title>Node20&#45;&gt;Node11</title>
<path fill="none" stroke="midnightblue" d="M296.43,-73.83C290.74,-76.97 285.12,-80.39 280,-84 244.72,-108.85 209.76,-146.72 194.28,-164.35"/>
<polygon fill="midnightblue" stroke="midnightblue" points="298.14,-76.88 305.34,-69.12 294.87,-70.69 298.14,-76.88"/>
</g>
<!-- Node21&#45;&gt;Node13 -->
<g id="edge28" class="edge">
<title>Node21&#45;&gt;Node13</title>
<path fill="none" stroke="midnightblue" d="M734.69,-174C724.54,-174 714.14,-174 704.27,-174"/>
<polygon fill="midnightblue" stroke="midnightblue" points="734.73,-177.5 744.73,-174 734.73,-170.5 734.73,-177.5"/>
</g>
<!-- Node22&#45;&gt;Node13 -->
<g id="edge30" class="edge">
<title>Node22&#45;&gt;Node13</title>
<path fill="none" stroke="midnightblue" d="M743.85,-143.26C728.24,-148.43 711.43,-153.99 696.46,-158.95"/>
<polygon fill="midnightblue" stroke="midnightblue" points="744.99,-146.57 753.39,-140.1 742.79,-139.92 744.99,-146.57"/>
</g>
<!-- Node23&#45;&gt;Node11 -->
<g id="edge32" class="edge">
<title>Node23&#45;&gt;Node11</title>
<path fill="none" stroke="midnightblue" d="M287.81,-23.94C285.07,-25.46 282.44,-27.14 280,-29 230.61,-66.64 199.63,-138.21 189.58,-164.23"/>
<polygon fill="midnightblue" stroke="midnightblue" points="289.36,-27.08 296.89,-19.62 286.36,-20.76 289.36,-27.08"/>
</g>
</g>
</svg>
