<?xml version="1.0" encoding="UTF-8" standalone="no"?>
<!DOCTYPE svg PUBLIC "-//W3C//DTD SVG 1.1//EN"
 "http://www.w3.org/Graphics/SVG/1.1/DTD/svg11.dtd">
<!-- Generated by graphviz version 2.46.1 (20210215.1649)
 -->
<!-- Title: xtb_coulomb_ewald::getrterm Pages: 1 -->
<!--zoomable 225 -->
<svg id="main" version="1.1" xmlns="http://www.w3.org/2000/svg" xmlns:xlink="http://www.w3.org/1999/xlink" xml:space="preserve" onload="init(evt)">
<style type="text/css"><![CDATA[
.edge:hover path { stroke: red; }
.edge:hover polygon { stroke: red; fill: red; }
]]></style>
<script type="text/javascript"><![CDATA[
var edges = document.getElementsByTagName('g');
if (edges && edges.length) {
  for (var i=0;i<edges.length;i++) {
    if (edges[i].id.substr(0,4)=='edge') {
      edges[i].setAttribute('class','edge');
    }
  }
}
]]></script>
        <defs>
                <circle id="rim" cx="0" cy="0" r="7"/>
                <circle id="rim2" cx="0" cy="0" r="3.5"/>
                <g id="zoomPlus">
                        <use xlink:href="#rim" fill="#404040">
                                <set attributeName="fill" to="#808080" begin="zoomplus.mouseover" end="zoomplus.mouseout"/>
                        </use>
                        <path d="M-4,0h8M0,-4v8" fill="none" stroke="white" stroke-width="1.5" pointer-events="none"/>
                </g>
                <g id="zoomMin">
                        <use xlink:href="#rim" fill="#404040">
                                <set attributeName="fill" to="#808080" begin="zoomminus.mouseover" end="zoomminus.mouseout"/>
                        </use>
                        <path d="M-4,0h8" fill="none" stroke="white" stroke-width="1.5" pointer-events="none"/>
                </g>
                <g id="dirArrow">
                        <path fill="none" stroke="white" stroke-width="1.5" d="M0,-3.0v7 M-2.5,-0.5L0,-3.0L2.5,-0.5"/>
                </g>
               <g id="resetDef">
                       <use xlink:href="#rim2" fill="#404040">
                               <set attributeName="fill" to="#808080" begin="reset.mouseover" end="reset.mouseout"/>
                       </use>
               </g>
        </defs>

<script type="text/javascript">
var viewWidth = 977;
var viewHeight = 225;
var sectionId = 'dynsection-11';
</script>
<script xlink:href="svgpan.js"/>
<svg id="graph" class="graph">
<g id="viewport">
<title>xtb_coulomb_ewald::getrterm</title>
<polygon fill="white" stroke="transparent" points="-4,4 -4,-221 973,-221 973,4 -4,4"/>
<!-- Node1 -->
<g id="node1" class="node">
<title>Node1</title>
<g id="a_node1"><a xlink:title="Returns the max. value of a term in the real space part of the Ewald summation.">
<polygon fill="#bfbfbf" stroke="black" points="862,-88.5 862,-118.5 969,-118.5 969,-88.5 862,-88.5"/>
<text text-anchor="start" x="870" y="-106.5" font-family="Helvetica,sans-Serif" font-size="10.00">xtb_coulomb_ewald::</text>
<text text-anchor="middle" x="915.5" y="-95.5" font-family="Helvetica,sans-Serif" font-size="10.00">getrterm</text>
</a>
</g>
</g>
<!-- Node2 -->
<g id="node2" class="node">
<title>Node2</title>
<g id="a_node2"><a xlink:href="namespacextb__coulomb__ewald.html#a979ba98f5270b5ea7f1c4ec4740f85f1" target="_top" xlink:title="Returns the difference in the decrease of the real and reciprocal parts of the.">
<polygon fill="white" stroke="black" points="671.5,-186.5 671.5,-216.5 778.5,-216.5 778.5,-186.5 671.5,-186.5"/>
<text text-anchor="start" x="679.5" y="-204.5" font-family="Helvetica,sans-Serif" font-size="10.00">xtb_coulomb_ewald::</text>
<text text-anchor="middle" x="725" y="-193.5" font-family="Helvetica,sans-Serif" font-size="10.00">diffrecreal</text>
</a>
</g>
</g>
<!-- Node1&#45;&gt;Node2 -->
<g id="edge1" class="edge">
<title>Node1&#45;&gt;Node2</title>
<path fill="none" stroke="midnightblue" d="M893.58,-125.88C876.83,-142.5 851.91,-164.47 826,-177.5 811.41,-184.84 794.47,-190 778.73,-193.6"/>
<polygon fill="midnightblue" stroke="midnightblue" points="896.16,-128.25 900.68,-118.66 891.17,-123.34 896.16,-128.25"/>
</g>
<!-- Node8 -->
<g id="node8" class="node">
<title>Node8</title>
<g id="a_node8"><a xlink:href="namespacextb__coulomb__klopmanohno.html#a533082a6ccc5771bad7c3b4ec5739ed0" target="_top" xlink:title=" ">
<polygon fill="white" stroke="black" points="658,-137.5 658,-167.5 792,-167.5 792,-137.5 658,-137.5"/>
<text text-anchor="start" x="666" y="-155.5" font-family="Helvetica,sans-Serif" font-size="10.00">xtb_coulomb_klopmanohno</text>
<text text-anchor="middle" x="725" y="-144.5" font-family="Helvetica,sans-Serif" font-size="10.00">::getcoulombmatrixpbc3d</text>
</a>
</g>
</g>
<!-- Node1&#45;&gt;Node8 -->
<g id="edge7" class="edge">
<title>Node1&#45;&gt;Node8</title>
<path fill="none" stroke="midnightblue" d="M852.95,-121.23C843.93,-123.73 834.74,-126.22 826,-128.5 814.51,-131.5 802.24,-134.56 790.38,-137.45"/>
<polygon fill="midnightblue" stroke="midnightblue" points="853.96,-124.58 862.65,-118.52 852.08,-117.84 853.96,-124.58"/>
</g>
<!-- Node10 -->
<g id="node10" class="node">
<title>Node10</title>
<g id="a_node10"><a xlink:href="namespacextb__coulomb__gaussian.html#a24fdfe9752a10282560c4b76c907c495" target="_top" xlink:title=" ">
<polygon fill="white" stroke="black" points="663,-88.5 663,-118.5 787,-118.5 787,-88.5 663,-88.5"/>
<text text-anchor="start" x="671" y="-106.5" font-family="Helvetica,sans-Serif" font-size="10.00">xtb_coulomb_gaussian</text>
<text text-anchor="middle" x="725" y="-95.5" font-family="Helvetica,sans-Serif" font-size="10.00">::getcoulombmatrixpbc3d</text>
</a>
</g>
</g>
<!-- Node1&#45;&gt;Node10 -->
<g id="edge9" class="edge">
<title>Node1&#45;&gt;Node10</title>
<path fill="none" stroke="midnightblue" d="M851.97,-103.5C831.14,-103.5 807.96,-103.5 787.23,-103.5"/>
<polygon fill="midnightblue" stroke="midnightblue" points="851.99,-107 861.99,-103.5 851.99,-100 851.99,-107"/>
</g>
<!-- Node12 -->
<g id="node12" class="node">
<title>Node12</title>
<g id="a_node12"><a xlink:href="namespacextb__type__coulomb.html#ac0b35660ed1ccc0bd3a3029af7ea6460" target="_top" xlink:title=" ">
<polygon fill="white" stroke="black" points="624,-50 624,-69 826,-69 826,-50 624,-50"/>
<text text-anchor="middle" x="725" y="-57" font-family="Helvetica,sans-Serif" font-size="10.00">xtb_type_coulomb::getcoulombmatrixpbc3d</text>
</a>
</g>
</g>
<!-- Node1&#45;&gt;Node12 -->
<g id="edge11" class="edge">
<title>Node1&#45;&gt;Node12</title>
<path fill="none" stroke="midnightblue" d="M854.4,-85.76C844.93,-83.19 835.23,-80.68 826,-78.5 811.47,-75.07 795.63,-71.84 780.94,-69.04"/>
<polygon fill="midnightblue" stroke="midnightblue" points="853.58,-89.17 864.15,-88.45 855.45,-82.42 853.58,-89.17"/>
</g>
<!-- Node14 -->
<g id="node14" class="node">
<title>Node14</title>
<g id="a_node14"><a xlink:href="namespacextb__coulomb__ewald.html#aa74d92ca86f81de2517bfff1bd22394b" target="_top" xlink:title="Returns the longest real space vector which gives a bigger contribution to.">
<polygon fill="white" stroke="black" points="446.5,-0.5 446.5,-30.5 553.5,-30.5 553.5,-0.5 446.5,-0.5"/>
<text text-anchor="start" x="454.5" y="-18.5" font-family="Helvetica,sans-Serif" font-size="10.00">xtb_coulomb_ewald::</text>
<text text-anchor="middle" x="500" y="-7.5" font-family="Helvetica,sans-Serif" font-size="10.00">getmaxr</text>
</a>
</g>
</g>
<!-- Node1&#45;&gt;Node14 -->
<g id="edge13" class="edge">
<title>Node1&#45;&gt;Node14</title>
<path fill="none" stroke="midnightblue" d="M891.46,-81.72C874.7,-67.29 850.69,-49.45 826,-40.5 734.62,-7.38 619.57,-7.45 553.74,-11.08"/>
<polygon fill="midnightblue" stroke="midnightblue" points="889.28,-84.46 899.08,-88.47 893.92,-79.22 889.28,-84.46"/>
</g>
<!-- Node3 -->
<g id="node3" class="node">
<title>Node3</title>
<g id="a_node3"><a xlink:href="namespacextb__coulomb__ewald.html#a0578c81cbd7c7bcaf949e8a916d4e7e6" target="_top" xlink:title="Get optimal alpha&#45;parameter for the Ewald summation by finding alpha, where.">
<polygon fill="white" stroke="black" points="446.5,-186.5 446.5,-216.5 553.5,-216.5 553.5,-186.5 446.5,-186.5"/>
<text text-anchor="start" x="454.5" y="-204.5" font-family="Helvetica,sans-Serif" font-size="10.00">xtb_coulomb_ewald::</text>
<text text-anchor="middle" x="500" y="-193.5" font-family="Helvetica,sans-Serif" font-size="10.00">getoptimalalpha</text>
</a>
</g>
</g>
<!-- Node2&#45;&gt;Node3 -->
<g id="edge2" class="edge">
<title>Node2&#45;&gt;Node3</title>
<path fill="none" stroke="midnightblue" d="M661.16,-201.5C627.23,-201.5 585.81,-201.5 553.6,-201.5"/>
<polygon fill="midnightblue" stroke="midnightblue" points="661.43,-205 671.43,-201.5 661.43,-198 661.43,-205"/>
</g>
<!-- Node4 -->
<g id="node4" class="node">
<title>Node4</title>
<g id="a_node4"><a xlink:href="namespacextb__type__coulomb.html#ab46bfaf512989b21d86c72c76475f363" target="_top" xlink:title=" ">
<polygon fill="white" stroke="black" points="170,-99 170,-118 376,-118 376,-99 170,-99"/>
<text text-anchor="middle" x="273" y="-106" font-family="Helvetica,sans-Serif" font-size="10.00">xtb_type_coulomb::setupboundaryconditions</text>
</a>
</g>
</g>
<!-- Node3&#45;&gt;Node4 -->
<g id="edge3" class="edge">
<title>Node3&#45;&gt;Node4</title>
<path fill="none" stroke="midnightblue" d="M436.69,-185.9C428.31,-183.34 419.89,-180.53 412,-177.5 366.49,-160.03 315.94,-132.53 290.52,-118.09"/>
<polygon fill="midnightblue" stroke="midnightblue" points="435.9,-189.32 446.48,-188.79 437.88,-182.6 435.9,-189.32"/>
</g>
<!-- Node5 -->
<g id="node5" class="node">
<title>Node5</title>
<g id="a_node5"><a xlink:href="interfacextb__type__coulomb_1_1init.html#ac936ce358455d216ff3bf7ce2fc2dc72" target="_top" xlink:title=" ">
<polygon fill="white" stroke="black" points="11,-142.5 11,-172.5 123,-172.5 123,-142.5 11,-142.5"/>
<text text-anchor="start" x="19" y="-160.5" font-family="Helvetica,sans-Serif" font-size="10.00">xtb_type_coulomb::init</text>
<text text-anchor="middle" x="67" y="-149.5" font-family="Helvetica,sans-Serif" font-size="10.00">::initcoulomb</text>
</a>
</g>
</g>
<!-- Node4&#45;&gt;Node5 -->
<g id="edge4" class="edge">
<title>Node4&#45;&gt;Node5</title>
<path fill="none" stroke="midnightblue" d="M222.35,-120.43C192.36,-127.63 154.08,-136.82 123.15,-144.25"/>
<polygon fill="midnightblue" stroke="midnightblue" points="223.28,-123.8 232.18,-118.06 221.64,-117 223.28,-123.8"/>
</g>
<!-- Node6 -->
<g id="node6" class="node">
<title>Node6</title>
<g id="a_node6"><a xlink:href="interfacextb__coulomb__gaussian_1_1init.html#aa9e54b0d7c3e5fd0ef19ae9b5abda847" target="_top" xlink:title=" ">
<polygon fill="white" stroke="black" points="3,-93.5 3,-123.5 131,-123.5 131,-93.5 3,-93.5"/>
<text text-anchor="start" x="11" y="-111.5" font-family="Helvetica,sans-Serif" font-size="10.00">xtb_coulomb_gaussian</text>
<text text-anchor="middle" x="67" y="-100.5" font-family="Helvetica,sans-Serif" font-size="10.00">::init::initgaussiansmeared</text>
</a>
</g>
</g>
<!-- Node4&#45;&gt;Node6 -->
<g id="edge5" class="edge">
<title>Node4&#45;&gt;Node6</title>
<path fill="none" stroke="midnightblue" d="M159.57,-108.5C149.87,-108.5 140.31,-108.5 131.22,-108.5"/>
<polygon fill="midnightblue" stroke="midnightblue" points="159.7,-112 169.7,-108.5 159.7,-105 159.7,-112"/>
</g>
<!-- Node7 -->
<g id="node7" class="node">
<title>Node7</title>
<g id="a_node7"><a xlink:href="interfacextb__coulomb__klopmanohno_1_1init.html#ae65974389e2ef4951f7413508b2c3a35" target="_top" xlink:title=" ">
<polygon fill="white" stroke="black" points="0,-44.5 0,-74.5 134,-74.5 134,-44.5 0,-44.5"/>
<text text-anchor="start" x="8" y="-62.5" font-family="Helvetica,sans-Serif" font-size="10.00">xtb_coulomb_klopmanohno</text>
<text text-anchor="middle" x="67" y="-51.5" font-family="Helvetica,sans-Serif" font-size="10.00">::init::initklopmanohno</text>
</a>
</g>
</g>
<!-- Node4&#45;&gt;Node7 -->
<g id="edge6" class="edge">
<title>Node4&#45;&gt;Node7</title>
<path fill="none" stroke="midnightblue" d="M222.35,-96.57C194.72,-89.94 160.07,-81.61 130.6,-74.54"/>
<polygon fill="midnightblue" stroke="midnightblue" points="221.64,-100 232.18,-98.94 223.28,-93.2 221.64,-100"/>
</g>
<!-- Node9 -->
<g id="node9" class="node">
<title>Node9</title>
<g id="a_node9"><a xlink:href="namespacextb__coulomb__klopmanohno.html#aaf23bc057f8c139a33cc8c9e06d0abb1" target="_top" xlink:title=" ">
<polygon fill="white" stroke="black" points="433,-137.5 433,-167.5 567,-167.5 567,-137.5 433,-137.5"/>
<text text-anchor="start" x="441" y="-155.5" font-family="Helvetica,sans-Serif" font-size="10.00">xtb_coulomb_klopmanohno</text>
<text text-anchor="middle" x="500" y="-144.5" font-family="Helvetica,sans-Serif" font-size="10.00">::getcoulombmatrix</text>
</a>
</g>
</g>
<!-- Node8&#45;&gt;Node9 -->
<g id="edge8" class="edge">
<title>Node8&#45;&gt;Node9</title>
<path fill="none" stroke="midnightblue" d="M647.75,-152.5C621.58,-152.5 592.52,-152.5 567.22,-152.5"/>
<polygon fill="midnightblue" stroke="midnightblue" points="648,-156 658,-152.5 648,-149 648,-156"/>
</g>
<!-- Node11 -->
<g id="node11" class="node">
<title>Node11</title>
<g id="a_node11"><a xlink:href="namespacextb__coulomb__gaussian.html#afa604f81b0f4d70e53556dc3911eebc4" target="_top" xlink:title=" ">
<polygon fill="white" stroke="black" points="442,-88.5 442,-118.5 558,-118.5 558,-88.5 442,-88.5"/>
<text text-anchor="start" x="450" y="-106.5" font-family="Helvetica,sans-Serif" font-size="10.00">xtb_coulomb_gaussian</text>
<text text-anchor="middle" x="500" y="-95.5" font-family="Helvetica,sans-Serif" font-size="10.00">::getcoulombmatrix</text>
</a>
</g>
</g>
<!-- Node10&#45;&gt;Node11 -->
<g id="edge10" class="edge">
<title>Node10&#45;&gt;Node11</title>
<path fill="none" stroke="midnightblue" d="M652.62,-103.5C622.13,-103.5 587.02,-103.5 558.26,-103.5"/>
<polygon fill="midnightblue" stroke="midnightblue" points="652.77,-107 662.77,-103.5 652.77,-100 652.77,-107"/>
</g>
<!-- Node13 -->
<g id="node13" class="node">
<title>Node13</title>
<g id="a_node13"><a xlink:href="namespacextb__type__coulomb.html#a05cc597be721e3a6c9e8be4a1eff8254" target="_top" xlink:title=" ">
<polygon fill="white" stroke="black" points="412,-50 412,-69 588,-69 588,-50 412,-50"/>
<text text-anchor="middle" x="500" y="-57" font-family="Helvetica,sans-Serif" font-size="10.00">xtb_type_coulomb::getcoulombmatrix</text>
</a>
</g>
</g>
<!-- Node12&#45;&gt;Node13 -->
<g id="edge12" class="edge">
<title>Node12&#45;&gt;Node13</title>
<path fill="none" stroke="midnightblue" d="M613.82,-59.5C605.21,-59.5 596.59,-59.5 588.16,-59.5"/>
<polygon fill="midnightblue" stroke="midnightblue" points="613.92,-63 623.92,-59.5 613.92,-56 613.92,-63"/>
</g>
<!-- Node14&#45;&gt;Node4 -->
<g id="edge14" class="edge">
<title>Node14&#45;&gt;Node4</title>
<path fill="none" stroke="midnightblue" d="M436.39,-32.04C428.11,-34.65 419.8,-37.49 412,-40.5 366.91,-57.93 316.59,-84.7 290.98,-98.9"/>
<polygon fill="midnightblue" stroke="midnightblue" points="437.51,-35.35 446.05,-29.08 435.47,-28.66 437.51,-35.35"/>
</g>
</g>
</svg>
        <g id="navigator" transform="translate(0 0)" fill="#404254">
                <rect fill="#f2f5e9" fill-opacity="0.5" stroke="#606060" stroke-width=".5" x="0" y="0" width="60" height="60"/>
                <use id="zoomplus" xlink:href="#zoomPlus" x="17" y="9" onmousedown="handleZoom(evt,'in')"/>
                <use id="zoomminus" xlink:href="#zoomMin" x="42" y="9" onmousedown="handleZoom(evt,'out')"/>
                <use id="reset" xlink:href="#resetDef" x="30" y="36" onmousedown="handleReset()"/>
                <g id="arrowUp" xlink:href="#dirArrow" transform="translate(30 24)" onmousedown="handlePan(0,-1)">
                  <use xlink:href="#rim" fill="#404040">
                        <set attributeName="fill" to="#808080" begin="arrowUp.mouseover" end="arrowUp.mouseout"/>
                  </use>
                  <path fill="none" stroke="white" stroke-width="1.5" d="M0,-3.0v7 M-2.5,-0.5L0,-3.0L2.5,-0.5"/>
                </g>
                <g id="arrowRight" xlink:href="#dirArrow" transform="rotate(90) translate(36 -43)" onmousedown="handlePan(1,0)">
                  <use xlink:href="#rim" fill="#404040">
                        <set attributeName="fill" to="#808080" begin="arrowRight.mouseover" end="arrowRight.mouseout"/>
                  </use>
                  <path fill="none" stroke="white" stroke-width="1.5" d="M0,-3.0v7 M-2.5,-0.5L0,-3.0L2.5,-0.5"/>
                </g>
                <g id="arrowDown" xlink:href="#dirArrow" transform="rotate(180) translate(-30 -48)" onmousedown="handlePan(0,1)">
                  <use xlink:href="#rim" fill="#404040">
                        <set attributeName="fill" to="#808080" begin="arrowDown.mouseover" end="arrowDown.mouseout"/>
                  </use>
                  <path fill="none" stroke="white" stroke-width="1.5" d="M0,-3.0v7 M-2.5,-0.5L0,-3.0L2.5,-0.5"/>
                </g>
                <g id="arrowLeft" xlink:href="#dirArrow" transform="rotate(270) translate(-36 17)" onmousedown="handlePan(-1,0)">
                  <use xlink:href="#rim" fill="#404040">
                        <set attributeName="fill" to="#808080" begin="arrowLeft.mouseover" end="arrowLeft.mouseout"/>
                  </use>
                  <path fill="none" stroke="white" stroke-width="1.5" d="M0,-3.0v7 M-2.5,-0.5L0,-3.0L2.5,-0.5"/>
                </g>
        </g>
        <svg viewBox="0 0 15 15" width="100%" height="30px" preserveAspectRatio="xMaxYMin meet">
         <g id="arrow_out" transform="scale(0.3 0.3)">
          <a xlink:href="namespacextb__coulomb__ewald_a85f630579876f0888919a3440f359ea6_icgraph_org.svg" target="_base">
           <rect id="button" ry="5" rx="5" y="6" x="6" height="38" width="38"
                fill="#f2f5e9" fill-opacity="0.5" stroke="#606060" stroke-width="1.0"/>
           <path id="arrow"
             d="M 11.500037,31.436501 C 11.940474,20.09759 22.043105,11.32322 32.158766,21.979434 L 37.068811,17.246167 C 37.068811,17.246167 37.088388,32 37.088388,32 L 22.160133,31.978069 C 22.160133,31.978069 26.997745,27.140456 26.997745,27.140456 C 18.528582,18.264221 13.291696,25.230495 11.500037,31.436501 z"
             style="fill:#404040;"/>
          </a>
         </g>
        </svg>
</svg>
