<?xml version="1.0" encoding="UTF-8" standalone="no"?>
<!DOCTYPE svg PUBLIC "-//W3C//DTD SVG 1.1//EN"
 "http://www.w3.org/Graphics/SVG/1.1/DTD/svg11.dtd">
<!-- Generated by graphviz version 2.43.0 (0)
 -->
<!-- Title: xtb_disp_dftd3::deriv_atm_triple Pages: 1 -->
<svg width="491pt" height="210pt"
 viewBox="0.00 0.00 491.00 209.50" xmlns="http://www.w3.org/2000/svg" xmlns:xlink="http://www.w3.org/1999/xlink">
<g id="graph0" class="graph" transform="scale(1 1) rotate(0) translate(4 205.5)">
<title>xtb_disp_dftd3::deriv_atm_triple</title>
<polygon fill="white" stroke="transparent" points="-4,4 -4,-205.5 487,-205.5 487,4 -4,4"/>
<!-- Node1 -->
<g id="node1" class="node">
<title>Node1</title>
<g id="a_node1"><a xlink:title=" ">
<polygon fill="#bfbfbf" stroke="black" points="364,-82.5 364,-112.5 483,-112.5 483,-82.5 364,-82.5"/>
<text text-anchor="start" x="372" y="-100.5" font-family="Helvetica,sans-Serif" font-size="10.00">xtb_disp_dftd3::deriv</text>
<text text-anchor="middle" x="423.5" y="-89.5" font-family="Helvetica,sans-Serif" font-size="10.00">_atm_triple</text>
</a>
</g>
</g>
<!-- Node2 -->
<g id="node2" class="node">
<title>Node2</title>
<g id="a_node2"><a xlink:href="namespacextb__disp__dftd3.html#a63be053bd404504d789f600843324192" target="_top" xlink:title=" ">
<polygon fill="white" stroke="black" points="215,-110.5 215,-140.5 328,-140.5 328,-110.5 215,-110.5"/>
<text text-anchor="start" x="223" y="-128.5" font-family="Helvetica,sans-Serif" font-size="10.00">xtb_disp_dftd3::atm</text>
<text text-anchor="middle" x="271.5" y="-117.5" font-family="Helvetica,sans-Serif" font-size="10.00">_gradient_latp</text>
</a>
</g>
</g>
<!-- Node1&#45;&gt;Node2 -->
<g id="edge1" class="edge">
<title>Node1&#45;&gt;Node2</title>
<path fill="none" stroke="midnightblue" d="M353.71,-110.34C345.18,-111.93 336.54,-113.55 328.24,-115.09"/>
<polygon fill="midnightblue" stroke="midnightblue" points="354.46,-113.76 363.65,-108.49 353.17,-106.88 354.46,-113.76"/>
</g>
<!-- Node5 -->
<g id="node5" class="node">
<title>Node5</title>
<g id="a_node5"><a xlink:href="namespacextb__disp__dftd3.html#a4e1320321299f37f57ffd65aae3ab5a0" target="_top" xlink:title=" ">
<polygon fill="white" stroke="black" points="215,-55.5 215,-85.5 328,-85.5 328,-55.5 215,-55.5"/>
<text text-anchor="start" x="223" y="-73.5" font-family="Helvetica,sans-Serif" font-size="10.00">xtb_disp_dftd3::atm</text>
<text text-anchor="middle" x="271.5" y="-62.5" font-family="Helvetica,sans-Serif" font-size="10.00">_gradient_neigh</text>
</a>
</g>
</g>
<!-- Node1&#45;&gt;Node5 -->
<g id="edge4" class="edge">
<title>Node1&#45;&gt;Node5</title>
<path fill="none" stroke="midnightblue" d="M353.71,-85.12C345.18,-83.58 336.54,-82.03 328.24,-80.53"/>
<polygon fill="midnightblue" stroke="midnightblue" points="353.18,-88.58 363.65,-86.91 354.42,-81.69 353.18,-88.58"/>
</g>
<!-- Node3 -->
<g id="node3" class="node">
<title>Node3</title>
<g id="a_node3"><a xlink:href="interfacextb__disp__dftd3_1_1d3__atm__gradient.html#a15c51e72bc3a117518398eb6050027a1" target="_top" xlink:title=" ">
<polygon fill="white" stroke="black" points="24.5,-160 24.5,-201 154.5,-201 154.5,-160 24.5,-160"/>
<text text-anchor="start" x="32.5" y="-189" font-family="Helvetica,sans-Serif" font-size="10.00">xtb_disp_dftd3::d3</text>
<text text-anchor="start" x="32.5" y="-178" font-family="Helvetica,sans-Serif" font-size="10.00">_atm_gradient::d3_atm</text>
<text text-anchor="middle" x="89.5" y="-167" font-family="Helvetica,sans-Serif" font-size="10.00">_gradient_latp</text>
</a>
</g>
</g>
<!-- Node2&#45;&gt;Node3 -->
<g id="edge2" class="edge">
<title>Node2&#45;&gt;Node3</title>
<path fill="none" stroke="midnightblue" d="M211.71,-143.46C193.52,-149.02 173.38,-155.17 154.83,-160.84"/>
<polygon fill="midnightblue" stroke="midnightblue" points="212.77,-146.8 221.31,-140.53 210.73,-140.1 212.77,-146.8"/>
</g>
<!-- Node4 -->
<g id="node4" class="node">
<title>Node4</title>
<g id="a_node4"><a xlink:href="interfacextb__disp__dftd3_1_1d3__gradient.html#a235d7c22a675fb31046cc4c4c3474c70" target="_top" xlink:title=" ">
<polygon fill="white" stroke="black" points="4,-110.5 4,-140.5 175,-140.5 175,-110.5 4,-110.5"/>
<text text-anchor="start" x="12" y="-128.5" font-family="Helvetica,sans-Serif" font-size="10.00">xtb_disp_dftd3::d3</text>
<text text-anchor="middle" x="89.5" y="-117.5" font-family="Helvetica,sans-Serif" font-size="10.00">_gradient::d3_full_gradient_latp</text>
</a>
</g>
</g>
<!-- Node2&#45;&gt;Node4 -->
<g id="edge3" class="edge">
<title>Node2&#45;&gt;Node4</title>
<path fill="none" stroke="midnightblue" d="M204.39,-125.5C194.88,-125.5 184.99,-125.5 175.18,-125.5"/>
<polygon fill="midnightblue" stroke="midnightblue" points="204.53,-129 214.53,-125.5 204.53,-122 204.53,-129"/>
</g>
<!-- Node6 -->
<g id="node6" class="node">
<title>Node6</title>
<g id="a_node6"><a xlink:href="interfacextb__disp__dftd3_1_1d3__atm__gradient.html#ae23b23e139e2883ae9cbe059a124cf5f" target="_top" xlink:title=" ">
<polygon fill="white" stroke="black" points="24.5,-50 24.5,-91 154.5,-91 154.5,-50 24.5,-50"/>
<text text-anchor="start" x="32.5" y="-79" font-family="Helvetica,sans-Serif" font-size="10.00">xtb_disp_dftd3::d3</text>
<text text-anchor="start" x="32.5" y="-68" font-family="Helvetica,sans-Serif" font-size="10.00">_atm_gradient::d3_atm</text>
<text text-anchor="middle" x="89.5" y="-57" font-family="Helvetica,sans-Serif" font-size="10.00">_gradient_neigh</text>
</a>
</g>
</g>
<!-- Node5&#45;&gt;Node6 -->
<g id="edge5" class="edge">
<title>Node5&#45;&gt;Node6</title>
<path fill="none" stroke="midnightblue" d="M204.09,-70.5C187.93,-70.5 170.67,-70.5 154.61,-70.5"/>
<polygon fill="midnightblue" stroke="midnightblue" points="204.53,-74 214.53,-70.5 204.53,-67 204.53,-74"/>
</g>
<!-- Node7 -->
<g id="node7" class="node">
<title>Node7</title>
<g id="a_node7"><a xlink:href="interfacextb__disp__dftd3_1_1d3__gradient.html#a5df3d1c13d5dbd2ac47364ff69095a53" target="_top" xlink:title=" ">
<polygon fill="white" stroke="black" points="0,-0.5 0,-30.5 179,-30.5 179,-0.5 0,-0.5"/>
<text text-anchor="start" x="8" y="-18.5" font-family="Helvetica,sans-Serif" font-size="10.00">xtb_disp_dftd3::d3</text>
<text text-anchor="middle" x="89.5" y="-7.5" font-family="Helvetica,sans-Serif" font-size="10.00">_gradient::d3_full_gradient_neigh</text>
</a>
</g>
</g>
<!-- Node5&#45;&gt;Node7 -->
<g id="edge6" class="edge">
<title>Node5&#45;&gt;Node7</title>
<path fill="none" stroke="midnightblue" d="M216.31,-52.32C204.07,-48.33 191.11,-44.19 179,-40.5 168.16,-37.19 156.52,-33.8 145.37,-30.62"/>
<polygon fill="midnightblue" stroke="midnightblue" points="215.35,-55.69 225.94,-55.48 217.53,-49.04 215.35,-55.69"/>
</g>
</g>
</svg>
