<?xml version="1.0" encoding="UTF-8" standalone="no"?>
<!DOCTYPE svg PUBLIC "-//W3C//DTD SVG 1.1//EN"
 "http://www.w3.org/Graphics/SVG/1.1/DTD/svg11.dtd">
<!-- Generated by graphviz version 2.46.1 (20210215.1649)
 -->
<!-- Title: xtb_intpack::rhftce Pages: 1 -->
<!--zoomable 180 -->
<svg id="main" version="1.1" xmlns="http://www.w3.org/2000/svg" xmlns:xlink="http://www.w3.org/1999/xlink" xml:space="preserve" onload="init(evt)">
<style type="text/css"><![CDATA[
.edge:hover path { stroke: red; }
.edge:hover polygon { stroke: red; fill: red; }
]]></style>
<script type="text/javascript"><![CDATA[
var edges = document.getElementsByTagName('g');
if (edges && edges.length) {
  for (var i=0;i<edges.length;i++) {
    if (edges[i].id.substr(0,4)=='edge') {
      edges[i].setAttribute('class','edge');
    }
  }
}
]]></script>
        <defs>
                <circle id="rim" cx="0" cy="0" r="7"/>
                <circle id="rim2" cx="0" cy="0" r="3.5"/>
                <g id="zoomPlus">
                        <use xlink:href="#rim" fill="#404040">
                                <set attributeName="fill" to="#808080" begin="zoomplus.mouseover" end="zoomplus.mouseout"/>
                        </use>
                        <path d="M-4,0h8M0,-4v8" fill="none" stroke="white" stroke-width="1.5" pointer-events="none"/>
                </g>
                <g id="zoomMin">
                        <use xlink:href="#rim" fill="#404040">
                                <set attributeName="fill" to="#808080" begin="zoomminus.mouseover" end="zoomminus.mouseout"/>
                        </use>
                        <path d="M-4,0h8" fill="none" stroke="white" stroke-width="1.5" pointer-events="none"/>
                </g>
                <g id="dirArrow">
                        <path fill="none" stroke="white" stroke-width="1.5" d="M0,-3.0v7 M-2.5,-0.5L0,-3.0L2.5,-0.5"/>
                </g>
               <g id="resetDef">
                       <use xlink:href="#rim2" fill="#404040">
                               <set attributeName="fill" to="#808080" begin="reset.mouseover" end="reset.mouseout"/>
                       </use>
               </g>
        </defs>

<script type="text/javascript">
var viewWidth = 884;
var viewHeight = 180;
var sectionId = 'dynsection-17';
</script>
<script xlink:href="svgpan.js"/>
<svg id="graph" class="graph">
<g id="viewport">
<title>xtb_intpack::rhftce</title>
<polygon fill="white" stroke="transparent" points="-4,4 -4,-176 880,-176 880,4 -4,4"/>
<!-- Node1 -->
<g id="node1" class="node">
<title>Node1</title>
<g id="a_node1"><a xlink:title=" ">
<polygon fill="#bfbfbf" stroke="black" points="781,-95.5 781,-114.5 876,-114.5 876,-95.5 781,-95.5"/>
<text text-anchor="middle" x="828.5" y="-102.5" font-family="Helvetica,sans-Serif" font-size="10.00">xtb_intpack::rhftce</text>
</a>
</g>
</g>
<!-- Node2 -->
<g id="node2" class="node">
<title>Node2</title>
<g id="a_node2"><a xlink:href="namespacextb__intpack.html#a6a4ae2a9e2fd11d67f5adda3a02b52ab" target="_top" xlink:title=" ">
<polygon fill="white" stroke="black" points="653,-152.5 653,-171.5 742,-171.5 742,-152.5 653,-152.5"/>
<text text-anchor="middle" x="697.5" y="-159.5" font-family="Helvetica,sans-Serif" font-size="10.00">xtb_intpack::pola</text>
</a>
</g>
</g>
<!-- Node1&#45;&gt;Node2 -->
<g id="edge1" class="edge">
<title>Node1&#45;&gt;Node2</title>
<path fill="none" stroke="midnightblue" d="M798.07,-118.93C782.39,-126.26 762.73,-135.3 745,-143 737.8,-146.13 729.92,-149.4 722.72,-152.34"/>
<polygon fill="midnightblue" stroke="midnightblue" points="799.7,-122.04 807.27,-114.62 796.73,-115.7 799.7,-122.04"/>
</g>
<!-- Node3 -->
<g id="node3" class="node">
<title>Node3</title>
<g id="a_node3"><a xlink:href="namespacextb__intpack.html#a1f2c3d0a5e66e7752a19ee3e2f4b8906" target="_top" xlink:title=" ">
<polygon fill="white" stroke="black" points="651.5,-114.5 651.5,-133.5 743.5,-133.5 743.5,-114.5 651.5,-114.5"/>
<text text-anchor="middle" x="697.5" y="-121.5" font-family="Helvetica,sans-Serif" font-size="10.00">xtb_intpack::prola</text>
</a>
</g>
</g>
<!-- Node1&#45;&gt;Node3 -->
<g id="edge2" class="edge">
<title>Node1&#45;&gt;Node3</title>
<path fill="none" stroke="midnightblue" d="M770.82,-113.35C761.75,-114.68 752.47,-116.05 743.71,-117.34"/>
<polygon fill="midnightblue" stroke="midnightblue" points="771.54,-116.78 780.93,-111.86 770.52,-109.85 771.54,-116.78"/>
</g>
<!-- Node4 -->
<g id="node4" class="node">
<title>Node4</title>
<g id="a_node4"><a xlink:href="namespacextb__intpack.html#a006d934cfa58ce57ddc3932a0f15120c" target="_top" xlink:title=" ">
<polygon fill="white" stroke="black" points="650,-76.5 650,-95.5 745,-95.5 745,-76.5 650,-76.5"/>
<text text-anchor="middle" x="697.5" y="-83.5" font-family="Helvetica,sans-Serif" font-size="10.00">xtb_intpack::propa</text>
</a>
</g>
</g>
<!-- Node1&#45;&gt;Node4 -->
<g id="edge3" class="edge">
<title>Node1&#45;&gt;Node4</title>
<path fill="none" stroke="midnightblue" d="M770.9,-96.66C762.25,-95.39 753.4,-94.09 745,-92.85"/>
<polygon fill="midnightblue" stroke="midnightblue" points="770.52,-100.15 780.93,-98.14 771.54,-93.22 770.52,-100.15"/>
</g>
<!-- Node13 -->
<g id="node13" class="node">
<title>Node13</title>
<g id="a_node13"><a xlink:href="namespaceesp.html#a656a3397886dca0f2f8e17bb2d0ff5e9" target="_top" xlink:title=" ">
<polygon fill="white" stroke="black" points="664.5,-38.5 664.5,-57.5 730.5,-57.5 730.5,-38.5 664.5,-38.5"/>
<text text-anchor="middle" x="697.5" y="-45.5" font-family="Helvetica,sans-Serif" font-size="10.00">esp::propa0</text>
</a>
</g>
</g>
<!-- Node1&#45;&gt;Node13 -->
<g id="edge14" class="edge">
<title>Node1&#45;&gt;Node13</title>
<path fill="none" stroke="midnightblue" d="M798.07,-91.07C782.39,-83.74 762.73,-74.7 745,-67 737.8,-63.87 729.92,-60.6 722.72,-57.66"/>
<polygon fill="midnightblue" stroke="midnightblue" points="796.73,-94.3 807.27,-95.38 799.7,-87.96 796.73,-94.3"/>
</g>
<!-- Node5 -->
<g id="node5" class="node">
<title>Node5</title>
<g id="a_node5"><a xlink:href="namespacextb__dipole.html#aab0b85d5f1bccf51f2906833306ff640" target="_top" xlink:title=" ">
<polygon fill="white" stroke="black" points="528,-76.5 528,-95.5 614,-95.5 614,-76.5 528,-76.5"/>
<text text-anchor="middle" x="571" y="-83.5" font-family="Helvetica,sans-Serif" font-size="10.00">xtb_dipole::dints</text>
</a>
</g>
</g>
<!-- Node4&#45;&gt;Node5 -->
<g id="edge4" class="edge">
<title>Node4&#45;&gt;Node5</title>
<path fill="none" stroke="midnightblue" d="M639.74,-86C631.1,-86 622.31,-86 614.05,-86"/>
<polygon fill="midnightblue" stroke="midnightblue" points="639.79,-89.5 649.79,-86 639.79,-82.5 639.79,-89.5"/>
</g>
<!-- Node6 -->
<g id="node6" class="node">
<title>Node6</title>
<g id="a_node6"><a xlink:href="namespacextb__hlex.html#a9567145f01de2589b8d5a029c45d42db" target="_top" xlink:title=" ">
<polygon fill="white" stroke="black" points="415,-114.5 415,-133.5 489,-133.5 489,-114.5 415,-114.5"/>
<text text-anchor="middle" x="452" y="-121.5" font-family="Helvetica,sans-Serif" font-size="10.00">xtb_hlex::hlex</text>
</a>
</g>
</g>
<!-- Node5&#45;&gt;Node6 -->
<g id="edge5" class="edge">
<title>Node5&#45;&gt;Node6</title>
<path fill="none" stroke="midnightblue" d="M530.96,-98.68C515.15,-103.81 497.2,-109.64 482.51,-114.41"/>
<polygon fill="midnightblue" stroke="midnightblue" points="532.05,-102.01 540.48,-95.59 529.88,-95.35 532.05,-102.01"/>
</g>
<!-- Node12 -->
<g id="node12" class="node">
<title>Node12</title>
<g id="a_node12"><a xlink:href="namespacextb__local.html#a6aafec43f9ac7235a5dfd2c36ed1f56b" target="_top" xlink:title=" ">
<polygon fill="white" stroke="black" points="412,-76.5 412,-95.5 492,-95.5 492,-76.5 412,-76.5"/>
<text text-anchor="middle" x="452" y="-83.5" font-family="Helvetica,sans-Serif" font-size="10.00">xtb_local::local</text>
</a>
</g>
</g>
<!-- Node5&#45;&gt;Node12 -->
<g id="edge12" class="edge">
<title>Node5&#45;&gt;Node12</title>
<path fill="none" stroke="midnightblue" d="M517.75,-86C509.12,-86 500.3,-86 492.06,-86"/>
<polygon fill="midnightblue" stroke="midnightblue" points="517.76,-89.5 527.76,-86 517.76,-82.5 517.76,-89.5"/>
</g>
<!-- Node7 -->
<g id="node7" class="node">
<title>Node7</title>
<g id="a_node7"><a xlink:href="namespacextb__scf.html#a7390c40a38032c3d210c39edecfa49ed" target="_top" xlink:title=" ">
<polygon fill="white" stroke="black" points="295,-95.5 295,-114.5 361,-114.5 361,-95.5 295,-95.5"/>
<text text-anchor="middle" x="328" y="-102.5" font-family="Helvetica,sans-Serif" font-size="10.00">xtb_scf::scf</text>
</a>
</g>
</g>
<!-- Node6&#45;&gt;Node7 -->
<g id="edge6" class="edge">
<title>Node6&#45;&gt;Node7</title>
<path fill="none" stroke="midnightblue" d="M404.46,-116.75C390.02,-114.5 374.43,-112.08 361.19,-110.01"/>
<polygon fill="midnightblue" stroke="midnightblue" points="404.31,-120.27 414.73,-118.35 405.38,-113.35 404.31,-120.27"/>
</g>
<!-- Node8 -->
<g id="node8" class="node">
<title>Node8</title>
<g id="a_node8"><a xlink:href="namespacextb__xtb__calculator.html#a75c96263c235c99dfeeda3e865f9898c" target="_top" xlink:title=" ">
<polygon fill="white" stroke="black" points="137.5,-134 137.5,-164 232.5,-164 232.5,-134 137.5,-134"/>
<text text-anchor="start" x="145.5" y="-152" font-family="Helvetica,sans-Serif" font-size="10.00">xtb_xtb_calculator</text>
<text text-anchor="middle" x="185" y="-141" font-family="Helvetica,sans-Serif" font-size="10.00">::singlepoint</text>
</a>
</g>
</g>
<!-- Node7&#45;&gt;Node8 -->
<g id="edge7" class="edge">
<title>Node7&#45;&gt;Node8</title>
<path fill="none" stroke="midnightblue" d="M286.83,-117.54C269.93,-122.81 250.16,-128.98 232.63,-134.45"/>
<polygon fill="midnightblue" stroke="midnightblue" points="287.9,-120.87 296.41,-114.55 285.82,-114.19 287.9,-120.87"/>
</g>
<!-- Node9 -->
<g id="node9" class="node">
<title>Node9</title>
<g id="a_node9"><a xlink:href="TESTSUITE_2gfn1_8f90.html#ab5cc37cef2d483d9d9cde17aa03c55a8" target="_top" xlink:title=" ">
<polygon fill="white" stroke="black" points="146,-95.5 146,-114.5 224,-114.5 224,-95.5 146,-95.5"/>
<text text-anchor="middle" x="185" y="-102.5" font-family="Helvetica,sans-Serif" font-size="10.00">test_gfn1_scc</text>
</a>
</g>
</g>
<!-- Node7&#45;&gt;Node9 -->
<g id="edge8" class="edge">
<title>Node7&#45;&gt;Node9</title>
<path fill="none" stroke="midnightblue" d="M284.39,-105C265.24,-105 242.8,-105 224.2,-105"/>
<polygon fill="midnightblue" stroke="midnightblue" points="284.65,-108.5 294.65,-105 284.65,-101.5 284.65,-108.5"/>
</g>
<!-- Node11 -->
<g id="node11" class="node">
<title>Node11</title>
<g id="a_node11"><a xlink:href="TESTSUITE_2gfn2_8f90.html#af47afba0207cbca2dc950fb5e339ce03" target="_top" xlink:title=" ">
<polygon fill="white" stroke="black" points="146,-57.5 146,-76.5 224,-76.5 224,-57.5 146,-57.5"/>
<text text-anchor="middle" x="185" y="-64.5" font-family="Helvetica,sans-Serif" font-size="10.00">test_gfn2_scc</text>
</a>
</g>
</g>
<!-- Node7&#45;&gt;Node11 -->
<g id="edge10" class="edge">
<title>Node7&#45;&gt;Node11</title>
<path fill="none" stroke="midnightblue" d="M284.77,-93.62C264.57,-88.17 240.65,-81.73 221.41,-76.54"/>
<polygon fill="midnightblue" stroke="midnightblue" points="284.09,-97.06 294.65,-96.28 285.91,-90.3 284.09,-97.06"/>
</g>
<!-- Node10 -->
<g id="node10" class="node">
<title>Node10</title>
<g id="a_node10"><a xlink:href="tests__peeq_8f90.html#a87ff5319e0d2e627a4f71d7df0d14891" target="_top" xlink:title=" ">
<polygon fill="white" stroke="black" points="11,-76.5 11,-95.5 79,-95.5 79,-76.5 11,-76.5"/>
<text text-anchor="middle" x="45" y="-83.5" font-family="Helvetica,sans-Serif" font-size="10.00">peeq_tester</text>
</a>
</g>
</g>
<!-- Node9&#45;&gt;Node10 -->
<g id="edge9" class="edge">
<title>Node9&#45;&gt;Node10</title>
<path fill="none" stroke="midnightblue" d="M135.82,-98.37C117.14,-95.79 96.21,-92.91 79.26,-90.58"/>
<polygon fill="midnightblue" stroke="midnightblue" points="135.54,-101.86 145.93,-99.76 136.5,-94.93 135.54,-101.86"/>
</g>
<!-- Node11&#45;&gt;Node10 -->
<g id="edge11" class="edge">
<title>Node11&#45;&gt;Node10</title>
<path fill="none" stroke="midnightblue" d="M135.82,-73.63C117.14,-76.21 96.21,-79.09 79.26,-81.42"/>
<polygon fill="midnightblue" stroke="midnightblue" points="136.5,-77.07 145.93,-72.24 135.54,-70.14 136.5,-77.07"/>
</g>
<!-- Node12&#45;&gt;Node7 -->
<g id="edge13" class="edge">
<title>Node12&#45;&gt;Node7</title>
<path fill="none" stroke="midnightblue" d="M401.55,-93.7C387.97,-95.82 373.6,-98.05 361.27,-99.97"/>
<polygon fill="midnightblue" stroke="midnightblue" points="402.38,-97.11 411.73,-92.12 401.31,-90.2 402.38,-97.11"/>
</g>
<!-- Node14 -->
<g id="node14" class="node">
<title>Node14</title>
<g id="a_node14"><a xlink:href="namespaceesp.html#af040321aaf65be6edac13a110fce6376" target="_top" xlink:title=" ">
<polygon fill="white" stroke="black" points="538,-38.5 538,-57.5 604,-57.5 604,-38.5 538,-38.5"/>
<text text-anchor="middle" x="571" y="-45.5" font-family="Helvetica,sans-Serif" font-size="10.00">esp::preints</text>
</a>
</g>
</g>
<!-- Node13&#45;&gt;Node14 -->
<g id="edge15" class="edge">
<title>Node13&#45;&gt;Node14</title>
<path fill="none" stroke="midnightblue" d="M654.1,-48C637.84,-48 619.56,-48 604.39,-48"/>
<polygon fill="midnightblue" stroke="midnightblue" points="654.44,-51.5 664.44,-48 654.44,-44.5 654.44,-51.5"/>
</g>
<!-- Node15 -->
<g id="node15" class="node">
<title>Node15</title>
<g id="a_node15"><a xlink:href="namespaceesp.html#abbb507b0106b5a5f8d4ebdac1f0a1681" target="_top" xlink:title=" ">
<polygon fill="white" stroke="black" points="418,-38.5 418,-57.5 486,-57.5 486,-38.5 418,-38.5"/>
<text text-anchor="middle" x="452" y="-45.5" font-family="Helvetica,sans-Serif" font-size="10.00">esp::espplot</text>
</a>
</g>
</g>
<!-- Node14&#45;&gt;Node15 -->
<g id="edge16" class="edge">
<title>Node14&#45;&gt;Node15</title>
<path fill="none" stroke="midnightblue" d="M527.64,-48C514.07,-48 499.24,-48 486.4,-48"/>
<polygon fill="midnightblue" stroke="midnightblue" points="527.72,-51.5 537.72,-48 527.72,-44.5 527.72,-51.5"/>
</g>
<!-- Node19 -->
<g id="node19" class="node">
<title>Node19</title>
<g id="a_node19"><a xlink:href="namespacestm.html#af8df5d0f4a9a2b695161f4afd3c27c8a" target="_top" xlink:title=" ">
<polygon fill="white" stroke="black" points="418.5,-0.5 418.5,-19.5 485.5,-19.5 485.5,-0.5 418.5,-0.5"/>
<text text-anchor="middle" x="452" y="-7.5" font-family="Helvetica,sans-Serif" font-size="10.00">stm::stmpic</text>
</a>
</g>
</g>
<!-- Node14&#45;&gt;Node19 -->
<g id="edge20" class="edge">
<title>Node14&#45;&gt;Node19</title>
<path fill="none" stroke="midnightblue" d="M530.96,-35.32C515.15,-30.19 497.2,-24.36 482.51,-19.59"/>
<polygon fill="midnightblue" stroke="midnightblue" points="529.88,-38.65 540.48,-38.41 532.05,-31.99 529.88,-38.65"/>
</g>
<!-- Node16 -->
<g id="node16" class="node">
<title>Node16</title>
<g id="a_node16"><a xlink:href="namespacextb__propertyoutput.html#aa23d3ac2a820741df00f0cbd43f91a14" target="_top" xlink:title=" ">
<polygon fill="white" stroke="black" points="280,-14 280,-44 376,-44 376,-14 280,-14"/>
<text text-anchor="start" x="288" y="-32" font-family="Helvetica,sans-Serif" font-size="10.00">xtb_propertyoutput</text>
<text text-anchor="middle" x="328" y="-21" font-family="Helvetica,sans-Serif" font-size="10.00">::main_cube</text>
</a>
</g>
</g>
<!-- Node15&#45;&gt;Node16 -->
<g id="edge17" class="edge">
<title>Node15&#45;&gt;Node16</title>
<path fill="none" stroke="midnightblue" d="M408.01,-41.3C397.73,-39.7 386.7,-37.99 376.24,-36.36"/>
<polygon fill="midnightblue" stroke="midnightblue" points="407.57,-44.78 417.99,-42.86 408.64,-37.86 407.57,-44.78"/>
</g>
<!-- Node17 -->
<g id="node17" class="node">
<title>Node17</title>
<g id="a_node17"><a xlink:href="namespacextb__prog__main.html#a92b3b61ee04235e6343f652095682529" target="_top" xlink:title=" ">
<polygon fill="white" stroke="black" points="126,-19.5 126,-38.5 244,-38.5 244,-19.5 126,-19.5"/>
<text text-anchor="middle" x="185" y="-26.5" font-family="Helvetica,sans-Serif" font-size="10.00">xtb_prog_main::xtbmain</text>
</a>
</g>
</g>
<!-- Node16&#45;&gt;Node17 -->
<g id="edge18" class="edge">
<title>Node16&#45;&gt;Node17</title>
<path fill="none" stroke="midnightblue" d="M269.61,-29C261.25,-29 252.62,-29 244.24,-29"/>
<polygon fill="midnightblue" stroke="midnightblue" points="269.66,-32.5 279.66,-29 269.66,-25.5 269.66,-32.5"/>
</g>
<!-- Node18 -->
<g id="node18" class="node">
<title>Node18</title>
<g id="a_node18"><a xlink:href="primary_8f90.html#a2a67903cf5be605c5b6d3c362c6a3c5c" target="_top" xlink:title="The primary driver for the xtb program package.">
<polygon fill="white" stroke="black" points="0,-19.5 0,-38.5 90,-38.5 90,-19.5 0,-19.5"/>
<text text-anchor="middle" x="45" y="-26.5" font-family="Helvetica,sans-Serif" font-size="10.00">xtb_prog_primary</text>
</a>
</g>
</g>
<!-- Node17&#45;&gt;Node18 -->
<g id="edge19" class="edge">
<title>Node17&#45;&gt;Node18</title>
<path fill="none" stroke="midnightblue" d="M115.73,-29C107.06,-29 98.37,-29 90.22,-29"/>
<polygon fill="midnightblue" stroke="midnightblue" points="115.88,-32.5 125.88,-29 115.88,-25.5 115.88,-32.5"/>
</g>
<!-- Node19&#45;&gt;Node16 -->
<g id="edge21" class="edge">
<title>Node19&#45;&gt;Node16</title>
<path fill="none" stroke="midnightblue" d="M408.2,-16.66C397.79,-18.29 386.6,-20.03 376,-21.68"/>
<polygon fill="midnightblue" stroke="midnightblue" points="408.96,-20.09 418.31,-15.09 407.89,-13.17 408.96,-20.09"/>
</g>
</g>
</svg>
        <g id="navigator" transform="translate(0 0)" fill="#404254">
                <rect fill="#f2f5e9" fill-opacity="0.5" stroke="#606060" stroke-width=".5" x="0" y="0" width="60" height="60"/>
                <use id="zoomplus" xlink:href="#zoomPlus" x="17" y="9" onmousedown="handleZoom(evt,'in')"/>
                <use id="zoomminus" xlink:href="#zoomMin" x="42" y="9" onmousedown="handleZoom(evt,'out')"/>
                <use id="reset" xlink:href="#resetDef" x="30" y="36" onmousedown="handleReset()"/>
                <g id="arrowUp" xlink:href="#dirArrow" transform="translate(30 24)" onmousedown="handlePan(0,-1)">
                  <use xlink:href="#rim" fill="#404040">
                        <set attributeName="fill" to="#808080" begin="arrowUp.mouseover" end="arrowUp.mouseout"/>
                  </use>
                  <path fill="none" stroke="white" stroke-width="1.5" d="M0,-3.0v7 M-2.5,-0.5L0,-3.0L2.5,-0.5"/>
                </g>
                <g id="arrowRight" xlink:href="#dirArrow" transform="rotate(90) translate(36 -43)" onmousedown="handlePan(1,0)">
                  <use xlink:href="#rim" fill="#404040">
                        <set attributeName="fill" to="#808080" begin="arrowRight.mouseover" end="arrowRight.mouseout"/>
                  </use>
                  <path fill="none" stroke="white" stroke-width="1.5" d="M0,-3.0v7 M-2.5,-0.5L0,-3.0L2.5,-0.5"/>
                </g>
                <g id="arrowDown" xlink:href="#dirArrow" transform="rotate(180) translate(-30 -48)" onmousedown="handlePan(0,1)">
                  <use xlink:href="#rim" fill="#404040">
                        <set attributeName="fill" to="#808080" begin="arrowDown.mouseover" end="arrowDown.mouseout"/>
                  </use>
                  <path fill="none" stroke="white" stroke-width="1.5" d="M0,-3.0v7 M-2.5,-0.5L0,-3.0L2.5,-0.5"/>
                </g>
                <g id="arrowLeft" xlink:href="#dirArrow" transform="rotate(270) translate(-36 17)" onmousedown="handlePan(-1,0)">
                  <use xlink:href="#rim" fill="#404040">
                        <set attributeName="fill" to="#808080" begin="arrowLeft.mouseover" end="arrowLeft.mouseout"/>
                  </use>
                  <path fill="none" stroke="white" stroke-width="1.5" d="M0,-3.0v7 M-2.5,-0.5L0,-3.0L2.5,-0.5"/>
                </g>
        </g>
        <svg viewBox="0 0 15 15" width="100%" height="30px" preserveAspectRatio="xMaxYMin meet">
         <g id="arrow_out" transform="scale(0.3 0.3)">
          <a xlink:href="namespacextb__intpack_a9a40f9f0fbd48320267942da84027862_icgraph_org.svg" target="_base">
           <rect id="button" ry="5" rx="5" y="6" x="6" height="38" width="38"
                fill="#f2f5e9" fill-opacity="0.5" stroke="#606060" stroke-width="1.0"/>
           <path id="arrow"
             d="M 11.500037,31.436501 C 11.940474,20.09759 22.043105,11.32322 32.158766,21.979434 L 37.068811,17.246167 C 37.068811,17.246167 37.088388,32 37.088388,32 L 22.160133,31.978069 C 22.160133,31.978069 26.997745,27.140456 26.997745,27.140456 C 18.528582,18.264221 13.291696,25.230495 11.500037,31.436501 z"
             style="fill:#404040;"/>
          </a>
         </g>
        </svg>
</svg>
