<?xml version="1.0" encoding="UTF-8" standalone="no"?>
<!DOCTYPE svg PUBLIC "-//W3C//DTD SVG 1.1//EN"
 "http://www.w3.org/Graphics/SVG/1.1/DTD/svg11.dtd">
<!-- Generated by graphviz version 2.46.1 (20210215.1649)
 -->
<!-- Title: xtb_solv_lebedev::ld4334 Pages: 1 -->
<svg width="442pt" height="39pt"
 viewBox="0.00 0.00 442.00 39.00" xmlns="http://www.w3.org/2000/svg" xmlns:xlink="http://www.w3.org/1999/xlink">
<g id="graph0" class="graph" transform="scale(1 1) rotate(0) translate(4 35)">
<title>xtb_solv_lebedev::ld4334</title>
<polygon fill="white" stroke="transparent" points="-4,4 -4,-35 438,-35 438,4 -4,4"/>
<!-- Node1 -->
<g id="node1" class="node">
<title>Node1</title>
<g id="a_node1"><a xlink:title=" ">
<polygon fill="#bfbfbf" stroke="black" points="309,-6 309,-25 434,-25 434,-6 309,-6"/>
<text text-anchor="middle" x="371.5" y="-13" font-family="Helvetica,sans-Serif" font-size="10.00">xtb_solv_lebedev::ld4334</text>
</a>
</g>
</g>
<!-- Node2 -->
<g id="node2" class="node">
<title>Node2</title>
<g id="a_node2"><a xlink:href="namespacextb__solv__lebedev.html#ac83e2c4405adc3111ba955be33a53f60" target="_top" xlink:title="Wrapper for generation of angular Lebedev&#45;Laikov grids.">
<polygon fill="white" stroke="black" points="132,-6 132,-25 273,-25 273,-6 132,-6"/>
<text text-anchor="middle" x="202.5" y="-13" font-family="Helvetica,sans-Serif" font-size="10.00">xtb_solv_lebedev::getanggrid</text>
</a>
</g>
</g>
<!-- Node1&#45;&gt;Node2 -->
<g id="edge1" class="edge">
<title>Node1&#45;&gt;Node2</title>
<path fill="none" stroke="midnightblue" d="M298.59,-15.5C290.14,-15.5 281.54,-15.5 273.12,-15.5"/>
<polygon fill="midnightblue" stroke="midnightblue" points="298.79,-19 308.79,-15.5 298.79,-12 298.79,-19"/>
</g>
<!-- Node3 -->
<g id="node3" class="node">
<title>Node3</title>
<g id="a_node3"><a xlink:href="interfacextb__solv__gbsa_1_1init.html#ac841e40409ec6f0da1b15c41f24db116" target="_top" xlink:title="Initialize data straucture.">
<polygon fill="white" stroke="black" points="0,-0.5 0,-30.5 96,-30.5 96,-0.5 0,-0.5"/>
<text text-anchor="start" x="8" y="-18.5" font-family="Helvetica,sans-Serif" font-size="10.00">xtb_solv_gbsa::init</text>
<text text-anchor="middle" x="48" y="-7.5" font-family="Helvetica,sans-Serif" font-size="10.00">::initborn</text>
</a>
</g>
</g>
<!-- Node2&#45;&gt;Node3 -->
<g id="edge2" class="edge">
<title>Node2&#45;&gt;Node3</title>
<path fill="none" stroke="midnightblue" d="M121.71,-15.5C112.99,-15.5 104.34,-15.5 96.2,-15.5"/>
<polygon fill="midnightblue" stroke="midnightblue" points="121.94,-19 131.94,-15.5 121.94,-12 121.94,-19"/>
</g>
</g>
</svg>
