<?xml version="1.0" encoding="UTF-8" standalone="no"?>
<!DOCTYPE svg PUBLIC "-//W3C//DTD SVG 1.1//EN"
 "http://www.w3.org/Graphics/SVG/1.1/DTD/svg11.dtd">
<!-- Generated by graphviz version 2.46.1 (20210215.1649)
 -->
<!-- Title: xtb_disp_coordinationnumber::ncoordneighs Pages: 1 -->
<svg width="330pt" height="50pt"
 viewBox="0.00 0.00 330.00 50.00" xmlns="http://www.w3.org/2000/svg" xmlns:xlink="http://www.w3.org/1999/xlink">
<g id="graph0" class="graph" transform="scale(1 1) rotate(0) translate(4 46)">
<title>xtb_disp_coordinationnumber::ncoordneighs</title>
<polygon fill="white" stroke="transparent" points="-4,4 -4,-46 326,-46 326,4 -4,4"/>
<!-- Node1 -->
<g id="node1" class="node">
<title>Node1</title>
<g id="a_node1"><a xlink:title="Actual implementation of the coordination number, takes a generic counting.">
<polygon fill="#bfbfbf" stroke="black" points="179,-6 179,-36 322,-36 322,-6 179,-6"/>
<text text-anchor="start" x="187" y="-24" font-family="Helvetica,sans-Serif" font-size="10.00">xtb_disp_coordinationnumber</text>
<text text-anchor="middle" x="250.5" y="-13" font-family="Helvetica,sans-Serif" font-size="10.00">::ncoordneighs</text>
</a>
</g>
</g>
<!-- Node2 -->
<g id="node2" class="node">
<title>Node2</title>
<g id="a_node2"><a xlink:href="interfacextb__disp__coordinationnumber_1_1getcoordinationnumber.html#ae4bc7047d85e1e85a2a084c543029c11" target="_top" xlink:title="Geometric fractional coordination number, supports both error function.">
<polygon fill="white" stroke="black" points="0,-0.5 0,-41.5 143,-41.5 143,-0.5 0,-0.5"/>
<text text-anchor="start" x="8" y="-29.5" font-family="Helvetica,sans-Serif" font-size="10.00">xtb_disp_coordinationnumber</text>
<text text-anchor="start" x="8" y="-18.5" font-family="Helvetica,sans-Serif" font-size="10.00">::getcoordinationnumber</text>
<text text-anchor="middle" x="71.5" y="-7.5" font-family="Helvetica,sans-Serif" font-size="10.00">::getcoordinationnumbernl</text>
</a>
</g>
</g>
<!-- Node1&#45;&gt;Node2 -->
<g id="edge1" class="edge">
<title>Node1&#45;&gt;Node2</title>
<path fill="none" stroke="midnightblue" d="M168.51,-21C160.03,-21 151.46,-21 143.11,-21"/>
<polygon fill="midnightblue" stroke="midnightblue" points="168.78,-24.5 178.78,-21 168.78,-17.5 168.78,-24.5"/>
</g>
</g>
</svg>
