<?xml version="1.0" encoding="UTF-8" standalone="no"?>
<!DOCTYPE svg PUBLIC "-//W3C//DTD SVG 1.1//EN"
 "http://www.w3.org/Graphics/SVG/1.1/DTD/svg11.dtd">
<!-- Generated by graphviz version 2.43.0 (0)
 -->
<!-- Title: xtb_intpack::rhftce Pages: 1 -->
<svg width="518pt" height="180pt"
 viewBox="0.00 0.00 518.00 180.00" xmlns="http://www.w3.org/2000/svg" xmlns:xlink="http://www.w3.org/1999/xlink">
<g id="graph0" class="graph" transform="scale(1 1) rotate(0) translate(4 176)">
<title>xtb_intpack::rhftce</title>
<polygon fill="white" stroke="transparent" points="-4,4 -4,-176 514,-176 514,4 -4,4"/>
<!-- Node1 -->
<g id="node1" class="node">
<title>Node1</title>
<g id="a_node1"><a xlink:title=" ">
<polygon fill="#bfbfbf" stroke="black" points="403,-95.5 403,-114.5 510,-114.5 510,-95.5 403,-95.5"/>
<text text-anchor="middle" x="456.5" y="-102.5" font-family="Helvetica,sans-Serif" font-size="10.00">xtb_intpack::rhftce</text>
</a>
</g>
</g>
<!-- Node2 -->
<g id="node2" class="node">
<title>Node2</title>
<g id="a_node2"><a xlink:href="namespacextb__intpack.html#a6a4ae2a9e2fd11d67f5adda3a02b52ab" target="_top" xlink:title=" ">
<polygon fill="white" stroke="black" points="263,-152.5 263,-171.5 364,-171.5 364,-152.5 263,-152.5"/>
<text text-anchor="middle" x="313.5" y="-159.5" font-family="Helvetica,sans-Serif" font-size="10.00">xtb_intpack::pola</text>
</a>
</g>
</g>
<!-- Node1&#45;&gt;Node2 -->
<g id="edge1" class="edge">
<title>Node1&#45;&gt;Node2</title>
<path fill="none" stroke="midnightblue" d="M424.78,-118.71C407.84,-126.14 386.37,-135.34 367,-143 358.89,-146.21 349.99,-149.51 341.86,-152.44"/>
<polygon fill="midnightblue" stroke="midnightblue" points="426.45,-121.8 434.19,-114.57 423.62,-115.4 426.45,-121.8"/>
</g>
<!-- Node3 -->
<g id="node3" class="node">
<title>Node3</title>
<g id="a_node3"><a xlink:href="namespacextb__intpack.html#a1f2c3d0a5e66e7752a19ee3e2f4b8906" target="_top" xlink:title=" ">
<polygon fill="white" stroke="black" points="261.5,-114.5 261.5,-133.5 365.5,-133.5 365.5,-114.5 261.5,-114.5"/>
<text text-anchor="middle" x="313.5" y="-121.5" font-family="Helvetica,sans-Serif" font-size="10.00">xtb_intpack::prola</text>
</a>
</g>
</g>
<!-- Node1&#45;&gt;Node3 -->
<g id="edge2" class="edge">
<title>Node1&#45;&gt;Node3</title>
<path fill="none" stroke="midnightblue" d="M392.84,-113.44C383.74,-114.67 374.47,-115.92 365.64,-117.11"/>
<polygon fill="midnightblue" stroke="midnightblue" points="393.55,-116.88 403,-112.07 392.62,-109.94 393.55,-116.88"/>
</g>
<!-- Node4 -->
<g id="node4" class="node">
<title>Node4</title>
<g id="a_node4"><a xlink:href="namespacextb__intpack.html#a006d934cfa58ce57ddc3932a0f15120c" target="_top" xlink:title=" ">
<polygon fill="white" stroke="black" points="260,-76.5 260,-95.5 367,-95.5 367,-76.5 260,-76.5"/>
<text text-anchor="middle" x="313.5" y="-83.5" font-family="Helvetica,sans-Serif" font-size="10.00">xtb_intpack::propa</text>
</a>
</g>
</g>
<!-- Node1&#45;&gt;Node4 -->
<g id="edge3" class="edge">
<title>Node1&#45;&gt;Node4</title>
<path fill="none" stroke="midnightblue" d="M392.95,-96.57C384.3,-95.41 375.49,-94.22 367.05,-93.08"/>
<polygon fill="midnightblue" stroke="midnightblue" points="392.62,-100.06 403,-97.93 393.55,-93.12 392.62,-100.06"/>
</g>
<!-- Node8 -->
<g id="node8" class="node">
<title>Node8</title>
<g id="a_node8"><a xlink:href="namespaceesp.html#a656a3397886dca0f2f8e17bb2d0ff5e9" target="_top" xlink:title=" ">
<polygon fill="white" stroke="black" points="276.5,-38.5 276.5,-57.5 350.5,-57.5 350.5,-38.5 276.5,-38.5"/>
<text text-anchor="middle" x="313.5" y="-45.5" font-family="Helvetica,sans-Serif" font-size="10.00">esp::propa0</text>
</a>
</g>
</g>
<!-- Node1&#45;&gt;Node8 -->
<g id="edge7" class="edge">
<title>Node1&#45;&gt;Node8</title>
<path fill="none" stroke="midnightblue" d="M424.78,-91.29C407.84,-83.86 386.37,-74.66 367,-67 358.89,-63.79 349.99,-60.49 341.86,-57.56"/>
<polygon fill="midnightblue" stroke="midnightblue" points="423.62,-94.6 434.19,-95.43 426.45,-88.2 423.62,-94.6"/>
</g>
<!-- Node5 -->
<g id="node5" class="node">
<title>Node5</title>
<g id="a_node5"><a xlink:href="namespacextb__dipole.html#aab0b85d5f1bccf51f2906833306ff640" target="_top" xlink:title=" ">
<polygon fill="white" stroke="black" points="126,-76.5 126,-95.5 224,-95.5 224,-76.5 126,-76.5"/>
<text text-anchor="middle" x="175" y="-83.5" font-family="Helvetica,sans-Serif" font-size="10.00">xtb_dipole::dints</text>
</a>
</g>
</g>
<!-- Node4&#45;&gt;Node5 -->
<g id="edge4" class="edge">
<title>Node4&#45;&gt;Node5</title>
<path fill="none" stroke="midnightblue" d="M249.45,-86C240.96,-86 232.35,-86 224.17,-86"/>
<polygon fill="midnightblue" stroke="midnightblue" points="249.73,-89.5 259.73,-86 249.73,-82.5 249.73,-89.5"/>
</g>
<!-- Node6 -->
<g id="node6" class="node">
<title>Node6</title>
<g id="a_node6"><a xlink:href="namespacextb__hlex.html#a9567145f01de2589b8d5a029c45d42db" target="_top" xlink:title=" ">
<polygon fill="white" stroke="black" points="2,-114.5 2,-133.5 88,-133.5 88,-114.5 2,-114.5"/>
<text text-anchor="middle" x="45" y="-121.5" font-family="Helvetica,sans-Serif" font-size="10.00">xtb_hlex::hlex</text>
</a>
</g>
</g>
<!-- Node5&#45;&gt;Node6 -->
<g id="edge5" class="edge">
<title>Node5&#45;&gt;Node6</title>
<path fill="none" stroke="midnightblue" d="M131.78,-98.54C114.36,-103.7 94.51,-109.6 78.29,-114.41"/>
<polygon fill="midnightblue" stroke="midnightblue" points="133.11,-101.79 141.7,-95.59 131.12,-95.08 133.11,-101.79"/>
</g>
<!-- Node7 -->
<g id="node7" class="node">
<title>Node7</title>
<g id="a_node7"><a xlink:href="namespacextb__local.html#a6aafec43f9ac7235a5dfd2c36ed1f56b" target="_top" xlink:title=" ">
<polygon fill="white" stroke="black" points="0,-76.5 0,-95.5 90,-95.5 90,-76.5 0,-76.5"/>
<text text-anchor="middle" x="45" y="-83.5" font-family="Helvetica,sans-Serif" font-size="10.00">xtb_local::local</text>
</a>
</g>
</g>
<!-- Node5&#45;&gt;Node7 -->
<g id="edge6" class="edge">
<title>Node5&#45;&gt;Node7</title>
<path fill="none" stroke="midnightblue" d="M115.89,-86C107.22,-86 98.39,-86 90.07,-86"/>
<polygon fill="midnightblue" stroke="midnightblue" points="115.97,-89.5 125.97,-86 115.97,-82.5 115.97,-89.5"/>
</g>
<!-- Node9 -->
<g id="node9" class="node">
<title>Node9</title>
<g id="a_node9"><a xlink:href="namespaceesp.html#af040321aaf65be6edac13a110fce6376" target="_top" xlink:title=" ">
<polygon fill="white" stroke="black" points="138,-38.5 138,-57.5 212,-57.5 212,-38.5 138,-38.5"/>
<text text-anchor="middle" x="175" y="-45.5" font-family="Helvetica,sans-Serif" font-size="10.00">esp::preints</text>
</a>
</g>
</g>
<!-- Node8&#45;&gt;Node9 -->
<g id="edge8" class="edge">
<title>Node8&#45;&gt;Node9</title>
<path fill="none" stroke="midnightblue" d="M266.23,-48C248.66,-48 228.92,-48 212.39,-48"/>
<polygon fill="midnightblue" stroke="midnightblue" points="266.28,-51.5 276.28,-48 266.28,-44.5 266.28,-51.5"/>
</g>
<!-- Node10 -->
<g id="node10" class="node">
<title>Node10</title>
<g id="a_node10"><a xlink:href="namespaceesp.html#abbb507b0106b5a5f8d4ebdac1f0a1681" target="_top" xlink:title=" ">
<polygon fill="white" stroke="black" points="7,-38.5 7,-57.5 83,-57.5 83,-38.5 7,-38.5"/>
<text text-anchor="middle" x="45" y="-45.5" font-family="Helvetica,sans-Serif" font-size="10.00">esp::espplot</text>
</a>
</g>
</g>
<!-- Node9&#45;&gt;Node10 -->
<g id="edge9" class="edge">
<title>Node9&#45;&gt;Node10</title>
<path fill="none" stroke="midnightblue" d="M127.38,-48C112.88,-48 97.1,-48 83.32,-48"/>
<polygon fill="midnightblue" stroke="midnightblue" points="127.66,-51.5 137.66,-48 127.66,-44.5 127.66,-51.5"/>
</g>
<!-- Node11 -->
<g id="node11" class="node">
<title>Node11</title>
<g id="a_node11"><a xlink:href="namespacestm.html#af8df5d0f4a9a2b695161f4afd3c27c8a" target="_top" xlink:title=" ">
<polygon fill="white" stroke="black" points="8,-0.5 8,-19.5 82,-19.5 82,-0.5 8,-0.5"/>
<text text-anchor="middle" x="45" y="-7.5" font-family="Helvetica,sans-Serif" font-size="10.00">stm::stmpic</text>
</a>
</g>
</g>
<!-- Node9&#45;&gt;Node11 -->
<g id="edge10" class="edge">
<title>Node9&#45;&gt;Node11</title>
<path fill="none" stroke="midnightblue" d="M131.78,-35.46C114.36,-30.3 94.51,-24.4 78.29,-19.59"/>
<polygon fill="midnightblue" stroke="midnightblue" points="131.12,-38.92 141.7,-38.41 133.11,-32.21 131.12,-38.92"/>
</g>
</g>
</svg>
