<?xml version="1.0" encoding="UTF-8" standalone="no"?>
<!DOCTYPE svg PUBLIC "-//W3C//DTD SVG 1.1//EN"
 "http://www.w3.org/Graphics/SVG/1.1/DTD/svg11.dtd">
<!-- Generated by graphviz version 2.46.0 (20210122.1329)
 -->
<!-- Title: xtb_pbc_tools::dlat_to_rlat Pages: 1 -->
<!--zoomable 268 -->
<svg id="main" version="1.1" xmlns="http://www.w3.org/2000/svg" xmlns:xlink="http://www.w3.org/1999/xlink" xml:space="preserve" onload="init(evt)">
<style type="text/css"><![CDATA[
.edge:hover path { stroke: red; }
.edge:hover polygon { stroke: red; fill: red; }
]]></style>
<script type="text/javascript"><![CDATA[
var edges = document.getElementsByTagName('g');
if (edges && edges.length) {
  for (var i=0;i<edges.length;i++) {
    if (edges[i].id.substr(0,4)=='edge') {
      edges[i].setAttribute('class','edge');
    }
  }
}
]]></script>
        <defs>
                <circle id="rim" cx="0" cy="0" r="7"/>
                <circle id="rim2" cx="0" cy="0" r="3.5"/>
                <g id="zoomPlus">
                        <use xlink:href="#rim" fill="#404040">
                                <set attributeName="fill" to="#808080" begin="zoomplus.mouseover" end="zoomplus.mouseout"/>
                        </use>
                        <path d="M-4,0h8M0,-4v8" fill="none" stroke="white" stroke-width="1.5" pointer-events="none"/>
                </g>
                <g id="zoomMin">
                        <use xlink:href="#rim" fill="#404040">
                                <set attributeName="fill" to="#808080" begin="zoomminus.mouseover" end="zoomminus.mouseout"/>
                        </use>
                        <path d="M-4,0h8" fill="none" stroke="white" stroke-width="1.5" pointer-events="none"/>
                </g>
                <g id="dirArrow">
                        <path fill="none" stroke="white" stroke-width="1.5" d="M0,-3.0v7 M-2.5,-0.5L0,-3.0L2.5,-0.5"/>
                </g>
               <g id="resetDef">
                       <use xlink:href="#rim2" fill="#404040">
                               <set attributeName="fill" to="#808080" begin="reset.mouseover" end="reset.mouseout"/>
                       </use>
               </g>
        </defs>

<script type="text/javascript">
var viewWidth = 1134;
var viewHeight = 268;
var sectionId = 'dynsection-10';
</script>
<script xlink:href="svgpan.js"/>
<svg id="graph" class="graph">
<g id="viewport">
<title>xtb_pbc_tools::dlat_to_rlat</title>
<polygon fill="white" stroke="transparent" points="-4,4 -4,-263.5 1130,-263.5 1130,4 -4,4"/>
<!-- Node1 -->
<g id="node1" class="node">
<title>Node1</title>
<g id="a_node1"><a xlink:title="convert direct lattice to cell parameters">
<polygon fill="#bfbfbf" stroke="black" points="1029,-142.5 1029,-172.5 1126,-172.5 1126,-142.5 1029,-142.5"/>
<text text-anchor="start" x="1037" y="-160.5" font-family="Helvetica,sans-Serif" font-size="10.00">xtb_pbc_tools::dlat</text>
<text text-anchor="middle" x="1077.5" y="-149.5" font-family="Helvetica,sans-Serif" font-size="10.00">_to_rlat</text>
</a>
</g>
</g>
<!-- Node2 -->
<g id="node2" class="node">
<title>Node2</title>
<g id="a_node2"><a xlink:href="TESTSUITE_2pbc__tools_8f90.html#a69f132175fef558954e512a5959a7910" target="_top" xlink:title=" ">
<polygon fill="white" stroke="black" points="875,-170 875,-189 993,-189 993,-170 875,-170"/>
<text text-anchor="middle" x="934" y="-177" font-family="Helvetica,sans-Serif" font-size="10.00">test_pbc_tools_convert</text>
</a>
</g>
</g>
<!-- Node1&#45;&gt;Node2 -->
<g id="edge1" class="edge">
<title>Node1&#45;&gt;Node2</title>
<path fill="none" stroke="midnightblue" d="M1018.84,-166.47C1010.38,-167.78 1001.67,-169.14 993.2,-170.45"/>
<polygon fill="midnightblue" stroke="midnightblue" points="1019.65,-169.88 1028.99,-164.89 1018.57,-162.96 1019.65,-169.88"/>
</g>
<!-- Node4 -->
<g id="node4" class="node">
<title>Node4</title>
<g id="a_node4"><a xlink:href="namespacextb__type__molecule.html#a080dfe4808f94b2da901b005f6a56b66" target="_top" xlink:title=" ">
<polygon fill="white" stroke="black" points="883.5,-120.5 883.5,-150.5 984.5,-150.5 984.5,-120.5 883.5,-120.5"/>
<text text-anchor="start" x="891.5" y="-138.5" font-family="Helvetica,sans-Serif" font-size="10.00">xtb_type_molecule::</text>
<text text-anchor="middle" x="934" y="-127.5" font-family="Helvetica,sans-Serif" font-size="10.00">update</text>
</a>
</g>
</g>
<!-- Node1&#45;&gt;Node4 -->
<g id="edge3" class="edge">
<title>Node1&#45;&gt;Node4</title>
<path fill="none" stroke="midnightblue" d="M1019.09,-148.57C1007.64,-146.79 995.72,-144.94 984.56,-143.21"/>
<polygon fill="midnightblue" stroke="midnightblue" points="1018.57,-152.04 1028.99,-150.11 1019.65,-145.12 1018.57,-152.04"/>
</g>
<!-- Node3 -->
<g id="node3" class="node">
<title>Node3</title>
<g id="a_node3"><a xlink:href="tests__peeq_8f90.html#a87ff5319e0d2e627a4f71d7df0d14891" target="_top" xlink:title=" ">
<polygon fill="white" stroke="black" points="750,-170 750,-189 818,-189 818,-170 750,-170"/>
<text text-anchor="middle" x="784" y="-177" font-family="Helvetica,sans-Serif" font-size="10.00">peeq_tester</text>
</a>
</g>
</g>
<!-- Node2&#45;&gt;Node3 -->
<g id="edge2" class="edge">
<title>Node2&#45;&gt;Node3</title>
<path fill="none" stroke="midnightblue" d="M864.89,-179.5C848.63,-179.5 831.99,-179.5 818.14,-179.5"/>
<polygon fill="midnightblue" stroke="midnightblue" points="864.93,-183 874.93,-179.5 864.93,-176 864.93,-183"/>
</g>
<!-- Node5 -->
<g id="node5" class="node">
<title>Node5</title>
<g id="a_node5"><a xlink:href="namespacextb__relaxation__engine.html#a930f6aac4b13eab0de82f2b71bcde96b" target="_top" xlink:title="frontend implementation of the fast inertial relaxation engine">
<polygon fill="white" stroke="black" points="729,-120.5 729,-150.5 839,-150.5 839,-120.5 729,-120.5"/>
<text text-anchor="start" x="737" y="-138.5" font-family="Helvetica,sans-Serif" font-size="10.00">xtb_relaxation_engine</text>
<text text-anchor="middle" x="784" y="-127.5" font-family="Helvetica,sans-Serif" font-size="10.00">::fire</text>
</a>
</g>
</g>
<!-- Node4&#45;&gt;Node5 -->
<g id="edge4" class="edge">
<title>Node4&#45;&gt;Node5</title>
<path fill="none" stroke="midnightblue" d="M873.14,-135.5C861.89,-135.5 850.2,-135.5 839.14,-135.5"/>
<polygon fill="midnightblue" stroke="midnightblue" points="873.31,-139 883.31,-135.5 873.31,-132 873.31,-139"/>
</g>
<!-- Node6 -->
<g id="node6" class="node">
<title>Node6</title>
<g id="a_node6"><a xlink:href="namespacextb__geoopt.html#a1f0513294f2237b94f355cc4dc5dd867" target="_top" xlink:title=" ">
<polygon fill="white" stroke="black" points="585,-120.5 585,-150.5 693,-150.5 693,-120.5 585,-120.5"/>
<text text-anchor="start" x="593" y="-138.5" font-family="Helvetica,sans-Serif" font-size="10.00">xtb_geoopt::geometry</text>
<text text-anchor="middle" x="639" y="-127.5" font-family="Helvetica,sans-Serif" font-size="10.00">_optimization</text>
</a>
</g>
</g>
<!-- Node5&#45;&gt;Node6 -->
<g id="edge5" class="edge">
<title>Node5&#45;&gt;Node6</title>
<path fill="none" stroke="midnightblue" d="M718.93,-135.5C710.33,-135.5 701.58,-135.5 693.19,-135.5"/>
<polygon fill="midnightblue" stroke="midnightblue" points="718.94,-139 728.94,-135.5 718.94,-132 718.94,-139"/>
</g>
<!-- Node7 -->
<g id="node7" class="node">
<title>Node7</title>
<g id="a_node7"><a xlink:href="namespacextb__kopt.html#ada4ab70832f563f46c8ffc8cea64c78b" target="_top" xlink:title=" ">
<polygon fill="white" stroke="black" points="441.5,-240 441.5,-259 539.5,-259 539.5,-240 441.5,-240"/>
<text text-anchor="middle" x="490.5" y="-247" font-family="Helvetica,sans-Serif" font-size="10.00">xtb_kopt::get_rmsd</text>
</a>
</g>
</g>
<!-- Node6&#45;&gt;Node7 -->
<g id="edge6" class="edge">
<title>Node6&#45;&gt;Node7</title>
<path fill="none" stroke="midnightblue" d="M619.66,-158.65C602.96,-178.51 576.74,-206.8 549,-225.5 540.39,-231.31 530.15,-236.13 520.72,-239.9"/>
<polygon fill="midnightblue" stroke="midnightblue" points="622.55,-160.65 626.21,-150.71 617.15,-156.2 622.55,-160.65"/>
</g>
<!-- Node9 -->
<g id="node9" class="node">
<title>Node9</title>
<g id="a_node9"><a xlink:href="namespacextb__prog__main.html#a92b3b61ee04235e6343f652095682529" target="_top" xlink:title=" ">
<polygon fill="white" stroke="black" points="126,-126 126,-145 244,-145 244,-126 126,-126"/>
<text text-anchor="middle" x="185" y="-133" font-family="Helvetica,sans-Serif" font-size="10.00">xtb_prog_main::xtbmain</text>
</a>
</g>
</g>
<!-- Node6&#45;&gt;Node9 -->
<g id="edge20" class="edge">
<title>Node6&#45;&gt;Node9</title>
<path fill="none" stroke="midnightblue" d="M612.91,-157.13C596.07,-170.17 572.69,-185.56 549,-192.5 434,-226.17 395.93,-204.79 280,-174.5 252.99,-167.44 223.51,-154.24 204.9,-145.17"/>
<polygon fill="midnightblue" stroke="midnightblue" points="615.47,-159.56 621.09,-150.58 611.1,-154.1 615.47,-159.56"/>
</g>
<!-- Node11 -->
<g id="node11" class="node">
<title>Node11</title>
<g id="a_node11"><a xlink:href="namespacextb__mdoptim.html#ab0ba2195163cd6794115b99516ba5316" target="_top" xlink:title=" ">
<polygon fill="white" stroke="black" points="438.5,-164 438.5,-183 542.5,-183 542.5,-164 438.5,-164"/>
<text text-anchor="middle" x="490.5" y="-171" font-family="Helvetica,sans-Serif" font-size="10.00">xtb_mdoptim::mdopt</text>
</a>
</g>
</g>
<!-- Node6&#45;&gt;Node11 -->
<g id="edge10" class="edge">
<title>Node6&#45;&gt;Node11</title>
<path fill="none" stroke="midnightblue" d="M574.94,-151.86C559.09,-155.97 542.59,-160.25 528.49,-163.9"/>
<polygon fill="midnightblue" stroke="midnightblue" points="575.89,-155.23 584.7,-149.33 574.14,-148.45 575.89,-155.23"/>
</g>
<!-- Node12 -->
<g id="node12" class="node">
<title>Node12</title>
<g id="a_node12"><a xlink:href="namespacextb__modef.html#a39c4cb408b8b02afb7bf83a1d7f13de3" target="_top" xlink:title=" ">
<polygon fill="white" stroke="black" points="280,-126 280,-145 396,-145 396,-126 280,-126"/>
<text text-anchor="middle" x="338" y="-133" font-family="Helvetica,sans-Serif" font-size="10.00">xtb_modef::modefollow</text>
</a>
</g>
</g>
<!-- Node6&#45;&gt;Node12 -->
<g id="edge12" class="edge">
<title>Node6&#45;&gt;Node12</title>
<path fill="none" stroke="midnightblue" d="M574.63,-135.5C521.81,-135.5 447.22,-135.5 396.2,-135.5"/>
<polygon fill="midnightblue" stroke="midnightblue" points="574.89,-139 584.89,-135.5 574.89,-132 574.89,-139"/>
</g>
<!-- Node13 -->
<g id="node13" class="node">
<title>Node13</title>
<g id="a_node13"><a xlink:href="namespacextb__scan.html#abef8f8d0fa299e9e2caf823f3672f14a" target="_top" xlink:title=" ">
<polygon fill="white" stroke="black" points="432,-88 432,-107 549,-107 549,-88 432,-88"/>
<text text-anchor="middle" x="490.5" y="-95" font-family="Helvetica,sans-Serif" font-size="10.00">xtb_scan::relaxed_scan</text>
</a>
</g>
</g>
<!-- Node6&#45;&gt;Node13 -->
<g id="edge14" class="edge">
<title>Node6&#45;&gt;Node13</title>
<path fill="none" stroke="midnightblue" d="M574.94,-119.14C559.09,-115.03 542.59,-110.75 528.49,-107.1"/>
<polygon fill="midnightblue" stroke="midnightblue" points="574.14,-122.55 584.7,-121.67 575.89,-115.77 574.14,-122.55"/>
</g>
<!-- Node14 -->
<g id="node14" class="node">
<title>Node14</title>
<g id="a_node14"><a xlink:href="namespacextb__screening.html#a7f4004ff0e65127a38b038f0a7cdcc84" target="_top" xlink:title=" ">
<polygon fill="white" stroke="black" points="283,-50 283,-69 393,-69 393,-50 283,-50"/>
<text text-anchor="middle" x="338" y="-57" font-family="Helvetica,sans-Serif" font-size="10.00">xtb_screening::screen</text>
</a>
</g>
</g>
<!-- Node6&#45;&gt;Node14 -->
<g id="edge16" class="edge">
<title>Node6&#45;&gt;Node14</title>
<path fill="none" stroke="midnightblue" d="M612.04,-114.1C595.15,-101.45 572.06,-86.4 549,-78.5 498.09,-61.07 436.4,-57.39 393.1,-57.42"/>
<polygon fill="midnightblue" stroke="midnightblue" points="610.21,-117.11 620.26,-120.45 614.48,-111.57 610.21,-117.11"/>
</g>
<!-- Node15 -->
<g id="node15" class="node">
<title>Node15</title>
<g id="a_node15"><a xlink:href="namespacextb__gfnff__convert.html#adf399b47b9f2a8364327d9d5c38cb2b8" target="_top" xlink:title=" ">
<polygon fill="white" stroke="black" points="290.5,-0.5 290.5,-30.5 385.5,-30.5 385.5,-0.5 290.5,-0.5"/>
<text text-anchor="start" x="298.5" y="-18.5" font-family="Helvetica,sans-Serif" font-size="10.00">xtb_gfnff_convert::</text>
<text text-anchor="middle" x="338" y="-7.5" font-family="Helvetica,sans-Serif" font-size="10.00">struc_convert</text>
</a>
</g>
</g>
<!-- Node6&#45;&gt;Node15 -->
<g id="edge18" class="edge">
<title>Node6&#45;&gt;Node15</title>
<path fill="none" stroke="midnightblue" d="M619.24,-112.44C602.74,-93.8 577.04,-68.42 549,-54.5 496.86,-28.6 429.69,-19.8 385.53,-16.87"/>
<polygon fill="midnightblue" stroke="midnightblue" points="616.76,-114.93 625.94,-120.22 622.06,-110.36 616.76,-114.93"/>
</g>
<!-- Node8 -->
<g id="node8" class="node">
<title>Node8</title>
<g id="a_node8"><a xlink:href="namespacextb__kopt.html#aed50b40106367857ab2d0bf3a109f62b" target="_top" xlink:title=" ">
<polygon fill="white" stroke="black" points="290.5,-240 290.5,-259 385.5,-259 385.5,-240 290.5,-240"/>
<text text-anchor="middle" x="338" y="-247" font-family="Helvetica,sans-Serif" font-size="10.00">xtb_kopt::get_kopt</text>
</a>
</g>
</g>
<!-- Node7&#45;&gt;Node8 -->
<g id="edge7" class="edge">
<title>Node7&#45;&gt;Node8</title>
<path fill="none" stroke="midnightblue" d="M431.18,-249.5C416.06,-249.5 399.98,-249.5 385.55,-249.5"/>
<polygon fill="midnightblue" stroke="midnightblue" points="431.47,-253 441.47,-249.5 431.47,-246 431.47,-253"/>
</g>
<!-- Node8&#45;&gt;Node9 -->
<g id="edge8" class="edge">
<title>Node8&#45;&gt;Node9</title>
<path fill="none" stroke="midnightblue" d="M299.15,-235.87C292.55,-232.85 285.91,-229.38 280,-225.5 243.74,-201.69 209,-162.97 193.89,-145.1"/>
<polygon fill="midnightblue" stroke="midnightblue" points="298.14,-239.24 308.71,-239.96 300.9,-232.81 298.14,-239.24"/>
</g>
<!-- Node10 -->
<g id="node10" class="node">
<title>Node10</title>
<g id="a_node10"><a xlink:href="primary_8f90.html#a2a67903cf5be605c5b6d3c362c6a3c5c" target="_top" xlink:title="The primary driver for the xtb program package.">
<polygon fill="white" stroke="black" points="0,-126 0,-145 90,-145 90,-126 0,-126"/>
<text text-anchor="middle" x="45" y="-133" font-family="Helvetica,sans-Serif" font-size="10.00">xtb_prog_primary</text>
</a>
</g>
</g>
<!-- Node9&#45;&gt;Node10 -->
<g id="edge9" class="edge">
<title>Node9&#45;&gt;Node10</title>
<path fill="none" stroke="midnightblue" d="M115.73,-135.5C107.06,-135.5 98.37,-135.5 90.22,-135.5"/>
<polygon fill="midnightblue" stroke="midnightblue" points="115.88,-139 125.88,-135.5 115.88,-132 115.88,-139"/>
</g>
<!-- Node11&#45;&gt;Node9 -->
<g id="edge11" class="edge">
<title>Node11&#45;&gt;Node9</title>
<path fill="none" stroke="midnightblue" d="M428.05,-169.7C386.18,-166.67 329.58,-161.74 280,-154.5 263.03,-152.02 244.5,-148.46 228.41,-145.09"/>
<polygon fill="midnightblue" stroke="midnightblue" points="427.87,-173.19 438.09,-170.41 428.36,-166.21 427.87,-173.19"/>
</g>
<!-- Node12&#45;&gt;Node9 -->
<g id="edge13" class="edge">
<title>Node12&#45;&gt;Node9</title>
<path fill="none" stroke="midnightblue" d="M269.65,-135.5C261.15,-135.5 252.51,-135.5 244.17,-135.5"/>
<polygon fill="midnightblue" stroke="midnightblue" points="269.91,-139 279.91,-135.5 269.91,-132 269.91,-139"/>
</g>
<!-- Node13&#45;&gt;Node9 -->
<g id="edge15" class="edge">
<title>Node13&#45;&gt;Node9</title>
<path fill="none" stroke="midnightblue" d="M421.77,-101.76C380.63,-104.82 327.14,-109.62 280,-116.5 263.03,-118.98 244.5,-122.54 228.41,-125.91"/>
<polygon fill="midnightblue" stroke="midnightblue" points="422.23,-105.24 431.95,-101.02 421.72,-98.26 422.23,-105.24"/>
</g>
<!-- Node14&#45;&gt;Node9 -->
<g id="edge17" class="edge">
<title>Node14&#45;&gt;Node9</title>
<path fill="none" stroke="midnightblue" d="M303.17,-73.04C295.48,-76.31 287.4,-79.91 280,-83.5 251.98,-97.1 220.52,-115.09 202.02,-125.95"/>
<polygon fill="midnightblue" stroke="midnightblue" points="304.74,-76.18 312.62,-69.1 302.04,-69.72 304.74,-76.18"/>
</g>
<!-- Node15&#45;&gt;Node9 -->
<g id="edge19" class="edge">
<title>Node15&#45;&gt;Node9</title>
<path fill="none" stroke="midnightblue" d="M288.41,-35.26C285.5,-36.92 282.67,-38.66 280,-40.5 242.9,-65.99 208.05,-107.4 193.34,-125.97"/>
<polygon fill="midnightblue" stroke="midnightblue" points="290.1,-38.32 297.32,-30.57 286.84,-32.13 290.1,-38.32"/>
</g>
</g>
</svg>
        <g id="navigator" transform="translate(0 0)" fill="#404254">
                <rect fill="#f2f5e9" fill-opacity="0.5" stroke="#606060" stroke-width=".5" x="0" y="0" width="60" height="60"/>
                <use id="zoomplus" xlink:href="#zoomPlus" x="17" y="9" onmousedown="handleZoom(evt,'in')"/>
                <use id="zoomminus" xlink:href="#zoomMin" x="42" y="9" onmousedown="handleZoom(evt,'out')"/>
                <use id="reset" xlink:href="#resetDef" x="30" y="36" onmousedown="handleReset()"/>
                <g id="arrowUp" xlink:href="#dirArrow" transform="translate(30 24)" onmousedown="handlePan(0,-1)">
                  <use xlink:href="#rim" fill="#404040">
                        <set attributeName="fill" to="#808080" begin="arrowUp.mouseover" end="arrowUp.mouseout"/>
                  </use>
                  <path fill="none" stroke="white" stroke-width="1.5" d="M0,-3.0v7 M-2.5,-0.5L0,-3.0L2.5,-0.5"/>
                </g>
                <g id="arrowRight" xlink:href="#dirArrow" transform="rotate(90) translate(36 -43)" onmousedown="handlePan(1,0)">
                  <use xlink:href="#rim" fill="#404040">
                        <set attributeName="fill" to="#808080" begin="arrowRight.mouseover" end="arrowRight.mouseout"/>
                  </use>
                  <path fill="none" stroke="white" stroke-width="1.5" d="M0,-3.0v7 M-2.5,-0.5L0,-3.0L2.5,-0.5"/>
                </g>
                <g id="arrowDown" xlink:href="#dirArrow" transform="rotate(180) translate(-30 -48)" onmousedown="handlePan(0,1)">
                  <use xlink:href="#rim" fill="#404040">
                        <set attributeName="fill" to="#808080" begin="arrowDown.mouseover" end="arrowDown.mouseout"/>
                  </use>
                  <path fill="none" stroke="white" stroke-width="1.5" d="M0,-3.0v7 M-2.5,-0.5L0,-3.0L2.5,-0.5"/>
                </g>
                <g id="arrowLeft" xlink:href="#dirArrow" transform="rotate(270) translate(-36 17)" onmousedown="handlePan(-1,0)">
                  <use xlink:href="#rim" fill="#404040">
                        <set attributeName="fill" to="#808080" begin="arrowLeft.mouseover" end="arrowLeft.mouseout"/>
                  </use>
                  <path fill="none" stroke="white" stroke-width="1.5" d="M0,-3.0v7 M-2.5,-0.5L0,-3.0L2.5,-0.5"/>
                </g>
        </g>
        <svg viewBox="0 0 15 15" width="100%" height="30px" preserveAspectRatio="xMaxYMin meet">
         <g id="arrow_out" transform="scale(0.3 0.3)">
          <a xlink:href="namespacextb__pbc__tools_aa8308e59e9922f92d1270ecfe6fea9af_icgraph_org.svg" target="_base">
           <rect id="button" ry="5" rx="5" y="6" x="6" height="38" width="38"
                fill="#f2f5e9" fill-opacity="0.5" stroke="#606060" stroke-width="1.0"/>
           <path id="arrow"
             d="M 11.500037,31.436501 C 11.940474,20.09759 22.043105,11.32322 32.158766,21.979434 L 37.068811,17.246167 C 37.068811,17.246167 37.088388,32 37.088388,32 L 22.160133,31.978069 C 22.160133,31.978069 26.997745,27.140456 26.997745,27.140456 C 18.528582,18.264221 13.291696,25.230495 11.500037,31.436501 z"
             style="fill:#404040;"/>
          </a>
         </g>
        </svg>
</svg>
