<?xml version="1.0" encoding="UTF-8" standalone="no"?>
<!DOCTYPE svg PUBLIC "-//W3C//DTD SVG 1.1//EN"
 "http://www.w3.org/Graphics/SVG/1.1/DTD/svg11.dtd">
<!-- Generated by graphviz version 2.43.0 (0)
 -->
<!-- Title: xtb_readin::getlistvalue Pages: 1 -->
<svg width="605pt" height="88pt"
 viewBox="0.00 0.00 605.00 88.00" xmlns="http://www.w3.org/2000/svg" xmlns:xlink="http://www.w3.org/1999/xlink">
<g id="graph0" class="graph" transform="scale(1 1) rotate(0) translate(4 84)">
<title>xtb_readin::getlistvalue</title>
<polygon fill="white" stroke="transparent" points="-4,4 -4,-84 601,-84 601,4 -4,4"/>
<!-- Node1 -->
<g id="node1" class="node">
<title>Node1</title>
<g id="a_node1"><a xlink:title=" ">
<polygon fill="#bfbfbf" stroke="black" points="465,-30 465,-49 597,-49 597,-30 465,-30"/>
<text text-anchor="middle" x="531" y="-37" font-family="Helvetica,sans-Serif" font-size="10.00">xtb_readin::getlistvalue</text>
</a>
</g>
</g>
<!-- Node2 -->
<g id="node2" class="node">
<title>Node2</title>
<g id="a_node2"><a xlink:href="namespacextb__constrain__param.html#a11ef83ba187438dc51796fd89034014c" target="_top" xlink:title=" ">
<polygon fill="white" stroke="black" points="310,-49.5 310,-79.5 429,-79.5 429,-49.5 310,-49.5"/>
<text text-anchor="start" x="318" y="-67.5" font-family="Helvetica,sans-Serif" font-size="10.00">xtb_constrain_param</text>
<text text-anchor="middle" x="369.5" y="-56.5" font-family="Helvetica,sans-Serif" font-size="10.00">::set_split</text>
</a>
</g>
</g>
<!-- Node1&#45;&gt;Node2 -->
<g id="edge1" class="edge">
<title>Node1&#45;&gt;Node2</title>
<path fill="none" stroke="midnightblue" d="M459.29,-50.58C449.26,-52.16 439.02,-53.76 429.24,-55.29"/>
<polygon fill="midnightblue" stroke="midnightblue" points="459.91,-54.03 469.24,-49.02 458.82,-47.11 459.91,-54.03"/>
</g>
<!-- Node5 -->
<g id="node5" class="node">
<title>Node5</title>
<g id="a_node5"><a xlink:href="namespacextb__constrain__param.html#a43f8eb7470e6a1494294074635c99e94" target="_top" xlink:title=" ">
<polygon fill="white" stroke="black" points="310,-0.5 310,-30.5 429,-30.5 429,-0.5 310,-0.5"/>
<text text-anchor="start" x="318" y="-18.5" font-family="Helvetica,sans-Serif" font-size="10.00">xtb_constrain_param</text>
<text text-anchor="middle" x="369.5" y="-7.5" font-family="Helvetica,sans-Serif" font-size="10.00">::set_wall</text>
</a>
</g>
</g>
<!-- Node1&#45;&gt;Node5 -->
<g id="edge5" class="edge">
<title>Node1&#45;&gt;Node5</title>
<path fill="none" stroke="midnightblue" d="M456.58,-28.45C447.38,-27.07 438.06,-25.67 429.12,-24.32"/>
<polygon fill="midnightblue" stroke="midnightblue" points="456.09,-31.92 466.5,-29.95 457.14,-25 456.09,-31.92"/>
</g>
<!-- Node3 -->
<g id="node3" class="node">
<title>Node3</title>
<g id="a_node3"><a xlink:href="namespacextb__constrain__param.html#ad84b3d616937ffe722a0b7c064a1f3df" target="_top" xlink:title=" ">
<polygon fill="white" stroke="black" points="0,-25.5 0,-55.5 119,-55.5 119,-25.5 0,-25.5"/>
<text text-anchor="start" x="8" y="-43.5" font-family="Helvetica,sans-Serif" font-size="10.00">xtb_constrain_param</text>
<text text-anchor="middle" x="59.5" y="-32.5" font-family="Helvetica,sans-Serif" font-size="10.00">::read_userdata</text>
</a>
</g>
</g>
<!-- Node2&#45;&gt;Node3 -->
<g id="edge2" class="edge">
<title>Node2&#45;&gt;Node3</title>
<path fill="none" stroke="midnightblue" d="M299.67,-69.47C257.7,-71.35 203.05,-71.75 155,-65.5 139.35,-63.46 122.6,-59.61 107.61,-55.52"/>
<polygon fill="midnightblue" stroke="midnightblue" points="299.97,-72.96 309.79,-68.98 299.63,-65.97 299.97,-72.96"/>
</g>
<!-- Node4 -->
<g id="node4" class="node">
<title>Node4</title>
<g id="a_node4"><a xlink:href="namespacextb__constrain__param.html#a3b378166df878393b40454007360051e" target="_top" xlink:title=" ">
<polygon fill="white" stroke="black" points="155,-25.5 155,-55.5 274,-55.5 274,-25.5 155,-25.5"/>
<text text-anchor="start" x="163" y="-43.5" font-family="Helvetica,sans-Serif" font-size="10.00">xtb_constrain_param</text>
<text text-anchor="middle" x="214.5" y="-32.5" font-family="Helvetica,sans-Serif" font-size="10.00">::set_legacy</text>
</a>
</g>
</g>
<!-- Node2&#45;&gt;Node4 -->
<g id="edge3" class="edge">
<title>Node2&#45;&gt;Node4</title>
<path fill="none" stroke="midnightblue" d="M299.79,-53.72C291.2,-52.37 282.47,-51.01 274.06,-49.69"/>
<polygon fill="midnightblue" stroke="midnightblue" points="299.36,-57.2 309.78,-55.29 300.45,-50.28 299.36,-57.2"/>
</g>
<!-- Node4&#45;&gt;Node3 -->
<g id="edge4" class="edge">
<title>Node4&#45;&gt;Node3</title>
<path fill="none" stroke="midnightblue" d="M144.51,-40.5C136.01,-40.5 127.38,-40.5 119.06,-40.5"/>
<polygon fill="midnightblue" stroke="midnightblue" points="144.78,-44 154.78,-40.5 144.78,-37 144.78,-44"/>
</g>
<!-- Node5&#45;&gt;Node3 -->
<g id="edge6" class="edge">
<title>Node5&#45;&gt;Node3</title>
<path fill="none" stroke="midnightblue" d="M299.67,-11.01C257.7,-9.38 203.05,-9.25 155,-15.5 139.35,-17.54 122.6,-21.39 107.61,-25.48"/>
<polygon fill="midnightblue" stroke="midnightblue" points="299.65,-14.51 309.79,-11.44 299.95,-7.52 299.65,-14.51"/>
</g>
<!-- Node5&#45;&gt;Node4 -->
<g id="edge7" class="edge">
<title>Node5&#45;&gt;Node4</title>
<path fill="none" stroke="midnightblue" d="M299.79,-26.73C291.2,-28.13 282.47,-29.56 274.06,-30.93"/>
<polygon fill="midnightblue" stroke="midnightblue" points="300.48,-30.16 309.78,-25.09 299.35,-23.25 300.48,-30.16"/>
</g>
</g>
</svg>
