<?xml version="1.0" encoding="UTF-8" standalone="no"?>
<!DOCTYPE svg PUBLIC "-//W3C//DTD SVG 1.1//EN"
 "http://www.w3.org/Graphics/SVG/1.1/DTD/svg11.dtd">
<!-- Generated by graphviz version 2.43.0 (0)
 -->
<!-- Title: xtb_gfnff_ini2::hbonds Pages: 1 -->
<!--zoomable 557 -->
<svg id="main" version="1.1" xmlns="http://www.w3.org/2000/svg" xmlns:xlink="http://www.w3.org/1999/xlink" xml:space="preserve" onload="init(evt)">
<style type="text/css"><![CDATA[
.edge:hover path { stroke: red; }
.edge:hover polygon { stroke: red; fill: red; }
]]></style>
<script type="text/javascript"><![CDATA[
var edges = document.getElementsByTagName('g');
if (edges && edges.length) {
  for (var i=0;i<edges.length;i++) {
    if (edges[i].id.substr(0,4)=='edge') {
      edges[i].setAttribute('class','edge');
    }
  }
}
]]></script>
        <defs>
                <circle id="rim" cx="0" cy="0" r="7"/>
                <circle id="rim2" cx="0" cy="0" r="3.5"/>
                <g id="zoomPlus">
                        <use xlink:href="#rim" fill="#404040">
                                <set attributeName="fill" to="#808080" begin="zoomplus.mouseover" end="zoomplus.mouseout"/>
                        </use>
                        <path d="M-4,0h8M0,-4v8" fill="none" stroke="white" stroke-width="1.5" pointer-events="none"/>
                </g>
                <g id="zoomMin">
                        <use xlink:href="#rim" fill="#404040">
                                <set attributeName="fill" to="#808080" begin="zoomminus.mouseover" end="zoomminus.mouseout"/>
                        </use>
                        <path d="M-4,0h8" fill="none" stroke="white" stroke-width="1.5" pointer-events="none"/>
                </g>
                <g id="dirArrow">
                        <path fill="none" stroke="white" stroke-width="1.5" d="M0,-3.0v7 M-2.5,-0.5L0,-3.0L2.5,-0.5"/>
                </g>
               <g id="resetDef">
                       <use xlink:href="#rim2" fill="#404040">
                               <set attributeName="fill" to="#808080" begin="reset.mouseover" end="reset.mouseout"/>
                       </use>
               </g>
        </defs>

<script type="text/javascript">
var viewWidth = 1037;
var viewHeight = 557;
var sectionId = 'dynsection-30';
</script>
<script xlink:href="svgpan.js"/>
<svg id="graph" class="graph">
<g id="viewport">
<title>xtb_gfnff_ini2::hbonds</title>
<polygon fill="white" stroke="transparent" points="-4,4 -4,-552.5 1033,-552.5 1033,4 -4,4"/>
<!-- Node1 -->
<g id="node1" class="node">
<title>Node1</title>
<g id="a_node1"><a xlink:title=" ">
<polygon fill="#bfbfbf" stroke="black" points="904,-392 904,-411 1029,-411 1029,-392 904,-392"/>
<text text-anchor="middle" x="966.5" y="-399" font-family="Helvetica,sans-Serif" font-size="10.00">xtb_gfnff_ini2::hbonds</text>
</a>
</g>
</g>
<!-- Node2 -->
<g id="node2" class="node">
<title>Node2</title>
<g id="a_node2"><a xlink:href="namespacextb__gfnff__eg.html#af80393ac2da32d61ada364ffd44b22dd" target="_top" xlink:title=" ">
<polygon fill="white" stroke="black" points="721,-529 721,-548 868,-548 868,-529 721,-529"/>
<text text-anchor="middle" x="794.5" y="-536" font-family="Helvetica,sans-Serif" font-size="10.00">xtb_gfnff_eg::abhgfnff_eg1</text>
</a>
</g>
</g>
<!-- Node1&#45;&gt;Node2 -->
<g id="edge1" class="edge">
<title>Node1&#45;&gt;Node2</title>
<path fill="none" stroke="midnightblue" d="M955.26,-420.1C939.83,-446.35 908.12,-493.88 868,-519.5 861.97,-523.35 855.18,-526.43 848.24,-528.88"/>
<polygon fill="midnightblue" stroke="midnightblue" points="958.43,-421.6 960.35,-411.18 952.35,-418.13 958.43,-421.6"/>
</g>
<!-- Node7 -->
<g id="node7" class="node">
<title>Node7</title>
<g id="a_node7"><a xlink:href="namespacextb__gfnff__eg.html#a39c28cdf9ae25796ad5d5e19706c03ab" target="_top" xlink:title=" ">
<polygon fill="white" stroke="black" points="732.5,-479.5 732.5,-509.5 856.5,-509.5 856.5,-479.5 732.5,-479.5"/>
<text text-anchor="start" x="740.5" y="-497.5" font-family="Helvetica,sans-Serif" font-size="10.00">xtb_gfnff_eg::abhgfnff</text>
<text text-anchor="middle" x="794.5" y="-486.5" font-family="Helvetica,sans-Serif" font-size="10.00">_eg2_rnr</text>
</a>
</g>
</g>
<!-- Node1&#45;&gt;Node7 -->
<g id="edge6" class="edge">
<title>Node1&#45;&gt;Node7</title>
<path fill="none" stroke="midnightblue" d="M946.37,-417.65C927.46,-432.96 897.21,-455.74 868,-470.5 861.49,-473.79 854.43,-476.77 847.36,-479.43"/>
<polygon fill="midnightblue" stroke="midnightblue" points="948.71,-420.25 954.21,-411.2 944.27,-414.85 948.71,-420.25"/>
</g>
<!-- Node8 -->
<g id="node8" class="node">
<title>Node8</title>
<g id="a_node8"><a xlink:href="namespacextb__gfnff__eg.html#a80f04be76c597dabcefe29355aa62ec4" target="_top" xlink:title=" ">
<polygon fill="white" stroke="black" points="732.5,-430.5 732.5,-460.5 856.5,-460.5 856.5,-430.5 732.5,-430.5"/>
<text text-anchor="start" x="740.5" y="-448.5" font-family="Helvetica,sans-Serif" font-size="10.00">xtb_gfnff_eg::abhgfnff</text>
<text text-anchor="middle" x="794.5" y="-437.5" font-family="Helvetica,sans-Serif" font-size="10.00">_eg2new</text>
</a>
</g>
</g>
<!-- Node1&#45;&gt;Node8 -->
<g id="edge8" class="edge">
<title>Node1&#45;&gt;Node8</title>
<path fill="none" stroke="midnightblue" d="M918.76,-413.6C898.65,-418.8 874.94,-424.94 853.71,-430.43"/>
<polygon fill="midnightblue" stroke="midnightblue" points="919.81,-416.94 928.61,-411.05 918.05,-410.16 919.81,-416.94"/>
</g>
<!-- Node9 -->
<g id="node9" class="node">
<title>Node9</title>
<g id="a_node9"><a xlink:href="namespacextb__gfnff__eg.html#ac21efbb550b6edae8c66215658f3e721" target="_top" xlink:title=" ">
<polygon fill="white" stroke="black" points="721,-392 721,-411 868,-411 868,-392 721,-392"/>
<text text-anchor="middle" x="794.5" y="-399" font-family="Helvetica,sans-Serif" font-size="10.00">xtb_gfnff_eg::abhgfnff_eg3</text>
</a>
</g>
</g>
<!-- Node1&#45;&gt;Node9 -->
<g id="edge10" class="edge">
<title>Node1&#45;&gt;Node9</title>
<path fill="none" stroke="midnightblue" d="M893.55,-401.5C885.19,-401.5 876.66,-401.5 868.28,-401.5"/>
<polygon fill="midnightblue" stroke="midnightblue" points="893.65,-405 903.65,-401.5 893.65,-398 893.65,-405"/>
</g>
<!-- Node10 -->
<g id="node10" class="node">
<title>Node10</title>
<g id="a_node10"><a xlink:href="namespacextb__gfnff__eg.html#a249f6d9c62394b50a1f8cca4389819c3" target="_top" xlink:title=" ">
<polygon fill="white" stroke="black" points="732.5,-342.5 732.5,-372.5 856.5,-372.5 856.5,-342.5 732.5,-342.5"/>
<text text-anchor="start" x="740.5" y="-360.5" font-family="Helvetica,sans-Serif" font-size="10.00">xtb_gfnff_eg::abhgfnff</text>
<text text-anchor="middle" x="794.5" y="-349.5" font-family="Helvetica,sans-Serif" font-size="10.00">_eg3_add</text>
</a>
</g>
</g>
<!-- Node1&#45;&gt;Node10 -->
<g id="edge12" class="edge">
<title>Node1&#45;&gt;Node10</title>
<path fill="none" stroke="midnightblue" d="M918.76,-389.4C898.65,-384.2 874.94,-378.06 853.71,-372.57"/>
<polygon fill="midnightblue" stroke="midnightblue" points="918.05,-392.84 928.61,-391.95 919.81,-386.06 918.05,-392.84"/>
</g>
<!-- Node11 -->
<g id="node11" class="node">
<title>Node11</title>
<g id="a_node11"><a xlink:href="namespacextb__gfnff__eg.html#a96f44d5568fa1a8f5911e6c4534b33a1" target="_top" xlink:title=" ">
<polygon fill="white" stroke="black" points="732.5,-293.5 732.5,-323.5 856.5,-323.5 856.5,-293.5 732.5,-293.5"/>
<text text-anchor="start" x="740.5" y="-311.5" font-family="Helvetica,sans-Serif" font-size="10.00">xtb_gfnff_eg::abhgfnff</text>
<text text-anchor="middle" x="794.5" y="-300.5" font-family="Helvetica,sans-Serif" font-size="10.00">_eg3_mul</text>
</a>
</g>
</g>
<!-- Node1&#45;&gt;Node11 -->
<g id="edge13" class="edge">
<title>Node1&#45;&gt;Node11</title>
<path fill="none" stroke="midnightblue" d="M946.37,-385.35C927.46,-370.04 897.21,-347.26 868,-332.5 861.49,-329.21 854.43,-326.23 847.36,-323.57"/>
<polygon fill="midnightblue" stroke="midnightblue" points="944.27,-388.15 954.21,-391.8 948.71,-382.75 944.27,-388.15"/>
</g>
<!-- Node12 -->
<g id="node12" class="node">
<title>Node12</title>
<g id="a_node12"><a xlink:href="namespacextb__gfnff__ini.html#ad57146d4119080bb244e8f19309414b5" target="_top" xlink:title=" ">
<polygon fill="white" stroke="black" points="733,-255 733,-274 856,-274 856,-255 733,-255"/>
<text text-anchor="middle" x="794.5" y="-262" font-family="Helvetica,sans-Serif" font-size="10.00">xtb_gfnff_ini::gfnff_ini</text>
</a>
</g>
</g>
<!-- Node1&#45;&gt;Node12 -->
<g id="edge14" class="edge">
<title>Node1&#45;&gt;Node12</title>
<path fill="none" stroke="midnightblue" d="M955.26,-382.9C939.83,-356.65 908.12,-309.12 868,-283.5 861.97,-279.65 855.18,-276.57 848.24,-274.12"/>
<polygon fill="midnightblue" stroke="midnightblue" points="952.35,-384.87 960.35,-391.82 958.43,-381.4 952.35,-384.87"/>
</g>
<!-- Node3 -->
<g id="node3" class="node">
<title>Node3</title>
<g id="a_node3"><a xlink:href="namespacextb__gfnff__eg.html#a3c6317a91da8d6eb6e333fdb8ee1f3d9" target="_top" xlink:title=" ">
<polygon fill="white" stroke="black" points="562,-481 562,-500 685,-500 685,-481 562,-481"/>
<text text-anchor="middle" x="623.5" y="-488" font-family="Helvetica,sans-Serif" font-size="10.00">xtb_gfnff_eg::gfnff_eg</text>
</a>
</g>
</g>
<!-- Node2&#45;&gt;Node3 -->
<g id="edge2" class="edge">
<title>Node2&#45;&gt;Node3</title>
<path fill="none" stroke="midnightblue" d="M746.4,-526.42C737.93,-524.17 729.19,-521.8 721,-519.5 698.94,-513.3 674.19,-505.85 655.27,-500.05"/>
<polygon fill="midnightblue" stroke="midnightblue" points="745.61,-529.83 756.18,-528.99 747.4,-523.06 745.61,-529.83"/>
</g>
<!-- Node4 -->
<g id="node4" class="node">
<title>Node4</title>
<g id="a_node4"><a xlink:href="namespacextb__gfnff__calculator.html#a8775e737196933e41e48728956ddf782" target="_top" xlink:title=" ">
<polygon fill="white" stroke="black" points="378.5,-515.5 378.5,-545.5 491.5,-545.5 491.5,-515.5 378.5,-515.5"/>
<text text-anchor="start" x="386.5" y="-533.5" font-family="Helvetica,sans-Serif" font-size="10.00">xtb_gfnff_calculator</text>
<text text-anchor="middle" x="435" y="-522.5" font-family="Helvetica,sans-Serif" font-size="10.00">::singlepoint</text>
</a>
</g>
</g>
<!-- Node3&#45;&gt;Node4 -->
<g id="edge3" class="edge">
<title>Node3&#45;&gt;Node4</title>
<path fill="none" stroke="midnightblue" d="M567.83,-502.23C543.85,-507.37 515.74,-513.4 491.66,-518.56"/>
<polygon fill="midnightblue" stroke="midnightblue" points="568.78,-505.6 577.83,-500.08 567.32,-498.76 568.78,-505.6"/>
</g>
<!-- Node5 -->
<g id="node5" class="node">
<title>Node5</title>
<g id="a_node5"><a xlink:href="gfnff_8f90.html#a3debb77ee35e9cf115d69ef59490c6c5" target="_top" xlink:title=" ">
<polygon fill="white" stroke="black" points="183.5,-477 183.5,-496 263.5,-496 263.5,-477 183.5,-477"/>
<text text-anchor="middle" x="223.5" y="-484" font-family="Helvetica,sans-Serif" font-size="10.00">test_gfnff_sp</text>
</a>
</g>
</g>
<!-- Node3&#45;&gt;Node5 -->
<g id="edge4" class="edge">
<title>Node3&#45;&gt;Node5</title>
<path fill="none" stroke="midnightblue" d="M551.39,-489.79C467.33,-488.94 330.47,-487.56 263.67,-486.89"/>
<polygon fill="midnightblue" stroke="midnightblue" points="551.58,-493.29 561.62,-489.89 551.65,-486.29 551.58,-493.29"/>
</g>
<!-- Node6 -->
<g id="node6" class="node">
<title>Node6</title>
<g id="a_node6"><a xlink:href="tests__peeq_8f90.html#a87ff5319e0d2e627a4f71d7df0d14891" target="_top" xlink:title=" ">
<polygon fill="white" stroke="black" points="14.5,-194 14.5,-213 88.5,-213 88.5,-194 14.5,-194"/>
<text text-anchor="middle" x="51.5" y="-201" font-family="Helvetica,sans-Serif" font-size="10.00">peeq_tester</text>
</a>
</g>
</g>
<!-- Node5&#45;&gt;Node6 -->
<g id="edge5" class="edge">
<title>Node5&#45;&gt;Node6</title>
<path fill="none" stroke="midnightblue" d="M173.44,-483.89C160.98,-481.08 148.45,-476.11 139,-467.5 60.39,-395.87 53.02,-251.78 52.49,-213.19"/>
<polygon fill="midnightblue" stroke="midnightblue" points="172.91,-487.34 183.37,-485.7 174.16,-480.46 172.91,-487.34"/>
</g>
<!-- Node7&#45;&gt;Node3 -->
<g id="edge7" class="edge">
<title>Node7&#45;&gt;Node3</title>
<path fill="none" stroke="midnightblue" d="M722.23,-492.81C709.89,-492.52 697.17,-492.22 685.14,-491.94"/>
<polygon fill="midnightblue" stroke="midnightblue" points="722.41,-496.32 732.49,-493.06 722.57,-489.32 722.41,-496.32"/>
</g>
<!-- Node8&#45;&gt;Node3 -->
<g id="edge9" class="edge">
<title>Node8&#45;&gt;Node3</title>
<path fill="none" stroke="midnightblue" d="M726.8,-463.26C704.06,-469.31 679.52,-475.85 660.18,-481"/>
<polygon fill="midnightblue" stroke="midnightblue" points="727.99,-466.56 736.76,-460.61 726.19,-459.8 727.99,-466.56"/>
</g>
<!-- Node9&#45;&gt;Node3 -->
<g id="edge11" class="edge">
<title>Node9&#45;&gt;Node3</title>
<path fill="none" stroke="midnightblue" d="M739.36,-414.15C733.05,-416.29 726.8,-418.73 721,-421.5 686.98,-437.72 652.29,-466.01 635.27,-480.83"/>
<polygon fill="midnightblue" stroke="midnightblue" points="740.79,-417.37 749.28,-411.03 738.69,-410.7 740.79,-417.37"/>
</g>
<!-- Node13 -->
<g id="node13" class="node">
<title>Node13</title>
<g id="a_node13"><a xlink:href="namespacextb__gfnff__setup.html#a4aeb50102462398d4f57781b1c421257" target="_top" xlink:title=" ">
<polygon fill="white" stroke="black" points="563,-249.5 563,-279.5 684,-279.5 684,-249.5 563,-249.5"/>
<text text-anchor="start" x="571" y="-267.5" font-family="Helvetica,sans-Serif" font-size="10.00">xtb_gfnff_setup::gfnff</text>
<text text-anchor="middle" x="623.5" y="-256.5" font-family="Helvetica,sans-Serif" font-size="10.00">_setup</text>
</a>
</g>
</g>
<!-- Node12&#45;&gt;Node13 -->
<g id="edge15" class="edge">
<title>Node12&#45;&gt;Node13</title>
<path fill="none" stroke="midnightblue" d="M722.75,-264.5C709.88,-264.5 696.56,-264.5 684.05,-264.5"/>
<polygon fill="midnightblue" stroke="midnightblue" points="722.96,-268 732.96,-264.5 722.96,-261 722.96,-268"/>
</g>
<!-- Node14 -->
<g id="node14" class="node">
<title>Node14</title>
<g id="a_node14"><a xlink:href="namespacextb__main__setup.html#a01dff07fc5b7e8c442d7e62c00377fc4" target="_top" xlink:title=" ">
<polygon fill="white" stroke="black" points="344,-255 344,-274 526,-274 526,-255 344,-255"/>
<text text-anchor="middle" x="435" y="-262" font-family="Helvetica,sans-Serif" font-size="10.00">xtb_main_setup::newgffcalculator</text>
</a>
</g>
</g>
<!-- Node13&#45;&gt;Node14 -->
<g id="edge16" class="edge">
<title>Node13&#45;&gt;Node14</title>
<path fill="none" stroke="midnightblue" d="M552.91,-264.5C544.2,-264.5 535.19,-264.5 526.23,-264.5"/>
<polygon fill="midnightblue" stroke="midnightblue" points="552.98,-268 562.98,-264.5 552.98,-261 552.98,-268"/>
</g>
<!-- Node14&#45;&gt;Node5 -->
<g id="edge34" class="edge">
<title>Node14&#45;&gt;Node5</title>
<path fill="none" stroke="midnightblue" d="M427.88,-283.52C413.78,-324.18 374.96,-419.74 308,-467.5 295.17,-476.65 278.65,-481.48 263.69,-484"/>
<polygon fill="midnightblue" stroke="midnightblue" points="431.21,-284.6 431.08,-274.01 424.58,-282.38 431.21,-284.6"/>
</g>
<!-- Node15 -->
<g id="node15" class="node">
<title>Node15</title>
<g id="a_node15"><a xlink:href="namespacextb__api__calculator.html#a6d6689e12fc963d1bc325f687a8d7d5d" target="_top" xlink:title=" ">
<polygon fill="white" stroke="black" points="170.5,-427.5 170.5,-457.5 276.5,-457.5 276.5,-427.5 170.5,-427.5"/>
<text text-anchor="start" x="178.5" y="-445.5" font-family="Helvetica,sans-Serif" font-size="10.00">xtb_api_calculator</text>
<text text-anchor="middle" x="223.5" y="-434.5" font-family="Helvetica,sans-Serif" font-size="10.00">::loadgfnff_api</text>
</a>
</g>
</g>
<!-- Node14&#45;&gt;Node15 -->
<g id="edge17" class="edge">
<title>Node14&#45;&gt;Node15</title>
<path fill="none" stroke="midnightblue" d="M423.88,-282.85C405.22,-314.98 362.29,-381.43 308,-417.5 298.55,-423.78 287.47,-428.53 276.52,-432.1"/>
<polygon fill="midnightblue" stroke="midnightblue" points="426.98,-284.48 428.88,-274.05 420.89,-281.02 426.98,-284.48"/>
</g>
<!-- Node16 -->
<g id="node16" class="node">
<title>Node16</title>
<g id="a_node16"><a xlink:href="namespacextb__main__setup.html#a2873ec6fc259dc1f93f4c74d34501d91" target="_top" xlink:title=" ">
<polygon fill="white" stroke="black" points="139,-389 139,-408 308,-408 308,-389 139,-389"/>
<text text-anchor="middle" x="223.5" y="-396" font-family="Helvetica,sans-Serif" font-size="10.00">xtb_main_setup::newcalculator</text>
</a>
</g>
</g>
<!-- Node14&#45;&gt;Node16 -->
<g id="edge18" class="edge">
<title>Node14&#45;&gt;Node16</title>
<path fill="none" stroke="midnightblue" d="M419.91,-281.88C398.46,-307.13 355.12,-353.65 308,-378.5 299.82,-382.81 290.71,-386.21 281.59,-388.88"/>
<polygon fill="midnightblue" stroke="midnightblue" points="422.6,-284.12 426.31,-274.2 417.22,-279.64 422.6,-284.12"/>
</g>
<!-- Node17 -->
<g id="node17" class="node">
<title>Node17</title>
<g id="a_node17"><a xlink:href="namespacextb__gfnff__convert.html#adf399b47b9f2a8364327d9d5c38cb2b8" target="_top" xlink:title=" ">
<polygon fill="white" stroke="black" points="169.5,-339.5 169.5,-369.5 277.5,-369.5 277.5,-339.5 169.5,-339.5"/>
<text text-anchor="start" x="177.5" y="-357.5" font-family="Helvetica,sans-Serif" font-size="10.00">xtb_gfnff_convert::</text>
<text text-anchor="middle" x="223.5" y="-346.5" font-family="Helvetica,sans-Serif" font-size="10.00">struc_convert</text>
</a>
</g>
</g>
<!-- Node14&#45;&gt;Node17 -->
<g id="edge19" class="edge">
<title>Node14&#45;&gt;Node17</title>
<path fill="none" stroke="midnightblue" d="M408.94,-279.19C383.97,-293.4 344.23,-314.88 308,-329.5 298.32,-333.41 287.79,-337.03 277.57,-340.22"/>
<polygon fill="midnightblue" stroke="midnightblue" points="410.82,-282.15 417.75,-274.13 407.33,-276.08 410.82,-282.15"/>
</g>
<!-- Node18 -->
<g id="node18" class="node">
<title>Node18</title>
<g id="a_node18"><a xlink:href="gfnff_8f90.html#a37a3363fde733941b6467279048767fb" target="_top" xlink:title=" ">
<polygon fill="white" stroke="black" points="177.5,-301 177.5,-320 269.5,-320 269.5,-301 177.5,-301"/>
<text text-anchor="middle" x="223.5" y="-308" font-family="Helvetica,sans-Serif" font-size="10.00">test_gfnff_gbsa</text>
</a>
</g>
</g>
<!-- Node14&#45;&gt;Node18 -->
<g id="edge20" class="edge">
<title>Node14&#45;&gt;Node18</title>
<path fill="none" stroke="midnightblue" d="M380.56,-276.23C345.62,-283.91 300.56,-293.8 267.85,-300.98"/>
<polygon fill="midnightblue" stroke="midnightblue" points="381.57,-279.59 390.59,-274.03 380.07,-272.76 381.57,-279.59"/>
</g>
<!-- Node19 -->
<g id="node19" class="node">
<title>Node19</title>
<g id="a_node19"><a xlink:href="gfnff_8f90.html#a1537c4a10909349e4a2fd085248fc0cb" target="_top" xlink:title=" ">
<polygon fill="white" stroke="black" points="183.5,-263 183.5,-282 263.5,-282 263.5,-263 183.5,-263"/>
<text text-anchor="middle" x="223.5" y="-270" font-family="Helvetica,sans-Serif" font-size="10.00">test_gfnff_hb</text>
</a>
</g>
</g>
<!-- Node14&#45;&gt;Node19 -->
<g id="edge22" class="edge">
<title>Node14&#45;&gt;Node19</title>
<path fill="none" stroke="midnightblue" d="M333.7,-268.33C308.84,-269.28 283.64,-270.24 263.73,-271"/>
<polygon fill="midnightblue" stroke="midnightblue" points="334.08,-271.82 343.94,-267.94 333.81,-264.82 334.08,-271.82"/>
</g>
<!-- Node20 -->
<g id="node20" class="node">
<title>Node20</title>
<g id="a_node20"><a xlink:href="gfnff_8f90.html#a99d4eefcd1d33ae189dc8ce62bb94464" target="_top" xlink:title=" ">
<polygon fill="white" stroke="black" points="167,-213.5 167,-243.5 280,-243.5 280,-213.5 167,-213.5"/>
<text text-anchor="start" x="175" y="-231.5" font-family="Helvetica,sans-Serif" font-size="10.00">test_gfnff_mindless</text>
<text text-anchor="middle" x="223.5" y="-220.5" font-family="Helvetica,sans-Serif" font-size="10.00">_basic</text>
</a>
</g>
</g>
<!-- Node14&#45;&gt;Node20 -->
<g id="edge24" class="edge">
<title>Node14&#45;&gt;Node20</title>
<path fill="none" stroke="midnightblue" d="M368.46,-253.24C340.1,-248.37 307.27,-242.72 280.13,-238.06"/>
<polygon fill="midnightblue" stroke="midnightblue" points="368.23,-256.75 378.68,-254.99 369.42,-249.85 368.23,-256.75"/>
</g>
<!-- Node21 -->
<g id="node21" class="node">
<title>Node21</title>
<g id="a_node21"><a xlink:href="gfnff_8f90.html#a0e92e95bfacd9d1eead0f4b7059859b2" target="_top" xlink:title=" ">
<polygon fill="white" stroke="black" points="167,-164.5 167,-194.5 280,-194.5 280,-164.5 167,-164.5"/>
<text text-anchor="start" x="175" y="-182.5" font-family="Helvetica,sans-Serif" font-size="10.00">test_gfnff_mindless</text>
<text text-anchor="middle" x="223.5" y="-171.5" font-family="Helvetica,sans-Serif" font-size="10.00">_solvation</text>
</a>
</g>
</g>
<!-- Node14&#45;&gt;Node21 -->
<g id="edge26" class="edge">
<title>Node14&#45;&gt;Node21</title>
<path fill="none" stroke="midnightblue" d="M407.58,-250.07C382.48,-236.75 343.43,-217.05 308,-203.5 299.12,-200.1 289.56,-196.93 280.18,-194.07"/>
<polygon fill="midnightblue" stroke="midnightblue" points="406.01,-253.2 416.48,-254.83 409.32,-247.02 406.01,-253.2"/>
</g>
<!-- Node22 -->
<g id="node22" class="node">
<title>Node22</title>
<g id="a_node22"><a xlink:href="gfnff_8f90.html#a3524b271100f047e2d666a7567eb379a" target="_top" xlink:title=" ">
<polygon fill="white" stroke="black" points="180.5,-126 180.5,-145 266.5,-145 266.5,-126 180.5,-126"/>
<text text-anchor="middle" x="223.5" y="-133" font-family="Helvetica,sans-Serif" font-size="10.00">test_gfnff_pdb</text>
</a>
</g>
</g>
<!-- Node14&#45;&gt;Node22 -->
<g id="edge28" class="edge">
<title>Node14&#45;&gt;Node22</title>
<path fill="none" stroke="midnightblue" d="M419.2,-246.99C397.42,-222.41 354.3,-178.06 308,-154.5 295.28,-148.03 280.36,-143.74 266.67,-140.9"/>
<polygon fill="midnightblue" stroke="midnightblue" points="416.78,-249.54 425.98,-254.79 422.06,-244.95 416.78,-249.54"/>
</g>
<!-- Node23 -->
<g id="node23" class="node">
<title>Node23</title>
<g id="a_node23"><a xlink:href="gfnff_8f90.html#a191f0af42b3874a93555aee466e8bc8c" target="_top" xlink:title=" ">
<polygon fill="white" stroke="black" points="170.5,-88 170.5,-107 276.5,-107 276.5,-88 170.5,-88"/>
<text text-anchor="middle" x="223.5" y="-95" font-family="Helvetica,sans-Serif" font-size="10.00">test_gfnff_scaleup</text>
</a>
</g>
</g>
<!-- Node14&#45;&gt;Node23 -->
<g id="edge30" class="edge">
<title>Node14&#45;&gt;Node23</title>
<path fill="none" stroke="midnightblue" d="M423.69,-245.93C405.01,-214.12 362.41,-149.46 308,-116.5 298.59,-110.8 287.64,-106.81 276.83,-104.01"/>
<polygon fill="midnightblue" stroke="midnightblue" points="420.69,-247.74 428.7,-254.68 426.76,-244.26 420.69,-247.74"/>
</g>
<!-- Node24 -->
<g id="node24" class="node">
<title>Node24</title>
<g id="a_node24"><a xlink:href="gfnff_8f90.html#a63adb2c49c27ebcfcd6ea49fe8259b80" target="_top" xlink:title=" ">
<polygon fill="white" stroke="black" points="182,-50 182,-69 265,-69 265,-50 182,-50"/>
<text text-anchor="middle" x="223.5" y="-57" font-family="Helvetica,sans-Serif" font-size="10.00">test_gfnff_sdf</text>
</a>
</g>
</g>
<!-- Node14&#45;&gt;Node24 -->
<g id="edge32" class="edge">
<title>Node14&#45;&gt;Node24</title>
<path fill="none" stroke="midnightblue" d="M426.79,-245.52C411.28,-207.41 370.99,-121.55 308,-78.5 295.48,-69.94 279.68,-65.19 265.2,-62.56"/>
<polygon fill="midnightblue" stroke="midnightblue" points="423.57,-246.91 430.5,-254.93 430.09,-244.34 423.57,-246.91"/>
</g>
<!-- Node25 -->
<g id="node25" class="node">
<title>Node25</title>
<g id="a_node25"><a xlink:href="namespacextb__prog__topology.html#aa263269ef9a32674220b4f1bfda0c066" target="_top" xlink:title="Main program of the topology submodule.">
<polygon fill="white" stroke="black" points="167,-0.5 167,-30.5 280,-30.5 280,-0.5 167,-0.5"/>
<text text-anchor="start" x="175" y="-18.5" font-family="Helvetica,sans-Serif" font-size="10.00">xtb_prog_topology::</text>
<text text-anchor="middle" x="223.5" y="-7.5" font-family="Helvetica,sans-Serif" font-size="10.00">xtbtopology</text>
</a>
</g>
</g>
<!-- Node14&#45;&gt;Node25 -->
<g id="edge35" class="edge">
<title>Node14&#45;&gt;Node25</title>
<path fill="none" stroke="midnightblue" d="M428.56,-245.07C415.41,-201.65 377.7,-96.25 308,-40.5 299.85,-33.98 290.02,-29.16 280.02,-25.59"/>
<polygon fill="midnightblue" stroke="midnightblue" points="425.21,-246.08 431.38,-254.7 431.93,-244.12 425.21,-246.08"/>
</g>
<!-- Node18&#45;&gt;Node6 -->
<g id="edge21" class="edge">
<title>Node18&#45;&gt;Node6</title>
<path fill="none" stroke="midnightblue" d="M167.61,-302.72C157.71,-300.02 147.76,-296.39 139,-291.5 102.89,-271.36 72.06,-231.57 59.08,-213.21"/>
<polygon fill="midnightblue" stroke="midnightblue" points="166.9,-306.15 177.44,-305.12 168.56,-299.35 166.9,-306.15"/>
</g>
<!-- Node19&#45;&gt;Node6 -->
<g id="edge23" class="edge">
<title>Node19&#45;&gt;Node6</title>
<path fill="none" stroke="midnightblue" d="M173.27,-263.13C161.83,-260.29 149.83,-256.77 139,-252.5 112.02,-241.87 83.2,-224.09 66.57,-213.12"/>
<polygon fill="midnightblue" stroke="midnightblue" points="172.61,-266.57 183.14,-265.45 174.21,-259.76 172.61,-266.57"/>
</g>
<!-- Node20&#45;&gt;Node6 -->
<g id="edge25" class="edge">
<title>Node20&#45;&gt;Node6</title>
<path fill="none" stroke="midnightblue" d="M156.73,-218.83C133.63,-215.43 108.52,-211.74 88.74,-208.83"/>
<polygon fill="midnightblue" stroke="midnightblue" points="156.43,-222.32 166.84,-220.31 157.45,-215.4 156.43,-222.32"/>
</g>
<!-- Node21&#45;&gt;Node6 -->
<g id="edge27" class="edge">
<title>Node21&#45;&gt;Node6</title>
<path fill="none" stroke="midnightblue" d="M156.73,-188.78C133.63,-192.05 108.52,-195.59 88.74,-198.38"/>
<polygon fill="midnightblue" stroke="midnightblue" points="157.42,-192.22 166.84,-187.36 156.44,-185.29 157.42,-192.22"/>
</g>
<!-- Node22&#45;&gt;Node6 -->
<g id="edge29" class="edge">
<title>Node22&#45;&gt;Node6</title>
<path fill="none" stroke="midnightblue" d="M170.23,-144.93C159.72,-147.51 148.88,-150.67 139,-154.5 111.96,-164.97 83.16,-182.8 66.55,-193.82"/>
<polygon fill="midnightblue" stroke="midnightblue" points="171.21,-148.29 180.16,-142.63 169.63,-141.47 171.21,-148.29"/>
</g>
<!-- Node23&#45;&gt;Node6 -->
<g id="edge31" class="edge">
<title>Node23&#45;&gt;Node6</title>
<path fill="none" stroke="midnightblue" d="M160.83,-107.32C153.23,-109.74 145.77,-112.75 139,-116.5 103.04,-136.42 72.14,-175.76 59.1,-193.91"/>
<polygon fill="midnightblue" stroke="midnightblue" points="161.83,-110.68 170.49,-104.57 159.91,-103.95 161.83,-110.68"/>
</g>
<!-- Node24&#45;&gt;Node6 -->
<g id="edge33" class="edge">
<title>Node24&#45;&gt;Node6</title>
<path fill="none" stroke="midnightblue" d="M171.85,-64.76C160.37,-67.6 148.72,-71.93 139,-78.5 94.4,-108.66 65.95,-170.13 56.24,-193.86"/>
<polygon fill="midnightblue" stroke="midnightblue" points="172.79,-68.14 181.84,-62.63 171.33,-61.3 172.79,-68.14"/>
</g>
<!-- Node26 -->
<g id="node26" class="node">
<title>Node26</title>
<g id="a_node26"><a xlink:href="primary_8f90.html#a2a67903cf5be605c5b6d3c362c6a3c5c" target="_top" xlink:title="The primary driver for the xtb program package.">
<polygon fill="white" stroke="black" points="0,-6 0,-25 103,-25 103,-6 0,-6"/>
<text text-anchor="middle" x="51.5" y="-13" font-family="Helvetica,sans-Serif" font-size="10.00">xtb_prog_primary</text>
</a>
</g>
</g>
<!-- Node25&#45;&gt;Node26 -->
<g id="edge36" class="edge">
<title>Node25&#45;&gt;Node26</title>
<path fill="none" stroke="midnightblue" d="M156.55,-15.5C138.8,-15.5 119.88,-15.5 103.12,-15.5"/>
<polygon fill="midnightblue" stroke="midnightblue" points="156.84,-19 166.84,-15.5 156.84,-12 156.84,-19"/>
</g>
</g>
</svg>
        <g id="navigator" transform="translate(0 0)" fill="#404254">
                <rect fill="#f2f5e9" fill-opacity="0.5" stroke="#606060" stroke-width=".5" x="0" y="0" width="60" height="60"/>
                <use id="zoomplus" xlink:href="#zoomPlus" x="17" y="9" onmousedown="handleZoom(evt,'in')"/>
                <use id="zoomminus" xlink:href="#zoomMin" x="42" y="9" onmousedown="handleZoom(evt,'out')"/>
                <use id="reset" xlink:href="#resetDef" x="30" y="36" onmousedown="handleReset()"/>
                <g id="arrowUp" xlink:href="#dirArrow" transform="translate(30 24)" onmousedown="handlePan(0,-1)">
                  <use xlink:href="#rim" fill="#404040">
                        <set attributeName="fill" to="#808080" begin="arrowUp.mouseover" end="arrowUp.mouseout"/>
                  </use>
                  <path fill="none" stroke="white" stroke-width="1.5" d="M0,-3.0v7 M-2.5,-0.5L0,-3.0L2.5,-0.5"/>
                </g>
                <g id="arrowRight" xlink:href="#dirArrow" transform="rotate(90) translate(36 -43)" onmousedown="handlePan(1,0)">
                  <use xlink:href="#rim" fill="#404040">
                        <set attributeName="fill" to="#808080" begin="arrowRight.mouseover" end="arrowRight.mouseout"/>
                  </use>
                  <path fill="none" stroke="white" stroke-width="1.5" d="M0,-3.0v7 M-2.5,-0.5L0,-3.0L2.5,-0.5"/>
                </g>
                <g id="arrowDown" xlink:href="#dirArrow" transform="rotate(180) translate(-30 -48)" onmousedown="handlePan(0,1)">
                  <use xlink:href="#rim" fill="#404040">
                        <set attributeName="fill" to="#808080" begin="arrowDown.mouseover" end="arrowDown.mouseout"/>
                  </use>
                  <path fill="none" stroke="white" stroke-width="1.5" d="M0,-3.0v7 M-2.5,-0.5L0,-3.0L2.5,-0.5"/>
                </g>
                <g id="arrowLeft" xlink:href="#dirArrow" transform="rotate(270) translate(-36 17)" onmousedown="handlePan(-1,0)">
                  <use xlink:href="#rim" fill="#404040">
                        <set attributeName="fill" to="#808080" begin="arrowLeft.mouseover" end="arrowLeft.mouseout"/>
                  </use>
                  <path fill="none" stroke="white" stroke-width="1.5" d="M0,-3.0v7 M-2.5,-0.5L0,-3.0L2.5,-0.5"/>
                </g>
        </g>
        <svg viewBox="0 0 15 15" width="100%" height="30px" preserveAspectRatio="xMaxYMin meet">
         <g id="arrow_out" transform="scale(0.3 0.3)">
          <a xlink:href="namespacextb__gfnff__ini2_a68d1d020d0e7196fce23a88fac12e883_icgraph_org.svg" target="_base">
           <rect id="button" ry="5" rx="5" y="6" x="6" height="38" width="38"
                fill="#f2f5e9" fill-opacity="0.5" stroke="#606060" stroke-width="1.0"/>
           <path id="arrow"
             d="M 11.500037,31.436501 C 11.940474,20.09759 22.043105,11.32322 32.158766,21.979434 L 37.068811,17.246167 C 37.068811,17.246167 37.088388,32 37.088388,32 L 22.160133,31.978069 C 22.160133,31.978069 26.997745,27.140456 26.997745,27.140456 C 18.528582,18.264221 13.291696,25.230495 11.500037,31.436501 z"
             style="fill:#404040;"/>
          </a>
         </g>
        </svg>
</svg>
