<?xml version="1.0" encoding="UTF-8" standalone="no"?>
<!DOCTYPE svg PUBLIC "-//W3C//DTD SVG 1.1//EN"
 "http://www.w3.org/Graphics/SVG/1.1/DTD/svg11.dtd">
<!-- Generated by graphviz version 2.43.0 (0)
 -->
<!-- Title: xtb_cqpath::cqpath_damped_cube_spline Pages: 1 -->
<svg width="314pt" height="88pt"
 viewBox="0.00 0.00 314.00 88.00" xmlns="http://www.w3.org/2000/svg" xmlns:xlink="http://www.w3.org/1999/xlink">
<g id="graph0" class="graph" transform="scale(1 1) rotate(0) translate(4 84)">
<title>xtb_cqpath::cqpath_damped_cube_spline</title>
<polygon fill="white" stroke="transparent" points="-4,4 -4,-84 310,-84 310,4 -4,4"/>
<!-- Node1 -->
<g id="node1" class="node">
<title>Node1</title>
<g id="a_node1"><a xlink:title=" ">
<polygon fill="#bfbfbf" stroke="black" points="0,-24.5 0,-54.5 125,-54.5 125,-24.5 0,-24.5"/>
<text text-anchor="start" x="8" y="-42.5" font-family="Helvetica,sans-Serif" font-size="10.00">xtb_cqpath::cqpath</text>
<text text-anchor="middle" x="62.5" y="-31.5" font-family="Helvetica,sans-Serif" font-size="10.00">_damped_cube_spline</text>
</a>
</g>
</g>
<!-- Node2 -->
<g id="node2" class="node">
<title>Node2</title>
<g id="a_node2"><a xlink:href="namespacextb__cqpath.html#aed77ee0ef79a4ddc0a0374b5fb142f16" target="_top" xlink:title=" ">
<polygon fill="white" stroke="black" points="161,-49.5 161,-79.5 306,-79.5 306,-49.5 161,-49.5"/>
<text text-anchor="start" x="169" y="-67.5" font-family="Helvetica,sans-Serif" font-size="10.00">xtb_cqpath::cqpath</text>
<text text-anchor="middle" x="233.5" y="-56.5" font-family="Helvetica,sans-Serif" font-size="10.00">_damped_cube_spline_set</text>
</a>
</g>
</g>
<!-- Node1&#45;&gt;Node2 -->
<g id="edge1" class="edge">
<title>Node1&#45;&gt;Node2</title>
<path fill="none" stroke="midnightblue" d="M125.47,-48.67C133.73,-49.89 142.3,-51.16 150.83,-52.42"/>
<polygon fill="midnightblue" stroke="midnightblue" points="150.41,-55.89 160.81,-53.89 151.43,-48.97 150.41,-55.89"/>
</g>
<!-- Node3 -->
<g id="node3" class="node">
<title>Node3</title>
<g id="a_node3"><a xlink:href="namespacextb__cqpath.html#ace280d37414ad9e594b7c2c15b364639" target="_top" xlink:title=" ">
<polygon fill="white" stroke="black" points="161,-0.5 161,-30.5 306,-30.5 306,-0.5 161,-0.5"/>
<text text-anchor="start" x="169" y="-18.5" font-family="Helvetica,sans-Serif" font-size="10.00">xtb_cqpath::cqpath</text>
<text text-anchor="middle" x="233.5" y="-7.5" font-family="Helvetica,sans-Serif" font-size="10.00">_damped_cube_spline_val</text>
</a>
</g>
</g>
<!-- Node1&#45;&gt;Node3 -->
<g id="edge2" class="edge">
<title>Node1&#45;&gt;Node3</title>
<path fill="none" stroke="midnightblue" d="M125.47,-30.7C133.73,-29.53 142.3,-28.31 150.83,-27.1"/>
<polygon fill="midnightblue" stroke="midnightblue" points="151.4,-30.55 160.81,-25.68 150.42,-23.62 151.4,-30.55"/>
</g>
</g>
</svg>
