<?xml version="1.0" encoding="UTF-8" standalone="no"?>
<!DOCTYPE svg PUBLIC "-//W3C//DTD SVG 1.1//EN"
 "http://www.w3.org/Graphics/SVG/1.1/DTD/svg11.dtd">
<!-- Generated by graphviz version 2.46.0 (20210122.1329)
 -->
<!-- Title: xtb_io_reader_ctfile::readmoleculesdf Pages: 1 -->
<!--zoomable 119 -->
<svg id="main" version="1.1" xmlns="http://www.w3.org/2000/svg" xmlns:xlink="http://www.w3.org/1999/xlink" xml:space="preserve" onload="init(evt)">
<style type="text/css"><![CDATA[
.edge:hover path { stroke: red; }
.edge:hover polygon { stroke: red; fill: red; }
]]></style>
<script type="text/javascript"><![CDATA[
var edges = document.getElementsByTagName('g');
if (edges && edges.length) {
  for (var i=0;i<edges.length;i++) {
    if (edges[i].id.substr(0,4)=='edge') {
      edges[i].setAttribute('class','edge');
    }
  }
}
]]></script>
        <defs>
                <circle id="rim" cx="0" cy="0" r="7"/>
                <circle id="rim2" cx="0" cy="0" r="3.5"/>
                <g id="zoomPlus">
                        <use xlink:href="#rim" fill="#404040">
                                <set attributeName="fill" to="#808080" begin="zoomplus.mouseover" end="zoomplus.mouseout"/>
                        </use>
                        <path d="M-4,0h8M0,-4v8" fill="none" stroke="white" stroke-width="1.5" pointer-events="none"/>
                </g>
                <g id="zoomMin">
                        <use xlink:href="#rim" fill="#404040">
                                <set attributeName="fill" to="#808080" begin="zoomminus.mouseover" end="zoomminus.mouseout"/>
                        </use>
                        <path d="M-4,0h8" fill="none" stroke="white" stroke-width="1.5" pointer-events="none"/>
                </g>
                <g id="dirArrow">
                        <path fill="none" stroke="white" stroke-width="1.5" d="M0,-3.0v7 M-2.5,-0.5L0,-3.0L2.5,-0.5"/>
                </g>
               <g id="resetDef">
                       <use xlink:href="#rim2" fill="#404040">
                               <set attributeName="fill" to="#808080" begin="reset.mouseover" end="reset.mouseout"/>
                       </use>
               </g>
        </defs>

<script type="text/javascript">
var viewWidth = 639;
var viewHeight = 119;
var sectionId = 'dynsection-2';
</script>
<script xlink:href="svgpan.js"/>
<svg id="graph" class="graph">
<g id="viewport">
<title>xtb_io_reader_ctfile::readmoleculesdf</title>
<polygon fill="white" stroke="transparent" points="-4,4 -4,-114.5 635,-114.5 635,4 -4,4"/>
<!-- Node1 -->
<g id="node1" class="node">
<title>Node1</title>
<g id="a_node1"><a xlink:title=" ">
<polygon fill="#bfbfbf" stroke="black" points="0,-36 0,-66 100,-66 100,-36 0,-36"/>
<text text-anchor="start" x="8" y="-54" font-family="Helvetica,sans-Serif" font-size="10.00">xtb_io_reader_ctfile</text>
<text text-anchor="middle" x="50" y="-43" font-family="Helvetica,sans-Serif" font-size="10.00">::readmoleculesdf</text>
</a>
</g>
</g>
<!-- Node2 -->
<g id="node2" class="node">
<title>Node2</title>
<g id="a_node2"><a xlink:href="namespacextb__mctc__systools.html#a7b18e6c9bb5206d8fe0fbba49da3fbdb" target="_top" xlink:title=" ">
<polygon fill="white" stroke="black" points="299.5,-80 299.5,-110 401.5,-110 401.5,-80 299.5,-80"/>
<text text-anchor="start" x="307.5" y="-98" font-family="Helvetica,sans-Serif" font-size="10.00">xtb_mctc_systools::</text>
<text text-anchor="middle" x="350.5" y="-87" font-family="Helvetica,sans-Serif" font-size="10.00">getline</text>
</a>
</g>
</g>
<!-- Node1&#45;&gt;Node2 -->
<g id="edge1" class="edge">
<title>Node1&#45;&gt;Node2</title>
<path fill="none" stroke="midnightblue" d="M96.03,-66.04C108.82,-69.82 122.85,-73.51 136,-76 187.11,-85.69 246.06,-90.46 289.06,-92.8"/>
<polygon fill="midnightblue" stroke="midnightblue" points="288.91,-96.3 299.07,-93.32 289.27,-89.31 288.91,-96.3"/>
</g>
<!-- Node3 -->
<g id="node3" class="node">
<title>Node3</title>
<g id="a_node3"><a xlink:href="namespacextb__io__reader__ctfile.html#a0799818e84df88fcbbf2f511a191327c" target="_top" xlink:title=" ">
<polygon fill="white" stroke="black" points="136,-36 136,-66 243,-66 243,-36 136,-36"/>
<text text-anchor="start" x="144" y="-54" font-family="Helvetica,sans-Serif" font-size="10.00">xtb_io_reader_ctfile</text>
<text text-anchor="middle" x="189.5" y="-43" font-family="Helvetica,sans-Serif" font-size="10.00">::readmoleculemolfile</text>
</a>
</g>
</g>
<!-- Node1&#45;&gt;Node3 -->
<g id="edge2" class="edge">
<title>Node1&#45;&gt;Node3</title>
<path fill="none" stroke="midnightblue" d="M100.25,-51C108.47,-51 117.09,-51 125.6,-51"/>
<polygon fill="midnightblue" stroke="midnightblue" points="125.87,-54.5 135.87,-51 125.87,-47.5 125.87,-54.5"/>
</g>
<!-- Node6 -->
<g id="node6" class="node">
<title>Node6</title>
<g id="a_node6"><a xlink:href="symmetry__i_8c.html#aa77c823a9fc018ae1d437369708d8727" target="_top" xlink:title=" ">
<polygon fill="white" stroke="black" points="334,-0.5 334,-19.5 367,-19.5 367,-0.5 334,-0.5"/>
<text text-anchor="middle" x="350.5" y="-7.5" font-family="Helvetica,sans-Serif" font-size="10.00">true</text>
</a>
</g>
</g>
<!-- Node1&#45;&gt;Node6 -->
<g id="edge7" class="edge">
<title>Node1&#45;&gt;Node6</title>
<path fill="none" stroke="midnightblue" d="M95.57,-35.97C108.48,-32.14 122.68,-28.43 136,-26 202.99,-13.78 283.44,-10.86 323.78,-10.18"/>
<polygon fill="midnightblue" stroke="midnightblue" points="323.87,-13.68 333.82,-10.05 323.77,-6.68 323.87,-13.68"/>
</g>
<!-- Node3&#45;&gt;Node2 -->
<g id="edge3" class="edge">
<title>Node3&#45;&gt;Node2</title>
<path fill="none" stroke="midnightblue" d="M243,-65.53C257.92,-69.66 274.27,-74.18 289.59,-78.42"/>
<polygon fill="midnightblue" stroke="midnightblue" points="288.91,-81.86 299.48,-81.16 290.78,-75.12 288.91,-81.86"/>
</g>
<!-- Node4 -->
<g id="node4" class="node">
<title>Node4</title>
<g id="a_node4"><a xlink:href="namespacextb__mctc__symbols.html#a415078dcb669ace05def9d5ccfad86fa" target="_top" xlink:title="Convert element symbol to atomic number.">
<polygon fill="white" stroke="black" points="279,-41.5 279,-60.5 422,-60.5 422,-41.5 279,-41.5"/>
<text text-anchor="middle" x="350.5" y="-48.5" font-family="Helvetica,sans-Serif" font-size="10.00">xtb_mctc_symbols::tonumber</text>
</a>
</g>
</g>
<!-- Node3&#45;&gt;Node4 -->
<g id="edge4" class="edge">
<title>Node3&#45;&gt;Node4</title>
<path fill="none" stroke="midnightblue" d="M243,-51C251.26,-51 259.96,-51 268.68,-51"/>
<polygon fill="midnightblue" stroke="midnightblue" points="268.9,-54.5 278.9,-51 268.9,-47.5 268.9,-54.5"/>
</g>
<!-- Node3&#45;&gt;Node6 -->
<g id="edge6" class="edge">
<title>Node3&#45;&gt;Node6</title>
<path fill="none" stroke="midnightblue" d="M243,-37.46C270.21,-30.45 302.2,-22.2 323.97,-16.58"/>
<polygon fill="midnightblue" stroke="midnightblue" points="324.96,-19.94 333.77,-14.06 323.21,-13.16 324.96,-19.94"/>
</g>
<!-- Node5 -->
<g id="node5" class="node">
<title>Node5</title>
<g id="a_node5"><a xlink:href="namespacextb__mctc__symbols.html#a6443a2bd18736176be30e8db1ddc89dd" target="_top" xlink:title="Convert element symbol to atomic number.">
<polygon fill="white" stroke="black" points="458,-41.5 458,-60.5 631,-60.5 631,-41.5 458,-41.5"/>
<text text-anchor="middle" x="544.5" y="-48.5" font-family="Helvetica,sans-Serif" font-size="10.00">xtb_mctc_symbols::symboltonumber</text>
</a>
</g>
</g>
<!-- Node4&#45;&gt;Node5 -->
<g id="edge5" class="edge">
<title>Node4&#45;&gt;Node5</title>
<path fill="none" stroke="midnightblue" d="M422.18,-51C430.55,-51 439.21,-51 447.86,-51"/>
<polygon fill="midnightblue" stroke="midnightblue" points="447.99,-54.5 457.99,-51 447.99,-47.5 447.99,-54.5"/>
</g>
</g>
</svg>
        <g id="navigator" transform="translate(0 0)" fill="#404254">
                <rect fill="#f2f5e9" fill-opacity="0.5" stroke="#606060" stroke-width=".5" x="0" y="0" width="60" height="60"/>
                <use id="zoomplus" xlink:href="#zoomPlus" x="17" y="9" onmousedown="handleZoom(evt,'in')"/>
                <use id="zoomminus" xlink:href="#zoomMin" x="42" y="9" onmousedown="handleZoom(evt,'out')"/>
                <use id="reset" xlink:href="#resetDef" x="30" y="36" onmousedown="handleReset()"/>
                <g id="arrowUp" xlink:href="#dirArrow" transform="translate(30 24)" onmousedown="handlePan(0,-1)">
                  <use xlink:href="#rim" fill="#404040">
                        <set attributeName="fill" to="#808080" begin="arrowUp.mouseover" end="arrowUp.mouseout"/>
                  </use>
                  <path fill="none" stroke="white" stroke-width="1.5" d="M0,-3.0v7 M-2.5,-0.5L0,-3.0L2.5,-0.5"/>
                </g>
                <g id="arrowRight" xlink:href="#dirArrow" transform="rotate(90) translate(36 -43)" onmousedown="handlePan(1,0)">
                  <use xlink:href="#rim" fill="#404040">
                        <set attributeName="fill" to="#808080" begin="arrowRight.mouseover" end="arrowRight.mouseout"/>
                  </use>
                  <path fill="none" stroke="white" stroke-width="1.5" d="M0,-3.0v7 M-2.5,-0.5L0,-3.0L2.5,-0.5"/>
                </g>
                <g id="arrowDown" xlink:href="#dirArrow" transform="rotate(180) translate(-30 -48)" onmousedown="handlePan(0,1)">
                  <use xlink:href="#rim" fill="#404040">
                        <set attributeName="fill" to="#808080" begin="arrowDown.mouseover" end="arrowDown.mouseout"/>
                  </use>
                  <path fill="none" stroke="white" stroke-width="1.5" d="M0,-3.0v7 M-2.5,-0.5L0,-3.0L2.5,-0.5"/>
                </g>
                <g id="arrowLeft" xlink:href="#dirArrow" transform="rotate(270) translate(-36 17)" onmousedown="handlePan(-1,0)">
                  <use xlink:href="#rim" fill="#404040">
                        <set attributeName="fill" to="#808080" begin="arrowLeft.mouseover" end="arrowLeft.mouseout"/>
                  </use>
                  <path fill="none" stroke="white" stroke-width="1.5" d="M0,-3.0v7 M-2.5,-0.5L0,-3.0L2.5,-0.5"/>
                </g>
        </g>
        <svg viewBox="0 0 15 15" width="100%" height="30px" preserveAspectRatio="xMaxYMin meet">
         <g id="arrow_out" transform="scale(0.3 0.3)">
          <a xlink:href="namespacextb__io__reader__ctfile_acef0c4f2364173c24862519696001485_cgraph_org.svg" target="_base">
           <rect id="button" ry="5" rx="5" y="6" x="6" height="38" width="38"
                fill="#f2f5e9" fill-opacity="0.5" stroke="#606060" stroke-width="1.0"/>
           <path id="arrow"
             d="M 11.500037,31.436501 C 11.940474,20.09759 22.043105,11.32322 32.158766,21.979434 L 37.068811,17.246167 C 37.068811,17.246167 37.088388,32 37.088388,32 L 22.160133,31.978069 C 22.160133,31.978069 26.997745,27.140456 26.997745,27.140456 C 18.528582,18.264221 13.291696,25.230495 11.500037,31.436501 z"
             style="fill:#404040;"/>
          </a>
         </g>
        </svg>
</svg>
