<?xml version="1.0" encoding="UTF-8" standalone="no"?>
<!DOCTYPE svg PUBLIC "-//W3C//DTD SVG 1.1//EN"
 "http://www.w3.org/Graphics/SVG/1.1/DTD/svg11.dtd">
<!-- Generated by graphviz version 2.46.0 (20210122.1329)
 -->
<!-- Title: xtb_basis::set_f_function Pages: 1 -->
<svg width="361pt" height="66pt"
 viewBox="0.00 0.00 361.00 66.00" xmlns="http://www.w3.org/2000/svg" xmlns:xlink="http://www.w3.org/1999/xlink">
<g id="graph0" class="graph" transform="scale(1 1) rotate(0) translate(4 62)">
<title>xtb_basis::set_f_function</title>
<polygon fill="white" stroke="transparent" points="-4,4 -4,-62 357,-62 357,4 -4,4"/>
<!-- Node1 -->
<g id="node1" class="node">
<title>Node1</title>
<g id="a_node1"><a xlink:title=" ">
<polygon fill="#bfbfbf" stroke="black" points="0,-19.5 0,-38.5 124,-38.5 124,-19.5 0,-19.5"/>
<text text-anchor="middle" x="62" y="-26.5" font-family="Helvetica,sans-Serif" font-size="10.00">xtb_basis::set_f_function</text>
</a>
</g>
</g>
<!-- Node2 -->
<g id="node2" class="node">
<title>Node2</title>
<g id="a_node2"><a xlink:href="namespacextb__slater.html#a19c2732e2b22af63a29d5e157f8415b3" target="_top" xlink:title="Expand Slater function in primitive gaussian functions.">
<polygon fill="white" stroke="black" points="160,-38.5 160,-57.5 282,-57.5 282,-38.5 160,-38.5"/>
<text text-anchor="middle" x="221" y="-45.5" font-family="Helvetica,sans-Serif" font-size="10.00">xtb_slater::slatertogauss</text>
</a>
</g>
</g>
<!-- Node1&#45;&gt;Node2 -->
<g id="edge1" class="edge">
<title>Node1&#45;&gt;Node2</title>
<path fill="none" stroke="midnightblue" d="M124.15,-36.4C132.57,-37.42 141.26,-38.47 149.83,-39.51"/>
<polygon fill="midnightblue" stroke="midnightblue" points="149.44,-42.99 159.79,-40.71 150.28,-36.04 149.44,-42.99"/>
</g>
<!-- Node4 -->
<g id="node4" class="node">
<title>Node4</title>
<g id="a_node4"><a xlink:href="symmetry__i_8c.html#aa77c823a9fc018ae1d437369708d8727" target="_top" xlink:title=" ">
<polygon fill="white" stroke="black" points="204.5,-0.5 204.5,-19.5 237.5,-19.5 237.5,-0.5 204.5,-0.5"/>
<text text-anchor="middle" x="221" y="-7.5" font-family="Helvetica,sans-Serif" font-size="10.00">true</text>
</a>
</g>
</g>
<!-- Node1&#45;&gt;Node4 -->
<g id="edge3" class="edge">
<title>Node1&#45;&gt;Node4</title>
<path fill="none" stroke="midnightblue" d="M124.15,-21.6C148.59,-18.64 175.39,-15.4 194.43,-13.09"/>
<polygon fill="midnightblue" stroke="midnightblue" points="194.89,-16.56 204.4,-11.89 194.05,-9.62 194.89,-16.56"/>
</g>
<!-- Node3 -->
<g id="node3" class="node">
<title>Node3</title>
<g id="a_node3"><a xlink:href="gfnff__ini_8f90.html#a07cf0529f275e36a83ad9aa337fe2f40" target="_top" xlink:title="zeta(g_a,gam(ia)*g_c,refq(ii,ia)+iz,q(i)+iz)">
<polygon fill="white" stroke="black" points="318,-38.5 318,-57.5 353,-57.5 353,-38.5 318,-38.5"/>
<text text-anchor="middle" x="335.5" y="-45.5" font-family="Helvetica,sans-Serif" font-size="10.00">zeta</text>
</a>
</g>
</g>
<!-- Node2&#45;&gt;Node3 -->
<g id="edge2" class="edge">
<title>Node2&#45;&gt;Node3</title>
<path fill="none" stroke="midnightblue" d="M282.2,-48C291.15,-48 299.96,-48 307.73,-48"/>
<polygon fill="midnightblue" stroke="midnightblue" points="307.92,-51.5 317.92,-48 307.92,-44.5 307.92,-51.5"/>
</g>
</g>
</svg>
