<?xml version="1.0" encoding="UTF-8" standalone="no"?>
<!DOCTYPE svg PUBLIC "-//W3C//DTD SVG 1.1//EN"
 "http://www.w3.org/Graphics/SVG/1.1/DTD/svg11.dtd">
<!-- Generated by graphviz version 2.46.1 (20210215.1649)
 -->
<!-- Title: xtb_intmodes::bzmat Pages: 1 -->
<svg width="675pt" height="66pt"
 viewBox="0.00 0.00 675.00 66.00" xmlns="http://www.w3.org/2000/svg" xmlns:xlink="http://www.w3.org/1999/xlink">
<g id="graph0" class="graph" transform="scale(1 1) rotate(0) translate(4 62)">
<title>xtb_intmodes::bzmat</title>
<polygon fill="white" stroke="transparent" points="-4,4 -4,-62 671,-62 671,4 -4,4"/>
<!-- Node1 -->
<g id="node1" class="node">
<title>Node1</title>
<g id="a_node1"><a xlink:title=" ">
<polygon fill="#bfbfbf" stroke="black" points="0,-19.5 0,-38.5 105,-38.5 105,-19.5 0,-19.5"/>
<text text-anchor="middle" x="52.5" y="-26.5" font-family="Helvetica,sans-Serif" font-size="10.00">xtb_intmodes::bzmat</text>
</a>
</g>
</g>
<!-- Node2 -->
<g id="node2" class="node">
<title>Node2</title>
<g id="a_node2"><a xlink:href="namespacextb__intmodes.html#a02e6ee5024597e693272a4d07b93255a" target="_top" xlink:title=" ">
<polygon fill="white" stroke="black" points="280,-19.5 280,-38.5 388,-38.5 388,-19.5 280,-19.5"/>
<text text-anchor="middle" x="334" y="-26.5" font-family="Helvetica,sans-Serif" font-size="10.00">xtb_intmodes::xyzgeo</text>
</a>
</g>
</g>
<!-- Node1&#45;&gt;Node2 -->
<g id="edge1" class="edge">
<title>Node1&#45;&gt;Node2</title>
<path fill="none" stroke="midnightblue" d="M105.09,-29C151.57,-29 220.05,-29 269.81,-29"/>
<polygon fill="midnightblue" stroke="midnightblue" points="269.81,-32.5 279.81,-29 269.81,-25.5 269.81,-32.5"/>
</g>
<!-- Node6 -->
<g id="node6" class="node">
<title>Node6</title>
<g id="a_node6"><a xlink:href="namespacextb__intmodes.html#adbfcb1031b643ffd8818f3e5069c40d9" target="_top" xlink:title=" ">
<polygon fill="white" stroke="black" points="141,-0.5 141,-19.5 244,-19.5 244,-0.5 141,-0.5"/>
<text text-anchor="middle" x="192.5" y="-7.5" font-family="Helvetica,sans-Serif" font-size="10.00">xtb_intmodes::xyzint</text>
</a>
</g>
</g>
<!-- Node1&#45;&gt;Node6 -->
<g id="edge5" class="edge">
<title>Node1&#45;&gt;Node6</title>
<path fill="none" stroke="midnightblue" d="M105.28,-21.87C113.63,-20.72 122.35,-19.52 130.89,-18.34"/>
<polygon fill="midnightblue" stroke="midnightblue" points="131.38,-21.81 140.81,-16.98 130.42,-14.88 131.38,-21.81"/>
</g>
<!-- Node3 -->
<g id="node3" class="node">
<title>Node3</title>
<g id="a_node3"><a xlink:href="namespacextb__intmodes.html#a2319a6467dc790a7f6157f25a331ae95" target="_top" xlink:title=" ">
<polygon fill="white" stroke="black" points="424,-38.5 424,-57.5 531,-57.5 531,-38.5 424,-38.5"/>
<text text-anchor="middle" x="477.5" y="-45.5" font-family="Helvetica,sans-Serif" font-size="10.00">xtb_intmodes::bangle</text>
</a>
</g>
</g>
<!-- Node2&#45;&gt;Node3 -->
<g id="edge2" class="edge">
<title>Node2&#45;&gt;Node3</title>
<path fill="none" stroke="midnightblue" d="M388.09,-36.13C396.43,-37.25 405.13,-38.42 413.66,-39.56"/>
<polygon fill="midnightblue" stroke="midnightblue" points="413.2,-43.03 423.58,-40.89 414.14,-36.09 413.2,-43.03"/>
</g>
<!-- Node4 -->
<g id="node4" class="node">
<title>Node4</title>
<g id="a_node4"><a xlink:href="namespacextb__intmodes.html#a8f66f8bd3e86779b19c8ab4c55f9b805" target="_top" xlink:title=" ">
<polygon fill="white" stroke="black" points="426.5,-0.5 426.5,-19.5 528.5,-19.5 528.5,-0.5 426.5,-0.5"/>
<text text-anchor="middle" x="477.5" y="-7.5" font-family="Helvetica,sans-Serif" font-size="10.00">xtb_intmodes::dihed</text>
</a>
</g>
</g>
<!-- Node2&#45;&gt;Node4 -->
<g id="edge3" class="edge">
<title>Node2&#45;&gt;Node4</title>
<path fill="none" stroke="midnightblue" d="M388.09,-21.87C397.31,-20.63 406.95,-19.34 416.33,-18.08"/>
<polygon fill="midnightblue" stroke="midnightblue" points="416.94,-21.53 426.39,-16.73 416.01,-14.59 416.94,-21.53"/>
</g>
<!-- Node5 -->
<g id="node5" class="node">
<title>Node5</title>
<g id="a_node5"><a xlink:href="namespacextb__intmodes.html#ad7e4a46c34d25501731d350f2ed11e6d" target="_top" xlink:title=" ">
<polygon fill="white" stroke="black" points="567,-0.5 567,-19.5 667,-19.5 667,-0.5 567,-0.5"/>
<text text-anchor="middle" x="617" y="-7.5" font-family="Helvetica,sans-Serif" font-size="10.00">xtb_intmodes::dang</text>
</a>
</g>
</g>
<!-- Node4&#45;&gt;Node5 -->
<g id="edge4" class="edge">
<title>Node4&#45;&gt;Node5</title>
<path fill="none" stroke="midnightblue" d="M528.53,-10C537.66,-10 547.28,-10 556.65,-10"/>
<polygon fill="midnightblue" stroke="midnightblue" points="556.7,-13.5 566.7,-10 556.7,-6.5 556.7,-13.5"/>
</g>
<!-- Node6&#45;&gt;Node2 -->
<g id="edge6" class="edge">
<title>Node6&#45;&gt;Node2</title>
<path fill="none" stroke="midnightblue" d="M244.26,-16.91C252.54,-18.04 261.22,-19.22 269.76,-20.39"/>
<polygon fill="midnightblue" stroke="midnightblue" points="269.32,-23.86 279.7,-21.74 270.26,-16.92 269.32,-23.86"/>
</g>
</g>
</svg>
