<?xml version="1.0" encoding="UTF-8" standalone="no"?>
<!DOCTYPE svg PUBLIC "-//W3C//DTD SVG 1.1//EN"
 "http://www.w3.org/Graphics/SVG/1.1/DTD/svg11.dtd">
<!-- Generated by graphviz version 2.46.0 (20210122.1329)
 -->
<!-- Title: xtb_peeq::get_grad_overlap Pages: 1 -->
<svg width="377pt" height="192pt"
 viewBox="0.00 0.00 377.00 191.50" xmlns="http://www.w3.org/2000/svg" xmlns:xlink="http://www.w3.org/1999/xlink">
<g id="graph0" class="graph" transform="scale(1 1) rotate(0) translate(4 187.5)">
<title>xtb_peeq::get_grad_overlap</title>
<polygon fill="white" stroke="transparent" points="-4,4 -4,-187.5 373,-187.5 373,4 -4,4"/>
<!-- Node1 -->
<g id="node1" class="node">
<title>Node1</title>
<g id="a_node1"><a xlink:title=" ">
<polygon fill="#bfbfbf" stroke="black" points="0,-71 0,-101 98,-101 98,-71 0,-71"/>
<text text-anchor="start" x="8" y="-89" font-family="Helvetica,sans-Serif" font-size="10.00">xtb_peeq::get_grad</text>
<text text-anchor="middle" x="49" y="-78" font-family="Helvetica,sans-Serif" font-size="10.00">_overlap</text>
</a>
</g>
</g>
<!-- Node2 -->
<g id="node2" class="node">
<title>Node2</title>
<g id="a_node2"><a xlink:href="namespacextb__intgrad.html#ae34171826fede48284f04beb036fb2bd" target="_top" xlink:title=" ">
<polygon fill="white" stroke="black" points="134,-71 134,-101 223,-101 223,-71 134,-71"/>
<text text-anchor="start" x="142" y="-89" font-family="Helvetica,sans-Serif" font-size="10.00">xtb_intgrad::build</text>
<text text-anchor="middle" x="178.5" y="-78" font-family="Helvetica,sans-Serif" font-size="10.00">_ds_ints</text>
</a>
</g>
</g>
<!-- Node1&#45;&gt;Node2 -->
<g id="edge1" class="edge">
<title>Node1&#45;&gt;Node2</title>
<path fill="none" stroke="midnightblue" d="M98.2,-86C106.52,-86 115.22,-86 123.68,-86"/>
<polygon fill="midnightblue" stroke="midnightblue" points="123.84,-89.5 133.84,-86 123.84,-82.5 123.84,-89.5"/>
</g>
<!-- Node3 -->
<g id="node3" class="node">
<title>Node3</title>
<g id="a_node3"><a xlink:href="namespacextb__intgrad.html#a5bc6f86d12b5b4734f597a88800d8330" target="_top" xlink:title=" ">
<polygon fill="white" stroke="black" points="269.5,-153 269.5,-183 358.5,-183 358.5,-153 269.5,-153"/>
<text text-anchor="start" x="277.5" y="-171" font-family="Helvetica,sans-Serif" font-size="10.00">xtb_intgrad::build</text>
<text text-anchor="middle" x="314" y="-160" font-family="Helvetica,sans-Serif" font-size="10.00">_hshift2</text>
</a>
</g>
</g>
<!-- Node2&#45;&gt;Node3 -->
<g id="edge2" class="edge">
<title>Node2&#45;&gt;Node3</title>
<path fill="none" stroke="midnightblue" d="M198.42,-101.12C214.11,-113.27 237.29,-130.34 259,-143 262.18,-144.85 265.51,-146.67 268.91,-148.43"/>
<polygon fill="midnightblue" stroke="midnightblue" points="267.43,-151.61 277.94,-152.94 270.55,-145.34 267.43,-151.61"/>
</g>
<!-- Node4 -->
<g id="node4" class="node">
<title>Node4</title>
<g id="a_node4"><a xlink:href="namespacextb__intgrad.html#a1f9cf61176ecca277a73a81137c39a39" target="_top" xlink:title=" ">
<polygon fill="white" stroke="black" points="259,-114.5 259,-133.5 369,-133.5 369,-114.5 259,-114.5"/>
<text text-anchor="middle" x="314" y="-121.5" font-family="Helvetica,sans-Serif" font-size="10.00">xtb_intgrad::build_kab</text>
</a>
</g>
</g>
<!-- Node2&#45;&gt;Node4 -->
<g id="edge3" class="edge">
<title>Node2&#45;&gt;Node4</title>
<path fill="none" stroke="midnightblue" d="M223.21,-98.44C238.04,-102.66 254.6,-107.38 269.42,-111.59"/>
<polygon fill="midnightblue" stroke="midnightblue" points="268.78,-115.05 279.36,-114.42 270.7,-108.32 268.78,-115.05"/>
</g>
<!-- Node5 -->
<g id="node5" class="node">
<title>Node5</title>
<g id="a_node5"><a xlink:href="namespacextb__intgrad.html#a49b854bf505ac013ac50d12edb2e0de5" target="_top" xlink:title="returns center of product Gaussian from two Gaussians by GPT">
<polygon fill="white" stroke="black" points="261,-76.5 261,-95.5 367,-95.5 367,-76.5 261,-76.5"/>
<text text-anchor="middle" x="314" y="-83.5" font-family="Helvetica,sans-Serif" font-size="10.00">xtb_intgrad::gpcenter</text>
</a>
</g>
</g>
<!-- Node2&#45;&gt;Node5 -->
<g id="edge4" class="edge">
<title>Node2&#45;&gt;Node5</title>
<path fill="none" stroke="midnightblue" d="M223.21,-86C232.04,-86 241.47,-86 250.79,-86"/>
<polygon fill="midnightblue" stroke="midnightblue" points="250.82,-89.5 260.82,-86 250.82,-82.5 250.82,-89.5"/>
</g>
<!-- Node6 -->
<g id="node6" class="node">
<title>Node6</title>
<g id="a_node6"><a xlink:href="namespacextb__intgrad.html#a61582fac6cd8cc05eb76d4ced531ef6e" target="_top" xlink:title="calculates a partial overlap in one cartesian direction">
<polygon fill="white" stroke="black" points="268,-38.5 268,-57.5 360,-57.5 360,-38.5 268,-38.5"/>
<text text-anchor="middle" x="314" y="-45.5" font-family="Helvetica,sans-Serif" font-size="10.00">xtb_intgrad::olapp</text>
</a>
</g>
</g>
<!-- Node2&#45;&gt;Node6 -->
<g id="edge5" class="edge">
<title>Node2&#45;&gt;Node6</title>
<path fill="none" stroke="midnightblue" d="M223.21,-73.56C238.04,-69.34 254.6,-64.62 269.42,-60.41"/>
<polygon fill="midnightblue" stroke="midnightblue" points="270.7,-63.68 279.36,-57.58 268.78,-56.95 270.7,-63.68"/>
</g>
<!-- Node7 -->
<g id="node7" class="node">
<title>Node7</title>
<g id="a_node7"><a xlink:href="namespacextb__intgrad.html#a040b47e4b45c55028569fcad9704172a" target="_top" xlink:title=" ">
<polygon fill="white" stroke="black" points="268,-0.5 268,-19.5 360,-19.5 360,-0.5 268,-0.5"/>
<text text-anchor="middle" x="314" y="-7.5" font-family="Helvetica,sans-Serif" font-size="10.00">xtb_intgrad::prod3</text>
</a>
</g>
</g>
<!-- Node2&#45;&gt;Node7 -->
<g id="edge6" class="edge">
<title>Node2&#45;&gt;Node7</title>
<path fill="none" stroke="midnightblue" d="M197.48,-70.83C213,-58.31 236.41,-40.77 259,-29 262.97,-26.93 267.22,-25 271.53,-23.22"/>
<polygon fill="midnightblue" stroke="midnightblue" points="272.88,-26.45 280.96,-19.59 270.37,-19.92 272.88,-26.45"/>
</g>
</g>
</svg>
