<?xml version="1.0" encoding="UTF-8" standalone="no"?>
<!DOCTYPE svg PUBLIC "-//W3C//DTD SVG 1.1//EN"
 "http://www.w3.org/Graphics/SVG/1.1/DTD/svg11.dtd">
<!-- Generated by graphviz version 2.46.0 (20210122.1329)
 -->
<!-- Title: xtb_mctc_math::eigval3x3 Pages: 1 -->
<svg width="790pt" height="105pt"
 viewBox="0.00 0.00 790.00 105.00" xmlns="http://www.w3.org/2000/svg" xmlns:xlink="http://www.w3.org/1999/xlink">
<g id="graph0" class="graph" transform="scale(1 1) rotate(0) translate(4 101)">
<title>xtb_mctc_math::eigval3x3</title>
<polygon fill="white" stroke="transparent" points="-4,4 -4,-101 786,-101 786,4 -4,4"/>
<!-- Node1 -->
<g id="node1" class="node">
<title>Node1</title>
<g id="a_node1"><a xlink:title="Calculates eigenvalues based on the trigonometric solution of A = pB + qI.">
<polygon fill="#bfbfbf" stroke="black" points="654,-28 654,-47 782,-47 782,-28 654,-28"/>
<text text-anchor="middle" x="718" y="-35" font-family="Helvetica,sans-Serif" font-size="10.00">xtb_mctc_math::eigval3x3</text>
</a>
</g>
</g>
<!-- Node2 -->
<g id="node2" class="node">
<title>Node2</title>
<g id="a_node2"><a xlink:href="namespacextb__mctc__math.html#ae982d67b0f3f875b0be50274cfb42712" target="_top" xlink:title="Calculates eigenvector using an analytical method based on vector cross.">
<polygon fill="white" stroke="black" points="487,-50 487,-69 618,-69 618,-50 487,-50"/>
<text text-anchor="middle" x="552.5" y="-57" font-family="Helvetica,sans-Serif" font-size="10.00">xtb_mctc_math::eigvec3x3</text>
</a>
</g>
</g>
<!-- Node1&#45;&gt;Node2 -->
<g id="edge1" class="edge">
<title>Node1&#45;&gt;Node2</title>
<path fill="none" stroke="midnightblue" d="M643.83,-47.35C635.27,-48.5 626.59,-49.66 618.17,-50.8"/>
<polygon fill="midnightblue" stroke="midnightblue" points="644.34,-50.81 653.79,-46.01 643.41,-43.87 644.34,-50.81"/>
</g>
<!-- Node7 -->
<g id="node7" class="node">
<title>Node7</title>
<g id="a_node7"><a xlink:href="namespacextb__type__molecule.html#abf10798d5308677c1e8e3bc23cc74feb" target="_top" xlink:title=" ">
<polygon fill="white" stroke="black" points="501.5,-0.5 501.5,-30.5 603.5,-30.5 603.5,-0.5 501.5,-0.5"/>
<text text-anchor="start" x="509.5" y="-18.5" font-family="Helvetica,sans-Serif" font-size="10.00">xtb_type_molecule::</text>
<text text-anchor="middle" x="552.5" y="-7.5" font-family="Helvetica,sans-Serif" font-size="10.00">moments_of_inertia</text>
</a>
</g>
</g>
<!-- Node1&#45;&gt;Node7 -->
<g id="edge6" class="edge">
<title>Node1&#45;&gt;Node7</title>
<path fill="none" stroke="midnightblue" d="M643.55,-27.62C630.05,-25.8 616.24,-23.94 603.63,-22.24"/>
<polygon fill="midnightblue" stroke="midnightblue" points="643.41,-31.13 653.79,-28.99 644.34,-24.19 643.41,-31.13"/>
</g>
<!-- Node3 -->
<g id="node3" class="node">
<title>Node3</title>
<g id="a_node3"><a xlink:href="namespacextb__type__molecule.html#a292e8bf2359e57a8e1f68b86c0f0e4af" target="_top" xlink:title=" ">
<polygon fill="white" stroke="black" points="316,-66.5 316,-96.5 433,-96.5 433,-66.5 316,-66.5"/>
<text text-anchor="start" x="324" y="-84.5" font-family="Helvetica,sans-Serif" font-size="10.00">xtb_type_molecule::</text>
<text text-anchor="middle" x="374.5" y="-73.5" font-family="Helvetica,sans-Serif" font-size="10.00">align_to_principal_axes</text>
</a>
</g>
</g>
<!-- Node2&#45;&gt;Node3 -->
<g id="edge2" class="edge">
<title>Node2&#45;&gt;Node3</title>
<path fill="none" stroke="midnightblue" d="M476.91,-68.82C462.23,-70.66 447.05,-72.56 433.05,-74.31"/>
<polygon fill="midnightblue" stroke="midnightblue" points="477.47,-72.28 486.96,-67.57 476.61,-65.33 477.47,-72.28"/>
</g>
<!-- Node4 -->
<g id="node4" class="node">
<title>Node4</title>
<g id="a_node4"><a xlink:href="namespacextb__freq__project.html#a64126381534c62c3d55714e49722bb2c" target="_top" xlink:title="Project translations and rotations from the Hessian matrix.">
<polygon fill="white" stroke="black" points="298,-28 298,-47 451,-47 451,-28 298,-28"/>
<text text-anchor="middle" x="374.5" y="-35" font-family="Helvetica,sans-Serif" font-size="10.00">xtb_freq_project::projecthessian</text>
</a>
</g>
</g>
<!-- Node2&#45;&gt;Node4 -->
<g id="edge3" class="edge">
<title>Node2&#45;&gt;Node4</title>
<path fill="none" stroke="midnightblue" d="M476.99,-50.19C468.41,-49.11 459.66,-48.02 451.06,-46.95"/>
<polygon fill="midnightblue" stroke="midnightblue" points="476.61,-53.67 486.96,-51.43 477.47,-46.72 476.61,-53.67"/>
</g>
<!-- Node5 -->
<g id="node5" class="node">
<title>Node5</title>
<g id="a_node5"><a xlink:href="namespacextb__prog__thermo.html#adb2b1af9c4536efaa8d399da0c89d209" target="_top" xlink:title="Main program of the thermo submodule.">
<polygon fill="white" stroke="black" points="126,-28 126,-47 262,-47 262,-28 126,-28"/>
<text text-anchor="middle" x="194" y="-35" font-family="Helvetica,sans-Serif" font-size="10.00">xtb_prog_thermo::xtbthermo</text>
</a>
</g>
</g>
<!-- Node4&#45;&gt;Node5 -->
<g id="edge4" class="edge">
<title>Node4&#45;&gt;Node5</title>
<path fill="none" stroke="midnightblue" d="M287.72,-37.5C279.1,-37.5 270.44,-37.5 262.05,-37.5"/>
<polygon fill="midnightblue" stroke="midnightblue" points="287.8,-41 297.8,-37.5 287.8,-34 287.8,-41"/>
</g>
<!-- Node6 -->
<g id="node6" class="node">
<title>Node6</title>
<g id="a_node6"><a xlink:href="primary_8f90.html#a2a67903cf5be605c5b6d3c362c6a3c5c" target="_top" xlink:title="The primary driver for the xtb program package.">
<polygon fill="white" stroke="black" points="0,-28 0,-47 90,-47 90,-28 0,-28"/>
<text text-anchor="middle" x="45" y="-35" font-family="Helvetica,sans-Serif" font-size="10.00">xtb_prog_primary</text>
</a>
</g>
</g>
<!-- Node5&#45;&gt;Node6 -->
<g id="edge5" class="edge">
<title>Node5&#45;&gt;Node6</title>
<path fill="none" stroke="midnightblue" d="M115.7,-37.5C106.98,-37.5 98.32,-37.5 90.23,-37.5"/>
<polygon fill="midnightblue" stroke="midnightblue" points="115.95,-41 125.95,-37.5 115.95,-34 115.95,-41"/>
</g>
</g>
</svg>
