<?xml version="1.0" encoding="UTF-8" standalone="no"?>
<!DOCTYPE svg PUBLIC "-//W3C//DTD SVG 1.1//EN"
 "http://www.w3.org/Graphics/SVG/1.1/DTD/svg11.dtd">
<!-- Generated by graphviz version 2.43.0 (0)
 -->
<!-- Title: xtb_qmdff::eabx Pages: 1 -->
<svg width="538pt" height="39pt"
 viewBox="0.00 0.00 538.00 39.00" xmlns="http://www.w3.org/2000/svg" xmlns:xlink="http://www.w3.org/1999/xlink">
<g id="graph0" class="graph" transform="scale(1 1) rotate(0) translate(4 35)">
<title>xtb_qmdff::eabx</title>
<polygon fill="white" stroke="transparent" points="-4,4 -4,-35 534,-35 534,4 -4,4"/>
<!-- Node1 -->
<g id="node1" class="node">
<title>Node1</title>
<g id="a_node1"><a xlink:title=" ">
<polygon fill="#bfbfbf" stroke="black" points="434,-6 434,-25 530,-25 530,-6 434,-6"/>
<text text-anchor="middle" x="482" y="-13" font-family="Helvetica,sans-Serif" font-size="10.00">xtb_qmdff::eabx</text>
</a>
</g>
</g>
<!-- Node2 -->
<g id="node2" class="node">
<title>Node2</title>
<g id="a_node2"><a xlink:href="namespacextb__qmdff.html#a9d8a590cacfb9407eb367a45a18e3170" target="_top" xlink:title=" ">
<polygon fill="white" stroke="black" points="290,-6 290,-25 398,-25 398,-6 290,-6"/>
<text text-anchor="middle" x="344" y="-13" font-family="Helvetica,sans-Serif" font-size="10.00">xtb_qmdff::eabxag</text>
</a>
</g>
</g>
<!-- Node1&#45;&gt;Node2 -->
<g id="edge1" class="edge">
<title>Node1&#45;&gt;Node2</title>
<path fill="none" stroke="midnightblue" d="M423.65,-15.5C415.2,-15.5 406.52,-15.5 398.15,-15.5"/>
<polygon fill="midnightblue" stroke="midnightblue" points="423.82,-19 433.82,-15.5 423.82,-12 423.82,-19"/>
</g>
<!-- Node3 -->
<g id="node3" class="node">
<title>Node3</title>
<g id="a_node3"><a xlink:href="namespacextb__qmdff.html#a64791d9e4aec0ef3239469abc8a11b5d" target="_top" xlink:title=" ">
<polygon fill="white" stroke="black" points="158,-6 158,-25 254,-25 254,-6 158,-6"/>
<text text-anchor="middle" x="206" y="-13" font-family="Helvetica,sans-Serif" font-size="10.00">xtb_qmdff::ff_hb</text>
</a>
</g>
</g>
<!-- Node2&#45;&gt;Node3 -->
<g id="edge2" class="edge">
<title>Node2&#45;&gt;Node3</title>
<path fill="none" stroke="midnightblue" d="M279.61,-15.5C270.99,-15.5 262.28,-15.5 254.03,-15.5"/>
<polygon fill="midnightblue" stroke="midnightblue" points="279.64,-19 289.64,-15.5 279.64,-12 279.64,-19"/>
</g>
<!-- Node4 -->
<g id="node4" class="node">
<title>Node4</title>
<g id="a_node4"><a xlink:href="namespacextb__type__dummycalc.html#a28a36738c316fb4a0655328844e94957" target="_top" xlink:title=" ">
<polygon fill="white" stroke="black" points="0,-0.5 0,-30.5 122,-30.5 122,-0.5 0,-0.5"/>
<text text-anchor="start" x="8" y="-18.5" font-family="Helvetica,sans-Serif" font-size="10.00">xtb_type_dummycalc</text>
<text text-anchor="middle" x="61" y="-7.5" font-family="Helvetica,sans-Serif" font-size="10.00">::singlepoint</text>
</a>
</g>
</g>
<!-- Node3&#45;&gt;Node4 -->
<g id="edge3" class="edge">
<title>Node3&#45;&gt;Node4</title>
<path fill="none" stroke="midnightblue" d="M147.7,-15.5C139.3,-15.5 130.63,-15.5 122.18,-15.5"/>
<polygon fill="midnightblue" stroke="midnightblue" points="147.78,-19 157.78,-15.5 147.78,-12 147.78,-19"/>
</g>
</g>
</svg>
