<?xml version="1.0" encoding="UTF-8" standalone="no"?>
<!DOCTYPE svg PUBLIC "-//W3C//DTD SVG 1.1//EN"
 "http://www.w3.org/Graphics/SVG/1.1/DTD/svg11.dtd">
<!-- Generated by graphviz version 2.46.1 (20210215.1649)
 -->
<!-- Title: xtb_mctc_systools::rdvar Pages: 1 -->
<!--zoomable 203 -->
<svg id="main" version="1.1" xmlns="http://www.w3.org/2000/svg" xmlns:xlink="http://www.w3.org/1999/xlink" xml:space="preserve" onload="init(evt)">
<style type="text/css"><![CDATA[
.edge:hover path { stroke: red; }
.edge:hover polygon { stroke: red; fill: red; }
]]></style>
<script type="text/javascript"><![CDATA[
var edges = document.getElementsByTagName('g');
if (edges && edges.length) {
  for (var i=0;i<edges.length;i++) {
    if (edges[i].id.substr(0,4)=='edge') {
      edges[i].setAttribute('class','edge');
    }
  }
}
]]></script>
        <defs>
                <circle id="rim" cx="0" cy="0" r="7"/>
                <circle id="rim2" cx="0" cy="0" r="3.5"/>
                <g id="zoomPlus">
                        <use xlink:href="#rim" fill="#404040">
                                <set attributeName="fill" to="#808080" begin="zoomplus.mouseover" end="zoomplus.mouseout"/>
                        </use>
                        <path d="M-4,0h8M0,-4v8" fill="none" stroke="white" stroke-width="1.5" pointer-events="none"/>
                </g>
                <g id="zoomMin">
                        <use xlink:href="#rim" fill="#404040">
                                <set attributeName="fill" to="#808080" begin="zoomminus.mouseover" end="zoomminus.mouseout"/>
                        </use>
                        <path d="M-4,0h8" fill="none" stroke="white" stroke-width="1.5" pointer-events="none"/>
                </g>
                <g id="dirArrow">
                        <path fill="none" stroke="white" stroke-width="1.5" d="M0,-3.0v7 M-2.5,-0.5L0,-3.0L2.5,-0.5"/>
                </g>
               <g id="resetDef">
                       <use xlink:href="#rim2" fill="#404040">
                               <set attributeName="fill" to="#808080" begin="reset.mouseover" end="reset.mouseout"/>
                       </use>
               </g>
        </defs>

<script type="text/javascript">
var viewWidth = 581;
var viewHeight = 203;
var sectionId = 'dynsection-5';
</script>
<script xlink:href="svgpan.js"/>
<svg id="graph" class="graph">
<g id="viewport">
<title>xtb_mctc_systools::rdvar</title>
<polygon fill="white" stroke="transparent" points="-4,4 -4,-198.5 577,-198.5 577,4 -4,4"/>
<!-- Node1 -->
<g id="node1" class="node">
<title>Node1</title>
<g id="a_node1"><a xlink:title=" ">
<polygon fill="#bfbfbf" stroke="black" points="471,-93.5 471,-123.5 573,-123.5 573,-93.5 471,-93.5"/>
<text text-anchor="start" x="479" y="-111.5" font-family="Helvetica,sans-Serif" font-size="10.00">xtb_mctc_systools::</text>
<text text-anchor="middle" x="522" y="-100.5" font-family="Helvetica,sans-Serif" font-size="10.00">rdvar</text>
</a>
</g>
</g>
<!-- Node2 -->
<g id="node2" class="node">
<title>Node2</title>
<g id="a_node2"><a xlink:href="namespacextb__extern__mopac.html#abf70d4a34b558c9c6fa141710cd6a26b" target="_top" xlink:title=" ">
<polygon fill="white" stroke="black" points="280,-175 280,-194 435,-194 435,-175 280,-175"/>
<text text-anchor="middle" x="357.5" y="-182" font-family="Helvetica,sans-Serif" font-size="10.00">xtb_extern_mopac::checkmopac</text>
</a>
</g>
</g>
<!-- Node1&#45;&gt;Node2 -->
<g id="edge1" class="edge">
<title>Node1&#45;&gt;Node2</title>
<path fill="none" stroke="midnightblue" d="M490.73,-129.26C474.68,-139.62 454.32,-151.78 435,-160.5 422.44,-166.17 408.15,-171.04 395.35,-174.89"/>
<polygon fill="midnightblue" stroke="midnightblue" points="492.73,-132.13 499.17,-123.72 488.89,-126.28 492.73,-132.13"/>
</g>
<!-- Node3 -->
<g id="node3" class="node">
<title>Node3</title>
<g id="a_node3"><a xlink:href="namespacextb__prog__main.html#a92b3b61ee04235e6343f652095682529" target="_top" xlink:title=" ">
<polygon fill="white" stroke="black" points="126,-118 126,-137 244,-137 244,-118 126,-118"/>
<text text-anchor="middle" x="185" y="-125" font-family="Helvetica,sans-Serif" font-size="10.00">xtb_prog_main::xtbmain</text>
</a>
</g>
</g>
<!-- Node1&#45;&gt;Node3 -->
<g id="edge9" class="edge">
<title>Node1&#45;&gt;Node3</title>
<path fill="none" stroke="midnightblue" d="M460.83,-123.53C452.21,-125.17 443.41,-126.58 435,-127.5 369.89,-134.61 294.64,-133.3 244.05,-131.05"/>
<polygon fill="midnightblue" stroke="midnightblue" points="461.72,-126.92 470.83,-121.5 460.33,-120.06 461.72,-126.92"/>
</g>
<!-- Node5 -->
<g id="node5" class="node">
<title>Node5</title>
<g id="a_node5"><a xlink:href="namespacextb__extern__orca.html#a3fc12de9e8291735f58a709be30fc5f8" target="_top" xlink:title=" ">
<polygon fill="white" stroke="black" points="290.5,-99 290.5,-118 424.5,-118 424.5,-99 290.5,-99"/>
<text text-anchor="middle" x="357.5" y="-106" font-family="Helvetica,sans-Serif" font-size="10.00">xtb_extern_orca::checkorca</text>
</a>
</g>
</g>
<!-- Node1&#45;&gt;Node5 -->
<g id="edge4" class="edge">
<title>Node1&#45;&gt;Node5</title>
<path fill="none" stroke="midnightblue" d="M460.75,-108.5C448.96,-108.5 436.54,-108.5 424.57,-108.5"/>
<polygon fill="midnightblue" stroke="midnightblue" points="460.92,-112 470.92,-108.5 460.92,-105 460.92,-112"/>
</g>
<!-- Node6 -->
<g id="node6" class="node">
<title>Node6</title>
<g id="a_node6"><a xlink:href="interfacextb__type__environment_1_1init.html#a2c847df1e0addfe035974c82ff1b1246" target="_top" xlink:title="Construct the calculation environment.">
<polygon fill="white" stroke="black" points="302,-49.5 302,-79.5 413,-79.5 413,-49.5 302,-49.5"/>
<text text-anchor="start" x="310" y="-67.5" font-family="Helvetica,sans-Serif" font-size="10.00">xtb_type_environment</text>
<text text-anchor="middle" x="357.5" y="-56.5" font-family="Helvetica,sans-Serif" font-size="10.00">::init::initenvironment</text>
</a>
</g>
</g>
<!-- Node1&#45;&gt;Node6 -->
<g id="edge6" class="edge">
<title>Node1&#45;&gt;Node6</title>
<path fill="none" stroke="midnightblue" d="M460.85,-92.21C445.25,-87.99 428.53,-83.46 413.22,-79.32"/>
<polygon fill="midnightblue" stroke="midnightblue" points="460.35,-95.7 470.92,-94.94 462.18,-88.95 460.35,-95.7"/>
</g>
<!-- Node7 -->
<g id="node7" class="node">
<title>Node7</title>
<g id="a_node7"><a xlink:href="namespacextb__printout.html#aca0db6a9ce83509b8eb4036795194dbc" target="_top" xlink:title=" ">
<polygon fill="white" stroke="black" points="310,-0.5 310,-30.5 405,-30.5 405,-0.5 310,-0.5"/>
<text text-anchor="start" x="318" y="-18.5" font-family="Helvetica,sans-Serif" font-size="10.00">xtb_printout::setup</text>
<text text-anchor="middle" x="357.5" y="-7.5" font-family="Helvetica,sans-Serif" font-size="10.00">_summary</text>
</a>
</g>
</g>
<!-- Node1&#45;&gt;Node7 -->
<g id="edge7" class="edge">
<title>Node1&#45;&gt;Node7</title>
<path fill="none" stroke="midnightblue" d="M497.91,-86.51C481.45,-71.81 458.21,-52.95 435,-40.5 425.77,-35.55 415.38,-31.35 405.3,-27.89"/>
<polygon fill="midnightblue" stroke="midnightblue" points="495.67,-89.2 505.42,-93.34 500.38,-84.02 495.67,-89.2"/>
</g>
<!-- Node2&#45;&gt;Node3 -->
<g id="edge2" class="edge">
<title>Node2&#45;&gt;Node3</title>
<path fill="none" stroke="midnightblue" d="M315.38,-171.88C303.9,-168.28 291.44,-164.3 280,-160.5 257.19,-152.92 231.43,-143.84 212.66,-137.13"/>
<polygon fill="midnightblue" stroke="midnightblue" points="314.57,-175.29 325.16,-174.93 316.65,-168.61 314.57,-175.29"/>
</g>
<!-- Node4 -->
<g id="node4" class="node">
<title>Node4</title>
<g id="a_node4"><a xlink:href="primary_8f90.html#a2a67903cf5be605c5b6d3c362c6a3c5c" target="_top" xlink:title="The primary driver for the xtb program package.">
<polygon fill="white" stroke="black" points="0,-118 0,-137 90,-137 90,-118 0,-118"/>
<text text-anchor="middle" x="45" y="-125" font-family="Helvetica,sans-Serif" font-size="10.00">xtb_prog_primary</text>
</a>
</g>
</g>
<!-- Node3&#45;&gt;Node4 -->
<g id="edge3" class="edge">
<title>Node3&#45;&gt;Node4</title>
<path fill="none" stroke="midnightblue" d="M115.73,-127.5C107.06,-127.5 98.37,-127.5 90.22,-127.5"/>
<polygon fill="midnightblue" stroke="midnightblue" points="115.88,-131 125.88,-127.5 115.88,-124 115.88,-131"/>
</g>
<!-- Node5&#45;&gt;Node3 -->
<g id="edge5" class="edge">
<title>Node5&#45;&gt;Node3</title>
<path fill="none" stroke="midnightblue" d="M280.05,-117.02C268.01,-118.36 255.73,-119.73 244.19,-121.02"/>
<polygon fill="midnightblue" stroke="midnightblue" points="280.54,-120.49 290.09,-115.9 279.77,-113.53 280.54,-120.49"/>
</g>
<!-- Node7&#45;&gt;Node3 -->
<g id="edge8" class="edge">
<title>Node7&#45;&gt;Node3</title>
<path fill="none" stroke="midnightblue" d="M300.22,-30.77C293.21,-33.57 286.29,-36.8 280,-40.5 243.19,-62.13 208.72,-100.25 193.79,-117.96"/>
<polygon fill="midnightblue" stroke="midnightblue" points="301.64,-33.98 309.8,-27.22 299.21,-27.41 301.64,-33.98"/>
</g>
</g>
</svg>
        <g id="navigator" transform="translate(0 0)" fill="#404254">
                <rect fill="#f2f5e9" fill-opacity="0.5" stroke="#606060" stroke-width=".5" x="0" y="0" width="60" height="60"/>
                <use id="zoomplus" xlink:href="#zoomPlus" x="17" y="9" onmousedown="handleZoom(evt,'in')"/>
                <use id="zoomminus" xlink:href="#zoomMin" x="42" y="9" onmousedown="handleZoom(evt,'out')"/>
                <use id="reset" xlink:href="#resetDef" x="30" y="36" onmousedown="handleReset()"/>
                <g id="arrowUp" xlink:href="#dirArrow" transform="translate(30 24)" onmousedown="handlePan(0,-1)">
                  <use xlink:href="#rim" fill="#404040">
                        <set attributeName="fill" to="#808080" begin="arrowUp.mouseover" end="arrowUp.mouseout"/>
                  </use>
                  <path fill="none" stroke="white" stroke-width="1.5" d="M0,-3.0v7 M-2.5,-0.5L0,-3.0L2.5,-0.5"/>
                </g>
                <g id="arrowRight" xlink:href="#dirArrow" transform="rotate(90) translate(36 -43)" onmousedown="handlePan(1,0)">
                  <use xlink:href="#rim" fill="#404040">
                        <set attributeName="fill" to="#808080" begin="arrowRight.mouseover" end="arrowRight.mouseout"/>
                  </use>
                  <path fill="none" stroke="white" stroke-width="1.5" d="M0,-3.0v7 M-2.5,-0.5L0,-3.0L2.5,-0.5"/>
                </g>
                <g id="arrowDown" xlink:href="#dirArrow" transform="rotate(180) translate(-30 -48)" onmousedown="handlePan(0,1)">
                  <use xlink:href="#rim" fill="#404040">
                        <set attributeName="fill" to="#808080" begin="arrowDown.mouseover" end="arrowDown.mouseout"/>
                  </use>
                  <path fill="none" stroke="white" stroke-width="1.5" d="M0,-3.0v7 M-2.5,-0.5L0,-3.0L2.5,-0.5"/>
                </g>
                <g id="arrowLeft" xlink:href="#dirArrow" transform="rotate(270) translate(-36 17)" onmousedown="handlePan(-1,0)">
                  <use xlink:href="#rim" fill="#404040">
                        <set attributeName="fill" to="#808080" begin="arrowLeft.mouseover" end="arrowLeft.mouseout"/>
                  </use>
                  <path fill="none" stroke="white" stroke-width="1.5" d="M0,-3.0v7 M-2.5,-0.5L0,-3.0L2.5,-0.5"/>
                </g>
        </g>
        <svg viewBox="0 0 15 15" width="100%" height="30px" preserveAspectRatio="xMaxYMin meet">
         <g id="arrow_out" transform="scale(0.3 0.3)">
          <a xlink:href="namespacextb__mctc__systools_a57cd5fce409355307c155415a95fe005_icgraph_org.svg" target="_base">
           <rect id="button" ry="5" rx="5" y="6" x="6" height="38" width="38"
                fill="#f2f5e9" fill-opacity="0.5" stroke="#606060" stroke-width="1.0"/>
           <path id="arrow"
             d="M 11.500037,31.436501 C 11.940474,20.09759 22.043105,11.32322 32.158766,21.979434 L 37.068811,17.246167 C 37.068811,17.246167 37.088388,32 37.088388,32 L 22.160133,31.978069 C 22.160133,31.978069 26.997745,27.140456 26.997745,27.140456 C 18.528582,18.264221 13.291696,25.230495 11.500037,31.436501 z"
             style="fill:#404040;"/>
          </a>
         </g>
        </svg>
</svg>
