<?xml version="1.0" encoding="UTF-8" standalone="no"?>
<!DOCTYPE svg PUBLIC "-//W3C//DTD SVG 1.1//EN"
 "http://www.w3.org/Graphics/SVG/1.1/DTD/svg11.dtd">
<!-- Generated by graphviz version 2.46.1 (20210215.1649)
 -->
<!-- Title: xtb_constrainpot::constrain_pot Pages: 1 -->
<!--zoomable 194 -->
<svg id="main" version="1.1" xmlns="http://www.w3.org/2000/svg" xmlns:xlink="http://www.w3.org/1999/xlink" xml:space="preserve" onload="init(evt)">
<style type="text/css"><![CDATA[
.edge:hover path { stroke: red; }
.edge:hover polygon { stroke: red; fill: red; }
]]></style>
<script type="text/javascript"><![CDATA[
var edges = document.getElementsByTagName('g');
if (edges && edges.length) {
  for (var i=0;i<edges.length;i++) {
    if (edges[i].id.substr(0,4)=='edge') {
      edges[i].setAttribute('class','edge');
    }
  }
}
]]></script>
        <defs>
                <circle id="rim" cx="0" cy="0" r="7"/>
                <circle id="rim2" cx="0" cy="0" r="3.5"/>
                <g id="zoomPlus">
                        <use xlink:href="#rim" fill="#404040">
                                <set attributeName="fill" to="#808080" begin="zoomplus.mouseover" end="zoomplus.mouseout"/>
                        </use>
                        <path d="M-4,0h8M0,-4v8" fill="none" stroke="white" stroke-width="1.5" pointer-events="none"/>
                </g>
                <g id="zoomMin">
                        <use xlink:href="#rim" fill="#404040">
                                <set attributeName="fill" to="#808080" begin="zoomminus.mouseover" end="zoomminus.mouseout"/>
                        </use>
                        <path d="M-4,0h8" fill="none" stroke="white" stroke-width="1.5" pointer-events="none"/>
                </g>
                <g id="dirArrow">
                        <path fill="none" stroke="white" stroke-width="1.5" d="M0,-3.0v7 M-2.5,-0.5L0,-3.0L2.5,-0.5"/>
                </g>
               <g id="resetDef">
                       <use xlink:href="#rim2" fill="#404040">
                               <set attributeName="fill" to="#808080" begin="reset.mouseover" end="reset.mouseout"/>
                       </use>
               </g>
        </defs>

<script type="text/javascript">
var viewWidth = 813;
var viewHeight = 194;
var sectionId = 'dynsection-7';
</script>
<script xlink:href="svgpan.js"/>
<svg id="graph" class="graph">
<g id="viewport">
<title>xtb_constrainpot::constrain_pot</title>
<polygon fill="white" stroke="transparent" points="-4,4 -4,-190 809,-190 809,4 -4,4"/>
<!-- Node1 -->
<g id="node1" class="node">
<title>Node1</title>
<g id="a_node1"><a xlink:title=" ">
<polygon fill="#bfbfbf" stroke="black" points="0,-60.5 0,-79.5 151,-79.5 151,-60.5 0,-60.5"/>
<text text-anchor="middle" x="75.5" y="-67.5" font-family="Helvetica,sans-Serif" font-size="10.00">xtb_constrainpot::constrain_pot</text>
</a>
</g>
</g>
<!-- Node2 -->
<g id="node2" class="node">
<title>Node2</title>
<g id="a_node2"><a xlink:href="namespacextb__constrainpot.html#aee05a132cdbd72139dc12ad55378e5c6" target="_top" xlink:title=" ">
<polygon fill="white" stroke="black" points="197.5,-126 197.5,-156 329.5,-156 329.5,-126 197.5,-126"/>
<text text-anchor="start" x="205.5" y="-144" font-family="Helvetica,sans-Serif" font-size="10.00">xtb_constrainpot::constrain</text>
<text text-anchor="middle" x="263.5" y="-133" font-family="Helvetica,sans-Serif" font-size="10.00">_angle</text>
</a>
</g>
</g>
<!-- Node1&#45;&gt;Node2 -->
<g id="edge1" class="edge">
<title>Node1&#45;&gt;Node2</title>
<path fill="none" stroke="midnightblue" d="M97.45,-79.61C119.49,-89.56 155.33,-105.26 187,-117 192.16,-118.91 197.55,-120.81 202.97,-122.66"/>
<polygon fill="midnightblue" stroke="midnightblue" points="202.13,-126.07 212.73,-125.91 204.35,-119.43 202.13,-126.07"/>
</g>
<!-- Node5 -->
<g id="node5" class="node">
<title>Node5</title>
<g id="a_node5"><a xlink:href="namespacextb__constrainpot.html#a07cff63f1e1c8aa4556f80b093011335" target="_top" xlink:title=" ">
<polygon fill="white" stroke="black" points="197.5,-77 197.5,-107 329.5,-107 329.5,-77 197.5,-77"/>
<text text-anchor="start" x="205.5" y="-95" font-family="Helvetica,sans-Serif" font-size="10.00">xtb_constrainpot::constrain</text>
<text text-anchor="middle" x="263.5" y="-84" font-family="Helvetica,sans-Serif" font-size="10.00">_dihedral</text>
</a>
</g>
</g>
<!-- Node1&#45;&gt;Node5 -->
<g id="edge4" class="edge">
<title>Node1&#45;&gt;Node5</title>
<path fill="none" stroke="midnightblue" d="M151.08,-78.82C163.08,-80.24 175.51,-81.71 187.52,-83.13"/>
<polygon fill="midnightblue" stroke="midnightblue" points="187.15,-86.61 197.5,-84.31 187.98,-79.66 187.15,-86.61"/>
</g>
<!-- Node11 -->
<g id="node11" class="node">
<title>Node11</title>
<g id="a_node11"><a xlink:href="namespacextb__constrainpot.html#a9fcbaa23bce9aadbe621da4b688e2a76" target="_top" xlink:title=" ">
<polygon fill="white" stroke="black" points="187,-38.5 187,-57.5 340,-57.5 340,-38.5 187,-38.5"/>
<text text-anchor="middle" x="263.5" y="-45.5" font-family="Helvetica,sans-Serif" font-size="10.00">xtb_constrainpot::constrain_dist</text>
</a>
</g>
</g>
<!-- Node1&#45;&gt;Node11 -->
<g id="edge13" class="edge">
<title>Node1&#45;&gt;Node11</title>
<path fill="none" stroke="midnightblue" d="M151.08,-61.18C159.58,-60.17 168.29,-59.14 176.92,-58.12"/>
<polygon fill="midnightblue" stroke="midnightblue" points="177.47,-61.58 186.99,-56.93 176.65,-54.63 177.47,-61.58"/>
</g>
<!-- Node12 -->
<g id="node12" class="node">
<title>Node12</title>
<g id="a_node12"><a xlink:href="namespacextb__constrainpot.html#aab4813f6ef3f6d77c7b0fcaeb7b49fe7" target="_top" xlink:title=" ">
<polygon fill="white" stroke="black" points="187,-0.5 187,-19.5 340,-19.5 340,-0.5 187,-0.5"/>
<text text-anchor="middle" x="263.5" y="-7.5" font-family="Helvetica,sans-Serif" font-size="10.00">xtb_constrainpot::constrain_pos</text>
</a>
</g>
</g>
<!-- Node1&#45;&gt;Node12 -->
<g id="edge14" class="edge">
<title>Node1&#45;&gt;Node12</title>
<path fill="none" stroke="midnightblue" d="M99.95,-60.45C122.15,-51.62 156.51,-38.46 187,-29 194.8,-26.58 203.13,-24.24 211.29,-22.09"/>
<polygon fill="midnightblue" stroke="midnightblue" points="212.32,-25.43 221.13,-19.55 210.57,-18.66 212.32,-25.43"/>
</g>
<!-- Node3 -->
<g id="node3" class="node">
<title>Node3</title>
<g id="a_node3"><a xlink:href="namespacextb__basic__geo.html#abb38f4d2470dee94794c991509a85c6f" target="_top" xlink:title=" ">
<polygon fill="white" stroke="black" points="376,-166.5 376,-185.5 486,-185.5 486,-166.5 376,-166.5"/>
<text text-anchor="middle" x="431" y="-173.5" font-family="Helvetica,sans-Serif" font-size="10.00">xtb_basic_geo::crprod</text>
</a>
</g>
</g>
<!-- Node2&#45;&gt;Node3 -->
<g id="edge2" class="edge">
<title>Node2&#45;&gt;Node3</title>
<path fill="none" stroke="midnightblue" d="M329.91,-154.83C344.89,-158 360.65,-161.33 375.13,-164.4"/>
<polygon fill="midnightblue" stroke="midnightblue" points="374.42,-167.82 384.93,-166.47 375.87,-160.97 374.42,-167.82"/>
</g>
<!-- Node4 -->
<g id="node4" class="node">
<title>Node4</title>
<g id="a_node4"><a xlink:href="namespacextb__basic__geo.html#abde6eb97f003096d4a102534eb767967" target="_top" xlink:title=" ">
<polygon fill="white" stroke="black" points="376,-128.5 376,-147.5 486,-147.5 486,-128.5 376,-128.5"/>
<text text-anchor="middle" x="431" y="-135.5" font-family="Helvetica,sans-Serif" font-size="10.00">xtb_basic_geo::impsc</text>
</a>
</g>
</g>
<!-- Node2&#45;&gt;Node4 -->
<g id="edge3" class="edge">
<title>Node2&#45;&gt;Node4</title>
<path fill="none" stroke="midnightblue" d="M329.91,-139.81C341.72,-139.6 354.02,-139.38 365.8,-139.16"/>
<polygon fill="midnightblue" stroke="midnightblue" points="366.05,-142.66 375.98,-138.98 365.92,-135.66 366.05,-142.66"/>
</g>
<!-- Node6 -->
<g id="node6" class="node">
<title>Node6</title>
<g id="a_node6"><a xlink:href="namespacextb__basic__geo.html#a46453de5c31b3d8b0fca71de0f1a9b30" target="_top" xlink:title=" ">
<polygon fill="white" stroke="black" points="376,-85.5 376,-104.5 486,-104.5 486,-85.5 376,-85.5"/>
<text text-anchor="middle" x="431" y="-92.5" font-family="Helvetica,sans-Serif" font-size="10.00">xtb_basic_geo::dphidr</text>
</a>
</g>
</g>
<!-- Node5&#45;&gt;Node6 -->
<g id="edge5" class="edge">
<title>Node5&#45;&gt;Node6</title>
<path fill="none" stroke="midnightblue" d="M329.91,-93.19C341.72,-93.4 354.02,-93.62 365.8,-93.84"/>
<polygon fill="midnightblue" stroke="midnightblue" points="365.92,-97.34 375.98,-94.02 366.05,-90.34 365.92,-97.34"/>
</g>
<!-- Node9 -->
<g id="node9" class="node">
<title>Node9</title>
<g id="a_node9"><a xlink:href="namespacextb__basic__geo.html#ad8c2f50bb68be7fd81ece4eb6f5b2ae8" target="_top" xlink:title=" ">
<polygon fill="white" stroke="black" points="377,-47.5 377,-66.5 485,-66.5 485,-47.5 377,-47.5"/>
<text text-anchor="middle" x="431" y="-54.5" font-family="Helvetica,sans-Serif" font-size="10.00">xtb_basic_geo::valijkl</text>
</a>
</g>
</g>
<!-- Node5&#45;&gt;Node9 -->
<g id="edge8" class="edge">
<title>Node5&#45;&gt;Node9</title>
<path fill="none" stroke="midnightblue" d="M329.91,-78.17C344.89,-75 360.65,-71.67 375.13,-68.6"/>
<polygon fill="midnightblue" stroke="midnightblue" points="375.87,-72.03 384.93,-66.53 374.42,-65.18 375.87,-72.03"/>
</g>
<!-- Node7 -->
<g id="node7" class="node">
<title>Node7</title>
<g id="a_node7"><a xlink:href="namespacextb__basic__geo.html#a6e8e92267164a5a45bac607201944cc0" target="_top" xlink:title=" ">
<polygon fill="white" stroke="black" points="522,-85.5 522,-104.5 648,-104.5 648,-85.5 522,-85.5"/>
<text text-anchor="middle" x="585" y="-92.5" font-family="Helvetica,sans-Serif" font-size="10.00">xtb_basic_geo::crossprod</text>
</a>
</g>
</g>
<!-- Node6&#45;&gt;Node7 -->
<g id="edge6" class="edge">
<title>Node6&#45;&gt;Node7</title>
<path fill="none" stroke="midnightblue" d="M486.02,-95C494.36,-95 503.09,-95 511.75,-95"/>
<polygon fill="midnightblue" stroke="midnightblue" points="511.86,-98.5 521.86,-95 511.86,-91.5 511.86,-98.5"/>
</g>
<!-- Node8 -->
<g id="node8" class="node">
<title>Node8</title>
<g id="a_node8"><a xlink:href="namespacextb__basic__geo.html#a9dd5846373471f74781248b52d92baed" target="_top" xlink:title=" ">
<polygon fill="white" stroke="black" points="684,-47.5 684,-66.5 805,-66.5 805,-47.5 684,-47.5"/>
<text text-anchor="middle" x="744.5" y="-54.5" font-family="Helvetica,sans-Serif" font-size="10.00">xtb_basic_geo::vecnorm</text>
</a>
</g>
</g>
<!-- Node6&#45;&gt;Node8 -->
<g id="edge7" class="edge">
<title>Node6&#45;&gt;Node8</title>
<path fill="none" stroke="midnightblue" d="M463.39,-104.57C505.99,-116.03 584.13,-131.61 648,-114 676.79,-106.06 705.66,-86.9 724,-72.99"/>
<polygon fill="midnightblue" stroke="midnightblue" points="726.38,-75.56 732.11,-66.65 722.07,-70.05 726.38,-75.56"/>
</g>
<!-- Node9&#45;&gt;Node7 -->
<g id="edge9" class="edge">
<title>Node9&#45;&gt;Node7</title>
<path fill="none" stroke="midnightblue" d="M470.36,-66.59C490.32,-71.58 514.93,-77.73 536.13,-83.03"/>
<polygon fill="midnightblue" stroke="midnightblue" points="535.37,-86.45 545.92,-85.48 537.07,-79.66 535.37,-86.45"/>
</g>
<!-- Node9&#45;&gt;Node8 -->
<g id="edge12" class="edge">
<title>Node9&#45;&gt;Node8</title>
<path fill="none" stroke="midnightblue" d="M485.19,-57C537.24,-57 616.79,-57 673.85,-57"/>
<polygon fill="midnightblue" stroke="midnightblue" points="673.88,-60.5 683.88,-57 673.88,-53.5 673.88,-60.5"/>
</g>
<!-- Node10 -->
<g id="node10" class="node">
<title>Node10</title>
<g id="a_node10"><a xlink:href="namespacextb__basic__geo.html#ac6d22aed86cc153f217f39447a2701cc" target="_top" xlink:title=" ">
<polygon fill="white" stroke="black" points="532,-9.5 532,-28.5 638,-28.5 638,-9.5 532,-9.5"/>
<text text-anchor="middle" x="585" y="-16.5" font-family="Helvetica,sans-Serif" font-size="10.00">xtb_basic_geo::valijk</text>
</a>
</g>
</g>
<!-- Node9&#45;&gt;Node10 -->
<g id="edge10" class="edge">
<title>Node9&#45;&gt;Node10</title>
<path fill="none" stroke="midnightblue" d="M470.36,-47.41C490.32,-42.42 514.93,-36.27 536.13,-30.97"/>
<polygon fill="midnightblue" stroke="midnightblue" points="537.07,-34.34 545.92,-28.52 535.37,-27.55 537.07,-34.34"/>
</g>
<!-- Node10&#45;&gt;Node8 -->
<g id="edge11" class="edge">
<title>Node10&#45;&gt;Node8</title>
<path fill="none" stroke="midnightblue" d="M625.74,-28.59C646.53,-33.6 672.16,-39.79 694.2,-45.11"/>
<polygon fill="midnightblue" stroke="midnightblue" points="693.5,-48.54 704.04,-47.48 695.14,-41.73 693.5,-48.54"/>
</g>
</g>
</svg>
        <g id="navigator" transform="translate(0 0)" fill="#404254">
                <rect fill="#f2f5e9" fill-opacity="0.5" stroke="#606060" stroke-width=".5" x="0" y="0" width="60" height="60"/>
                <use id="zoomplus" xlink:href="#zoomPlus" x="17" y="9" onmousedown="handleZoom(evt,'in')"/>
                <use id="zoomminus" xlink:href="#zoomMin" x="42" y="9" onmousedown="handleZoom(evt,'out')"/>
                <use id="reset" xlink:href="#resetDef" x="30" y="36" onmousedown="handleReset()"/>
                <g id="arrowUp" xlink:href="#dirArrow" transform="translate(30 24)" onmousedown="handlePan(0,-1)">
                  <use xlink:href="#rim" fill="#404040">
                        <set attributeName="fill" to="#808080" begin="arrowUp.mouseover" end="arrowUp.mouseout"/>
                  </use>
                  <path fill="none" stroke="white" stroke-width="1.5" d="M0,-3.0v7 M-2.5,-0.5L0,-3.0L2.5,-0.5"/>
                </g>
                <g id="arrowRight" xlink:href="#dirArrow" transform="rotate(90) translate(36 -43)" onmousedown="handlePan(1,0)">
                  <use xlink:href="#rim" fill="#404040">
                        <set attributeName="fill" to="#808080" begin="arrowRight.mouseover" end="arrowRight.mouseout"/>
                  </use>
                  <path fill="none" stroke="white" stroke-width="1.5" d="M0,-3.0v7 M-2.5,-0.5L0,-3.0L2.5,-0.5"/>
                </g>
                <g id="arrowDown" xlink:href="#dirArrow" transform="rotate(180) translate(-30 -48)" onmousedown="handlePan(0,1)">
                  <use xlink:href="#rim" fill="#404040">
                        <set attributeName="fill" to="#808080" begin="arrowDown.mouseover" end="arrowDown.mouseout"/>
                  </use>
                  <path fill="none" stroke="white" stroke-width="1.5" d="M0,-3.0v7 M-2.5,-0.5L0,-3.0L2.5,-0.5"/>
                </g>
                <g id="arrowLeft" xlink:href="#dirArrow" transform="rotate(270) translate(-36 17)" onmousedown="handlePan(-1,0)">
                  <use xlink:href="#rim" fill="#404040">
                        <set attributeName="fill" to="#808080" begin="arrowLeft.mouseover" end="arrowLeft.mouseout"/>
                  </use>
                  <path fill="none" stroke="white" stroke-width="1.5" d="M0,-3.0v7 M-2.5,-0.5L0,-3.0L2.5,-0.5"/>
                </g>
        </g>
        <svg viewBox="0 0 15 15" width="100%" height="30px" preserveAspectRatio="xMaxYMin meet">
         <g id="arrow_out" transform="scale(0.3 0.3)">
          <a xlink:href="namespacextb__constrainpot_ad9b8afcae411277c3328be0e3ff8c8b4_cgraph_org.svg" target="_base">
           <rect id="button" ry="5" rx="5" y="6" x="6" height="38" width="38"
                fill="#f2f5e9" fill-opacity="0.5" stroke="#606060" stroke-width="1.0"/>
           <path id="arrow"
             d="M 11.500037,31.436501 C 11.940474,20.09759 22.043105,11.32322 32.158766,21.979434 L 37.068811,17.246167 C 37.068811,17.246167 37.088388,32 37.088388,32 L 22.160133,31.978069 C 22.160133,31.978069 26.997745,27.140456 26.997745,27.140456 C 18.528582,18.264221 13.291696,25.230495 11.500037,31.436501 z"
             style="fill:#404040;"/>
          </a>
         </g>
        </svg>
</svg>
