<?xml version="1.0" encoding="UTF-8" standalone="no"?>
<!DOCTYPE svg PUBLIC "-//W3C//DTD SVG 1.1//EN"
 "http://www.w3.org/Graphics/SVG/1.1/DTD/svg11.dtd">
<!-- Generated by graphviz version 2.43.0 (0)
 -->
<!-- Title: xtb_relaxation_engine::inertial_relax Pages: 1 -->
<svg width="966pt" height="547pt"
 viewBox="0.00 0.00 966.00 546.50" xmlns="http://www.w3.org/2000/svg" xmlns:xlink="http://www.w3.org/1999/xlink">
<g id="graph0" class="graph" transform="scale(1 1) rotate(0) translate(4 542.5)">
<title>xtb_relaxation_engine::inertial_relax</title>
<polygon fill="white" stroke="transparent" points="-4,4 -4,-542.5 962,-542.5 962,4 -4,4"/>
<!-- Node1 -->
<g id="node1" class="node">
<title>Node1</title>
<g id="a_node1"><a xlink:title="backend implementation of the fast inertial relaxation engine">
<polygon fill="#bfbfbf" stroke="black" points="0,-388.5 0,-418.5 125,-418.5 125,-388.5 0,-388.5"/>
<text text-anchor="start" x="8" y="-406.5" font-family="Helvetica,sans-Serif" font-size="10.00">xtb_relaxation_engine</text>
<text text-anchor="middle" x="62.5" y="-395.5" font-family="Helvetica,sans-Serif" font-size="10.00">::inertial_relax</text>
</a>
</g>
</g>
<!-- Node2 -->
<g id="node2" class="node">
<title>Node2</title>
<g id="a_node2"><a xlink:href="namespacextb__bfgs.html#a77f7759e19312134ef5c84e2fcc1ce76" target="_top" xlink:title=" ">
<polygon fill="white" stroke="black" points="196,-519 196,-538 282,-538 282,-519 196,-519"/>
<text text-anchor="middle" x="239" y="-526" font-family="Helvetica,sans-Serif" font-size="10.00">xtb_bfgs::bfgs</text>
</a>
</g>
</g>
<!-- Node1&#45;&gt;Node2 -->
<g id="edge1" class="edge">
<title>Node1&#45;&gt;Node2</title>
<path fill="none" stroke="midnightblue" d="M73.16,-418.76C88.72,-442.04 121.63,-486.19 161,-509.5 168.66,-514.04 177.37,-517.49 186.1,-520.13"/>
<polygon fill="midnightblue" stroke="midnightblue" points="185.35,-523.55 195.91,-522.76 187.16,-516.79 185.35,-523.55"/>
</g>
<!-- Node3 -->
<g id="node3" class="node">
<title>Node3</title>
<g id="a_node3"><a xlink:href="neighbor_8f90.html#a5df91039130b0032e4f6ce1853b1af8a" target="_top" xlink:title=" ">
<polygon fill="white" stroke="black" points="222,-481 222,-500 256,-500 256,-481 222,-481"/>
<text text-anchor="middle" x="239" y="-488" font-family="Helvetica,sans-Serif" font-size="10.00">chk</text>
</a>
</g>
</g>
<!-- Node1&#45;&gt;Node3 -->
<g id="edge2" class="edge">
<title>Node1&#45;&gt;Node3</title>
<path fill="none" stroke="midnightblue" d="M83.48,-418.73C102.55,-432.69 132.53,-453.17 161,-466.5 177.38,-474.17 196.84,-480.21 212.1,-484.31"/>
<polygon fill="midnightblue" stroke="midnightblue" points="211.34,-487.73 221.9,-486.84 213.09,-480.95 211.34,-487.73"/>
</g>
<!-- Node4 -->
<g id="node4" class="node">
<title>Node4</title>
<g id="a_node4"><a xlink:href="symmetry__i_8c.html#aa77c823a9fc018ae1d437369708d8727" target="_top" xlink:title=" ">
<polygon fill="white" stroke="black" points="423,-462 423,-481 459,-481 459,-462 423,-462"/>
<text text-anchor="middle" x="441" y="-469" font-family="Helvetica,sans-Serif" font-size="10.00">true</text>
</a>
</g>
</g>
<!-- Node1&#45;&gt;Node4 -->
<g id="edge8" class="edge">
<title>Node1&#45;&gt;Node4</title>
<path fill="none" stroke="midnightblue" d="M107.26,-418.63C123.92,-423.95 143.19,-429.57 161,-433.5 252.17,-453.6 362.59,-464.86 412.8,-469.28"/>
<polygon fill="midnightblue" stroke="midnightblue" points="412.58,-472.77 422.85,-470.14 413.18,-465.8 412.58,-472.77"/>
</g>
<!-- Node5 -->
<g id="node5" class="node">
<title>Node5</title>
<g id="a_node5"><a xlink:href="namespacextb__relaxation__engine.html#aa9852bacf59bedc6ffd9f5a9a3bfec41" target="_top" xlink:title="obtain preconditioner by solving P·x = y.">
<polygon fill="white" stroke="black" points="176.5,-383 176.5,-424 301.5,-424 301.5,-383 176.5,-383"/>
<text text-anchor="start" x="184.5" y="-412" font-family="Helvetica,sans-Serif" font-size="10.00">xtb_relaxation_engine</text>
<text text-anchor="start" x="184.5" y="-401" font-family="Helvetica,sans-Serif" font-size="10.00">::get_preconditioner</text>
<text text-anchor="middle" x="239" y="-390" font-family="Helvetica,sans-Serif" font-size="10.00">_metric</text>
</a>
</g>
</g>
<!-- Node1&#45;&gt;Node5 -->
<g id="edge4" class="edge">
<title>Node1&#45;&gt;Node5</title>
<path fill="none" stroke="midnightblue" d="M125.02,-403.5C138.31,-403.5 152.48,-403.5 166.13,-403.5"/>
<polygon fill="midnightblue" stroke="midnightblue" points="166.45,-407 176.45,-403.5 166.45,-400 166.45,-407"/>
</g>
<!-- Node6 -->
<g id="node6" class="node">
<title>Node6</title>
<g id="a_node6"><a xlink:href="namespacextb__pbc__tools.html#ad22c96cf682e0afadb811494da08cde4" target="_top" xlink:title="Performs a direct calculation of the inverse of a 3×3 matrix.">
<polygon fill="white" stroke="black" points="184,-333.5 184,-363.5 294,-363.5 294,-333.5 184,-333.5"/>
<text text-anchor="start" x="192" y="-351.5" font-family="Helvetica,sans-Serif" font-size="10.00">xtb_pbc_tools::mat</text>
<text text-anchor="middle" x="239" y="-340.5" font-family="Helvetica,sans-Serif" font-size="10.00">_inv_3x3</text>
</a>
</g>
</g>
<!-- Node1&#45;&gt;Node6 -->
<g id="edge5" class="edge">
<title>Node1&#45;&gt;Node6</title>
<path fill="none" stroke="midnightblue" d="M111.18,-388.47C132.63,-381.71 158.13,-373.68 180.61,-366.59"/>
<polygon fill="midnightblue" stroke="midnightblue" points="181.89,-369.86 190.37,-363.51 179.79,-363.18 181.89,-369.86"/>
</g>
<!-- Node8 -->
<g id="node8" class="node">
<title>Node8</title>
<g id="a_node8"><a xlink:href="namespacextb__pbc__tools.html#afd9377b0c4ae07d38163ecf5a6c4a8e8" target="_top" xlink:title=" ">
<polygon fill="white" stroke="black" points="179,-284.5 179,-314.5 299,-314.5 299,-284.5 179,-284.5"/>
<text text-anchor="start" x="187" y="-302.5" font-family="Helvetica,sans-Serif" font-size="10.00">xtb_pbc_tools::sigma</text>
<text text-anchor="middle" x="239" y="-291.5" font-family="Helvetica,sans-Serif" font-size="10.00">_to_latgrad</text>
</a>
</g>
</g>
<!-- Node1&#45;&gt;Node8 -->
<g id="edge7" class="edge">
<title>Node1&#45;&gt;Node8</title>
<path fill="none" stroke="midnightblue" d="M78.42,-388.42C96.52,-370.87 128.64,-342.07 161,-324.5 165,-322.33 169.22,-320.31 173.54,-318.43"/>
<polygon fill="midnightblue" stroke="midnightblue" points="175.15,-321.55 183.11,-314.56 172.52,-315.07 175.15,-321.55"/>
</g>
<!-- Node9 -->
<g id="node9" class="node">
<title>Node9</title>
<g id="a_node9"><a xlink:href="namespacextb__io__writer.html#ae62f58fb1a818b9986af6af30a759ba8" target="_top" xlink:title=" ">
<polygon fill="white" stroke="black" points="161,-197 161,-216 317,-216 317,-197 161,-197"/>
<text text-anchor="middle" x="239" y="-204" font-family="Helvetica,sans-Serif" font-size="10.00">xtb_io_writer::writemolecule</text>
</a>
</g>
</g>
<!-- Node1&#45;&gt;Node9 -->
<g id="edge9" class="edge">
<title>Node1&#45;&gt;Node9</title>
<path fill="none" stroke="midnightblue" d="M73.75,-388.19C90.64,-363.41 125.94,-313.47 161,-275.5 179.04,-255.96 201.99,-235.92 218.13,-222.51"/>
<polygon fill="midnightblue" stroke="midnightblue" points="220.38,-225.19 225.88,-216.14 215.93,-219.78 220.38,-225.19"/>
</g>
<!-- Node3&#45;&gt;Node4 -->
<g id="edge3" class="edge">
<title>Node3&#45;&gt;Node4</title>
<path fill="none" stroke="midnightblue" d="M256.03,-488.98C290.14,-485.74 370.24,-478.13 412.61,-474.1"/>
<polygon fill="midnightblue" stroke="midnightblue" points="413.14,-477.57 422.76,-473.14 412.48,-470.6 413.14,-477.57"/>
</g>
<!-- Node7 -->
<g id="node7" class="node">
<title>Node7</title>
<g id="a_node7"><a xlink:href="namespacextb__pbc__tools.html#af5c425099fa1f9ef165278c21e54d8b7" target="_top" xlink:title="determinat of 3×3 matrix">
<polygon fill="white" stroke="black" points="386,-382.5 386,-412.5 496,-412.5 496,-382.5 386,-382.5"/>
<text text-anchor="start" x="394" y="-400.5" font-family="Helvetica,sans-Serif" font-size="10.00">xtb_pbc_tools::mat</text>
<text text-anchor="middle" x="441" y="-389.5" font-family="Helvetica,sans-Serif" font-size="10.00">_det_3x3</text>
</a>
</g>
</g>
<!-- Node6&#45;&gt;Node7 -->
<g id="edge6" class="edge">
<title>Node6&#45;&gt;Node7</title>
<path fill="none" stroke="midnightblue" d="M294.12,-361.76C319.36,-367.94 349.57,-375.34 375.94,-381.8"/>
<polygon fill="midnightblue" stroke="midnightblue" points="375.29,-385.25 385.83,-384.23 376.95,-378.45 375.29,-385.25"/>
</g>
<!-- Node10 -->
<g id="node10" class="node">
<title>Node10</title>
<g id="a_node10"><a xlink:href="namespacextb__io__writer__turbomole.html#a4270ca3b27d08bb4922f89cff2235d17" target="_top" xlink:title=" ">
<polygon fill="white" stroke="black" points="373,-333.5 373,-363.5 509,-363.5 509,-333.5 373,-333.5"/>
<text text-anchor="start" x="381" y="-351.5" font-family="Helvetica,sans-Serif" font-size="10.00">xtb_io_writer_turbomole</text>
<text text-anchor="middle" x="441" y="-340.5" font-family="Helvetica,sans-Serif" font-size="10.00">::writemoleculecoord</text>
</a>
</g>
</g>
<!-- Node9&#45;&gt;Node10 -->
<g id="edge10" class="edge">
<title>Node9&#45;&gt;Node10</title>
<path fill="none" stroke="midnightblue" d="M252.18,-216.08C267.98,-228.81 296.01,-252.37 317,-275.5 335.16,-295.51 330.74,-309.17 353,-324.5 356.32,-326.78 359.84,-328.85 363.51,-330.72"/>
<polygon fill="midnightblue" stroke="midnightblue" points="362.3,-334.02 372.85,-334.98 365.2,-327.65 362.3,-334.02"/>
</g>
<!-- Node11 -->
<g id="node11" class="node">
<title>Node11</title>
<g id="a_node11"><a xlink:href="namespacextb__io__writer__gaussian.html#a9df0a62fac40dffa6026163978a2aea3" target="_top" xlink:title=" ">
<polygon fill="white" stroke="black" points="353,-284.5 353,-314.5 529,-314.5 529,-284.5 353,-284.5"/>
<text text-anchor="start" x="361" y="-302.5" font-family="Helvetica,sans-Serif" font-size="10.00">xtb_io_writer_gaussian</text>
<text text-anchor="middle" x="441" y="-291.5" font-family="Helvetica,sans-Serif" font-size="10.00">::writemoleculegaussianexternal</text>
</a>
</g>
</g>
<!-- Node9&#45;&gt;Node11 -->
<g id="edge11" class="edge">
<title>Node9&#45;&gt;Node11</title>
<path fill="none" stroke="midnightblue" d="M252.91,-216.05C273.24,-230.71 314.4,-258.78 353,-275.5 357.64,-277.51 362.5,-279.4 367.44,-281.16"/>
<polygon fill="midnightblue" stroke="midnightblue" points="366.42,-284.51 377.02,-284.39 368.66,-277.87 366.42,-284.51"/>
</g>
<!-- Node12 -->
<g id="node12" class="node">
<title>Node12</title>
<g id="a_node12"><a xlink:href="namespacextb__io__writer__genformat.html#a1810561c53a9646168270599b5046a16" target="_top" xlink:title=" ">
<polygon fill="white" stroke="black" points="369.5,-235.5 369.5,-265.5 512.5,-265.5 512.5,-235.5 369.5,-235.5"/>
<text text-anchor="start" x="377.5" y="-253.5" font-family="Helvetica,sans-Serif" font-size="10.00">xtb_io_writer_genformat</text>
<text text-anchor="middle" x="441" y="-242.5" font-family="Helvetica,sans-Serif" font-size="10.00">::writemoleculegenformat</text>
</a>
</g>
</g>
<!-- Node9&#45;&gt;Node12 -->
<g id="edge12" class="edge">
<title>Node9&#45;&gt;Node12</title>
<path fill="none" stroke="midnightblue" d="M283.4,-216.05C306.22,-221.07 334.9,-227.38 361.46,-233.22"/>
<polygon fill="midnightblue" stroke="midnightblue" points="361,-236.7 371.52,-235.43 362.51,-229.87 361,-236.7"/>
</g>
<!-- Node15 -->
<g id="node15" class="node">
<title>Node15</title>
<g id="a_node15"><a xlink:href="namespacextb__io__writer__ctfile.html#afcf1f6ca4ca1f775bab1bc35095c9c96" target="_top" xlink:title=" ">
<polygon fill="white" stroke="black" points="582,-145.5 582,-175.5 708,-175.5 708,-145.5 582,-145.5"/>
<text text-anchor="start" x="590" y="-163.5" font-family="Helvetica,sans-Serif" font-size="10.00">xtb_io_writer_ctfile</text>
<text text-anchor="middle" x="645" y="-152.5" font-family="Helvetica,sans-Serif" font-size="10.00">::writemoleculemolfile</text>
</a>
</g>
</g>
<!-- Node9&#45;&gt;Node15 -->
<g id="edge15" class="edge">
<title>Node9&#45;&gt;Node15</title>
<path fill="none" stroke="midnightblue" d="M317.04,-204.89C375.47,-202.83 457.64,-198.15 529,-187.5 545.13,-185.09 562.33,-181.58 578.38,-177.87"/>
<polygon fill="midnightblue" stroke="midnightblue" points="579.28,-181.26 588.21,-175.55 577.67,-174.45 579.28,-181.26"/>
</g>
<!-- Node16 -->
<g id="node16" class="node">
<title>Node16</title>
<g id="a_node16"><a xlink:href="namespacextb__io__writer__pdb.html#ab658efa17e9ab62a5fa3a7bf3f0d77ea" target="_top" xlink:title=" ">
<polygon fill="white" stroke="black" points="386,-147.5 386,-177.5 496,-177.5 496,-147.5 386,-147.5"/>
<text text-anchor="start" x="394" y="-165.5" font-family="Helvetica,sans-Serif" font-size="10.00">xtb_io_writer_pdb::</text>
<text text-anchor="middle" x="441" y="-154.5" font-family="Helvetica,sans-Serif" font-size="10.00">writemoleculepdb</text>
</a>
</g>
</g>
<!-- Node9&#45;&gt;Node16 -->
<g id="edge16" class="edge">
<title>Node9&#45;&gt;Node16</title>
<path fill="none" stroke="midnightblue" d="M283.4,-196.95C310.44,-191 345.72,-183.24 375.94,-176.59"/>
<polygon fill="midnightblue" stroke="midnightblue" points="376.97,-179.95 385.98,-174.38 375.46,-173.11 376.97,-179.95"/>
</g>
<!-- Node17 -->
<g id="node17" class="node">
<title>Node17</title>
<g id="a_node17"><a xlink:href="namespacextb__io__writer__ctfile.html#a39f1d7f48d4f01457ff55762ce271c74" target="_top" xlink:title=" ">
<polygon fill="white" stroke="black" points="386,-98.5 386,-128.5 496,-128.5 496,-98.5 386,-98.5"/>
<text text-anchor="start" x="394" y="-116.5" font-family="Helvetica,sans-Serif" font-size="10.00">xtb_io_writer_ctfile</text>
<text text-anchor="middle" x="441" y="-105.5" font-family="Helvetica,sans-Serif" font-size="10.00">::writemoleculesdf</text>
</a>
</g>
</g>
<!-- Node9&#45;&gt;Node17 -->
<g id="edge17" class="edge">
<title>Node9&#45;&gt;Node17</title>
<path fill="none" stroke="midnightblue" d="M253.29,-196.91C273.8,-182.49 314.8,-155.14 353,-138.5 360.38,-135.29 368.28,-132.36 376.21,-129.73"/>
<polygon fill="midnightblue" stroke="midnightblue" points="377.38,-133.03 385.85,-126.68 375.26,-126.36 377.38,-133.03"/>
</g>
<!-- Node18 -->
<g id="node18" class="node">
<title>Node18</title>
<g id="a_node18"><a xlink:href="namespacextb__io__writer__vasp.html#a45bc87da9ec805202211f72cc76e5c47" target="_top" xlink:title=" ">
<polygon fill="white" stroke="black" points="383,-49.5 383,-79.5 499,-79.5 499,-49.5 383,-49.5"/>
<text text-anchor="start" x="391" y="-67.5" font-family="Helvetica,sans-Serif" font-size="10.00">xtb_io_writer_vasp</text>
<text text-anchor="middle" x="441" y="-56.5" font-family="Helvetica,sans-Serif" font-size="10.00">::writemoleculevasp</text>
</a>
</g>
</g>
<!-- Node9&#45;&gt;Node18 -->
<g id="edge19" class="edge">
<title>Node9&#45;&gt;Node18</title>
<path fill="none" stroke="midnightblue" d="M246.4,-196.88C261.89,-174.36 303.8,-117.86 353,-88.5 359.29,-84.75 366.18,-81.56 373.25,-78.87"/>
<polygon fill="midnightblue" stroke="midnightblue" points="374.66,-82.08 382.96,-75.48 372.36,-75.47 374.66,-82.08"/>
</g>
<!-- Node19 -->
<g id="node19" class="node">
<title>Node19</title>
<g id="a_node19"><a xlink:href="namespacextb__io__writer__xyz.html#a130169646af16f130bb7cecff27bfb16" target="_top" xlink:title=" ">
<polygon fill="white" stroke="black" points="386.5,-0.5 386.5,-30.5 495.5,-30.5 495.5,-0.5 386.5,-0.5"/>
<text text-anchor="start" x="394.5" y="-18.5" font-family="Helvetica,sans-Serif" font-size="10.00">xtb_io_writer_xyz::</text>
<text text-anchor="middle" x="441" y="-7.5" font-family="Helvetica,sans-Serif" font-size="10.00">writemoleculexyz</text>
</a>
</g>
</g>
<!-- Node9&#45;&gt;Node19 -->
<g id="edge20" class="edge">
<title>Node9&#45;&gt;Node19</title>
<path fill="none" stroke="midnightblue" d="M243.68,-196.83C255.14,-168.09 292.99,-82.57 353,-39.5 360.12,-34.39 368.28,-30.37 376.7,-27.2"/>
<polygon fill="midnightblue" stroke="midnightblue" points="377.9,-30.49 386.25,-23.97 375.66,-23.85 377.9,-30.49"/>
</g>
<!-- Node13 -->
<g id="node13" class="node">
<title>Node13</title>
<g id="a_node13"><a xlink:href="namespacextb__mctc__symbols.html#abe837ad333242b4dd3073c5747c13e28" target="_top" xlink:title="Convert atomic number to element symbol.">
<polygon fill="white" stroke="black" points="565,-241 565,-260 725,-260 725,-241 565,-241"/>
<text text-anchor="middle" x="645" y="-248" font-family="Helvetica,sans-Serif" font-size="10.00">xtb_mctc_symbols::tosymbol</text>
</a>
</g>
</g>
<!-- Node12&#45;&gt;Node13 -->
<g id="edge13" class="edge">
<title>Node12&#45;&gt;Node13</title>
<path fill="none" stroke="midnightblue" d="M512.65,-250.5C526.2,-250.5 540.55,-250.5 554.6,-250.5"/>
<polygon fill="midnightblue" stroke="midnightblue" points="554.76,-254 564.76,-250.5 554.76,-247 554.76,-254"/>
</g>
<!-- Node14 -->
<g id="node14" class="node">
<title>Node14</title>
<g id="a_node14"><a xlink:href="namespacextb__mctc__symbols.html#a79bd74e1e6f1eae5387d103d33088dc8" target="_top" xlink:title="Convert atomic number to element symbol.">
<polygon fill="white" stroke="black" points="761,-241 761,-260 958,-260 958,-241 761,-241"/>
<text text-anchor="middle" x="859.5" y="-248" font-family="Helvetica,sans-Serif" font-size="10.00">xtb_mctc_symbols::numbertosymbol</text>
</a>
</g>
</g>
<!-- Node13&#45;&gt;Node14 -->
<g id="edge14" class="edge">
<title>Node13&#45;&gt;Node14</title>
<path fill="none" stroke="midnightblue" d="M725.13,-250.5C733.52,-250.5 742.16,-250.5 750.81,-250.5"/>
<polygon fill="midnightblue" stroke="midnightblue" points="750.96,-254 760.96,-250.5 750.96,-247 750.96,-254"/>
</g>
<!-- Node17&#45;&gt;Node15 -->
<g id="edge18" class="edge">
<title>Node17&#45;&gt;Node15</title>
<path fill="none" stroke="midnightblue" d="M496.13,-126.1C519.45,-131.52 547.05,-137.94 572.05,-143.76"/>
<polygon fill="midnightblue" stroke="midnightblue" points="571.32,-147.18 581.85,-146.04 572.91,-140.36 571.32,-147.18"/>
</g>
</g>
</svg>
