<?xml version="1.0" encoding="UTF-8" standalone="no"?>
<!DOCTYPE svg PUBLIC "-//W3C//DTD SVG 1.1//EN"
 "http://www.w3.org/Graphics/SVG/1.1/DTD/svg11.dtd">
<!-- Generated by graphviz version 2.46.0 (20210122.1329)
 -->
<!-- Title: xtb_mctc_timings::prdate Pages: 1 -->
<svg width="431pt" height="116pt"
 viewBox="0.00 0.00 431.00 115.50" xmlns="http://www.w3.org/2000/svg" xmlns:xlink="http://www.w3.org/1999/xlink">
<g id="graph0" class="graph" transform="scale(1 1) rotate(0) translate(4 111.5)">
<title>xtb_mctc_timings::prdate</title>
<polygon fill="white" stroke="transparent" points="-4,4 -4,-111.5 427,-111.5 427,4 -4,4"/>
<!-- Node1 -->
<g id="node1" class="node">
<title>Node1</title>
<g id="a_node1"><a xlink:title=" ">
<polygon fill="#bfbfbf" stroke="black" points="298,-50 298,-69 423,-69 423,-50 298,-50"/>
<text text-anchor="middle" x="360.5" y="-57" font-family="Helvetica,sans-Serif" font-size="10.00">xtb_mctc_timings::prdate</text>
</a>
</g>
</g>
<!-- Node2 -->
<g id="node2" class="node">
<title>Node2</title>
<g id="a_node2"><a xlink:href="namespacextb__prog__main.html#a92b3b61ee04235e6343f652095682529" target="_top" xlink:title=" ">
<polygon fill="white" stroke="black" points="135,-88 135,-107 253,-107 253,-88 135,-88"/>
<text text-anchor="middle" x="194" y="-95" font-family="Helvetica,sans-Serif" font-size="10.00">xtb_prog_main::xtbmain</text>
</a>
</g>
</g>
<!-- Node1&#45;&gt;Node2 -->
<g id="edge1" class="edge">
<title>Node1&#45;&gt;Node2</title>
<path fill="none" stroke="midnightblue" d="M308,-71.4C284.88,-76.74 257.97,-82.95 236.21,-87.98"/>
<polygon fill="midnightblue" stroke="midnightblue" points="309.03,-74.75 317.99,-69.09 307.46,-67.93 309.03,-74.75"/>
</g>
<!-- Node4 -->
<g id="node4" class="node">
<title>Node4</title>
<g id="a_node4"><a xlink:href="namespacextb__prog__thermo.html#adb2b1af9c4536efaa8d399da0c89d209" target="_top" xlink:title="Main program of the thermo submodule.">
<polygon fill="white" stroke="black" points="126,-50 126,-69 262,-69 262,-50 126,-50"/>
<text text-anchor="middle" x="194" y="-57" font-family="Helvetica,sans-Serif" font-size="10.00">xtb_prog_thermo::xtbthermo</text>
</a>
</g>
</g>
<!-- Node1&#45;&gt;Node4 -->
<g id="edge3" class="edge">
<title>Node1&#45;&gt;Node4</title>
<path fill="none" stroke="midnightblue" d="M287.54,-59.5C279.06,-59.5 270.43,-59.5 262.03,-59.5"/>
<polygon fill="midnightblue" stroke="midnightblue" points="287.78,-63 297.78,-59.5 287.78,-56 287.78,-63"/>
</g>
<!-- Node5 -->
<g id="node5" class="node">
<title>Node5</title>
<g id="a_node5"><a xlink:href="namespacextb__prog__topology.html#aa263269ef9a32674220b4f1bfda0c066" target="_top" xlink:title="Main program of the topology submodule.">
<polygon fill="white" stroke="black" points="144.5,-0.5 144.5,-30.5 243.5,-30.5 243.5,-0.5 144.5,-0.5"/>
<text text-anchor="start" x="152.5" y="-18.5" font-family="Helvetica,sans-Serif" font-size="10.00">xtb_prog_topology::</text>
<text text-anchor="middle" x="194" y="-7.5" font-family="Helvetica,sans-Serif" font-size="10.00">xtbtopology</text>
</a>
</g>
</g>
<!-- Node1&#45;&gt;Node5 -->
<g id="edge5" class="edge">
<title>Node1&#45;&gt;Node5</title>
<path fill="none" stroke="midnightblue" d="M314.1,-47.36C292.24,-41.51 266.01,-34.49 243.73,-28.53"/>
<polygon fill="midnightblue" stroke="midnightblue" points="313.24,-50.75 323.81,-49.95 315.05,-43.99 313.24,-50.75"/>
</g>
<!-- Node3 -->
<g id="node3" class="node">
<title>Node3</title>
<g id="a_node3"><a xlink:href="primary_8f90.html#a2a67903cf5be605c5b6d3c362c6a3c5c" target="_top" xlink:title="The primary driver for the xtb program package.">
<polygon fill="white" stroke="black" points="0,-50 0,-69 90,-69 90,-50 0,-50"/>
<text text-anchor="middle" x="45" y="-57" font-family="Helvetica,sans-Serif" font-size="10.00">xtb_prog_primary</text>
</a>
</g>
</g>
<!-- Node2&#45;&gt;Node3 -->
<g id="edge2" class="edge">
<title>Node2&#45;&gt;Node3</title>
<path fill="none" stroke="midnightblue" d="M146.15,-85.39C125.67,-80.1 102.01,-73.98 82.83,-69.02"/>
<polygon fill="midnightblue" stroke="midnightblue" points="145.35,-88.8 155.91,-87.91 147.1,-82.02 145.35,-88.8"/>
</g>
<!-- Node4&#45;&gt;Node3 -->
<g id="edge4" class="edge">
<title>Node4&#45;&gt;Node3</title>
<path fill="none" stroke="midnightblue" d="M115.7,-59.5C106.98,-59.5 98.32,-59.5 90.23,-59.5"/>
<polygon fill="midnightblue" stroke="midnightblue" points="115.95,-63 125.95,-59.5 115.95,-56 115.95,-63"/>
</g>
<!-- Node5&#45;&gt;Node3 -->
<g id="edge6" class="edge">
<title>Node5&#45;&gt;Node3</title>
<path fill="none" stroke="midnightblue" d="M134.78,-32.93C115.37,-38.74 94.47,-44.99 77.83,-49.97"/>
<polygon fill="midnightblue" stroke="midnightblue" points="135.88,-36.25 144.46,-30.03 133.88,-29.54 135.88,-36.25"/>
</g>
</g>
</svg>
