<?xml version="1.0" encoding="UTF-8" standalone="no"?>
<!DOCTYPE svg PUBLIC "-//W3C//DTD SVG 1.1//EN"
 "http://www.w3.org/Graphics/SVG/1.1/DTD/svg11.dtd">
<!-- Generated by graphviz version 2.43.0 (0)
 -->
<!-- Title: xtb_hlex::hlex Pages: 1 -->
<!--zoomable 161 -->
<svg id="main" version="1.1" xmlns="http://www.w3.org/2000/svg" xmlns:xlink="http://www.w3.org/1999/xlink" xml:space="preserve" onload="init(evt)">
<style type="text/css"><![CDATA[
.edge:hover path { stroke: red; }
.edge:hover polygon { stroke: red; fill: red; }
]]></style>
<script type="text/javascript"><![CDATA[
var edges = document.getElementsByTagName('g');
if (edges && edges.length) {
  for (var i=0;i<edges.length;i++) {
    if (edges[i].id.substr(0,4)=='edge') {
      edges[i].setAttribute('class','edge');
    }
  }
}
]]></script>
        <defs>
                <circle id="rim" cx="0" cy="0" r="7"/>
                <circle id="rim2" cx="0" cy="0" r="3.5"/>
                <g id="zoomPlus">
                        <use xlink:href="#rim" fill="#404040">
                                <set attributeName="fill" to="#808080" begin="zoomplus.mouseover" end="zoomplus.mouseout"/>
                        </use>
                        <path d="M-4,0h8M0,-4v8" fill="none" stroke="white" stroke-width="1.5" pointer-events="none"/>
                </g>
                <g id="zoomMin">
                        <use xlink:href="#rim" fill="#404040">
                                <set attributeName="fill" to="#808080" begin="zoomminus.mouseover" end="zoomminus.mouseout"/>
                        </use>
                        <path d="M-4,0h8" fill="none" stroke="white" stroke-width="1.5" pointer-events="none"/>
                </g>
                <g id="dirArrow">
                        <path fill="none" stroke="white" stroke-width="1.5" d="M0,-3.0v7 M-2.5,-0.5L0,-3.0L2.5,-0.5"/>
                </g>
               <g id="resetDef">
                       <use xlink:href="#rim2" fill="#404040">
                               <set attributeName="fill" to="#808080" begin="reset.mouseover" end="reset.mouseout"/>
                       </use>
               </g>
        </defs>

<script type="text/javascript">
var viewWidth = 540;
var viewHeight = 161;
var sectionId = 'dynsection-0';
</script>
<script xlink:href="svgpan.js"/>
<svg id="graph" class="graph">
<g id="viewport">
<title>xtb_hlex::hlex</title>
<polygon fill="white" stroke="transparent" points="-4,4 -4,-157 536,-157 536,4 -4,4"/>
<!-- Node1 -->
<g id="node1" class="node">
<title>Node1</title>
<g id="a_node1"><a xlink:title=" ">
<polygon fill="#bfbfbf" stroke="black" points="0,-85.5 0,-104.5 86,-104.5 86,-85.5 0,-85.5"/>
<text text-anchor="middle" x="43" y="-92.5" font-family="Helvetica,sans-Serif" font-size="10.00">xtb_hlex::hlex</text>
</a>
</g>
</g>
<!-- Node2 -->
<g id="node2" class="node">
<title>Node2</title>
<g id="a_node2"><a xlink:href="namespacextb__dtrafo.html#ad3d74576b214120a6877138c0dcb681a" target="_top" xlink:title=" ">
<polygon fill="white" stroke="black" points="122,-128.5 122,-147.5 241,-147.5 241,-128.5 122,-128.5"/>
<text text-anchor="middle" x="181.5" y="-135.5" font-family="Helvetica,sans-Serif" font-size="10.00">xtb_dtrafo::cao2saop</text>
</a>
</g>
</g>
<!-- Node1&#45;&gt;Node2 -->
<g id="edge1" class="edge">
<title>Node1&#45;&gt;Node2</title>
<path fill="none" stroke="midnightblue" d="M74.29,-104.54C93.82,-110.69 119.43,-118.76 140.6,-125.43"/>
<polygon fill="midnightblue" stroke="midnightblue" points="139.7,-128.82 150.29,-128.48 141.8,-122.14 139.7,-128.82"/>
</g>
<!-- Node4 -->
<g id="node4" class="node">
<title>Node4</title>
<g id="a_node4"><a xlink:href="namespacextb__dipole.html#aab0b85d5f1bccf51f2906833306ff640" target="_top" xlink:title=" ">
<polygon fill="white" stroke="black" points="132.5,-85.5 132.5,-104.5 230.5,-104.5 230.5,-85.5 132.5,-85.5"/>
<text text-anchor="middle" x="181.5" y="-92.5" font-family="Helvetica,sans-Serif" font-size="10.00">xtb_dipole::dints</text>
</a>
</g>
</g>
<!-- Node1&#45;&gt;Node4 -->
<g id="edge3" class="edge">
<title>Node1&#45;&gt;Node4</title>
<path fill="none" stroke="midnightblue" d="M86.07,-95C97.45,-95 109.98,-95 122.09,-95"/>
<polygon fill="midnightblue" stroke="midnightblue" points="122.12,-98.5 132.12,-95 122.12,-91.5 122.12,-98.5"/>
</g>
<!-- Node11 -->
<g id="node11" class="node">
<title>Node11</title>
<g id="a_node11"><a xlink:href="namespacextb__onetri.html#a4ce8be029d74ce6f577e953606794809" target="_top" xlink:title=" ">
<polygon fill="white" stroke="black" points="131,-38.5 131,-57.5 232,-57.5 232,-38.5 131,-38.5"/>
<text text-anchor="middle" x="181.5" y="-45.5" font-family="Helvetica,sans-Serif" font-size="10.00">xtb_onetri::onetri</text>
</a>
</g>
</g>
<!-- Node1&#45;&gt;Node11 -->
<g id="edge10" class="edge">
<title>Node1&#45;&gt;Node11</title>
<path fill="none" stroke="midnightblue" d="M71.62,-85.49C92.12,-78.43 120.29,-68.73 142.85,-60.96"/>
<polygon fill="midnightblue" stroke="midnightblue" points="144.13,-64.22 152.45,-57.66 141.86,-57.6 144.13,-64.22"/>
</g>
<!-- Node3 -->
<g id="node3" class="node">
<title>Node3</title>
<g id="a_node3"><a xlink:href="constrain__pot_8f90.html#ac62613d43f31c7bfa652ee80083b400b" target="_top" xlink:title=" ">
<polygon fill="white" stroke="black" points="318.5,-133.5 318.5,-152.5 347.5,-152.5 347.5,-133.5 318.5,-133.5"/>
<text text-anchor="middle" x="333" y="-140.5" font-family="Helvetica,sans-Serif" font-size="10.00">lin</text>
</a>
</g>
</g>
<!-- Node2&#45;&gt;Node3 -->
<g id="edge2" class="edge">
<title>Node2&#45;&gt;Node3</title>
<path fill="none" stroke="midnightblue" d="M241.16,-139.96C264.6,-140.75 290.25,-141.6 308.3,-142.21"/>
<polygon fill="midnightblue" stroke="midnightblue" points="308.36,-145.71 318.47,-142.55 308.59,-138.72 308.36,-145.71"/>
</g>
<!-- Node5 -->
<g id="node5" class="node">
<title>Node5</title>
<g id="a_node5"><a xlink:href="namespacextb__intpack.html#ad6e57dd6c920d9a1d35787c045bc98c6" target="_top" xlink:title=" ">
<polygon fill="white" stroke="black" points="278,-95.5 278,-114.5 388,-114.5 388,-95.5 278,-95.5"/>
<text text-anchor="middle" x="333" y="-102.5" font-family="Helvetica,sans-Serif" font-size="10.00">xtb_intpack::opab1</text>
</a>
</g>
</g>
<!-- Node4&#45;&gt;Node5 -->
<g id="edge4" class="edge">
<title>Node4&#45;&gt;Node5</title>
<path fill="none" stroke="midnightblue" d="M230.63,-98.22C242.43,-99.01 255.25,-99.87 267.68,-100.7"/>
<polygon fill="midnightblue" stroke="midnightblue" points="267.79,-104.21 278,-101.39 268.25,-97.23 267.79,-104.21"/>
</g>
<!-- Node7 -->
<g id="node7" class="node">
<title>Node7</title>
<g id="a_node7"><a xlink:href="namespacextb__intpack.html#a006d934cfa58ce57ddc3932a0f15120c" target="_top" xlink:title=" ">
<polygon fill="white" stroke="black" points="279.5,-57.5 279.5,-76.5 386.5,-76.5 386.5,-57.5 279.5,-57.5"/>
<text text-anchor="middle" x="333" y="-64.5" font-family="Helvetica,sans-Serif" font-size="10.00">xtb_intpack::propa</text>
</a>
</g>
</g>
<!-- Node4&#45;&gt;Node7 -->
<g id="edge6" class="edge">
<title>Node4&#45;&gt;Node7</title>
<path fill="none" stroke="midnightblue" d="M230.63,-85.99C243.48,-83.58 257.55,-80.94 271,-78.43"/>
<polygon fill="midnightblue" stroke="midnightblue" points="271.95,-81.81 281.13,-76.53 270.66,-74.93 271.95,-81.81"/>
</g>
<!-- Node6 -->
<g id="node6" class="node">
<title>Node6</title>
<g id="a_node6"><a xlink:href="namespacextb__intpack.html#a04bd77a744f041e98e1fdc913e0862c0" target="_top" xlink:title=" ">
<polygon fill="white" stroke="black" points="428,-114.5 428,-133.5 529,-133.5 529,-114.5 428,-114.5"/>
<text text-anchor="middle" x="478.5" y="-121.5" font-family="Helvetica,sans-Serif" font-size="10.00">xtb_intpack::olap</text>
</a>
</g>
</g>
<!-- Node5&#45;&gt;Node6 -->
<g id="edge5" class="edge">
<title>Node5&#45;&gt;Node6</title>
<path fill="none" stroke="midnightblue" d="M388.25,-112.18C397.91,-113.46 408.02,-114.8 417.83,-116.1"/>
<polygon fill="midnightblue" stroke="midnightblue" points="417.52,-119.59 427.9,-117.43 418.44,-112.65 417.52,-119.59"/>
</g>
<!-- Node8 -->
<g id="node8" class="node">
<title>Node8</title>
<g id="a_node8"><a xlink:href="namespacextb__intpack.html#a89bc54e2e899167f10c6f3f78a7246e7" target="_top" xlink:title=" ">
<polygon fill="white" stroke="black" points="426.5,-76.5 426.5,-95.5 530.5,-95.5 530.5,-76.5 426.5,-76.5"/>
<text text-anchor="middle" x="478.5" y="-83.5" font-family="Helvetica,sans-Serif" font-size="10.00">xtb_intpack::divpt</text>
</a>
</g>
</g>
<!-- Node7&#45;&gt;Node8 -->
<g id="edge7" class="edge">
<title>Node7&#45;&gt;Node8</title>
<path fill="none" stroke="midnightblue" d="M386.62,-73.97C396.24,-75.24 406.35,-76.58 416.19,-77.88"/>
<polygon fill="midnightblue" stroke="midnightblue" points="415.95,-81.38 426.32,-79.22 416.87,-74.44 415.95,-81.38"/>
</g>
<!-- Node9 -->
<g id="node9" class="node">
<title>Node9</title>
<g id="a_node9"><a xlink:href="namespacextb__intpack.html#acf64e33c75cc6fd8c468bf9edb4cafbb" target="_top" xlink:title=" ">
<polygon fill="white" stroke="black" points="428,-38.5 428,-57.5 529,-57.5 529,-38.5 428,-38.5"/>
<text text-anchor="middle" x="478.5" y="-45.5" font-family="Helvetica,sans-Serif" font-size="10.00">xtb_intpack::prod</text>
</a>
</g>
</g>
<!-- Node7&#45;&gt;Node9 -->
<g id="edge8" class="edge">
<title>Node7&#45;&gt;Node9</title>
<path fill="none" stroke="midnightblue" d="M386.62,-60.03C396.7,-58.7 407.32,-57.29 417.61,-55.93"/>
<polygon fill="midnightblue" stroke="midnightblue" points="418.3,-59.37 427.75,-54.59 417.38,-52.43 418.3,-59.37"/>
</g>
<!-- Node10 -->
<g id="node10" class="node">
<title>Node10</title>
<g id="a_node10"><a xlink:href="namespacextb__intpack.html#a9a40f9f0fbd48320267942da84027862" target="_top" xlink:title=" ">
<polygon fill="white" stroke="black" points="425,-0.5 425,-19.5 532,-19.5 532,-0.5 425,-0.5"/>
<text text-anchor="middle" x="478.5" y="-7.5" font-family="Helvetica,sans-Serif" font-size="10.00">xtb_intpack::rhftce</text>
</a>
</g>
</g>
<!-- Node7&#45;&gt;Node10 -->
<g id="edge9" class="edge">
<title>Node7&#45;&gt;Node10</title>
<path fill="none" stroke="midnightblue" d="M364.29,-57.47C372.41,-54.66 381.12,-51.42 389,-48 405.6,-40.8 408.45,-36.32 425,-29 429.53,-27 434.34,-25.04 439.14,-23.18"/>
<polygon fill="midnightblue" stroke="midnightblue" points="440.74,-26.32 448.88,-19.55 438.29,-19.77 440.74,-26.32"/>
</g>
<!-- Node12 -->
<g id="node12" class="node">
<title>Node12</title>
<g id="a_node12"><a xlink:href="namespacextb__blowsy.html#a48cf895766eb7112f735d185806c7923" target="_top" xlink:title=" ">
<polygon fill="white" stroke="black" points="277,-19.5 277,-38.5 389,-38.5 389,-19.5 277,-19.5"/>
<text text-anchor="middle" x="333" y="-26.5" font-family="Helvetica,sans-Serif" font-size="10.00">xtb_blowsy::blowsy</text>
</a>
</g>
</g>
<!-- Node11&#45;&gt;Node12 -->
<g id="edge11" class="edge">
<title>Node11&#45;&gt;Node12</title>
<path fill="none" stroke="midnightblue" d="M232.28,-41.67C243.32,-40.27 255.18,-38.76 266.73,-37.3"/>
<polygon fill="midnightblue" stroke="midnightblue" points="267.29,-40.75 276.77,-36.02 266.41,-33.81 267.29,-40.75"/>
</g>
</g>
</svg>
        <g id="navigator" transform="translate(0 0)" fill="#404254">
                <rect fill="#f2f5e9" fill-opacity="0.5" stroke="#606060" stroke-width=".5" x="0" y="0" width="60" height="60"/>
                <use id="zoomplus" xlink:href="#zoomPlus" x="17" y="9" onmousedown="handleZoom(evt,'in')"/>
                <use id="zoomminus" xlink:href="#zoomMin" x="42" y="9" onmousedown="handleZoom(evt,'out')"/>
                <use id="reset" xlink:href="#resetDef" x="30" y="36" onmousedown="handleReset()"/>
                <g id="arrowUp" xlink:href="#dirArrow" transform="translate(30 24)" onmousedown="handlePan(0,-1)">
                  <use xlink:href="#rim" fill="#404040">
                        <set attributeName="fill" to="#808080" begin="arrowUp.mouseover" end="arrowUp.mouseout"/>
                  </use>
                  <path fill="none" stroke="white" stroke-width="1.5" d="M0,-3.0v7 M-2.5,-0.5L0,-3.0L2.5,-0.5"/>
                </g>
                <g id="arrowRight" xlink:href="#dirArrow" transform="rotate(90) translate(36 -43)" onmousedown="handlePan(1,0)">
                  <use xlink:href="#rim" fill="#404040">
                        <set attributeName="fill" to="#808080" begin="arrowRight.mouseover" end="arrowRight.mouseout"/>
                  </use>
                  <path fill="none" stroke="white" stroke-width="1.5" d="M0,-3.0v7 M-2.5,-0.5L0,-3.0L2.5,-0.5"/>
                </g>
                <g id="arrowDown" xlink:href="#dirArrow" transform="rotate(180) translate(-30 -48)" onmousedown="handlePan(0,1)">
                  <use xlink:href="#rim" fill="#404040">
                        <set attributeName="fill" to="#808080" begin="arrowDown.mouseover" end="arrowDown.mouseout"/>
                  </use>
                  <path fill="none" stroke="white" stroke-width="1.5" d="M0,-3.0v7 M-2.5,-0.5L0,-3.0L2.5,-0.5"/>
                </g>
                <g id="arrowLeft" xlink:href="#dirArrow" transform="rotate(270) translate(-36 17)" onmousedown="handlePan(-1,0)">
                  <use xlink:href="#rim" fill="#404040">
                        <set attributeName="fill" to="#808080" begin="arrowLeft.mouseover" end="arrowLeft.mouseout"/>
                  </use>
                  <path fill="none" stroke="white" stroke-width="1.5" d="M0,-3.0v7 M-2.5,-0.5L0,-3.0L2.5,-0.5"/>
                </g>
        </g>
        <svg viewBox="0 0 15 15" width="100%" height="30px" preserveAspectRatio="xMaxYMin meet">
         <g id="arrow_out" transform="scale(0.3 0.3)">
          <a xlink:href="namespacextb__hlex_a9567145f01de2589b8d5a029c45d42db_cgraph_org.svg" target="_base">
           <rect id="button" ry="5" rx="5" y="6" x="6" height="38" width="38"
                fill="#f2f5e9" fill-opacity="0.5" stroke="#606060" stroke-width="1.0"/>
           <path id="arrow"
             d="M 11.500037,31.436501 C 11.940474,20.09759 22.043105,11.32322 32.158766,21.979434 L 37.068811,17.246167 C 37.068811,17.246167 37.088388,32 37.088388,32 L 22.160133,31.978069 C 22.160133,31.978069 26.997745,27.140456 26.997745,27.140456 C 18.528582,18.264221 13.291696,25.230495 11.500037,31.436501 z"
             style="fill:#404040;"/>
          </a>
         </g>
        </svg>
</svg>
