<?xml version="1.0" encoding="UTF-8" standalone="no"?>
<!DOCTYPE svg PUBLIC "-//W3C//DTD SVG 1.1//EN"
 "http://www.w3.org/Graphics/SVG/1.1/DTD/svg11.dtd">
<!-- Generated by graphviz version 2.46.0 (20210122.1329)
 -->
<!-- Title: xtb_pbc_tools::shift_back_abc Pages: 1 -->
<svg width="376pt" height="39pt"
 viewBox="0.00 0.00 376.00 39.00" xmlns="http://www.w3.org/2000/svg" xmlns:xlink="http://www.w3.org/1999/xlink">
<g id="graph0" class="graph" transform="scale(1 1) rotate(0) translate(4 35)">
<title>xtb_pbc_tools::shift_back_abc</title>
<polygon fill="white" stroke="transparent" points="-4,4 -4,-35 372,-35 372,4 -4,4"/>
<!-- Node1 -->
<g id="node1" class="node">
<title>Node1</title>
<g id="a_node1"><a xlink:title="shift back fractional coordinates into the range [0,1)">
<polygon fill="#bfbfbf" stroke="black" points="268,-0.5 268,-30.5 368,-30.5 368,-0.5 268,-0.5"/>
<text text-anchor="start" x="276" y="-18.5" font-family="Helvetica,sans-Serif" font-size="10.00">xtb_pbc_tools::shift</text>
<text text-anchor="middle" x="318" y="-7.5" font-family="Helvetica,sans-Serif" font-size="10.00">_back_abc</text>
</a>
</g>
</g>
<!-- Node2 -->
<g id="node2" class="node">
<title>Node2</title>
<g id="a_node2"><a xlink:href="namespacextb__pbc__tools.html#a3180f2e86effe2e8ed638f7b0cbb5138" target="_top" xlink:title="transform from cartesian coordinates into fractional coordinates">
<polygon fill="white" stroke="black" points="137,-0.5 137,-30.5 232,-30.5 232,-0.5 137,-0.5"/>
<text text-anchor="start" x="145" y="-18.5" font-family="Helvetica,sans-Serif" font-size="10.00">xtb_pbc_tools::xyz</text>
<text text-anchor="middle" x="184.5" y="-7.5" font-family="Helvetica,sans-Serif" font-size="10.00">_to_abc</text>
</a>
</g>
</g>
<!-- Node1&#45;&gt;Node2 -->
<g id="edge1" class="edge">
<title>Node1&#45;&gt;Node2</title>
<path fill="none" stroke="midnightblue" d="M257.4,-15.5C248.91,-15.5 240.27,-15.5 232.07,-15.5"/>
<polygon fill="midnightblue" stroke="midnightblue" points="257.66,-19 267.66,-15.5 257.66,-12 257.66,-19"/>
</g>
<!-- Node3 -->
<g id="node3" class="node">
<title>Node3</title>
<g id="a_node3"><a xlink:href="namespacextb__type__molecule.html#aa0a83a4ac8ea69ff3578efbeaacf4223" target="_top" xlink:title="wrap cartesian coordinates back into cell">
<polygon fill="white" stroke="black" points="0,-0.5 0,-30.5 101,-30.5 101,-0.5 0,-0.5"/>
<text text-anchor="start" x="8" y="-18.5" font-family="Helvetica,sans-Serif" font-size="10.00">xtb_type_molecule::</text>
<text text-anchor="middle" x="50.5" y="-7.5" font-family="Helvetica,sans-Serif" font-size="10.00">wrap_back</text>
</a>
</g>
</g>
<!-- Node2&#45;&gt;Node3 -->
<g id="edge2" class="edge">
<title>Node2&#45;&gt;Node3</title>
<path fill="none" stroke="midnightblue" d="M126.74,-15.5C118.24,-15.5 109.54,-15.5 101.2,-15.5"/>
<polygon fill="midnightblue" stroke="midnightblue" points="126.96,-19 136.96,-15.5 126.96,-12 126.96,-19"/>
</g>
</g>
</svg>
