<?xml version="1.0" encoding="UTF-8" standalone="no"?>
<!DOCTYPE svg PUBLIC "-//W3C//DTD SVG 1.1//EN"
 "http://www.w3.org/Graphics/SVG/1.1/DTD/svg11.dtd">
<!-- Generated by graphviz version 2.43.0 (0)
 -->
<!-- Title: xtb_disp_dftd3::weight_cn Pages: 1 -->
<!--zoomable 307 -->
<svg id="main" version="1.1" xmlns="http://www.w3.org/2000/svg" xmlns:xlink="http://www.w3.org/1999/xlink" xml:space="preserve" onload="init(evt)">
<style type="text/css"><![CDATA[
.edge:hover path { stroke: red; }
.edge:hover polygon { stroke: red; fill: red; }
]]></style>
<script type="text/javascript"><![CDATA[
var edges = document.getElementsByTagName('g');
if (edges && edges.length) {
  for (var i=0;i<edges.length;i++) {
    if (edges[i].id.substr(0,4)=='edge') {
      edges[i].setAttribute('class','edge');
    }
  }
}
]]></script>
        <defs>
                <circle id="rim" cx="0" cy="0" r="7"/>
                <circle id="rim2" cx="0" cy="0" r="3.5"/>
                <g id="zoomPlus">
                        <use xlink:href="#rim" fill="#404040">
                                <set attributeName="fill" to="#808080" begin="zoomplus.mouseover" end="zoomplus.mouseout"/>
                        </use>
                        <path d="M-4,0h8M0,-4v8" fill="none" stroke="white" stroke-width="1.5" pointer-events="none"/>
                </g>
                <g id="zoomMin">
                        <use xlink:href="#rim" fill="#404040">
                                <set attributeName="fill" to="#808080" begin="zoomminus.mouseover" end="zoomminus.mouseout"/>
                        </use>
                        <path d="M-4,0h8" fill="none" stroke="white" stroke-width="1.5" pointer-events="none"/>
                </g>
                <g id="dirArrow">
                        <path fill="none" stroke="white" stroke-width="1.5" d="M0,-3.0v7 M-2.5,-0.5L0,-3.0L2.5,-0.5"/>
                </g>
               <g id="resetDef">
                       <use xlink:href="#rim2" fill="#404040">
                               <set attributeName="fill" to="#808080" begin="reset.mouseover" end="reset.mouseout"/>
                       </use>
               </g>
        </defs>

<script type="text/javascript">
var viewWidth = 529;
var viewHeight = 307;
var sectionId = 'dynsection-10';
</script>
<script xlink:href="svgpan.js"/>
<svg id="graph" class="graph">
<g id="viewport">
<title>xtb_disp_dftd3::weight_cn</title>
<polygon fill="white" stroke="transparent" points="-4,4 -4,-302.5 525,-302.5 525,4 -4,4"/>
<!-- Node1 -->
<g id="node1" class="node">
<title>Node1</title>
<g id="a_node1"><a xlink:title=" ">
<polygon fill="#bfbfbf" stroke="black" points="378,-128 378,-147 521,-147 521,-128 378,-128"/>
<text text-anchor="middle" x="449.5" y="-135" font-family="Helvetica,sans-Serif" font-size="10.00">xtb_disp_dftd3::weight_cn</text>
</a>
</g>
</g>
<!-- Node2 -->
<g id="node2" class="node">
<title>Node2</title>
<g id="a_node2"><a xlink:href="namespacextb__disp__dftd3.html#af51fb8c764abfd81456418dc9c5f8467" target="_top" xlink:title="Calculate the weights of the reference system and the derivatives w.r.t.">
<polygon fill="white" stroke="black" points="215,-122.5 215,-152.5 342,-152.5 342,-122.5 215,-122.5"/>
<text text-anchor="start" x="223" y="-140.5" font-family="Helvetica,sans-Serif" font-size="10.00">xtb_disp_dftd3::weight</text>
<text text-anchor="middle" x="278.5" y="-129.5" font-family="Helvetica,sans-Serif" font-size="10.00">_references</text>
</a>
</g>
</g>
<!-- Node1&#45;&gt;Node2 -->
<g id="edge1" class="edge">
<title>Node1&#45;&gt;Node2</title>
<path fill="none" stroke="midnightblue" d="M367.74,-137.5C359.13,-137.5 350.47,-137.5 342.11,-137.5"/>
<polygon fill="midnightblue" stroke="midnightblue" points="367.81,-141 377.81,-137.5 367.81,-134 367.81,-141"/>
</g>
<!-- Node3 -->
<g id="node3" class="node">
<title>Node3</title>
<g id="a_node3"><a xlink:href="interfacextb__disp__dftd3_1_1d3__atm__gradient.html#a15c51e72bc3a117518398eb6050027a1" target="_top" xlink:title=" ">
<polygon fill="white" stroke="black" points="24.5,-257 24.5,-298 154.5,-298 154.5,-257 24.5,-257"/>
<text text-anchor="start" x="32.5" y="-286" font-family="Helvetica,sans-Serif" font-size="10.00">xtb_disp_dftd3::d3</text>
<text text-anchor="start" x="32.5" y="-275" font-family="Helvetica,sans-Serif" font-size="10.00">_atm_gradient::d3_atm</text>
<text text-anchor="middle" x="89.5" y="-264" font-family="Helvetica,sans-Serif" font-size="10.00">_gradient_latp</text>
</a>
</g>
</g>
<!-- Node2&#45;&gt;Node3 -->
<g id="edge2" class="edge">
<title>Node2&#45;&gt;Node3</title>
<path fill="none" stroke="midnightblue" d="M262.03,-160.99C244.59,-185.76 214.05,-224.35 179,-247.5 171.55,-252.42 163.22,-256.61 154.73,-260.15"/>
<polygon fill="midnightblue" stroke="midnightblue" points="265.06,-162.76 267.85,-152.54 259.29,-158.79 265.06,-162.76"/>
</g>
<!-- Node4 -->
<g id="node4" class="node">
<title>Node4</title>
<g id="a_node4"><a xlink:href="interfacextb__disp__dftd3_1_1d3__atm__gradient.html#ae23b23e139e2883ae9cbe059a124cf5f" target="_top" xlink:title=" ">
<polygon fill="white" stroke="black" points="24.5,-197 24.5,-238 154.5,-238 154.5,-197 24.5,-197"/>
<text text-anchor="start" x="32.5" y="-226" font-family="Helvetica,sans-Serif" font-size="10.00">xtb_disp_dftd3::d3</text>
<text text-anchor="start" x="32.5" y="-215" font-family="Helvetica,sans-Serif" font-size="10.00">_atm_gradient::d3_atm</text>
<text text-anchor="middle" x="89.5" y="-204" font-family="Helvetica,sans-Serif" font-size="10.00">_gradient_neigh</text>
</a>
</g>
</g>
<!-- Node2&#45;&gt;Node4 -->
<g id="edge3" class="edge">
<title>Node2&#45;&gt;Node4</title>
<path fill="none" stroke="midnightblue" d="M241.49,-157.34C223.09,-167.08 200.17,-178.59 179,-187.5 171.22,-190.77 162.96,-193.95 154.72,-196.94"/>
<polygon fill="midnightblue" stroke="midnightblue" points="243.23,-160.38 250.4,-152.58 239.93,-154.21 243.23,-160.38"/>
</g>
<!-- Node5 -->
<g id="node5" class="node">
<title>Node5</title>
<g id="a_node5"><a xlink:href="interfacextb__disp__dftd3_1_1d3__gradient.html#a235d7c22a675fb31046cc4c4c3474c70" target="_top" xlink:title=" ">
<polygon fill="white" stroke="black" points="4,-147.5 4,-177.5 175,-177.5 175,-147.5 4,-147.5"/>
<text text-anchor="start" x="12" y="-165.5" font-family="Helvetica,sans-Serif" font-size="10.00">xtb_disp_dftd3::d3</text>
<text text-anchor="middle" x="89.5" y="-154.5" font-family="Helvetica,sans-Serif" font-size="10.00">_gradient::d3_full_gradient_latp</text>
</a>
</g>
</g>
<!-- Node2&#45;&gt;Node5 -->
<g id="edge4" class="edge">
<title>Node2&#45;&gt;Node5</title>
<path fill="none" stroke="midnightblue" d="M204.96,-147.2C195.23,-148.5 185.18,-149.84 175.26,-151.17"/>
<polygon fill="midnightblue" stroke="midnightblue" points="205.52,-150.65 214.97,-145.86 204.6,-143.72 205.52,-150.65"/>
</g>
<!-- Node6 -->
<g id="node6" class="node">
<title>Node6</title>
<g id="a_node6"><a xlink:href="interfacextb__disp__dftd3_1_1d3__gradient.html#a5df3d1c13d5dbd2ac47364ff69095a53" target="_top" xlink:title=" ">
<polygon fill="white" stroke="black" points="0,-98.5 0,-128.5 179,-128.5 179,-98.5 0,-98.5"/>
<text text-anchor="start" x="8" y="-116.5" font-family="Helvetica,sans-Serif" font-size="10.00">xtb_disp_dftd3::d3</text>
<text text-anchor="middle" x="89.5" y="-105.5" font-family="Helvetica,sans-Serif" font-size="10.00">_gradient::d3_full_gradient_neigh</text>
</a>
</g>
</g>
<!-- Node2&#45;&gt;Node6 -->
<g id="edge5" class="edge">
<title>Node2&#45;&gt;Node6</title>
<path fill="none" stroke="midnightblue" d="M204.87,-128.18C196.48,-127.1 187.85,-125.99 179.27,-124.89"/>
<polygon fill="midnightblue" stroke="midnightblue" points="204.61,-131.67 214.97,-129.47 205.5,-124.73 204.61,-131.67"/>
</g>
<!-- Node7 -->
<g id="node7" class="node">
<title>Node7</title>
<g id="a_node7"><a xlink:href="interfacextb__disp__dftd3_1_1d3__gradient.html#a60fac913c14ad0a482b3d48bcb51eea3" target="_top" xlink:title=" ">
<polygon fill="white" stroke="black" points="14.5,-49.5 14.5,-79.5 164.5,-79.5 164.5,-49.5 14.5,-49.5"/>
<text text-anchor="start" x="22.5" y="-67.5" font-family="Helvetica,sans-Serif" font-size="10.00">xtb_disp_dftd3::d3</text>
<text text-anchor="middle" x="89.5" y="-56.5" font-family="Helvetica,sans-Serif" font-size="10.00">_gradient::d3_gradient_latp</text>
</a>
</g>
</g>
<!-- Node2&#45;&gt;Node7 -->
<g id="edge6" class="edge">
<title>Node2&#45;&gt;Node7</title>
<path fill="none" stroke="midnightblue" d="M240.94,-117.75C222.68,-108.39 200.04,-97.52 179,-89.5 169.6,-85.92 159.47,-82.58 149.53,-79.59"/>
<polygon fill="midnightblue" stroke="midnightblue" points="239.58,-120.99 250.06,-122.49 242.8,-114.78 239.58,-120.99"/>
</g>
<!-- Node8 -->
<g id="node8" class="node">
<title>Node8</title>
<g id="a_node8"><a xlink:href="interfacextb__disp__dftd3_1_1d3__gradient.html#a6681298ee7cb38104f69c149cd8118d1" target="_top" xlink:title=" ">
<polygon fill="white" stroke="black" points="10.5,-0.5 10.5,-30.5 168.5,-30.5 168.5,-0.5 10.5,-0.5"/>
<text text-anchor="start" x="18.5" y="-18.5" font-family="Helvetica,sans-Serif" font-size="10.00">xtb_disp_dftd3::d3</text>
<text text-anchor="middle" x="89.5" y="-7.5" font-family="Helvetica,sans-Serif" font-size="10.00">_gradient::d3_gradient_neigh</text>
</a>
</g>
</g>
<!-- Node2&#45;&gt;Node8 -->
<g id="edge7" class="edge">
<title>Node2&#45;&gt;Node8</title>
<path fill="none" stroke="midnightblue" d="M259.91,-114.42C241.89,-92.34 211.93,-59.64 179,-40.5 172.37,-36.65 165.12,-33.36 157.71,-30.57"/>
<polygon fill="midnightblue" stroke="midnightblue" points="257.23,-116.68 266.21,-122.31 262.71,-112.31 257.23,-116.68"/>
</g>
</g>
</svg>
        <g id="navigator" transform="translate(0 0)" fill="#404254">
                <rect fill="#f2f5e9" fill-opacity="0.5" stroke="#606060" stroke-width=".5" x="0" y="0" width="60" height="60"/>
                <use id="zoomplus" xlink:href="#zoomPlus" x="17" y="9" onmousedown="handleZoom(evt,'in')"/>
                <use id="zoomminus" xlink:href="#zoomMin" x="42" y="9" onmousedown="handleZoom(evt,'out')"/>
                <use id="reset" xlink:href="#resetDef" x="30" y="36" onmousedown="handleReset()"/>
                <g id="arrowUp" xlink:href="#dirArrow" transform="translate(30 24)" onmousedown="handlePan(0,-1)">
                  <use xlink:href="#rim" fill="#404040">
                        <set attributeName="fill" to="#808080" begin="arrowUp.mouseover" end="arrowUp.mouseout"/>
                  </use>
                  <path fill="none" stroke="white" stroke-width="1.5" d="M0,-3.0v7 M-2.5,-0.5L0,-3.0L2.5,-0.5"/>
                </g>
                <g id="arrowRight" xlink:href="#dirArrow" transform="rotate(90) translate(36 -43)" onmousedown="handlePan(1,0)">
                  <use xlink:href="#rim" fill="#404040">
                        <set attributeName="fill" to="#808080" begin="arrowRight.mouseover" end="arrowRight.mouseout"/>
                  </use>
                  <path fill="none" stroke="white" stroke-width="1.5" d="M0,-3.0v7 M-2.5,-0.5L0,-3.0L2.5,-0.5"/>
                </g>
                <g id="arrowDown" xlink:href="#dirArrow" transform="rotate(180) translate(-30 -48)" onmousedown="handlePan(0,1)">
                  <use xlink:href="#rim" fill="#404040">
                        <set attributeName="fill" to="#808080" begin="arrowDown.mouseover" end="arrowDown.mouseout"/>
                  </use>
                  <path fill="none" stroke="white" stroke-width="1.5" d="M0,-3.0v7 M-2.5,-0.5L0,-3.0L2.5,-0.5"/>
                </g>
                <g id="arrowLeft" xlink:href="#dirArrow" transform="rotate(270) translate(-36 17)" onmousedown="handlePan(-1,0)">
                  <use xlink:href="#rim" fill="#404040">
                        <set attributeName="fill" to="#808080" begin="arrowLeft.mouseover" end="arrowLeft.mouseout"/>
                  </use>
                  <path fill="none" stroke="white" stroke-width="1.5" d="M0,-3.0v7 M-2.5,-0.5L0,-3.0L2.5,-0.5"/>
                </g>
        </g>
        <svg viewBox="0 0 15 15" width="100%" height="30px" preserveAspectRatio="xMaxYMin meet">
         <g id="arrow_out" transform="scale(0.3 0.3)">
          <a xlink:href="namespacextb__disp__dftd3_a46f9a43b2f4cb1ded589a521aea7c20a_icgraph_org.svg" target="_base">
           <rect id="button" ry="5" rx="5" y="6" x="6" height="38" width="38"
                fill="#f2f5e9" fill-opacity="0.5" stroke="#606060" stroke-width="1.0"/>
           <path id="arrow"
             d="M 11.500037,31.436501 C 11.940474,20.09759 22.043105,11.32322 32.158766,21.979434 L 37.068811,17.246167 C 37.068811,17.246167 37.088388,32 37.088388,32 L 22.160133,31.978069 C 22.160133,31.978069 26.997745,27.140456 26.997745,27.140456 C 18.528582,18.264221 13.291696,25.230495 11.500037,31.436501 z"
             style="fill:#404040;"/>
          </a>
         </g>
        </svg>
</svg>
