<?xml version="1.0" encoding="UTF-8" standalone="no"?>
<!DOCTYPE svg PUBLIC "-//W3C//DTD SVG 1.1//EN"
 "http://www.w3.org/Graphics/SVG/1.1/DTD/svg11.dtd">
<!-- Generated by graphviz version 2.46.1 (20210215.1649)
 -->
<!-- Title: xtb_gfnff_eg::egtors Pages: 1 -->
<svg width="441pt" height="265pt"
 viewBox="0.00 0.00 441.00 264.89" xmlns="http://www.w3.org/2000/svg" xmlns:xlink="http://www.w3.org/1999/xlink">
<g id="graph0" class="graph" transform="scale(1 1) rotate(0) translate(4 260.89)">
<title>xtb_gfnff_eg::egtors</title>
<polygon fill="white" stroke="transparent" points="-4,4 -4,-260.89 437,-260.89 437,4 -4,4"/>
<!-- Node1 -->
<g id="node1" class="node">
<title>Node1</title>
<g id="a_node1"><a xlink:title=" ">
<polygon fill="#bfbfbf" stroke="black" points="0,-95.5 0,-114.5 101,-114.5 101,-95.5 0,-95.5"/>
<text text-anchor="middle" x="50.5" y="-102.5" font-family="Helvetica,sans-Serif" font-size="10.00">xtb_gfnff_eg::egtors</text>
</a>
</g>
</g>
<!-- Node2 -->
<g id="node2" class="node">
<title>Node2</title>
<g id="a_node2"><a xlink:href="constr_8f90.html#a2cfab52e470deba30f00fa894d9a783f" target="_top" xlink:title=" ">
<polygon fill="white" stroke="black" points="167,-161.5 167,-180.5 226,-180.5 226,-161.5 167,-161.5"/>
<text text-anchor="middle" x="196.5" y="-168.5" font-family="Helvetica,sans-Serif" font-size="10.00">domegadr</text>
</a>
</g>
</g>
<!-- Node1&#45;&gt;Node2 -->
<g id="edge1" class="edge">
<title>Node1&#45;&gt;Node2</title>
<path fill="none" stroke="midnightblue" d="M72.44,-114.6C96.86,-125.79 137.43,-144.38 165.27,-157.14"/>
<polygon fill="midnightblue" stroke="midnightblue" points="163.99,-160.41 174.54,-161.39 166.9,-154.04 163.99,-160.41"/>
</g>
<!-- Node4 -->
<g id="node4" class="node">
<title>Node4</title>
<g id="a_node4"><a xlink:href="constr_8f90.html#ae82fbacd108d547258e599e6ee56178b" target="_top" xlink:title=" ">
<polygon fill="white" stroke="black" points="292,-223.5 292,-242.5 338,-242.5 338,-223.5 292,-223.5"/>
<text text-anchor="middle" x="315" y="-230.5" font-family="Helvetica,sans-Serif" font-size="10.00">omega</text>
</a>
</g>
</g>
<!-- Node1&#45;&gt;Node4 -->
<g id="edge11" class="edge">
<title>Node1&#45;&gt;Node4</title>
<path fill="none" stroke="midnightblue" d="M58.28,-114.6C71.37,-132.37 101.93,-170.37 137,-190 183.21,-215.87 244.71,-226.3 281.72,-230.41"/>
<polygon fill="midnightblue" stroke="midnightblue" points="281.62,-233.92 291.92,-231.45 282.33,-226.96 281.62,-233.92"/>
</g>
<!-- Node6 -->
<g id="node6" class="node">
<title>Node6</title>
<g id="a_node6"><a xlink:href="constr_8f90.html#abc3ba680c5057c12990e2e14673a87a6" target="_top" xlink:title=" ">
<polygon fill="white" stroke="black" points="293.5,-109.5 293.5,-128.5 336.5,-128.5 336.5,-109.5 293.5,-109.5"/>
<text text-anchor="middle" x="315" y="-116.5" font-family="Helvetica,sans-Serif" font-size="10.00">dphidr</text>
</a>
</g>
</g>
<!-- Node1&#45;&gt;Node6 -->
<g id="edge7" class="edge">
<title>Node1&#45;&gt;Node6</title>
<path fill="none" stroke="midnightblue" d="M101.18,-107.65C154.74,-110.51 238.3,-114.96 283.12,-117.35"/>
<polygon fill="midnightblue" stroke="midnightblue" points="283.21,-120.86 293.38,-117.9 283.58,-113.87 283.21,-120.86"/>
</g>
<!-- Node7 -->
<g id="node7" class="node">
<title>Node7</title>
<g id="a_node7"><a xlink:href="namespacextb__gfnff__eg.html#acfda948926fcf48f2d6d672bd1d429ac" target="_top" xlink:title=" ">
<polygon fill="white" stroke="black" points="137,-38.5 137,-57.5 256,-57.5 256,-38.5 137,-38.5"/>
<text text-anchor="middle" x="196.5" y="-45.5" font-family="Helvetica,sans-Serif" font-size="10.00">xtb_gfnff_eg::gfnffdampt</text>
</a>
</g>
</g>
<!-- Node1&#45;&gt;Node7 -->
<g id="edge10" class="edge">
<title>Node1&#45;&gt;Node7</title>
<path fill="none" stroke="midnightblue" d="M71.29,-95.5C88.47,-87.42 114.1,-75.78 137,-67 142.56,-64.87 148.47,-62.77 154.31,-60.78"/>
<polygon fill="midnightblue" stroke="midnightblue" points="155.63,-64.03 164.02,-57.56 153.42,-57.39 155.63,-64.03"/>
</g>
<!-- Node8 -->
<g id="node8" class="node">
<title>Node8</title>
<g id="a_node8"><a xlink:href="math_8f.html#ac9ee911a71ac94ef47b9d30cb1253cc5" target="_top" xlink:title=" ">
<polygon fill="white" stroke="black" points="173,-76.5 173,-95.5 220,-95.5 220,-76.5 173,-76.5"/>
<text text-anchor="middle" x="196.5" y="-83.5" font-family="Helvetica,sans-Serif" font-size="10.00">valijklff</text>
</a>
</g>
</g>
<!-- Node1&#45;&gt;Node8 -->
<g id="edge12" class="edge">
<title>Node1&#45;&gt;Node8</title>
<path fill="none" stroke="midnightblue" d="M101.06,-98.46C121.46,-95.77 144.53,-92.72 162.77,-90.32"/>
<polygon fill="midnightblue" stroke="midnightblue" points="163.43,-93.76 172.89,-88.98 162.51,-86.82 163.43,-93.76"/>
</g>
<!-- Node10 -->
<g id="node10" class="node">
<title>Node10</title>
<g id="a_node10"><a xlink:href="math_8f.html#acd26482df43e25a260c09d58fc43406b" target="_top" xlink:title=" ">
<polygon fill="white" stroke="black" points="179,-0.5 179,-19.5 214,-19.5 214,-0.5 179,-0.5"/>
<text text-anchor="middle" x="196.5" y="-7.5" font-family="Helvetica,sans-Serif" font-size="10.00">vlen</text>
</a>
</g>
</g>
<!-- Node1&#45;&gt;Node10 -->
<g id="edge17" class="edge">
<title>Node1&#45;&gt;Node10</title>
<path fill="none" stroke="midnightblue" d="M59.76,-95.44C74.01,-79.51 104.78,-47.46 137,-29 146.87,-23.35 158.65,-19.11 169.05,-16.09"/>
<polygon fill="midnightblue" stroke="midnightblue" points="170.1,-19.43 178.86,-13.46 168.29,-12.66 170.1,-19.43"/>
</g>
<!-- Node3 -->
<g id="node3" class="node">
<title>Node3</title>
<g id="a_node3"><a xlink:href="constr_8f90.html#a10258b751fb1a02456622523df6e8b49" target="_top" xlink:title=" ">
<polygon fill="white" stroke="black" points="374,-204.5 374,-223.5 433,-223.5 433,-204.5 374,-204.5"/>
<text text-anchor="middle" x="403.5" y="-211.5" font-family="Helvetica,sans-Serif" font-size="10.00">crossprod</text>
</a>
</g>
</g>
<!-- Node2&#45;&gt;Node3 -->
<g id="edge2" class="edge">
<title>Node2&#45;&gt;Node3</title>
<path fill="none" stroke="midnightblue" d="M204.75,-180.67C219.04,-198.84 252.89,-237.53 292,-252 311.17,-259.09 318.28,-257.38 338,-252 353.99,-247.64 370.05,-238.2 382.15,-229.82"/>
<polygon fill="midnightblue" stroke="midnightblue" points="384.52,-232.42 390.56,-223.72 380.41,-226.75 384.52,-232.42"/>
</g>
<!-- Node2&#45;&gt;Node4 -->
<g id="edge3" class="edge">
<title>Node2&#45;&gt;Node4</title>
<path fill="none" stroke="midnightblue" d="M215.45,-180.55C234.55,-190.72 264.99,-206.92 286.99,-218.62"/>
<polygon fill="midnightblue" stroke="midnightblue" points="285.37,-221.73 295.84,-223.34 288.66,-215.55 285.37,-221.73"/>
</g>
<!-- Node5 -->
<g id="node5" class="node">
<title>Node5</title>
<g id="a_node5"><a xlink:href="constr_8f90.html#af5b7bb0960a128b6ee8d53b2f0ba2135" target="_top" xlink:title=" ">
<polygon fill="white" stroke="black" points="376.5,-109.5 376.5,-128.5 430.5,-128.5 430.5,-109.5 376.5,-109.5"/>
<text text-anchor="middle" x="403.5" y="-116.5" font-family="Helvetica,sans-Serif" font-size="10.00">vecnorm</text>
</a>
</g>
</g>
<!-- Node2&#45;&gt;Node5 -->
<g id="edge6" class="edge">
<title>Node2&#45;&gt;Node5</title>
<path fill="none" stroke="midnightblue" d="M226.14,-164.76C254.61,-158.45 299.49,-148.19 338,-138 347.28,-135.54 357.26,-132.71 366.52,-129.98"/>
<polygon fill="midnightblue" stroke="midnightblue" points="367.64,-133.3 376.23,-127.1 365.65,-126.59 367.64,-133.3"/>
</g>
<!-- Node4&#45;&gt;Node3 -->
<g id="edge4" class="edge">
<title>Node4&#45;&gt;Node3</title>
<path fill="none" stroke="midnightblue" d="M338.28,-228.11C346.05,-226.4 355.01,-224.43 363.73,-222.52"/>
<polygon fill="midnightblue" stroke="midnightblue" points="364.75,-225.88 373.76,-220.31 363.25,-219.04 364.75,-225.88"/>
</g>
<!-- Node4&#45;&gt;Node5 -->
<g id="edge5" class="edge">
<title>Node4&#45;&gt;Node5</title>
<path fill="none" stroke="midnightblue" d="M323.37,-223.28C337.93,-204.1 370.54,-161.12 389.03,-136.75"/>
<polygon fill="midnightblue" stroke="midnightblue" points="391.89,-138.78 395.14,-128.69 386.31,-134.55 391.89,-138.78"/>
</g>
<!-- Node6&#45;&gt;Node3 -->
<g id="edge8" class="edge">
<title>Node6&#45;&gt;Node3</title>
<path fill="none" stroke="midnightblue" d="M324.93,-128.81C339.58,-144.89 368.87,-177.07 386.97,-196.94"/>
<polygon fill="midnightblue" stroke="midnightblue" points="384.43,-199.35 393.75,-204.39 389.6,-194.64 384.43,-199.35"/>
</g>
<!-- Node6&#45;&gt;Node5 -->
<g id="edge9" class="edge">
<title>Node6&#45;&gt;Node5</title>
<path fill="none" stroke="midnightblue" d="M336.94,-119C345.77,-119 356.31,-119 366.33,-119"/>
<polygon fill="midnightblue" stroke="midnightblue" points="366.49,-122.5 376.49,-119 366.49,-115.5 366.49,-122.5"/>
</g>
<!-- Node8&#45;&gt;Node3 -->
<g id="edge13" class="edge">
<title>Node8&#45;&gt;Node3</title>
<path fill="none" stroke="midnightblue" d="M212.91,-95.62C248.39,-117.77 336.07,-172.52 378.6,-199.08"/>
<polygon fill="midnightblue" stroke="midnightblue" points="376.86,-202.11 387.19,-204.44 380.56,-196.18 376.86,-202.11"/>
</g>
<!-- Node8&#45;&gt;Node5 -->
<g id="edge16" class="edge">
<title>Node8&#45;&gt;Node5</title>
<path fill="none" stroke="midnightblue" d="M220.11,-78.57C239.07,-72.75 266.97,-65.13 292,-62 312.29,-59.46 318.88,-54.76 338,-62 358.83,-69.89 377.27,-87.91 389.04,-101.6"/>
<polygon fill="midnightblue" stroke="midnightblue" points="386.42,-103.92 395.47,-109.43 391.83,-99.48 386.42,-103.92"/>
</g>
<!-- Node9 -->
<g id="node9" class="node">
<title>Node9</title>
<g id="a_node9"><a xlink:href="constr_8f90.html#a5fc70d66b0231afec39209517852b818" target="_top" xlink:title=" ">
<polygon fill="white" stroke="black" points="295.5,-71.5 295.5,-90.5 334.5,-90.5 334.5,-71.5 295.5,-71.5"/>
<text text-anchor="middle" x="315" y="-78.5" font-family="Helvetica,sans-Serif" font-size="10.00">valijk</text>
</a>
</g>
</g>
<!-- Node8&#45;&gt;Node9 -->
<g id="edge14" class="edge">
<title>Node8&#45;&gt;Node9</title>
<path fill="none" stroke="midnightblue" d="M220.24,-85.02C238.76,-84.23 265.03,-83.1 285.05,-82.24"/>
<polygon fill="midnightblue" stroke="midnightblue" points="285.32,-85.73 295.16,-81.81 285.02,-78.74 285.32,-85.73"/>
</g>
<!-- Node9&#45;&gt;Node5 -->
<g id="edge15" class="edge">
<title>Node9&#45;&gt;Node5</title>
<path fill="none" stroke="midnightblue" d="M334.77,-89.25C345.43,-93.93 359.06,-99.92 371.29,-105.29"/>
<polygon fill="midnightblue" stroke="midnightblue" points="370.15,-108.61 380.71,-109.43 372.97,-102.2 370.15,-108.61"/>
</g>
</g>
</svg>
