<?xml version="1.0" encoding="UTF-8" standalone="no"?>
<!DOCTYPE svg PUBLIC "-//W3C//DTD SVG 1.1//EN"
 "http://www.w3.org/Graphics/SVG/1.1/DTD/svg11.dtd">
<!-- Generated by graphviz version 2.43.0 (0)
 -->
<!-- Title: xtb_gfnff_eg::egbend Pages: 1 -->
<svg width="498pt" height="256pt"
 viewBox="0.00 0.00 498.00 256.00" xmlns="http://www.w3.org/2000/svg" xmlns:xlink="http://www.w3.org/1999/xlink">
<g id="graph0" class="graph" transform="scale(1 1) rotate(0) translate(4 252)">
<title>xtb_gfnff_eg::egbend</title>
<polygon fill="white" stroke="transparent" points="-4,4 -4,-252 494,-252 494,4 -4,4"/>
<!-- Node1 -->
<g id="node1" class="node">
<title>Node1</title>
<g id="a_node1"><a xlink:title=" ">
<polygon fill="#bfbfbf" stroke="black" points="0,-114.5 0,-133.5 119,-133.5 119,-114.5 0,-114.5"/>
<text text-anchor="middle" x="59.5" y="-121.5" font-family="Helvetica,sans-Serif" font-size="10.00">xtb_gfnff_eg::egbend</text>
</a>
</g>
</g>
<!-- Node2 -->
<g id="node2" class="node">
<title>Node2</title>
<g id="a_node2"><a xlink:href="constr_8f90.html#a33141d5407d1f5a7228c0039622893dd" target="_top" xlink:title=" ">
<polygon fill="white" stroke="black" points="201.5,-228.5 201.5,-247.5 248.5,-247.5 248.5,-228.5 201.5,-228.5"/>
<text text-anchor="middle" x="225" y="-235.5" font-family="Helvetica,sans-Serif" font-size="10.00">crprod</text>
</a>
</g>
</g>
<!-- Node1&#45;&gt;Node2 -->
<g id="edge1" class="edge">
<title>Node1&#45;&gt;Node2</title>
<path fill="none" stroke="midnightblue" d="M67.37,-133.72C81.5,-152.98 115.82,-196.13 155,-219 166.04,-225.44 179.35,-229.78 191.32,-232.65"/>
<polygon fill="midnightblue" stroke="midnightblue" points="190.89,-236.14 201.4,-234.83 192.36,-229.3 190.89,-236.14"/>
</g>
<!-- Node3 -->
<g id="node3" class="node">
<title>Node3</title>
<g id="a_node3"><a xlink:href="namespacextb__gfnff__eg.html#a505ae2e25e106239a9a9281d717742a8" target="_top" xlink:title=" ">
<polygon fill="white" stroke="black" points="155,-190.5 155,-209.5 295,-209.5 295,-190.5 155,-190.5"/>
<text text-anchor="middle" x="225" y="-197.5" font-family="Helvetica,sans-Serif" font-size="10.00">xtb_gfnff_eg::gfnffdampa</text>
</a>
</g>
</g>
<!-- Node1&#45;&gt;Node3 -->
<g id="edge2" class="edge">
<title>Node1&#45;&gt;Node3</title>
<path fill="none" stroke="midnightblue" d="M73.64,-133.53C91.34,-145.99 124.19,-167.77 155,-181 160.49,-183.36 166.34,-185.5 172.24,-187.42"/>
<polygon fill="midnightblue" stroke="midnightblue" points="171.55,-190.87 182.14,-190.45 173.6,-184.18 171.55,-190.87"/>
</g>
<!-- Node4 -->
<g id="node4" class="node">
<title>Node4</title>
<g id="a_node4"><a xlink:href="constr_8f90.html#ae4f480642c40f2729449a02839cf06ce" target="_top" xlink:title=" ">
<polygon fill="white" stroke="black" points="202,-152.5 202,-171.5 248,-171.5 248,-152.5 202,-152.5"/>
<text text-anchor="middle" x="225" y="-159.5" font-family="Helvetica,sans-Serif" font-size="10.00">impsc</text>
</a>
</g>
</g>
<!-- Node1&#45;&gt;Node4 -->
<g id="edge3" class="edge">
<title>Node1&#45;&gt;Node4</title>
<path fill="none" stroke="midnightblue" d="M101.76,-133.59C129.69,-140.08 166.07,-148.54 191.86,-154.53"/>
<polygon fill="midnightblue" stroke="midnightblue" points="191.33,-158 201.86,-156.86 192.92,-151.18 191.33,-158"/>
</g>
<!-- Node5 -->
<g id="node5" class="node">
<title>Node5</title>
<g id="a_node5"><a xlink:href="constr_8f90.html#ae82fbacd108d547258e599e6ee56178b" target="_top" xlink:title=" ">
<polygon fill="white" stroke="black" points="200,-114.5 200,-133.5 250,-133.5 250,-114.5 200,-114.5"/>
<text text-anchor="middle" x="225" y="-121.5" font-family="Helvetica,sans-Serif" font-size="10.00">omega</text>
</a>
</g>
</g>
<!-- Node1&#45;&gt;Node5 -->
<g id="edge4" class="edge">
<title>Node1&#45;&gt;Node5</title>
<path fill="none" stroke="midnightblue" d="M119.07,-124C142.79,-124 169.35,-124 189.81,-124"/>
<polygon fill="midnightblue" stroke="midnightblue" points="189.91,-127.5 199.91,-124 189.91,-120.5 189.91,-127.5"/>
</g>
<!-- Node8 -->
<g id="node8" class="node">
<title>Node8</title>
<g id="a_node8"><a xlink:href="math_8f.html#ac9ee911a71ac94ef47b9d30cb1253cc5" target="_top" xlink:title=" ">
<polygon fill="white" stroke="black" points="198.5,-76.5 198.5,-95.5 251.5,-95.5 251.5,-76.5 198.5,-76.5"/>
<text text-anchor="middle" x="225" y="-83.5" font-family="Helvetica,sans-Serif" font-size="10.00">valijklff</text>
</a>
</g>
</g>
<!-- Node1&#45;&gt;Node8 -->
<g id="edge7" class="edge">
<title>Node1&#45;&gt;Node8</title>
<path fill="none" stroke="midnightblue" d="M101.76,-114.41C128.36,-108.23 162.63,-100.26 188.11,-94.34"/>
<polygon fill="midnightblue" stroke="midnightblue" points="189.14,-97.69 198.09,-92.02 187.56,-90.88 189.14,-97.69"/>
</g>
<!-- Node10 -->
<g id="node10" class="node">
<title>Node10</title>
<g id="a_node10"><a xlink:href="math_8f.html#acd26482df43e25a260c09d58fc43406b" target="_top" xlink:title=" ">
<polygon fill="white" stroke="black" points="206,-38.5 206,-57.5 244,-57.5 244,-38.5 206,-38.5"/>
<text text-anchor="middle" x="225" y="-45.5" font-family="Helvetica,sans-Serif" font-size="10.00">vlen</text>
</a>
</g>
</g>
<!-- Node1&#45;&gt;Node10 -->
<g id="edge12" class="edge">
<title>Node1&#45;&gt;Node10</title>
<path fill="none" stroke="midnightblue" d="M73.64,-114.47C91.34,-102.01 124.19,-80.23 155,-67 168.02,-61.41 183.14,-57.03 195.9,-53.89"/>
<polygon fill="midnightblue" stroke="midnightblue" points="197.02,-57.22 205.96,-51.54 195.43,-50.4 197.02,-57.22"/>
</g>
<!-- Node11 -->
<g id="node11" class="node">
<title>Node11</title>
<g id="a_node11"><a xlink:href="math_8f.html#a2657695e1d293c10b5c09b6a7cc34fc0" target="_top" xlink:title=" ">
<polygon fill="white" stroke="black" points="205,-0.5 205,-19.5 245,-19.5 245,-0.5 205,-0.5"/>
<text text-anchor="middle" x="225" y="-7.5" font-family="Helvetica,sans-Serif" font-size="10.00">vsub</text>
</a>
</g>
</g>
<!-- Node1&#45;&gt;Node11 -->
<g id="edge13" class="edge">
<title>Node1&#45;&gt;Node11</title>
<path fill="none" stroke="midnightblue" d="M67.37,-114.28C81.5,-95.02 115.82,-51.87 155,-29 167.07,-21.95 181.86,-17.43 194.64,-14.57"/>
<polygon fill="midnightblue" stroke="midnightblue" points="195.69,-17.94 204.81,-12.55 194.32,-11.07 195.69,-17.94"/>
</g>
<!-- Node6 -->
<g id="node6" class="node">
<title>Node6</title>
<g id="a_node6"><a xlink:href="constr_8f90.html#a10258b751fb1a02456622523df6e8b49" target="_top" xlink:title=" ">
<polygon fill="white" stroke="black" points="331,-114.5 331,-133.5 395,-133.5 395,-114.5 331,-114.5"/>
<text text-anchor="middle" x="363" y="-121.5" font-family="Helvetica,sans-Serif" font-size="10.00">crossprod</text>
</a>
</g>
</g>
<!-- Node5&#45;&gt;Node6 -->
<g id="edge5" class="edge">
<title>Node5&#45;&gt;Node6</title>
<path fill="none" stroke="midnightblue" d="M250,-124C269.51,-124 297.48,-124 320.59,-124"/>
<polygon fill="midnightblue" stroke="midnightblue" points="320.82,-127.5 330.82,-124 320.82,-120.5 320.82,-127.5"/>
</g>
<!-- Node7 -->
<g id="node7" class="node">
<title>Node7</title>
<g id="a_node7"><a xlink:href="constr_8f90.html#af5b7bb0960a128b6ee8d53b2f0ba2135" target="_top" xlink:title=" ">
<polygon fill="white" stroke="black" points="431,-76.5 431,-95.5 490,-95.5 490,-76.5 431,-76.5"/>
<text text-anchor="middle" x="460.5" y="-83.5" font-family="Helvetica,sans-Serif" font-size="10.00">vecnorm</text>
</a>
</g>
</g>
<!-- Node5&#45;&gt;Node7 -->
<g id="edge6" class="edge">
<title>Node5&#45;&gt;Node7</title>
<path fill="none" stroke="midnightblue" d="M250.26,-129.46C290.49,-138.05 369.11,-152.8 395,-143 415.83,-135.11 434.27,-117.09 446.04,-103.4"/>
<polygon fill="midnightblue" stroke="midnightblue" points="448.83,-105.52 452.47,-95.57 443.42,-101.08 448.83,-105.52"/>
</g>
<!-- Node8&#45;&gt;Node6 -->
<g id="edge8" class="edge">
<title>Node8&#45;&gt;Node6</title>
<path fill="none" stroke="midnightblue" d="M251.57,-92.99C264.58,-96.56 280.64,-100.99 295,-105 303.45,-107.36 312.5,-109.91 321.12,-112.35"/>
<polygon fill="midnightblue" stroke="midnightblue" points="320.42,-115.79 330.99,-115.15 322.33,-109.06 320.42,-115.79"/>
</g>
<!-- Node8&#45;&gt;Node7 -->
<g id="edge11" class="edge">
<title>Node8&#45;&gt;Node7</title>
<path fill="none" stroke="midnightblue" d="M251.88,-86C292.84,-86 372.83,-86 420.68,-86"/>
<polygon fill="midnightblue" stroke="midnightblue" points="420.96,-89.5 430.96,-86 420.96,-82.5 420.96,-89.5"/>
</g>
<!-- Node9 -->
<g id="node9" class="node">
<title>Node9</title>
<g id="a_node9"><a xlink:href="constr_8f90.html#a5fc70d66b0231afec39209517852b818" target="_top" xlink:title=" ">
<polygon fill="white" stroke="black" points="341,-38.5 341,-57.5 385,-57.5 385,-38.5 341,-38.5"/>
<text text-anchor="middle" x="363" y="-45.5" font-family="Helvetica,sans-Serif" font-size="10.00">valijk</text>
</a>
</g>
</g>
<!-- Node8&#45;&gt;Node9 -->
<g id="edge9" class="edge">
<title>Node8&#45;&gt;Node9</title>
<path fill="none" stroke="midnightblue" d="M251.57,-79.01C264.58,-75.44 280.64,-71.01 295,-67 306.77,-63.71 319.69,-60.06 331.01,-56.84"/>
<polygon fill="midnightblue" stroke="midnightblue" points="332.23,-60.13 340.89,-54.03 330.31,-53.4 332.23,-60.13"/>
</g>
<!-- Node9&#45;&gt;Node7 -->
<g id="edge10" class="edge">
<title>Node9&#45;&gt;Node7</title>
<path fill="none" stroke="midnightblue" d="M385.19,-56.43C397.13,-61.18 412.32,-67.23 425.85,-72.61"/>
<polygon fill="midnightblue" stroke="midnightblue" points="424.75,-75.94 435.34,-76.38 427.34,-69.44 424.75,-75.94"/>
</g>
</g>
</svg>
