<?xml version="1.0" encoding="UTF-8" standalone="no"?>
<!DOCTYPE svg PUBLIC "-//W3C//DTD SVG 1.1//EN"
 "http://www.w3.org/Graphics/SVG/1.1/DTD/svg11.dtd">
<!-- Generated by graphviz version 2.43.0 (0)
 -->
<!-- Title: xtb_modelhessian::mh_swart_outofp Pages: 1 -->
<svg width="681pt" height="154pt"
 viewBox="0.00 0.00 681.00 153.50" xmlns="http://www.w3.org/2000/svg" xmlns:xlink="http://www.w3.org/1999/xlink">
<g id="graph0" class="graph" transform="scale(1 1) rotate(0) translate(4 149.5)">
<title>xtb_modelhessian::mh_swart_outofp</title>
<polygon fill="white" stroke="transparent" points="-4,4 -4,-149.5 677,-149.5 677,4 -4,4"/>
<!-- Node1 -->
<g id="node1" class="node">
<title>Node1</title>
<g id="a_node1"><a xlink:title=" ">
<polygon fill="#bfbfbf" stroke="black" points="0,-52 0,-82 128,-82 128,-52 0,-52"/>
<text text-anchor="start" x="8" y="-70" font-family="Helvetica,sans-Serif" font-size="10.00">xtb_modelhessian::mh</text>
<text text-anchor="middle" x="64" y="-59" font-family="Helvetica,sans-Serif" font-size="10.00">_swart_outofp</text>
</a>
</g>
</g>
<!-- Node2 -->
<g id="node2" class="node">
<title>Node2</title>
<g id="a_node2"><a xlink:href="namespacextb__modelhessian.html#a32eebf22d776cb8137dafb8e6d0eb2ba" target="_top" xlink:title=" ">
<polygon fill="white" stroke="black" points="177.5,-115 177.5,-145 299.5,-145 299.5,-115 177.5,-115"/>
<text text-anchor="start" x="185.5" y="-133" font-family="Helvetica,sans-Serif" font-size="10.00">xtb_modelhessian::fk</text>
<text text-anchor="middle" x="238.5" y="-122" font-family="Helvetica,sans-Serif" font-size="10.00">_swart</text>
</a>
</g>
</g>
<!-- Node1&#45;&gt;Node2 -->
<g id="edge1" class="edge">
<title>Node1&#45;&gt;Node2</title>
<path fill="none" stroke="midnightblue" d="M103.42,-82.14C121.71,-89.25 143.92,-97.73 164,-105 169.99,-107.17 176.27,-109.39 182.53,-111.56"/>
<polygon fill="midnightblue" stroke="midnightblue" points="181.72,-114.98 192.31,-114.94 184,-108.37 181.72,-114.98"/>
</g>
<!-- Node3 -->
<g id="node3" class="node">
<title>Node3</title>
<g id="a_node3"><a xlink:href="namespacextb__modelhessian.html#a5f74ce78dbaa3ff66d505b6126cd6674" target="_top" xlink:title=" ">
<polygon fill="white" stroke="black" points="165,-76.5 165,-95.5 312,-95.5 312,-76.5 165,-76.5"/>
<text text-anchor="middle" x="238.5" y="-83.5" font-family="Helvetica,sans-Serif" font-size="10.00">xtb_modelhessian::fk_vdw</text>
</a>
</g>
</g>
<!-- Node1&#45;&gt;Node3 -->
<g id="edge2" class="edge">
<title>Node1&#45;&gt;Node3</title>
<path fill="none" stroke="midnightblue" d="M128.25,-73.97C136.92,-74.92 145.91,-75.91 154.86,-76.9"/>
<polygon fill="midnightblue" stroke="midnightblue" points="154.59,-80.39 164.91,-78.01 155.36,-73.43 154.59,-80.39"/>
</g>
<!-- Node4 -->
<g id="node4" class="node">
<title>Node4</title>
<g id="a_node4"><a xlink:href="namespacextb__modelhessian.html#a0fc5c82305ca92f7b9625a6869c279c8" target="_top" xlink:title=" ">
<polygon fill="white" stroke="black" points="175,-38.5 175,-57.5 302,-57.5 302,-38.5 175,-38.5"/>
<text text-anchor="middle" x="238.5" y="-45.5" font-family="Helvetica,sans-Serif" font-size="10.00">xtb_modelhessian::ind</text>
</a>
</g>
</g>
<!-- Node1&#45;&gt;Node4 -->
<g id="edge3" class="edge">
<title>Node1&#45;&gt;Node4</title>
<path fill="none" stroke="midnightblue" d="M128.25,-60.03C140.12,-58.73 152.62,-57.35 164.75,-56.01"/>
<polygon fill="midnightblue" stroke="midnightblue" points="165.27,-59.48 174.83,-54.9 164.51,-52.52 165.27,-59.48"/>
</g>
<!-- Node7 -->
<g id="node7" class="node">
<title>Node7</title>
<g id="a_node7"><a xlink:href="namespacextb__modelhessian.html#aef3aed886110afcfa8b8f9dcb49539ea" target="_top" xlink:title=" ">
<polygon fill="white" stroke="black" points="164,-0.5 164,-19.5 313,-19.5 313,-0.5 164,-0.5"/>
<text text-anchor="middle" x="238.5" y="-7.5" font-family="Helvetica,sans-Serif" font-size="10.00">xtb_modelhessian::outofp2</text>
</a>
</g>
</g>
<!-- Node1&#45;&gt;Node7 -->
<g id="edge6" class="edge">
<title>Node1&#45;&gt;Node7</title>
<path fill="none" stroke="midnightblue" d="M101.32,-51.92C119.89,-44.5 142.96,-35.73 164,-29 171.5,-26.6 179.51,-24.28 187.37,-22.14"/>
<polygon fill="midnightblue" stroke="midnightblue" points="188.44,-25.48 197.21,-19.54 186.65,-18.72 188.44,-25.48"/>
</g>
<!-- Node5 -->
<g id="node5" class="node">
<title>Node5</title>
<g id="a_node5"><a xlink:href="namespacextb__modelhessian.html#ad5b302d227ff0bda37ab6e452a7e71f0" target="_top" xlink:title=" ">
<polygon fill="white" stroke="black" points="354,-76.5 354,-95.5 486,-95.5 486,-76.5 354,-76.5"/>
<text text-anchor="middle" x="420" y="-83.5" font-family="Helvetica,sans-Serif" font-size="10.00">xtb_modelhessian::ixyz</text>
</a>
</g>
</g>
<!-- Node4&#45;&gt;Node5 -->
<g id="edge4" class="edge">
<title>Node4&#45;&gt;Node5</title>
<path fill="none" stroke="midnightblue" d="M284.8,-57.59C308.91,-62.69 338.75,-69.01 364.17,-74.39"/>
<polygon fill="midnightblue" stroke="midnightblue" points="363.52,-77.83 374.03,-76.48 364.97,-70.98 363.52,-77.83"/>
</g>
<!-- Node6 -->
<g id="node6" class="node">
<title>Node6</title>
<g id="a_node6"><a xlink:href="namespacextb__modelhessian.html#a4c09cd1aade9a59a35a770f0908823fc" target="_top" xlink:title=" ">
<polygon fill="white" stroke="black" points="356.5,-38.5 356.5,-57.5 483.5,-57.5 483.5,-38.5 356.5,-38.5"/>
<text text-anchor="middle" x="420" y="-45.5" font-family="Helvetica,sans-Serif" font-size="10.00">xtb_modelhessian::jnd</text>
</a>
</g>
</g>
<!-- Node4&#45;&gt;Node6 -->
<g id="edge5" class="edge">
<title>Node4&#45;&gt;Node6</title>
<path fill="none" stroke="midnightblue" d="M302.03,-48C316.33,-48 331.66,-48 346.34,-48"/>
<polygon fill="midnightblue" stroke="midnightblue" points="346.39,-51.5 356.39,-48 346.39,-44.5 346.39,-51.5"/>
</g>
<!-- Node8 -->
<g id="node8" class="node">
<title>Node8</title>
<g id="a_node8"><a xlink:href="namespacextb__modelhessian.html#ab4301b91a670e55ec855e23eddcf4e21" target="_top" xlink:title=" ">
<polygon fill="white" stroke="black" points="349,-0.5 349,-19.5 491,-19.5 491,-0.5 349,-0.5"/>
<text text-anchor="middle" x="420" y="-7.5" font-family="Helvetica,sans-Serif" font-size="10.00">xtb_modelhessian::bend2</text>
</a>
</g>
</g>
<!-- Node7&#45;&gt;Node8 -->
<g id="edge7" class="edge">
<title>Node7&#45;&gt;Node8</title>
<path fill="none" stroke="midnightblue" d="M313.03,-10C321.42,-10 330.02,-10 338.5,-10"/>
<polygon fill="midnightblue" stroke="midnightblue" points="338.77,-13.5 348.77,-10 338.77,-6.5 338.77,-13.5"/>
</g>
<!-- Node9 -->
<g id="node9" class="node">
<title>Node9</title>
<g id="a_node9"><a xlink:href="namespacextb__modelhessian.html#af7d3c309b0a8fdcbd7ec6fe9bcc92235" target="_top" xlink:title=" ">
<polygon fill="white" stroke="black" points="527,-0.5 527,-19.5 673,-19.5 673,-0.5 527,-0.5"/>
<text text-anchor="middle" x="600" y="-7.5" font-family="Helvetica,sans-Serif" font-size="10.00">xtb_modelhessian::strtch2</text>
</a>
</g>
</g>
<!-- Node8&#45;&gt;Node9 -->
<g id="edge8" class="edge">
<title>Node8&#45;&gt;Node9</title>
<path fill="none" stroke="midnightblue" d="M491.09,-10C499.56,-10 508.26,-10 516.87,-10"/>
<polygon fill="midnightblue" stroke="midnightblue" points="516.92,-13.5 526.92,-10 516.92,-6.5 516.92,-13.5"/>
</g>
</g>
</svg>
