<?xml version="1.0" encoding="UTF-8" standalone="no"?>
<!DOCTYPE svg PUBLIC "-//W3C//DTD SVG 1.1//EN"
 "http://www.w3.org/Graphics/SVG/1.1/DTD/svg11.dtd">
<!-- Generated by graphviz version 2.43.0 (0)
 -->
<!-- Title: xtb_type_neighbourlist::resizeimage Pages: 1 -->
<svg width="474pt" height="88pt"
 viewBox="0.00 0.00 474.00 88.00" xmlns="http://www.w3.org/2000/svg" xmlns:xlink="http://www.w3.org/1999/xlink">
<g id="graph0" class="graph" transform="scale(1 1) rotate(0) translate(4 84)">
<title>xtb_type_neighbourlist::resizeimage</title>
<polygon fill="white" stroke="transparent" points="-4,4 -4,-84 470,-84 470,4 -4,4"/>
<!-- Node1 -->
<g id="node1" class="node">
<title>Node1</title>
<g id="a_node1"><a xlink:title="Reallocate arrays which depends on the maximal nr. of all atoms.">
<polygon fill="#bfbfbf" stroke="black" points="338,-24.5 338,-54.5 466,-54.5 466,-24.5 338,-24.5"/>
<text text-anchor="start" x="346" y="-42.5" font-family="Helvetica,sans-Serif" font-size="10.00">xtb_type_neighbourlist</text>
<text text-anchor="middle" x="402" y="-31.5" font-family="Helvetica,sans-Serif" font-size="10.00">::resizeimage</text>
</a>
</g>
</g>
<!-- Node2 -->
<g id="node2" class="node">
<title>Node2</title>
<g id="a_node2"><a xlink:href="namespacextb__type__wignerseitzcell.html#ac18d09693bbab66b75cebeade9219377" target="_top" xlink:title="Generate Wigner&#45;Seitz cell.">
<polygon fill="white" stroke="black" points="164,-49.5 164,-79.5 302,-79.5 302,-49.5 164,-49.5"/>
<text text-anchor="start" x="172" y="-67.5" font-family="Helvetica,sans-Serif" font-size="10.00">xtb_type_wignerseitzcell</text>
<text text-anchor="middle" x="233" y="-56.5" font-family="Helvetica,sans-Serif" font-size="10.00">::generate</text>
</a>
</g>
</g>
<!-- Node1&#45;&gt;Node2 -->
<g id="edge1" class="edge">
<title>Node1&#45;&gt;Node2</title>
<path fill="none" stroke="midnightblue" d="M327.93,-50.44C319.4,-51.72 310.71,-53.02 302.25,-54.28"/>
<polygon fill="midnightblue" stroke="midnightblue" points="328.49,-53.89 337.86,-48.95 327.46,-46.97 328.49,-53.89"/>
</g>
<!-- Node3 -->
<g id="node3" class="node">
<title>Node3</title>
<g id="a_node3"><a xlink:href="namespacextb__type__neighbourlist.html#a89b0c04a773e11daabce1f9be0f371a4" target="_top" xlink:title="Generate neighbour list in serial.">
<polygon fill="white" stroke="black" points="169,-0.5 169,-30.5 297,-30.5 297,-0.5 169,-0.5"/>
<text text-anchor="start" x="177" y="-18.5" font-family="Helvetica,sans-Serif" font-size="10.00">xtb_type_neighbourlist</text>
<text text-anchor="middle" x="233" y="-7.5" font-family="Helvetica,sans-Serif" font-size="10.00">::generatesequential</text>
</a>
</g>
</g>
<!-- Node1&#45;&gt;Node3 -->
<g id="edge2" class="edge">
<title>Node1&#45;&gt;Node3</title>
<path fill="none" stroke="midnightblue" d="M327.77,-28.98C317.59,-27.51 307.2,-26.02 297.22,-24.59"/>
<polygon fill="midnightblue" stroke="midnightblue" points="327.47,-32.47 337.86,-30.43 328.46,-25.54 327.47,-32.47"/>
</g>
<!-- Node4 -->
<g id="node4" class="node">
<title>Node4</title>
<g id="a_node4"><a xlink:href="namespacextb__type__neighbourlist.html#acaa307048b83c8565e2232654f5c189a" target="_top" xlink:title="Generate neighbour list.">
<polygon fill="white" stroke="black" points="0,-0.5 0,-30.5 128,-30.5 128,-0.5 0,-0.5"/>
<text text-anchor="start" x="8" y="-18.5" font-family="Helvetica,sans-Serif" font-size="10.00">xtb_type_neighbourlist</text>
<text text-anchor="middle" x="64" y="-7.5" font-family="Helvetica,sans-Serif" font-size="10.00">::generate</text>
</a>
</g>
</g>
<!-- Node3&#45;&gt;Node4 -->
<g id="edge3" class="edge">
<title>Node3&#45;&gt;Node4</title>
<path fill="none" stroke="midnightblue" d="M158.77,-15.5C148.59,-15.5 138.2,-15.5 128.22,-15.5"/>
<polygon fill="midnightblue" stroke="midnightblue" points="158.86,-19 168.86,-15.5 158.86,-12 158.86,-19"/>
</g>
</g>
</svg>
