<?xml version="1.0" encoding="UTF-8" standalone="no"?>
<!DOCTYPE svg PUBLIC "-//W3C//DTD SVG 1.1//EN"
 "http://www.w3.org/Graphics/SVG/1.1/DTD/svg11.dtd">
<!-- Generated by graphviz version 2.46.1 (20210215.1649)
 -->
<!-- Title: xtb_hlex::hlex Pages: 1 -->
<svg width="490pt" height="161pt"
 viewBox="0.00 0.00 490.00 161.00" xmlns="http://www.w3.org/2000/svg" xmlns:xlink="http://www.w3.org/1999/xlink">
<g id="graph0" class="graph" transform="scale(1 1) rotate(0) translate(4 157)">
<title>xtb_hlex::hlex</title>
<polygon fill="white" stroke="transparent" points="-4,4 -4,-157 486,-157 486,4 -4,4"/>
<!-- Node1 -->
<g id="node1" class="node">
<title>Node1</title>
<g id="a_node1"><a xlink:title=" ">
<polygon fill="#bfbfbf" stroke="black" points="0,-85.5 0,-104.5 74,-104.5 74,-85.5 0,-85.5"/>
<text text-anchor="middle" x="37" y="-92.5" font-family="Helvetica,sans-Serif" font-size="10.00">xtb_hlex::hlex</text>
</a>
</g>
</g>
<!-- Node2 -->
<g id="node2" class="node">
<title>Node2</title>
<g id="a_node2"><a xlink:href="namespacextb__dtrafo.html#ad3d74576b214120a6877138c0dcb681a" target="_top" xlink:title=" ">
<polygon fill="white" stroke="black" points="110,-128.5 110,-147.5 216,-147.5 216,-128.5 110,-128.5"/>
<text text-anchor="middle" x="163" y="-135.5" font-family="Helvetica,sans-Serif" font-size="10.00">xtb_dtrafo::cao2saop</text>
</a>
</g>
</g>
<!-- Node1&#45;&gt;Node2 -->
<g id="edge1" class="edge">
<title>Node1&#45;&gt;Node2</title>
<path fill="none" stroke="midnightblue" d="M65.52,-104.54C83.02,-110.61 105.89,-118.54 124.97,-125.16"/>
<polygon fill="midnightblue" stroke="midnightblue" points="123.96,-128.51 134.56,-128.48 126.26,-121.9 123.96,-128.51"/>
</g>
<!-- Node4 -->
<g id="node4" class="node">
<title>Node4</title>
<g id="a_node4"><a xlink:href="namespacextb__dipole.html#aab0b85d5f1bccf51f2906833306ff640" target="_top" xlink:title=" ">
<polygon fill="white" stroke="black" points="120,-85.5 120,-104.5 206,-104.5 206,-85.5 120,-85.5"/>
<text text-anchor="middle" x="163" y="-92.5" font-family="Helvetica,sans-Serif" font-size="10.00">xtb_dipole::dints</text>
</a>
</g>
</g>
<!-- Node1&#45;&gt;Node4 -->
<g id="edge3" class="edge">
<title>Node1&#45;&gt;Node4</title>
<path fill="none" stroke="midnightblue" d="M74.2,-95C85.26,-95 97.65,-95 109.56,-95"/>
<polygon fill="midnightblue" stroke="midnightblue" points="109.85,-98.5 119.85,-95 109.85,-91.5 109.85,-98.5"/>
</g>
<!-- Node11 -->
<g id="node11" class="node">
<title>Node11</title>
<g id="a_node11"><a xlink:href="namespacextb__onetri.html#a4ce8be029d74ce6f577e953606794809" target="_top" xlink:title=" ">
<polygon fill="white" stroke="black" points="119.5,-38.5 119.5,-57.5 206.5,-57.5 206.5,-38.5 119.5,-38.5"/>
<text text-anchor="middle" x="163" y="-45.5" font-family="Helvetica,sans-Serif" font-size="10.00">xtb_onetri::onetri</text>
</a>
</g>
</g>
<!-- Node1&#45;&gt;Node11 -->
<g id="edge10" class="edge">
<title>Node1&#45;&gt;Node11</title>
<path fill="none" stroke="midnightblue" d="M63.09,-85.49C81.46,-78.53 106.62,-68.99 126.97,-61.28"/>
<polygon fill="midnightblue" stroke="midnightblue" points="128.41,-64.48 136.52,-57.66 125.93,-57.93 128.41,-64.48"/>
</g>
<!-- Node3 -->
<g id="node3" class="node">
<title>Node3</title>
<g id="a_node3"><a xlink:href="constrain__pot_8f90.html#ac62613d43f31c7bfa652ee80083b400b" target="_top" xlink:title=" ">
<polygon fill="white" stroke="black" points="287,-133.5 287,-152.5 316,-152.5 316,-133.5 287,-133.5"/>
<text text-anchor="middle" x="301.5" y="-140.5" font-family="Helvetica,sans-Serif" font-size="10.00">lin</text>
</a>
</g>
</g>
<!-- Node2&#45;&gt;Node3 -->
<g id="edge2" class="edge">
<title>Node2&#45;&gt;Node3</title>
<path fill="none" stroke="midnightblue" d="M216.38,-139.92C237.03,-140.68 259.73,-141.51 276.34,-142.11"/>
<polygon fill="midnightblue" stroke="midnightblue" points="276.64,-145.63 286.76,-142.5 276.9,-138.63 276.64,-145.63"/>
</g>
<!-- Node5 -->
<g id="node5" class="node">
<title>Node5</title>
<g id="a_node5"><a xlink:href="namespacextb__intpack.html#ad6e57dd6c920d9a1d35787c045bc98c6" target="_top" xlink:title=" ">
<polygon fill="white" stroke="black" points="253,-95.5 253,-114.5 350,-114.5 350,-95.5 253,-95.5"/>
<text text-anchor="middle" x="301.5" y="-102.5" font-family="Helvetica,sans-Serif" font-size="10.00">xtb_intpack::opab1</text>
</a>
</g>
</g>
<!-- Node4&#45;&gt;Node5 -->
<g id="edge4" class="edge">
<title>Node4&#45;&gt;Node5</title>
<path fill="none" stroke="midnightblue" d="M206.07,-98.08C217.57,-98.92 230.25,-99.85 242.48,-100.75"/>
<polygon fill="midnightblue" stroke="midnightblue" points="242.38,-104.25 252.61,-101.49 242.89,-97.27 242.38,-104.25"/>
</g>
<!-- Node7 -->
<g id="node7" class="node">
<title>Node7</title>
<g id="a_node7"><a xlink:href="namespacextb__intpack.html#a006d934cfa58ce57ddc3932a0f15120c" target="_top" xlink:title=" ">
<polygon fill="white" stroke="black" points="254,-57.5 254,-76.5 349,-76.5 349,-57.5 254,-57.5"/>
<text text-anchor="middle" x="301.5" y="-64.5" font-family="Helvetica,sans-Serif" font-size="10.00">xtb_intpack::propa</text>
</a>
</g>
</g>
<!-- Node4&#45;&gt;Node7 -->
<g id="edge6" class="edge">
<title>Node4&#45;&gt;Node7</title>
<path fill="none" stroke="midnightblue" d="M206.07,-86.37C218.06,-83.91 231.32,-81.19 244.02,-78.59"/>
<polygon fill="midnightblue" stroke="midnightblue" points="244.96,-81.97 254.05,-76.53 243.55,-75.11 244.96,-81.97"/>
</g>
<!-- Node6 -->
<g id="node6" class="node">
<title>Node6</title>
<g id="a_node6"><a xlink:href="namespacextb__intpack.html#a04bd77a744f041e98e1fdc913e0862c0" target="_top" xlink:title=" ">
<polygon fill="white" stroke="black" points="390,-114.5 390,-133.5 479,-133.5 479,-114.5 390,-114.5"/>
<text text-anchor="middle" x="434.5" y="-121.5" font-family="Helvetica,sans-Serif" font-size="10.00">xtb_intpack::olap</text>
</a>
</g>
</g>
<!-- Node5&#45;&gt;Node6 -->
<g id="edge5" class="edge">
<title>Node5&#45;&gt;Node6</title>
<path fill="none" stroke="midnightblue" d="M350.16,-111.91C359.72,-113.3 369.82,-114.76 379.58,-116.18"/>
<polygon fill="midnightblue" stroke="midnightblue" points="379.17,-119.66 389.57,-117.63 380.18,-112.73 379.17,-119.66"/>
</g>
<!-- Node8 -->
<g id="node8" class="node">
<title>Node8</title>
<g id="a_node8"><a xlink:href="namespacextb__intpack.html#a89bc54e2e899167f10c6f3f78a7246e7" target="_top" xlink:title=" ">
<polygon fill="white" stroke="black" points="388.5,-76.5 388.5,-95.5 480.5,-95.5 480.5,-76.5 388.5,-76.5"/>
<text text-anchor="middle" x="434.5" y="-83.5" font-family="Helvetica,sans-Serif" font-size="10.00">xtb_intpack::divpt</text>
</a>
</g>
</g>
<!-- Node7&#45;&gt;Node8 -->
<g id="edge7" class="edge">
<title>Node7&#45;&gt;Node8</title>
<path fill="none" stroke="midnightblue" d="M349.05,-73.75C358.55,-75.13 368.63,-76.59 378.39,-78.01"/>
<polygon fill="midnightblue" stroke="midnightblue" points="378.02,-81.49 388.41,-79.46 379.02,-74.56 378.02,-81.49"/>
</g>
<!-- Node9 -->
<g id="node9" class="node">
<title>Node9</title>
<g id="a_node9"><a xlink:href="namespacextb__intpack.html#acf64e33c75cc6fd8c468bf9edb4cafbb" target="_top" xlink:title=" ">
<polygon fill="white" stroke="black" points="390,-38.5 390,-57.5 479,-57.5 479,-38.5 390,-38.5"/>
<text text-anchor="middle" x="434.5" y="-45.5" font-family="Helvetica,sans-Serif" font-size="10.00">xtb_intpack::prod</text>
</a>
</g>
</g>
<!-- Node7&#45;&gt;Node9 -->
<g id="edge8" class="edge">
<title>Node7&#45;&gt;Node9</title>
<path fill="none" stroke="midnightblue" d="M349.05,-60.25C358.98,-58.81 369.55,-57.28 379.72,-55.8"/>
<polygon fill="midnightblue" stroke="midnightblue" points="380.33,-59.25 389.73,-54.35 379.33,-52.32 380.33,-59.25"/>
</g>
<!-- Node10 -->
<g id="node10" class="node">
<title>Node10</title>
<g id="a_node10"><a xlink:href="namespacextb__intpack.html#a9a40f9f0fbd48320267942da84027862" target="_top" xlink:title=" ">
<polygon fill="white" stroke="black" points="387,-0.5 387,-19.5 482,-19.5 482,-0.5 387,-0.5"/>
<text text-anchor="middle" x="434.5" y="-7.5" font-family="Helvetica,sans-Serif" font-size="10.00">xtb_intpack::rhftce</text>
</a>
</g>
</g>
<!-- Node7&#45;&gt;Node10 -->
<g id="edge9" class="edge">
<title>Node7&#45;&gt;Node10</title>
<path fill="none" stroke="midnightblue" d="M328.4,-57.47C335.77,-54.59 343.76,-51.31 351,-48 367.45,-40.47 370.61,-36.65 387,-29 390.91,-27.17 395.05,-25.34 399.18,-23.58"/>
<polygon fill="midnightblue" stroke="midnightblue" points="400.81,-26.69 408.69,-19.61 398.11,-20.23 400.81,-26.69"/>
</g>
<!-- Node12 -->
<g id="node12" class="node">
<title>Node12</title>
<g id="a_node12"><a xlink:href="namespacextb__blowsy.html#a48cf895766eb7112f735d185806c7923" target="_top" xlink:title=" ">
<polygon fill="white" stroke="black" points="252,-19.5 252,-38.5 351,-38.5 351,-19.5 252,-19.5"/>
<text text-anchor="middle" x="301.5" y="-26.5" font-family="Helvetica,sans-Serif" font-size="10.00">xtb_blowsy::blowsy</text>
</a>
</g>
</g>
<!-- Node11&#45;&gt;Node12 -->
<g id="edge11" class="edge">
<title>Node11&#45;&gt;Node12</title>
<path fill="none" stroke="midnightblue" d="M206.81,-42.04C217.82,-40.51 229.86,-38.83 241.52,-37.21"/>
<polygon fill="midnightblue" stroke="midnightblue" points="242.22,-40.65 251.65,-35.8 241.26,-33.71 242.22,-40.65"/>
</g>
</g>
</svg>
