<?xml version="1.0" encoding="UTF-8" standalone="no"?>
<!DOCTYPE svg PUBLIC "-//W3C//DTD SVG 1.1//EN"
 "http://www.w3.org/Graphics/SVG/1.1/DTD/svg11.dtd">
<!-- Generated by graphviz version 2.46.0 (20210122.1329)
 -->
<!-- Title: xtb_gfnff_eg::egbend_nci_mul Pages: 1 -->
<svg width="381pt" height="218pt"
 viewBox="0.00 0.00 381.00 218.00" xmlns="http://www.w3.org/2000/svg" xmlns:xlink="http://www.w3.org/1999/xlink">
<g id="graph0" class="graph" transform="scale(1 1) rotate(0) translate(4 214)">
<title>xtb_gfnff_eg::egbend_nci_mul</title>
<polygon fill="white" stroke="transparent" points="-4,4 -4,-214 377,-214 377,4 -4,4"/>
<!-- Node1 -->
<g id="node1" class="node">
<title>Node1</title>
<g id="a_node1"><a xlink:title=" ">
<polygon fill="#bfbfbf" stroke="black" points="0,-90 0,-120 105,-120 105,-90 0,-90"/>
<text text-anchor="start" x="8" y="-108" font-family="Helvetica,sans-Serif" font-size="10.00">xtb_gfnff_eg::egbend</text>
<text text-anchor="middle" x="52.5" y="-97" font-family="Helvetica,sans-Serif" font-size="10.00">_nci_mul</text>
</a>
</g>
</g>
<!-- Node2 -->
<g id="node2" class="node">
<title>Node2</title>
<g id="a_node2"><a xlink:href="constr_8f90.html#a33141d5407d1f5a7228c0039622893dd" target="_top" xlink:title=" ">
<polygon fill="white" stroke="black" points="142.5,-190.5 142.5,-209.5 186.5,-209.5 186.5,-190.5 142.5,-190.5"/>
<text text-anchor="middle" x="164.5" y="-197.5" font-family="Helvetica,sans-Serif" font-size="10.00">crprod</text>
</a>
</g>
</g>
<!-- Node1&#45;&gt;Node2 -->
<g id="edge1" class="edge">
<title>Node1&#45;&gt;Node2</title>
<path fill="none" stroke="midnightblue" d="M70.87,-120.21C88.48,-135.61 116.55,-160.06 141,-181 142,-181.86 143.04,-182.74 144.08,-183.63"/>
<polygon fill="midnightblue" stroke="midnightblue" points="142.14,-186.57 152.03,-190.36 146.66,-181.23 142.14,-186.57"/>
</g>
<!-- Node3 -->
<g id="node3" class="node">
<title>Node3</title>
<g id="a_node3"><a xlink:href="constr_8f90.html#ae4f480642c40f2729449a02839cf06ce" target="_top" xlink:title=" ">
<polygon fill="white" stroke="black" points="143,-152.5 143,-171.5 186,-171.5 186,-152.5 143,-152.5"/>
<text text-anchor="middle" x="164.5" y="-159.5" font-family="Helvetica,sans-Serif" font-size="10.00">impsc</text>
</a>
</g>
</g>
<!-- Node1&#45;&gt;Node3 -->
<g id="edge2" class="edge">
<title>Node1&#45;&gt;Node3</title>
<path fill="none" stroke="midnightblue" d="M82.69,-120.13C99.18,-128.67 119.68,-139.29 135.91,-147.7"/>
<polygon fill="midnightblue" stroke="midnightblue" points="134.41,-150.87 144.9,-152.36 137.63,-144.66 134.41,-150.87"/>
</g>
<!-- Node4 -->
<g id="node4" class="node">
<title>Node4</title>
<g id="a_node4"><a xlink:href="constr_8f90.html#ae82fbacd108d547258e599e6ee56178b" target="_top" xlink:title=" ">
<polygon fill="white" stroke="black" points="141.5,-114.5 141.5,-133.5 187.5,-133.5 187.5,-114.5 141.5,-114.5"/>
<text text-anchor="middle" x="164.5" y="-121.5" font-family="Helvetica,sans-Serif" font-size="10.00">omega</text>
</a>
</g>
</g>
<!-- Node1&#45;&gt;Node4 -->
<g id="edge3" class="edge">
<title>Node1&#45;&gt;Node4</title>
<path fill="none" stroke="midnightblue" d="M105.28,-113.94C114.21,-115.49 123.26,-117.05 131.47,-118.47"/>
<polygon fill="midnightblue" stroke="midnightblue" points="130.91,-121.92 141.36,-120.18 132.1,-115.02 130.91,-121.92"/>
</g>
<!-- Node7 -->
<g id="node7" class="node">
<title>Node7</title>
<g id="a_node7"><a xlink:href="math_8f.html#ac9ee911a71ac94ef47b9d30cb1253cc5" target="_top" xlink:title=" ">
<polygon fill="white" stroke="black" points="141,-76.5 141,-95.5 188,-95.5 188,-76.5 141,-76.5"/>
<text text-anchor="middle" x="164.5" y="-83.5" font-family="Helvetica,sans-Serif" font-size="10.00">valijklff</text>
</a>
</g>
</g>
<!-- Node1&#45;&gt;Node7 -->
<g id="edge6" class="edge">
<title>Node1&#45;&gt;Node7</title>
<path fill="none" stroke="midnightblue" d="M105.28,-96.06C113.96,-94.56 122.74,-93.04 130.77,-91.65"/>
<polygon fill="midnightblue" stroke="midnightblue" points="131.55,-95.07 140.81,-89.92 130.36,-88.17 131.55,-95.07"/>
</g>
<!-- Node9 -->
<g id="node9" class="node">
<title>Node9</title>
<g id="a_node9"><a xlink:href="math_8f.html#acd26482df43e25a260c09d58fc43406b" target="_top" xlink:title=" ">
<polygon fill="white" stroke="black" points="147,-38.5 147,-57.5 182,-57.5 182,-38.5 147,-38.5"/>
<text text-anchor="middle" x="164.5" y="-45.5" font-family="Helvetica,sans-Serif" font-size="10.00">vlen</text>
</a>
</g>
</g>
<!-- Node1&#45;&gt;Node9 -->
<g id="edge11" class="edge">
<title>Node1&#45;&gt;Node9</title>
<path fill="none" stroke="midnightblue" d="M82.69,-89.87C99.82,-81 121.28,-69.88 137.77,-61.33"/>
<polygon fill="midnightblue" stroke="midnightblue" points="139.57,-64.34 146.84,-56.63 136.35,-58.13 139.57,-64.34"/>
</g>
<!-- Node10 -->
<g id="node10" class="node">
<title>Node10</title>
<g id="a_node10"><a xlink:href="math_8f.html#a2657695e1d293c10b5c09b6a7cc34fc0" target="_top" xlink:title=" ">
<polygon fill="white" stroke="black" points="145.5,-0.5 145.5,-19.5 183.5,-19.5 183.5,-0.5 145.5,-0.5"/>
<text text-anchor="middle" x="164.5" y="-7.5" font-family="Helvetica,sans-Serif" font-size="10.00">vsub</text>
</a>
</g>
</g>
<!-- Node1&#45;&gt;Node10 -->
<g id="edge12" class="edge">
<title>Node1&#45;&gt;Node10</title>
<path fill="none" stroke="midnightblue" d="M70.87,-89.79C88.48,-74.39 116.55,-49.94 141,-29 142,-28.14 143.04,-27.26 144.08,-26.37"/>
<polygon fill="midnightblue" stroke="midnightblue" points="146.66,-28.77 152.03,-19.64 142.14,-23.43 146.66,-28.77"/>
</g>
<!-- Node5 -->
<g id="node5" class="node">
<title>Node5</title>
<g id="a_node5"><a xlink:href="constr_8f90.html#a10258b751fb1a02456622523df6e8b49" target="_top" xlink:title=" ">
<polygon fill="white" stroke="black" points="224,-114.5 224,-133.5 283,-133.5 283,-114.5 224,-114.5"/>
<text text-anchor="middle" x="253.5" y="-121.5" font-family="Helvetica,sans-Serif" font-size="10.00">crossprod</text>
</a>
</g>
</g>
<!-- Node4&#45;&gt;Node5 -->
<g id="edge4" class="edge">
<title>Node4&#45;&gt;Node5</title>
<path fill="none" stroke="midnightblue" d="M187.9,-124C195.79,-124 204.9,-124 213.75,-124"/>
<polygon fill="midnightblue" stroke="midnightblue" points="213.92,-127.5 223.92,-124 213.92,-120.5 213.92,-127.5"/>
</g>
<!-- Node6 -->
<g id="node6" class="node">
<title>Node6</title>
<g id="a_node6"><a xlink:href="constr_8f90.html#af5b7bb0960a128b6ee8d53b2f0ba2135" target="_top" xlink:title=" ">
<polygon fill="white" stroke="black" points="319,-76.5 319,-95.5 373,-95.5 373,-76.5 319,-76.5"/>
<text text-anchor="middle" x="346" y="-83.5" font-family="Helvetica,sans-Serif" font-size="10.00">vecnorm</text>
</a>
</g>
</g>
<!-- Node4&#45;&gt;Node6 -->
<g id="edge5" class="edge">
<title>Node4&#45;&gt;Node6</title>
<path fill="none" stroke="midnightblue" d="M186.14,-133.66C210.16,-143.49 250.65,-155.61 283,-143 303.12,-135.16 320.65,-117.4 331.89,-103.77"/>
<polygon fill="midnightblue" stroke="midnightblue" points="334.92,-105.59 338.33,-95.56 329.41,-101.27 334.92,-105.59"/>
</g>
<!-- Node7&#45;&gt;Node5 -->
<g id="edge7" class="edge">
<title>Node7&#45;&gt;Node5</title>
<path fill="none" stroke="midnightblue" d="M187.45,-95.59C197.65,-100.04 209.97,-105.42 221.13,-110.3"/>
<polygon fill="midnightblue" stroke="midnightblue" points="219.99,-113.62 230.55,-114.41 222.79,-107.2 219.99,-113.62"/>
</g>
<!-- Node7&#45;&gt;Node6 -->
<g id="edge10" class="edge">
<title>Node7&#45;&gt;Node6</title>
<path fill="none" stroke="midnightblue" d="M188.23,-86C218.63,-86 272.85,-86 308.87,-86"/>
<polygon fill="midnightblue" stroke="midnightblue" points="308.97,-89.5 318.97,-86 308.97,-82.5 308.97,-89.5"/>
</g>
<!-- Node8 -->
<g id="node8" class="node">
<title>Node8</title>
<g id="a_node8"><a xlink:href="constr_8f90.html#a5fc70d66b0231afec39209517852b818" target="_top" xlink:title=" ">
<polygon fill="white" stroke="black" points="234,-38.5 234,-57.5 273,-57.5 273,-38.5 234,-38.5"/>
<text text-anchor="middle" x="253.5" y="-45.5" font-family="Helvetica,sans-Serif" font-size="10.00">valijk</text>
</a>
</g>
</g>
<!-- Node7&#45;&gt;Node8 -->
<g id="edge8" class="edge">
<title>Node7&#45;&gt;Node8</title>
<path fill="none" stroke="midnightblue" d="M187.45,-76.41C198.73,-71.48 212.6,-65.43 224.63,-60.17"/>
<polygon fill="midnightblue" stroke="midnightblue" points="226.03,-63.38 233.8,-56.17 223.23,-56.96 226.03,-63.38"/>
</g>
<!-- Node8&#45;&gt;Node6 -->
<g id="edge9" class="edge">
<title>Node8&#45;&gt;Node6</title>
<path fill="none" stroke="midnightblue" d="M273.25,-55.87C284.67,-60.67 299.56,-66.92 312.81,-72.48"/>
<polygon fill="midnightblue" stroke="midnightblue" points="311.52,-75.74 322.1,-76.38 314.23,-69.29 311.52,-75.74"/>
</g>
</g>
</svg>
