<?xml version="1.0" encoding="UTF-8" standalone="no"?>
<!DOCTYPE svg PUBLIC "-//W3C//DTD SVG 1.1//EN"
 "http://www.w3.org/Graphics/SVG/1.1/DTD/svg11.dtd">
<!-- Generated by graphviz version 2.43.0 (0)
 -->
<!-- Title: xtb_api_utils::checkglobalenv Pages: 1 -->
<svg width="585pt" height="1660pt"
 viewBox="0.00 0.00 585.00 1659.50" xmlns="http://www.w3.org/2000/svg" xmlns:xlink="http://www.w3.org/1999/xlink">
<g id="graph0" class="graph" transform="scale(1 1) rotate(0) translate(4 1655.5)">
<title>xtb_api_utils::checkglobalenv</title>
<polygon fill="white" stroke="transparent" points="-4,4 -4,-1655.5 581,-1655.5 581,4 -4,4"/>
<!-- Node1 -->
<g id="node1" class="node">
<title>Node1</title>
<g id="a_node1"><a xlink:title=" ">
<polygon fill="#bfbfbf" stroke="black" points="416,-870.5 416,-889.5 577,-889.5 577,-870.5 416,-870.5"/>
<text text-anchor="middle" x="496.5" y="-877.5" font-family="Helvetica,sans-Serif" font-size="10.00">xtb_api_utils::checkglobalenv</text>
</a>
</g>
</g>
<!-- Node2 -->
<g id="node2" class="node">
<title>Node2</title>
<g id="a_node2"><a xlink:href="namespacextb__api__environment.html#a09651f1e8b0d26fef2884d6f445742da" target="_top" xlink:title="Check current status of calculation environment.">
<polygon fill="white" stroke="black" points="201.5,-1621 201.5,-1651 334.5,-1651 334.5,-1621 201.5,-1621"/>
<text text-anchor="start" x="209.5" y="-1639" font-family="Helvetica,sans-Serif" font-size="10.00">xtb_api_environment</text>
<text text-anchor="middle" x="268" y="-1628" font-family="Helvetica,sans-Serif" font-size="10.00">::checkenvironment_api</text>
</a>
</g>
</g>
<!-- Node1&#45;&gt;Node2 -->
<g id="edge1" class="edge">
<title>Node1&#45;&gt;Node2</title>
<path fill="none" stroke="midnightblue" d="M495.26,-899.87C493.58,-1005.88 480.35,-1503.92 380,-1611 368.18,-1623.61 351.47,-1630.52 334.6,-1634.16"/>
<polygon fill="midnightblue" stroke="midnightblue" points="498.76,-899.7 495.41,-889.65 491.77,-899.6 498.76,-899.7"/>
</g>
<!-- Node3 -->
<g id="node3" class="node">
<title>Node3</title>
<g id="a_node3"><a xlink:href="namespacextb__api__results.html#a3e8b3c7fd74e68e2837dbf06f5c4bcba" target="_top" xlink:title="Create copy from a singlepoint results object.">
<polygon fill="white" stroke="black" points="181.5,-1582.5 181.5,-1601.5 354.5,-1601.5 354.5,-1582.5 181.5,-1582.5"/>
<text text-anchor="middle" x="268" y="-1589.5" font-family="Helvetica,sans-Serif" font-size="10.00">xtb_api_results::copyresults_api</text>
</a>
</g>
</g>
<!-- Node1&#45;&gt;Node3 -->
<g id="edge2" class="edge">
<title>Node1&#45;&gt;Node3</title>
<path fill="none" stroke="midnightblue" d="M495.17,-899.89C493.04,-1002.89 477.99,-1474.58 380,-1573 372.9,-1580.14 364.16,-1585.17 354.73,-1588.66"/>
<polygon fill="midnightblue" stroke="midnightblue" points="498.67,-899.74 495.36,-889.67 491.68,-899.6 498.67,-899.74"/>
</g>
<!-- Node4 -->
<g id="node4" class="node">
<title>Node4</title>
<g id="a_node4"><a xlink:href="namespacextb__api__calculator.html#a2a5a52e9cc634ef4beb3d9b06fc8b772" target="_top" xlink:title=" ">
<polygon fill="white" stroke="black" points="215,-1533 215,-1563 321,-1563 321,-1533 215,-1533"/>
<text text-anchor="start" x="223" y="-1551" font-family="Helvetica,sans-Serif" font-size="10.00">xtb_api_calculator</text>
<text text-anchor="middle" x="268" y="-1540" font-family="Helvetica,sans-Serif" font-size="10.00">::delcalculator_api</text>
</a>
</g>
</g>
<!-- Node1&#45;&gt;Node4 -->
<g id="edge3" class="edge">
<title>Node1&#45;&gt;Node4</title>
<path fill="none" stroke="midnightblue" d="M494.68,-899.98C490.25,-997.68 466.16,-1424.2 380,-1518 365.01,-1534.32 342.15,-1542.13 321.07,-1545.74"/>
<polygon fill="midnightblue" stroke="midnightblue" points="498.18,-899.88 495.12,-889.74 491.19,-899.58 498.18,-899.88"/>
</g>
<!-- Node5 -->
<g id="node5" class="node">
<title>Node5</title>
<g id="a_node5"><a xlink:href="namespacextb__api__environment.html#a8efd53ea172711c105e7c11745c96869" target="_top" xlink:title="Delete a xtb calculation environment object.">
<polygon fill="white" stroke="black" points="0,-1017 0,-1047 120,-1047 120,-1017 0,-1017"/>
<text text-anchor="start" x="8" y="-1035" font-family="Helvetica,sans-Serif" font-size="10.00">xtb_api_environment</text>
<text text-anchor="middle" x="60" y="-1024" font-family="Helvetica,sans-Serif" font-size="10.00">::delenvironment_api</text>
</a>
</g>
</g>
<!-- Node1&#45;&gt;Node5 -->
<g id="edge4" class="edge">
<title>Node1&#45;&gt;Node5</title>
<path fill="none" stroke="midnightblue" d="M494.94,-900.03C491.81,-996.09 473.03,-1408.05 380,-1485 341.64,-1516.73 194.64,-1516.38 156,-1485 85.67,-1427.89 65.53,-1119.9 61.73,-1047.33"/>
<polygon fill="midnightblue" stroke="midnightblue" points="498.44,-900.03 495.25,-889.93 491.45,-899.82 498.44,-900.03"/>
</g>
<!-- Node6 -->
<g id="node6" class="node">
<title>Node6</title>
<g id="a_node6"><a xlink:href="namespacextb__api__molecule.html#a0b1f43ab02a1806180b9118de0bd9f0a" target="_top" xlink:title=" ">
<polygon fill="white" stroke="black" points="173.5,-1456.5 173.5,-1475.5 362.5,-1475.5 362.5,-1456.5 173.5,-1456.5"/>
<text text-anchor="middle" x="268" y="-1463.5" font-family="Helvetica,sans-Serif" font-size="10.00">xtb_api_molecule::delmolecule_api</text>
</a>
</g>
</g>
<!-- Node1&#45;&gt;Node6 -->
<g id="edge5" class="edge">
<title>Node1&#45;&gt;Node6</title>
<path fill="none" stroke="midnightblue" d="M494.39,-899.61C488.85,-990.36 461.12,-1368.39 380,-1447 374.88,-1451.97 368.96,-1455.9 362.57,-1459"/>
<polygon fill="midnightblue" stroke="midnightblue" points="497.89,-899.78 494.98,-889.59 490.9,-899.37 497.89,-899.78"/>
</g>
<!-- Node7 -->
<g id="node7" class="node">
<title>Node7</title>
<g id="a_node7"><a xlink:href="namespacextb__api__results.html#a0915eae4d4ec86e604a67080b920e065" target="_top" xlink:title="Delete singlepoint results object.">
<polygon fill="white" stroke="black" points="185.5,-1418.5 185.5,-1437.5 350.5,-1437.5 350.5,-1418.5 185.5,-1418.5"/>
<text text-anchor="middle" x="268" y="-1425.5" font-family="Helvetica,sans-Serif" font-size="10.00">xtb_api_results::delresults_api</text>
</a>
</g>
</g>
<!-- Node1&#45;&gt;Node7 -->
<g id="edge6" class="edge">
<title>Node1&#45;&gt;Node7</title>
<path fill="none" stroke="midnightblue" d="M494.06,-899.94C487.31,-987.47 455.94,-1336.44 380,-1409 371.8,-1416.83 361.62,-1422.09 350.78,-1425.54"/>
<polygon fill="midnightblue" stroke="midnightblue" points="497.56,-900.02 494.82,-889.78 490.58,-899.49 497.56,-900.02"/>
</g>
<!-- Node8 -->
<g id="node8" class="node">
<title>Node8</title>
<g id="a_node8"><a xlink:href="namespacextb__api__results.html#a7e9e9293d4825ce1ec089210c3037ca6" target="_top" xlink:title="Query singlepoint results object for bond orders.">
<polygon fill="white" stroke="black" points="174,-1380.5 174,-1399.5 362,-1399.5 362,-1380.5 174,-1380.5"/>
<text text-anchor="middle" x="268" y="-1387.5" font-family="Helvetica,sans-Serif" font-size="10.00">xtb_api_results::getbondorders_api</text>
</a>
</g>
</g>
<!-- Node1&#45;&gt;Node8 -->
<g id="edge7" class="edge">
<title>Node1&#45;&gt;Node8</title>
<path fill="none" stroke="midnightblue" d="M493.68,-900.1C485.68,-983.91 450.83,-1304.4 380,-1371 374.73,-1375.96 368.66,-1379.88 362.14,-1382.96"/>
<polygon fill="midnightblue" stroke="midnightblue" points="497.19,-900.17 494.63,-889.89 490.22,-899.52 497.19,-900.17"/>
</g>
<!-- Node9 -->
<g id="node9" class="node">
<title>Node9</title>
<g id="a_node9"><a xlink:href="namespacextb__api__results.html#aa11254bb9aef8be960dd9ec7ef8d0ad4" target="_top" xlink:title="Query singlepoint results object for partial charges.">
<polygon fill="white" stroke="black" points="182.5,-1342.5 182.5,-1361.5 353.5,-1361.5 353.5,-1342.5 182.5,-1342.5"/>
<text text-anchor="middle" x="268" y="-1349.5" font-family="Helvetica,sans-Serif" font-size="10.00">xtb_api_results::getcharges_api</text>
</a>
</g>
</g>
<!-- Node1&#45;&gt;Node9 -->
<g id="edge8" class="edge">
<title>Node1&#45;&gt;Node9</title>
<path fill="none" stroke="midnightblue" d="M493.32,-899.54C484.14,-978.44 445.94,-1272.14 380,-1333 372.46,-1339.96 363.34,-1344.87 353.61,-1348.27"/>
<polygon fill="midnightblue" stroke="midnightblue" points="496.81,-899.85 494.47,-889.51 489.86,-899.05 496.81,-899.85"/>
</g>
<!-- Node10 -->
<g id="node10" class="node">
<title>Node10</title>
<g id="a_node10"><a xlink:href="namespacextb__api__results.html#abe235185044fe9b7848f11333f53cd91" target="_top" xlink:title="Query singlepoint results object for dipole moment.">
<polygon fill="white" stroke="black" points="186.5,-1304.5 186.5,-1323.5 349.5,-1323.5 349.5,-1304.5 186.5,-1304.5"/>
<text text-anchor="middle" x="268" y="-1311.5" font-family="Helvetica,sans-Serif" font-size="10.00">xtb_api_results::getdipole_api</text>
</a>
</g>
</g>
<!-- Node1&#45;&gt;Node10 -->
<g id="edge9" class="edge">
<title>Node1&#45;&gt;Node10</title>
<path fill="none" stroke="midnightblue" d="M492.8,-899.81C482.19,-974.83 440.85,-1240.06 380,-1295 371.37,-1302.8 360.75,-1307.99 349.54,-1311.38"/>
<polygon fill="midnightblue" stroke="midnightblue" points="496.28,-900.2 494.19,-889.81 489.35,-899.24 496.28,-900.2"/>
</g>
<!-- Node11 -->
<g id="node11" class="node">
<title>Node11</title>
<g id="a_node11"><a xlink:href="namespacextb__api__results.html#a684df3d112023e46706c4ff08e3a3b0d" target="_top" xlink:title="Query singlepoint results object for energy.">
<polygon fill="white" stroke="black" points="184.5,-1266.5 184.5,-1285.5 351.5,-1285.5 351.5,-1266.5 184.5,-1266.5"/>
<text text-anchor="middle" x="268" y="-1273.5" font-family="Helvetica,sans-Serif" font-size="10.00">xtb_api_results::getenergy_api</text>
</a>
</g>
</g>
<!-- Node1&#45;&gt;Node11 -->
<g id="edge10" class="edge">
<title>Node1&#45;&gt;Node11</title>
<path fill="none" stroke="midnightblue" d="M496.08,-899.98C496.75,-963.24 489.59,-1160.59 380,-1257 371.85,-1264.17 362.02,-1269.12 351.62,-1272.48"/>
<polygon fill="midnightblue" stroke="midnightblue" points="499.58,-899.72 495.89,-889.78 492.58,-899.85 499.58,-899.72"/>
</g>
<!-- Node12 -->
<g id="node12" class="node">
<title>Node12</title>
<g id="a_node12"><a xlink:href="namespacextb__api__environment.html#a4d9b7f55417b9606d4cad04a33e621e7" target="_top" xlink:title="Set verbosity of calculation output.">
<polygon fill="white" stroke="black" points="208,-1217 208,-1247 328,-1247 328,-1217 208,-1217"/>
<text text-anchor="start" x="216" y="-1235" font-family="Helvetica,sans-Serif" font-size="10.00">xtb_api_environment</text>
<text text-anchor="middle" x="268" y="-1224" font-family="Helvetica,sans-Serif" font-size="10.00">::geterror_api</text>
</a>
</g>
</g>
<!-- Node1&#45;&gt;Node12 -->
<g id="edge11" class="edge">
<title>Node1&#45;&gt;Node12</title>
<path fill="none" stroke="midnightblue" d="M494.81,-899.72C491.69,-956.73 474.53,-1123.01 380,-1207 365.82,-1219.6 346.67,-1226.26 328.27,-1229.67"/>
<polygon fill="midnightblue" stroke="midnightblue" points="498.31,-899.71 495.27,-889.56 491.32,-899.39 498.31,-899.71"/>
</g>
<!-- Node13 -->
<g id="node13" class="node">
<title>Node13</title>
<g id="a_node13"><a xlink:href="namespacextb__api__results.html#a4d612fbf8d8e8292d34e12b384c3da28" target="_top" xlink:title="Query singlepoint results object for gradient.">
<polygon fill="white" stroke="black" points="181.5,-1178.5 181.5,-1197.5 354.5,-1197.5 354.5,-1178.5 181.5,-1178.5"/>
<text text-anchor="middle" x="268" y="-1185.5" font-family="Helvetica,sans-Serif" font-size="10.00">xtb_api_results::getgradient_api</text>
</a>
</g>
</g>
<!-- Node1&#45;&gt;Node13 -->
<g id="edge12" class="edge">
<title>Node1&#45;&gt;Node13</title>
<path fill="none" stroke="midnightblue" d="M494.01,-899.76C488.87,-952.71 467.09,-1098.57 380,-1169 372.55,-1175.02 363.89,-1179.44 354.75,-1182.64"/>
<polygon fill="midnightblue" stroke="midnightblue" points="497.5,-899.93 494.89,-889.67 490.53,-899.33 497.5,-899.93"/>
</g>
<!-- Node14 -->
<g id="node14" class="node">
<title>Node14</title>
<g id="a_node14"><a xlink:href="namespacextb__api__results.html#a4eb29550b85b6848822ba804be38f886" target="_top" xlink:title="Query singlepoint results object for bond orders.">
<polygon fill="white" stroke="black" points="192.5,-1140.5 192.5,-1159.5 343.5,-1159.5 343.5,-1140.5 192.5,-1140.5"/>
<text text-anchor="middle" x="268" y="-1147.5" font-family="Helvetica,sans-Serif" font-size="10.00">xtb_api_results::getnao_api</text>
</a>
</g>
</g>
<!-- Node1&#45;&gt;Node14 -->
<g id="edge13" class="edge">
<title>Node1&#45;&gt;Node14</title>
<path fill="none" stroke="midnightblue" d="M492.71,-899.72C484.79,-947.81 457.51,-1071.52 380,-1131 369.45,-1139.09 356.68,-1144.23 343.6,-1147.4"/>
<polygon fill="midnightblue" stroke="midnightblue" points="496.19,-900.1 494.26,-889.68 489.27,-899.03 496.19,-900.1"/>
</g>
<!-- Node15 -->
<g id="node15" class="node">
<title>Node15</title>
<g id="a_node15"><a xlink:href="namespacextb__api__results.html#a5e2c2fc314cf26d07c61f7a9dd34c2a8" target="_top" xlink:title="Query singlepoint results object for orbital coefficients.">
<polygon fill="white" stroke="black" points="157.5,-1102.5 157.5,-1121.5 378.5,-1121.5 378.5,-1102.5 157.5,-1102.5"/>
<text text-anchor="middle" x="268" y="-1109.5" font-family="Helvetica,sans-Serif" font-size="10.00">xtb_api_results::getorbitalcoefficients_api</text>
</a>
</g>
</g>
<!-- Node1&#45;&gt;Node15 -->
<g id="edge14" class="edge">
<title>Node1&#45;&gt;Node15</title>
<path fill="none" stroke="midnightblue" d="M491.02,-899.6C480.16,-942.38 448.11,-1044.19 380,-1093 374.76,-1096.76 369.02,-1099.86 363,-1102.42"/>
<polygon fill="midnightblue" stroke="midnightblue" points="494.49,-900.17 493.44,-889.62 487.69,-898.52 494.49,-900.17"/>
</g>
<!-- Node16 -->
<g id="node16" class="node">
<title>Node16</title>
<g id="a_node16"><a xlink:href="namespacextb__api__results.html#afbf974f8761b71900684ef306e99607f" target="_top" xlink:title="Query singlepoint results object for orbital energies.">
<polygon fill="white" stroke="black" points="156,-1064.5 156,-1083.5 380,-1083.5 380,-1064.5 156,-1064.5"/>
<text text-anchor="middle" x="268" y="-1071.5" font-family="Helvetica,sans-Serif" font-size="10.00">xtb_api_results::getorbitaleigenvalues_api</text>
</a>
</g>
</g>
<!-- Node1&#45;&gt;Node16 -->
<g id="edge15" class="edge">
<title>Node1&#45;&gt;Node16</title>
<path fill="none" stroke="midnightblue" d="M488.83,-899.11C474.92,-935.91 439.09,-1016.42 380,-1055 374.19,-1058.79 367.85,-1061.9 361.25,-1064.44"/>
<polygon fill="midnightblue" stroke="midnightblue" points="492.17,-900.16 492.31,-889.57 485.6,-897.76 492.17,-900.16"/>
</g>
<!-- Node17 -->
<g id="node17" class="node">
<title>Node17</title>
<g id="a_node17"><a xlink:href="namespacextb__api__results.html#a74379304576238acc888760ed52a34a6" target="_top" xlink:title="Query singlepoint results object for occupation numbers.">
<polygon fill="white" stroke="black" points="156.5,-1026.5 156.5,-1045.5 379.5,-1045.5 379.5,-1026.5 156.5,-1026.5"/>
<text text-anchor="middle" x="268" y="-1033.5" font-family="Helvetica,sans-Serif" font-size="10.00">xtb_api_results::getorbitaloccupations_api</text>
</a>
</g>
</g>
<!-- Node1&#45;&gt;Node17 -->
<g id="edge16" class="edge">
<title>Node1&#45;&gt;Node17</title>
<path fill="none" stroke="midnightblue" d="M485.57,-898.69C468.42,-928.97 430.21,-988.26 380,-1017 373.3,-1020.84 366.02,-1023.94 358.51,-1026.45"/>
<polygon fill="midnightblue" stroke="midnightblue" points="488.81,-900.07 490.57,-889.62 482.68,-896.69 488.81,-900.07"/>
</g>
<!-- Node18 -->
<g id="node18" class="node">
<title>Node18</title>
<g id="a_node18"><a xlink:href="namespacextb__api__results.html#a443b5099875c2309870a8464cbcceef5" target="_top" xlink:title="Query singlepoint results object for virial.">
<polygon fill="white" stroke="black" points="189,-988.5 189,-1007.5 347,-1007.5 347,-988.5 189,-988.5"/>
<text text-anchor="middle" x="268" y="-995.5" font-family="Helvetica,sans-Serif" font-size="10.00">xtb_api_results::getvirial_api</text>
</a>
</g>
</g>
<!-- Node1&#45;&gt;Node18 -->
<g id="edge17" class="edge">
<title>Node1&#45;&gt;Node18</title>
<path fill="none" stroke="midnightblue" d="M480.89,-897.34C460.7,-920.05 421.97,-959.29 380,-979 369.74,-983.82 358.43,-987.43 347.07,-990.13"/>
<polygon fill="midnightblue" stroke="midnightblue" points="483.77,-899.36 487.69,-889.52 478.49,-894.77 483.77,-899.36"/>
</g>
<!-- Node19 -->
<g id="node19" class="node">
<title>Node19</title>
<g id="a_node19"><a xlink:href="namespacextb__api__calculator.html#a9d6feb3a53eb3b2edb400109a7158040" target="_top" xlink:title=" ">
<polygon fill="white" stroke="black" points="215,-939 215,-969 321,-969 321,-939 215,-939"/>
<text text-anchor="start" x="223" y="-957" font-family="Helvetica,sans-Serif" font-size="10.00">xtb_api_calculator</text>
<text text-anchor="middle" x="268" y="-946" font-family="Helvetica,sans-Serif" font-size="10.00">::loadgfn0xtb_api</text>
</a>
</g>
</g>
<!-- Node1&#45;&gt;Node19 -->
<g id="edge18" class="edge">
<title>Node1&#45;&gt;Node19</title>
<path fill="none" stroke="midnightblue" d="M467.15,-894.13C444.13,-905.15 410.58,-920.18 380,-930 361.13,-936.06 339.97,-941.06 321.23,-944.9"/>
<polygon fill="midnightblue" stroke="midnightblue" points="468.86,-897.19 476.33,-889.68 465.8,-890.89 468.86,-897.19"/>
</g>
<!-- Node20 -->
<g id="node20" class="node">
<title>Node20</title>
<g id="a_node20"><a xlink:href="namespacextb__api__calculator.html#a880727e8708090d0d366d861124c0d48" target="_top" xlink:title=" ">
<polygon fill="white" stroke="black" points="215,-890 215,-920 321,-920 321,-890 215,-890"/>
<text text-anchor="start" x="223" y="-908" font-family="Helvetica,sans-Serif" font-size="10.00">xtb_api_calculator</text>
<text text-anchor="middle" x="268" y="-897" font-family="Helvetica,sans-Serif" font-size="10.00">::loadgfn1xtb_api</text>
</a>
</g>
</g>
<!-- Node1&#45;&gt;Node20 -->
<g id="edge19" class="edge">
<title>Node1&#45;&gt;Node20</title>
<path fill="none" stroke="midnightblue" d="M405.89,-889.89C377.11,-893.07 346.2,-896.48 321.05,-899.25"/>
<polygon fill="midnightblue" stroke="midnightblue" points="406.41,-893.35 415.96,-888.78 405.64,-886.4 406.41,-893.35"/>
</g>
<!-- Node21 -->
<g id="node21" class="node">
<title>Node21</title>
<g id="a_node21"><a xlink:href="namespacextb__api__calculator.html#a382f3cb8f313fadf0cccd4dea5df7ba6" target="_top" xlink:title=" ">
<polygon fill="white" stroke="black" points="215,-841 215,-871 321,-871 321,-841 215,-841"/>
<text text-anchor="start" x="223" y="-859" font-family="Helvetica,sans-Serif" font-size="10.00">xtb_api_calculator</text>
<text text-anchor="middle" x="268" y="-848" font-family="Helvetica,sans-Serif" font-size="10.00">::loadgfn2xtb_api</text>
</a>
</g>
</g>
<!-- Node1&#45;&gt;Node21 -->
<g id="edge20" class="edge">
<title>Node1&#45;&gt;Node21</title>
<path fill="none" stroke="midnightblue" d="M405.89,-870.5C377.11,-867.46 346.2,-864.18 321.05,-861.52"/>
<polygon fill="midnightblue" stroke="midnightblue" points="405.65,-874 415.96,-871.57 406.39,-867.04 405.65,-874"/>
</g>
<!-- Node22 -->
<g id="node22" class="node">
<title>Node22</title>
<g id="a_node22"><a xlink:href="namespacextb__api__calculator.html#a6d6689e12fc963d1bc325f687a8d7d5d" target="_top" xlink:title=" ">
<polygon fill="white" stroke="black" points="215,-792 215,-822 321,-822 321,-792 215,-792"/>
<text text-anchor="start" x="223" y="-810" font-family="Helvetica,sans-Serif" font-size="10.00">xtb_api_calculator</text>
<text text-anchor="middle" x="268" y="-799" font-family="Helvetica,sans-Serif" font-size="10.00">::loadgfnff_api</text>
</a>
</g>
</g>
<!-- Node1&#45;&gt;Node22 -->
<g id="edge21" class="edge">
<title>Node1&#45;&gt;Node22</title>
<path fill="none" stroke="midnightblue" d="M466.23,-866.19C443.19,-855.72 410.06,-841.55 380,-832 361.08,-825.99 339.91,-820.84 321.17,-816.81"/>
<polygon fill="midnightblue" stroke="midnightblue" points="464.9,-869.43 475.45,-870.42 467.82,-863.07 464.9,-869.43"/>
</g>
<!-- Node23 -->
<g id="node23" class="node">
<title>Node23</title>
<g id="a_node23"><a xlink:href="namespacextb__api__calculator.html#a9bff71c62ac75c161bfdb91ecdb689c3" target="_top" xlink:title=" ">
<polygon fill="white" stroke="black" points="212.5,-743 212.5,-773 323.5,-773 323.5,-743 212.5,-743"/>
<text text-anchor="start" x="220.5" y="-761" font-family="Helvetica,sans-Serif" font-size="10.00">xtb_api_calculator</text>
<text text-anchor="middle" x="268" y="-750" font-family="Helvetica,sans-Serif" font-size="10.00">::newcalculator_api</text>
</a>
</g>
</g>
<!-- Node1&#45;&gt;Node23 -->
<g id="edge22" class="edge">
<title>Node1&#45;&gt;Node23</title>
<path fill="none" stroke="midnightblue" d="M480.03,-862.67C459.42,-840.68 420.78,-803.21 380,-783 362.57,-774.36 342.11,-768.67 323.55,-764.94"/>
<polygon fill="midnightblue" stroke="midnightblue" points="477.67,-865.27 487.02,-870.27 482.83,-860.54 477.67,-865.27"/>
</g>
<!-- Node24 -->
<g id="node24" class="node">
<title>Node24</title>
<g id="a_node24"><a xlink:href="namespacextb__api__environment.html#ac1542cc57cae1d369153daf196e77cf3" target="_top" xlink:title="Create new xtb calculation environment object.">
<polygon fill="white" stroke="black" points="205.5,-694 205.5,-724 330.5,-724 330.5,-694 205.5,-694"/>
<text text-anchor="start" x="213.5" y="-712" font-family="Helvetica,sans-Serif" font-size="10.00">xtb_api_environment</text>
<text text-anchor="middle" x="268" y="-701" font-family="Helvetica,sans-Serif" font-size="10.00">::newenvironment_api</text>
</a>
</g>
</g>
<!-- Node1&#45;&gt;Node24 -->
<g id="edge23" class="edge">
<title>Node1&#45;&gt;Node24</title>
<path fill="none" stroke="midnightblue" d="M486.18,-861.26C469.49,-829.72 431.35,-766.3 380,-734 365.29,-724.74 347.57,-718.9 330.66,-715.21"/>
<polygon fill="midnightblue" stroke="midnightblue" points="483.15,-863.01 490.84,-870.3 489.37,-859.81 483.15,-863.01"/>
</g>
<!-- Node25 -->
<g id="node25" class="node">
<title>Node25</title>
<g id="a_node25"><a xlink:href="namespacextb__api__molecule.html#aaf6ed0b7de8de272c4e3aa3b850bb4cd" target="_top" xlink:title=" ">
<polygon fill="white" stroke="black" points="171,-655.5 171,-674.5 365,-674.5 365,-655.5 171,-655.5"/>
<text text-anchor="middle" x="268" y="-662.5" font-family="Helvetica,sans-Serif" font-size="10.00">xtb_api_molecule::newmolecule_api</text>
</a>
</g>
</g>
<!-- Node1&#45;&gt;Node25 -->
<g id="edge24" class="edge">
<title>Node1&#45;&gt;Node25</title>
<path fill="none" stroke="midnightblue" d="M490.06,-860.71C477.72,-820.81 443.64,-729.21 380,-685 373.89,-680.75 367.15,-677.33 360.09,-674.57"/>
<polygon fill="midnightblue" stroke="midnightblue" points="486.7,-861.72 492.91,-870.31 493.41,-859.73 486.7,-861.72"/>
</g>
<!-- Node26 -->
<g id="node26" class="node">
<title>Node26</title>
<g id="a_node26"><a xlink:href="namespacextb__api__results.html#ac0db9d0b4c38487342563b820366e4f0" target="_top" xlink:title="Create new singlepoint results object.">
<polygon fill="white" stroke="black" points="183,-617.5 183,-636.5 353,-636.5 353,-617.5 183,-617.5"/>
<text text-anchor="middle" x="268" y="-624.5" font-family="Helvetica,sans-Serif" font-size="10.00">xtb_api_results::newresults_api</text>
</a>
</g>
</g>
<!-- Node1&#45;&gt;Node26 -->
<g id="edge25" class="edge">
<title>Node1&#45;&gt;Node26</title>
<path fill="none" stroke="midnightblue" d="M492.03,-860.39C482.83,-814.65 453.31,-700.69 380,-646 372.01,-640.04 362.79,-635.7 353.16,-632.57"/>
<polygon fill="midnightblue" stroke="midnightblue" points="488.64,-861.3 493.94,-870.47 495.51,-859.99 488.64,-861.3"/>
</g>
<!-- Node27 -->
<g id="node27" class="node">
<title>Node27</title>
<g id="a_node27"><a xlink:href="namespacextb__api__calculator.html#a399052e8a0a9802bcba5337defb2917a" target="_top" xlink:title="Unset the external charge potential.">
<polygon fill="white" stroke="black" points="189,-568 189,-598 347,-598 347,-568 189,-568"/>
<text text-anchor="start" x="197" y="-586" font-family="Helvetica,sans-Serif" font-size="10.00">xtb_api_calculator</text>
<text text-anchor="middle" x="268" y="-575" font-family="Helvetica,sans-Serif" font-size="10.00">::releaseexternalcharges_api</text>
</a>
</g>
</g>
<!-- Node1&#45;&gt;Node27 -->
<g id="edge26" class="edge">
<title>Node1&#45;&gt;Node27</title>
<path fill="none" stroke="midnightblue" d="M493.24,-860.3C486.36,-809.91 460.95,-675.54 380,-608 370.52,-600.09 359.05,-594.55 347.13,-590.7"/>
<polygon fill="midnightblue" stroke="midnightblue" points="489.8,-861 494.53,-870.48 496.74,-860.12 489.8,-861"/>
</g>
<!-- Node28 -->
<g id="node28" class="node">
<title>Node28</title>
<g id="a_node28"><a xlink:href="namespacextb__api__environment.html#a1962b75eb266dc250db836f97e2fd4ec" target="_top" xlink:title="Release output unit from this environment.">
<polygon fill="white" stroke="black" points="208,-519 208,-549 328,-549 328,-519 208,-519"/>
<text text-anchor="start" x="216" y="-537" font-family="Helvetica,sans-Serif" font-size="10.00">xtb_api_environment</text>
<text text-anchor="middle" x="268" y="-526" font-family="Helvetica,sans-Serif" font-size="10.00">::releaseoutput_api</text>
</a>
</g>
</g>
<!-- Node1&#45;&gt;Node28 -->
<g id="edge27" class="edge">
<title>Node1&#45;&gt;Node28</title>
<path fill="none" stroke="midnightblue" d="M494.66,-860.26C491.15,-803.91 473.03,-641.16 380,-559 365.79,-546.45 346.62,-539.79 328.22,-536.38"/>
<polygon fill="midnightblue" stroke="midnightblue" points="491.17,-860.52 495.2,-870.32 498.16,-860.15 491.17,-860.52"/>
</g>
<!-- Node29 -->
<g id="node29" class="node">
<title>Node29</title>
<g id="a_node29"><a xlink:href="namespacextb__api__environment.html#a9ceff47ae14b410feeeccca873b261c0" target="_top" xlink:title="Bind output from this environment.">
<polygon fill="white" stroke="black" points="0,-497 0,-527 120,-527 120,-497 0,-497"/>
<text text-anchor="start" x="8" y="-515" font-family="Helvetica,sans-Serif" font-size="10.00">xtb_api_environment</text>
<text text-anchor="middle" x="60" y="-504" font-family="Helvetica,sans-Serif" font-size="10.00">::setoutput_api</text>
</a>
</g>
</g>
<!-- Node1&#45;&gt;Node29 -->
<g id="edge35" class="edge">
<title>Node1&#45;&gt;Node29</title>
<path fill="none" stroke="midnightblue" d="M492.44,-860.2C481.1,-789.66 439.06,-552.47 380,-509 298.15,-448.76 169.74,-476.42 103.57,-496.92"/>
<polygon fill="midnightblue" stroke="midnightblue" points="489.03,-861.04 494.05,-870.37 495.94,-859.95 489.03,-861.04"/>
</g>
<!-- Node30 -->
<g id="node30" class="node">
<title>Node30</title>
<g id="a_node30"><a xlink:href="namespacextb__api__calculator.html#a8e25eee694a7f0e6a6075543e11e0fb9" target="_top" xlink:title="Unset the solvation model.">
<polygon fill="white" stroke="black" points="210.5,-431 210.5,-461 325.5,-461 325.5,-431 210.5,-431"/>
<text text-anchor="start" x="218.5" y="-449" font-family="Helvetica,sans-Serif" font-size="10.00">xtb_api_calculator</text>
<text text-anchor="middle" x="268" y="-438" font-family="Helvetica,sans-Serif" font-size="10.00">::releasesolvent_api</text>
</a>
</g>
</g>
<!-- Node1&#45;&gt;Node30 -->
<g id="edge30" class="edge">
<title>Node1&#45;&gt;Node30</title>
<path fill="none" stroke="midnightblue" d="M496.16,-860.35C497.23,-795.47 491.5,-585.9 380,-476 365.57,-461.78 345.13,-454.12 325.72,-450.05"/>
<polygon fill="midnightblue" stroke="midnightblue" points="492.66,-860.34 495.92,-870.42 499.66,-860.51 492.66,-860.34"/>
</g>
<!-- Node31 -->
<g id="node31" class="node">
<title>Node31</title>
<g id="a_node31"><a xlink:href="namespacextb__api__calculator.html#ae4bf2de2be939f42c2136f0b490f25c7" target="_top" xlink:title=" ">
<polygon fill="white" stroke="black" points="215,-382 215,-412 321,-412 321,-382 215,-382"/>
<text text-anchor="start" x="223" y="-400" font-family="Helvetica,sans-Serif" font-size="10.00">xtb_api_calculator</text>
<text text-anchor="middle" x="268" y="-389" font-family="Helvetica,sans-Serif" font-size="10.00">::setaccuracy_api</text>
</a>
</g>
</g>
<!-- Node1&#45;&gt;Node31 -->
<g id="edge31" class="edge">
<title>Node1&#45;&gt;Node31</title>
<path fill="none" stroke="midnightblue" d="M493.29,-860.28C483.97,-780.67 445.31,-484.15 380,-421 364.48,-405.99 341.93,-399.43 321.2,-396.84"/>
<polygon fill="midnightblue" stroke="midnightblue" points="489.83,-860.87 494.45,-870.4 496.79,-860.07 489.83,-860.87"/>
</g>
<!-- Node32 -->
<g id="node32" class="node">
<title>Node32</title>
<g id="a_node32"><a xlink:href="namespacextb__api__calculator.html#aa9cb4107545676cc7eb048f5fd21104c" target="_top" xlink:title=" ">
<polygon fill="white" stroke="black" points="202.5,-333 202.5,-363 333.5,-363 333.5,-333 202.5,-333"/>
<text text-anchor="start" x="210.5" y="-351" font-family="Helvetica,sans-Serif" font-size="10.00">xtb_api_calculator</text>
<text text-anchor="middle" x="268" y="-340" font-family="Helvetica,sans-Serif" font-size="10.00">::setelectronictemp_api</text>
</a>
</g>
</g>
<!-- Node1&#45;&gt;Node32 -->
<g id="edge32" class="edge">
<title>Node1&#45;&gt;Node32</title>
<path fill="none" stroke="midnightblue" d="M493.79,-860.11C486.05,-775.05 451.61,-442.85 380,-372 367.67,-359.8 350.7,-353.15 333.73,-349.68"/>
<polygon fill="midnightblue" stroke="midnightblue" points="490.31,-860.58 494.68,-870.23 497.29,-859.96 490.31,-860.58"/>
</g>
<!-- Node33 -->
<g id="node33" class="node">
<title>Node33</title>
<g id="a_node33"><a xlink:href="namespacextb__api__calculator.html#a417ff1f957205e4d3c37565a21d62b87" target="_top" xlink:title="Add a external charge potential to calculator (only supported in GFN1/2&#45;xTB)">
<polygon fill="white" stroke="black" points="199.5,-284 199.5,-314 336.5,-314 336.5,-284 199.5,-284"/>
<text text-anchor="start" x="207.5" y="-302" font-family="Helvetica,sans-Serif" font-size="10.00">xtb_api_calculator</text>
<text text-anchor="middle" x="268" y="-291" font-family="Helvetica,sans-Serif" font-size="10.00">::setexternalcharges_api</text>
</a>
</g>
</g>
<!-- Node1&#45;&gt;Node33 -->
<g id="edge33" class="edge">
<title>Node1&#45;&gt;Node33</title>
<path fill="none" stroke="midnightblue" d="M494.2,-859.96C487.95,-769.66 457.94,-401.6 380,-323 368.48,-311.38 352.76,-304.77 336.78,-301.15"/>
<polygon fill="midnightblue" stroke="midnightblue" points="490.73,-860.44 494.89,-870.18 497.71,-859.97 490.73,-860.44"/>
</g>
<!-- Node34 -->
<g id="node34" class="node">
<title>Node34</title>
<g id="a_node34"><a xlink:href="namespacextb__api__calculator.html#ade2b03ac3305309f32a21b3d300f32a0" target="_top" xlink:title=" ">
<polygon fill="white" stroke="black" points="215,-235 215,-265 321,-265 321,-235 215,-235"/>
<text text-anchor="start" x="223" y="-253" font-family="Helvetica,sans-Serif" font-size="10.00">xtb_api_calculator</text>
<text text-anchor="middle" x="268" y="-242" font-family="Helvetica,sans-Serif" font-size="10.00">::setmaxiter_api</text>
</a>
</g>
</g>
<!-- Node1&#45;&gt;Node34 -->
<g id="edge34" class="edge">
<title>Node1&#45;&gt;Node34</title>
<path fill="none" stroke="midnightblue" d="M494.57,-860.04C489.73,-765.12 464.37,-360.47 380,-274 364.79,-258.41 342.02,-251.8 321.07,-249.33"/>
<polygon fill="midnightblue" stroke="midnightblue" points="491.08,-860.44 495.07,-870.25 498.08,-860.09 491.08,-860.44"/>
</g>
<!-- Node35 -->
<g id="node35" class="node">
<title>Node35</title>
<g id="a_node35"><a xlink:href="namespacextb__api__calculator.html#a995caa38fe4c40aa8ffbe52994794c40" target="_top" xlink:title="Add a solvation model to calculator (requires loaded parametrisation)">
<polygon fill="white" stroke="black" points="215,-186 215,-216 321,-216 321,-186 215,-186"/>
<text text-anchor="start" x="223" y="-204" font-family="Helvetica,sans-Serif" font-size="10.00">xtb_api_calculator</text>
<text text-anchor="middle" x="268" y="-193" font-family="Helvetica,sans-Serif" font-size="10.00">::setsolvent_api</text>
</a>
</g>
</g>
<!-- Node1&#45;&gt;Node35 -->
<g id="edge36" class="edge">
<title>Node1&#45;&gt;Node35</title>
<path fill="none" stroke="midnightblue" d="M494.89,-860.34C491.41,-761.45 470.88,-319.44 380,-225 364.89,-209.3 342.15,-202.68 321.17,-200.23"/>
<polygon fill="midnightblue" stroke="midnightblue" points="491.39,-860.55 495.23,-870.43 498.39,-860.32 491.39,-860.55"/>
</g>
<!-- Node36 -->
<g id="node36" class="node">
<title>Node36</title>
<g id="a_node36"><a xlink:href="namespacextb__api__environment.html#a3a4dc2612fed95cbb5aba9ef19e3ed07" target="_top" xlink:title="Set verbosity of calculation output.">
<polygon fill="white" stroke="black" points="208,-137 208,-167 328,-167 328,-137 208,-137"/>
<text text-anchor="start" x="216" y="-155" font-family="Helvetica,sans-Serif" font-size="10.00">xtb_api_environment</text>
<text text-anchor="middle" x="268" y="-144" font-family="Helvetica,sans-Serif" font-size="10.00">::setverbosity_api</text>
</a>
</g>
</g>
<!-- Node1&#45;&gt;Node36 -->
<g id="edge37" class="edge">
<title>Node1&#45;&gt;Node36</title>
<path fill="none" stroke="midnightblue" d="M495.15,-860.19C492.89,-756.61 477.28,-278.3 380,-176 366.62,-161.93 347.1,-155.13 328.15,-152.09"/>
<polygon fill="midnightblue" stroke="midnightblue" points="491.65,-860.29 495.35,-870.22 498.65,-860.15 491.65,-860.29"/>
</g>
<!-- Node37 -->
<g id="node37" class="node">
<title>Node37</title>
<g id="a_node37"><a xlink:href="namespacextb__api__environment.html#a2148af3ae9c2ab1364edc87d5d448ddd" target="_top" xlink:title="Show and empty error stack.">
<polygon fill="white" stroke="black" points="202.5,-88 202.5,-118 333.5,-118 333.5,-88 202.5,-88"/>
<text text-anchor="start" x="210.5" y="-106" font-family="Helvetica,sans-Serif" font-size="10.00">xtb_api_environment</text>
<text text-anchor="middle" x="268" y="-95" font-family="Helvetica,sans-Serif" font-size="10.00">::showenvironment_api</text>
</a>
</g>
</g>
<!-- Node1&#45;&gt;Node37 -->
<g id="edge38" class="edge">
<title>Node1&#45;&gt;Node37</title>
<path fill="none" stroke="midnightblue" d="M495.38,-860.19C494.3,-752.39 483.74,-237.24 380,-127 367.97,-114.22 350.89,-107.43 333.73,-104"/>
<polygon fill="midnightblue" stroke="midnightblue" points="491.88,-860.34 495.46,-870.31 498.88,-860.28 491.88,-860.34"/>
</g>
<!-- Node38 -->
<g id="node38" class="node">
<title>Node38</title>
<g id="a_node38"><a xlink:href="namespacextb__api__interface.html#a7e2b6eb7d3bee5044eb00fd1b01d508c" target="_top" xlink:title=" ">
<polygon fill="white" stroke="black" points="214.5,-39 214.5,-69 321.5,-69 321.5,-39 214.5,-39"/>
<text text-anchor="start" x="222.5" y="-57" font-family="Helvetica,sans-Serif" font-size="10.00">xtb_api_interface::</text>
<text text-anchor="middle" x="268" y="-46" font-family="Helvetica,sans-Serif" font-size="10.00">singlepoint_api</text>
</a>
</g>
</g>
<!-- Node1&#45;&gt;Node38 -->
<g id="edge39" class="edge">
<title>Node1&#45;&gt;Node38</title>
<path fill="none" stroke="midnightblue" d="M495.58,-860.33C495.63,-748.75 490.26,-196.25 380,-78 365.21,-62.14 342.64,-55.48 321.7,-53.04"/>
<polygon fill="midnightblue" stroke="midnightblue" points="492.08,-860.47 495.56,-870.48 499.08,-860.49 492.08,-860.47"/>
</g>
<!-- Node39 -->
<g id="node39" class="node">
<title>Node39</title>
<g id="a_node39"><a xlink:href="namespacextb__api__molecule.html#a52d79520bb82b0ce546c6c73144967a2" target="_top" xlink:title=" ">
<polygon fill="white" stroke="black" points="164,-0.5 164,-19.5 372,-19.5 372,-0.5 164,-0.5"/>
<text text-anchor="middle" x="268" y="-7.5" font-family="Helvetica,sans-Serif" font-size="10.00">xtb_api_molecule::updatemolecule_api</text>
</a>
</g>
</g>
<!-- Node1&#45;&gt;Node39 -->
<g id="edge40" class="edge">
<title>Node1&#45;&gt;Node39</title>
<path fill="none" stroke="midnightblue" d="M495.84,-860.15C497.42,-743.95 499.43,-152.63 380,-29 376.47,-25.34 372.51,-22.23 368.25,-19.6"/>
<polygon fill="midnightblue" stroke="midnightblue" points="492.34,-860.35 495.69,-870.41 499.34,-860.46 492.34,-860.35"/>
</g>
<!-- Node28&#45;&gt;Node5 -->
<g id="edge28" class="edge">
<title>Node28&#45;&gt;Node5</title>
<path fill="none" stroke="midnightblue" d="M197.63,-537.12C182.17,-540.95 167.1,-547.64 156,-559 89.86,-626.7 66.46,-943.5 61.88,-1016.82"/>
<polygon fill="midnightblue" stroke="midnightblue" points="198.73,-540.46 207.8,-534.99 197.3,-533.61 198.73,-540.46"/>
</g>
<!-- Node28&#45;&gt;Node29 -->
<g id="edge29" class="edge">
<title>Node28&#45;&gt;Node29</title>
<path fill="none" stroke="midnightblue" d="M197.74,-526.6C172.53,-523.91 144.28,-520.89 120.04,-518.31"/>
<polygon fill="midnightblue" stroke="midnightblue" points="197.65,-530.11 207.97,-527.7 198.4,-523.15 197.65,-530.11"/>
</g>
</g>
</svg>
