<?xml version="1.0" encoding="UTF-8" standalone="no"?>
<!DOCTYPE svg PUBLIC "-//W3C//DTD SVG 1.1//EN"
 "http://www.w3.org/Graphics/SVG/1.1/DTD/svg11.dtd">
<!-- Generated by graphviz version 2.46.0 (20210122.1329)
 -->
<!-- Title: xtb_cqpath::cqpath_read_pathfile Pages: 1 -->
<svg width="420pt" height="142pt"
 viewBox="0.00 0.00 420.00 142.00" xmlns="http://www.w3.org/2000/svg" xmlns:xlink="http://www.w3.org/1999/xlink">
<g id="graph0" class="graph" transform="scale(1 1) rotate(0) translate(4 138)">
<title>xtb_cqpath::cqpath_read_pathfile</title>
<polygon fill="white" stroke="transparent" points="-4,4 -4,-138 416,-138 416,4 -4,4"/>
<!-- Node1 -->
<g id="node1" class="node">
<title>Node1</title>
<g id="a_node1"><a xlink:title=" ">
<polygon fill="#bfbfbf" stroke="black" points="0,-52 0,-82 98,-82 98,-52 0,-52"/>
<text text-anchor="start" x="8" y="-70" font-family="Helvetica,sans-Serif" font-size="10.00">xtb_cqpath::cqpath</text>
<text text-anchor="middle" x="49" y="-59" font-family="Helvetica,sans-Serif" font-size="10.00">_read_pathfile</text>
</a>
</g>
</g>
<!-- Node2 -->
<g id="node2" class="node">
<title>Node2</title>
<g id="a_node2"><a xlink:href="filetools_8F90.html#abe40c19bea97456da4d616af69059aeb" target="_top" xlink:title=" ">
<polygon fill="white" stroke="black" points="160.5,-114.5 160.5,-133.5 217.5,-133.5 217.5,-114.5 160.5,-114.5"/>
<text text-anchor="middle" x="189" y="-121.5" font-family="Helvetica,sans-Serif" font-size="10.00">close_file</text>
</a>
</g>
</g>
<!-- Node1&#45;&gt;Node2 -->
<g id="edge1" class="edge">
<title>Node1&#45;&gt;Node2</title>
<path fill="none" stroke="midnightblue" d="M81.63,-82.09C97.25,-89.34 116.47,-97.97 134,-105 139.44,-107.18 145.23,-109.37 150.93,-111.43"/>
<polygon fill="midnightblue" stroke="midnightblue" points="149.76,-114.73 160.36,-114.79 152.11,-108.14 149.76,-114.73"/>
</g>
<!-- Node3 -->
<g id="node3" class="node">
<title>Node3</title>
<g id="a_node3"><a xlink:href="namespacextb__cqpath.html#a5cc637f5ca3d31fed8bda3d20c2826d9" target="_top" xlink:title=" ">
<polygon fill="white" stroke="black" points="134,-76.5 134,-95.5 244,-95.5 244,-76.5 134,-76.5"/>
<text text-anchor="middle" x="189" y="-83.5" font-family="Helvetica,sans-Serif" font-size="10.00">xtb_cqpath::cqpathe2i</text>
</a>
</g>
</g>
<!-- Node1&#45;&gt;Node3 -->
<g id="edge2" class="edge">
<title>Node1&#45;&gt;Node3</title>
<path fill="none" stroke="midnightblue" d="M98.27,-73.65C106.53,-74.78 115.24,-75.98 123.84,-77.17"/>
<polygon fill="midnightblue" stroke="midnightblue" points="123.48,-80.65 133.87,-78.55 124.44,-73.72 123.48,-80.65"/>
</g>
<!-- Node5 -->
<g id="node5" class="node">
<title>Node5</title>
<g id="a_node5"><a xlink:href="filetools_8F90.html#a68160ec369d61855ea12b180c7ce8c21" target="_top" xlink:title=" ">
<polygon fill="white" stroke="black" points="161.5,-38.5 161.5,-57.5 216.5,-57.5 216.5,-38.5 161.5,-38.5"/>
<text text-anchor="middle" x="189" y="-45.5" font-family="Helvetica,sans-Serif" font-size="10.00">open_file</text>
</a>
</g>
</g>
<!-- Node1&#45;&gt;Node5 -->
<g id="edge4" class="edge">
<title>Node1&#45;&gt;Node5</title>
<path fill="none" stroke="midnightblue" d="M98.27,-60.35C115.61,-57.97 134.88,-55.31 151.1,-53.08"/>
<polygon fill="midnightblue" stroke="midnightblue" points="151.84,-56.51 161.27,-51.68 150.89,-49.58 151.84,-56.51"/>
</g>
<!-- Node6 -->
<g id="node6" class="node">
<title>Node6</title>
<g id="a_node6"><a xlink:href="readl_8f90.html#aefb6440368a41f135fa1eac070ab7f0b" target="_top" xlink:title=" ">
<polygon fill="white" stroke="black" points="170,-0.5 170,-19.5 208,-19.5 208,-0.5 170,-0.5"/>
<text text-anchor="middle" x="189" y="-7.5" font-family="Helvetica,sans-Serif" font-size="10.00">readl</text>
</a>
</g>
</g>
<!-- Node1&#45;&gt;Node6 -->
<g id="edge5" class="edge">
<title>Node1&#45;&gt;Node6</title>
<path fill="none" stroke="midnightblue" d="M81.63,-51.91C97.25,-44.66 116.47,-36.03 134,-29 142.49,-25.6 151.85,-22.18 160.36,-19.21"/>
<polygon fill="midnightblue" stroke="midnightblue" points="161.53,-22.51 169.85,-15.95 159.26,-15.89 161.53,-22.51"/>
</g>
<!-- Node4 -->
<g id="node4" class="node">
<title>Node4</title>
<g id="a_node4"><a xlink:href="namespacextb__cqpath.html#a7abe30bf3445bcf84bea425907f8decd" target="_top" xlink:title=" ">
<polygon fill="white" stroke="black" points="280,-76.5 280,-95.5 412,-95.5 412,-76.5 280,-76.5"/>
<text text-anchor="middle" x="346" y="-83.5" font-family="Helvetica,sans-Serif" font-size="10.00">xtb_cqpath::cqpathtohigher</text>
</a>
</g>
</g>
<!-- Node3&#45;&gt;Node4 -->
<g id="edge3" class="edge">
<title>Node3&#45;&gt;Node4</title>
<path fill="none" stroke="midnightblue" d="M244.21,-86C252.49,-86 261.17,-86 269.8,-86"/>
<polygon fill="midnightblue" stroke="midnightblue" points="269.9,-89.5 279.9,-86 269.9,-82.5 269.9,-89.5"/>
</g>
<!-- Node7 -->
<g id="node7" class="node">
<title>Node7</title>
<g id="a_node7"><a xlink:href="readl_8f90.html#ad4f0e8a0348ec83dc345dc77e76cec7d" target="_top" xlink:title=" ">
<polygon fill="white" stroke="black" points="323,-0.5 323,-19.5 369,-19.5 369,-0.5 323,-0.5"/>
<text text-anchor="middle" x="346" y="-7.5" font-family="Helvetica,sans-Serif" font-size="10.00">readaa</text>
</a>
</g>
</g>
<!-- Node6&#45;&gt;Node7 -->
<g id="edge6" class="edge">
<title>Node6&#45;&gt;Node7</title>
<path fill="none" stroke="midnightblue" d="M208.08,-10C233.7,-10 280.95,-10 312.68,-10"/>
<polygon fill="midnightblue" stroke="midnightblue" points="312.79,-13.5 322.79,-10 312.79,-6.5 312.79,-13.5"/>
</g>
</g>
</svg>
