<?xml version="1.0" encoding="UTF-8" standalone="no"?>
<!DOCTYPE svg PUBLIC "-//W3C//DTD SVG 1.1//EN"
 "http://www.w3.org/Graphics/SVG/1.1/DTD/svg11.dtd">
<!-- Generated by graphviz version 2.46.1 (20210215.1649)
 -->
<!-- Title: xtb_disp_dftd4::d4 Pages: 1 -->
<svg width="648pt" height="200pt"
 viewBox="0.00 0.00 648.00 199.50" xmlns="http://www.w3.org/2000/svg" xmlns:xlink="http://www.w3.org/1999/xlink">
<g id="graph0" class="graph" transform="scale(1 1) rotate(0) translate(4 195.5)">
<title>xtb_disp_dftd4::d4</title>
<polygon fill="white" stroke="transparent" points="-4,4 -4,-195.5 644,-195.5 644,4 -4,4"/>
<!-- Node1 -->
<g id="node1" class="node">
<title>Node1</title>
<g id="a_node1"><a xlink:title=" ">
<polygon fill="#bfbfbf" stroke="black" points="545,-117.5 545,-136.5 640,-136.5 640,-117.5 545,-117.5"/>
<text text-anchor="middle" x="592.5" y="-124.5" font-family="Helvetica,sans-Serif" font-size="10.00">xtb_disp_dftd4::d4</text>
</a>
</g>
</g>
<!-- Node2 -->
<g id="node2" class="node">
<title>Node2</title>
<g id="a_node2"><a xlink:href="interfacextb__xtb__dispersion_1_1init.html#a42d6b33ba5506f8c39893d07e35433e1" target="_top" xlink:title=" ">
<polygon fill="white" stroke="black" points="412,-161 412,-191 509,-191 509,-161 412,-161"/>
<text text-anchor="start" x="420" y="-179" font-family="Helvetica,sans-Serif" font-size="10.00">xtb_xtb_dispersion</text>
<text text-anchor="middle" x="460.5" y="-168" font-family="Helvetica,sans-Serif" font-size="10.00">::init::initdispersion</text>
</a>
</g>
</g>
<!-- Node1&#45;&gt;Node2 -->
<g id="edge1" class="edge">
<title>Node1&#45;&gt;Node2</title>
<path fill="none" stroke="midnightblue" d="M556.57,-140.17C539.55,-146.58 519.02,-154.32 501.39,-160.96"/>
<polygon fill="midnightblue" stroke="midnightblue" points="558,-143.37 566.13,-136.56 555.53,-136.82 558,-143.37"/>
</g>
<!-- Node3 -->
<g id="node3" class="node">
<title>Node3</title>
<g id="a_node3"><a xlink:href="namespacextb__propertyoutput.html#ad1135c95ba993c1a3d5df67e849e8834" target="_top" xlink:title=" ">
<polygon fill="white" stroke="black" points="412.5,-112 412.5,-142 508.5,-142 508.5,-112 412.5,-112"/>
<text text-anchor="start" x="420.5" y="-130" font-family="Helvetica,sans-Serif" font-size="10.00">xtb_propertyoutput</text>
<text text-anchor="middle" x="460.5" y="-119" font-family="Helvetica,sans-Serif" font-size="10.00">::print_molpol</text>
</a>
</g>
</g>
<!-- Node1&#45;&gt;Node3 -->
<g id="edge2" class="edge">
<title>Node1&#45;&gt;Node3</title>
<path fill="none" stroke="midnightblue" d="M534.8,-127C526.06,-127 517.12,-127 508.62,-127"/>
<polygon fill="midnightblue" stroke="midnightblue" points="534.93,-130.5 544.93,-127 534.93,-123.5 534.93,-130.5"/>
</g>
<!-- Node7 -->
<g id="node7" class="node">
<title>Node7</title>
<g id="a_node7"><a xlink:href="namespacextb__scf.html#a7390c40a38032c3d210c39edecfa49ed" target="_top" xlink:title=" ">
<polygon fill="white" stroke="black" points="427.5,-60.5 427.5,-79.5 493.5,-79.5 493.5,-60.5 427.5,-60.5"/>
<text text-anchor="middle" x="460.5" y="-67.5" font-family="Helvetica,sans-Serif" font-size="10.00">xtb_scf::scf</text>
</a>
</g>
</g>
<!-- Node1&#45;&gt;Node7 -->
<g id="edge6" class="edge">
<title>Node1&#45;&gt;Node7</title>
<path fill="none" stroke="midnightblue" d="M560.44,-113.38C536.66,-102.95 504.45,-88.83 483.33,-79.57"/>
<polygon fill="midnightblue" stroke="midnightblue" points="559.18,-116.65 569.74,-117.46 561.99,-110.24 559.18,-116.65"/>
</g>
<!-- Node4 -->
<g id="node4" class="node">
<title>Node4</title>
<g id="a_node4"><a xlink:href="namespacextb__propertyoutput.html#a74ca9110d4ecdd9fc1a790d9a2027a02" target="_top" xlink:title=" ">
<polygon fill="white" stroke="black" points="280,-126 280,-156 376,-156 376,-126 280,-126"/>
<text text-anchor="start" x="288" y="-144" font-family="Helvetica,sans-Serif" font-size="10.00">xtb_propertyoutput</text>
<text text-anchor="middle" x="328" y="-133" font-family="Helvetica,sans-Serif" font-size="10.00">::main_property</text>
</a>
</g>
</g>
<!-- Node3&#45;&gt;Node4 -->
<g id="edge3" class="edge">
<title>Node3&#45;&gt;Node4</title>
<path fill="none" stroke="midnightblue" d="M402.24,-133.14C393.49,-134.08 384.54,-135.04 376.04,-135.95"/>
<polygon fill="midnightblue" stroke="midnightblue" points="402.82,-136.6 412.39,-132.05 402.07,-129.64 402.82,-136.6"/>
</g>
<!-- Node5 -->
<g id="node5" class="node">
<title>Node5</title>
<g id="a_node5"><a xlink:href="namespacextb__prog__main.html#a92b3b61ee04235e6343f652095682529" target="_top" xlink:title=" ">
<polygon fill="white" stroke="black" points="126,-131.5 126,-150.5 244,-150.5 244,-131.5 126,-131.5"/>
<text text-anchor="middle" x="185" y="-138.5" font-family="Helvetica,sans-Serif" font-size="10.00">xtb_prog_main::xtbmain</text>
</a>
</g>
</g>
<!-- Node4&#45;&gt;Node5 -->
<g id="edge4" class="edge">
<title>Node4&#45;&gt;Node5</title>
<path fill="none" stroke="midnightblue" d="M269.61,-141C261.25,-141 252.62,-141 244.24,-141"/>
<polygon fill="midnightblue" stroke="midnightblue" points="269.66,-144.5 279.66,-141 269.66,-137.5 269.66,-144.5"/>
</g>
<!-- Node6 -->
<g id="node6" class="node">
<title>Node6</title>
<g id="a_node6"><a xlink:href="primary_8f90.html#a2a67903cf5be605c5b6d3c362c6a3c5c" target="_top" xlink:title="The primary driver for the xtb program package.">
<polygon fill="white" stroke="black" points="0,-131.5 0,-150.5 90,-150.5 90,-131.5 0,-131.5"/>
<text text-anchor="middle" x="45" y="-138.5" font-family="Helvetica,sans-Serif" font-size="10.00">xtb_prog_primary</text>
</a>
</g>
</g>
<!-- Node5&#45;&gt;Node6 -->
<g id="edge5" class="edge">
<title>Node5&#45;&gt;Node6</title>
<path fill="none" stroke="midnightblue" d="M115.73,-141C107.06,-141 98.37,-141 90.22,-141"/>
<polygon fill="midnightblue" stroke="midnightblue" points="115.88,-144.5 125.88,-141 115.88,-137.5 115.88,-144.5"/>
</g>
<!-- Node8 -->
<g id="node8" class="node">
<title>Node8</title>
<g id="a_node8"><a xlink:href="namespacextb__xtb__calculator.html#a75c96263c235c99dfeeda3e865f9898c" target="_top" xlink:title=" ">
<polygon fill="white" stroke="black" points="280.5,-77 280.5,-107 375.5,-107 375.5,-77 280.5,-77"/>
<text text-anchor="start" x="288.5" y="-95" font-family="Helvetica,sans-Serif" font-size="10.00">xtb_xtb_calculator</text>
<text text-anchor="middle" x="328" y="-84" font-family="Helvetica,sans-Serif" font-size="10.00">::singlepoint</text>
</a>
</g>
</g>
<!-- Node7&#45;&gt;Node8 -->
<g id="edge7" class="edge">
<title>Node7&#45;&gt;Node8</title>
<path fill="none" stroke="midnightblue" d="M417,-77.16C403.79,-79.39 389.15,-81.86 375.67,-84.13"/>
<polygon fill="midnightblue" stroke="midnightblue" points="417.96,-80.55 427.24,-75.44 416.8,-73.65 417.96,-80.55"/>
</g>
<!-- Node9 -->
<g id="node9" class="node">
<title>Node9</title>
<g id="a_node9"><a xlink:href="TESTSUITE_2gfn1_8f90.html#ab5cc37cef2d483d9d9cde17aa03c55a8" target="_top" xlink:title=" ">
<polygon fill="white" stroke="black" points="289,-38.5 289,-57.5 367,-57.5 367,-38.5 289,-38.5"/>
<text text-anchor="middle" x="328" y="-45.5" font-family="Helvetica,sans-Serif" font-size="10.00">test_gfn1_scc</text>
</a>
</g>
</g>
<!-- Node7&#45;&gt;Node9 -->
<g id="edge8" class="edge">
<title>Node7&#45;&gt;Node9</title>
<path fill="none" stroke="midnightblue" d="M417.08,-62.85C401.08,-60.15 382.99,-57.1 367.38,-54.47"/>
<polygon fill="midnightblue" stroke="midnightblue" points="416.8,-66.35 427.24,-64.56 417.96,-59.45 416.8,-66.35"/>
</g>
<!-- Node11 -->
<g id="node11" class="node">
<title>Node11</title>
<g id="a_node11"><a xlink:href="TESTSUITE_2gfn2_8f90.html#af47afba0207cbca2dc950fb5e339ce03" target="_top" xlink:title=" ">
<polygon fill="white" stroke="black" points="289,-0.5 289,-19.5 367,-19.5 367,-0.5 289,-0.5"/>
<text text-anchor="middle" x="328" y="-7.5" font-family="Helvetica,sans-Serif" font-size="10.00">test_gfn2_scc</text>
</a>
</g>
</g>
<!-- Node7&#45;&gt;Node11 -->
<g id="edge10" class="edge">
<title>Node7&#45;&gt;Node11</title>
<path fill="none" stroke="midnightblue" d="M432.18,-55.97C415.99,-47.8 394.98,-37.48 376,-29 368.77,-25.77 360.81,-22.46 353.54,-19.53"/>
<polygon fill="midnightblue" stroke="midnightblue" points="430.61,-59.09 441.11,-60.49 433.77,-52.85 430.61,-59.09"/>
</g>
<!-- Node10 -->
<g id="node10" class="node">
<title>Node10</title>
<g id="a_node10"><a xlink:href="tests__peeq_8f90.html#a87ff5319e0d2e627a4f71d7df0d14891" target="_top" xlink:title=" ">
<polygon fill="white" stroke="black" points="151,-19.5 151,-38.5 219,-38.5 219,-19.5 151,-19.5"/>
<text text-anchor="middle" x="185" y="-26.5" font-family="Helvetica,sans-Serif" font-size="10.00">peeq_tester</text>
</a>
</g>
</g>
<!-- Node9&#45;&gt;Node10 -->
<g id="edge9" class="edge">
<title>Node9&#45;&gt;Node10</title>
<path fill="none" stroke="midnightblue" d="M278.87,-41.52C259.29,-38.88 237.14,-35.89 219.39,-33.5"/>
<polygon fill="midnightblue" stroke="midnightblue" points="278.47,-44.99 288.84,-42.86 279.4,-38.05 278.47,-44.99"/>
</g>
<!-- Node11&#45;&gt;Node10 -->
<g id="edge11" class="edge">
<title>Node11&#45;&gt;Node10</title>
<path fill="none" stroke="midnightblue" d="M278.87,-16.48C259.29,-19.12 237.14,-22.11 219.39,-24.5"/>
<polygon fill="midnightblue" stroke="midnightblue" points="279.4,-19.95 288.84,-15.14 278.47,-13.01 279.4,-19.95"/>
</g>
</g>
</svg>
