<?xml version="1.0" encoding="UTF-8" standalone="no"?>
<!DOCTYPE svg PUBLIC "-//W3C//DTD SVG 1.1//EN"
 "http://www.w3.org/Graphics/SVG/1.1/DTD/svg11.dtd">
<!-- Generated by graphviz version 2.43.0 (0)
 -->
<!-- Title: xtb_readin::strip_line Pages: 1 -->
<!--zoomable 1213 -->
<svg id="main" version="1.1" xmlns="http://www.w3.org/2000/svg" xmlns:xlink="http://www.w3.org/1999/xlink" xml:space="preserve" onload="init(evt)">
<style type="text/css"><![CDATA[
.edge:hover path { stroke: red; }
.edge:hover polygon { stroke: red; fill: red; }
]]></style>
<script type="text/javascript"><![CDATA[
var edges = document.getElementsByTagName('g');
if (edges && edges.length) {
  for (var i=0;i<edges.length;i++) {
    if (edges[i].id.substr(0,4)=='edge') {
      edges[i].setAttribute('class','edge');
    }
  }
}
]]></script>
        <defs>
                <circle id="rim" cx="0" cy="0" r="7"/>
                <circle id="rim2" cx="0" cy="0" r="3.5"/>
                <g id="zoomPlus">
                        <use xlink:href="#rim" fill="#404040">
                                <set attributeName="fill" to="#808080" begin="zoomplus.mouseover" end="zoomplus.mouseout"/>
                        </use>
                        <path d="M-4,0h8M0,-4v8" fill="none" stroke="white" stroke-width="1.5" pointer-events="none"/>
                </g>
                <g id="zoomMin">
                        <use xlink:href="#rim" fill="#404040">
                                <set attributeName="fill" to="#808080" begin="zoomminus.mouseover" end="zoomminus.mouseout"/>
                        </use>
                        <path d="M-4,0h8" fill="none" stroke="white" stroke-width="1.5" pointer-events="none"/>
                </g>
                <g id="dirArrow">
                        <path fill="none" stroke="white" stroke-width="1.5" d="M0,-3.0v7 M-2.5,-0.5L0,-3.0L2.5,-0.5"/>
                </g>
               <g id="resetDef">
                       <use xlink:href="#rim2" fill="#404040">
                               <set attributeName="fill" to="#808080" begin="reset.mouseover" end="reset.mouseout"/>
                       </use>
               </g>
        </defs>

<script type="text/javascript">
var viewWidth = 1054;
var viewHeight = 1213;
var sectionId = 'dynsection-8';
</script>
<script xlink:href="svgpan.js"/>
<svg id="graph" class="graph">
<g id="viewport">
<title>xtb_readin::strip_line</title>
<polygon fill="white" stroke="transparent" points="-4,4 -4,-1209.49 1050,-1209.49 1050,4 -4,4"/>
<!-- Node1 -->
<g id="node1" class="node">
<title>Node1</title>
<g id="a_node1"><a xlink:title=" ">
<polygon fill="#bfbfbf" stroke="black" points="927,-477.49 927,-496.49 1046,-496.49 1046,-477.49 927,-477.49"/>
<text text-anchor="middle" x="986.5" y="-484.49" font-family="Helvetica,sans-Serif" font-size="10.00">xtb_readin::strip_line</text>
</a>
</g>
</g>
<!-- Node2 -->
<g id="node2" class="node">
<title>Node2</title>
<g id="a_node2"><a xlink:href="namespacextb__extern__orca.html#a3fc12de9e8291735f58a709be30fc5f8" target="_top" xlink:title=" ">
<polygon fill="white" stroke="black" points="740,-515.49 740,-534.49 890,-534.49 890,-515.49 740,-515.49"/>
<text text-anchor="middle" x="815" y="-522.49" font-family="Helvetica,sans-Serif" font-size="10.00">xtb_extern_orca::checkorca</text>
</a>
</g>
</g>
<!-- Node1&#45;&gt;Node2 -->
<g id="edge1" class="edge">
<title>Node1&#45;&gt;Node2</title>
<path fill="none" stroke="midnightblue" d="M932.76,-498.82C908.86,-504.18 880.98,-510.43 858.46,-515.47"/>
<polygon fill="midnightblue" stroke="midnightblue" points="933.74,-502.19 942.73,-496.58 932.2,-495.36 933.74,-502.19"/>
</g>
<!-- Node3 -->
<g id="node3" class="node">
<title>Node3</title>
<g id="a_node3"><a xlink:href="namespacextb__embedding.html#af628c36bfe42493ab8e772f39b4559c4" target="_top" xlink:title=" ">
<polygon fill="white" stroke="black" points="739,-477.49 739,-496.49 891,-496.49 891,-477.49 739,-477.49"/>
<text text-anchor="middle" x="815" y="-484.49" font-family="Helvetica,sans-Serif" font-size="10.00">xtb_embedding::read_pcem</text>
</a>
</g>
</g>
<!-- Node1&#45;&gt;Node3 -->
<g id="edge2" class="edge">
<title>Node1&#45;&gt;Node3</title>
<path fill="none" stroke="midnightblue" d="M916.59,-486.99C908.2,-486.99 899.6,-486.99 891.12,-486.99"/>
<polygon fill="midnightblue" stroke="midnightblue" points="916.69,-490.49 926.69,-486.99 916.69,-483.49 916.69,-490.49"/>
</g>
<!-- Node34 -->
<g id="node34" class="node">
<title>Node34</title>
<g id="a_node34"><a xlink:href="namespacextb__readparam.html#ad184b7ee3b917290f207ad23a9b5bb9c" target="_top" xlink:title=" ">
<polygon fill="white" stroke="black" points="740,-319.49 740,-338.49 890,-338.49 890,-319.49 740,-319.49"/>
<text text-anchor="middle" x="815" y="-326.49" font-family="Helvetica,sans-Serif" font-size="10.00">xtb_readparam::readparam</text>
</a>
</g>
</g>
<!-- Node1&#45;&gt;Node34 -->
<g id="edge55" class="edge">
<title>Node1&#45;&gt;Node34</title>
<path fill="none" stroke="midnightblue" d="M967.49,-470.2C932.01,-437.14 854.13,-364.54 826.21,-338.51"/>
<polygon fill="midnightblue" stroke="midnightblue" points="965.45,-473.09 975.15,-477.35 970.22,-467.97 965.45,-473.09"/>
</g>
<!-- Node4 -->
<g id="node4" class="node">
<title>Node4</title>
<g id="a_node4"><a xlink:href="namespacextb__main__setup.html#a8c34f442041bce692a001d62921171a2" target="_top" xlink:title=" ">
<polygon fill="white" stroke="black" points="518,-597.49 518,-616.49 703,-616.49 703,-597.49 518,-597.49"/>
<text text-anchor="middle" x="610.5" y="-604.49" font-family="Helvetica,sans-Serif" font-size="10.00">xtb_main_setup::newxtbcalculator</text>
</a>
</g>
</g>
<!-- Node3&#45;&gt;Node4 -->
<g id="edge3" class="edge">
<title>Node3&#45;&gt;Node4</title>
<path fill="none" stroke="midnightblue" d="M753.81,-499.8C748.7,-501.62 743.7,-503.67 739,-505.99 689.13,-530.64 640.51,-577.17 620.75,-597.3"/>
<polygon fill="midnightblue" stroke="midnightblue" points="755.29,-503.01 763.72,-496.6 753.13,-496.34 755.29,-503.01"/>
</g>
<!-- Node5 -->
<g id="node5" class="node">
<title>Node5</title>
<g id="a_node5"><a xlink:href="namespacextb__api__calculator.html#a9d6feb3a53eb3b2edb400109a7158040" target="_top" xlink:title=" ">
<polygon fill="white" stroke="black" points="344.5,-1174.99 344.5,-1204.99 450.5,-1204.99 450.5,-1174.99 344.5,-1174.99"/>
<text text-anchor="start" x="352.5" y="-1192.99" font-family="Helvetica,sans-Serif" font-size="10.00">xtb_api_calculator</text>
<text text-anchor="middle" x="397.5" y="-1181.99" font-family="Helvetica,sans-Serif" font-size="10.00">::loadgfn0xtb_api</text>
</a>
</g>
</g>
<!-- Node4&#45;&gt;Node5 -->
<g id="edge4" class="edge">
<title>Node4&#45;&gt;Node5</title>
<path fill="none" stroke="midnightblue" d="M607.63,-627.01C598.83,-717.19 558.67,-1084.94 482,-1165.99 473.71,-1174.76 462.44,-1180.39 450.88,-1183.99"/>
<polygon fill="midnightblue" stroke="midnightblue" points="611.14,-627.08 608.61,-616.8 604.17,-626.42 611.14,-627.08"/>
</g>
<!-- Node6 -->
<g id="node6" class="node">
<title>Node6</title>
<g id="a_node6"><a xlink:href="namespacextb__api__calculator.html#a880727e8708090d0d366d861124c0d48" target="_top" xlink:title=" ">
<polygon fill="white" stroke="black" points="344.5,-1125.99 344.5,-1155.99 450.5,-1155.99 450.5,-1125.99 344.5,-1125.99"/>
<text text-anchor="start" x="352.5" y="-1143.99" font-family="Helvetica,sans-Serif" font-size="10.00">xtb_api_calculator</text>
<text text-anchor="middle" x="397.5" y="-1132.99" font-family="Helvetica,sans-Serif" font-size="10.00">::loadgfn1xtb_api</text>
</a>
</g>
</g>
<!-- Node4&#45;&gt;Node6 -->
<g id="edge5" class="edge">
<title>Node4&#45;&gt;Node6</title>
<path fill="none" stroke="midnightblue" d="M607.18,-626.86C596.88,-711.85 552.61,-1043.87 482,-1116.99 473.62,-1125.67 462.32,-1131.27 450.75,-1134.87"/>
<polygon fill="midnightblue" stroke="midnightblue" points="610.68,-627.1 608.39,-616.75 603.73,-626.27 610.68,-627.1"/>
</g>
<!-- Node7 -->
<g id="node7" class="node">
<title>Node7</title>
<g id="a_node7"><a xlink:href="namespacextb__api__calculator.html#a382f3cb8f313fadf0cccd4dea5df7ba6" target="_top" xlink:title=" ">
<polygon fill="white" stroke="black" points="344.5,-1076.99 344.5,-1106.99 450.5,-1106.99 450.5,-1076.99 344.5,-1076.99"/>
<text text-anchor="start" x="352.5" y="-1094.99" font-family="Helvetica,sans-Serif" font-size="10.00">xtb_api_calculator</text>
<text text-anchor="middle" x="397.5" y="-1083.99" font-family="Helvetica,sans-Serif" font-size="10.00">::loadgfn2xtb_api</text>
</a>
</g>
</g>
<!-- Node4&#45;&gt;Node7 -->
<g id="edge6" class="edge">
<title>Node4&#45;&gt;Node7</title>
<path fill="none" stroke="midnightblue" d="M606.62,-626.64C594.6,-705.96 546.12,-1001.54 482,-1066.99 473.53,-1075.64 462.2,-1081.33 450.62,-1085.05"/>
<polygon fill="midnightblue" stroke="midnightblue" points="610.11,-626.96 608.12,-616.55 603.18,-625.93 610.11,-626.96"/>
</g>
<!-- Node8 -->
<g id="node8" class="node">
<title>Node8</title>
<g id="a_node8"><a xlink:href="namespacextb__main__setup.html#a2873ec6fc259dc1f93f4c74d34501d91" target="_top" xlink:title=" ">
<polygon fill="white" stroke="black" points="313,-1038.49 313,-1057.49 482,-1057.49 482,-1038.49 313,-1038.49"/>
<text text-anchor="middle" x="397.5" y="-1045.49" font-family="Helvetica,sans-Serif" font-size="10.00">xtb_main_setup::newcalculator</text>
</a>
</g>
</g>
<!-- Node4&#45;&gt;Node8 -->
<g id="edge7" class="edge">
<title>Node4&#45;&gt;Node8</title>
<path fill="none" stroke="midnightblue" d="M609.67,-626.8C609.11,-693.14 598.1,-909.83 482,-1023.99 475.55,-1030.34 467.53,-1035.03 459.04,-1038.49"/>
<polygon fill="midnightblue" stroke="midnightblue" points="613.17,-626.53 609.67,-616.53 606.17,-626.52 613.17,-626.53"/>
</g>
<!-- Node9 -->
<g id="node9" class="node">
<title>Node9</title>
<g id="a_node9"><a xlink:href="TESTSUITE_2gfn0_8f90.html#ad2ca0eac6e8faac5aee1f1c04fb3d5d6" target="_top" xlink:title=" ">
<polygon fill="white" stroke="black" points="152,-999.49 152,-1018.49 235,-1018.49 235,-999.49 152,-999.49"/>
<text text-anchor="middle" x="193.5" y="-1006.49" font-family="Helvetica,sans-Serif" font-size="10.00">test_gfn0_api</text>
</a>
</g>
</g>
<!-- Node4&#45;&gt;Node9 -->
<g id="edge8" class="edge">
<title>Node4&#45;&gt;Node9</title>
<path fill="none" stroke="midnightblue" d="M609.06,-626.92C606.56,-688.31 590.01,-875.8 482,-964.99 411.24,-1023.43 296.04,-1021.07 235.17,-1014.78"/>
<polygon fill="midnightblue" stroke="midnightblue" points="612.57,-626.79 609.39,-616.68 605.57,-626.56 612.57,-626.79"/>
</g>
<!-- Node11 -->
<g id="node11" class="node">
<title>Node11</title>
<g id="a_node11"><a xlink:href="TESTSUITE_2gfn0_8f90.html#ae7a4844af5e348fce6ad37d938d3cd25" target="_top" xlink:title=" ">
<polygon fill="white" stroke="black" points="142,-960.49 142,-979.49 245,-979.49 245,-960.49 142,-960.49"/>
<text text-anchor="middle" x="193.5" y="-967.49" font-family="Helvetica,sans-Serif" font-size="10.00">test_gfn0_api_srb</text>
</a>
</g>
</g>
<!-- Node4&#45;&gt;Node11 -->
<g id="edge10" class="edge">
<title>Node4&#45;&gt;Node11</title>
<path fill="none" stroke="midnightblue" d="M608.13,-626.62C603.05,-683.29 580.09,-848.09 482,-925.99 413.99,-980.01 307.59,-981.3 245.08,-976.34"/>
<polygon fill="midnightblue" stroke="midnightblue" points="611.63,-626.76 608.95,-616.51 604.65,-626.2 611.63,-626.76"/>
</g>
<!-- Node12 -->
<g id="node12" class="node">
<title>Node12</title>
<g id="a_node12"><a xlink:href="TESTSUITE_2gfn0_8f90.html#af9aea625a1cc2d244354c4688d85f069" target="_top" xlink:title=" ">
<polygon fill="white" stroke="black" points="137.5,-909.99 137.5,-939.99 249.5,-939.99 249.5,-909.99 137.5,-909.99"/>
<text text-anchor="start" x="145.5" y="-927.99" font-family="Helvetica,sans-Serif" font-size="10.00">test_gfn0_mindless</text>
<text text-anchor="middle" x="193.5" y="-916.99" font-family="Helvetica,sans-Serif" font-size="10.00">_basic</text>
</a>
</g>
</g>
<!-- Node4&#45;&gt;Node12 -->
<g id="edge12" class="edge">
<title>Node4&#45;&gt;Node12</title>
<path fill="none" stroke="midnightblue" d="M607.14,-626.56C599.71,-678.94 571.64,-822.89 482,-888.99 414.19,-939 312.03,-938.98 249.51,-932.99"/>
<polygon fill="midnightblue" stroke="midnightblue" points="610.62,-626.95 608.46,-616.57 603.68,-626.03 610.62,-626.95"/>
</g>
<!-- Node13 -->
<g id="node13" class="node">
<title>Node13</title>
<g id="a_node13"><a xlink:href="TESTSUITE_2gfn0_8f90.html#a68420832428671e396fef51203d23bcc" target="_top" xlink:title=" ">
<polygon fill="white" stroke="black" points="137.5,-857.99 137.5,-887.99 249.5,-887.99 249.5,-857.99 137.5,-857.99"/>
<text text-anchor="start" x="145.5" y="-875.99" font-family="Helvetica,sans-Serif" font-size="10.00">test_gfn0_mindless</text>
<text text-anchor="middle" x="193.5" y="-864.99" font-family="Helvetica,sans-Serif" font-size="10.00">_solvation</text>
</a>
</g>
</g>
<!-- Node4&#45;&gt;Node13 -->
<g id="edge14" class="edge">
<title>Node4&#45;&gt;Node13</title>
<path fill="none" stroke="midnightblue" d="M606.28,-626.72C597.1,-675.82 565.83,-803.5 482,-857.99 412.23,-903.35 311.6,-896.06 249.77,-885.41"/>
<polygon fill="midnightblue" stroke="midnightblue" points="609.75,-627.2 608.04,-616.75 602.85,-625.99 609.75,-627.2"/>
</g>
<!-- Node14 -->
<g id="node14" class="node">
<title>Node14</title>
<g id="a_node14"><a xlink:href="TESTSUITE_2gfn1_8f90.html#abe41d4ad906b878400fafc939111175d" target="_top" xlink:title=" ">
<polygon fill="white" stroke="black" points="152,-814.49 152,-833.49 235,-833.49 235,-814.49 152,-814.49"/>
<text text-anchor="middle" x="193.5" y="-821.49" font-family="Helvetica,sans-Serif" font-size="10.00">test_gfn1_api</text>
</a>
</g>
</g>
<!-- Node4&#45;&gt;Node14 -->
<g id="edge16" class="edge">
<title>Node4&#45;&gt;Node14</title>
<path fill="none" stroke="midnightblue" d="M605.66,-626.75C595.35,-673.7 562.22,-791.55 482,-838.99 441.4,-863.01 304.38,-843.46 235.19,-831.53"/>
<polygon fill="midnightblue" stroke="midnightblue" points="609.15,-627.17 607.76,-616.67 602.3,-625.74 609.15,-627.17"/>
</g>
<!-- Node15 -->
<g id="node15" class="node">
<title>Node15</title>
<g id="a_node15"><a xlink:href="namespacetest__hessian.html#a696b2a220cd73168272e18f3c57d4907" target="_top" xlink:title=" ">
<polygon fill="white" stroke="black" points="346,-798.99 346,-828.99 449,-828.99 449,-798.99 346,-798.99"/>
<text text-anchor="start" x="354" y="-816.99" font-family="Helvetica,sans-Serif" font-size="10.00">test_hessian::test</text>
<text text-anchor="middle" x="397.5" y="-805.99" font-family="Helvetica,sans-Serif" font-size="10.00">_gfn1_hessian</text>
</a>
</g>
</g>
<!-- Node4&#45;&gt;Node15 -->
<g id="edge18" class="edge">
<title>Node4&#45;&gt;Node15</title>
<path fill="none" stroke="midnightblue" d="M601.61,-625.9C585.11,-663.14 543.31,-746.12 482,-789.99 472.31,-796.93 460.65,-801.87 449.15,-805.38"/>
<polygon fill="midnightblue" stroke="midnightblue" points="604.84,-627.25 605.59,-616.69 598.42,-624.48 604.84,-627.25"/>
</g>
<!-- Node17 -->
<g id="node17" class="node">
<title>Node17</title>
<g id="a_node17"><a xlink:href="TESTSUITE_2gfn1_8f90.html#ad89d89ff73f2ceea96f403ea85561032" target="_top" xlink:title=" ">
<polygon fill="white" stroke="black" points="137.5,-716.99 137.5,-746.99 249.5,-746.99 249.5,-716.99 137.5,-716.99"/>
<text text-anchor="start" x="145.5" y="-734.99" font-family="Helvetica,sans-Serif" font-size="10.00">test_gfn1_mindless</text>
<text text-anchor="middle" x="193.5" y="-723.99" font-family="Helvetica,sans-Serif" font-size="10.00">_basic</text>
</a>
</g>
</g>
<!-- Node4&#45;&gt;Node17 -->
<g id="edge21" class="edge">
<title>Node4&#45;&gt;Node17</title>
<path fill="none" stroke="midnightblue" d="M582.37,-621.24C556.99,-634.11 517.72,-652.84 482,-664.99 403.03,-691.86 308.27,-711.65 249.72,-722.5"/>
<polygon fill="midnightblue" stroke="midnightblue" points="584.08,-624.3 591.38,-616.62 580.89,-618.07 584.08,-624.3"/>
</g>
<!-- Node18 -->
<g id="node18" class="node">
<title>Node18</title>
<g id="a_node18"><a xlink:href="TESTSUITE_2gfn1_8f90.html#a1e6bbb9dcd9a59e4ae8cdcfebde28e32" target="_top" xlink:title=" ">
<polygon fill="white" stroke="black" points="137.5,-667.99 137.5,-697.99 249.5,-697.99 249.5,-667.99 137.5,-667.99"/>
<text text-anchor="start" x="145.5" y="-685.99" font-family="Helvetica,sans-Serif" font-size="10.00">test_gfn1_mindless</text>
<text text-anchor="middle" x="193.5" y="-674.99" font-family="Helvetica,sans-Serif" font-size="10.00">_solvation</text>
</a>
</g>
</g>
<!-- Node4&#45;&gt;Node18 -->
<g id="edge23" class="edge">
<title>Node4&#45;&gt;Node18</title>
<path fill="none" stroke="midnightblue" d="M562.37,-618.94C538.4,-624.8 508.74,-631.72 482,-636.99 401.54,-652.88 307.58,-667.1 249.56,-675.39"/>
<polygon fill="midnightblue" stroke="midnightblue" points="563.4,-622.29 572.28,-616.5 561.73,-615.5 563.4,-622.29"/>
</g>
<!-- Node19 -->
<g id="node19" class="node">
<title>Node19</title>
<g id="a_node19"><a xlink:href="TESTSUITE_2gfn1_8f90.html#a30ff8f20e9f97fe83d17dcbce7e3c909" target="_top" xlink:title=" ">
<polygon fill="white" stroke="black" points="145,-629.49 145,-648.49 242,-648.49 242,-629.49 145,-629.49"/>
<text text-anchor="middle" x="193.5" y="-636.49" font-family="Helvetica,sans-Serif" font-size="10.00">test_gfn1_pbc3d</text>
</a>
</g>
</g>
<!-- Node4&#45;&gt;Node19 -->
<g id="edge25" class="edge">
<title>Node4&#45;&gt;Node19</title>
<path fill="none" stroke="midnightblue" d="M507.71,-615C499.01,-615.67 490.35,-616.35 482,-616.99 397.53,-623.54 299.09,-631.05 242.07,-635.38"/>
<polygon fill="midnightblue" stroke="midnightblue" points="508.22,-618.47 517.92,-614.2 507.68,-611.49 508.22,-618.47"/>
</g>
<!-- Node20 -->
<g id="node20" class="node">
<title>Node20</title>
<g id="a_node20"><a xlink:href="TESTSUITE_2gfn1_8f90.html#ac31f203722d8bcd244f862a758833c52" target="_top" xlink:title=" ">
<polygon fill="white" stroke="black" points="136,-591.49 136,-610.49 251,-610.49 251,-591.49 136,-591.49"/>
<text text-anchor="middle" x="193.5" y="-598.49" font-family="Helvetica,sans-Serif" font-size="10.00">test_gfn1_pcem_api</text>
</a>
</g>
</g>
<!-- Node4&#45;&gt;Node20 -->
<g id="edge27" class="edge">
<title>Node4&#45;&gt;Node20</title>
<path fill="none" stroke="midnightblue" d="M507.71,-605.52C426.91,-604.35 316.93,-602.76 251.09,-601.81"/>
<polygon fill="midnightblue" stroke="midnightblue" points="507.86,-609.03 517.91,-605.67 507.96,-602.03 507.86,-609.03"/>
</g>
<!-- Node21 -->
<g id="node21" class="node">
<title>Node21</title>
<g id="a_node21"><a xlink:href="TESTSUITE_2gfn1_8f90.html#abbfab6177e30eca12113e729bde19ce5" target="_top" xlink:title=" ">
<polygon fill="white" stroke="black" points="153.5,-553.49 153.5,-572.49 233.5,-572.49 233.5,-553.49 153.5,-553.49"/>
<text text-anchor="middle" x="193.5" y="-560.49" font-family="Helvetica,sans-Serif" font-size="10.00">test_gfn1_xb</text>
</a>
</g>
</g>
<!-- Node4&#45;&gt;Node21 -->
<g id="edge29" class="edge">
<title>Node4&#45;&gt;Node21</title>
<path fill="none" stroke="midnightblue" d="M509.64,-596.41C421.11,-587.02 296.42,-573.8 233.74,-567.15"/>
<polygon fill="midnightblue" stroke="midnightblue" points="509.39,-599.9 519.71,-597.47 510.13,-592.94 509.39,-599.9"/>
</g>
<!-- Node22 -->
<g id="node22" class="node">
<title>Node22</title>
<g id="a_node22"><a xlink:href="TESTSUITE_2gfn1_8f90.html#a1490695b43193805cceeef8a37fcbf7c" target="_top" xlink:title=" ">
<polygon fill="white" stroke="black" points="140.5,-515.49 140.5,-534.49 246.5,-534.49 246.5,-515.49 140.5,-515.49"/>
<text text-anchor="middle" x="193.5" y="-522.49" font-family="Helvetica,sans-Serif" font-size="10.00">test_gfn1gbsa_api</text>
</a>
</g>
</g>
<!-- Node4&#45;&gt;Node22 -->
<g id="edge31" class="edge">
<title>Node4&#45;&gt;Node22</title>
<path fill="none" stroke="midnightblue" d="M568.48,-594.54C543.62,-587.3 511.17,-578.36 482,-571.99 400.47,-554.19 304.6,-539.81 246.75,-531.84"/>
<polygon fill="midnightblue" stroke="midnightblue" points="567.71,-597.97 578.29,-597.43 569.69,-591.25 567.71,-597.97"/>
</g>
<!-- Node23 -->
<g id="node23" class="node">
<title>Node23</title>
<g id="a_node23"><a xlink:href="TESTSUITE_2gfn2_8f90.html#a70d451e4314ff3bf542cb76987d99403" target="_top" xlink:title=" ">
<polygon fill="white" stroke="black" points="152,-477.49 152,-496.49 235,-496.49 235,-477.49 152,-477.49"/>
<text text-anchor="middle" x="193.5" y="-484.49" font-family="Helvetica,sans-Serif" font-size="10.00">test_gfn2_api</text>
</a>
</g>
</g>
<!-- Node4&#45;&gt;Node23 -->
<g id="edge33" class="edge">
<title>Node4&#45;&gt;Node23</title>
<path fill="none" stroke="midnightblue" d="M586.65,-591.69C561.91,-575.84 520.77,-551.53 482,-537.99 397.05,-508.34 291.68,-495.29 235.06,-490.08"/>
<polygon fill="midnightblue" stroke="midnightblue" points="585,-594.79 595.29,-597.31 588.82,-588.92 585,-594.79"/>
</g>
<!-- Node24 -->
<g id="node24" class="node">
<title>Node24</title>
<g id="a_node24"><a xlink:href="TESTSUITE_2gfn2_8f90.html#af04fdb55f7b260a1fcd7b8edd8324f3b" target="_top" xlink:title=" ">
<polygon fill="white" stroke="black" points="142.5,-439.49 142.5,-458.49 244.5,-458.49 244.5,-439.49 142.5,-439.49"/>
<text text-anchor="middle" x="193.5" y="-446.49" font-family="Helvetica,sans-Serif" font-size="10.00">test_gfn2_dmetal</text>
</a>
</g>
</g>
<!-- Node4&#45;&gt;Node24 -->
<g id="edge35" class="edge">
<title>Node4&#45;&gt;Node24</title>
<path fill="none" stroke="midnightblue" d="M595.36,-589.46C573.81,-564.07 530.14,-517.64 482,-494.99 404.7,-458.63 304.17,-450.23 244.76,-448.72"/>
<polygon fill="midnightblue" stroke="midnightblue" points="592.71,-591.75 601.79,-597.2 598.09,-587.27 592.71,-591.75"/>
</g>
<!-- Node25 -->
<g id="node25" class="node">
<title>Node25</title>
<g id="a_node25"><a xlink:href="namespacetest__hessian.html#aa2cbc8daec8e2dacc7b6f3c63d0a3520" target="_top" xlink:title=" ">
<polygon fill="white" stroke="black" points="346,-749.99 346,-779.99 449,-779.99 449,-749.99 346,-749.99"/>
<text text-anchor="start" x="354" y="-767.99" font-family="Helvetica,sans-Serif" font-size="10.00">test_hessian::test</text>
<text text-anchor="middle" x="397.5" y="-756.99" font-family="Helvetica,sans-Serif" font-size="10.00">_gfn2_hessian</text>
</a>
</g>
</g>
<!-- Node4&#45;&gt;Node25 -->
<g id="edge37" class="edge">
<title>Node4&#45;&gt;Node25</title>
<path fill="none" stroke="midnightblue" d="M595.91,-625.05C574.48,-652.38 530.28,-704.31 482,-734.99 471.99,-741.36 460.45,-746.61 449.2,-750.83"/>
<polygon fill="midnightblue" stroke="midnightblue" points="598.94,-626.85 602.28,-616.79 593.4,-622.57 598.94,-626.85"/>
</g>
<!-- Node26 -->
<g id="node26" class="node">
<title>Node26</title>
<g id="a_node26"><a xlink:href="TESTSUITE_2gfn2_8f90.html#a1eefadfec1879c0b6523b30390aa7e5d" target="_top" xlink:title=" ">
<polygon fill="white" stroke="black" points="341.5,-395.99 341.5,-425.99 453.5,-425.99 453.5,-395.99 341.5,-395.99"/>
<text text-anchor="start" x="349.5" y="-413.99" font-family="Helvetica,sans-Serif" font-size="10.00">test_gfn2_mindless</text>
<text text-anchor="middle" x="397.5" y="-402.99" font-family="Helvetica,sans-Serif" font-size="10.00">_basic</text>
</a>
</g>
</g>
<!-- Node4&#45;&gt;Node26 -->
<g id="edge39" class="edge">
<title>Node4&#45;&gt;Node26</title>
<path fill="none" stroke="midnightblue" d="M599.9,-588.31C581.51,-554.28 538.11,-481.93 482,-440.99 473.54,-434.82 463.68,-429.81 453.77,-425.78"/>
<polygon fill="midnightblue" stroke="midnightblue" points="596.83,-590 604.6,-597.2 603.02,-586.72 596.83,-590"/>
</g>
<!-- Node27 -->
<g id="node27" class="node">
<title>Node27</title>
<g id="a_node27"><a xlink:href="TESTSUITE_2gfn2_8f90.html#a4f23556f554318a8e634c449c615c141" target="_top" xlink:title=" ">
<polygon fill="white" stroke="black" points="341.5,-346.99 341.5,-376.99 453.5,-376.99 453.5,-346.99 341.5,-346.99"/>
<text text-anchor="start" x="349.5" y="-364.99" font-family="Helvetica,sans-Serif" font-size="10.00">test_gfn2_mindless</text>
<text text-anchor="middle" x="397.5" y="-353.99" font-family="Helvetica,sans-Serif" font-size="10.00">_solvation</text>
</a>
</g>
</g>
<!-- Node4&#45;&gt;Node27 -->
<g id="edge41" class="edge">
<title>Node4&#45;&gt;Node27</title>
<path fill="none" stroke="midnightblue" d="M603.74,-587.63C589.99,-544.81 551.17,-441.6 482,-386.99 473.69,-380.43 463.68,-375.59 453.52,-372.01"/>
<polygon fill="midnightblue" stroke="midnightblue" points="600.45,-588.85 606.76,-597.36 607.14,-586.78 600.45,-588.85"/>
</g>
<!-- Node28 -->
<g id="node28" class="node">
<title>Node28</title>
<g id="a_node28"><a xlink:href="TESTSUITE_2gfn2_8f90.html#ac81932f59165e0c385bd69cb64d26596" target="_top" xlink:title=" ">
<polygon fill="white" stroke="black" points="340,-308.49 340,-327.49 455,-327.49 455,-308.49 340,-308.49"/>
<text text-anchor="middle" x="397.5" y="-315.49" font-family="Helvetica,sans-Serif" font-size="10.00">test_gfn2_pcem_api</text>
</a>
</g>
</g>
<!-- Node4&#45;&gt;Node28 -->
<g id="edge43" class="edge">
<title>Node4&#45;&gt;Node28</title>
<path fill="none" stroke="midnightblue" d="M606.14,-587.19C596.55,-537.13 564.28,-404.76 482,-337.99 474.24,-331.7 464.83,-327.33 455.15,-324.31"/>
<polygon fill="midnightblue" stroke="midnightblue" points="602.74,-588.11 607.98,-597.32 609.63,-586.86 602.74,-588.11"/>
</g>
<!-- Node29 -->
<g id="node29" class="node">
<title>Node29</title>
<g id="a_node29"><a xlink:href="TESTSUITE_2gfn2_8f90.html#aed7ca214cd762d9050db7170b51a35c8" target="_top" xlink:title=" ">
<polygon fill="white" stroke="black" points="344.5,-270.49 344.5,-289.49 450.5,-289.49 450.5,-270.49 344.5,-270.49"/>
<text text-anchor="middle" x="397.5" y="-277.49" font-family="Helvetica,sans-Serif" font-size="10.00">test_gfn2gbsa_api</text>
</a>
</g>
</g>
<!-- Node4&#45;&gt;Node29 -->
<g id="edge45" class="edge">
<title>Node4&#45;&gt;Node29</title>
<path fill="none" stroke="midnightblue" d="M607.5,-587.28C600.83,-532.42 574.28,-376.88 482,-298.99 473.14,-291.51 461.93,-286.83 450.62,-283.93"/>
<polygon fill="midnightblue" stroke="midnightblue" points="604.04,-587.85 608.64,-597.4 611,-587.07 604.04,-587.85"/>
</g>
<!-- Node30 -->
<g id="node30" class="node">
<title>Node30</title>
<g id="a_node30"><a xlink:href="TESTSUITE_2gfn2_8f90.html#ad7949dacaa3e9437ec5b0ba340a3fd0a" target="_top" xlink:title=" ">
<polygon fill="white" stroke="black" points="347,-232.49 347,-251.49 448,-251.49 448,-232.49 347,-232.49"/>
<text text-anchor="middle" x="397.5" y="-239.49" font-family="Helvetica,sans-Serif" font-size="10.00">test_gfn2salt_api</text>
</a>
</g>
</g>
<!-- Node4&#45;&gt;Node30 -->
<g id="edge47" class="edge">
<title>Node4&#45;&gt;Node30</title>
<path fill="none" stroke="midnightblue" d="M608.5,-587.29C604.37,-528.07 583.68,-350.31 482,-260.99 472.62,-252.75 460.4,-247.87 448.22,-245.04"/>
<polygon fill="midnightblue" stroke="midnightblue" points="605.02,-587.72 609.12,-597.49 612,-587.29 605.02,-587.72"/>
</g>
<!-- Node31 -->
<g id="node31" class="node">
<title>Node31</title>
<g id="a_node31"><a xlink:href="TESTSUITE_2gfn1_8f90.html#a03515b0f61961cb6b2f5e13846b87f34" target="_top" xlink:title=" ">
<polygon fill="white" stroke="black" points="349,-194.49 349,-213.49 446,-213.49 446,-194.49 349,-194.49"/>
<text text-anchor="middle" x="397.5" y="-201.49" font-family="Helvetica,sans-Serif" font-size="10.00">test_ipea_indole</text>
</a>
</g>
</g>
<!-- Node4&#45;&gt;Node31 -->
<g id="edge49" class="edge">
<title>Node4&#45;&gt;Node31</title>
<path fill="none" stroke="midnightblue" d="M609.31,-587.27C607.58,-523.92 593.16,-323.88 482,-222.99 472.2,-214.1 459.12,-209.1 446.23,-206.35"/>
<polygon fill="midnightblue" stroke="midnightblue" points="605.82,-587.52 609.51,-597.45 612.81,-587.39 605.82,-587.52"/>
</g>
<!-- Node32 -->
<g id="node32" class="node">
<title>Node32</title>
<g id="a_node32"><a xlink:href="peeq_8f90.html#af8323e2db7eee67ddad752d011ed55b4" target="_top" xlink:title=" ">
<polygon fill="white" stroke="black" points="355,-156.49 355,-175.49 440,-175.49 440,-156.49 355,-156.49"/>
<text text-anchor="middle" x="397.5" y="-163.49" font-family="Helvetica,sans-Serif" font-size="10.00">test_peeq_api</text>
</a>
</g>
</g>
<!-- Node4&#45;&gt;Node32 -->
<g id="edge51" class="edge">
<title>Node4&#45;&gt;Node32</title>
<path fill="none" stroke="midnightblue" d="M609.99,-587.13C610.52,-519.69 602.63,-297.5 482,-184.99 470.8,-174.55 455.1,-169.43 440.33,-167.05"/>
<polygon fill="midnightblue" stroke="midnightblue" points="606.49,-587.17 609.84,-597.22 613.49,-587.28 606.49,-587.17"/>
</g>
<!-- Node33 -->
<g id="node33" class="node">
<title>Node33</title>
<g id="a_node33"><a xlink:href="peeq_8f90.html#ae06226ed496a8128c1273abc638b62d0" target="_top" xlink:title=" ">
<polygon fill="white" stroke="black" points="345,-118.49 345,-137.49 450,-137.49 450,-118.49 345,-118.49"/>
<text text-anchor="middle" x="397.5" y="-125.49" font-family="Helvetica,sans-Serif" font-size="10.00">test_peeq_api_srb</text>
</a>
</g>
</g>
<!-- Node4&#45;&gt;Node33 -->
<g id="edge53" class="edge">
<title>Node4&#45;&gt;Node33</title>
<path fill="none" stroke="midnightblue" d="M606.74,-587.23C595.19,-507.44 548.28,-210.25 482,-146.99 473.4,-138.78 462.02,-133.85 450.43,-130.94"/>
<polygon fill="midnightblue" stroke="midnightblue" points="603.31,-587.97 608.18,-597.37 610.24,-586.98 603.31,-587.97"/>
</g>
<!-- Node10 -->
<g id="node10" class="node">
<title>Node10</title>
<g id="a_node10"><a xlink:href="tests__peeq_8f90.html#a87ff5319e0d2e627a4f71d7df0d14891" target="_top" xlink:title=" ">
<polygon fill="white" stroke="black" points="0,-496.49 0,-515.49 74,-515.49 74,-496.49 0,-496.49"/>
<text text-anchor="middle" x="37" y="-503.49" font-family="Helvetica,sans-Serif" font-size="10.00">peeq_tester</text>
</a>
</g>
</g>
<!-- Node9&#45;&gt;Node10 -->
<g id="edge9" class="edge">
<title>Node9&#45;&gt;Node10</title>
<path fill="none" stroke="midnightblue" d="M141.62,-1006.29C129.77,-1003.28 118.23,-998 110,-988.99 43.51,-916.24 38.4,-577.24 38.03,-515.62"/>
<polygon fill="midnightblue" stroke="midnightblue" points="141.08,-1009.75 151.57,-1008.32 142.48,-1002.89 141.08,-1009.75"/>
</g>
<!-- Node11&#45;&gt;Node10 -->
<g id="edge11" class="edge">
<title>Node11&#45;&gt;Node10</title>
<path fill="none" stroke="midnightblue" d="M132.16,-964.23C123.81,-961.08 116.04,-956.52 110,-949.99 48.59,-883.66 39.37,-574.22 38.16,-515.59"/>
<polygon fill="midnightblue" stroke="midnightblue" points="131.19,-967.6 141.78,-967.24 133.28,-960.92 131.19,-967.6"/>
</g>
<!-- Node12&#45;&gt;Node10 -->
<g id="edge13" class="edge">
<title>Node12&#45;&gt;Node10</title>
<path fill="none" stroke="midnightblue" d="M127.92,-911.74C121.17,-908.19 114.98,-903.69 110,-897.99 57.76,-838.2 41.32,-570.57 38.48,-515.8"/>
<polygon fill="midnightblue" stroke="midnightblue" points="126.84,-915.1 137.4,-916.03 129.73,-908.72 126.84,-915.1"/>
</g>
<!-- Node13&#45;&gt;Node10 -->
<g id="edge15" class="edge">
<title>Node13&#45;&gt;Node10</title>
<path fill="none" stroke="midnightblue" d="M128.47,-857.44C121.53,-853.64 115.14,-848.89 110,-842.99 65.32,-791.66 43.19,-565.42 38.82,-515.69"/>
<polygon fill="midnightblue" stroke="midnightblue" points="126.97,-860.61 137.5,-861.79 130,-854.3 126.97,-860.61"/>
</g>
<!-- Node14&#45;&gt;Node10 -->
<g id="edge17" class="edge">
<title>Node14&#45;&gt;Node10</title>
<path fill="none" stroke="midnightblue" d="M142.29,-815.03C130.32,-810.73 118.55,-804.38 110,-794.99 70.84,-751.98 44.9,-561.33 39.19,-515.79"/>
<polygon fill="midnightblue" stroke="midnightblue" points="141.29,-818.38 151.88,-818.05 143.39,-811.71 141.29,-818.38"/>
</g>
<!-- Node16 -->
<g id="node16" class="node">
<title>Node16</title>
<g id="a_node16"><a xlink:href="namespacetest__hessian.html#aa70e893a0726ba1d7adb8ac2fa421d5f" target="_top" xlink:title=" ">
<polygon fill="white" stroke="black" points="110,-766.49 110,-785.49 277,-785.49 277,-766.49 110,-766.49"/>
<text text-anchor="middle" x="193.5" y="-773.49" font-family="Helvetica,sans-Serif" font-size="10.00">test_hessian::run_hessian_test</text>
</a>
</g>
</g>
<!-- Node15&#45;&gt;Node16 -->
<g id="edge19" class="edge">
<title>Node15&#45;&gt;Node16</title>
<path fill="none" stroke="midnightblue" d="M335.8,-802.58C306.9,-797.14 272.73,-790.71 245.23,-785.54"/>
<polygon fill="midnightblue" stroke="midnightblue" points="335.31,-806.05 345.79,-804.45 336.61,-799.17 335.31,-806.05"/>
</g>
<!-- Node16&#45;&gt;Node10 -->
<g id="edge20" class="edge">
<title>Node16&#45;&gt;Node10</title>
<path fill="none" stroke="midnightblue" d="M114.8,-761.02C113.13,-759.78 111.52,-758.44 110,-756.99 37.8,-688.52 36.48,-552.94 37.57,-515.67"/>
<polygon fill="midnightblue" stroke="midnightblue" points="113.37,-764.25 123.73,-766.49 117.03,-758.28 113.37,-764.25"/>
</g>
<!-- Node17&#45;&gt;Node10 -->
<g id="edge22" class="edge">
<title>Node17&#45;&gt;Node10</title>
<path fill="none" stroke="midnightblue" d="M127.54,-719.74C121.12,-716.66 115.11,-712.81 110,-707.99 51.75,-653.1 40.56,-547.93 38.47,-515.65"/>
<polygon fill="midnightblue" stroke="midnightblue" points="126.59,-723.14 137.17,-723.74 129.27,-716.67 126.59,-723.14"/>
</g>
<!-- Node18&#45;&gt;Node10 -->
<g id="edge24" class="edge">
<title>Node18&#45;&gt;Node10</title>
<path fill="none" stroke="midnightblue" d="M127.71,-669.27C121.31,-666.23 115.26,-662.52 110,-657.99 63.99,-618.34 45.22,-542.78 39.79,-515.84"/>
<polygon fill="midnightblue" stroke="midnightblue" points="126.69,-672.64 137.27,-673.26 129.39,-666.18 126.69,-672.64"/>
</g>
<!-- Node19&#45;&gt;Node10 -->
<g id="edge26" class="edge">
<title>Node19&#45;&gt;Node10</title>
<path fill="none" stroke="midnightblue" d="M135.16,-631.94C126.22,-629.15 117.48,-625.3 110,-619.99 71.62,-592.77 49.12,-538.02 41.23,-515.75"/>
<polygon fill="midnightblue" stroke="midnightblue" points="134.32,-635.34 144.89,-634.56 136.14,-628.58 134.32,-635.34"/>
</g>
<!-- Node20&#45;&gt;Node10 -->
<g id="edge28" class="edge">
<title>Node20&#45;&gt;Node10</title>
<path fill="none" stroke="midnightblue" d="M126.19,-589.43C120.55,-587.35 115.07,-584.89 110,-581.99 80.34,-565.03 55.41,-532 44.26,-515.64"/>
<polygon fill="midnightblue" stroke="midnightblue" points="125.21,-592.79 135.8,-592.59 127.4,-586.14 125.21,-592.79"/>
</g>
<!-- Node21&#45;&gt;Node10 -->
<g id="edge30" class="edge">
<title>Node21&#45;&gt;Node10</title>
<path fill="none" stroke="midnightblue" d="M143.27,-553.86C132.17,-551.19 120.55,-547.92 110,-543.99 89.47,-536.36 67.4,-524.04 53.19,-515.51"/>
<polygon fill="midnightblue" stroke="midnightblue" points="142.75,-557.33 153.28,-556.13 144.3,-550.5 142.75,-557.33"/>
</g>
<!-- Node22&#45;&gt;Node10 -->
<g id="edge32" class="edge">
<title>Node22&#45;&gt;Node10</title>
<path fill="none" stroke="midnightblue" d="M130.09,-517.32C111.09,-514.98 90.83,-512.49 74.17,-510.44"/>
<polygon fill="midnightblue" stroke="midnightblue" points="129.84,-520.81 140.19,-518.56 130.7,-513.87 129.84,-520.81"/>
</g>
<!-- Node23&#45;&gt;Node10 -->
<g id="edge34" class="edge">
<title>Node23&#45;&gt;Node10</title>
<path fill="none" stroke="midnightblue" d="M141.69,-493.24C119.6,-495.96 94.22,-499.08 74.11,-501.55"/>
<polygon fill="midnightblue" stroke="midnightblue" points="142.41,-496.68 151.91,-491.99 141.55,-489.73 142.41,-496.68"/>
</g>
<!-- Node24&#45;&gt;Node10 -->
<g id="edge36" class="edge">
<title>Node24&#45;&gt;Node10</title>
<path fill="none" stroke="midnightblue" d="M132.23,-460.95C124.66,-463.01 117.09,-465.36 110,-467.99 89.47,-475.63 67.4,-487.95 53.19,-496.48"/>
<polygon fill="midnightblue" stroke="midnightblue" points="133.34,-464.28 142.15,-458.4 131.6,-457.5 133.34,-464.28"/>
</g>
<!-- Node25&#45;&gt;Node16 -->
<g id="edge38" class="edge">
<title>Node25&#45;&gt;Node16</title>
<path fill="none" stroke="midnightblue" d="M335.78,-768.3C317.32,-769.31 296.73,-770.43 277.09,-771.5"/>
<polygon fill="midnightblue" stroke="midnightblue" points="335.99,-771.79 345.79,-767.76 335.61,-764.8 335.99,-771.79"/>
</g>
<!-- Node26&#45;&gt;Node10 -->
<g id="edge40" class="edge">
<title>Node26&#45;&gt;Node10</title>
<path fill="none" stroke="midnightblue" d="M331.14,-402.24C270.79,-397.1 180.16,-397.02 110,-429.99 78.75,-444.68 54.22,-479.43 43.66,-496.37"/>
<polygon fill="midnightblue" stroke="midnightblue" points="331.03,-405.74 341.3,-403.17 331.67,-398.77 331.03,-405.74"/>
</g>
<!-- Node27&#45;&gt;Node10 -->
<g id="edge42" class="edge">
<title>Node27&#45;&gt;Node10</title>
<path fill="none" stroke="midnightblue" d="M331.36,-354.42C269.72,-350.53 176.91,-353.51 110,-394.99 70.76,-419.32 48.75,-473.88 41.11,-496.19"/>
<polygon fill="midnightblue" stroke="midnightblue" points="331.14,-357.91 341.36,-355.12 331.63,-350.93 331.14,-357.91"/>
</g>
<!-- Node28&#45;&gt;Node10 -->
<g id="edge44" class="edge">
<title>Node28&#45;&gt;Node10</title>
<path fill="none" stroke="midnightblue" d="M329.7,-307.72C267.06,-301.82 173.73,-303.08 110,-348.99 58.91,-385.8 43.19,-467.87 39.19,-496.17"/>
<polygon fill="midnightblue" stroke="midnightblue" points="329.57,-311.22 339.87,-308.76 330.28,-304.26 329.57,-311.22"/>
</g>
<!-- Node29&#45;&gt;Node10 -->
<g id="edge46" class="edge">
<title>Node29&#45;&gt;Node10</title>
<path fill="none" stroke="midnightblue" d="M334.15,-277.81C260.55,-276.52 143.84,-278.89 110,-304.99 46.6,-353.89 38.93,-463.37 38.08,-496.39"/>
<polygon fill="midnightblue" stroke="midnightblue" points="334.17,-281.32 344.24,-278.02 334.31,-274.32 334.17,-281.32"/>
</g>
<!-- Node30&#45;&gt;Node10 -->
<g id="edge48" class="edge">
<title>Node30&#45;&gt;Node10</title>
<path fill="none" stroke="midnightblue" d="M336.65,-240.98C262.97,-240.97 143.46,-245.41 110,-272.99 38.78,-331.71 36.65,-459.39 37.58,-496"/>
<polygon fill="midnightblue" stroke="midnightblue" points="336.72,-244.48 346.73,-241 336.74,-237.48 336.72,-244.48"/>
</g>
<!-- Node31&#45;&gt;Node10 -->
<g id="edge50" class="edge">
<title>Node31&#45;&gt;Node10</title>
<path fill="none" stroke="midnightblue" d="M338.49,-193.48C274.69,-185.45 172.88,-183.59 110,-237.99 69.1,-273.38 44.56,-452.81 39.14,-496.43"/>
<polygon fill="midnightblue" stroke="midnightblue" points="338.4,-197 348.78,-194.87 339.34,-190.06 338.4,-197"/>
</g>
<!-- Node32&#45;&gt;Node10 -->
<g id="edge52" class="edge">
<title>Node32&#45;&gt;Node10</title>
<path fill="none" stroke="midnightblue" d="M344.6,-163.09C271.66,-160.17 143.93,-159.61 110,-188.99 61.58,-230.93 42.42,-447.74 38.7,-496.33"/>
<polygon fill="midnightblue" stroke="midnightblue" points="344.8,-166.61 354.94,-163.54 345.1,-159.61 344.8,-166.61"/>
</g>
<!-- Node33&#45;&gt;Node10 -->
<g id="edge54" class="edge">
<title>Node33&#45;&gt;Node10</title>
<path fill="none" stroke="midnightblue" d="M344.75,-116.69C281.14,-106.09 173.81,-99.41 110,-156.99 57.52,-204.35 41.36,-445.21 38.5,-496.42"/>
<polygon fill="midnightblue" stroke="midnightblue" points="344.49,-120.2 354.95,-118.49 345.71,-113.31 344.49,-120.2"/>
</g>
<!-- Node34&#45;&gt;Node4 -->
<g id="edge56" class="edge">
<title>Node34&#45;&gt;Node4</title>
<path fill="none" stroke="midnightblue" d="M801.1,-346.71C762.34,-399.92 647.84,-557.11 618.44,-597.47"/>
<polygon fill="midnightblue" stroke="midnightblue" points="803.97,-348.71 807.03,-338.56 798.31,-344.59 803.97,-348.71"/>
</g>
<!-- Node35 -->
<g id="node35" class="node">
<title>Node35</title>
<g id="a_node35"><a xlink:href="TESTSUITE_2gfn0_8f90.html#ac2abd1dbadf75b71866d509eaad7957d" target="_top" xlink:title=" ">
<polygon fill="white" stroke="black" points="154,-80.49 154,-99.49 233,-99.49 233,-80.49 154,-80.49"/>
<text text-anchor="middle" x="193.5" y="-87.49" font-family="Helvetica,sans-Serif" font-size="10.00">test_gfn0_sp</text>
</a>
</g>
</g>
<!-- Node34&#45;&gt;Node35 -->
<g id="edge57" class="edge">
<title>Node34&#45;&gt;Node35</title>
<path fill="none" stroke="midnightblue" d="M796.48,-312.39C749.85,-269.39 617.04,-154.59 482,-108.99 396.93,-80.27 289.81,-82.49 233.39,-86.38"/>
<polygon fill="midnightblue" stroke="midnightblue" points="794.23,-315.07 803.93,-319.33 799,-309.95 794.23,-315.07"/>
</g>
<!-- Node36 -->
<g id="node36" class="node">
<title>Node36</title>
<g id="a_node36"><a xlink:href="peeq_8f90.html#a5122d9bd07a3f4377ee140a5991d1325" target="_top" xlink:title=" ">
<polygon fill="white" stroke="black" points="570,-42.49 570,-61.49 651,-61.49 651,-42.49 570,-42.49"/>
<text text-anchor="middle" x="610.5" y="-49.49" font-family="Helvetica,sans-Serif" font-size="10.00">test_peeq_sp</text>
</a>
</g>
</g>
<!-- Node34&#45;&gt;Node36 -->
<g id="edge59" class="edge">
<title>Node34&#45;&gt;Node36</title>
<path fill="none" stroke="midnightblue" d="M811.29,-309.56C803.63,-262.07 777.28,-139.45 703,-75.99 688.64,-63.73 668.72,-57.64 651.13,-54.65"/>
<polygon fill="midnightblue" stroke="midnightblue" points="807.83,-310.09 812.79,-319.46 814.76,-309.05 807.83,-310.09"/>
</g>
<!-- Node35&#45;&gt;Node10 -->
<g id="edge58" class="edge">
<title>Node35&#45;&gt;Node10</title>
<path fill="none" stroke="midnightblue" d="M143.94,-98.51C131.26,-102.95 118.72,-109.71 110,-119.99 59.41,-179.66 41.66,-442.57 38.53,-496.36"/>
<polygon fill="midnightblue" stroke="midnightblue" points="145.08,-101.82 153.61,-95.55 143.02,-95.13 145.08,-101.82"/>
</g>
<!-- Node36&#45;&gt;Node10 -->
<g id="edge60" class="edge">
<title>Node36&#45;&gt;Node10</title>
<path fill="none" stroke="midnightblue" d="M571.97,-39.38C480.25,-11.16 242.57,45.84 110,-70.99 43.53,-129.58 38.4,-437.93 38.03,-496.41"/>
<polygon fill="midnightblue" stroke="midnightblue" points="571.07,-42.76 581.65,-42.42 573.16,-36.09 571.07,-42.76"/>
</g>
</g>
</svg>
        <g id="navigator" transform="translate(0 0)" fill="#404254">
                <rect fill="#f2f5e9" fill-opacity="0.5" stroke="#606060" stroke-width=".5" x="0" y="0" width="60" height="60"/>
                <use id="zoomplus" xlink:href="#zoomPlus" x="17" y="9" onmousedown="handleZoom(evt,'in')"/>
                <use id="zoomminus" xlink:href="#zoomMin" x="42" y="9" onmousedown="handleZoom(evt,'out')"/>
                <use id="reset" xlink:href="#resetDef" x="30" y="36" onmousedown="handleReset()"/>
                <g id="arrowUp" xlink:href="#dirArrow" transform="translate(30 24)" onmousedown="handlePan(0,-1)">
                  <use xlink:href="#rim" fill="#404040">
                        <set attributeName="fill" to="#808080" begin="arrowUp.mouseover" end="arrowUp.mouseout"/>
                  </use>
                  <path fill="none" stroke="white" stroke-width="1.5" d="M0,-3.0v7 M-2.5,-0.5L0,-3.0L2.5,-0.5"/>
                </g>
                <g id="arrowRight" xlink:href="#dirArrow" transform="rotate(90) translate(36 -43)" onmousedown="handlePan(1,0)">
                  <use xlink:href="#rim" fill="#404040">
                        <set attributeName="fill" to="#808080" begin="arrowRight.mouseover" end="arrowRight.mouseout"/>
                  </use>
                  <path fill="none" stroke="white" stroke-width="1.5" d="M0,-3.0v7 M-2.5,-0.5L0,-3.0L2.5,-0.5"/>
                </g>
                <g id="arrowDown" xlink:href="#dirArrow" transform="rotate(180) translate(-30 -48)" onmousedown="handlePan(0,1)">
                  <use xlink:href="#rim" fill="#404040">
                        <set attributeName="fill" to="#808080" begin="arrowDown.mouseover" end="arrowDown.mouseout"/>
                  </use>
                  <path fill="none" stroke="white" stroke-width="1.5" d="M0,-3.0v7 M-2.5,-0.5L0,-3.0L2.5,-0.5"/>
                </g>
                <g id="arrowLeft" xlink:href="#dirArrow" transform="rotate(270) translate(-36 17)" onmousedown="handlePan(-1,0)">
                  <use xlink:href="#rim" fill="#404040">
                        <set attributeName="fill" to="#808080" begin="arrowLeft.mouseover" end="arrowLeft.mouseout"/>
                  </use>
                  <path fill="none" stroke="white" stroke-width="1.5" d="M0,-3.0v7 M-2.5,-0.5L0,-3.0L2.5,-0.5"/>
                </g>
        </g>
        <svg viewBox="0 0 15 15" width="100%" height="30px" preserveAspectRatio="xMaxYMin meet">
         <g id="arrow_out" transform="scale(0.3 0.3)">
          <a xlink:href="namespacextb__readin_aa4cba2ddf891393117f495075dbdbfbd_icgraph_org.svg" target="_base">
           <rect id="button" ry="5" rx="5" y="6" x="6" height="38" width="38"
                fill="#f2f5e9" fill-opacity="0.5" stroke="#606060" stroke-width="1.0"/>
           <path id="arrow"
             d="M 11.500037,31.436501 C 11.940474,20.09759 22.043105,11.32322 32.158766,21.979434 L 37.068811,17.246167 C 37.068811,17.246167 37.088388,32 37.088388,32 L 22.160133,31.978069 C 22.160133,31.978069 26.997745,27.140456 26.997745,27.140456 C 18.528582,18.264221 13.291696,25.230495 11.500037,31.436501 z"
             style="fill:#404040;"/>
          </a>
         </g>
        </svg>
</svg>
