<?xml version="1.0" encoding="UTF-8" standalone="no"?>
<!DOCTYPE svg PUBLIC "-//W3C//DTD SVG 1.1//EN"
 "http://www.w3.org/Graphics/SVG/1.1/DTD/svg11.dtd">
<!-- Generated by graphviz version 2.43.0 (0)
 -->
<!-- Title: xtb_peeq::get_overlap Pages: 1 -->
<svg width="432pt" height="192pt"
 viewBox="0.00 0.00 432.00 191.50" xmlns="http://www.w3.org/2000/svg" xmlns:xlink="http://www.w3.org/1999/xlink">
<g id="graph0" class="graph" transform="scale(1 1) rotate(0) translate(4 187.5)">
<title>xtb_peeq::get_overlap</title>
<polygon fill="white" stroke="transparent" points="-4,4 -4,-187.5 428,-187.5 428,4 -4,4"/>
<!-- Node1 -->
<g id="node1" class="node">
<title>Node1</title>
<g id="a_node1"><a xlink:title=" ">
<polygon fill="#bfbfbf" stroke="black" points="0,-76.5 0,-95.5 125,-95.5 125,-76.5 0,-76.5"/>
<text text-anchor="middle" x="62.5" y="-83.5" font-family="Helvetica,sans-Serif" font-size="10.00">xtb_peeq::get_overlap</text>
</a>
</g>
</g>
<!-- Node2 -->
<g id="node2" class="node">
<title>Node2</title>
<g id="a_node2"><a xlink:href="namespacextb__intgrad.html#aa938e4391a764ecf662013cd966899ba" target="_top" xlink:title=" ">
<polygon fill="white" stroke="black" points="161,-71 161,-101 263,-101 263,-71 161,-71"/>
<text text-anchor="start" x="169" y="-89" font-family="Helvetica,sans-Serif" font-size="10.00">xtb_intgrad::build</text>
<text text-anchor="middle" x="212" y="-78" font-family="Helvetica,sans-Serif" font-size="10.00">_sdq_ints</text>
</a>
</g>
</g>
<!-- Node1&#45;&gt;Node2 -->
<g id="edge1" class="edge">
<title>Node1&#45;&gt;Node2</title>
<path fill="none" stroke="midnightblue" d="M125.2,-86C133.62,-86 142.25,-86 150.65,-86"/>
<polygon fill="midnightblue" stroke="midnightblue" points="150.74,-89.5 160.74,-86 150.74,-82.5 150.74,-89.5"/>
</g>
<!-- Node3 -->
<g id="node3" class="node">
<title>Node3</title>
<g id="a_node3"><a xlink:href="namespacextb__intgrad.html#a5bc6f86d12b5b4734f597a88800d8330" target="_top" xlink:title=" ">
<polygon fill="white" stroke="black" points="310.5,-153 310.5,-183 412.5,-183 412.5,-153 310.5,-153"/>
<text text-anchor="start" x="318.5" y="-171" font-family="Helvetica,sans-Serif" font-size="10.00">xtb_intgrad::build</text>
<text text-anchor="middle" x="361.5" y="-160" font-family="Helvetica,sans-Serif" font-size="10.00">_hshift2</text>
</a>
</g>
</g>
<!-- Node2&#45;&gt;Node3 -->
<g id="edge2" class="edge">
<title>Node2&#45;&gt;Node3</title>
<path fill="none" stroke="midnightblue" d="M233.14,-101.02C250.14,-113.28 275.4,-130.54 299,-143 302.78,-145 306.76,-146.94 310.8,-148.81"/>
<polygon fill="midnightblue" stroke="midnightblue" points="309.71,-152.15 320.27,-153 312.54,-145.75 309.71,-152.15"/>
</g>
<!-- Node4 -->
<g id="node4" class="node">
<title>Node4</title>
<g id="a_node4"><a xlink:href="namespacextb__intgrad.html#a1f9cf61176ecca277a73a81137c39a39" target="_top" xlink:title=" ">
<polygon fill="white" stroke="black" points="299,-114.5 299,-133.5 424,-133.5 424,-114.5 299,-114.5"/>
<text text-anchor="middle" x="361.5" y="-121.5" font-family="Helvetica,sans-Serif" font-size="10.00">xtb_intgrad::build_kab</text>
</a>
</g>
</g>
<!-- Node2&#45;&gt;Node4 -->
<g id="edge3" class="edge">
<title>Node2&#45;&gt;Node4</title>
<path fill="none" stroke="midnightblue" d="M263.35,-98.97C279.66,-103.17 297.67,-107.81 313.71,-111.95"/>
<polygon fill="midnightblue" stroke="midnightblue" points="312.86,-115.34 323.41,-114.45 314.6,-108.56 312.86,-115.34"/>
</g>
<!-- Node5 -->
<g id="node5" class="node">
<title>Node5</title>
<g id="a_node5"><a xlink:href="namespacextb__intgrad.html#a49b854bf505ac013ac50d12edb2e0de5" target="_top" xlink:title="returns center of product Gaussian from two Gaussians by GPT">
<polygon fill="white" stroke="black" points="301,-76.5 301,-95.5 422,-95.5 422,-76.5 301,-76.5"/>
<text text-anchor="middle" x="361.5" y="-83.5" font-family="Helvetica,sans-Serif" font-size="10.00">xtb_intgrad::gpcenter</text>
</a>
</g>
</g>
<!-- Node2&#45;&gt;Node5 -->
<g id="edge4" class="edge">
<title>Node2&#45;&gt;Node5</title>
<path fill="none" stroke="midnightblue" d="M263.35,-86C272.24,-86 281.63,-86 290.93,-86"/>
<polygon fill="midnightblue" stroke="midnightblue" points="290.96,-89.5 300.96,-86 290.96,-82.5 290.96,-89.5"/>
</g>
<!-- Node6 -->
<g id="node6" class="node">
<title>Node6</title>
<g id="a_node6"><a xlink:href="namespacextb__intgrad.html#a61582fac6cd8cc05eb76d4ced531ef6e" target="_top" xlink:title="calculates a partial overlap in one cartesian direction">
<polygon fill="white" stroke="black" points="309,-38.5 309,-57.5 414,-57.5 414,-38.5 309,-38.5"/>
<text text-anchor="middle" x="361.5" y="-45.5" font-family="Helvetica,sans-Serif" font-size="10.00">xtb_intgrad::olapp</text>
</a>
</g>
</g>
<!-- Node2&#45;&gt;Node6 -->
<g id="edge5" class="edge">
<title>Node2&#45;&gt;Node6</title>
<path fill="none" stroke="midnightblue" d="M263.35,-73.03C279.66,-68.83 297.67,-64.19 313.71,-60.05"/>
<polygon fill="midnightblue" stroke="midnightblue" points="314.6,-63.44 323.41,-57.55 312.86,-56.66 314.6,-63.44"/>
</g>
<!-- Node7 -->
<g id="node7" class="node">
<title>Node7</title>
<g id="a_node7"><a xlink:href="namespacextb__intgrad.html#a040b47e4b45c55028569fcad9704172a" target="_top" xlink:title=" ">
<polygon fill="white" stroke="black" points="308.5,-0.5 308.5,-19.5 414.5,-19.5 414.5,-0.5 308.5,-0.5"/>
<text text-anchor="middle" x="361.5" y="-7.5" font-family="Helvetica,sans-Serif" font-size="10.00">xtb_intgrad::prod3</text>
</a>
</g>
</g>
<!-- Node2&#45;&gt;Node7 -->
<g id="edge6" class="edge">
<title>Node2&#45;&gt;Node7</title>
<path fill="none" stroke="midnightblue" d="M232.2,-70.94C249.03,-58.33 274.56,-40.58 299,-29 303.68,-26.78 308.67,-24.75 313.72,-22.9"/>
<polygon fill="midnightblue" stroke="midnightblue" points="315.1,-26.13 323.43,-19.58 312.83,-19.51 315.1,-26.13"/>
</g>
</g>
</svg>
