<?xml version="1.0" encoding="UTF-8" standalone="no"?>
<!DOCTYPE svg PUBLIC "-//W3C//DTD SVG 1.1//EN"
 "http://www.w3.org/Graphics/SVG/1.1/DTD/svg11.dtd">
<!-- Generated by graphviz version 2.46.1 (20210215.1649)
 -->
<!-- Title: xtb_intgrad::dtrf2 Pages: 1 -->
<svg width="675pt" height="415pt"
 viewBox="0.00 0.00 675.00 414.50" xmlns="http://www.w3.org/2000/svg" xmlns:xlink="http://www.w3.org/1999/xlink">
<g id="graph0" class="graph" transform="scale(1 1) rotate(0) translate(4 410.5)">
<title>xtb_intgrad::dtrf2</title>
<polygon fill="white" stroke="transparent" points="-4,4 -4,-410.5 671,-410.5 671,4 -4,4"/>
<!-- Node1 -->
<g id="node1" class="node">
<title>Node1</title>
<g id="a_node1"><a xlink:title=" ">
<polygon fill="#bfbfbf" stroke="black" points="579,-171.5 579,-190.5 667,-190.5 667,-171.5 579,-171.5"/>
<text text-anchor="middle" x="623" y="-178.5" font-family="Helvetica,sans-Serif" font-size="10.00">xtb_intgrad::dtrf2</text>
</a>
</g>
</g>
<!-- Node2 -->
<g id="node2" class="node">
<title>Node2</title>
<g id="a_node2"><a xlink:href="namespacextb__xtb__hamiltonian.html#a8364d9293f8dac8d5de89c5186f7effc" target="_top" xlink:title="Computes the gradient of the dipole/qpole integral contribution.">
<polygon fill="white" stroke="black" points="426.5,-376 426.5,-406 528.5,-406 528.5,-376 426.5,-376"/>
<text text-anchor="start" x="434.5" y="-394" font-family="Helvetica,sans-Serif" font-size="10.00">xtb_xtb_hamiltonian</text>
<text text-anchor="middle" x="477.5" y="-383" font-family="Helvetica,sans-Serif" font-size="10.00">::build_dsdqh0</text>
</a>
</g>
</g>
<!-- Node1&#45;&gt;Node2 -->
<g id="edge1" class="edge">
<title>Node1&#45;&gt;Node2</title>
<path fill="none" stroke="midnightblue" d="M618.9,-200.73C612,-238.23 591.96,-320.21 543,-367 538.77,-371.04 533.79,-374.42 528.51,-377.23"/>
<polygon fill="midnightblue" stroke="midnightblue" points="622.39,-201.06 620.64,-190.61 615.5,-199.87 622.39,-201.06"/>
</g>
<!-- Node8 -->
<g id="node8" class="node">
<title>Node8</title>
<g id="a_node8"><a xlink:href="namespacextb__xtb__hamiltonian.html#a299eaa3877160d0aff3f63dc55b12fde" target="_top" xlink:title="Computes the gradient of the dipole/qpole integral contribution.">
<polygon fill="white" stroke="black" points="419.5,-327 419.5,-357 535.5,-357 535.5,-327 419.5,-327"/>
<text text-anchor="start" x="427.5" y="-345" font-family="Helvetica,sans-Serif" font-size="10.00">xtb_xtb_hamiltonian</text>
<text text-anchor="middle" x="477.5" y="-334" font-family="Helvetica,sans-Serif" font-size="10.00">::build_dsdqh0_noreset</text>
</a>
</g>
</g>
<!-- Node1&#45;&gt;Node8 -->
<g id="edge8" class="edge">
<title>Node1&#45;&gt;Node8</title>
<path fill="none" stroke="midnightblue" d="M615.68,-200.36C605.14,-229.75 581.28,-285.63 543,-318 538.99,-321.39 534.45,-324.33 529.68,-326.87"/>
<polygon fill="midnightblue" stroke="midnightblue" points="619.02,-201.41 618.96,-190.82 612.4,-199.13 619.02,-201.41"/>
</g>
<!-- Node9 -->
<g id="node9" class="node">
<title>Node9</title>
<g id="a_node9"><a xlink:href="namespacextb__xtb__hamiltonian.html#a9f0d8be35a4ef0f2dbbbafd2ef873d64" target="_top" xlink:title="Computes the dipole and quadrupole integrals and performs screening to.">
<polygon fill="white" stroke="black" points="426.5,-278 426.5,-308 528.5,-308 528.5,-278 426.5,-278"/>
<text text-anchor="start" x="434.5" y="-296" font-family="Helvetica,sans-Serif" font-size="10.00">xtb_xtb_hamiltonian</text>
<text text-anchor="middle" x="477.5" y="-285" font-family="Helvetica,sans-Serif" font-size="10.00">::build_sdqh0</text>
</a>
</g>
</g>
<!-- Node1&#45;&gt;Node9 -->
<g id="edge10" class="edge">
<title>Node1&#45;&gt;Node9</title>
<path fill="none" stroke="midnightblue" d="M609.96,-198.96C595.95,-218.61 571.13,-249.85 543,-269 538.06,-272.36 532.59,-275.33 526.99,-277.92"/>
<polygon fill="midnightblue" stroke="midnightblue" points="612.94,-200.8 615.77,-190.59 607.19,-196.81 612.94,-200.8"/>
</g>
<!-- Node10 -->
<g id="node10" class="node">
<title>Node10</title>
<g id="a_node10"><a xlink:href="namespacextb__xtb__hamiltonian__gpu.html#aee3ffc022ae0b9686cef17ce77e6b117" target="_top" xlink:title="Computes the dipole and quadrupole integrals and performs screening to.">
<polygon fill="white" stroke="black" points="420,-229 420,-259 535,-259 535,-229 420,-229"/>
<text text-anchor="start" x="428" y="-247" font-family="Helvetica,sans-Serif" font-size="10.00">xtb_xtb_hamiltonian</text>
<text text-anchor="middle" x="477.5" y="-236" font-family="Helvetica,sans-Serif" font-size="10.00">_gpu::build_sdqh0_gpu</text>
</a>
</g>
</g>
<!-- Node1&#45;&gt;Node10 -->
<g id="edge12" class="edge">
<title>Node1&#45;&gt;Node10</title>
<path fill="none" stroke="midnightblue" d="M593.81,-195.22C578.85,-202.61 560.07,-211.6 543,-219 535.29,-222.34 526.97,-225.73 518.95,-228.88"/>
<polygon fill="midnightblue" stroke="midnightblue" points="595.64,-198.22 603.04,-190.64 592.52,-191.95 595.64,-198.22"/>
</g>
<!-- Node11 -->
<g id="node11" class="node">
<title>Node11</title>
<g id="a_node11"><a xlink:href="namespacextb__peeq.html#a40797d7eda755bad4031e16951ae29b7" target="_top" xlink:title=" ">
<polygon fill="white" stroke="black" points="412,-190.5 412,-209.5 543,-209.5 543,-190.5 412,-190.5"/>
<text text-anchor="middle" x="477.5" y="-197.5" font-family="Helvetica,sans-Serif" font-size="10.00">xtb_peeq::ccm_build_dsh0</text>
</a>
</g>
</g>
<!-- Node1&#45;&gt;Node11 -->
<g id="edge14" class="edge">
<title>Node1&#45;&gt;Node11</title>
<path fill="none" stroke="midnightblue" d="M568.89,-188.03C560.46,-189.15 551.67,-190.31 543.02,-191.46"/>
<polygon fill="midnightblue" stroke="midnightblue" points="569.49,-191.48 578.95,-186.7 568.57,-184.54 569.49,-191.48"/>
</g>
<!-- Node15 -->
<g id="node15" class="node">
<title>Node15</title>
<g id="a_node15"><a xlink:href="namespacextb__peeq.html#a88e7865d904c0f99f485a16db19d88aa" target="_top" xlink:title=" ">
<polygon fill="white" stroke="black" points="415,-152.5 415,-171.5 540,-171.5 540,-152.5 415,-152.5"/>
<text text-anchor="middle" x="477.5" y="-159.5" font-family="Helvetica,sans-Serif" font-size="10.00">xtb_peeq::ccm_build_sh0</text>
</a>
</g>
</g>
<!-- Node1&#45;&gt;Node15 -->
<g id="edge21" class="edge">
<title>Node1&#45;&gt;Node15</title>
<path fill="none" stroke="midnightblue" d="M568.96,-173.98C559.56,-172.73 549.7,-171.43 540.09,-170.16"/>
<polygon fill="midnightblue" stroke="midnightblue" points="568.57,-177.46 578.95,-175.3 569.49,-170.52 568.57,-177.46"/>
</g>
<!-- Node16 -->
<g id="node16" class="node">
<title>Node16</title>
<g id="a_node16"><a xlink:href="namespacextb__peeq.html#a101bc81468c2cd4ddd3221efaa59b142" target="_top" xlink:title=" ">
<polygon fill="white" stroke="black" points="413.5,-114.5 413.5,-133.5 541.5,-133.5 541.5,-114.5 413.5,-114.5"/>
<text text-anchor="middle" x="477.5" y="-121.5" font-family="Helvetica,sans-Serif" font-size="10.00">xtb_peeq::pbc_build_dsh0</text>
</a>
</g>
</g>
<!-- Node1&#45;&gt;Node16 -->
<g id="edge23" class="edge">
<title>Node1&#45;&gt;Node16</title>
<path fill="none" stroke="midnightblue" d="M594.95,-166.64C579.91,-159.01 560.71,-149.82 543,-143 533.96,-139.52 524,-136.3 514.67,-133.54"/>
<polygon fill="midnightblue" stroke="midnightblue" points="593.68,-169.93 604.17,-171.4 596.88,-163.7 593.68,-169.93"/>
</g>
<!-- Node17 -->
<g id="node17" class="node">
<title>Node17</title>
<g id="a_node17"><a xlink:href="namespacextb__peeq.html#a9e3625eb7bd9b7e395c110aacfe6eaeb" target="_top" xlink:title=" ">
<polygon fill="white" stroke="black" points="416.5,-76.5 416.5,-95.5 538.5,-95.5 538.5,-76.5 416.5,-76.5"/>
<text text-anchor="middle" x="477.5" y="-83.5" font-family="Helvetica,sans-Serif" font-size="10.00">xtb_peeq::pbc_build_sh0</text>
</a>
</g>
</g>
<!-- Node1&#45;&gt;Node17 -->
<g id="edge25" class="edge">
<title>Node1&#45;&gt;Node17</title>
<path fill="none" stroke="midnightblue" d="M607.91,-163.16C593.38,-145.91 569.21,-120.22 543,-105 536.44,-101.19 529.05,-98.09 521.68,-95.58"/>
<polygon fill="midnightblue" stroke="midnightblue" points="605.54,-165.79 614.58,-171.31 610.95,-161.36 605.54,-165.79"/>
</g>
<!-- Node18 -->
<g id="node18" class="node">
<title>Node18</title>
<g id="a_node18"><a xlink:href="namespacextb__intgrad.html#a45fdbd10e8d62595c60b79d516e52cbd" target="_top" xlink:title="computes the dipole and quadrupole integrals and performs screening to">
<polygon fill="white" stroke="black" points="430,-38.5 430,-57.5 525,-57.5 525,-38.5 430,-38.5"/>
<text text-anchor="middle" x="477.5" y="-45.5" font-family="Helvetica,sans-Serif" font-size="10.00">xtb_intgrad::sdqint</text>
</a>
</g>
</g>
<!-- Node1&#45;&gt;Node18 -->
<g id="edge27" class="edge">
<title>Node1&#45;&gt;Node18</title>
<path fill="none" stroke="midnightblue" d="M613.88,-162.12C601.99,-136.73 577.48,-91.91 543,-67 537.61,-63.1 531.42,-60 525.05,-57.53"/>
<polygon fill="midnightblue" stroke="midnightblue" points="610.76,-163.72 618.06,-171.4 617.14,-160.84 610.76,-163.72"/>
</g>
<!-- Node22 -->
<g id="node22" class="node">
<title>Node22</title>
<g id="a_node22"><a xlink:href="namespacextb__intgrad.html#acfb80861031d50fbbfc7f6a4d203b94f" target="_top" xlink:title="Computes the overlap dipole and quadrupole integrals.">
<polygon fill="white" stroke="black" points="419.5,-0.5 419.5,-19.5 535.5,-19.5 535.5,-0.5 419.5,-0.5"/>
<text text-anchor="middle" x="477.5" y="-7.5" font-family="Helvetica,sans-Serif" font-size="10.00">xtb_intgrad::sdqint_gpu</text>
</a>
</g>
</g>
<!-- Node1&#45;&gt;Node22 -->
<g id="edge31" class="edge">
<title>Node1&#45;&gt;Node22</title>
<path fill="none" stroke="midnightblue" d="M617.1,-161.04C608.07,-128.52 585.71,-64.18 543,-29 538.31,-25.14 532.87,-22.07 527.17,-19.61"/>
<polygon fill="midnightblue" stroke="midnightblue" points="613.82,-162.34 619.75,-171.12 620.59,-160.56 613.82,-162.34"/>
</g>
<!-- Node3 -->
<g id="node3" class="node">
<title>Node3</title>
<g id="a_node3"><a xlink:href="namespacextb__scf.html#a7390c40a38032c3d210c39edecfa49ed" target="_top" xlink:title=" ">
<polygon fill="white" stroke="black" points="295,-283.5 295,-302.5 361,-302.5 361,-283.5 295,-283.5"/>
<text text-anchor="middle" x="328" y="-290.5" font-family="Helvetica,sans-Serif" font-size="10.00">xtb_scf::scf</text>
</a>
</g>
</g>
<!-- Node2&#45;&gt;Node3 -->
<g id="edge2" class="edge">
<title>Node2&#45;&gt;Node3</title>
<path fill="none" stroke="midnightblue" d="M420.63,-371.74C417.66,-370.25 414.76,-368.66 412,-367 381.57,-348.67 352.01,-318.46 337.78,-302.92"/>
<polygon fill="midnightblue" stroke="midnightblue" points="419.18,-374.92 429.72,-375.97 422.13,-368.58 419.18,-374.92"/>
</g>
<!-- Node4 -->
<g id="node4" class="node">
<title>Node4</title>
<g id="a_node4"><a xlink:href="namespacextb__xtb__calculator.html#a75c96263c235c99dfeeda3e865f9898c" target="_top" xlink:title=" ">
<polygon fill="white" stroke="black" points="137.5,-213 137.5,-243 232.5,-243 232.5,-213 137.5,-213"/>
<text text-anchor="start" x="145.5" y="-231" font-family="Helvetica,sans-Serif" font-size="10.00">xtb_xtb_calculator</text>
<text text-anchor="middle" x="185" y="-220" font-family="Helvetica,sans-Serif" font-size="10.00">::singlepoint</text>
</a>
</g>
</g>
<!-- Node3&#45;&gt;Node4 -->
<g id="edge3" class="edge">
<title>Node3&#45;&gt;Node4</title>
<path fill="none" stroke="midnightblue" d="M298.35,-278.83C282.42,-271.04 262.2,-261.3 244,-253 236.82,-249.72 229.09,-246.31 221.69,-243.1"/>
<polygon fill="midnightblue" stroke="midnightblue" points="297.14,-282.13 307.66,-283.39 300.22,-275.84 297.14,-282.13"/>
</g>
<!-- Node5 -->
<g id="node5" class="node">
<title>Node5</title>
<g id="a_node5"><a xlink:href="TESTSUITE_2gfn1_8f90.html#ab5cc37cef2d483d9d9cde17aa03c55a8" target="_top" xlink:title=" ">
<polygon fill="white" stroke="black" points="146,-300.5 146,-319.5 224,-319.5 224,-300.5 146,-300.5"/>
<text text-anchor="middle" x="185" y="-307.5" font-family="Helvetica,sans-Serif" font-size="10.00">test_gfn1_scc</text>
</a>
</g>
</g>
<!-- Node3&#45;&gt;Node5 -->
<g id="edge4" class="edge">
<title>Node3&#45;&gt;Node5</title>
<path fill="none" stroke="midnightblue" d="M284.66,-298.11C265.44,-300.42 242.89,-303.14 224.2,-305.39"/>
<polygon fill="midnightblue" stroke="midnightblue" points="285.14,-301.57 294.65,-296.9 284.3,-294.62 285.14,-301.57"/>
</g>
<!-- Node7 -->
<g id="node7" class="node">
<title>Node7</title>
<g id="a_node7"><a xlink:href="TESTSUITE_2gfn2_8f90.html#af47afba0207cbca2dc950fb5e339ce03" target="_top" xlink:title=" ">
<polygon fill="white" stroke="black" points="146,-262.5 146,-281.5 224,-281.5 224,-262.5 146,-262.5"/>
<text text-anchor="middle" x="185" y="-269.5" font-family="Helvetica,sans-Serif" font-size="10.00">test_gfn2_scc</text>
</a>
</g>
</g>
<!-- Node3&#45;&gt;Node7 -->
<g id="edge6" class="edge">
<title>Node3&#45;&gt;Node7</title>
<path fill="none" stroke="midnightblue" d="M284.66,-286.69C265.44,-283.83 242.89,-280.47 224.2,-277.69"/>
<polygon fill="midnightblue" stroke="midnightblue" points="284.25,-290.17 294.65,-288.18 285.28,-283.25 284.25,-290.17"/>
</g>
<!-- Node6 -->
<g id="node6" class="node">
<title>Node6</title>
<g id="a_node6"><a xlink:href="tests__peeq_8f90.html#a87ff5319e0d2e627a4f71d7df0d14891" target="_top" xlink:title=" ">
<polygon fill="white" stroke="black" points="11,-218.5 11,-237.5 79,-237.5 79,-218.5 11,-218.5"/>
<text text-anchor="middle" x="45" y="-225.5" font-family="Helvetica,sans-Serif" font-size="10.00">peeq_tester</text>
</a>
</g>
</g>
<!-- Node5&#45;&gt;Node6 -->
<g id="edge5" class="edge">
<title>Node5&#45;&gt;Node6</title>
<path fill="none" stroke="midnightblue" d="M138.63,-296.87C134.28,-295.1 130,-293.14 126,-291 98.26,-276.14 70.42,-251.49 56.03,-237.84"/>
<polygon fill="midnightblue" stroke="midnightblue" points="137.62,-300.23 148.22,-300.46 140.08,-293.67 137.62,-300.23"/>
</g>
<!-- Node7&#45;&gt;Node6 -->
<g id="edge7" class="edge">
<title>Node7&#45;&gt;Node6</title>
<path fill="none" stroke="midnightblue" d="M144.41,-259.38C122.59,-252.42 95.95,-243.92 75.89,-237.53"/>
<polygon fill="midnightblue" stroke="midnightblue" points="143.47,-262.75 154.06,-262.45 145.59,-256.08 143.47,-262.75"/>
</g>
<!-- Node8&#45;&gt;Node3 -->
<g id="edge9" class="edge">
<title>Node8&#45;&gt;Node3</title>
<path fill="none" stroke="midnightblue" d="M421.31,-323.67C399.73,-316.5 375.88,-308.57 357.82,-302.58"/>
<polygon fill="midnightblue" stroke="midnightblue" points="420.45,-327.07 431.04,-326.9 422.65,-320.42 420.45,-327.07"/>
</g>
<!-- Node9&#45;&gt;Node3 -->
<g id="edge11" class="edge">
<title>Node9&#45;&gt;Node3</title>
<path fill="none" stroke="midnightblue" d="M416.13,-293C397.28,-293 377.22,-293 361.11,-293"/>
<polygon fill="midnightblue" stroke="midnightblue" points="416.15,-296.5 426.15,-293 416.15,-289.5 416.15,-296.5"/>
</g>
<!-- Node10&#45;&gt;Node3 -->
<g id="edge13" class="edge">
<title>Node10&#45;&gt;Node3</title>
<path fill="none" stroke="midnightblue" d="M421.31,-262.33C399.73,-269.5 375.88,-277.43 357.82,-283.42"/>
<polygon fill="midnightblue" stroke="midnightblue" points="422.65,-265.58 431.04,-259.1 420.45,-258.93 422.65,-265.58"/>
</g>
<!-- Node12 -->
<g id="node12" class="node">
<title>Node12</title>
<g id="a_node12"><a xlink:href="namespacextb__peeq.html#ac2d6fc22b842455765bdb4f69279095c" target="_top" xlink:title=" ">
<polygon fill="white" stroke="black" points="287.5,-152.5 287.5,-171.5 368.5,-171.5 368.5,-152.5 287.5,-152.5"/>
<text text-anchor="middle" x="328" y="-159.5" font-family="Helvetica,sans-Serif" font-size="10.00">xtb_peeq::peeq</text>
</a>
</g>
</g>
<!-- Node11&#45;&gt;Node12 -->
<g id="edge15" class="edge">
<title>Node11&#45;&gt;Node12</title>
<path fill="none" stroke="midnightblue" d="M429.49,-187.89C408.94,-182.6 385.2,-176.48 365.95,-171.52"/>
<polygon fill="midnightblue" stroke="midnightblue" points="428.72,-191.31 439.28,-190.41 430.47,-184.53 428.72,-191.31"/>
</g>
<!-- Node12&#45;&gt;Node4 -->
<g id="edge16" class="edge">
<title>Node12&#45;&gt;Node4</title>
<path fill="none" stroke="midnightblue" d="M299.02,-176.27C283,-184.33 262.49,-194.46 244,-203 236.83,-206.31 229.11,-209.74 221.71,-212.95"/>
<polygon fill="midnightblue" stroke="midnightblue" points="301,-179.19 308.34,-171.56 297.84,-172.95 301,-179.19"/>
</g>
<!-- Node13 -->
<g id="node13" class="node">
<title>Node13</title>
<g id="a_node13"><a xlink:href="TESTSUITE_2gfn0_8f90.html#ac2abd1dbadf75b71866d509eaad7957d" target="_top" xlink:title=" ">
<polygon fill="white" stroke="black" points="148.5,-174.5 148.5,-193.5 221.5,-193.5 221.5,-174.5 148.5,-174.5"/>
<text text-anchor="middle" x="185" y="-181.5" font-family="Helvetica,sans-Serif" font-size="10.00">test_gfn0_sp</text>
</a>
</g>
</g>
<!-- Node12&#45;&gt;Node13 -->
<g id="edge17" class="edge">
<title>Node12&#45;&gt;Node13</title>
<path fill="none" stroke="midnightblue" d="M277.36,-169.74C258.94,-172.62 238.42,-175.82 221.51,-178.46"/>
<polygon fill="midnightblue" stroke="midnightblue" points="278.01,-173.19 287.35,-168.19 276.93,-166.27 278.01,-173.19"/>
</g>
<!-- Node14 -->
<g id="node14" class="node">
<title>Node14</title>
<g id="a_node14"><a xlink:href="peeq_8f90.html#a5122d9bd07a3f4377ee140a5991d1325" target="_top" xlink:title=" ">
<polygon fill="white" stroke="black" points="147.5,-136.5 147.5,-155.5 222.5,-155.5 222.5,-136.5 147.5,-136.5"/>
<text text-anchor="middle" x="185" y="-143.5" font-family="Helvetica,sans-Serif" font-size="10.00">test_peeq_sp</text>
</a>
</g>
</g>
<!-- Node12&#45;&gt;Node14 -->
<g id="edge19" class="edge">
<title>Node12&#45;&gt;Node14</title>
<path fill="none" stroke="midnightblue" d="M277.36,-156.37C259.45,-154.33 239.57,-152.08 222.94,-150.19"/>
<polygon fill="midnightblue" stroke="midnightblue" points="277.02,-159.85 287.35,-157.5 277.81,-152.9 277.02,-159.85"/>
</g>
<!-- Node13&#45;&gt;Node6 -->
<g id="edge18" class="edge">
<title>Node13&#45;&gt;Node6</title>
<path fill="none" stroke="midnightblue" d="M144.41,-196.62C122.59,-203.58 95.95,-212.08 75.89,-218.47"/>
<polygon fill="midnightblue" stroke="midnightblue" points="145.59,-199.92 154.06,-193.55 143.47,-193.25 145.59,-199.92"/>
</g>
<!-- Node14&#45;&gt;Node6 -->
<g id="edge20" class="edge">
<title>Node14&#45;&gt;Node6</title>
<path fill="none" stroke="midnightblue" d="M138.63,-159.13C134.28,-160.9 130,-162.86 126,-165 98.26,-179.86 70.42,-204.51 56.03,-218.16"/>
<polygon fill="midnightblue" stroke="midnightblue" points="140.08,-162.33 148.22,-155.54 137.62,-155.77 140.08,-162.33"/>
</g>
<!-- Node15&#45;&gt;Node12 -->
<g id="edge22" class="edge">
<title>Node15&#45;&gt;Node12</title>
<path fill="none" stroke="midnightblue" d="M404.47,-162C392.11,-162 379.69,-162 368.59,-162"/>
<polygon fill="midnightblue" stroke="midnightblue" points="404.8,-165.5 414.8,-162 404.8,-158.5 404.8,-165.5"/>
</g>
<!-- Node16&#45;&gt;Node12 -->
<g id="edge24" class="edge">
<title>Node16&#45;&gt;Node12</title>
<path fill="none" stroke="midnightblue" d="M429.49,-136.11C408.94,-141.4 385.2,-147.52 365.95,-152.48"/>
<polygon fill="midnightblue" stroke="midnightblue" points="430.47,-139.47 439.28,-133.59 428.72,-132.69 430.47,-139.47"/>
</g>
<!-- Node17&#45;&gt;Node12 -->
<g id="edge26" class="edge">
<title>Node17&#45;&gt;Node12</title>
<path fill="none" stroke="midnightblue" d="M427.37,-98.69C422.09,-100.58 416.88,-102.68 412,-105 384.38,-118.14 355.73,-139.95 340.37,-152.44"/>
<polygon fill="midnightblue" stroke="midnightblue" points="428.5,-102.01 436.88,-95.53 426.29,-95.36 428.5,-102.01"/>
</g>
<!-- Node19 -->
<g id="node19" class="node">
<title>Node19</title>
<g id="a_node19"><a xlink:href="namespacextb__propertyoutput.html#a74ca9110d4ecdd9fc1a790d9a2027a02" target="_top" xlink:title=" ">
<polygon fill="white" stroke="black" points="280,-14 280,-44 376,-44 376,-14 280,-14"/>
<text text-anchor="start" x="288" y="-32" font-family="Helvetica,sans-Serif" font-size="10.00">xtb_propertyoutput</text>
<text text-anchor="middle" x="328" y="-21" font-family="Helvetica,sans-Serif" font-size="10.00">::main_property</text>
</a>
</g>
</g>
<!-- Node18&#45;&gt;Node19 -->
<g id="edge28" class="edge">
<title>Node18&#45;&gt;Node19</title>
<path fill="none" stroke="midnightblue" d="M419.57,-40.67C405.2,-38.82 389.95,-36.85 376.13,-35.07"/>
<polygon fill="midnightblue" stroke="midnightblue" points="419.46,-44.18 429.83,-41.99 420.36,-37.24 419.46,-44.18"/>
</g>
<!-- Node20 -->
<g id="node20" class="node">
<title>Node20</title>
<g id="a_node20"><a xlink:href="namespacextb__prog__main.html#a92b3b61ee04235e6343f652095682529" target="_top" xlink:title=" ">
<polygon fill="white" stroke="black" points="126,-19.5 126,-38.5 244,-38.5 244,-19.5 126,-19.5"/>
<text text-anchor="middle" x="185" y="-26.5" font-family="Helvetica,sans-Serif" font-size="10.00">xtb_prog_main::xtbmain</text>
</a>
</g>
</g>
<!-- Node19&#45;&gt;Node20 -->
<g id="edge29" class="edge">
<title>Node19&#45;&gt;Node20</title>
<path fill="none" stroke="midnightblue" d="M269.61,-29C261.25,-29 252.62,-29 244.24,-29"/>
<polygon fill="midnightblue" stroke="midnightblue" points="269.66,-32.5 279.66,-29 269.66,-25.5 269.66,-32.5"/>
</g>
<!-- Node21 -->
<g id="node21" class="node">
<title>Node21</title>
<g id="a_node21"><a xlink:href="primary_8f90.html#a2a67903cf5be605c5b6d3c362c6a3c5c" target="_top" xlink:title="The primary driver for the xtb program package.">
<polygon fill="white" stroke="black" points="0,-19.5 0,-38.5 90,-38.5 90,-19.5 0,-19.5"/>
<text text-anchor="middle" x="45" y="-26.5" font-family="Helvetica,sans-Serif" font-size="10.00">xtb_prog_primary</text>
</a>
</g>
</g>
<!-- Node20&#45;&gt;Node21 -->
<g id="edge30" class="edge">
<title>Node20&#45;&gt;Node21</title>
<path fill="none" stroke="midnightblue" d="M115.73,-29C107.06,-29 98.37,-29 90.22,-29"/>
<polygon fill="midnightblue" stroke="midnightblue" points="115.88,-32.5 125.88,-29 115.88,-25.5 115.88,-32.5"/>
</g>
<!-- Node22&#45;&gt;Node19 -->
<g id="edge32" class="edge">
<title>Node22&#45;&gt;Node19</title>
<path fill="none" stroke="midnightblue" d="M409.32,-18.65C398.18,-20.09 386.84,-21.55 376.32,-22.9"/>
<polygon fill="midnightblue" stroke="midnightblue" points="410,-22.09 419.47,-17.35 409.11,-15.15 410,-22.09"/>
</g>
</g>
</svg>
