<?xml version="1.0" encoding="UTF-8" standalone="no"?>
<!DOCTYPE svg PUBLIC "-//W3C//DTD SVG 1.1//EN"
 "http://www.w3.org/Graphics/SVG/1.1/DTD/svg11.dtd">
<!-- Generated by graphviz version 2.46.1 (20210215.1649)
 -->
<!-- Title: xtb_disp_ncoord::ncoord_d4 Pages: 1 -->
<svg width="720pt" height="249pt"
 viewBox="0.00 0.00 720.00 248.50" xmlns="http://www.w3.org/2000/svg" xmlns:xlink="http://www.w3.org/1999/xlink">
<g id="graph0" class="graph" transform="scale(1 1) rotate(0) translate(4 244.5)">
<title>xtb_disp_ncoord::ncoord_d4</title>
<polygon fill="white" stroke="transparent" points="-4,4 -4,-244.5 716,-244.5 716,4 -4,4"/>
<!-- Node1 -->
<g id="node1" class="node">
<title>Node1</title>
<g id="a_node1"><a xlink:title=" ">
<polygon fill="#bfbfbf" stroke="black" points="575,-141.5 575,-160.5 712,-160.5 712,-141.5 575,-141.5"/>
<text text-anchor="middle" x="643.5" y="-148.5" font-family="Helvetica,sans-Serif" font-size="10.00">xtb_disp_ncoord::ncoord_d4</text>
</a>
</g>
</g>
<!-- Node2 -->
<g id="node2" class="node">
<title>Node2</title>
<g id="a_node2"><a xlink:href="interfacextb__xtb__dispersion_1_1init.html#a42d6b33ba5506f8c39893d07e35433e1" target="_top" xlink:title=" ">
<polygon fill="white" stroke="black" points="427,-210 427,-240 524,-240 524,-210 427,-210"/>
<text text-anchor="start" x="435" y="-228" font-family="Helvetica,sans-Serif" font-size="10.00">xtb_xtb_dispersion</text>
<text text-anchor="middle" x="475.5" y="-217" font-family="Helvetica,sans-Serif" font-size="10.00">::init::initdispersion</text>
</a>
</g>
</g>
<!-- Node1&#45;&gt;Node2 -->
<g id="edge1" class="edge">
<title>Node1&#45;&gt;Node2</title>
<path fill="none" stroke="midnightblue" d="M614.87,-165.12C594.19,-175.51 565.09,-189.71 539,-201 531.96,-204.05 524.39,-207.12 517.04,-210"/>
<polygon fill="midnightblue" stroke="midnightblue" points="616.67,-168.14 624.02,-160.51 613.51,-161.89 616.67,-168.14"/>
</g>
<!-- Node3 -->
<g id="node3" class="node">
<title>Node3</title>
<g id="a_node3"><a xlink:href="interfacextb__disp__ncoord_1_1get__d4__cn.html#ab36e5343245690a4758393122500c4cb" target="_top" xlink:title=" ">
<polygon fill="white" stroke="black" points="412,-161 412,-191 539,-191 539,-161 412,-161"/>
<text text-anchor="start" x="420" y="-179" font-family="Helvetica,sans-Serif" font-size="10.00">xtb_disp_ncoord::get</text>
<text text-anchor="middle" x="475.5" y="-168" font-family="Helvetica,sans-Serif" font-size="10.00">_d4_cn::ncoord_d4_driver</text>
</a>
</g>
</g>
<!-- Node1&#45;&gt;Node3 -->
<g id="edge2" class="edge">
<title>Node1&#45;&gt;Node3</title>
<path fill="none" stroke="midnightblue" d="M569.26,-162.03C559.17,-163.55 548.88,-165.1 539.01,-166.59"/>
<polygon fill="midnightblue" stroke="midnightblue" points="569.9,-165.47 579.27,-160.52 568.86,-158.55 569.9,-165.47"/>
</g>
<!-- Node4 -->
<g id="node4" class="node">
<title>Node4</title>
<g id="a_node4"><a xlink:href="namespacextb__propertyoutput.html#ad1135c95ba993c1a3d5df67e849e8834" target="_top" xlink:title=" ">
<polygon fill="white" stroke="black" points="427.5,-112 427.5,-142 523.5,-142 523.5,-112 427.5,-112"/>
<text text-anchor="start" x="435.5" y="-130" font-family="Helvetica,sans-Serif" font-size="10.00">xtb_propertyoutput</text>
<text text-anchor="middle" x="475.5" y="-119" font-family="Helvetica,sans-Serif" font-size="10.00">::print_molpol</text>
</a>
</g>
</g>
<!-- Node1&#45;&gt;Node4 -->
<g id="edge3" class="edge">
<title>Node1&#45;&gt;Node4</title>
<path fill="none" stroke="midnightblue" d="M566.41,-140C551.86,-137.89 537.02,-135.75 523.7,-133.82"/>
<polygon fill="midnightblue" stroke="midnightblue" points="566.02,-143.48 576.42,-141.45 567.02,-136.55 566.02,-143.48"/>
</g>
<!-- Node8 -->
<g id="node8" class="node">
<title>Node8</title>
<g id="a_node8"><a xlink:href="namespacextb__scf.html#a7390c40a38032c3d210c39edecfa49ed" target="_top" xlink:title=" ">
<polygon fill="white" stroke="black" points="442.5,-60.5 442.5,-79.5 508.5,-79.5 508.5,-60.5 442.5,-60.5"/>
<text text-anchor="middle" x="475.5" y="-67.5" font-family="Helvetica,sans-Serif" font-size="10.00">xtb_scf::scf</text>
</a>
</g>
</g>
<!-- Node1&#45;&gt;Node8 -->
<g id="edge7" class="edge">
<title>Node1&#45;&gt;Node8</title>
<path fill="none" stroke="midnightblue" d="M613.49,-136.85C579.83,-120.42 525.23,-93.78 496.17,-79.6"/>
<polygon fill="midnightblue" stroke="midnightblue" points="612.28,-140.15 622.81,-141.39 615.35,-133.86 612.28,-140.15"/>
</g>
<!-- Node5 -->
<g id="node5" class="node">
<title>Node5</title>
<g id="a_node5"><a xlink:href="namespacextb__propertyoutput.html#a74ca9110d4ecdd9fc1a790d9a2027a02" target="_top" xlink:title=" ">
<polygon fill="white" stroke="black" points="280,-126 280,-156 376,-156 376,-126 280,-126"/>
<text text-anchor="start" x="288" y="-144" font-family="Helvetica,sans-Serif" font-size="10.00">xtb_propertyoutput</text>
<text text-anchor="middle" x="328" y="-133" font-family="Helvetica,sans-Serif" font-size="10.00">::main_property</text>
</a>
</g>
</g>
<!-- Node4&#45;&gt;Node5 -->
<g id="edge4" class="edge">
<title>Node4&#45;&gt;Node5</title>
<path fill="none" stroke="midnightblue" d="M417.04,-132.53C403.43,-133.84 389.08,-135.22 376,-136.48"/>
<polygon fill="midnightblue" stroke="midnightblue" points="417.64,-135.99 427.26,-131.55 416.97,-129.02 417.64,-135.99"/>
</g>
<!-- Node6 -->
<g id="node6" class="node">
<title>Node6</title>
<g id="a_node6"><a xlink:href="namespacextb__prog__main.html#a92b3b61ee04235e6343f652095682529" target="_top" xlink:title=" ">
<polygon fill="white" stroke="black" points="126,-131.5 126,-150.5 244,-150.5 244,-131.5 126,-131.5"/>
<text text-anchor="middle" x="185" y="-138.5" font-family="Helvetica,sans-Serif" font-size="10.00">xtb_prog_main::xtbmain</text>
</a>
</g>
</g>
<!-- Node5&#45;&gt;Node6 -->
<g id="edge5" class="edge">
<title>Node5&#45;&gt;Node6</title>
<path fill="none" stroke="midnightblue" d="M269.61,-141C261.25,-141 252.62,-141 244.24,-141"/>
<polygon fill="midnightblue" stroke="midnightblue" points="269.66,-144.5 279.66,-141 269.66,-137.5 269.66,-144.5"/>
</g>
<!-- Node7 -->
<g id="node7" class="node">
<title>Node7</title>
<g id="a_node7"><a xlink:href="primary_8f90.html#a2a67903cf5be605c5b6d3c362c6a3c5c" target="_top" xlink:title="The primary driver for the xtb program package.">
<polygon fill="white" stroke="black" points="0,-131.5 0,-150.5 90,-150.5 90,-131.5 0,-131.5"/>
<text text-anchor="middle" x="45" y="-138.5" font-family="Helvetica,sans-Serif" font-size="10.00">xtb_prog_primary</text>
</a>
</g>
</g>
<!-- Node6&#45;&gt;Node7 -->
<g id="edge6" class="edge">
<title>Node6&#45;&gt;Node7</title>
<path fill="none" stroke="midnightblue" d="M115.73,-141C107.06,-141 98.37,-141 90.22,-141"/>
<polygon fill="midnightblue" stroke="midnightblue" points="115.88,-144.5 125.88,-141 115.88,-137.5 115.88,-144.5"/>
</g>
<!-- Node9 -->
<g id="node9" class="node">
<title>Node9</title>
<g id="a_node9"><a xlink:href="namespacextb__xtb__calculator.html#a75c96263c235c99dfeeda3e865f9898c" target="_top" xlink:title=" ">
<polygon fill="white" stroke="black" points="280.5,-77 280.5,-107 375.5,-107 375.5,-77 280.5,-77"/>
<text text-anchor="start" x="288.5" y="-95" font-family="Helvetica,sans-Serif" font-size="10.00">xtb_xtb_calculator</text>
<text text-anchor="middle" x="328" y="-84" font-family="Helvetica,sans-Serif" font-size="10.00">::singlepoint</text>
</a>
</g>
</g>
<!-- Node8&#45;&gt;Node9 -->
<g id="edge8" class="edge">
<title>Node8&#45;&gt;Node9</title>
<path fill="none" stroke="midnightblue" d="M432.14,-76.4C414.4,-79.09 393.72,-82.21 375.56,-84.96"/>
<polygon fill="midnightblue" stroke="midnightblue" points="432.84,-79.84 442.21,-74.88 431.8,-72.92 432.84,-79.84"/>
</g>
<!-- Node10 -->
<g id="node10" class="node">
<title>Node10</title>
<g id="a_node10"><a xlink:href="TESTSUITE_2gfn1_8f90.html#ab5cc37cef2d483d9d9cde17aa03c55a8" target="_top" xlink:title=" ">
<polygon fill="white" stroke="black" points="289,-38.5 289,-57.5 367,-57.5 367,-38.5 289,-38.5"/>
<text text-anchor="middle" x="328" y="-45.5" font-family="Helvetica,sans-Serif" font-size="10.00">test_gfn1_scc</text>
</a>
</g>
</g>
<!-- Node8&#45;&gt;Node10 -->
<g id="edge9" class="edge">
<title>Node8&#45;&gt;Node10</title>
<path fill="none" stroke="midnightblue" d="M432.17,-63.6C411.61,-60.49 387.1,-56.79 367.13,-53.77"/>
<polygon fill="midnightblue" stroke="midnightblue" points="431.8,-67.08 442.21,-65.12 432.84,-60.16 431.8,-67.08"/>
</g>
<!-- Node12 -->
<g id="node12" class="node">
<title>Node12</title>
<g id="a_node12"><a xlink:href="TESTSUITE_2gfn2_8f90.html#af47afba0207cbca2dc950fb5e339ce03" target="_top" xlink:title=" ">
<polygon fill="white" stroke="black" points="289,-0.5 289,-19.5 367,-19.5 367,-0.5 289,-0.5"/>
<text text-anchor="middle" x="328" y="-7.5" font-family="Helvetica,sans-Serif" font-size="10.00">test_gfn2_scc</text>
</a>
</g>
</g>
<!-- Node8&#45;&gt;Node12 -->
<g id="edge11" class="edge">
<title>Node8&#45;&gt;Node12</title>
<path fill="none" stroke="midnightblue" d="M442.61,-56.63C423.34,-48.57 398.28,-38.14 376,-29 368.51,-25.93 360.33,-22.61 352.93,-19.62"/>
<polygon fill="midnightblue" stroke="midnightblue" points="441.26,-59.86 451.84,-60.49 443.96,-53.4 441.26,-59.86"/>
</g>
<!-- Node11 -->
<g id="node11" class="node">
<title>Node11</title>
<g id="a_node11"><a xlink:href="tests__peeq_8f90.html#a87ff5319e0d2e627a4f71d7df0d14891" target="_top" xlink:title=" ">
<polygon fill="white" stroke="black" points="151,-19.5 151,-38.5 219,-38.5 219,-19.5 151,-19.5"/>
<text text-anchor="middle" x="185" y="-26.5" font-family="Helvetica,sans-Serif" font-size="10.00">peeq_tester</text>
</a>
</g>
</g>
<!-- Node10&#45;&gt;Node11 -->
<g id="edge10" class="edge">
<title>Node10&#45;&gt;Node11</title>
<path fill="none" stroke="midnightblue" d="M278.87,-41.52C259.29,-38.88 237.14,-35.89 219.39,-33.5"/>
<polygon fill="midnightblue" stroke="midnightblue" points="278.47,-44.99 288.84,-42.86 279.4,-38.05 278.47,-44.99"/>
</g>
<!-- Node12&#45;&gt;Node11 -->
<g id="edge12" class="edge">
<title>Node12&#45;&gt;Node11</title>
<path fill="none" stroke="midnightblue" d="M278.87,-16.48C259.29,-19.12 237.14,-22.11 219.39,-24.5"/>
<polygon fill="midnightblue" stroke="midnightblue" points="279.4,-19.95 288.84,-15.14 278.47,-13.01 279.4,-19.95"/>
</g>
</g>
</svg>
