<?xml version="1.0" encoding="UTF-8" standalone="no"?>
<!DOCTYPE svg PUBLIC "-//W3C//DTD SVG 1.1//EN"
 "http://www.w3.org/Graphics/SVG/1.1/DTD/svg11.dtd">
<!-- Generated by graphviz version 2.43.0 (0)
 -->
<!-- Title: xtb_mctc_chartools::tolowercase Pages: 1 -->
<svg width="357pt" height="88pt"
 viewBox="0.00 0.00 357.00 88.00" xmlns="http://www.w3.org/2000/svg" xmlns:xlink="http://www.w3.org/1999/xlink">
<g id="graph0" class="graph" transform="scale(1 1) rotate(0) translate(4 84)">
<title>xtb_mctc_chartools::tolowercase</title>
<polygon fill="white" stroke="transparent" points="-4,4 -4,-84 353,-84 353,4 -4,4"/>
<!-- Node1 -->
<g id="node1" class="node">
<title>Node1</title>
<g id="a_node1"><a xlink:title="Convert input string to lowercase.">
<polygon fill="#bfbfbf" stroke="black" points="237,-24.5 237,-54.5 349,-54.5 349,-24.5 237,-24.5"/>
<text text-anchor="start" x="245" y="-42.5" font-family="Helvetica,sans-Serif" font-size="10.00">xtb_mctc_chartools</text>
<text text-anchor="middle" x="293" y="-31.5" font-family="Helvetica,sans-Serif" font-size="10.00">::tolowercase</text>
</a>
</g>
</g>
<!-- Node2 -->
<g id="node2" class="node">
<title>Node2</title>
<g id="a_node2"><a xlink:href="namespacextb__prog__argparser.html#af14dd366b287eae31ce9cac69f86e6e0" target="_top" xlink:title="Basic search of argument list.">
<polygon fill="white" stroke="black" points="45,-49.5 45,-79.5 156,-79.5 156,-49.5 45,-49.5"/>
<text text-anchor="start" x="53" y="-67.5" font-family="Helvetica,sans-Serif" font-size="10.00">xtb_prog_argparser</text>
<text text-anchor="middle" x="100.5" y="-56.5" font-family="Helvetica,sans-Serif" font-size="10.00">::findarg</text>
</a>
</g>
</g>
<!-- Node1&#45;&gt;Node2 -->
<g id="edge1" class="edge">
<title>Node1&#45;&gt;Node2</title>
<path fill="none" stroke="midnightblue" d="M226.87,-48.05C203.85,-51.07 178.21,-54.43 156.15,-57.33"/>
<polygon fill="midnightblue" stroke="midnightblue" points="227.44,-51.5 236.9,-46.73 226.53,-44.56 227.44,-51.5"/>
</g>
<!-- Node3 -->
<g id="node3" class="node">
<title>Node3</title>
<g id="a_node3"><a xlink:href="interfacextb__mctc__filetypes_1_1getfiletype.html#a0e3fcb9f5b691264c9ddc3a25853d3dd" target="_top" xlink:title="Generate file type from file name.">
<polygon fill="white" stroke="black" points="0,-0.5 0,-30.5 201,-30.5 201,-0.5 0,-0.5"/>
<text text-anchor="start" x="8" y="-18.5" font-family="Helvetica,sans-Serif" font-size="10.00">xtb_mctc_filetypes</text>
<text text-anchor="middle" x="100.5" y="-7.5" font-family="Helvetica,sans-Serif" font-size="10.00">::getfiletype::getfiletypefrommetainfo</text>
</a>
</g>
</g>
<!-- Node1&#45;&gt;Node3 -->
<g id="edge2" class="edge">
<title>Node1&#45;&gt;Node3</title>
<path fill="none" stroke="midnightblue" d="M226.97,-31.31C218.68,-30.26 210.04,-29.17 201.36,-28.08"/>
<polygon fill="midnightblue" stroke="midnightblue" points="226.54,-34.78 236.9,-32.56 227.42,-27.84 226.54,-34.78"/>
</g>
</g>
</svg>
