<?xml version="1.0" encoding="UTF-8" standalone="no"?>
<!DOCTYPE svg PUBLIC "-//W3C//DTD SVG 1.1//EN"
 "http://www.w3.org/Graphics/SVG/1.1/DTD/svg11.dtd">
<!-- Generated by graphviz version 2.46.1 (20210215.1649)
 -->
<!-- Title: xtb_propertyoutput::print_mulliken Pages: 1 -->
<svg width="263pt" height="66pt"
 viewBox="0.00 0.00 263.00 66.00" xmlns="http://www.w3.org/2000/svg" xmlns:xlink="http://www.w3.org/1999/xlink">
<g id="graph0" class="graph" transform="scale(1 1) rotate(0) translate(4 62)">
<title>xtb_propertyoutput::print_mulliken</title>
<polygon fill="white" stroke="transparent" points="-4,4 -4,-62 259,-62 259,4 -4,4"/>
<!-- Node1 -->
<g id="node1" class="node">
<title>Node1</title>
<g id="a_node1"><a xlink:title=" ">
<polygon fill="#bfbfbf" stroke="black" points="0,-14 0,-44 96,-44 96,-14 0,-14"/>
<text text-anchor="start" x="8" y="-32" font-family="Helvetica,sans-Serif" font-size="10.00">xtb_propertyoutput</text>
<text text-anchor="middle" x="48" y="-21" font-family="Helvetica,sans-Serif" font-size="10.00">::print_mulliken</text>
</a>
</g>
</g>
<!-- Node2 -->
<g id="node2" class="node">
<title>Node2</title>
<g id="a_node2"><a xlink:href="namespacextb__solv__cm5.html#a248c448671b487e7115213f001579585" target="_top" xlink:title=" ">
<polygon fill="white" stroke="black" points="132,-38.5 132,-57.5 255,-57.5 255,-38.5 132,-38.5"/>
<text text-anchor="middle" x="193.5" y="-45.5" font-family="Helvetica,sans-Serif" font-size="10.00">xtb_solv_cm5::calc_cm5</text>
</a>
</g>
</g>
<!-- Node1&#45;&gt;Node2 -->
<g id="edge1" class="edge">
<title>Node1&#45;&gt;Node2</title>
<path fill="none" stroke="midnightblue" d="M96.38,-35.27C104.54,-36.35 113.17,-37.5 121.79,-38.64"/>
<polygon fill="midnightblue" stroke="midnightblue" points="121.49,-42.13 131.86,-39.97 122.4,-35.19 121.49,-42.13"/>
</g>
<!-- Node3 -->
<g id="node3" class="node">
<title>Node3</title>
<g id="a_node3"><a xlink:href="namespacextb__scc__core.html#a7b41a4ff7431082309e438ba754461f3" target="_top" xlink:title="Mulliken pop.">
<polygon fill="white" stroke="black" points="142,-0.5 142,-19.5 245,-19.5 245,-0.5 142,-0.5"/>
<text text-anchor="middle" x="193.5" y="-7.5" font-family="Helvetica,sans-Serif" font-size="10.00">xtb_scc_core::mpop</text>
</a>
</g>
</g>
<!-- Node1&#45;&gt;Node3 -->
<g id="edge2" class="edge">
<title>Node1&#45;&gt;Node3</title>
<path fill="none" stroke="midnightblue" d="M96.38,-22.73C107.62,-21.24 119.77,-19.63 131.52,-18.07"/>
<polygon fill="midnightblue" stroke="midnightblue" points="132.26,-21.51 141.71,-16.72 131.34,-14.57 132.26,-21.51"/>
</g>
</g>
</svg>
