<?xml version="1.0" encoding="UTF-8" standalone="no"?>
<!DOCTYPE svg PUBLIC "-//W3C//DTD SVG 1.1//EN"
 "http://www.w3.org/Graphics/SVG/1.1/DTD/svg11.dtd">
<!-- Generated by graphviz version 2.46.0 (20210122.1329)
 -->
<!-- Title: xtb_local::local Pages: 1 -->
<!--zoomable 826 -->
<svg id="main" version="1.1" xmlns="http://www.w3.org/2000/svg" xmlns:xlink="http://www.w3.org/1999/xlink" xml:space="preserve" onload="init(evt)">
<style type="text/css"><![CDATA[
.edge:hover path { stroke: red; }
.edge:hover polygon { stroke: red; fill: red; }
]]></style>
<script type="text/javascript"><![CDATA[
var edges = document.getElementsByTagName('g');
if (edges && edges.length) {
  for (var i=0;i<edges.length;i++) {
    if (edges[i].id.substr(0,4)=='edge') {
      edges[i].setAttribute('class','edge');
    }
  }
}
]]></script>
        <defs>
                <circle id="rim" cx="0" cy="0" r="7"/>
                <circle id="rim2" cx="0" cy="0" r="3.5"/>
                <g id="zoomPlus">
                        <use xlink:href="#rim" fill="#404040">
                                <set attributeName="fill" to="#808080" begin="zoomplus.mouseover" end="zoomplus.mouseout"/>
                        </use>
                        <path d="M-4,0h8M0,-4v8" fill="none" stroke="white" stroke-width="1.5" pointer-events="none"/>
                </g>
                <g id="zoomMin">
                        <use xlink:href="#rim" fill="#404040">
                                <set attributeName="fill" to="#808080" begin="zoomminus.mouseover" end="zoomminus.mouseout"/>
                        </use>
                        <path d="M-4,0h8" fill="none" stroke="white" stroke-width="1.5" pointer-events="none"/>
                </g>
                <g id="dirArrow">
                        <path fill="none" stroke="white" stroke-width="1.5" d="M0,-3.0v7 M-2.5,-0.5L0,-3.0L2.5,-0.5"/>
                </g>
               <g id="resetDef">
                       <use xlink:href="#rim2" fill="#404040">
                               <set attributeName="fill" to="#808080" begin="reset.mouseover" end="reset.mouseout"/>
                       </use>
               </g>
        </defs>

<script type="text/javascript">
var viewWidth = 605;
var viewHeight = 826;
var sectionId = 'dynsection-12';
</script>
<script xlink:href="svgpan.js"/>
<svg id="graph" class="graph">
<g id="viewport">
<title>xtb_local::local</title>
<polygon fill="white" stroke="transparent" points="-4,4 -4,-822 601,-822 601,4 -4,4"/>
<!-- Node1 -->
<g id="node1" class="node">
<title>Node1</title>
<g id="a_node1"><a xlink:title=" ">
<polygon fill="#bfbfbf" stroke="black" points="0,-399.5 0,-418.5 80,-418.5 80,-399.5 0,-399.5"/>
<text text-anchor="middle" x="40" y="-406.5" font-family="Helvetica,sans-Serif" font-size="10.00">xtb_local::local</text>
</a>
</g>
</g>
<!-- Node2 -->
<g id="node2" class="node">
<title>Node2</title>
<g id="a_node2"><a xlink:href="namespacextb__local.html#a2085cd0db16b29763950470bf24e1b3a" target="_top" xlink:title=" ">
<polygon fill="white" stroke="black" points="134.5,-570.5 134.5,-589.5 238.5,-589.5 238.5,-570.5 134.5,-570.5"/>
<text text-anchor="middle" x="186.5" y="-577.5" font-family="Helvetica,sans-Serif" font-size="10.00">xtb_local::atomneigh</text>
</a>
</g>
</g>
<!-- Node1&#45;&gt;Node2 -->
<g id="edge1" class="edge">
<title>Node1&#45;&gt;Node2</title>
<path fill="none" stroke="midnightblue" d="M42.86,-418.53C48.59,-445.32 68.55,-521.87 116,-561 118.87,-563.37 122.01,-565.44 125.32,-567.26"/>
<polygon fill="midnightblue" stroke="midnightblue" points="123.87,-570.44 134.42,-571.49 126.83,-564.1 123.87,-570.44"/>
</g>
<!-- Node4 -->
<g id="node4" class="node">
<title>Node4</title>
<g id="a_node4"><a xlink:href="namespacextb__local.html#a5f5f8c3c3c3b8504bfac6a3385a3455e" target="_top" xlink:title=" ">
<polygon fill="white" stroke="black" points="136,-798.5 136,-817.5 237,-817.5 237,-798.5 136,-798.5"/>
<text text-anchor="middle" x="186.5" y="-805.5" font-family="Helvetica,sans-Serif" font-size="10.00">xtb_local::bndcheck</text>
</a>
</g>
</g>
<!-- Node1&#45;&gt;Node4 -->
<g id="edge3" class="edge">
<title>Node1&#45;&gt;Node4</title>
<path fill="none" stroke="midnightblue" d="M41.66,-418.72C45.44,-471.85 66,-726.74 116,-784 119.29,-787.77 123.2,-790.94 127.47,-793.62"/>
<polygon fill="midnightblue" stroke="midnightblue" points="126.16,-796.89 136.63,-798.45 129.42,-790.69 126.16,-796.89"/>
</g>
<!-- Node6 -->
<g id="node6" class="node">
<title>Node6</title>
<g id="a_node6"><a xlink:href="symmetry__i_8c.html#aa77c823a9fc018ae1d437369708d8727" target="_top" xlink:title=" ">
<polygon fill="white" stroke="black" points="363,-760.5 363,-779.5 396,-779.5 396,-760.5 363,-760.5"/>
<text text-anchor="middle" x="379.5" y="-767.5" font-family="Helvetica,sans-Serif" font-size="10.00">true</text>
</a>
</g>
</g>
<!-- Node1&#45;&gt;Node6 -->
<g id="edge37" class="edge">
<title>Node1&#45;&gt;Node6</title>
<path fill="none" stroke="midnightblue" d="M41.62,-418.75C45.05,-469.8 63.61,-705.64 116,-751 150.81,-781.13 293.47,-775.6 352.62,-771.88"/>
<polygon fill="midnightblue" stroke="midnightblue" points="353.22,-775.35 362.96,-771.19 352.75,-768.36 353.22,-775.35"/>
</g>
<!-- Node7 -->
<g id="node7" class="node">
<title>Node7</title>
<g id="a_node7"><a xlink:href="namespacextb__local.html#aafe8ac8cb79165bab68459af6e27b78e" target="_top" xlink:title=" ">
<polygon fill="white" stroke="black" points="131.5,-684.5 131.5,-703.5 241.5,-703.5 241.5,-684.5 131.5,-684.5"/>
<text text-anchor="middle" x="186.5" y="-691.5" font-family="Helvetica,sans-Serif" font-size="10.00">xtb_local::calcrotation</text>
</a>
</g>
</g>
<!-- Node1&#45;&gt;Node7 -->
<g id="edge6" class="edge">
<title>Node1&#45;&gt;Node7</title>
<path fill="none" stroke="midnightblue" d="M40.59,-418.63C39.53,-456.99 40.89,-600.49 116,-675 117.9,-676.89 119.98,-678.59 122.18,-680.13"/>
<polygon fill="midnightblue" stroke="midnightblue" points="120.78,-683.37 131.2,-685.29 124.25,-677.29 120.78,-683.37"/>
</g>
<!-- Node8 -->
<g id="node8" class="node">
<title>Node8</title>
<g id="a_node8"><a xlink:href="namespacextb__dtrafo.html#ad3d74576b214120a6877138c0dcb681a" target="_top" xlink:title=" ">
<polygon fill="white" stroke="black" points="133.5,-646.5 133.5,-665.5 239.5,-665.5 239.5,-646.5 133.5,-646.5"/>
<text text-anchor="middle" x="186.5" y="-653.5" font-family="Helvetica,sans-Serif" font-size="10.00">xtb_dtrafo::cao2saop</text>
</a>
</g>
</g>
<!-- Node1&#45;&gt;Node8 -->
<g id="edge7" class="edge">
<title>Node1&#45;&gt;Node8</title>
<path fill="none" stroke="midnightblue" d="M41.13,-418.93C42.14,-454.2 50.45,-574.71 116,-637 118.57,-639.44 121.43,-641.58 124.47,-643.44"/>
<polygon fill="midnightblue" stroke="midnightblue" points="122.97,-646.61 133.47,-648.02 126.14,-640.37 122.97,-646.61"/>
</g>
<!-- Node10 -->
<g id="node10" class="node">
<title>Node10</title>
<g id="a_node10"><a xlink:href="filetools_8F90.html#abe40c19bea97456da4d616af69059aeb" target="_top" xlink:title=" ">
<polygon fill="white" stroke="black" points="158,-608.5 158,-627.5 215,-627.5 215,-608.5 158,-608.5"/>
<text text-anchor="middle" x="186.5" y="-615.5" font-family="Helvetica,sans-Serif" font-size="10.00">close_file</text>
</a>
</g>
</g>
<!-- Node1&#45;&gt;Node10 -->
<g id="edge9" class="edge">
<title>Node1&#45;&gt;Node10</title>
<path fill="none" stroke="midnightblue" d="M41.83,-418.57C45.05,-449.61 59.49,-548.34 116,-599 124.86,-606.94 136.73,-611.61 148.16,-614.33"/>
<polygon fill="midnightblue" stroke="midnightblue" points="147.5,-617.77 157.99,-616.26 148.85,-610.9 147.5,-617.77"/>
</g>
<!-- Node11 -->
<g id="node11" class="node">
<title>Node11</title>
<g id="a_node11"><a xlink:href="namespacextb__dipole.html#aab0b85d5f1bccf51f2906833306ff640" target="_top" xlink:title=" ">
<polygon fill="white" stroke="black" points="143.5,-342.5 143.5,-361.5 229.5,-361.5 229.5,-342.5 143.5,-342.5"/>
<text text-anchor="middle" x="186.5" y="-349.5" font-family="Helvetica,sans-Serif" font-size="10.00">xtb_dipole::dints</text>
</a>
</g>
</g>
<!-- Node1&#45;&gt;Node11 -->
<g id="edge10" class="edge">
<title>Node1&#45;&gt;Node11</title>
<path fill="none" stroke="midnightblue" d="M57.53,-399.4C72.44,-391.04 95.16,-379.03 116,-371 122.05,-368.67 128.5,-366.5 134.94,-364.53"/>
<polygon fill="midnightblue" stroke="midnightblue" points="136.38,-367.75 144.99,-361.59 134.41,-361.04 136.38,-367.75"/>
</g>
<!-- Node18 -->
<g id="node18" class="node">
<title>Node18</title>
<g id="a_node18"><a xlink:href="namespacextb__scc__core.html#a2cc45bad34d8ad8fc414f3a2929c4d54" target="_top" xlink:title=" ">
<polygon fill="white" stroke="black" points="123.5,-532.5 123.5,-551.5 249.5,-551.5 249.5,-532.5 123.5,-532.5"/>
<text text-anchor="middle" x="186.5" y="-539.5" font-family="Helvetica,sans-Serif" font-size="10.00">xtb_scc_core::get_wiberg</text>
</a>
</g>
</g>
<!-- Node1&#45;&gt;Node18 -->
<g id="edge17" class="edge">
<title>Node1&#45;&gt;Node18</title>
<path fill="none" stroke="midnightblue" d="M44.56,-418.65C53.21,-440.7 77.46,-495.03 116,-523 118.68,-524.95 121.55,-526.69 124.55,-528.26"/>
<polygon fill="midnightblue" stroke="midnightblue" points="123.27,-531.53 133.82,-532.45 126.15,-525.15 123.27,-531.53"/>
</g>
<!-- Node19 -->
<g id="node19" class="node">
<title>Node19</title>
<g id="a_node19"><a xlink:href="namespacextb__local.html#aef42c6ae2bf2b4b4d264d8106cf301af" target="_top" xlink:title=" ">
<polygon fill="white" stroke="black" points="143.5,-494.5 143.5,-513.5 229.5,-513.5 229.5,-494.5 143.5,-494.5"/>
<text text-anchor="middle" x="186.5" y="-501.5" font-family="Helvetica,sans-Serif" font-size="10.00">xtb_local::irand3</text>
</a>
</g>
</g>
<!-- Node1&#45;&gt;Node19 -->
<g id="edge18" class="edge">
<title>Node1&#45;&gt;Node19</title>
<path fill="none" stroke="midnightblue" d="M47.7,-418.51C59.57,-434.66 85.92,-467.4 116,-485 121.46,-488.19 127.47,-490.86 133.6,-493.1"/>
<polygon fill="midnightblue" stroke="midnightblue" points="132.68,-496.48 143.27,-496.26 134.85,-489.83 132.68,-496.48"/>
</g>
<!-- Node20 -->
<g id="node20" class="node">
<title>Node20</title>
<g id="a_node20"><a xlink:href="namespacextb__local.html#a1e99ceb1332ec5b107af84c58271402b" target="_top" xlink:title=" ">
<polygon fill="white" stroke="black" points="137.5,-456.5 137.5,-475.5 235.5,-475.5 235.5,-456.5 137.5,-456.5"/>
<text text-anchor="middle" x="186.5" y="-463.5" font-family="Helvetica,sans-Serif" font-size="10.00">xtb_local::lmoneigh</text>
</a>
</g>
</g>
<!-- Node1&#45;&gt;Node20 -->
<g id="edge19" class="edge">
<title>Node1&#45;&gt;Node20</title>
<path fill="none" stroke="midnightblue" d="M57.53,-418.6C72.44,-426.96 95.16,-438.97 116,-447 122.05,-449.33 128.5,-451.5 134.94,-453.47"/>
<polygon fill="midnightblue" stroke="midnightblue" points="134.41,-456.96 144.99,-456.41 136.38,-450.25 134.41,-456.96"/>
</g>
<!-- Node21 -->
<g id="node21" class="node">
<title>Node21</title>
<g id="a_node21"><a xlink:href="namespacextb__local.html#a62af6b81a03c59a1b799ac0e59d81110" target="_top" xlink:title=" ">
<polygon fill="white" stroke="black" points="140.5,-418.5 140.5,-437.5 232.5,-437.5 232.5,-418.5 140.5,-418.5"/>
<text text-anchor="middle" x="186.5" y="-425.5" font-family="Helvetica,sans-Serif" font-size="10.00">xtb_local::lmosort</text>
</a>
</g>
</g>
<!-- Node1&#45;&gt;Node21 -->
<g id="edge21" class="edge">
<title>Node1&#45;&gt;Node21</title>
<path fill="none" stroke="midnightblue" d="M80.1,-414.14C95.54,-416.17 113.55,-418.54 130.27,-420.74"/>
<polygon fill="midnightblue" stroke="midnightblue" points="130.11,-424.25 140.48,-422.08 131.03,-417.31 130.11,-424.25"/>
</g>
<!-- Node22 -->
<g id="node22" class="node">
<title>Node22</title>
<g id="a_node22"><a xlink:href="namespacextb__local.html#af504c487d922e0f6908ed680ffb478b8" target="_top" xlink:title=" ">
<polygon fill="white" stroke="black" points="138,-380.5 138,-399.5 235,-399.5 235,-380.5 138,-380.5"/>
<text text-anchor="middle" x="186.5" y="-387.5" font-family="Helvetica,sans-Serif" font-size="10.00">xtb_local::lmosort2</text>
</a>
</g>
</g>
<!-- Node1&#45;&gt;Node22 -->
<g id="edge22" class="edge">
<title>Node1&#45;&gt;Node22</title>
<path fill="none" stroke="midnightblue" d="M80.1,-403.86C94.71,-401.94 111.62,-399.71 127.56,-397.62"/>
<polygon fill="midnightblue" stroke="midnightblue" points="128.41,-401.04 137.86,-396.26 127.49,-394.1 128.41,-401.04"/>
</g>
<!-- Node23 -->
<g id="node23" class="node">
<title>Node23</title>
<g id="a_node23"><a xlink:href="namespacextb__local.html#aaf18383bbfabacb0b7691f0949c59a04" target="_top" xlink:title=" ">
<polygon fill="white" stroke="black" points="140,-228.5 140,-247.5 233,-247.5 233,-228.5 140,-228.5"/>
<text text-anchor="middle" x="186.5" y="-235.5" font-family="Helvetica,sans-Serif" font-size="10.00">xtb_local::lmotype</text>
</a>
</g>
</g>
<!-- Node1&#45;&gt;Node23 -->
<g id="edge23" class="edge">
<title>Node1&#45;&gt;Node23</title>
<path fill="none" stroke="midnightblue" d="M42.86,-399.47C48.59,-372.68 68.55,-296.13 116,-257 120.28,-253.47 125.17,-250.59 130.32,-248.24"/>
<polygon fill="midnightblue" stroke="midnightblue" points="131.74,-251.45 139.81,-244.57 129.22,-244.92 131.74,-251.45"/>
</g>
<!-- Node25 -->
<g id="node25" class="node">
<title>Node25</title>
<g id="a_node25"><a xlink:href="lopt_8f90.html#afc070f903483014869bc375d0b808d3f" target="_top" xlink:title=" ">
<polygon fill="white" stroke="black" points="170.5,-304.5 170.5,-323.5 202.5,-323.5 202.5,-304.5 170.5,-304.5"/>
<text text-anchor="middle" x="186.5" y="-311.5" font-family="Helvetica,sans-Serif" font-size="10.00">lopt</text>
</a>
</g>
</g>
<!-- Node1&#45;&gt;Node25 -->
<g id="edge25" class="edge">
<title>Node1&#45;&gt;Node25</title>
<path fill="none" stroke="midnightblue" d="M47.7,-399.49C59.57,-383.34 85.92,-350.6 116,-333 129.46,-325.12 146.29,-320.41 160.02,-317.65"/>
<polygon fill="midnightblue" stroke="midnightblue" points="161.01,-321.03 170.24,-315.83 159.78,-314.14 161.01,-321.03"/>
</g>
<!-- Node26 -->
<g id="node26" class="node">
<title>Node26</title>
<g id="a_node26"><a xlink:href="namespacextb__local.html#a04655578f6adf1fae28526f3539d0bf9" target="_top" xlink:title=" ">
<polygon fill="white" stroke="black" points="140.5,-266.5 140.5,-285.5 232.5,-285.5 232.5,-266.5 140.5,-266.5"/>
<text text-anchor="middle" x="186.5" y="-273.5" font-family="Helvetica,sans-Serif" font-size="10.00">xtb_local::mocent</text>
</a>
</g>
</g>
<!-- Node1&#45;&gt;Node26 -->
<g id="edge26" class="edge">
<title>Node1&#45;&gt;Node26</title>
<path fill="none" stroke="midnightblue" d="M44.56,-399.35C53.21,-377.3 77.46,-322.97 116,-295 120.49,-291.74 125.52,-289.04 130.75,-286.8"/>
<polygon fill="midnightblue" stroke="midnightblue" points="132.17,-290.01 140.33,-283.25 129.74,-283.44 132.17,-290.01"/>
</g>
<!-- Node27 -->
<g id="node27" class="node">
<title>Node27</title>
<g id="a_node27"><a xlink:href="namespacextb__onetri.html#a4ce8be029d74ce6f577e953606794809" target="_top" xlink:title=" ">
<polygon fill="white" stroke="black" points="143,-152.5 143,-171.5 230,-171.5 230,-152.5 143,-152.5"/>
<text text-anchor="middle" x="186.5" y="-159.5" font-family="Helvetica,sans-Serif" font-size="10.00">xtb_onetri::onetri</text>
</a>
</g>
</g>
<!-- Node1&#45;&gt;Node27 -->
<g id="edge27" class="edge">
<title>Node1&#45;&gt;Node27</title>
<path fill="none" stroke="midnightblue" d="M41.13,-399.07C42.14,-363.8 50.45,-243.29 116,-181 120.93,-176.31 126.91,-172.76 133.27,-170.07"/>
<polygon fill="midnightblue" stroke="midnightblue" points="134.5,-173.34 142.77,-166.71 132.17,-166.74 134.5,-173.34"/>
</g>
<!-- Node29 -->
<g id="node29" class="node">
<title>Node29</title>
<g id="a_node29"><a xlink:href="filetools_8F90.html#a68160ec369d61855ea12b180c7ce8c21" target="_top" xlink:title=" ">
<polygon fill="white" stroke="black" points="159,-190.5 159,-209.5 214,-209.5 214,-190.5 159,-190.5"/>
<text text-anchor="middle" x="186.5" y="-197.5" font-family="Helvetica,sans-Serif" font-size="10.00">open_file</text>
</a>
</g>
</g>
<!-- Node1&#45;&gt;Node29 -->
<g id="edge29" class="edge">
<title>Node1&#45;&gt;Node29</title>
<path fill="none" stroke="midnightblue" d="M41.83,-399.43C45.05,-368.39 59.49,-269.66 116,-219 125,-210.93 137.12,-206.24 148.71,-203.54"/>
<polygon fill="midnightblue" stroke="midnightblue" points="149.51,-206.95 158.67,-201.63 148.2,-200.07 149.51,-206.95"/>
</g>
<!-- Node30 -->
<g id="node30" class="node">
<title>Node30</title>
<g id="a_node30"><a xlink:href="namespacextb__local.html#a833a3c7647a65a0d19a6e920d9dd111e" target="_top" xlink:title=" ">
<polygon fill="white" stroke="black" points="141,-722.5 141,-741.5 232,-741.5 232,-722.5 141,-722.5"/>
<text text-anchor="middle" x="186.5" y="-729.5" font-family="Helvetica,sans-Serif" font-size="10.00">xtb_local::piorient</text>
</a>
</g>
</g>
<!-- Node1&#45;&gt;Node30 -->
<g id="edge30" class="edge">
<title>Node1&#45;&gt;Node30</title>
<path fill="none" stroke="midnightblue" d="M42.08,-418.73C47.5,-465.77 73.11,-669.03 116,-713 120.41,-717.52 125.79,-721 131.58,-723.67"/>
<polygon fill="midnightblue" stroke="midnightblue" points="130.35,-726.95 140.94,-727.24 132.84,-720.41 130.35,-726.95"/>
</g>
<!-- Node31 -->
<g id="node31" class="node">
<title>Node31</title>
<g id="a_node31"><a xlink:href="timing_8f90.html#a35192cebf2b56f90aa4e0ee45121eb44" target="_top" xlink:title=" ">
<polygon fill="white" stroke="black" points="164.5,-114.5 164.5,-133.5 208.5,-133.5 208.5,-114.5 164.5,-114.5"/>
<text text-anchor="middle" x="186.5" y="-121.5" font-family="Helvetica,sans-Serif" font-size="10.00">prtime</text>
</a>
</g>
</g>
<!-- Node1&#45;&gt;Node31 -->
<g id="edge32" class="edge">
<title>Node1&#45;&gt;Node31</title>
<path fill="none" stroke="midnightblue" d="M40.59,-399.37C39.53,-361.01 40.89,-217.51 116,-143 126.02,-133.06 140.71,-128.19 154,-125.85"/>
<polygon fill="midnightblue" stroke="midnightblue" points="154.81,-129.28 164.25,-124.47 153.88,-122.34 154.81,-129.28"/>
</g>
<!-- Node32 -->
<g id="node32" class="node">
<title>Node32</title>
<g id="a_node32"><a xlink:href="namespacextb__local.html#a93a83793ec8869a1665a53901a9655b0" target="_top" xlink:title=" ">
<polygon fill="white" stroke="black" points="131,-76.5 131,-95.5 242,-95.5 242,-76.5 131,-76.5"/>
<text text-anchor="middle" x="186.5" y="-83.5" font-family="Helvetica,sans-Serif" font-size="10.00">xtb_local::threeoutfour</text>
</a>
</g>
</g>
<!-- Node1&#45;&gt;Node32 -->
<g id="edge33" class="edge">
<title>Node1&#45;&gt;Node32</title>
<path fill="none" stroke="midnightblue" d="M42.08,-399.27C47.5,-352.23 73.11,-148.97 116,-105 117.83,-103.12 119.83,-101.42 121.96,-99.88"/>
<polygon fill="midnightblue" stroke="midnightblue" points="123.87,-102.82 130.72,-94.73 120.32,-96.79 123.87,-102.82"/>
</g>
<!-- Node33 -->
<g id="node33" class="node">
<title>Node33</title>
<g id="a_node33"><a xlink:href="timing_8f90.html#a990faaa6510eafa32dd34a6426638f50" target="_top" xlink:title=" ">
<polygon fill="white" stroke="black" points="165,-38.5 165,-57.5 208,-57.5 208,-38.5 165,-38.5"/>
<text text-anchor="middle" x="186.5" y="-45.5" font-family="Helvetica,sans-Serif" font-size="10.00">timing</text>
</a>
</g>
</g>
<!-- Node1&#45;&gt;Node33 -->
<g id="edge34" class="edge">
<title>Node1&#45;&gt;Node33</title>
<path fill="none" stroke="midnightblue" d="M41.78,-399.42C46.07,-349.27 68.27,-117.23 116,-67 126.02,-56.45 141.29,-51.57 154.97,-49.38"/>
<polygon fill="midnightblue" stroke="midnightblue" points="155.49,-52.84 165,-48.18 154.66,-45.89 155.49,-52.84"/>
</g>
<!-- Node34 -->
<g id="node34" class="node">
<title>Node34</title>
<g id="a_node34"><a xlink:href="namespacextb__mctc__symbols.html#abe837ad333242b4dd3073c5747c13e28" target="_top" xlink:title="Convert atomic number to element symbol.">
<polygon fill="white" stroke="black" points="116,-0.5 116,-19.5 257,-19.5 257,-0.5 116,-0.5"/>
<text text-anchor="middle" x="186.5" y="-7.5" font-family="Helvetica,sans-Serif" font-size="10.00">xtb_mctc_symbols::tosymbol</text>
</a>
</g>
</g>
<!-- Node1&#45;&gt;Node34 -->
<g id="edge35" class="edge">
<title>Node1&#45;&gt;Node34</title>
<path fill="none" stroke="midnightblue" d="M41.55,-399.44C44.84,-346.1 63.44,-85.49 116,-29 117.23,-27.68 118.54,-26.44 119.92,-25.29"/>
<polygon fill="midnightblue" stroke="midnightblue" points="122.13,-28.03 128.5,-19.57 118.24,-22.21 122.13,-28.03"/>
</g>
<!-- Node3 -->
<g id="node3" class="node">
<title>Node3</title>
<g id="a_node3"><a xlink:href="qsort_8f90.html#ae4f9c8baf3ca1ba168e51848d421579c" target="_top" xlink:title=" ">
<polygon fill="white" stroke="black" points="360.5,-513.5 360.5,-532.5 398.5,-532.5 398.5,-513.5 360.5,-513.5"/>
<text text-anchor="middle" x="379.5" y="-520.5" font-family="Helvetica,sans-Serif" font-size="10.00">qsort</text>
</a>
</g>
</g>
<!-- Node2&#45;&gt;Node3 -->
<g id="edge2" class="edge">
<title>Node2&#45;&gt;Node3</title>
<path fill="none" stroke="midnightblue" d="M223.28,-570.48C234.14,-567.53 246.08,-564.2 257,-561 289.29,-551.54 326.15,-539.89 350.72,-532"/>
<polygon fill="midnightblue" stroke="midnightblue" points="352,-535.27 360.45,-528.87 349.86,-528.6 352,-535.27"/>
</g>
<!-- Node5 -->
<g id="node5" class="node">
<title>Node5</title>
<g id="a_node5"><a xlink:href="src_2CMakeLists_8txt.html#a1752f8ed27a298dcd5014319ef2472dd" target="_top" xlink:title=" ">
<polygon fill="white" stroke="black" points="365,-798.5 365,-817.5 394,-817.5 394,-798.5 365,-798.5"/>
<text text-anchor="middle" x="379.5" y="-805.5" font-family="Helvetica,sans-Serif" font-size="10.00">list</text>
</a>
</g>
</g>
<!-- Node4&#45;&gt;Node5 -->
<g id="edge4" class="edge">
<title>Node4&#45;&gt;Node5</title>
<path fill="none" stroke="midnightblue" d="M237.18,-808C275.02,-808 325.42,-808 354.68,-808"/>
<polygon fill="midnightblue" stroke="midnightblue" points="354.79,-811.5 364.79,-808 354.79,-804.5 354.79,-811.5"/>
</g>
<!-- Node4&#45;&gt;Node6 -->
<g id="edge5" class="edge">
<title>Node4&#45;&gt;Node6</title>
<path fill="none" stroke="midnightblue" d="M235.7,-798.41C272.9,-791.01 322.92,-781.06 352.82,-775.11"/>
<polygon fill="midnightblue" stroke="midnightblue" points="353.73,-778.5 362.86,-773.11 352.37,-771.63 353.73,-778.5"/>
</g>
<!-- Node9 -->
<g id="node9" class="node">
<title>Node9</title>
<g id="a_node9"><a xlink:href="constrain__pot_8f90.html#ac62613d43f31c7bfa652ee80083b400b" target="_top" xlink:title=" ">
<polygon fill="white" stroke="black" points="365,-646.5 365,-665.5 394,-665.5 394,-646.5 365,-646.5"/>
<text text-anchor="middle" x="379.5" y="-653.5" font-family="Helvetica,sans-Serif" font-size="10.00">lin</text>
</a>
</g>
</g>
<!-- Node8&#45;&gt;Node9 -->
<g id="edge8" class="edge">
<title>Node8&#45;&gt;Node9</title>
<path fill="none" stroke="midnightblue" d="M239.69,-656C277.13,-656 325.85,-656 354.49,-656"/>
<polygon fill="midnightblue" stroke="midnightblue" points="354.76,-659.5 364.76,-656 354.76,-652.5 354.76,-659.5"/>
</g>
<!-- Node12 -->
<g id="node12" class="node">
<title>Node12</title>
<g id="a_node12"><a xlink:href="namespacextb__intpack.html#ad6e57dd6c920d9a1d35787c045bc98c6" target="_top" xlink:title=" ">
<polygon fill="white" stroke="black" points="331,-304.5 331,-323.5 428,-323.5 428,-304.5 331,-304.5"/>
<text text-anchor="middle" x="379.5" y="-311.5" font-family="Helvetica,sans-Serif" font-size="10.00">xtb_intpack::opab1</text>
</a>
</g>
</g>
<!-- Node11&#45;&gt;Node12 -->
<g id="edge11" class="edge">
<title>Node11&#45;&gt;Node12</title>
<path fill="none" stroke="midnightblue" d="M229.89,-343.57C256.63,-338.25 291.52,-331.31 320.77,-325.49"/>
<polygon fill="midnightblue" stroke="midnightblue" points="321.73,-328.86 330.86,-323.48 320.37,-322 321.73,-328.86"/>
</g>
<!-- Node14 -->
<g id="node14" class="node">
<title>Node14</title>
<g id="a_node14"><a xlink:href="namespacextb__intpack.html#a006d934cfa58ce57ddc3932a0f15120c" target="_top" xlink:title=" ">
<polygon fill="white" stroke="black" points="332,-352.5 332,-371.5 427,-371.5 427,-352.5 332,-352.5"/>
<text text-anchor="middle" x="379.5" y="-359.5" font-family="Helvetica,sans-Serif" font-size="10.00">xtb_intpack::propa</text>
</a>
</g>
</g>
<!-- Node11&#45;&gt;Node14 -->
<g id="edge13" class="edge">
<title>Node11&#45;&gt;Node14</title>
<path fill="none" stroke="midnightblue" d="M229.89,-354.22C256.92,-355.63 292.29,-357.49 321.73,-359.03"/>
<polygon fill="midnightblue" stroke="midnightblue" points="321.71,-362.53 331.88,-359.56 322.08,-355.54 321.71,-362.53"/>
</g>
<!-- Node13 -->
<g id="node13" class="node">
<title>Node13</title>
<g id="a_node13"><a xlink:href="namespacextb__intpack.html#a04bd77a744f041e98e1fdc913e0862c0" target="_top" xlink:title=" ">
<polygon fill="white" stroke="black" points="505,-285.5 505,-304.5 594,-304.5 594,-285.5 505,-285.5"/>
<text text-anchor="middle" x="549.5" y="-292.5" font-family="Helvetica,sans-Serif" font-size="10.00">xtb_intpack::olap</text>
</a>
</g>
</g>
<!-- Node12&#45;&gt;Node13 -->
<g id="edge12" class="edge">
<title>Node12&#45;&gt;Node13</title>
<path fill="none" stroke="midnightblue" d="M428.19,-308.61C448.87,-306.27 473.18,-303.52 494.51,-301.11"/>
<polygon fill="midnightblue" stroke="midnightblue" points="495.17,-304.55 504.72,-299.95 494.39,-297.6 495.17,-304.55"/>
</g>
<!-- Node15 -->
<g id="node15" class="node">
<title>Node15</title>
<g id="a_node15"><a xlink:href="namespacextb__intpack.html#a89bc54e2e899167f10c6f3f78a7246e7" target="_top" xlink:title=" ">
<polygon fill="white" stroke="black" points="503.5,-361.5 503.5,-380.5 595.5,-380.5 595.5,-361.5 503.5,-361.5"/>
<text text-anchor="middle" x="549.5" y="-368.5" font-family="Helvetica,sans-Serif" font-size="10.00">xtb_intpack::divpt</text>
</a>
</g>
</g>
<!-- Node14&#45;&gt;Node15 -->
<g id="edge14" class="edge">
<title>Node14&#45;&gt;Node15</title>
<path fill="none" stroke="midnightblue" d="M427.3,-364.51C447.74,-365.6 471.86,-366.89 493.19,-368.04"/>
<polygon fill="midnightblue" stroke="midnightblue" points="493.23,-371.54 503.4,-368.58 493.6,-364.55 493.23,-371.54"/>
</g>
<!-- Node16 -->
<g id="node16" class="node">
<title>Node16</title>
<g id="a_node16"><a xlink:href="namespacextb__intpack.html#acf64e33c75cc6fd8c468bf9edb4cafbb" target="_top" xlink:title=" ">
<polygon fill="white" stroke="black" points="505,-323.5 505,-342.5 594,-342.5 594,-323.5 505,-323.5"/>
<text text-anchor="middle" x="549.5" y="-330.5" font-family="Helvetica,sans-Serif" font-size="10.00">xtb_intpack::prod</text>
</a>
</g>
</g>
<!-- Node14&#45;&gt;Node16 -->
<g id="edge15" class="edge">
<title>Node14&#45;&gt;Node16</title>
<path fill="none" stroke="midnightblue" d="M427.3,-353.92C448.25,-350.3 473.08,-346.02 494.78,-342.27"/>
<polygon fill="midnightblue" stroke="midnightblue" points="495.58,-345.69 504.84,-340.54 494.39,-338.79 495.58,-345.69"/>
</g>
<!-- Node17 -->
<g id="node17" class="node">
<title>Node17</title>
<g id="a_node17"><a xlink:href="namespacextb__intpack.html#a9a40f9f0fbd48320267942da84027862" target="_top" xlink:title=" ">
<polygon fill="white" stroke="black" points="502,-399.5 502,-418.5 597,-418.5 597,-399.5 502,-399.5"/>
<text text-anchor="middle" x="549.5" y="-406.5" font-family="Helvetica,sans-Serif" font-size="10.00">xtb_intpack::rhftce</text>
</a>
</g>
</g>
<!-- Node14&#45;&gt;Node17 -->
<g id="edge16" class="edge">
<title>Node14&#45;&gt;Node17</title>
<path fill="none" stroke="midnightblue" d="M414.5,-371.51C440.37,-378.75 476.2,-388.77 504.3,-396.63"/>
<polygon fill="midnightblue" stroke="midnightblue" points="503.69,-400.1 514.27,-399.42 505.58,-393.36 503.69,-400.1"/>
</g>
<!-- Node20&#45;&gt;Node3 -->
<g id="edge20" class="edge">
<title>Node20&#45;&gt;Node3</title>
<path fill="none" stroke="midnightblue" d="M223.28,-475.52C234.14,-478.47 246.08,-481.8 257,-485 289.29,-494.46 326.15,-506.11 350.72,-514"/>
<polygon fill="midnightblue" stroke="midnightblue" points="349.86,-517.4 360.45,-517.13 352,-510.73 349.86,-517.4"/>
</g>
<!-- Node24 -->
<g id="node24" class="node">
<title>Node24</title>
<g id="a_node24"><a xlink:href="shiftlp_8f90.html#a59041ad4e515c3df3165873071f8d50c" target="_top" xlink:title=" ">
<polygon fill="white" stroke="black" points="358,-228.5 358,-247.5 401,-247.5 401,-228.5 358,-228.5"/>
<text text-anchor="middle" x="379.5" y="-235.5" font-family="Helvetica,sans-Serif" font-size="10.00">shiftlp</text>
</a>
</g>
</g>
<!-- Node23&#45;&gt;Node24 -->
<g id="edge24" class="edge">
<title>Node23&#45;&gt;Node24</title>
<path fill="none" stroke="midnightblue" d="M233.25,-238C268.59,-238 316.55,-238 347.51,-238"/>
<polygon fill="midnightblue" stroke="midnightblue" points="347.71,-241.5 357.71,-238 347.71,-234.5 347.71,-241.5"/>
</g>
<!-- Node28 -->
<g id="node28" class="node">
<title>Node28</title>
<g id="a_node28"><a xlink:href="namespacextb__blowsy.html#a48cf895766eb7112f735d185806c7923" target="_top" xlink:title=" ">
<polygon fill="white" stroke="black" points="330,-152.5 330,-171.5 429,-171.5 429,-152.5 330,-152.5"/>
<text text-anchor="middle" x="379.5" y="-159.5" font-family="Helvetica,sans-Serif" font-size="10.00">xtb_blowsy::blowsy</text>
</a>
</g>
</g>
<!-- Node27&#45;&gt;Node28 -->
<g id="edge28" class="edge">
<title>Node27&#45;&gt;Node28</title>
<path fill="none" stroke="midnightblue" d="M230.36,-162C256.62,-162 290.59,-162 319.37,-162"/>
<polygon fill="midnightblue" stroke="midnightblue" points="319.72,-165.5 329.72,-162 319.72,-158.5 319.72,-165.5"/>
</g>
<!-- Node30&#45;&gt;Node6 -->
<g id="edge31" class="edge">
<title>Node30&#45;&gt;Node6</title>
<path fill="none" stroke="midnightblue" d="M232.28,-740.91C269.76,-748.37 321.92,-758.74 352.75,-764.88"/>
<polygon fill="midnightblue" stroke="midnightblue" points="352.22,-768.34 362.71,-766.86 353.58,-761.47 352.22,-768.34"/>
</g>
<!-- Node35 -->
<g id="node35" class="node">
<title>Node35</title>
<g id="a_node35"><a xlink:href="namespacextb__mctc__symbols.html#a79bd74e1e6f1eae5387d103d33088dc8" target="_top" xlink:title="Convert atomic number to element symbol.">
<polygon fill="white" stroke="black" points="293,-0.5 293,-19.5 466,-19.5 466,-0.5 293,-0.5"/>
<text text-anchor="middle" x="379.5" y="-7.5" font-family="Helvetica,sans-Serif" font-size="10.00">xtb_mctc_symbols::numbertosymbol</text>
</a>
</g>
</g>
<!-- Node34&#45;&gt;Node35 -->
<g id="edge36" class="edge">
<title>Node34&#45;&gt;Node35</title>
<path fill="none" stroke="midnightblue" d="M257.27,-10C265.61,-10 274.25,-10 282.88,-10"/>
<polygon fill="midnightblue" stroke="midnightblue" points="283,-13.5 293,-10 283,-6.5 283,-13.5"/>
</g>
</g>
</svg>
        <g id="navigator" transform="translate(0 0)" fill="#404254">
                <rect fill="#f2f5e9" fill-opacity="0.5" stroke="#606060" stroke-width=".5" x="0" y="0" width="60" height="60"/>
                <use id="zoomplus" xlink:href="#zoomPlus" x="17" y="9" onmousedown="handleZoom(evt,'in')"/>
                <use id="zoomminus" xlink:href="#zoomMin" x="42" y="9" onmousedown="handleZoom(evt,'out')"/>
                <use id="reset" xlink:href="#resetDef" x="30" y="36" onmousedown="handleReset()"/>
                <g id="arrowUp" xlink:href="#dirArrow" transform="translate(30 24)" onmousedown="handlePan(0,-1)">
                  <use xlink:href="#rim" fill="#404040">
                        <set attributeName="fill" to="#808080" begin="arrowUp.mouseover" end="arrowUp.mouseout"/>
                  </use>
                  <path fill="none" stroke="white" stroke-width="1.5" d="M0,-3.0v7 M-2.5,-0.5L0,-3.0L2.5,-0.5"/>
                </g>
                <g id="arrowRight" xlink:href="#dirArrow" transform="rotate(90) translate(36 -43)" onmousedown="handlePan(1,0)">
                  <use xlink:href="#rim" fill="#404040">
                        <set attributeName="fill" to="#808080" begin="arrowRight.mouseover" end="arrowRight.mouseout"/>
                  </use>
                  <path fill="none" stroke="white" stroke-width="1.5" d="M0,-3.0v7 M-2.5,-0.5L0,-3.0L2.5,-0.5"/>
                </g>
                <g id="arrowDown" xlink:href="#dirArrow" transform="rotate(180) translate(-30 -48)" onmousedown="handlePan(0,1)">
                  <use xlink:href="#rim" fill="#404040">
                        <set attributeName="fill" to="#808080" begin="arrowDown.mouseover" end="arrowDown.mouseout"/>
                  </use>
                  <path fill="none" stroke="white" stroke-width="1.5" d="M0,-3.0v7 M-2.5,-0.5L0,-3.0L2.5,-0.5"/>
                </g>
                <g id="arrowLeft" xlink:href="#dirArrow" transform="rotate(270) translate(-36 17)" onmousedown="handlePan(-1,0)">
                  <use xlink:href="#rim" fill="#404040">
                        <set attributeName="fill" to="#808080" begin="arrowLeft.mouseover" end="arrowLeft.mouseout"/>
                  </use>
                  <path fill="none" stroke="white" stroke-width="1.5" d="M0,-3.0v7 M-2.5,-0.5L0,-3.0L2.5,-0.5"/>
                </g>
        </g>
        <svg viewBox="0 0 15 15" width="100%" height="30px" preserveAspectRatio="xMaxYMin meet">
         <g id="arrow_out" transform="scale(0.3 0.3)">
          <a xlink:href="namespacextb__local_a6aafec43f9ac7235a5dfd2c36ed1f56b_cgraph_org.svg" target="_base">
           <rect id="button" ry="5" rx="5" y="6" x="6" height="38" width="38"
                fill="#f2f5e9" fill-opacity="0.5" stroke="#606060" stroke-width="1.0"/>
           <path id="arrow"
             d="M 11.500037,31.436501 C 11.940474,20.09759 22.043105,11.32322 32.158766,21.979434 L 37.068811,17.246167 C 37.068811,17.246167 37.088388,32 37.088388,32 L 22.160133,31.978069 C 22.160133,31.978069 26.997745,27.140456 26.997745,27.140456 C 18.528582,18.264221 13.291696,25.230495 11.500037,31.436501 z"
             style="fill:#404040;"/>
          </a>
         </g>
        </svg>
</svg>
