<?xml version="1.0" encoding="UTF-8" standalone="no"?>
<!DOCTYPE svg PUBLIC "-//W3C//DTD SVG 1.1//EN"
 "http://www.w3.org/Graphics/SVG/1.1/DTD/svg11.dtd">
<!-- Generated by graphviz version 2.46.1 (20210215.1649)
 -->
<!-- Title: xtb_main_setup::newwavefunction Pages: 1 -->
<svg width="868pt" height="233pt"
 viewBox="0.00 0.00 868.00 233.00" xmlns="http://www.w3.org/2000/svg" xmlns:xlink="http://www.w3.org/1999/xlink">
<g id="graph0" class="graph" transform="scale(1 1) rotate(0) translate(4 229)">
<title>xtb_main_setup::newwavefunction</title>
<polygon fill="white" stroke="transparent" points="-4,4 -4,-229 864,-229 864,4 -4,4"/>
<!-- Node1 -->
<g id="node1" class="node">
<title>Node1</title>
<g id="a_node1"><a xlink:title=" ">
<polygon fill="#bfbfbf" stroke="black" points="0,-167.5 0,-186.5 165,-186.5 165,-167.5 0,-167.5"/>
<text text-anchor="middle" x="82.5" y="-174.5" font-family="Helvetica,sans-Serif" font-size="10.00">xtb_main_setup::newwavefunction</text>
</a>
</g>
</g>
<!-- Node2 -->
<g id="node2" class="node">
<title>Node2</title>
<g id="a_node2"><a xlink:href="neighbor_8f90.html#a5df91039130b0032e4f6ce1853b1af8a" target="_top" xlink:title=" ">
<polygon fill="white" stroke="black" points="270,-195.5 270,-214.5 302,-214.5 302,-195.5 270,-195.5"/>
<text text-anchor="middle" x="286" y="-202.5" font-family="Helvetica,sans-Serif" font-size="10.00">chk</text>
</a>
</g>
</g>
<!-- Node1&#45;&gt;Node2 -->
<g id="edge1" class="edge">
<title>Node1&#45;&gt;Node2</title>
<path fill="none" stroke="midnightblue" d="M152,-186.52C189.1,-191.67 232.73,-197.74 259.62,-201.47"/>
<polygon fill="midnightblue" stroke="midnightblue" points="259.34,-204.97 269.72,-202.88 260.3,-198.03 259.34,-204.97"/>
</g>
<!-- Node4 -->
<g id="node4" class="node">
<title>Node4</title>
<g id="a_node4"><a xlink:href="namespacextb__main__setup.html#a21653c5e0321c97c79524c4934ad81ae" target="_top" xlink:title=" ">
<polygon fill="white" stroke="black" points="201,-148.5 201,-167.5 371,-167.5 371,-148.5 201,-148.5"/>
<text text-anchor="middle" x="286" y="-155.5" font-family="Helvetica,sans-Serif" font-size="10.00">xtb_main_setup::newwavefunction_</text>
</a>
</g>
</g>
<!-- Node1&#45;&gt;Node4 -->
<g id="edge3" class="edge">
<title>Node1&#45;&gt;Node4</title>
<path fill="none" stroke="midnightblue" d="M165.17,-169.3C173.64,-168.5 182.29,-167.68 190.88,-166.87"/>
<polygon fill="midnightblue" stroke="midnightblue" points="191.29,-170.35 200.92,-165.93 190.64,-163.38 191.29,-170.35"/>
</g>
<!-- Node3 -->
<g id="node3" class="node">
<title>Node3</title>
<g id="a_node3"><a xlink:href="symmetry__i_8c.html#aa77c823a9fc018ae1d437369708d8727" target="_top" xlink:title=" ">
<polygon fill="white" stroke="black" points="459,-205.5 459,-224.5 492,-224.5 492,-205.5 459,-205.5"/>
<text text-anchor="middle" x="475.5" y="-212.5" font-family="Helvetica,sans-Serif" font-size="10.00">true</text>
</a>
</g>
</g>
<!-- Node2&#45;&gt;Node3 -->
<g id="edge2" class="edge">
<title>Node2&#45;&gt;Node3</title>
<path fill="none" stroke="midnightblue" d="M302.03,-205.8C333.96,-207.5 408.89,-211.5 448.66,-213.62"/>
<polygon fill="midnightblue" stroke="midnightblue" points="448.7,-217.13 458.88,-214.17 449.08,-210.14 448.7,-217.13"/>
</g>
<!-- Node4&#45;&gt;Node3 -->
<g id="edge17" class="edge">
<title>Node4&#45;&gt;Node3</title>
<path fill="none" stroke="midnightblue" d="M316.51,-167.64C340.75,-175.48 376.01,-186.74 407,-196 420.85,-200.14 436.38,-204.53 449.04,-208.04"/>
<polygon fill="midnightblue" stroke="midnightblue" points="448.34,-211.48 458.91,-210.77 450.2,-204.73 448.34,-211.48"/>
</g>
<!-- Node5 -->
<g id="node5" class="node">
<title>Node5</title>
<g id="a_node5"><a xlink:href="namespacextb__iniq.html#a585fc5ad69fcd03084fa301ecc7225b0" target="_top" xlink:title=" ">
<polygon fill="white" stroke="black" points="435.5,-41.5 435.5,-60.5 515.5,-60.5 515.5,-41.5 435.5,-41.5"/>
<text text-anchor="middle" x="475.5" y="-48.5" font-family="Helvetica,sans-Serif" font-size="10.00">xtb_iniq::iniqcn</text>
</a>
</g>
</g>
<!-- Node4&#45;&gt;Node5 -->
<g id="edge4" class="edge">
<title>Node4&#45;&gt;Node5</title>
<path fill="none" stroke="midnightblue" d="M297.44,-148.5C317.34,-130.85 362.68,-92.83 407,-71 412.83,-68.13 419.15,-65.59 425.5,-63.36"/>
<polygon fill="midnightblue" stroke="midnightblue" points="427.02,-66.55 435.45,-60.13 424.85,-59.89 427.02,-66.55"/>
</g>
<!-- Node12 -->
<g id="node12" class="node">
<title>Node12</title>
<g id="a_node12"><a xlink:href="namespacextb__scc__core.html#ae6c9babc8cddf9d13539ebbab3a46d1c" target="_top" xlink:title="atomic valence shell pops and total atomic energy">
<polygon fill="white" stroke="black" points="418.5,-167.5 418.5,-186.5 532.5,-186.5 532.5,-167.5 418.5,-167.5"/>
<text text-anchor="middle" x="475.5" y="-174.5" font-family="Helvetica,sans-Serif" font-size="10.00">xtb_scc_core::iniqshell</text>
</a>
</g>
</g>
<!-- Node4&#45;&gt;Node12 -->
<g id="edge14" class="edge">
<title>Node4&#45;&gt;Node12</title>
<path fill="none" stroke="midnightblue" d="M371.15,-166.53C383.5,-167.78 396.07,-169.05 408,-170.26"/>
<polygon fill="midnightblue" stroke="midnightblue" points="408,-173.78 418.3,-171.3 408.7,-166.81 408,-173.78"/>
</g>
<!-- Node13 -->
<g id="node13" class="node">
<title>Node13</title>
<g id="a_node13"><a xlink:href="namespacextb__disp__ncoord.html#a499dfc9ca2e6e04e01f2845d234ea8f5" target="_top" xlink:title=" ">
<polygon fill="white" stroke="black" points="407,-129.5 407,-148.5 544,-148.5 544,-129.5 407,-129.5"/>
<text text-anchor="middle" x="475.5" y="-136.5" font-family="Helvetica,sans-Serif" font-size="10.00">xtb_disp_ncoord::ncoord_erf</text>
</a>
</g>
</g>
<!-- Node4&#45;&gt;Node13 -->
<g id="edge15" class="edge">
<title>Node4&#45;&gt;Node13</title>
<path fill="none" stroke="midnightblue" d="M371.15,-149.47C379.67,-148.61 388.28,-147.74 396.73,-146.88"/>
<polygon fill="midnightblue" stroke="midnightblue" points="397.32,-150.34 406.92,-145.85 396.61,-143.37 397.32,-150.34"/>
</g>
<!-- Node14 -->
<g id="node14" class="node">
<title>Node14</title>
<g id="a_node14"><a xlink:href="namespacextb__chargemodel.html#a1a817e25fd018415d120a36bec4e54b1" target="_top" xlink:title=" ">
<polygon fill="white" stroke="black" points="419,-80 419,-110 532,-110 532,-80 419,-80"/>
<text text-anchor="start" x="427" y="-98" font-family="Helvetica,sans-Serif" font-size="10.00">xtb_chargemodel::new</text>
<text text-anchor="middle" x="475.5" y="-87" font-family="Helvetica,sans-Serif" font-size="10.00">_charge_model_2019</text>
</a>
</g>
</g>
<!-- Node4&#45;&gt;Node14 -->
<g id="edge16" class="edge">
<title>Node4&#45;&gt;Node14</title>
<path fill="none" stroke="midnightblue" d="M315.48,-148.43C343.08,-139.16 385.66,-124.85 419.82,-113.37"/>
<polygon fill="midnightblue" stroke="midnightblue" points="421.3,-116.57 429.66,-110.07 419.07,-109.93 421.3,-116.57"/>
</g>
<!-- Node6 -->
<g id="node6" class="node">
<title>Node6</title>
<g id="a_node6"><a xlink:href="namespacextb__iniq.html#ab0ce6e01c08bf6622142918294b6c428" target="_top" xlink:title=" ">
<polygon fill="white" stroke="black" points="580,-3.5 580,-22.5 684,-22.5 684,-3.5 580,-3.5"/>
<text text-anchor="middle" x="632" y="-10.5" font-family="Helvetica,sans-Serif" font-size="10.00">xtb_iniq::iniqcn_gfn1</text>
</a>
</g>
</g>
<!-- Node5&#45;&gt;Node6 -->
<g id="edge5" class="edge">
<title>Node5&#45;&gt;Node6</title>
<path fill="none" stroke="midnightblue" d="M515.49,-41.41C535.78,-36.42 560.79,-30.27 582.35,-24.97"/>
<polygon fill="midnightblue" stroke="midnightblue" points="583.42,-28.31 592.29,-22.52 581.75,-21.51 583.42,-28.31"/>
</g>
<!-- Node9 -->
<g id="node9" class="node">
<title>Node9</title>
<g id="a_node9"><a xlink:href="namespacextb__iniq.html#a85ff25debd22a2ab34449830e140c9fd" target="_top" xlink:title=" ">
<polygon fill="white" stroke="black" points="580,-79.5 580,-98.5 684,-98.5 684,-79.5 580,-79.5"/>
<text text-anchor="middle" x="632" y="-86.5" font-family="Helvetica,sans-Serif" font-size="10.00">xtb_iniq::iniqcn_gfn2</text>
</a>
</g>
</g>
<!-- Node5&#45;&gt;Node9 -->
<g id="edge8" class="edge">
<title>Node5&#45;&gt;Node9</title>
<path fill="none" stroke="midnightblue" d="M515.49,-60.59C535.78,-65.58 560.79,-71.73 582.35,-77.03"/>
<polygon fill="midnightblue" stroke="midnightblue" points="581.75,-80.49 592.29,-79.48 583.42,-73.69 581.75,-80.49"/>
</g>
<!-- Node11 -->
<g id="node11" class="node">
<title>Node11</title>
<g id="a_node11"><a xlink:href="namespacextb__iniq.html#a4bf2882e59b944ad4cdd7cd921b4069a" target="_top" xlink:title=" ">
<polygon fill="white" stroke="black" points="583,-41.5 583,-60.5 681,-60.5 681,-41.5 583,-41.5"/>
<text text-anchor="middle" x="632" y="-48.5" font-family="Helvetica,sans-Serif" font-size="10.00">xtb_iniq::iniqcn_vtb</text>
</a>
</g>
</g>
<!-- Node5&#45;&gt;Node11 -->
<g id="edge11" class="edge">
<title>Node5&#45;&gt;Node11</title>
<path fill="none" stroke="midnightblue" d="M515.89,-51C533.17,-51 553.8,-51 572.8,-51"/>
<polygon fill="midnightblue" stroke="midnightblue" points="572.85,-54.5 582.85,-51 572.85,-47.5 572.85,-54.5"/>
</g>
<!-- Node7 -->
<g id="node7" class="node">
<title>Node7</title>
<g id="a_node7"><a xlink:href="namespacextb__iniq.html#a4b26e6165efea5f01c9f1de914f41182" target="_top" xlink:title=" ">
<polygon fill="white" stroke="black" points="743,-39 743,-69 837,-69 837,-39 743,-39"/>
<text text-anchor="start" x="751" y="-57" font-family="Helvetica,sans-Serif" font-size="10.00">xtb_iniq::gasteiger</text>
<text text-anchor="middle" x="790" y="-46" font-family="Helvetica,sans-Serif" font-size="10.00">_partition</text>
</a>
</g>
</g>
<!-- Node6&#45;&gt;Node7 -->
<g id="edge6" class="edge">
<title>Node6&#45;&gt;Node7</title>
<path fill="none" stroke="midnightblue" d="M669.18,-22.51C688.14,-27.49 711.78,-33.71 733.04,-39.29"/>
<polygon fill="midnightblue" stroke="midnightblue" points="732.37,-42.74 742.93,-41.89 734.15,-35.97 732.37,-42.74"/>
</g>
<!-- Node8 -->
<g id="node8" class="node">
<title>Node8</title>
<g id="a_node8"><a xlink:href="namespacextb__disp__ncoord.html#a2ab59957c30e2004df3d63de63423bb9" target="_top" xlink:title="original D3 type coordination number from 2010">
<polygon fill="white" stroke="black" points="721.5,-0.5 721.5,-19.5 858.5,-19.5 858.5,-0.5 721.5,-0.5"/>
<text text-anchor="middle" x="790" y="-7.5" font-family="Helvetica,sans-Serif" font-size="10.00">xtb_disp_ncoord::ncoord_d3</text>
</a>
</g>
</g>
<!-- Node6&#45;&gt;Node8 -->
<g id="edge7" class="edge">
<title>Node6&#45;&gt;Node8</title>
<path fill="none" stroke="midnightblue" d="M684.08,-12.02C692.82,-11.85 702.08,-11.67 711.34,-11.49"/>
<polygon fill="midnightblue" stroke="midnightblue" points="711.42,-14.99 721.35,-11.3 711.28,-7.99 711.42,-14.99"/>
</g>
<!-- Node9&#45;&gt;Node7 -->
<g id="edge9" class="edge">
<title>Node9&#45;&gt;Node7</title>
<path fill="none" stroke="midnightblue" d="M675.63,-79.44C693.29,-75.47 714.03,-70.82 732.9,-66.59"/>
<polygon fill="midnightblue" stroke="midnightblue" points="733.88,-69.95 742.87,-64.35 732.34,-63.12 733.88,-69.95"/>
</g>
<!-- Node10 -->
<g id="node10" class="node">
<title>Node10</title>
<g id="a_node10"><a xlink:href="namespacextb__disp__ncoord.html#a4ab83811507c35f9e36c8dd4b934c9d0" target="_top" xlink:title=" ">
<polygon fill="white" stroke="black" points="720,-88.5 720,-107.5 860,-107.5 860,-88.5 720,-88.5"/>
<text text-anchor="middle" x="790" y="-95.5" font-family="Helvetica,sans-Serif" font-size="10.00">xtb_disp_ncoord::ncoord_gfn</text>
</a>
</g>
</g>
<!-- Node9&#45;&gt;Node10 -->
<g id="edge10" class="edge">
<title>Node9&#45;&gt;Node10</title>
<path fill="none" stroke="midnightblue" d="M684.08,-91.95C692.32,-92.42 701.01,-92.92 709.73,-93.43"/>
<polygon fill="midnightblue" stroke="midnightblue" points="709.76,-96.93 719.95,-94.02 710.17,-89.95 709.76,-96.93"/>
</g>
<!-- Node11&#45;&gt;Node7 -->
<g id="edge12" class="edge">
<title>Node11&#45;&gt;Node7</title>
<path fill="none" stroke="midnightblue" d="M681.08,-51.92C697.39,-52.24 715.76,-52.59 732.65,-52.92"/>
<polygon fill="midnightblue" stroke="midnightblue" points="732.88,-56.42 742.95,-53.11 733.02,-49.42 732.88,-56.42"/>
</g>
<!-- Node11&#45;&gt;Node8 -->
<g id="edge13" class="edge">
<title>Node11&#45;&gt;Node8</title>
<path fill="none" stroke="midnightblue" d="M669.18,-41.49C691.15,-35.72 719.41,-28.29 742.97,-22.1"/>
<polygon fill="midnightblue" stroke="midnightblue" points="743.96,-25.46 752.74,-19.53 742.18,-18.69 743.96,-25.46"/>
</g>
</g>
</svg>
