<?xml version="1.0" encoding="UTF-8" standalone="no"?>
<!DOCTYPE svg PUBLIC "-//W3C//DTD SVG 1.1//EN"
 "http://www.w3.org/Graphics/SVG/1.1/DTD/svg11.dtd">
<!-- Generated by graphviz version 2.43.0 (0)
 -->
<!-- Title: xtb_io_reader_ctfile::readmoleculesdf Pages: 1 -->
<svg width="710pt" height="75pt"
 viewBox="0.00 0.00 710.00 74.50" xmlns="http://www.w3.org/2000/svg" xmlns:xlink="http://www.w3.org/1999/xlink">
<g id="graph0" class="graph" transform="scale(1 1) rotate(0) translate(4 70.5)">
<title>xtb_io_reader_ctfile::readmoleculesdf</title>
<polygon fill="white" stroke="transparent" points="-4,4 -4,-70.5 706,-70.5 706,4 -4,4"/>
<!-- Node1 -->
<g id="node1" class="node">
<title>Node1</title>
<g id="a_node1"><a xlink:title=" ">
<polygon fill="#bfbfbf" stroke="black" points="0,-14 0,-44 113,-44 113,-14 0,-14"/>
<text text-anchor="start" x="8" y="-32" font-family="Helvetica,sans-Serif" font-size="10.00">xtb_io_reader_ctfile</text>
<text text-anchor="middle" x="56.5" y="-21" font-family="Helvetica,sans-Serif" font-size="10.00">::readmoleculesdf</text>
</a>
</g>
</g>
<!-- Node2 -->
<g id="node2" class="node">
<title>Node2</title>
<g id="a_node2"><a xlink:href="namespacextb__io__reader__ctfile.html#a0799818e84df88fcbbf2f511a191327c" target="_top" xlink:title=" ">
<polygon fill="white" stroke="black" points="149,-36 149,-66 272,-66 272,-36 149,-36"/>
<text text-anchor="start" x="157" y="-54" font-family="Helvetica,sans-Serif" font-size="10.00">xtb_io_reader_ctfile</text>
<text text-anchor="middle" x="210.5" y="-43" font-family="Helvetica,sans-Serif" font-size="10.00">::readmoleculemolfile</text>
</a>
</g>
</g>
<!-- Node1&#45;&gt;Node2 -->
<g id="edge1" class="edge">
<title>Node1&#45;&gt;Node2</title>
<path fill="none" stroke="midnightblue" d="M113.24,-37.07C121.58,-38.27 130.27,-39.53 138.88,-40.78"/>
<polygon fill="midnightblue" stroke="midnightblue" points="138.51,-44.26 148.91,-42.23 139.51,-37.33 138.51,-44.26"/>
</g>
<!-- Node5 -->
<g id="node5" class="node">
<title>Node5</title>
<g id="a_node5"><a xlink:href="symmetry__i_8c.html#aa77c823a9fc018ae1d437369708d8727" target="_top" xlink:title=" ">
<polygon fill="white" stroke="black" points="370.5,-0.5 370.5,-19.5 406.5,-19.5 406.5,-0.5 370.5,-0.5"/>
<text text-anchor="middle" x="388.5" y="-7.5" font-family="Helvetica,sans-Serif" font-size="10.00">true</text>
</a>
</g>
</g>
<!-- Node1&#45;&gt;Node5 -->
<g id="edge5" class="edge">
<title>Node1&#45;&gt;Node5</title>
<path fill="none" stroke="midnightblue" d="M113.11,-25.8C184.6,-21.68 305.95,-14.7 360.05,-11.58"/>
<polygon fill="midnightblue" stroke="midnightblue" points="360.45,-15.06 370.24,-10.99 360.05,-8.07 360.45,-15.06"/>
</g>
<!-- Node3 -->
<g id="node3" class="node">
<title>Node3</title>
<g id="a_node3"><a xlink:href="namespacextb__mctc__symbols.html#a415078dcb669ace05def9d5ccfad86fa" target="_top" xlink:title="Convert element symbol to atomic number.">
<polygon fill="white" stroke="black" points="308,-41.5 308,-60.5 469,-60.5 469,-41.5 308,-41.5"/>
<text text-anchor="middle" x="388.5" y="-48.5" font-family="Helvetica,sans-Serif" font-size="10.00">xtb_mctc_symbols::tonumber</text>
</a>
</g>
</g>
<!-- Node2&#45;&gt;Node3 -->
<g id="edge2" class="edge">
<title>Node2&#45;&gt;Node3</title>
<path fill="none" stroke="midnightblue" d="M272.07,-51C280.36,-51 289.01,-51 297.69,-51"/>
<polygon fill="midnightblue" stroke="midnightblue" points="297.86,-54.5 307.86,-51 297.86,-47.5 297.86,-54.5"/>
</g>
<!-- Node2&#45;&gt;Node5 -->
<g id="edge4" class="edge">
<title>Node2&#45;&gt;Node5</title>
<path fill="none" stroke="midnightblue" d="M272.07,-36.89C302.08,-29.9 336.81,-21.81 360.28,-16.34"/>
<polygon fill="midnightblue" stroke="midnightblue" points="361.26,-19.71 370.21,-14.03 359.67,-12.89 361.26,-19.71"/>
</g>
<!-- Node4 -->
<g id="node4" class="node">
<title>Node4</title>
<g id="a_node4"><a xlink:href="namespacextb__mctc__symbols.html#a6443a2bd18736176be30e8db1ddc89dd" target="_top" xlink:title="Convert element symbol to atomic number.">
<polygon fill="white" stroke="black" points="505,-41.5 505,-60.5 702,-60.5 702,-41.5 505,-41.5"/>
<text text-anchor="middle" x="603.5" y="-48.5" font-family="Helvetica,sans-Serif" font-size="10.00">xtb_mctc_symbols::symboltonumber</text>
</a>
</g>
</g>
<!-- Node3&#45;&gt;Node4 -->
<g id="edge3" class="edge">
<title>Node3&#45;&gt;Node4</title>
<path fill="none" stroke="midnightblue" d="M469.12,-51C477.52,-51 486.17,-51 494.83,-51"/>
<polygon fill="midnightblue" stroke="midnightblue" points="494.98,-54.5 504.98,-51 494.98,-47.5 494.98,-54.5"/>
</g>
</g>
</svg>
