<?xml version="1.0" encoding="UTF-8" standalone="no"?>
<!DOCTYPE svg PUBLIC "-//W3C//DTD SVG 1.1//EN"
 "http://www.w3.org/Graphics/SVG/1.1/DTD/svg11.dtd">
<!-- Generated by graphviz version 2.43.0 (0)
 -->
<!-- Title: xtb_type_coulomb::setupboundaryconditions Pages: 1 -->
<svg width="775pt" height="189pt"
 viewBox="0.00 0.00 775.00 188.50" xmlns="http://www.w3.org/2000/svg" xmlns:xlink="http://www.w3.org/1999/xlink">
<g id="graph0" class="graph" transform="scale(1 1) rotate(0) translate(4 184.5)">
<title>xtb_type_coulomb::setupboundaryconditions</title>
<polygon fill="white" stroke="transparent" points="-4,4 -4,-184.5 771,-184.5 771,4 -4,4"/>
<!-- Node1 -->
<g id="node1" class="node">
<title>Node1</title>
<g id="a_node1"><a xlink:title=" ">
<polygon fill="#bfbfbf" stroke="black" points="0,-62.5 0,-81.5 236,-81.5 236,-62.5 0,-62.5"/>
<text text-anchor="middle" x="118" y="-69.5" font-family="Helvetica,sans-Serif" font-size="10.00">xtb_type_coulomb::setupboundaryconditions</text>
</a>
</g>
</g>
<!-- Node2 -->
<g id="node2" class="node">
<title>Node2</title>
<g id="a_node2"><a xlink:href="namespacextb__coulomb__ewald.html#af895b4c8ffcaa0ad96aa19ed8bb346f9" target="_top" xlink:title="Returns the longest reciprocal vector which gives a bigger contribution to.">
<polygon fill="white" stroke="black" points="287.5,-150 287.5,-180 407.5,-180 407.5,-150 287.5,-150"/>
<text text-anchor="start" x="295.5" y="-168" font-family="Helvetica,sans-Serif" font-size="10.00">xtb_coulomb_ewald::</text>
<text text-anchor="middle" x="347.5" y="-157" font-family="Helvetica,sans-Serif" font-size="10.00">getmaxg</text>
</a>
</g>
</g>
<!-- Node1&#45;&gt;Node2 -->
<g id="edge1" class="edge">
<title>Node1&#45;&gt;Node2</title>
<path fill="none" stroke="midnightblue" d="M138.51,-81.65C167.3,-95.69 223.06,-122.15 272,-141 276.99,-142.92 282.21,-144.82 287.47,-146.66"/>
<polygon fill="midnightblue" stroke="midnightblue" points="286.34,-149.97 296.94,-149.89 288.6,-143.35 286.34,-149.97"/>
</g>
<!-- Node4 -->
<g id="node4" class="node">
<title>Node4</title>
<g id="a_node4"><a xlink:href="namespacextb__coulomb__ewald.html#aa74d92ca86f81de2517bfff1bd22394b" target="_top" xlink:title="Returns the longest real space vector which gives a bigger contribution to.">
<polygon fill="white" stroke="black" points="475,-52 475,-82 595,-82 595,-52 475,-52"/>
<text text-anchor="start" x="483" y="-70" font-family="Helvetica,sans-Serif" font-size="10.00">xtb_coulomb_ewald::</text>
<text text-anchor="middle" x="535" y="-59" font-family="Helvetica,sans-Serif" font-size="10.00">getmaxr</text>
</a>
</g>
</g>
<!-- Node1&#45;&gt;Node4 -->
<g id="edge3" class="edge">
<title>Node1&#45;&gt;Node4</title>
<path fill="none" stroke="midnightblue" d="M236.26,-70.59C309.94,-69.7 402.46,-68.58 464.65,-67.84"/>
<polygon fill="midnightblue" stroke="midnightblue" points="464.79,-71.33 474.75,-67.71 464.71,-64.33 464.79,-71.33"/>
</g>
<!-- Node6 -->
<g id="node6" class="node">
<title>Node6</title>
<g id="a_node6"><a xlink:href="namespacextb__coulomb__ewald.html#a0578c81cbd7c7bcaf949e8a916d4e7e6" target="_top" xlink:title="Get optimal alpha&#45;parameter for the Ewald summation by finding alpha, where.">
<polygon fill="white" stroke="black" points="287.5,-101 287.5,-131 407.5,-131 407.5,-101 287.5,-101"/>
<text text-anchor="start" x="295.5" y="-119" font-family="Helvetica,sans-Serif" font-size="10.00">xtb_coulomb_ewald::</text>
<text text-anchor="middle" x="347.5" y="-108" font-family="Helvetica,sans-Serif" font-size="10.00">getoptimalalpha</text>
</a>
</g>
</g>
<!-- Node1&#45;&gt;Node6 -->
<g id="edge5" class="edge">
<title>Node1&#45;&gt;Node6</title>
<path fill="none" stroke="midnightblue" d="M168.36,-81.55C200.12,-87.69 241.86,-95.76 276.96,-102.55"/>
<polygon fill="midnightblue" stroke="midnightblue" points="276.66,-106.06 287.14,-104.52 277.98,-99.18 276.66,-106.06"/>
</g>
<!-- Node8 -->
<g id="node8" class="node">
<title>Node8</title>
<g id="a_node8"><a xlink:href="namespacextb__mctc__math.html#a228581ab05d5a9183f2cfc31da44da10" target="_top" xlink:title="Determinat of 3×3 matrix.">
<polygon fill="white" stroke="black" points="459,-0.5 459,-19.5 611,-19.5 611,-0.5 459,-0.5"/>
<text text-anchor="middle" x="535" y="-7.5" font-family="Helvetica,sans-Serif" font-size="10.00">xtb_mctc_math::matdet3x3</text>
</a>
</g>
</g>
<!-- Node1&#45;&gt;Node8 -->
<g id="edge9" class="edge">
<title>Node1&#45;&gt;Node8</title>
<path fill="none" stroke="midnightblue" d="M138.19,-62.43C166.6,-48.84 221.87,-24.53 272,-15 330.24,-3.93 397.08,-2.83 448.67,-4.43"/>
<polygon fill="midnightblue" stroke="midnightblue" points="448.66,-7.93 458.77,-4.78 448.9,-0.93 448.66,-7.93"/>
</g>
<!-- Node9 -->
<g id="node9" class="node">
<title>Node9</title>
<g id="a_node9"><a xlink:href="namespacextb__mctc__math.html#aeaf5bd07a903a53cdbe7b49e9b3d9d63" target="_top" xlink:title="Performs a direct calculation of the inverse of a 3×3 matrix.">
<polygon fill="white" stroke="black" points="272,-24.5 272,-43.5 423,-43.5 423,-24.5 272,-24.5"/>
<text text-anchor="middle" x="347.5" y="-31.5" font-family="Helvetica,sans-Serif" font-size="10.00">xtb_mctc_math::matinv3x3</text>
</a>
</g>
</g>
<!-- Node1&#45;&gt;Node9 -->
<g id="edge10" class="edge">
<title>Node1&#45;&gt;Node9</title>
<path fill="none" stroke="midnightblue" d="M176.11,-62.46C207.49,-57.22 246.57,-50.69 279.39,-45.21"/>
<polygon fill="midnightblue" stroke="midnightblue" points="280.08,-48.64 289.36,-43.54 278.92,-41.74 280.08,-48.64"/>
</g>
<!-- Node3 -->
<g id="node3" class="node">
<title>Node3</title>
<g id="a_node3"><a xlink:href="namespacextb__coulomb__ewald.html#a01d5c6447f010a9f1064df29bfe5615c" target="_top" xlink:title="Returns the max. value of a term in the reciprocal space part of the Ewald.">
<polygon fill="white" stroke="black" points="475,-150 475,-180 595,-180 595,-150 475,-150"/>
<text text-anchor="start" x="483" y="-168" font-family="Helvetica,sans-Serif" font-size="10.00">xtb_coulomb_ewald::</text>
<text text-anchor="middle" x="535" y="-157" font-family="Helvetica,sans-Serif" font-size="10.00">getgtermpbc3d</text>
</a>
</g>
</g>
<!-- Node2&#45;&gt;Node3 -->
<g id="edge2" class="edge">
<title>Node2&#45;&gt;Node3</title>
<path fill="none" stroke="midnightblue" d="M407.7,-165C425.78,-165 445.81,-165 464.5,-165"/>
<polygon fill="midnightblue" stroke="midnightblue" points="464.72,-168.5 474.72,-165 464.72,-161.5 464.72,-168.5"/>
</g>
<!-- Node5 -->
<g id="node5" class="node">
<title>Node5</title>
<g id="a_node5"><a xlink:href="namespacextb__coulomb__ewald.html#a85f630579876f0888919a3440f359ea6" target="_top" xlink:title="Returns the max. value of a term in the real space part of the Ewald summation.">
<polygon fill="white" stroke="black" points="647,-76 647,-106 767,-106 767,-76 647,-76"/>
<text text-anchor="start" x="655" y="-94" font-family="Helvetica,sans-Serif" font-size="10.00">xtb_coulomb_ewald::</text>
<text text-anchor="middle" x="707" y="-83" font-family="Helvetica,sans-Serif" font-size="10.00">getrterm</text>
</a>
</g>
</g>
<!-- Node4&#45;&gt;Node5 -->
<g id="edge4" class="edge">
<title>Node4&#45;&gt;Node5</title>
<path fill="none" stroke="midnightblue" d="M595.46,-75.39C608.73,-77.27 622.93,-79.27 636.57,-81.2"/>
<polygon fill="midnightblue" stroke="midnightblue" points="636.47,-84.72 646.86,-82.65 637.45,-77.79 636.47,-84.72"/>
</g>
<!-- Node6&#45;&gt;Node3 -->
<g id="edge8" class="edge">
<title>Node6&#45;&gt;Node3</title>
<path fill="none" stroke="midnightblue" d="M405.42,-131.03C425,-136.21 447.11,-142.05 467.4,-147.41"/>
<polygon fill="midnightblue" stroke="midnightblue" points="466.63,-150.82 477.19,-149.99 468.42,-144.06 466.63,-150.82"/>
</g>
<!-- Node7 -->
<g id="node7" class="node">
<title>Node7</title>
<g id="a_node7"><a xlink:href="namespacextb__coulomb__ewald.html#a979ba98f5270b5ea7f1c4ec4740f85f1" target="_top" xlink:title="Returns the difference in the decrease of the real and reciprocal parts of the.">
<polygon fill="white" stroke="black" points="475,-101 475,-131 595,-131 595,-101 475,-101"/>
<text text-anchor="start" x="483" y="-119" font-family="Helvetica,sans-Serif" font-size="10.00">xtb_coulomb_ewald::</text>
<text text-anchor="middle" x="535" y="-108" font-family="Helvetica,sans-Serif" font-size="10.00">diffrecreal</text>
</a>
</g>
</g>
<!-- Node6&#45;&gt;Node7 -->
<g id="edge6" class="edge">
<title>Node6&#45;&gt;Node7</title>
<path fill="none" stroke="midnightblue" d="M407.7,-116C425.78,-116 445.81,-116 464.5,-116"/>
<polygon fill="midnightblue" stroke="midnightblue" points="464.72,-119.5 474.72,-116 464.72,-112.5 464.72,-119.5"/>
</g>
<!-- Node7&#45;&gt;Node5 -->
<g id="edge7" class="edge">
<title>Node7&#45;&gt;Node5</title>
<path fill="none" stroke="midnightblue" d="M595.46,-107.26C608.86,-105.28 623.2,-103.18 636.97,-101.15"/>
<polygon fill="midnightblue" stroke="midnightblue" points="637.48,-104.61 646.86,-99.7 636.46,-97.69 637.48,-104.61"/>
</g>
<!-- Node9&#45;&gt;Node8 -->
<g id="edge11" class="edge">
<title>Node9&#45;&gt;Node8</title>
<path fill="none" stroke="midnightblue" d="M422.08,-24.48C431.37,-23.28 440.92,-22.04 450.35,-20.82"/>
<polygon fill="midnightblue" stroke="midnightblue" points="451.04,-24.26 460.51,-19.51 450.14,-17.32 451.04,-24.26"/>
</g>
</g>
</svg>
