<?xml version="1.0" encoding="UTF-8" standalone="no"?>
<!DOCTYPE svg PUBLIC "-//W3C//DTD SVG 1.1//EN"
 "http://www.w3.org/Graphics/SVG/1.1/DTD/svg11.dtd">
<!-- Generated by graphviz version 2.46.0 (20210122.1329)
 -->
<!-- Title: xtb_gfnff_ini2::hbonds Pages: 1 -->
<!--zoomable 527 -->
<svg id="main" version="1.1" xmlns="http://www.w3.org/2000/svg" xmlns:xlink="http://www.w3.org/1999/xlink" xml:space="preserve" onload="init(evt)">
<style type="text/css"><![CDATA[
.edge:hover path { stroke: red; }
.edge:hover polygon { stroke: red; fill: red; }
]]></style>
<script type="text/javascript"><![CDATA[
var edges = document.getElementsByTagName('g');
if (edges && edges.length) {
  for (var i=0;i<edges.length;i++) {
    if (edges[i].id.substr(0,4)=='edge') {
      edges[i].setAttribute('class','edge');
    }
  }
}
]]></script>
        <defs>
                <circle id="rim" cx="0" cy="0" r="7"/>
                <circle id="rim2" cx="0" cy="0" r="3.5"/>
                <g id="zoomPlus">
                        <use xlink:href="#rim" fill="#404040">
                                <set attributeName="fill" to="#808080" begin="zoomplus.mouseover" end="zoomplus.mouseout"/>
                        </use>
                        <path d="M-4,0h8M0,-4v8" fill="none" stroke="white" stroke-width="1.5" pointer-events="none"/>
                </g>
                <g id="zoomMin">
                        <use xlink:href="#rim" fill="#404040">
                                <set attributeName="fill" to="#808080" begin="zoomminus.mouseover" end="zoomminus.mouseout"/>
                        </use>
                        <path d="M-4,0h8" fill="none" stroke="white" stroke-width="1.5" pointer-events="none"/>
                </g>
                <g id="dirArrow">
                        <path fill="none" stroke="white" stroke-width="1.5" d="M0,-3.0v7 M-2.5,-0.5L0,-3.0L2.5,-0.5"/>
                </g>
               <g id="resetDef">
                       <use xlink:href="#rim2" fill="#404040">
                               <set attributeName="fill" to="#808080" begin="reset.mouseover" end="reset.mouseout"/>
                       </use>
               </g>
        </defs>

<script type="text/javascript">
var viewWidth = 1088;
var viewHeight = 527;
var sectionId = 'dynsection-30';
</script>
<script xlink:href="svgpan.js"/>
<svg id="graph" class="graph">
<g id="viewport">
<title>xtb_gfnff_ini2::hbonds</title>
<polygon fill="white" stroke="transparent" points="-4,4 -4,-523 1084,-523 1084,4 -4,4"/>
<!-- Node1 -->
<g id="node1" class="node">
<title>Node1</title>
<g id="a_node1"><a xlink:title=" ">
<polygon fill="#bfbfbf" stroke="black" points="970,-357 970,-376 1080,-376 1080,-357 970,-357"/>
<text text-anchor="middle" x="1025" y="-364" font-family="Helvetica,sans-Serif" font-size="10.00">xtb_gfnff_ini2::hbonds</text>
</a>
</g>
</g>
<!-- Node2 -->
<g id="node2" class="node">
<title>Node2</title>
<g id="a_node2"><a xlink:href="namespacextb__gfnff__eg.html#af80393ac2da32d61ada364ffd44b22dd" target="_top" xlink:title=" ">
<polygon fill="white" stroke="black" points="805,-494 805,-513 934,-513 934,-494 805,-494"/>
<text text-anchor="middle" x="869.5" y="-501" font-family="Helvetica,sans-Serif" font-size="10.00">xtb_gfnff_eg::abhgfnff_eg1</text>
</a>
</g>
</g>
<!-- Node1&#45;&gt;Node2 -->
<g id="edge1" class="edge">
<title>Node1&#45;&gt;Node2</title>
<path fill="none" stroke="midnightblue" d="M1014.61,-385.28C1000.6,-411.38 971.79,-458.37 934,-484.5 928.42,-488.36 922.03,-491.45 915.52,-493.92"/>
<polygon fill="midnightblue" stroke="midnightblue" points="1017.88,-386.57 1019.39,-376.08 1011.67,-383.34 1017.88,-386.57"/>
</g>
<!-- Node7 -->
<g id="node7" class="node">
<title>Node7</title>
<g id="a_node7"><a xlink:href="namespacextb__gfnff__eg.html#a39c28cdf9ae25796ad5d5e19706c03ab" target="_top" xlink:title=" ">
<polygon fill="white" stroke="black" points="815.5,-444.5 815.5,-474.5 923.5,-474.5 923.5,-444.5 815.5,-444.5"/>
<text text-anchor="start" x="823.5" y="-462.5" font-family="Helvetica,sans-Serif" font-size="10.00">xtb_gfnff_eg::abhgfnff</text>
<text text-anchor="middle" x="869.5" y="-451.5" font-family="Helvetica,sans-Serif" font-size="10.00">_eg2_rnr</text>
</a>
</g>
</g>
<!-- Node1&#45;&gt;Node7 -->
<g id="edge6" class="edge">
<title>Node1&#45;&gt;Node7</title>
<path fill="none" stroke="midnightblue" d="M1005.95,-382.91C988.53,-398.09 960.91,-420.53 934,-435.5 928.13,-438.77 921.73,-441.77 915.32,-444.46"/>
<polygon fill="midnightblue" stroke="midnightblue" points="1008.47,-385.35 1013.64,-376.1 1003.83,-380.11 1008.47,-385.35"/>
</g>
<!-- Node8 -->
<g id="node8" class="node">
<title>Node8</title>
<g id="a_node8"><a xlink:href="namespacextb__gfnff__eg.html#a80f04be76c597dabcefe29355aa62ec4" target="_top" xlink:title=" ">
<polygon fill="white" stroke="black" points="815.5,-395.5 815.5,-425.5 923.5,-425.5 923.5,-395.5 815.5,-395.5"/>
<text text-anchor="start" x="823.5" y="-413.5" font-family="Helvetica,sans-Serif" font-size="10.00">xtb_gfnff_eg::abhgfnff</text>
<text text-anchor="middle" x="869.5" y="-402.5" font-family="Helvetica,sans-Serif" font-size="10.00">_eg2new</text>
</a>
</g>
</g>
<!-- Node1&#45;&gt;Node8 -->
<g id="edge8" class="edge">
<title>Node1&#45;&gt;Node8</title>
<path fill="none" stroke="midnightblue" d="M981.05,-378.81C963.06,-383.97 941.97,-390.01 923.06,-395.43"/>
<polygon fill="midnightblue" stroke="midnightblue" points="982.04,-382.17 990.69,-376.05 980.12,-375.44 982.04,-382.17"/>
</g>
<!-- Node9 -->
<g id="node9" class="node">
<title>Node9</title>
<g id="a_node9"><a xlink:href="namespacextb__gfnff__eg.html#ac21efbb550b6edae8c66215658f3e721" target="_top" xlink:title=" ">
<polygon fill="white" stroke="black" points="805,-357 805,-376 934,-376 934,-357 805,-357"/>
<text text-anchor="middle" x="869.5" y="-364" font-family="Helvetica,sans-Serif" font-size="10.00">xtb_gfnff_eg::abhgfnff_eg3</text>
</a>
</g>
</g>
<!-- Node1&#45;&gt;Node9 -->
<g id="edge10" class="edge">
<title>Node1&#45;&gt;Node9</title>
<path fill="none" stroke="midnightblue" d="M959.69,-366.5C951.23,-366.5 942.56,-366.5 934.11,-366.5"/>
<polygon fill="midnightblue" stroke="midnightblue" points="959.88,-370 969.88,-366.5 959.88,-363 959.88,-370"/>
</g>
<!-- Node10 -->
<g id="node10" class="node">
<title>Node10</title>
<g id="a_node10"><a xlink:href="namespacextb__gfnff__eg.html#a249f6d9c62394b50a1f8cca4389819c3" target="_top" xlink:title=" ">
<polygon fill="white" stroke="black" points="815.5,-269.5 815.5,-299.5 923.5,-299.5 923.5,-269.5 815.5,-269.5"/>
<text text-anchor="start" x="823.5" y="-287.5" font-family="Helvetica,sans-Serif" font-size="10.00">xtb_gfnff_eg::abhgfnff</text>
<text text-anchor="middle" x="869.5" y="-276.5" font-family="Helvetica,sans-Serif" font-size="10.00">_eg3_add</text>
</a>
</g>
</g>
<!-- Node1&#45;&gt;Node10 -->
<g id="edge12" class="edge">
<title>Node1&#45;&gt;Node10</title>
<path fill="none" stroke="midnightblue" d="M1002.25,-351.07C984.43,-338.85 958.29,-321.84 934,-309.5 927.03,-305.96 919.43,-302.58 911.99,-299.52"/>
<polygon fill="midnightblue" stroke="midnightblue" points="1000.54,-354.15 1010.75,-356.98 1004.53,-348.4 1000.54,-354.15"/>
</g>
<!-- Node11 -->
<g id="node11" class="node">
<title>Node11</title>
<g id="a_node11"><a xlink:href="namespacextb__gfnff__eg.html#a96f44d5568fa1a8f5911e6c4534b33a1" target="_top" xlink:title=" ">
<polygon fill="white" stroke="black" points="815.5,-220.5 815.5,-250.5 923.5,-250.5 923.5,-220.5 815.5,-220.5"/>
<text text-anchor="start" x="823.5" y="-238.5" font-family="Helvetica,sans-Serif" font-size="10.00">xtb_gfnff_eg::abhgfnff</text>
<text text-anchor="middle" x="869.5" y="-227.5" font-family="Helvetica,sans-Serif" font-size="10.00">_eg3_mul</text>
</a>
</g>
</g>
<!-- Node1&#45;&gt;Node11 -->
<g id="edge13" class="edge">
<title>Node1&#45;&gt;Node11</title>
<path fill="none" stroke="midnightblue" d="M1012.83,-348.12C997.66,-324.58 968.47,-283.92 934,-259.5 929.29,-256.16 924.05,-253.22 918.67,-250.65"/>
<polygon fill="midnightblue" stroke="midnightblue" points="1009.99,-350.19 1018.27,-356.79 1015.92,-346.46 1009.99,-350.19"/>
</g>
<!-- Node12 -->
<g id="node12" class="node">
<title>Node12</title>
<g id="a_node12"><a xlink:href="namespacextb__gfnff__ini.html#ad57146d4119080bb244e8f19309414b5" target="_top" xlink:title=" ">
<polygon fill="white" stroke="black" points="816,-319 816,-338 923,-338 923,-319 816,-319"/>
<text text-anchor="middle" x="869.5" y="-326" font-family="Helvetica,sans-Serif" font-size="10.00">xtb_gfnff_ini::gfnff_ini</text>
</a>
</g>
</g>
<!-- Node1&#45;&gt;Node12 -->
<g id="edge14" class="edge">
<title>Node1&#45;&gt;Node12</title>
<path fill="none" stroke="midnightblue" d="M975.36,-354.46C953.92,-349.15 929.08,-343 908.96,-338.02"/>
<polygon fill="midnightblue" stroke="midnightblue" points="974.72,-357.91 985.27,-356.91 976.4,-351.11 974.72,-357.91"/>
</g>
<!-- Node3 -->
<g id="node3" class="node">
<title>Node3</title>
<g id="a_node3"><a xlink:href="namespacextb__gfnff__eg.html#a3c6317a91da8d6eb6e333fdb8ee1f3d9" target="_top" xlink:title=" ">
<polygon fill="white" stroke="black" points="661,-450 661,-469 769,-469 769,-450 661,-450"/>
<text text-anchor="middle" x="715" y="-457" font-family="Helvetica,sans-Serif" font-size="10.00">xtb_gfnff_eg::gfnff_eg</text>
</a>
</g>
</g>
<!-- Node2&#45;&gt;Node3 -->
<g id="edge2" class="edge">
<title>Node2&#45;&gt;Node3</title>
<path fill="none" stroke="midnightblue" d="M825.73,-491.16C801.44,-484.15 771.49,-475.51 749.03,-469.03"/>
<polygon fill="midnightblue" stroke="midnightblue" points="824.83,-494.54 835.41,-493.95 826.77,-487.82 824.83,-494.54"/>
</g>
<!-- Node4 -->
<g id="node4" class="node">
<title>Node4</title>
<g id="a_node4"><a xlink:href="namespacextb__gfnff__calculator.html#a8775e737196933e41e48728956ddf782" target="_top" xlink:title=" ">
<polygon fill="white" stroke="black" points="494.5,-488.5 494.5,-518.5 595.5,-518.5 595.5,-488.5 494.5,-488.5"/>
<text text-anchor="start" x="502.5" y="-506.5" font-family="Helvetica,sans-Serif" font-size="10.00">xtb_gfnff_calculator</text>
<text text-anchor="middle" x="545" y="-495.5" font-family="Helvetica,sans-Serif" font-size="10.00">::singlepoint</text>
</a>
</g>
</g>
<!-- Node3&#45;&gt;Node4 -->
<g id="edge3" class="edge">
<title>Node3&#45;&gt;Node4</title>
<path fill="none" stroke="midnightblue" d="M667.63,-471.64C645.31,-477.49 618.52,-484.51 595.77,-490.47"/>
<polygon fill="midnightblue" stroke="midnightblue" points="668.76,-474.97 677.55,-469.05 666.99,-468.2 668.76,-474.97"/>
</g>
<!-- Node5 -->
<g id="node5" class="node">
<title>Node5</title>
<g id="a_node5"><a xlink:href="gfnff_8f90.html#a3debb77ee35e9cf115d69ef59490c6c5" target="_top" xlink:title=" ">
<polygon fill="white" stroke="black" points="318,-471 318,-490 391,-490 391,-471 318,-471"/>
<text text-anchor="middle" x="354.5" y="-478" font-family="Helvetica,sans-Serif" font-size="10.00">test_gfnff_sp</text>
</a>
</g>
</g>
<!-- Node3&#45;&gt;Node5 -->
<g id="edge4" class="edge">
<title>Node3&#45;&gt;Node5</title>
<path fill="none" stroke="midnightblue" d="M650.39,-463.23C574.86,-467.65 451.53,-474.87 391.12,-478.41"/>
<polygon fill="midnightblue" stroke="midnightblue" points="650.94,-466.7 660.72,-462.62 650.53,-459.71 650.94,-466.7"/>
</g>
<!-- Node6 -->
<g id="node6" class="node">
<title>Node6</title>
<g id="a_node6"><a xlink:href="tests__peeq_8f90.html#a87ff5319e0d2e627a4f71d7df0d14891" target="_top" xlink:title=" ">
<polygon fill="white" stroke="black" points="151,-326 151,-345 219,-345 219,-326 151,-326"/>
<text text-anchor="middle" x="185" y="-333" font-family="Helvetica,sans-Serif" font-size="10.00">peeq_tester</text>
</a>
</g>
</g>
<!-- Node5&#45;&gt;Node6 -->
<g id="edge5" class="edge">
<title>Node5&#45;&gt;Node6</title>
<path fill="none" stroke="midnightblue" d="M308.11,-473.87C298.3,-471.08 288.37,-467.12 280,-461.5 233.78,-430.46 201.53,-368.88 190.34,-345.14"/>
<polygon fill="midnightblue" stroke="midnightblue" points="307.27,-477.26 317.82,-476.28 308.96,-470.47 307.27,-477.26"/>
</g>
<!-- Node7&#45;&gt;Node3 -->
<g id="edge7" class="edge">
<title>Node7&#45;&gt;Node3</title>
<path fill="none" stroke="midnightblue" d="M804.84,-459.5C792.93,-459.5 780.6,-459.5 769.05,-459.5"/>
<polygon fill="midnightblue" stroke="midnightblue" points="805.16,-463 815.16,-459.5 805.16,-456 805.16,-463"/>
</g>
<!-- Node8&#45;&gt;Node3 -->
<g id="edge9" class="edge">
<title>Node8&#45;&gt;Node3</title>
<path fill="none" stroke="midnightblue" d="M811.74,-428.74C789.35,-435.93 764.55,-443.9 745.8,-449.92"/>
<polygon fill="midnightblue" stroke="midnightblue" points="813.05,-431.99 821.5,-425.6 810.91,-425.33 813.05,-431.99"/>
</g>
<!-- Node9&#45;&gt;Node3 -->
<g id="edge11" class="edge">
<title>Node9&#45;&gt;Node3</title>
<path fill="none" stroke="midnightblue" d="M820.36,-379.49C815.05,-381.56 809.83,-383.89 805,-386.5 772.66,-404 740.83,-434.06 725.49,-449.58"/>
<polygon fill="midnightblue" stroke="midnightblue" points="821.69,-382.73 829.92,-376.06 819.33,-376.14 821.69,-382.73"/>
</g>
<!-- Node13 -->
<g id="node13" class="node">
<title>Node13</title>
<g id="a_node13"><a xlink:href="namespacextb__gfnff__setup.html#a4aeb50102462398d4f57781b1c421257" target="_top" xlink:title=" ">
<polygon fill="white" stroke="black" points="662,-293.5 662,-323.5 768,-323.5 768,-293.5 662,-293.5"/>
<text text-anchor="start" x="670" y="-311.5" font-family="Helvetica,sans-Serif" font-size="10.00">xtb_gfnff_setup::gfnff</text>
<text text-anchor="middle" x="715" y="-300.5" font-family="Helvetica,sans-Serif" font-size="10.00">_setup</text>
</a>
</g>
</g>
<!-- Node12&#45;&gt;Node13 -->
<g id="edge15" class="edge">
<title>Node12&#45;&gt;Node13</title>
<path fill="none" stroke="midnightblue" d="M805.31,-320.21C792.91,-318.59 780.03,-316.9 768.04,-315.33"/>
<polygon fill="midnightblue" stroke="midnightblue" points="805.22,-323.73 815.59,-321.56 806.13,-316.79 805.22,-323.73"/>
</g>
<!-- Node14 -->
<g id="node14" class="node">
<title>Node14</title>
<g id="a_node14"><a xlink:href="namespacextb__main__setup.html#a01dff07fc5b7e8c442d7e62c00377fc4" target="_top" xlink:title=" ">
<polygon fill="white" stroke="black" points="465,-258 465,-277 625,-277 625,-258 465,-258"/>
<text text-anchor="middle" x="545" y="-265" font-family="Helvetica,sans-Serif" font-size="10.00">xtb_main_setup::newgffcalculator</text>
</a>
</g>
</g>
<!-- Node13&#45;&gt;Node14 -->
<g id="edge16" class="edge">
<title>Node13&#45;&gt;Node14</title>
<path fill="none" stroke="midnightblue" d="M652,-293.37C629.62,-287.91 605,-281.9 585.12,-277.05"/>
<polygon fill="midnightblue" stroke="midnightblue" points="651.22,-296.78 661.76,-295.75 652.88,-289.98 651.22,-296.78"/>
</g>
<!-- Node14&#45;&gt;Node5 -->
<g id="edge37" class="edge">
<title>Node14&#45;&gt;Node5</title>
<path fill="none" stroke="midnightblue" d="M538.04,-287.11C525.03,-326.53 490.23,-415.5 429,-461.5 418.15,-469.65 404.13,-474.32 391.25,-476.99"/>
<polygon fill="midnightblue" stroke="midnightblue" points="541.44,-287.98 541.14,-277.39 534.77,-285.86 541.44,-287.98"/>
</g>
<!-- Node15 -->
<g id="node15" class="node">
<title>Node15</title>
<g id="a_node15"><a xlink:href="namespacextb__api__calculator.html#a6d6689e12fc963d1bc325f687a8d7d5d" target="_top" xlink:title=" ">
<polygon fill="white" stroke="black" points="307,-132.5 307,-162.5 402,-162.5 402,-132.5 307,-132.5"/>
<text text-anchor="start" x="315" y="-150.5" font-family="Helvetica,sans-Serif" font-size="10.00">xtb_api_calculator</text>
<text text-anchor="middle" x="354.5" y="-139.5" font-family="Helvetica,sans-Serif" font-size="10.00">::loadgfnff_api</text>
</a>
</g>
</g>
<!-- Node14&#45;&gt;Node15 -->
<g id="edge17" class="edge">
<title>Node14&#45;&gt;Node15</title>
<path fill="none" stroke="midnightblue" d="M527.55,-250.55C506.45,-229.64 467.9,-194.21 429,-172.5 420.64,-167.84 411.27,-163.84 402.08,-160.49"/>
<polygon fill="midnightblue" stroke="midnightblue" points="525.22,-253.17 534.75,-257.79 530.18,-248.23 525.22,-253.17"/>
</g>
<!-- Node16 -->
<g id="node16" class="node">
<title>Node16</title>
<g id="a_node16"><a xlink:href="namespacextb__main__setup.html#a2873ec6fc259dc1f93f4c74d34501d91" target="_top" xlink:title=" ">
<polygon fill="white" stroke="black" points="280,-94 280,-113 429,-113 429,-94 280,-94"/>
<text text-anchor="middle" x="354.5" y="-101" font-family="Helvetica,sans-Serif" font-size="10.00">xtb_main_setup::newcalculator</text>
</a>
</g>
</g>
<!-- Node14&#45;&gt;Node16 -->
<g id="edge18" class="edge">
<title>Node14&#45;&gt;Node16</title>
<path fill="none" stroke="midnightblue" d="M534.6,-249.06C517.79,-217.99 479.55,-155.38 429,-122.5 423.03,-118.62 416.31,-115.53 409.42,-113.07"/>
<polygon fill="midnightblue" stroke="midnightblue" points="531.54,-250.75 539.3,-257.96 537.73,-247.48 531.54,-250.75"/>
</g>
<!-- Node19 -->
<g id="node19" class="node">
<title>Node19</title>
<g id="a_node19"><a xlink:href="namespacextb__gfnff__convert.html#adf399b47b9f2a8364327d9d5c38cb2b8" target="_top" xlink:title=" ">
<polygon fill="white" stroke="black" points="307,-44.5 307,-74.5 402,-74.5 402,-44.5 307,-44.5"/>
<text text-anchor="start" x="315" y="-62.5" font-family="Helvetica,sans-Serif" font-size="10.00">xtb_gfnff_convert::</text>
<text text-anchor="middle" x="354.5" y="-51.5" font-family="Helvetica,sans-Serif" font-size="10.00">struc_convert</text>
</a>
</g>
</g>
<!-- Node14&#45;&gt;Node19 -->
<g id="edge21" class="edge">
<title>Node14&#45;&gt;Node19</title>
<path fill="none" stroke="midnightblue" d="M537.05,-248.36C522.65,-211.34 486.07,-129.6 429,-84.5 421.17,-78.32 411.73,-73.62 402.26,-70.06"/>
<polygon fill="midnightblue" stroke="midnightblue" points="533.86,-249.82 540.66,-257.94 540.41,-247.35 533.86,-249.82"/>
</g>
<!-- Node20 -->
<g id="node20" class="node">
<title>Node20</title>
<g id="a_node20"><a xlink:href="gfnff_8f90.html#a37a3363fde733941b6467279048767fb" target="_top" xlink:title=" ">
<polygon fill="white" stroke="black" points="313,-433 313,-452 396,-452 396,-433 313,-433"/>
<text text-anchor="middle" x="354.5" y="-440" font-family="Helvetica,sans-Serif" font-size="10.00">test_gfnff_gbsa</text>
</a>
</g>
</g>
<!-- Node14&#45;&gt;Node20 -->
<g id="edge23" class="edge">
<title>Node14&#45;&gt;Node20</title>
<path fill="none" stroke="midnightblue" d="M535.42,-286.43C519.42,-319.54 481.8,-387.82 429,-423.5 419.28,-430.07 407.44,-434.37 396.12,-437.18"/>
<polygon fill="midnightblue" stroke="midnightblue" points="538.6,-287.9 539.69,-277.36 532.26,-284.92 538.6,-287.9"/>
</g>
<!-- Node21 -->
<g id="node21" class="node">
<title>Node21</title>
<g id="a_node21"><a xlink:href="gfnff_8f90.html#a1537c4a10909349e4a2fd085248fc0cb" target="_top" xlink:title=" ">
<polygon fill="white" stroke="black" points="318,-395 318,-414 391,-414 391,-395 318,-395"/>
<text text-anchor="middle" x="354.5" y="-402" font-family="Helvetica,sans-Serif" font-size="10.00">test_gfnff_hb</text>
</a>
</g>
</g>
<!-- Node14&#45;&gt;Node21 -->
<g id="edge25" class="edge">
<title>Node14&#45;&gt;Node21</title>
<path fill="none" stroke="midnightblue" d="M531.61,-285.39C512.6,-311.45 473.71,-359.56 429,-385.5 417.49,-392.18 403.62,-396.55 391.04,-399.38"/>
<polygon fill="midnightblue" stroke="midnightblue" points="534.52,-287.34 537.48,-277.17 528.82,-283.27 534.52,-287.34"/>
</g>
<!-- Node22 -->
<g id="node22" class="node">
<title>Node22</title>
<g id="a_node22"><a xlink:href="gfnff_8f90.html#a99d4eefcd1d33ae189dc8ce62bb94464" target="_top" xlink:title=" ">
<polygon fill="white" stroke="black" points="304,-345.5 304,-375.5 405,-375.5 405,-345.5 304,-345.5"/>
<text text-anchor="start" x="312" y="-363.5" font-family="Helvetica,sans-Serif" font-size="10.00">test_gfnff_mindless</text>
<text text-anchor="middle" x="354.5" y="-352.5" font-family="Helvetica,sans-Serif" font-size="10.00">_basic</text>
</a>
</g>
</g>
<!-- Node14&#45;&gt;Node22 -->
<g id="edge27" class="edge">
<title>Node14&#45;&gt;Node22</title>
<path fill="none" stroke="midnightblue" d="M521.45,-282.73C498.79,-297.57 462.52,-320.09 429,-335.5 421.16,-339.1 412.65,-342.47 404.29,-345.49"/>
<polygon fill="midnightblue" stroke="midnightblue" points="523.59,-285.51 529.99,-277.07 519.72,-279.68 523.59,-285.51"/>
</g>
<!-- Node23 -->
<g id="node23" class="node">
<title>Node23</title>
<g id="a_node23"><a xlink:href="gfnff_8f90.html#a0e92e95bfacd9d1eead0f4b7059859b2" target="_top" xlink:title=" ">
<polygon fill="white" stroke="black" points="304,-296.5 304,-326.5 405,-326.5 405,-296.5 304,-296.5"/>
<text text-anchor="start" x="312" y="-314.5" font-family="Helvetica,sans-Serif" font-size="10.00">test_gfnff_mindless</text>
<text text-anchor="middle" x="354.5" y="-303.5" font-family="Helvetica,sans-Serif" font-size="10.00">_solvation</text>
</a>
</g>
</g>
<!-- Node14&#45;&gt;Node23 -->
<g id="edge29" class="edge">
<title>Node14&#45;&gt;Node23</title>
<path fill="none" stroke="midnightblue" d="M493.32,-279.33C465.92,-285.72 432.24,-293.59 405.03,-299.94"/>
<polygon fill="midnightblue" stroke="midnightblue" points="494.16,-282.73 503.1,-277.05 492.56,-275.91 494.16,-282.73"/>
</g>
<!-- Node24 -->
<g id="node24" class="node">
<title>Node24</title>
<g id="a_node24"><a xlink:href="gfnff_8f90.html#a3524b271100f047e2d666a7567eb379a" target="_top" xlink:title=" ">
<polygon fill="white" stroke="black" points="315.5,-258 315.5,-277 393.5,-277 393.5,-258 315.5,-258"/>
<text text-anchor="middle" x="354.5" y="-265" font-family="Helvetica,sans-Serif" font-size="10.00">test_gfnff_pdb</text>
</a>
</g>
</g>
<!-- Node14&#45;&gt;Node24 -->
<g id="edge31" class="edge">
<title>Node14&#45;&gt;Node24</title>
<path fill="none" stroke="midnightblue" d="M454.69,-267.5C433.16,-267.5 411.28,-267.5 393.57,-267.5"/>
<polygon fill="midnightblue" stroke="midnightblue" points="454.88,-271 464.88,-267.5 454.88,-264 454.88,-271"/>
</g>
<!-- Node25 -->
<g id="node25" class="node">
<title>Node25</title>
<g id="a_node25"><a xlink:href="gfnff_8f90.html#a191f0af42b3874a93555aee466e8bc8c" target="_top" xlink:title=" ">
<polygon fill="white" stroke="black" points="306.5,-220 306.5,-239 402.5,-239 402.5,-220 306.5,-220"/>
<text text-anchor="middle" x="354.5" y="-227" font-family="Helvetica,sans-Serif" font-size="10.00">test_gfnff_scaleup</text>
</a>
</g>
</g>
<!-- Node14&#45;&gt;Node25 -->
<g id="edge33" class="edge">
<title>Node14&#45;&gt;Node25</title>
<path fill="none" stroke="midnightblue" d="M486.41,-255.89C459.6,-250.49 428.1,-244.14 402.72,-239.02"/>
<polygon fill="midnightblue" stroke="midnightblue" points="485.94,-259.37 496.43,-257.91 487.32,-252.5 485.94,-259.37"/>
</g>
<!-- Node26 -->
<g id="node26" class="node">
<title>Node26</title>
<g id="a_node26"><a xlink:href="gfnff_8f90.html#a63adb2c49c27ebcfcd6ea49fe8259b80" target="_top" xlink:title=" ">
<polygon fill="white" stroke="black" points="316.5,-182 316.5,-201 392.5,-201 392.5,-182 316.5,-182"/>
<text text-anchor="middle" x="354.5" y="-189" font-family="Helvetica,sans-Serif" font-size="10.00">test_gfnff_sdf</text>
</a>
</g>
</g>
<!-- Node14&#45;&gt;Node26 -->
<g id="edge35" class="edge">
<title>Node14&#45;&gt;Node26</title>
<path fill="none" stroke="midnightblue" d="M518.31,-252.84C495.44,-240.26 460.79,-222.34 429,-210.5 417.39,-206.18 404.4,-202.47 392.6,-199.5"/>
<polygon fill="midnightblue" stroke="midnightblue" points="516.91,-256.06 527.35,-257.87 520.31,-249.95 516.91,-256.06"/>
</g>
<!-- Node27 -->
<g id="node27" class="node">
<title>Node27</title>
<g id="a_node27"><a xlink:href="namespacextb__prog__topology.html#aa263269ef9a32674220b4f1bfda0c066" target="_top" xlink:title="Main program of the topology submodule.">
<polygon fill="white" stroke="black" points="135.5,-0.5 135.5,-30.5 234.5,-30.5 234.5,-0.5 135.5,-0.5"/>
<text text-anchor="start" x="143.5" y="-18.5" font-family="Helvetica,sans-Serif" font-size="10.00">xtb_prog_topology::</text>
<text text-anchor="middle" x="185" y="-7.5" font-family="Helvetica,sans-Serif" font-size="10.00">xtbtopology</text>
</a>
</g>
</g>
<!-- Node14&#45;&gt;Node27 -->
<g id="edge38" class="edge">
<title>Node14&#45;&gt;Node27</title>
<path fill="none" stroke="midnightblue" d="M540.92,-247.81C532.52,-201.49 504.57,-85.67 429,-34.5 371.36,4.53 287.46,1.24 234.85,-6.09"/>
<polygon fill="midnightblue" stroke="midnightblue" points="537.49,-248.5 542.61,-257.78 544.39,-247.33 537.49,-248.5"/>
</g>
<!-- Node17 -->
<g id="node17" class="node">
<title>Node17</title>
<g id="a_node17"><a xlink:href="namespacextb__prog__main.html#a92b3b61ee04235e6343f652095682529" target="_top" xlink:title=" ">
<polygon fill="white" stroke="black" points="126,-50 126,-69 244,-69 244,-50 126,-50"/>
<text text-anchor="middle" x="185" y="-57" font-family="Helvetica,sans-Serif" font-size="10.00">xtb_prog_main::xtbmain</text>
</a>
</g>
</g>
<!-- Node16&#45;&gt;Node17 -->
<g id="edge19" class="edge">
<title>Node16&#45;&gt;Node17</title>
<path fill="none" stroke="midnightblue" d="M307.23,-91.35C280.43,-84.3 247.17,-75.57 222.27,-69.03"/>
<polygon fill="midnightblue" stroke="midnightblue" points="306.59,-94.8 317.15,-93.95 308.37,-88.03 306.59,-94.8"/>
</g>
<!-- Node18 -->
<g id="node18" class="node">
<title>Node18</title>
<g id="a_node18"><a xlink:href="primary_8f90.html#a2a67903cf5be605c5b6d3c362c6a3c5c" target="_top" xlink:title="The primary driver for the xtb program package.">
<polygon fill="white" stroke="black" points="0,-28 0,-47 90,-47 90,-28 0,-28"/>
<text text-anchor="middle" x="45" y="-35" font-family="Helvetica,sans-Serif" font-size="10.00">xtb_prog_primary</text>
</a>
</g>
</g>
<!-- Node17&#45;&gt;Node18 -->
<g id="edge20" class="edge">
<title>Node17&#45;&gt;Node18</title>
<path fill="none" stroke="midnightblue" d="M115.73,-48.62C107.06,-47.23 98.37,-45.85 90.22,-44.55"/>
<polygon fill="midnightblue" stroke="midnightblue" points="115.45,-52.12 125.88,-50.23 116.55,-45.2 115.45,-52.12"/>
</g>
<!-- Node19&#45;&gt;Node17 -->
<g id="edge22" class="edge">
<title>Node19&#45;&gt;Node17</title>
<path fill="none" stroke="midnightblue" d="M296.54,-59.5C279.61,-59.5 261.05,-59.5 244.06,-59.5"/>
<polygon fill="midnightblue" stroke="midnightblue" points="296.84,-63 306.84,-59.5 296.84,-56 296.84,-63"/>
</g>
<!-- Node20&#45;&gt;Node6 -->
<g id="edge24" class="edge">
<title>Node20&#45;&gt;Node6</title>
<path fill="none" stroke="midnightblue" d="M303.12,-433.07C295.13,-430.57 287.14,-427.43 280,-423.5 242.19,-402.71 207.96,-363.25 193.41,-345.09"/>
<polygon fill="midnightblue" stroke="midnightblue" points="302.26,-436.46 312.83,-435.81 304.16,-429.72 302.26,-436.46"/>
</g>
<!-- Node21&#45;&gt;Node6 -->
<g id="edge26" class="edge">
<title>Node21&#45;&gt;Node6</title>
<path fill="none" stroke="midnightblue" d="M307.87,-394.49C298.52,-391.94 288.84,-388.94 280,-385.5 251.06,-374.24 219.62,-356.23 201.43,-345.17"/>
<polygon fill="midnightblue" stroke="midnightblue" points="307.26,-397.95 317.82,-397.07 309.02,-391.17 307.26,-397.95"/>
</g>
<!-- Node22&#45;&gt;Node6 -->
<g id="edge28" class="edge">
<title>Node22&#45;&gt;Node6</title>
<path fill="none" stroke="midnightblue" d="M293.56,-351.55C268.53,-347.82 240.4,-343.62 219.2,-340.45"/>
<polygon fill="midnightblue" stroke="midnightblue" points="293.29,-355.05 303.7,-353.07 294.32,-348.13 293.29,-355.05"/>
</g>
<!-- Node23&#45;&gt;Node6 -->
<g id="edge30" class="edge">
<title>Node23&#45;&gt;Node6</title>
<path fill="none" stroke="midnightblue" d="M293.56,-320.09C268.53,-323.68 240.4,-327.7 219.2,-330.74"/>
<polygon fill="midnightblue" stroke="midnightblue" points="294.3,-323.52 303.7,-318.64 293.3,-316.59 294.3,-323.52"/>
</g>
<!-- Node24&#45;&gt;Node6 -->
<g id="edge32" class="edge">
<title>Node24&#45;&gt;Node6</title>
<path fill="none" stroke="midnightblue" d="M305.32,-278.27C296.78,-280.66 288.05,-283.41 280,-286.5 251.31,-297.52 220.05,-315.01 201.78,-325.85"/>
<polygon fill="midnightblue" stroke="midnightblue" points="306.45,-281.6 315.21,-275.64 304.65,-274.83 306.45,-281.6"/>
</g>
<!-- Node25&#45;&gt;Node6 -->
<g id="edge34" class="edge">
<title>Node25&#45;&gt;Node6</title>
<path fill="none" stroke="midnightblue" d="M296.56,-241.17C290.81,-243.24 285.19,-245.67 280,-248.5 242.53,-268.96 208.39,-307.67 193.66,-325.74"/>
<polygon fill="midnightblue" stroke="midnightblue" points="297.87,-244.43 306.3,-238.01 295.71,-237.77 297.87,-244.43"/>
</g>
<!-- Node26&#45;&gt;Node6 -->
<g id="edge36" class="edge">
<title>Node26&#45;&gt;Node6</title>
<path fill="none" stroke="midnightblue" d="M306.38,-198.66C297.14,-201.42 287.88,-205.23 280,-210.5 233.96,-241.29 201.6,-302.39 190.36,-325.93"/>
<polygon fill="midnightblue" stroke="midnightblue" points="307.54,-201.98 316.34,-196.07 305.78,-195.21 307.54,-201.98"/>
</g>
<!-- Node27&#45;&gt;Node18 -->
<g id="edge39" class="edge">
<title>Node27&#45;&gt;Node18</title>
<path fill="none" stroke="midnightblue" d="M125.15,-24.88C113.39,-26.76 101.23,-28.7 90.07,-30.47"/>
<polygon fill="midnightblue" stroke="midnightblue" points="126.02,-28.29 135.35,-23.26 124.92,-21.37 126.02,-28.29"/>
</g>
</g>
</svg>
        <g id="navigator" transform="translate(0 0)" fill="#404254">
                <rect fill="#f2f5e9" fill-opacity="0.5" stroke="#606060" stroke-width=".5" x="0" y="0" width="60" height="60"/>
                <use id="zoomplus" xlink:href="#zoomPlus" x="17" y="9" onmousedown="handleZoom(evt,'in')"/>
                <use id="zoomminus" xlink:href="#zoomMin" x="42" y="9" onmousedown="handleZoom(evt,'out')"/>
                <use id="reset" xlink:href="#resetDef" x="30" y="36" onmousedown="handleReset()"/>
                <g id="arrowUp" xlink:href="#dirArrow" transform="translate(30 24)" onmousedown="handlePan(0,-1)">
                  <use xlink:href="#rim" fill="#404040">
                        <set attributeName="fill" to="#808080" begin="arrowUp.mouseover" end="arrowUp.mouseout"/>
                  </use>
                  <path fill="none" stroke="white" stroke-width="1.5" d="M0,-3.0v7 M-2.5,-0.5L0,-3.0L2.5,-0.5"/>
                </g>
                <g id="arrowRight" xlink:href="#dirArrow" transform="rotate(90) translate(36 -43)" onmousedown="handlePan(1,0)">
                  <use xlink:href="#rim" fill="#404040">
                        <set attributeName="fill" to="#808080" begin="arrowRight.mouseover" end="arrowRight.mouseout"/>
                  </use>
                  <path fill="none" stroke="white" stroke-width="1.5" d="M0,-3.0v7 M-2.5,-0.5L0,-3.0L2.5,-0.5"/>
                </g>
                <g id="arrowDown" xlink:href="#dirArrow" transform="rotate(180) translate(-30 -48)" onmousedown="handlePan(0,1)">
                  <use xlink:href="#rim" fill="#404040">
                        <set attributeName="fill" to="#808080" begin="arrowDown.mouseover" end="arrowDown.mouseout"/>
                  </use>
                  <path fill="none" stroke="white" stroke-width="1.5" d="M0,-3.0v7 M-2.5,-0.5L0,-3.0L2.5,-0.5"/>
                </g>
                <g id="arrowLeft" xlink:href="#dirArrow" transform="rotate(270) translate(-36 17)" onmousedown="handlePan(-1,0)">
                  <use xlink:href="#rim" fill="#404040">
                        <set attributeName="fill" to="#808080" begin="arrowLeft.mouseover" end="arrowLeft.mouseout"/>
                  </use>
                  <path fill="none" stroke="white" stroke-width="1.5" d="M0,-3.0v7 M-2.5,-0.5L0,-3.0L2.5,-0.5"/>
                </g>
        </g>
        <svg viewBox="0 0 15 15" width="100%" height="30px" preserveAspectRatio="xMaxYMin meet">
         <g id="arrow_out" transform="scale(0.3 0.3)">
          <a xlink:href="namespacextb__gfnff__ini2_a68d1d020d0e7196fce23a88fac12e883_icgraph_org.svg" target="_base">
           <rect id="button" ry="5" rx="5" y="6" x="6" height="38" width="38"
                fill="#f2f5e9" fill-opacity="0.5" stroke="#606060" stroke-width="1.0"/>
           <path id="arrow"
             d="M 11.500037,31.436501 C 11.940474,20.09759 22.043105,11.32322 32.158766,21.979434 L 37.068811,17.246167 C 37.068811,17.246167 37.088388,32 37.088388,32 L 22.160133,31.978069 C 22.160133,31.978069 26.997745,27.140456 26.997745,27.140456 C 18.528582,18.264221 13.291696,25.230495 11.500037,31.436501 z"
             style="fill:#404040;"/>
          </a>
         </g>
        </svg>
</svg>
