<?xml version="1.0" encoding="UTF-8" standalone="no"?>
<!DOCTYPE svg PUBLIC "-//W3C//DTD SVG 1.1//EN"
 "http://www.w3.org/Graphics/SVG/1.1/DTD/svg11.dtd">
<!-- Generated by graphviz version 2.46.0 (20210122.1329)
 -->
<!-- Title: xtb_setmod::set_spin Pages: 1 -->
<svg width="740pt" height="142pt"
 viewBox="0.00 0.00 740.00 142.00" xmlns="http://www.w3.org/2000/svg" xmlns:xlink="http://www.w3.org/1999/xlink">
<g id="graph0" class="graph" transform="scale(1 1) rotate(0) translate(4 138)">
<title>xtb_setmod::set_spin</title>
<polygon fill="white" stroke="transparent" points="-4,4 -4,-138 736,-138 736,4 -4,4"/>
<!-- Node1 -->
<g id="node1" class="node">
<title>Node1</title>
<g id="a_node1"><a xlink:title=" ">
<polygon fill="#bfbfbf" stroke="black" points="624,-57.5 624,-76.5 732,-76.5 732,-57.5 624,-57.5"/>
<text text-anchor="middle" x="678" y="-64.5" font-family="Helvetica,sans-Serif" font-size="10.00">xtb_setmod::set_spin</text>
</a>
</g>
</g>
<!-- Node2 -->
<g id="node2" class="node">
<title>Node2</title>
<g id="a_node2"><a xlink:href="namespacextb__prog__main.html#a7342d7c4bae29e1a79a8c6c8e8141d70" target="_top" xlink:title="Parse command line arguments and forward them to settings.">
<polygon fill="white" stroke="black" points="280,-114.5 280,-133.5 434,-133.5 434,-114.5 280,-114.5"/>
<text text-anchor="middle" x="357" y="-121.5" font-family="Helvetica,sans-Serif" font-size="10.00">xtb_prog_main::parsearguments</text>
</a>
</g>
</g>
<!-- Node1&#45;&gt;Node2 -->
<g id="edge1" class="edge">
<title>Node1&#45;&gt;Node2</title>
<path fill="none" stroke="midnightblue" d="M646.51,-80.47C629.59,-87.39 607.99,-95.33 588,-100 537.47,-111.81 479.34,-117.81 434.15,-120.86"/>
<polygon fill="midnightblue" stroke="midnightblue" points="648.01,-83.64 655.88,-76.55 645.31,-77.18 648.01,-83.64"/>
</g>
<!-- Node3 -->
<g id="node3" class="node">
<title>Node3</title>
<g id="a_node3"><a xlink:href="namespacextb__prog__main.html#a92b3b61ee04235e6343f652095682529" target="_top" xlink:title=" ">
<polygon fill="white" stroke="black" points="126,-76.5 126,-95.5 244,-95.5 244,-76.5 126,-76.5"/>
<text text-anchor="middle" x="185" y="-83.5" font-family="Helvetica,sans-Serif" font-size="10.00">xtb_prog_main::xtbmain</text>
</a>
</g>
</g>
<!-- Node1&#45;&gt;Node3 -->
<g id="edge8" class="edge">
<title>Node1&#45;&gt;Node3</title>
<path fill="none" stroke="midnightblue" d="M613.76,-70.72C605.1,-71.18 596.33,-71.62 588,-72 465.74,-77.56 322.48,-82.07 244.27,-84.36"/>
<polygon fill="midnightblue" stroke="midnightblue" points="614.03,-74.21 623.83,-70.17 613.65,-67.22 614.03,-74.21"/>
</g>
<!-- Node5 -->
<g id="node5" class="node">
<title>Node5</title>
<g id="a_node5"><a xlink:href="namespacextb__setmod.html#af256a658a95d1cc74d76dbc0b607c01a" target="_top" xlink:title=" ">
<polygon fill="white" stroke="black" points="302.5,-38.5 302.5,-57.5 411.5,-57.5 411.5,-38.5 302.5,-38.5"/>
<text text-anchor="middle" x="357" y="-45.5" font-family="Helvetica,sans-Serif" font-size="10.00">xtb_setmod::rdcontrol</text>
</a>
</g>
</g>
<!-- Node1&#45;&gt;Node5 -->
<g id="edge4" class="edge">
<title>Node1&#45;&gt;Node5</title>
<path fill="none" stroke="midnightblue" d="M613.64,-63.23C554.57,-59.71 467.43,-54.52 411.69,-51.2"/>
<polygon fill="midnightblue" stroke="midnightblue" points="613.78,-66.74 623.97,-63.84 614.19,-59.75 613.78,-66.74"/>
</g>
<!-- Node6 -->
<g id="node6" class="node">
<title>Node6</title>
<g id="a_node6"><a xlink:href="namespacextb__setmod.html#ae624d63242f16501ab4fc3040b92ec15" target="_top" xlink:title=" ">
<polygon fill="white" stroke="black" points="470,-0.5 470,-19.5 588,-19.5 588,-0.5 470,-0.5"/>
<text text-anchor="middle" x="529" y="-7.5" font-family="Helvetica,sans-Serif" font-size="10.00">xtb_setmod::set_legacy</text>
</a>
</g>
</g>
<!-- Node1&#45;&gt;Node6 -->
<g id="edge6" class="edge">
<title>Node1&#45;&gt;Node6</title>
<path fill="none" stroke="midnightblue" d="M642.95,-53.8C615.96,-43.33 578.88,-28.95 554.68,-19.57"/>
<polygon fill="midnightblue" stroke="midnightblue" points="641.81,-57.11 652.4,-57.46 644.34,-50.58 641.81,-57.11"/>
</g>
<!-- Node2&#45;&gt;Node3 -->
<g id="edge2" class="edge">
<title>Node2&#45;&gt;Node3</title>
<path fill="none" stroke="midnightblue" d="M303.1,-112.18C279.13,-106.82 251.18,-100.57 228.59,-95.52"/>
<polygon fill="midnightblue" stroke="midnightblue" points="302.58,-115.65 313.1,-114.41 304.11,-108.81 302.58,-115.65"/>
</g>
<!-- Node4 -->
<g id="node4" class="node">
<title>Node4</title>
<g id="a_node4"><a xlink:href="primary_8f90.html#a2a67903cf5be605c5b6d3c362c6a3c5c" target="_top" xlink:title="The primary driver for the xtb program package.">
<polygon fill="white" stroke="black" points="0,-76.5 0,-95.5 90,-95.5 90,-76.5 0,-76.5"/>
<text text-anchor="middle" x="45" y="-83.5" font-family="Helvetica,sans-Serif" font-size="10.00">xtb_prog_primary</text>
</a>
</g>
</g>
<!-- Node3&#45;&gt;Node4 -->
<g id="edge3" class="edge">
<title>Node3&#45;&gt;Node4</title>
<path fill="none" stroke="midnightblue" d="M115.73,-86C107.06,-86 98.37,-86 90.22,-86"/>
<polygon fill="midnightblue" stroke="midnightblue" points="115.88,-89.5 125.88,-86 115.88,-82.5 115.88,-89.5"/>
</g>
<!-- Node5&#45;&gt;Node3 -->
<g id="edge5" class="edge">
<title>Node5&#45;&gt;Node3</title>
<path fill="none" stroke="midnightblue" d="M303.1,-59.82C279.13,-65.18 251.18,-71.43 228.59,-76.48"/>
<polygon fill="midnightblue" stroke="midnightblue" points="304.11,-63.19 313.1,-57.59 302.58,-56.35 304.11,-63.19"/>
</g>
<!-- Node6&#45;&gt;Node5 -->
<g id="edge7" class="edge">
<title>Node6&#45;&gt;Node5</title>
<path fill="none" stroke="midnightblue" d="M475.1,-21.82C451.13,-27.18 423.18,-33.43 400.59,-38.48"/>
<polygon fill="midnightblue" stroke="midnightblue" points="476.11,-25.19 485.1,-19.59 474.58,-18.35 476.11,-25.19"/>
</g>
</g>
</svg>
