<?xml version="1.0" encoding="UTF-8" standalone="no"?>
<!DOCTYPE svg PUBLIC "-//W3C//DTD SVG 1.1//EN"
 "http://www.w3.org/Graphics/SVG/1.1/DTD/svg11.dtd">
<!-- Generated by graphviz version 2.46.1 (20210215.1649)
 -->
<!-- Title: xtb_type_coulomb::getcoulombderivs Pages: 1 -->
<svg width="598pt" height="88pt"
 viewBox="0.00 0.00 598.00 88.00" xmlns="http://www.w3.org/2000/svg" xmlns:xlink="http://www.w3.org/1999/xlink">
<g id="graph0" class="graph" transform="scale(1 1) rotate(0) translate(4 84)">
<title>xtb_type_coulomb::getcoulombderivs</title>
<polygon fill="white" stroke="transparent" points="-4,4 -4,-84 594,-84 594,4 -4,4"/>
<!-- Node1 -->
<g id="node1" class="node">
<title>Node1</title>
<g id="a_node1"><a xlink:title=" ">
<polygon fill="#bfbfbf" stroke="black" points="0,-41.5 0,-60.5 176,-60.5 176,-41.5 0,-41.5"/>
<text text-anchor="middle" x="88" y="-48.5" font-family="Helvetica,sans-Serif" font-size="10.00">xtb_type_coulomb::getcoulombderivs</text>
</a>
</g>
</g>
<!-- Node2 -->
<g id="node2" class="node">
<title>Node2</title>
<g id="a_node2"><a xlink:href="namespacextb__type__coulomb.html#a337bb3d7976220172e92f3f34f1b5ece" target="_top" xlink:title=" ">
<polygon fill="white" stroke="black" points="212,-60.5 212,-79.5 417,-79.5 417,-60.5 212,-60.5"/>
<text text-anchor="middle" x="314.5" y="-67.5" font-family="Helvetica,sans-Serif" font-size="10.00">xtb_type_coulomb::getcoulombderivscluster</text>
</a>
</g>
</g>
<!-- Node1&#45;&gt;Node2 -->
<g id="edge1" class="edge">
<title>Node1&#45;&gt;Node2</title>
<path fill="none" stroke="midnightblue" d="M176.12,-58.37C184.53,-59.09 193.15,-59.81 201.76,-60.54"/>
<polygon fill="midnightblue" stroke="midnightblue" points="201.59,-64.04 211.85,-61.4 202.18,-57.07 201.59,-64.04"/>
</g>
<!-- Node3 -->
<g id="node3" class="node">
<title>Node3</title>
<g id="a_node3"><a xlink:href="namespacextb__type__coulomb.html#a7ccc0f2992afedcadb5dbaaa0252f2a5" target="_top" xlink:title=" ">
<polygon fill="white" stroke="black" points="213.5,-22.5 213.5,-41.5 415.5,-41.5 415.5,-22.5 213.5,-22.5"/>
<text text-anchor="middle" x="314.5" y="-29.5" font-family="Helvetica,sans-Serif" font-size="10.00">xtb_type_coulomb::getcoulombderivspbc3d</text>
</a>
</g>
</g>
<!-- Node1&#45;&gt;Node3 -->
<g id="edge2" class="edge">
<title>Node1&#45;&gt;Node3</title>
<path fill="none" stroke="midnightblue" d="M176.12,-43.63C184.98,-42.88 194.07,-42.11 203.14,-41.34"/>
<polygon fill="midnightblue" stroke="midnightblue" points="203.69,-44.81 213.36,-40.48 203.1,-37.83 203.69,-44.81"/>
</g>
<!-- Node4 -->
<g id="node4" class="node">
<title>Node4</title>
<g id="a_node4"><a xlink:href="namespacextb__coulomb__ewald.html#a074932dd7bd2a51ac739613a4c5a76ed" target="_top" xlink:title=" ">
<polygon fill="white" stroke="black" points="468,-39 468,-69 575,-69 575,-39 468,-39"/>
<text text-anchor="start" x="476" y="-57" font-family="Helvetica,sans-Serif" font-size="10.00">xtb_coulomb_ewald::</text>
<text text-anchor="middle" x="521.5" y="-46" font-family="Helvetica,sans-Serif" font-size="10.00">ewaldderivpbc3d</text>
</a>
</g>
</g>
<!-- Node3&#45;&gt;Node4 -->
<g id="edge3" class="edge">
<title>Node3&#45;&gt;Node4</title>
<path fill="none" stroke="midnightblue" d="M404.22,-41.52C422.24,-43.45 440.83,-45.45 457.71,-47.26"/>
<polygon fill="midnightblue" stroke="midnightblue" points="457.67,-50.78 467.99,-48.36 458.42,-43.82 457.67,-50.78"/>
</g>
<!-- Node5 -->
<g id="node5" class="node">
<title>Node5</title>
<g id="a_node5"><a xlink:href="namespacextb__type__coulomb.html#ab0b7e37b9a6f5d4b0a6d8d80df9be152" target="_top" xlink:title=" ">
<polygon fill="white" stroke="black" points="453,-0.5 453,-19.5 590,-19.5 590,-0.5 453,-0.5"/>
<text text-anchor="middle" x="521.5" y="-7.5" font-family="Helvetica,sans-Serif" font-size="10.00">xtb_type_coulomb::getrderiv</text>
</a>
</g>
</g>
<!-- Node3&#45;&gt;Node5 -->
<g id="edge4" class="edge">
<title>Node3&#45;&gt;Node5</title>
<path fill="none" stroke="midnightblue" d="M404.22,-22.48C417.12,-21.09 430.31,-19.68 442.96,-18.32"/>
<polygon fill="midnightblue" stroke="midnightblue" points="443.4,-21.79 452.97,-17.25 442.65,-14.83 443.4,-21.79"/>
</g>
</g>
</svg>
