<?xml version="1.0" encoding="UTF-8" standalone="no"?>
<!DOCTYPE svg PUBLIC "-//W3C//DTD SVG 1.1//EN"
 "http://www.w3.org/Graphics/SVG/1.1/DTD/svg11.dtd">
<!-- Generated by graphviz version 2.46.1 (20210215.1649)
 -->
<!-- Title: xtb_topology::topologytoneighbourlist Pages: 1 -->
<svg width="973pt" height="39pt"
 viewBox="0.00 0.00 973.00 39.00" xmlns="http://www.w3.org/2000/svg" xmlns:xlink="http://www.w3.org/1999/xlink">
<g id="graph0" class="graph" transform="scale(1 1) rotate(0) translate(4 35)">
<title>xtb_topology::topologytoneighbourlist</title>
<polygon fill="white" stroke="transparent" points="-4,4 -4,-35 969,-35 969,4 -4,4"/>
<!-- Node1 -->
<g id="node1" class="node">
<title>Node1</title>
<g id="a_node1"><a xlink:title=" ">
<polygon fill="#bfbfbf" stroke="black" points="791,-6 791,-25 965,-25 965,-6 791,-6"/>
<text text-anchor="middle" x="878" y="-13" font-family="Helvetica,sans-Serif" font-size="10.00">xtb_topology::topologytoneighbourlist</text>
</a>
</g>
</g>
<!-- Node2 -->
<g id="node2" class="node">
<title>Node2</title>
<g id="a_node2"><a xlink:href="namespacextb__topology.html#a54456fbae5694b5dfa7667970fcb22ef" target="_top" xlink:title=" ">
<polygon fill="white" stroke="black" points="585,-6 585,-25 755,-25 755,-6 585,-6"/>
<text text-anchor="middle" x="670" y="-13" font-family="Helvetica,sans-Serif" font-size="10.00">xtb_topology::comparebondtopology</text>
</a>
</g>
</g>
<!-- Node1&#45;&gt;Node2 -->
<g id="edge1" class="edge">
<title>Node1&#45;&gt;Node2</title>
<path fill="none" stroke="midnightblue" d="M780.82,-15.5C772.25,-15.5 763.63,-15.5 755.17,-15.5"/>
<polygon fill="midnightblue" stroke="midnightblue" points="780.83,-19 790.83,-15.5 780.83,-12 780.83,-19"/>
</g>
<!-- Node3 -->
<g id="node3" class="node">
<title>Node3</title>
<g id="a_node3"><a xlink:href="namespacextb__topology.html#a33f9e3fab4233477cd7539b5af834c2d" target="_top" xlink:title=" ">
<polygon fill="white" stroke="black" points="412,-6 412,-25 549,-25 549,-6 412,-6"/>
<text text-anchor="middle" x="480.5" y="-13" font-family="Helvetica,sans-Serif" font-size="10.00">xtb_topology::checktopology</text>
</a>
</g>
</g>
<!-- Node2&#45;&gt;Node3 -->
<g id="edge2" class="edge">
<title>Node2&#45;&gt;Node3</title>
<path fill="none" stroke="midnightblue" d="M574.71,-15.5C566.07,-15.5 557.42,-15.5 549.08,-15.5"/>
<polygon fill="midnightblue" stroke="midnightblue" points="574.85,-19 584.85,-15.5 574.85,-12 574.85,-19"/>
</g>
<!-- Node4 -->
<g id="node4" class="node">
<title>Node4</title>
<g id="a_node4"><a xlink:href="namespacextb__propertyoutput.html#a74ca9110d4ecdd9fc1a790d9a2027a02" target="_top" xlink:title=" ">
<polygon fill="white" stroke="black" points="280,-0.5 280,-30.5 376,-30.5 376,-0.5 280,-0.5"/>
<text text-anchor="start" x="288" y="-18.5" font-family="Helvetica,sans-Serif" font-size="10.00">xtb_propertyoutput</text>
<text text-anchor="middle" x="328" y="-7.5" font-family="Helvetica,sans-Serif" font-size="10.00">::main_property</text>
</a>
</g>
</g>
<!-- Node3&#45;&gt;Node4 -->
<g id="edge3" class="edge">
<title>Node3&#45;&gt;Node4</title>
<path fill="none" stroke="midnightblue" d="M401.56,-15.5C392.89,-15.5 384.27,-15.5 376.16,-15.5"/>
<polygon fill="midnightblue" stroke="midnightblue" points="401.73,-19 411.73,-15.5 401.73,-12 401.73,-19"/>
</g>
<!-- Node5 -->
<g id="node5" class="node">
<title>Node5</title>
<g id="a_node5"><a xlink:href="namespacextb__prog__main.html#a92b3b61ee04235e6343f652095682529" target="_top" xlink:title=" ">
<polygon fill="white" stroke="black" points="126,-6 126,-25 244,-25 244,-6 126,-6"/>
<text text-anchor="middle" x="185" y="-13" font-family="Helvetica,sans-Serif" font-size="10.00">xtb_prog_main::xtbmain</text>
</a>
</g>
</g>
<!-- Node4&#45;&gt;Node5 -->
<g id="edge4" class="edge">
<title>Node4&#45;&gt;Node5</title>
<path fill="none" stroke="midnightblue" d="M269.61,-15.5C261.25,-15.5 252.62,-15.5 244.24,-15.5"/>
<polygon fill="midnightblue" stroke="midnightblue" points="269.66,-19 279.66,-15.5 269.66,-12 269.66,-19"/>
</g>
<!-- Node6 -->
<g id="node6" class="node">
<title>Node6</title>
<g id="a_node6"><a xlink:href="primary_8f90.html#a2a67903cf5be605c5b6d3c362c6a3c5c" target="_top" xlink:title="The primary driver for the xtb program package.">
<polygon fill="white" stroke="black" points="0,-6 0,-25 90,-25 90,-6 0,-6"/>
<text text-anchor="middle" x="45" y="-13" font-family="Helvetica,sans-Serif" font-size="10.00">xtb_prog_primary</text>
</a>
</g>
</g>
<!-- Node5&#45;&gt;Node6 -->
<g id="edge5" class="edge">
<title>Node5&#45;&gt;Node6</title>
<path fill="none" stroke="midnightblue" d="M115.73,-15.5C107.06,-15.5 98.37,-15.5 90.22,-15.5"/>
<polygon fill="midnightblue" stroke="midnightblue" points="115.88,-19 125.88,-15.5 115.88,-12 115.88,-19"/>
</g>
</g>
</svg>
