<?xml version="1.0" encoding="UTF-8" standalone="no"?>
<!DOCTYPE svg PUBLIC "-//W3C//DTD SVG 1.1//EN"
 "http://www.w3.org/Graphics/SVG/1.1/DTD/svg11.dtd">
<!-- Generated by graphviz version 2.43.0 (0)
 -->
<!-- Title: xtb_gfnff_eg::gfnff_dlogcoord Pages: 1 -->
<svg width="235pt" height="104pt"
 viewBox="0.00 0.00 235.00 104.00" xmlns="http://www.w3.org/2000/svg" xmlns:xlink="http://www.w3.org/1999/xlink">
<g id="graph0" class="graph" transform="scale(1 1) rotate(0) translate(4 100)">
<title>xtb_gfnff_eg::gfnff_dlogcoord</title>
<polygon fill="white" stroke="transparent" points="-4,4 -4,-100 231,-100 231,4 -4,4"/>
<!-- Node1 -->
<g id="node1" class="node">
<title>Node1</title>
<g id="a_node1"><a xlink:title="logCN derivative saved in dlogCN array">
<polygon fill="#bfbfbf" stroke="black" points="0,-33 0,-63 106,-63 106,-33 0,-33"/>
<text text-anchor="start" x="8" y="-51" font-family="Helvetica,sans-Serif" font-size="10.00">xtb_gfnff_eg::gfnff</text>
<text text-anchor="middle" x="53" y="-40" font-family="Helvetica,sans-Serif" font-size="10.00">_dlogcoord</text>
</a>
</g>
</g>
<!-- Node2 -->
<g id="node2" class="node">
<title>Node2</title>
<g id="a_node2"><a xlink:href="gfnff__eg_8f90.html#afda36babe00c97154f6de438e8325df4" target="_top" xlink:title=" ">
<polygon fill="white" stroke="black" points="143,-76.5 143,-95.5 226,-95.5 226,-76.5 143,-76.5"/>
<text text-anchor="middle" x="184.5" y="-83.5" font-family="Helvetica,sans-Serif" font-size="10.00">create_derfcn</text>
</a>
</g>
</g>
<!-- Node1&#45;&gt;Node2 -->
<g id="edge1" class="edge">
<title>Node1&#45;&gt;Node2</title>
<path fill="none" stroke="midnightblue" d="M105.18,-63.02C117.1,-66.52 129.66,-70.2 141.15,-73.57"/>
<polygon fill="midnightblue" stroke="midnightblue" points="140.35,-76.99 150.93,-76.44 142.32,-70.27 140.35,-76.99"/>
</g>
<!-- Node3 -->
<g id="node3" class="node">
<title>Node3</title>
<g id="a_node3"><a xlink:href="gfnff__eg_8f90.html#abf2e0a5f969a8603ad08a64b15839db8" target="_top" xlink:title=" ">
<polygon fill="white" stroke="black" points="142,-38.5 142,-57.5 227,-57.5 227,-38.5 142,-38.5"/>
<text text-anchor="middle" x="184.5" y="-45.5" font-family="Helvetica,sans-Serif" font-size="10.00">create_dlogcn</text>
</a>
</g>
</g>
<!-- Node1&#45;&gt;Node3 -->
<g id="edge2" class="edge">
<title>Node1&#45;&gt;Node3</title>
<path fill="none" stroke="midnightblue" d="M106.3,-48C114.68,-48 123.36,-48 131.73,-48"/>
<polygon fill="midnightblue" stroke="midnightblue" points="131.75,-51.5 141.75,-48 131.75,-44.5 131.75,-51.5"/>
</g>
<!-- Node4 -->
<g id="node4" class="node">
<title>Node4</title>
<g id="a_node4"><a xlink:href="gfnff__eg_8f90.html#a13fc6a5e8abf21a4227133f6ad9b9aba" target="_top" xlink:title=" ">
<polygon fill="white" stroke="black" points="145,-0.5 145,-19.5 224,-19.5 224,-0.5 145,-0.5"/>
<text text-anchor="middle" x="184.5" y="-7.5" font-family="Helvetica,sans-Serif" font-size="10.00">create_logcn</text>
</a>
</g>
</g>
<!-- Node1&#45;&gt;Node4 -->
<g id="edge3" class="edge">
<title>Node1&#45;&gt;Node4</title>
<path fill="none" stroke="midnightblue" d="M105.18,-32.98C117.1,-29.48 129.66,-25.8 141.15,-22.43"/>
<polygon fill="midnightblue" stroke="midnightblue" points="142.32,-25.73 150.93,-19.56 140.35,-19.01 142.32,-25.73"/>
</g>
</g>
</svg>
