<?xml version="1.0" encoding="UTF-8" standalone="no"?>
<!DOCTYPE svg PUBLIC "-//W3C//DTD SVG 1.1//EN"
 "http://www.w3.org/Graphics/SVG/1.1/DTD/svg11.dtd">
<!-- Generated by graphviz version 2.46.1 (20210215.1649)
 -->
<!-- Title: xtb_intgrad::get_multiints Pages: 1 -->
<svg width="406pt" height="154pt"
 viewBox="0.00 0.00 406.00 154.00" xmlns="http://www.w3.org/2000/svg" xmlns:xlink="http://www.w3.org/1999/xlink">
<g id="graph0" class="graph" transform="scale(1 1) rotate(0) translate(4 150)">
<title>xtb_intgrad::get_multiints</title>
<polygon fill="white" stroke="transparent" points="-4,4 -4,-150 402,-150 402,4 -4,4"/>
<!-- Node1 -->
<g id="node1" class="node">
<title>Node1</title>
<g id="a_node1"><a xlink:title=" ">
<polygon fill="#bfbfbf" stroke="black" points="0,-60.5 0,-79.5 124,-79.5 124,-60.5 0,-60.5"/>
<text text-anchor="middle" x="62" y="-67.5" font-family="Helvetica,sans-Serif" font-size="10.00">xtb_intgrad::get_multiints</text>
</a>
</g>
</g>
<!-- Node2 -->
<g id="node2" class="node">
<title>Node2</title>
<g id="a_node2"><a xlink:href="namespacextb__intgrad.html#a1f9cf61176ecca277a73a81137c39a39" target="_top" xlink:title=" ">
<polygon fill="white" stroke="black" points="160,-126.5 160,-145.5 270,-145.5 270,-126.5 160,-126.5"/>
<text text-anchor="middle" x="215" y="-133.5" font-family="Helvetica,sans-Serif" font-size="10.00">xtb_intgrad::build_kab</text>
</a>
</g>
</g>
<!-- Node1&#45;&gt;Node2 -->
<g id="edge1" class="edge">
<title>Node1&#45;&gt;Node2</title>
<path fill="none" stroke="midnightblue" d="M82.1,-79.67C101.5,-89.35 132.52,-104.42 160,-116 165.55,-118.34 171.47,-120.68 177.29,-122.9"/>
<polygon fill="midnightblue" stroke="midnightblue" points="176.31,-126.27 186.9,-126.49 178.76,-119.71 176.31,-126.27"/>
</g>
<!-- Node3 -->
<g id="node3" class="node">
<title>Node3</title>
<g id="a_node3"><a xlink:href="namespacextb__intgrad.html#af483e162e73c1238a72bd8559f9b26e8" target="_top" xlink:title=" ">
<polygon fill="white" stroke="black" points="170.5,-77 170.5,-107 259.5,-107 259.5,-77 170.5,-77"/>
<text text-anchor="start" x="178.5" y="-95" font-family="Helvetica,sans-Serif" font-size="10.00">xtb_intgrad::build</text>
<text text-anchor="middle" x="215" y="-84" font-family="Helvetica,sans-Serif" font-size="10.00">_sdq_ints</text>
</a>
</g>
</g>
<!-- Node1&#45;&gt;Node3 -->
<g id="edge2" class="edge">
<title>Node1&#45;&gt;Node3</title>
<path fill="none" stroke="midnightblue" d="M124.42,-78.95C136.29,-80.68 148.64,-82.48 160.25,-84.17"/>
<polygon fill="midnightblue" stroke="midnightblue" points="159.82,-87.64 170.22,-85.62 160.83,-80.72 159.82,-87.64"/>
</g>
<!-- Node6 -->
<g id="node6" class="node">
<title>Node6</title>
<g id="a_node6"><a xlink:href="namespacextb__intgrad.html#a49b854bf505ac013ac50d12edb2e0de5" target="_top" xlink:title="returns center of product Gaussian from two Gaussians by GPT">
<polygon fill="white" stroke="black" points="162,-38.5 162,-57.5 268,-57.5 268,-38.5 162,-38.5"/>
<text text-anchor="middle" x="215" y="-45.5" font-family="Helvetica,sans-Serif" font-size="10.00">xtb_intgrad::gpcenter</text>
</a>
</g>
</g>
<!-- Node1&#45;&gt;Node6 -->
<g id="edge5" class="edge">
<title>Node1&#45;&gt;Node6</title>
<path fill="none" stroke="midnightblue" d="M124.42,-61.05C133.43,-59.74 142.73,-58.38 151.76,-57.07"/>
<polygon fill="midnightblue" stroke="midnightblue" points="152.43,-60.51 161.82,-55.6 151.42,-53.58 152.43,-60.51"/>
</g>
<!-- Node7 -->
<g id="node7" class="node">
<title>Node7</title>
<g id="a_node7"><a xlink:href="namespacextb__intgrad.html#a61582fac6cd8cc05eb76d4ced531ef6e" target="_top" xlink:title="calculates a partial overlap in one cartesian direction">
<polygon fill="white" stroke="black" points="169,-0.5 169,-19.5 261,-19.5 261,-0.5 169,-0.5"/>
<text text-anchor="middle" x="215" y="-7.5" font-family="Helvetica,sans-Serif" font-size="10.00">xtb_intgrad::olapp</text>
</a>
</g>
</g>
<!-- Node1&#45;&gt;Node7 -->
<g id="edge6" class="edge">
<title>Node1&#45;&gt;Node7</title>
<path fill="none" stroke="midnightblue" d="M84.42,-60.5C103.97,-51.93 133.74,-39.16 160,-29 165.21,-26.98 170.74,-24.94 176.2,-22.97"/>
<polygon fill="midnightblue" stroke="midnightblue" points="177.6,-26.18 185.85,-19.54 175.26,-19.59 177.6,-26.18"/>
</g>
<!-- Node4 -->
<g id="node4" class="node">
<title>Node4</title>
<g id="a_node4"><a xlink:href="namespacextb__intgrad.html#a5bc6f86d12b5b4734f597a88800d8330" target="_top" xlink:title=" ">
<polygon fill="white" stroke="black" points="307.5,-99 307.5,-129 396.5,-129 396.5,-99 307.5,-99"/>
<text text-anchor="start" x="315.5" y="-117" font-family="Helvetica,sans-Serif" font-size="10.00">xtb_intgrad::build</text>
<text text-anchor="middle" x="352" y="-106" font-family="Helvetica,sans-Serif" font-size="10.00">_hshift2</text>
</a>
</g>
</g>
<!-- Node3&#45;&gt;Node4 -->
<g id="edge3" class="edge">
<title>Node3&#45;&gt;Node4</title>
<path fill="none" stroke="midnightblue" d="M259.83,-99.14C271.74,-101.08 284.78,-103.21 297.17,-105.23"/>
<polygon fill="midnightblue" stroke="midnightblue" points="296.96,-108.74 307.39,-106.89 298.08,-101.83 296.96,-108.74"/>
</g>
<!-- Node5 -->
<g id="node5" class="node">
<title>Node5</title>
<g id="a_node5"><a xlink:href="namespacextb__intgrad.html#a040b47e4b45c55028569fcad9704172a" target="_top" xlink:title=" ">
<polygon fill="white" stroke="black" points="306,-60.5 306,-79.5 398,-79.5 398,-60.5 306,-60.5"/>
<text text-anchor="middle" x="352" y="-67.5" font-family="Helvetica,sans-Serif" font-size="10.00">xtb_intgrad::prod3</text>
</a>
</g>
</g>
<!-- Node3&#45;&gt;Node5 -->
<g id="edge4" class="edge">
<title>Node3&#45;&gt;Node5</title>
<path fill="none" stroke="midnightblue" d="M259.83,-84.86C271.26,-82.99 283.72,-80.96 295.66,-79.02"/>
<polygon fill="midnightblue" stroke="midnightblue" points="296.23,-82.47 305.53,-77.41 295.1,-75.56 296.23,-82.47"/>
</g>
</g>
</svg>
