<?xml version="1.0" encoding="UTF-8" standalone="no"?>
<!DOCTYPE svg PUBLIC "-//W3C//DTD SVG 1.1//EN"
 "http://www.w3.org/Graphics/SVG/1.1/DTD/svg11.dtd">
<!-- Generated by graphviz version 2.46.1 (20210215.1649)
 -->
<!-- Title: xtb_gfnff_setup::gfnff_input Pages: 1 -->
<svg width="373pt" height="123pt"
 viewBox="0.00 0.00 373.00 123.00" xmlns="http://www.w3.org/2000/svg" xmlns:xlink="http://www.w3.org/1999/xlink">
<g id="graph0" class="graph" transform="scale(1 1) rotate(0) translate(4 119)">
<title>xtb_gfnff_setup::gfnff_input</title>
<polygon fill="white" stroke="transparent" points="-4,4 -4,-119 369,-119 369,4 -4,4"/>
<!-- Node1 -->
<g id="node1" class="node">
<title>Node1</title>
<g id="a_node1"><a xlink:title=" ">
<polygon fill="#bfbfbf" stroke="black" points="0,-33 0,-63 106,-63 106,-33 0,-33"/>
<text text-anchor="start" x="8" y="-51" font-family="Helvetica,sans-Serif" font-size="10.00">xtb_gfnff_setup::gfnff</text>
<text text-anchor="middle" x="53" y="-40" font-family="Helvetica,sans-Serif" font-size="10.00">_input</text>
</a>
</g>
</g>
<!-- Node2 -->
<g id="node2" class="node">
<title>Node2</title>
<g id="a_node2"><a xlink:href="filetools_8F90.html#abe40c19bea97456da4d616af69059aeb" target="_top" xlink:title=" ">
<polygon fill="white" stroke="black" points="142,-95.5 142,-114.5 199,-114.5 199,-95.5 142,-95.5"/>
<text text-anchor="middle" x="170.5" y="-102.5" font-family="Helvetica,sans-Serif" font-size="10.00">close_file</text>
</a>
</g>
</g>
<!-- Node1&#45;&gt;Node2 -->
<g id="edge1" class="edge">
<title>Node1&#45;&gt;Node2</title>
<path fill="none" stroke="midnightblue" d="M84.65,-63.13C102.13,-71.75 123.89,-82.49 141,-90.94"/>
<polygon fill="midnightblue" stroke="midnightblue" points="139.46,-94.08 149.97,-95.36 142.55,-87.8 139.46,-94.08"/>
</g>
<!-- Node3 -->
<g id="node3" class="node">
<title>Node3</title>
<g id="a_node3"><a xlink:href="filetools_8F90.html#a68160ec369d61855ea12b180c7ce8c21" target="_top" xlink:title=" ">
<polygon fill="white" stroke="black" points="143,-57.5 143,-76.5 198,-76.5 198,-57.5 143,-57.5"/>
<text text-anchor="middle" x="170.5" y="-64.5" font-family="Helvetica,sans-Serif" font-size="10.00">open_file</text>
</a>
</g>
</g>
<!-- Node1&#45;&gt;Node3 -->
<g id="edge2" class="edge">
<title>Node1&#45;&gt;Node3</title>
<path fill="none" stroke="midnightblue" d="M106.01,-56.56C115.03,-58.04 124.24,-59.56 132.75,-60.96"/>
<polygon fill="midnightblue" stroke="midnightblue" points="132.29,-64.43 142.72,-62.6 133.42,-57.52 132.29,-64.43"/>
</g>
<!-- Node4 -->
<g id="node4" class="node">
<title>Node4</title>
<g id="a_node4"><a xlink:href="rdcoord2_8f90.html#a9b38798a8c538ebdc4c2be235d5bf8d6" target="_top" xlink:title=" ">
<polygon fill="white" stroke="black" points="145.5,-19.5 145.5,-38.5 195.5,-38.5 195.5,-19.5 145.5,-19.5"/>
<text text-anchor="middle" x="170.5" y="-26.5" font-family="Helvetica,sans-Serif" font-size="10.00">readline</text>
</a>
</g>
</g>
<!-- Node1&#45;&gt;Node4 -->
<g id="edge3" class="edge">
<title>Node1&#45;&gt;Node4</title>
<path fill="none" stroke="midnightblue" d="M106.01,-39.44C116.01,-37.8 126.25,-36.11 135.5,-34.59"/>
<polygon fill="midnightblue" stroke="midnightblue" points="136.17,-38.03 145.47,-32.95 135.03,-31.12 136.17,-38.03"/>
</g>
<!-- Node6 -->
<g id="node6" class="node">
<title>Node6</title>
<g id="a_node6"><a xlink:href="symmetry__i_8c.html#aa77c823a9fc018ae1d437369708d8727" target="_top" xlink:title=" ">
<polygon fill="white" stroke="black" points="332,-0.5 332,-19.5 365,-19.5 365,-0.5 332,-0.5"/>
<text text-anchor="middle" x="348.5" y="-7.5" font-family="Helvetica,sans-Serif" font-size="10.00">true</text>
</a>
</g>
</g>
<!-- Node1&#45;&gt;Node6 -->
<g id="edge6" class="edge">
<title>Node1&#45;&gt;Node6</title>
<path fill="none" stroke="midnightblue" d="M81.18,-32.82C98.11,-24.26 120.65,-14.41 142,-10 205.55,3.14 282.54,-2.4 321.79,-6.7"/>
<polygon fill="midnightblue" stroke="midnightblue" points="321.48,-10.19 331.81,-7.86 322.28,-3.23 321.48,-10.19"/>
</g>
<!-- Node5 -->
<g id="node5" class="node">
<title>Node5</title>
<g id="a_node5"><a xlink:href="readl2_8f90.html#a194c35a25c60bb77cc8af6abea165a5c" target="_top" xlink:title=" ">
<polygon fill="white" stroke="black" points="235,-19.5 235,-38.5 296,-38.5 296,-19.5 235,-19.5"/>
<text text-anchor="middle" x="265.5" y="-26.5" font-family="Helvetica,sans-Serif" font-size="10.00">checktype</text>
</a>
</g>
</g>
<!-- Node4&#45;&gt;Node5 -->
<g id="edge4" class="edge">
<title>Node4&#45;&gt;Node5</title>
<path fill="none" stroke="midnightblue" d="M195.93,-29C204.8,-29 215.06,-29 224.9,-29"/>
<polygon fill="midnightblue" stroke="midnightblue" points="224.93,-32.5 234.93,-29 224.93,-25.5 224.93,-32.5"/>
</g>
<!-- Node5&#45;&gt;Node6 -->
<g id="edge5" class="edge">
<title>Node5&#45;&gt;Node6</title>
<path fill="none" stroke="midnightblue" d="M296.2,-22.03C304.71,-20.04 313.9,-17.88 322.13,-15.95"/>
<polygon fill="midnightblue" stroke="midnightblue" points="322.96,-19.35 331.9,-13.66 321.36,-12.54 322.96,-19.35"/>
</g>
</g>
</svg>
