<?xml version="1.0" encoding="UTF-8" standalone="no"?>
<!DOCTYPE svg PUBLIC "-//W3C//DTD SVG 1.1//EN"
 "http://www.w3.org/Graphics/SVG/1.1/DTD/svg11.dtd">
<!-- Generated by graphviz version 2.46.1 (20210215.1649)
 -->
<!-- Title: xtb_type_timer::timer Pages: 1 -->
<svg width="499pt" height="280pt"
 viewBox="0.00 0.00 499.00 279.50" xmlns="http://www.w3.org/2000/svg" xmlns:xlink="http://www.w3.org/1999/xlink">
<g id="graph0" class="graph" transform="scale(1 1) rotate(0) translate(4 275.5)">
<title>xtb_type_timer::timer</title>
<polygon fill="white" stroke="transparent" points="-4,4 -4,-275.5 495,-275.5 495,4 -4,4"/>
<!-- Node1 -->
<g id="node1" class="node">
<title>Node1</title>
<g id="a_node1"><a xlink:title=" ">
<polygon fill="#bfbfbf" stroke="black" points="385,-126.5 385,-145.5 491,-145.5 491,-126.5 385,-126.5"/>
<text text-anchor="middle" x="438" y="-133.5" font-family="Helvetica,sans-Serif" font-size="10.00">xtb_type_timer::timer</text>
</a>
</g>
</g>
<!-- Node2 -->
<g id="node2" class="node">
<title>Node2</title>
<g id="a_node2"><a xlink:href="namespacextb__gfnff__eg.html#a3c6317a91da8d6eb6e333fdb8ee1f3d9" target="_top" xlink:title=" ">
<polygon fill="white" stroke="black" points="241,-202.5 241,-221.5 349,-221.5 349,-202.5 241,-202.5"/>
<text text-anchor="middle" x="295" y="-209.5" font-family="Helvetica,sans-Serif" font-size="10.00">xtb_gfnff_eg::gfnff_eg</text>
</a>
</g>
</g>
<!-- Node1&#45;&gt;Node2 -->
<g id="edge1" class="edge">
<title>Node1&#45;&gt;Node2</title>
<path fill="none" stroke="midnightblue" d="M410.18,-150.46C381.86,-165.72 338,-189.36 313.71,-202.45"/>
<polygon fill="midnightblue" stroke="midnightblue" points="412,-153.45 419.14,-145.63 408.68,-147.29 412,-153.45"/>
</g>
<!-- Node6 -->
<g id="node6" class="node">
<title>Node6</title>
<g id="a_node6"><a xlink:href="namespacextb__peeq.html#ac2d6fc22b842455765bdb4f69279095c" target="_top" xlink:title=" ">
<polygon fill="white" stroke="black" points="254.5,-126.5 254.5,-145.5 335.5,-145.5 335.5,-126.5 254.5,-126.5"/>
<text text-anchor="middle" x="295" y="-133.5" font-family="Helvetica,sans-Serif" font-size="10.00">xtb_peeq::peeq</text>
</a>
</g>
</g>
<!-- Node1&#45;&gt;Node6 -->
<g id="edge5" class="edge">
<title>Node1&#45;&gt;Node6</title>
<path fill="none" stroke="midnightblue" d="M374.81,-136C361.48,-136 347.74,-136 335.55,-136"/>
<polygon fill="midnightblue" stroke="midnightblue" points="374.9,-139.5 384.9,-136 374.9,-132.5 374.9,-139.5"/>
</g>
<!-- Node10 -->
<g id="node10" class="node">
<title>Node10</title>
<g id="a_node10"><a xlink:href="namespacextb__scf.html#a7390c40a38032c3d210c39edecfa49ed" target="_top" xlink:title=" ">
<polygon fill="white" stroke="black" points="262,-60.5 262,-79.5 328,-79.5 328,-60.5 262,-60.5"/>
<text text-anchor="middle" x="295" y="-67.5" font-family="Helvetica,sans-Serif" font-size="10.00">xtb_scf::scf</text>
</a>
</g>
</g>
<!-- Node1&#45;&gt;Node10 -->
<g id="edge11" class="edge">
<title>Node1&#45;&gt;Node10</title>
<path fill="none" stroke="midnightblue" d="M407.43,-122.16C380.18,-109.4 340.45,-90.81 316.53,-79.61"/>
<polygon fill="midnightblue" stroke="midnightblue" points="405.96,-125.33 416.5,-126.4 408.92,-118.99 405.96,-125.33"/>
</g>
<!-- Node3 -->
<g id="node3" class="node">
<title>Node3</title>
<g id="a_node3"><a xlink:href="namespacextb__gfnff__calculator.html#a8775e737196933e41e48728956ddf782" target="_top" xlink:title=" ">
<polygon fill="white" stroke="black" points="104,-241 104,-271 205,-271 205,-241 104,-241"/>
<text text-anchor="start" x="112" y="-259" font-family="Helvetica,sans-Serif" font-size="10.00">xtb_gfnff_calculator</text>
<text text-anchor="middle" x="154.5" y="-248" font-family="Helvetica,sans-Serif" font-size="10.00">::singlepoint</text>
</a>
</g>
</g>
<!-- Node2&#45;&gt;Node3 -->
<g id="edge2" class="edge">
<title>Node2&#45;&gt;Node3</title>
<path fill="none" stroke="midnightblue" d="M254.34,-224.6C238.31,-229.69 219.67,-235.62 202.92,-240.93"/>
<polygon fill="midnightblue" stroke="midnightblue" points="255.48,-227.91 263.95,-221.55 253.36,-221.24 255.48,-227.91"/>
</g>
<!-- Node4 -->
<g id="node4" class="node">
<title>Node4</title>
<g id="a_node4"><a xlink:href="gfnff_8f90.html#a3debb77ee35e9cf115d69ef59490c6c5" target="_top" xlink:title=" ">
<polygon fill="white" stroke="black" points="118,-202.5 118,-221.5 191,-221.5 191,-202.5 118,-202.5"/>
<text text-anchor="middle" x="154.5" y="-209.5" font-family="Helvetica,sans-Serif" font-size="10.00">test_gfnff_sp</text>
</a>
</g>
</g>
<!-- Node2&#45;&gt;Node4 -->
<g id="edge3" class="edge">
<title>Node2&#45;&gt;Node4</title>
<path fill="none" stroke="midnightblue" d="M230.59,-212C217.05,-212 203.21,-212 191.16,-212"/>
<polygon fill="midnightblue" stroke="midnightblue" points="230.85,-215.5 240.85,-212 230.85,-208.5 230.85,-215.5"/>
</g>
<!-- Node5 -->
<g id="node5" class="node">
<title>Node5</title>
<g id="a_node5"><a xlink:href="tests__peeq_8f90.html#a87ff5319e0d2e627a4f71d7df0d14891" target="_top" xlink:title=" ">
<polygon fill="white" stroke="black" points="0,-126.5 0,-145.5 68,-145.5 68,-126.5 0,-126.5"/>
<text text-anchor="middle" x="34" y="-133.5" font-family="Helvetica,sans-Serif" font-size="10.00">peeq_tester</text>
</a>
</g>
</g>
<!-- Node4&#45;&gt;Node5 -->
<g id="edge4" class="edge">
<title>Node4&#45;&gt;Node5</title>
<path fill="none" stroke="midnightblue" d="M114.73,-198.53C111.03,-196.83 107.39,-194.98 104,-193 80.65,-179.37 57.17,-157.93 44.52,-145.6"/>
<polygon fill="midnightblue" stroke="midnightblue" points="113.41,-201.77 123.98,-202.47 116.15,-195.33 113.41,-201.77"/>
</g>
<!-- Node7 -->
<g id="node7" class="node">
<title>Node7</title>
<g id="a_node7"><a xlink:href="namespacextb__xtb__calculator.html#a75c96263c235c99dfeeda3e865f9898c" target="_top" xlink:title=" ">
<polygon fill="white" stroke="black" points="107,-77 107,-107 202,-107 202,-77 107,-77"/>
<text text-anchor="start" x="115" y="-95" font-family="Helvetica,sans-Serif" font-size="10.00">xtb_xtb_calculator</text>
<text text-anchor="middle" x="154.5" y="-84" font-family="Helvetica,sans-Serif" font-size="10.00">::singlepoint</text>
</a>
</g>
</g>
<!-- Node6&#45;&gt;Node7 -->
<g id="edge6" class="edge">
<title>Node6&#45;&gt;Node7</title>
<path fill="none" stroke="midnightblue" d="M254.21,-123.36C237.94,-118.19 219.02,-112.18 202.11,-106.81"/>
<polygon fill="midnightblue" stroke="midnightblue" points="253.36,-126.76 263.95,-126.45 255.48,-120.09 253.36,-126.76"/>
</g>
<!-- Node8 -->
<g id="node8" class="node">
<title>Node8</title>
<g id="a_node8"><a xlink:href="TESTSUITE_2gfn0_8f90.html#ac2abd1dbadf75b71866d509eaad7957d" target="_top" xlink:title=" ">
<polygon fill="white" stroke="black" points="118,-164.5 118,-183.5 191,-183.5 191,-164.5 118,-164.5"/>
<text text-anchor="middle" x="154.5" y="-171.5" font-family="Helvetica,sans-Serif" font-size="10.00">test_gfn0_sp</text>
</a>
</g>
</g>
<!-- Node6&#45;&gt;Node8 -->
<g id="edge7" class="edge">
<title>Node6&#45;&gt;Node8</title>
<path fill="none" stroke="midnightblue" d="M249.37,-148.25C230.28,-153.48 208.32,-159.51 190.44,-164.41"/>
<polygon fill="midnightblue" stroke="midnightblue" points="250.33,-151.61 259.05,-145.59 248.48,-144.86 250.33,-151.61"/>
</g>
<!-- Node9 -->
<g id="node9" class="node">
<title>Node9</title>
<g id="a_node9"><a xlink:href="peeq_8f90.html#a5122d9bd07a3f4377ee140a5991d1325" target="_top" xlink:title=" ">
<polygon fill="white" stroke="black" points="117,-126.5 117,-145.5 192,-145.5 192,-126.5 117,-126.5"/>
<text text-anchor="middle" x="154.5" y="-133.5" font-family="Helvetica,sans-Serif" font-size="10.00">test_peeq_sp</text>
</a>
</g>
</g>
<!-- Node6&#45;&gt;Node9 -->
<g id="edge9" class="edge">
<title>Node6&#45;&gt;Node9</title>
<path fill="none" stroke="midnightblue" d="M243.95,-136C226.9,-136 208.17,-136 192.35,-136"/>
<polygon fill="midnightblue" stroke="midnightblue" points="244.31,-139.5 254.31,-136 244.31,-132.5 244.31,-139.5"/>
</g>
<!-- Node8&#45;&gt;Node5 -->
<g id="edge8" class="edge">
<title>Node8&#45;&gt;Node5</title>
<path fill="none" stroke="midnightblue" d="M113.96,-161.32C97.95,-156.19 79.77,-150.36 64.89,-145.59"/>
<polygon fill="midnightblue" stroke="midnightblue" points="113.01,-164.69 123.6,-164.41 115.14,-158.02 113.01,-164.69"/>
</g>
<!-- Node9&#45;&gt;Node5 -->
<g id="edge10" class="edge">
<title>Node9&#45;&gt;Node5</title>
<path fill="none" stroke="midnightblue" d="M106.89,-136C94.03,-136 80.33,-136 68.38,-136"/>
<polygon fill="midnightblue" stroke="midnightblue" points="106.98,-139.5 116.98,-136 106.98,-132.5 106.98,-139.5"/>
</g>
<!-- Node10&#45;&gt;Node7 -->
<g id="edge12" class="edge">
<title>Node10&#45;&gt;Node7</title>
<path fill="none" stroke="midnightblue" d="M251.91,-76.69C236.19,-79.18 218.25,-82.03 202.15,-84.59"/>
<polygon fill="midnightblue" stroke="midnightblue" points="252.55,-80.13 261.88,-75.1 251.45,-73.21 252.55,-80.13"/>
</g>
<!-- Node11 -->
<g id="node11" class="node">
<title>Node11</title>
<g id="a_node11"><a xlink:href="TESTSUITE_2gfn1_8f90.html#ab5cc37cef2d483d9d9cde17aa03c55a8" target="_top" xlink:title=" ">
<polygon fill="white" stroke="black" points="115.5,-38.5 115.5,-57.5 193.5,-57.5 193.5,-38.5 115.5,-38.5"/>
<text text-anchor="middle" x="154.5" y="-45.5" font-family="Helvetica,sans-Serif" font-size="10.00">test_gfn1_scc</text>
</a>
</g>
</g>
<!-- Node10&#45;&gt;Node11 -->
<g id="edge13" class="edge">
<title>Node10&#45;&gt;Node11</title>
<path fill="none" stroke="midnightblue" d="M251.92,-63.32C233.35,-60.37 211.68,-56.92 193.6,-54.05"/>
<polygon fill="midnightblue" stroke="midnightblue" points="251.45,-66.79 261.88,-64.9 252.55,-59.87 251.45,-66.79"/>
</g>
<!-- Node12 -->
<g id="node12" class="node">
<title>Node12</title>
<g id="a_node12"><a xlink:href="TESTSUITE_2gfn2_8f90.html#af47afba0207cbca2dc950fb5e339ce03" target="_top" xlink:title=" ">
<polygon fill="white" stroke="black" points="115.5,-0.5 115.5,-19.5 193.5,-19.5 193.5,-0.5 115.5,-0.5"/>
<text text-anchor="middle" x="154.5" y="-7.5" font-family="Helvetica,sans-Serif" font-size="10.00">test_gfn2_scc</text>
</a>
</g>
</g>
<!-- Node10&#45;&gt;Node12 -->
<g id="edge15" class="edge">
<title>Node10&#45;&gt;Node12</title>
<path fill="none" stroke="midnightblue" d="M264.51,-55.83C247.28,-47.7 225.05,-37.45 205,-29 197.37,-25.78 188.98,-22.48 181.32,-19.55"/>
<polygon fill="midnightblue" stroke="midnightblue" points="263.48,-59.22 274.02,-60.34 266.49,-52.89 263.48,-59.22"/>
</g>
<!-- Node11&#45;&gt;Node5 -->
<g id="edge14" class="edge">
<title>Node11&#45;&gt;Node5</title>
<path fill="none" stroke="midnightblue" d="M113.37,-61.7C110.11,-63.32 106.95,-65.09 104,-67 78.14,-83.79 54.18,-111.58 42.48,-126.25"/>
<polygon fill="midnightblue" stroke="midnightblue" points="114.99,-64.81 122.68,-57.53 112.12,-58.43 114.99,-64.81"/>
</g>
<!-- Node12&#45;&gt;Node5 -->
<g id="edge16" class="edge">
<title>Node12&#45;&gt;Node5</title>
<path fill="none" stroke="midnightblue" d="M110.87,-24.22C108.45,-25.67 106.14,-27.26 104,-29 70.03,-56.6 47.33,-105.51 38.79,-126.26"/>
<polygon fill="midnightblue" stroke="midnightblue" points="112.68,-27.22 119.97,-19.53 109.47,-21 112.68,-27.22"/>
</g>
</g>
</svg>
