<?xml version="1.0" encoding="UTF-8" standalone="no"?>
<!DOCTYPE svg PUBLIC "-//W3C//DTD SVG 1.1//EN"
 "http://www.w3.org/Graphics/SVG/1.1/DTD/svg11.dtd">
<!-- Generated by graphviz version 2.46.0 (20210122.1329)
 -->
<!-- Title: xtb_qmdff::ff_hb Pages: 1 -->
<svg width="342pt" height="66pt"
 viewBox="0.00 0.00 342.00 66.00" xmlns="http://www.w3.org/2000/svg" xmlns:xlink="http://www.w3.org/1999/xlink">
<g id="graph0" class="graph" transform="scale(1 1) rotate(0) translate(4 62)">
<title>xtb_qmdff::ff_hb</title>
<polygon fill="white" stroke="transparent" points="-4,4 -4,-62 338,-62 338,4 -4,4"/>
<!-- Node1 -->
<g id="node1" class="node">
<title>Node1</title>
<g id="a_node1"><a xlink:title=" ">
<polygon fill="#bfbfbf" stroke="black" points="0,-19.5 0,-38.5 84,-38.5 84,-19.5 0,-19.5"/>
<text text-anchor="middle" x="42" y="-26.5" font-family="Helvetica,sans-Serif" font-size="10.00">xtb_qmdff::ff_hb</text>
</a>
</g>
</g>
<!-- Node2 -->
<g id="node2" class="node">
<title>Node2</title>
<g id="a_node2"><a xlink:href="namespacextb__qmdff.html#a83af658a183b6207f5f2be411cb10417" target="_top" xlink:title=" ">
<polygon fill="white" stroke="black" points="120,-38.5 120,-57.5 215,-57.5 215,-38.5 120,-38.5"/>
<text text-anchor="middle" x="167.5" y="-45.5" font-family="Helvetica,sans-Serif" font-size="10.00">xtb_qmdff::eabhag</text>
</a>
</g>
</g>
<!-- Node1&#45;&gt;Node2 -->
<g id="edge1" class="edge">
<title>Node1&#45;&gt;Node2</title>
<path fill="none" stroke="midnightblue" d="M84.12,-35.33C92.29,-36.58 101.01,-37.92 109.6,-39.25"/>
<polygon fill="midnightblue" stroke="midnightblue" points="109.17,-42.72 119.58,-40.78 110.23,-35.8 109.17,-42.72"/>
</g>
<!-- Node3 -->
<g id="node3" class="node">
<title>Node3</title>
<g id="a_node3"><a xlink:href="namespacextb__qmdff.html#a9d8a590cacfb9407eb367a45a18e3170" target="_top" xlink:title=" ">
<polygon fill="white" stroke="black" points="120.5,-0.5 120.5,-19.5 214.5,-19.5 214.5,-0.5 120.5,-0.5"/>
<text text-anchor="middle" x="167.5" y="-7.5" font-family="Helvetica,sans-Serif" font-size="10.00">xtb_qmdff::eabxag</text>
</a>
</g>
</g>
<!-- Node1&#45;&gt;Node3 -->
<g id="edge2" class="edge">
<title>Node1&#45;&gt;Node3</title>
<path fill="none" stroke="midnightblue" d="M84.12,-22.67C92.59,-21.37 101.63,-19.98 110.52,-18.61"/>
<polygon fill="midnightblue" stroke="midnightblue" points="111.09,-22.07 120.44,-17.09 110.03,-15.15 111.09,-22.07"/>
</g>
<!-- Node4 -->
<g id="node4" class="node">
<title>Node4</title>
<g id="a_node4"><a xlink:href="namespacextb__qmdff.html#a42f8647b47dccd236f11d6c1951bffa4" target="_top" xlink:title=" ">
<polygon fill="white" stroke="black" points="251,-0.5 251,-19.5 334,-19.5 334,-0.5 251,-0.5"/>
<text text-anchor="middle" x="292.5" y="-7.5" font-family="Helvetica,sans-Serif" font-size="10.00">xtb_qmdff::eabx</text>
</a>
</g>
</g>
<!-- Node3&#45;&gt;Node4 -->
<g id="edge3" class="edge">
<title>Node3&#45;&gt;Node4</title>
<path fill="none" stroke="midnightblue" d="M214.65,-10C223.08,-10 231.93,-10 240.49,-10"/>
<polygon fill="midnightblue" stroke="midnightblue" points="240.75,-13.5 250.75,-10 240.75,-6.5 240.75,-13.5"/>
</g>
</g>
</svg>
