<?xml version="1.0" encoding="UTF-8" standalone="no"?>
<!DOCTYPE svg PUBLIC "-//W3C//DTD SVG 1.1//EN"
 "http://www.w3.org/Graphics/SVG/1.1/DTD/svg11.dtd">
<!-- Generated by graphviz version 2.46.0 (20210122.1329)
 -->
<!-- Title: xtb_readparam::readparam Pages: 1 -->
<!--zoomable 734 -->
<svg id="main" version="1.1" xmlns="http://www.w3.org/2000/svg" xmlns:xlink="http://www.w3.org/1999/xlink" xml:space="preserve" onload="init(evt)">
<style type="text/css"><![CDATA[
.edge:hover path { stroke: red; }
.edge:hover polygon { stroke: red; fill: red; }
]]></style>
<script type="text/javascript"><![CDATA[
var edges = document.getElementsByTagName('g');
if (edges && edges.length) {
  for (var i=0;i<edges.length;i++) {
    if (edges[i].id.substr(0,4)=='edge') {
      edges[i].setAttribute('class','edge');
    }
  }
}
]]></script>
        <defs>
                <circle id="rim" cx="0" cy="0" r="7"/>
                <circle id="rim2" cx="0" cy="0" r="3.5"/>
                <g id="zoomPlus">
                        <use xlink:href="#rim" fill="#404040">
                                <set attributeName="fill" to="#808080" begin="zoomplus.mouseover" end="zoomplus.mouseout"/>
                        </use>
                        <path d="M-4,0h8M0,-4v8" fill="none" stroke="white" stroke-width="1.5" pointer-events="none"/>
                </g>
                <g id="zoomMin">
                        <use xlink:href="#rim" fill="#404040">
                                <set attributeName="fill" to="#808080" begin="zoomminus.mouseover" end="zoomminus.mouseout"/>
                        </use>
                        <path d="M-4,0h8" fill="none" stroke="white" stroke-width="1.5" pointer-events="none"/>
                </g>
                <g id="dirArrow">
                        <path fill="none" stroke="white" stroke-width="1.5" d="M0,-3.0v7 M-2.5,-0.5L0,-3.0L2.5,-0.5"/>
                </g>
               <g id="resetDef">
                       <use xlink:href="#rim2" fill="#404040">
                               <set attributeName="fill" to="#808080" begin="reset.mouseover" end="reset.mouseout"/>
                       </use>
               </g>
        </defs>

<script type="text/javascript">
var viewWidth = 1048;
var viewHeight = 734;
var sectionId = 'dynsection-0';
</script>
<script xlink:href="svgpan.js"/>
<svg id="graph" class="graph">
<g id="viewport">
<title>xtb_readparam::readparam</title>
<polygon fill="white" stroke="transparent" points="-4,4 -4,-729.5 1044,-729.5 1044,4 -4,4"/>
<!-- Node1 -->
<g id="node1" class="node">
<title>Node1</title>
<g id="a_node1"><a xlink:title=" ">
<polygon fill="#bfbfbf" stroke="black" points="0,-352 0,-371 131,-371 131,-352 0,-352"/>
<text text-anchor="middle" x="65.5" y="-359" font-family="Helvetica,sans-Serif" font-size="10.00">xtb_readparam::readparam</text>
</a>
</g>
</g>
<!-- Node2 -->
<g id="node2" class="node">
<title>Node2</title>
<g id="a_node2"><a xlink:href="namespacextb__xtb__data.html#a0ef185a810118cafe95f5996c06cc47d" target="_top" xlink:title="Transform a data array from angular momenta to shell number references.">
<polygon fill="white" stroke="black" points="193,-706 193,-725 332,-725 332,-706 193,-706"/>
<text text-anchor="middle" x="262.5" y="-713" font-family="Helvetica,sans-Serif" font-size="10.00">xtb_xtb_data::angtoshelldata</text>
</a>
</g>
</g>
<!-- Node1&#45;&gt;Node2 -->
<g id="edge1" class="edge">
<title>Node1&#45;&gt;Node2</title>
<path fill="none" stroke="midnightblue" d="M66.11,-371.3C64.91,-416.28 66.23,-604.7 167,-696.5 171.79,-700.86 177.29,-704.34 183.18,-707.1"/>
<polygon fill="midnightblue" stroke="midnightblue" points="182.12,-710.45 192.71,-710.88 184.7,-703.94 182.12,-710.45"/>
</g>
<!-- Node3 -->
<g id="node3" class="node">
<title>Node3</title>
<g id="a_node3"><a xlink:href="namespacextb__disp__dftd3param.html#a6e770f0472a1e1eca178899cee6100f7" target="_top" xlink:title=" ">
<polygon fill="white" stroke="black" points="209,-656.5 209,-686.5 316,-686.5 316,-656.5 209,-656.5"/>
<text text-anchor="start" x="217" y="-674.5" font-family="Helvetica,sans-Serif" font-size="10.00">xtb_disp_dftd3param</text>
<text text-anchor="middle" x="262.5" y="-663.5" font-family="Helvetica,sans-Serif" font-size="10.00">::copy_c6</text>
</a>
</g>
</g>
<!-- Node1&#45;&gt;Node3 -->
<g id="edge2" class="edge">
<title>Node1&#45;&gt;Node3</title>
<path fill="none" stroke="midnightblue" d="M66.82,-371.07C68.68,-411.2 81.4,-567.52 167,-646.5 175.96,-654.77 187.34,-660.37 199.08,-664.14"/>
<polygon fill="midnightblue" stroke="midnightblue" points="198.4,-667.59 208.97,-666.9 200.28,-660.84 198.4,-667.59"/>
</g>
<!-- Node4 -->
<g id="node4" class="node">
<title>Node4</title>
<g id="a_node4"><a xlink:href="namespacextb__xtb__data.html#aec64d20b7353bc338de9335372c794b9" target="_top" xlink:title="Generator for valence shell data from the angular momenta of the shells.">
<polygon fill="white" stroke="black" points="169.5,-618 169.5,-637 355.5,-637 355.5,-618 169.5,-618"/>
<text text-anchor="middle" x="262.5" y="-625" font-family="Helvetica,sans-Serif" font-size="10.00">xtb_xtb_data::generatevalenceshelldata</text>
</a>
</g>
</g>
<!-- Node1&#45;&gt;Node4 -->
<g id="edge3" class="edge">
<title>Node1&#45;&gt;Node4</title>
<path fill="none" stroke="midnightblue" d="M67.47,-371.12C71.67,-407.56 91.64,-538.34 167,-603.5 171.79,-607.64 177.2,-611.08 182.94,-613.95"/>
<polygon fill="midnightblue" stroke="midnightblue" points="181.63,-617.19 192.2,-617.98 184.43,-610.78 181.63,-617.19"/>
</g>
<!-- Node5 -->
<g id="node5" class="node">
<title>Node5</title>
<g id="a_node5"><a xlink:href="symmetry__i_8c.html#aa77c823a9fc018ae1d437369708d8727" target="_top" xlink:title=" ">
<polygon fill="white" stroke="black" points="447.5,-618 447.5,-637 480.5,-637 480.5,-618 447.5,-618"/>
<text text-anchor="middle" x="464" y="-625" font-family="Helvetica,sans-Serif" font-size="10.00">true</text>
</a>
</g>
</g>
<!-- Node1&#45;&gt;Node5 -->
<g id="edge33" class="edge">
<title>Node1&#45;&gt;Node5</title>
<path fill="none" stroke="midnightblue" d="M68.05,-371.33C73.92,-405.12 98.11,-517.43 167,-570.5 172.42,-574.68 366.76,-610.11 437.54,-622.91"/>
<polygon fill="midnightblue" stroke="midnightblue" points="436.96,-626.36 447.42,-624.7 438.21,-619.47 436.96,-626.36"/>
</g>
<!-- Node6 -->
<g id="node6" class="node">
<title>Node6</title>
<g id="a_node6"><a xlink:href="namespacextb__disp__dftd4.html#a3d014ea0442326639fae387e19ab6e1f" target="_top" xlink:title=" ">
<polygon fill="white" stroke="black" points="193,-542 193,-561 332,-561 332,-542 193,-542"/>
<text text-anchor="middle" x="262.5" y="-549" font-family="Helvetica,sans-Serif" font-size="10.00">xtb_disp_dftd4::newd4model</text>
</a>
</g>
</g>
<!-- Node1&#45;&gt;Node6 -->
<g id="edge5" class="edge">
<title>Node1&#45;&gt;Node6</title>
<path fill="none" stroke="midnightblue" d="M69.12,-371.16C77.64,-400.67 107.54,-490.15 167,-532.5 171.89,-535.98 177.27,-538.86 182.89,-541.24"/>
<polygon fill="midnightblue" stroke="midnightblue" points="181.97,-544.63 192.56,-544.79 184.38,-538.06 181.97,-544.63"/>
</g>
<!-- Node9 -->
<g id="node9" class="node">
<title>Node9</title>
<g id="a_node9"><a xlink:href="read__gfn__param_8f90.html#a36d6b2163be85e7fabfb45b39893fd7f" target="_top" xlink:title=" ">
<polygon fill="white" stroke="black" points="225,-504 225,-523 300,-523 300,-504 225,-504"/>
<text text-anchor="middle" x="262.5" y="-511" font-family="Helvetica,sans-Serif" font-size="10.00">read_elempar</text>
</a>
</g>
</g>
<!-- Node1&#45;&gt;Node9 -->
<g id="edge8" class="edge">
<title>Node1&#45;&gt;Node9</title>
<path fill="none" stroke="midnightblue" d="M70.73,-371.11C82.21,-395.99 116.52,-462.78 167,-494.5 181.06,-503.34 198.43,-508.18 214.42,-510.79"/>
<polygon fill="midnightblue" stroke="midnightblue" points="214.3,-514.31 224.68,-512.21 215.25,-507.38 214.3,-514.31"/>
</g>
<!-- Node16 -->
<g id="node16" class="node">
<title>Node16</title>
<g id="a_node16"><a xlink:href="read__gfn__param_8f90.html#a32e0a7b3f90247343fa30455d83a5888" target="_top" xlink:title=" ">
<polygon fill="white" stroke="black" points="226.5,-466 226.5,-485 298.5,-485 298.5,-466 226.5,-466"/>
<text text-anchor="middle" x="262.5" y="-473" font-family="Helvetica,sans-Serif" font-size="10.00">read_globpar</text>
</a>
</g>
</g>
<!-- Node1&#45;&gt;Node16 -->
<g id="edge16" class="edge">
<title>Node1&#45;&gt;Node16</title>
<path fill="none" stroke="midnightblue" d="M73.59,-371.14C88.5,-390.67 125.21,-434.86 167,-456.5 181.99,-464.26 199.85,-468.86 215.98,-471.58"/>
<polygon fill="midnightblue" stroke="midnightblue" points="215.88,-475.1 226.28,-473.11 216.91,-468.18 215.88,-475.1"/>
</g>
<!-- Node18 -->
<g id="node18" class="node">
<title>Node18</title>
<g id="a_node18"><a xlink:href="read__gfn__param_8f90.html#a374673e9a506c8192697ba5426443243" target="_top" xlink:title=" ">
<polygon fill="white" stroke="black" points="234.5,-428 234.5,-447 290.5,-447 290.5,-428 234.5,-428"/>
<text text-anchor="middle" x="262.5" y="-435" font-family="Helvetica,sans-Serif" font-size="10.00">read_info</text>
</a>
</g>
</g>
<!-- Node1&#45;&gt;Node18 -->
<g id="edge18" class="edge">
<title>Node1&#45;&gt;Node18</title>
<path fill="none" stroke="midnightblue" d="M82.34,-371.15C101.71,-382.6 135.78,-401.64 167,-413.5 185.39,-420.49 206.55,-426.07 224.18,-430.09"/>
<polygon fill="midnightblue" stroke="midnightblue" points="223.59,-433.55 234.11,-432.28 225.09,-426.71 223.59,-433.55"/>
</g>
<!-- Node19 -->
<g id="node19" class="node">
<title>Node19</title>
<g id="a_node19"><a xlink:href="read__gfn__param_8f90.html#a87514e39671ed54f3de85566078345f7" target="_top" xlink:title=" ">
<polygon fill="white" stroke="black" points="429,-390 429,-409 499,-409 499,-390 429,-390"/>
<text text-anchor="middle" x="464" y="-397" font-family="Helvetica,sans-Serif" font-size="10.00">read_pairpar</text>
</a>
</g>
</g>
<!-- Node1&#45;&gt;Node19 -->
<g id="edge19" class="edge">
<title>Node1&#45;&gt;Node19</title>
<path fill="none" stroke="midnightblue" d="M110.84,-371.1C128.27,-374.55 148.5,-378.17 167,-380.5 255.74,-391.69 360.32,-396.44 418.4,-398.34"/>
<polygon fill="midnightblue" stroke="midnightblue" points="418.58,-401.85 428.69,-398.66 418.8,-394.85 418.58,-401.85"/>
</g>
<!-- Node20 -->
<g id="node20" class="node">
<title>Node20</title>
<g id="a_node20"><a xlink:href="namespacextb__xtb__gfn0.html#a1d5082ae4e102ffccf4f22e111914632" target="_top" xlink:title=" ">
<polygon fill="white" stroke="black" points="167,-352 167,-371 358,-371 358,-352 167,-352"/>
<text text-anchor="middle" x="262.5" y="-359" font-family="Helvetica,sans-Serif" font-size="10.00">xtb_xtb_gfn0::setgfn0numberofprimitives</text>
</a>
</g>
</g>
<!-- Node1&#45;&gt;Node20 -->
<g id="edge21" class="edge">
<title>Node1&#45;&gt;Node20</title>
<path fill="none" stroke="midnightblue" d="M131.16,-361.5C139.37,-361.5 147.93,-361.5 156.56,-361.5"/>
<polygon fill="midnightblue" stroke="midnightblue" points="156.72,-365 166.72,-361.5 156.72,-358 156.72,-365"/>
</g>
<!-- Node21 -->
<g id="node21" class="node">
<title>Node21</title>
<g id="a_node21"><a xlink:href="namespacextb__xtb__gfn1.html#a98ba7da25e3b64fcef0688c67039c86b" target="_top" xlink:title=" ">
<polygon fill="white" stroke="black" points="200.5,-314 200.5,-333 324.5,-333 324.5,-314 200.5,-314"/>
<text text-anchor="middle" x="262.5" y="-321" font-family="Helvetica,sans-Serif" font-size="10.00">xtb_xtb_gfn1::setgfn1kcn</text>
</a>
</g>
</g>
<!-- Node1&#45;&gt;Node21 -->
<g id="edge22" class="edge">
<title>Node1&#45;&gt;Node21</title>
<path fill="none" stroke="midnightblue" d="M115.46,-351.96C141.88,-346.81 174.69,-340.42 202.52,-334.99"/>
<polygon fill="midnightblue" stroke="midnightblue" points="203.38,-338.39 212.52,-333.04 202.04,-331.52 203.38,-338.39"/>
</g>
<!-- Node22 -->
<g id="node22" class="node">
<title>Node22</title>
<g id="a_node22"><a xlink:href="namespacextb__xtb__gfn1.html#ae68fe854197b5ef4626cf4d66339a9c7" target="_top" xlink:title=" ">
<polygon fill="white" stroke="black" points="167,-276 167,-295 358,-295 358,-276 167,-276"/>
<text text-anchor="middle" x="262.5" y="-283" font-family="Helvetica,sans-Serif" font-size="10.00">xtb_xtb_gfn1::setgfn1numberofprimitives</text>
</a>
</g>
</g>
<!-- Node1&#45;&gt;Node22 -->
<g id="edge23" class="edge">
<title>Node1&#45;&gt;Node22</title>
<path fill="none" stroke="midnightblue" d="M80.12,-351.9C98.83,-339.16 133.92,-316.84 167,-304.5 174.22,-301.81 181.9,-299.47 189.64,-297.44"/>
<polygon fill="midnightblue" stroke="midnightblue" points="190.57,-300.82 199.45,-295.04 188.91,-294.02 190.57,-300.82"/>
</g>
<!-- Node23 -->
<g id="node23" class="node">
<title>Node23</title>
<g id="a_node23"><a xlink:href="namespacextb__xtb__gfn1.html#a8f43ad203ceab50c4b5d21cc0f58357f" target="_top" xlink:title=" ">
<polygon fill="white" stroke="black" points="180.5,-238 180.5,-257 344.5,-257 344.5,-238 180.5,-238"/>
<text text-anchor="middle" x="262.5" y="-245" font-family="Helvetica,sans-Serif" font-size="10.00">xtb_xtb_gfn1::setgfn1referenceocc</text>
</a>
</g>
</g>
<!-- Node1&#45;&gt;Node23 -->
<g id="edge24" class="edge">
<title>Node1&#45;&gt;Node23</title>
<path fill="none" stroke="midnightblue" d="M73.59,-351.86C88.5,-332.33 125.21,-288.14 167,-266.5 171.53,-264.16 176.32,-262.1 181.24,-260.3"/>
<polygon fill="midnightblue" stroke="midnightblue" points="182.44,-263.59 190.84,-257.13 180.25,-256.94 182.44,-263.59"/>
</g>
<!-- Node24 -->
<g id="node24" class="node">
<title>Node24</title>
<g id="a_node24"><a xlink:href="namespacextb__xtb__gfn1.html#a71638ad9083a0689c43a927b784703af" target="_top" xlink:title=" ">
<polygon fill="white" stroke="black" points="178.5,-200 178.5,-219 346.5,-219 346.5,-200 178.5,-200"/>
<text text-anchor="middle" x="262.5" y="-207" font-family="Helvetica,sans-Serif" font-size="10.00">xtb_xtb_gfn1::setgfn1shellhardness</text>
</a>
</g>
</g>
<!-- Node1&#45;&gt;Node24 -->
<g id="edge25" class="edge">
<title>Node1&#45;&gt;Node24</title>
<path fill="none" stroke="midnightblue" d="M70.73,-351.89C82.21,-327.01 116.52,-260.22 167,-228.5 170.24,-226.47 173.65,-224.64 177.18,-223.01"/>
<polygon fill="midnightblue" stroke="midnightblue" points="178.81,-226.13 186.76,-219.12 176.17,-219.64 178.81,-226.13"/>
</g>
<!-- Node25 -->
<g id="node25" class="node">
<title>Node25</title>
<g id="a_node25"><a xlink:href="namespacextb__xtb__gfn2.html#a6a0272b42baa3451a2aefec1cda693af" target="_top" xlink:title=" ">
<polygon fill="white" stroke="black" points="167,-162 167,-181 358,-181 358,-162 167,-162"/>
<text text-anchor="middle" x="262.5" y="-169" font-family="Helvetica,sans-Serif" font-size="10.00">xtb_xtb_gfn2::setgfn2numberofprimitives</text>
</a>
</g>
</g>
<!-- Node1&#45;&gt;Node25 -->
<g id="edge26" class="edge">
<title>Node1&#45;&gt;Node25</title>
<path fill="none" stroke="midnightblue" d="M69.12,-351.84C77.64,-322.33 107.54,-232.85 167,-190.5 169.57,-188.67 172.28,-187 175.09,-185.48"/>
<polygon fill="midnightblue" stroke="midnightblue" points="176.79,-188.55 184.37,-181.15 173.83,-182.21 176.79,-188.55"/>
</g>
<!-- Node26 -->
<g id="node26" class="node">
<title>Node26</title>
<g id="a_node26"><a xlink:href="namespacextb__xtb__gfn2.html#a506c9ac48491f9017ad8c1c5adc68147" target="_top" xlink:title=" ">
<polygon fill="white" stroke="black" points="180.5,-124 180.5,-143 344.5,-143 344.5,-124 180.5,-124"/>
<text text-anchor="middle" x="262.5" y="-131" font-family="Helvetica,sans-Serif" font-size="10.00">xtb_xtb_gfn2::setgfn2referenceocc</text>
</a>
</g>
</g>
<!-- Node1&#45;&gt;Node26 -->
<g id="edge27" class="edge">
<title>Node1&#45;&gt;Node26</title>
<path fill="none" stroke="midnightblue" d="M68.06,-351.69C73.99,-317.96 98.32,-205.85 167,-152.5 169.22,-150.78 171.55,-149.2 173.97,-147.76"/>
<polygon fill="midnightblue" stroke="midnightblue" points="175.78,-150.76 183.09,-143.08 172.59,-144.53 175.78,-150.76"/>
</g>
<!-- Node27 -->
<g id="node27" class="node">
<title>Node27</title>
<g id="a_node27"><a xlink:href="namespacextb__xtb__gfn2.html#a5b8ab76337d79ddb77fd4e02f08e293b" target="_top" xlink:title=" ">
<polygon fill="white" stroke="black" points="178,-86 178,-105 347,-105 347,-86 178,-86"/>
<text text-anchor="middle" x="262.5" y="-93" font-family="Helvetica,sans-Serif" font-size="10.00">xtb_xtb_gfn2::setgfn2thirdordershell</text>
</a>
</g>
</g>
<!-- Node1&#45;&gt;Node27 -->
<g id="edge28" class="edge">
<title>Node1&#45;&gt;Node27</title>
<path fill="none" stroke="midnightblue" d="M67.27,-351.82C70.79,-314.56 88.72,-179.29 167,-114.5 168.83,-112.98 170.75,-111.58 172.75,-110.27"/>
<polygon fill="midnightblue" stroke="midnightblue" points="174.86,-113.1 181.9,-105.18 171.46,-106.98 174.86,-113.1"/>
</g>
<!-- Node28 -->
<g id="node28" class="node">
<title>Node28</title>
<g id="a_node28"><a xlink:href="namespacextb__paramset.html#aa718fa7bc56b87001ad66ae5a294b5b2" target="_top" xlink:title=" ">
<polygon fill="white" stroke="black" points="208,-48 208,-67 317,-67 317,-48 208,-48"/>
<text text-anchor="middle" x="262.5" y="-55" font-family="Helvetica,sans-Serif" font-size="10.00">xtb_paramset::setpair</text>
</a>
</g>
</g>
<!-- Node1&#45;&gt;Node28 -->
<g id="edge29" class="edge">
<title>Node1&#45;&gt;Node28</title>
<path fill="none" stroke="midnightblue" d="M66.69,-351.8C68.06,-311.11 79.06,-152.87 167,-76.5 175.7,-68.95 186.55,-64.08 197.77,-61.01"/>
<polygon fill="midnightblue" stroke="midnightblue" points="198.71,-64.38 207.68,-58.74 197.15,-57.56 198.71,-64.38"/>
</g>
<!-- Node30 -->
<g id="node30" class="node">
<title>Node30</title>
<g id="a_node30"><a xlink:href="namespacextb__readin.html#aa4cba2ddf891393117f495075dbdbfbd" target="_top" xlink:title=" ">
<polygon fill="white" stroke="black" points="210.5,-9 210.5,-28 314.5,-28 314.5,-9 210.5,-9"/>
<text text-anchor="middle" x="262.5" y="-16" font-family="Helvetica,sans-Serif" font-size="10.00">xtb_readin::strip_line</text>
</a>
</g>
</g>
<!-- Node1&#45;&gt;Node30 -->
<g id="edge31" class="edge">
<title>Node1&#45;&gt;Node30</title>
<path fill="none" stroke="midnightblue" d="M66.26,-351.77C65.74,-307.94 69.75,-127.09 167,-38.5 176.29,-30.03 188.25,-24.81 200.5,-21.66"/>
<polygon fill="midnightblue" stroke="midnightblue" points="201.31,-25.07 210.36,-19.55 199.85,-18.22 201.31,-25.07"/>
</g>
<!-- Node4&#45;&gt;Node5 -->
<g id="edge4" class="edge">
<title>Node4&#45;&gt;Node5</title>
<path fill="none" stroke="midnightblue" d="M355.66,-627.5C385.43,-627.5 416.11,-627.5 437,-627.5"/>
<polygon fill="midnightblue" stroke="midnightblue" points="437.26,-631 447.26,-627.5 437.26,-624 437.26,-631"/>
</g>
<!-- Node7 -->
<g id="node7" class="node">
<title>Node7</title>
<g id="a_node7"><a xlink:href="namespacextb__disp__dftd4.html#afc075e41379fb49a320035512d0aa9d3" target="_top" xlink:title=" ">
<polygon fill="white" stroke="black" points="409,-580 409,-599 519,-599 519,-580 409,-580"/>
<text text-anchor="middle" x="464" y="-587" font-family="Helvetica,sans-Serif" font-size="10.00">xtb_disp_dftd4::trapzd</text>
</a>
</g>
</g>
<!-- Node6&#45;&gt;Node7 -->
<g id="edge6" class="edge">
<title>Node6&#45;&gt;Node7</title>
<path fill="none" stroke="midnightblue" d="M313.58,-561.04C340.74,-566.21 374.49,-572.64 403.03,-578.08"/>
<polygon fill="midnightblue" stroke="midnightblue" points="402.42,-581.52 412.89,-579.96 403.73,-574.65 402.42,-581.52"/>
</g>
<!-- Node8 -->
<g id="node8" class="node">
<title>Node8</title>
<g id="a_node8"><a xlink:href="namespacextb__disp__dftd4.html#a84f2fe9e55715ff22663ba9cbc3b02c2" target="_top" xlink:title=" ">
<polygon fill="white" stroke="black" points="413,-542 413,-561 515,-561 515,-542 413,-542"/>
<text text-anchor="middle" x="464" y="-549" font-family="Helvetica,sans-Serif" font-size="10.00">xtb_disp_dftd4::zeta</text>
</a>
</g>
</g>
<!-- Node6&#45;&gt;Node8 -->
<g id="edge7" class="edge">
<title>Node6&#45;&gt;Node8</title>
<path fill="none" stroke="midnightblue" d="M332.16,-551.5C355.02,-551.5 380.31,-551.5 402.51,-551.5"/>
<polygon fill="midnightblue" stroke="midnightblue" points="402.8,-555 412.8,-551.5 402.8,-548 402.8,-555"/>
</g>
<!-- Node10 -->
<g id="node10" class="node">
<title>Node10</title>
<g id="a_node10"><a xlink:href="read__gfn__param_8f90.html#aa3c037140f85b6c6a80c609ee89b8467" target="_top" xlink:title=" ">
<polygon fill="white" stroke="black" points="429,-504 429,-523 499,-523 499,-504 429,-504"/>
<text text-anchor="middle" x="464" y="-511" font-family="Helvetica,sans-Serif" font-size="10.00">gfn_elempar</text>
</a>
</g>
</g>
<!-- Node9&#45;&gt;Node10 -->
<g id="edge9" class="edge">
<title>Node9&#45;&gt;Node10</title>
<path fill="none" stroke="midnightblue" d="M300.09,-513.5C333.57,-513.5 383.17,-513.5 418.84,-513.5"/>
<polygon fill="midnightblue" stroke="midnightblue" points="418.97,-517 428.97,-513.5 418.97,-510 418.97,-517"/>
</g>
<!-- Node15 -->
<g id="node15" class="node">
<title>Node15</title>
<g id="a_node15"><a xlink:href="namespacextb__mctc__strings.html#ae9ebd6dfc568e607d6557a8762bf28b0" target="_top" xlink:title="convert string to lower case">
<polygon fill="white" stroke="black" points="394,-466 394,-485 534,-485 534,-466 394,-466"/>
<text text-anchor="middle" x="464" y="-473" font-family="Helvetica,sans-Serif" font-size="10.00">xtb_mctc_strings::lowercase</text>
</a>
</g>
</g>
<!-- Node9&#45;&gt;Node15 -->
<g id="edge15" class="edge">
<title>Node9&#45;&gt;Node15</title>
<path fill="none" stroke="midnightblue" d="M300.09,-506.53C328.84,-501.05 369.48,-493.31 402.97,-486.93"/>
<polygon fill="midnightblue" stroke="midnightblue" points="403.95,-490.31 413.12,-485 402.64,-483.43 403.95,-490.31"/>
</g>
<!-- Node11 -->
<g id="node11" class="node">
<title>Node11</title>
<g id="a_node11"><a xlink:href="namespacextb__mctc__strings.html#a5272db42d49f38098924d2587c9e9a78" target="_top" xlink:title="Parses the string &#39;str&#39; into arguments args(1), ..., args(nargs) based on the delimiters contained in...">
<polygon fill="white" stroke="black" points="570,-447 570,-466 689,-466 689,-447 570,-447"/>
<text text-anchor="middle" x="629.5" y="-454" font-family="Helvetica,sans-Serif" font-size="10.00">xtb_mctc_strings::parse</text>
</a>
</g>
</g>
<!-- Node10&#45;&gt;Node11 -->
<g id="edge10" class="edge">
<title>Node10&#45;&gt;Node11</title>
<path fill="none" stroke="midnightblue" d="M499.28,-504.89C510.43,-501.86 522.82,-498.27 534,-494.5 555.44,-487.26 579.07,-477.76 597.33,-470.07"/>
<polygon fill="midnightblue" stroke="midnightblue" points="598.78,-473.26 606.62,-466.12 596.04,-466.82 598.78,-473.26"/>
</g>
<!-- Node12 -->
<g id="node12" class="node">
<title>Node12</title>
<g id="a_node12"><a xlink:href="namespacextb__mctc__strings.html#a83fe8976b683970b27e6b64632d50916" target="_top" xlink:title="Converts multiple spaces and tabs to single spaces; deletes control characters; removes initial space...">
<polygon fill="white" stroke="black" points="907,-447 907,-466 1040,-466 1040,-447 907,-447"/>
<text text-anchor="middle" x="973.5" y="-454" font-family="Helvetica,sans-Serif" font-size="10.00">xtb_mctc_strings::compact</text>
</a>
</g>
</g>
<!-- Node11&#45;&gt;Node12 -->
<g id="edge11" class="edge">
<title>Node11&#45;&gt;Node12</title>
<path fill="none" stroke="midnightblue" d="M668.86,-466.01C685.93,-469.77 706.35,-473.64 725,-475.5 789.57,-481.93 806.39,-481.5 871,-475.5 887.4,-473.98 905.1,-471.1 921.06,-468.04"/>
<polygon fill="midnightblue" stroke="midnightblue" points="922.14,-471.39 931.26,-466.01 920.77,-464.53 922.14,-471.39"/>
</g>
<!-- Node13 -->
<g id="node13" class="node">
<title>Node13</title>
<g id="a_node13"><a xlink:href="namespacextb__mctc__strings.html#ac1ac14e68e16e450995779028bd6566f" target="_top" xlink:title="Removes backslash () characters. Double backslashes (\) are replaced by a single backslash.">
<polygon fill="white" stroke="black" points="725,-447 725,-466 871,-466 871,-447 725,-447"/>
<text text-anchor="middle" x="798" y="-454" font-family="Helvetica,sans-Serif" font-size="10.00">xtb_mctc_strings::removebksl</text>
</a>
</g>
</g>
<!-- Node11&#45;&gt;Node13 -->
<g id="edge12" class="edge">
<title>Node11&#45;&gt;Node13</title>
<path fill="none" stroke="midnightblue" d="M689.2,-456.5C697.48,-456.5 706.11,-456.5 714.73,-456.5"/>
<polygon fill="midnightblue" stroke="midnightblue" points="714.82,-460 724.82,-456.5 714.82,-453 714.82,-460"/>
</g>
<!-- Node14 -->
<g id="node14" class="node">
<title>Node14</title>
<g id="a_node14"><a xlink:href="namespacextb__mctc__strings.html#a01f52f6293684260e59260ff5790e5c3" target="_top" xlink:title="Routine finds the first instance of a character from &#39;delims&#39; in the the string &#39;str&#39;....">
<polygon fill="white" stroke="black" points="741.5,-409 741.5,-428 854.5,-428 854.5,-409 741.5,-409"/>
<text text-anchor="middle" x="798" y="-416" font-family="Helvetica,sans-Serif" font-size="10.00">xtb_mctc_strings::split</text>
</a>
</g>
</g>
<!-- Node11&#45;&gt;Node14 -->
<g id="edge13" class="edge">
<title>Node11&#45;&gt;Node14</title>
<path fill="none" stroke="midnightblue" d="M672.51,-446.91C694.68,-441.85 722.07,-435.6 745.51,-430.25"/>
<polygon fill="midnightblue" stroke="midnightblue" points="746.32,-433.66 755.29,-428.02 744.76,-426.83 746.32,-433.66"/>
</g>
<!-- Node14&#45;&gt;Node12 -->
<g id="edge14" class="edge">
<title>Node14&#45;&gt;Node12</title>
<path fill="none" stroke="midnightblue" d="M842.78,-428.09C865.99,-433.17 894.68,-439.46 919.17,-444.82"/>
<polygon fill="midnightblue" stroke="midnightblue" points="918.52,-448.26 929.03,-446.98 920.01,-441.42 918.52,-448.26"/>
</g>
<!-- Node17 -->
<g id="node17" class="node">
<title>Node17</title>
<g id="a_node17"><a xlink:href="read__gfn__param_8f90.html#a4365d12f8d8ac4f573cf376c60e93532" target="_top" xlink:title=" ">
<polygon fill="white" stroke="black" points="430.5,-428 430.5,-447 497.5,-447 497.5,-428 430.5,-428"/>
<text text-anchor="middle" x="464" y="-435" font-family="Helvetica,sans-Serif" font-size="10.00">gfn_globpar</text>
</a>
</g>
</g>
<!-- Node16&#45;&gt;Node17 -->
<g id="edge17" class="edge">
<title>Node16&#45;&gt;Node17</title>
<path fill="none" stroke="midnightblue" d="M298.71,-468.79C332.61,-462.34 383.95,-452.56 420.19,-445.65"/>
<polygon fill="midnightblue" stroke="midnightblue" points="421.29,-449.01 430.46,-443.7 419.98,-442.13 421.29,-449.01"/>
</g>
<!-- Node19&#45;&gt;Node11 -->
<g id="edge20" class="edge">
<title>Node19&#45;&gt;Node11</title>
<path fill="none" stroke="midnightblue" d="M499.28,-408.11C510.43,-411.14 522.82,-414.73 534,-418.5 555.44,-425.74 579.07,-435.24 597.33,-442.93"/>
<polygon fill="midnightblue" stroke="midnightblue" points="596.04,-446.18 606.62,-446.88 598.78,-439.74 596.04,-446.18"/>
</g>
<!-- Node29 -->
<g id="node29" class="node">
<title>Node29</title>
<g id="a_node29"><a xlink:href="namespacextb__paramset.html#a778d90934065b54ef79ded14000a3c6b" target="_top" xlink:title=" ">
<polygon fill="white" stroke="black" points="406.5,-50 406.5,-69 521.5,-69 521.5,-50 406.5,-50"/>
<text text-anchor="middle" x="464" y="-57" font-family="Helvetica,sans-Serif" font-size="10.00">xtb_paramset::tmmetal</text>
</a>
</g>
</g>
<!-- Node28&#45;&gt;Node29 -->
<g id="edge30" class="edge">
<title>Node28&#45;&gt;Node29</title>
<path fill="none" stroke="midnightblue" d="M317.22,-58.04C341.57,-58.28 370.61,-58.57 396.34,-58.83"/>
<polygon fill="midnightblue" stroke="midnightblue" points="396.35,-62.33 406.39,-58.93 396.42,-55.33 396.35,-62.33"/>
</g>
<!-- Node31 -->
<g id="node31" class="node">
<title>Node31</title>
<g id="a_node31"><a xlink:href="namespacextb__mctc__systools.html#a7b18e6c9bb5206d8fe0fbba49da3fbdb" target="_top" xlink:title=" ">
<polygon fill="white" stroke="black" points="413,-0.5 413,-30.5 515,-30.5 515,-0.5 413,-0.5"/>
<text text-anchor="start" x="421" y="-18.5" font-family="Helvetica,sans-Serif" font-size="10.00">xtb_mctc_systools::</text>
<text text-anchor="middle" x="464" y="-7.5" font-family="Helvetica,sans-Serif" font-size="10.00">getline</text>
</a>
</g>
</g>
<!-- Node30&#45;&gt;Node31 -->
<g id="edge32" class="edge">
<title>Node30&#45;&gt;Node31</title>
<path fill="none" stroke="midnightblue" d="M314.62,-17.73C341.45,-17.33 374.51,-16.83 402.6,-16.41"/>
<polygon fill="midnightblue" stroke="midnightblue" points="402.76,-19.91 412.71,-16.26 402.66,-12.91 402.76,-19.91"/>
</g>
</g>
</svg>
        <g id="navigator" transform="translate(0 0)" fill="#404254">
                <rect fill="#f2f5e9" fill-opacity="0.5" stroke="#606060" stroke-width=".5" x="0" y="0" width="60" height="60"/>
                <use id="zoomplus" xlink:href="#zoomPlus" x="17" y="9" onmousedown="handleZoom(evt,'in')"/>
                <use id="zoomminus" xlink:href="#zoomMin" x="42" y="9" onmousedown="handleZoom(evt,'out')"/>
                <use id="reset" xlink:href="#resetDef" x="30" y="36" onmousedown="handleReset()"/>
                <g id="arrowUp" xlink:href="#dirArrow" transform="translate(30 24)" onmousedown="handlePan(0,-1)">
                  <use xlink:href="#rim" fill="#404040">
                        <set attributeName="fill" to="#808080" begin="arrowUp.mouseover" end="arrowUp.mouseout"/>
                  </use>
                  <path fill="none" stroke="white" stroke-width="1.5" d="M0,-3.0v7 M-2.5,-0.5L0,-3.0L2.5,-0.5"/>
                </g>
                <g id="arrowRight" xlink:href="#dirArrow" transform="rotate(90) translate(36 -43)" onmousedown="handlePan(1,0)">
                  <use xlink:href="#rim" fill="#404040">
                        <set attributeName="fill" to="#808080" begin="arrowRight.mouseover" end="arrowRight.mouseout"/>
                  </use>
                  <path fill="none" stroke="white" stroke-width="1.5" d="M0,-3.0v7 M-2.5,-0.5L0,-3.0L2.5,-0.5"/>
                </g>
                <g id="arrowDown" xlink:href="#dirArrow" transform="rotate(180) translate(-30 -48)" onmousedown="handlePan(0,1)">
                  <use xlink:href="#rim" fill="#404040">
                        <set attributeName="fill" to="#808080" begin="arrowDown.mouseover" end="arrowDown.mouseout"/>
                  </use>
                  <path fill="none" stroke="white" stroke-width="1.5" d="M0,-3.0v7 M-2.5,-0.5L0,-3.0L2.5,-0.5"/>
                </g>
                <g id="arrowLeft" xlink:href="#dirArrow" transform="rotate(270) translate(-36 17)" onmousedown="handlePan(-1,0)">
                  <use xlink:href="#rim" fill="#404040">
                        <set attributeName="fill" to="#808080" begin="arrowLeft.mouseover" end="arrowLeft.mouseout"/>
                  </use>
                  <path fill="none" stroke="white" stroke-width="1.5" d="M0,-3.0v7 M-2.5,-0.5L0,-3.0L2.5,-0.5"/>
                </g>
        </g>
        <svg viewBox="0 0 15 15" width="100%" height="30px" preserveAspectRatio="xMaxYMin meet">
         <g id="arrow_out" transform="scale(0.3 0.3)">
          <a xlink:href="namespacextb__readparam_ad184b7ee3b917290f207ad23a9b5bb9c_cgraph_org.svg" target="_base">
           <rect id="button" ry="5" rx="5" y="6" x="6" height="38" width="38"
                fill="#f2f5e9" fill-opacity="0.5" stroke="#606060" stroke-width="1.0"/>
           <path id="arrow"
             d="M 11.500037,31.436501 C 11.940474,20.09759 22.043105,11.32322 32.158766,21.979434 L 37.068811,17.246167 C 37.068811,17.246167 37.088388,32 37.088388,32 L 22.160133,31.978069 C 22.160133,31.978069 26.997745,27.140456 26.997745,27.140456 C 18.528582,18.264221 13.291696,25.230495 11.500037,31.436501 z"
             style="fill:#404040;"/>
          </a>
         </g>
        </svg>
</svg>
