<?xml version="1.0" encoding="UTF-8" standalone="no"?>
<!DOCTYPE svg PUBLIC "-//W3C//DTD SVG 1.1//EN"
 "http://www.w3.org/Graphics/SVG/1.1/DTD/svg11.dtd">
<!-- Generated by graphviz version 2.43.0 (0)
 -->
<!-- Title: xtb_basis::newbasisset Pages: 1 -->
<!--zoomable 256 -->
<svg id="main" version="1.1" xmlns="http://www.w3.org/2000/svg" xmlns:xlink="http://www.w3.org/1999/xlink" xml:space="preserve" onload="init(evt)">
<style type="text/css"><![CDATA[
.edge:hover path { stroke: red; }
.edge:hover polygon { stroke: red; fill: red; }
]]></style>
<script type="text/javascript"><![CDATA[
var edges = document.getElementsByTagName('g');
if (edges && edges.length) {
  for (var i=0;i<edges.length;i++) {
    if (edges[i].id.substr(0,4)=='edge') {
      edges[i].setAttribute('class','edge');
    }
  }
}
]]></script>
        <defs>
                <circle id="rim" cx="0" cy="0" r="7"/>
                <circle id="rim2" cx="0" cy="0" r="3.5"/>
                <g id="zoomPlus">
                        <use xlink:href="#rim" fill="#404040">
                                <set attributeName="fill" to="#808080" begin="zoomplus.mouseover" end="zoomplus.mouseout"/>
                        </use>
                        <path d="M-4,0h8M0,-4v8" fill="none" stroke="white" stroke-width="1.5" pointer-events="none"/>
                </g>
                <g id="zoomMin">
                        <use xlink:href="#rim" fill="#404040">
                                <set attributeName="fill" to="#808080" begin="zoomminus.mouseover" end="zoomminus.mouseout"/>
                        </use>
                        <path d="M-4,0h8" fill="none" stroke="white" stroke-width="1.5" pointer-events="none"/>
                </g>
                <g id="dirArrow">
                        <path fill="none" stroke="white" stroke-width="1.5" d="M0,-3.0v7 M-2.5,-0.5L0,-3.0L2.5,-0.5"/>
                </g>
               <g id="resetDef">
                       <use xlink:href="#rim2" fill="#404040">
                               <set attributeName="fill" to="#808080" begin="reset.mouseover" end="reset.mouseout"/>
                       </use>
               </g>
        </defs>

<script type="text/javascript">
var viewWidth = 588;
var viewHeight = 256;
var sectionId = 'dynsection-3';
</script>
<script xlink:href="svgpan.js"/>
<svg id="graph" class="graph">
<g id="viewport">
<title>xtb_basis::newbasisset</title>
<polygon fill="white" stroke="transparent" points="-4,4 -4,-252 584,-252 584,4 -4,4"/>
<!-- Node1 -->
<g id="node1" class="node">
<title>Node1</title>
<g id="a_node1"><a xlink:title=" ">
<polygon fill="#bfbfbf" stroke="black" points="0,-114.5 0,-133.5 130,-133.5 130,-114.5 0,-114.5"/>
<text text-anchor="middle" x="65" y="-121.5" font-family="Helvetica,sans-Serif" font-size="10.00">xtb_basis::newbasisset</text>
</a>
</g>
</g>
<!-- Node2 -->
<g id="node2" class="node">
<title>Node2</title>
<g id="a_node2"><a xlink:href="namespacextb__basis.html#a48cc67c280b5a132da8ca0515df9cb26" target="_top" xlink:title=" ">
<polygon fill="white" stroke="black" points="186,-228.5 186,-247.5 286,-247.5 286,-228.5 186,-228.5"/>
<text text-anchor="middle" x="236" y="-235.5" font-family="Helvetica,sans-Serif" font-size="10.00">xtb_basis::atovlp</text>
</a>
</g>
</g>
<!-- Node1&#45;&gt;Node2 -->
<g id="edge1" class="edge">
<title>Node1&#45;&gt;Node2</title>
<path fill="none" stroke="midnightblue" d="M74.14,-133.5C90.06,-151.56 127.19,-191.06 166,-214 173.3,-218.31 181.49,-222.01 189.61,-225.12"/>
<polygon fill="midnightblue" stroke="midnightblue" points="188.46,-228.42 199.05,-228.5 190.82,-221.83 188.46,-228.42"/>
</g>
<!-- Node3 -->
<g id="node3" class="node">
<title>Node3</title>
<g id="a_node3"><a xlink:href="namespacextb__basis.html#a2e276b3c4c3f7524048f34c4d244660e" target="_top" xlink:title=" ">
<polygon fill="white" stroke="black" points="166,-76.5 166,-95.5 306,-95.5 306,-76.5 166,-76.5"/>
<text text-anchor="middle" x="236" y="-83.5" font-family="Helvetica,sans-Serif" font-size="10.00">xtb_basis::set_d_function</text>
</a>
</g>
</g>
<!-- Node1&#45;&gt;Node3 -->
<g id="edge2" class="edge">
<title>Node1&#45;&gt;Node3</title>
<path fill="none" stroke="midnightblue" d="M108.65,-114.41C131.15,-109.35 158.95,-103.1 182.74,-97.75"/>
<polygon fill="midnightblue" stroke="midnightblue" points="183.67,-101.13 192.66,-95.52 182.14,-94.3 183.67,-101.13"/>
</g>
<!-- Node4 -->
<g id="node4" class="node">
<title>Node4</title>
<g id="a_node4"><a xlink:href="namespacextb__slater.html#a19c2732e2b22af63a29d5e157f8415b3" target="_top" xlink:title="Expand Slater function in primitive gaussian functions.">
<polygon fill="white" stroke="black" points="342,-133.5 342,-152.5 479,-152.5 479,-133.5 342,-133.5"/>
<text text-anchor="middle" x="410.5" y="-140.5" font-family="Helvetica,sans-Serif" font-size="10.00">xtb_slater::slatertogauss</text>
</a>
</g>
</g>
<!-- Node1&#45;&gt;Node4 -->
<g id="edge9" class="edge">
<title>Node1&#45;&gt;Node4</title>
<path fill="none" stroke="midnightblue" d="M106.62,-133.51C124.69,-137.28 146.29,-141.14 166,-143 221.19,-148.2 283.73,-148.07 331.61,-146.71"/>
<polygon fill="midnightblue" stroke="midnightblue" points="332.01,-150.2 341.9,-146.39 331.8,-143.2 332.01,-150.2"/>
</g>
<!-- Node5 -->
<g id="node5" class="node">
<title>Node5</title>
<g id="a_node5"><a xlink:href="gfnff__ini_8f90.html#a07cf0529f275e36a83ad9aa337fe2f40" target="_top" xlink:title="zeta(g_a,gam(ia)*g_c,refq(ii,ia)+iz,q(i)+iz)">
<polygon fill="white" stroke="black" points="528.5,-161.5 528.5,-180.5 566.5,-180.5 566.5,-161.5 528.5,-161.5"/>
<text text-anchor="middle" x="547.5" y="-168.5" font-family="Helvetica,sans-Serif" font-size="10.00">zeta</text>
</a>
</g>
</g>
<!-- Node1&#45;&gt;Node5 -->
<g id="edge14" class="edge">
<title>Node1&#45;&gt;Node5</title>
<path fill="none" stroke="midnightblue" d="M87.33,-133.61C107.22,-142.05 137.97,-153.78 166,-159 295.91,-183.19 454.99,-176.91 518.43,-173.01"/>
<polygon fill="midnightblue" stroke="midnightblue" points="518.71,-176.5 528.46,-172.36 518.26,-169.51 518.71,-176.5"/>
</g>
<!-- Node6 -->
<g id="node6" class="node">
<title>Node6</title>
<g id="a_node6"><a xlink:href="symmetry__i_8c.html#aa77c823a9fc018ae1d437369708d8727" target="_top" xlink:title=" ">
<polygon fill="white" stroke="black" points="392.5,-76.5 392.5,-95.5 428.5,-95.5 428.5,-76.5 392.5,-76.5"/>
<text text-anchor="middle" x="410.5" y="-83.5" font-family="Helvetica,sans-Serif" font-size="10.00">true</text>
</a>
</g>
</g>
<!-- Node1&#45;&gt;Node6 -->
<g id="edge10" class="edge">
<title>Node1&#45;&gt;Node6</title>
<path fill="none" stroke="midnightblue" d="M78.01,-114.35C95.92,-100.65 131.23,-76.21 166,-67 242.62,-46.7 337.18,-66.18 382.63,-78.16"/>
<polygon fill="midnightblue" stroke="midnightblue" points="381.75,-81.55 392.32,-80.81 383.59,-74.8 381.75,-81.55"/>
</g>
<!-- Node7 -->
<g id="node7" class="node">
<title>Node7</title>
<g id="a_node7"><a xlink:href="namespacextb__basis.html#afbd86663a0bcc9342163998348c7ee50" target="_top" xlink:title=" ">
<polygon fill="white" stroke="black" points="167,-114.5 167,-133.5 305,-133.5 305,-114.5 167,-114.5"/>
<text text-anchor="middle" x="236" y="-121.5" font-family="Helvetica,sans-Serif" font-size="10.00">xtb_basis::set_f_function</text>
</a>
</g>
</g>
<!-- Node1&#45;&gt;Node7 -->
<g id="edge6" class="edge">
<title>Node1&#45;&gt;Node7</title>
<path fill="none" stroke="midnightblue" d="M130.37,-124C138.96,-124 147.83,-124 156.62,-124"/>
<polygon fill="midnightblue" stroke="midnightblue" points="156.87,-127.5 166.87,-124 156.87,-120.5 156.87,-127.5"/>
</g>
<!-- Node8 -->
<g id="node8" class="node">
<title>Node8</title>
<g id="a_node8"><a xlink:href="namespacextb__basis.html#ad529a79151086301d63a02dd0d5353ad" target="_top" xlink:title="determine basisset limits">
<polygon fill="white" stroke="black" points="182.5,-0.5 182.5,-19.5 289.5,-19.5 289.5,-0.5 182.5,-0.5"/>
<text text-anchor="middle" x="236" y="-7.5" font-family="Helvetica,sans-Serif" font-size="10.00">xtb_basis::xbasis0</text>
</a>
</g>
</g>
<!-- Node1&#45;&gt;Node8 -->
<g id="edge11" class="edge">
<title>Node1&#45;&gt;Node8</title>
<path fill="none" stroke="midnightblue" d="M74.14,-114.5C90.06,-96.44 127.19,-56.94 166,-34 173.3,-29.69 181.49,-25.99 189.61,-22.88"/>
<polygon fill="midnightblue" stroke="midnightblue" points="190.82,-26.17 199.05,-19.5 188.46,-19.58 190.82,-26.17"/>
</g>
<!-- Node3&#45;&gt;Node4 -->
<g id="edge3" class="edge">
<title>Node3&#45;&gt;Node4</title>
<path fill="none" stroke="midnightblue" d="M274.05,-95.59C284.44,-98.45 295.71,-101.7 306,-105 329.5,-112.53 355.57,-122.12 375.67,-129.77"/>
<polygon fill="midnightblue" stroke="midnightblue" points="374.43,-133.05 385.02,-133.36 376.94,-126.51 374.43,-133.05"/>
</g>
<!-- Node3&#45;&gt;Node6 -->
<g id="edge5" class="edge">
<title>Node3&#45;&gt;Node6</title>
<path fill="none" stroke="midnightblue" d="M306.17,-86C332.86,-86 361.83,-86 382.29,-86"/>
<polygon fill="midnightblue" stroke="midnightblue" points="382.43,-89.5 392.43,-86 382.43,-82.5 382.43,-89.5"/>
</g>
<!-- Node4&#45;&gt;Node5 -->
<g id="edge4" class="edge">
<title>Node4&#45;&gt;Node5</title>
<path fill="none" stroke="midnightblue" d="M457.58,-152.56C477.7,-156.73 500.64,-161.49 518.19,-165.13"/>
<polygon fill="midnightblue" stroke="midnightblue" points="517.84,-168.63 528.34,-167.23 519.26,-161.78 517.84,-168.63"/>
</g>
<!-- Node7&#45;&gt;Node4 -->
<g id="edge7" class="edge">
<title>Node7&#45;&gt;Node4</title>
<path fill="none" stroke="midnightblue" d="M305.18,-131.51C313.93,-132.47 322.95,-133.47 331.85,-134.45"/>
<polygon fill="midnightblue" stroke="midnightblue" points="331.5,-137.93 341.82,-135.55 332.26,-130.97 331.5,-137.93"/>
</g>
<!-- Node7&#45;&gt;Node6 -->
<g id="edge8" class="edge">
<title>Node7&#45;&gt;Node6</title>
<path fill="none" stroke="midnightblue" d="M280.53,-114.41C312.43,-107.38 354.75,-98.06 382.06,-92.05"/>
<polygon fill="midnightblue" stroke="midnightblue" points="383.07,-95.41 392.08,-89.84 381.56,-88.57 383.07,-95.41"/>
</g>
<!-- Node9 -->
<g id="node9" class="node">
<title>Node9</title>
<g id="a_node9"><a xlink:href="namespacextb__basis.html#ad626228bc2e0578b43162d3d83b46618" target="_top" xlink:title=" ">
<polygon fill="white" stroke="black" points="351,-0.5 351,-19.5 470,-19.5 470,-0.5 351,-0.5"/>
<text text-anchor="middle" x="410.5" y="-7.5" font-family="Helvetica,sans-Serif" font-size="10.00">xtb_basis::dim_basis</text>
</a>
</g>
</g>
<!-- Node8&#45;&gt;Node9 -->
<g id="edge12" class="edge">
<title>Node8&#45;&gt;Node9</title>
<path fill="none" stroke="midnightblue" d="M289.69,-10C305.69,-10 323.52,-10 340.43,-10"/>
<polygon fill="midnightblue" stroke="midnightblue" points="340.81,-13.5 350.81,-10 340.81,-6.5 340.81,-13.5"/>
</g>
<!-- Node10 -->
<g id="node10" class="node">
<title>Node10</title>
<g id="a_node10"><a xlink:href="error_8f90.html#a48d4e8f6658873a149a70800afa89704" target="_top" xlink:title=" ">
<polygon fill="white" stroke="black" points="515,-0.5 515,-19.5 580,-19.5 580,-0.5 515,-0.5"/>
<text text-anchor="middle" x="547.5" y="-7.5" font-family="Helvetica,sans-Serif" font-size="10.00">terminate</text>
</a>
</g>
</g>
<!-- Node9&#45;&gt;Node10 -->
<g id="edge13" class="edge">
<title>Node9&#45;&gt;Node10</title>
<path fill="none" stroke="midnightblue" d="M470.32,-10C481.95,-10 493.93,-10 504.85,-10"/>
<polygon fill="midnightblue" stroke="midnightblue" points="504.94,-13.5 514.94,-10 504.94,-6.5 504.94,-13.5"/>
</g>
</g>
</svg>
        <g id="navigator" transform="translate(0 0)" fill="#404254">
                <rect fill="#f2f5e9" fill-opacity="0.5" stroke="#606060" stroke-width=".5" x="0" y="0" width="60" height="60"/>
                <use id="zoomplus" xlink:href="#zoomPlus" x="17" y="9" onmousedown="handleZoom(evt,'in')"/>
                <use id="zoomminus" xlink:href="#zoomMin" x="42" y="9" onmousedown="handleZoom(evt,'out')"/>
                <use id="reset" xlink:href="#resetDef" x="30" y="36" onmousedown="handleReset()"/>
                <g id="arrowUp" xlink:href="#dirArrow" transform="translate(30 24)" onmousedown="handlePan(0,-1)">
                  <use xlink:href="#rim" fill="#404040">
                        <set attributeName="fill" to="#808080" begin="arrowUp.mouseover" end="arrowUp.mouseout"/>
                  </use>
                  <path fill="none" stroke="white" stroke-width="1.5" d="M0,-3.0v7 M-2.5,-0.5L0,-3.0L2.5,-0.5"/>
                </g>
                <g id="arrowRight" xlink:href="#dirArrow" transform="rotate(90) translate(36 -43)" onmousedown="handlePan(1,0)">
                  <use xlink:href="#rim" fill="#404040">
                        <set attributeName="fill" to="#808080" begin="arrowRight.mouseover" end="arrowRight.mouseout"/>
                  </use>
                  <path fill="none" stroke="white" stroke-width="1.5" d="M0,-3.0v7 M-2.5,-0.5L0,-3.0L2.5,-0.5"/>
                </g>
                <g id="arrowDown" xlink:href="#dirArrow" transform="rotate(180) translate(-30 -48)" onmousedown="handlePan(0,1)">
                  <use xlink:href="#rim" fill="#404040">
                        <set attributeName="fill" to="#808080" begin="arrowDown.mouseover" end="arrowDown.mouseout"/>
                  </use>
                  <path fill="none" stroke="white" stroke-width="1.5" d="M0,-3.0v7 M-2.5,-0.5L0,-3.0L2.5,-0.5"/>
                </g>
                <g id="arrowLeft" xlink:href="#dirArrow" transform="rotate(270) translate(-36 17)" onmousedown="handlePan(-1,0)">
                  <use xlink:href="#rim" fill="#404040">
                        <set attributeName="fill" to="#808080" begin="arrowLeft.mouseover" end="arrowLeft.mouseout"/>
                  </use>
                  <path fill="none" stroke="white" stroke-width="1.5" d="M0,-3.0v7 M-2.5,-0.5L0,-3.0L2.5,-0.5"/>
                </g>
        </g>
        <svg viewBox="0 0 15 15" width="100%" height="30px" preserveAspectRatio="xMaxYMin meet">
         <g id="arrow_out" transform="scale(0.3 0.3)">
          <a xlink:href="namespacextb__basis_a8dcefdb6cf2cc7d1c5f0daaea80140f9_cgraph_org.svg" target="_base">
           <rect id="button" ry="5" rx="5" y="6" x="6" height="38" width="38"
                fill="#f2f5e9" fill-opacity="0.5" stroke="#606060" stroke-width="1.0"/>
           <path id="arrow"
             d="M 11.500037,31.436501 C 11.940474,20.09759 22.043105,11.32322 32.158766,21.979434 L 37.068811,17.246167 C 37.068811,17.246167 37.088388,32 37.088388,32 L 22.160133,31.978069 C 22.160133,31.978069 26.997745,27.140456 26.997745,27.140456 C 18.528582,18.264221 13.291696,25.230495 11.500037,31.436501 z"
             style="fill:#404040;"/>
          </a>
         </g>
        </svg>
</svg>
