<?xml version="1.0" encoding="UTF-8" standalone="no"?>
<!DOCTYPE svg PUBLIC "-//W3C//DTD SVG 1.1//EN"
 "http://www.w3.org/Graphics/SVG/1.1/DTD/svg11.dtd">
<!-- Generated by graphviz version 2.46.1 (20210215.1649)
 -->
<!-- Title: xtb_hessian::numhess_rmsd Pages: 1 -->
<svg width="877pt" height="107pt"
 viewBox="0.00 0.00 877.00 107.00" xmlns="http://www.w3.org/2000/svg" xmlns:xlink="http://www.w3.org/1999/xlink">
<g id="graph0" class="graph" transform="scale(1 1) rotate(0) translate(4 103)">
<title>xtb_hessian::numhess_rmsd</title>
<polygon fill="white" stroke="transparent" points="-4,4 -4,-103 873,-103 873,4 -4,4"/>
<!-- Node1 -->
<g id="node1" class="node">
<title>Node1</title>
<g id="a_node1"><a xlink:title=" ">
<polygon fill="#bfbfbf" stroke="black" points="0,-19.5 0,-38.5 140,-38.5 140,-19.5 0,-19.5"/>
<text text-anchor="middle" x="70" y="-26.5" font-family="Helvetica,sans-Serif" font-size="10.00">xtb_hessian::numhess_rmsd</text>
</a>
</g>
</g>
<!-- Node2 -->
<g id="node2" class="node">
<title>Node2</title>
<g id="a_node2"><a xlink:href="namespacextb__metadynamic.html#ae7437d6a2a352639b984f99cfaa9800a" target="_top" xlink:title=" ">
<polygon fill="white" stroke="black" points="177.5,-38.5 177.5,-57.5 332.5,-57.5 332.5,-38.5 177.5,-38.5"/>
<text text-anchor="middle" x="255" y="-45.5" font-family="Helvetica,sans-Serif" font-size="10.00">xtb_metadynamic::metadynamic</text>
</a>
</g>
</g>
<!-- Node1&#45;&gt;Node2 -->
<g id="edge1" class="edge">
<title>Node1&#45;&gt;Node2</title>
<path fill="none" stroke="midnightblue" d="M140.18,-36.18C149.01,-37.1 158.13,-38.05 167.19,-38.99"/>
<polygon fill="midnightblue" stroke="midnightblue" points="167.06,-42.49 177.37,-40.04 167.78,-35.53 167.06,-42.49"/>
</g>
<!-- Node10 -->
<g id="node10" class="node">
<title>Node10</title>
<g id="a_node10"><a xlink:href="namespaceprob__module.html#a6bdcd0e8188113e5477fd5097c89ede3" target="_top" xlink:title=" ">
<polygon fill="white" stroke="black" points="176,-0.5 176,-19.5 334,-19.5 334,-0.5 176,-0.5"/>
<text text-anchor="middle" x="255" y="-7.5" font-family="Helvetica,sans-Serif" font-size="10.00">prob_module::prob_metadynamic</text>
</a>
</g>
</g>
<!-- Node1&#45;&gt;Node10 -->
<g id="edge10" class="edge">
<title>Node1&#45;&gt;Node10</title>
<path fill="none" stroke="midnightblue" d="M140.18,-21.82C148.55,-20.95 157.18,-20.05 165.77,-19.16"/>
<polygon fill="midnightblue" stroke="midnightblue" points="166.24,-22.63 175.83,-18.12 165.52,-15.67 166.24,-22.63"/>
</g>
<!-- Node3 -->
<g id="node3" class="node">
<title>Node3</title>
<g id="a_node3"><a xlink:href="namespacextb__lsrmsd.html#a7de6c8c9dfc5be748e05c80b2cb8b092" target="_top" xlink:title=" ">
<polygon fill="white" stroke="black" points="370,-38.5 370,-57.5 460,-57.5 460,-38.5 370,-38.5"/>
<text text-anchor="middle" x="415" y="-45.5" font-family="Helvetica,sans-Serif" font-size="10.00">xtb_lsrmsd::rmsd</text>
</a>
</g>
</g>
<!-- Node2&#45;&gt;Node3 -->
<g id="edge2" class="edge">
<title>Node2&#45;&gt;Node3</title>
<path fill="none" stroke="midnightblue" d="M332.69,-48C341.84,-48 351.04,-48 359.78,-48"/>
<polygon fill="midnightblue" stroke="midnightblue" points="359.81,-51.5 369.81,-48 359.81,-44.5 359.81,-51.5"/>
</g>
<!-- Node9 -->
<g id="node9" class="node">
<title>Node9</title>
<g id="a_node9"><a xlink:href="symmetry__i_8c.html#aa77c823a9fc018ae1d437369708d8727" target="_top" xlink:title=" ">
<polygon fill="white" stroke="black" points="398.5,-0.5 398.5,-19.5 431.5,-19.5 431.5,-0.5 398.5,-0.5"/>
<text text-anchor="middle" x="415" y="-7.5" font-family="Helvetica,sans-Serif" font-size="10.00">true</text>
</a>
</g>
</g>
<!-- Node2&#45;&gt;Node9 -->
<g id="edge9" class="edge">
<title>Node2&#45;&gt;Node9</title>
<path fill="none" stroke="midnightblue" d="M295.87,-38.41C324.99,-31.41 363.59,-22.12 388.61,-16.11"/>
<polygon fill="midnightblue" stroke="midnightblue" points="389.53,-19.48 398.44,-13.74 387.89,-12.68 389.53,-19.48"/>
</g>
<!-- Node4 -->
<g id="node4" class="node">
<title>Node4</title>
<g id="a_node4"><a xlink:href="namespacextb__lsrmsd.html#a2089ab1a59ee635dbe99bdc26e653c93" target="_top" xlink:title=" ">
<polygon fill="white" stroke="black" points="496,-60.5 496,-79.5 597,-79.5 597,-60.5 496,-60.5"/>
<text text-anchor="middle" x="546.5" y="-67.5" font-family="Helvetica,sans-Serif" font-size="10.00">xtb_lsrmsd::dstmev</text>
</a>
</g>
</g>
<!-- Node3&#45;&gt;Node4 -->
<g id="edge3" class="edge">
<title>Node3&#45;&gt;Node4</title>
<path fill="none" stroke="midnightblue" d="M460.2,-55.51C468.42,-56.91 477.13,-58.38 485.72,-59.84"/>
<polygon fill="midnightblue" stroke="midnightblue" points="485.27,-63.32 495.71,-61.54 486.44,-56.42 485.27,-63.32"/>
</g>
<!-- Node8 -->
<g id="node8" class="node">
<title>Node8</title>
<g id="a_node8"><a xlink:href="namespacextb__lsrmsd.html#aa8d3e601b87d4dd4b0f010fe884a7898" target="_top" xlink:title=" ">
<polygon fill="white" stroke="black" points="496,-11 496,-41 597,-41 597,-11 496,-11"/>
<text text-anchor="start" x="504" y="-29" font-family="Helvetica,sans-Serif" font-size="10.00">xtb_lsrmsd::rotation</text>
<text text-anchor="middle" x="546.5" y="-18" font-family="Helvetica,sans-Serif" font-size="10.00">_matrix</text>
</a>
</g>
</g>
<!-- Node3&#45;&gt;Node8 -->
<g id="edge8" class="edge">
<title>Node3&#45;&gt;Node8</title>
<path fill="none" stroke="midnightblue" d="M460.2,-40.49C468.42,-39.09 477.13,-37.62 485.72,-36.16"/>
<polygon fill="midnightblue" stroke="midnightblue" points="486.44,-39.58 495.71,-34.46 485.27,-32.68 486.44,-39.58"/>
</g>
<!-- Node5 -->
<g id="node5" class="node">
<title>Node5</title>
<g id="a_node5"><a xlink:href="namespacextb__lsrmsd.html#a50efb5ac3121b59e1b70a31f8f09ec04" target="_top" xlink:title=" ">
<polygon fill="white" stroke="black" points="633.5,-79.5 633.5,-98.5 735.5,-98.5 735.5,-79.5 633.5,-79.5"/>
<text text-anchor="middle" x="684.5" y="-86.5" font-family="Helvetica,sans-Serif" font-size="10.00">xtb_lsrmsd::givens4</text>
</a>
</g>
</g>
<!-- Node4&#45;&gt;Node5 -->
<g id="edge4" class="edge">
<title>Node4&#45;&gt;Node5</title>
<path fill="none" stroke="midnightblue" d="M597.37,-76.97C605.76,-78.14 614.55,-79.37 623.17,-80.57"/>
<polygon fill="midnightblue" stroke="midnightblue" points="622.79,-84.05 633.18,-81.97 623.76,-77.12 622.79,-84.05"/>
</g>
<!-- Node7 -->
<g id="node7" class="node">
<title>Node7</title>
<g id="a_node7"><a xlink:href="namespacextb__lsrmsd.html#a41788222f5aa8657d1070e4474cb7668" target="_top" xlink:title=" ">
<polygon fill="white" stroke="black" points="633,-41.5 633,-60.5 736,-60.5 736,-41.5 633,-41.5"/>
<text text-anchor="middle" x="684.5" y="-48.5" font-family="Helvetica,sans-Serif" font-size="10.00">xtb_lsrmsd::svdcmp</text>
</a>
</g>
</g>
<!-- Node4&#45;&gt;Node7 -->
<g id="edge6" class="edge">
<title>Node4&#45;&gt;Node7</title>
<path fill="none" stroke="midnightblue" d="M597.37,-63.03C605.56,-61.89 614.13,-60.69 622.56,-59.51"/>
<polygon fill="midnightblue" stroke="midnightblue" points="623.31,-62.94 632.73,-58.09 622.34,-56.01 623.31,-62.94"/>
</g>
<!-- Node6 -->
<g id="node6" class="node">
<title>Node6</title>
<g id="a_node6"><a xlink:href="namespacextb__lsrmsd.html#a847587107e9240be90b490511caf3fd8" target="_top" xlink:title=" ">
<polygon fill="white" stroke="black" points="772,-60.5 772,-79.5 869,-79.5 869,-60.5 772,-60.5"/>
<text text-anchor="middle" x="820.5" y="-67.5" font-family="Helvetica,sans-Serif" font-size="10.00">xtb_lsrmsd::pythag</text>
</a>
</g>
</g>
<!-- Node5&#45;&gt;Node6 -->
<g id="edge5" class="edge">
<title>Node5&#45;&gt;Node6</title>
<path fill="none" stroke="midnightblue" d="M735.78,-81.87C744.21,-80.68 753.02,-79.43 761.63,-78.21"/>
<polygon fill="midnightblue" stroke="midnightblue" points="762.19,-81.66 771.6,-76.79 761.21,-74.73 762.19,-81.66"/>
</g>
<!-- Node7&#45;&gt;Node6 -->
<g id="edge7" class="edge">
<title>Node7&#45;&gt;Node6</title>
<path fill="none" stroke="midnightblue" d="M736.16,-58.18C744.58,-59.38 753.36,-60.62 761.93,-61.84"/>
<polygon fill="midnightblue" stroke="midnightblue" points="761.47,-65.31 771.86,-63.25 762.45,-58.38 761.47,-65.31"/>
</g>
<!-- Node10&#45;&gt;Node3 -->
<g id="edge11" class="edge">
<title>Node10&#45;&gt;Node3</title>
<path fill="none" stroke="midnightblue" d="M295.87,-19.59C316.72,-24.6 342.43,-30.79 364.54,-36.11"/>
<polygon fill="midnightblue" stroke="midnightblue" points="363.88,-39.54 374.42,-38.48 365.51,-32.74 363.88,-39.54"/>
</g>
<!-- Node10&#45;&gt;Node9 -->
<g id="edge12" class="edge">
<title>Node10&#45;&gt;Node9</title>
<path fill="none" stroke="midnightblue" d="M334.07,-10C353.53,-10 373.06,-10 387.94,-10"/>
<polygon fill="midnightblue" stroke="midnightblue" points="388.34,-13.5 398.34,-10 388.34,-6.5 388.34,-13.5"/>
</g>
</g>
</svg>
