<?xml version="1.0" encoding="UTF-8" standalone="no"?>
<!DOCTYPE svg PUBLIC "-//W3C//DTD SVG 1.1//EN"
 "http://www.w3.org/Graphics/SVG/1.1/DTD/svg11.dtd">
<!-- Generated by graphviz version 2.43.0 (0)
 -->
<!-- Title: xtb_intgrad::get_multiints Pages: 1 -->
<svg width="450pt" height="192pt"
 viewBox="0.00 0.00 450.00 191.50" xmlns="http://www.w3.org/2000/svg" xmlns:xlink="http://www.w3.org/1999/xlink">
<g id="graph0" class="graph" transform="scale(1 1) rotate(0) translate(4 187.5)">
<title>xtb_intgrad::get_multiints</title>
<polygon fill="white" stroke="transparent" points="-4,4 -4,-187.5 446,-187.5 446,4 -4,4"/>
<!-- Node1 -->
<g id="node1" class="node">
<title>Node1</title>
<g id="a_node1"><a xlink:title=" ">
<polygon fill="#bfbfbf" stroke="black" points="0,-76.5 0,-95.5 143,-95.5 143,-76.5 0,-76.5"/>
<text text-anchor="middle" x="71.5" y="-83.5" font-family="Helvetica,sans-Serif" font-size="10.00">xtb_intgrad::get_multiints</text>
</a>
</g>
</g>
<!-- Node2 -->
<g id="node2" class="node">
<title>Node2</title>
<g id="a_node2"><a xlink:href="namespacextb__intgrad.html#aa938e4391a764ecf662013cd966899ba" target="_top" xlink:title=" ">
<polygon fill="white" stroke="black" points="179,-71 179,-101 281,-101 281,-71 179,-71"/>
<text text-anchor="start" x="187" y="-89" font-family="Helvetica,sans-Serif" font-size="10.00">xtb_intgrad::build</text>
<text text-anchor="middle" x="230" y="-78" font-family="Helvetica,sans-Serif" font-size="10.00">_sdq_ints</text>
</a>
</g>
</g>
<!-- Node1&#45;&gt;Node2 -->
<g id="edge1" class="edge">
<title>Node1&#45;&gt;Node2</title>
<path fill="none" stroke="midnightblue" d="M143.42,-86C151.84,-86 160.37,-86 168.62,-86"/>
<polygon fill="midnightblue" stroke="midnightblue" points="168.89,-89.5 178.89,-86 168.89,-82.5 168.89,-89.5"/>
</g>
<!-- Node3 -->
<g id="node3" class="node">
<title>Node3</title>
<g id="a_node3"><a xlink:href="namespacextb__intgrad.html#a5bc6f86d12b5b4734f597a88800d8330" target="_top" xlink:title=" ">
<polygon fill="white" stroke="black" points="328.5,-153 328.5,-183 430.5,-183 430.5,-153 328.5,-153"/>
<text text-anchor="start" x="336.5" y="-171" font-family="Helvetica,sans-Serif" font-size="10.00">xtb_intgrad::build</text>
<text text-anchor="middle" x="379.5" y="-160" font-family="Helvetica,sans-Serif" font-size="10.00">_hshift2</text>
</a>
</g>
</g>
<!-- Node2&#45;&gt;Node3 -->
<g id="edge2" class="edge">
<title>Node2&#45;&gt;Node3</title>
<path fill="none" stroke="midnightblue" d="M251.14,-101.02C268.14,-113.28 293.4,-130.54 317,-143 320.78,-145 324.76,-146.94 328.8,-148.81"/>
<polygon fill="midnightblue" stroke="midnightblue" points="327.71,-152.15 338.27,-153 330.54,-145.75 327.71,-152.15"/>
</g>
<!-- Node4 -->
<g id="node4" class="node">
<title>Node4</title>
<g id="a_node4"><a xlink:href="namespacextb__intgrad.html#a1f9cf61176ecca277a73a81137c39a39" target="_top" xlink:title=" ">
<polygon fill="white" stroke="black" points="317,-114.5 317,-133.5 442,-133.5 442,-114.5 317,-114.5"/>
<text text-anchor="middle" x="379.5" y="-121.5" font-family="Helvetica,sans-Serif" font-size="10.00">xtb_intgrad::build_kab</text>
</a>
</g>
</g>
<!-- Node2&#45;&gt;Node4 -->
<g id="edge3" class="edge">
<title>Node2&#45;&gt;Node4</title>
<path fill="none" stroke="midnightblue" d="M281.35,-98.97C297.66,-103.17 315.67,-107.81 331.71,-111.95"/>
<polygon fill="midnightblue" stroke="midnightblue" points="330.86,-115.34 341.41,-114.45 332.6,-108.56 330.86,-115.34"/>
</g>
<!-- Node5 -->
<g id="node5" class="node">
<title>Node5</title>
<g id="a_node5"><a xlink:href="namespacextb__intgrad.html#a49b854bf505ac013ac50d12edb2e0de5" target="_top" xlink:title="returns center of product Gaussian from two Gaussians by GPT">
<polygon fill="white" stroke="black" points="319,-76.5 319,-95.5 440,-95.5 440,-76.5 319,-76.5"/>
<text text-anchor="middle" x="379.5" y="-83.5" font-family="Helvetica,sans-Serif" font-size="10.00">xtb_intgrad::gpcenter</text>
</a>
</g>
</g>
<!-- Node2&#45;&gt;Node5 -->
<g id="edge4" class="edge">
<title>Node2&#45;&gt;Node5</title>
<path fill="none" stroke="midnightblue" d="M281.35,-86C290.24,-86 299.63,-86 308.93,-86"/>
<polygon fill="midnightblue" stroke="midnightblue" points="308.96,-89.5 318.96,-86 308.96,-82.5 308.96,-89.5"/>
</g>
<!-- Node6 -->
<g id="node6" class="node">
<title>Node6</title>
<g id="a_node6"><a xlink:href="namespacextb__intgrad.html#a61582fac6cd8cc05eb76d4ced531ef6e" target="_top" xlink:title="calculates a partial overlap in one cartesian direction">
<polygon fill="white" stroke="black" points="327,-38.5 327,-57.5 432,-57.5 432,-38.5 327,-38.5"/>
<text text-anchor="middle" x="379.5" y="-45.5" font-family="Helvetica,sans-Serif" font-size="10.00">xtb_intgrad::olapp</text>
</a>
</g>
</g>
<!-- Node2&#45;&gt;Node6 -->
<g id="edge5" class="edge">
<title>Node2&#45;&gt;Node6</title>
<path fill="none" stroke="midnightblue" d="M281.35,-73.03C297.66,-68.83 315.67,-64.19 331.71,-60.05"/>
<polygon fill="midnightblue" stroke="midnightblue" points="332.6,-63.44 341.41,-57.55 330.86,-56.66 332.6,-63.44"/>
</g>
<!-- Node7 -->
<g id="node7" class="node">
<title>Node7</title>
<g id="a_node7"><a xlink:href="namespacextb__intgrad.html#a040b47e4b45c55028569fcad9704172a" target="_top" xlink:title=" ">
<polygon fill="white" stroke="black" points="326.5,-0.5 326.5,-19.5 432.5,-19.5 432.5,-0.5 326.5,-0.5"/>
<text text-anchor="middle" x="379.5" y="-7.5" font-family="Helvetica,sans-Serif" font-size="10.00">xtb_intgrad::prod3</text>
</a>
</g>
</g>
<!-- Node2&#45;&gt;Node7 -->
<g id="edge6" class="edge">
<title>Node2&#45;&gt;Node7</title>
<path fill="none" stroke="midnightblue" d="M250.2,-70.94C267.03,-58.33 292.56,-40.58 317,-29 321.68,-26.78 326.67,-24.75 331.72,-22.9"/>
<polygon fill="midnightblue" stroke="midnightblue" points="333.1,-26.13 341.43,-19.58 330.83,-19.51 333.1,-26.13"/>
</g>
</g>
</svg>
