<?xml version="1.0" encoding="UTF-8" standalone="no"?>
<!DOCTYPE svg PUBLIC "-//W3C//DTD SVG 1.1//EN"
 "http://www.w3.org/Graphics/SVG/1.1/DTD/svg11.dtd">
<!-- Generated by graphviz version 2.43.0 (0)
 -->
<!-- Title: xtb_coulomb_klopmanohno::getcoulombmatrix Pages: 1 -->
<svg width="504pt" height="112pt"
 viewBox="0.00 0.00 504.00 112.00" xmlns="http://www.w3.org/2000/svg" xmlns:xlink="http://www.w3.org/1999/xlink">
<g id="graph0" class="graph" transform="scale(1 1) rotate(0) translate(4 108)">
<title>xtb_coulomb_klopmanohno::getcoulombmatrix</title>
<polygon fill="white" stroke="transparent" points="-4,4 -4,-108 500,-108 500,4 -4,4"/>
<!-- Node1 -->
<g id="node1" class="node">
<title>Node1</title>
<g id="a_node1"><a xlink:title=" ">
<polygon fill="#bfbfbf" stroke="black" points="0,-48.5 0,-78.5 152,-78.5 152,-48.5 0,-48.5"/>
<text text-anchor="start" x="8" y="-66.5" font-family="Helvetica,sans-Serif" font-size="10.00">xtb_coulomb_klopmanohno</text>
<text text-anchor="middle" x="76" y="-55.5" font-family="Helvetica,sans-Serif" font-size="10.00">::getcoulombmatrix</text>
</a>
</g>
</g>
<!-- Node2 -->
<g id="node2" class="node">
<title>Node2</title>
<g id="a_node2"><a xlink:href="namespacextb__coulomb__klopmanohno.html#a572a6cea7e1c91ae10567231245bf93e" target="_top" xlink:title=" ">
<polygon fill="white" stroke="black" points="188,-73.5 188,-103.5 340,-103.5 340,-73.5 188,-73.5"/>
<text text-anchor="start" x="196" y="-91.5" font-family="Helvetica,sans-Serif" font-size="10.00">xtb_coulomb_klopmanohno</text>
<text text-anchor="middle" x="264" y="-80.5" font-family="Helvetica,sans-Serif" font-size="10.00">::getcoulombmatrixcluster</text>
</a>
</g>
</g>
<!-- Node1&#45;&gt;Node2 -->
<g id="edge1" class="edge">
<title>Node1&#45;&gt;Node2</title>
<path fill="none" stroke="midnightblue" d="M152.12,-73.6C160.6,-74.74 169.28,-75.9 177.87,-77.06"/>
<polygon fill="midnightblue" stroke="midnightblue" points="177.53,-80.54 187.9,-78.41 178.46,-73.61 177.53,-80.54"/>
</g>
<!-- Node3 -->
<g id="node3" class="node">
<title>Node3</title>
<g id="a_node3"><a xlink:href="namespacextb__coulomb__klopmanohno.html#a533082a6ccc5771bad7c3b4ec5739ed0" target="_top" xlink:title=" ">
<polygon fill="white" stroke="black" points="188,-24.5 188,-54.5 340,-54.5 340,-24.5 188,-24.5"/>
<text text-anchor="start" x="196" y="-42.5" font-family="Helvetica,sans-Serif" font-size="10.00">xtb_coulomb_klopmanohno</text>
<text text-anchor="middle" x="264" y="-31.5" font-family="Helvetica,sans-Serif" font-size="10.00">::getcoulombmatrixpbc3d</text>
</a>
</g>
</g>
<!-- Node1&#45;&gt;Node3 -->
<g id="edge2" class="edge">
<title>Node1&#45;&gt;Node3</title>
<path fill="none" stroke="midnightblue" d="M152.12,-53.81C160.6,-52.71 169.28,-51.59 177.87,-50.48"/>
<polygon fill="midnightblue" stroke="midnightblue" points="178.43,-53.94 187.9,-49.19 177.54,-47 178.43,-53.94"/>
</g>
<!-- Node4 -->
<g id="node4" class="node">
<title>Node4</title>
<g id="a_node4"><a xlink:href="namespacextb__coulomb__ewald.html#a8ff6c61e8e9c8f0a46a763d12bc6a281" target="_top" xlink:title=" ">
<polygon fill="white" stroke="black" points="376,-49.5 376,-79.5 496,-79.5 496,-49.5 376,-49.5"/>
<text text-anchor="start" x="384" y="-67.5" font-family="Helvetica,sans-Serif" font-size="10.00">xtb_coulomb_ewald::</text>
<text text-anchor="middle" x="436" y="-56.5" font-family="Helvetica,sans-Serif" font-size="10.00">ewaldmatpbc3d</text>
</a>
</g>
</g>
<!-- Node3&#45;&gt;Node4 -->
<g id="edge3" class="edge">
<title>Node3&#45;&gt;Node4</title>
<path fill="none" stroke="midnightblue" d="M340.06,-50.54C348.69,-51.81 357.46,-53.1 366,-54.35"/>
<polygon fill="midnightblue" stroke="midnightblue" points="365.51,-57.82 375.91,-55.81 366.53,-50.89 365.51,-57.82"/>
</g>
<!-- Node5 -->
<g id="node5" class="node">
<title>Node5</title>
<g id="a_node5"><a xlink:href="namespacextb__coulomb__ewald.html#a85f630579876f0888919a3440f359ea6" target="_top" xlink:title="Returns the max. value of a term in the real space part of the Ewald summation.">
<polygon fill="white" stroke="black" points="376,-0.5 376,-30.5 496,-30.5 496,-0.5 376,-0.5"/>
<text text-anchor="start" x="384" y="-18.5" font-family="Helvetica,sans-Serif" font-size="10.00">xtb_coulomb_ewald::</text>
<text text-anchor="middle" x="436" y="-7.5" font-family="Helvetica,sans-Serif" font-size="10.00">getrterm</text>
</a>
</g>
</g>
<!-- Node3&#45;&gt;Node5 -->
<g id="edge4" class="edge">
<title>Node3&#45;&gt;Node5</title>
<path fill="none" stroke="midnightblue" d="M340.06,-28.9C348.69,-27.68 357.46,-26.45 366,-25.24"/>
<polygon fill="midnightblue" stroke="midnightblue" points="366.5,-28.71 375.91,-23.84 365.52,-21.77 366.5,-28.71"/>
</g>
</g>
</svg>
