<?xml version="1.0" encoding="UTF-8" standalone="no"?>
<!DOCTYPE svg PUBLIC "-//W3C//DTD SVG 1.1//EN"
 "http://www.w3.org/Graphics/SVG/1.1/DTD/svg11.dtd">
<!-- Generated by graphviz version 2.46.0 (20210122.1329)
 -->
<!-- Title: xtb_type_neighbourlist::generate Pages: 1 -->
<svg width="419pt" height="88pt"
 viewBox="0.00 0.00 419.00 88.00" xmlns="http://www.w3.org/2000/svg" xmlns:xlink="http://www.w3.org/1999/xlink">
<g id="graph0" class="graph" transform="scale(1 1) rotate(0) translate(4 84)">
<title>xtb_type_neighbourlist::generate</title>
<polygon fill="white" stroke="transparent" points="-4,4 -4,-84 415,-84 415,4 -4,4"/>
<!-- Node1 -->
<g id="node1" class="node">
<title>Node1</title>
<g id="a_node1"><a xlink:title="Generate neighbour list.">
<polygon fill="#bfbfbf" stroke="black" points="0,-24.5 0,-54.5 113,-54.5 113,-24.5 0,-24.5"/>
<text text-anchor="start" x="8" y="-42.5" font-family="Helvetica,sans-Serif" font-size="10.00">xtb_type_neighbourlist</text>
<text text-anchor="middle" x="56.5" y="-31.5" font-family="Helvetica,sans-Serif" font-size="10.00">::generate</text>
</a>
</g>
</g>
<!-- Node2 -->
<g id="node2" class="node">
<title>Node2</title>
<g id="a_node2"><a xlink:href="namespacextb__type__neighbourlist.html#a89b0c04a773e11daabce1f9be0f371a4" target="_top" xlink:title="Generate neighbour list in serial.">
<polygon fill="white" stroke="black" points="149,-24.5 149,-54.5 262,-54.5 262,-24.5 149,-24.5"/>
<text text-anchor="start" x="157" y="-42.5" font-family="Helvetica,sans-Serif" font-size="10.00">xtb_type_neighbourlist</text>
<text text-anchor="middle" x="205.5" y="-31.5" font-family="Helvetica,sans-Serif" font-size="10.00">::generatesequential</text>
</a>
</g>
</g>
<!-- Node1&#45;&gt;Node2 -->
<g id="edge1" class="edge">
<title>Node1&#45;&gt;Node2</title>
<path fill="none" stroke="midnightblue" d="M113.07,-39.5C121.49,-39.5 130.24,-39.5 138.84,-39.5"/>
<polygon fill="midnightblue" stroke="midnightblue" points="138.85,-43 148.85,-39.5 138.85,-36 138.85,-43"/>
</g>
<!-- Node3 -->
<g id="node3" class="node">
<title>Node3</title>
<g id="a_node3"><a xlink:href="namespacextb__type__neighbourlist.html#a906a00bea6876d979f03d8a6480cc565" target="_top" xlink:title="Reallocate arrays which depends on the maximal nr. of all atoms.">
<polygon fill="white" stroke="black" points="298,-49.5 298,-79.5 411,-79.5 411,-49.5 298,-49.5"/>
<text text-anchor="start" x="306" y="-67.5" font-family="Helvetica,sans-Serif" font-size="10.00">xtb_type_neighbourlist</text>
<text text-anchor="middle" x="354.5" y="-56.5" font-family="Helvetica,sans-Serif" font-size="10.00">::resizeimage</text>
</a>
</g>
</g>
<!-- Node2&#45;&gt;Node3 -->
<g id="edge2" class="edge">
<title>Node2&#45;&gt;Node3</title>
<path fill="none" stroke="midnightblue" d="M262.07,-48.95C270.49,-50.38 279.24,-51.87 287.84,-53.33"/>
<polygon fill="midnightblue" stroke="midnightblue" points="287.4,-56.81 297.85,-55.04 288.58,-49.91 287.4,-56.81"/>
</g>
<!-- Node4 -->
<g id="node4" class="node">
<title>Node4</title>
<g id="a_node4"><a xlink:href="namespacextb__type__neighbourlist.html#a30e93a8369f0e1598a01e26dbfa6f670" target="_top" xlink:title="Reallocate array which depends on the maximal nr. of neighbours.">
<polygon fill="white" stroke="black" points="298,-0.5 298,-30.5 411,-30.5 411,-0.5 298,-0.5"/>
<text text-anchor="start" x="306" y="-18.5" font-family="Helvetica,sans-Serif" font-size="10.00">xtb_type_neighbourlist</text>
<text text-anchor="middle" x="354.5" y="-7.5" font-family="Helvetica,sans-Serif" font-size="10.00">::resizeneigh</text>
</a>
</g>
</g>
<!-- Node2&#45;&gt;Node4 -->
<g id="edge3" class="edge">
<title>Node2&#45;&gt;Node4</title>
<path fill="none" stroke="midnightblue" d="M262.07,-30.43C270.49,-29.05 279.24,-27.62 287.84,-26.22"/>
<polygon fill="midnightblue" stroke="midnightblue" points="288.54,-29.65 297.85,-24.59 287.41,-22.74 288.54,-29.65"/>
</g>
</g>
</svg>
