<?xml version="1.0" encoding="UTF-8" standalone="no"?>
<!DOCTYPE svg PUBLIC "-//W3C//DTD SVG 1.1//EN"
 "http://www.w3.org/Graphics/SVG/1.1/DTD/svg11.dtd">
<!-- Generated by graphviz version 2.46.0 (20210122.1329)
 -->
<!-- Title: xtb_io_reader_genformat::readmoleculegenformat Pages: 1 -->
<!--zoomable 791 -->
<svg id="main" version="1.1" xmlns="http://www.w3.org/2000/svg" xmlns:xlink="http://www.w3.org/1999/xlink" xml:space="preserve" onload="init(evt)">
<style type="text/css"><![CDATA[
.edge:hover path { stroke: red; }
.edge:hover polygon { stroke: red; fill: red; }
]]></style>
<script type="text/javascript"><![CDATA[
var edges = document.getElementsByTagName('g');
if (edges && edges.length) {
  for (var i=0;i<edges.length;i++) {
    if (edges[i].id.substr(0,4)=='edge') {
      edges[i].setAttribute('class','edge');
    }
  }
}
]]></script>
        <defs>
                <circle id="rim" cx="0" cy="0" r="7"/>
                <circle id="rim2" cx="0" cy="0" r="3.5"/>
                <g id="zoomPlus">
                        <use xlink:href="#rim" fill="#404040">
                                <set attributeName="fill" to="#808080" begin="zoomplus.mouseover" end="zoomplus.mouseout"/>
                        </use>
                        <path d="M-4,0h8M0,-4v8" fill="none" stroke="white" stroke-width="1.5" pointer-events="none"/>
                </g>
                <g id="zoomMin">
                        <use xlink:href="#rim" fill="#404040">
                                <set attributeName="fill" to="#808080" begin="zoomminus.mouseover" end="zoomminus.mouseout"/>
                        </use>
                        <path d="M-4,0h8" fill="none" stroke="white" stroke-width="1.5" pointer-events="none"/>
                </g>
                <g id="dirArrow">
                        <path fill="none" stroke="white" stroke-width="1.5" d="M0,-3.0v7 M-2.5,-0.5L0,-3.0L2.5,-0.5"/>
                </g>
               <g id="resetDef">
                       <use xlink:href="#rim2" fill="#404040">
                               <set attributeName="fill" to="#808080" begin="reset.mouseover" end="reset.mouseout"/>
                       </use>
               </g>
        </defs>

<script type="text/javascript">
var viewWidth = 602;
var viewHeight = 791;
var sectionId = 'dynsection-3';
</script>
<script xlink:href="svgpan.js"/>
<svg id="graph" class="graph">
<g id="viewport">
<title>xtb_io_reader_genformat::readmoleculegenformat</title>
<polygon fill="white" stroke="transparent" points="-4,4 -4,-787 598,-787 598,4 -4,4"/>
<!-- Node1 -->
<g id="node1" class="node">
<title>Node1</title>
<g id="a_node1"><a xlink:title=" ">
<polygon fill="#bfbfbf" stroke="black" points="471,-360.5 471,-390.5 594,-390.5 594,-360.5 471,-360.5"/>
<text text-anchor="start" x="479" y="-378.5" font-family="Helvetica,sans-Serif" font-size="10.00">xtb_io_reader_genformat</text>
<text text-anchor="middle" x="532.5" y="-367.5" font-family="Helvetica,sans-Serif" font-size="10.00">::readmoleculegenformat</text>
</a>
</g>
</g>
<!-- Node2 -->
<g id="node2" class="node">
<title>Node2</title>
<g id="a_node2"><a xlink:href="namespacextb__io__reader.html#a3b815f9e75ce60c6ec45733723bdcc4e" target="_top" xlink:title="Generic reader for molecules from input files.">
<polygon fill="white" stroke="black" points="298,-366 298,-385 435,-385 435,-366 298,-366"/>
<text text-anchor="middle" x="366.5" y="-373" font-family="Helvetica,sans-Serif" font-size="10.00">xtb_io_reader::readmolecule</text>
</a>
</g>
</g>
<!-- Node1&#45;&gt;Node2 -->
<g id="edge1" class="edge">
<title>Node1&#45;&gt;Node2</title>
<path fill="none" stroke="midnightblue" d="M460.64,-375.5C452.14,-375.5 443.48,-375.5 435.03,-375.5"/>
<polygon fill="midnightblue" stroke="midnightblue" points="460.9,-379 470.9,-375.5 460.9,-372 460.9,-379"/>
</g>
<!-- Node3 -->
<g id="node3" class="node">
<title>Node3</title>
<g id="a_node3"><a xlink:href="geometry__reader_8f90.html#a84df8c9da6da2b8e69a9381a90cbe404" target="_top" xlink:title=" ">
<polygon fill="white" stroke="black" points="139,-752.5 139,-782.5 249,-782.5 249,-752.5 139,-752.5"/>
<text text-anchor="start" x="147" y="-770.5" font-family="Helvetica,sans-Serif" font-size="10.00">test_geometry_reader</text>
<text text-anchor="middle" x="194" y="-759.5" font-family="Helvetica,sans-Serif" font-size="10.00">_file_coord_caf2_3d</text>
</a>
</g>
</g>
<!-- Node2&#45;&gt;Node3 -->
<g id="edge2" class="edge">
<title>Node2&#45;&gt;Node3</title>
<path fill="none" stroke="midnightblue" d="M365.88,-395.39C365.95,-456.02 357.89,-640.67 262,-743.5 258.29,-747.48 253.88,-750.79 249.11,-753.56"/>
<polygon fill="midnightblue" stroke="midnightblue" points="369.38,-395.23 365.79,-385.27 362.38,-395.3 369.38,-395.23"/>
</g>
<!-- Node5 -->
<g id="node5" class="node">
<title>Node5</title>
<g id="a_node5"><a xlink:href="geometry__reader_8f90.html#a3d3a7a57ea428fa46f1f08e83c78f745" target="_top" xlink:title=" ">
<polygon fill="white" stroke="black" points="134.5,-703.5 134.5,-733.5 253.5,-733.5 253.5,-703.5 134.5,-703.5"/>
<text text-anchor="start" x="142.5" y="-721.5" font-family="Helvetica,sans-Serif" font-size="10.00">test_geometry_reader</text>
<text text-anchor="middle" x="194" y="-710.5" font-family="Helvetica,sans-Serif" font-size="10.00">_file_coord_camgco_3d</text>
</a>
</g>
</g>
<!-- Node2&#45;&gt;Node5 -->
<g id="edge4" class="edge">
<title>Node2&#45;&gt;Node5</title>
<path fill="none" stroke="midnightblue" d="M364.87,-395.25C362.05,-450.33 346.6,-607.31 262,-694.5 258.64,-697.96 254.76,-700.92 250.58,-703.46"/>
<polygon fill="midnightblue" stroke="midnightblue" points="368.37,-395.24 365.3,-385.1 361.38,-394.95 368.37,-395.24"/>
</g>
<!-- Node6 -->
<g id="node6" class="node">
<title>Node6</title>
<g id="a_node6"><a xlink:href="geometry__reader_8f90.html#a8bd5f73ebcc9f1e758050e4afce3ff08" target="_top" xlink:title=" ">
<polygon fill="white" stroke="black" points="136,-654.5 136,-684.5 252,-684.5 252,-654.5 136,-654.5"/>
<text text-anchor="start" x="144" y="-672.5" font-family="Helvetica,sans-Serif" font-size="10.00">test_geometry_reader</text>
<text text-anchor="middle" x="194" y="-661.5" font-family="Helvetica,sans-Serif" font-size="10.00">_file_coord_general_0d</text>
</a>
</g>
</g>
<!-- Node2&#45;&gt;Node6 -->
<g id="edge6" class="edge">
<title>Node2&#45;&gt;Node6</title>
<path fill="none" stroke="midnightblue" d="M363.54,-395.12C357.59,-444.24 335.41,-573.69 262,-645.5 258.47,-648.96 254.4,-651.92 250.06,-654.46"/>
<polygon fill="midnightblue" stroke="midnightblue" points="367.01,-395.5 364.65,-385.17 360.06,-394.72 367.01,-395.5"/>
</g>
<!-- Node7 -->
<g id="node7" class="node">
<title>Node7</title>
<g id="a_node7"><a xlink:href="geometry__reader_8f90.html#a33958a3cdab97c9fdcf3b39c1b3269cc" target="_top" xlink:title=" ">
<polygon fill="white" stroke="black" points="139,-605.5 139,-635.5 249,-635.5 249,-605.5 139,-605.5"/>
<text text-anchor="start" x="147" y="-623.5" font-family="Helvetica,sans-Serif" font-size="10.00">test_geometry_reader</text>
<text text-anchor="middle" x="194" y="-612.5" font-family="Helvetica,sans-Serif" font-size="10.00">_file_gen</text>
</a>
</g>
</g>
<!-- Node2&#45;&gt;Node7 -->
<g id="edge8" class="edge">
<title>Node2&#45;&gt;Node7</title>
<path fill="none" stroke="midnightblue" d="M361.69,-394.92C352.36,-437.48 324.41,-539.69 262,-596.5 258.16,-599.99 253.78,-602.99 249.14,-605.55"/>
<polygon fill="midnightblue" stroke="midnightblue" points="365.14,-395.52 363.76,-385.02 358.29,-394.09 365.14,-395.52"/>
</g>
<!-- Node8 -->
<g id="node8" class="node">
<title>Node8</title>
<g id="a_node8"><a xlink:href="geometry__reader_8f90.html#ae65c3cc2e4be8ed6156790c7fcbc3bd1" target="_top" xlink:title=" ">
<polygon fill="white" stroke="black" points="139,-556.5 139,-586.5 249,-586.5 249,-556.5 139,-556.5"/>
<text text-anchor="start" x="147" y="-574.5" font-family="Helvetica,sans-Serif" font-size="10.00">test_geometry_reader</text>
<text text-anchor="middle" x="194" y="-563.5" font-family="Helvetica,sans-Serif" font-size="10.00">_file_pdb_4qxx</text>
</a>
</g>
</g>
<!-- Node2&#45;&gt;Node8 -->
<g id="edge10" class="edge">
<title>Node2&#45;&gt;Node8</title>
<path fill="none" stroke="midnightblue" d="M358.87,-394.85C345.83,-430.16 313.54,-505.26 262,-547.5 257.8,-550.95 253.06,-553.92 248.09,-556.47"/>
<polygon fill="midnightblue" stroke="midnightblue" points="362.23,-395.85 362.3,-385.25 355.64,-393.49 362.23,-395.85"/>
</g>
<!-- Node9 -->
<g id="node9" class="node">
<title>Node9</title>
<g id="a_node9"><a xlink:href="geometry__reader_8f90.html#acdd883299c6aaeb3bc0f678733a4f8fe" target="_top" xlink:title=" ">
<polygon fill="white" stroke="black" points="139,-507.5 139,-537.5 249,-537.5 249,-507.5 139,-507.5"/>
<text text-anchor="start" x="147" y="-525.5" font-family="Helvetica,sans-Serif" font-size="10.00">test_geometry_reader</text>
<text text-anchor="middle" x="194" y="-514.5" font-family="Helvetica,sans-Serif" font-size="10.00">_file_pdb_4qxx_noh</text>
</a>
</g>
</g>
<!-- Node2&#45;&gt;Node9 -->
<g id="edge12" class="edge">
<title>Node2&#45;&gt;Node9</title>
<path fill="none" stroke="midnightblue" d="M354.43,-394.04C337.62,-420.71 303.22,-469.83 262,-498.5 257.13,-501.89 251.73,-504.85 246.17,-507.42"/>
<polygon fill="midnightblue" stroke="midnightblue" points="357.54,-395.66 359.81,-385.31 351.58,-391.99 357.54,-395.66"/>
</g>
<!-- Node10 -->
<g id="node10" class="node">
<title>Node10</title>
<g id="a_node10"><a xlink:href="geometry__reader_8f90.html#a447c657c04f6da62559ff8cbd28179b8" target="_top" xlink:title="test disperion under 3D periodic boundary conditions">
<polygon fill="white" stroke="black" points="139,-458.5 139,-488.5 249,-488.5 249,-458.5 139,-458.5"/>
<text text-anchor="start" x="147" y="-476.5" font-family="Helvetica,sans-Serif" font-size="10.00">test_geometry_reader</text>
<text text-anchor="middle" x="194" y="-465.5" font-family="Helvetica,sans-Serif" font-size="10.00">_file_poscar_sio2_3d</text>
</a>
</g>
</g>
<!-- Node2&#45;&gt;Node10 -->
<g id="edge14" class="edge">
<title>Node2&#45;&gt;Node10</title>
<path fill="none" stroke="midnightblue" d="M346.66,-391.43C326.68,-407.72 293.68,-432.91 262,-449.5 255.76,-452.77 248.98,-455.77 242.2,-458.46"/>
<polygon fill="midnightblue" stroke="midnightblue" points="348.91,-394.11 354.39,-385.04 344.45,-388.72 348.91,-394.11"/>
</g>
<!-- Node11 -->
<g id="node11" class="node">
<title>Node11</title>
<g id="a_node11"><a xlink:href="geometry__reader_8f90.html#a70179301c217963115b29ff25236d430" target="_top" xlink:title=" ">
<polygon fill="white" stroke="black" points="133,-409.5 133,-439.5 255,-439.5 255,-409.5 133,-409.5"/>
<text text-anchor="start" x="141" y="-427.5" font-family="Helvetica,sans-Serif" font-size="10.00">test_geometry_reader</text>
<text text-anchor="middle" x="194" y="-416.5" font-family="Helvetica,sans-Serif" font-size="10.00">_file_sdf_benzen_hquery</text>
</a>
</g>
</g>
<!-- Node2&#45;&gt;Node11 -->
<g id="edge16" class="edge">
<title>Node2&#45;&gt;Node11</title>
<path fill="none" stroke="midnightblue" d="M322.47,-387.87C299.64,-394.43 271.41,-402.54 247.32,-409.46"/>
<polygon fill="midnightblue" stroke="midnightblue" points="323.58,-391.19 332.22,-385.06 321.64,-384.46 323.58,-391.19"/>
</g>
<!-- Node12 -->
<g id="node12" class="node">
<title>Node12</title>
<g id="a_node12"><a xlink:href="geometry__reader_8f90.html#adf86dcb44294d357e76e31a08c5f0ded" target="_top" xlink:title=" ">
<polygon fill="white" stroke="black" points="139,-360.5 139,-390.5 249,-390.5 249,-360.5 139,-360.5"/>
<text text-anchor="start" x="147" y="-378.5" font-family="Helvetica,sans-Serif" font-size="10.00">test_geometry_reader</text>
<text text-anchor="middle" x="194" y="-367.5" font-family="Helvetica,sans-Serif" font-size="10.00">_file_sdf_h2o</text>
</a>
</g>
</g>
<!-- Node2&#45;&gt;Node12 -->
<g id="edge18" class="edge">
<title>Node2&#45;&gt;Node12</title>
<path fill="none" stroke="midnightblue" d="M287.37,-375.5C274.49,-375.5 261.39,-375.5 249.26,-375.5"/>
<polygon fill="midnightblue" stroke="midnightblue" points="287.62,-379 297.62,-375.5 287.62,-372 287.62,-379"/>
</g>
<!-- Node13 -->
<g id="node13" class="node">
<title>Node13</title>
<g id="a_node13"><a xlink:href="geometry__reader_8f90.html#a680700b05c6e54fbb1e053d471842539" target="_top" xlink:title=" ">
<polygon fill="white" stroke="black" points="139,-311.5 139,-341.5 249,-341.5 249,-311.5 139,-311.5"/>
<text text-anchor="start" x="147" y="-329.5" font-family="Helvetica,sans-Serif" font-size="10.00">test_geometry_reader</text>
<text text-anchor="middle" x="194" y="-318.5" font-family="Helvetica,sans-Serif" font-size="10.00">_file_sdf_h2o_flat</text>
</a>
</g>
</g>
<!-- Node2&#45;&gt;Node13 -->
<g id="edge20" class="edge">
<title>Node2&#45;&gt;Node13</title>
<path fill="none" stroke="midnightblue" d="M322.47,-363.13C299.64,-356.57 271.41,-348.46 247.32,-341.54"/>
<polygon fill="midnightblue" stroke="midnightblue" points="321.64,-366.54 332.22,-365.94 323.58,-359.81 321.64,-366.54"/>
</g>
<!-- Node14 -->
<g id="node14" class="node">
<title>Node14</title>
<g id="a_node14"><a xlink:href="geometry__reader_8f90.html#a13b94051100cb2fee8f50563ed9b666f" target="_top" xlink:title=" ">
<polygon fill="white" stroke="black" points="139,-262.5 139,-292.5 249,-292.5 249,-262.5 139,-262.5"/>
<text text-anchor="start" x="147" y="-280.5" font-family="Helvetica,sans-Serif" font-size="10.00">test_geometry_reader</text>
<text text-anchor="middle" x="194" y="-269.5" font-family="Helvetica,sans-Serif" font-size="10.00">_file_xmol_water_0d</text>
</a>
</g>
</g>
<!-- Node2&#45;&gt;Node14 -->
<g id="edge22" class="edge">
<title>Node2&#45;&gt;Node14</title>
<path fill="none" stroke="midnightblue" d="M345.98,-359.42C325.88,-343.42 293.17,-318.95 262,-302.5 255.19,-298.91 247.75,-295.59 240.39,-292.62"/>
<polygon fill="midnightblue" stroke="midnightblue" points="344.05,-362.35 354.03,-365.91 348.45,-356.91 344.05,-362.35"/>
</g>
<!-- Node15 -->
<g id="node15" class="node">
<title>Node15</title>
<g id="a_node15"><a xlink:href="geometry__reader_8f90.html#a2663766e0f62b9a0573285a0b750036a" target="_top" xlink:title=" ">
<polygon fill="white" stroke="black" points="139,-213.5 139,-243.5 249,-243.5 249,-213.5 139,-213.5"/>
<text text-anchor="start" x="147" y="-231.5" font-family="Helvetica,sans-Serif" font-size="10.00">test_geometry_reader</text>
<text text-anchor="middle" x="194" y="-220.5" font-family="Helvetica,sans-Serif" font-size="10.00">_molfile_benzen</text>
</a>
</g>
</g>
<!-- Node2&#45;&gt;Node15 -->
<g id="edge24" class="edge">
<title>Node2&#45;&gt;Node15</title>
<path fill="none" stroke="midnightblue" d="M354.34,-357.18C337.43,-330.82 302.9,-282.22 262,-253.5 256.61,-249.72 250.59,-246.43 244.42,-243.6"/>
<polygon fill="midnightblue" stroke="midnightblue" points="351.48,-359.2 359.76,-365.81 357.41,-355.48 351.48,-359.2"/>
</g>
<!-- Node16 -->
<g id="node16" class="node">
<title>Node16</title>
<g id="a_node16"><a xlink:href="geometry__reader_8f90.html#a9bcab70c2d08e30830998a745aad4798" target="_top" xlink:title=" ">
<polygon fill="white" stroke="black" points="139,-164.5 139,-194.5 249,-194.5 249,-164.5 139,-164.5"/>
<text text-anchor="start" x="147" y="-182.5" font-family="Helvetica,sans-Serif" font-size="10.00">test_geometry_reader</text>
<text text-anchor="middle" x="194" y="-171.5" font-family="Helvetica,sans-Serif" font-size="10.00">_molfile_benzen_flat</text>
</a>
</g>
</g>
<!-- Node2&#45;&gt;Node16 -->
<g id="edge26" class="edge">
<title>Node2&#45;&gt;Node16</title>
<path fill="none" stroke="midnightblue" d="M358.79,-356.32C345.61,-321.33 313.1,-246.83 262,-204.5 257.41,-200.7 252.19,-197.44 246.73,-194.66"/>
<polygon fill="midnightblue" stroke="midnightblue" points="355.54,-357.64 362.26,-365.84 362.12,-355.24 355.54,-357.64"/>
</g>
<!-- Node17 -->
<g id="node17" class="node">
<title>Node17</title>
<g id="a_node17"><a xlink:href="namespacextb__prog__info.html#a075fccea4f47f761a7b667bb819253da" target="_top" xlink:title="Main program of the info submodule.">
<polygon fill="white" stroke="black" points="140.5,-126 140.5,-145 247.5,-145 247.5,-126 140.5,-126"/>
<text text-anchor="middle" x="194" y="-133" font-family="Helvetica,sans-Serif" font-size="10.00">xtb_prog_info::xtbinfo</text>
</a>
</g>
</g>
<!-- Node2&#45;&gt;Node17 -->
<g id="edge28" class="edge">
<title>Node2&#45;&gt;Node17</title>
<path fill="none" stroke="midnightblue" d="M361.89,-355.91C352.95,-313.04 325.73,-210.34 262,-155.5 256.94,-151.15 250.96,-147.74 244.69,-145.07"/>
<polygon fill="midnightblue" stroke="midnightblue" points="358.49,-356.77 363.86,-365.9 365.36,-355.41 358.49,-356.77"/>
</g>
<!-- Node19 -->
<g id="node19" class="node">
<title>Node19</title>
<g id="a_node19"><a xlink:href="namespacextb__prog__main.html#a92b3b61ee04235e6343f652095682529" target="_top" xlink:title=" ">
<polygon fill="white" stroke="black" points="135,-88 135,-107 253,-107 253,-88 135,-88"/>
<text text-anchor="middle" x="194" y="-95" font-family="Helvetica,sans-Serif" font-size="10.00">xtb_prog_main::xtbmain</text>
</a>
</g>
</g>
<!-- Node2&#45;&gt;Node19 -->
<g id="edge30" class="edge">
<title>Node2&#45;&gt;Node19</title>
<path fill="none" stroke="midnightblue" d="M363.48,-355.74C357.46,-307.43 335.26,-182.52 262,-116.5 257.69,-112.61 252.64,-109.52 247.28,-107.05"/>
<polygon fill="midnightblue" stroke="midnightblue" points="360.02,-356.27 364.63,-365.81 366.97,-355.47 360.02,-356.27"/>
</g>
<!-- Node20 -->
<g id="node20" class="node">
<title>Node20</title>
<g id="a_node20"><a xlink:href="namespacextb__prog__thermo.html#adb2b1af9c4536efaa8d399da0c89d209" target="_top" xlink:title="Main program of the thermo submodule.">
<polygon fill="white" stroke="black" points="126,-50 126,-69 262,-69 262,-50 126,-50"/>
<text text-anchor="middle" x="194" y="-57" font-family="Helvetica,sans-Serif" font-size="10.00">xtb_prog_thermo::xtbthermo</text>
</a>
</g>
</g>
<!-- Node2&#45;&gt;Node20 -->
<g id="edge32" class="edge">
<title>Node2&#45;&gt;Node20</title>
<path fill="none" stroke="midnightblue" d="M364.63,-355.77C361.2,-302.78 344.36,-156.14 262,-78.5 257.87,-74.6 252.99,-71.49 247.79,-69.02"/>
<polygon fill="midnightblue" stroke="midnightblue" points="361.14,-356.06 365.19,-365.85 368.13,-355.68 361.14,-356.06"/>
</g>
<!-- Node21 -->
<g id="node21" class="node">
<title>Node21</title>
<g id="a_node21"><a xlink:href="namespacextb__prog__topology.html#aa263269ef9a32674220b4f1bfda0c066" target="_top" xlink:title="Main program of the topology submodule.">
<polygon fill="white" stroke="black" points="144.5,-0.5 144.5,-30.5 243.5,-30.5 243.5,-0.5 144.5,-0.5"/>
<text text-anchor="start" x="152.5" y="-18.5" font-family="Helvetica,sans-Serif" font-size="10.00">xtb_prog_topology::</text>
<text text-anchor="middle" x="194" y="-7.5" font-family="Helvetica,sans-Serif" font-size="10.00">xtbtopology</text>
</a>
</g>
</g>
<!-- Node2&#45;&gt;Node21 -->
<g id="edge34" class="edge">
<title>Node2&#45;&gt;Node21</title>
<path fill="none" stroke="midnightblue" d="M365.16,-355.59C363.13,-298.64 349.57,-133.26 262,-40.5 256.89,-35.08 250.49,-30.83 243.69,-27.5"/>
<polygon fill="midnightblue" stroke="midnightblue" points="361.67,-355.85 365.44,-365.75 368.67,-355.66 361.67,-355.85"/>
</g>
<!-- Node4 -->
<g id="node4" class="node">
<title>Node4</title>
<g id="a_node4"><a xlink:href="tests__peeq_8f90.html#a87ff5319e0d2e627a4f71d7df0d14891" target="_top" xlink:title=" ">
<polygon fill="white" stroke="black" points="11,-464 11,-483 79,-483 79,-464 11,-464"/>
<text text-anchor="middle" x="45" y="-471" font-family="Helvetica,sans-Serif" font-size="10.00">peeq_tester</text>
</a>
</g>
</g>
<!-- Node3&#45;&gt;Node4 -->
<g id="edge3" class="edge">
<title>Node3&#45;&gt;Node4</title>
<path fill="none" stroke="midnightblue" d="M130.48,-747.68C128.9,-746.37 127.4,-744.98 126,-743.5 51.93,-665.17 46.11,-521.47 45.92,-483.12"/>
<polygon fill="midnightblue" stroke="midnightblue" points="128.72,-750.72 138.94,-753.51 132.69,-744.95 128.72,-750.72"/>
</g>
<!-- Node5&#45;&gt;Node4 -->
<g id="edge5" class="edge">
<title>Node5&#45;&gt;Node4</title>
<path fill="none" stroke="midnightblue" d="M129.34,-697.55C128.18,-696.58 127.07,-695.56 126,-694.5 63.57,-632.28 49.54,-517.72 46.68,-483.44"/>
<polygon fill="midnightblue" stroke="midnightblue" points="127.36,-700.43 137.55,-703.33 131.39,-694.71 127.36,-700.43"/>
</g>
<!-- Node6&#45;&gt;Node4 -->
<g id="edge7" class="edge">
<title>Node6&#45;&gt;Node4</title>
<path fill="none" stroke="midnightblue" d="M130.03,-648.85C128.63,-647.79 127.29,-646.67 126,-645.5 74.67,-598.66 53.61,-512.19 47.79,-483.23"/>
<polygon fill="midnightblue" stroke="midnightblue" points="128.23,-651.86 138.52,-654.38 132.05,-645.99 128.23,-651.86"/>
</g>
<!-- Node7&#45;&gt;Node4 -->
<g id="edge9" class="edge">
<title>Node7&#45;&gt;Node4</title>
<path fill="none" stroke="midnightblue" d="M131.56,-600.47C129.63,-599.22 127.77,-597.9 126,-596.5 85.44,-564.43 58.9,-505.88 49.65,-483.01"/>
<polygon fill="midnightblue" stroke="midnightblue" points="129.95,-603.58 140.37,-605.49 133.41,-597.5 129.95,-603.58"/>
</g>
<!-- Node8&#45;&gt;Node4 -->
<g id="edge11" class="edge">
<title>Node8&#45;&gt;Node4</title>
<path fill="none" stroke="midnightblue" d="M134.31,-552.09C131.45,-550.64 128.66,-549.11 126,-547.5 96.24,-529.45 67.93,-499.12 54.36,-483.48"/>
<polygon fill="midnightblue" stroke="midnightblue" points="133.09,-555.38 143.64,-556.42 136.04,-549.03 133.09,-555.38"/>
</g>
<!-- Node9&#45;&gt;Node4 -->
<g id="edge13" class="edge">
<title>Node9&#45;&gt;Node4</title>
<path fill="none" stroke="midnightblue" d="M138,-504.17C116.49,-497 92.72,-489.07 74.73,-483.08"/>
<polygon fill="midnightblue" stroke="midnightblue" points="137.1,-507.56 147.7,-507.4 139.32,-500.92 137.1,-507.56"/>
</g>
<!-- Node10&#45;&gt;Node4 -->
<g id="edge15" class="edge">
<title>Node10&#45;&gt;Node4</title>
<path fill="none" stroke="midnightblue" d="M128.24,-473.5C111.3,-473.5 93.72,-473.5 79.19,-473.5"/>
<polygon fill="midnightblue" stroke="midnightblue" points="128.68,-477 138.68,-473.5 128.68,-470 128.68,-477"/>
</g>
<!-- Node11&#45;&gt;Node4 -->
<g id="edge17" class="edge">
<title>Node11&#45;&gt;Node4</title>
<path fill="none" stroke="midnightblue" d="M138,-442.83C116.49,-450 92.72,-457.93 74.73,-463.92"/>
<polygon fill="midnightblue" stroke="midnightblue" points="139.32,-446.08 147.7,-439.6 137.1,-439.44 139.32,-446.08"/>
</g>
<!-- Node12&#45;&gt;Node4 -->
<g id="edge19" class="edge">
<title>Node12&#45;&gt;Node4</title>
<path fill="none" stroke="midnightblue" d="M136.07,-394.96C132.59,-396.69 129.21,-398.54 126,-400.5 96.48,-418.54 68.07,-448.36 54.42,-463.7"/>
<polygon fill="midnightblue" stroke="midnightblue" points="137.82,-398.01 145.43,-390.65 134.89,-391.66 137.82,-398.01"/>
</g>
<!-- Node13&#45;&gt;Node4 -->
<g id="edge21" class="edge">
<title>Node13&#45;&gt;Node4</title>
<path fill="none" stroke="midnightblue" d="M132.57,-346.82C130.28,-348.28 128.08,-349.84 126,-351.5 86.02,-383.42 59.32,-440.93 49.84,-463.77"/>
<polygon fill="midnightblue" stroke="midnightblue" points="134.75,-349.61 141.75,-341.66 131.32,-343.51 134.75,-349.61"/>
</g>
<!-- Node14&#45;&gt;Node4 -->
<g id="edge23" class="edge">
<title>Node14&#45;&gt;Node4</title>
<path fill="none" stroke="midnightblue" d="M131.41,-298.06C129.52,-299.45 127.71,-300.93 126,-302.5 75.17,-349.4 53.78,-435.15 47.84,-463.85"/>
<polygon fill="midnightblue" stroke="midnightblue" points="133.58,-300.84 140.19,-292.55 129.86,-294.91 133.58,-300.84"/>
</g>
<!-- Node15&#45;&gt;Node4 -->
<g id="edge25" class="edge">
<title>Node15&#45;&gt;Node4</title>
<path fill="none" stroke="midnightblue" d="M130.59,-249.38C128.98,-250.67 127.44,-252.05 126,-253.5 64.19,-315.83 49.73,-429.6 46.72,-463.63"/>
<polygon fill="midnightblue" stroke="midnightblue" points="132.86,-252.07 139.17,-243.56 128.93,-246.28 132.86,-252.07"/>
</g>
<!-- Node16&#45;&gt;Node4 -->
<g id="edge27" class="edge">
<title>Node16&#45;&gt;Node4</title>
<path fill="none" stroke="midnightblue" d="M130.47,-200.27C128.89,-201.6 127.4,-203 126,-204.5 52.66,-283.01 46.31,-425.84 45.96,-463.95"/>
<polygon fill="midnightblue" stroke="midnightblue" points="132.76,-202.94 138.93,-194.33 128.74,-197.21 132.76,-202.94"/>
</g>
<!-- Node18 -->
<g id="node18" class="node">
<title>Node18</title>
<g id="a_node18"><a xlink:href="primary_8f90.html#a2a67903cf5be605c5b6d3c362c6a3c5c" target="_top" xlink:title="The primary driver for the xtb program package.">
<polygon fill="white" stroke="black" points="0,-69 0,-88 90,-88 90,-69 0,-69"/>
<text text-anchor="middle" x="45" y="-76" font-family="Helvetica,sans-Serif" font-size="10.00">xtb_prog_primary</text>
</a>
</g>
</g>
<!-- Node17&#45;&gt;Node18 -->
<g id="edge29" class="edge">
<title>Node17&#45;&gt;Node18</title>
<path fill="none" stroke="midnightblue" d="M145.03,-122.95C138.58,-120.96 132.09,-118.79 126,-116.5 104.13,-108.27 80.02,-96.42 64.05,-88.14"/>
<polygon fill="midnightblue" stroke="midnightblue" points="144.5,-126.45 155.08,-125.94 146.49,-119.74 144.5,-126.45"/>
</g>
<!-- Node19&#45;&gt;Node18 -->
<g id="edge31" class="edge">
<title>Node19&#45;&gt;Node18</title>
<path fill="none" stroke="midnightblue" d="M124.65,-88.67C112.9,-87.15 100.97,-85.6 90.07,-84.2"/>
<polygon fill="midnightblue" stroke="midnightblue" points="124.54,-92.18 134.9,-89.99 125.43,-85.24 124.54,-92.18"/>
</g>
<!-- Node20&#45;&gt;Node18 -->
<g id="edge33" class="edge">
<title>Node20&#45;&gt;Node18</title>
<path fill="none" stroke="midnightblue" d="M115.99,-69.45C107.16,-70.59 98.41,-71.73 90.23,-72.78"/>
<polygon fill="midnightblue" stroke="midnightblue" points="116.48,-72.92 125.95,-68.17 115.59,-65.98 116.48,-72.92"/>
</g>
<!-- Node21&#45;&gt;Node18 -->
<g id="edge35" class="edge">
<title>Node21&#45;&gt;Node18</title>
<path fill="none" stroke="midnightblue" d="M141.52,-34.19C136.25,-36.26 131,-38.38 126,-40.5 104.76,-49.49 80.94,-60.99 64.86,-68.97"/>
<polygon fill="midnightblue" stroke="midnightblue" points="142.89,-37.41 150.96,-30.55 140.37,-30.88 142.89,-37.41"/>
</g>
</g>
</svg>
        <g id="navigator" transform="translate(0 0)" fill="#404254">
                <rect fill="#f2f5e9" fill-opacity="0.5" stroke="#606060" stroke-width=".5" x="0" y="0" width="60" height="60"/>
                <use id="zoomplus" xlink:href="#zoomPlus" x="17" y="9" onmousedown="handleZoom(evt,'in')"/>
                <use id="zoomminus" xlink:href="#zoomMin" x="42" y="9" onmousedown="handleZoom(evt,'out')"/>
                <use id="reset" xlink:href="#resetDef" x="30" y="36" onmousedown="handleReset()"/>
                <g id="arrowUp" xlink:href="#dirArrow" transform="translate(30 24)" onmousedown="handlePan(0,-1)">
                  <use xlink:href="#rim" fill="#404040">
                        <set attributeName="fill" to="#808080" begin="arrowUp.mouseover" end="arrowUp.mouseout"/>
                  </use>
                  <path fill="none" stroke="white" stroke-width="1.5" d="M0,-3.0v7 M-2.5,-0.5L0,-3.0L2.5,-0.5"/>
                </g>
                <g id="arrowRight" xlink:href="#dirArrow" transform="rotate(90) translate(36 -43)" onmousedown="handlePan(1,0)">
                  <use xlink:href="#rim" fill="#404040">
                        <set attributeName="fill" to="#808080" begin="arrowRight.mouseover" end="arrowRight.mouseout"/>
                  </use>
                  <path fill="none" stroke="white" stroke-width="1.5" d="M0,-3.0v7 M-2.5,-0.5L0,-3.0L2.5,-0.5"/>
                </g>
                <g id="arrowDown" xlink:href="#dirArrow" transform="rotate(180) translate(-30 -48)" onmousedown="handlePan(0,1)">
                  <use xlink:href="#rim" fill="#404040">
                        <set attributeName="fill" to="#808080" begin="arrowDown.mouseover" end="arrowDown.mouseout"/>
                  </use>
                  <path fill="none" stroke="white" stroke-width="1.5" d="M0,-3.0v7 M-2.5,-0.5L0,-3.0L2.5,-0.5"/>
                </g>
                <g id="arrowLeft" xlink:href="#dirArrow" transform="rotate(270) translate(-36 17)" onmousedown="handlePan(-1,0)">
                  <use xlink:href="#rim" fill="#404040">
                        <set attributeName="fill" to="#808080" begin="arrowLeft.mouseover" end="arrowLeft.mouseout"/>
                  </use>
                  <path fill="none" stroke="white" stroke-width="1.5" d="M0,-3.0v7 M-2.5,-0.5L0,-3.0L2.5,-0.5"/>
                </g>
        </g>
        <svg viewBox="0 0 15 15" width="100%" height="30px" preserveAspectRatio="xMaxYMin meet">
         <g id="arrow_out" transform="scale(0.3 0.3)">
          <a xlink:href="namespacextb__io__reader__genformat_a6dd4a7544ad9070b6190eceb1790b65e_icgraph_org.svg" target="_base">
           <rect id="button" ry="5" rx="5" y="6" x="6" height="38" width="38"
                fill="#f2f5e9" fill-opacity="0.5" stroke="#606060" stroke-width="1.0"/>
           <path id="arrow"
             d="M 11.500037,31.436501 C 11.940474,20.09759 22.043105,11.32322 32.158766,21.979434 L 37.068811,17.246167 C 37.068811,17.246167 37.088388,32 37.088388,32 L 22.160133,31.978069 C 22.160133,31.978069 26.997745,27.140456 26.997745,27.140456 C 18.528582,18.264221 13.291696,25.230495 11.500037,31.436501 z"
             style="fill:#404040;"/>
          </a>
         </g>
        </svg>
</svg>
