<?xml version="1.0" encoding="UTF-8" standalone="no"?>
<!DOCTYPE svg PUBLIC "-//W3C//DTD SVG 1.1//EN"
 "http://www.w3.org/Graphics/SVG/1.1/DTD/svg11.dtd">
<!-- Generated by graphviz version 2.46.1 (20210215.1649)
 -->
<!-- Title: xtb_api_environment::setoutput_api Pages: 1 -->
<svg width="435pt" height="127pt"
 viewBox="0.00 0.00 435.00 127.00" xmlns="http://www.w3.org/2000/svg" xmlns:xlink="http://www.w3.org/1999/xlink">
<g id="graph0" class="graph" transform="scale(1 1) rotate(0) translate(4 123)">
<title>xtb_api_environment::setoutput_api</title>
<polygon fill="white" stroke="transparent" points="-4,4 -4,-123 431,-123 431,4 -4,4"/>
<!-- Node1 -->
<g id="node1" class="node">
<title>Node1</title>
<g id="a_node1"><a xlink:title="Bind output from this environment.">
<polygon fill="#bfbfbf" stroke="black" points="0,-44.5 0,-74.5 106,-74.5 106,-44.5 0,-44.5"/>
<text text-anchor="start" x="8" y="-62.5" font-family="Helvetica,sans-Serif" font-size="10.00">xtb_api_environment</text>
<text text-anchor="middle" x="53" y="-51.5" font-family="Helvetica,sans-Serif" font-size="10.00">::setoutput_api</text>
</a>
</g>
</g>
<!-- Node2 -->
<g id="node2" class="node">
<title>Node2</title>
<g id="a_node2"><a xlink:href="namespacextb__api__utils.html#ab652b95658d5d5710529c8a49e175e9d" target="_top" xlink:title=" ">
<polygon fill="white" stroke="black" points="150.5,-88.5 150.5,-118.5 239.5,-118.5 239.5,-88.5 150.5,-88.5"/>
<text text-anchor="start" x="158.5" y="-106.5" font-family="Helvetica,sans-Serif" font-size="10.00">xtb_api_utils::c_f</text>
<text text-anchor="middle" x="195" y="-95.5" font-family="Helvetica,sans-Serif" font-size="10.00">_character</text>
</a>
</g>
</g>
<!-- Node1&#45;&gt;Node2 -->
<g id="edge1" class="edge">
<title>Node1&#45;&gt;Node2</title>
<path fill="none" stroke="midnightblue" d="M101.79,-74.52C114.29,-78.45 127.84,-82.71 140.61,-86.72"/>
<polygon fill="midnightblue" stroke="midnightblue" points="139.6,-90.07 150.19,-89.73 141.7,-83.39 139.6,-90.07"/>
</g>
<!-- Node3 -->
<g id="node3" class="node">
<title>Node3</title>
<g id="a_node3"><a xlink:href="namespacextb__api__utils.html#afd6a69e4c8c1021ccc4bbab8431de1a2" target="_top" xlink:title=" ">
<polygon fill="white" stroke="black" points="284,-28 284,-47 427,-47 427,-28 284,-28"/>
<text text-anchor="middle" x="355.5" y="-35" font-family="Helvetica,sans-Serif" font-size="10.00">xtb_api_utils::checkglobalenv</text>
</a>
</g>
</g>
<!-- Node1&#45;&gt;Node3 -->
<g id="edge2" class="edge">
<title>Node1&#45;&gt;Node3</title>
<path fill="none" stroke="midnightblue" d="M106,-55.69C152.16,-52.31 220.35,-47.32 273.63,-43.42"/>
<polygon fill="midnightblue" stroke="midnightblue" points="274.02,-46.9 283.73,-42.68 273.51,-39.92 274.02,-46.9"/>
</g>
<!-- Node4 -->
<g id="node4" class="node">
<title>Node4</title>
<g id="a_node4"><a xlink:href="namespacextb__api__environment.html#a1962b75eb266dc250db836f97e2fd4ec" target="_top" xlink:title="Release output unit from this environment.">
<polygon fill="white" stroke="black" points="142,-0.5 142,-30.5 248,-30.5 248,-0.5 142,-0.5"/>
<text text-anchor="start" x="150" y="-18.5" font-family="Helvetica,sans-Serif" font-size="10.00">xtb_api_environment</text>
<text text-anchor="middle" x="195" y="-7.5" font-family="Helvetica,sans-Serif" font-size="10.00">::releaseoutput_api</text>
</a>
</g>
</g>
<!-- Node1&#45;&gt;Node4 -->
<g id="edge3" class="edge">
<title>Node1&#45;&gt;Node4</title>
<path fill="none" stroke="midnightblue" d="M101.79,-44.48C112.82,-41.01 124.66,-37.29 136.07,-33.71"/>
<polygon fill="midnightblue" stroke="midnightblue" points="137.46,-36.94 145.95,-30.6 135.36,-30.26 137.46,-36.94"/>
</g>
<!-- Node4&#45;&gt;Node3 -->
<g id="edge4" class="edge">
<title>Node4&#45;&gt;Node3</title>
<path fill="none" stroke="midnightblue" d="M248.34,-22.76C257.15,-23.99 266.46,-25.28 275.76,-26.57"/>
<polygon fill="midnightblue" stroke="midnightblue" points="275.44,-30.06 285.82,-27.97 276.4,-23.13 275.44,-30.06"/>
</g>
</g>
</svg>
