<?xml version="1.0" encoding="UTF-8" standalone="no"?>
<!DOCTYPE svg PUBLIC "-//W3C//DTD SVG 1.1//EN"
 "http://www.w3.org/Graphics/SVG/1.1/DTD/svg11.dtd">
<!-- Generated by graphviz version 2.46.0 (20210122.1329)
 -->
<!-- Title: xtb_axis::axis Pages: 1 -->
<svg width="1267pt" height="828pt"
 viewBox="0.00 0.00 1267.00 828.49" xmlns="http://www.w3.org/2000/svg" xmlns:xlink="http://www.w3.org/1999/xlink">
<g id="graph0" class="graph" transform="scale(1 1) rotate(0) translate(4 824.49)">
<title>xtb_axis::axis</title>
<polygon fill="white" stroke="transparent" points="-4,4 -4,-824.49 1263,-824.49 1263,4 -4,4"/>
<!-- Node1 -->
<g id="node1" class="node">
<title>Node1</title>
<g id="a_node1"><a xlink:title=" ">
<polygon fill="#bfbfbf" stroke="black" points="1185,-380.5 1185,-399.5 1259,-399.5 1259,-380.5 1185,-380.5"/>
<text text-anchor="middle" x="1222" y="-387.5" font-family="Helvetica,sans-Serif" font-size="10.00">xtb_axis::axis</text>
</a>
</g>
</g>
<!-- Node2 -->
<g id="node2" class="node">
<title>Node2</title>
<g id="a_node2"><a xlink:href="namespacextb__biaspath.html#a17ea22b101e578a3df8d2b58b96811a5" target="_top" xlink:title=" ">
<polygon fill="white" stroke="black" points="885,-727.5 885,-746.5 1003,-746.5 1003,-727.5 885,-727.5"/>
<text text-anchor="middle" x="944" y="-734.5" font-family="Helvetica,sans-Serif" font-size="10.00">xtb_biaspath::bias_path</text>
</a>
</g>
</g>
<!-- Node1&#45;&gt;Node2 -->
<g id="edge1" class="edge">
<title>Node1&#45;&gt;Node2</title>
<path fill="none" stroke="midnightblue" d="M1221.51,-409.71C1221.7,-458.56 1215.43,-586.55 1149,-660 1111.42,-701.55 1049.11,-720.8 1003.22,-729.64"/>
<polygon fill="midnightblue" stroke="midnightblue" points="1225.01,-409.51 1221.37,-399.56 1218.01,-409.61 1225.01,-409.51"/>
</g>
<!-- Node5 -->
<g id="node5" class="node">
<title>Node5</title>
<g id="a_node5"><a xlink:href="symmetry__i_8c.html#a70bfe9695b008eea2aa9a740a8090823" target="_top" xlink:title=" ">
<polygon fill="white" stroke="black" points="437.5,-375.5 437.5,-394.5 510.5,-394.5 510.5,-375.5 437.5,-375.5"/>
<text text-anchor="middle" x="474" y="-382.5" font-family="Helvetica,sans-Serif" font-size="10.00">find_c2_axes</text>
</a>
</g>
</g>
<!-- Node1&#45;&gt;Node5 -->
<g id="edge4" class="edge">
<title>Node1&#45;&gt;Node5</title>
<path fill="none" stroke="midnightblue" d="M1174.55,-400.35C1119.91,-411.6 1026.34,-428 945,-428 945,-428 945,-428 784.5,-428 684.41,-428 567.83,-405.67 510.52,-393.19"/>
<polygon fill="midnightblue" stroke="midnightblue" points="1175.54,-403.72 1184.61,-398.25 1174.11,-396.87 1175.54,-403.72"/>
</g>
<!-- Node10 -->
<g id="node10" class="node">
<title>Node10</title>
<g id="a_node10"><a xlink:href="symmetry__i_8c.html#a49b87621120ab2d2cbfb4594ab6c1ab0" target="_top" xlink:title=" ">
<polygon fill="white" stroke="black" points="429.5,-157.5 429.5,-176.5 518.5,-176.5 518.5,-157.5 429.5,-157.5"/>
<text text-anchor="middle" x="474" y="-164.5" font-family="Helvetica,sans-Serif" font-size="10.00">find_higher_axes</text>
</a>
</g>
</g>
<!-- Node1&#45;&gt;Node10 -->
<g id="edge9" class="edge">
<title>Node1&#45;&gt;Node10</title>
<path fill="none" stroke="midnightblue" d="M1218.69,-370.36C1211.43,-311.92 1187.26,-140.79 1149,-102 1083.14,-35.23 1038.79,-48 945,-48 945,-48 945,-48 784.5,-48 662.74,-48 530.92,-129.22 488.77,-157.46"/>
<polygon fill="midnightblue" stroke="midnightblue" points="1215.24,-370.97 1219.92,-380.47 1222.19,-370.12 1215.24,-370.97"/>
</g>
<!-- Node11 -->
<g id="node11" class="node">
<title>Node11</title>
<g id="a_node11"><a xlink:href="symmetry__i_8c.html#a317b62be7bbb27bca96065c7f547eca8" target="_top" xlink:title=" ">
<polygon fill="white" stroke="black" points="424,-214.5 424,-233.5 524,-233.5 524,-214.5 424,-214.5"/>
<text text-anchor="middle" x="474" y="-221.5" font-family="Helvetica,sans-Serif" font-size="10.00">find_improper_axes</text>
</a>
</g>
</g>
<!-- Node1&#45;&gt;Node11 -->
<g id="edge11" class="edge">
<title>Node1&#45;&gt;Node11</title>
<path fill="none" stroke="midnightblue" d="M1221.81,-370.09C1222.49,-323.71 1216.91,-208.46 1149,-156 1047,-77.19 686.56,-95.14 569,-148 547.78,-157.54 550.85,-171.08 533,-186 519.98,-196.89 503.7,-207.31 491.71,-214.47"/>
<polygon fill="midnightblue" stroke="midnightblue" points="1218.31,-370.23 1221.54,-380.32 1225.3,-370.41 1218.31,-370.23"/>
</g>
<!-- Node12 -->
<g id="node12" class="node">
<title>Node12</title>
<g id="a_node12"><a xlink:href="symmetry__i_8c.html#a7cd11ccb0556c3180cd0b17cde152828" target="_top" xlink:title=" ">
<polygon fill="white" stroke="black" points="742.5,-456.5 742.5,-475.5 828.5,-475.5 828.5,-456.5 742.5,-456.5"/>
<text text-anchor="middle" x="785.5" y="-463.5" font-family="Helvetica,sans-Serif" font-size="10.00">find_infinity_axis</text>
</a>
</g>
</g>
<!-- Node1&#45;&gt;Node12 -->
<g id="edge13" class="edge">
<title>Node1&#45;&gt;Node12</title>
<path fill="none" stroke="midnightblue" d="M1209.65,-408.15C1197.18,-426.36 1175.39,-453.57 1149,-467 1039.49,-522.74 886.16,-492.87 819.55,-475.56"/>
<polygon fill="midnightblue" stroke="midnightblue" points="1212.72,-409.85 1215.29,-399.57 1206.87,-406 1212.72,-409.85"/>
</g>
<!-- Node13 -->
<g id="node13" class="node">
<title>Node13</title>
<g id="a_node13"><a xlink:href="namespacextb__relaxation__engine.html#a930f6aac4b13eab0de82f2b71bcde96b" target="_top" xlink:title="frontend implementation of the fast inertial relaxation engine">
<polygon fill="white" stroke="black" points="1039,-620 1039,-650 1149,-650 1149,-620 1039,-620"/>
<text text-anchor="start" x="1047" y="-638" font-family="Helvetica,sans-Serif" font-size="10.00">xtb_relaxation_engine</text>
<text text-anchor="middle" x="1094" y="-627" font-family="Helvetica,sans-Serif" font-size="10.00">::fire</text>
</a>
</g>
</g>
<!-- Node1&#45;&gt;Node13 -->
<g id="edge15" class="edge">
<title>Node1&#45;&gt;Node13</title>
<path fill="none" stroke="midnightblue" d="M1219.82,-409.84C1216.3,-452.05 1202.47,-551.7 1149,-611 1145.91,-614.43 1142.24,-617.39 1138.28,-619.95"/>
<polygon fill="midnightblue" stroke="midnightblue" points="1223.32,-409.99 1220.55,-399.76 1216.34,-409.48 1223.32,-409.99"/>
</g>
<!-- Node20 -->
<g id="node20" class="node">
<title>Node20</title>
<g id="a_node20"><a xlink:href="namespacextb__screening.html#a7f4004ff0e65127a38b038f0a7cdcc84" target="_top" xlink:title=" ">
<polygon fill="white" stroke="black" points="730.5,-494.5 730.5,-513.5 840.5,-513.5 840.5,-494.5 730.5,-494.5"/>
<text text-anchor="middle" x="785.5" y="-501.5" font-family="Helvetica,sans-Serif" font-size="10.00">xtb_screening::screen</text>
</a>
</g>
</g>
<!-- Node1&#45;&gt;Node20 -->
<g id="edge65" class="edge">
<title>Node1&#45;&gt;Node20</title>
<path fill="none" stroke="midnightblue" d="M1213.96,-409.02C1203.77,-433.57 1182.39,-475.47 1149,-495 1043.58,-556.66 889.76,-530.04 821.44,-513.52"/>
<polygon fill="midnightblue" stroke="midnightblue" points="1217.24,-410.26 1217.65,-399.67 1210.73,-407.69 1217.24,-410.26"/>
</g>
<!-- Node22 -->
<g id="node22" class="node">
<title>Node22</title>
<g id="a_node22"><a xlink:href="symmetry__i_8c.html#aab43e6eec0762c0f8ed2e1f00487aabf" target="_top" xlink:title=" ">
<polygon fill="white" stroke="black" points="732.5,-152.5 732.5,-171.5 838.5,-171.5 838.5,-152.5 732.5,-152.5"/>
<text text-anchor="middle" x="785.5" y="-159.5" font-family="Helvetica,sans-Serif" font-size="10.00">init_axis_parameters</text>
</a>
</g>
</g>
<!-- Node1&#45;&gt;Node22 -->
<g id="edge31" class="edge">
<title>Node1&#45;&gt;Node22</title>
<path fill="none" stroke="midnightblue" d="M1220.71,-370.16C1218.91,-328.26 1208.21,-230.9 1149,-186 1101.57,-150.03 927.02,-154.06 838.59,-158.65"/>
<polygon fill="midnightblue" stroke="midnightblue" points="1217.21,-370.32 1221.01,-380.21 1224.21,-370.1 1217.21,-370.32"/>
</g>
<!-- Node23 -->
<g id="node23" class="node">
<title>Node23</title>
<g id="a_node23"><a xlink:href="symmetry__i_8c.html#aefd8cb52cd2813008ffac12799461733" target="_top" xlink:title=" ">
<polygon fill="white" stroke="black" points="586,-157.5 586,-176.5 669,-176.5 669,-157.5 586,-157.5"/>
<text text-anchor="middle" x="627.5" y="-164.5" font-family="Helvetica,sans-Serif" font-size="10.00">init_higher_axis</text>
</a>
</g>
</g>
<!-- Node1&#45;&gt;Node23 -->
<g id="edge38" class="edge">
<title>Node1&#45;&gt;Node23</title>
<path fill="none" stroke="midnightblue" d="M1221.81,-370.09C1222.49,-323.71 1216.91,-208.46 1149,-156 994.69,-36.78 730.78,-126.32 651.61,-157.43"/>
<polygon fill="midnightblue" stroke="midnightblue" points="1218.31,-370.23 1221.54,-380.32 1225.3,-370.41 1218.31,-370.23"/>
</g>
<!-- Node24 -->
<g id="node24" class="node">
<title>Node24</title>
<g id="a_node24"><a xlink:href="symmetry__i_8c.html#a630773e4f2973515dc5079ce892f6d3a" target="_top" xlink:title=" ">
<polygon fill="white" stroke="black" points="580,-214.5 580,-233.5 675,-233.5 675,-214.5 580,-214.5"/>
<text text-anchor="middle" x="627.5" y="-221.5" font-family="Helvetica,sans-Serif" font-size="10.00">init_improper_axis</text>
</a>
</g>
</g>
<!-- Node1&#45;&gt;Node24 -->
<g id="edge39" class="edge">
<title>Node1&#45;&gt;Node24</title>
<path fill="none" stroke="midnightblue" d="M1212.19,-371.32C1200.81,-349.37 1178.86,-313.58 1149,-295 996.84,-200.32 771.6,-209.16 675.12,-218.38"/>
<polygon fill="midnightblue" stroke="midnightblue" points="1209.08,-372.93 1216.66,-380.32 1215.35,-369.81 1209.08,-372.93"/>
</g>
<!-- Node25 -->
<g id="node25" class="node">
<title>Node25</title>
<g id="a_node25"><a xlink:href="symmetry__i_8c.html#a64141aa48feafed7ea902983e9420710" target="_top" xlink:title=" ">
<polygon fill="white" stroke="black" points="593.5,-375.5 593.5,-394.5 661.5,-394.5 661.5,-375.5 593.5,-375.5"/>
<text text-anchor="middle" x="627.5" y="-382.5" font-family="Helvetica,sans-Serif" font-size="10.00">init_c2_axis</text>
</a>
</g>
</g>
<!-- Node1&#45;&gt;Node25 -->
<g id="edge36" class="edge">
<title>Node1&#45;&gt;Node25</title>
<path fill="none" stroke="midnightblue" d="M1174.56,-389.61C1059.14,-388.63 761.36,-386.12 661.62,-385.28"/>
<polygon fill="midnightblue" stroke="midnightblue" points="1174.8,-393.11 1184.83,-389.69 1174.86,-386.11 1174.8,-393.11"/>
</g>
<!-- Node26 -->
<g id="node26" class="node">
<title>Node26</title>
<g id="a_node26"><a xlink:href="symmetry__i_8c.html#a4252fcf90b18d24f5c7f5b88a4c305c7" target="_top" xlink:title=" ">
<polygon fill="white" stroke="black" points="898,-456.5 898,-475.5 990,-475.5 990,-456.5 898,-456.5"/>
<text text-anchor="middle" x="944" y="-463.5" font-family="Helvetica,sans-Serif" font-size="10.00">init_ultimate_axis</text>
</a>
</g>
</g>
<!-- Node1&#45;&gt;Node26 -->
<g id="edge40" class="edge">
<title>Node1&#45;&gt;Node26</title>
<path fill="none" stroke="midnightblue" d="M1203.62,-406.5C1189.91,-418.48 1169.7,-433.94 1149,-442 1097.16,-462.18 1032.75,-466.68 990.33,-467.11"/>
<polygon fill="midnightblue" stroke="midnightblue" points="1206.19,-408.89 1211.27,-399.59 1201.5,-403.7 1206.19,-408.89"/>
</g>
<!-- Node27 -->
<g id="node27" class="node">
<title>Node27</title>
<g id="a_node27"><a xlink:href="namespacextb__relaxation__engine.html#a93ca131c43cfa21276f1bc353c189423" target="_top" xlink:title="frontend implementation of the low memory/linear scaling (by taste)">
<polygon fill="white" stroke="black" points="1039,-571 1039,-601 1149,-601 1149,-571 1039,-571"/>
<text text-anchor="start" x="1047" y="-589" font-family="Helvetica,sans-Serif" font-size="10.00">xtb_relaxation_engine</text>
<text text-anchor="middle" x="1094" y="-578" font-family="Helvetica,sans-Serif" font-size="10.00">::l_ancopt</text>
</a>
</g>
</g>
<!-- Node1&#45;&gt;Node27 -->
<g id="edge42" class="edge">
<title>Node1&#45;&gt;Node27</title>
<path fill="none" stroke="midnightblue" d="M1216.83,-409.78C1208.85,-443.4 1188.62,-512.3 1149,-556 1143.67,-561.88 1136.91,-566.87 1129.99,-570.99"/>
<polygon fill="midnightblue" stroke="midnightblue" points="1220.29,-410.34 1219.07,-399.81 1213.46,-408.8 1220.29,-410.34"/>
</g>
<!-- Node28 -->
<g id="node28" class="node">
<title>Node28</title>
<g id="a_node28"><a xlink:href="namespacextb__hessian.html#a00a164f8b73c075f59a6547e93d5793b" target="_top" xlink:title=" ">
<polygon fill="white" stroke="black" points="887.5,-797.5 887.5,-816.5 1000.5,-816.5 1000.5,-797.5 887.5,-797.5"/>
<text text-anchor="middle" x="944" y="-804.5" font-family="Helvetica,sans-Serif" font-size="10.00">xtb_hessian::numhess</text>
</a>
</g>
</g>
<!-- Node1&#45;&gt;Node28 -->
<g id="edge44" class="edge">
<title>Node1&#45;&gt;Node28</title>
<path fill="none" stroke="midnightblue" d="M1218.66,-409.75C1211.07,-470.96 1185.5,-656.23 1149,-703 1107.66,-755.96 1032,-784.32 985.35,-797.48"/>
<polygon fill="midnightblue" stroke="midnightblue" points="1222.17,-409.88 1219.9,-399.53 1215.22,-409.03 1222.17,-409.88"/>
</g>
<!-- Node29 -->
<g id="node29" class="node">
<title>Node29</title>
<g id="a_node29"><a xlink:href="symmetry__i_8c.html#ac17305b859f184b2c84cac9a508a3854" target="_top" xlink:title=" ">
<polygon fill="white" stroke="black" points="1060,-342.5 1060,-361.5 1128,-361.5 1128,-342.5 1060,-342.5"/>
<text text-anchor="middle" x="1094" y="-349.5" font-family="Helvetica,sans-Serif" font-size="10.00">rotate_atom</text>
</a>
</g>
</g>
<!-- Node1&#45;&gt;Node29 -->
<g id="edge46" class="edge">
<title>Node1&#45;&gt;Node29</title>
<path fill="none" stroke="midnightblue" d="M1179.44,-377.46C1162.29,-372.3 1142.75,-366.4 1126.78,-361.59"/>
<polygon fill="midnightblue" stroke="midnightblue" points="1178.62,-380.87 1189.2,-380.41 1180.64,-374.17 1178.62,-380.87"/>
</g>
<!-- Node30 -->
<g id="node30" class="node">
<title>Node30</title>
<g id="a_node30"><a xlink:href="symmetry__i_8c.html#ad478abbd8c6b45859d4614081bc2660e" target="_top" xlink:title=" ">
<polygon fill="white" stroke="black" points="1044,-304.5 1044,-323.5 1144,-323.5 1144,-304.5 1044,-304.5"/>
<text text-anchor="middle" x="1094" y="-311.5" font-family="Helvetica,sans-Serif" font-size="10.00">rotate_reflect_atom</text>
</a>
</g>
</g>
<!-- Node1&#45;&gt;Node30 -->
<g id="edge50" class="edge">
<title>Node1&#45;&gt;Node30</title>
<path fill="none" stroke="midnightblue" d="M1203.68,-373.56C1189.78,-361.07 1169.31,-344.2 1149,-333 1142.39,-329.35 1134.94,-326.2 1127.74,-323.56"/>
<polygon fill="midnightblue" stroke="midnightblue" points="1201.31,-376.14 1211.05,-380.33 1206.05,-370.98 1201.31,-376.14"/>
</g>
<!-- Node38 -->
<g id="node38" class="node">
<title>Node38</title>
<g id="a_node38"><a xlink:href="TESTSUITE_2thermo_8f90.html#abe3012f14d4632fd4fce646e56aee1f0" target="_top" xlink:title=" ">
<polygon fill="white" stroke="black" points="1066,-0.5 1066,-19.5 1122,-19.5 1122,-0.5 1066,-0.5"/>
<text text-anchor="middle" x="1094" y="-7.5" font-family="Helvetica,sans-Serif" font-size="10.00">test_axis</text>
</a>
</g>
</g>
<!-- Node1&#45;&gt;Node38 -->
<g id="edge66" class="edge">
<title>Node1&#45;&gt;Node38</title>
<path fill="none" stroke="midnightblue" d="M1219.36,-370.1C1213.48,-303.1 1191.52,-87.01 1149,-34 1142.26,-25.6 1131.96,-20.05 1122.16,-16.43"/>
<polygon fill="midnightblue" stroke="midnightblue" points="1215.88,-370.5 1220.22,-380.17 1222.86,-369.91 1215.88,-370.5"/>
</g>
<!-- Node3 -->
<g id="node3" class="node">
<title>Node3</title>
<g id="a_node3"><a xlink:href="namespacextb__prog__main.html#a92b3b61ee04235e6343f652095682529" target="_top" xlink:title=" ">
<polygon fill="white" stroke="black" points="415,-652.5 415,-671.5 533,-671.5 533,-652.5 415,-652.5"/>
<text text-anchor="middle" x="474" y="-659.5" font-family="Helvetica,sans-Serif" font-size="10.00">xtb_prog_main::xtbmain</text>
</a>
</g>
</g>
<!-- Node2&#45;&gt;Node3 -->
<g id="edge2" class="edge">
<title>Node2&#45;&gt;Node3</title>
<path fill="none" stroke="midnightblue" d="M906.21,-749.66C889.05,-754.91 868.22,-760.39 849,-763 725.43,-779.77 682.85,-795.87 569,-745 530.84,-727.95 497.04,-689.79 482.53,-671.77"/>
<polygon fill="midnightblue" stroke="midnightblue" points="907.37,-752.96 915.85,-746.61 905.26,-746.29 907.37,-752.96"/>
</g>
<!-- Node4 -->
<g id="node4" class="node">
<title>Node4</title>
<g id="a_node4"><a xlink:href="primary_8f90.html#a2a67903cf5be605c5b6d3c362c6a3c5c" target="_top" xlink:title="The primary driver for the xtb program package.">
<polygon fill="white" stroke="black" points="272,-652.5 272,-671.5 362,-671.5 362,-652.5 272,-652.5"/>
<text text-anchor="middle" x="317" y="-659.5" font-family="Helvetica,sans-Serif" font-size="10.00">xtb_prog_primary</text>
</a>
</g>
</g>
<!-- Node3&#45;&gt;Node4 -->
<g id="edge3" class="edge">
<title>Node3&#45;&gt;Node4</title>
<path fill="none" stroke="midnightblue" d="M404.55,-662C390.26,-662 375.57,-662 362.43,-662"/>
<polygon fill="midnightblue" stroke="midnightblue" points="404.84,-665.5 414.84,-662 404.84,-658.5 404.84,-665.5"/>
</g>
<!-- Node6 -->
<g id="node6" class="node">
<title>Node6</title>
<g id="a_node6"><a xlink:href="symmetry__i_8c.html#a65f666e81a867d34e263423c6cbda622" target="_top" xlink:title=" ">
<polygon fill="white" stroke="black" points="255,-280.5 255,-299.5 379,-299.5 379,-280.5 255,-280.5"/>
<text text-anchor="middle" x="317" y="-287.5" font-family="Helvetica,sans-Serif" font-size="10.00">find_symmetry_elements</text>
</a>
</g>
</g>
<!-- Node5&#45;&gt;Node6 -->
<g id="edge5" class="edge">
<title>Node5&#45;&gt;Node6</title>
<path fill="none" stroke="midnightblue" d="M448.5,-369.98C416.34,-350.27 360.82,-316.25 333.76,-299.66"/>
<polygon fill="midnightblue" stroke="midnightblue" points="446.93,-373.13 457.28,-375.37 450.59,-367.16 446.93,-373.13"/>
</g>
<!-- Node7 -->
<g id="node7" class="node">
<title>Node7</title>
<g id="a_node7"><a xlink:href="symmetry__i_8c.html#a4f248fe6bdc62df2f41c5abd34e81ed1" target="_top" xlink:title=" ">
<polygon fill="white" stroke="black" points="158.5,-299.5 158.5,-318.5 214.5,-318.5 214.5,-299.5 158.5,-299.5"/>
<text text-anchor="middle" x="186.5" y="-306.5" font-family="Helvetica,sans-Serif" font-size="10.00">old_main</text>
</a>
</g>
</g>
<!-- Node6&#45;&gt;Node7 -->
<g id="edge6" class="edge">
<title>Node6&#45;&gt;Node7</title>
<path fill="none" stroke="midnightblue" d="M244.86,-300.52C234.11,-302.11 223.63,-303.66 214.62,-304.99"/>
<polygon fill="midnightblue" stroke="midnightblue" points="245.38,-303.98 254.76,-299.05 244.36,-297.06 245.38,-303.98"/>
</g>
<!-- Node8 -->
<g id="node8" class="node">
<title>Node8</title>
<g id="a_node8"><a xlink:href="symmetry__i_8c.html#a6c9de386e61e3a35d683a216dbcd1528" target="_top" xlink:title=" ">
<polygon fill="white" stroke="black" points="154,-261.5 154,-280.5 219,-280.5 219,-261.5 154,-261.5"/>
<text text-anchor="middle" x="186.5" y="-268.5" font-family="Helvetica,sans-Serif" font-size="10.00">schoenflies</text>
</a>
</g>
</g>
<!-- Node6&#45;&gt;Node8 -->
<g id="edge7" class="edge">
<title>Node6&#45;&gt;Node8</title>
<path fill="none" stroke="midnightblue" d="M244.69,-279.46C235.81,-278.14 227.1,-276.86 219.27,-275.7"/>
<polygon fill="midnightblue" stroke="midnightblue" points="244.36,-282.94 254.76,-280.95 245.38,-276.02 244.36,-282.94"/>
</g>
<!-- Node9 -->
<g id="node9" class="node">
<title>Node9</title>
<g id="a_node9"><a xlink:href="interfacec__interface.html#a98e1aed930d85608299bba1f41a6b07d" target="_top" xlink:title=" ">
<polygon fill="white" stroke="black" points="0,-261.5 0,-280.5 118,-280.5 118,-261.5 0,-261.5"/>
<text text-anchor="middle" x="59" y="-268.5" font-family="Helvetica,sans-Serif" font-size="10.00">c_interface::schoenflies</text>
</a>
</g>
</g>
<!-- Node8&#45;&gt;Node9 -->
<g id="edge8" class="edge">
<title>Node8&#45;&gt;Node9</title>
<path fill="none" stroke="midnightblue" d="M143.74,-271C135.5,-271 126.72,-271 118.05,-271"/>
<polygon fill="midnightblue" stroke="midnightblue" points="143.83,-274.5 153.83,-271 143.83,-267.5 143.83,-274.5"/>
</g>
<!-- Node10&#45;&gt;Node6 -->
<g id="edge10" class="edge">
<title>Node10&#45;&gt;Node6</title>
<path fill="none" stroke="midnightblue" d="M448.38,-182.05C437.87,-188.76 425.6,-196.94 415,-205 381.66,-230.33 345.27,-264.01 328.08,-280.32"/>
<polygon fill="midnightblue" stroke="midnightblue" points="450.48,-184.87 457.09,-176.59 446.76,-178.94 450.48,-184.87"/>
</g>
<!-- Node11&#45;&gt;Node6 -->
<g id="edge12" class="edge">
<title>Node11&#45;&gt;Node6</title>
<path fill="none" stroke="midnightblue" d="M441.24,-237.52C411.18,-250.32 366.81,-269.22 340.31,-280.5"/>
<polygon fill="midnightblue" stroke="midnightblue" points="442.63,-240.73 450.46,-233.6 439.89,-234.29 442.63,-240.73"/>
</g>
<!-- Node12&#45;&gt;Node6 -->
<g id="edge14" class="edge">
<title>Node12&#45;&gt;Node6</title>
<path fill="none" stroke="midnightblue" d="M732.21,-469.14C656.47,-471.2 514.47,-465.51 415,-404 370.58,-376.53 336.11,-321.92 323.36,-299.72"/>
<polygon fill="midnightblue" stroke="midnightblue" points="732.56,-472.63 742.44,-468.8 732.33,-465.64 732.56,-472.63"/>
</g>
<!-- Node14 -->
<g id="node14" class="node">
<title>Node14</title>
<g id="a_node14"><a xlink:href="namespacextb__geoopt.html#a1f0513294f2237b94f355cc4dc5dd867" target="_top" xlink:title=" ">
<polygon fill="white" stroke="black" points="890,-603 890,-633 998,-633 998,-603 890,-603"/>
<text text-anchor="start" x="898" y="-621" font-family="Helvetica,sans-Serif" font-size="10.00">xtb_geoopt::geometry</text>
<text text-anchor="middle" x="944" y="-610" font-family="Helvetica,sans-Serif" font-size="10.00">_optimization</text>
</a>
</g>
</g>
<!-- Node13&#45;&gt;Node14 -->
<g id="edge16" class="edge">
<title>Node13&#45;&gt;Node14</title>
<path fill="none" stroke="midnightblue" d="M1028.69,-627.61C1018.54,-626.45 1008.14,-625.25 998.27,-624.12"/>
<polygon fill="midnightblue" stroke="midnightblue" points="1028.4,-631.1 1038.73,-628.77 1029.2,-624.15 1028.4,-631.1"/>
</g>
<!-- Node14&#45;&gt;Node3 -->
<g id="edge30" class="edge">
<title>Node14&#45;&gt;Node3</title>
<path fill="none" stroke="midnightblue" d="M879.83,-623.61C835.62,-627.55 775.2,-633.01 722,-638 657.44,-644.06 583.42,-651.29 533.38,-656.22"/>
<polygon fill="midnightblue" stroke="midnightblue" points="880.2,-627.09 889.85,-622.71 879.58,-620.11 880.2,-627.09"/>
</g>
<!-- Node15 -->
<g id="node15" class="node">
<title>Node15</title>
<g id="a_node15"><a xlink:href="namespacextb__kopt.html#ada4ab70832f563f46c8ffc8cea64c78b" target="_top" xlink:title=" ">
<polygon fill="white" stroke="black" points="736.5,-570.5 736.5,-589.5 834.5,-589.5 834.5,-570.5 736.5,-570.5"/>
<text text-anchor="middle" x="785.5" y="-577.5" font-family="Helvetica,sans-Serif" font-size="10.00">xtb_kopt::get_rmsd</text>
</a>
</g>
</g>
<!-- Node14&#45;&gt;Node15 -->
<g id="edge17" class="edge">
<title>Node14&#45;&gt;Node15</title>
<path fill="none" stroke="midnightblue" d="M879.62,-602.61C861.43,-598.19 842.13,-593.51 825.85,-589.55"/>
<polygon fill="midnightblue" stroke="midnightblue" points="879.04,-606.07 889.58,-605.03 880.69,-599.27 879.04,-606.07"/>
</g>
<!-- Node17 -->
<g id="node17" class="node">
<title>Node17</title>
<g id="a_node17"><a xlink:href="namespacextb__mdoptim.html#ab0ba2195163cd6794115b99516ba5316" target="_top" xlink:title=" ">
<polygon fill="white" stroke="black" points="733.5,-532.5 733.5,-551.5 837.5,-551.5 837.5,-532.5 733.5,-532.5"/>
<text text-anchor="middle" x="785.5" y="-539.5" font-family="Helvetica,sans-Serif" font-size="10.00">xtb_mdoptim::mdopt</text>
</a>
</g>
</g>
<!-- Node14&#45;&gt;Node17 -->
<g id="edge20" class="edge">
<title>Node14&#45;&gt;Node17</title>
<path fill="none" stroke="midnightblue" d="M913.11,-597.22C895.14,-585.42 871.46,-571.03 849,-561 840.92,-557.39 831.97,-554.22 823.41,-551.55"/>
<polygon fill="midnightblue" stroke="midnightblue" points="911.18,-600.14 921.44,-602.78 915.07,-594.32 911.18,-600.14"/>
</g>
<!-- Node18 -->
<g id="node18" class="node">
<title>Node18</title>
<g id="a_node18"><a xlink:href="namespacextb__modef.html#a39c4cb408b8b02afb7bf83a1d7f13de3" target="_top" xlink:title=" ">
<polygon fill="white" stroke="black" points="727.5,-734.5 727.5,-753.5 843.5,-753.5 843.5,-734.5 727.5,-734.5"/>
<text text-anchor="middle" x="785.5" y="-741.5" font-family="Helvetica,sans-Serif" font-size="10.00">xtb_modef::modefollow</text>
</a>
</g>
</g>
<!-- Node14&#45;&gt;Node18 -->
<g id="edge22" class="edge">
<title>Node14&#45;&gt;Node18</title>
<path fill="none" stroke="midnightblue" d="M926.58,-641.31C909.49,-664.09 880.8,-698.41 849,-720 840.15,-726.01 829.59,-730.8 819.69,-734.47"/>
<polygon fill="midnightblue" stroke="midnightblue" points="929.44,-643.32 932.55,-633.19 923.8,-639.18 929.44,-643.32"/>
</g>
<!-- Node19 -->
<g id="node19" class="node">
<title>Node19</title>
<g id="a_node19"><a xlink:href="namespacextb__scan.html#abef8f8d0fa299e9e2caf823f3672f14a" target="_top" xlink:title=" ">
<polygon fill="white" stroke="black" points="569,-691.5 569,-710.5 686,-710.5 686,-691.5 569,-691.5"/>
<text text-anchor="middle" x="627.5" y="-698.5" font-family="Helvetica,sans-Serif" font-size="10.00">xtb_scan::relaxed_scan</text>
</a>
</g>
</g>
<!-- Node14&#45;&gt;Node19 -->
<g id="edge24" class="edge">
<title>Node14&#45;&gt;Node19</title>
<path fill="none" stroke="midnightblue" d="M920.8,-640.08C903.02,-656.23 876.56,-676.99 849,-687 796.18,-706.18 731.6,-707.99 686.02,-706.03"/>
<polygon fill="midnightblue" stroke="midnightblue" points="923.42,-642.42 928.34,-633.04 918.64,-637.31 923.42,-642.42"/>
</g>
<!-- Node14&#45;&gt;Node20 -->
<g id="edge26" class="edge">
<title>Node14&#45;&gt;Node20</title>
<path fill="none" stroke="midnightblue" d="M921.65,-595.28C896.63,-568.84 857.5,-528.13 849,-523 842.69,-519.19 835.55,-516.09 828.42,-513.59"/>
<polygon fill="midnightblue" stroke="midnightblue" points="919.19,-597.78 928.6,-602.64 924.28,-592.97 919.19,-597.78"/>
</g>
<!-- Node21 -->
<g id="node21" class="node">
<title>Node21</title>
<g id="a_node21"><a xlink:href="namespacextb__gfnff__convert.html#adf399b47b9f2a8364327d9d5c38cb2b8" target="_top" xlink:title=" ">
<polygon fill="white" stroke="black" points="738,-647 738,-677 833,-677 833,-647 738,-647"/>
<text text-anchor="start" x="746" y="-665" font-family="Helvetica,sans-Serif" font-size="10.00">xtb_gfnff_convert::</text>
<text text-anchor="middle" x="785.5" y="-654" font-family="Helvetica,sans-Serif" font-size="10.00">struc_convert</text>
</a>
</g>
</g>
<!-- Node14&#45;&gt;Node21 -->
<g id="edge28" class="edge">
<title>Node14&#45;&gt;Node21</title>
<path fill="none" stroke="midnightblue" d="M879.53,-635.84C864.02,-640.21 847.7,-644.79 833.14,-648.89"/>
<polygon fill="midnightblue" stroke="midnightblue" points="880.9,-639.1 889.58,-633.02 879.01,-632.36 880.9,-639.1"/>
</g>
<!-- Node16 -->
<g id="node16" class="node">
<title>Node16</title>
<g id="a_node16"><a xlink:href="namespacextb__kopt.html#aed50b40106367857ab2d0bf3a109f62b" target="_top" xlink:title=" ">
<polygon fill="white" stroke="black" points="580,-570.5 580,-589.5 675,-589.5 675,-570.5 580,-570.5"/>
<text text-anchor="middle" x="627.5" y="-577.5" font-family="Helvetica,sans-Serif" font-size="10.00">xtb_kopt::get_kopt</text>
</a>
</g>
</g>
<!-- Node15&#45;&gt;Node16 -->
<g id="edge18" class="edge">
<title>Node15&#45;&gt;Node16</title>
<path fill="none" stroke="midnightblue" d="M726.13,-580C709.28,-580 691.12,-580 675.08,-580"/>
<polygon fill="midnightblue" stroke="midnightblue" points="726.42,-583.5 736.42,-580 726.42,-576.5 726.42,-583.5"/>
</g>
<!-- Node16&#45;&gt;Node3 -->
<g id="edge19" class="edge">
<title>Node16&#45;&gt;Node3</title>
<path fill="none" stroke="midnightblue" d="M591.81,-593.44C584.19,-596.68 576.24,-600.28 569,-604 539.48,-619.15 506.93,-640.31 488.93,-652.44"/>
<polygon fill="midnightblue" stroke="midnightblue" points="593.3,-596.61 601.2,-589.56 590.63,-590.14 593.3,-596.61"/>
</g>
<!-- Node17&#45;&gt;Node3 -->
<g id="edge21" class="edge">
<title>Node17&#45;&gt;Node3</title>
<path fill="none" stroke="midnightblue" d="M723.25,-536.03C678.33,-534.28 617.05,-537.51 569,-561 526.17,-581.93 493.13,-631.35 480.54,-652.32"/>
<polygon fill="midnightblue" stroke="midnightblue" points="723.28,-539.54 733.43,-536.52 723.61,-532.54 723.28,-539.54"/>
</g>
<!-- Node18&#45;&gt;Node3 -->
<g id="edge23" class="edge">
<title>Node18&#45;&gt;Node3</title>
<path fill="none" stroke="midnightblue" d="M717.05,-744.05C673.7,-742.26 616.78,-736.46 569,-720 536.55,-708.82 503.52,-684.92 486.59,-671.55"/>
<polygon fill="midnightblue" stroke="midnightblue" points="717.08,-747.55 727.2,-744.41 717.32,-740.56 717.08,-747.55"/>
</g>
<!-- Node19&#45;&gt;Node3 -->
<g id="edge25" class="edge">
<title>Node19&#45;&gt;Node3</title>
<path fill="none" stroke="midnightblue" d="M579.72,-688.96C557.92,-683.35 532.36,-676.76 511.94,-671.51"/>
<polygon fill="midnightblue" stroke="midnightblue" points="578.88,-692.36 589.44,-691.46 580.63,-685.58 578.88,-692.36"/>
</g>
<!-- Node20&#45;&gt;Node3 -->
<g id="edge27" class="edge">
<title>Node20&#45;&gt;Node3</title>
<path fill="none" stroke="midnightblue" d="M720.18,-499.4C674.91,-499.11 614.51,-504.91 569,-532 519.7,-561.35 488.88,-627.64 478.71,-652.42"/>
<polygon fill="midnightblue" stroke="midnightblue" points="720.13,-502.9 730.18,-499.56 720.24,-495.9 720.13,-502.9"/>
</g>
<!-- Node21&#45;&gt;Node3 -->
<g id="edge29" class="edge">
<title>Node21&#45;&gt;Node3</title>
<path fill="none" stroke="midnightblue" d="M727.51,-662C672.25,-662 588.81,-662 533.15,-662"/>
<polygon fill="midnightblue" stroke="midnightblue" points="727.83,-665.5 737.83,-662 727.83,-658.5 727.83,-665.5"/>
</g>
<!-- Node22&#45;&gt;Node23 -->
<g id="edge32" class="edge">
<title>Node22&#45;&gt;Node23</title>
<path fill="none" stroke="midnightblue" d="M721.83,-164.01C704.08,-164.58 685.23,-165.18 669.15,-165.7"/>
<polygon fill="midnightblue" stroke="midnightblue" points="722.24,-167.5 732.12,-163.68 722.01,-160.5 722.24,-167.5"/>
</g>
<!-- Node22&#45;&gt;Node24 -->
<g id="edge34" class="edge">
<title>Node22&#45;&gt;Node24</title>
<path fill="none" stroke="midnightblue" d="M749.74,-175.21C740.69,-178.69 730.97,-182.46 722,-186 698.05,-195.47 670.77,-206.59 651.89,-214.35"/>
<polygon fill="midnightblue" stroke="midnightblue" points="751.13,-178.43 759.22,-171.58 748.63,-171.89 751.13,-178.43"/>
</g>
<!-- Node23&#45;&gt;Node10 -->
<g id="edge33" class="edge">
<title>Node23&#45;&gt;Node10</title>
<path fill="none" stroke="midnightblue" d="M575.86,-167C557.32,-167 536.51,-167 518.63,-167"/>
<polygon fill="midnightblue" stroke="midnightblue" points="575.9,-170.5 585.9,-167 575.9,-163.5 575.9,-170.5"/>
</g>
<!-- Node24&#45;&gt;Node11 -->
<g id="edge35" class="edge">
<title>Node24&#45;&gt;Node11</title>
<path fill="none" stroke="midnightblue" d="M569.65,-224C554.69,-224 538.68,-224 524.16,-224"/>
<polygon fill="midnightblue" stroke="midnightblue" points="569.81,-227.5 579.81,-224 569.81,-220.5 569.81,-227.5"/>
</g>
<!-- Node25&#45;&gt;Node5 -->
<g id="edge37" class="edge">
<title>Node25&#45;&gt;Node5</title>
<path fill="none" stroke="midnightblue" d="M583.08,-385C560.1,-385 532.23,-385 510.55,-385"/>
<polygon fill="midnightblue" stroke="midnightblue" points="583.25,-388.5 593.25,-385 583.25,-381.5 583.25,-388.5"/>
</g>
<!-- Node26&#45;&gt;Node12 -->
<g id="edge41" class="edge">
<title>Node26&#45;&gt;Node12</title>
<path fill="none" stroke="midnightblue" d="M887.53,-466C868.19,-466 846.81,-466 828.71,-466"/>
<polygon fill="midnightblue" stroke="midnightblue" points="887.73,-469.5 897.73,-466 887.73,-462.5 887.73,-469.5"/>
</g>
<!-- Node27&#45;&gt;Node14 -->
<g id="edge43" class="edge">
<title>Node27&#45;&gt;Node14</title>
<path fill="none" stroke="midnightblue" d="M1028.69,-599.9C1018.54,-602.1 1008.14,-604.35 998.27,-606.48"/>
<polygon fill="midnightblue" stroke="midnightblue" points="1029.7,-603.27 1038.73,-597.73 1028.22,-596.43 1029.7,-603.27"/>
</g>
<!-- Node28&#45;&gt;Node3 -->
<g id="edge45" class="edge">
<title>Node28&#45;&gt;Node3</title>
<path fill="none" stroke="midnightblue" d="M877.15,-816.03C798.96,-823.58 666.86,-826.09 569,-775 523.3,-751.14 491.2,-694.58 479.68,-671.78"/>
<polygon fill="midnightblue" stroke="midnightblue" points="877.75,-819.49 887.35,-814.99 877.04,-812.52 877.75,-819.49"/>
</g>
<!-- Node29&#45;&gt;Node23 -->
<g id="edge48" class="edge">
<title>Node29&#45;&gt;Node23</title>
<path fill="none" stroke="midnightblue" d="M1050.44,-339.23C1046.44,-337.38 1042.56,-335.31 1039,-333 1019.48,-320.34 1022.58,-307.57 1003,-295 893.44,-224.64 740.87,-188.31 669,-174.18"/>
<polygon fill="midnightblue" stroke="midnightblue" points="1049.27,-342.53 1059.85,-343.13 1051.95,-336.06 1049.27,-342.53"/>
</g>
<!-- Node29&#45;&gt;Node25 -->
<g id="edge47" class="edge">
<title>Node29&#45;&gt;Node25</title>
<path fill="none" stroke="midnightblue" d="M1049.89,-354.35C980.69,-358.22 840.57,-366.46 722,-376 702.01,-377.61 679.64,-379.75 661.8,-381.54"/>
<polygon fill="midnightblue" stroke="midnightblue" points="1050.18,-357.84 1059.97,-353.79 1049.79,-350.85 1050.18,-357.84"/>
</g>
<!-- Node29&#45;&gt;Node26 -->
<g id="edge49" class="edge">
<title>Node29&#45;&gt;Node26</title>
<path fill="none" stroke="midnightblue" d="M1072.65,-367.68C1041.59,-391.6 983.28,-436.51 957.64,-456.26"/>
<polygon fill="midnightblue" stroke="midnightblue" points="1074.85,-370.4 1080.64,-361.52 1070.58,-364.85 1074.85,-370.4"/>
</g>
<!-- Node30&#45;&gt;Node24 -->
<g id="edge64" class="edge">
<title>Node30&#45;&gt;Node24</title>
<path fill="none" stroke="midnightblue" d="M1038.53,-302.31C1026.82,-299.85 1014.51,-297.3 1003,-295 885.23,-271.41 746.21,-245.58 675.27,-232.55"/>
<polygon fill="midnightblue" stroke="midnightblue" points="1038.13,-305.8 1048.63,-304.44 1039.57,-298.95 1038.13,-305.8"/>
</g>
<!-- Node31 -->
<g id="node31" class="node">
<title>Node31</title>
<g id="a_node31"><a xlink:href="symmetry__i_8c.html#a401172a43970238f56e75a2bd25bf3a5" target="_top" xlink:title=" ">
<polygon fill="white" stroke="black" points="886,-304.5 886,-323.5 1002,-323.5 1002,-304.5 886,-304.5"/>
<text text-anchor="middle" x="944" y="-311.5" font-family="Helvetica,sans-Serif" font-size="10.00">check_transform_order</text>
</a>
</g>
</g>
<!-- Node30&#45;&gt;Node31 -->
<g id="edge51" class="edge">
<title>Node30&#45;&gt;Node31</title>
<path fill="none" stroke="midnightblue" d="M1033.49,-314C1023.11,-314 1012.32,-314 1002,-314"/>
<polygon fill="midnightblue" stroke="midnightblue" points="1033.72,-317.5 1043.72,-314 1033.72,-310.5 1033.72,-317.5"/>
</g>
<!-- Node32 -->
<g id="node32" class="node">
<title>Node32</title>
<g id="a_node32"><a xlink:href="symmetry__i_8c.html#aff39b1566e9d87c46184c58d49b46ab4" target="_top" xlink:title=" ">
<polygon fill="white" stroke="black" points="722,-304.5 722,-323.5 849,-323.5 849,-304.5 722,-304.5"/>
<text text-anchor="middle" x="785.5" y="-311.5" font-family="Helvetica,sans-Serif" font-size="10.00">refine_symmetry_element</text>
</a>
</g>
</g>
<!-- Node31&#45;&gt;Node32 -->
<g id="edge52" class="edge">
<title>Node31&#45;&gt;Node32</title>
<path fill="none" stroke="midnightblue" d="M875.47,-314C866.73,-314 857.81,-314 849.15,-314"/>
<polygon fill="midnightblue" stroke="midnightblue" points="875.61,-317.5 885.61,-314 875.61,-310.5 875.61,-317.5"/>
</g>
<!-- Node32&#45;&gt;Node23 -->
<g id="edge54" class="edge">
<title>Node32&#45;&gt;Node23</title>
<path fill="none" stroke="midnightblue" d="M766.55,-297.45C753.69,-285.29 736.21,-268.15 722,-252 704.62,-232.24 705.24,-222.95 686,-205 673.92,-193.74 658.16,-183.58 646.19,-176.6"/>
<polygon fill="midnightblue" stroke="midnightblue" points="764.2,-300.04 773.89,-304.31 768.98,-294.93 764.2,-300.04"/>
</g>
<!-- Node32&#45;&gt;Node24 -->
<g id="edge55" class="edge">
<title>Node32&#45;&gt;Node24</title>
<path fill="none" stroke="midnightblue" d="M741.95,-300.62C735.02,-297.62 728.11,-294.09 722,-290 702.66,-277.07 704.76,-265.76 686,-252 675.88,-244.58 663.49,-238.25 652.81,-233.5"/>
<polygon fill="midnightblue" stroke="midnightblue" points="740.77,-303.92 751.36,-304.39 743.38,-297.42 740.77,-303.92"/>
</g>
<!-- Node32&#45;&gt;Node25 -->
<g id="edge53" class="edge">
<title>Node32&#45;&gt;Node25</title>
<path fill="none" stroke="midnightblue" d="M745.05,-327.12C737.22,-330.28 729.2,-333.94 722,-338 704.35,-347.96 703.88,-356.46 686,-366 678.39,-370.06 669.76,-373.47 661.54,-376.22"/>
<polygon fill="midnightblue" stroke="midnightblue" points="746.36,-330.36 754.44,-323.51 743.85,-323.83 746.36,-330.36"/>
</g>
<!-- Node33 -->
<g id="node33" class="node">
<title>Node33</title>
<g id="a_node33"><a xlink:href="symmetry__i_8c.html#a26bc67027c2e60cc5dbbf0cdcc2837be" target="_top" xlink:title=" ">
<polygon fill="white" stroke="black" points="574.5,-261.5 574.5,-280.5 680.5,-280.5 680.5,-261.5 574.5,-261.5"/>
<text text-anchor="middle" x="627.5" y="-268.5" font-family="Helvetica,sans-Serif" font-size="10.00">init_inversion_center</text>
</a>
</g>
</g>
<!-- Node32&#45;&gt;Node33 -->
<g id="edge56" class="edge">
<title>Node32&#45;&gt;Node33</title>
<path fill="none" stroke="midnightblue" d="M740.11,-301.76C715.65,-295.02 685.73,-286.77 663.02,-280.52"/>
<polygon fill="midnightblue" stroke="midnightblue" points="739.31,-305.17 749.88,-304.46 741.17,-298.43 739.31,-305.17"/>
</g>
<!-- Node35 -->
<g id="node35" class="node">
<title>Node35</title>
<g id="a_node35"><a xlink:href="symmetry__i_8c.html#a28a580c316f874592fa976504885670c" target="_top" xlink:title=" ">
<polygon fill="white" stroke="black" points="583.5,-299.5 583.5,-318.5 671.5,-318.5 671.5,-299.5 583.5,-299.5"/>
<text text-anchor="middle" x="627.5" y="-306.5" font-family="Helvetica,sans-Serif" font-size="10.00">init_mirror_plane</text>
</a>
</g>
</g>
<!-- Node32&#45;&gt;Node35 -->
<g id="edge59" class="edge">
<title>Node32&#45;&gt;Node35</title>
<path fill="none" stroke="midnightblue" d="M711.62,-311.66C698.04,-311.23 684.24,-310.79 671.89,-310.39"/>
<polygon fill="midnightblue" stroke="midnightblue" points="711.84,-315.17 721.95,-312 712.06,-308.18 711.84,-315.17"/>
</g>
<!-- Node37 -->
<g id="node37" class="node">
<title>Node37</title>
<g id="a_node37"><a xlink:href="symmetry__i_8c.html#a6c28e9e49e1179d0bc2ded3d008b6499" target="_top" xlink:title=" ">
<polygon fill="white" stroke="black" points="578.5,-337.5 578.5,-356.5 676.5,-356.5 676.5,-337.5 578.5,-337.5"/>
<text text-anchor="middle" x="627.5" y="-344.5" font-family="Helvetica,sans-Serif" font-size="10.00">init_ultimate_plane</text>
</a>
</g>
</g>
<!-- Node32&#45;&gt;Node37 -->
<g id="edge62" class="edge">
<title>Node32&#45;&gt;Node37</title>
<path fill="none" stroke="midnightblue" d="M729.43,-325.65C711.13,-329.52 690.97,-333.78 673.52,-337.48"/>
<polygon fill="midnightblue" stroke="midnightblue" points="730.32,-329.04 739.38,-323.54 728.87,-322.19 730.32,-329.04"/>
</g>
<!-- Node34 -->
<g id="node34" class="node">
<title>Node34</title>
<g id="a_node34"><a xlink:href="symmetry__i_8c.html#a33142755e78f0ec77c8b931e270e0ef5" target="_top" xlink:title=" ">
<polygon fill="white" stroke="black" points="417.5,-261.5 417.5,-280.5 530.5,-280.5 530.5,-261.5 417.5,-261.5"/>
<text text-anchor="middle" x="474" y="-268.5" font-family="Helvetica,sans-Serif" font-size="10.00">find_inversion_centers</text>
</a>
</g>
</g>
<!-- Node33&#45;&gt;Node34 -->
<g id="edge57" class="edge">
<title>Node33&#45;&gt;Node34</title>
<path fill="none" stroke="midnightblue" d="M564.26,-271C553.11,-271 541.55,-271 530.59,-271"/>
<polygon fill="midnightblue" stroke="midnightblue" points="564.36,-274.5 574.36,-271 564.36,-267.5 564.36,-274.5"/>
</g>
<!-- Node34&#45;&gt;Node6 -->
<g id="edge58" class="edge">
<title>Node34&#45;&gt;Node6</title>
<path fill="none" stroke="midnightblue" d="M407.43,-279.04C398.06,-280.19 388.46,-281.36 379.18,-282.5"/>
<polygon fill="midnightblue" stroke="midnightblue" points="407.98,-282.5 417.48,-277.81 407.13,-275.55 407.98,-282.5"/>
</g>
<!-- Node36 -->
<g id="node36" class="node">
<title>Node36</title>
<g id="a_node36"><a xlink:href="symmetry__i_8c.html#adc43fe3d7619599e2aa3405466fc99d8" target="_top" xlink:title=" ">
<polygon fill="white" stroke="black" points="441.5,-299.5 441.5,-318.5 506.5,-318.5 506.5,-299.5 441.5,-299.5"/>
<text text-anchor="middle" x="474" y="-306.5" font-family="Helvetica,sans-Serif" font-size="10.00">find_planes</text>
</a>
</g>
</g>
<!-- Node35&#45;&gt;Node36 -->
<g id="edge60" class="edge">
<title>Node35&#45;&gt;Node36</title>
<path fill="none" stroke="midnightblue" d="M573.46,-309C551.13,-309 525.89,-309 506.55,-309"/>
<polygon fill="midnightblue" stroke="midnightblue" points="573.49,-312.5 583.49,-309 573.49,-305.5 573.49,-312.5"/>
</g>
<!-- Node36&#45;&gt;Node6 -->
<g id="edge61" class="edge">
<title>Node36&#45;&gt;Node6</title>
<path fill="none" stroke="midnightblue" d="M431.16,-303.87C415.17,-301.91 396.59,-299.63 379.16,-297.5"/>
<polygon fill="midnightblue" stroke="midnightblue" points="430.91,-307.37 441.26,-305.11 431.76,-300.42 430.91,-307.37"/>
</g>
<!-- Node37&#45;&gt;Node36 -->
<g id="edge63" class="edge">
<title>Node37&#45;&gt;Node36</title>
<path fill="none" stroke="midnightblue" d="M578.49,-334.96C554.99,-329.06 527.37,-322.14 506.57,-316.92"/>
<polygon fill="midnightblue" stroke="midnightblue" points="577.72,-338.37 588.27,-337.41 579.42,-331.58 577.72,-338.37"/>
</g>
<!-- Node39 -->
<g id="node39" class="node">
<title>Node39</title>
<g id="a_node39"><a xlink:href="tests__peeq_8f90.html#a87ff5319e0d2e627a4f71d7df0d14891" target="_top" xlink:title=" ">
<polygon fill="white" stroke="black" points="910,-0.5 910,-19.5 978,-19.5 978,-0.5 910,-0.5"/>
<text text-anchor="middle" x="944" y="-7.5" font-family="Helvetica,sans-Serif" font-size="10.00">peeq_tester</text>
</a>
</g>
</g>
<!-- Node38&#45;&gt;Node39 -->
<g id="edge67" class="edge">
<title>Node38&#45;&gt;Node39</title>
<path fill="none" stroke="midnightblue" d="M1055.76,-10C1031.9,-10 1001.21,-10 978.19,-10"/>
<polygon fill="midnightblue" stroke="midnightblue" points="1055.85,-13.5 1065.85,-10 1055.85,-6.5 1055.85,-13.5"/>
</g>
</g>
</svg>
