<?xml version="1.0" encoding="UTF-8" standalone="no"?>
<!DOCTYPE svg PUBLIC "-//W3C//DTD SVG 1.1//EN"
 "http://www.w3.org/Graphics/SVG/1.1/DTD/svg11.dtd">
<!-- Generated by graphviz version 2.46.1 (20210215.1649)
 -->
<!-- Title: xtb_peeq::pbc_build_dsh0 Pages: 1 -->
<!--zoomable 192 -->
<svg id="main" version="1.1" xmlns="http://www.w3.org/2000/svg" xmlns:xlink="http://www.w3.org/1999/xlink" xml:space="preserve" onload="init(evt)">
<style type="text/css"><![CDATA[
.edge:hover path { stroke: red; }
.edge:hover polygon { stroke: red; fill: red; }
]]></style>
<script type="text/javascript"><![CDATA[
var edges = document.getElementsByTagName('g');
if (edges && edges.length) {
  for (var i=0;i<edges.length;i++) {
    if (edges[i].id.substr(0,4)=='edge') {
      edges[i].setAttribute('class','edge');
    }
  }
}
]]></script>
        <defs>
                <circle id="rim" cx="0" cy="0" r="7"/>
                <circle id="rim2" cx="0" cy="0" r="3.5"/>
                <g id="zoomPlus">
                        <use xlink:href="#rim" fill="#404040">
                                <set attributeName="fill" to="#808080" begin="zoomplus.mouseover" end="zoomplus.mouseout"/>
                        </use>
                        <path d="M-4,0h8M0,-4v8" fill="none" stroke="white" stroke-width="1.5" pointer-events="none"/>
                </g>
                <g id="zoomMin">
                        <use xlink:href="#rim" fill="#404040">
                                <set attributeName="fill" to="#808080" begin="zoomminus.mouseover" end="zoomminus.mouseout"/>
                        </use>
                        <path d="M-4,0h8" fill="none" stroke="white" stroke-width="1.5" pointer-events="none"/>
                </g>
                <g id="dirArrow">
                        <path fill="none" stroke="white" stroke-width="1.5" d="M0,-3.0v7 M-2.5,-0.5L0,-3.0L2.5,-0.5"/>
                </g>
               <g id="resetDef">
                       <use xlink:href="#rim2" fill="#404040">
                               <set attributeName="fill" to="#808080" begin="reset.mouseover" end="reset.mouseout"/>
                       </use>
               </g>
        </defs>

<script type="text/javascript">
var viewWidth = 568;
var viewHeight = 192;
var sectionId = 'dynsection-14';
</script>
<script xlink:href="svgpan.js"/>
<svg id="graph" class="graph">
<g id="viewport">
<title>xtb_peeq::pbc_build_dsh0</title>
<polygon fill="white" stroke="transparent" points="-4,4 -4,-187.5 564,-187.5 564,4 -4,4"/>
<!-- Node1 -->
<g id="node1" class="node">
<title>Node1</title>
<g id="a_node1"><a xlink:title=" ">
<polygon fill="#bfbfbf" stroke="black" points="0,-120.5 0,-139.5 128,-139.5 128,-120.5 0,-120.5"/>
<text text-anchor="middle" x="64" y="-127.5" font-family="Helvetica,sans-Serif" font-size="10.00">xtb_peeq::pbc_build_dsh0</text>
</a>
</g>
</g>
<!-- Node2 -->
<g id="node2" class="node">
<title>Node2</title>
<g id="a_node2"><a xlink:href="namespacextb__grad__core.html#afcd07cdba5580e023801c661c0dda52d" target="_top" xlink:title=" ">
<polygon fill="white" stroke="black" points="164,-158.5 164,-177.5 289,-177.5 289,-158.5 164,-158.5"/>
<text text-anchor="middle" x="226.5" y="-165.5" font-family="Helvetica,sans-Serif" font-size="10.00">xtb_grad_core::dshellpoly</text>
</a>
</g>
</g>
<!-- Node1&#45;&gt;Node2 -->
<g id="edge1" class="edge">
<title>Node1&#45;&gt;Node2</title>
<path fill="none" stroke="midnightblue" d="M105.5,-139.59C126.68,-144.6 152.8,-150.79 175.26,-156.11"/>
<polygon fill="midnightblue" stroke="midnightblue" points="174.75,-159.58 185.29,-158.48 176.37,-152.77 174.75,-159.58"/>
</g>
<!-- Node3 -->
<g id="node3" class="node">
<title>Node3</title>
<g id="a_node3"><a xlink:href="namespacextb__intgrad.html#a3123173ad7d8c3991074f793fdc9c593" target="_top" xlink:title=" ">
<polygon fill="white" stroke="black" points="182.5,-120.5 182.5,-139.5 270.5,-139.5 270.5,-120.5 182.5,-120.5"/>
<text text-anchor="middle" x="226.5" y="-127.5" font-family="Helvetica,sans-Serif" font-size="10.00">xtb_intgrad::dtrf2</text>
</a>
</g>
</g>
<!-- Node1&#45;&gt;Node3 -->
<g id="edge2" class="edge">
<title>Node1&#45;&gt;Node3</title>
<path fill="none" stroke="midnightblue" d="M128.43,-130C142.82,-130 157.96,-130 171.89,-130"/>
<polygon fill="midnightblue" stroke="midnightblue" points="172.27,-133.5 182.27,-130 172.27,-126.5 172.27,-133.5"/>
</g>
<!-- Node4 -->
<g id="node4" class="node">
<title>Node4</title>
<g id="a_node4"><a xlink:href="namespacextb__peeq.html#a0fcfc4df44aaa9a0446dca518f96cf59" target="_top" xlink:title=" ">
<polygon fill="white" stroke="black" points="177.5,-71 177.5,-101 275.5,-101 275.5,-71 177.5,-71"/>
<text text-anchor="start" x="185.5" y="-89" font-family="Helvetica,sans-Serif" font-size="10.00">xtb_peeq::get_grad</text>
<text text-anchor="middle" x="226.5" y="-78" font-family="Helvetica,sans-Serif" font-size="10.00">_overlap</text>
</a>
</g>
</g>
<!-- Node1&#45;&gt;Node4 -->
<g id="edge3" class="edge">
<title>Node1&#45;&gt;Node4</title>
<path fill="none" stroke="midnightblue" d="M99.83,-120.45C119.58,-115.04 144.82,-108.12 167.48,-101.91"/>
<polygon fill="midnightblue" stroke="midnightblue" points="168.63,-105.22 177.35,-99.2 166.78,-98.47 168.63,-105.22"/>
</g>
<!-- Node5 -->
<g id="node5" class="node">
<title>Node5</title>
<g id="a_node5"><a xlink:href="namespacextb__intgrad.html#ae34171826fede48284f04beb036fb2bd" target="_top" xlink:title=" ">
<polygon fill="white" stroke="black" points="325,-71 325,-101 414,-101 414,-71 325,-71"/>
<text text-anchor="start" x="333" y="-89" font-family="Helvetica,sans-Serif" font-size="10.00">xtb_intgrad::build</text>
<text text-anchor="middle" x="369.5" y="-78" font-family="Helvetica,sans-Serif" font-size="10.00">_ds_ints</text>
</a>
</g>
</g>
<!-- Node4&#45;&gt;Node5 -->
<g id="edge4" class="edge">
<title>Node4&#45;&gt;Node5</title>
<path fill="none" stroke="midnightblue" d="M275.63,-86C288.22,-86 301.87,-86 314.73,-86"/>
<polygon fill="midnightblue" stroke="midnightblue" points="314.85,-89.5 324.85,-86 314.85,-82.5 314.85,-89.5"/>
</g>
<!-- Node6 -->
<g id="node6" class="node">
<title>Node6</title>
<g id="a_node6"><a xlink:href="namespacextb__intgrad.html#a5bc6f86d12b5b4734f597a88800d8330" target="_top" xlink:title=" ">
<polygon fill="white" stroke="black" points="460.5,-153 460.5,-183 549.5,-183 549.5,-153 460.5,-153"/>
<text text-anchor="start" x="468.5" y="-171" font-family="Helvetica,sans-Serif" font-size="10.00">xtb_intgrad::build</text>
<text text-anchor="middle" x="505" y="-160" font-family="Helvetica,sans-Serif" font-size="10.00">_hshift2</text>
</a>
</g>
</g>
<!-- Node5&#45;&gt;Node6 -->
<g id="edge5" class="edge">
<title>Node5&#45;&gt;Node6</title>
<path fill="none" stroke="midnightblue" d="M389.42,-101.12C405.11,-113.27 428.29,-130.34 450,-143 453.18,-144.85 456.51,-146.67 459.91,-148.43"/>
<polygon fill="midnightblue" stroke="midnightblue" points="458.43,-151.61 468.94,-152.94 461.55,-145.34 458.43,-151.61"/>
</g>
<!-- Node7 -->
<g id="node7" class="node">
<title>Node7</title>
<g id="a_node7"><a xlink:href="namespacextb__intgrad.html#a1f9cf61176ecca277a73a81137c39a39" target="_top" xlink:title=" ">
<polygon fill="white" stroke="black" points="450,-114.5 450,-133.5 560,-133.5 560,-114.5 450,-114.5"/>
<text text-anchor="middle" x="505" y="-121.5" font-family="Helvetica,sans-Serif" font-size="10.00">xtb_intgrad::build_kab</text>
</a>
</g>
</g>
<!-- Node5&#45;&gt;Node7 -->
<g id="edge6" class="edge">
<title>Node5&#45;&gt;Node7</title>
<path fill="none" stroke="midnightblue" d="M414.21,-98.44C429.04,-102.66 445.6,-107.38 460.42,-111.59"/>
<polygon fill="midnightblue" stroke="midnightblue" points="459.78,-115.05 470.36,-114.42 461.7,-108.32 459.78,-115.05"/>
</g>
<!-- Node8 -->
<g id="node8" class="node">
<title>Node8</title>
<g id="a_node8"><a xlink:href="namespacextb__intgrad.html#a49b854bf505ac013ac50d12edb2e0de5" target="_top" xlink:title="returns center of product Gaussian from two Gaussians by GPT">
<polygon fill="white" stroke="black" points="452,-76.5 452,-95.5 558,-95.5 558,-76.5 452,-76.5"/>
<text text-anchor="middle" x="505" y="-83.5" font-family="Helvetica,sans-Serif" font-size="10.00">xtb_intgrad::gpcenter</text>
</a>
</g>
</g>
<!-- Node5&#45;&gt;Node8 -->
<g id="edge7" class="edge">
<title>Node5&#45;&gt;Node8</title>
<path fill="none" stroke="midnightblue" d="M414.21,-86C423.04,-86 432.47,-86 441.79,-86"/>
<polygon fill="midnightblue" stroke="midnightblue" points="441.82,-89.5 451.82,-86 441.82,-82.5 441.82,-89.5"/>
</g>
<!-- Node9 -->
<g id="node9" class="node">
<title>Node9</title>
<g id="a_node9"><a xlink:href="namespacextb__intgrad.html#a61582fac6cd8cc05eb76d4ced531ef6e" target="_top" xlink:title="calculates a partial overlap in one cartesian direction">
<polygon fill="white" stroke="black" points="459,-38.5 459,-57.5 551,-57.5 551,-38.5 459,-38.5"/>
<text text-anchor="middle" x="505" y="-45.5" font-family="Helvetica,sans-Serif" font-size="10.00">xtb_intgrad::olapp</text>
</a>
</g>
</g>
<!-- Node5&#45;&gt;Node9 -->
<g id="edge8" class="edge">
<title>Node5&#45;&gt;Node9</title>
<path fill="none" stroke="midnightblue" d="M414.21,-73.56C429.04,-69.34 445.6,-64.62 460.42,-60.41"/>
<polygon fill="midnightblue" stroke="midnightblue" points="461.7,-63.68 470.36,-57.58 459.78,-56.95 461.7,-63.68"/>
</g>
<!-- Node10 -->
<g id="node10" class="node">
<title>Node10</title>
<g id="a_node10"><a xlink:href="namespacextb__intgrad.html#a040b47e4b45c55028569fcad9704172a" target="_top" xlink:title=" ">
<polygon fill="white" stroke="black" points="459,-0.5 459,-19.5 551,-19.5 551,-0.5 459,-0.5"/>
<text text-anchor="middle" x="505" y="-7.5" font-family="Helvetica,sans-Serif" font-size="10.00">xtb_intgrad::prod3</text>
</a>
</g>
</g>
<!-- Node5&#45;&gt;Node10 -->
<g id="edge9" class="edge">
<title>Node5&#45;&gt;Node10</title>
<path fill="none" stroke="midnightblue" d="M388.48,-70.83C404,-58.31 427.41,-40.77 450,-29 453.97,-26.93 458.22,-25 462.53,-23.22"/>
<polygon fill="midnightblue" stroke="midnightblue" points="463.88,-26.45 471.96,-19.59 461.37,-19.92 463.88,-26.45"/>
</g>
</g>
</svg>
        <g id="navigator" transform="translate(0 0)" fill="#404254">
                <rect fill="#f2f5e9" fill-opacity="0.5" stroke="#606060" stroke-width=".5" x="0" y="0" width="60" height="60"/>
                <use id="zoomplus" xlink:href="#zoomPlus" x="17" y="9" onmousedown="handleZoom(evt,'in')"/>
                <use id="zoomminus" xlink:href="#zoomMin" x="42" y="9" onmousedown="handleZoom(evt,'out')"/>
                <use id="reset" xlink:href="#resetDef" x="30" y="36" onmousedown="handleReset()"/>
                <g id="arrowUp" xlink:href="#dirArrow" transform="translate(30 24)" onmousedown="handlePan(0,-1)">
                  <use xlink:href="#rim" fill="#404040">
                        <set attributeName="fill" to="#808080" begin="arrowUp.mouseover" end="arrowUp.mouseout"/>
                  </use>
                  <path fill="none" stroke="white" stroke-width="1.5" d="M0,-3.0v7 M-2.5,-0.5L0,-3.0L2.5,-0.5"/>
                </g>
                <g id="arrowRight" xlink:href="#dirArrow" transform="rotate(90) translate(36 -43)" onmousedown="handlePan(1,0)">
                  <use xlink:href="#rim" fill="#404040">
                        <set attributeName="fill" to="#808080" begin="arrowRight.mouseover" end="arrowRight.mouseout"/>
                  </use>
                  <path fill="none" stroke="white" stroke-width="1.5" d="M0,-3.0v7 M-2.5,-0.5L0,-3.0L2.5,-0.5"/>
                </g>
                <g id="arrowDown" xlink:href="#dirArrow" transform="rotate(180) translate(-30 -48)" onmousedown="handlePan(0,1)">
                  <use xlink:href="#rim" fill="#404040">
                        <set attributeName="fill" to="#808080" begin="arrowDown.mouseover" end="arrowDown.mouseout"/>
                  </use>
                  <path fill="none" stroke="white" stroke-width="1.5" d="M0,-3.0v7 M-2.5,-0.5L0,-3.0L2.5,-0.5"/>
                </g>
                <g id="arrowLeft" xlink:href="#dirArrow" transform="rotate(270) translate(-36 17)" onmousedown="handlePan(-1,0)">
                  <use xlink:href="#rim" fill="#404040">
                        <set attributeName="fill" to="#808080" begin="arrowLeft.mouseover" end="arrowLeft.mouseout"/>
                  </use>
                  <path fill="none" stroke="white" stroke-width="1.5" d="M0,-3.0v7 M-2.5,-0.5L0,-3.0L2.5,-0.5"/>
                </g>
        </g>
        <svg viewBox="0 0 15 15" width="100%" height="30px" preserveAspectRatio="xMaxYMin meet">
         <g id="arrow_out" transform="scale(0.3 0.3)">
          <a xlink:href="namespacextb__peeq_a101bc81468c2cd4ddd3221efaa59b142_cgraph_org.svg" target="_base">
           <rect id="button" ry="5" rx="5" y="6" x="6" height="38" width="38"
                fill="#f2f5e9" fill-opacity="0.5" stroke="#606060" stroke-width="1.0"/>
           <path id="arrow"
             d="M 11.500037,31.436501 C 11.940474,20.09759 22.043105,11.32322 32.158766,21.979434 L 37.068811,17.246167 C 37.068811,17.246167 37.088388,32 37.088388,32 L 22.160133,31.978069 C 22.160133,31.978069 26.997745,27.140456 26.997745,27.140456 C 18.528582,18.264221 13.291696,25.230495 11.500037,31.436501 z"
             style="fill:#404040;"/>
          </a>
         </g>
        </svg>
</svg>
