<?xml version="1.0" encoding="UTF-8" standalone="no"?>
<!DOCTYPE svg PUBLIC "-//W3C//DTD SVG 1.1//EN"
 "http://www.w3.org/Graphics/SVG/1.1/DTD/svg11.dtd">
<!-- Generated by graphviz version 2.46.0 (20210122.1329)
 -->
<!-- Title: xtb_api_environment::releaseoutput_api Pages: 1 -->
<svg width="256pt" height="88pt"
 viewBox="0.00 0.00 256.00 88.00" xmlns="http://www.w3.org/2000/svg" xmlns:xlink="http://www.w3.org/1999/xlink">
<g id="graph0" class="graph" transform="scale(1 1) rotate(0) translate(4 84)">
<title>xtb_api_environment::releaseoutput_api</title>
<polygon fill="white" stroke="transparent" points="-4,4 -4,-84 252,-84 252,4 -4,4"/>
<!-- Node1 -->
<g id="node1" class="node">
<title>Node1</title>
<g id="a_node1"><a xlink:title="Release output unit from this environment.">
<polygon fill="#bfbfbf" stroke="black" points="142,-24.5 142,-54.5 248,-54.5 248,-24.5 142,-24.5"/>
<text text-anchor="start" x="150" y="-42.5" font-family="Helvetica,sans-Serif" font-size="10.00">xtb_api_environment</text>
<text text-anchor="middle" x="195" y="-31.5" font-family="Helvetica,sans-Serif" font-size="10.00">::releaseoutput_api</text>
</a>
</g>
</g>
<!-- Node2 -->
<g id="node2" class="node">
<title>Node2</title>
<g id="a_node2"><a xlink:href="namespacextb__api__environment.html#a8efd53ea172711c105e7c11745c96869" target="_top" xlink:title="Delete a xtb calculation environment object.">
<polygon fill="white" stroke="black" points="0,-49.5 0,-79.5 106,-79.5 106,-49.5 0,-49.5"/>
<text text-anchor="start" x="8" y="-67.5" font-family="Helvetica,sans-Serif" font-size="10.00">xtb_api_environment</text>
<text text-anchor="middle" x="53" y="-56.5" font-family="Helvetica,sans-Serif" font-size="10.00">::delenvironment_api</text>
</a>
</g>
</g>
<!-- Node1&#45;&gt;Node2 -->
<g id="edge1" class="edge">
<title>Node1&#45;&gt;Node2</title>
<path fill="none" stroke="midnightblue" d="M131.89,-50.59C123.31,-52.12 114.56,-53.69 106.17,-55.18"/>
<polygon fill="midnightblue" stroke="midnightblue" points="132.64,-54.01 141.87,-48.81 131.41,-47.12 132.64,-54.01"/>
</g>
<!-- Node3 -->
<g id="node3" class="node">
<title>Node3</title>
<g id="a_node3"><a xlink:href="namespacextb__api__environment.html#a9ceff47ae14b410feeeccca873b261c0" target="_top" xlink:title="Bind output from this environment.">
<polygon fill="white" stroke="black" points="0,-0.5 0,-30.5 106,-30.5 106,-0.5 0,-0.5"/>
<text text-anchor="start" x="8" y="-18.5" font-family="Helvetica,sans-Serif" font-size="10.00">xtb_api_environment</text>
<text text-anchor="middle" x="53" y="-7.5" font-family="Helvetica,sans-Serif" font-size="10.00">::setoutput_api</text>
</a>
</g>
</g>
<!-- Node1&#45;&gt;Node3 -->
<g id="edge2" class="edge">
<title>Node1&#45;&gt;Node3</title>
<path fill="none" stroke="midnightblue" d="M131.89,-28.85C123.31,-27.38 114.56,-25.88 106.17,-24.44"/>
<polygon fill="midnightblue" stroke="midnightblue" points="131.42,-32.32 141.87,-30.56 132.6,-25.42 131.42,-32.32"/>
</g>
</g>
</svg>
