<?xml version="1.0" encoding="UTF-8" standalone="no"?>
<!DOCTYPE svg PUBLIC "-//W3C//DTD SVG 1.1//EN"
 "http://www.w3.org/Graphics/SVG/1.1/DTD/svg11.dtd">
<!-- Generated by graphviz version 2.43.0 (0)
 -->
<!-- Title: xtb_cqpath::cqpathtohigher Pages: 1 -->
<!--zoomable 104 -->
<svg id="main" version="1.1" xmlns="http://www.w3.org/2000/svg" xmlns:xlink="http://www.w3.org/1999/xlink" xml:space="preserve" onload="init(evt)">
<style type="text/css"><![CDATA[
.edge:hover path { stroke: red; }
.edge:hover polygon { stroke: red; fill: red; }
]]></style>
<script type="text/javascript"><![CDATA[
var edges = document.getElementsByTagName('g');
if (edges && edges.length) {
  for (var i=0;i<edges.length;i++) {
    if (edges[i].id.substr(0,4)=='edge') {
      edges[i].setAttribute('class','edge');
    }
  }
}
]]></script>
        <defs>
                <circle id="rim" cx="0" cy="0" r="7"/>
                <circle id="rim2" cx="0" cy="0" r="3.5"/>
                <g id="zoomPlus">
                        <use xlink:href="#rim" fill="#404040">
                                <set attributeName="fill" to="#808080" begin="zoomplus.mouseover" end="zoomplus.mouseout"/>
                        </use>
                        <path d="M-4,0h8M0,-4v8" fill="none" stroke="white" stroke-width="1.5" pointer-events="none"/>
                </g>
                <g id="zoomMin">
                        <use xlink:href="#rim" fill="#404040">
                                <set attributeName="fill" to="#808080" begin="zoomminus.mouseover" end="zoomminus.mouseout"/>
                        </use>
                        <path d="M-4,0h8" fill="none" stroke="white" stroke-width="1.5" pointer-events="none"/>
                </g>
                <g id="dirArrow">
                        <path fill="none" stroke="white" stroke-width="1.5" d="M0,-3.0v7 M-2.5,-0.5L0,-3.0L2.5,-0.5"/>
                </g>
               <g id="resetDef">
                       <use xlink:href="#rim2" fill="#404040">
                               <set attributeName="fill" to="#808080" begin="reset.mouseover" end="reset.mouseout"/>
                       </use>
               </g>
        </defs>

<script type="text/javascript">
var viewWidth = 634;
var viewHeight = 104;
var sectionId = 'dynsection-13';
</script>
<script xlink:href="svgpan.js"/>
<svg id="graph" class="graph">
<g id="viewport">
<title>xtb_cqpath::cqpathtohigher</title>
<polygon fill="white" stroke="transparent" points="-4,4 -4,-100 630,-100 630,4 -4,4"/>
<!-- Node1 -->
<g id="node1" class="node">
<title>Node1</title>
<g id="a_node1"><a xlink:title=" ">
<polygon fill="#bfbfbf" stroke="black" points="476,-38.5 476,-57.5 626,-57.5 626,-38.5 476,-38.5"/>
<text text-anchor="middle" x="551" y="-45.5" font-family="Helvetica,sans-Serif" font-size="10.00">xtb_cqpath::cqpathtohigher</text>
</a>
</g>
</g>
<!-- Node2 -->
<g id="node2" class="node">
<title>Node2</title>
<g id="a_node2"><a xlink:href="namespacextb__cqpath.html#a5cc637f5ca3d31fed8bda3d20c2826d9" target="_top" xlink:title=" ">
<polygon fill="white" stroke="black" points="315,-38.5 315,-57.5 440,-57.5 440,-38.5 315,-38.5"/>
<text text-anchor="middle" x="377.5" y="-45.5" font-family="Helvetica,sans-Serif" font-size="10.00">xtb_cqpath::cqpathe2i</text>
</a>
</g>
</g>
<!-- Node1&#45;&gt;Node2 -->
<g id="edge1" class="edge">
<title>Node1&#45;&gt;Node2</title>
<path fill="none" stroke="midnightblue" d="M465.72,-48C457.13,-48 448.52,-48 440.23,-48"/>
<polygon fill="midnightblue" stroke="midnightblue" points="465.78,-51.5 475.78,-48 465.78,-44.5 465.78,-51.5"/>
</g>
<!-- Node3 -->
<g id="node3" class="node">
<title>Node3</title>
<g id="a_node3"><a xlink:href="namespacextb__cqpath.html#abc2c0b809498298f930515d0de373ff0" target="_top" xlink:title=" ">
<polygon fill="white" stroke="black" points="169,-33 169,-63 279,-63 279,-33 169,-33"/>
<text text-anchor="start" x="177" y="-51" font-family="Helvetica,sans-Serif" font-size="10.00">xtb_cqpath::cqpath</text>
<text text-anchor="middle" x="224" y="-40" font-family="Helvetica,sans-Serif" font-size="10.00">_read_pathfile</text>
</a>
</g>
</g>
<!-- Node2&#45;&gt;Node3 -->
<g id="edge2" class="edge">
<title>Node2&#45;&gt;Node3</title>
<path fill="none" stroke="midnightblue" d="M304.84,-48C296.24,-48 287.56,-48 279.27,-48"/>
<polygon fill="midnightblue" stroke="midnightblue" points="304.88,-51.5 314.88,-48 304.88,-44.5 304.88,-51.5"/>
</g>
<!-- Node4 -->
<g id="node4" class="node">
<title>Node4</title>
<g id="a_node4"><a xlink:href="namespacextb__biaspath.html#a17ea22b101e578a3df8d2b58b96811a5" target="_top" xlink:title=" ">
<polygon fill="white" stroke="black" points="0,-76.5 0,-95.5 133,-95.5 133,-76.5 0,-76.5"/>
<text text-anchor="middle" x="66.5" y="-83.5" font-family="Helvetica,sans-Serif" font-size="10.00">xtb_biaspath::bias_path</text>
</a>
</g>
</g>
<!-- Node3&#45;&gt;Node4 -->
<g id="edge3" class="edge">
<title>Node3&#45;&gt;Node4</title>
<path fill="none" stroke="midnightblue" d="M158.86,-63.67C141.07,-68.02 122.3,-72.61 106.43,-76.49"/>
<polygon fill="midnightblue" stroke="midnightblue" points="159.73,-67.06 168.61,-61.29 158.07,-60.26 159.73,-67.06"/>
</g>
<!-- Node5 -->
<g id="node5" class="node">
<title>Node5</title>
<g id="a_node5"><a xlink:href="namespacextb__mdoptim.html#ab0ba2195163cd6794115b99516ba5316" target="_top" xlink:title=" ">
<polygon fill="white" stroke="black" points="7,-38.5 7,-57.5 126,-57.5 126,-38.5 7,-38.5"/>
<text text-anchor="middle" x="66.5" y="-45.5" font-family="Helvetica,sans-Serif" font-size="10.00">xtb_mdoptim::mdopt</text>
</a>
</g>
</g>
<!-- Node3&#45;&gt;Node5 -->
<g id="edge4" class="edge">
<title>Node3&#45;&gt;Node5</title>
<path fill="none" stroke="midnightblue" d="M158.46,-48C147.73,-48 136.66,-48 126.09,-48"/>
<polygon fill="midnightblue" stroke="midnightblue" points="158.61,-51.5 168.61,-48 158.61,-44.5 158.61,-51.5"/>
</g>
<!-- Node6 -->
<g id="node6" class="node">
<title>Node6</title>
<g id="a_node6"><a xlink:href="namespacextb__screening.html#a7f4004ff0e65127a38b038f0a7cdcc84" target="_top" xlink:title=" ">
<polygon fill="white" stroke="black" points="5,-0.5 5,-19.5 128,-19.5 128,-0.5 5,-0.5"/>
<text text-anchor="middle" x="66.5" y="-7.5" font-family="Helvetica,sans-Serif" font-size="10.00">xtb_screening::screen</text>
</a>
</g>
</g>
<!-- Node3&#45;&gt;Node6 -->
<g id="edge5" class="edge">
<title>Node3&#45;&gt;Node6</title>
<path fill="none" stroke="midnightblue" d="M158.86,-32.33C141.07,-27.98 122.3,-23.39 106.43,-19.51"/>
<polygon fill="midnightblue" stroke="midnightblue" points="158.07,-35.74 168.61,-34.71 159.73,-28.94 158.07,-35.74"/>
</g>
</g>
</svg>
        <g id="navigator" transform="translate(0 0)" fill="#404254">
                <rect fill="#f2f5e9" fill-opacity="0.5" stroke="#606060" stroke-width=".5" x="0" y="0" width="60" height="60"/>
                <use id="zoomplus" xlink:href="#zoomPlus" x="17" y="9" onmousedown="handleZoom(evt,'in')"/>
                <use id="zoomminus" xlink:href="#zoomMin" x="42" y="9" onmousedown="handleZoom(evt,'out')"/>
                <use id="reset" xlink:href="#resetDef" x="30" y="36" onmousedown="handleReset()"/>
                <g id="arrowUp" xlink:href="#dirArrow" transform="translate(30 24)" onmousedown="handlePan(0,-1)">
                  <use xlink:href="#rim" fill="#404040">
                        <set attributeName="fill" to="#808080" begin="arrowUp.mouseover" end="arrowUp.mouseout"/>
                  </use>
                  <path fill="none" stroke="white" stroke-width="1.5" d="M0,-3.0v7 M-2.5,-0.5L0,-3.0L2.5,-0.5"/>
                </g>
                <g id="arrowRight" xlink:href="#dirArrow" transform="rotate(90) translate(36 -43)" onmousedown="handlePan(1,0)">
                  <use xlink:href="#rim" fill="#404040">
                        <set attributeName="fill" to="#808080" begin="arrowRight.mouseover" end="arrowRight.mouseout"/>
                  </use>
                  <path fill="none" stroke="white" stroke-width="1.5" d="M0,-3.0v7 M-2.5,-0.5L0,-3.0L2.5,-0.5"/>
                </g>
                <g id="arrowDown" xlink:href="#dirArrow" transform="rotate(180) translate(-30 -48)" onmousedown="handlePan(0,1)">
                  <use xlink:href="#rim" fill="#404040">
                        <set attributeName="fill" to="#808080" begin="arrowDown.mouseover" end="arrowDown.mouseout"/>
                  </use>
                  <path fill="none" stroke="white" stroke-width="1.5" d="M0,-3.0v7 M-2.5,-0.5L0,-3.0L2.5,-0.5"/>
                </g>
                <g id="arrowLeft" xlink:href="#dirArrow" transform="rotate(270) translate(-36 17)" onmousedown="handlePan(-1,0)">
                  <use xlink:href="#rim" fill="#404040">
                        <set attributeName="fill" to="#808080" begin="arrowLeft.mouseover" end="arrowLeft.mouseout"/>
                  </use>
                  <path fill="none" stroke="white" stroke-width="1.5" d="M0,-3.0v7 M-2.5,-0.5L0,-3.0L2.5,-0.5"/>
                </g>
        </g>
        <svg viewBox="0 0 15 15" width="100%" height="30px" preserveAspectRatio="xMaxYMin meet">
         <g id="arrow_out" transform="scale(0.3 0.3)">
          <a xlink:href="namespacextb__cqpath_a7abe30bf3445bcf84bea425907f8decd_icgraph_org.svg" target="_base">
           <rect id="button" ry="5" rx="5" y="6" x="6" height="38" width="38"
                fill="#f2f5e9" fill-opacity="0.5" stroke="#606060" stroke-width="1.0"/>
           <path id="arrow"
             d="M 11.500037,31.436501 C 11.940474,20.09759 22.043105,11.32322 32.158766,21.979434 L 37.068811,17.246167 C 37.068811,17.246167 37.088388,32 37.088388,32 L 22.160133,31.978069 C 22.160133,31.978069 26.997745,27.140456 26.997745,27.140456 C 18.528582,18.264221 13.291696,25.230495 11.500037,31.436501 z"
             style="fill:#404040;"/>
          </a>
         </g>
        </svg>
</svg>
