<?xml version="1.0" encoding="UTF-8" standalone="no"?>
<!DOCTYPE svg PUBLIC "-//W3C//DTD SVG 1.1//EN"
 "http://www.w3.org/Graphics/SVG/1.1/DTD/svg11.dtd">
<!-- Generated by graphviz version 2.43.0 (0)
 -->
<!-- Title: xtb_modelhessian::rcutoff Pages: 1 -->
<svg width="307pt" height="47pt"
 viewBox="0.00 0.00 307.00 47.00" xmlns="http://www.w3.org/2000/svg" xmlns:xlink="http://www.w3.org/1999/xlink">
<g id="graph0" class="graph" transform="scale(1 1) rotate(0) translate(4 43)">
<title>xtb_modelhessian::rcutoff</title>
<polygon fill="white" stroke="transparent" points="-4,4 -4,-43 303,-43 303,4 -4,4"/>
<!-- Node1 -->
<g id="node1" class="node">
<title>Node1</title>
<g id="a_node1"><a xlink:title=" ">
<polygon fill="#bfbfbf" stroke="black" points="0,-0.5 0,-19.5 143,-19.5 143,-0.5 0,-0.5"/>
<text text-anchor="middle" x="71.5" y="-7.5" font-family="Helvetica,sans-Serif" font-size="10.00">xtb_modelhessian::rcutoff</text>
</a>
</g>
</g>
<!-- Node2 -->
<g id="node2" class="node">
<title>Node2</title>
<g id="a_node2"><a xlink:href="lindh_8f90.html#a07fb38a4e66c854d96be3365e27e13da" target="_top" xlink:title=" ">
<polygon fill="white" stroke="black" points="179,-19.5 179,-38.5 227,-38.5 227,-19.5 179,-19.5"/>
<text text-anchor="middle" x="203" y="-26.5" font-family="Helvetica,sans-Serif" font-size="10.00">rcutoff</text>
</a>
</g>
</g>
<!-- Node1&#45;&gt;Node2 -->
<g id="edge1" class="edge">
<title>Node1&#45;&gt;Node2</title>
<path fill="none" stroke="midnightblue" d="M137.63,-19.56C148.34,-21.13 159.03,-22.7 168.54,-24.09"/>
<polygon fill="midnightblue" stroke="midnightblue" points="168.31,-27.59 178.71,-25.58 169.33,-20.67 168.31,-27.59"/>
</g>
<!-- Node3 -->
<g id="node3" class="node">
<title>Node3</title>
<g id="a_node3"><a xlink:href="symmetry__i_8c.html#aa77c823a9fc018ae1d437369708d8727" target="_top" xlink:title=" ">
<polygon fill="white" stroke="black" points="263,-0.5 263,-19.5 299,-19.5 299,-0.5 263,-0.5"/>
<text text-anchor="middle" x="281" y="-7.5" font-family="Helvetica,sans-Serif" font-size="10.00">true</text>
</a>
</g>
</g>
<!-- Node1&#45;&gt;Node3 -->
<g id="edge3" class="edge">
<title>Node1&#45;&gt;Node3</title>
<path fill="none" stroke="midnightblue" d="M143.04,-10C180.59,-10 224.62,-10 252.42,-10"/>
<polygon fill="midnightblue" stroke="midnightblue" points="252.57,-13.5 262.57,-10 252.57,-6.5 252.57,-13.5"/>
</g>
<!-- Node2&#45;&gt;Node3 -->
<g id="edge2" class="edge">
<title>Node2&#45;&gt;Node3</title>
<path fill="none" stroke="midnightblue" d="M227.22,-23.2C235.41,-21.15 244.69,-18.83 253.16,-16.71"/>
<polygon fill="midnightblue" stroke="midnightblue" points="254.1,-20.08 262.96,-14.26 252.41,-13.29 254.1,-20.08"/>
</g>
</g>
</svg>
