<?xml version="1.0" encoding="UTF-8" standalone="no"?>
<!DOCTYPE svg PUBLIC "-//W3C//DTD SVG 1.1//EN"
 "http://www.w3.org/Graphics/SVG/1.1/DTD/svg11.dtd">
<!-- Generated by graphviz version 2.46.0 (20210122.1329)
 -->
<!-- Title: xtb_intgrad::gpcenter Pages: 1 -->
<!--zoomable 453 -->
<svg id="main" version="1.1" xmlns="http://www.w3.org/2000/svg" xmlns:xlink="http://www.w3.org/1999/xlink" xml:space="preserve" onload="init(evt)">
<style type="text/css"><![CDATA[
.edge:hover path { stroke: red; }
.edge:hover polygon { stroke: red; fill: red; }
]]></style>
<script type="text/javascript"><![CDATA[
var edges = document.getElementsByTagName('g');
if (edges && edges.length) {
  for (var i=0;i<edges.length;i++) {
    if (edges[i].id.substr(0,4)=='edge') {
      edges[i].setAttribute('class','edge');
    }
  }
}
]]></script>
        <defs>
                <circle id="rim" cx="0" cy="0" r="7"/>
                <circle id="rim2" cx="0" cy="0" r="3.5"/>
                <g id="zoomPlus">
                        <use xlink:href="#rim" fill="#404040">
                                <set attributeName="fill" to="#808080" begin="zoomplus.mouseover" end="zoomplus.mouseout"/>
                        </use>
                        <path d="M-4,0h8M0,-4v8" fill="none" stroke="white" stroke-width="1.5" pointer-events="none"/>
                </g>
                <g id="zoomMin">
                        <use xlink:href="#rim" fill="#404040">
                                <set attributeName="fill" to="#808080" begin="zoomminus.mouseover" end="zoomminus.mouseout"/>
                        </use>
                        <path d="M-4,0h8" fill="none" stroke="white" stroke-width="1.5" pointer-events="none"/>
                </g>
                <g id="dirArrow">
                        <path fill="none" stroke="white" stroke-width="1.5" d="M0,-3.0v7 M-2.5,-0.5L0,-3.0L2.5,-0.5"/>
                </g>
               <g id="resetDef">
                       <use xlink:href="#rim2" fill="#404040">
                               <set attributeName="fill" to="#808080" begin="reset.mouseover" end="reset.mouseout"/>
                       </use>
               </g>
        </defs>

<script type="text/javascript">
var viewWidth = 978;
var viewHeight = 453;
var sectionId = 'dynsection-16';
</script>
<script xlink:href="svgpan.js"/>
<svg id="graph" class="graph">
<g id="viewport">
<title>xtb_intgrad::gpcenter</title>
<polygon fill="white" stroke="transparent" points="-4,4 -4,-449 974,-449 974,4 -4,4"/>
<!-- Node1 -->
<g id="node1" class="node">
<title>Node1</title>
<g id="a_node1"><a xlink:title="returns center of product Gaussian from two Gaussians by GPT">
<polygon fill="#bfbfbf" stroke="black" points="864,-226.5 864,-245.5 970,-245.5 970,-226.5 864,-226.5"/>
<text text-anchor="middle" x="917" y="-233.5" font-family="Helvetica,sans-Serif" font-size="10.00">xtb_intgrad::gpcenter</text>
</a>
</g>
</g>
<!-- Node2 -->
<g id="node2" class="node">
<title>Node2</title>
<g id="a_node2"><a xlink:href="namespacextb__intgrad.html#ae34171826fede48284f04beb036fb2bd" target="_top" xlink:title=" ">
<polygon fill="white" stroke="black" points="739,-270 739,-300 828,-300 828,-270 739,-270"/>
<text text-anchor="start" x="747" y="-288" font-family="Helvetica,sans-Serif" font-size="10.00">xtb_intgrad::build</text>
<text text-anchor="middle" x="783.5" y="-277" font-family="Helvetica,sans-Serif" font-size="10.00">_ds_ints</text>
</a>
</g>
</g>
<!-- Node1&#45;&gt;Node2 -->
<g id="edge1" class="edge">
<title>Node1&#45;&gt;Node2</title>
<path fill="none" stroke="midnightblue" d="M880.66,-249.17C863.46,-255.58 842.68,-263.32 824.85,-269.96"/>
<polygon fill="midnightblue" stroke="midnightblue" points="882.18,-252.34 890.33,-245.56 879.74,-245.78 882.18,-252.34"/>
</g>
<!-- Node15 -->
<g id="node15" class="node">
<title>Node15</title>
<g id="a_node15"><a xlink:href="namespacextb__intgrad.html#adb53ca5789261bb96d2c95507842a461" target="_top" xlink:title=" ">
<polygon fill="white" stroke="black" points="739,-221 739,-251 828,-251 828,-221 739,-221"/>
<text text-anchor="start" x="747" y="-239" font-family="Helvetica,sans-Serif" font-size="10.00">xtb_intgrad::build</text>
<text text-anchor="middle" x="783.5" y="-228" font-family="Helvetica,sans-Serif" font-size="10.00">_dsdq_ints</text>
</a>
</g>
</g>
<!-- Node1&#45;&gt;Node15 -->
<g id="edge19" class="edge">
<title>Node1&#45;&gt;Node15</title>
<path fill="none" stroke="midnightblue" d="M853.63,-236C845.04,-236 836.37,-236 828.21,-236"/>
<polygon fill="midnightblue" stroke="midnightblue" points="853.65,-239.5 863.65,-236 853.65,-232.5 853.65,-239.5"/>
</g>
<!-- Node19 -->
<g id="node19" class="node">
<title>Node19</title>
<g id="a_node19"><a xlink:href="namespacextb__intgrad.html#aa938e4391a764ecf662013cd966899ba" target="_top" xlink:title=" ">
<polygon fill="white" stroke="black" points="739,-172 739,-202 828,-202 828,-172 739,-172"/>
<text text-anchor="start" x="747" y="-190" font-family="Helvetica,sans-Serif" font-size="10.00">xtb_intgrad::build</text>
<text text-anchor="middle" x="783.5" y="-179" font-family="Helvetica,sans-Serif" font-size="10.00">_sdq_ints</text>
</a>
</g>
</g>
<!-- Node1&#45;&gt;Node19 -->
<g id="edge25" class="edge">
<title>Node1&#45;&gt;Node19</title>
<path fill="none" stroke="midnightblue" d="M880.66,-222.83C863.46,-216.42 842.68,-208.68 824.85,-202.04"/>
<polygon fill="midnightblue" stroke="midnightblue" points="879.74,-226.22 890.33,-226.44 882.18,-219.66 879.74,-226.22"/>
</g>
<!-- Node3 -->
<g id="node3" class="node">
<title>Node3</title>
<g id="a_node3"><a xlink:href="namespacextb__aespot.html#aa4d2436b7234ef3194dfff0592b1ed7c" target="_top" xlink:title=" ">
<polygon fill="white" stroke="black" points="596.5,-273.5 596.5,-292.5 685.5,-292.5 685.5,-273.5 596.5,-273.5"/>
<text text-anchor="middle" x="641" y="-280.5" font-family="Helvetica,sans-Serif" font-size="10.00">xtb_aespot::dsint</text>
</a>
</g>
</g>
<!-- Node2&#45;&gt;Node3 -->
<g id="edge2" class="edge">
<title>Node2&#45;&gt;Node3</title>
<path fill="none" stroke="midnightblue" d="M728.66,-284.23C714.44,-284.03 699.27,-283.82 685.66,-283.62"/>
<polygon fill="midnightblue" stroke="midnightblue" points="728.77,-287.74 738.82,-284.38 728.87,-280.74 728.77,-287.74"/>
</g>
<!-- Node9 -->
<g id="node9" class="node">
<title>Node9</title>
<g id="a_node9"><a xlink:href="namespacextb__peeq.html#a0fcfc4df44aaa9a0446dca518f96cf59" target="_top" xlink:title=" ">
<polygon fill="white" stroke="black" points="592,-382 592,-412 690,-412 690,-382 592,-382"/>
<text text-anchor="start" x="600" y="-400" font-family="Helvetica,sans-Serif" font-size="10.00">xtb_peeq::get_grad</text>
<text text-anchor="middle" x="641" y="-389" font-family="Helvetica,sans-Serif" font-size="10.00">_overlap</text>
</a>
</g>
</g>
<!-- Node2&#45;&gt;Node9 -->
<g id="edge9" class="edge">
<title>Node2&#45;&gt;Node9</title>
<path fill="none" stroke="midnightblue" d="M755.47,-306.55C727.79,-328.61 685.47,-362.35 661.1,-381.78"/>
<polygon fill="midnightblue" stroke="midnightblue" points="757.91,-309.08 763.55,-300.1 753.55,-303.6 757.91,-309.08"/>
</g>
<!-- Node4 -->
<g id="node4" class="node">
<title>Node4</title>
<g id="a_node4"><a xlink:href="namespacextb__scf.html#a7390c40a38032c3d210c39edecfa49ed" target="_top" xlink:title=" ">
<polygon fill="white" stroke="black" points="295,-216.5 295,-235.5 361,-235.5 361,-216.5 295,-216.5"/>
<text text-anchor="middle" x="328" y="-223.5" font-family="Helvetica,sans-Serif" font-size="10.00">xtb_scf::scf</text>
</a>
</g>
</g>
<!-- Node3&#45;&gt;Node4 -->
<g id="edge3" class="edge">
<title>Node3&#45;&gt;Node4</title>
<path fill="none" stroke="midnightblue" d="M586.18,-283.71C539.41,-283.11 470.23,-279.26 412,-264 387.78,-257.65 361.84,-244.67 345.53,-235.65"/>
<polygon fill="midnightblue" stroke="midnightblue" points="586.36,-287.21 596.39,-283.8 586.42,-280.21 586.36,-287.21"/>
</g>
<!-- Node5 -->
<g id="node5" class="node">
<title>Node5</title>
<g id="a_node5"><a xlink:href="namespacextb__xtb__calculator.html#a75c96263c235c99dfeeda3e865f9898c" target="_top" xlink:title=" ">
<polygon fill="white" stroke="black" points="137.5,-281 137.5,-311 232.5,-311 232.5,-281 137.5,-281"/>
<text text-anchor="start" x="145.5" y="-299" font-family="Helvetica,sans-Serif" font-size="10.00">xtb_xtb_calculator</text>
<text text-anchor="middle" x="185" y="-288" font-family="Helvetica,sans-Serif" font-size="10.00">::singlepoint</text>
</a>
</g>
</g>
<!-- Node4&#45;&gt;Node5 -->
<g id="edge4" class="edge">
<title>Node4&#45;&gt;Node5</title>
<path fill="none" stroke="midnightblue" d="M301.48,-240.61C285.22,-249.72 263.6,-261.49 244,-271 237.09,-274.35 229.63,-277.74 222.43,-280.89"/>
<polygon fill="midnightblue" stroke="midnightblue" points="303.39,-243.55 310.38,-235.58 299.95,-237.45 303.39,-243.55"/>
</g>
<!-- Node6 -->
<g id="node6" class="node">
<title>Node6</title>
<g id="a_node6"><a xlink:href="TESTSUITE_2gfn1_8f90.html#ab5cc37cef2d483d9d9cde17aa03c55a8" target="_top" xlink:title=" ">
<polygon fill="white" stroke="black" points="146,-204.5 146,-223.5 224,-223.5 224,-204.5 146,-204.5"/>
<text text-anchor="middle" x="185" y="-211.5" font-family="Helvetica,sans-Serif" font-size="10.00">test_gfn1_scc</text>
</a>
</g>
</g>
<!-- Node4&#45;&gt;Node6 -->
<g id="edge5" class="edge">
<title>Node4&#45;&gt;Node6</title>
<path fill="none" stroke="midnightblue" d="M284.66,-222.4C265.44,-220.76 242.89,-218.84 224.2,-217.25"/>
<polygon fill="midnightblue" stroke="midnightblue" points="284.39,-225.89 294.65,-223.25 284.98,-218.91 284.39,-225.89"/>
</g>
<!-- Node8 -->
<g id="node8" class="node">
<title>Node8</title>
<g id="a_node8"><a xlink:href="TESTSUITE_2gfn2_8f90.html#af47afba0207cbca2dc950fb5e339ce03" target="_top" xlink:title=" ">
<polygon fill="white" stroke="black" points="146,-242.5 146,-261.5 224,-261.5 224,-242.5 146,-242.5"/>
<text text-anchor="middle" x="185" y="-249.5" font-family="Helvetica,sans-Serif" font-size="10.00">test_gfn2_scc</text>
</a>
</g>
</g>
<!-- Node4&#45;&gt;Node8 -->
<g id="edge7" class="edge">
<title>Node4&#45;&gt;Node8</title>
<path fill="none" stroke="midnightblue" d="M284.66,-233.81C265.44,-237.35 242.89,-241.51 224.2,-244.96"/>
<polygon fill="midnightblue" stroke="midnightblue" points="285.45,-237.22 294.65,-231.96 284.18,-230.34 285.45,-237.22"/>
</g>
<!-- Node7 -->
<g id="node7" class="node">
<title>Node7</title>
<g id="a_node7"><a xlink:href="tests__peeq_8f90.html#a87ff5319e0d2e627a4f71d7df0d14891" target="_top" xlink:title=" ">
<polygon fill="white" stroke="black" points="11,-286.5 11,-305.5 79,-305.5 79,-286.5 11,-286.5"/>
<text text-anchor="middle" x="45" y="-293.5" font-family="Helvetica,sans-Serif" font-size="10.00">peeq_tester</text>
</a>
</g>
</g>
<!-- Node6&#45;&gt;Node7 -->
<g id="edge6" class="edge">
<title>Node6&#45;&gt;Node7</title>
<path fill="none" stroke="midnightblue" d="M138.63,-227.13C134.28,-228.9 130,-230.86 126,-233 98.26,-247.86 70.42,-272.51 56.03,-286.16"/>
<polygon fill="midnightblue" stroke="midnightblue" points="140.08,-230.33 148.22,-223.54 137.62,-223.77 140.08,-230.33"/>
</g>
<!-- Node8&#45;&gt;Node7 -->
<g id="edge8" class="edge">
<title>Node8&#45;&gt;Node7</title>
<path fill="none" stroke="midnightblue" d="M144.41,-264.62C122.59,-271.58 95.95,-280.08 75.89,-286.47"/>
<polygon fill="midnightblue" stroke="midnightblue" points="145.59,-267.92 154.06,-261.55 143.47,-261.25 145.59,-267.92"/>
</g>
<!-- Node10 -->
<g id="node10" class="node">
<title>Node10</title>
<g id="a_node10"><a xlink:href="namespacextb__peeq.html#a40797d7eda755bad4031e16951ae29b7" target="_top" xlink:title=" ">
<polygon fill="white" stroke="black" points="412,-425.5 412,-444.5 543,-444.5 543,-425.5 412,-425.5"/>
<text text-anchor="middle" x="477.5" y="-432.5" font-family="Helvetica,sans-Serif" font-size="10.00">xtb_peeq::ccm_build_dsh0</text>
</a>
</g>
</g>
<!-- Node9&#45;&gt;Node10 -->
<g id="edge10" class="edge">
<title>Node9&#45;&gt;Node10</title>
<path fill="none" stroke="midnightblue" d="M582.23,-410.59C561.29,-415.52 538.11,-420.98 518.97,-425.48"/>
<polygon fill="midnightblue" stroke="midnightblue" points="583.05,-414 591.98,-408.3 581.45,-407.18 583.05,-414"/>
</g>
<!-- Node14 -->
<g id="node14" class="node">
<title>Node14</title>
<g id="a_node14"><a xlink:href="namespacextb__peeq.html#a101bc81468c2cd4ddd3221efaa59b142" target="_top" xlink:title=" ">
<polygon fill="white" stroke="black" points="413.5,-387.5 413.5,-406.5 541.5,-406.5 541.5,-387.5 413.5,-387.5"/>
<text text-anchor="middle" x="477.5" y="-394.5" font-family="Helvetica,sans-Serif" font-size="10.00">xtb_peeq::pbc_build_dsh0</text>
</a>
</g>
</g>
<!-- Node9&#45;&gt;Node14 -->
<g id="edge17" class="edge">
<title>Node9&#45;&gt;Node14</title>
<path fill="none" stroke="midnightblue" d="M581.74,-397C568.7,-397 554.82,-397 541.6,-397"/>
<polygon fill="midnightblue" stroke="midnightblue" points="581.98,-400.5 591.98,-397 581.98,-393.5 581.98,-400.5"/>
</g>
<!-- Node11 -->
<g id="node11" class="node">
<title>Node11</title>
<g id="a_node11"><a xlink:href="namespacextb__peeq.html#ac2d6fc22b842455765bdb4f69279095c" target="_top" xlink:title=" ">
<polygon fill="white" stroke="black" points="287.5,-349.5 287.5,-368.5 368.5,-368.5 368.5,-349.5 287.5,-349.5"/>
<text text-anchor="middle" x="328" y="-356.5" font-family="Helvetica,sans-Serif" font-size="10.00">xtb_peeq::peeq</text>
</a>
</g>
</g>
<!-- Node10&#45;&gt;Node11 -->
<g id="edge11" class="edge">
<title>Node10&#45;&gt;Node11</title>
<path fill="none" stroke="midnightblue" d="M427.37,-422.31C422.09,-420.42 416.88,-418.32 412,-416 384.38,-402.86 355.73,-381.05 340.37,-368.56"/>
<polygon fill="midnightblue" stroke="midnightblue" points="426.29,-425.64 436.88,-425.47 428.5,-418.99 426.29,-425.64"/>
</g>
<!-- Node11&#45;&gt;Node5 -->
<g id="edge12" class="edge">
<title>Node11&#45;&gt;Node5</title>
<path fill="none" stroke="midnightblue" d="M297,-345.07C281.26,-337.81 261.63,-328.83 244,-321 236.69,-317.75 228.83,-314.32 221.33,-311.08"/>
<polygon fill="midnightblue" stroke="midnightblue" points="295.71,-348.33 306.25,-349.34 298.64,-341.97 295.71,-348.33"/>
</g>
<!-- Node12 -->
<g id="node12" class="node">
<title>Node12</title>
<g id="a_node12"><a xlink:href="TESTSUITE_2gfn0_8f90.html#ac2abd1dbadf75b71866d509eaad7957d" target="_top" xlink:title=" ">
<polygon fill="white" stroke="black" points="148.5,-330.5 148.5,-349.5 221.5,-349.5 221.5,-330.5 148.5,-330.5"/>
<text text-anchor="middle" x="185" y="-337.5" font-family="Helvetica,sans-Serif" font-size="10.00">test_gfn0_sp</text>
</a>
</g>
</g>
<!-- Node11&#45;&gt;Node12 -->
<g id="edge13" class="edge">
<title>Node11&#45;&gt;Node12</title>
<path fill="none" stroke="midnightblue" d="M277.36,-352.31C258.94,-349.83 238.42,-347.06 221.51,-344.78"/>
<polygon fill="midnightblue" stroke="midnightblue" points="276.97,-355.79 287.35,-353.66 277.91,-348.85 276.97,-355.79"/>
</g>
<!-- Node13 -->
<g id="node13" class="node">
<title>Node13</title>
<g id="a_node13"><a xlink:href="peeq_8f90.html#a5122d9bd07a3f4377ee140a5991d1325" target="_top" xlink:title=" ">
<polygon fill="white" stroke="black" points="147.5,-368.5 147.5,-387.5 222.5,-387.5 222.5,-368.5 147.5,-368.5"/>
<text text-anchor="middle" x="185" y="-375.5" font-family="Helvetica,sans-Serif" font-size="10.00">test_peeq_sp</text>
</a>
</g>
</g>
<!-- Node11&#45;&gt;Node13 -->
<g id="edge15" class="edge">
<title>Node11&#45;&gt;Node13</title>
<path fill="none" stroke="midnightblue" d="M277.36,-365.69C259.45,-368.1 239.57,-370.78 222.94,-373.02"/>
<polygon fill="midnightblue" stroke="midnightblue" points="277.91,-369.15 287.35,-364.34 276.97,-362.21 277.91,-369.15"/>
</g>
<!-- Node12&#45;&gt;Node7 -->
<g id="edge14" class="edge">
<title>Node12&#45;&gt;Node7</title>
<path fill="none" stroke="midnightblue" d="M144.41,-327.38C122.59,-320.42 95.95,-311.92 75.89,-305.53"/>
<polygon fill="midnightblue" stroke="midnightblue" points="143.47,-330.75 154.06,-330.45 145.59,-324.08 143.47,-330.75"/>
</g>
<!-- Node13&#45;&gt;Node7 -->
<g id="edge16" class="edge">
<title>Node13&#45;&gt;Node7</title>
<path fill="none" stroke="midnightblue" d="M138.63,-364.87C134.28,-363.1 130,-361.14 126,-359 98.26,-344.14 70.42,-319.49 56.03,-305.84"/>
<polygon fill="midnightblue" stroke="midnightblue" points="137.62,-368.23 148.22,-368.46 140.08,-361.67 137.62,-368.23"/>
</g>
<!-- Node14&#45;&gt;Node11 -->
<g id="edge18" class="edge">
<title>Node14&#45;&gt;Node11</title>
<path fill="none" stroke="midnightblue" d="M429.49,-384.89C408.94,-379.6 385.2,-373.48 365.95,-368.52"/>
<polygon fill="midnightblue" stroke="midnightblue" points="428.72,-388.31 439.28,-387.41 430.47,-381.53 428.72,-388.31"/>
</g>
<!-- Node16 -->
<g id="node16" class="node">
<title>Node16</title>
<g id="a_node16"><a xlink:href="namespacextb__intgrad.html#a84a16c374ef42e274a28bfac818995e7" target="_top" xlink:title=" ">
<polygon fill="white" stroke="black" points="588,-221 588,-251 694,-251 694,-221 588,-221"/>
<text text-anchor="start" x="596" y="-239" font-family="Helvetica,sans-Serif" font-size="10.00">xtb_intgrad::get_grad</text>
<text text-anchor="middle" x="641" y="-228" font-family="Helvetica,sans-Serif" font-size="10.00">_multiint</text>
</a>
</g>
</g>
<!-- Node15&#45;&gt;Node16 -->
<g id="edge20" class="edge">
<title>Node15&#45;&gt;Node16</title>
<path fill="none" stroke="midnightblue" d="M728.6,-236C717.26,-236 705.32,-236 694.04,-236"/>
<polygon fill="midnightblue" stroke="midnightblue" points="728.82,-239.5 738.82,-236 728.82,-232.5 728.82,-239.5"/>
</g>
<!-- Node17 -->
<g id="node17" class="node">
<title>Node17</title>
<g id="a_node17"><a xlink:href="namespacextb__xtb__hamiltonian.html#a8364d9293f8dac8d5de89c5186f7effc" target="_top" xlink:title="Computes the gradient of the dipole/qpole integral contribution.">
<polygon fill="white" stroke="black" points="426.5,-224 426.5,-254 528.5,-254 528.5,-224 426.5,-224"/>
<text text-anchor="start" x="434.5" y="-242" font-family="Helvetica,sans-Serif" font-size="10.00">xtb_xtb_hamiltonian</text>
<text text-anchor="middle" x="477.5" y="-231" font-family="Helvetica,sans-Serif" font-size="10.00">::build_dsdqh0</text>
</a>
</g>
</g>
<!-- Node16&#45;&gt;Node17 -->
<g id="edge21" class="edge">
<title>Node16&#45;&gt;Node17</title>
<path fill="none" stroke="midnightblue" d="M577.19,-237.17C561.13,-237.47 544.08,-237.78 528.75,-238.07"/>
<polygon fill="midnightblue" stroke="midnightblue" points="577.63,-240.66 587.57,-236.97 577.5,-233.66 577.63,-240.66"/>
</g>
<!-- Node18 -->
<g id="node18" class="node">
<title>Node18</title>
<g id="a_node18"><a xlink:href="namespacextb__xtb__hamiltonian.html#a299eaa3877160d0aff3f63dc55b12fde" target="_top" xlink:title="Computes the gradient of the dipole/qpole integral contribution.">
<polygon fill="white" stroke="black" points="419.5,-175 419.5,-205 535.5,-205 535.5,-175 419.5,-175"/>
<text text-anchor="start" x="427.5" y="-193" font-family="Helvetica,sans-Serif" font-size="10.00">xtb_xtb_hamiltonian</text>
<text text-anchor="middle" x="477.5" y="-182" font-family="Helvetica,sans-Serif" font-size="10.00">::build_dsdqh0_noreset</text>
</a>
</g>
</g>
<!-- Node16&#45;&gt;Node18 -->
<g id="edge23" class="edge">
<title>Node16&#45;&gt;Node18</title>
<path fill="none" stroke="midnightblue" d="M577.65,-218.24C562.32,-213.87 546.05,-209.24 531.22,-205.02"/>
<polygon fill="midnightblue" stroke="midnightblue" points="576.99,-221.69 587.57,-221.07 578.91,-214.96 576.99,-221.69"/>
</g>
<!-- Node17&#45;&gt;Node4 -->
<g id="edge22" class="edge">
<title>Node17&#45;&gt;Node4</title>
<path fill="none" stroke="midnightblue" d="M416.13,-233.68C397.28,-232.02 377.22,-230.25 361.11,-228.83"/>
<polygon fill="midnightblue" stroke="midnightblue" points="415.88,-237.17 426.15,-234.56 416.5,-230.2 415.88,-237.17"/>
</g>
<!-- Node18&#45;&gt;Node4 -->
<g id="edge24" class="edge">
<title>Node18&#45;&gt;Node4</title>
<path fill="none" stroke="midnightblue" d="M409.63,-206.32C392.76,-210.44 375.42,-214.67 361.16,-218.15"/>
<polygon fill="midnightblue" stroke="midnightblue" points="410.59,-209.69 419.47,-203.92 408.93,-202.89 410.59,-209.69"/>
</g>
<!-- Node20 -->
<g id="node20" class="node">
<title>Node20</title>
<g id="a_node20"><a xlink:href="namespacextb__intgrad.html#aee9600380d10f057eefb0773b7fb2b06" target="_top" xlink:title=" ">
<polygon fill="white" stroke="black" points="579,-82.5 579,-101.5 703,-101.5 703,-82.5 579,-82.5"/>
<text text-anchor="middle" x="641" y="-89.5" font-family="Helvetica,sans-Serif" font-size="10.00">xtb_intgrad::get_multiints</text>
</a>
</g>
</g>
<!-- Node19&#45;&gt;Node20 -->
<g id="edge26" class="edge">
<title>Node19&#45;&gt;Node20</title>
<path fill="none" stroke="midnightblue" d="M751.92,-166.32C722.34,-146.32 678.81,-116.89 656.44,-101.76"/>
<polygon fill="midnightblue" stroke="midnightblue" points="749.99,-169.25 760.24,-171.95 753.91,-163.45 749.99,-169.25"/>
</g>
<!-- Node28 -->
<g id="node28" class="node">
<title>Node28</title>
<g id="a_node28"><a xlink:href="namespacextb__peeq.html#a287e8583f9e8cdee5b6e958662be4f9a" target="_top" xlink:title=" ">
<polygon fill="white" stroke="black" points="586,-311.5 586,-330.5 696,-330.5 696,-311.5 586,-311.5"/>
<text text-anchor="middle" x="641" y="-318.5" font-family="Helvetica,sans-Serif" font-size="10.00">xtb_peeq::get_overlap</text>
</a>
</g>
</g>
<!-- Node19&#45;&gt;Node28 -->
<g id="edge37" class="edge">
<title>Node19&#45;&gt;Node28</title>
<path fill="none" stroke="midnightblue" d="M741.33,-208.55C740.52,-209.34 739.74,-210.16 739,-211 710.27,-243.65 734.88,-272.42 703,-302 698.85,-305.85 693.94,-308.92 688.72,-311.36"/>
<polygon fill="midnightblue" stroke="midnightblue" points="743.78,-211.06 749.3,-202.02 739.35,-205.64 743.78,-211.06"/>
</g>
<!-- Node21 -->
<g id="node21" class="node">
<title>Node21</title>
<g id="a_node21"><a xlink:href="namespacextb__xtb__hamiltonian.html#a9f0d8be35a4ef0f2dbbbafd2ef873d64" target="_top" xlink:title="Computes the dipole and quadrupole integrals and performs screening to.">
<polygon fill="white" stroke="black" points="426.5,-126 426.5,-156 528.5,-156 528.5,-126 426.5,-126"/>
<text text-anchor="start" x="434.5" y="-144" font-family="Helvetica,sans-Serif" font-size="10.00">xtb_xtb_hamiltonian</text>
<text text-anchor="middle" x="477.5" y="-133" font-family="Helvetica,sans-Serif" font-size="10.00">::build_sdqh0</text>
</a>
</g>
</g>
<!-- Node20&#45;&gt;Node21 -->
<g id="edge27" class="edge">
<title>Node20&#45;&gt;Node21</title>
<path fill="none" stroke="midnightblue" d="M598.66,-104.54C577.14,-111.07 550.67,-119.1 528.06,-125.96"/>
<polygon fill="midnightblue" stroke="midnightblue" points="599.92,-107.82 608.48,-101.56 597.89,-101.12 599.92,-107.82"/>
</g>
<!-- Node22 -->
<g id="node22" class="node">
<title>Node22</title>
<g id="a_node22"><a xlink:href="namespacextb__xtb__hamiltonian__gpu.html#aee3ffc022ae0b9686cef17ce77e6b117" target="_top" xlink:title="Computes the dipole and quadrupole integrals and performs screening to.">
<polygon fill="white" stroke="black" points="420,-77 420,-107 535,-107 535,-77 420,-77"/>
<text text-anchor="start" x="428" y="-95" font-family="Helvetica,sans-Serif" font-size="10.00">xtb_xtb_hamiltonian</text>
<text text-anchor="middle" x="477.5" y="-84" font-family="Helvetica,sans-Serif" font-size="10.00">_gpu::build_sdqh0_gpu</text>
</a>
</g>
</g>
<!-- Node20&#45;&gt;Node22 -->
<g id="edge29" class="edge">
<title>Node20&#45;&gt;Node22</title>
<path fill="none" stroke="midnightblue" d="M568.71,-92C557.47,-92 545.97,-92 535.12,-92"/>
<polygon fill="midnightblue" stroke="midnightblue" points="568.94,-95.5 578.94,-92 568.94,-88.5 568.94,-95.5"/>
</g>
<!-- Node23 -->
<g id="node23" class="node">
<title>Node23</title>
<g id="a_node23"><a xlink:href="namespacextb__intgrad.html#a45fdbd10e8d62595c60b79d516e52cbd" target="_top" xlink:title="computes the dipole and quadrupole integrals and performs screening to">
<polygon fill="white" stroke="black" points="430,-0.5 430,-19.5 525,-19.5 525,-0.5 430,-0.5"/>
<text text-anchor="middle" x="477.5" y="-7.5" font-family="Helvetica,sans-Serif" font-size="10.00">xtb_intgrad::sdqint</text>
</a>
</g>
</g>
<!-- Node20&#45;&gt;Node23 -->
<g id="edge31" class="edge">
<title>Node20&#45;&gt;Node23</title>
<path fill="none" stroke="midnightblue" d="M619.65,-76.27C600.69,-62.24 571.19,-41.97 543,-29 535.05,-25.34 526.22,-22.19 517.71,-19.57"/>
<polygon fill="midnightblue" stroke="midnightblue" points="617.72,-79.19 627.81,-82.41 621.93,-73.6 617.72,-79.19"/>
</g>
<!-- Node27 -->
<g id="node27" class="node">
<title>Node27</title>
<g id="a_node27"><a xlink:href="namespacextb__intgrad.html#acfb80861031d50fbbfc7f6a4d203b94f" target="_top" xlink:title="Computes the overlap dipole and quadrupole integrals.">
<polygon fill="white" stroke="black" points="419.5,-38.5 419.5,-57.5 535.5,-57.5 535.5,-38.5 419.5,-38.5"/>
<text text-anchor="middle" x="477.5" y="-45.5" font-family="Helvetica,sans-Serif" font-size="10.00">xtb_intgrad::sdqint_gpu</text>
</a>
</g>
</g>
<!-- Node20&#45;&gt;Node27 -->
<g id="edge35" class="edge">
<title>Node20&#45;&gt;Node27</title>
<path fill="none" stroke="midnightblue" d="M595.04,-79.75C569.26,-72.73 537.37,-64.04 513.47,-57.53"/>
<polygon fill="midnightblue" stroke="midnightblue" points="594.39,-83.2 604.96,-82.45 596.23,-76.45 594.39,-83.2"/>
</g>
<!-- Node21&#45;&gt;Node4 -->
<g id="edge28" class="edge">
<title>Node21&#45;&gt;Node4</title>
<path fill="none" stroke="midnightblue" d="M421.62,-160.2C418.32,-161.73 415.09,-163.33 412,-165 384.15,-180.04 355.13,-203.44 339.88,-216.45"/>
<polygon fill="midnightblue" stroke="midnightblue" points="423.27,-163.3 431.03,-156.1 420.47,-156.89 423.27,-163.3"/>
</g>
<!-- Node22&#45;&gt;Node4 -->
<g id="edge30" class="edge">
<title>Node22&#45;&gt;Node4</title>
<path fill="none" stroke="midnightblue" d="M417.72,-112.12C415.74,-113.34 413.83,-114.64 412,-116 373.82,-144.44 344.85,-195.14 333.83,-216.3"/>
<polygon fill="midnightblue" stroke="midnightblue" points="419.65,-115.05 426.73,-107.16 416.28,-108.92 419.65,-115.05"/>
</g>
<!-- Node24 -->
<g id="node24" class="node">
<title>Node24</title>
<g id="a_node24"><a xlink:href="namespacextb__propertyoutput.html#a74ca9110d4ecdd9fc1a790d9a2027a02" target="_top" xlink:title=" ">
<polygon fill="white" stroke="black" points="280,-14 280,-44 376,-44 376,-14 280,-14"/>
<text text-anchor="start" x="288" y="-32" font-family="Helvetica,sans-Serif" font-size="10.00">xtb_propertyoutput</text>
<text text-anchor="middle" x="328" y="-21" font-family="Helvetica,sans-Serif" font-size="10.00">::main_property</text>
</a>
</g>
</g>
<!-- Node23&#45;&gt;Node24 -->
<g id="edge32" class="edge">
<title>Node23&#45;&gt;Node24</title>
<path fill="none" stroke="midnightblue" d="M419.57,-17.33C405.2,-19.18 389.95,-21.15 376.13,-22.93"/>
<polygon fill="midnightblue" stroke="midnightblue" points="420.36,-20.76 429.83,-16.01 419.46,-13.82 420.36,-20.76"/>
</g>
<!-- Node25 -->
<g id="node25" class="node">
<title>Node25</title>
<g id="a_node25"><a xlink:href="namespacextb__prog__main.html#a92b3b61ee04235e6343f652095682529" target="_top" xlink:title=" ">
<polygon fill="white" stroke="black" points="126,-19.5 126,-38.5 244,-38.5 244,-19.5 126,-19.5"/>
<text text-anchor="middle" x="185" y="-26.5" font-family="Helvetica,sans-Serif" font-size="10.00">xtb_prog_main::xtbmain</text>
</a>
</g>
</g>
<!-- Node24&#45;&gt;Node25 -->
<g id="edge33" class="edge">
<title>Node24&#45;&gt;Node25</title>
<path fill="none" stroke="midnightblue" d="M269.61,-29C261.25,-29 252.62,-29 244.24,-29"/>
<polygon fill="midnightblue" stroke="midnightblue" points="269.66,-32.5 279.66,-29 269.66,-25.5 269.66,-32.5"/>
</g>
<!-- Node26 -->
<g id="node26" class="node">
<title>Node26</title>
<g id="a_node26"><a xlink:href="primary_8f90.html#a2a67903cf5be605c5b6d3c362c6a3c5c" target="_top" xlink:title="The primary driver for the xtb program package.">
<polygon fill="white" stroke="black" points="0,-19.5 0,-38.5 90,-38.5 90,-19.5 0,-19.5"/>
<text text-anchor="middle" x="45" y="-26.5" font-family="Helvetica,sans-Serif" font-size="10.00">xtb_prog_primary</text>
</a>
</g>
</g>
<!-- Node25&#45;&gt;Node26 -->
<g id="edge34" class="edge">
<title>Node25&#45;&gt;Node26</title>
<path fill="none" stroke="midnightblue" d="M115.73,-29C107.06,-29 98.37,-29 90.22,-29"/>
<polygon fill="midnightblue" stroke="midnightblue" points="115.88,-32.5 125.88,-29 115.88,-25.5 115.88,-32.5"/>
</g>
<!-- Node27&#45;&gt;Node24 -->
<g id="edge36" class="edge">
<title>Node27&#45;&gt;Node24</title>
<path fill="none" stroke="midnightblue" d="M409.32,-39.35C398.18,-37.91 386.84,-36.45 376.32,-35.1"/>
<polygon fill="midnightblue" stroke="midnightblue" points="409.11,-42.85 419.47,-40.65 410,-35.91 409.11,-42.85"/>
</g>
<!-- Node29 -->
<g id="node29" class="node">
<title>Node29</title>
<g id="a_node29"><a xlink:href="namespacextb__peeq.html#a88e7865d904c0f99f485a16db19d88aa" target="_top" xlink:title=" ">
<polygon fill="white" stroke="black" points="415,-349.5 415,-368.5 540,-368.5 540,-349.5 415,-349.5"/>
<text text-anchor="middle" x="477.5" y="-356.5" font-family="Helvetica,sans-Serif" font-size="10.00">xtb_peeq::ccm_build_sh0</text>
</a>
</g>
</g>
<!-- Node28&#45;&gt;Node29 -->
<g id="edge38" class="edge">
<title>Node28&#45;&gt;Node29</title>
<path fill="none" stroke="midnightblue" d="M589.44,-332.9C566.74,-338.24 540.32,-344.45 518.96,-349.48"/>
<polygon fill="midnightblue" stroke="midnightblue" points="590.31,-336.29 599.25,-330.59 588.71,-329.47 590.31,-336.29"/>
</g>
<!-- Node30 -->
<g id="node30" class="node">
<title>Node30</title>
<g id="a_node30"><a xlink:href="namespacextb__peeq.html#a9e3625eb7bd9b7e395c110aacfe6eaeb" target="_top" xlink:title=" ">
<polygon fill="white" stroke="black" points="416.5,-311.5 416.5,-330.5 538.5,-330.5 538.5,-311.5 416.5,-311.5"/>
<text text-anchor="middle" x="477.5" y="-318.5" font-family="Helvetica,sans-Serif" font-size="10.00">xtb_peeq::pbc_build_sh0</text>
</a>
</g>
</g>
<!-- Node28&#45;&gt;Node30 -->
<g id="edge40" class="edge">
<title>Node28&#45;&gt;Node30</title>
<path fill="none" stroke="midnightblue" d="M575.68,-321C563.48,-321 550.76,-321 538.7,-321"/>
<polygon fill="midnightblue" stroke="midnightblue" points="575.77,-324.5 585.77,-321 575.77,-317.5 575.77,-324.5"/>
</g>
<!-- Node29&#45;&gt;Node11 -->
<g id="edge39" class="edge">
<title>Node29&#45;&gt;Node11</title>
<path fill="none" stroke="midnightblue" d="M404.47,-359C392.11,-359 379.69,-359 368.59,-359"/>
<polygon fill="midnightblue" stroke="midnightblue" points="404.8,-362.5 414.8,-359 404.8,-355.5 404.8,-362.5"/>
</g>
<!-- Node30&#45;&gt;Node11 -->
<g id="edge41" class="edge">
<title>Node30&#45;&gt;Node11</title>
<path fill="none" stroke="midnightblue" d="M429.49,-333.11C408.94,-338.4 385.2,-344.52 365.95,-349.48"/>
<polygon fill="midnightblue" stroke="midnightblue" points="430.47,-336.47 439.28,-330.59 428.72,-329.69 430.47,-336.47"/>
</g>
</g>
</svg>
        <g id="navigator" transform="translate(0 0)" fill="#404254">
                <rect fill="#f2f5e9" fill-opacity="0.5" stroke="#606060" stroke-width=".5" x="0" y="0" width="60" height="60"/>
                <use id="zoomplus" xlink:href="#zoomPlus" x="17" y="9" onmousedown="handleZoom(evt,'in')"/>
                <use id="zoomminus" xlink:href="#zoomMin" x="42" y="9" onmousedown="handleZoom(evt,'out')"/>
                <use id="reset" xlink:href="#resetDef" x="30" y="36" onmousedown="handleReset()"/>
                <g id="arrowUp" xlink:href="#dirArrow" transform="translate(30 24)" onmousedown="handlePan(0,-1)">
                  <use xlink:href="#rim" fill="#404040">
                        <set attributeName="fill" to="#808080" begin="arrowUp.mouseover" end="arrowUp.mouseout"/>
                  </use>
                  <path fill="none" stroke="white" stroke-width="1.5" d="M0,-3.0v7 M-2.5,-0.5L0,-3.0L2.5,-0.5"/>
                </g>
                <g id="arrowRight" xlink:href="#dirArrow" transform="rotate(90) translate(36 -43)" onmousedown="handlePan(1,0)">
                  <use xlink:href="#rim" fill="#404040">
                        <set attributeName="fill" to="#808080" begin="arrowRight.mouseover" end="arrowRight.mouseout"/>
                  </use>
                  <path fill="none" stroke="white" stroke-width="1.5" d="M0,-3.0v7 M-2.5,-0.5L0,-3.0L2.5,-0.5"/>
                </g>
                <g id="arrowDown" xlink:href="#dirArrow" transform="rotate(180) translate(-30 -48)" onmousedown="handlePan(0,1)">
                  <use xlink:href="#rim" fill="#404040">
                        <set attributeName="fill" to="#808080" begin="arrowDown.mouseover" end="arrowDown.mouseout"/>
                  </use>
                  <path fill="none" stroke="white" stroke-width="1.5" d="M0,-3.0v7 M-2.5,-0.5L0,-3.0L2.5,-0.5"/>
                </g>
                <g id="arrowLeft" xlink:href="#dirArrow" transform="rotate(270) translate(-36 17)" onmousedown="handlePan(-1,0)">
                  <use xlink:href="#rim" fill="#404040">
                        <set attributeName="fill" to="#808080" begin="arrowLeft.mouseover" end="arrowLeft.mouseout"/>
                  </use>
                  <path fill="none" stroke="white" stroke-width="1.5" d="M0,-3.0v7 M-2.5,-0.5L0,-3.0L2.5,-0.5"/>
                </g>
        </g>
        <svg viewBox="0 0 15 15" width="100%" height="30px" preserveAspectRatio="xMaxYMin meet">
         <g id="arrow_out" transform="scale(0.3 0.3)">
          <a xlink:href="namespacextb__intgrad_a49b854bf505ac013ac50d12edb2e0de5_icgraph_org.svg" target="_base">
           <rect id="button" ry="5" rx="5" y="6" x="6" height="38" width="38"
                fill="#f2f5e9" fill-opacity="0.5" stroke="#606060" stroke-width="1.0"/>
           <path id="arrow"
             d="M 11.500037,31.436501 C 11.940474,20.09759 22.043105,11.32322 32.158766,21.979434 L 37.068811,17.246167 C 37.068811,17.246167 37.088388,32 37.088388,32 L 22.160133,31.978069 C 22.160133,31.978069 26.997745,27.140456 26.997745,27.140456 C 18.528582,18.264221 13.291696,25.230495 11.500037,31.436501 z"
             style="fill:#404040;"/>
          </a>
         </g>
        </svg>
</svg>
