<?xml version="1.0" encoding="UTF-8" standalone="no"?>
<!DOCTYPE svg PUBLIC "-//W3C//DTD SVG 1.1//EN"
 "http://www.w3.org/Graphics/SVG/1.1/DTD/svg11.dtd">
<!-- Generated by graphviz version 2.46.0 (20210122.1329)
 -->
<!-- Title: xtb_io_reader_turbomole::readmoleculecoord Pages: 1 -->
<svg width="518pt" height="203pt"
 viewBox="0.00 0.00 518.00 202.50" xmlns="http://www.w3.org/2000/svg" xmlns:xlink="http://www.w3.org/1999/xlink">
<g id="graph0" class="graph" transform="scale(1 1) rotate(0) translate(4 198.5)">
<title>xtb_io_reader_turbomole::readmoleculecoord</title>
<polygon fill="white" stroke="transparent" points="-4,4 -4,-198.5 514,-198.5 514,4 -4,4"/>
<!-- Node1 -->
<g id="node1" class="node">
<title>Node1</title>
<g id="a_node1"><a xlink:title=" ">
<polygon fill="#bfbfbf" stroke="black" points="0,-71 0,-101 122,-101 122,-71 0,-71"/>
<text text-anchor="start" x="8" y="-89" font-family="Helvetica,sans-Serif" font-size="10.00">xtb_io_reader_turbomole</text>
<text text-anchor="middle" x="61" y="-78" font-family="Helvetica,sans-Serif" font-size="10.00">::readmoleculecoord</text>
</a>
</g>
</g>
<!-- Node2 -->
<g id="node2" class="node">
<title>Node2</title>
<g id="a_node2"><a xlink:href="namespacextb__pbc__tools.html#aecf941b359092ea66d4242b845f39335" target="_top" xlink:title="transform from fractional coordinates into cartesian coordinates">
<polygon fill="white" stroke="black" points="181,-164 181,-194 278,-194 278,-164 181,-164"/>
<text text-anchor="start" x="189" y="-182" font-family="Helvetica,sans-Serif" font-size="10.00">xtb_pbc_tools::abc</text>
<text text-anchor="middle" x="229.5" y="-171" font-family="Helvetica,sans-Serif" font-size="10.00">_to_xyz</text>
</a>
</g>
</g>
<!-- Node1&#45;&gt;Node2 -->
<g id="edge1" class="edge">
<title>Node1&#45;&gt;Node2</title>
<path fill="none" stroke="midnightblue" d="M79.71,-101.2C98.23,-116.48 128.62,-139.87 158,-155 162.23,-157.18 166.7,-159.23 171.26,-161.14"/>
<polygon fill="midnightblue" stroke="midnightblue" points="170.09,-164.44 180.68,-164.87 172.67,-157.93 170.09,-164.44"/>
</g>
<!-- Node3 -->
<g id="node3" class="node">
<title>Node3</title>
<g id="a_node3"><a xlink:href="namespacextb__pbc__tools.html#a78401582977ddf8f87d315e54a350129" target="_top" xlink:title="convert cell parameters to direct lattice">
<polygon fill="white" stroke="black" points="181.5,-115 181.5,-145 277.5,-145 277.5,-115 181.5,-115"/>
<text text-anchor="start" x="189.5" y="-133" font-family="Helvetica,sans-Serif" font-size="10.00">xtb_pbc_tools::cell</text>
<text text-anchor="middle" x="229.5" y="-122" font-family="Helvetica,sans-Serif" font-size="10.00">_to_dlat</text>
</a>
</g>
</g>
<!-- Node1&#45;&gt;Node3 -->
<g id="edge2" class="edge">
<title>Node1&#45;&gt;Node3</title>
<path fill="none" stroke="midnightblue" d="M118.83,-101.02C135.84,-105.51 154.5,-110.44 171.52,-114.94"/>
<polygon fill="midnightblue" stroke="midnightblue" points="170.76,-118.36 181.32,-117.53 172.55,-111.59 170.76,-118.36"/>
</g>
<!-- Node5 -->
<g id="node5" class="node">
<title>Node5</title>
<g id="a_node5"><a xlink:href="io_2reader_2turbomole_8f90.html#a082f3f13693ff13102e215b4454f7cb4" target="_top" xlink:title=" ">
<polygon fill="white" stroke="black" points="197.5,-76.5 197.5,-95.5 261.5,-95.5 261.5,-76.5 197.5,-76.5"/>
<text text-anchor="middle" x="229.5" y="-83.5" font-family="Helvetica,sans-Serif" font-size="10.00">select_unit</text>
</a>
</g>
</g>
<!-- Node1&#45;&gt;Node5 -->
<g id="edge4" class="edge">
<title>Node1&#45;&gt;Node5</title>
<path fill="none" stroke="midnightblue" d="M122.11,-86C143.74,-86 167.64,-86 187.3,-86"/>
<polygon fill="midnightblue" stroke="midnightblue" points="187.45,-89.5 197.45,-86 187.45,-82.5 187.45,-89.5"/>
</g>
<!-- Node6 -->
<g id="node6" class="node">
<title>Node6</title>
<g id="a_node6"><a xlink:href="namespacextb__mctc__symbols.html#a415078dcb669ace05def9d5ccfad86fa" target="_top" xlink:title="Convert element symbol to atomic number.">
<polygon fill="white" stroke="black" points="158,-38.5 158,-57.5 301,-57.5 301,-38.5 158,-38.5"/>
<text text-anchor="middle" x="229.5" y="-45.5" font-family="Helvetica,sans-Serif" font-size="10.00">xtb_mctc_symbols::tonumber</text>
</a>
</g>
</g>
<!-- Node1&#45;&gt;Node6 -->
<g id="edge5" class="edge">
<title>Node1&#45;&gt;Node6</title>
<path fill="none" stroke="midnightblue" d="M122.11,-72.28C140.02,-68.19 159.48,-63.75 176.8,-59.8"/>
<polygon fill="midnightblue" stroke="midnightblue" points="177.76,-63.17 186.73,-57.53 176.2,-56.35 177.76,-63.17"/>
</g>
<!-- Node8 -->
<g id="node8" class="node">
<title>Node8</title>
<g id="a_node8"><a xlink:href="symmetry__i_8c.html#aa77c823a9fc018ae1d437369708d8727" target="_top" xlink:title=" ">
<polygon fill="white" stroke="black" points="213,-0.5 213,-19.5 246,-19.5 246,-0.5 213,-0.5"/>
<text text-anchor="middle" x="229.5" y="-7.5" font-family="Helvetica,sans-Serif" font-size="10.00">true</text>
</a>
</g>
</g>
<!-- Node1&#45;&gt;Node8 -->
<g id="edge7" class="edge">
<title>Node1&#45;&gt;Node8</title>
<path fill="none" stroke="midnightblue" d="M83.59,-70.84C102.48,-58.17 131.04,-40.39 158,-29 172.37,-22.93 189.23,-18.3 202.85,-15.14"/>
<polygon fill="midnightblue" stroke="midnightblue" points="203.96,-18.48 212.97,-12.91 202.45,-11.64 203.96,-18.48"/>
</g>
<!-- Node4 -->
<g id="node4" class="node">
<title>Node4</title>
<g id="a_node4"><a xlink:href="namespacextb__pbc__tools.html#aa6debe70834a4136aa3c12c27dc5dc59" target="_top" xlink:title="calculate the cell volume from the cell parameters">
<polygon fill="white" stroke="black" points="375.5,-115 375.5,-145 471.5,-145 471.5,-115 375.5,-115"/>
<text text-anchor="start" x="383.5" y="-133" font-family="Helvetica,sans-Serif" font-size="10.00">xtb_pbc_tools::cell</text>
<text text-anchor="middle" x="423.5" y="-122" font-family="Helvetica,sans-Serif" font-size="10.00">_to_dvol</text>
</a>
</g>
</g>
<!-- Node3&#45;&gt;Node4 -->
<g id="edge3" class="edge">
<title>Node3&#45;&gt;Node4</title>
<path fill="none" stroke="midnightblue" d="M277.96,-130C304.25,-130 337.13,-130 364.89,-130"/>
<polygon fill="midnightblue" stroke="midnightblue" points="365.25,-133.5 375.25,-130 365.25,-126.5 365.25,-133.5"/>
</g>
<!-- Node7 -->
<g id="node7" class="node">
<title>Node7</title>
<g id="a_node7"><a xlink:href="namespacextb__mctc__symbols.html#a6443a2bd18736176be30e8db1ddc89dd" target="_top" xlink:title="Convert element symbol to atomic number.">
<polygon fill="white" stroke="black" points="337,-38.5 337,-57.5 510,-57.5 510,-38.5 337,-38.5"/>
<text text-anchor="middle" x="423.5" y="-45.5" font-family="Helvetica,sans-Serif" font-size="10.00">xtb_mctc_symbols::symboltonumber</text>
</a>
</g>
</g>
<!-- Node6&#45;&gt;Node7 -->
<g id="edge6" class="edge">
<title>Node6&#45;&gt;Node7</title>
<path fill="none" stroke="midnightblue" d="M301.18,-48C309.55,-48 318.21,-48 326.86,-48"/>
<polygon fill="midnightblue" stroke="midnightblue" points="326.99,-51.5 336.99,-48 326.99,-44.5 326.99,-51.5"/>
</g>
</g>
</svg>
