<?xml version="1.0" encoding="UTF-8" standalone="no"?>
<!DOCTYPE svg PUBLIC "-//W3C//DTD SVG 1.1//EN"
 "http://www.w3.org/Graphics/SVG/1.1/DTD/svg11.dtd">
<!-- Generated by graphviz version 2.46.0 (20210122.1329)
 -->
<!-- Title: xtb_iniq::iniqcn_gfn1 Pages: 1 -->
<svg width="1063pt" height="979pt"
 viewBox="0.00 0.00 1063.00 978.77" xmlns="http://www.w3.org/2000/svg" xmlns:xlink="http://www.w3.org/1999/xlink">
<g id="graph0" class="graph" transform="scale(1 1) rotate(0) translate(4 974.77)">
<title>xtb_iniq::iniqcn_gfn1</title>
<polygon fill="white" stroke="transparent" points="-4,4 -4,-974.77 1059,-974.77 1059,4 -4,4"/>
<!-- Node1 -->
<g id="node1" class="node">
<title>Node1</title>
<g id="a_node1"><a xlink:title=" ">
<polygon fill="#bfbfbf" stroke="black" points="951,-449.77 951,-468.77 1055,-468.77 1055,-449.77 951,-449.77"/>
<text text-anchor="middle" x="1003" y="-456.77" font-family="Helvetica,sans-Serif" font-size="10.00">xtb_iniq::iniqcn_gfn1</text>
</a>
</g>
</g>
<!-- Node2 -->
<g id="node2" class="node">
<title>Node2</title>
<g id="a_node2"><a xlink:href="namespacextb__iniq.html#a585fc5ad69fcd03084fa301ecc7225b0" target="_top" xlink:title=" ">
<polygon fill="white" stroke="black" points="835,-449.77 835,-468.77 915,-468.77 915,-449.77 835,-449.77"/>
<text text-anchor="middle" x="875" y="-456.77" font-family="Helvetica,sans-Serif" font-size="10.00">xtb_iniq::iniqcn</text>
</a>
</g>
</g>
<!-- Node1&#45;&gt;Node2 -->
<g id="edge1" class="edge">
<title>Node1&#45;&gt;Node2</title>
<path fill="none" stroke="midnightblue" d="M940.65,-459.27C932,-459.27 923.3,-459.27 915.22,-459.27"/>
<polygon fill="midnightblue" stroke="midnightblue" points="940.75,-462.77 950.75,-459.27 940.75,-455.77 940.75,-462.77"/>
</g>
<!-- Node3 -->
<g id="node3" class="node">
<title>Node3</title>
<g id="a_node3"><a xlink:href="namespacextb__main__setup.html#a21653c5e0321c97c79524c4934ad81ae" target="_top" xlink:title=" ">
<polygon fill="white" stroke="black" points="629,-468.77 629,-487.77 799,-487.77 799,-468.77 629,-468.77"/>
<text text-anchor="middle" x="714" y="-475.77" font-family="Helvetica,sans-Serif" font-size="10.00">xtb_main_setup::newwavefunction_</text>
</a>
</g>
</g>
<!-- Node2&#45;&gt;Node3 -->
<g id="edge2" class="edge">
<title>Node2&#45;&gt;Node3</title>
<path fill="none" stroke="midnightblue" d="M824.62,-465.17C815.05,-466.31 804.81,-467.54 794.56,-468.76"/>
<polygon fill="midnightblue" stroke="midnightblue" points="825.18,-468.63 834.7,-463.97 824.35,-461.68 825.18,-468.63"/>
</g>
<!-- Node31 -->
<g id="node31" class="node">
<title>Node31</title>
<g id="a_node31"><a xlink:href="namespacextb__prog__main.html#a92b3b61ee04235e6343f652095682529" target="_top" xlink:title=" ">
<polygon fill="white" stroke="black" points="655,-430.77 655,-449.77 773,-449.77 773,-430.77 655,-430.77"/>
<text text-anchor="middle" x="714" y="-437.77" font-family="Helvetica,sans-Serif" font-size="10.00">xtb_prog_main::xtbmain</text>
</a>
</g>
</g>
<!-- Node2&#45;&gt;Node31 -->
<g id="edge52" class="edge">
<title>Node2&#45;&gt;Node31</title>
<path fill="none" stroke="midnightblue" d="M824.33,-453.33C808.08,-451.39 789.89,-449.22 773.07,-447.21"/>
<polygon fill="midnightblue" stroke="midnightblue" points="824.35,-456.86 834.7,-454.57 825.18,-449.91 824.35,-456.86"/>
</g>
<!-- Node4 -->
<g id="node4" class="node">
<title>Node4</title>
<g id="a_node4"><a xlink:href="namespacextb__main__setup.html#af60fc4953f1c0e27f93b8cdc246eca83" target="_top" xlink:title=" ">
<polygon fill="white" stroke="black" points="428,-468.77 428,-487.77 593,-487.77 593,-468.77 428,-468.77"/>
<text text-anchor="middle" x="510.5" y="-475.77" font-family="Helvetica,sans-Serif" font-size="10.00">xtb_main_setup::newwavefunction</text>
</a>
</g>
</g>
<!-- Node3&#45;&gt;Node4 -->
<g id="edge3" class="edge">
<title>Node3&#45;&gt;Node4</title>
<path fill="none" stroke="midnightblue" d="M618.46,-478.27C610.01,-478.27 601.51,-478.27 593.19,-478.27"/>
<polygon fill="midnightblue" stroke="midnightblue" points="618.71,-481.77 628.71,-478.27 618.71,-474.77 618.71,-481.77"/>
</g>
<!-- Node5 -->
<g id="node5" class="node">
<title>Node5</title>
<g id="a_node5"><a xlink:href="namespacextb__api__interface.html#a7e2b6eb7d3bee5044eb00fd1b01d508c" target="_top" xlink:title=" ">
<polygon fill="white" stroke="black" points="294,-940.27 294,-970.27 389,-970.27 389,-940.27 294,-940.27"/>
<text text-anchor="start" x="302" y="-958.27" font-family="Helvetica,sans-Serif" font-size="10.00">xtb_api_interface::</text>
<text text-anchor="middle" x="341.5" y="-947.27" font-family="Helvetica,sans-Serif" font-size="10.00">singlepoint_api</text>
</a>
</g>
</g>
<!-- Node4&#45;&gt;Node5 -->
<g id="edge4" class="edge">
<title>Node4&#45;&gt;Node5</title>
<path fill="none" stroke="midnightblue" d="M509.37,-498.28C507.95,-565.53 495.27,-786.99 392,-925.27 387.61,-931.15 381.7,-936.11 375.49,-940.21"/>
<polygon fill="midnightblue" stroke="midnightblue" points="512.87,-497.93 509.52,-487.88 505.88,-497.83 512.87,-497.93"/>
</g>
<!-- Node6 -->
<g id="node6" class="node">
<title>Node6</title>
<g id="a_node6"><a xlink:href="TESTSUITE_2gfn0_8f90.html#ad2ca0eac6e8faac5aee1f1c04fb3d5d6" target="_top" xlink:title=" ">
<polygon fill="white" stroke="black" points="142,-900.77 142,-919.77 217,-919.77 217,-900.77 142,-900.77"/>
<text text-anchor="middle" x="179.5" y="-907.77" font-family="Helvetica,sans-Serif" font-size="10.00">test_gfn0_api</text>
</a>
</g>
</g>
<!-- Node4&#45;&gt;Node6 -->
<g id="edge5" class="edge">
<title>Node4&#45;&gt;Node6</title>
<path fill="none" stroke="midnightblue" d="M509.57,-498.19C508.68,-560.53 497.14,-753.66 392,-854.27 344.25,-899.96 263.7,-909.41 217,-910.78"/>
<polygon fill="midnightblue" stroke="midnightblue" points="513.08,-497.85 509.64,-487.83 506.08,-497.81 513.08,-497.85"/>
</g>
<!-- Node8 -->
<g id="node8" class="node">
<title>Node8</title>
<g id="a_node8"><a xlink:href="TESTSUITE_2gfn0_8f90.html#ae7a4844af5e348fce6ad37d938d3cd25" target="_top" xlink:title=" ">
<polygon fill="white" stroke="black" points="132.5,-861.77 132.5,-880.77 226.5,-880.77 226.5,-861.77 132.5,-861.77"/>
<text text-anchor="middle" x="179.5" y="-868.77" font-family="Helvetica,sans-Serif" font-size="10.00">test_gfn0_api_srb</text>
</a>
</g>
</g>
<!-- Node4&#45;&gt;Node8 -->
<g id="edge7" class="edge">
<title>Node4&#45;&gt;Node8</title>
<path fill="none" stroke="midnightblue" d="M508.89,-497.89C505.97,-556.1 489.12,-729.27 392,-818.27 346.79,-859.7 274.1,-869.92 226.82,-871.84"/>
<polygon fill="midnightblue" stroke="midnightblue" points="512.39,-497.98 509.31,-487.84 505.39,-497.69 512.39,-497.98"/>
</g>
<!-- Node9 -->
<g id="node9" class="node">
<title>Node9</title>
<g id="a_node9"><a xlink:href="TESTSUITE_2gfn0_8f90.html#af9aea625a1cc2d244354c4688d85f069" target="_top" xlink:title=" ">
<polygon fill="white" stroke="black" points="129,-810.27 129,-840.27 230,-840.27 230,-810.27 129,-810.27"/>
<text text-anchor="start" x="137" y="-828.27" font-family="Helvetica,sans-Serif" font-size="10.00">test_gfn0_mindless</text>
<text text-anchor="middle" x="179.5" y="-817.27" font-family="Helvetica,sans-Serif" font-size="10.00">_basic</text>
</a>
</g>
</g>
<!-- Node4&#45;&gt;Node9 -->
<g id="edge9" class="edge">
<title>Node4&#45;&gt;Node9</title>
<path fill="none" stroke="midnightblue" d="M508.31,-498.05C503.86,-553.08 483.38,-708.91 392,-785.27 346.84,-823.01 277.19,-829.45 230.28,-828.82"/>
<polygon fill="midnightblue" stroke="midnightblue" points="511.81,-498.13 509.03,-487.9 504.83,-497.63 511.81,-498.13"/>
</g>
<!-- Node10 -->
<g id="node10" class="node">
<title>Node10</title>
<g id="a_node10"><a xlink:href="TESTSUITE_2gfn0_8f90.html#a68420832428671e396fef51203d23bcc" target="_top" xlink:title=" ">
<polygon fill="white" stroke="black" points="129,-757.27 129,-787.27 230,-787.27 230,-757.27 129,-757.27"/>
<text text-anchor="start" x="137" y="-775.27" font-family="Helvetica,sans-Serif" font-size="10.00">test_gfn0_mindless</text>
<text text-anchor="middle" x="179.5" y="-764.27" font-family="Helvetica,sans-Serif" font-size="10.00">_solvation</text>
</a>
</g>
</g>
<!-- Node4&#45;&gt;Node10 -->
<g id="edge11" class="edge">
<title>Node4&#45;&gt;Node10</title>
<path fill="none" stroke="midnightblue" d="M507.98,-497.84C502.75,-550.2 480.57,-693.83 392,-757.27 345.16,-790.81 276.55,-788.95 230.29,-782.44"/>
<polygon fill="midnightblue" stroke="midnightblue" points="511.47,-498.13 508.87,-487.85 504.49,-497.5 511.47,-498.13"/>
</g>
<!-- Node11 -->
<g id="node11" class="node">
<title>Node11</title>
<g id="a_node11"><a xlink:href="TESTSUITE_2gfn1_8f90.html#abe41d4ad906b878400fafc939111175d" target="_top" xlink:title=" ">
<polygon fill="white" stroke="black" points="142,-710.77 142,-729.77 217,-729.77 217,-710.77 142,-710.77"/>
<text text-anchor="middle" x="179.5" y="-717.77" font-family="Helvetica,sans-Serif" font-size="10.00">test_gfn1_api</text>
</a>
</g>
</g>
<!-- Node4&#45;&gt;Node11 -->
<g id="edge13" class="edge">
<title>Node4&#45;&gt;Node11</title>
<path fill="none" stroke="midnightblue" d="M507.66,-498.02C501.74,-548.91 478.17,-684.48 392,-740.27 363.98,-758.41 269.86,-740.9 217.11,-729.09"/>
<polygon fill="midnightblue" stroke="midnightblue" points="511.15,-498.31 508.72,-487.99 504.19,-497.57 511.15,-498.31"/>
</g>
<!-- Node12 -->
<g id="node12" class="node">
<title>Node12</title>
<g id="a_node12"><a xlink:href="namespacetest__hessian.html#a696b2a220cd73168272e18f3c57d4907" target="_top" xlink:title=" ">
<polygon fill="white" stroke="black" points="295,-700.27 295,-730.27 388,-730.27 388,-700.27 295,-700.27"/>
<text text-anchor="start" x="303" y="-718.27" font-family="Helvetica,sans-Serif" font-size="10.00">test_hessian::test</text>
<text text-anchor="middle" x="341.5" y="-707.27" font-family="Helvetica,sans-Serif" font-size="10.00">_gfn1_hessian</text>
</a>
</g>
</g>
<!-- Node4&#45;&gt;Node12 -->
<g id="edge15" class="edge">
<title>Node4&#45;&gt;Node12</title>
<path fill="none" stroke="midnightblue" d="M503.35,-497.65C489.54,-538.39 452.47,-633.9 392,-691.27 388.47,-694.62 384.38,-697.59 380.09,-700.2"/>
<polygon fill="midnightblue" stroke="midnightblue" points="506.69,-498.69 506.49,-488.1 500.04,-496.5 506.69,-498.69"/>
</g>
<!-- Node14 -->
<g id="node14" class="node">
<title>Node14</title>
<g id="a_node14"><a xlink:href="TESTSUITE_2gfn1_8f90.html#ad89d89ff73f2ceea96f403ea85561032" target="_top" xlink:title=" ">
<polygon fill="white" stroke="black" points="291,-602.27 291,-632.27 392,-632.27 392,-602.27 291,-602.27"/>
<text text-anchor="start" x="299" y="-620.27" font-family="Helvetica,sans-Serif" font-size="10.00">test_gfn1_mindless</text>
<text text-anchor="middle" x="341.5" y="-609.27" font-family="Helvetica,sans-Serif" font-size="10.00">_basic</text>
</a>
</g>
</g>
<!-- Node4&#45;&gt;Node14 -->
<g id="edge18" class="edge">
<title>Node4&#45;&gt;Node14</title>
<path fill="none" stroke="midnightblue" d="M493.16,-495.46C471.3,-517.98 430.77,-558.01 392,-587.27 385.02,-592.54 377.07,-597.69 369.61,-602.19"/>
<polygon fill="midnightblue" stroke="midnightblue" points="495.92,-497.64 500.34,-488.01 490.88,-492.79 495.92,-497.64"/>
</g>
<!-- Node15 -->
<g id="node15" class="node">
<title>Node15</title>
<g id="a_node15"><a xlink:href="TESTSUITE_2gfn1_8f90.html#a1e6bbb9dcd9a59e4ae8cdcfebde28e32" target="_top" xlink:title=" ">
<polygon fill="white" stroke="black" points="129,-564.27 129,-594.27 230,-594.27 230,-564.27 129,-564.27"/>
<text text-anchor="start" x="137" y="-582.27" font-family="Helvetica,sans-Serif" font-size="10.00">test_gfn1_mindless</text>
<text text-anchor="middle" x="179.5" y="-571.27" font-family="Helvetica,sans-Serif" font-size="10.00">_solvation</text>
</a>
</g>
</g>
<!-- Node4&#45;&gt;Node15 -->
<g id="edge20" class="edge">
<title>Node4&#45;&gt;Node15</title>
<path fill="none" stroke="midnightblue" d="M477.35,-491.65C453.92,-501.14 421.28,-513.82 392,-523.27 337.24,-540.95 273.22,-557.32 230.08,-567.73"/>
<polygon fill="midnightblue" stroke="midnightblue" points="478.86,-494.82 486.79,-487.8 476.21,-488.34 478.86,-494.82"/>
</g>
<!-- Node16 -->
<g id="node16" class="node">
<title>Node16</title>
<g id="a_node16"><a xlink:href="TESTSUITE_2gfn1_8f90.html#a30ff8f20e9f97fe83d17dcbce7e3c909" target="_top" xlink:title=" ">
<polygon fill="white" stroke="black" points="135,-525.77 135,-544.77 224,-544.77 224,-525.77 135,-525.77"/>
<text text-anchor="middle" x="179.5" y="-532.77" font-family="Helvetica,sans-Serif" font-size="10.00">test_gfn1_pbc3d</text>
</a>
</g>
</g>
<!-- Node4&#45;&gt;Node16 -->
<g id="edge22" class="edge">
<title>Node4&#45;&gt;Node16</title>
<path fill="none" stroke="midnightblue" d="M452.84,-489.76C433.56,-493.57 411.87,-497.73 392,-501.27 334.15,-511.58 267.14,-522.11 224.32,-528.67"/>
<polygon fill="midnightblue" stroke="midnightblue" points="453.56,-493.19 462.68,-487.81 452.19,-486.32 453.56,-493.19"/>
</g>
<!-- Node17 -->
<g id="node17" class="node">
<title>Node17</title>
<g id="a_node17"><a xlink:href="TESTSUITE_2gfn1_8f90.html#ac31f203722d8bcd244f862a758833c52" target="_top" xlink:title=" ">
<polygon fill="white" stroke="black" points="127.5,-487.77 127.5,-506.77 231.5,-506.77 231.5,-487.77 127.5,-487.77"/>
<text text-anchor="middle" x="179.5" y="-494.77" font-family="Helvetica,sans-Serif" font-size="10.00">test_gfn1_pcem_api</text>
</a>
</g>
</g>
<!-- Node4&#45;&gt;Node17 -->
<g id="edge24" class="edge">
<title>Node4&#45;&gt;Node17</title>
<path fill="none" stroke="midnightblue" d="M417.49,-483.58C357.37,-487.06 281.1,-491.46 231.57,-494.32"/>
<polygon fill="midnightblue" stroke="midnightblue" points="417.97,-487.06 427.75,-482.99 417.57,-480.07 417.97,-487.06"/>
</g>
<!-- Node18 -->
<g id="node18" class="node">
<title>Node18</title>
<g id="a_node18"><a xlink:href="TESTSUITE_2gfn1_8f90.html#abbfab6177e30eca12113e729bde19ce5" target="_top" xlink:title=" ">
<polygon fill="white" stroke="black" points="143.5,-449.77 143.5,-468.77 215.5,-468.77 215.5,-449.77 143.5,-449.77"/>
<text text-anchor="middle" x="179.5" y="-456.77" font-family="Helvetica,sans-Serif" font-size="10.00">test_gfn1_xb</text>
</a>
</g>
</g>
<!-- Node4&#45;&gt;Node18 -->
<g id="edge26" class="edge">
<title>Node4&#45;&gt;Node18</title>
<path fill="none" stroke="midnightblue" d="M417.6,-472.96C350.57,-469.09 263.43,-464.06 215.66,-461.3"/>
<polygon fill="midnightblue" stroke="midnightblue" points="417.57,-476.47 427.75,-473.55 417.97,-469.48 417.57,-476.47"/>
</g>
<!-- Node19 -->
<g id="node19" class="node">
<title>Node19</title>
<g id="a_node19"><a xlink:href="TESTSUITE_2gfn1_8f90.html#a1490695b43193805cceeef8a37fcbf7c" target="_top" xlink:title=" ">
<polygon fill="white" stroke="black" points="131.5,-411.77 131.5,-430.77 227.5,-430.77 227.5,-411.77 131.5,-411.77"/>
<text text-anchor="middle" x="179.5" y="-418.77" font-family="Helvetica,sans-Serif" font-size="10.00">test_gfn1gbsa_api</text>
</a>
</g>
</g>
<!-- Node4&#45;&gt;Node19 -->
<g id="edge28" class="edge">
<title>Node4&#45;&gt;Node19</title>
<path fill="none" stroke="midnightblue" d="M444.47,-467C380.58,-455.93 284.65,-439.31 227.73,-429.45"/>
<polygon fill="midnightblue" stroke="midnightblue" points="443.98,-470.47 454.43,-468.73 445.18,-463.57 443.98,-470.47"/>
</g>
<!-- Node20 -->
<g id="node20" class="node">
<title>Node20</title>
<g id="a_node20"><a xlink:href="TESTSUITE_2gfn2_8f90.html#a70d451e4314ff3bf542cb76987d99403" target="_top" xlink:title=" ">
<polygon fill="white" stroke="black" points="142,-373.77 142,-392.77 217,-392.77 217,-373.77 142,-373.77"/>
<text text-anchor="middle" x="179.5" y="-380.77" font-family="Helvetica,sans-Serif" font-size="10.00">test_gfn2_api</text>
</a>
</g>
</g>
<!-- Node4&#45;&gt;Node20 -->
<g id="edge30" class="edge">
<title>Node4&#45;&gt;Node20</title>
<path fill="none" stroke="midnightblue" d="M447.59,-466.05C440.88,-464.07 434.23,-461.82 428,-459.27 410.65,-452.16 409.28,-444.56 392,-437.27 334.1,-412.84 315.89,-417.81 255,-402.27 242.71,-399.13 229.29,-395.71 217.26,-392.64"/>
<polygon fill="midnightblue" stroke="midnightblue" points="446.85,-469.48 457.42,-468.75 448.7,-462.73 446.85,-469.48"/>
</g>
<!-- Node21 -->
<g id="node21" class="node">
<title>Node21</title>
<g id="a_node21"><a xlink:href="TESTSUITE_2gfn2_8f90.html#af04fdb55f7b260a1fcd7b8edd8324f3b" target="_top" xlink:title=" ">
<polygon fill="white" stroke="black" points="295.5,-335.77 295.5,-354.77 387.5,-354.77 387.5,-335.77 295.5,-335.77"/>
<text text-anchor="middle" x="341.5" y="-342.77" font-family="Helvetica,sans-Serif" font-size="10.00">test_gfn2_dmetal</text>
</a>
</g>
</g>
<!-- Node4&#45;&gt;Node21 -->
<g id="edge32" class="edge">
<title>Node4&#45;&gt;Node21</title>
<path fill="none" stroke="midnightblue" d="M433.66,-463.54C431.68,-462.23 429.79,-460.81 428,-459.27 395.32,-431.2 421.36,-400.79 392,-369.27 386.34,-363.19 378.81,-358.47 371.33,-354.89"/>
<polygon fill="midnightblue" stroke="midnightblue" points="432.32,-466.8 442.76,-468.6 435.73,-460.68 432.32,-466.8"/>
</g>
<!-- Node22 -->
<g id="node22" class="node">
<title>Node22</title>
<g id="a_node22"><a xlink:href="namespacetest__hessian.html#aa2cbc8daec8e2dacc7b6f3c63d0a3520" target="_top" xlink:title=" ">
<polygon fill="white" stroke="black" points="295,-651.27 295,-681.27 388,-681.27 388,-651.27 295,-651.27"/>
<text text-anchor="start" x="303" y="-669.27" font-family="Helvetica,sans-Serif" font-size="10.00">test_hessian::test</text>
<text text-anchor="middle" x="341.5" y="-658.27" font-family="Helvetica,sans-Serif" font-size="10.00">_gfn2_hessian</text>
</a>
</g>
</g>
<!-- Node4&#45;&gt;Node22 -->
<g id="edge34" class="edge">
<title>Node4&#45;&gt;Node22</title>
<path fill="none" stroke="midnightblue" d="M500.08,-497.11C482.71,-530.25 442.73,-599.52 392,-642.27 388.06,-645.59 383.57,-648.58 378.96,-651.23"/>
<polygon fill="midnightblue" stroke="midnightblue" points="503.28,-498.55 504.73,-488.05 497.05,-495.35 503.28,-498.55"/>
</g>
<!-- Node23 -->
<g id="node23" class="node">
<title>Node23</title>
<g id="a_node23"><a xlink:href="TESTSUITE_2gfn2_8f90.html#a1eefadfec1879c0b6523b30390aa7e5d" target="_top" xlink:title=" ">
<polygon fill="white" stroke="black" points="291,-286.27 291,-316.27 392,-316.27 392,-286.27 291,-286.27"/>
<text text-anchor="start" x="299" y="-304.27" font-family="Helvetica,sans-Serif" font-size="10.00">test_gfn2_mindless</text>
<text text-anchor="middle" x="341.5" y="-293.27" font-family="Helvetica,sans-Serif" font-size="10.00">_basic</text>
</a>
</g>
</g>
<!-- Node4&#45;&gt;Node23 -->
<g id="edge36" class="edge">
<title>Node4&#45;&gt;Node23</title>
<path fill="none" stroke="midnightblue" d="M432.71,-463.29C431.07,-462.04 429.49,-460.71 428,-459.27 383.94,-416.74 430.68,-373.74 392,-326.27 388.96,-322.54 385.22,-319.31 381.17,-316.53"/>
<polygon fill="midnightblue" stroke="midnightblue" points="431.15,-466.44 441.5,-468.74 434.85,-460.49 431.15,-466.44"/>
</g>
<!-- Node24 -->
<g id="node24" class="node">
<title>Node24</title>
<g id="a_node24"><a xlink:href="TESTSUITE_2gfn2_8f90.html#a4f23556f554318a8e634c449c615c141" target="_top" xlink:title=" ">
<polygon fill="white" stroke="black" points="291,-237.27 291,-267.27 392,-267.27 392,-237.27 291,-237.27"/>
<text text-anchor="start" x="299" y="-255.27" font-family="Helvetica,sans-Serif" font-size="10.00">test_gfn2_mindless</text>
<text text-anchor="middle" x="341.5" y="-244.27" font-family="Helvetica,sans-Serif" font-size="10.00">_solvation</text>
</a>
</g>
</g>
<!-- Node4&#45;&gt;Node24 -->
<g id="edge38" class="edge">
<title>Node4&#45;&gt;Node24</title>
<path fill="none" stroke="midnightblue" d="M431.95,-462.91C430.57,-461.78 429.25,-460.56 428,-459.27 370.41,-399.65 442.61,-341.92 392,-276.27 389.43,-272.94 386.29,-270.05 382.84,-267.54"/>
<polygon fill="midnightblue" stroke="midnightblue" points="430.18,-465.94 440.43,-468.63 434.09,-460.14 430.18,-465.94"/>
</g>
<!-- Node25 -->
<g id="node25" class="node">
<title>Node25</title>
<g id="a_node25"><a xlink:href="TESTSUITE_2gfn2_8f90.html#ac81932f59165e0c385bd69cb64d26596" target="_top" xlink:title=" ">
<polygon fill="white" stroke="black" points="127.5,-218.77 127.5,-237.77 231.5,-237.77 231.5,-218.77 127.5,-218.77"/>
<text text-anchor="middle" x="179.5" y="-225.77" font-family="Helvetica,sans-Serif" font-size="10.00">test_gfn2_pcem_api</text>
</a>
</g>
</g>
<!-- Node4&#45;&gt;Node25 -->
<g id="edge40" class="edge">
<title>Node4&#45;&gt;Node25</title>
<path fill="none" stroke="midnightblue" d="M431.4,-462.57C430.22,-461.54 429.08,-460.43 428,-459.27 357.04,-382.77 471.24,-295.16 392,-227.27 339.44,-182.24 249.61,-204.06 205.9,-218.71"/>
<polygon fill="midnightblue" stroke="midnightblue" points="429.7,-465.66 439.89,-468.57 433.74,-459.94 429.7,-465.66"/>
</g>
<!-- Node26 -->
<g id="node26" class="node">
<title>Node26</title>
<g id="a_node26"><a xlink:href="TESTSUITE_2gfn2_8f90.html#aed7ca214cd762d9050db7170b51a35c8" target="_top" xlink:title=" ">
<polygon fill="white" stroke="black" points="293.5,-160.77 293.5,-179.77 389.5,-179.77 389.5,-160.77 293.5,-160.77"/>
<text text-anchor="middle" x="341.5" y="-167.77" font-family="Helvetica,sans-Serif" font-size="10.00">test_gfn2gbsa_api</text>
</a>
</g>
</g>
<!-- Node4&#45;&gt;Node26 -->
<g id="edge42" class="edge">
<title>Node4&#45;&gt;Node26</title>
<path fill="none" stroke="midnightblue" d="M431.37,-462.6C430.2,-461.55 429.07,-460.45 428,-459.27 348,-371.37 461.75,-290.51 392,-194.27 387.46,-188.01 380.84,-183.3 373.9,-179.8"/>
<polygon fill="midnightblue" stroke="midnightblue" points="429.64,-465.66 439.81,-468.65 433.72,-459.98 429.64,-465.66"/>
</g>
<!-- Node27 -->
<g id="node27" class="node">
<title>Node27</title>
<g id="a_node27"><a xlink:href="TESTSUITE_2gfn2_8f90.html#ad7949dacaa3e9437ec5b0ba340a3fd0a" target="_top" xlink:title=" ">
<polygon fill="white" stroke="black" points="296,-122.77 296,-141.77 387,-141.77 387,-122.77 296,-122.77"/>
<text text-anchor="middle" x="341.5" y="-129.77" font-family="Helvetica,sans-Serif" font-size="10.00">test_gfn2salt_api</text>
</a>
</g>
</g>
<!-- Node4&#45;&gt;Node27 -->
<g id="edge44" class="edge">
<title>Node4&#45;&gt;Node27</title>
<path fill="none" stroke="midnightblue" d="M431.34,-462.63C430.18,-461.57 429.06,-460.46 428,-459.27 336.19,-356.48 476.54,-260.12 392,-151.27 389.06,-147.49 385.28,-144.46 381.11,-142.03"/>
<polygon fill="midnightblue" stroke="midnightblue" points="429.58,-465.67 439.73,-468.72 433.69,-460.01 429.58,-465.67"/>
</g>
<!-- Node28 -->
<g id="node28" class="node">
<title>Node28</title>
<g id="a_node28"><a xlink:href="TESTSUITE_2gfn1_8f90.html#a03515b0f61961cb6b2f5e13846b87f34" target="_top" xlink:title=" ">
<polygon fill="white" stroke="black" points="298,-84.77 298,-103.77 385,-103.77 385,-84.77 298,-84.77"/>
<text text-anchor="middle" x="341.5" y="-91.77" font-family="Helvetica,sans-Serif" font-size="10.00">test_ipea_indole</text>
</a>
</g>
</g>
<!-- Node4&#45;&gt;Node28 -->
<g id="edge46" class="edge">
<title>Node4&#45;&gt;Node28</title>
<path fill="none" stroke="midnightblue" d="M431.32,-462.65C430.16,-461.59 429.05,-460.46 428,-459.27 325.74,-343.31 486.06,-235.98 392,-113.27 389.09,-109.47 385.32,-106.43 381.16,-104"/>
<polygon fill="midnightblue" stroke="midnightblue" points="429.54,-465.68 439.67,-468.77 433.68,-460.03 429.54,-465.68"/>
</g>
<!-- Node29 -->
<g id="node29" class="node">
<title>Node29</title>
<g id="a_node29"><a xlink:href="peeq_8f90.html#af8323e2db7eee67ddad752d011ed55b4" target="_top" xlink:title=" ">
<polygon fill="white" stroke="black" points="303,-46.77 303,-65.77 380,-65.77 380,-46.77 303,-46.77"/>
<text text-anchor="middle" x="341.5" y="-53.77" font-family="Helvetica,sans-Serif" font-size="10.00">test_peeq_api</text>
</a>
</g>
</g>
<!-- Node4&#45;&gt;Node29 -->
<g id="edge48" class="edge">
<title>Node4&#45;&gt;Node29</title>
<path fill="none" stroke="midnightblue" d="M431.21,-462.57C430.09,-461.53 429.02,-460.43 428,-459.27 371.64,-394.7 443.79,-143.56 392,-75.27 388.88,-71.16 384.76,-67.94 380.23,-65.42"/>
<polygon fill="midnightblue" stroke="midnightblue" points="429.15,-465.4 439.26,-468.58 433.34,-459.8 429.15,-465.4"/>
</g>
<!-- Node30 -->
<g id="node30" class="node">
<title>Node30</title>
<g id="a_node30"><a xlink:href="peeq_8f90.html#ae06226ed496a8128c1273abc638b62d0" target="_top" xlink:title=" ">
<polygon fill="white" stroke="black" points="293.5,-8.77 293.5,-27.77 389.5,-27.77 389.5,-8.77 293.5,-8.77"/>
<text text-anchor="middle" x="341.5" y="-15.77" font-family="Helvetica,sans-Serif" font-size="10.00">test_peeq_api_srb</text>
</a>
</g>
</g>
<!-- Node4&#45;&gt;Node30 -->
<g id="edge50" class="edge">
<title>Node4&#45;&gt;Node30</title>
<path fill="none" stroke="midnightblue" d="M431.19,-462.58C430.08,-461.54 429.01,-460.44 428,-459.27 366.41,-388.1 448.56,-112.5 392,-37.27 389.12,-33.44 385.37,-30.39 381.22,-27.95"/>
<polygon fill="midnightblue" stroke="midnightblue" points="429.13,-465.41 439.22,-468.61 433.33,-459.81 429.13,-465.41"/>
</g>
<!-- Node7 -->
<g id="node7" class="node">
<title>Node7</title>
<g id="a_node7"><a xlink:href="tests__peeq_8f90.html#a87ff5319e0d2e627a4f71d7df0d14891" target="_top" xlink:title=" ">
<polygon fill="white" stroke="black" points="0,-430.77 0,-449.77 68,-449.77 68,-430.77 0,-430.77"/>
<text text-anchor="middle" x="34" y="-437.77" font-family="Helvetica,sans-Serif" font-size="10.00">peeq_tester</text>
</a>
</g>
</g>
<!-- Node6&#45;&gt;Node7 -->
<g id="edge6" class="edge">
<title>Node6&#45;&gt;Node7</title>
<path fill="none" stroke="midnightblue" d="M131.83,-906.35C121.37,-903.33 111.24,-898.36 104,-890.27 42.97,-822.12 35.89,-509.24 35.1,-449.97"/>
<polygon fill="midnightblue" stroke="midnightblue" points="131.35,-909.83 141.88,-908.68 132.93,-903.01 131.35,-909.83"/>
</g>
<!-- Node8&#45;&gt;Node7 -->
<g id="edge8" class="edge">
<title>Node8&#45;&gt;Node7</title>
<path fill="none" stroke="midnightblue" d="M122.48,-863.16C115.5,-860.08 109.06,-855.91 104,-850.27 48.44,-788.36 36.99,-505.55 35.26,-449.82"/>
<polygon fill="midnightblue" stroke="midnightblue" points="121.64,-866.58 132.23,-866.72 124.04,-860.01 121.64,-866.58"/>
</g>
<!-- Node9&#45;&gt;Node7 -->
<g id="edge10" class="edge">
<title>Node9&#45;&gt;Node7</title>
<path fill="none" stroke="midnightblue" d="M119.73,-810.11C113.8,-806.67 108.37,-802.45 104,-797.27 57.48,-742.16 39.03,-501.01 35.61,-449.84"/>
<polygon fill="midnightblue" stroke="midnightblue" points="118.19,-813.26 128.69,-814.62 121.33,-807 118.19,-813.26"/>
</g>
<!-- Node10&#45;&gt;Node7 -->
<g id="edge12" class="edge">
<title>Node10&#45;&gt;Node7</title>
<path fill="none" stroke="midnightblue" d="M119.82,-752.93C113.88,-749.13 108.42,-744.62 104,-739.27 65.75,-692.96 41.35,-496.24 36.08,-450.02"/>
<polygon fill="midnightblue" stroke="midnightblue" points="118.37,-756.13 128.8,-758 121.81,-750.03 118.37,-756.13"/>
</g>
<!-- Node11&#45;&gt;Node7 -->
<g id="edge14" class="edge">
<title>Node11&#45;&gt;Node7</title>
<path fill="none" stroke="midnightblue" d="M133.76,-706.72C122.74,-701.53 111.87,-694.55 104,-685.27 41.72,-611.78 35.47,-485.79 34.99,-450"/>
<polygon fill="midnightblue" stroke="midnightblue" points="132.41,-709.94 142.98,-710.66 135.16,-703.51 132.41,-709.94"/>
</g>
<!-- Node13 -->
<g id="node13" class="node">
<title>Node13</title>
<g id="a_node13"><a xlink:href="namespacetest__hessian.html#aa70e893a0726ba1d7adb8ac2fa421d5f" target="_top" xlink:title=" ">
<polygon fill="white" stroke="black" points="104,-656.77 104,-675.77 255,-675.77 255,-656.77 104,-656.77"/>
<text text-anchor="middle" x="179.5" y="-663.77" font-family="Helvetica,sans-Serif" font-size="10.00">test_hessian::run_hessian_test</text>
</a>
</g>
</g>
<!-- Node12&#45;&gt;Node13 -->
<g id="edge16" class="edge">
<title>Node12&#45;&gt;Node13</title>
<path fill="none" stroke="midnightblue" d="M285.07,-698.29C260.5,-690.77 232.5,-682.19 211.66,-675.81"/>
<polygon fill="midnightblue" stroke="midnightblue" points="284.06,-701.65 294.65,-701.23 286.11,-694.95 284.06,-701.65"/>
</g>
<!-- Node13&#45;&gt;Node7 -->
<g id="edge17" class="edge">
<title>Node13&#45;&gt;Node7</title>
<path fill="none" stroke="midnightblue" d="M126.31,-652.7C118.08,-648.77 110.24,-643.72 104,-637.27 50.11,-581.5 38.1,-481.31 35.61,-449.93"/>
<polygon fill="midnightblue" stroke="midnightblue" points="125.14,-656.01 135.71,-656.69 127.87,-649.56 125.14,-656.01"/>
</g>
<!-- Node14&#45;&gt;Node7 -->
<g id="edge19" class="edge">
<title>Node14&#45;&gt;Node7</title>
<path fill="none" stroke="midnightblue" d="M280.77,-630.35C229.23,-638.09 155.21,-640.35 104,-604.27 50.46,-566.56 38.28,-478.84 35.67,-449.8"/>
<polygon fill="midnightblue" stroke="midnightblue" points="281.45,-633.78 290.76,-628.73 280.33,-626.87 281.45,-633.78"/>
</g>
<!-- Node15&#45;&gt;Node7 -->
<g id="edge21" class="edge">
<title>Node15&#45;&gt;Node7</title>
<path fill="none" stroke="midnightblue" d="M119.32,-563.87C113.86,-561.16 108.64,-557.98 104,-554.27 67.7,-525.21 45.87,-471.5 38.16,-449.77"/>
<polygon fill="midnightblue" stroke="midnightblue" points="118.13,-567.17 128.69,-568.01 120.96,-560.77 118.13,-567.17"/>
</g>
<!-- Node16&#45;&gt;Node7 -->
<g id="edge23" class="edge">
<title>Node16&#45;&gt;Node7</title>
<path fill="none" stroke="midnightblue" d="M124.74,-525.62C117.49,-523.17 110.37,-520.1 104,-516.27 75.29,-499 51.54,-466.11 40.94,-449.85"/>
<polygon fill="midnightblue" stroke="midnightblue" points="124.06,-529.06 134.64,-528.59 126.07,-522.36 124.06,-529.06"/>
</g>
<!-- Node17&#45;&gt;Node7 -->
<g id="edge25" class="edge">
<title>Node17&#45;&gt;Node7</title>
<path fill="none" stroke="midnightblue" d="M123.63,-484.97C116.93,-482.98 110.25,-480.74 104,-478.27 84.42,-470.53 63.42,-458.35 49.81,-449.87"/>
<polygon fill="midnightblue" stroke="midnightblue" points="122.82,-488.38 133.4,-487.73 124.72,-481.65 122.82,-488.38"/>
</g>
<!-- Node18&#45;&gt;Node7 -->
<g id="edge27" class="edge">
<title>Node18&#45;&gt;Node7</title>
<path fill="none" stroke="midnightblue" d="M133.37,-453.29C112.28,-450.5 87.62,-447.24 68.26,-444.67"/>
<polygon fill="midnightblue" stroke="midnightblue" points="133.02,-456.78 143.4,-454.62 133.94,-449.84 133.02,-456.78"/>
</g>
<!-- Node19&#45;&gt;Node7 -->
<g id="edge29" class="edge">
<title>Node19&#45;&gt;Node7</title>
<path fill="none" stroke="midnightblue" d="M121.03,-428.88C103.11,-431.25 83.95,-433.79 68.27,-435.86"/>
<polygon fill="midnightblue" stroke="midnightblue" points="121.66,-432.33 131.12,-427.54 120.74,-425.39 121.66,-432.33"/>
</g>
<!-- Node20&#45;&gt;Node7 -->
<g id="edge31" class="edge">
<title>Node20&#45;&gt;Node7</title>
<path fill="none" stroke="midnightblue" d="M132.21,-393.13C122.74,-395.69 112.94,-398.74 104,-402.27 84.42,-410.01 63.42,-422.19 49.81,-430.67"/>
<polygon fill="midnightblue" stroke="midnightblue" points="133.1,-396.52 141.92,-390.64 131.36,-389.74 133.1,-396.52"/>
</g>
<!-- Node21&#45;&gt;Node7 -->
<g id="edge33" class="edge">
<title>Node21&#45;&gt;Node7</title>
<path fill="none" stroke="midnightblue" d="M284.94,-338.59C234.99,-335.09 160.94,-336.28 104,-364.27 73.61,-379.21 50.32,-413.84 40.33,-430.7"/>
<polygon fill="midnightblue" stroke="midnightblue" points="284.97,-342.1 295.22,-339.4 285.52,-335.12 284.97,-342.1"/>
</g>
<!-- Node22&#45;&gt;Node13 -->
<g id="edge35" class="edge">
<title>Node22&#45;&gt;Node13</title>
<path fill="none" stroke="midnightblue" d="M284.53,-666.27C275,-666.27 264.97,-666.27 255.05,-666.27"/>
<polygon fill="midnightblue" stroke="midnightblue" points="284.65,-669.77 294.65,-666.27 284.65,-662.77 284.65,-669.77"/>
</g>
<!-- Node23&#45;&gt;Node7 -->
<g id="edge37" class="edge">
<title>Node23&#45;&gt;Node7</title>
<path fill="none" stroke="midnightblue" d="M280.52,-296.07C229.68,-294.6 156.83,-299.68 104,-333.27 66.69,-356.99 45.56,-408.95 38.11,-430.55"/>
<polygon fill="midnightblue" stroke="midnightblue" points="280.57,-299.57 290.7,-296.46 280.84,-292.58 280.57,-299.57"/>
</g>
<!-- Node24&#45;&gt;Node7 -->
<g id="edge39" class="edge">
<title>Node24&#45;&gt;Node7</title>
<path fill="none" stroke="midnightblue" d="M280.87,-247.73C229.08,-246.93 154.62,-253.71 104,-292.27 56.87,-328.18 40.7,-404.1 36.36,-430.77"/>
<polygon fill="midnightblue" stroke="midnightblue" points="280.83,-251.23 290.92,-247.99 281.01,-244.23 280.83,-251.23"/>
</g>
<!-- Node25&#45;&gt;Node7 -->
<g id="edge41" class="edge">
<title>Node25&#45;&gt;Node7</title>
<path fill="none" stroke="midnightblue" d="M117.94,-242.28C112.86,-245.03 108.1,-248.33 104,-252.27 50.6,-303.57 38.29,-399.65 35.67,-430.48"/>
<polygon fill="midnightblue" stroke="midnightblue" points="119.79,-245.28 127.37,-237.88 116.83,-238.94 119.79,-245.28"/>
</g>
<!-- Node26&#45;&gt;Node7 -->
<g id="edge43" class="edge">
<title>Node26&#45;&gt;Node7</title>
<path fill="none" stroke="midnightblue" d="M283.13,-172.87C221.82,-176.81 129.94,-186.42 104,-209.27 35.52,-269.57 33.63,-394.68 34.58,-430.5"/>
<polygon fill="midnightblue" stroke="midnightblue" points="283.67,-176.34 293.44,-172.24 283.25,-169.35 283.67,-176.34"/>
</g>
<!-- Node27&#45;&gt;Node7 -->
<g id="edge45" class="edge">
<title>Node27&#45;&gt;Node7</title>
<path fill="none" stroke="midnightblue" d="M285.27,-125.85C232.08,-122.89 152.72,-127.5 104,-172.27 64.29,-208.76 41.16,-387.35 36.07,-430.75"/>
<polygon fill="midnightblue" stroke="midnightblue" points="285.33,-129.36 295.54,-126.53 285.8,-122.37 285.33,-129.36"/>
</g>
<!-- Node28&#45;&gt;Node7 -->
<g id="edge47" class="edge">
<title>Node28&#45;&gt;Node7</title>
<path fill="none" stroke="midnightblue" d="M287.86,-85.08C234.62,-79.02 153.34,-79.13 104,-124.27 56.98,-167.29 39.09,-382.48 35.65,-430.68"/>
<polygon fill="midnightblue" stroke="midnightblue" points="287.43,-88.55 297.79,-86.32 288.3,-81.61 287.43,-88.55"/>
</g>
<!-- Node29&#45;&gt;Node7 -->
<g id="edge49" class="edge">
<title>Node29&#45;&gt;Node7</title>
<path fill="none" stroke="midnightblue" d="M292.44,-46.47C239.3,-38.67 154.53,-35.67 104,-82.27 50.84,-131.3 37.61,-378.02 35.38,-430.46"/>
<polygon fill="midnightblue" stroke="midnightblue" points="292.2,-49.98 302.63,-48.08 293.3,-43.06 292.2,-49.98"/>
</g>
<!-- Node30&#45;&gt;Node7 -->
<g id="edge51" class="edge">
<title>Node30&#45;&gt;Node7</title>
<path fill="none" stroke="midnightblue" d="M292.32,-6.85C239.16,2.64 154.48,8.06 104,-38.27 43.88,-93.46 36.08,-375.17 35.13,-430.74"/>
<polygon fill="midnightblue" stroke="midnightblue" points="291.71,-10.29 302.19,-8.72 293.01,-3.42 291.71,-10.29"/>
</g>
<!-- Node32 -->
<g id="node32" class="node">
<title>Node32</title>
<g id="a_node32"><a xlink:href="primary_8f90.html#a2a67903cf5be605c5b6d3c362c6a3c5c" target="_top" xlink:title="The primary driver for the xtb program package.">
<polygon fill="white" stroke="black" points="465.5,-430.77 465.5,-449.77 555.5,-449.77 555.5,-430.77 465.5,-430.77"/>
<text text-anchor="middle" x="510.5" y="-437.77" font-family="Helvetica,sans-Serif" font-size="10.00">xtb_prog_primary</text>
</a>
</g>
</g>
<!-- Node31&#45;&gt;Node32 -->
<g id="edge53" class="edge">
<title>Node31&#45;&gt;Node32</title>
<path fill="none" stroke="midnightblue" d="M644.77,-440.27C615.34,-440.27 581.77,-440.27 555.68,-440.27"/>
<polygon fill="midnightblue" stroke="midnightblue" points="644.99,-443.77 654.99,-440.27 644.99,-436.77 644.99,-443.77"/>
</g>
</g>
</svg>
