<?xml version="1.0" encoding="UTF-8" standalone="no"?>
<!DOCTYPE svg PUBLIC "-//W3C//DTD SVG 1.1//EN"
 "http://www.w3.org/Graphics/SVG/1.1/DTD/svg11.dtd">
<!-- Generated by graphviz version 2.46.1 (20210215.1649)
 -->
<!-- Title: xtb_solv_lebedev::ld5294 Pages: 1 -->
<svg width="297pt" height="180pt"
 viewBox="0.00 0.00 297.00 180.00" xmlns="http://www.w3.org/2000/svg" xmlns:xlink="http://www.w3.org/1999/xlink">
<g id="graph0" class="graph" transform="scale(1 1) rotate(0) translate(4 176)">
<title>xtb_solv_lebedev::ld5294</title>
<polygon fill="white" stroke="transparent" points="-4,4 -4,-176 293,-176 293,4 -4,4"/>
<!-- Node1 -->
<g id="node1" class="node">
<title>Node1</title>
<g id="a_node1"><a xlink:title=" ">
<polygon fill="#bfbfbf" stroke="black" points="0,-76.5 0,-95.5 125,-95.5 125,-76.5 0,-76.5"/>
<text text-anchor="middle" x="62.5" y="-83.5" font-family="Helvetica,sans-Serif" font-size="10.00">xtb_solv_lebedev::ld5294</text>
</a>
</g>
</g>
<!-- Node2 -->
<g id="node2" class="node">
<title>Node2</title>
<g id="a_node2"><a xlink:href="namespacextb__solv__lebedev.html#a3a72086d50f3732015e5e975181edd44" target="_top" xlink:title="generate 6 new points with Oh symmetry from (0,0,1)">
<polygon fill="white" stroke="black" points="161,-152.5 161,-171.5 289,-171.5 289,-152.5 161,-152.5"/>
<text text-anchor="middle" x="225" y="-159.5" font-family="Helvetica,sans-Serif" font-size="10.00">xtb_solv_lebedev::genoh1</text>
</a>
</g>
</g>
<!-- Node1&#45;&gt;Node2 -->
<g id="edge1" class="edge">
<title>Node1&#45;&gt;Node2</title>
<path fill="none" stroke="midnightblue" d="M77.48,-95.6C95.92,-107.94 129.72,-129.37 161,-143 166.3,-145.31 171.97,-147.45 177.65,-149.39"/>
<polygon fill="midnightblue" stroke="midnightblue" points="176.57,-152.72 187.16,-152.48 178.73,-146.07 176.57,-152.72"/>
</g>
<!-- Node3 -->
<g id="node3" class="node">
<title>Node3</title>
<g id="a_node3"><a xlink:href="namespacextb__solv__lebedev.html#a30aebd3b6ab2b86d08745405b1880cb4" target="_top" xlink:title="Generate 8 new points with Oh symmetry from (a,a,a), a=1/sqrt(3)">
<polygon fill="white" stroke="black" points="161,-114.5 161,-133.5 289,-133.5 289,-114.5 161,-114.5"/>
<text text-anchor="middle" x="225" y="-121.5" font-family="Helvetica,sans-Serif" font-size="10.00">xtb_solv_lebedev::genoh3</text>
</a>
</g>
</g>
<!-- Node1&#45;&gt;Node3 -->
<g id="edge2" class="edge">
<title>Node1&#45;&gt;Node3</title>
<path fill="none" stroke="midnightblue" d="M104,-95.59C125.18,-100.6 151.3,-106.79 173.76,-112.11"/>
<polygon fill="midnightblue" stroke="midnightblue" points="173.25,-115.58 183.79,-114.48 174.87,-108.77 173.25,-115.58"/>
</g>
<!-- Node4 -->
<g id="node4" class="node">
<title>Node4</title>
<g id="a_node4"><a xlink:href="namespacextb__solv__lebedev.html#ace2dca4641a6c8cd95f71841438c9e37" target="_top" xlink:title="Generate 24 new points with Oh symmetry from (a,a,b), b=sqrt(1&#45;2 a^2)">
<polygon fill="white" stroke="black" points="161,-76.5 161,-95.5 289,-95.5 289,-76.5 161,-76.5"/>
<text text-anchor="middle" x="225" y="-83.5" font-family="Helvetica,sans-Serif" font-size="10.00">xtb_solv_lebedev::genoh4</text>
</a>
</g>
</g>
<!-- Node1&#45;&gt;Node4 -->
<g id="edge3" class="edge">
<title>Node1&#45;&gt;Node4</title>
<path fill="none" stroke="midnightblue" d="M125.09,-86C133.55,-86 142.29,-86 150.92,-86"/>
<polygon fill="midnightblue" stroke="midnightblue" points="150.98,-89.5 160.98,-86 150.98,-82.5 150.98,-89.5"/>
</g>
<!-- Node5 -->
<g id="node5" class="node">
<title>Node5</title>
<g id="a_node5"><a xlink:href="namespacextb__solv__lebedev.html#a32325297326761ee01acf33626f7467e" target="_top" xlink:title="Generate 24 new points with Oh symmetry from (a,b,0), b=sqrt(1&#45;a^2)">
<polygon fill="white" stroke="black" points="161,-38.5 161,-57.5 289,-57.5 289,-38.5 161,-38.5"/>
<text text-anchor="middle" x="225" y="-45.5" font-family="Helvetica,sans-Serif" font-size="10.00">xtb_solv_lebedev::genoh5</text>
</a>
</g>
</g>
<!-- Node1&#45;&gt;Node5 -->
<g id="edge4" class="edge">
<title>Node1&#45;&gt;Node5</title>
<path fill="none" stroke="midnightblue" d="M104,-76.41C125.18,-71.4 151.3,-65.21 173.76,-59.89"/>
<polygon fill="midnightblue" stroke="midnightblue" points="174.87,-63.23 183.79,-57.52 173.25,-56.42 174.87,-63.23"/>
</g>
<!-- Node6 -->
<g id="node6" class="node">
<title>Node6</title>
<g id="a_node6"><a xlink:href="namespacextb__solv__lebedev.html#a014651a2f9d456bf5f41b8bd209f809f" target="_top" xlink:title="Generate 48 new points with Oh symmetry from (a,b,c), c=sqrt(1&#45;a^2&#45;b^2)">
<polygon fill="white" stroke="black" points="161,-0.5 161,-19.5 289,-19.5 289,-0.5 161,-0.5"/>
<text text-anchor="middle" x="225" y="-7.5" font-family="Helvetica,sans-Serif" font-size="10.00">xtb_solv_lebedev::genoh6</text>
</a>
</g>
</g>
<!-- Node1&#45;&gt;Node6 -->
<g id="edge5" class="edge">
<title>Node1&#45;&gt;Node6</title>
<path fill="none" stroke="midnightblue" d="M77.48,-76.4C95.92,-64.06 129.72,-42.63 161,-29 166.3,-26.69 171.97,-24.55 177.65,-22.61"/>
<polygon fill="midnightblue" stroke="midnightblue" points="178.73,-25.93 187.16,-19.52 176.57,-19.28 178.73,-25.93"/>
</g>
</g>
</svg>
