<?xml version="1.0" encoding="UTF-8" standalone="no"?>
<!DOCTYPE svg PUBLIC "-//W3C//DTD SVG 1.1//EN"
 "http://www.w3.org/Graphics/SVG/1.1/DTD/svg11.dtd">
<!-- Generated by graphviz version 2.43.0 (0)
 -->
<!-- Title: xtb_mctc_filetools::push_file Pages: 1 -->
<svg width="257pt" height="78pt"
 viewBox="0.00 0.00 257.00 77.50" xmlns="http://www.w3.org/2000/svg" xmlns:xlink="http://www.w3.org/1999/xlink">
<g id="graph0" class="graph" transform="scale(1 1) rotate(0) translate(4 73.5)">
<title>xtb_mctc_filetools::push_file</title>
<polygon fill="white" stroke="transparent" points="-4,4 -4,-73.5 253,-73.5 253,4 -4,4"/>
<!-- Node1 -->
<g id="node1" class="node">
<title>Node1</title>
<g id="a_node1"><a xlink:title=" ">
<polygon fill="#bfbfbf" stroke="black" points="0,-17 0,-47 106,-47 106,-17 0,-17"/>
<text text-anchor="start" x="8" y="-35" font-family="Helvetica,sans-Serif" font-size="10.00">xtb_mctc_filetools</text>
<text text-anchor="middle" x="53" y="-24" font-family="Helvetica,sans-Serif" font-size="10.00">::push_file</text>
</a>
</g>
</g>
<!-- Node2 -->
<g id="node2" class="node">
<title>Node2</title>
<g id="a_node2"><a xlink:href="namespacextb__mctc__filetools.html#a57e02cc21a97545ed4d50223ea319a35" target="_top" xlink:title=" ">
<polygon fill="white" stroke="black" points="142,-39 142,-69 249,-69 249,-39 142,-39"/>
<text text-anchor="start" x="150" y="-57" font-family="Helvetica,sans-Serif" font-size="10.00">xtb_mctc_filetools</text>
<text text-anchor="middle" x="195.5" y="-46" font-family="Helvetica,sans-Serif" font-size="10.00">::reallocate_filelist</text>
</a>
</g>
</g>
<!-- Node1&#45;&gt;Node2 -->
<g id="edge1" class="edge">
<title>Node1&#45;&gt;Node2</title>
<path fill="none" stroke="midnightblue" d="M106.32,-40.19C114.62,-41.49 123.27,-42.85 131.78,-44.18"/>
<polygon fill="midnightblue" stroke="midnightblue" points="131.25,-47.64 141.67,-45.73 132.33,-40.72 131.25,-47.64"/>
</g>
<!-- Node3 -->
<g id="node3" class="node">
<title>Node3</title>
<g id="a_node3"><a xlink:href="symmetry__i_8c.html#aa77c823a9fc018ae1d437369708d8727" target="_top" xlink:title=" ">
<polygon fill="white" stroke="black" points="177.5,-0.5 177.5,-19.5 213.5,-19.5 213.5,-0.5 177.5,-0.5"/>
<text text-anchor="middle" x="195.5" y="-7.5" font-family="Helvetica,sans-Serif" font-size="10.00">true</text>
</a>
</g>
</g>
<!-- Node1&#45;&gt;Node3 -->
<g id="edge2" class="edge">
<title>Node1&#45;&gt;Node3</title>
<path fill="none" stroke="midnightblue" d="M106.32,-23.81C127.12,-20.55 150.17,-16.94 167.49,-14.23"/>
<polygon fill="midnightblue" stroke="midnightblue" points="168.12,-17.67 177.46,-12.67 167.04,-10.76 168.12,-17.67"/>
</g>
</g>
</svg>
