<?xml version="1.0" encoding="UTF-8" standalone="no"?>
<!DOCTYPE svg PUBLIC "-//W3C//DTD SVG 1.1//EN"
 "http://www.w3.org/Graphics/SVG/1.1/DTD/svg11.dtd">
<!-- Generated by graphviz version 2.43.0 (0)
 -->
<!-- Title: xtb_peeq::get_overlap Pages: 1 -->
<svg width="690pt" height="116pt"
 viewBox="0.00 0.00 690.00 115.50" xmlns="http://www.w3.org/2000/svg" xmlns:xlink="http://www.w3.org/1999/xlink">
<g id="graph0" class="graph" transform="scale(1 1) rotate(0) translate(4 111.5)">
<title>xtb_peeq::get_overlap</title>
<polygon fill="white" stroke="transparent" points="-4,4 -4,-111.5 686,-111.5 686,4 -4,4"/>
<!-- Node1 -->
<g id="node1" class="node">
<title>Node1</title>
<g id="a_node1"><a xlink:title=" ">
<polygon fill="#bfbfbf" stroke="black" points="557,-38.5 557,-57.5 682,-57.5 682,-38.5 557,-38.5"/>
<text text-anchor="middle" x="619.5" y="-45.5" font-family="Helvetica,sans-Serif" font-size="10.00">xtb_peeq::get_overlap</text>
</a>
</g>
</g>
<!-- Node2 -->
<g id="node2" class="node">
<title>Node2</title>
<g id="a_node2"><a xlink:href="namespacextb__peeq.html#a88e7865d904c0f99f485a16db19d88aa" target="_top" xlink:title=" ">
<polygon fill="white" stroke="black" points="381,-57.5 381,-76.5 521,-76.5 521,-57.5 381,-57.5"/>
<text text-anchor="middle" x="451" y="-64.5" font-family="Helvetica,sans-Serif" font-size="10.00">xtb_peeq::ccm_build_sh0</text>
</a>
</g>
</g>
<!-- Node1&#45;&gt;Node2 -->
<g id="edge1" class="edge">
<title>Node1&#45;&gt;Node2</title>
<path fill="none" stroke="midnightblue" d="M547,-56.16C538.42,-57.14 529.67,-58.14 521.13,-59.11"/>
<polygon fill="midnightblue" stroke="midnightblue" points="547.44,-59.63 556.97,-55.02 546.64,-52.68 547.44,-59.63"/>
</g>
<!-- Node8 -->
<g id="node8" class="node">
<title>Node8</title>
<g id="a_node8"><a xlink:href="namespacextb__peeq.html#a9e3625eb7bd9b7e395c110aacfe6eaeb" target="_top" xlink:title=" ">
<polygon fill="white" stroke="black" points="382.5,-19.5 382.5,-38.5 519.5,-38.5 519.5,-19.5 382.5,-19.5"/>
<text text-anchor="middle" x="451" y="-26.5" font-family="Helvetica,sans-Serif" font-size="10.00">xtb_peeq::pbc_build_sh0</text>
</a>
</g>
</g>
<!-- Node1&#45;&gt;Node8 -->
<g id="edge8" class="edge">
<title>Node1&#45;&gt;Node8</title>
<path fill="none" stroke="midnightblue" d="M546.89,-39.83C537.88,-38.8 528.67,-37.75 519.72,-36.73"/>
<polygon fill="midnightblue" stroke="midnightblue" points="546.64,-43.32 556.97,-40.98 547.44,-36.37 546.64,-43.32"/>
</g>
<!-- Node3 -->
<g id="node3" class="node">
<title>Node3</title>
<g id="a_node3"><a xlink:href="namespacextb__peeq.html#ac2d6fc22b842455765bdb4f69279095c" target="_top" xlink:title=" ">
<polygon fill="white" stroke="black" points="253,-38.5 253,-57.5 345,-57.5 345,-38.5 253,-38.5"/>
<text text-anchor="middle" x="299" y="-45.5" font-family="Helvetica,sans-Serif" font-size="10.00">xtb_peeq::peeq</text>
</a>
</g>
</g>
<!-- Node2&#45;&gt;Node3 -->
<g id="edge2" class="edge">
<title>Node2&#45;&gt;Node3</title>
<path fill="none" stroke="midnightblue" d="M370.74,-56.96C361.92,-55.84 353.17,-54.74 345,-53.7"/>
<polygon fill="midnightblue" stroke="midnightblue" points="370.35,-60.44 380.71,-58.22 371.23,-53.49 370.35,-60.44"/>
</g>
<!-- Node4 -->
<g id="node4" class="node">
<title>Node4</title>
<g id="a_node4"><a xlink:href="namespacextb__xtb__calculator.html#a75c96263c235c99dfeeda3e865f9898c" target="_top" xlink:title=" ">
<polygon fill="white" stroke="black" points="110,-77 110,-107 217,-107 217,-77 110,-77"/>
<text text-anchor="start" x="118" y="-95" font-family="Helvetica,sans-Serif" font-size="10.00">xtb_xtb_calculator</text>
<text text-anchor="middle" x="163.5" y="-84" font-family="Helvetica,sans-Serif" font-size="10.00">::singlepoint</text>
</a>
</g>
</g>
<!-- Node3&#45;&gt;Node4 -->
<g id="edge3" class="edge">
<title>Node3&#45;&gt;Node4</title>
<path fill="none" stroke="midnightblue" d="M259.33,-60.74C243.98,-65.8 226.2,-71.67 210.21,-76.93"/>
<polygon fill="midnightblue" stroke="midnightblue" points="260.63,-64 269.03,-57.55 258.44,-57.35 260.63,-64"/>
</g>
<!-- Node5 -->
<g id="node5" class="node">
<title>Node5</title>
<g id="a_node5"><a xlink:href="TESTSUITE_2gfn0_8f90.html#ac2abd1dbadf75b71866d509eaad7957d" target="_top" xlink:title=" ">
<polygon fill="white" stroke="black" points="124,-38.5 124,-57.5 203,-57.5 203,-38.5 124,-38.5"/>
<text text-anchor="middle" x="163.5" y="-45.5" font-family="Helvetica,sans-Serif" font-size="10.00">test_gfn0_sp</text>
</a>
</g>
</g>
<!-- Node3&#45;&gt;Node5 -->
<g id="edge4" class="edge">
<title>Node3&#45;&gt;Node5</title>
<path fill="none" stroke="midnightblue" d="M242.45,-48C229.33,-48 215.61,-48 203.41,-48"/>
<polygon fill="midnightblue" stroke="midnightblue" points="242.8,-51.5 252.8,-48 242.8,-44.5 242.8,-51.5"/>
</g>
<!-- Node7 -->
<g id="node7" class="node">
<title>Node7</title>
<g id="a_node7"><a xlink:href="peeq_8f90.html#a5122d9bd07a3f4377ee140a5991d1325" target="_top" xlink:title=" ">
<polygon fill="white" stroke="black" points="123,-0.5 123,-19.5 204,-19.5 204,-0.5 123,-0.5"/>
<text text-anchor="middle" x="163.5" y="-7.5" font-family="Helvetica,sans-Serif" font-size="10.00">test_peeq_sp</text>
</a>
</g>
</g>
<!-- Node3&#45;&gt;Node7 -->
<g id="edge6" class="edge">
<title>Node3&#45;&gt;Node7</title>
<path fill="none" stroke="midnightblue" d="M254.47,-35.61C236.19,-30.41 215.25,-24.45 198.18,-19.59"/>
<polygon fill="midnightblue" stroke="midnightblue" points="253.74,-39.04 264.31,-38.41 255.65,-32.31 253.74,-39.04"/>
</g>
<!-- Node6 -->
<g id="node6" class="node">
<title>Node6</title>
<g id="a_node6"><a xlink:href="tests__peeq_8f90.html#a87ff5319e0d2e627a4f71d7df0d14891" target="_top" xlink:title=" ">
<polygon fill="white" stroke="black" points="0,-19.5 0,-38.5 74,-38.5 74,-19.5 0,-19.5"/>
<text text-anchor="middle" x="37" y="-26.5" font-family="Helvetica,sans-Serif" font-size="10.00">peeq_tester</text>
</a>
</g>
</g>
<!-- Node5&#45;&gt;Node6 -->
<g id="edge5" class="edge">
<title>Node5&#45;&gt;Node6</title>
<path fill="none" stroke="midnightblue" d="M113.88,-40.58C100.65,-38.56 86.55,-36.41 74.14,-34.52"/>
<polygon fill="midnightblue" stroke="midnightblue" points="113.38,-44.04 123.79,-42.09 114.43,-37.12 113.38,-44.04"/>
</g>
<!-- Node7&#45;&gt;Node6 -->
<g id="edge7" class="edge">
<title>Node7&#45;&gt;Node6</title>
<path fill="none" stroke="midnightblue" d="M112.7,-17.6C99.91,-19.55 86.38,-21.62 74.4,-23.44"/>
<polygon fill="midnightblue" stroke="midnightblue" points="113.41,-21.03 122.77,-16.06 112.35,-14.11 113.41,-21.03"/>
</g>
<!-- Node8&#45;&gt;Node3 -->
<g id="edge9" class="edge">
<title>Node8&#45;&gt;Node3</title>
<path fill="none" stroke="midnightblue" d="M372.39,-38.83C363.1,-40.01 353.87,-41.18 345.26,-42.27"/>
<polygon fill="midnightblue" stroke="midnightblue" points="372.98,-42.28 382.46,-37.56 372.1,-35.34 372.98,-42.28"/>
</g>
</g>
</svg>
