<?xml version="1.0" encoding="UTF-8" standalone="no"?>
<!DOCTYPE svg PUBLIC "-//W3C//DTD SVG 1.1//EN"
 "http://www.w3.org/Graphics/SVG/1.1/DTD/svg11.dtd">
<!-- Generated by graphviz version 2.43.0 (0)
 -->
<!-- Title: xtb_intmodes::xyzint Pages: 1 -->
<svg width="399pt" height="104pt"
 viewBox="0.00 0.00 399.00 104.00" xmlns="http://www.w3.org/2000/svg" xmlns:xlink="http://www.w3.org/1999/xlink">
<g id="graph0" class="graph" transform="scale(1 1) rotate(0) translate(4 100)">
<title>xtb_intmodes::xyzint</title>
<polygon fill="white" stroke="transparent" points="-4,4 -4,-100 395,-100 395,4 -4,4"/>
<!-- Node1 -->
<g id="node1" class="node">
<title>Node1</title>
<g id="a_node1"><a xlink:title=" ">
<polygon fill="#bfbfbf" stroke="black" points="272,-38.5 272,-57.5 391,-57.5 391,-38.5 272,-38.5"/>
<text text-anchor="middle" x="331.5" y="-45.5" font-family="Helvetica,sans-Serif" font-size="10.00">xtb_intmodes::xyzint</text>
</a>
</g>
</g>
<!-- Node2 -->
<g id="node2" class="node">
<title>Node2</title>
<g id="a_node2"><a xlink:href="namespacextb__intmodes.html#a5305d5027ebe669fa49e70d59d9e1029" target="_top" xlink:title=" ">
<polygon fill="white" stroke="black" points="106,-76.5 106,-95.5 226,-95.5 226,-76.5 106,-76.5"/>
<text text-anchor="middle" x="166" y="-83.5" font-family="Helvetica,sans-Serif" font-size="10.00">xtb_intmodes::bzmat</text>
</a>
</g>
</g>
<!-- Node1&#45;&gt;Node2 -->
<g id="edge1" class="edge">
<title>Node1&#45;&gt;Node2</title>
<path fill="none" stroke="midnightblue" d="M279.32,-59.9C256.33,-65.24 229.59,-71.45 207.96,-76.48"/>
<polygon fill="midnightblue" stroke="midnightblue" points="280.29,-63.26 289.24,-57.59 278.71,-56.44 280.29,-63.26"/>
</g>
<!-- Node3 -->
<g id="node3" class="node">
<title>Node3</title>
<g id="a_node3"><a xlink:href="wrmodef_8f90.html#ad6ebf53526a3e016f0252271d366e931" target="_top" xlink:title=" ">
<polygon fill="white" stroke="black" points="0,-57.5 0,-76.5 60,-76.5 60,-57.5 0,-57.5"/>
<text text-anchor="middle" x="30" y="-64.5" font-family="Helvetica,sans-Serif" font-size="10.00">wrmodef</text>
</a>
</g>
</g>
<!-- Node1&#45;&gt;Node3 -->
<g id="edge4" class="edge">
<title>Node1&#45;&gt;Node3</title>
<path fill="none" stroke="midnightblue" d="M261.32,-52.39C197.66,-56.43 106.34,-62.22 60.14,-65.15"/>
<polygon fill="midnightblue" stroke="midnightblue" points="261.93,-55.86 271.69,-51.73 261.48,-48.87 261.93,-55.86"/>
</g>
<!-- Node4 -->
<g id="node4" class="node">
<title>Node4</title>
<g id="a_node4"><a xlink:href="namespacextb__intmodes.html#a4a86b34215997a61ae390bcb96e6afe0" target="_top" xlink:title=" ">
<polygon fill="white" stroke="black" points="96,-0.5 96,-19.5 236,-19.5 236,-0.5 96,-0.5"/>
<text text-anchor="middle" x="166" y="-7.5" font-family="Helvetica,sans-Serif" font-size="10.00">xtb_intmodes::makenabc</text>
</a>
</g>
</g>
<!-- Node1&#45;&gt;Node4 -->
<g id="edge3" class="edge">
<title>Node1&#45;&gt;Node4</title>
<path fill="none" stroke="midnightblue" d="M279.32,-36.1C256.33,-30.76 229.59,-24.55 207.96,-19.52"/>
<polygon fill="midnightblue" stroke="midnightblue" points="278.71,-39.56 289.24,-38.41 280.29,-32.74 278.71,-39.56"/>
</g>
<!-- Node2&#45;&gt;Node3 -->
<g id="edge2" class="edge">
<title>Node2&#45;&gt;Node3</title>
<path fill="none" stroke="midnightblue" d="M95.76,-76.18C83.19,-74.4 70.72,-72.63 60.13,-71.13"/>
<polygon fill="midnightblue" stroke="midnightblue" points="95.44,-79.67 105.84,-77.61 96.43,-72.74 95.44,-79.67"/>
</g>
</g>
</svg>
