<?xml version="1.0" encoding="UTF-8" standalone="no"?>
<!DOCTYPE svg PUBLIC "-//W3C//DTD SVG 1.1//EN"
 "http://www.w3.org/Graphics/SVG/1.1/DTD/svg11.dtd">
<!-- Generated by graphviz version 2.43.0 (0)
 -->
<!-- Title: xtb_solv_lebedev::ld0110 Pages: 1 -->
<svg width="327pt" height="142pt"
 viewBox="0.00 0.00 327.00 142.00" xmlns="http://www.w3.org/2000/svg" xmlns:xlink="http://www.w3.org/1999/xlink">
<g id="graph0" class="graph" transform="scale(1 1) rotate(0) translate(4 138)">
<title>xtb_solv_lebedev::ld0110</title>
<polygon fill="white" stroke="transparent" points="-4,4 -4,-138 323,-138 323,4 -4,4"/>
<!-- Node1 -->
<g id="node1" class="node">
<title>Node1</title>
<g id="a_node1"><a xlink:title=" ">
<polygon fill="#bfbfbf" stroke="black" points="0,-57.5 0,-76.5 140,-76.5 140,-57.5 0,-57.5"/>
<text text-anchor="middle" x="70" y="-64.5" font-family="Helvetica,sans-Serif" font-size="10.00">xtb_solv_lebedev::ld0110</text>
</a>
</g>
</g>
<!-- Node2 -->
<g id="node2" class="node">
<title>Node2</title>
<g id="a_node2"><a xlink:href="namespacextb__solv__lebedev.html#a3a72086d50f3732015e5e975181edd44" target="_top" xlink:title="generate 6 new points with Oh symmetry from (0,0,1)">
<polygon fill="white" stroke="black" points="176,-114.5 176,-133.5 319,-133.5 319,-114.5 176,-114.5"/>
<text text-anchor="middle" x="247.5" y="-121.5" font-family="Helvetica,sans-Serif" font-size="10.00">xtb_solv_lebedev::genoh1</text>
</a>
</g>
</g>
<!-- Node1&#45;&gt;Node2 -->
<g id="edge1" class="edge">
<title>Node1&#45;&gt;Node2</title>
<path fill="none" stroke="midnightblue" d="M95.83,-76.65C116.98,-84.72 148.26,-96.26 176,-105 183.31,-107.3 191.11,-109.58 198.75,-111.71"/>
<polygon fill="midnightblue" stroke="midnightblue" points="198.08,-115.16 208.64,-114.42 199.92,-108.41 198.08,-115.16"/>
</g>
<!-- Node3 -->
<g id="node3" class="node">
<title>Node3</title>
<g id="a_node3"><a xlink:href="namespacextb__solv__lebedev.html#a30aebd3b6ab2b86d08745405b1880cb4" target="_top" xlink:title="Generate 8 new points with Oh symmetry from (a,a,a), a=1/sqrt(3)">
<polygon fill="white" stroke="black" points="176,-76.5 176,-95.5 319,-95.5 319,-76.5 176,-76.5"/>
<text text-anchor="middle" x="247.5" y="-83.5" font-family="Helvetica,sans-Serif" font-size="10.00">xtb_solv_lebedev::genoh3</text>
</a>
</g>
</g>
<!-- Node1&#45;&gt;Node3 -->
<g id="edge2" class="edge">
<title>Node1&#45;&gt;Node3</title>
<path fill="none" stroke="midnightblue" d="M140.11,-74.48C148.52,-75.39 157.17,-76.33 165.73,-77.26"/>
<polygon fill="midnightblue" stroke="midnightblue" points="165.4,-80.74 175.72,-78.34 166.16,-73.78 165.4,-80.74"/>
</g>
<!-- Node4 -->
<g id="node4" class="node">
<title>Node4</title>
<g id="a_node4"><a xlink:href="namespacextb__solv__lebedev.html#ace2dca4641a6c8cd95f71841438c9e37" target="_top" xlink:title="Generate 24 new points with Oh symmetry from (a,a,b), b=sqrt(1&#45;2 a^2)">
<polygon fill="white" stroke="black" points="176,-38.5 176,-57.5 319,-57.5 319,-38.5 176,-38.5"/>
<text text-anchor="middle" x="247.5" y="-45.5" font-family="Helvetica,sans-Serif" font-size="10.00">xtb_solv_lebedev::genoh4</text>
</a>
</g>
</g>
<!-- Node1&#45;&gt;Node4 -->
<g id="edge3" class="edge">
<title>Node1&#45;&gt;Node4</title>
<path fill="none" stroke="midnightblue" d="M140.11,-59.52C148.52,-58.61 157.17,-57.67 165.73,-56.74"/>
<polygon fill="midnightblue" stroke="midnightblue" points="166.16,-60.22 175.72,-55.66 165.4,-53.26 166.16,-60.22"/>
</g>
<!-- Node5 -->
<g id="node5" class="node">
<title>Node5</title>
<g id="a_node5"><a xlink:href="namespacextb__solv__lebedev.html#a32325297326761ee01acf33626f7467e" target="_top" xlink:title="Generate 24 new points with Oh symmetry from (a,b,0), b=sqrt(1&#45;a^2)">
<polygon fill="white" stroke="black" points="176,-0.5 176,-19.5 319,-19.5 319,-0.5 176,-0.5"/>
<text text-anchor="middle" x="247.5" y="-7.5" font-family="Helvetica,sans-Serif" font-size="10.00">xtb_solv_lebedev::genoh5</text>
</a>
</g>
</g>
<!-- Node1&#45;&gt;Node5 -->
<g id="edge4" class="edge">
<title>Node1&#45;&gt;Node5</title>
<path fill="none" stroke="midnightblue" d="M95.83,-57.35C116.98,-49.28 148.26,-37.74 176,-29 183.31,-26.7 191.11,-24.42 198.75,-22.29"/>
<polygon fill="midnightblue" stroke="midnightblue" points="199.92,-25.59 208.64,-19.58 198.08,-18.84 199.92,-25.59"/>
</g>
</g>
</svg>
