<?xml version="1.0" encoding="UTF-8" standalone="no"?>
<!DOCTYPE svg PUBLIC "-//W3C//DTD SVG 1.1//EN"
 "http://www.w3.org/Graphics/SVG/1.1/DTD/svg11.dtd">
<!-- Generated by graphviz version 2.46.1 (20210215.1649)
 -->
<!-- Title: xtb_setmod::set_chrg Pages: 1 -->
<!--zoomable 170 -->
<svg id="main" version="1.1" xmlns="http://www.w3.org/2000/svg" xmlns:xlink="http://www.w3.org/1999/xlink" xml:space="preserve" onload="init(evt)">
<style type="text/css"><![CDATA[
.edge:hover path { stroke: red; }
.edge:hover polygon { stroke: red; fill: red; }
]]></style>
<script type="text/javascript"><![CDATA[
var edges = document.getElementsByTagName('g');
if (edges && edges.length) {
  for (var i=0;i<edges.length;i++) {
    if (edges[i].id.substr(0,4)=='edge') {
      edges[i].setAttribute('class','edge');
    }
  }
}
]]></script>
        <defs>
                <circle id="rim" cx="0" cy="0" r="7"/>
                <circle id="rim2" cx="0" cy="0" r="3.5"/>
                <g id="zoomPlus">
                        <use xlink:href="#rim" fill="#404040">
                                <set attributeName="fill" to="#808080" begin="zoomplus.mouseover" end="zoomplus.mouseout"/>
                        </use>
                        <path d="M-4,0h8M0,-4v8" fill="none" stroke="white" stroke-width="1.5" pointer-events="none"/>
                </g>
                <g id="zoomMin">
                        <use xlink:href="#rim" fill="#404040">
                                <set attributeName="fill" to="#808080" begin="zoomminus.mouseover" end="zoomminus.mouseout"/>
                        </use>
                        <path d="M-4,0h8" fill="none" stroke="white" stroke-width="1.5" pointer-events="none"/>
                </g>
                <g id="dirArrow">
                        <path fill="none" stroke="white" stroke-width="1.5" d="M0,-3.0v7 M-2.5,-0.5L0,-3.0L2.5,-0.5"/>
                </g>
               <g id="resetDef">
                       <use xlink:href="#rim2" fill="#404040">
                               <set attributeName="fill" to="#808080" begin="reset.mouseover" end="reset.mouseout"/>
                       </use>
               </g>
        </defs>

<script type="text/javascript">
var viewWidth = 741;
var viewHeight = 170;
var sectionId = 'dynsection-12';
</script>
<script xlink:href="svgpan.js"/>
<svg id="graph" class="graph">
<g id="viewport">
<title>xtb_setmod::set_chrg</title>
<polygon fill="white" stroke="transparent" points="-4,4 -4,-165.79 737,-165.79 737,4 -4,4"/>
<!-- Node1 -->
<g id="node1" class="node">
<title>Node1</title>
<g id="a_node1"><a xlink:title=" ">
<polygon fill="#bfbfbf" stroke="black" points="624,-66.29 624,-85.29 733,-85.29 733,-66.29 624,-66.29"/>
<text text-anchor="middle" x="678.5" y="-73.29" font-family="Helvetica,sans-Serif" font-size="10.00">xtb_setmod::set_chrg</text>
</a>
</g>
</g>
<!-- Node2 -->
<g id="node2" class="node">
<title>Node2</title>
<g id="a_node2"><a xlink:href="namespacextb__prog__main.html#a7342d7c4bae29e1a79a8c6c8e8141d70" target="_top" xlink:title="Parse command line arguments and forward them to settings.">
<polygon fill="white" stroke="black" points="280,-142.29 280,-161.29 434,-161.29 434,-142.29 280,-142.29"/>
<text text-anchor="middle" x="357" y="-149.29" font-family="Helvetica,sans-Serif" font-size="10.00">xtb_prog_main::parsearguments</text>
</a>
</g>
</g>
<!-- Node1&#45;&gt;Node2 -->
<g id="edge1" class="edge">
<title>Node1&#45;&gt;Node2</title>
<path fill="none" stroke="midnightblue" d="M656.71,-91.3C639.31,-103.42 613.32,-119.53 588,-127.79 538.38,-143.97 479.84,-149.9 434.24,-151.83"/>
<polygon fill="midnightblue" stroke="midnightblue" points="658.88,-94.05 664.98,-85.39 654.81,-88.36 658.88,-94.05"/>
</g>
<!-- Node3 -->
<g id="node3" class="node">
<title>Node3</title>
<g id="a_node3"><a xlink:href="namespacextb__prog__main.html#a92b3b61ee04235e6343f652095682529" target="_top" xlink:title=" ">
<polygon fill="white" stroke="black" points="126,-85.29 126,-104.29 244,-104.29 244,-85.29 126,-85.29"/>
<text text-anchor="middle" x="185" y="-92.29" font-family="Helvetica,sans-Serif" font-size="10.00">xtb_prog_main::xtbmain</text>
</a>
</g>
</g>
<!-- Node1&#45;&gt;Node3 -->
<g id="edge8" class="edge">
<title>Node1&#45;&gt;Node3</title>
<path fill="none" stroke="midnightblue" d="M613.67,-86.75C605.06,-87.94 596.33,-89 588,-89.79 466.04,-101.26 322.37,-99.35 244.07,-97.02"/>
<polygon fill="midnightblue" stroke="midnightblue" points="614.29,-90.2 623.68,-85.3 613.28,-83.27 614.29,-90.2"/>
</g>
<!-- Node5 -->
<g id="node5" class="node">
<title>Node5</title>
<g id="a_node5"><a xlink:href="namespacextb__setmod.html#af256a658a95d1cc74d76dbc0b607c01a" target="_top" xlink:title=" ">
<polygon fill="white" stroke="black" points="302.5,-66.29 302.5,-85.29 411.5,-85.29 411.5,-66.29 302.5,-66.29"/>
<text text-anchor="middle" x="357" y="-73.29" font-family="Helvetica,sans-Serif" font-size="10.00">xtb_setmod::rdcontrol</text>
</a>
</g>
</g>
<!-- Node1&#45;&gt;Node5 -->
<g id="edge4" class="edge">
<title>Node1&#45;&gt;Node5</title>
<path fill="none" stroke="midnightblue" d="M613.3,-75.79C554.06,-75.79 467.11,-75.79 411.52,-75.79"/>
<polygon fill="midnightblue" stroke="midnightblue" points="613.66,-79.29 623.66,-75.79 613.66,-72.29 613.66,-79.29"/>
</g>
<!-- Node6 -->
<g id="node6" class="node">
<title>Node6</title>
<g id="a_node6"><a xlink:href="namespacextb__setmod.html#ae624d63242f16501ab4fc3040b92ec15" target="_top" xlink:title=" ">
<polygon fill="white" stroke="black" points="470,-28.29 470,-47.29 588,-47.29 588,-28.29 470,-28.29"/>
<text text-anchor="middle" x="529" y="-35.29" font-family="Helvetica,sans-Serif" font-size="10.00">xtb_setmod::set_legacy</text>
</a>
</g>
</g>
<!-- Node1&#45;&gt;Node6 -->
<g id="edge6" class="edge">
<title>Node1&#45;&gt;Node6</title>
<path fill="none" stroke="midnightblue" d="M630.49,-63.68C609.94,-58.38 586.2,-52.27 566.95,-47.31"/>
<polygon fill="midnightblue" stroke="midnightblue" points="629.72,-67.09 640.28,-66.2 631.47,-60.31 629.72,-67.09"/>
</g>
<!-- Node7 -->
<g id="node7" class="node">
<title>Node7</title>
<g id="a_node7"><a xlink:href="namespacextb__prog__topology.html#aa263269ef9a32674220b4f1bfda0c066" target="_top" xlink:title="Main program of the topology submodule.">
<polygon fill="white" stroke="black" points="135.5,-19.79 135.5,-49.79 234.5,-49.79 234.5,-19.79 135.5,-19.79"/>
<text text-anchor="start" x="143.5" y="-37.79" font-family="Helvetica,sans-Serif" font-size="10.00">xtb_prog_topology::</text>
<text text-anchor="middle" x="185" y="-26.79" font-family="Helvetica,sans-Serif" font-size="10.00">xtbtopology</text>
</a>
</g>
</g>
<!-- Node1&#45;&gt;Node7 -->
<g id="edge9" class="edge">
<title>Node1&#45;&gt;Node7</title>
<path fill="none" stroke="midnightblue" d="M658.93,-59.44C641.84,-45.56 615.11,-26.69 588,-18.79 464.78,17.12 311.34,-6.76 234.54,-23.1"/>
<polygon fill="midnightblue" stroke="midnightblue" points="657.03,-62.41 666.94,-66.15 661.52,-57.05 657.03,-62.41"/>
</g>
<!-- Node2&#45;&gt;Node3 -->
<g id="edge2" class="edge">
<title>Node2&#45;&gt;Node3</title>
<path fill="none" stroke="midnightblue" d="M315.15,-139.15C303.75,-135.55 291.37,-131.58 280,-127.79 257.19,-120.19 231.44,-111.11 212.66,-104.4"/>
<polygon fill="midnightblue" stroke="midnightblue" points="314.28,-142.54 324.87,-142.2 316.38,-135.87 314.28,-142.54"/>
</g>
<!-- Node4 -->
<g id="node4" class="node">
<title>Node4</title>
<g id="a_node4"><a xlink:href="primary_8f90.html#a2a67903cf5be605c5b6d3c362c6a3c5c" target="_top" xlink:title="The primary driver for the xtb program package.">
<polygon fill="white" stroke="black" points="0,-47.29 0,-66.29 90,-66.29 90,-47.29 0,-47.29"/>
<text text-anchor="middle" x="45" y="-54.29" font-family="Helvetica,sans-Serif" font-size="10.00">xtb_prog_primary</text>
</a>
</g>
</g>
<!-- Node3&#45;&gt;Node4 -->
<g id="edge3" class="edge">
<title>Node3&#45;&gt;Node4</title>
<path fill="none" stroke="midnightblue" d="M139.53,-82.54C120.51,-77.3 98.62,-71.28 80.81,-66.37"/>
<polygon fill="midnightblue" stroke="midnightblue" points="138.61,-85.92 149.18,-85.2 140.46,-79.17 138.61,-85.92"/>
</g>
<!-- Node5&#45;&gt;Node3 -->
<g id="edge5" class="edge">
<title>Node5&#45;&gt;Node3</title>
<path fill="none" stroke="midnightblue" d="M292.05,-82.94C276.33,-84.69 259.58,-86.56 244.15,-88.29"/>
<polygon fill="midnightblue" stroke="midnightblue" points="292.66,-86.39 302.21,-81.8 291.88,-79.43 292.66,-86.39"/>
</g>
<!-- Node6&#45;&gt;Node5 -->
<g id="edge7" class="edge">
<title>Node6&#45;&gt;Node5</title>
<path fill="none" stroke="midnightblue" d="M475.1,-49.61C451.13,-54.97 423.18,-61.22 400.59,-66.27"/>
<polygon fill="midnightblue" stroke="midnightblue" points="476.11,-52.97 485.1,-47.38 474.58,-46.14 476.11,-52.97"/>
</g>
<!-- Node7&#45;&gt;Node4 -->
<g id="edge10" class="edge">
<title>Node7&#45;&gt;Node4</title>
<path fill="none" stroke="midnightblue" d="M125.15,-44.17C113.39,-46.04 101.23,-47.98 90.07,-49.76"/>
<polygon fill="midnightblue" stroke="midnightblue" points="126.02,-47.58 135.35,-42.54 124.92,-40.66 126.02,-47.58"/>
</g>
</g>
</svg>
        <g id="navigator" transform="translate(0 0)" fill="#404254">
                <rect fill="#f2f5e9" fill-opacity="0.5" stroke="#606060" stroke-width=".5" x="0" y="0" width="60" height="60"/>
                <use id="zoomplus" xlink:href="#zoomPlus" x="17" y="9" onmousedown="handleZoom(evt,'in')"/>
                <use id="zoomminus" xlink:href="#zoomMin" x="42" y="9" onmousedown="handleZoom(evt,'out')"/>
                <use id="reset" xlink:href="#resetDef" x="30" y="36" onmousedown="handleReset()"/>
                <g id="arrowUp" xlink:href="#dirArrow" transform="translate(30 24)" onmousedown="handlePan(0,-1)">
                  <use xlink:href="#rim" fill="#404040">
                        <set attributeName="fill" to="#808080" begin="arrowUp.mouseover" end="arrowUp.mouseout"/>
                  </use>
                  <path fill="none" stroke="white" stroke-width="1.5" d="M0,-3.0v7 M-2.5,-0.5L0,-3.0L2.5,-0.5"/>
                </g>
                <g id="arrowRight" xlink:href="#dirArrow" transform="rotate(90) translate(36 -43)" onmousedown="handlePan(1,0)">
                  <use xlink:href="#rim" fill="#404040">
                        <set attributeName="fill" to="#808080" begin="arrowRight.mouseover" end="arrowRight.mouseout"/>
                  </use>
                  <path fill="none" stroke="white" stroke-width="1.5" d="M0,-3.0v7 M-2.5,-0.5L0,-3.0L2.5,-0.5"/>
                </g>
                <g id="arrowDown" xlink:href="#dirArrow" transform="rotate(180) translate(-30 -48)" onmousedown="handlePan(0,1)">
                  <use xlink:href="#rim" fill="#404040">
                        <set attributeName="fill" to="#808080" begin="arrowDown.mouseover" end="arrowDown.mouseout"/>
                  </use>
                  <path fill="none" stroke="white" stroke-width="1.5" d="M0,-3.0v7 M-2.5,-0.5L0,-3.0L2.5,-0.5"/>
                </g>
                <g id="arrowLeft" xlink:href="#dirArrow" transform="rotate(270) translate(-36 17)" onmousedown="handlePan(-1,0)">
                  <use xlink:href="#rim" fill="#404040">
                        <set attributeName="fill" to="#808080" begin="arrowLeft.mouseover" end="arrowLeft.mouseout"/>
                  </use>
                  <path fill="none" stroke="white" stroke-width="1.5" d="M0,-3.0v7 M-2.5,-0.5L0,-3.0L2.5,-0.5"/>
                </g>
        </g>
        <svg viewBox="0 0 15 15" width="100%" height="30px" preserveAspectRatio="xMaxYMin meet">
         <g id="arrow_out" transform="scale(0.3 0.3)">
          <a xlink:href="namespacextb__setmod_aaacfccbee2f89a7468d66d78e0ad8d4f_icgraph_org.svg" target="_base">
           <rect id="button" ry="5" rx="5" y="6" x="6" height="38" width="38"
                fill="#f2f5e9" fill-opacity="0.5" stroke="#606060" stroke-width="1.0"/>
           <path id="arrow"
             d="M 11.500037,31.436501 C 11.940474,20.09759 22.043105,11.32322 32.158766,21.979434 L 37.068811,17.246167 C 37.068811,17.246167 37.088388,32 37.088388,32 L 22.160133,31.978069 C 22.160133,31.978069 26.997745,27.140456 26.997745,27.140456 C 18.528582,18.264221 13.291696,25.230495 11.500037,31.436501 z"
             style="fill:#404040;"/>
          </a>
         </g>
        </svg>
</svg>
