<?xml version="1.0" encoding="UTF-8" standalone="no"?>
<!DOCTYPE svg PUBLIC "-//W3C//DTD SVG 1.1//EN"
 "http://www.w3.org/Graphics/SVG/1.1/DTD/svg11.dtd">
<!-- Generated by graphviz version 2.46.1 (20210215.1649)
 -->
<!-- Title: xtb_peeq::pbc_build_dsh0 Pages: 1 -->
<!--zoomable 176 -->
<svg id="main" version="1.1" xmlns="http://www.w3.org/2000/svg" xmlns:xlink="http://www.w3.org/1999/xlink" xml:space="preserve" onload="init(evt)">
<style type="text/css"><![CDATA[
.edge:hover path { stroke: red; }
.edge:hover polygon { stroke: red; fill: red; }
]]></style>
<script type="text/javascript"><![CDATA[
var edges = document.getElementsByTagName('g');
if (edges && edges.length) {
  for (var i=0;i<edges.length;i++) {
    if (edges[i].id.substr(0,4)=='edge') {
      edges[i].setAttribute('class','edge');
    }
  }
}
]]></script>
        <defs>
                <circle id="rim" cx="0" cy="0" r="7"/>
                <circle id="rim2" cx="0" cy="0" r="3.5"/>
                <g id="zoomPlus">
                        <use xlink:href="#rim" fill="#404040">
                                <set attributeName="fill" to="#808080" begin="zoomplus.mouseover" end="zoomplus.mouseout"/>
                        </use>
                        <path d="M-4,0h8M0,-4v8" fill="none" stroke="white" stroke-width="1.5" pointer-events="none"/>
                </g>
                <g id="zoomMin">
                        <use xlink:href="#rim" fill="#404040">
                                <set attributeName="fill" to="#808080" begin="zoomminus.mouseover" end="zoomminus.mouseout"/>
                        </use>
                        <path d="M-4,0h8" fill="none" stroke="white" stroke-width="1.5" pointer-events="none"/>
                </g>
                <g id="dirArrow">
                        <path fill="none" stroke="white" stroke-width="1.5" d="M0,-3.0v7 M-2.5,-0.5L0,-3.0L2.5,-0.5"/>
                </g>
               <g id="resetDef">
                       <use xlink:href="#rim2" fill="#404040">
                               <set attributeName="fill" to="#808080" begin="reset.mouseover" end="reset.mouseout"/>
                       </use>
               </g>
        </defs>

<script type="text/javascript">
var viewWidth = 571;
var viewHeight = 176;
var sectionId = 'dynsection-10';
</script>
<script xlink:href="svgpan.js"/>
<svg id="graph" class="graph">
<g id="viewport">
<title>xtb_peeq::pbc_build_dsh0</title>
<polygon fill="white" stroke="transparent" points="-4,4 -4,-171.5 567,-171.5 567,4 -4,4"/>
<!-- Node1 -->
<g id="node1" class="node">
<title>Node1</title>
<g id="a_node1"><a xlink:title=" ">
<polygon fill="#bfbfbf" stroke="black" points="0,-101.5 0,-120.5 128,-120.5 128,-101.5 0,-101.5"/>
<text text-anchor="middle" x="64" y="-108.5" font-family="Helvetica,sans-Serif" font-size="10.00">xtb_peeq::pbc_build_dsh0</text>
</a>
</g>
</g>
<!-- Node2 -->
<g id="node2" class="node">
<title>Node2</title>
<g id="a_node2"><a xlink:href="namespacextb__grad__core.html#afcd07cdba5580e023801c661c0dda52d" target="_top" xlink:title=" ">
<polygon fill="white" stroke="black" points="164,-139.5 164,-158.5 289,-158.5 289,-139.5 164,-139.5"/>
<text text-anchor="middle" x="226.5" y="-146.5" font-family="Helvetica,sans-Serif" font-size="10.00">xtb_grad_core::dshellpoly</text>
</a>
</g>
</g>
<!-- Node1&#45;&gt;Node2 -->
<g id="edge1" class="edge">
<title>Node1&#45;&gt;Node2</title>
<path fill="none" stroke="midnightblue" d="M105.5,-120.59C126.68,-125.6 152.8,-131.79 175.26,-137.11"/>
<polygon fill="midnightblue" stroke="midnightblue" points="174.75,-140.58 185.29,-139.48 176.37,-133.77 174.75,-140.58"/>
</g>
<!-- Node3 -->
<g id="node3" class="node">
<title>Node3</title>
<g id="a_node3"><a xlink:href="namespacextb__intgrad.html#a3123173ad7d8c3991074f793fdc9c593" target="_top" xlink:title=" ">
<polygon fill="white" stroke="black" points="182.5,-101.5 182.5,-120.5 270.5,-120.5 270.5,-101.5 182.5,-101.5"/>
<text text-anchor="middle" x="226.5" y="-108.5" font-family="Helvetica,sans-Serif" font-size="10.00">xtb_intgrad::dtrf2</text>
</a>
</g>
</g>
<!-- Node1&#45;&gt;Node3 -->
<g id="edge2" class="edge">
<title>Node1&#45;&gt;Node3</title>
<path fill="none" stroke="midnightblue" d="M128.43,-111C142.82,-111 157.96,-111 171.89,-111"/>
<polygon fill="midnightblue" stroke="midnightblue" points="172.27,-114.5 182.27,-111 172.27,-107.5 172.27,-114.5"/>
</g>
<!-- Node4 -->
<g id="node4" class="node">
<title>Node4</title>
<g id="a_node4"><a xlink:href="namespacextb__intgrad.html#a5d63324c2991420830b8c35a212bc44c" target="_top" xlink:title=" ">
<polygon fill="white" stroke="black" points="173.5,-52 173.5,-82 279.5,-82 279.5,-52 173.5,-52"/>
<text text-anchor="start" x="181.5" y="-70" font-family="Helvetica,sans-Serif" font-size="10.00">xtb_intgrad::get_grad</text>
<text text-anchor="middle" x="226.5" y="-59" font-family="Helvetica,sans-Serif" font-size="10.00">_overlap</text>
</a>
</g>
</g>
<!-- Node1&#45;&gt;Node4 -->
<g id="edge3" class="edge">
<title>Node1&#45;&gt;Node4</title>
<path fill="none" stroke="midnightblue" d="M99.83,-101.45C118.45,-96.35 141.95,-89.9 163.58,-83.98"/>
<polygon fill="midnightblue" stroke="midnightblue" points="164.64,-87.31 173.35,-81.3 162.78,-80.56 164.64,-87.31"/>
</g>
<!-- Node5 -->
<g id="node5" class="node">
<title>Node5</title>
<g id="a_node5"><a xlink:href="namespacextb__intgrad.html#a5c81e8ac1c422e26c60df2e7f20448f3" target="_top" xlink:title=" ">
<polygon fill="white" stroke="black" points="335.5,-115 335.5,-145 424.5,-145 424.5,-115 335.5,-115"/>
<text text-anchor="start" x="343.5" y="-133" font-family="Helvetica,sans-Serif" font-size="10.00">xtb_intgrad::build</text>
<text text-anchor="middle" x="380" y="-122" font-family="Helvetica,sans-Serif" font-size="10.00">_ds_ints</text>
</a>
</g>
</g>
<!-- Node4&#45;&gt;Node5 -->
<g id="edge4" class="edge">
<title>Node4&#45;&gt;Node5</title>
<path fill="none" stroke="midnightblue" d="M264.93,-82.12C272.89,-85.36 281.23,-88.78 289,-92 303.78,-98.12 319.89,-104.9 334.34,-111"/>
<polygon fill="midnightblue" stroke="midnightblue" points="332.99,-114.23 343.57,-114.91 335.72,-107.79 332.99,-114.23"/>
</g>
<!-- Node8 -->
<g id="node8" class="node">
<title>Node8</title>
<g id="a_node8"><a xlink:href="namespacextb__intgrad.html#a1f9cf61176ecca277a73a81137c39a39" target="_top" xlink:title=" ">
<polygon fill="white" stroke="black" points="325,-76.5 325,-95.5 435,-95.5 435,-76.5 325,-76.5"/>
<text text-anchor="middle" x="380" y="-83.5" font-family="Helvetica,sans-Serif" font-size="10.00">xtb_intgrad::build_kab</text>
</a>
</g>
</g>
<!-- Node4&#45;&gt;Node8 -->
<g id="edge7" class="edge">
<title>Node4&#45;&gt;Node8</title>
<path fill="none" stroke="midnightblue" d="M279.64,-73.54C290.96,-74.96 303.06,-76.48 314.78,-77.95"/>
<polygon fill="midnightblue" stroke="midnightblue" points="314.6,-81.45 324.96,-79.22 315.47,-74.51 314.6,-81.45"/>
</g>
<!-- Node9 -->
<g id="node9" class="node">
<title>Node9</title>
<g id="a_node9"><a xlink:href="namespacextb__intgrad.html#a49b854bf505ac013ac50d12edb2e0de5" target="_top" xlink:title="returns center of product Gaussian from two Gaussians by GPT">
<polygon fill="white" stroke="black" points="327,-38.5 327,-57.5 433,-57.5 433,-38.5 327,-38.5"/>
<text text-anchor="middle" x="380" y="-45.5" font-family="Helvetica,sans-Serif" font-size="10.00">xtb_intgrad::gpcenter</text>
</a>
</g>
</g>
<!-- Node4&#45;&gt;Node9 -->
<g id="edge8" class="edge">
<title>Node4&#45;&gt;Node9</title>
<path fill="none" stroke="midnightblue" d="M279.64,-60.46C291.54,-58.97 304.31,-57.37 316.59,-55.83"/>
<polygon fill="midnightblue" stroke="midnightblue" points="317.28,-59.27 326.77,-54.55 316.41,-52.32 317.28,-59.27"/>
</g>
<!-- Node10 -->
<g id="node10" class="node">
<title>Node10</title>
<g id="a_node10"><a xlink:href="namespacextb__intgrad.html#a61582fac6cd8cc05eb76d4ced531ef6e" target="_top" xlink:title="calculates a partial overlap in one cartesian direction">
<polygon fill="white" stroke="black" points="334,-0.5 334,-19.5 426,-19.5 426,-0.5 334,-0.5"/>
<text text-anchor="middle" x="380" y="-7.5" font-family="Helvetica,sans-Serif" font-size="10.00">xtb_intgrad::olapp</text>
</a>
</g>
</g>
<!-- Node4&#45;&gt;Node10 -->
<g id="edge9" class="edge">
<title>Node4&#45;&gt;Node10</title>
<path fill="none" stroke="midnightblue" d="M265.36,-51.91C283.37,-44.81 305.24,-36.32 325,-29 330.3,-27.04 335.91,-25.01 341.43,-23.04"/>
<polygon fill="midnightblue" stroke="midnightblue" points="342.93,-26.22 351.19,-19.59 340.59,-19.62 342.93,-26.22"/>
</g>
<!-- Node6 -->
<g id="node6" class="node">
<title>Node6</title>
<g id="a_node6"><a xlink:href="namespacextb__intgrad.html#a5bc6f86d12b5b4734f597a88800d8330" target="_top" xlink:title=" ">
<polygon fill="white" stroke="black" points="472.5,-137 472.5,-167 561.5,-167 561.5,-137 472.5,-137"/>
<text text-anchor="start" x="480.5" y="-155" font-family="Helvetica,sans-Serif" font-size="10.00">xtb_intgrad::build</text>
<text text-anchor="middle" x="517" y="-144" font-family="Helvetica,sans-Serif" font-size="10.00">_hshift2</text>
</a>
</g>
</g>
<!-- Node5&#45;&gt;Node6 -->
<g id="edge5" class="edge">
<title>Node5&#45;&gt;Node6</title>
<path fill="none" stroke="midnightblue" d="M424.83,-137.14C436.74,-139.08 449.78,-141.21 462.17,-143.23"/>
<polygon fill="midnightblue" stroke="midnightblue" points="461.96,-146.74 472.39,-144.89 463.08,-139.83 461.96,-146.74"/>
</g>
<!-- Node7 -->
<g id="node7" class="node">
<title>Node7</title>
<g id="a_node7"><a xlink:href="namespacextb__intgrad.html#a040b47e4b45c55028569fcad9704172a" target="_top" xlink:title=" ">
<polygon fill="white" stroke="black" points="471,-98.5 471,-117.5 563,-117.5 563,-98.5 471,-98.5"/>
<text text-anchor="middle" x="517" y="-105.5" font-family="Helvetica,sans-Serif" font-size="10.00">xtb_intgrad::prod3</text>
</a>
</g>
</g>
<!-- Node5&#45;&gt;Node7 -->
<g id="edge6" class="edge">
<title>Node5&#45;&gt;Node7</title>
<path fill="none" stroke="midnightblue" d="M424.83,-122.86C436.26,-120.99 448.72,-118.96 460.66,-117.02"/>
<polygon fill="midnightblue" stroke="midnightblue" points="461.23,-120.47 470.53,-115.41 460.1,-113.56 461.23,-120.47"/>
</g>
</g>
</svg>
        <g id="navigator" transform="translate(0 0)" fill="#404254">
                <rect fill="#f2f5e9" fill-opacity="0.5" stroke="#606060" stroke-width=".5" x="0" y="0" width="60" height="60"/>
                <use id="zoomplus" xlink:href="#zoomPlus" x="17" y="9" onmousedown="handleZoom(evt,'in')"/>
                <use id="zoomminus" xlink:href="#zoomMin" x="42" y="9" onmousedown="handleZoom(evt,'out')"/>
                <use id="reset" xlink:href="#resetDef" x="30" y="36" onmousedown="handleReset()"/>
                <g id="arrowUp" xlink:href="#dirArrow" transform="translate(30 24)" onmousedown="handlePan(0,-1)">
                  <use xlink:href="#rim" fill="#404040">
                        <set attributeName="fill" to="#808080" begin="arrowUp.mouseover" end="arrowUp.mouseout"/>
                  </use>
                  <path fill="none" stroke="white" stroke-width="1.5" d="M0,-3.0v7 M-2.5,-0.5L0,-3.0L2.5,-0.5"/>
                </g>
                <g id="arrowRight" xlink:href="#dirArrow" transform="rotate(90) translate(36 -43)" onmousedown="handlePan(1,0)">
                  <use xlink:href="#rim" fill="#404040">
                        <set attributeName="fill" to="#808080" begin="arrowRight.mouseover" end="arrowRight.mouseout"/>
                  </use>
                  <path fill="none" stroke="white" stroke-width="1.5" d="M0,-3.0v7 M-2.5,-0.5L0,-3.0L2.5,-0.5"/>
                </g>
                <g id="arrowDown" xlink:href="#dirArrow" transform="rotate(180) translate(-30 -48)" onmousedown="handlePan(0,1)">
                  <use xlink:href="#rim" fill="#404040">
                        <set attributeName="fill" to="#808080" begin="arrowDown.mouseover" end="arrowDown.mouseout"/>
                  </use>
                  <path fill="none" stroke="white" stroke-width="1.5" d="M0,-3.0v7 M-2.5,-0.5L0,-3.0L2.5,-0.5"/>
                </g>
                <g id="arrowLeft" xlink:href="#dirArrow" transform="rotate(270) translate(-36 17)" onmousedown="handlePan(-1,0)">
                  <use xlink:href="#rim" fill="#404040">
                        <set attributeName="fill" to="#808080" begin="arrowLeft.mouseover" end="arrowLeft.mouseout"/>
                  </use>
                  <path fill="none" stroke="white" stroke-width="1.5" d="M0,-3.0v7 M-2.5,-0.5L0,-3.0L2.5,-0.5"/>
                </g>
        </g>
        <svg viewBox="0 0 15 15" width="100%" height="30px" preserveAspectRatio="xMaxYMin meet">
         <g id="arrow_out" transform="scale(0.3 0.3)">
          <a xlink:href="namespacextb__peeq_a101bc81468c2cd4ddd3221efaa59b142_cgraph_org.svg" target="_base">
           <rect id="button" ry="5" rx="5" y="6" x="6" height="38" width="38"
                fill="#f2f5e9" fill-opacity="0.5" stroke="#606060" stroke-width="1.0"/>
           <path id="arrow"
             d="M 11.500037,31.436501 C 11.940474,20.09759 22.043105,11.32322 32.158766,21.979434 L 37.068811,17.246167 C 37.068811,17.246167 37.088388,32 37.088388,32 L 22.160133,31.978069 C 22.160133,31.978069 26.997745,27.140456 26.997745,27.140456 C 18.528582,18.264221 13.291696,25.230495 11.500037,31.436501 z"
             style="fill:#404040;"/>
          </a>
         </g>
        </svg>
</svg>
