<?xml version="1.0" encoding="UTF-8" standalone="no"?>
<!DOCTYPE svg PUBLIC "-//W3C//DTD SVG 1.1//EN"
 "http://www.w3.org/Graphics/SVG/1.1/DTD/svg11.dtd">
<!-- Generated by graphviz version 2.43.0 (0)
 -->
<!-- Title: xtb_intpack::olap Pages: 1 -->
<svg width="515pt" height="123pt"
 viewBox="0.00 0.00 515.00 123.00" xmlns="http://www.w3.org/2000/svg" xmlns:xlink="http://www.w3.org/1999/xlink">
<g id="graph0" class="graph" transform="scale(1 1) rotate(0) translate(4 119)">
<title>xtb_intpack::olap</title>
<polygon fill="white" stroke="transparent" points="-4,4 -4,-119 511,-119 511,4 -4,4"/>
<!-- Node1 -->
<g id="node1" class="node">
<title>Node1</title>
<g id="a_node1"><a xlink:title=" ">
<polygon fill="#bfbfbf" stroke="black" points="406,-38.5 406,-57.5 507,-57.5 507,-38.5 406,-38.5"/>
<text text-anchor="middle" x="456.5" y="-45.5" font-family="Helvetica,sans-Serif" font-size="10.00">xtb_intpack::olap</text>
</a>
</g>
</g>
<!-- Node2 -->
<g id="node2" class="node">
<title>Node2</title>
<g id="a_node2"><a xlink:href="namespacextb__intpack.html#ad6e57dd6c920d9a1d35787c045bc98c6" target="_top" xlink:title=" ">
<polygon fill="white" stroke="black" points="260,-76.5 260,-95.5 370,-95.5 370,-76.5 260,-76.5"/>
<text text-anchor="middle" x="315" y="-83.5" font-family="Helvetica,sans-Serif" font-size="10.00">xtb_intpack::opab1</text>
</a>
</g>
</g>
<!-- Node1&#45;&gt;Node2 -->
<g id="edge1" class="edge">
<title>Node1&#45;&gt;Node2</title>
<path fill="none" stroke="midnightblue" d="M410.54,-60.25C391.32,-65.48 369.2,-71.51 351.19,-76.41"/>
<polygon fill="midnightblue" stroke="midnightblue" points="411.57,-63.59 420.3,-57.59 409.73,-56.84 411.57,-63.59"/>
</g>
<!-- Node6 -->
<g id="node6" class="node">
<title>Node6</title>
<g id="a_node6"><a xlink:href="namespacextb__intpack.html#ae677d89b3c003d02cebfdf1c3d221fc3" target="_top" xlink:title=" ">
<polygon fill="white" stroke="black" points="260,-38.5 260,-57.5 370,-57.5 370,-38.5 260,-38.5"/>
<text text-anchor="middle" x="315" y="-45.5" font-family="Helvetica,sans-Serif" font-size="10.00">xtb_intpack::opab4</text>
</a>
</g>
</g>
<!-- Node1&#45;&gt;Node6 -->
<g id="edge5" class="edge">
<title>Node1&#45;&gt;Node6</title>
<path fill="none" stroke="midnightblue" d="M395.7,-48C387.22,-48 378.53,-48 370.15,-48"/>
<polygon fill="midnightblue" stroke="midnightblue" points="395.92,-51.5 405.92,-48 395.92,-44.5 395.92,-51.5"/>
</g>
<!-- Node7 -->
<g id="node7" class="node">
<title>Node7</title>
<g id="a_node7"><a xlink:href="namespacextb__intpack.html#a0ac27f1f3b65c8e8a60e065340889b86" target="_top" xlink:title=" ">
<polygon fill="white" stroke="black" points="260,-0.5 260,-19.5 370,-19.5 370,-0.5 260,-0.5"/>
<text text-anchor="middle" x="315" y="-7.5" font-family="Helvetica,sans-Serif" font-size="10.00">xtb_intpack::opad1</text>
</a>
</g>
</g>
<!-- Node1&#45;&gt;Node7 -->
<g id="edge6" class="edge">
<title>Node1&#45;&gt;Node7</title>
<path fill="none" stroke="midnightblue" d="M410.54,-35.75C391.32,-30.52 369.2,-24.49 351.19,-19.59"/>
<polygon fill="midnightblue" stroke="midnightblue" points="409.73,-39.16 420.3,-38.41 411.57,-32.41 409.73,-39.16"/>
</g>
<!-- Node3 -->
<g id="node3" class="node">
<title>Node3</title>
<g id="a_node3"><a xlink:href="namespacextb__dipole.html#aab0b85d5f1bccf51f2906833306ff640" target="_top" xlink:title=" ">
<polygon fill="white" stroke="black" points="126,-76.5 126,-95.5 224,-95.5 224,-76.5 126,-76.5"/>
<text text-anchor="middle" x="175" y="-83.5" font-family="Helvetica,sans-Serif" font-size="10.00">xtb_dipole::dints</text>
</a>
</g>
</g>
<!-- Node2&#45;&gt;Node3 -->
<g id="edge2" class="edge">
<title>Node2&#45;&gt;Node3</title>
<path fill="none" stroke="midnightblue" d="M249.8,-86C241.18,-86 232.45,-86 224.16,-86"/>
<polygon fill="midnightblue" stroke="midnightblue" points="249.85,-89.5 259.85,-86 249.85,-82.5 249.85,-89.5"/>
</g>
<!-- Node4 -->
<g id="node4" class="node">
<title>Node4</title>
<g id="a_node4"><a xlink:href="namespacextb__hlex.html#a9567145f01de2589b8d5a029c45d42db" target="_top" xlink:title=" ">
<polygon fill="white" stroke="black" points="2,-95.5 2,-114.5 88,-114.5 88,-95.5 2,-95.5"/>
<text text-anchor="middle" x="45" y="-102.5" font-family="Helvetica,sans-Serif" font-size="10.00">xtb_hlex::hlex</text>
</a>
</g>
</g>
<!-- Node3&#45;&gt;Node4 -->
<g id="edge3" class="edge">
<title>Node3&#45;&gt;Node4</title>
<path fill="none" stroke="midnightblue" d="M116,-94.61C106.7,-95.99 97.24,-97.39 88.4,-98.71"/>
<polygon fill="midnightblue" stroke="midnightblue" points="116.6,-98.06 125.97,-93.13 115.57,-91.14 116.6,-98.06"/>
</g>
<!-- Node5 -->
<g id="node5" class="node">
<title>Node5</title>
<g id="a_node5"><a xlink:href="namespacextb__local.html#a6aafec43f9ac7235a5dfd2c36ed1f56b" target="_top" xlink:title=" ">
<polygon fill="white" stroke="black" points="0,-57.5 0,-76.5 90,-76.5 90,-57.5 0,-57.5"/>
<text text-anchor="middle" x="45" y="-64.5" font-family="Helvetica,sans-Serif" font-size="10.00">xtb_local::local</text>
</a>
</g>
</g>
<!-- Node3&#45;&gt;Node5 -->
<g id="edge4" class="edge">
<title>Node3&#45;&gt;Node5</title>
<path fill="none" stroke="midnightblue" d="M115.89,-77.37C107.22,-76.09 98.39,-74.78 90.07,-73.54"/>
<polygon fill="midnightblue" stroke="midnightblue" points="115.57,-80.86 125.97,-78.87 116.6,-73.94 115.57,-80.86"/>
</g>
</g>
</svg>
