<?xml version="1.0" encoding="UTF-8" standalone="no"?>
<!DOCTYPE svg PUBLIC "-//W3C//DTD SVG 1.1//EN"
 "http://www.w3.org/Graphics/SVG/1.1/DTD/svg11.dtd">
<!-- Generated by graphviz version 2.46.1 (20210215.1649)
 -->
<!-- Title: xtb_basic_geo::valijk Pages: 1 -->
<!--zoomable 335 -->
<svg id="main" version="1.1" xmlns="http://www.w3.org/2000/svg" xmlns:xlink="http://www.w3.org/1999/xlink" xml:space="preserve" onload="init(evt)">
<style type="text/css"><![CDATA[
.edge:hover path { stroke: red; }
.edge:hover polygon { stroke: red; fill: red; }
]]></style>
<script type="text/javascript"><![CDATA[
var edges = document.getElementsByTagName('g');
if (edges && edges.length) {
  for (var i=0;i<edges.length;i++) {
    if (edges[i].id.substr(0,4)=='edge') {
      edges[i].setAttribute('class','edge');
    }
  }
}
]]></script>
        <defs>
                <circle id="rim" cx="0" cy="0" r="7"/>
                <circle id="rim2" cx="0" cy="0" r="3.5"/>
                <g id="zoomPlus">
                        <use xlink:href="#rim" fill="#404040">
                                <set attributeName="fill" to="#808080" begin="zoomplus.mouseover" end="zoomplus.mouseout"/>
                        </use>
                        <path d="M-4,0h8M0,-4v8" fill="none" stroke="white" stroke-width="1.5" pointer-events="none"/>
                </g>
                <g id="zoomMin">
                        <use xlink:href="#rim" fill="#404040">
                                <set attributeName="fill" to="#808080" begin="zoomminus.mouseover" end="zoomminus.mouseout"/>
                        </use>
                        <path d="M-4,0h8" fill="none" stroke="white" stroke-width="1.5" pointer-events="none"/>
                </g>
                <g id="dirArrow">
                        <path fill="none" stroke="white" stroke-width="1.5" d="M0,-3.0v7 M-2.5,-0.5L0,-3.0L2.5,-0.5"/>
                </g>
               <g id="resetDef">
                       <use xlink:href="#rim2" fill="#404040">
                               <set attributeName="fill" to="#808080" begin="reset.mouseover" end="reset.mouseout"/>
                       </use>
               </g>
        </defs>

<script type="text/javascript">
var viewWidth = 1653;
var viewHeight = 335;
var sectionId = 'dynsection-10';
</script>
<script xlink:href="svgpan.js"/>
<svg id="graph" class="graph">
<g id="viewport">
<title>xtb_basic_geo::valijk</title>
<polygon fill="white" stroke="transparent" points="-4,4 -4,-331.08 1649,-331.08 1649,4 -4,4"/>
<!-- Node1 -->
<g id="node1" class="node">
<title>Node1</title>
<g id="a_node1"><a xlink:title=" ">
<polygon fill="#bfbfbf" stroke="black" points="1539,-139.5 1539,-158.5 1645,-158.5 1645,-139.5 1539,-139.5"/>
<text text-anchor="middle" x="1592" y="-146.5" font-family="Helvetica,sans-Serif" font-size="10.00">xtb_basic_geo::valijk</text>
</a>
</g>
</g>
<!-- Node2 -->
<g id="node2" class="node">
<title>Node2</title>
<g id="a_node2"><a xlink:href="namespacextb__basic__geo.html#ad8c2f50bb68be7fd81ece4eb6f5b2ae8" target="_top" xlink:title=" ">
<polygon fill="white" stroke="black" points="1395,-139.5 1395,-158.5 1503,-158.5 1503,-139.5 1395,-139.5"/>
<text text-anchor="middle" x="1449" y="-146.5" font-family="Helvetica,sans-Serif" font-size="10.00">xtb_basic_geo::valijkl</text>
</a>
</g>
</g>
<!-- Node1&#45;&gt;Node2 -->
<g id="edge1" class="edge">
<title>Node1&#45;&gt;Node2</title>
<path fill="none" stroke="midnightblue" d="M1528.68,-149C1520.22,-149 1511.59,-149 1503.3,-149"/>
<polygon fill="midnightblue" stroke="midnightblue" points="1528.9,-152.5 1538.9,-149 1528.9,-145.5 1528.9,-152.5"/>
</g>
<!-- Node3 -->
<g id="node3" class="node">
<title>Node3</title>
<g id="a_node3"><a xlink:href="namespacextb__constrainpot.html#a07cff63f1e1c8aa4556f80b093011335" target="_top" xlink:title=" ">
<polygon fill="white" stroke="black" points="1227,-134 1227,-164 1359,-164 1359,-134 1227,-134"/>
<text text-anchor="start" x="1235" y="-152" font-family="Helvetica,sans-Serif" font-size="10.00">xtb_constrainpot::constrain</text>
<text text-anchor="middle" x="1293" y="-141" font-family="Helvetica,sans-Serif" font-size="10.00">_dihedral</text>
</a>
</g>
</g>
<!-- Node2&#45;&gt;Node3 -->
<g id="edge2" class="edge">
<title>Node2&#45;&gt;Node3</title>
<path fill="none" stroke="midnightblue" d="M1384.46,-149C1376.06,-149 1367.44,-149 1359.01,-149"/>
<polygon fill="midnightblue" stroke="midnightblue" points="1384.57,-152.5 1394.57,-149 1384.57,-145.5 1384.57,-152.5"/>
</g>
<!-- Node4 -->
<g id="node4" class="node">
<title>Node4</title>
<g id="a_node4"><a xlink:href="namespacextb__constrainpot.html#ad9b8afcae411277c3328be0e3ff8c8b4" target="_top" xlink:title=" ">
<polygon fill="white" stroke="black" points="1040,-207.5 1040,-226.5 1191,-226.5 1191,-207.5 1040,-207.5"/>
<text text-anchor="middle" x="1115.5" y="-214.5" font-family="Helvetica,sans-Serif" font-size="10.00">xtb_constrainpot::constrain_pot</text>
</a>
</g>
</g>
<!-- Node3&#45;&gt;Node4 -->
<g id="edge3" class="edge">
<title>Node3&#45;&gt;Node4</title>
<path fill="none" stroke="midnightblue" d="M1243.53,-167.78C1210.35,-180.64 1167.73,-197.15 1141.27,-207.4"/>
<polygon fill="midnightblue" stroke="midnightblue" points="1244.99,-170.97 1253.05,-164.09 1242.46,-164.44 1244.99,-170.97"/>
</g>
<!-- Node8 -->
<g id="node8" class="node">
<title>Node8</title>
<g id="a_node8"><a xlink:href="constr_8f90.html#a32820f74383b0f93c743faceb8385214" target="_top" xlink:title=" ">
<polygon fill="white" stroke="black" points="1083,-139.5 1083,-158.5 1148,-158.5 1148,-139.5 1083,-139.5"/>
<text text-anchor="middle" x="1115.5" y="-146.5" font-family="Helvetica,sans-Serif" font-size="10.00">constrhess</text>
</a>
</g>
</g>
<!-- Node3&#45;&gt;Node8 -->
<g id="edge7" class="edge">
<title>Node3&#45;&gt;Node8</title>
<path fill="none" stroke="midnightblue" d="M1216.52,-149C1192.65,-149 1167.55,-149 1148.47,-149"/>
<polygon fill="midnightblue" stroke="midnightblue" points="1216.65,-152.5 1226.65,-149 1216.65,-145.5 1216.65,-152.5"/>
</g>
<!-- Node24 -->
<g id="node24" class="node">
<title>Node24</title>
<g id="a_node24"><a xlink:href="namespacextb__scanparam.html#a98e6076b6bb1acc609033880889710ae" target="_top" xlink:title=" ">
<polygon fill="white" stroke="black" points="280,-0.5 280,-19.5 402,-19.5 402,-0.5 280,-0.5"/>
<text text-anchor="middle" x="341" y="-7.5" font-family="Helvetica,sans-Serif" font-size="10.00">xtb_scanparam::pot_info</text>
</a>
</g>
</g>
<!-- Node3&#45;&gt;Node24 -->
<g id="edge32" class="edge">
<title>Node3&#45;&gt;Node24</title>
<path fill="none" stroke="midnightblue" d="M1262.04,-128.16C1204.24,-90.05 1072.09,-13 948.5,-13 948.5,-13 948.5,-13 649,-13 563.19,-13 463.88,-11.81 402,-10.93"/>
<polygon fill="midnightblue" stroke="midnightblue" points="1260.41,-131.28 1270.67,-133.93 1264.3,-125.46 1260.41,-131.28"/>
</g>
<!-- Node5 -->
<g id="node5" class="node">
<title>Node5</title>
<g id="a_node5"><a xlink:href="namespacextb__gfnff__calculator.html#a8775e737196933e41e48728956ddf782" target="_top" xlink:title=" ">
<polygon fill="white" stroke="black" points="897,-276 897,-306 998,-306 998,-276 897,-276"/>
<text text-anchor="start" x="905" y="-294" font-family="Helvetica,sans-Serif" font-size="10.00">xtb_gfnff_calculator</text>
<text text-anchor="middle" x="947.5" y="-283" font-family="Helvetica,sans-Serif" font-size="10.00">::singlepoint</text>
</a>
</g>
</g>
<!-- Node4&#45;&gt;Node5 -->
<g id="edge4" class="edge">
<title>Node4&#45;&gt;Node5</title>
<path fill="none" stroke="midnightblue" d="M1084.54,-230.72C1062.35,-240.84 1031.34,-254.9 1004,-267 997.38,-269.93 990.29,-273.03 983.47,-275.98"/>
<polygon fill="midnightblue" stroke="midnightblue" points="1086.13,-233.84 1093.77,-226.5 1083.22,-227.47 1086.13,-233.84"/>
</g>
<!-- Node6 -->
<g id="node6" class="node">
<title>Node6</title>
<g id="a_node6"><a xlink:href="namespacextb__type__dummycalc.html#a28a36738c316fb4a0655328844e94957" target="_top" xlink:title=" ">
<polygon fill="white" stroke="black" points="894,-227 894,-257 1001,-257 1001,-227 894,-227"/>
<text text-anchor="start" x="902" y="-245" font-family="Helvetica,sans-Serif" font-size="10.00">xtb_type_dummycalc</text>
<text text-anchor="middle" x="947.5" y="-234" font-family="Helvetica,sans-Serif" font-size="10.00">::singlepoint</text>
</a>
</g>
</g>
<!-- Node4&#45;&gt;Node6 -->
<g id="edge5" class="edge">
<title>Node4&#45;&gt;Node6</title>
<path fill="none" stroke="midnightblue" d="M1041.05,-228.06C1027.57,-230.09 1013.74,-232.17 1001.03,-234.09"/>
<polygon fill="midnightblue" stroke="midnightblue" points="1041.9,-231.47 1051.27,-226.52 1040.86,-224.55 1041.9,-231.47"/>
</g>
<!-- Node7 -->
<g id="node7" class="node">
<title>Node7</title>
<g id="a_node7"><a xlink:href="namespacextb__xtb__calculator.html#a75c96263c235c99dfeeda3e865f9898c" target="_top" xlink:title=" ">
<polygon fill="white" stroke="black" points="900,-178 900,-208 995,-208 995,-178 900,-178"/>
<text text-anchor="start" x="908" y="-196" font-family="Helvetica,sans-Serif" font-size="10.00">xtb_xtb_calculator</text>
<text text-anchor="middle" x="947.5" y="-185" font-family="Helvetica,sans-Serif" font-size="10.00">::singlepoint</text>
</a>
</g>
</g>
<!-- Node4&#45;&gt;Node7 -->
<g id="edge6" class="edge">
<title>Node4&#45;&gt;Node7</title>
<path fill="none" stroke="midnightblue" d="M1038.3,-205.98C1023.6,-203.86 1008.61,-201.69 995.2,-199.75"/>
<polygon fill="midnightblue" stroke="midnightblue" points="1038.02,-209.48 1048.42,-207.45 1039.02,-202.55 1038.02,-209.48"/>
</g>
<!-- Node9 -->
<g id="node9" class="node">
<title>Node9</title>
<g id="a_node9"><a xlink:href="namespacextb__optimizer.html#a9fc9ad9955c0a2ef4872d25495d02901" target="_top" xlink:title=" ">
<polygon fill="white" stroke="black" points="891,-139.5 891,-158.5 1004,-158.5 1004,-139.5 891,-139.5"/>
<text text-anchor="middle" x="947.5" y="-146.5" font-family="Helvetica,sans-Serif" font-size="10.00">xtb_optimizer::modhes</text>
</a>
</g>
</g>
<!-- Node8&#45;&gt;Node9 -->
<g id="edge8" class="edge">
<title>Node8&#45;&gt;Node9</title>
<path fill="none" stroke="midnightblue" d="M1072.79,-149C1052.02,-149 1026.61,-149 1004.2,-149"/>
<polygon fill="midnightblue" stroke="midnightblue" points="1072.89,-152.5 1082.89,-149 1072.89,-145.5 1072.89,-152.5"/>
</g>
<!-- Node10 -->
<g id="node10" class="node">
<title>Node10</title>
<g id="a_node10"><a xlink:href="namespacextb__optimizer.html#a1743159550358c92fb2761af80e15285" target="_top" xlink:title=" ">
<polygon fill="white" stroke="black" points="746.5,-208.5 746.5,-227.5 853.5,-227.5 853.5,-208.5 746.5,-208.5"/>
<text text-anchor="middle" x="800" y="-215.5" font-family="Helvetica,sans-Serif" font-size="10.00">xtb_optimizer::ancopt</text>
</a>
</g>
</g>
<!-- Node9&#45;&gt;Node10 -->
<g id="edge9" class="edge">
<title>Node9&#45;&gt;Node10</title>
<path fill="none" stroke="midnightblue" d="M904.42,-162.38C899.79,-164.37 895.22,-166.58 891,-169 872.93,-179.35 873.11,-188.71 855,-199 848.52,-202.68 841.2,-205.84 834.09,-208.46"/>
<polygon fill="midnightblue" stroke="midnightblue" points="905.96,-165.53 913.95,-158.59 903.37,-159.03 905.96,-165.53"/>
</g>
<!-- Node22 -->
<g id="node22" class="node">
<title>Node22</title>
<g id="a_node22"><a xlink:href="namespacextb__relaxation__engine.html#a930f6aac4b13eab0de82f2b71bcde96b" target="_top" xlink:title="frontend implementation of the fast inertial relaxation engine">
<polygon fill="white" stroke="black" points="745,-159 745,-189 855,-189 855,-159 745,-159"/>
<text text-anchor="start" x="753" y="-177" font-family="Helvetica,sans-Serif" font-size="10.00">xtb_relaxation_engine</text>
<text text-anchor="middle" x="800" y="-166" font-family="Helvetica,sans-Serif" font-size="10.00">::fire</text>
</a>
</g>
</g>
<!-- Node9&#45;&gt;Node22 -->
<g id="edge28" class="edge">
<title>Node9&#45;&gt;Node22</title>
<path fill="none" stroke="midnightblue" d="M881.06,-160.24C872.45,-161.72 863.7,-163.23 855.31,-164.67"/>
<polygon fill="midnightblue" stroke="midnightblue" points="881.81,-163.67 891.08,-158.52 880.63,-156.77 881.81,-163.67"/>
</g>
<!-- Node23 -->
<g id="node23" class="node">
<title>Node23</title>
<g id="a_node23"><a xlink:href="namespacextb__relaxation__engine.html#a93ca131c43cfa21276f1bc353c189423" target="_top" xlink:title="frontend implementation of the low memory/linear scaling (by taste)">
<polygon fill="white" stroke="black" points="745,-110 745,-140 855,-140 855,-110 745,-110"/>
<text text-anchor="start" x="753" y="-128" font-family="Helvetica,sans-Serif" font-size="10.00">xtb_relaxation_engine</text>
<text text-anchor="middle" x="800" y="-117" font-family="Helvetica,sans-Serif" font-size="10.00">::l_ancopt</text>
</a>
</g>
</g>
<!-- Node9&#45;&gt;Node23 -->
<g id="edge30" class="edge">
<title>Node9&#45;&gt;Node23</title>
<path fill="none" stroke="midnightblue" d="M880.67,-138.14C872.09,-136.73 863.37,-135.29 855.01,-133.91"/>
<polygon fill="midnightblue" stroke="midnightblue" points="880.23,-141.62 890.66,-139.79 881.36,-134.71 880.23,-141.62"/>
</g>
<!-- Node11 -->
<g id="node11" class="node">
<title>Node11</title>
<g id="a_node11"><a xlink:href="namespacextb__biaspath.html#a17ea22b101e578a3df8d2b58b96811a5" target="_top" xlink:title=" ">
<polygon fill="white" stroke="black" points="591,-262.5 591,-281.5 709,-281.5 709,-262.5 591,-262.5"/>
<text text-anchor="middle" x="650" y="-269.5" font-family="Helvetica,sans-Serif" font-size="10.00">xtb_biaspath::bias_path</text>
</a>
</g>
</g>
<!-- Node10&#45;&gt;Node11 -->
<g id="edge10" class="edge">
<title>Node10&#45;&gt;Node11</title>
<path fill="none" stroke="midnightblue" d="M763.22,-231.06C736.74,-240.72 701.27,-253.66 677.36,-262.38"/>
<polygon fill="midnightblue" stroke="midnightblue" points="764.69,-234.25 772.88,-227.53 762.29,-227.67 764.69,-234.25"/>
</g>
<!-- Node14 -->
<g id="node14" class="node">
<title>Node14</title>
<g id="a_node14"><a xlink:href="namespacextb__geoopt.html#a1f0513294f2237b94f355cc4dc5dd867" target="_top" xlink:title=" ">
<polygon fill="white" stroke="black" points="596,-159 596,-189 704,-189 704,-159 596,-159"/>
<text text-anchor="start" x="604" y="-177" font-family="Helvetica,sans-Serif" font-size="10.00">xtb_geoopt::geometry</text>
<text text-anchor="middle" x="650" y="-166" font-family="Helvetica,sans-Serif" font-size="10.00">_optimization</text>
</a>
</g>
</g>
<!-- Node10&#45;&gt;Node14 -->
<g id="edge13" class="edge">
<title>Node10&#45;&gt;Node14</title>
<path fill="none" stroke="midnightblue" d="M757.11,-205.54C739.86,-200.42 719.74,-194.44 701.67,-189.07"/>
<polygon fill="midnightblue" stroke="midnightblue" points="756.3,-208.96 766.89,-208.45 758.3,-202.25 756.3,-208.96"/>
</g>
<!-- Node12 -->
<g id="node12" class="node">
<title>Node12</title>
<g id="a_node12"><a xlink:href="namespacextb__prog__main.html#a92b3b61ee04235e6343f652095682529" target="_top" xlink:title=" ">
<polygon fill="white" stroke="black" points="126,-164.5 126,-183.5 244,-183.5 244,-164.5 126,-164.5"/>
<text text-anchor="middle" x="185" y="-171.5" font-family="Helvetica,sans-Serif" font-size="10.00">xtb_prog_main::xtbmain</text>
</a>
</g>
</g>
<!-- Node11&#45;&gt;Node12 -->
<g id="edge11" class="edge">
<title>Node11&#45;&gt;Node12</title>
<path fill="none" stroke="midnightblue" d="M616.18,-285.22C548.97,-310.08 392.52,-356.44 280,-300 229.75,-274.79 199.5,-208.57 189.61,-183.66"/>
<polygon fill="midnightblue" stroke="midnightblue" points="617.69,-288.39 625.81,-281.58 615.22,-281.84 617.69,-288.39"/>
</g>
<!-- Node13 -->
<g id="node13" class="node">
<title>Node13</title>
<g id="a_node13"><a xlink:href="primary_8f90.html#a2a67903cf5be605c5b6d3c362c6a3c5c" target="_top" xlink:title="The primary driver for the xtb program package.">
<polygon fill="white" stroke="black" points="0,-164.5 0,-183.5 90,-183.5 90,-164.5 0,-164.5"/>
<text text-anchor="middle" x="45" y="-171.5" font-family="Helvetica,sans-Serif" font-size="10.00">xtb_prog_primary</text>
</a>
</g>
</g>
<!-- Node12&#45;&gt;Node13 -->
<g id="edge12" class="edge">
<title>Node12&#45;&gt;Node13</title>
<path fill="none" stroke="midnightblue" d="M115.73,-174C107.06,-174 98.37,-174 90.22,-174"/>
<polygon fill="midnightblue" stroke="midnightblue" points="115.88,-177.5 125.88,-174 115.88,-170.5 115.88,-177.5"/>
</g>
<!-- Node14&#45;&gt;Node12 -->
<g id="edge27" class="edge">
<title>Node14&#45;&gt;Node12</title>
<path fill="none" stroke="midnightblue" d="M634.13,-197.43C617.9,-220.59 589.56,-254.58 555,-269 442.21,-316.07 392.79,-316.07 280,-269 237.6,-251.31 204.56,-204.15 191.76,-183.7"/>
<polygon fill="midnightblue" stroke="midnightblue" points="637.03,-199.39 639.75,-189.15 631.24,-195.46 637.03,-199.39"/>
</g>
<!-- Node15 -->
<g id="node15" class="node">
<title>Node15</title>
<g id="a_node15"><a xlink:href="namespacextb__kopt.html#ada4ab70832f563f46c8ffc8cea64c78b" target="_top" xlink:title=" ">
<polygon fill="white" stroke="black" points="447.5,-240.5 447.5,-259.5 545.5,-259.5 545.5,-240.5 447.5,-240.5"/>
<text text-anchor="middle" x="496.5" y="-247.5" font-family="Helvetica,sans-Serif" font-size="10.00">xtb_kopt::get_rmsd</text>
</a>
</g>
</g>
<!-- Node14&#45;&gt;Node15 -->
<g id="edge14" class="edge">
<title>Node14&#45;&gt;Node15</title>
<path fill="none" stroke="midnightblue" d="M614.69,-194.17C597.09,-204.21 575.16,-216.25 555,-226 544.38,-231.13 532.38,-236.25 522.1,-240.42"/>
<polygon fill="midnightblue" stroke="midnightblue" points="616.54,-197.14 623.47,-189.12 613.05,-191.07 616.54,-197.14"/>
</g>
<!-- Node17 -->
<g id="node17" class="node">
<title>Node17</title>
<g id="a_node17"><a xlink:href="namespacextb__mdoptim.html#ab0ba2195163cd6794115b99516ba5316" target="_top" xlink:title=" ">
<polygon fill="white" stroke="black" points="289,-202.5 289,-221.5 393,-221.5 393,-202.5 289,-202.5"/>
<text text-anchor="middle" x="341" y="-209.5" font-family="Helvetica,sans-Serif" font-size="10.00">xtb_mdoptim::mdopt</text>
</a>
</g>
</g>
<!-- Node14&#45;&gt;Node17 -->
<g id="edge17" class="edge">
<title>Node14&#45;&gt;Node17</title>
<path fill="none" stroke="midnightblue" d="M586.16,-187.7C575.78,-189.67 565.11,-191.53 555,-193 500.07,-200.98 436.66,-206.12 393.4,-209.01"/>
<polygon fill="midnightblue" stroke="midnightblue" points="586.84,-191.13 595.99,-185.78 585.5,-184.26 586.84,-191.13"/>
</g>
<!-- Node18 -->
<g id="node18" class="node">
<title>Node18</title>
<g id="a_node18"><a xlink:href="namespacextb__modef.html#a39c4cb408b8b02afb7bf83a1d7f13de3" target="_top" xlink:title=" ">
<polygon fill="white" stroke="black" points="438.5,-164.5 438.5,-183.5 554.5,-183.5 554.5,-164.5 438.5,-164.5"/>
<text text-anchor="middle" x="496.5" y="-171.5" font-family="Helvetica,sans-Serif" font-size="10.00">xtb_modef::modefollow</text>
</a>
</g>
</g>
<!-- Node14&#45;&gt;Node18 -->
<g id="edge19" class="edge">
<title>Node14&#45;&gt;Node18</title>
<path fill="none" stroke="midnightblue" d="M585.46,-174C575.2,-174 564.64,-174 554.54,-174"/>
<polygon fill="midnightblue" stroke="midnightblue" points="585.59,-177.5 595.59,-174 585.59,-170.5 585.59,-177.5"/>
</g>
<!-- Node19 -->
<g id="node19" class="node">
<title>Node19</title>
<g id="a_node19"><a xlink:href="namespacextb__scan.html#abef8f8d0fa299e9e2caf823f3672f14a" target="_top" xlink:title=" ">
<polygon fill="white" stroke="black" points="438,-126.5 438,-145.5 555,-145.5 555,-126.5 438,-126.5"/>
<text text-anchor="middle" x="496.5" y="-133.5" font-family="Helvetica,sans-Serif" font-size="10.00">xtb_scan::relaxed_scan</text>
</a>
</g>
</g>
<!-- Node14&#45;&gt;Node19 -->
<g id="edge21" class="edge">
<title>Node14&#45;&gt;Node19</title>
<path fill="none" stroke="midnightblue" d="M585.71,-158.12C568.71,-153.86 550.85,-149.38 535.69,-145.58"/>
<polygon fill="midnightblue" stroke="midnightblue" points="585.04,-161.56 595.59,-160.6 586.74,-154.77 585.04,-161.56"/>
</g>
<!-- Node20 -->
<g id="node20" class="node">
<title>Node20</title>
<g id="a_node20"><a xlink:href="namespacextb__screening.html#a7f4004ff0e65127a38b038f0a7cdcc84" target="_top" xlink:title=" ">
<polygon fill="white" stroke="black" points="441.5,-88.5 441.5,-107.5 551.5,-107.5 551.5,-88.5 441.5,-88.5"/>
<text text-anchor="middle" x="496.5" y="-95.5" font-family="Helvetica,sans-Serif" font-size="10.00">xtb_screening::screen</text>
</a>
</g>
</g>
<!-- Node14&#45;&gt;Node20 -->
<g id="edge23" class="edge">
<title>Node14&#45;&gt;Node20</title>
<path fill="none" stroke="midnightblue" d="M619.02,-153.42C601.02,-141.68 577.34,-127.3 555,-117 547.36,-113.48 538.88,-110.3 530.83,-107.6"/>
<polygon fill="midnightblue" stroke="midnightblue" points="617.1,-156.35 627.37,-158.94 620.96,-150.51 617.1,-156.35"/>
</g>
<!-- Node21 -->
<g id="node21" class="node">
<title>Node21</title>
<g id="a_node21"><a xlink:href="namespacextb__gfnff__convert.html#adf399b47b9f2a8364327d9d5c38cb2b8" target="_top" xlink:title=" ">
<polygon fill="white" stroke="black" points="293.5,-39 293.5,-69 388.5,-69 388.5,-39 293.5,-39"/>
<text text-anchor="start" x="301.5" y="-57" font-family="Helvetica,sans-Serif" font-size="10.00">xtb_gfnff_convert::</text>
<text text-anchor="middle" x="341" y="-46" font-family="Helvetica,sans-Serif" font-size="10.00">struc_convert</text>
</a>
</g>
</g>
<!-- Node14&#45;&gt;Node21 -->
<g id="edge25" class="edge">
<title>Node14&#45;&gt;Node21</title>
<path fill="none" stroke="midnightblue" d="M632.99,-150.34C616.36,-127.86 588.14,-95.16 555,-79 502.29,-53.29 433.82,-49.76 388.93,-50.84"/>
<polygon fill="midnightblue" stroke="midnightblue" points="630.31,-152.61 638.99,-158.69 636,-148.53 630.31,-152.61"/>
</g>
<!-- Node16 -->
<g id="node16" class="node">
<title>Node16</title>
<g id="a_node16"><a xlink:href="namespacextb__kopt.html#aed50b40106367857ab2d0bf3a109f62b" target="_top" xlink:title=" ">
<polygon fill="white" stroke="black" points="293.5,-240.5 293.5,-259.5 388.5,-259.5 388.5,-240.5 293.5,-240.5"/>
<text text-anchor="middle" x="341" y="-247.5" font-family="Helvetica,sans-Serif" font-size="10.00">xtb_kopt::get_kopt</text>
</a>
</g>
</g>
<!-- Node15&#45;&gt;Node16 -->
<g id="edge15" class="edge">
<title>Node15&#45;&gt;Node16</title>
<path fill="none" stroke="midnightblue" d="M437.03,-250C421.03,-250 403.91,-250 388.66,-250"/>
<polygon fill="midnightblue" stroke="midnightblue" points="437.35,-253.5 447.35,-250 437.35,-246.5 437.35,-253.5"/>
</g>
<!-- Node16&#45;&gt;Node12 -->
<g id="edge16" class="edge">
<title>Node16&#45;&gt;Node12</title>
<path fill="none" stroke="midnightblue" d="M295.04,-237.06C289.9,-235.2 284.79,-233.17 280,-231 249.76,-217.28 217.2,-195.88 199.45,-183.58"/>
<polygon fill="midnightblue" stroke="midnightblue" points="294.29,-240.5 304.89,-240.43 296.56,-233.88 294.29,-240.5"/>
</g>
<!-- Node17&#45;&gt;Node12 -->
<g id="edge18" class="edge">
<title>Node17&#45;&gt;Node12</title>
<path fill="none" stroke="midnightblue" d="M291.21,-199.96C269.69,-194.65 244.77,-188.5 224.58,-183.52"/>
<polygon fill="midnightblue" stroke="midnightblue" points="290.59,-203.41 301.14,-202.41 292.27,-196.62 290.59,-203.41"/>
</g>
<!-- Node18&#45;&gt;Node12 -->
<g id="edge20" class="edge">
<title>Node18&#45;&gt;Node12</title>
<path fill="none" stroke="midnightblue" d="M428.03,-174C373.1,-174 296.35,-174 244.11,-174"/>
<polygon fill="midnightblue" stroke="midnightblue" points="428.37,-177.5 438.37,-174 428.37,-170.5 428.37,-177.5"/>
</g>
<!-- Node19&#45;&gt;Node12 -->
<g id="edge22" class="edge">
<title>Node19&#45;&gt;Node12</title>
<path fill="none" stroke="midnightblue" d="M427.66,-144.33C372.74,-151.07 296.22,-160.47 244.09,-166.87"/>
<polygon fill="midnightblue" stroke="midnightblue" points="428.15,-147.8 437.65,-143.1 427.3,-140.85 428.15,-147.8"/>
</g>
<!-- Node20&#45;&gt;Node12 -->
<g id="edge24" class="edge">
<title>Node20&#45;&gt;Node12</title>
<path fill="none" stroke="midnightblue" d="M433.96,-109.46C390.65,-117.93 331.45,-130.33 280,-144 257.32,-150.02 231.99,-158.19 213.35,-164.48"/>
<polygon fill="midnightblue" stroke="midnightblue" points="434.63,-112.89 443.78,-107.55 433.3,-106.02 434.63,-112.89"/>
</g>
<!-- Node21&#45;&gt;Node12 -->
<g id="edge26" class="edge">
<title>Node21&#45;&gt;Node12</title>
<path fill="none" stroke="midnightblue" d="M296.43,-73.83C290.74,-76.97 285.12,-80.39 280,-84 244.72,-108.85 209.76,-146.72 194.28,-164.35"/>
<polygon fill="midnightblue" stroke="midnightblue" points="298.14,-76.88 305.34,-69.12 294.87,-70.69 298.14,-76.88"/>
</g>
<!-- Node22&#45;&gt;Node14 -->
<g id="edge29" class="edge">
<title>Node22&#45;&gt;Node14</title>
<path fill="none" stroke="midnightblue" d="M734.69,-174C724.54,-174 714.14,-174 704.27,-174"/>
<polygon fill="midnightblue" stroke="midnightblue" points="734.73,-177.5 744.73,-174 734.73,-170.5 734.73,-177.5"/>
</g>
<!-- Node23&#45;&gt;Node14 -->
<g id="edge31" class="edge">
<title>Node23&#45;&gt;Node14</title>
<path fill="none" stroke="midnightblue" d="M743.85,-143.26C728.24,-148.43 711.43,-153.99 696.46,-158.95"/>
<polygon fill="midnightblue" stroke="midnightblue" points="744.99,-146.57 753.39,-140.1 742.79,-139.92 744.99,-146.57"/>
</g>
<!-- Node24&#45;&gt;Node12 -->
<g id="edge33" class="edge">
<title>Node24&#45;&gt;Node12</title>
<path fill="none" stroke="midnightblue" d="M287.81,-23.94C285.07,-25.46 282.44,-27.14 280,-29 230.61,-66.64 199.63,-138.21 189.58,-164.23"/>
<polygon fill="midnightblue" stroke="midnightblue" points="289.36,-27.08 296.89,-19.62 286.36,-20.76 289.36,-27.08"/>
</g>
</g>
</svg>
        <g id="navigator" transform="translate(0 0)" fill="#404254">
                <rect fill="#f2f5e9" fill-opacity="0.5" stroke="#606060" stroke-width=".5" x="0" y="0" width="60" height="60"/>
                <use id="zoomplus" xlink:href="#zoomPlus" x="17" y="9" onmousedown="handleZoom(evt,'in')"/>
                <use id="zoomminus" xlink:href="#zoomMin" x="42" y="9" onmousedown="handleZoom(evt,'out')"/>
                <use id="reset" xlink:href="#resetDef" x="30" y="36" onmousedown="handleReset()"/>
                <g id="arrowUp" xlink:href="#dirArrow" transform="translate(30 24)" onmousedown="handlePan(0,-1)">
                  <use xlink:href="#rim" fill="#404040">
                        <set attributeName="fill" to="#808080" begin="arrowUp.mouseover" end="arrowUp.mouseout"/>
                  </use>
                  <path fill="none" stroke="white" stroke-width="1.5" d="M0,-3.0v7 M-2.5,-0.5L0,-3.0L2.5,-0.5"/>
                </g>
                <g id="arrowRight" xlink:href="#dirArrow" transform="rotate(90) translate(36 -43)" onmousedown="handlePan(1,0)">
                  <use xlink:href="#rim" fill="#404040">
                        <set attributeName="fill" to="#808080" begin="arrowRight.mouseover" end="arrowRight.mouseout"/>
                  </use>
                  <path fill="none" stroke="white" stroke-width="1.5" d="M0,-3.0v7 M-2.5,-0.5L0,-3.0L2.5,-0.5"/>
                </g>
                <g id="arrowDown" xlink:href="#dirArrow" transform="rotate(180) translate(-30 -48)" onmousedown="handlePan(0,1)">
                  <use xlink:href="#rim" fill="#404040">
                        <set attributeName="fill" to="#808080" begin="arrowDown.mouseover" end="arrowDown.mouseout"/>
                  </use>
                  <path fill="none" stroke="white" stroke-width="1.5" d="M0,-3.0v7 M-2.5,-0.5L0,-3.0L2.5,-0.5"/>
                </g>
                <g id="arrowLeft" xlink:href="#dirArrow" transform="rotate(270) translate(-36 17)" onmousedown="handlePan(-1,0)">
                  <use xlink:href="#rim" fill="#404040">
                        <set attributeName="fill" to="#808080" begin="arrowLeft.mouseover" end="arrowLeft.mouseout"/>
                  </use>
                  <path fill="none" stroke="white" stroke-width="1.5" d="M0,-3.0v7 M-2.5,-0.5L0,-3.0L2.5,-0.5"/>
                </g>
        </g>
        <svg viewBox="0 0 15 15" width="100%" height="30px" preserveAspectRatio="xMaxYMin meet">
         <g id="arrow_out" transform="scale(0.3 0.3)">
          <a xlink:href="namespacextb__basic__geo_ac6d22aed86cc153f217f39447a2701cc_icgraph_org.svg" target="_base">
           <rect id="button" ry="5" rx="5" y="6" x="6" height="38" width="38"
                fill="#f2f5e9" fill-opacity="0.5" stroke="#606060" stroke-width="1.0"/>
           <path id="arrow"
             d="M 11.500037,31.436501 C 11.940474,20.09759 22.043105,11.32322 32.158766,21.979434 L 37.068811,17.246167 C 37.068811,17.246167 37.088388,32 37.088388,32 L 22.160133,31.978069 C 22.160133,31.978069 26.997745,27.140456 26.997745,27.140456 C 18.528582,18.264221 13.291696,25.230495 11.500037,31.436501 z"
             style="fill:#404040;"/>
          </a>
         </g>
        </svg>
</svg>
