<?xml version="1.0" encoding="UTF-8" standalone="no"?>
<!DOCTYPE svg PUBLIC "-//W3C//DTD SVG 1.1//EN"
 "http://www.w3.org/Graphics/SVG/1.1/DTD/svg11.dtd">
<!-- Generated by graphviz version 2.46.1 (20210215.1649)
 -->
<!-- Title: xtb_qmdff::ff_ini Pages: 1 -->
<svg width="447pt" height="186pt"
 viewBox="0.00 0.00 447.00 185.50" xmlns="http://www.w3.org/2000/svg" xmlns:xlink="http://www.w3.org/1999/xlink">
<g id="graph0" class="graph" transform="scale(1 1) rotate(0) translate(4 181.5)">
<title>xtb_qmdff::ff_ini</title>
<polygon fill="white" stroke="transparent" points="-4,4 -4,-181.5 443,-181.5 443,4 -4,4"/>
<!-- Node1 -->
<g id="node1" class="node">
<title>Node1</title>
<g id="a_node1"><a xlink:title=" ">
<polygon fill="#bfbfbf" stroke="black" points="0,-76.5 0,-95.5 83,-95.5 83,-76.5 0,-76.5"/>
<text text-anchor="middle" x="41.5" y="-83.5" font-family="Helvetica,sans-Serif" font-size="10.00">xtb_qmdff::ff_ini</text>
</a>
</g>
</g>
<!-- Node2 -->
<g id="node2" class="node">
<title>Node2</title>
<g id="a_node2"><a xlink:href="dftd3_8f.html#ad39882452aa1913d054022bae3cdab4a" target="_top" xlink:title=" ">
<polygon fill="white" stroke="black" points="146,-152.5 146,-171.5 187,-171.5 187,-152.5 146,-152.5"/>
<text text-anchor="middle" x="166.5" y="-159.5" font-family="Helvetica,sans-Serif" font-size="10.00">getc6</text>
</a>
</g>
</g>
<!-- Node1&#45;&gt;Node2 -->
<g id="edge1" class="edge">
<title>Node1&#45;&gt;Node2</title>
<path fill="none" stroke="midnightblue" d="M53.79,-95.86C68.19,-108.08 94.2,-128.99 119,-143 124.45,-146.08 130.5,-148.92 136.38,-151.42"/>
<polygon fill="midnightblue" stroke="midnightblue" points="135.4,-154.8 145.99,-155.29 138.01,-148.31 135.4,-154.8"/>
</g>
<!-- Node4 -->
<g id="node4" class="node">
<title>Node4</title>
<g id="a_node4"><a xlink:href="error_8f90.html#a21a6b76d2bc72d8d2ec0a344a6d2298b" target="_top" xlink:title=" ">
<polygon fill="white" stroke="black" points="147.5,-114.5 147.5,-133.5 185.5,-133.5 185.5,-114.5 147.5,-114.5"/>
<text text-anchor="middle" x="166.5" y="-121.5" font-family="Helvetica,sans-Serif" font-size="10.00">raise</text>
</a>
</g>
</g>
<!-- Node1&#45;&gt;Node4 -->
<g id="edge3" class="edge">
<title>Node1&#45;&gt;Node4</title>
<path fill="none" stroke="midnightblue" d="M73.54,-95.59C93.32,-101.7 118.74,-109.55 137.84,-115.45"/>
<polygon fill="midnightblue" stroke="midnightblue" points="136.86,-118.82 147.45,-118.42 138.93,-112.13 136.86,-118.82"/>
</g>
<!-- Node5 -->
<g id="node5" class="node">
<title>Node5</title>
<g id="a_node5"><a xlink:href="namespacextb__qmdff.html#a8cd557e8e987ed71a6f5d37aeb577e7a" target="_top" xlink:title=" ">
<polygon fill="white" stroke="black" points="119,-76.5 119,-95.5 214,-95.5 214,-76.5 119,-76.5"/>
<text text-anchor="middle" x="166.5" y="-83.5" font-family="Helvetica,sans-Serif" font-size="10.00">xtb_qmdff::rdsolvff</text>
</a>
</g>
</g>
<!-- Node1&#45;&gt;Node5 -->
<g id="edge4" class="edge">
<title>Node1&#45;&gt;Node5</title>
<path fill="none" stroke="midnightblue" d="M83.12,-86C91.36,-86 100.18,-86 108.87,-86"/>
<polygon fill="midnightblue" stroke="midnightblue" points="108.96,-89.5 118.96,-86 108.96,-82.5 108.96,-89.5"/>
</g>
<!-- Node9 -->
<g id="node9" class="node">
<title>Node9</title>
<g id="a_node9"><a xlink:href="dftd3_8f.html#a8a116e9e9c4ede996a16c341002f0367" target="_top" xlink:title=" ">
<polygon fill="white" stroke="black" points="142,-38.5 142,-57.5 191,-57.5 191,-38.5 142,-38.5"/>
<text text-anchor="middle" x="166.5" y="-45.5" font-family="Helvetica,sans-Serif" font-size="10.00">setr0ab</text>
</a>
</g>
</g>
<!-- Node1&#45;&gt;Node9 -->
<g id="edge8" class="edge">
<title>Node1&#45;&gt;Node9</title>
<path fill="none" stroke="midnightblue" d="M73.54,-76.41C91.43,-70.88 113.93,-63.93 132.19,-58.29"/>
<polygon fill="midnightblue" stroke="midnightblue" points="133.33,-61.6 141.85,-55.31 131.26,-54.91 133.33,-61.6"/>
</g>
<!-- Node10 -->
<g id="node10" class="node">
<title>Node10</title>
<g id="a_node10"><a xlink:href="namespacextb__qmdff.html#af3027b698ca69b4eea5a1df26d3c08d5" target="_top" xlink:title=" ">
<polygon fill="white" stroke="black" points="122,-0.5 122,-19.5 211,-19.5 211,-0.5 122,-0.5"/>
<text text-anchor="middle" x="166.5" y="-7.5" font-family="Helvetica,sans-Serif" font-size="10.00">xtb_qmdff::valelff</text>
</a>
</g>
</g>
<!-- Node1&#45;&gt;Node10 -->
<g id="edge9" class="edge">
<title>Node1&#45;&gt;Node10</title>
<path fill="none" stroke="midnightblue" d="M53.79,-76.14C68.19,-63.92 94.2,-43.01 119,-29 122.31,-27.13 125.84,-25.35 129.41,-23.68"/>
<polygon fill="midnightblue" stroke="midnightblue" points="131.13,-26.75 138.89,-19.53 128.32,-20.33 131.13,-26.75"/>
</g>
<!-- Node3 -->
<g id="node3" class="node">
<title>Node3</title>
<g id="a_node3"><a xlink:href="namespacextb__disp__dftd3param.html#a31d14f3c121af72cdf7a1735b63e598e" target="_top" xlink:title=" ">
<polygon fill="white" stroke="black" points="250,-147 250,-177 357,-177 357,-147 250,-147"/>
<text text-anchor="start" x="258" y="-165" font-family="Helvetica,sans-Serif" font-size="10.00">xtb_disp_dftd3param</text>
<text text-anchor="middle" x="303.5" y="-154" font-family="Helvetica,sans-Serif" font-size="10.00">::get_c6</text>
</a>
</g>
</g>
<!-- Node2&#45;&gt;Node3 -->
<g id="edge2" class="edge">
<title>Node2&#45;&gt;Node3</title>
<path fill="none" stroke="midnightblue" d="M187.13,-162C201.08,-162 220.64,-162 239.7,-162"/>
<polygon fill="midnightblue" stroke="midnightblue" points="239.9,-165.5 249.9,-162 239.9,-158.5 239.9,-165.5"/>
</g>
<!-- Node6 -->
<g id="node6" class="node">
<title>Node6</title>
<g id="a_node6"><a xlink:href="namespacextb__qmdff.html#a6ebfb7854e7b47d8fb9b48fe0b965d36" target="_top" xlink:title=" ">
<polygon fill="white" stroke="black" points="257.5,-92.5 257.5,-111.5 349.5,-111.5 349.5,-92.5 257.5,-92.5"/>
<text text-anchor="middle" x="303.5" y="-99.5" font-family="Helvetica,sans-Serif" font-size="10.00">xtb_qmdff::hbpara</text>
</a>
</g>
</g>
<!-- Node5&#45;&gt;Node6 -->
<g id="edge5" class="edge">
<title>Node5&#45;&gt;Node6</title>
<path fill="none" stroke="midnightblue" d="M214.34,-91.55C224.84,-92.8 236.08,-94.13 246.9,-95.41"/>
<polygon fill="midnightblue" stroke="midnightblue" points="246.77,-98.92 257.11,-96.62 247.59,-91.97 246.77,-98.92"/>
</g>
<!-- Node7 -->
<g id="node7" class="node">
<title>Node7</title>
<g id="a_node7"><a xlink:href="readl_8f90.html#aefb6440368a41f135fa1eac070ab7f0b" target="_top" xlink:title=" ">
<polygon fill="white" stroke="black" points="284.5,-54.5 284.5,-73.5 322.5,-73.5 322.5,-54.5 284.5,-54.5"/>
<text text-anchor="middle" x="303.5" y="-61.5" font-family="Helvetica,sans-Serif" font-size="10.00">readl</text>
</a>
</g>
</g>
<!-- Node5&#45;&gt;Node7 -->
<g id="edge6" class="edge">
<title>Node5&#45;&gt;Node7</title>
<path fill="none" stroke="midnightblue" d="M214.34,-78.37C234.27,-75.12 256.85,-71.44 274.18,-68.62"/>
<polygon fill="midnightblue" stroke="midnightblue" points="274.91,-72.04 284.21,-66.98 273.78,-65.13 274.91,-72.04"/>
</g>
<!-- Node8 -->
<g id="node8" class="node">
<title>Node8</title>
<g id="a_node8"><a xlink:href="readl_8f90.html#ad4f0e8a0348ec83dc345dc77e76cec7d" target="_top" xlink:title=" ">
<polygon fill="white" stroke="black" points="393,-54.5 393,-73.5 439,-73.5 439,-54.5 393,-54.5"/>
<text text-anchor="middle" x="416" y="-61.5" font-family="Helvetica,sans-Serif" font-size="10.00">readaa</text>
</a>
</g>
</g>
<!-- Node7&#45;&gt;Node8 -->
<g id="edge7" class="edge">
<title>Node7&#45;&gt;Node8</title>
<path fill="none" stroke="midnightblue" d="M322.75,-64C339.06,-64 363.35,-64 382.9,-64"/>
<polygon fill="midnightblue" stroke="midnightblue" points="382.92,-67.5 392.92,-64 382.92,-60.5 382.92,-67.5"/>
</g>
</g>
</svg>
