<?xml version="1.0" encoding="UTF-8" standalone="no"?>
<!DOCTYPE svg PUBLIC "-//W3C//DTD SVG 1.1//EN"
 "http://www.w3.org/Graphics/SVG/1.1/DTD/svg11.dtd">
<!-- Generated by graphviz version 2.46.0 (20210122.1329)
 -->
<!-- Title: xtb_api_utils::c_f_character Pages: 1 -->
<svg width="249pt" height="333pt"
 viewBox="0.00 0.00 249.00 333.00" xmlns="http://www.w3.org/2000/svg" xmlns:xlink="http://www.w3.org/1999/xlink">
<g id="graph0" class="graph" transform="scale(1 1) rotate(0) translate(4 329)">
<title>xtb_api_utils::c_f_character</title>
<polygon fill="white" stroke="transparent" points="-4,4 -4,-329 245,-329 245,4 -4,4"/>
<!-- Node1 -->
<g id="node1" class="node">
<title>Node1</title>
<g id="a_node1"><a xlink:title=" ">
<polygon fill="#bfbfbf" stroke="black" points="152,-147.5 152,-177.5 241,-177.5 241,-147.5 152,-147.5"/>
<text text-anchor="start" x="160" y="-165.5" font-family="Helvetica,sans-Serif" font-size="10.00">xtb_api_utils::c_f</text>
<text text-anchor="middle" x="196.5" y="-154.5" font-family="Helvetica,sans-Serif" font-size="10.00">_character</text>
</a>
</g>
</g>
<!-- Node2 -->
<g id="node2" class="node">
<title>Node2</title>
<g id="a_node2"><a xlink:href="namespacextb__api__calculator.html#a9d6feb3a53eb3b2edb400109a7158040" target="_top" xlink:title=" ">
<polygon fill="white" stroke="black" points="10.5,-294.5 10.5,-324.5 105.5,-324.5 105.5,-294.5 10.5,-294.5"/>
<text text-anchor="start" x="18.5" y="-312.5" font-family="Helvetica,sans-Serif" font-size="10.00">xtb_api_calculator</text>
<text text-anchor="middle" x="58" y="-301.5" font-family="Helvetica,sans-Serif" font-size="10.00">::loadgfn0xtb_api</text>
</a>
</g>
</g>
<!-- Node1&#45;&gt;Node2 -->
<g id="edge1" class="edge">
<title>Node1&#45;&gt;Node2</title>
<path fill="none" stroke="midnightblue" d="M185.05,-187.09C172.33,-214.43 148.45,-258.29 116,-285.5 111.97,-288.88 107.39,-291.85 102.63,-294.43"/>
<polygon fill="midnightblue" stroke="midnightblue" points="188.31,-188.39 189.23,-177.83 181.92,-185.51 188.31,-188.39"/>
</g>
<!-- Node3 -->
<g id="node3" class="node">
<title>Node3</title>
<g id="a_node3"><a xlink:href="namespacextb__api__calculator.html#a880727e8708090d0d366d861124c0d48" target="_top" xlink:title=" ">
<polygon fill="white" stroke="black" points="10.5,-245.5 10.5,-275.5 105.5,-275.5 105.5,-245.5 10.5,-245.5"/>
<text text-anchor="start" x="18.5" y="-263.5" font-family="Helvetica,sans-Serif" font-size="10.00">xtb_api_calculator</text>
<text text-anchor="middle" x="58" y="-252.5" font-family="Helvetica,sans-Serif" font-size="10.00">::loadgfn1xtb_api</text>
</a>
</g>
</g>
<!-- Node1&#45;&gt;Node3 -->
<g id="edge2" class="edge">
<title>Node1&#45;&gt;Node3</title>
<path fill="none" stroke="midnightblue" d="M175.28,-185.16C160.16,-201.1 138.32,-222.07 116,-236.5 110.95,-239.77 105.38,-242.75 99.77,-245.42"/>
<polygon fill="midnightblue" stroke="midnightblue" points="177.89,-187.5 182.14,-177.8 172.76,-182.73 177.89,-187.5"/>
</g>
<!-- Node4 -->
<g id="node4" class="node">
<title>Node4</title>
<g id="a_node4"><a xlink:href="namespacextb__api__calculator.html#a382f3cb8f313fadf0cccd4dea5df7ba6" target="_top" xlink:title=" ">
<polygon fill="white" stroke="black" points="10.5,-196.5 10.5,-226.5 105.5,-226.5 105.5,-196.5 10.5,-196.5"/>
<text text-anchor="start" x="18.5" y="-214.5" font-family="Helvetica,sans-Serif" font-size="10.00">xtb_api_calculator</text>
<text text-anchor="middle" x="58" y="-203.5" font-family="Helvetica,sans-Serif" font-size="10.00">::loadgfn2xtb_api</text>
</a>
</g>
</g>
<!-- Node1&#45;&gt;Node4 -->
<g id="edge3" class="edge">
<title>Node1&#45;&gt;Node4</title>
<path fill="none" stroke="midnightblue" d="M143.87,-181.04C129.77,-186.1 114.66,-191.52 101.16,-196.36"/>
<polygon fill="midnightblue" stroke="midnightblue" points="145.2,-184.27 153.43,-177.6 142.84,-177.69 145.2,-184.27"/>
</g>
<!-- Node5 -->
<g id="node5" class="node">
<title>Node5</title>
<g id="a_node5"><a xlink:href="namespacextb__api__calculator.html#a6d6689e12fc963d1bc325f687a8d7d5d" target="_top" xlink:title=" ">
<polygon fill="white" stroke="black" points="10.5,-147.5 10.5,-177.5 105.5,-177.5 105.5,-147.5 10.5,-147.5"/>
<text text-anchor="start" x="18.5" y="-165.5" font-family="Helvetica,sans-Serif" font-size="10.00">xtb_api_calculator</text>
<text text-anchor="middle" x="58" y="-154.5" font-family="Helvetica,sans-Serif" font-size="10.00">::loadgfnff_api</text>
</a>
</g>
</g>
<!-- Node1&#45;&gt;Node5 -->
<g id="edge4" class="edge">
<title>Node1&#45;&gt;Node5</title>
<path fill="none" stroke="midnightblue" d="M141.73,-162.5C129.9,-162.5 117.46,-162.5 105.92,-162.5"/>
<polygon fill="midnightblue" stroke="midnightblue" points="141.94,-166 151.94,-162.5 141.94,-159 141.94,-166"/>
</g>
<!-- Node6 -->
<g id="node6" class="node">
<title>Node6</title>
<g id="a_node6"><a xlink:href="namespacextb__api__environment.html#a9ceff47ae14b410feeeccca873b261c0" target="_top" xlink:title="Bind output from this environment.">
<polygon fill="white" stroke="black" points="5,-98.5 5,-128.5 111,-128.5 111,-98.5 5,-98.5"/>
<text text-anchor="start" x="13" y="-116.5" font-family="Helvetica,sans-Serif" font-size="10.00">xtb_api_environment</text>
<text text-anchor="middle" x="58" y="-105.5" font-family="Helvetica,sans-Serif" font-size="10.00">::setoutput_api</text>
</a>
</g>
</g>
<!-- Node1&#45;&gt;Node6 -->
<g id="edge5" class="edge">
<title>Node1&#45;&gt;Node6</title>
<path fill="none" stroke="midnightblue" d="M143.87,-143.96C129.77,-138.9 114.66,-133.48 101.16,-128.64"/>
<polygon fill="midnightblue" stroke="midnightblue" points="142.84,-147.31 153.43,-147.4 145.2,-140.73 142.84,-147.31"/>
</g>
<!-- Node7 -->
<g id="node7" class="node">
<title>Node7</title>
<g id="a_node7"><a xlink:href="namespacextb__api__calculator.html#a995caa38fe4c40aa8ffbe52994794c40" target="_top" xlink:title="Add a solvation model to calculator (requires loaded parametrisation)">
<polygon fill="white" stroke="black" points="10.5,-49.5 10.5,-79.5 105.5,-79.5 105.5,-49.5 10.5,-49.5"/>
<text text-anchor="start" x="18.5" y="-67.5" font-family="Helvetica,sans-Serif" font-size="10.00">xtb_api_calculator</text>
<text text-anchor="middle" x="58" y="-56.5" font-family="Helvetica,sans-Serif" font-size="10.00">::setsolvent_api</text>
</a>
</g>
</g>
<!-- Node1&#45;&gt;Node7 -->
<g id="edge6" class="edge">
<title>Node1&#45;&gt;Node7</title>
<path fill="none" stroke="midnightblue" d="M174.75,-139.83C159.58,-124.22 137.92,-103.8 116,-89.5 110.39,-85.84 104.15,-82.49 97.92,-79.5"/>
<polygon fill="midnightblue" stroke="midnightblue" points="172.62,-142.67 182.05,-147.5 177.69,-137.84 172.62,-142.67"/>
</g>
<!-- Node8 -->
<g id="node8" class="node">
<title>Node8</title>
<g id="a_node8"><a xlink:href="namespacextb__api__environment.html#a2148af3ae9c2ab1364edc87d5d448ddd" target="_top" xlink:title="Show and empty error stack.">
<polygon fill="white" stroke="black" points="0,-0.5 0,-30.5 116,-30.5 116,-0.5 0,-0.5"/>
<text text-anchor="start" x="8" y="-18.5" font-family="Helvetica,sans-Serif" font-size="10.00">xtb_api_environment</text>
<text text-anchor="middle" x="58" y="-7.5" font-family="Helvetica,sans-Serif" font-size="10.00">::showenvironment_api</text>
</a>
</g>
</g>
<!-- Node1&#45;&gt;Node8 -->
<g id="edge7" class="edge">
<title>Node1&#45;&gt;Node8</title>
<path fill="none" stroke="midnightblue" d="M184.93,-138.2C172.09,-111.17 148.11,-67.73 116,-40.5 111.55,-36.73 106.44,-33.43 101.15,-30.58"/>
<polygon fill="midnightblue" stroke="midnightblue" points="181.78,-139.74 189.15,-147.35 188.14,-136.81 181.78,-139.74"/>
</g>
</g>
</svg>
