<?xml version="1.0" encoding="UTF-8" standalone="no"?>
<!DOCTYPE svg PUBLIC "-//W3C//DTD SVG 1.1//EN"
 "http://www.w3.org/Graphics/SVG/1.1/DTD/svg11.dtd">
<!-- Generated by graphviz version 2.46.0 (20210122.1329)
 -->
<!-- Title: esp::propa1 Pages: 1 -->
<svg width="700pt" height="66pt"
 viewBox="0.00 0.00 700.00 66.00" xmlns="http://www.w3.org/2000/svg" xmlns:xlink="http://www.w3.org/1999/xlink">
<g id="graph0" class="graph" transform="scale(1 1) rotate(0) translate(4 62)">
<title>esp::propa1</title>
<polygon fill="white" stroke="transparent" points="-4,4 -4,-62 696,-62 696,4 -4,4"/>
<!-- Node1 -->
<g id="node1" class="node">
<title>Node1</title>
<g id="a_node1"><a xlink:title=" ">
<polygon fill="#bfbfbf" stroke="black" points="626,-19.5 626,-38.5 692,-38.5 692,-19.5 626,-19.5"/>
<text text-anchor="middle" x="659" y="-26.5" font-family="Helvetica,sans-Serif" font-size="10.00">esp::propa1</text>
</a>
</g>
</g>
<!-- Node2 -->
<g id="node2" class="node">
<title>Node2</title>
<g id="a_node2"><a xlink:href="namespacestm.html#a344563c5cf736d53acbea3881dfb4ac8" target="_top" xlink:title=" ">
<polygon fill="white" stroke="black" points="516,-38.5 516,-57.5 590,-57.5 590,-38.5 516,-38.5"/>
<text text-anchor="middle" x="553" y="-45.5" font-family="Helvetica,sans-Serif" font-size="10.00">stm::densints</text>
</a>
</g>
</g>
<!-- Node1&#45;&gt;Node2 -->
<g id="edge1" class="edge">
<title>Node1&#45;&gt;Node2</title>
<path fill="none" stroke="midnightblue" d="M616.09,-36.66C607.48,-38.23 598.5,-39.87 590.12,-41.4"/>
<polygon fill="midnightblue" stroke="midnightblue" points="616.74,-40.1 625.95,-34.86 615.48,-33.21 616.74,-40.1"/>
</g>
<!-- Node7 -->
<g id="node7" class="node">
<title>Node7</title>
<g id="a_node7"><a xlink:href="namespaceesp.html#a7f5b94790a5710ee69270b88580d5ec9" target="_top" xlink:title=" ">
<polygon fill="white" stroke="black" points="519,-0.5 519,-19.5 587,-19.5 587,-0.5 519,-0.5"/>
<text text-anchor="middle" x="553" y="-7.5" font-family="Helvetica,sans-Serif" font-size="10.00">esp::espints</text>
</a>
</g>
</g>
<!-- Node1&#45;&gt;Node7 -->
<g id="edge6" class="edge">
<title>Node1&#45;&gt;Node7</title>
<path fill="none" stroke="midnightblue" d="M615.84,-21.3C606.31,-19.56 596.31,-17.73 587.2,-16.07"/>
<polygon fill="midnightblue" stroke="midnightblue" points="615.48,-24.79 625.95,-23.14 616.74,-17.9 615.48,-24.79"/>
</g>
<!-- Node3 -->
<g id="node3" class="node">
<title>Node3</title>
<g id="a_node3"><a xlink:href="namespacestm.html#af8df5d0f4a9a2b695161f4afd3c27c8a" target="_top" xlink:title=" ">
<polygon fill="white" stroke="black" points="412.5,-38.5 412.5,-57.5 479.5,-57.5 479.5,-38.5 412.5,-38.5"/>
<text text-anchor="middle" x="446" y="-45.5" font-family="Helvetica,sans-Serif" font-size="10.00">stm::stmpic</text>
</a>
</g>
</g>
<!-- Node2&#45;&gt;Node3 -->
<g id="edge2" class="edge">
<title>Node2&#45;&gt;Node3</title>
<path fill="none" stroke="midnightblue" d="M505.73,-48C496.95,-48 487.93,-48 479.68,-48"/>
<polygon fill="midnightblue" stroke="midnightblue" points="505.86,-51.5 515.86,-48 505.86,-44.5 505.86,-51.5"/>
</g>
<!-- Node4 -->
<g id="node4" class="node">
<title>Node4</title>
<g id="a_node4"><a xlink:href="namespacextb__propertyoutput.html#aa23d3ac2a820741df00f0cbd43f91a14" target="_top" xlink:title=" ">
<polygon fill="white" stroke="black" points="280,-14 280,-44 376,-44 376,-14 280,-14"/>
<text text-anchor="start" x="288" y="-32" font-family="Helvetica,sans-Serif" font-size="10.00">xtb_propertyoutput</text>
<text text-anchor="middle" x="328" y="-21" font-family="Helvetica,sans-Serif" font-size="10.00">::main_cube</text>
</a>
</g>
</g>
<!-- Node3&#45;&gt;Node4 -->
<g id="edge3" class="edge">
<title>Node3&#45;&gt;Node4</title>
<path fill="none" stroke="midnightblue" d="M402.27,-41C393.75,-39.61 384.75,-38.13 376.09,-36.71"/>
<polygon fill="midnightblue" stroke="midnightblue" points="401.94,-44.49 412.38,-42.66 403.08,-37.59 401.94,-44.49"/>
</g>
<!-- Node5 -->
<g id="node5" class="node">
<title>Node5</title>
<g id="a_node5"><a xlink:href="namespacextb__prog__main.html#a92b3b61ee04235e6343f652095682529" target="_top" xlink:title=" ">
<polygon fill="white" stroke="black" points="126,-19.5 126,-38.5 244,-38.5 244,-19.5 126,-19.5"/>
<text text-anchor="middle" x="185" y="-26.5" font-family="Helvetica,sans-Serif" font-size="10.00">xtb_prog_main::xtbmain</text>
</a>
</g>
</g>
<!-- Node4&#45;&gt;Node5 -->
<g id="edge4" class="edge">
<title>Node4&#45;&gt;Node5</title>
<path fill="none" stroke="midnightblue" d="M269.61,-29C261.25,-29 252.62,-29 244.24,-29"/>
<polygon fill="midnightblue" stroke="midnightblue" points="269.66,-32.5 279.66,-29 269.66,-25.5 269.66,-32.5"/>
</g>
<!-- Node6 -->
<g id="node6" class="node">
<title>Node6</title>
<g id="a_node6"><a xlink:href="primary_8f90.html#a2a67903cf5be605c5b6d3c362c6a3c5c" target="_top" xlink:title="The primary driver for the xtb program package.">
<polygon fill="white" stroke="black" points="0,-19.5 0,-38.5 90,-38.5 90,-19.5 0,-19.5"/>
<text text-anchor="middle" x="45" y="-26.5" font-family="Helvetica,sans-Serif" font-size="10.00">xtb_prog_primary</text>
</a>
</g>
</g>
<!-- Node5&#45;&gt;Node6 -->
<g id="edge5" class="edge">
<title>Node5&#45;&gt;Node6</title>
<path fill="none" stroke="midnightblue" d="M115.73,-29C107.06,-29 98.37,-29 90.22,-29"/>
<polygon fill="midnightblue" stroke="midnightblue" points="115.88,-32.5 125.88,-29 115.88,-25.5 115.88,-32.5"/>
</g>
<!-- Node8 -->
<g id="node8" class="node">
<title>Node8</title>
<g id="a_node8"><a xlink:href="namespaceesp.html#abbb507b0106b5a5f8d4ebdac1f0a1681" target="_top" xlink:title=" ">
<polygon fill="white" stroke="black" points="412,-0.5 412,-19.5 480,-19.5 480,-0.5 412,-0.5"/>
<text text-anchor="middle" x="446" y="-7.5" font-family="Helvetica,sans-Serif" font-size="10.00">esp::espplot</text>
</a>
</g>
</g>
<!-- Node7&#45;&gt;Node8 -->
<g id="edge7" class="edge">
<title>Node7&#45;&gt;Node8</title>
<path fill="none" stroke="midnightblue" d="M508.63,-10C499.06,-10 489.08,-10 480.01,-10"/>
<polygon fill="midnightblue" stroke="midnightblue" points="508.78,-13.5 518.78,-10 508.78,-6.5 508.78,-13.5"/>
</g>
<!-- Node8&#45;&gt;Node4 -->
<g id="edge8" class="edge">
<title>Node8&#45;&gt;Node4</title>
<path fill="none" stroke="midnightblue" d="M401.8,-17.08C393.41,-18.45 384.58,-19.9 376.08,-21.29"/>
<polygon fill="midnightblue" stroke="midnightblue" points="402.46,-20.52 411.76,-15.44 401.32,-13.61 402.46,-20.52"/>
</g>
</g>
</svg>
