<?xml version="1.0" encoding="UTF-8" standalone="no"?>
<!DOCTYPE svg PUBLIC "-//W3C//DTD SVG 1.1//EN"
 "http://www.w3.org/Graphics/SVG/1.1/DTD/svg11.dtd">
<!-- Generated by graphviz version 2.43.0 (0)
 -->
<!-- Title: xtb_dynamic::wrc Pages: 1 -->
<svg width="467pt" height="47pt"
 viewBox="0.00 0.00 467.00 47.00" xmlns="http://www.w3.org/2000/svg" xmlns:xlink="http://www.w3.org/1999/xlink">
<g id="graph0" class="graph" transform="scale(1 1) rotate(0) translate(4 43)">
<title>xtb_dynamic::wrc</title>
<polygon fill="white" stroke="transparent" points="-4,4 -4,-43 463,-43 463,4 -4,4"/>
<!-- Node1 -->
<g id="node1" class="node">
<title>Node1</title>
<g id="a_node1"><a xlink:title=" ">
<polygon fill="#bfbfbf" stroke="black" points="356,-0.5 356,-19.5 459,-19.5 459,-0.5 356,-0.5"/>
<text text-anchor="middle" x="407.5" y="-7.5" font-family="Helvetica,sans-Serif" font-size="10.00">xtb_dynamic::wrc</text>
</a>
</g>
</g>
<!-- Node2 -->
<g id="node2" class="node">
<title>Node2</title>
<g id="a_node2"><a xlink:href="namespacextb__screening.html#a68981a279668553e9f69004a476e9df8" target="_top" xlink:title=" ">
<polygon fill="white" stroke="black" points="159,-19.5 159,-38.5 320,-38.5 320,-19.5 159,-19.5"/>
<text text-anchor="middle" x="239.5" y="-26.5" font-family="Helvetica,sans-Serif" font-size="10.00">xtb_screening::qmdfftoscreen</text>
</a>
</g>
</g>
<!-- Node1&#45;&gt;Node2 -->
<g id="edge1" class="edge">
<title>Node1&#45;&gt;Node2</title>
<path fill="none" stroke="midnightblue" d="M345.83,-16.94C337.5,-17.9 328.86,-18.89 320.26,-19.87"/>
<polygon fill="midnightblue" stroke="midnightblue" points="346.26,-20.42 355.79,-15.8 345.46,-13.46 346.26,-20.42"/>
</g>
<!-- Node3 -->
<g id="node3" class="node">
<title>Node3</title>
<g id="a_node3"><a xlink:href="namespacextb__screening.html#a7f4004ff0e65127a38b038f0a7cdcc84" target="_top" xlink:title=" ">
<polygon fill="white" stroke="black" points="0,-0.5 0,-19.5 123,-19.5 123,-0.5 0,-0.5"/>
<text text-anchor="middle" x="61.5" y="-7.5" font-family="Helvetica,sans-Serif" font-size="10.00">xtb_screening::screen</text>
</a>
</g>
</g>
<!-- Node1&#45;&gt;Node3 -->
<g id="edge3" class="edge">
<title>Node1&#45;&gt;Node3</title>
<path fill="none" stroke="midnightblue" d="M345.6,-10C282.86,-10 185.64,-10 123.04,-10"/>
<polygon fill="midnightblue" stroke="midnightblue" points="345.74,-13.5 355.74,-10 345.74,-6.5 345.74,-13.5"/>
</g>
<!-- Node2&#45;&gt;Node3 -->
<g id="edge2" class="edge">
<title>Node2&#45;&gt;Node3</title>
<path fill="none" stroke="midnightblue" d="M148.82,-19.32C140.14,-18.38 131.49,-17.45 123.19,-16.55"/>
<polygon fill="midnightblue" stroke="midnightblue" points="148.68,-22.82 159,-20.42 149.43,-15.86 148.68,-22.82"/>
</g>
</g>
</svg>
