<?xml version="1.0" encoding="UTF-8" standalone="no"?>
<!DOCTYPE svg PUBLIC "-//W3C//DTD SVG 1.1//EN"
 "http://www.w3.org/Graphics/SVG/1.1/DTD/svg11.dtd">
<!-- Generated by graphviz version 2.46.1 (20210215.1649)
 -->
<!-- Title: xtb_disp_coordinationnumber::derfcount Pages: 1 -->
<svg width="330pt" height="110pt"
 viewBox="0.00 0.00 330.00 110.00" xmlns="http://www.w3.org/2000/svg" xmlns:xlink="http://www.w3.org/1999/xlink">
<g id="graph0" class="graph" transform="scale(1 1) rotate(0) translate(4 106)">
<title>xtb_disp_coordinationnumber::derfcount</title>
<polygon fill="white" stroke="transparent" points="-4,4 -4,-106 326,-106 326,4 -4,4"/>
<!-- Node1 -->
<g id="node1" class="node">
<title>Node1</title>
<g id="a_node1"><a xlink:title="Derivative of the counting function w.r.t. the distance.">
<polygon fill="#bfbfbf" stroke="black" points="179,-36 179,-66 322,-66 322,-36 179,-36"/>
<text text-anchor="start" x="187" y="-54" font-family="Helvetica,sans-Serif" font-size="10.00">xtb_disp_coordinationnumber</text>
<text text-anchor="middle" x="250.5" y="-43" font-family="Helvetica,sans-Serif" font-size="10.00">::derfcount</text>
</a>
</g>
</g>
<!-- Node2 -->
<g id="node2" class="node">
<title>Node2</title>
<g id="a_node2"><a xlink:href="interfacextb__disp__coordinationnumber_1_1getcoordinationnumber.html#a2f2b31a469b2b6f68bbe0006d5dbe6cd" target="_top" xlink:title="Geometric fractional coordination number, supports both error function.">
<polygon fill="white" stroke="black" points="0,-60.5 0,-101.5 143,-101.5 143,-60.5 0,-60.5"/>
<text text-anchor="start" x="8" y="-89.5" font-family="Helvetica,sans-Serif" font-size="10.00">xtb_disp_coordinationnumber</text>
<text text-anchor="start" x="8" y="-78.5" font-family="Helvetica,sans-Serif" font-size="10.00">::getcoordinationnumber</text>
<text text-anchor="middle" x="71.5" y="-67.5" font-family="Helvetica,sans-Serif" font-size="10.00">::getcoordinationnumberlp</text>
</a>
</g>
</g>
<!-- Node1&#45;&gt;Node2 -->
<g id="edge1" class="edge">
<title>Node1&#45;&gt;Node2</title>
<path fill="none" stroke="midnightblue" d="M168.79,-64.68C160.22,-66.13 151.55,-67.6 143.11,-69.03"/>
<polygon fill="midnightblue" stroke="midnightblue" points="169.51,-68.11 178.78,-62.99 168.34,-61.21 169.51,-68.11"/>
</g>
<!-- Node3 -->
<g id="node3" class="node">
<title>Node3</title>
<g id="a_node3"><a xlink:href="interfacextb__disp__coordinationnumber_1_1getcoordinationnumber.html#ae4bc7047d85e1e85a2a084c543029c11" target="_top" xlink:title="Geometric fractional coordination number, supports both error function.">
<polygon fill="white" stroke="black" points="0,-0.5 0,-41.5 143,-41.5 143,-0.5 0,-0.5"/>
<text text-anchor="start" x="8" y="-29.5" font-family="Helvetica,sans-Serif" font-size="10.00">xtb_disp_coordinationnumber</text>
<text text-anchor="start" x="8" y="-18.5" font-family="Helvetica,sans-Serif" font-size="10.00">::getcoordinationnumber</text>
<text text-anchor="middle" x="71.5" y="-7.5" font-family="Helvetica,sans-Serif" font-size="10.00">::getcoordinationnumbernl</text>
</a>
</g>
</g>
<!-- Node1&#45;&gt;Node3 -->
<g id="edge2" class="edge">
<title>Node1&#45;&gt;Node3</title>
<path fill="none" stroke="midnightblue" d="M168.79,-37.32C160.22,-35.87 151.55,-34.4 143.11,-32.97"/>
<polygon fill="midnightblue" stroke="midnightblue" points="168.34,-40.79 178.78,-39.01 169.51,-33.89 168.34,-40.79"/>
</g>
</g>
</svg>
