<?xml version="1.0" encoding="UTF-8" standalone="no"?>
<!DOCTYPE svg PUBLIC "-//W3C//DTD SVG 1.1//EN"
 "http://www.w3.org/Graphics/SVG/1.1/DTD/svg11.dtd">
<!-- Generated by graphviz version 2.43.0 (0)
 -->
<!-- Title: xtb_modelhessian::fk_vdw Pages: 1 -->
<svg width="1289pt" height="382pt"
 viewBox="0.00 0.00 1289.00 382.00" xmlns="http://www.w3.org/2000/svg" xmlns:xlink="http://www.w3.org/1999/xlink">
<g id="graph0" class="graph" transform="scale(1 1) rotate(0) translate(4 378)">
<title>xtb_modelhessian::fk_vdw</title>
<polygon fill="white" stroke="transparent" points="-4,4 -4,-378 1285,-378 1285,4 -4,4"/>
<!-- Node1 -->
<g id="node1" class="node">
<title>Node1</title>
<g id="a_node1"><a xlink:title=" ">
<polygon fill="#bfbfbf" stroke="black" points="1134,-177 1134,-196 1281,-196 1281,-177 1134,-177"/>
<text text-anchor="middle" x="1207.5" y="-184" font-family="Helvetica,sans-Serif" font-size="10.00">xtb_modelhessian::fk_vdw</text>
</a>
</g>
</g>
<!-- Node2 -->
<g id="node2" class="node">
<title>Node2</title>
<g id="a_node2"><a xlink:href="namespacextb__modelhessian.html#ab29d7b93ed20ce3214ef992f8ef0370f" target="_top" xlink:title=" ">
<polygon fill="white" stroke="black" points="970,-245.5 970,-275.5 1098,-275.5 1098,-245.5 970,-245.5"/>
<text text-anchor="start" x="978" y="-263.5" font-family="Helvetica,sans-Serif" font-size="10.00">xtb_modelhessian::mh</text>
<text text-anchor="middle" x="1034" y="-252.5" font-family="Helvetica,sans-Serif" font-size="10.00">_lindh_bend</text>
</a>
</g>
</g>
<!-- Node1&#45;&gt;Node2 -->
<g id="edge1" class="edge">
<title>Node1&#45;&gt;Node2</title>
<path fill="none" stroke="midnightblue" d="M1177.66,-200.44C1155.93,-210.78 1125.32,-225.02 1098,-236.5 1090.88,-239.49 1083.24,-242.54 1075.83,-245.41"/>
<polygon fill="midnightblue" stroke="midnightblue" points="1179.17,-203.6 1186.68,-196.12 1176.15,-197.28 1179.17,-203.6"/>
</g>
<!-- Node18 -->
<g id="node18" class="node">
<title>Node18</title>
<g id="a_node18"><a xlink:href="namespacextb__modelhessian.html#a2e8976cb9c4591516b0900268639467c" target="_top" xlink:title=" ">
<polygon fill="white" stroke="black" points="970,-196.5 970,-226.5 1098,-226.5 1098,-196.5 970,-196.5"/>
<text text-anchor="start" x="978" y="-214.5" font-family="Helvetica,sans-Serif" font-size="10.00">xtb_modelhessian::mh</text>
<text text-anchor="middle" x="1034" y="-203.5" font-family="Helvetica,sans-Serif" font-size="10.00">_lindh_outofp</text>
</a>
</g>
</g>
<!-- Node1&#45;&gt;Node18 -->
<g id="edge20" class="edge">
<title>Node1&#45;&gt;Node18</title>
<path fill="none" stroke="midnightblue" d="M1131.15,-197.48C1120.14,-199.09 1108.9,-200.73 1098.16,-202.29"/>
<polygon fill="midnightblue" stroke="midnightblue" points="1131.78,-200.93 1141.17,-196.02 1130.77,-194 1131.78,-200.93"/>
</g>
<!-- Node19 -->
<g id="node19" class="node">
<title>Node19</title>
<g id="a_node19"><a xlink:href="namespacextb__modelhessian.html#a4c17f34c7e6e077f473d0251740f2869" target="_top" xlink:title=" ">
<polygon fill="white" stroke="black" points="970,-343.5 970,-373.5 1098,-373.5 1098,-343.5 970,-343.5"/>
<text text-anchor="start" x="978" y="-361.5" font-family="Helvetica,sans-Serif" font-size="10.00">xtb_modelhessian::mh</text>
<text text-anchor="middle" x="1034" y="-350.5" font-family="Helvetica,sans-Serif" font-size="10.00">_lindh_stretch</text>
</a>
</g>
</g>
<!-- Node1&#45;&gt;Node19 -->
<g id="edge23" class="edge">
<title>Node1&#45;&gt;Node19</title>
<path fill="none" stroke="midnightblue" d="M1197.17,-205.6C1181.04,-236.75 1145.13,-298.59 1098,-334.5 1093.53,-337.9 1088.52,-340.88 1083.34,-343.46"/>
<polygon fill="midnightblue" stroke="midnightblue" points="1200.48,-206.8 1201.86,-196.3 1194.23,-203.65 1200.48,-206.8"/>
</g>
<!-- Node20 -->
<g id="node20" class="node">
<title>Node20</title>
<g id="a_node20"><a xlink:href="namespacextb__modelhessian.html#a976dfe1c65e67443be6dd32dfc9c5799" target="_top" xlink:title=" ">
<polygon fill="white" stroke="black" points="970,-294.5 970,-324.5 1098,-324.5 1098,-294.5 970,-294.5"/>
<text text-anchor="start" x="978" y="-312.5" font-family="Helvetica,sans-Serif" font-size="10.00">xtb_modelhessian::mh</text>
<text text-anchor="middle" x="1034" y="-301.5" font-family="Helvetica,sans-Serif" font-size="10.00">_lindh_torsion</text>
</a>
</g>
</g>
<!-- Node1&#45;&gt;Node20 -->
<g id="edge26" class="edge">
<title>Node1&#45;&gt;Node20</title>
<path fill="none" stroke="midnightblue" d="M1191.5,-203.71C1171.87,-225.33 1135.55,-262.39 1098,-285.5 1092.62,-288.81 1086.7,-291.8 1080.72,-294.44"/>
<polygon fill="midnightblue" stroke="midnightblue" points="1194.12,-206.03 1198.17,-196.24 1188.9,-201.37 1194.12,-206.03"/>
</g>
<!-- Node21 -->
<g id="node21" class="node">
<title>Node21</title>
<g id="a_node21"><a xlink:href="namespacextb__modelhessian.html#af3aaddd530e3e0b0cbc1a7ded480eab2" target="_top" xlink:title=" ">
<polygon fill="white" stroke="black" points="970,-147.5 970,-177.5 1098,-177.5 1098,-147.5 970,-147.5"/>
<text text-anchor="start" x="978" y="-165.5" font-family="Helvetica,sans-Serif" font-size="10.00">xtb_modelhessian::mh</text>
<text text-anchor="middle" x="1034" y="-154.5" font-family="Helvetica,sans-Serif" font-size="10.00">_swart_bend</text>
</a>
</g>
</g>
<!-- Node1&#45;&gt;Node21 -->
<g id="edge29" class="edge">
<title>Node1&#45;&gt;Node21</title>
<path fill="none" stroke="midnightblue" d="M1128.19,-175.54C1118.09,-174.13 1107.84,-172.69 1098.03,-171.32"/>
<polygon fill="midnightblue" stroke="midnightblue" points="1127.84,-179.03 1138.23,-176.95 1128.81,-172.09 1127.84,-179.03"/>
</g>
<!-- Node23 -->
<g id="node23" class="node">
<title>Node23</title>
<g id="a_node23"><a xlink:href="namespacextb__modelhessian.html#a4a57b7354fe2c665571b398fc9be85de" target="_top" xlink:title=" ">
<polygon fill="white" stroke="black" points="970,-98.5 970,-128.5 1098,-128.5 1098,-98.5 970,-98.5"/>
<text text-anchor="start" x="978" y="-116.5" font-family="Helvetica,sans-Serif" font-size="10.00">xtb_modelhessian::mh</text>
<text text-anchor="middle" x="1034" y="-105.5" font-family="Helvetica,sans-Serif" font-size="10.00">_swart_outofp</text>
</a>
</g>
</g>
<!-- Node1&#45;&gt;Node23 -->
<g id="edge32" class="edge">
<title>Node1&#45;&gt;Node23</title>
<path fill="none" stroke="midnightblue" d="M1176.06,-172.66C1154.39,-162.89 1124.52,-149.62 1098,-138.5 1090.19,-135.22 1081.79,-131.81 1073.74,-128.6"/>
<polygon fill="midnightblue" stroke="midnightblue" points="1174.84,-175.95 1185.4,-176.87 1177.73,-169.57 1174.84,-175.95"/>
</g>
<!-- Node24 -->
<g id="node24" class="node">
<title>Node24</title>
<g id="a_node24"><a xlink:href="namespacextb__modelhessian.html#a0b4aac527e5eff94f977455d207e674c" target="_top" xlink:title=" ">
<polygon fill="white" stroke="black" points="970,-49.5 970,-79.5 1098,-79.5 1098,-49.5 970,-49.5"/>
<text text-anchor="start" x="978" y="-67.5" font-family="Helvetica,sans-Serif" font-size="10.00">xtb_modelhessian::mh</text>
<text text-anchor="middle" x="1034" y="-56.5" font-family="Helvetica,sans-Serif" font-size="10.00">_swart_stretch</text>
</a>
</g>
</g>
<!-- Node1&#45;&gt;Node24 -->
<g id="edge34" class="edge">
<title>Node1&#45;&gt;Node24</title>
<path fill="none" stroke="midnightblue" d="M1191.2,-169.19C1171.48,-147.76 1135.27,-111.31 1098,-88.5 1092.61,-85.2 1086.69,-82.22 1080.7,-79.58"/>
<polygon fill="midnightblue" stroke="midnightblue" points="1188.84,-171.8 1198.15,-176.86 1194.03,-167.1 1188.84,-171.8"/>
</g>
<!-- Node25 -->
<g id="node25" class="node">
<title>Node25</title>
<g id="a_node25"><a xlink:href="namespacextb__modelhessian.html#a06e41d72b273042502c945eda7635984" target="_top" xlink:title=" ">
<polygon fill="white" stroke="black" points="970,-0.5 970,-30.5 1098,-30.5 1098,-0.5 970,-0.5"/>
<text text-anchor="start" x="978" y="-18.5" font-family="Helvetica,sans-Serif" font-size="10.00">xtb_modelhessian::mh</text>
<text text-anchor="middle" x="1034" y="-7.5" font-family="Helvetica,sans-Serif" font-size="10.00">_swart_torsion</text>
</a>
</g>
</g>
<!-- Node1&#45;&gt;Node25 -->
<g id="edge36" class="edge">
<title>Node1&#45;&gt;Node25</title>
<path fill="none" stroke="midnightblue" d="M1197.13,-167.53C1180.96,-136.6 1144.98,-75.18 1098,-39.5 1093.53,-36.1 1088.51,-33.14 1083.32,-30.56"/>
<polygon fill="midnightblue" stroke="midnightblue" points="1194.18,-169.45 1201.84,-176.77 1200.42,-166.27 1194.18,-169.45"/>
</g>
<!-- Node3 -->
<g id="node3" class="node">
<title>Node3</title>
<g id="a_node3"><a xlink:href="namespacextb__modelhessian.html#a6bc2a8d29739cdd126d59aafcd2dee6d" target="_top" xlink:title=" ">
<polygon fill="white" stroke="black" points="806,-245.5 806,-275.5 934,-275.5 934,-245.5 806,-245.5"/>
<text text-anchor="start" x="814" y="-263.5" font-family="Helvetica,sans-Serif" font-size="10.00">xtb_modelhessian::mh</text>
<text text-anchor="middle" x="870" y="-252.5" font-family="Helvetica,sans-Serif" font-size="10.00">_lindh</text>
</a>
</g>
</g>
<!-- Node2&#45;&gt;Node3 -->
<g id="edge2" class="edge">
<title>Node2&#45;&gt;Node3</title>
<path fill="none" stroke="midnightblue" d="M959.63,-260.5C951.14,-260.5 942.53,-260.5 934.19,-260.5"/>
<polygon fill="midnightblue" stroke="midnightblue" points="959.9,-264 969.9,-260.5 959.9,-257 959.9,-264"/>
</g>
<!-- Node17 -->
<g id="node17" class="node">
<title>Node17</title>
<g id="a_node17"><a xlink:href="namespacextb__modelhessian.html#aeac126ed2b182b5b9b95cc656eeebdd8" target="_top" xlink:title=" ">
<polygon fill="white" stroke="black" points="806,-294.5 806,-324.5 934,-324.5 934,-294.5 806,-294.5"/>
<text text-anchor="start" x="814" y="-312.5" font-family="Helvetica,sans-Serif" font-size="10.00">xtb_modelhessian::mh</text>
<text text-anchor="middle" x="870" y="-301.5" font-family="Helvetica,sans-Serif" font-size="10.00">_lindh_d2</text>
</a>
</g>
</g>
<!-- Node2&#45;&gt;Node17 -->
<g id="edge18" class="edge">
<title>Node2&#45;&gt;Node17</title>
<path fill="none" stroke="midnightblue" d="M973.12,-278.61C955.89,-283.82 937.3,-289.45 920.76,-294.45"/>
<polygon fill="midnightblue" stroke="midnightblue" points="974.51,-281.85 983.07,-275.6 972.49,-275.15 974.51,-281.85"/>
</g>
<!-- Node4 -->
<g id="node4" class="node">
<title>Node4</title>
<g id="a_node4"><a xlink:href="namespacextb__optimizer.html#a9fc9ad9955c0a2ef4872d25495d02901" target="_top" xlink:title=" ">
<polygon fill="white" stroke="black" points="641,-251 641,-270 770,-270 770,-251 641,-251"/>
<text text-anchor="middle" x="705.5" y="-258" font-family="Helvetica,sans-Serif" font-size="10.00">xtb_optimizer::modhes</text>
</a>
</g>
</g>
<!-- Node3&#45;&gt;Node4 -->
<g id="edge3" class="edge">
<title>Node3&#45;&gt;Node4</title>
<path fill="none" stroke="midnightblue" d="M795.48,-260.5C787.03,-260.5 778.46,-260.5 770.15,-260.5"/>
<polygon fill="midnightblue" stroke="midnightblue" points="795.71,-264 805.71,-260.5 795.71,-257 795.71,-264"/>
</g>
<!-- Node5 -->
<g id="node5" class="node">
<title>Node5</title>
<g id="a_node5"><a xlink:href="namespacextb__optimizer.html#a1743159550358c92fb2761af80e15285" target="_top" xlink:title=" ">
<polygon fill="white" stroke="black" points="481,-295 481,-314 604,-314 604,-295 481,-295"/>
<text text-anchor="middle" x="542.5" y="-302" font-family="Helvetica,sans-Serif" font-size="10.00">xtb_optimizer::ancopt</text>
</a>
</g>
</g>
<!-- Node4&#45;&gt;Node5 -->
<g id="edge4" class="edge">
<title>Node4&#45;&gt;Node5</title>
<path fill="none" stroke="midnightblue" d="M659.68,-272.75C633.98,-279.77 602.19,-288.46 578.37,-294.97"/>
<polygon fill="midnightblue" stroke="midnightblue" points="660.84,-276.06 669.57,-270.05 659,-269.31 660.84,-276.06"/>
</g>
<!-- Node15 -->
<g id="node15" class="node">
<title>Node15</title>
<g id="a_node15"><a xlink:href="namespacextb__relaxation__engine.html#a930f6aac4b13eab0de82f2b71bcde96b" target="_top" xlink:title="frontend implementation of the fast inertial relaxation engine">
<polygon fill="white" stroke="black" points="480,-196.5 480,-226.5 605,-226.5 605,-196.5 480,-196.5"/>
<text text-anchor="start" x="488" y="-214.5" font-family="Helvetica,sans-Serif" font-size="10.00">xtb_relaxation_engine</text>
<text text-anchor="middle" x="542.5" y="-203.5" font-family="Helvetica,sans-Serif" font-size="10.00">::fire</text>
</a>
</g>
</g>
<!-- Node4&#45;&gt;Node15 -->
<g id="edge14" class="edge">
<title>Node4&#45;&gt;Node15</title>
<path fill="none" stroke="midnightblue" d="M663.29,-247.96C641.84,-241.43 615.45,-233.4 592.91,-226.54"/>
<polygon fill="midnightblue" stroke="midnightblue" points="662.49,-251.37 673.08,-250.94 664.53,-244.68 662.49,-251.37"/>
</g>
<!-- Node16 -->
<g id="node16" class="node">
<title>Node16</title>
<g id="a_node16"><a xlink:href="namespacextb__relaxation__engine.html#a93ca131c43cfa21276f1bc353c189423" target="_top" xlink:title="frontend implementation of the low memory/linear scaling (by taste)">
<polygon fill="white" stroke="black" points="480,-245.5 480,-275.5 605,-275.5 605,-245.5 480,-245.5"/>
<text text-anchor="start" x="488" y="-263.5" font-family="Helvetica,sans-Serif" font-size="10.00">xtb_relaxation_engine</text>
<text text-anchor="middle" x="542.5" y="-252.5" font-family="Helvetica,sans-Serif" font-size="10.00">::l_ancopt</text>
</a>
</g>
</g>
<!-- Node4&#45;&gt;Node16 -->
<g id="edge16" class="edge">
<title>Node4&#45;&gt;Node16</title>
<path fill="none" stroke="midnightblue" d="M630.84,-260.5C622.23,-260.5 613.51,-260.5 605.09,-260.5"/>
<polygon fill="midnightblue" stroke="midnightblue" points="630.87,-264 640.87,-260.5 630.87,-257 630.87,-264"/>
</g>
<!-- Node6 -->
<g id="node6" class="node">
<title>Node6</title>
<g id="a_node6"><a xlink:href="namespacextb__biaspath.html#a17ea22b101e578a3df8d2b58b96811a5" target="_top" xlink:title=" ">
<polygon fill="white" stroke="black" points="311,-295 311,-314 444,-314 444,-295 311,-295"/>
<text text-anchor="middle" x="377.5" y="-302" font-family="Helvetica,sans-Serif" font-size="10.00">xtb_biaspath::bias_path</text>
</a>
</g>
</g>
<!-- Node5&#45;&gt;Node6 -->
<g id="edge5" class="edge">
<title>Node5&#45;&gt;Node6</title>
<path fill="none" stroke="midnightblue" d="M470.6,-304.5C461.81,-304.5 452.87,-304.5 444.17,-304.5"/>
<polygon fill="midnightblue" stroke="midnightblue" points="470.8,-308 480.8,-304.5 470.8,-301 470.8,-308"/>
</g>
<!-- Node7 -->
<g id="node7" class="node">
<title>Node7</title>
<g id="a_node7"><a xlink:href="namespacextb__geoopt.html#a1f0513294f2237b94f355cc4dc5dd867" target="_top" xlink:title=" ">
<polygon fill="white" stroke="black" points="315,-245.5 315,-275.5 440,-275.5 440,-245.5 315,-245.5"/>
<text text-anchor="start" x="323" y="-263.5" font-family="Helvetica,sans-Serif" font-size="10.00">xtb_geoopt::geometry</text>
<text text-anchor="middle" x="377.5" y="-252.5" font-family="Helvetica,sans-Serif" font-size="10.00">_optimization</text>
</a>
</g>
</g>
<!-- Node5&#45;&gt;Node7 -->
<g id="edge6" class="edge">
<title>Node5&#45;&gt;Node7</title>
<path fill="none" stroke="midnightblue" d="M496.42,-292.33C477.2,-287.14 454.57,-281.04 434.31,-275.57"/>
<polygon fill="midnightblue" stroke="midnightblue" points="495.56,-295.73 506.13,-294.95 497.39,-288.97 495.56,-295.73"/>
</g>
<!-- Node8 -->
<g id="node8" class="node">
<title>Node8</title>
<g id="a_node8"><a xlink:href="namespacextb__kopt.html#ada4ab70832f563f46c8ffc8cea64c78b" target="_top" xlink:title=" ">
<polygon fill="white" stroke="black" points="154,-346 154,-365 264,-365 264,-346 154,-346"/>
<text text-anchor="middle" x="209" y="-353" font-family="Helvetica,sans-Serif" font-size="10.00">xtb_kopt::get_rmsd</text>
</a>
</g>
</g>
<!-- Node7&#45;&gt;Node8 -->
<g id="edge7" class="edge">
<title>Node7&#45;&gt;Node8</title>
<path fill="none" stroke="midnightblue" d="M318.27,-280.49C315.74,-282.05 313.3,-283.72 311,-285.5 289.09,-302.52 297.58,-320.37 275,-336.5 269.55,-340.4 263.3,-343.5 256.88,-345.97"/>
<polygon fill="midnightblue" stroke="midnightblue" points="320.11,-283.47 327.19,-275.59 316.74,-277.33 320.11,-283.47"/>
</g>
<!-- Node10 -->
<g id="node10" class="node">
<title>Node10</title>
<g id="a_node10"><a xlink:href="namespacextb__mdoptim.html#ab0ba2195163cd6794115b99516ba5316" target="_top" xlink:title=" ">
<polygon fill="white" stroke="black" points="149.5,-308 149.5,-327 268.5,-327 268.5,-308 149.5,-308"/>
<text text-anchor="middle" x="209" y="-315" font-family="Helvetica,sans-Serif" font-size="10.00">xtb_mdoptim::mdopt</text>
</a>
</g>
</g>
<!-- Node7&#45;&gt;Node10 -->
<g id="edge9" class="edge">
<title>Node7&#45;&gt;Node10</title>
<path fill="none" stroke="midnightblue" d="M327.8,-279.12C307.08,-286.96 285.33,-295.06 275,-298.5 265.18,-301.77 254.44,-305.03 244.56,-307.91"/>
<polygon fill="midnightblue" stroke="midnightblue" points="329.1,-282.37 337.21,-275.55 326.61,-275.83 329.1,-282.37"/>
</g>
<!-- Node11 -->
<g id="node11" class="node">
<title>Node11</title>
<g id="a_node11"><a xlink:href="namespacextb__modef.html#a39c4cb408b8b02afb7bf83a1d7f13de3" target="_top" xlink:title=" ">
<polygon fill="white" stroke="black" points="143,-270 143,-289 275,-289 275,-270 143,-270"/>
<text text-anchor="middle" x="209" y="-277" font-family="Helvetica,sans-Serif" font-size="10.00">xtb_modef::modefollow</text>
</a>
</g>
</g>
<!-- Node7&#45;&gt;Node11 -->
<g id="edge10" class="edge">
<title>Node7&#45;&gt;Node11</title>
<path fill="none" stroke="midnightblue" d="M304.82,-268.68C294.97,-269.8 284.9,-270.95 275.18,-272.06"/>
<polygon fill="midnightblue" stroke="midnightblue" points="305.44,-272.13 314.97,-267.52 304.64,-265.18 305.44,-272.13"/>
</g>
<!-- Node12 -->
<g id="node12" class="node">
<title>Node12</title>
<g id="a_node12"><a xlink:href="namespacextb__scan.html#abef8f8d0fa299e9e2caf823f3672f14a" target="_top" xlink:title=" ">
<polygon fill="white" stroke="black" points="144,-232 144,-251 274,-251 274,-232 144,-232"/>
<text text-anchor="middle" x="209" y="-239" font-family="Helvetica,sans-Serif" font-size="10.00">xtb_scan::relaxed_scan</text>
</a>
</g>
</g>
<!-- Node7&#45;&gt;Node12 -->
<g id="edge11" class="edge">
<title>Node7&#45;&gt;Node12</title>
<path fill="none" stroke="midnightblue" d="M304.84,-252.32C294.61,-251.16 284.14,-249.96 274.06,-248.81"/>
<polygon fill="midnightblue" stroke="midnightblue" points="304.64,-255.82 314.97,-253.48 305.44,-248.87 304.64,-255.82"/>
</g>
<!-- Node13 -->
<g id="node13" class="node">
<title>Node13</title>
<g id="a_node13"><a xlink:href="namespacextb__screening.html#a7f4004ff0e65127a38b038f0a7cdcc84" target="_top" xlink:title=" ">
<polygon fill="white" stroke="black" points="147.5,-194 147.5,-213 270.5,-213 270.5,-194 147.5,-194"/>
<text text-anchor="middle" x="209" y="-201" font-family="Helvetica,sans-Serif" font-size="10.00">xtb_screening::screen</text>
</a>
</g>
</g>
<!-- Node7&#45;&gt;Node13 -->
<g id="edge12" class="edge">
<title>Node7&#45;&gt;Node13</title>
<path fill="none" stroke="midnightblue" d="M328.56,-241.72C311.72,-235.35 292.61,-228.36 275,-222.5 265.18,-219.23 254.44,-215.97 244.56,-213.09"/>
<polygon fill="midnightblue" stroke="midnightblue" points="327.59,-245.1 338.18,-245.39 330.08,-238.56 327.59,-245.1"/>
</g>
<!-- Node14 -->
<g id="node14" class="node">
<title>Node14</title>
<g id="a_node14"><a xlink:href="namespacextb__gfnff__convert.html#adf399b47b9f2a8364327d9d5c38cb2b8" target="_top" xlink:title=" ">
<polygon fill="white" stroke="black" points="155,-144.5 155,-174.5 263,-174.5 263,-144.5 155,-144.5"/>
<text text-anchor="start" x="163" y="-162.5" font-family="Helvetica,sans-Serif" font-size="10.00">xtb_gfnff_convert::</text>
<text text-anchor="middle" x="209" y="-151.5" font-family="Helvetica,sans-Serif" font-size="10.00">struc_convert</text>
</a>
</g>
</g>
<!-- Node7&#45;&gt;Node14 -->
<g id="edge13" class="edge">
<title>Node7&#45;&gt;Node14</title>
<path fill="none" stroke="midnightblue" d="M351.66,-238.82C331.89,-222.35 302.98,-199.97 275,-184.5 268.44,-180.87 261.24,-177.54 254.11,-174.56"/>
<polygon fill="midnightblue" stroke="midnightblue" points="349.65,-241.7 359.54,-245.48 354.16,-236.35 349.65,-241.7"/>
</g>
<!-- Node9 -->
<g id="node9" class="node">
<title>Node9</title>
<g id="a_node9"><a xlink:href="namespacextb__kopt.html#aed50b40106367857ab2d0bf3a109f62b" target="_top" xlink:title=" ">
<polygon fill="white" stroke="black" points="0,-346 0,-365 107,-365 107,-346 0,-346"/>
<text text-anchor="middle" x="53.5" y="-353" font-family="Helvetica,sans-Serif" font-size="10.00">xtb_kopt::get_kopt</text>
</a>
</g>
</g>
<!-- Node8&#45;&gt;Node9 -->
<g id="edge8" class="edge">
<title>Node8&#45;&gt;Node9</title>
<path fill="none" stroke="midnightblue" d="M143.75,-355.5C131.54,-355.5 118.9,-355.5 107.1,-355.5"/>
<polygon fill="midnightblue" stroke="midnightblue" points="143.88,-359 153.88,-355.5 143.88,-352 143.88,-359"/>
</g>
<!-- Node15&#45;&gt;Node7 -->
<g id="edge15" class="edge">
<title>Node15&#45;&gt;Node7</title>
<path fill="none" stroke="midnightblue" d="M481.25,-229.61C463.92,-234.82 445.21,-240.45 428.57,-245.45"/>
<polygon fill="midnightblue" stroke="midnightblue" points="482.7,-232.83 491.26,-226.6 480.68,-226.13 482.7,-232.83"/>
</g>
<!-- Node16&#45;&gt;Node7 -->
<g id="edge17" class="edge">
<title>Node16&#45;&gt;Node7</title>
<path fill="none" stroke="midnightblue" d="M469.72,-260.5C459.88,-260.5 449.85,-260.5 440.21,-260.5"/>
<polygon fill="midnightblue" stroke="midnightblue" points="469.88,-264 479.88,-260.5 469.88,-257 469.88,-264"/>
</g>
<!-- Node17&#45;&gt;Node4 -->
<g id="edge19" class="edge">
<title>Node17&#45;&gt;Node4</title>
<path fill="none" stroke="midnightblue" d="M809.16,-291.46C785.13,-284.21 758.41,-276.15 738.26,-270.08"/>
<polygon fill="midnightblue" stroke="midnightblue" points="808.33,-294.86 818.92,-294.4 810.35,-288.16 808.33,-294.86"/>
</g>
<!-- Node18&#45;&gt;Node3 -->
<g id="edge21" class="edge">
<title>Node18&#45;&gt;Node3</title>
<path fill="none" stroke="midnightblue" d="M973.12,-229.61C955.89,-234.82 937.3,-240.45 920.76,-245.45"/>
<polygon fill="midnightblue" stroke="midnightblue" points="974.51,-232.85 983.07,-226.6 972.49,-226.15 974.51,-232.85"/>
</g>
<!-- Node18&#45;&gt;Node17 -->
<g id="edge22" class="edge">
<title>Node18&#45;&gt;Node17</title>
<path fill="none" stroke="midnightblue" d="M977.32,-231.47C974.77,-233.04 972.31,-234.71 970,-236.5 948.61,-253.01 955.5,-269.13 934,-285.5 929.53,-288.9 924.52,-291.87 919.33,-294.45"/>
<polygon fill="midnightblue" stroke="midnightblue" points="979.22,-234.42 986.3,-226.54 975.85,-228.29 979.22,-234.42"/>
</g>
<!-- Node19&#45;&gt;Node3 -->
<g id="edge24" class="edge">
<title>Node19&#45;&gt;Node3</title>
<path fill="none" stroke="midnightblue" d="M975.69,-338.44C973.72,-337.19 971.82,-335.88 970,-334.5 948.5,-318.13 955.39,-302.01 934,-285.5 929.06,-281.69 923.47,-278.38 917.7,-275.54"/>
<polygon fill="midnightblue" stroke="midnightblue" points="974.23,-341.63 984.67,-343.45 977.65,-335.52 974.23,-341.63"/>
</g>
<!-- Node19&#45;&gt;Node17 -->
<g id="edge25" class="edge">
<title>Node19&#45;&gt;Node17</title>
<path fill="none" stroke="midnightblue" d="M973.12,-340.39C955.89,-335.18 937.3,-329.55 920.76,-324.55"/>
<polygon fill="midnightblue" stroke="midnightblue" points="972.49,-343.85 983.07,-343.4 974.51,-337.15 972.49,-343.85"/>
</g>
<!-- Node20&#45;&gt;Node3 -->
<g id="edge27" class="edge">
<title>Node20&#45;&gt;Node3</title>
<path fill="none" stroke="midnightblue" d="M973.12,-291.39C955.89,-286.18 937.3,-280.55 920.76,-275.55"/>
<polygon fill="midnightblue" stroke="midnightblue" points="972.49,-294.85 983.07,-294.4 974.51,-288.15 972.49,-294.85"/>
</g>
<!-- Node20&#45;&gt;Node17 -->
<g id="edge28" class="edge">
<title>Node20&#45;&gt;Node17</title>
<path fill="none" stroke="midnightblue" d="M959.63,-309.5C951.14,-309.5 942.53,-309.5 934.19,-309.5"/>
<polygon fill="midnightblue" stroke="midnightblue" points="959.9,-313 969.9,-309.5 959.9,-306 959.9,-313"/>
</g>
<!-- Node22 -->
<g id="node22" class="node">
<title>Node22</title>
<g id="a_node22"><a xlink:href="namespacextb__modelhessian.html#af0b957655663d37ee8995ae61bfbc37d" target="_top" xlink:title=" ">
<polygon fill="white" stroke="black" points="806,-98.5 806,-128.5 934,-128.5 934,-98.5 806,-98.5"/>
<text text-anchor="start" x="814" y="-116.5" font-family="Helvetica,sans-Serif" font-size="10.00">xtb_modelhessian::mh</text>
<text text-anchor="middle" x="870" y="-105.5" font-family="Helvetica,sans-Serif" font-size="10.00">_swart</text>
</a>
</g>
</g>
<!-- Node21&#45;&gt;Node22 -->
<g id="edge30" class="edge">
<title>Node21&#45;&gt;Node22</title>
<path fill="none" stroke="midnightblue" d="M973.12,-144.39C955.89,-139.18 937.3,-133.55 920.76,-128.55"/>
<polygon fill="midnightblue" stroke="midnightblue" points="972.49,-147.85 983.07,-147.4 974.51,-141.15 972.49,-147.85"/>
</g>
<!-- Node22&#45;&gt;Node4 -->
<g id="edge31" class="edge">
<title>Node22&#45;&gt;Node4</title>
<path fill="none" stroke="midnightblue" d="M844.6,-135.57C808.64,-168.11 742.87,-227.6 717.18,-250.84"/>
<polygon fill="midnightblue" stroke="midnightblue" points="847.15,-137.98 852.22,-128.68 842.46,-132.79 847.15,-137.98"/>
</g>
<!-- Node23&#45;&gt;Node22 -->
<g id="edge33" class="edge">
<title>Node23&#45;&gt;Node22</title>
<path fill="none" stroke="midnightblue" d="M959.63,-113.5C951.14,-113.5 942.53,-113.5 934.19,-113.5"/>
<polygon fill="midnightblue" stroke="midnightblue" points="959.9,-117 969.9,-113.5 959.9,-110 959.9,-117"/>
</g>
<!-- Node24&#45;&gt;Node22 -->
<g id="edge35" class="edge">
<title>Node24&#45;&gt;Node22</title>
<path fill="none" stroke="midnightblue" d="M973.12,-82.61C955.89,-87.82 937.3,-93.45 920.76,-98.45"/>
<polygon fill="midnightblue" stroke="midnightblue" points="974.51,-85.85 983.07,-79.6 972.49,-79.15 974.51,-85.85"/>
</g>
<!-- Node25&#45;&gt;Node22 -->
<g id="edge37" class="edge">
<title>Node25&#45;&gt;Node22</title>
<path fill="none" stroke="midnightblue" d="M979.39,-34.73C976.17,-36.25 973.01,-37.84 970,-39.5 939.17,-56.46 907.21,-82.06 888.22,-98.27"/>
<polygon fill="midnightblue" stroke="midnightblue" points="980.87,-37.9 988.58,-30.63 978.02,-31.5 980.87,-37.9"/>
</g>
</g>
</svg>
