<?xml version="1.0" encoding="UTF-8" standalone="no"?>
<!DOCTYPE svg PUBLIC "-//W3C//DTD SVG 1.1//EN"
 "http://www.w3.org/Graphics/SVG/1.1/DTD/svg11.dtd">
<!-- Generated by graphviz version 2.46.1 (20210215.1649)
 -->
<!-- Title: xtb_fixparam::fix_info Pages: 1 -->
<svg width="499pt" height="66pt"
 viewBox="0.00 0.00 499.00 66.00" xmlns="http://www.w3.org/2000/svg" xmlns:xlink="http://www.w3.org/1999/xlink">
<g id="graph0" class="graph" transform="scale(1 1) rotate(0) translate(4 62)">
<title>xtb_fixparam::fix_info</title>
<polygon fill="white" stroke="transparent" points="-4,4 -4,-62 495,-62 495,4 -4,4"/>
<!-- Node1 -->
<g id="node1" class="node">
<title>Node1</title>
<g id="a_node1"><a xlink:title=" ">
<polygon fill="#bfbfbf" stroke="black" points="0,-19.5 0,-38.5 105,-38.5 105,-19.5 0,-19.5"/>
<text text-anchor="middle" x="52.5" y="-26.5" font-family="Helvetica,sans-Serif" font-size="10.00">xtb_fixparam::fix_info</text>
</a>
</g>
</g>
<!-- Node2 -->
<g id="node2" class="node">
<title>Node2</title>
<g id="a_node2"><a xlink:href="header_8f90.html#aa5f107f7eca06612b547c0745e5bbab2" target="_top" xlink:title=" ">
<polygon fill="white" stroke="black" points="170,-38.5 170,-57.5 253,-57.5 253,-38.5 170,-38.5"/>
<text text-anchor="middle" x="211.5" y="-45.5" font-family="Helvetica,sans-Serif" font-size="10.00">generic_header</text>
</a>
</g>
</g>
<!-- Node1&#45;&gt;Node2 -->
<g id="edge1" class="edge">
<title>Node1&#45;&gt;Node2</title>
<path fill="none" stroke="midnightblue" d="M105.34,-35.27C122.89,-37.4 142.45,-39.76 159.9,-41.88"/>
<polygon fill="midnightblue" stroke="midnightblue" points="159.55,-45.36 169.9,-43.09 160.39,-38.41 159.55,-45.36"/>
</g>
<!-- Node3 -->
<g id="node3" class="node">
<title>Node3</title>
<g id="a_node3"><a xlink:href="namespacextb__mctc__symbols.html#abe837ad333242b4dd3073c5747c13e28" target="_top" xlink:title="Convert atomic number to element symbol.">
<polygon fill="white" stroke="black" points="141,-0.5 141,-19.5 282,-19.5 282,-0.5 141,-0.5"/>
<text text-anchor="middle" x="211.5" y="-7.5" font-family="Helvetica,sans-Serif" font-size="10.00">xtb_mctc_symbols::tosymbol</text>
</a>
</g>
</g>
<!-- Node1&#45;&gt;Node3 -->
<g id="edge2" class="edge">
<title>Node1&#45;&gt;Node3</title>
<path fill="none" stroke="midnightblue" d="M105.34,-22.73C113.5,-21.74 122.08,-20.7 130.69,-19.66"/>
<polygon fill="midnightblue" stroke="midnightblue" points="131.28,-23.11 140.78,-18.44 130.44,-16.16 131.28,-23.11"/>
</g>
<!-- Node4 -->
<g id="node4" class="node">
<title>Node4</title>
<g id="a_node4"><a xlink:href="namespacextb__mctc__symbols.html#a79bd74e1e6f1eae5387d103d33088dc8" target="_top" xlink:title="Convert atomic number to element symbol.">
<polygon fill="white" stroke="black" points="318,-0.5 318,-19.5 491,-19.5 491,-0.5 318,-0.5"/>
<text text-anchor="middle" x="404.5" y="-7.5" font-family="Helvetica,sans-Serif" font-size="10.00">xtb_mctc_symbols::numbertosymbol</text>
</a>
</g>
</g>
<!-- Node3&#45;&gt;Node4 -->
<g id="edge3" class="edge">
<title>Node3&#45;&gt;Node4</title>
<path fill="none" stroke="midnightblue" d="M282.27,-10C290.61,-10 299.25,-10 307.88,-10"/>
<polygon fill="midnightblue" stroke="midnightblue" points="308,-13.5 318,-10 308,-6.5 308,-13.5"/>
</g>
</g>
</svg>
