<?xml version="1.0" encoding="UTF-8" standalone="no"?>
<!DOCTYPE svg PUBLIC "-//W3C//DTD SVG 1.1//EN"
 "http://www.w3.org/Graphics/SVG/1.1/DTD/svg11.dtd">
<!-- Generated by graphviz version 2.43.0 (0)
 -->
<!-- Title: xtb_coulomb_gaussian::getcoulombderivs Pages: 1 -->
<svg width="479pt" height="112pt"
 viewBox="0.00 0.00 479.00 112.00" xmlns="http://www.w3.org/2000/svg" xmlns:xlink="http://www.w3.org/1999/xlink">
<g id="graph0" class="graph" transform="scale(1 1) rotate(0) translate(4 108)">
<title>xtb_coulomb_gaussian::getcoulombderivs</title>
<polygon fill="white" stroke="transparent" points="-4,4 -4,-108 475,-108 475,4 -4,4"/>
<!-- Node1 -->
<g id="node1" class="node">
<title>Node1</title>
<g id="a_node1"><a xlink:title=" ">
<polygon fill="#bfbfbf" stroke="black" points="0,-48.5 0,-78.5 128,-78.5 128,-48.5 0,-48.5"/>
<text text-anchor="start" x="8" y="-66.5" font-family="Helvetica,sans-Serif" font-size="10.00">xtb_coulomb_gaussian</text>
<text text-anchor="middle" x="64" y="-55.5" font-family="Helvetica,sans-Serif" font-size="10.00">::getcoulombderivs</text>
</a>
</g>
</g>
<!-- Node2 -->
<g id="node2" class="node">
<title>Node2</title>
<g id="a_node2"><a xlink:href="namespacextb__coulomb__gaussian.html#af0dc8b8993de521f14fdc9e1b5a71b53" target="_top" xlink:title=" ">
<polygon fill="white" stroke="black" points="164,-73.5 164,-103.5 307,-103.5 307,-73.5 164,-73.5"/>
<text text-anchor="start" x="172" y="-91.5" font-family="Helvetica,sans-Serif" font-size="10.00">xtb_coulomb_gaussian</text>
<text text-anchor="middle" x="235.5" y="-80.5" font-family="Helvetica,sans-Serif" font-size="10.00">::getcoulombderivscluster</text>
</a>
</g>
</g>
<!-- Node1&#45;&gt;Node2 -->
<g id="edge1" class="edge">
<title>Node1&#45;&gt;Node2</title>
<path fill="none" stroke="midnightblue" d="M128.12,-72.81C136.5,-74.05 145.2,-75.33 153.83,-76.6"/>
<polygon fill="midnightblue" stroke="midnightblue" points="153.52,-80.09 163.92,-78.09 154.54,-73.17 153.52,-80.09"/>
</g>
<!-- Node3 -->
<g id="node3" class="node">
<title>Node3</title>
<g id="a_node3"><a xlink:href="namespacextb__coulomb__gaussian.html#ae20125ff9683209e0da1a6ba6b0cf487" target="_top" xlink:title=" ">
<polygon fill="white" stroke="black" points="165.5,-24.5 165.5,-54.5 305.5,-54.5 305.5,-24.5 165.5,-24.5"/>
<text text-anchor="start" x="173.5" y="-42.5" font-family="Helvetica,sans-Serif" font-size="10.00">xtb_coulomb_gaussian</text>
<text text-anchor="middle" x="235.5" y="-31.5" font-family="Helvetica,sans-Serif" font-size="10.00">::getcoulombderivspbc3d</text>
</a>
</g>
</g>
<!-- Node1&#45;&gt;Node3 -->
<g id="edge2" class="edge">
<title>Node1&#45;&gt;Node3</title>
<path fill="none" stroke="midnightblue" d="M128.12,-54.56C136.94,-53.31 146.09,-52.02 155.17,-50.73"/>
<polygon fill="midnightblue" stroke="midnightblue" points="155.94,-54.16 165.36,-49.29 154.96,-47.23 155.94,-54.16"/>
</g>
<!-- Node4 -->
<g id="node4" class="node">
<title>Node4</title>
<g id="a_node4"><a xlink:href="namespacextb__coulomb__ewald.html#a074932dd7bd2a51ac739613a4c5a76ed" target="_top" xlink:title=" ">
<polygon fill="white" stroke="black" points="347,-49.5 347,-79.5 467,-79.5 467,-49.5 347,-49.5"/>
<text text-anchor="start" x="355" y="-67.5" font-family="Helvetica,sans-Serif" font-size="10.00">xtb_coulomb_ewald::</text>
<text text-anchor="middle" x="407" y="-56.5" font-family="Helvetica,sans-Serif" font-size="10.00">ewaldderivpbc3d</text>
</a>
</g>
</g>
<!-- Node3&#45;&gt;Node4 -->
<g id="edge3" class="edge">
<title>Node3&#45;&gt;Node4</title>
<path fill="none" stroke="midnightblue" d="M305.93,-49.74C316.15,-51.25 326.67,-52.8 336.88,-54.31"/>
<polygon fill="midnightblue" stroke="midnightblue" points="336.56,-57.8 346.97,-55.79 337.58,-50.87 336.56,-57.8"/>
</g>
<!-- Node5 -->
<g id="node5" class="node">
<title>Node5</title>
<g id="a_node5"><a xlink:href="namespacextb__coulomb__gaussian.html#ac1997bad077493824bc90759d1167300" target="_top" xlink:title=" ">
<polygon fill="white" stroke="black" points="343,-0.5 343,-30.5 471,-30.5 471,-0.5 343,-0.5"/>
<text text-anchor="start" x="351" y="-18.5" font-family="Helvetica,sans-Serif" font-size="10.00">xtb_coulomb_gaussian</text>
<text text-anchor="middle" x="407" y="-7.5" font-family="Helvetica,sans-Serif" font-size="10.00">::getrderiv</text>
</a>
</g>
</g>
<!-- Node3&#45;&gt;Node5 -->
<g id="edge4" class="edge">
<title>Node3&#45;&gt;Node5</title>
<path fill="none" stroke="midnightblue" d="M305.93,-29.67C314.83,-28.41 323.97,-27.12 332.92,-25.85"/>
<polygon fill="midnightblue" stroke="midnightblue" points="333.53,-29.3 342.94,-24.43 332.55,-22.37 333.53,-29.3"/>
</g>
</g>
</svg>
