<?xml version="1.0" encoding="UTF-8" standalone="no"?>
<!DOCTYPE svg PUBLIC "-//W3C//DTD SVG 1.1//EN"
 "http://www.w3.org/Graphics/SVG/1.1/DTD/svg11.dtd">
<!-- Generated by graphviz version 2.43.0 (0)
 -->
<!-- Title: xtb_disp_dftd3::atm_gradient_neigh Pages: 1 -->
<svg width="336pt" height="100pt"
 viewBox="0.00 0.00 336.00 99.50" xmlns="http://www.w3.org/2000/svg" xmlns:xlink="http://www.w3.org/1999/xlink">
<g id="graph0" class="graph" transform="scale(1 1) rotate(0) translate(4 95.5)">
<title>xtb_disp_dftd3::atm_gradient_neigh</title>
<polygon fill="white" stroke="transparent" points="-4,4 -4,-95.5 332,-95.5 332,4 -4,4"/>
<!-- Node1 -->
<g id="node1" class="node">
<title>Node1</title>
<g id="a_node1"><a xlink:title=" ">
<polygon fill="#bfbfbf" stroke="black" points="215,-27.5 215,-57.5 328,-57.5 328,-27.5 215,-27.5"/>
<text text-anchor="start" x="223" y="-45.5" font-family="Helvetica,sans-Serif" font-size="10.00">xtb_disp_dftd3::atm</text>
<text text-anchor="middle" x="271.5" y="-34.5" font-family="Helvetica,sans-Serif" font-size="10.00">_gradient_neigh</text>
</a>
</g>
</g>
<!-- Node2 -->
<g id="node2" class="node">
<title>Node2</title>
<g id="a_node2"><a xlink:href="interfacextb__disp__dftd3_1_1d3__atm__gradient.html#ae23b23e139e2883ae9cbe059a124cf5f" target="_top" xlink:title=" ">
<polygon fill="white" stroke="black" points="24.5,-50 24.5,-91 154.5,-91 154.5,-50 24.5,-50"/>
<text text-anchor="start" x="32.5" y="-79" font-family="Helvetica,sans-Serif" font-size="10.00">xtb_disp_dftd3::d3</text>
<text text-anchor="start" x="32.5" y="-68" font-family="Helvetica,sans-Serif" font-size="10.00">_atm_gradient::d3_atm</text>
<text text-anchor="middle" x="89.5" y="-57" font-family="Helvetica,sans-Serif" font-size="10.00">_gradient_neigh</text>
</a>
</g>
</g>
<!-- Node1&#45;&gt;Node2 -->
<g id="edge1" class="edge">
<title>Node1&#45;&gt;Node2</title>
<path fill="none" stroke="midnightblue" d="M204.55,-52.76C188.25,-55.29 170.82,-58.01 154.61,-60.53"/>
<polygon fill="midnightblue" stroke="midnightblue" points="205.19,-56.2 214.53,-51.21 204.11,-49.28 205.19,-56.2"/>
</g>
<!-- Node3 -->
<g id="node3" class="node">
<title>Node3</title>
<g id="a_node3"><a xlink:href="interfacextb__disp__dftd3_1_1d3__gradient.html#a5df3d1c13d5dbd2ac47364ff69095a53" target="_top" xlink:title=" ">
<polygon fill="white" stroke="black" points="0,-0.5 0,-30.5 179,-30.5 179,-0.5 0,-0.5"/>
<text text-anchor="start" x="8" y="-18.5" font-family="Helvetica,sans-Serif" font-size="10.00">xtb_disp_dftd3::d3</text>
<text text-anchor="middle" x="89.5" y="-7.5" font-family="Helvetica,sans-Serif" font-size="10.00">_gradient::d3_full_gradient_neigh</text>
</a>
</g>
</g>
<!-- Node1&#45;&gt;Node3 -->
<g id="edge2" class="edge">
<title>Node1&#45;&gt;Node3</title>
<path fill="none" stroke="midnightblue" d="M204.59,-32.61C196.3,-31.37 187.72,-30.08 179.15,-28.8"/>
<polygon fill="midnightblue" stroke="midnightblue" points="204.12,-36.08 214.53,-34.11 205.16,-29.16 204.12,-36.08"/>
</g>
</g>
</svg>
