<?xml version="1.0" encoding="UTF-8" standalone="no"?>
<!DOCTYPE svg PUBLIC "-//W3C//DTD SVG 1.1//EN"
 "http://www.w3.org/Graphics/SVG/1.1/DTD/svg11.dtd">
<!-- Generated by graphviz version 2.46.1 (20210215.1649)
 -->
<!-- Title: xtb_constrain_param::set_constr Pages: 1 -->
<!--zoomable 247 -->
<svg id="main" version="1.1" xmlns="http://www.w3.org/2000/svg" xmlns:xlink="http://www.w3.org/1999/xlink" xml:space="preserve" onload="init(evt)">
<style type="text/css"><![CDATA[
.edge:hover path { stroke: red; }
.edge:hover polygon { stroke: red; fill: red; }
]]></style>
<script type="text/javascript"><![CDATA[
var edges = document.getElementsByTagName('g');
if (edges && edges.length) {
  for (var i=0;i<edges.length;i++) {
    if (edges[i].id.substr(0,4)=='edge') {
      edges[i].setAttribute('class','edge');
    }
  }
}
]]></script>
        <defs>
                <circle id="rim" cx="0" cy="0" r="7"/>
                <circle id="rim2" cx="0" cy="0" r="3.5"/>
                <g id="zoomPlus">
                        <use xlink:href="#rim" fill="#404040">
                                <set attributeName="fill" to="#808080" begin="zoomplus.mouseover" end="zoomplus.mouseout"/>
                        </use>
                        <path d="M-4,0h8M0,-4v8" fill="none" stroke="white" stroke-width="1.5" pointer-events="none"/>
                </g>
                <g id="zoomMin">
                        <use xlink:href="#rim" fill="#404040">
                                <set attributeName="fill" to="#808080" begin="zoomminus.mouseover" end="zoomminus.mouseout"/>
                        </use>
                        <path d="M-4,0h8" fill="none" stroke="white" stroke-width="1.5" pointer-events="none"/>
                </g>
                <g id="dirArrow">
                        <path fill="none" stroke="white" stroke-width="1.5" d="M0,-3.0v7 M-2.5,-0.5L0,-3.0L2.5,-0.5"/>
                </g>
               <g id="resetDef">
                       <use xlink:href="#rim2" fill="#404040">
                               <set attributeName="fill" to="#808080" begin="reset.mouseover" end="reset.mouseout"/>
                       </use>
               </g>
        </defs>

<script type="text/javascript">
var viewWidth = 626;
var viewHeight = 247;
var sectionId = 'dynsection-4';
</script>
<script xlink:href="svgpan.js"/>
<svg id="graph" class="graph">
<g id="viewport">
<title>xtb_constrain_param::set_constr</title>
<polygon fill="white" stroke="transparent" points="-4,4 -4,-243.01 622,-243.01 622,4 -4,4"/>
<!-- Node1 -->
<g id="node1" class="node">
<title>Node1</title>
<g id="a_node1"><a xlink:title=" ">
<polygon fill="#bfbfbf" stroke="black" points="0,-138.01 0,-168.01 107,-168.01 107,-138.01 0,-138.01"/>
<text text-anchor="start" x="8" y="-156.01" font-family="Helvetica,sans-Serif" font-size="10.00">xtb_constrain_param</text>
<text text-anchor="middle" x="53.5" y="-145.01" font-family="Helvetica,sans-Serif" font-size="10.00">::set_constr</text>
</a>
</g>
</g>
<!-- Node2 -->
<g id="node2" class="node">
<title>Node2</title>
<g id="a_node2"><a xlink:href="constr_8f90.html#a32be9c5b624117bb5292ce41655493c1" target="_top" xlink:title=" ">
<polygon fill="white" stroke="black" points="185,-219.51 185,-238.51 225,-238.51 225,-219.51 185,-219.51"/>
<text text-anchor="middle" x="205" y="-226.51" font-family="Helvetica,sans-Serif" font-size="10.00">bangl</text>
</a>
</g>
</g>
<!-- Node1&#45;&gt;Node2 -->
<g id="edge1" class="edge">
<title>Node1&#45;&gt;Node2</title>
<path fill="none" stroke="midnightblue" d="M74.33,-168.02C91.7,-180.6 118,-198.33 143,-210.01 153.1,-214.73 164.67,-218.67 175,-221.72"/>
<polygon fill="midnightblue" stroke="midnightblue" points="174.24,-225.14 184.82,-224.46 176.13,-218.4 174.24,-225.14"/>
</g>
<!-- Node3 -->
<g id="node3" class="node">
<title>Node3</title>
<g id="a_node3"><a xlink:href="namespacextb__splitparam.html#aa6f89bd112a0598bc0b295b83d67b87e" target="_top" xlink:title=" ">
<polygon fill="white" stroke="black" points="145.5,-181.51 145.5,-200.51 264.5,-200.51 264.5,-181.51 145.5,-181.51"/>
<text text-anchor="middle" x="205" y="-188.51" font-family="Helvetica,sans-Serif" font-size="10.00">xtb_splitparam::cmafrag</text>
</a>
</g>
</g>
<!-- Node1&#45;&gt;Node3 -->
<g id="edge2" class="edge">
<title>Node1&#45;&gt;Node3</title>
<path fill="none" stroke="midnightblue" d="M107.21,-166.41C123.21,-170.47 140.69,-174.92 156.33,-178.89"/>
<polygon fill="midnightblue" stroke="midnightblue" points="155.76,-182.36 166.32,-181.43 157.49,-175.58 155.76,-182.36"/>
</g>
<!-- Node4 -->
<g id="node4" class="node">
<title>Node4</title>
<g id="a_node4"><a xlink:href="namespacextb__splitparam.html#a6d8131f684ac0e2d9b95c9cf78b98adc" target="_top" xlink:title=" ">
<polygon fill="white" stroke="black" points="143,-143.51 143,-162.51 267,-162.51 267,-143.51 143,-143.51"/>
<text text-anchor="middle" x="205" y="-150.51" font-family="Helvetica,sans-Serif" font-size="10.00">xtb_splitparam::cmaiface</text>
</a>
</g>
</g>
<!-- Node1&#45;&gt;Node4 -->
<g id="edge3" class="edge">
<title>Node1&#45;&gt;Node4</title>
<path fill="none" stroke="midnightblue" d="M107.21,-153.01C115.49,-153.01 124.16,-153.01 132.77,-153.01"/>
<polygon fill="midnightblue" stroke="midnightblue" points="132.82,-156.51 142.82,-153.01 132.82,-149.51 132.82,-156.51"/>
</g>
<!-- Node5 -->
<g id="node5" class="node">
<title>Node5</title>
<g id="a_node5"><a xlink:href="namespacextb__mctc__strings.html#a5272db42d49f38098924d2587c9e9a78" target="_top" xlink:title="Parses the string &#39;str&#39; into arguments args(1), ..., args(nargs) based on the delimiters contained in...">
<polygon fill="white" stroke="black" points="145.5,-105.51 145.5,-124.51 264.5,-124.51 264.5,-105.51 145.5,-105.51"/>
<text text-anchor="middle" x="205" y="-112.51" font-family="Helvetica,sans-Serif" font-size="10.00">xtb_mctc_strings::parse</text>
</a>
</g>
</g>
<!-- Node1&#45;&gt;Node5 -->
<g id="edge4" class="edge">
<title>Node1&#45;&gt;Node5</title>
<path fill="none" stroke="midnightblue" d="M107.21,-139.61C123.21,-135.55 140.69,-131.1 156.33,-127.13"/>
<polygon fill="midnightblue" stroke="midnightblue" points="157.49,-130.44 166.32,-124.59 155.76,-123.66 157.49,-130.44"/>
</g>
<!-- Node9 -->
<g id="node9" class="node">
<title>Node9</title>
<g id="a_node9"><a xlink:href="constr_8f90.html#a8b9983c57e44abcd5ef71525d9a9917b" target="_top" xlink:title=" ">
<polygon fill="white" stroke="black" points="184.5,-48.51 184.5,-67.51 225.5,-67.51 225.5,-48.51 184.5,-48.51"/>
<text text-anchor="middle" x="205" y="-55.51" font-family="Helvetica,sans-Serif" font-size="10.00">valijkl</text>
</a>
</g>
</g>
<!-- Node1&#45;&gt;Node9 -->
<g id="edge9" class="edge">
<title>Node1&#45;&gt;Node9</title>
<path fill="none" stroke="midnightblue" d="M77.73,-137.91C95.55,-126.37 120.77,-110.09 143,-96.01 155.02,-88.39 168.44,-80.02 179.63,-73.08"/>
<polygon fill="midnightblue" stroke="midnightblue" points="181.76,-75.87 188.41,-67.63 178.07,-69.92 181.76,-75.87"/>
</g>
<!-- Node6 -->
<g id="node6" class="node">
<title>Node6</title>
<g id="a_node6"><a xlink:href="namespacextb__mctc__strings.html#a83fe8976b683970b27e6b64632d50916" target="_top" xlink:title="Converts multiple spaces and tabs to single spaces; deletes control characters; removes initial space...">
<polygon fill="white" stroke="black" points="485,-134.51 485,-153.51 618,-153.51 618,-134.51 485,-134.51"/>
<text text-anchor="middle" x="551.5" y="-141.51" font-family="Helvetica,sans-Serif" font-size="10.00">xtb_mctc_strings::compact</text>
</a>
</g>
</g>
<!-- Node5&#45;&gt;Node6 -->
<g id="edge5" class="edge">
<title>Node5&#45;&gt;Node6</title>
<path fill="none" stroke="midnightblue" d="M244.32,-124.52C252.05,-127.1 259.95,-130.25 267,-134.01 285.13,-143.68 283.62,-156.18 303,-163.01 373.53,-187.88 462.18,-170.3 511.96,-156.4"/>
<polygon fill="midnightblue" stroke="midnightblue" points="513.04,-159.73 521.68,-153.59 511.1,-153 513.04,-159.73"/>
</g>
<!-- Node7 -->
<g id="node7" class="node">
<title>Node7</title>
<g id="a_node7"><a xlink:href="namespacextb__mctc__strings.html#ac1ac14e68e16e450995779028bd6566f" target="_top" xlink:title="Removes backslash () characters. Double backslashes (\) are replaced by a single backslash.">
<polygon fill="white" stroke="black" points="303,-134.51 303,-153.51 449,-153.51 449,-134.51 303,-134.51"/>
<text text-anchor="middle" x="376" y="-141.51" font-family="Helvetica,sans-Serif" font-size="10.00">xtb_mctc_strings::removebksl</text>
</a>
</g>
</g>
<!-- Node5&#45;&gt;Node7 -->
<g id="edge6" class="edge">
<title>Node5&#45;&gt;Node7</title>
<path fill="none" stroke="midnightblue" d="M261.81,-124.59C277.03,-127.2 293.66,-130.05 309.37,-132.75"/>
<polygon fill="midnightblue" stroke="midnightblue" points="309.09,-136.25 319.54,-134.49 310.28,-129.35 309.09,-136.25"/>
</g>
<!-- Node8 -->
<g id="node8" class="node">
<title>Node8</title>
<g id="a_node8"><a xlink:href="namespacextb__mctc__strings.html#a01f52f6293684260e59260ff5790e5c3" target="_top" xlink:title="Routine finds the first instance of a character from &#39;delims&#39; in the the string &#39;str&#39;....">
<polygon fill="white" stroke="black" points="319.5,-96.51 319.5,-115.51 432.5,-115.51 432.5,-96.51 319.5,-96.51"/>
<text text-anchor="middle" x="376" y="-103.51" font-family="Helvetica,sans-Serif" font-size="10.00">xtb_mctc_strings::split</text>
</a>
</g>
</g>
<!-- Node5&#45;&gt;Node8 -->
<g id="edge7" class="edge">
<title>Node5&#45;&gt;Node8</title>
<path fill="none" stroke="midnightblue" d="M264.63,-111.89C279.04,-111.12 294.56,-110.29 309.28,-109.51"/>
<polygon fill="midnightblue" stroke="midnightblue" points="309.51,-113 319.31,-108.98 309.14,-106.01 309.51,-113"/>
</g>
<!-- Node8&#45;&gt;Node6 -->
<g id="edge8" class="edge">
<title>Node8&#45;&gt;Node6</title>
<path fill="none" stroke="midnightblue" d="M420.78,-115.6C443.99,-120.68 472.68,-126.96 497.17,-132.33"/>
<polygon fill="midnightblue" stroke="midnightblue" points="496.52,-135.77 507.03,-134.49 498.01,-128.93 496.52,-135.77"/>
</g>
<!-- Node10 -->
<g id="node10" class="node">
<title>Node10</title>
<g id="a_node10"><a xlink:href="constr_8f90.html#a10258b751fb1a02456622523df6e8b49" target="_top" xlink:title=" ">
<polygon fill="white" stroke="black" points="346.5,-58.51 346.5,-77.51 405.5,-77.51 405.5,-58.51 346.5,-58.51"/>
<text text-anchor="middle" x="376" y="-65.51" font-family="Helvetica,sans-Serif" font-size="10.00">crossprod</text>
</a>
</g>
</g>
<!-- Node9&#45;&gt;Node10 -->
<g id="edge10" class="edge">
<title>Node9&#45;&gt;Node10</title>
<path fill="none" stroke="midnightblue" d="M225.72,-59.18C252.7,-60.77 301.72,-63.67 336.21,-65.71"/>
<polygon fill="midnightblue" stroke="midnightblue" points="336.22,-69.22 346.4,-66.32 336.63,-62.23 336.22,-69.22"/>
</g>
<!-- Node11 -->
<g id="node11" class="node">
<title>Node11</title>
<g id="a_node11"><a xlink:href="constr_8f90.html#a5fc70d66b0231afec39209517852b818" target="_top" xlink:title=" ">
<polygon fill="white" stroke="black" points="356.5,-20.51 356.5,-39.51 395.5,-39.51 395.5,-20.51 356.5,-20.51"/>
<text text-anchor="middle" x="376" y="-27.51" font-family="Helvetica,sans-Serif" font-size="10.00">valijk</text>
</a>
</g>
</g>
<!-- Node9&#45;&gt;Node11 -->
<g id="edge11" class="edge">
<title>Node9&#45;&gt;Node11</title>
<path fill="none" stroke="midnightblue" d="M225.72,-54.74C255.54,-49.8 312.29,-40.4 346.57,-34.72"/>
<polygon fill="midnightblue" stroke="midnightblue" points="347.15,-38.17 356.44,-33.08 346,-31.27 347.15,-38.17"/>
</g>
<!-- Node12 -->
<g id="node12" class="node">
<title>Node12</title>
<g id="a_node12"><a xlink:href="constr_8f90.html#af5b7bb0960a128b6ee8d53b2f0ba2135" target="_top" xlink:title=" ">
<polygon fill="white" stroke="black" points="524.5,-1.51 524.5,-20.51 578.5,-20.51 578.5,-1.51 524.5,-1.51"/>
<text text-anchor="middle" x="551.5" y="-8.51" font-family="Helvetica,sans-Serif" font-size="10.00">vecnorm</text>
</a>
</g>
</g>
<!-- Node9&#45;&gt;Node12 -->
<g id="edge13" class="edge">
<title>Node9&#45;&gt;Node12</title>
<path fill="none" stroke="midnightblue" d="M220.34,-48.48C238.63,-36.95 271.63,-18.21 303,-11.01 376.55,5.87 465.66,-0.41 514.37,-6.02"/>
<polygon fill="midnightblue" stroke="midnightblue" points="514.07,-9.51 524.42,-7.23 514.91,-2.56 514.07,-9.51"/>
</g>
<!-- Node11&#45;&gt;Node12 -->
<g id="edge12" class="edge">
<title>Node11&#45;&gt;Node12</title>
<path fill="none" stroke="midnightblue" d="M395.57,-27.98C423.81,-24.88 478.11,-18.94 514.33,-14.97"/>
<polygon fill="midnightblue" stroke="midnightblue" points="514.92,-18.43 524.48,-13.86 514.16,-11.47 514.92,-18.43"/>
</g>
</g>
</svg>
        <g id="navigator" transform="translate(0 0)" fill="#404254">
                <rect fill="#f2f5e9" fill-opacity="0.5" stroke="#606060" stroke-width=".5" x="0" y="0" width="60" height="60"/>
                <use id="zoomplus" xlink:href="#zoomPlus" x="17" y="9" onmousedown="handleZoom(evt,'in')"/>
                <use id="zoomminus" xlink:href="#zoomMin" x="42" y="9" onmousedown="handleZoom(evt,'out')"/>
                <use id="reset" xlink:href="#resetDef" x="30" y="36" onmousedown="handleReset()"/>
                <g id="arrowUp" xlink:href="#dirArrow" transform="translate(30 24)" onmousedown="handlePan(0,-1)">
                  <use xlink:href="#rim" fill="#404040">
                        <set attributeName="fill" to="#808080" begin="arrowUp.mouseover" end="arrowUp.mouseout"/>
                  </use>
                  <path fill="none" stroke="white" stroke-width="1.5" d="M0,-3.0v7 M-2.5,-0.5L0,-3.0L2.5,-0.5"/>
                </g>
                <g id="arrowRight" xlink:href="#dirArrow" transform="rotate(90) translate(36 -43)" onmousedown="handlePan(1,0)">
                  <use xlink:href="#rim" fill="#404040">
                        <set attributeName="fill" to="#808080" begin="arrowRight.mouseover" end="arrowRight.mouseout"/>
                  </use>
                  <path fill="none" stroke="white" stroke-width="1.5" d="M0,-3.0v7 M-2.5,-0.5L0,-3.0L2.5,-0.5"/>
                </g>
                <g id="arrowDown" xlink:href="#dirArrow" transform="rotate(180) translate(-30 -48)" onmousedown="handlePan(0,1)">
                  <use xlink:href="#rim" fill="#404040">
                        <set attributeName="fill" to="#808080" begin="arrowDown.mouseover" end="arrowDown.mouseout"/>
                  </use>
                  <path fill="none" stroke="white" stroke-width="1.5" d="M0,-3.0v7 M-2.5,-0.5L0,-3.0L2.5,-0.5"/>
                </g>
                <g id="arrowLeft" xlink:href="#dirArrow" transform="rotate(270) translate(-36 17)" onmousedown="handlePan(-1,0)">
                  <use xlink:href="#rim" fill="#404040">
                        <set attributeName="fill" to="#808080" begin="arrowLeft.mouseover" end="arrowLeft.mouseout"/>
                  </use>
                  <path fill="none" stroke="white" stroke-width="1.5" d="M0,-3.0v7 M-2.5,-0.5L0,-3.0L2.5,-0.5"/>
                </g>
        </g>
        <svg viewBox="0 0 15 15" width="100%" height="30px" preserveAspectRatio="xMaxYMin meet">
         <g id="arrow_out" transform="scale(0.3 0.3)">
          <a xlink:href="namespacextb__constrain__param_aec900c7a40b32edce5ea0462453cac20_cgraph_org.svg" target="_base">
           <rect id="button" ry="5" rx="5" y="6" x="6" height="38" width="38"
                fill="#f2f5e9" fill-opacity="0.5" stroke="#606060" stroke-width="1.0"/>
           <path id="arrow"
             d="M 11.500037,31.436501 C 11.940474,20.09759 22.043105,11.32322 32.158766,21.979434 L 37.068811,17.246167 C 37.068811,17.246167 37.088388,32 37.088388,32 L 22.160133,31.978069 C 22.160133,31.978069 26.997745,27.140456 26.997745,27.140456 C 18.528582,18.264221 13.291696,25.230495 11.500037,31.436501 z"
             style="fill:#404040;"/>
          </a>
         </g>
        </svg>
</svg>
