<?xml version="1.0" encoding="UTF-8" standalone="no"?>
<!DOCTYPE svg PUBLIC "-//W3C//DTD SVG 1.1//EN"
 "http://www.w3.org/Graphics/SVG/1.1/DTD/svg11.dtd">
<!-- Generated by graphviz version 2.46.1 (20210215.1649)
 -->
<!-- Title: xtb_readin::mirror_line Pages: 1 -->
<svg width="682pt" height="66pt"
 viewBox="0.00 0.00 682.00 66.00" xmlns="http://www.w3.org/2000/svg" xmlns:xlink="http://www.w3.org/1999/xlink">
<g id="graph0" class="graph" transform="scale(1 1) rotate(0) translate(4 62)">
<title>xtb_readin::mirror_line</title>
<polygon fill="white" stroke="transparent" points="-4,4 -4,-62 678,-62 678,4 -4,4"/>
<!-- Node1 -->
<g id="node1" class="node">
<title>Node1</title>
<g id="a_node1"><a xlink:title=" ">
<polygon fill="#bfbfbf" stroke="black" points="564,-19.5 564,-38.5 674,-38.5 674,-19.5 564,-19.5"/>
<text text-anchor="middle" x="619" y="-26.5" font-family="Helvetica,sans-Serif" font-size="10.00">xtb_readin::mirror_line</text>
</a>
</g>
</g>
<!-- Node2 -->
<g id="node2" class="node">
<title>Node2</title>
<g id="a_node2"><a xlink:href="namespacextb__setmod.html#a00c72909072df12d37068769878e16a3" target="_top" xlink:title=" ">
<polygon fill="white" stroke="black" points="425,-38.5 425,-57.5 528,-57.5 528,-38.5 425,-38.5"/>
<text text-anchor="middle" x="476.5" y="-45.5" font-family="Helvetica,sans-Serif" font-size="10.00">xtb_setmod::rdblock</text>
</a>
</g>
</g>
<!-- Node1&#45;&gt;Node2 -->
<g id="edge1" class="edge">
<title>Node1&#45;&gt;Node2</title>
<path fill="none" stroke="midnightblue" d="M553.51,-37.72C545.11,-38.86 536.59,-40.01 528.45,-41.11"/>
<polygon fill="midnightblue" stroke="midnightblue" points="554.24,-41.15 563.68,-36.35 553.3,-34.22 554.24,-41.15"/>
</g>
<!-- Node6 -->
<g id="node6" class="node">
<title>Node6</title>
<g id="a_node6"><a xlink:href="namespacextb__setmod.html#a112460e86977744247257d9ffd746829" target="_top" xlink:title=" ">
<polygon fill="white" stroke="black" points="426,-0.5 426,-19.5 527,-19.5 527,-0.5 426,-0.5"/>
<text text-anchor="middle" x="476.5" y="-7.5" font-family="Helvetica,sans-Serif" font-size="10.00">xtb_setmod::rdsetbl</text>
</a>
</g>
</g>
<!-- Node1&#45;&gt;Node6 -->
<g id="edge5" class="edge">
<title>Node1&#45;&gt;Node6</title>
<path fill="none" stroke="midnightblue" d="M553.68,-20.3C544.75,-19.09 535.69,-17.87 527.08,-16.7"/>
<polygon fill="midnightblue" stroke="midnightblue" points="553.3,-23.78 563.68,-21.65 554.24,-16.85 553.3,-23.78"/>
</g>
<!-- Node3 -->
<g id="node3" class="node">
<title>Node3</title>
<g id="a_node3"><a xlink:href="namespacextb__setmod.html#af256a658a95d1cc74d76dbc0b607c01a" target="_top" xlink:title=" ">
<polygon fill="white" stroke="black" points="280,-19.5 280,-38.5 389,-38.5 389,-19.5 280,-19.5"/>
<text text-anchor="middle" x="334.5" y="-26.5" font-family="Helvetica,sans-Serif" font-size="10.00">xtb_setmod::rdcontrol</text>
</a>
</g>
</g>
<!-- Node2&#45;&gt;Node3 -->
<g id="edge2" class="edge">
<title>Node2&#45;&gt;Node3</title>
<path fill="none" stroke="midnightblue" d="M415.02,-39.79C406.46,-38.63 397.7,-37.44 389.28,-36.3"/>
<polygon fill="midnightblue" stroke="midnightblue" points="414.58,-43.26 424.96,-41.14 415.52,-36.33 414.58,-43.26"/>
</g>
<!-- Node4 -->
<g id="node4" class="node">
<title>Node4</title>
<g id="a_node4"><a xlink:href="namespacextb__prog__main.html#a92b3b61ee04235e6343f652095682529" target="_top" xlink:title=" ">
<polygon fill="white" stroke="black" points="126,-19.5 126,-38.5 244,-38.5 244,-19.5 126,-19.5"/>
<text text-anchor="middle" x="185" y="-26.5" font-family="Helvetica,sans-Serif" font-size="10.00">xtb_prog_main::xtbmain</text>
</a>
</g>
</g>
<!-- Node3&#45;&gt;Node4 -->
<g id="edge3" class="edge">
<title>Node3&#45;&gt;Node4</title>
<path fill="none" stroke="midnightblue" d="M269.61,-29C261.13,-29 252.48,-29 244.11,-29"/>
<polygon fill="midnightblue" stroke="midnightblue" points="269.83,-32.5 279.83,-29 269.83,-25.5 269.83,-32.5"/>
</g>
<!-- Node5 -->
<g id="node5" class="node">
<title>Node5</title>
<g id="a_node5"><a xlink:href="primary_8f90.html#a2a67903cf5be605c5b6d3c362c6a3c5c" target="_top" xlink:title="The primary driver for the xtb program package.">
<polygon fill="white" stroke="black" points="0,-19.5 0,-38.5 90,-38.5 90,-19.5 0,-19.5"/>
<text text-anchor="middle" x="45" y="-26.5" font-family="Helvetica,sans-Serif" font-size="10.00">xtb_prog_primary</text>
</a>
</g>
</g>
<!-- Node4&#45;&gt;Node5 -->
<g id="edge4" class="edge">
<title>Node4&#45;&gt;Node5</title>
<path fill="none" stroke="midnightblue" d="M115.73,-29C107.06,-29 98.37,-29 90.22,-29"/>
<polygon fill="midnightblue" stroke="midnightblue" points="115.88,-32.5 125.88,-29 115.88,-25.5 115.88,-32.5"/>
</g>
<!-- Node6&#45;&gt;Node3 -->
<g id="edge6" class="edge">
<title>Node6&#45;&gt;Node3</title>
<path fill="none" stroke="midnightblue" d="M415.63,-18.12C406.91,-19.31 397.97,-20.52 389.37,-21.69"/>
<polygon fill="midnightblue" stroke="midnightblue" points="416.31,-21.57 425.75,-16.75 415.37,-14.63 416.31,-21.57"/>
</g>
</g>
</svg>
