<?xml version="1.0" encoding="UTF-8" standalone="no"?>
<!DOCTYPE svg PUBLIC "-//W3C//DTD SVG 1.1//EN"
 "http://www.w3.org/Graphics/SVG/1.1/DTD/svg11.dtd">
<!-- Generated by graphviz version 2.46.0 (20210122.1329)
 -->
<!-- Title: xtb_modelhessian::mh_swart_outofp Pages: 1 -->
<svg width="614pt" height="154pt"
 viewBox="0.00 0.00 614.00 153.50" xmlns="http://www.w3.org/2000/svg" xmlns:xlink="http://www.w3.org/1999/xlink">
<g id="graph0" class="graph" transform="scale(1 1) rotate(0) translate(4 149.5)">
<title>xtb_modelhessian::mh_swart_outofp</title>
<polygon fill="white" stroke="transparent" points="-4,4 -4,-149.5 610,-149.5 610,4 -4,4"/>
<!-- Node1 -->
<g id="node1" class="node">
<title>Node1</title>
<g id="a_node1"><a xlink:title=" ">
<polygon fill="#bfbfbf" stroke="black" points="0,-52 0,-82 113,-82 113,-52 0,-52"/>
<text text-anchor="start" x="8" y="-70" font-family="Helvetica,sans-Serif" font-size="10.00">xtb_modelhessian::mh</text>
<text text-anchor="middle" x="56.5" y="-59" font-family="Helvetica,sans-Serif" font-size="10.00">_swart_outofp</text>
</a>
</g>
</g>
<!-- Node2 -->
<g id="node2" class="node">
<title>Node2</title>
<g id="a_node2"><a xlink:href="namespacextb__modelhessian.html#a32eebf22d776cb8137dafb8e6d0eb2ba" target="_top" xlink:title=" ">
<polygon fill="white" stroke="black" points="161,-115 161,-145 268,-145 268,-115 161,-115"/>
<text text-anchor="start" x="169" y="-133" font-family="Helvetica,sans-Serif" font-size="10.00">xtb_modelhessian::fk</text>
<text text-anchor="middle" x="214.5" y="-122" font-family="Helvetica,sans-Serif" font-size="10.00">_swart</text>
</a>
</g>
</g>
<!-- Node1&#45;&gt;Node2 -->
<g id="edge1" class="edge">
<title>Node1&#45;&gt;Node2</title>
<path fill="none" stroke="midnightblue" d="M93.49,-82.18C110.31,-89.21 130.64,-97.63 149,-105 154.09,-107.04 159.41,-109.15 164.72,-111.23"/>
<polygon fill="midnightblue" stroke="midnightblue" points="163.63,-114.57 174.22,-114.95 166.18,-108.05 163.63,-114.57"/>
</g>
<!-- Node3 -->
<g id="node3" class="node">
<title>Node3</title>
<g id="a_node3"><a xlink:href="namespacextb__modelhessian.html#a5f74ce78dbaa3ff66d505b6126cd6674" target="_top" xlink:title=" ">
<polygon fill="white" stroke="black" points="149,-76.5 149,-95.5 280,-95.5 280,-76.5 149,-76.5"/>
<text text-anchor="middle" x="214.5" y="-83.5" font-family="Helvetica,sans-Serif" font-size="10.00">xtb_modelhessian::fk_vdw</text>
</a>
</g>
</g>
<!-- Node1&#45;&gt;Node3 -->
<g id="edge2" class="edge">
<title>Node1&#45;&gt;Node3</title>
<path fill="none" stroke="midnightblue" d="M113.38,-73.81C121.67,-74.82 130.33,-75.87 138.93,-76.92"/>
<polygon fill="midnightblue" stroke="midnightblue" points="138.63,-80.41 148.98,-78.14 139.48,-73.46 138.63,-80.41"/>
</g>
<!-- Node4 -->
<g id="node4" class="node">
<title>Node4</title>
<g id="a_node4"><a xlink:href="namespacextb__modelhessian.html#a0fc5c82305ca92f7b9625a6869c279c8" target="_top" xlink:title=" ">
<polygon fill="white" stroke="black" points="158.5,-38.5 158.5,-57.5 270.5,-57.5 270.5,-38.5 158.5,-38.5"/>
<text text-anchor="middle" x="214.5" y="-45.5" font-family="Helvetica,sans-Serif" font-size="10.00">xtb_modelhessian::ind</text>
</a>
</g>
</g>
<!-- Node1&#45;&gt;Node4 -->
<g id="edge3" class="edge">
<title>Node1&#45;&gt;Node4</title>
<path fill="none" stroke="midnightblue" d="M113.38,-60.19C124.67,-58.82 136.64,-57.36 148.22,-55.95"/>
<polygon fill="midnightblue" stroke="midnightblue" points="148.77,-59.41 158.27,-54.73 147.92,-52.46 148.77,-59.41"/>
</g>
<!-- Node7 -->
<g id="node7" class="node">
<title>Node7</title>
<g id="a_node7"><a xlink:href="namespacextb__modelhessian.html#aef3aed886110afcfa8b8f9dcb49539ea" target="_top" xlink:title=" ">
<polygon fill="white" stroke="black" points="149,-0.5 149,-19.5 280,-19.5 280,-0.5 149,-0.5"/>
<text text-anchor="middle" x="214.5" y="-7.5" font-family="Helvetica,sans-Serif" font-size="10.00">xtb_modelhessian::outofp2</text>
</a>
</g>
</g>
<!-- Node1&#45;&gt;Node7 -->
<g id="edge6" class="edge">
<title>Node1&#45;&gt;Node7</title>
<path fill="none" stroke="midnightblue" d="M91.49,-51.87C108.57,-44.52 129.7,-35.83 149,-29 155.36,-26.75 162.13,-24.55 168.81,-22.49"/>
<polygon fill="midnightblue" stroke="midnightblue" points="169.9,-25.81 178.47,-19.58 167.88,-19.11 169.9,-25.81"/>
</g>
<!-- Node5 -->
<g id="node5" class="node">
<title>Node5</title>
<g id="a_node5"><a xlink:href="namespacextb__modelhessian.html#ad5b302d227ff0bda37ab6e452a7e71f0" target="_top" xlink:title=" ">
<polygon fill="white" stroke="black" points="321,-76.5 321,-95.5 436,-95.5 436,-76.5 321,-76.5"/>
<text text-anchor="middle" x="378.5" y="-83.5" font-family="Helvetica,sans-Serif" font-size="10.00">xtb_modelhessian::ixyz</text>
</a>
</g>
</g>
<!-- Node4&#45;&gt;Node5 -->
<g id="edge4" class="edge">
<title>Node4&#45;&gt;Node5</title>
<path fill="none" stroke="midnightblue" d="M256.38,-57.59C277.85,-62.63 304.36,-68.84 327.1,-74.18"/>
<polygon fill="midnightblue" stroke="midnightblue" points="326.38,-77.6 336.91,-76.48 327.98,-70.79 326.38,-77.6"/>
</g>
<!-- Node6 -->
<g id="node6" class="node">
<title>Node6</title>
<g id="a_node6"><a xlink:href="namespacextb__modelhessian.html#a4c09cd1aade9a59a35a770f0908823fc" target="_top" xlink:title=" ">
<polygon fill="white" stroke="black" points="322.5,-38.5 322.5,-57.5 434.5,-57.5 434.5,-38.5 322.5,-38.5"/>
<text text-anchor="middle" x="378.5" y="-45.5" font-family="Helvetica,sans-Serif" font-size="10.00">xtb_modelhessian::jnd</text>
</a>
</g>
</g>
<!-- Node4&#45;&gt;Node6 -->
<g id="edge5" class="edge">
<title>Node4&#45;&gt;Node6</title>
<path fill="none" stroke="midnightblue" d="M270.8,-48C284.09,-48 298.42,-48 312.12,-48"/>
<polygon fill="midnightblue" stroke="midnightblue" points="312.45,-51.5 322.45,-48 312.45,-44.5 312.45,-51.5"/>
</g>
<!-- Node8 -->
<g id="node8" class="node">
<title>Node8</title>
<g id="a_node8"><a xlink:href="namespacextb__modelhessian.html#ab4301b91a670e55ec855e23eddcf4e21" target="_top" xlink:title=" ">
<polygon fill="white" stroke="black" points="316,-0.5 316,-19.5 441,-19.5 441,-0.5 316,-0.5"/>
<text text-anchor="middle" x="378.5" y="-7.5" font-family="Helvetica,sans-Serif" font-size="10.00">xtb_modelhessian::bend2</text>
</a>
</g>
</g>
<!-- Node7&#45;&gt;Node8 -->
<g id="edge7" class="edge">
<title>Node7&#45;&gt;Node8</title>
<path fill="none" stroke="midnightblue" d="M280.46,-10C288.78,-10 297.34,-10 305.76,-10"/>
<polygon fill="midnightblue" stroke="midnightblue" points="305.95,-13.5 315.95,-10 305.95,-6.5 305.95,-13.5"/>
</g>
<!-- Node9 -->
<g id="node9" class="node">
<title>Node9</title>
<g id="a_node9"><a xlink:href="namespacextb__modelhessian.html#af7d3c309b0a8fdcbd7ec6fe9bcc92235" target="_top" xlink:title=" ">
<polygon fill="white" stroke="black" points="477,-0.5 477,-19.5 606,-19.5 606,-0.5 477,-0.5"/>
<text text-anchor="middle" x="541.5" y="-7.5" font-family="Helvetica,sans-Serif" font-size="10.00">xtb_modelhessian::strtch2</text>
</a>
</g>
</g>
<!-- Node8&#45;&gt;Node9 -->
<g id="edge8" class="edge">
<title>Node8&#45;&gt;Node9</title>
<path fill="none" stroke="midnightblue" d="M441.29,-10C449.55,-10 458.08,-10 466.52,-10"/>
<polygon fill="midnightblue" stroke="midnightblue" points="466.75,-13.5 476.75,-10 466.75,-6.5 466.75,-13.5"/>
</g>
</g>
</svg>
