<?xml version="1.0" encoding="UTF-8" standalone="no"?>
<!DOCTYPE svg PUBLIC "-//W3C//DTD SVG 1.1//EN"
 "http://www.w3.org/Graphics/SVG/1.1/DTD/svg11.dtd">
<!-- Generated by graphviz version 2.46.0 (20210122.1329)
 -->
<!-- Title: xtb_modelhessian::mh_swart Pages: 1 -->
<svg width="1147pt" height="306pt"
 viewBox="0.00 0.00 1147.00 305.50" xmlns="http://www.w3.org/2000/svg" xmlns:xlink="http://www.w3.org/1999/xlink">
<g id="graph0" class="graph" transform="scale(1 1) rotate(0) translate(4 301.5)">
<title>xtb_modelhessian::mh_swart</title>
<polygon fill="white" stroke="transparent" points="-4,4 -4,-301.5 1143,-301.5 1143,4 -4,4"/>
<!-- Node1 -->
<g id="node1" class="node">
<title>Node1</title>
<g id="a_node1"><a xlink:title=" ">
<polygon fill="#bfbfbf" stroke="black" points="1026,-164.5 1026,-194.5 1139,-194.5 1139,-164.5 1026,-164.5"/>
<text text-anchor="start" x="1034" y="-182.5" font-family="Helvetica,sans-Serif" font-size="10.00">xtb_modelhessian::mh</text>
<text text-anchor="middle" x="1082.5" y="-171.5" font-family="Helvetica,sans-Serif" font-size="10.00">_swart</text>
</a>
</g>
</g>
<!-- Node2 -->
<g id="node2" class="node">
<title>Node2</title>
<g id="a_node2"><a xlink:href="namespacextb__optimizer.html#a9fc9ad9955c0a2ef4872d25495d02901" target="_top" xlink:title=" ">
<polygon fill="white" stroke="black" points="877,-170 877,-189 990,-189 990,-170 877,-170"/>
<text text-anchor="middle" x="933.5" y="-177" font-family="Helvetica,sans-Serif" font-size="10.00">xtb_optimizer::modhes</text>
</a>
</g>
</g>
<!-- Node1&#45;&gt;Node2 -->
<g id="edge1" class="edge">
<title>Node1&#45;&gt;Node2</title>
<path fill="none" stroke="midnightblue" d="M1015.92,-179.5C1007.32,-179.5 998.57,-179.5 990.15,-179.5"/>
<polygon fill="midnightblue" stroke="midnightblue" points="1015.93,-183 1025.93,-179.5 1015.93,-176 1015.93,-183"/>
</g>
<!-- Node3 -->
<g id="node3" class="node">
<title>Node3</title>
<g id="a_node3"><a xlink:href="namespacextb__optimizer.html#a1743159550358c92fb2761af80e15285" target="_top" xlink:title=" ">
<polygon fill="white" stroke="black" points="732.5,-214 732.5,-233 839.5,-233 839.5,-214 732.5,-214"/>
<text text-anchor="middle" x="786" y="-221" font-family="Helvetica,sans-Serif" font-size="10.00">xtb_optimizer::ancopt</text>
</a>
</g>
</g>
<!-- Node2&#45;&gt;Node3 -->
<g id="edge2" class="edge">
<title>Node2&#45;&gt;Node3</title>
<path fill="none" stroke="midnightblue" d="M891.07,-192.03C868.01,-199 839.76,-207.55 818.51,-213.97"/>
<polygon fill="midnightblue" stroke="midnightblue" points="892.37,-195.29 900.93,-189.05 890.34,-188.59 892.37,-195.29"/>
</g>
<!-- Node15 -->
<g id="node15" class="node">
<title>Node15</title>
<g id="a_node15"><a xlink:href="namespacextb__relaxation__engine.html#a930f6aac4b13eab0de82f2b71bcde96b" target="_top" xlink:title="frontend implementation of the fast inertial relaxation engine">
<polygon fill="white" stroke="black" points="731,-164.5 731,-194.5 841,-194.5 841,-164.5 731,-164.5"/>
<text text-anchor="start" x="739" y="-182.5" font-family="Helvetica,sans-Serif" font-size="10.00">xtb_relaxation_engine</text>
<text text-anchor="middle" x="786" y="-171.5" font-family="Helvetica,sans-Serif" font-size="10.00">::fire</text>
</a>
</g>
</g>
<!-- Node2&#45;&gt;Node15 -->
<g id="edge21" class="edge">
<title>Node2&#45;&gt;Node15</title>
<path fill="none" stroke="midnightblue" d="M866.39,-179.5C857.9,-179.5 849.28,-179.5 841.01,-179.5"/>
<polygon fill="midnightblue" stroke="midnightblue" points="866.66,-183 876.66,-179.5 866.66,-176 866.66,-183"/>
</g>
<!-- Node16 -->
<g id="node16" class="node">
<title>Node16</title>
<g id="a_node16"><a xlink:href="namespacextb__relaxation__engine.html#a93ca131c43cfa21276f1bc353c189423" target="_top" xlink:title="frontend implementation of the low memory/linear scaling (by taste)">
<polygon fill="white" stroke="black" points="731,-115.5 731,-145.5 841,-145.5 841,-115.5 731,-115.5"/>
<text text-anchor="start" x="739" y="-133.5" font-family="Helvetica,sans-Serif" font-size="10.00">xtb_relaxation_engine</text>
<text text-anchor="middle" x="786" y="-122.5" font-family="Helvetica,sans-Serif" font-size="10.00">::l_ancopt</text>
</a>
</g>
</g>
<!-- Node2&#45;&gt;Node16 -->
<g id="edge23" class="edge">
<title>Node2&#45;&gt;Node16</title>
<path fill="none" stroke="midnightblue" d="M894.46,-166.69C875.22,-160.21 851.75,-152.3 831.65,-145.54"/>
<polygon fill="midnightblue" stroke="midnightblue" points="893.51,-170.06 904.1,-169.94 895.74,-163.43 893.51,-170.06"/>
</g>
<!-- Node4 -->
<g id="node4" class="node">
<title>Node4</title>
<g id="a_node4"><a xlink:href="namespacextb__biaspath.html#a17ea22b101e578a3df8d2b58b96811a5" target="_top" xlink:title=" ">
<polygon fill="white" stroke="black" points="280,-278 280,-297 398,-297 398,-278 280,-278"/>
<text text-anchor="middle" x="339" y="-285" font-family="Helvetica,sans-Serif" font-size="10.00">xtb_biaspath::bias_path</text>
</a>
</g>
</g>
<!-- Node3&#45;&gt;Node4 -->
<g id="edge3" class="edge">
<title>Node3&#45;&gt;Node4</title>
<path fill="none" stroke="midnightblue" d="M722,-233.13C674.92,-240.28 608.96,-250.18 551,-258.5 499.39,-265.91 440.62,-273.95 398.24,-279.68"/>
<polygon fill="midnightblue" stroke="midnightblue" points="722.69,-236.57 732.05,-231.6 721.64,-229.64 722.69,-236.57"/>
</g>
<!-- Node7 -->
<g id="node7" class="node">
<title>Node7</title>
<g id="a_node7"><a xlink:href="namespacextb__geoopt.html#a1f0513294f2237b94f355cc4dc5dd867" target="_top" xlink:title=" ">
<polygon fill="white" stroke="black" points="587,-139.5 587,-169.5 695,-169.5 695,-139.5 587,-139.5"/>
<text text-anchor="start" x="595" y="-157.5" font-family="Helvetica,sans-Serif" font-size="10.00">xtb_geoopt::geometry</text>
<text text-anchor="middle" x="641" y="-146.5" font-family="Helvetica,sans-Serif" font-size="10.00">_optimization</text>
</a>
</g>
</g>
<!-- Node3&#45;&gt;Node7 -->
<g id="edge6" class="edge">
<title>Node3&#45;&gt;Node7</title>
<path fill="none" stroke="midnightblue" d="M745.51,-210.5C740.57,-208.62 735.63,-206.6 731,-204.5 708.4,-194.27 683.9,-180.27 666.34,-169.69"/>
<polygon fill="midnightblue" stroke="midnightblue" points="744.33,-213.8 754.93,-213.96 746.74,-207.23 744.33,-213.8"/>
</g>
<!-- Node5 -->
<g id="node5" class="node">
<title>Node5</title>
<g id="a_node5"><a xlink:href="namespacextb__prog__main.html#a92b3b61ee04235e6343f652095682529" target="_top" xlink:title=" ">
<polygon fill="white" stroke="black" points="126,-145 126,-164 244,-164 244,-145 126,-145"/>
<text text-anchor="middle" x="185" y="-152" font-family="Helvetica,sans-Serif" font-size="10.00">xtb_prog_main::xtbmain</text>
</a>
</g>
</g>
<!-- Node4&#45;&gt;Node5 -->
<g id="edge4" class="edge">
<title>Node4&#45;&gt;Node5</title>
<path fill="none" stroke="midnightblue" d="M298.14,-273.93C291.8,-270.96 285.52,-267.49 280,-263.5 239.9,-234.52 205.6,-185.16 192.11,-164.29"/>
<polygon fill="midnightblue" stroke="midnightblue" points="296.82,-277.17 307.39,-277.92 299.6,-270.74 296.82,-277.17"/>
</g>
<!-- Node6 -->
<g id="node6" class="node">
<title>Node6</title>
<g id="a_node6"><a xlink:href="primary_8f90.html#a2a67903cf5be605c5b6d3c362c6a3c5c" target="_top" xlink:title="The primary driver for the xtb program package.">
<polygon fill="white" stroke="black" points="0,-145 0,-164 90,-164 90,-145 0,-145"/>
<text text-anchor="middle" x="45" y="-152" font-family="Helvetica,sans-Serif" font-size="10.00">xtb_prog_primary</text>
</a>
</g>
</g>
<!-- Node5&#45;&gt;Node6 -->
<g id="edge5" class="edge">
<title>Node5&#45;&gt;Node6</title>
<path fill="none" stroke="midnightblue" d="M115.73,-154.5C107.06,-154.5 98.37,-154.5 90.22,-154.5"/>
<polygon fill="midnightblue" stroke="midnightblue" points="115.88,-158 125.88,-154.5 115.88,-151 115.88,-158"/>
</g>
<!-- Node7&#45;&gt;Node5 -->
<g id="edge20" class="edge">
<title>Node7&#45;&gt;Node5</title>
<path fill="none" stroke="midnightblue" d="M621.29,-177.68C604.95,-195.95 579.43,-220.01 551,-230.5 438,-272.18 393.55,-270.66 280,-230.5 242.21,-217.13 208.48,-181.41 193.79,-164.13"/>
<polygon fill="midnightblue" stroke="midnightblue" points="624.24,-179.63 628.13,-169.77 618.94,-175.05 624.24,-179.63"/>
</g>
<!-- Node8 -->
<g id="node8" class="node">
<title>Node8</title>
<g id="a_node8"><a xlink:href="namespacextb__kopt.html#ada4ab70832f563f46c8ffc8cea64c78b" target="_top" xlink:title=" ">
<polygon fill="white" stroke="black" points="443.5,-202 443.5,-221 541.5,-221 541.5,-202 443.5,-202"/>
<text text-anchor="middle" x="492.5" y="-209" font-family="Helvetica,sans-Serif" font-size="10.00">xtb_kopt::get_rmsd</text>
</a>
</g>
</g>
<!-- Node7&#45;&gt;Node8 -->
<g id="edge7" class="edge">
<title>Node7&#45;&gt;Node8</title>
<path fill="none" stroke="midnightblue" d="M591.6,-173.33C567.05,-182.88 538.28,-194.08 518.27,-201.86"/>
<polygon fill="midnightblue" stroke="midnightblue" points="593.07,-176.51 601.13,-169.63 590.54,-169.99 593.07,-176.51"/>
</g>
<!-- Node10 -->
<g id="node10" class="node">
<title>Node10</title>
<g id="a_node10"><a xlink:href="namespacextb__mdoptim.html#ab0ba2195163cd6794115b99516ba5316" target="_top" xlink:title=" ">
<polygon fill="white" stroke="black" points="287,-164 287,-183 391,-183 391,-164 287,-164"/>
<text text-anchor="middle" x="339" y="-171" font-family="Helvetica,sans-Serif" font-size="10.00">xtb_mdoptim::mdopt</text>
</a>
</g>
</g>
<!-- Node7&#45;&gt;Node10 -->
<g id="edge10" class="edge">
<title>Node7&#45;&gt;Node10</title>
<path fill="none" stroke="midnightblue" d="M576.7,-158.51C521.55,-162 442.57,-167 391.29,-170.25"/>
<polygon fill="midnightblue" stroke="midnightblue" points="576.95,-162 586.71,-157.87 576.51,-155.01 576.95,-162"/>
</g>
<!-- Node11 -->
<g id="node11" class="node">
<title>Node11</title>
<g id="a_node11"><a xlink:href="namespacextb__modef.html#a39c4cb408b8b02afb7bf83a1d7f13de3" target="_top" xlink:title=" ">
<polygon fill="white" stroke="black" points="434.5,-126 434.5,-145 550.5,-145 550.5,-126 434.5,-126"/>
<text text-anchor="middle" x="492.5" y="-133" font-family="Helvetica,sans-Serif" font-size="10.00">xtb_modef::modefollow</text>
</a>
</g>
</g>
<!-- Node7&#45;&gt;Node11 -->
<g id="edge12" class="edge">
<title>Node7&#45;&gt;Node11</title>
<path fill="none" stroke="midnightblue" d="M576.75,-146.3C568.18,-145.19 559.43,-144.05 550.97,-142.95"/>
<polygon fill="midnightblue" stroke="midnightblue" points="576.33,-149.77 586.7,-147.59 577.23,-142.83 576.33,-149.77"/>
</g>
<!-- Node12 -->
<g id="node12" class="node">
<title>Node12</title>
<g id="a_node12"><a xlink:href="namespacextb__scan.html#abef8f8d0fa299e9e2caf823f3672f14a" target="_top" xlink:title=" ">
<polygon fill="white" stroke="black" points="434,-88 434,-107 551,-107 551,-88 434,-88"/>
<text text-anchor="middle" x="492.5" y="-95" font-family="Helvetica,sans-Serif" font-size="10.00">xtb_scan::relaxed_scan</text>
</a>
</g>
</g>
<!-- Node7&#45;&gt;Node12 -->
<g id="edge14" class="edge">
<title>Node7&#45;&gt;Node12</title>
<path fill="none" stroke="midnightblue" d="M597.2,-135.36C582.65,-129.08 566.21,-122.25 551,-116.5 542.35,-113.23 532.85,-109.96 524.11,-107.08"/>
<polygon fill="midnightblue" stroke="midnightblue" points="595.9,-138.61 606.46,-139.39 598.69,-132.19 595.9,-138.61"/>
</g>
<!-- Node13 -->
<g id="node13" class="node">
<title>Node13</title>
<g id="a_node13"><a xlink:href="namespacextb__screening.html#a7f4004ff0e65127a38b038f0a7cdcc84" target="_top" xlink:title=" ">
<polygon fill="white" stroke="black" points="437.5,-50 437.5,-69 547.5,-69 547.5,-50 437.5,-50"/>
<text text-anchor="middle" x="492.5" y="-57" font-family="Helvetica,sans-Serif" font-size="10.00">xtb_screening::screen</text>
</a>
</g>
</g>
<!-- Node7&#45;&gt;Node13 -->
<g id="edge16" class="edge">
<title>Node7&#45;&gt;Node13</title>
<path fill="none" stroke="midnightblue" d="M618.73,-132.12C601.75,-115.36 576.64,-92.94 551,-78.5 544.4,-74.79 536.97,-71.66 529.69,-69.08"/>
<polygon fill="midnightblue" stroke="midnightblue" points="616.4,-134.74 625.93,-139.37 621.36,-129.81 616.4,-134.74"/>
</g>
<!-- Node14 -->
<g id="node14" class="node">
<title>Node14</title>
<g id="a_node14"><a xlink:href="namespacextb__gfnff__convert.html#adf399b47b9f2a8364327d9d5c38cb2b8" target="_top" xlink:title=" ">
<polygon fill="white" stroke="black" points="291.5,-0.5 291.5,-30.5 386.5,-30.5 386.5,-0.5 291.5,-0.5"/>
<text text-anchor="start" x="299.5" y="-18.5" font-family="Helvetica,sans-Serif" font-size="10.00">xtb_gfnff_convert::</text>
<text text-anchor="middle" x="339" y="-7.5" font-family="Helvetica,sans-Serif" font-size="10.00">struc_convert</text>
</a>
</g>
</g>
<!-- Node7&#45;&gt;Node14 -->
<g id="edge18" class="edge">
<title>Node7&#45;&gt;Node14</title>
<path fill="none" stroke="midnightblue" d="M628.34,-129.99C614.13,-103.09 587.44,-61.02 551,-40.5 500.22,-11.9 431.75,-9.08 386.76,-11.11"/>
<polygon fill="midnightblue" stroke="midnightblue" points="625.35,-131.82 633,-139.14 631.58,-128.64 625.35,-131.82"/>
</g>
<!-- Node9 -->
<g id="node9" class="node">
<title>Node9</title>
<g id="a_node9"><a xlink:href="namespacextb__kopt.html#aed50b40106367857ab2d0bf3a109f62b" target="_top" xlink:title=" ">
<polygon fill="white" stroke="black" points="291.5,-202 291.5,-221 386.5,-221 386.5,-202 291.5,-202"/>
<text text-anchor="middle" x="339" y="-209" font-family="Helvetica,sans-Serif" font-size="10.00">xtb_kopt::get_kopt</text>
</a>
</g>
</g>
<!-- Node8&#45;&gt;Node9 -->
<g id="edge8" class="edge">
<title>Node8&#45;&gt;Node9</title>
<path fill="none" stroke="midnightblue" d="M432.75,-211.5C417.45,-211.5 401.18,-211.5 386.6,-211.5"/>
<polygon fill="midnightblue" stroke="midnightblue" points="433.15,-215 443.15,-211.5 433.15,-208 433.15,-215"/>
</g>
<!-- Node9&#45;&gt;Node5 -->
<g id="edge9" class="edge">
<title>Node9&#45;&gt;Node5</title>
<path fill="none" stroke="midnightblue" d="M297.63,-198.67C291.7,-196.67 285.67,-194.57 280,-192.5 255.37,-183.5 227.56,-172.1 208.63,-164.15"/>
<polygon fill="midnightblue" stroke="midnightblue" points="296.87,-202.1 307.46,-201.93 299.07,-195.46 296.87,-202.1"/>
</g>
<!-- Node10&#45;&gt;Node5 -->
<g id="edge11" class="edge">
<title>Node10&#45;&gt;Node5</title>
<path fill="none" stroke="midnightblue" d="M276.81,-165.85C266.07,-164.51 254.91,-163.11 244.25,-161.78"/>
<polygon fill="midnightblue" stroke="midnightblue" points="276.61,-169.35 286.96,-167.12 277.47,-162.41 276.61,-169.35"/>
</g>
<!-- Node11&#45;&gt;Node5 -->
<g id="edge13" class="edge">
<title>Node11&#45;&gt;Node5</title>
<path fill="none" stroke="midnightblue" d="M424.25,-139.68C370.33,-143.04 295.46,-147.69 244.12,-150.89"/>
<polygon fill="midnightblue" stroke="midnightblue" points="424.63,-143.17 434.4,-139.05 424.2,-136.18 424.63,-143.17"/>
</g>
<!-- Node12&#45;&gt;Node5 -->
<g id="edge15" class="edge">
<title>Node12&#45;&gt;Node5</title>
<path fill="none" stroke="midnightblue" d="M430.46,-108.89C373.76,-119.47 290.29,-135.04 237.05,-144.98"/>
<polygon fill="midnightblue" stroke="midnightblue" points="431.18,-112.32 440.37,-107.04 429.89,-105.43 431.18,-112.32"/>
</g>
<!-- Node13&#45;&gt;Node5 -->
<g id="edge17" class="edge">
<title>Node13&#45;&gt;Node5</title>
<path fill="none" stroke="midnightblue" d="M433.35,-71.2C390.41,-80.53 330.84,-94.92 280,-112.5 253.14,-121.79 223.38,-135.74 204.69,-144.98"/>
<polygon fill="midnightblue" stroke="midnightblue" points="434.3,-74.58 443.34,-69.05 432.83,-67.73 434.3,-74.58"/>
</g>
<!-- Node14&#45;&gt;Node5 -->
<g id="edge19" class="edge">
<title>Node14&#45;&gt;Node5</title>
<path fill="none" stroke="midnightblue" d="M294.79,-35.47C289.62,-38.54 284.56,-41.9 280,-45.5 241.16,-76.16 206.17,-124.6 192.31,-144.97"/>
<polygon fill="midnightblue" stroke="midnightblue" points="296.53,-38.51 303.55,-30.57 293.11,-32.4 296.53,-38.51"/>
</g>
<!-- Node15&#45;&gt;Node7 -->
<g id="edge22" class="edge">
<title>Node15&#45;&gt;Node7</title>
<path fill="none" stroke="midnightblue" d="M720.93,-168.3C712.33,-166.8 703.58,-165.27 695.19,-163.8"/>
<polygon fill="midnightblue" stroke="midnightblue" points="720.48,-171.77 730.94,-170.05 721.69,-164.88 720.48,-171.77"/>
</g>
<!-- Node16&#45;&gt;Node7 -->
<g id="edge24" class="edge">
<title>Node16&#45;&gt;Node7</title>
<path fill="none" stroke="midnightblue" d="M720.93,-141.25C712.33,-142.7 703.58,-144.16 695.19,-145.57"/>
<polygon fill="midnightblue" stroke="midnightblue" points="721.66,-144.68 730.94,-139.57 720.5,-137.78 721.66,-144.68"/>
</g>
</g>
</svg>
