<?xml version="1.0" encoding="UTF-8" standalone="no"?>
<!DOCTYPE svg PUBLIC "-//W3C//DTD SVG 1.1//EN"
 "http://www.w3.org/Graphics/SVG/1.1/DTD/svg11.dtd">
<!-- Generated by graphviz version 2.46.0 (20210122.1329)
 -->
<!-- Title: xtb_mctc_systools::rdarg Pages: 1 -->
<svg width="257pt" height="78pt"
 viewBox="0.00 0.00 257.00 77.50" xmlns="http://www.w3.org/2000/svg" xmlns:xlink="http://www.w3.org/1999/xlink">
<g id="graph0" class="graph" transform="scale(1 1) rotate(0) translate(4 73.5)">
<title>xtb_mctc_systools::rdarg</title>
<polygon fill="white" stroke="transparent" points="-4,4 -4,-73.5 253,-73.5 253,4 -4,4"/>
<!-- Node1 -->
<g id="node1" class="node">
<title>Node1</title>
<g id="a_node1"><a xlink:title=" ">
<polygon fill="#bfbfbf" stroke="black" points="147,-17 147,-47 249,-47 249,-17 147,-17"/>
<text text-anchor="start" x="155" y="-35" font-family="Helvetica,sans-Serif" font-size="10.00">xtb_mctc_systools::</text>
<text text-anchor="middle" x="198" y="-24" font-family="Helvetica,sans-Serif" font-size="10.00">rdarg</text>
</a>
</g>
</g>
<!-- Node2 -->
<g id="node2" class="node">
<title>Node2</title>
<g id="a_node2"><a xlink:href="interfacextb__type__environment_1_1init.html#a2c847df1e0addfe035974c82ff1b1246" target="_top" xlink:title="Construct the calculation environment.">
<polygon fill="white" stroke="black" points="0,-39 0,-69 111,-69 111,-39 0,-39"/>
<text text-anchor="start" x="8" y="-57" font-family="Helvetica,sans-Serif" font-size="10.00">xtb_type_environment</text>
<text text-anchor="middle" x="55.5" y="-46" font-family="Helvetica,sans-Serif" font-size="10.00">::init::initenvironment</text>
</a>
</g>
</g>
<!-- Node1&#45;&gt;Node2 -->
<g id="edge1" class="edge">
<title>Node1&#45;&gt;Node2</title>
<path fill="none" stroke="midnightblue" d="M136.54,-41.47C128.13,-42.78 119.53,-44.13 111.23,-45.43"/>
<polygon fill="midnightblue" stroke="midnightblue" points="137.33,-44.89 146.67,-39.88 136.25,-37.97 137.33,-44.89"/>
</g>
<!-- Node3 -->
<g id="node3" class="node">
<title>Node3</title>
<g id="a_node3"><a xlink:href="tests__peeq_8f90.html#a87ff5319e0d2e627a4f71d7df0d14891" target="_top" xlink:title=" ">
<polygon fill="white" stroke="black" points="21.5,-0.5 21.5,-19.5 89.5,-19.5 89.5,-0.5 21.5,-0.5"/>
<text text-anchor="middle" x="55.5" y="-7.5" font-family="Helvetica,sans-Serif" font-size="10.00">peeq_tester</text>
</a>
</g>
</g>
<!-- Node1&#45;&gt;Node3 -->
<g id="edge2" class="edge">
<title>Node1&#45;&gt;Node3</title>
<path fill="none" stroke="midnightblue" d="M136.77,-22.57C120.68,-20.05 103.86,-17.42 89.81,-15.22"/>
<polygon fill="midnightblue" stroke="midnightblue" points="136.25,-26.03 146.67,-24.12 137.33,-19.11 136.25,-26.03"/>
</g>
</g>
</svg>
