<?xml version="1.0" encoding="UTF-8" standalone="no"?>
<!DOCTYPE svg PUBLIC "-//W3C//DTD SVG 1.1//EN"
 "http://www.w3.org/Graphics/SVG/1.1/DTD/svg11.dtd">
<!-- Generated by graphviz version 2.43.0 (0)
 -->
<!-- Title: xtb_scanparam::read_reference Pages: 1 -->
<svg width="579pt" height="161pt"
 viewBox="0.00 0.00 579.00 161.00" xmlns="http://www.w3.org/2000/svg" xmlns:xlink="http://www.w3.org/1999/xlink">
<g id="graph0" class="graph" transform="scale(1 1) rotate(0) translate(4 157)">
<title>xtb_scanparam::read_reference</title>
<polygon fill="white" stroke="transparent" points="-4,4 -4,-157 575,-157 575,4 -4,4"/>
<!-- Node1 -->
<g id="node1" class="node">
<title>Node1</title>
<g id="a_node1"><a xlink:title=" ">
<polygon fill="#bfbfbf" stroke="black" points="0,-109 0,-139 119,-139 119,-109 0,-109"/>
<text text-anchor="start" x="8" y="-127" font-family="Helvetica,sans-Serif" font-size="10.00">xtb_scanparam::read</text>
<text text-anchor="middle" x="59.5" y="-116" font-family="Helvetica,sans-Serif" font-size="10.00">_reference</text>
</a>
</g>
</g>
<!-- Node2 -->
<g id="node2" class="node">
<title>Node2</title>
<g id="a_node2"><a xlink:href="error_8f90.html#a21a6b76d2bc72d8d2ec0a344a6d2298b" target="_top" xlink:title=" ">
<polygon fill="white" stroke="black" points="431,-133.5 431,-152.5 472,-152.5 472,-133.5 431,-133.5"/>
<text text-anchor="middle" x="451.5" y="-140.5" font-family="Helvetica,sans-Serif" font-size="10.00">raise</text>
</a>
</g>
</g>
<!-- Node1&#45;&gt;Node2 -->
<g id="edge1" class="edge">
<title>Node1&#45;&gt;Node2</title>
<path fill="none" stroke="midnightblue" d="M119.06,-131.62C155.03,-135.91 202.1,-140.84 244,-143 306.8,-146.24 380.5,-145.04 420.67,-143.96"/>
<polygon fill="midnightblue" stroke="midnightblue" points="420.94,-147.46 430.84,-143.67 420.74,-140.46 420.94,-147.46"/>
</g>
<!-- Node3 -->
<g id="node3" class="node">
<title>Node3</title>
<g id="a_node3"><a xlink:href="rdcoord2_8f90.html#a3a8980bc9404dd7b48b2313dbd9a07cf" target="_top" xlink:title=" ">
<polygon fill="white" stroke="black" points="155,-76.5 155,-95.5 208,-95.5 208,-76.5 155,-76.5"/>
<text text-anchor="middle" x="181.5" y="-83.5" font-family="Helvetica,sans-Serif" font-size="10.00">rdcoord</text>
</a>
</g>
</g>
<!-- Node1&#45;&gt;Node3 -->
<g id="edge2" class="edge">
<title>Node1&#45;&gt;Node3</title>
<path fill="none" stroke="midnightblue" d="M107.93,-108.98C120.29,-105.07 133.4,-100.92 145.02,-97.23"/>
<polygon fill="midnightblue" stroke="midnightblue" points="146.33,-100.49 154.8,-94.14 144.21,-93.82 146.33,-100.49"/>
</g>
<!-- Node4 -->
<g id="node4" class="node">
<title>Node4</title>
<g id="a_node4"><a xlink:href="elem_8f90.html#ae2a0e630d3a8fea4a12abcc607d7fc5d" target="_top" xlink:title=" ">
<polygon fill="white" stroke="black" points="431,-76.5 431,-95.5 472,-95.5 472,-76.5 431,-76.5"/>
<text text-anchor="middle" x="451.5" y="-83.5" font-family="Helvetica,sans-Serif" font-size="10.00">elem</text>
</a>
</g>
</g>
<!-- Node3&#45;&gt;Node4 -->
<g id="edge3" class="edge">
<title>Node3&#45;&gt;Node4</title>
<path fill="none" stroke="midnightblue" d="M208.2,-86C258.08,-86 367.78,-86 420.74,-86"/>
<polygon fill="midnightblue" stroke="midnightblue" points="420.84,-89.5 430.84,-86 420.84,-82.5 420.84,-89.5"/>
</g>
<!-- Node5 -->
<g id="node5" class="node">
<title>Node5</title>
<g id="a_node5"><a xlink:href="rdcoord2_8f90.html#a57489837e68cfaa900a0d6d57889c29f" target="_top" xlink:title=" ">
<polygon fill="white" stroke="black" points="292.5,-38.5 292.5,-57.5 333.5,-57.5 333.5,-38.5 292.5,-38.5"/>
<text text-anchor="middle" x="313" y="-45.5" font-family="Helvetica,sans-Serif" font-size="10.00">rdsdf</text>
</a>
</g>
</g>
<!-- Node3&#45;&gt;Node5 -->
<g id="edge4" class="edge">
<title>Node3&#45;&gt;Node5</title>
<path fill="none" stroke="midnightblue" d="M208.09,-78.49C229.56,-72.19 260.25,-63.19 282.71,-56.6"/>
<polygon fill="midnightblue" stroke="midnightblue" points="283.77,-59.93 292.38,-53.76 281.8,-53.21 283.77,-59.93"/>
</g>
<!-- Node8 -->
<g id="node8" class="node">
<title>Node8</title>
<g id="a_node8"><a xlink:href="rdcoord2_8f90.html#a9b38798a8c538ebdc4c2be235d5bf8d6" target="_top" xlink:title=" ">
<polygon fill="white" stroke="black" points="285,-0.5 285,-19.5 341,-19.5 341,-0.5 285,-0.5"/>
<text text-anchor="middle" x="313" y="-7.5" font-family="Helvetica,sans-Serif" font-size="10.00">readline</text>
</a>
</g>
</g>
<!-- Node3&#45;&gt;Node8 -->
<g id="edge8" class="edge">
<title>Node3&#45;&gt;Node8</title>
<path fill="none" stroke="midnightblue" d="M190.21,-76.44C200.96,-63.76 221.64,-41.51 244,-29 253.49,-23.69 264.56,-19.79 274.98,-16.94"/>
<polygon fill="midnightblue" stroke="midnightblue" points="275.84,-20.33 284.7,-14.53 274.15,-13.54 275.84,-20.33"/>
</g>
<!-- Node11 -->
<g id="node11" class="node">
<title>Node11</title>
<g id="a_node11"><a xlink:href="namespacextb__setmod.html#ae4015de33e3d011add3fdf45f0eb96fe" target="_top" xlink:title=" ">
<polygon fill="white" stroke="black" points="244,-114.5 244,-133.5 382,-133.5 382,-114.5 244,-114.5"/>
<text text-anchor="middle" x="313" y="-121.5" font-family="Helvetica,sans-Serif" font-size="10.00">xtb_setmod::set_geopref</text>
</a>
</g>
</g>
<!-- Node3&#45;&gt;Node11 -->
<g id="edge11" class="edge">
<title>Node3&#45;&gt;Node11</title>
<path fill="none" stroke="midnightblue" d="M208.09,-93.51C225.7,-98.68 249.5,-105.66 269.88,-111.64"/>
<polygon fill="midnightblue" stroke="midnightblue" points="268.98,-115.02 279.56,-114.48 270.95,-108.31 268.98,-115.02"/>
</g>
<!-- Node5&#45;&gt;Node4 -->
<g id="edge5" class="edge">
<title>Node5&#45;&gt;Node4</title>
<path fill="none" stroke="midnightblue" d="M333.56,-53.44C356.46,-59.82 394.64,-70.45 421.12,-77.82"/>
<polygon fill="midnightblue" stroke="midnightblue" points="420.41,-81.26 430.98,-80.57 422.28,-74.51 420.41,-81.26"/>
</g>
<!-- Node6 -->
<g id="node6" class="node">
<title>Node6</title>
<g id="a_node6"><a xlink:href="readl_8f90.html#aefb6440368a41f135fa1eac070ab7f0b" target="_top" xlink:title=" ">
<polygon fill="white" stroke="black" points="431,-38.5 431,-57.5 472,-57.5 472,-38.5 431,-38.5"/>
<text text-anchor="middle" x="451.5" y="-45.5" font-family="Helvetica,sans-Serif" font-size="10.00">readl</text>
</a>
</g>
</g>
<!-- Node5&#45;&gt;Node6 -->
<g id="edge6" class="edge">
<title>Node5&#45;&gt;Node6</title>
<path fill="none" stroke="midnightblue" d="M333.56,-48C356.36,-48 394.31,-48 420.77,-48"/>
<polygon fill="midnightblue" stroke="midnightblue" points="420.98,-51.5 430.98,-48 420.98,-44.5 420.98,-51.5"/>
</g>
<!-- Node7 -->
<g id="node7" class="node">
<title>Node7</title>
<g id="a_node7"><a xlink:href="readl_8f90.html#ad4f0e8a0348ec83dc345dc77e76cec7d" target="_top" xlink:title=" ">
<polygon fill="white" stroke="black" points="521,-38.5 521,-57.5 571,-57.5 571,-38.5 521,-38.5"/>
<text text-anchor="middle" x="546" y="-45.5" font-family="Helvetica,sans-Serif" font-size="10.00">readaa</text>
</a>
</g>
</g>
<!-- Node6&#45;&gt;Node7 -->
<g id="edge7" class="edge">
<title>Node6&#45;&gt;Node7</title>
<path fill="none" stroke="midnightblue" d="M472.12,-48C483.33,-48 497.72,-48 510.74,-48"/>
<polygon fill="midnightblue" stroke="midnightblue" points="510.8,-51.5 520.8,-48 510.8,-44.5 510.8,-51.5"/>
</g>
<!-- Node9 -->
<g id="node9" class="node">
<title>Node9</title>
<g id="a_node9"><a xlink:href="readl2_8f90.html#a194c35a25c60bb77cc8af6abea165a5c" target="_top" xlink:title=" ">
<polygon fill="white" stroke="black" points="418,-0.5 418,-19.5 485,-19.5 485,-0.5 418,-0.5"/>
<text text-anchor="middle" x="451.5" y="-7.5" font-family="Helvetica,sans-Serif" font-size="10.00">checktype</text>
</a>
</g>
</g>
<!-- Node8&#45;&gt;Node9 -->
<g id="edge9" class="edge">
<title>Node8&#45;&gt;Node9</title>
<path fill="none" stroke="midnightblue" d="M341.29,-10C360.28,-10 385.98,-10 407.68,-10"/>
<polygon fill="midnightblue" stroke="midnightblue" points="407.96,-13.5 417.96,-10 407.96,-6.5 407.96,-13.5"/>
</g>
<!-- Node10 -->
<g id="node10" class="node">
<title>Node10</title>
<g id="a_node10"><a xlink:href="symmetry__i_8c.html#aa77c823a9fc018ae1d437369708d8727" target="_top" xlink:title=" ">
<polygon fill="white" stroke="black" points="528,-0.5 528,-19.5 564,-19.5 564,-0.5 528,-0.5"/>
<text text-anchor="middle" x="546" y="-7.5" font-family="Helvetica,sans-Serif" font-size="10.00">true</text>
</a>
</g>
</g>
<!-- Node9&#45;&gt;Node10 -->
<g id="edge10" class="edge">
<title>Node9&#45;&gt;Node10</title>
<path fill="none" stroke="midnightblue" d="M485.11,-10C495.84,-10 507.65,-10 517.93,-10"/>
<polygon fill="midnightblue" stroke="midnightblue" points="517.97,-13.5 527.97,-10 517.97,-6.5 517.97,-13.5"/>
</g>
<!-- Node11&#45;&gt;Node2 -->
<g id="edge12" class="edge">
<title>Node11&#45;&gt;Node2</title>
<path fill="none" stroke="midnightblue" d="M382.25,-133.5C395.79,-135.38 409.32,-137.27 420.73,-138.86"/>
<polygon fill="midnightblue" stroke="midnightblue" points="420.56,-142.37 430.94,-140.28 421.52,-135.43 420.56,-142.37"/>
</g>
</g>
</svg>
