<?xml version="1.0" encoding="UTF-8" standalone="no"?>
<!DOCTYPE svg PUBLIC "-//W3C//DTD SVG 1.1//EN"
 "http://www.w3.org/Graphics/SVG/1.1/DTD/svg11.dtd">
<!-- Generated by graphviz version 2.46.0 (20210122.1329)
 -->
<!-- Title: xtb_iniq::iniqcn Pages: 1 -->
<svg width="404pt" height="116pt"
 viewBox="0.00 0.00 404.00 116.00" xmlns="http://www.w3.org/2000/svg" xmlns:xlink="http://www.w3.org/1999/xlink">
<g id="graph0" class="graph" transform="scale(1 1) rotate(0) translate(4 112)">
<title>xtb_iniq::iniqcn</title>
<polygon fill="white" stroke="transparent" points="-4,4 -4,-112 400,-112 400,4 -4,4"/>
<!-- Node1 -->
<g id="node1" class="node">
<title>Node1</title>
<g id="a_node1"><a xlink:title=" ">
<polygon fill="#bfbfbf" stroke="black" points="0,-41.5 0,-60.5 80,-60.5 80,-41.5 0,-41.5"/>
<text text-anchor="middle" x="40" y="-48.5" font-family="Helvetica,sans-Serif" font-size="10.00">xtb_iniq::iniqcn</text>
</a>
</g>
</g>
<!-- Node2 -->
<g id="node2" class="node">
<title>Node2</title>
<g id="a_node2"><a xlink:href="namespacextb__iniq.html#ab0ce6e01c08bf6622142918294b6c428" target="_top" xlink:title=" ">
<polygon fill="white" stroke="black" points="116,-3.5 116,-22.5 220,-22.5 220,-3.5 116,-3.5"/>
<text text-anchor="middle" x="168" y="-10.5" font-family="Helvetica,sans-Serif" font-size="10.00">xtb_iniq::iniqcn_gfn1</text>
</a>
</g>
</g>
<!-- Node1&#45;&gt;Node2 -->
<g id="edge1" class="edge">
<title>Node1&#45;&gt;Node2</title>
<path fill="none" stroke="midnightblue" d="M72.8,-41.41C88.76,-36.6 108.31,-30.7 125.45,-25.53"/>
<polygon fill="midnightblue" stroke="midnightblue" points="126.65,-28.82 135.22,-22.59 124.63,-22.12 126.65,-28.82"/>
</g>
<!-- Node5 -->
<g id="node5" class="node">
<title>Node5</title>
<g id="a_node5"><a xlink:href="namespacextb__iniq.html#a85ff25debd22a2ab34449830e140c9fd" target="_top" xlink:title=" ">
<polygon fill="white" stroke="black" points="116,-79.5 116,-98.5 220,-98.5 220,-79.5 116,-79.5"/>
<text text-anchor="middle" x="168" y="-86.5" font-family="Helvetica,sans-Serif" font-size="10.00">xtb_iniq::iniqcn_gfn2</text>
</a>
</g>
</g>
<!-- Node1&#45;&gt;Node5 -->
<g id="edge4" class="edge">
<title>Node1&#45;&gt;Node5</title>
<path fill="none" stroke="midnightblue" d="M72.8,-60.59C88.76,-65.4 108.31,-71.3 125.45,-76.47"/>
<polygon fill="midnightblue" stroke="midnightblue" points="124.63,-79.88 135.22,-79.41 126.65,-73.18 124.63,-79.88"/>
</g>
<!-- Node7 -->
<g id="node7" class="node">
<title>Node7</title>
<g id="a_node7"><a xlink:href="namespacextb__iniq.html#a4bf2882e59b944ad4cdd7cd921b4069a" target="_top" xlink:title=" ">
<polygon fill="white" stroke="black" points="119,-41.5 119,-60.5 217,-60.5 217,-41.5 119,-41.5"/>
<text text-anchor="middle" x="168" y="-48.5" font-family="Helvetica,sans-Serif" font-size="10.00">xtb_iniq::iniqcn_vtb</text>
</a>
</g>
</g>
<!-- Node1&#45;&gt;Node7 -->
<g id="edge7" class="edge">
<title>Node1&#45;&gt;Node7</title>
<path fill="none" stroke="midnightblue" d="M80.18,-51C89.29,-51 99.19,-51 108.92,-51"/>
<polygon fill="midnightblue" stroke="midnightblue" points="108.97,-54.5 118.97,-51 108.97,-47.5 108.97,-54.5"/>
</g>
<!-- Node3 -->
<g id="node3" class="node">
<title>Node3</title>
<g id="a_node3"><a xlink:href="namespacextb__iniq.html#a4b26e6165efea5f01c9f1de914f41182" target="_top" xlink:title=" ">
<polygon fill="white" stroke="black" points="279,-39 279,-69 373,-69 373,-39 279,-39"/>
<text text-anchor="start" x="287" y="-57" font-family="Helvetica,sans-Serif" font-size="10.00">xtb_iniq::gasteiger</text>
<text text-anchor="middle" x="326" y="-46" font-family="Helvetica,sans-Serif" font-size="10.00">_partition</text>
</a>
</g>
</g>
<!-- Node2&#45;&gt;Node3 -->
<g id="edge2" class="edge">
<title>Node2&#45;&gt;Node3</title>
<path fill="none" stroke="midnightblue" d="M205.18,-22.51C224.14,-27.49 247.78,-33.71 269.04,-39.29"/>
<polygon fill="midnightblue" stroke="midnightblue" points="268.37,-42.74 278.93,-41.89 270.15,-35.97 268.37,-42.74"/>
</g>
<!-- Node4 -->
<g id="node4" class="node">
<title>Node4</title>
<g id="a_node4"><a xlink:href="namespacextb__disp__ncoord.html#a2ab59957c30e2004df3d63de63423bb9" target="_top" xlink:title="original D3 type coordination number from 2010">
<polygon fill="white" stroke="black" points="257.5,-0.5 257.5,-19.5 394.5,-19.5 394.5,-0.5 257.5,-0.5"/>
<text text-anchor="middle" x="326" y="-7.5" font-family="Helvetica,sans-Serif" font-size="10.00">xtb_disp_ncoord::ncoord_d3</text>
</a>
</g>
</g>
<!-- Node2&#45;&gt;Node4 -->
<g id="edge3" class="edge">
<title>Node2&#45;&gt;Node4</title>
<path fill="none" stroke="midnightblue" d="M220.08,-12.02C228.82,-11.85 238.08,-11.67 247.34,-11.49"/>
<polygon fill="midnightblue" stroke="midnightblue" points="247.42,-14.99 257.35,-11.3 247.28,-7.99 247.42,-14.99"/>
</g>
<!-- Node5&#45;&gt;Node3 -->
<g id="edge5" class="edge">
<title>Node5&#45;&gt;Node3</title>
<path fill="none" stroke="midnightblue" d="M211.63,-79.44C229.29,-75.47 250.03,-70.82 268.9,-66.59"/>
<polygon fill="midnightblue" stroke="midnightblue" points="269.88,-69.95 278.87,-64.35 268.34,-63.12 269.88,-69.95"/>
</g>
<!-- Node6 -->
<g id="node6" class="node">
<title>Node6</title>
<g id="a_node6"><a xlink:href="namespacextb__disp__ncoord.html#a4ab83811507c35f9e36c8dd4b934c9d0" target="_top" xlink:title=" ">
<polygon fill="white" stroke="black" points="256,-88.5 256,-107.5 396,-107.5 396,-88.5 256,-88.5"/>
<text text-anchor="middle" x="326" y="-95.5" font-family="Helvetica,sans-Serif" font-size="10.00">xtb_disp_ncoord::ncoord_gfn</text>
</a>
</g>
</g>
<!-- Node5&#45;&gt;Node6 -->
<g id="edge6" class="edge">
<title>Node5&#45;&gt;Node6</title>
<path fill="none" stroke="midnightblue" d="M220.08,-91.95C228.32,-92.42 237.01,-92.92 245.73,-93.43"/>
<polygon fill="midnightblue" stroke="midnightblue" points="245.76,-96.93 255.95,-94.02 246.17,-89.95 245.76,-96.93"/>
</g>
<!-- Node7&#45;&gt;Node3 -->
<g id="edge8" class="edge">
<title>Node7&#45;&gt;Node3</title>
<path fill="none" stroke="midnightblue" d="M217.08,-51.92C233.39,-52.24 251.76,-52.59 268.65,-52.92"/>
<polygon fill="midnightblue" stroke="midnightblue" points="268.88,-56.42 278.95,-53.11 269.02,-49.42 268.88,-56.42"/>
</g>
<!-- Node7&#45;&gt;Node4 -->
<g id="edge9" class="edge">
<title>Node7&#45;&gt;Node4</title>
<path fill="none" stroke="midnightblue" d="M205.18,-41.49C227.15,-35.72 255.41,-28.29 278.97,-22.1"/>
<polygon fill="midnightblue" stroke="midnightblue" points="279.96,-25.46 288.74,-19.53 278.18,-18.69 279.96,-25.46"/>
</g>
</g>
</svg>
