<?xml version="1.0" encoding="UTF-8" standalone="no"?>
<!DOCTYPE svg PUBLIC "-//W3C//DTD SVG 1.1//EN"
 "http://www.w3.org/Graphics/SVG/1.1/DTD/svg11.dtd">
<!-- Generated by graphviz version 2.43.0 (0)
 -->
<!-- Title: xtb_pbc_tools::mat_inv_3x3 Pages: 1 -->
<svg width="1095pt" height="386pt"
 viewBox="0.00 0.00 1095.00 385.50" xmlns="http://www.w3.org/2000/svg" xmlns:xlink="http://www.w3.org/1999/xlink">
<g id="graph0" class="graph" transform="scale(1 1) rotate(0) translate(4 381.5)">
<title>xtb_pbc_tools::mat_inv_3x3</title>
<polygon fill="white" stroke="transparent" points="-4,4 -4,-381.5 1091,-381.5 1091,4 -4,4"/>
<!-- Node1 -->
<g id="node1" class="node">
<title>Node1</title>
<g id="a_node1"><a xlink:title="Performs a direct calculation of the inverse of a 3×3 matrix.">
<polygon fill="#bfbfbf" stroke="black" points="977,-131.5 977,-161.5 1087,-161.5 1087,-131.5 977,-131.5"/>
<text text-anchor="start" x="985" y="-149.5" font-family="Helvetica,sans-Serif" font-size="10.00">xtb_pbc_tools::mat</text>
<text text-anchor="middle" x="1032" y="-138.5" font-family="Helvetica,sans-Serif" font-size="10.00">_inv_3x3</text>
</a>
</g>
</g>
<!-- Node2 -->
<g id="node2" class="node">
<title>Node2</title>
<g id="a_node2"><a xlink:href="namespacextb__pbc__tools.html#aa8308e59e9922f92d1270ecfe6fea9af" target="_top" xlink:title="convert direct lattice to cell parameters">
<polygon fill="white" stroke="black" points="818.5,-175.5 818.5,-205.5 927.5,-205.5 927.5,-175.5 818.5,-175.5"/>
<text text-anchor="start" x="826.5" y="-193.5" font-family="Helvetica,sans-Serif" font-size="10.00">xtb_pbc_tools::dlat</text>
<text text-anchor="middle" x="873" y="-182.5" font-family="Helvetica,sans-Serif" font-size="10.00">_to_rlat</text>
</a>
</g>
</g>
<!-- Node1&#45;&gt;Node2 -->
<g id="edge1" class="edge">
<title>Node1&#45;&gt;Node2</title>
<path fill="none" stroke="midnightblue" d="M967.44,-164.31C954.23,-168.02 940.43,-171.88 927.62,-175.47"/>
<polygon fill="midnightblue" stroke="midnightblue" points="968.72,-167.59 977.41,-161.52 966.84,-160.85 968.72,-167.59"/>
</g>
<!-- Node6 -->
<g id="node6" class="node">
<title>Node6</title>
<g id="a_node6"><a xlink:href="namespacextb__relaxation__engine.html#a930f6aac4b13eab0de82f2b71bcde96b" target="_top" xlink:title="frontend implementation of the fast inertial relaxation engine">
<polygon fill="white" stroke="black" points="472,-257.5 472,-287.5 597,-287.5 597,-257.5 472,-257.5"/>
<text text-anchor="start" x="480" y="-275.5" font-family="Helvetica,sans-Serif" font-size="10.00">xtb_relaxation_engine</text>
<text text-anchor="middle" x="534.5" y="-264.5" font-family="Helvetica,sans-Serif" font-size="10.00">::fire</text>
</a>
</g>
</g>
<!-- Node1&#45;&gt;Node6 -->
<g id="edge14" class="edge">
<title>Node1&#45;&gt;Node6</title>
<path fill="none" stroke="midnightblue" d="M1022.57,-170.94C1010.23,-202.43 983.93,-255.81 941,-278.5 825.69,-339.44 664.92,-309.04 584.87,-287.59"/>
<polygon fill="midnightblue" stroke="midnightblue" points="1025.86,-172.15 1026.09,-161.55 1019.3,-169.69 1025.86,-172.15"/>
</g>
<!-- Node15 -->
<g id="node15" class="node">
<title>Node15</title>
<g id="a_node15"><a xlink:href="namespacextb__relaxation__engine.html#a95175ad328e19b564cba2303d30d4b18" target="_top" xlink:title="backend implementation of the fast inertial relaxation engine">
<polygon fill="white" stroke="black" points="810.5,-238.5 810.5,-268.5 935.5,-268.5 935.5,-238.5 810.5,-238.5"/>
<text text-anchor="start" x="818.5" y="-256.5" font-family="Helvetica,sans-Serif" font-size="10.00">xtb_relaxation_engine</text>
<text text-anchor="middle" x="873" y="-245.5" font-family="Helvetica,sans-Serif" font-size="10.00">::inertial_relax</text>
</a>
</g>
</g>
<!-- Node1&#45;&gt;Node15 -->
<g id="edge15" class="edge">
<title>Node1&#45;&gt;Node15</title>
<path fill="none" stroke="midnightblue" d="M1004.84,-168.09C987.25,-182.22 963.29,-200.74 941,-215.5 928.74,-223.62 914.64,-231.78 902.55,-238.44"/>
<polygon fill="midnightblue" stroke="midnightblue" points="1007.36,-170.55 1012.93,-161.54 1002.96,-165.11 1007.36,-170.55"/>
</g>
<!-- Node16 -->
<g id="node16" class="node">
<title>Node16</title>
<g id="a_node16"><a xlink:href="peeq_8f90.html#af8323e2db7eee67ddad752d011ed55b4" target="_top" xlink:title=" ">
<polygon fill="white" stroke="black" points="658.5,-137 658.5,-156 743.5,-156 743.5,-137 658.5,-137"/>
<text text-anchor="middle" x="701" y="-144" font-family="Helvetica,sans-Serif" font-size="10.00">test_peeq_api</text>
</a>
</g>
</g>
<!-- Node1&#45;&gt;Node16 -->
<g id="edge17" class="edge">
<title>Node1&#45;&gt;Node16</title>
<path fill="none" stroke="midnightblue" d="M966.4,-146.5C900.47,-146.5 800.07,-146.5 743.87,-146.5"/>
<polygon fill="midnightblue" stroke="midnightblue" points="966.67,-150 976.67,-146.5 966.67,-143 966.67,-150"/>
</g>
<!-- Node17 -->
<g id="node17" class="node">
<title>Node17</title>
<g id="a_node17"><a xlink:href="peeq_8f90.html#ae06226ed496a8128c1273abc638b62d0" target="_top" xlink:title=" ">
<polygon fill="white" stroke="black" points="820.5,-99 820.5,-118 925.5,-118 925.5,-99 820.5,-99"/>
<text text-anchor="middle" x="873" y="-106" font-family="Helvetica,sans-Serif" font-size="10.00">test_peeq_api_srb</text>
</a>
</g>
</g>
<!-- Node1&#45;&gt;Node17 -->
<g id="edge19" class="edge">
<title>Node1&#45;&gt;Node17</title>
<path fill="none" stroke="midnightblue" d="M967.25,-131.07C948.97,-126.65 929.59,-121.95 913.26,-118"/>
<polygon fill="midnightblue" stroke="midnightblue" points="966.43,-134.47 976.97,-133.42 968.07,-127.67 966.43,-134.47"/>
</g>
<!-- Node18 -->
<g id="node18" class="node">
<title>Node18</title>
<g id="a_node18"><a xlink:href="namespacextb__io__writer__turbomole.html#a222a11f66c2372b634c025be9fec4972" target="_top" xlink:title=" ">
<polygon fill="white" stroke="black" points="805,-49.5 805,-79.5 941,-79.5 941,-49.5 805,-49.5"/>
<text text-anchor="start" x="813" y="-67.5" font-family="Helvetica,sans-Serif" font-size="10.00">xtb_io_writer_turbomole</text>
<text text-anchor="middle" x="873" y="-56.5" font-family="Helvetica,sans-Serif" font-size="10.00">::writegradlattturbomole</text>
</a>
</g>
</g>
<!-- Node1&#45;&gt;Node18 -->
<g id="edge21" class="edge">
<title>Node1&#45;&gt;Node18</title>
<path fill="none" stroke="midnightblue" d="M1001.45,-125.59C984.31,-114.03 962.02,-99.94 941,-89.5 933.88,-85.97 926.14,-82.64 918.52,-79.63"/>
<polygon fill="midnightblue" stroke="midnightblue" points="999.68,-128.62 1009.91,-131.37 1003.63,-122.84 999.68,-128.62"/>
</g>
<!-- Node20 -->
<g id="node20" class="node">
<title>Node20</title>
<g id="a_node20"><a xlink:href="namespacextb__pbc__tools.html#a3180f2e86effe2e8ed638f7b0cbb5138" target="_top" xlink:title="transform from cartesian coordinates into fractional coordinates">
<polygon fill="white" stroke="black" points="819.5,-0.5 819.5,-30.5 926.5,-30.5 926.5,-0.5 819.5,-0.5"/>
<text text-anchor="start" x="827.5" y="-18.5" font-family="Helvetica,sans-Serif" font-size="10.00">xtb_pbc_tools::xyz</text>
<text text-anchor="middle" x="873" y="-7.5" font-family="Helvetica,sans-Serif" font-size="10.00">_to_abc</text>
</a>
</g>
</g>
<!-- Node1&#45;&gt;Node20 -->
<g id="edge23" class="edge">
<title>Node1&#45;&gt;Node20</title>
<path fill="none" stroke="midnightblue" d="M1016.38,-122.62C1000.54,-98.56 973.16,-61.87 941,-39.5 936.13,-36.11 930.73,-33.15 925.17,-30.58"/>
<polygon fill="midnightblue" stroke="midnightblue" points="1013.53,-124.65 1021.88,-131.17 1019.42,-120.87 1013.53,-124.65"/>
</g>
<!-- Node3 -->
<g id="node3" class="node">
<title>Node3</title>
<g id="a_node3"><a xlink:href="TESTSUITE_2pbc__tools_8f90.html#a69f132175fef558954e512a5959a7910" target="_top" xlink:title=" ">
<polygon fill="white" stroke="black" points="636.5,-175 636.5,-194 765.5,-194 765.5,-175 636.5,-175"/>
<text text-anchor="middle" x="701" y="-182" font-family="Helvetica,sans-Serif" font-size="10.00">test_pbc_tools_convert</text>
</a>
</g>
</g>
<!-- Node2&#45;&gt;Node3 -->
<g id="edge2" class="edge">
<title>Node2&#45;&gt;Node3</title>
<path fill="none" stroke="midnightblue" d="M808.22,-188.25C794.26,-187.76 779.49,-187.23 765.54,-186.74"/>
<polygon fill="midnightblue" stroke="midnightblue" points="808.09,-191.75 818.21,-188.6 808.34,-184.75 808.09,-191.75"/>
</g>
<!-- Node5 -->
<g id="node5" class="node">
<title>Node5</title>
<g id="a_node5"><a xlink:href="namespacextb__type__molecule.html#a080dfe4808f94b2da901b005f6a56b66" target="_top" xlink:title=" ">
<polygon fill="white" stroke="black" points="643,-213.5 643,-243.5 759,-243.5 759,-213.5 643,-213.5"/>
<text text-anchor="start" x="651" y="-231.5" font-family="Helvetica,sans-Serif" font-size="10.00">xtb_type_molecule::</text>
<text text-anchor="middle" x="701" y="-220.5" font-family="Helvetica,sans-Serif" font-size="10.00">update</text>
</a>
</g>
</g>
<!-- Node2&#45;&gt;Node5 -->
<g id="edge4" class="edge">
<title>Node2&#45;&gt;Node5</title>
<path fill="none" stroke="midnightblue" d="M808.34,-204.73C792.23,-208.33 775.03,-212.18 759.26,-215.7"/>
<polygon fill="midnightblue" stroke="midnightblue" points="809.22,-208.12 818.21,-202.52 807.69,-201.29 809.22,-208.12"/>
</g>
<!-- Node4 -->
<g id="node4" class="node">
<title>Node4</title>
<g id="a_node4"><a xlink:href="tests__peeq_8f90.html#a87ff5319e0d2e627a4f71d7df0d14891" target="_top" xlink:title=" ">
<polygon fill="white" stroke="black" points="497.5,-137 497.5,-156 571.5,-156 571.5,-137 497.5,-137"/>
<text text-anchor="middle" x="534.5" y="-144" font-family="Helvetica,sans-Serif" font-size="10.00">peeq_tester</text>
</a>
</g>
</g>
<!-- Node3&#45;&gt;Node4 -->
<g id="edge3" class="edge">
<title>Node3&#45;&gt;Node4</title>
<path fill="none" stroke="midnightblue" d="M648.46,-172.6C623.53,-166.84 594.21,-160.06 571.68,-154.86"/>
<polygon fill="midnightblue" stroke="midnightblue" points="647.96,-176.07 658.49,-174.91 649.53,-169.25 647.96,-176.07"/>
</g>
<!-- Node5&#45;&gt;Node6 -->
<g id="edge5" class="edge">
<title>Node5&#45;&gt;Node6</title>
<path fill="none" stroke="midnightblue" d="M633.82,-246.2C619.85,-249.94 605.24,-253.85 591.68,-257.47"/>
<polygon fill="midnightblue" stroke="midnightblue" points="635.09,-249.48 643.85,-243.52 633.28,-242.72 635.09,-249.48"/>
</g>
<!-- Node7 -->
<g id="node7" class="node">
<title>Node7</title>
<g id="a_node7"><a xlink:href="namespacextb__geoopt.html#a1f0513294f2237b94f355cc4dc5dd867" target="_top" xlink:title=" ">
<polygon fill="white" stroke="black" points="311,-257.5 311,-287.5 436,-287.5 436,-257.5 311,-257.5"/>
<text text-anchor="start" x="319" y="-275.5" font-family="Helvetica,sans-Serif" font-size="10.00">xtb_geoopt::geometry</text>
<text text-anchor="middle" x="373.5" y="-264.5" font-family="Helvetica,sans-Serif" font-size="10.00">_optimization</text>
</a>
</g>
</g>
<!-- Node6&#45;&gt;Node7 -->
<g id="edge6" class="edge">
<title>Node6&#45;&gt;Node7</title>
<path fill="none" stroke="midnightblue" d="M461.41,-272.5C453.01,-272.5 444.5,-272.5 436.26,-272.5"/>
<polygon fill="midnightblue" stroke="midnightblue" points="461.57,-276 471.57,-272.5 461.57,-269 461.57,-276"/>
</g>
<!-- Node8 -->
<g id="node8" class="node">
<title>Node8</title>
<g id="a_node8"><a xlink:href="namespacextb__kopt.html#ada4ab70832f563f46c8ffc8cea64c78b" target="_top" xlink:title=" ">
<polygon fill="white" stroke="black" points="154,-358 154,-377 264,-377 264,-358 154,-358"/>
<text text-anchor="middle" x="209" y="-365" font-family="Helvetica,sans-Serif" font-size="10.00">xtb_kopt::get_rmsd</text>
</a>
</g>
</g>
<!-- Node7&#45;&gt;Node8 -->
<g id="edge7" class="edge">
<title>Node7&#45;&gt;Node8</title>
<path fill="none" stroke="midnightblue" d="M349.46,-294.58C330.73,-311.47 302.91,-334.21 275,-348.5 267.67,-352.25 259.5,-355.37 251.48,-357.93"/>
<polygon fill="midnightblue" stroke="midnightblue" points="351.91,-297.09 356.91,-287.75 347.18,-291.93 351.91,-297.09"/>
</g>
<!-- Node10 -->
<g id="node10" class="node">
<title>Node10</title>
<g id="a_node10"><a xlink:href="namespacextb__mdoptim.html#ab0ba2195163cd6794115b99516ba5316" target="_top" xlink:title=" ">
<polygon fill="white" stroke="black" points="149.5,-320 149.5,-339 268.5,-339 268.5,-320 149.5,-320"/>
<text text-anchor="middle" x="209" y="-327" font-family="Helvetica,sans-Serif" font-size="10.00">xtb_mdoptim::mdopt</text>
</a>
</g>
</g>
<!-- Node7&#45;&gt;Node10 -->
<g id="edge9" class="edge">
<title>Node7&#45;&gt;Node10</title>
<path fill="none" stroke="midnightblue" d="M326.46,-291.4C310.3,-297.77 291.95,-304.73 275,-310.5 265.21,-313.83 254.46,-317.12 244.58,-320"/>
<polygon fill="midnightblue" stroke="midnightblue" points="328.2,-294.47 336.2,-287.52 325.62,-287.96 328.2,-294.47"/>
</g>
<!-- Node11 -->
<g id="node11" class="node">
<title>Node11</title>
<g id="a_node11"><a xlink:href="namespacextb__modef.html#a39c4cb408b8b02afb7bf83a1d7f13de3" target="_top" xlink:title=" ">
<polygon fill="white" stroke="black" points="143,-282 143,-301 275,-301 275,-282 143,-282"/>
<text text-anchor="middle" x="209" y="-289" font-family="Helvetica,sans-Serif" font-size="10.00">xtb_modef::modefollow</text>
</a>
</g>
</g>
<!-- Node7&#45;&gt;Node11 -->
<g id="edge10" class="edge">
<title>Node7&#45;&gt;Node11</title>
<path fill="none" stroke="midnightblue" d="M300.45,-280.92C292.06,-281.91 283.53,-282.9 275.24,-283.87"/>
<polygon fill="midnightblue" stroke="midnightblue" points="301.08,-284.38 310.6,-279.74 300.26,-277.42 301.08,-284.38"/>
</g>
<!-- Node12 -->
<g id="node12" class="node">
<title>Node12</title>
<g id="a_node12"><a xlink:href="namespacextb__scan.html#abef8f8d0fa299e9e2caf823f3672f14a" target="_top" xlink:title=" ">
<polygon fill="white" stroke="black" points="144,-244 144,-263 274,-263 274,-244 144,-244"/>
<text text-anchor="middle" x="209" y="-251" font-family="Helvetica,sans-Serif" font-size="10.00">xtb_scan::relaxed_scan</text>
</a>
</g>
</g>
<!-- Node7&#45;&gt;Node12 -->
<g id="edge11" class="edge">
<title>Node7&#45;&gt;Node12</title>
<path fill="none" stroke="midnightblue" d="M300.42,-264.07C291.67,-263.05 282.78,-262.01 274.15,-261"/>
<polygon fill="midnightblue" stroke="midnightblue" points="300.26,-267.58 310.6,-265.26 301.08,-260.62 300.26,-267.58"/>
</g>
<!-- Node13 -->
<g id="node13" class="node">
<title>Node13</title>
<g id="a_node13"><a xlink:href="namespacextb__screening.html#a7f4004ff0e65127a38b038f0a7cdcc84" target="_top" xlink:title=" ">
<polygon fill="white" stroke="black" points="147.5,-206 147.5,-225 270.5,-225 270.5,-206 147.5,-206"/>
<text text-anchor="middle" x="209" y="-213" font-family="Helvetica,sans-Serif" font-size="10.00">xtb_screening::screen</text>
</a>
</g>
</g>
<!-- Node7&#45;&gt;Node13 -->
<g id="edge12" class="edge">
<title>Node7&#45;&gt;Node13</title>
<path fill="none" stroke="midnightblue" d="M326.46,-253.6C310.3,-247.23 291.95,-240.27 275,-234.5 265.21,-231.17 254.46,-227.88 244.58,-225"/>
<polygon fill="midnightblue" stroke="midnightblue" points="325.62,-257.04 336.2,-257.48 328.2,-250.53 325.62,-257.04"/>
</g>
<!-- Node14 -->
<g id="node14" class="node">
<title>Node14</title>
<g id="a_node14"><a xlink:href="namespacextb__gfnff__convert.html#adf399b47b9f2a8364327d9d5c38cb2b8" target="_top" xlink:title=" ">
<polygon fill="white" stroke="black" points="155,-156.5 155,-186.5 263,-186.5 263,-156.5 155,-156.5"/>
<text text-anchor="start" x="163" y="-174.5" font-family="Helvetica,sans-Serif" font-size="10.00">xtb_gfnff_convert::</text>
<text text-anchor="middle" x="209" y="-163.5" font-family="Helvetica,sans-Serif" font-size="10.00">struc_convert</text>
</a>
</g>
</g>
<!-- Node7&#45;&gt;Node14 -->
<g id="edge13" class="edge">
<title>Node7&#45;&gt;Node14</title>
<path fill="none" stroke="midnightblue" d="M348.78,-250.75C329.87,-234.24 302.14,-211.84 275,-196.5 268.58,-192.87 261.53,-189.55 254.51,-186.6"/>
<polygon fill="midnightblue" stroke="midnightblue" points="346.51,-253.42 356.32,-257.43 351.15,-248.18 346.51,-253.42"/>
</g>
<!-- Node9 -->
<g id="node9" class="node">
<title>Node9</title>
<g id="a_node9"><a xlink:href="namespacextb__kopt.html#aed50b40106367857ab2d0bf3a109f62b" target="_top" xlink:title=" ">
<polygon fill="white" stroke="black" points="0,-358 0,-377 107,-377 107,-358 0,-358"/>
<text text-anchor="middle" x="53.5" y="-365" font-family="Helvetica,sans-Serif" font-size="10.00">xtb_kopt::get_kopt</text>
</a>
</g>
</g>
<!-- Node8&#45;&gt;Node9 -->
<g id="edge8" class="edge">
<title>Node8&#45;&gt;Node9</title>
<path fill="none" stroke="midnightblue" d="M143.75,-367.5C131.54,-367.5 118.9,-367.5 107.1,-367.5"/>
<polygon fill="midnightblue" stroke="midnightblue" points="143.88,-371 153.88,-367.5 143.88,-364 143.88,-371"/>
</g>
<!-- Node15&#45;&gt;Node6 -->
<g id="edge16" class="edge">
<title>Node15&#45;&gt;Node6</title>
<path fill="none" stroke="midnightblue" d="M800.06,-257.56C739.7,-260.97 654.38,-265.79 597.11,-269.02"/>
<polygon fill="midnightblue" stroke="midnightblue" points="800.49,-261.04 810.28,-256.98 800.1,-254.05 800.49,-261.04"/>
</g>
<!-- Node16&#45;&gt;Node4 -->
<g id="edge18" class="edge">
<title>Node16&#45;&gt;Node4</title>
<path fill="none" stroke="midnightblue" d="M648.46,-146.5C623.53,-146.5 594.21,-146.5 571.68,-146.5"/>
<polygon fill="midnightblue" stroke="midnightblue" points="648.49,-150 658.49,-146.5 648.49,-143 648.49,-150"/>
</g>
<!-- Node17&#45;&gt;Node4 -->
<g id="edge20" class="edge">
<title>Node17&#45;&gt;Node4</title>
<path fill="none" stroke="midnightblue" d="M810.07,-111.5C761.7,-114.3 692.87,-119.31 633,-127.5 612.67,-130.28 590.17,-134.58 571.91,-138.39"/>
<polygon fill="midnightblue" stroke="midnightblue" points="810.28,-114.99 820.07,-110.93 809.89,-108 810.28,-114.99"/>
</g>
<!-- Node19 -->
<g id="node19" class="node">
<title>Node19</title>
<g id="a_node19"><a xlink:href="namespacextb__io__writer__turbomole.html#ab072686662b004005d4bbc5631c80030" target="_top" xlink:title=" ">
<polygon fill="white" stroke="black" points="633,-49.5 633,-79.5 769,-79.5 769,-49.5 633,-49.5"/>
<text text-anchor="start" x="641" y="-67.5" font-family="Helvetica,sans-Serif" font-size="10.00">xtb_io_writer_turbomole</text>
<text text-anchor="middle" x="701" y="-56.5" font-family="Helvetica,sans-Serif" font-size="10.00">::writeresultsturbomole</text>
</a>
</g>
</g>
<!-- Node18&#45;&gt;Node19 -->
<g id="edge22" class="edge">
<title>Node18&#45;&gt;Node19</title>
<path fill="none" stroke="midnightblue" d="M794.58,-64.5C786.12,-64.5 777.57,-64.5 769.26,-64.5"/>
<polygon fill="midnightblue" stroke="midnightblue" points="794.81,-68 804.81,-64.5 794.81,-61 794.81,-68"/>
</g>
<!-- Node21 -->
<g id="node21" class="node">
<title>Node21</title>
<g id="a_node21"><a xlink:href="namespacextb__type__molecule.html#aa0a83a4ac8ea69ff3578efbeaacf4223" target="_top" xlink:title="wrap cartesian coordinates back into cell">
<polygon fill="white" stroke="black" points="643,-0.5 643,-30.5 759,-30.5 759,-0.5 643,-0.5"/>
<text text-anchor="start" x="651" y="-18.5" font-family="Helvetica,sans-Serif" font-size="10.00">xtb_type_molecule::</text>
<text text-anchor="middle" x="701" y="-7.5" font-family="Helvetica,sans-Serif" font-size="10.00">wrap_back</text>
</a>
</g>
</g>
<!-- Node20&#45;&gt;Node21 -->
<g id="edge24" class="edge">
<title>Node20&#45;&gt;Node21</title>
<path fill="none" stroke="midnightblue" d="M808.68,-15.5C792.47,-15.5 775.14,-15.5 759.25,-15.5"/>
<polygon fill="midnightblue" stroke="midnightblue" points="809.14,-19 819.14,-15.5 809.14,-12 809.14,-19"/>
</g>
</g>
</svg>
