<?xml version="1.0" encoding="UTF-8" standalone="no"?>
<!DOCTYPE svg PUBLIC "-//W3C//DTD SVG 1.1//EN"
 "http://www.w3.org/Graphics/SVG/1.1/DTD/svg11.dtd">
<!-- Generated by graphviz version 2.43.0 (0)
 -->
<!-- Title: xtb_solv_lebedev::genoh1 Pages: 1 -->
<!--zoomable 1206 -->
<svg id="main" version="1.1" xmlns="http://www.w3.org/2000/svg" xmlns:xlink="http://www.w3.org/1999/xlink" xml:space="preserve" onload="init(evt)">
<style type="text/css"><![CDATA[
.edge:hover path { stroke: red; }
.edge:hover polygon { stroke: red; fill: red; }
]]></style>
<script type="text/javascript"><![CDATA[
var edges = document.getElementsByTagName('g');
if (edges && edges.length) {
  for (var i=0;i<edges.length;i++) {
    if (edges[i].id.substr(0,4)=='edge') {
      edges[i].setAttribute('class','edge');
    }
  }
}
]]></script>
        <defs>
                <circle id="rim" cx="0" cy="0" r="7"/>
                <circle id="rim2" cx="0" cy="0" r="3.5"/>
                <g id="zoomPlus">
                        <use xlink:href="#rim" fill="#404040">
                                <set attributeName="fill" to="#808080" begin="zoomplus.mouseover" end="zoomplus.mouseout"/>
                        </use>
                        <path d="M-4,0h8M0,-4v8" fill="none" stroke="white" stroke-width="1.5" pointer-events="none"/>
                </g>
                <g id="zoomMin">
                        <use xlink:href="#rim" fill="#404040">
                                <set attributeName="fill" to="#808080" begin="zoomminus.mouseover" end="zoomminus.mouseout"/>
                        </use>
                        <path d="M-4,0h8" fill="none" stroke="white" stroke-width="1.5" pointer-events="none"/>
                </g>
                <g id="dirArrow">
                        <path fill="none" stroke="white" stroke-width="1.5" d="M0,-3.0v7 M-2.5,-0.5L0,-3.0L2.5,-0.5"/>
                </g>
               <g id="resetDef">
                       <use xlink:href="#rim2" fill="#404040">
                               <set attributeName="fill" to="#808080" begin="reset.mouseover" end="reset.mouseout"/>
                       </use>
               </g>
        </defs>

<script type="text/javascript">
var viewWidth = 667;
var viewHeight = 1206;
var sectionId = 'dynsection-0';
</script>
<script xlink:href="svgpan.js"/>
<svg id="graph" class="graph">
<g id="viewport">
<title>xtb_solv_lebedev::genoh1</title>
<polygon fill="white" stroke="transparent" points="-4,4 -4,-1202 663,-1202 663,4 -4,4"/>
<!-- Node1 -->
<g id="node1" class="node">
<title>Node1</title>
<g id="a_node1"><a xlink:title="generate 6 new points with Oh symmetry from (0,0,1)">
<polygon fill="#bfbfbf" stroke="black" points="516,-589.5 516,-608.5 659,-608.5 659,-589.5 516,-589.5"/>
<text text-anchor="middle" x="587.5" y="-596.5" font-family="Helvetica,sans-Serif" font-size="10.00">xtb_solv_lebedev::genoh1</text>
</a>
</g>
</g>
<!-- Node2 -->
<g id="node2" class="node">
<title>Node2</title>
<g id="a_node2"><a xlink:href="namespacextb__solv__lebedev.html#a1d07669ea113d6a1528db054f5c71b66" target="_top" xlink:title=" ">
<polygon fill="white" stroke="black" points="340,-1178.5 340,-1197.5 480,-1197.5 480,-1178.5 340,-1178.5"/>
<text text-anchor="middle" x="410" y="-1185.5" font-family="Helvetica,sans-Serif" font-size="10.00">xtb_solv_lebedev::ld0006</text>
</a>
</g>
</g>
<!-- Node1&#45;&gt;Node2 -->
<g id="edge1" class="edge">
<title>Node1&#45;&gt;Node2</title>
<path fill="none" stroke="midnightblue" d="M585.54,-618.8C580.76,-709.66 556.53,-1085.75 480,-1169 476.47,-1172.84 472.24,-1175.93 467.63,-1178.42"/>
<polygon fill="midnightblue" stroke="midnightblue" points="589.05,-618.71 586.06,-608.55 582.06,-618.36 589.05,-618.71"/>
</g>
<!-- Node5 -->
<g id="node5" class="node">
<title>Node5</title>
<g id="a_node5"><a xlink:href="namespacextb__solv__lebedev.html#a5d84bf718d6cc0b894c14e2d83424658" target="_top" xlink:title=" ">
<polygon fill="white" stroke="black" points="340,-1140.5 340,-1159.5 480,-1159.5 480,-1140.5 340,-1140.5"/>
<text text-anchor="middle" x="410" y="-1147.5" font-family="Helvetica,sans-Serif" font-size="10.00">xtb_solv_lebedev::ld0014</text>
</a>
</g>
</g>
<!-- Node1&#45;&gt;Node5 -->
<g id="edge4" class="edge">
<title>Node1&#45;&gt;Node5</title>
<path fill="none" stroke="midnightblue" d="M585.25,-618.86C579.38,-706.05 551.73,-1053.98 480,-1131 476.44,-1134.82 472.2,-1137.9 467.58,-1140.37"/>
<polygon fill="midnightblue" stroke="midnightblue" points="588.75,-618.95 585.91,-608.74 581.77,-618.49 588.75,-618.95"/>
</g>
<!-- Node6 -->
<g id="node6" class="node">
<title>Node6</title>
<g id="a_node6"><a xlink:href="namespacextb__solv__lebedev.html#a33d55e0712b458ebfc76352cc058d8e1" target="_top" xlink:title=" ">
<polygon fill="white" stroke="black" points="340,-1102.5 340,-1121.5 480,-1121.5 480,-1102.5 340,-1102.5"/>
<text text-anchor="middle" x="410" y="-1109.5" font-family="Helvetica,sans-Serif" font-size="10.00">xtb_solv_lebedev::ld0026</text>
</a>
</g>
</g>
<!-- Node1&#45;&gt;Node6 -->
<g id="edge6" class="edge">
<title>Node1&#45;&gt;Node6</title>
<path fill="none" stroke="midnightblue" d="M584.91,-619.02C577.87,-702.55 546.91,-1022.21 480,-1093 476.33,-1096.88 471.95,-1100 467.19,-1102.49"/>
<polygon fill="midnightblue" stroke="midnightblue" points="588.41,-619.1 585.74,-608.85 581.44,-618.53 588.41,-619.1"/>
</g>
<!-- Node7 -->
<g id="node7" class="node">
<title>Node7</title>
<g id="a_node7"><a xlink:href="namespacextb__solv__lebedev.html#af347473f0c211597aeffee6ad3ab55b2" target="_top" xlink:title=" ">
<polygon fill="white" stroke="black" points="340,-1064.5 340,-1083.5 480,-1083.5 480,-1064.5 340,-1064.5"/>
<text text-anchor="middle" x="410" y="-1071.5" font-family="Helvetica,sans-Serif" font-size="10.00">xtb_solv_lebedev::ld0038</text>
</a>
</g>
</g>
<!-- Node1&#45;&gt;Node7 -->
<g id="edge8" class="edge">
<title>Node1&#45;&gt;Node7</title>
<path fill="none" stroke="midnightblue" d="M584.52,-618.99C576.29,-698.39 542.16,-990.35 480,-1055 476.3,-1058.85 471.89,-1061.94 467.12,-1064.43"/>
<polygon fill="midnightblue" stroke="midnightblue" points="588.02,-619.17 585.55,-608.87 581.06,-618.46 588.02,-619.17"/>
</g>
<!-- Node8 -->
<g id="node8" class="node">
<title>Node8</title>
<g id="a_node8"><a xlink:href="namespacextb__solv__lebedev.html#a9a40f5fc99d96bb20df12cc7b43db4ae" target="_top" xlink:title=" ">
<polygon fill="white" stroke="black" points="340,-1026.5 340,-1045.5 480,-1045.5 480,-1026.5 340,-1026.5"/>
<text text-anchor="middle" x="410" y="-1033.5" font-family="Helvetica,sans-Serif" font-size="10.00">xtb_solv_lebedev::ld0050</text>
</a>
</g>
</g>
<!-- Node1&#45;&gt;Node8 -->
<g id="edge10" class="edge">
<title>Node1&#45;&gt;Node8</title>
<path fill="none" stroke="midnightblue" d="M584.1,-618.75C574.62,-693.58 537.49,-958.4 480,-1017 476.26,-1020.81 471.83,-1023.88 467.04,-1026.35"/>
<polygon fill="midnightblue" stroke="midnightblue" points="587.58,-619.14 585.34,-608.78 580.63,-618.27 587.58,-619.14"/>
</g>
<!-- Node9 -->
<g id="node9" class="node">
<title>Node9</title>
<g id="a_node9"><a xlink:href="namespacextb__solv__lebedev.html#a38b4fa991841a749e8da6f444eabd4a7" target="_top" xlink:title=" ">
<polygon fill="white" stroke="black" points="340,-988.5 340,-1007.5 480,-1007.5 480,-988.5 340,-988.5"/>
<text text-anchor="middle" x="410" y="-995.5" font-family="Helvetica,sans-Serif" font-size="10.00">xtb_solv_lebedev::ld0074</text>
</a>
</g>
</g>
<!-- Node1&#45;&gt;Node9 -->
<g id="edge12" class="edge">
<title>Node1&#45;&gt;Node9</title>
<path fill="none" stroke="midnightblue" d="M587.25,-618.65C588.48,-680.93 583.54,-875.93 480,-979 476.13,-982.86 471.54,-985.95 466.61,-988.43"/>
<polygon fill="midnightblue" stroke="midnightblue" points="590.74,-618.51 586.96,-608.61 583.75,-618.71 590.74,-618.51"/>
</g>
<!-- Node10 -->
<g id="node10" class="node">
<title>Node10</title>
<g id="a_node10"><a xlink:href="namespacextb__solv__lebedev.html#a283401b7bc58de7de9f545f9a540ec9c" target="_top" xlink:title=" ">
<polygon fill="white" stroke="black" points="340,-950.5 340,-969.5 480,-969.5 480,-950.5 340,-950.5"/>
<text text-anchor="middle" x="410" y="-957.5" font-family="Helvetica,sans-Serif" font-size="10.00">xtb_solv_lebedev::ld0086</text>
</a>
</g>
</g>
<!-- Node1&#45;&gt;Node10 -->
<g id="edge14" class="edge">
<title>Node1&#45;&gt;Node10</title>
<path fill="none" stroke="midnightblue" d="M586.53,-618.58C585.5,-676.7 574.28,-849.8 480,-941 475.98,-944.89 471.24,-948 466.16,-950.48"/>
<polygon fill="midnightblue" stroke="midnightblue" points="590.03,-618.58 586.62,-608.55 583.03,-618.52 590.03,-618.58"/>
</g>
<!-- Node11 -->
<g id="node11" class="node">
<title>Node11</title>
<g id="a_node11"><a xlink:href="namespacextb__solv__lebedev.html#a24b08bf1ad9ec58e47807134c0d6bb40" target="_top" xlink:title=" ">
<polygon fill="white" stroke="black" points="340,-912.5 340,-931.5 480,-931.5 480,-912.5 340,-912.5"/>
<text text-anchor="middle" x="410" y="-919.5" font-family="Helvetica,sans-Serif" font-size="10.00">xtb_solv_lebedev::ld0110</text>
</a>
</g>
</g>
<!-- Node1&#45;&gt;Node11 -->
<g id="edge16" class="edge">
<title>Node1&#45;&gt;Node11</title>
<path fill="none" stroke="midnightblue" d="M585.63,-618.87C582.14,-672.89 564.91,-823.7 480,-903 475.82,-906.9 470.92,-910.01 465.68,-912.5"/>
<polygon fill="midnightblue" stroke="midnightblue" points="589.14,-618.79 586.19,-608.61 582.15,-618.4 589.14,-618.79"/>
</g>
<!-- Node12 -->
<g id="node12" class="node">
<title>Node12</title>
<g id="a_node12"><a xlink:href="namespacextb__solv__lebedev.html#aed0ccbb0f9cbe64105fe5b078faec200" target="_top" xlink:title=" ">
<polygon fill="white" stroke="black" points="340,-874.5 340,-893.5 480,-893.5 480,-874.5 340,-874.5"/>
<text text-anchor="middle" x="410" y="-881.5" font-family="Helvetica,sans-Serif" font-size="10.00">xtb_solv_lebedev::ld0146</text>
</a>
</g>
</g>
<!-- Node1&#45;&gt;Node12 -->
<g id="edge18" class="edge">
<title>Node1&#45;&gt;Node12</title>
<path fill="none" stroke="midnightblue" d="M584.52,-618.69C578.49,-667.9 555.87,-797.19 480,-865 475.65,-868.89 470.56,-871.99 465.17,-874.47"/>
<polygon fill="midnightblue" stroke="midnightblue" points="588,-619.04 585.64,-608.71 581.04,-618.26 588,-619.04"/>
</g>
<!-- Node13 -->
<g id="node13" class="node">
<title>Node13</title>
<g id="a_node13"><a xlink:href="namespacextb__solv__lebedev.html#a7f1a595d41d4605ccf5fce14594da670" target="_top" xlink:title=" ">
<polygon fill="white" stroke="black" points="340,-836.5 340,-855.5 480,-855.5 480,-836.5 340,-836.5"/>
<text text-anchor="middle" x="410" y="-843.5" font-family="Helvetica,sans-Serif" font-size="10.00">xtb_solv_lebedev::ld0170</text>
</a>
</g>
</g>
<!-- Node1&#45;&gt;Node13 -->
<g id="edge20" class="edge">
<title>Node1&#45;&gt;Node13</title>
<path fill="none" stroke="midnightblue" d="M583.1,-618.51C574.36,-662.59 546.94,-770.47 480,-827 475.44,-830.85 470.17,-833.92 464.61,-836.37"/>
<polygon fill="midnightblue" stroke="midnightblue" points="586.57,-618.99 584.97,-608.52 579.69,-617.7 586.57,-618.99"/>
</g>
<!-- Node14 -->
<g id="node14" class="node">
<title>Node14</title>
<g id="a_node14"><a xlink:href="namespacextb__solv__lebedev.html#a7c3db474684db5ae3087a9da0b1d8e7d" target="_top" xlink:title=" ">
<polygon fill="white" stroke="black" points="340,-798.5 340,-817.5 480,-817.5 480,-798.5 340,-798.5"/>
<text text-anchor="middle" x="410" y="-805.5" font-family="Helvetica,sans-Serif" font-size="10.00">xtb_solv_lebedev::ld0194</text>
</a>
</g>
</g>
<!-- Node1&#45;&gt;Node14 -->
<g id="edge22" class="edge">
<title>Node1&#45;&gt;Node14</title>
<path fill="none" stroke="midnightblue" d="M581.09,-618.61C569.39,-657.29 537.99,-743.59 480,-789 475.01,-792.91 469.27,-796.01 463.28,-798.48"/>
<polygon fill="midnightblue" stroke="midnightblue" points="584.56,-619.22 583.99,-608.64 577.84,-617.26 584.56,-619.22"/>
</g>
<!-- Node15 -->
<g id="node15" class="node">
<title>Node15</title>
<g id="a_node15"><a xlink:href="namespacextb__solv__lebedev.html#ae0c3f344c7393d96bd3bf7a6b877e817" target="_top" xlink:title=" ">
<polygon fill="white" stroke="black" points="340,-760.5 340,-779.5 480,-779.5 480,-760.5 340,-760.5"/>
<text text-anchor="middle" x="410" y="-767.5" font-family="Helvetica,sans-Serif" font-size="10.00">xtb_solv_lebedev::ld0230</text>
</a>
</g>
</g>
<!-- Node1&#45;&gt;Node15 -->
<g id="edge24" class="edge">
<title>Node1&#45;&gt;Node15</title>
<path fill="none" stroke="midnightblue" d="M578.57,-617.78C563.95,-650.07 529.66,-715.98 480,-751 474.52,-754.87 468.28,-757.95 461.84,-760.4"/>
<polygon fill="midnightblue" stroke="midnightblue" points="581.8,-619.13 582.61,-608.56 575.39,-616.31 581.8,-619.13"/>
</g>
<!-- Node16 -->
<g id="node16" class="node">
<title>Node16</title>
<g id="a_node16"><a xlink:href="namespacextb__solv__lebedev.html#ae5bf49bca7baf7dbd431a709bfcf339c" target="_top" xlink:title=" ">
<polygon fill="white" stroke="black" points="340,-722.5 340,-741.5 480,-741.5 480,-722.5 340,-722.5"/>
<text text-anchor="middle" x="410" y="-729.5" font-family="Helvetica,sans-Serif" font-size="10.00">xtb_solv_lebedev::ld0266</text>
</a>
</g>
</g>
<!-- Node1&#45;&gt;Node16 -->
<g id="edge26" class="edge">
<title>Node1&#45;&gt;Node16</title>
<path fill="none" stroke="midnightblue" d="M574.65,-616.92C557.03,-642.16 521.49,-687.9 480,-713 473.62,-716.86 466.44,-719.95 459.19,-722.43"/>
<polygon fill="midnightblue" stroke="midnightblue" points="577.57,-618.86 580.31,-608.62 571.79,-614.91 577.57,-618.86"/>
</g>
<!-- Node17 -->
<g id="node17" class="node">
<title>Node17</title>
<g id="a_node17"><a xlink:href="namespacextb__solv__lebedev.html#aaf02b9166b3d1d2544dfff17124737fe" target="_top" xlink:title=" ">
<polygon fill="white" stroke="black" points="340,-684.5 340,-703.5 480,-703.5 480,-684.5 340,-684.5"/>
<text text-anchor="middle" x="410" y="-691.5" font-family="Helvetica,sans-Serif" font-size="10.00">xtb_solv_lebedev::ld0302</text>
</a>
</g>
</g>
<!-- Node1&#45;&gt;Node17 -->
<g id="edge28" class="edge">
<title>Node1&#45;&gt;Node17</title>
<path fill="none" stroke="midnightblue" d="M568.02,-615.31C547.73,-632.42 513.56,-659.03 480,-675 472.15,-678.74 463.43,-681.85 454.91,-684.4"/>
<polygon fill="midnightblue" stroke="midnightblue" points="570.51,-617.78 575.82,-608.61 565.95,-612.47 570.51,-617.78"/>
</g>
<!-- Node18 -->
<g id="node18" class="node">
<title>Node18</title>
<g id="a_node18"><a xlink:href="namespacextb__solv__lebedev.html#ad7f5b7e8536519a9178824544a8eb73b" target="_top" xlink:title=" ">
<polygon fill="white" stroke="black" points="340,-646.5 340,-665.5 480,-665.5 480,-646.5 340,-646.5"/>
<text text-anchor="middle" x="410" y="-653.5" font-family="Helvetica,sans-Serif" font-size="10.00">xtb_solv_lebedev::ld0350</text>
</a>
</g>
</g>
<!-- Node1&#45;&gt;Node18 -->
<g id="edge30" class="edge">
<title>Node1&#45;&gt;Node18</title>
<path fill="none" stroke="midnightblue" d="M551.66,-612.17C530.97,-619.8 504.13,-629.38 480,-637 469.57,-640.29 458.16,-643.56 447.67,-646.44"/>
<polygon fill="midnightblue" stroke="midnightblue" points="553.13,-615.35 561.29,-608.59 550.69,-608.79 553.13,-615.35"/>
</g>
<!-- Node19 -->
<g id="node19" class="node">
<title>Node19</title>
<g id="a_node19"><a xlink:href="namespacextb__solv__lebedev.html#a767bff6205c4b2c33e8fce55640f9b85" target="_top" xlink:title=" ">
<polygon fill="white" stroke="black" points="340,-608.5 340,-627.5 480,-627.5 480,-608.5 340,-608.5"/>
<text text-anchor="middle" x="410" y="-615.5" font-family="Helvetica,sans-Serif" font-size="10.00">xtb_solv_lebedev::ld0434</text>
</a>
</g>
</g>
<!-- Node1&#45;&gt;Node19 -->
<g id="edge32" class="edge">
<title>Node1&#45;&gt;Node19</title>
<path fill="none" stroke="midnightblue" d="M505.83,-607.73C497.22,-608.67 488.51,-609.61 480.05,-610.52"/>
<polygon fill="midnightblue" stroke="midnightblue" points="506.31,-611.2 515.88,-606.65 505.56,-604.24 506.31,-611.2"/>
</g>
<!-- Node20 -->
<g id="node20" class="node">
<title>Node20</title>
<g id="a_node20"><a xlink:href="namespacextb__solv__lebedev.html#a0c260f464911b10f27fb1655a76dc510" target="_top" xlink:title=" ">
<polygon fill="white" stroke="black" points="340,-570.5 340,-589.5 480,-589.5 480,-570.5 340,-570.5"/>
<text text-anchor="middle" x="410" y="-577.5" font-family="Helvetica,sans-Serif" font-size="10.00">xtb_solv_lebedev::ld0590</text>
</a>
</g>
</g>
<!-- Node1&#45;&gt;Node20 -->
<g id="edge34" class="edge">
<title>Node1&#45;&gt;Node20</title>
<path fill="none" stroke="midnightblue" d="M505.83,-590.27C497.22,-589.33 488.51,-588.39 480.05,-587.48"/>
<polygon fill="midnightblue" stroke="midnightblue" points="505.56,-593.76 515.88,-591.35 506.31,-586.8 505.56,-593.76"/>
</g>
<!-- Node21 -->
<g id="node21" class="node">
<title>Node21</title>
<g id="a_node21"><a xlink:href="namespacextb__solv__lebedev.html#a40d8c864d947e686fa789bfffcc09604" target="_top" xlink:title=" ">
<polygon fill="white" stroke="black" points="340,-532.5 340,-551.5 480,-551.5 480,-532.5 340,-532.5"/>
<text text-anchor="middle" x="410" y="-539.5" font-family="Helvetica,sans-Serif" font-size="10.00">xtb_solv_lebedev::ld0770</text>
</a>
</g>
</g>
<!-- Node1&#45;&gt;Node21 -->
<g id="edge36" class="edge">
<title>Node1&#45;&gt;Node21</title>
<path fill="none" stroke="midnightblue" d="M551.66,-585.83C530.97,-578.2 504.13,-568.62 480,-561 469.57,-557.71 458.16,-554.44 447.67,-551.56"/>
<polygon fill="midnightblue" stroke="midnightblue" points="550.69,-589.21 561.29,-589.41 553.13,-582.65 550.69,-589.21"/>
</g>
<!-- Node22 -->
<g id="node22" class="node">
<title>Node22</title>
<g id="a_node22"><a xlink:href="namespacextb__solv__lebedev.html#a81a0f17f476f7fcdf2c0e93114d1531b" target="_top" xlink:title=" ">
<polygon fill="white" stroke="black" points="340,-494.5 340,-513.5 480,-513.5 480,-494.5 340,-494.5"/>
<text text-anchor="middle" x="410" y="-501.5" font-family="Helvetica,sans-Serif" font-size="10.00">xtb_solv_lebedev::ld0974</text>
</a>
</g>
</g>
<!-- Node1&#45;&gt;Node22 -->
<g id="edge38" class="edge">
<title>Node1&#45;&gt;Node22</title>
<path fill="none" stroke="midnightblue" d="M568.02,-582.69C547.73,-565.58 513.56,-538.97 480,-523 472.15,-519.26 463.43,-516.15 454.91,-513.6"/>
<polygon fill="midnightblue" stroke="midnightblue" points="565.95,-585.53 575.82,-589.39 570.51,-580.22 565.95,-585.53"/>
</g>
<!-- Node23 -->
<g id="node23" class="node">
<title>Node23</title>
<g id="a_node23"><a xlink:href="namespacextb__solv__lebedev.html#a595d7a53ab33e2ab8766a89935acd282" target="_top" xlink:title=" ">
<polygon fill="white" stroke="black" points="340,-456.5 340,-475.5 480,-475.5 480,-456.5 340,-456.5"/>
<text text-anchor="middle" x="410" y="-463.5" font-family="Helvetica,sans-Serif" font-size="10.00">xtb_solv_lebedev::ld1202</text>
</a>
</g>
</g>
<!-- Node1&#45;&gt;Node23 -->
<g id="edge40" class="edge">
<title>Node1&#45;&gt;Node23</title>
<path fill="none" stroke="midnightblue" d="M574.65,-581.08C557.03,-555.84 521.49,-510.1 480,-485 473.62,-481.14 466.44,-478.05 459.19,-475.57"/>
<polygon fill="midnightblue" stroke="midnightblue" points="571.79,-583.09 580.31,-589.38 577.57,-579.14 571.79,-583.09"/>
</g>
<!-- Node24 -->
<g id="node24" class="node">
<title>Node24</title>
<g id="a_node24"><a xlink:href="namespacextb__solv__lebedev.html#a028e4ec71ea62173694638f711af0814" target="_top" xlink:title=" ">
<polygon fill="white" stroke="black" points="340,-418.5 340,-437.5 480,-437.5 480,-418.5 340,-418.5"/>
<text text-anchor="middle" x="410" y="-425.5" font-family="Helvetica,sans-Serif" font-size="10.00">xtb_solv_lebedev::ld1454</text>
</a>
</g>
</g>
<!-- Node1&#45;&gt;Node24 -->
<g id="edge42" class="edge">
<title>Node1&#45;&gt;Node24</title>
<path fill="none" stroke="midnightblue" d="M578.57,-580.22C563.95,-547.93 529.66,-482.02 480,-447 474.52,-443.13 468.28,-440.05 461.84,-437.6"/>
<polygon fill="midnightblue" stroke="midnightblue" points="575.39,-581.69 582.61,-589.44 581.8,-578.87 575.39,-581.69"/>
</g>
<!-- Node25 -->
<g id="node25" class="node">
<title>Node25</title>
<g id="a_node25"><a xlink:href="namespacextb__solv__lebedev.html#a10ee6a3eb1933644ccbbf1ccf9ab5cbc" target="_top" xlink:title=" ">
<polygon fill="white" stroke="black" points="340,-380.5 340,-399.5 480,-399.5 480,-380.5 340,-380.5"/>
<text text-anchor="middle" x="410" y="-387.5" font-family="Helvetica,sans-Serif" font-size="10.00">xtb_solv_lebedev::ld1730</text>
</a>
</g>
</g>
<!-- Node1&#45;&gt;Node25 -->
<g id="edge44" class="edge">
<title>Node1&#45;&gt;Node25</title>
<path fill="none" stroke="midnightblue" d="M581.09,-579.39C569.39,-540.71 537.99,-454.41 480,-409 475.01,-405.09 469.27,-401.99 463.28,-399.52"/>
<polygon fill="midnightblue" stroke="midnightblue" points="577.84,-580.74 583.99,-589.36 584.56,-578.78 577.84,-580.74"/>
</g>
<!-- Node26 -->
<g id="node26" class="node">
<title>Node26</title>
<g id="a_node26"><a xlink:href="namespacextb__solv__lebedev.html#a4ac4828ed382336786c5059067fa37a5" target="_top" xlink:title=" ">
<polygon fill="white" stroke="black" points="340,-342.5 340,-361.5 480,-361.5 480,-342.5 340,-342.5"/>
<text text-anchor="middle" x="410" y="-349.5" font-family="Helvetica,sans-Serif" font-size="10.00">xtb_solv_lebedev::ld2030</text>
</a>
</g>
</g>
<!-- Node1&#45;&gt;Node26 -->
<g id="edge46" class="edge">
<title>Node1&#45;&gt;Node26</title>
<path fill="none" stroke="midnightblue" d="M583.1,-579.49C574.36,-535.41 546.94,-427.53 480,-371 475.44,-367.15 470.17,-364.08 464.61,-361.63"/>
<polygon fill="midnightblue" stroke="midnightblue" points="579.69,-580.3 584.97,-589.48 586.57,-579.01 579.69,-580.3"/>
</g>
<!-- Node27 -->
<g id="node27" class="node">
<title>Node27</title>
<g id="a_node27"><a xlink:href="namespacextb__solv__lebedev.html#a533fe73b076e0eb71e77c2219585525a" target="_top" xlink:title=" ">
<polygon fill="white" stroke="black" points="340,-304.5 340,-323.5 480,-323.5 480,-304.5 340,-304.5"/>
<text text-anchor="middle" x="410" y="-311.5" font-family="Helvetica,sans-Serif" font-size="10.00">xtb_solv_lebedev::ld2354</text>
</a>
</g>
</g>
<!-- Node1&#45;&gt;Node27 -->
<g id="edge48" class="edge">
<title>Node1&#45;&gt;Node27</title>
<path fill="none" stroke="midnightblue" d="M584.52,-579.31C578.49,-530.1 555.87,-400.81 480,-333 475.65,-329.11 470.56,-326.01 465.17,-323.53"/>
<polygon fill="midnightblue" stroke="midnightblue" points="581.04,-579.74 585.64,-589.29 588,-578.96 581.04,-579.74"/>
</g>
<!-- Node28 -->
<g id="node28" class="node">
<title>Node28</title>
<g id="a_node28"><a xlink:href="namespacextb__solv__lebedev.html#a18e1c59bb6caacd01cbda7ceb7c3c5c6" target="_top" xlink:title=" ">
<polygon fill="white" stroke="black" points="340,-266.5 340,-285.5 480,-285.5 480,-266.5 340,-266.5"/>
<text text-anchor="middle" x="410" y="-273.5" font-family="Helvetica,sans-Serif" font-size="10.00">xtb_solv_lebedev::ld2702</text>
</a>
</g>
</g>
<!-- Node1&#45;&gt;Node28 -->
<g id="edge50" class="edge">
<title>Node1&#45;&gt;Node28</title>
<path fill="none" stroke="midnightblue" d="M585.63,-579.13C582.14,-525.11 564.91,-374.3 480,-295 475.82,-291.1 470.92,-287.99 465.68,-285.5"/>
<polygon fill="midnightblue" stroke="midnightblue" points="582.15,-579.6 586.19,-589.39 589.14,-579.21 582.15,-579.6"/>
</g>
<!-- Node29 -->
<g id="node29" class="node">
<title>Node29</title>
<g id="a_node29"><a xlink:href="namespacextb__solv__lebedev.html#ac4fa0459254a74cff4d67b01d742d693" target="_top" xlink:title=" ">
<polygon fill="white" stroke="black" points="340,-228.5 340,-247.5 480,-247.5 480,-228.5 340,-228.5"/>
<text text-anchor="middle" x="410" y="-235.5" font-family="Helvetica,sans-Serif" font-size="10.00">xtb_solv_lebedev::ld3074</text>
</a>
</g>
</g>
<!-- Node1&#45;&gt;Node29 -->
<g id="edge52" class="edge">
<title>Node1&#45;&gt;Node29</title>
<path fill="none" stroke="midnightblue" d="M586.53,-579.42C585.5,-521.3 574.28,-348.2 480,-257 475.98,-253.11 471.24,-250 466.16,-247.52"/>
<polygon fill="midnightblue" stroke="midnightblue" points="583.03,-579.48 586.62,-589.45 590.03,-579.42 583.03,-579.48"/>
</g>
<!-- Node30 -->
<g id="node30" class="node">
<title>Node30</title>
<g id="a_node30"><a xlink:href="namespacextb__solv__lebedev.html#abe7d811ac068402b33094b5f2ffac599" target="_top" xlink:title=" ">
<polygon fill="white" stroke="black" points="340,-190.5 340,-209.5 480,-209.5 480,-190.5 340,-190.5"/>
<text text-anchor="middle" x="410" y="-197.5" font-family="Helvetica,sans-Serif" font-size="10.00">xtb_solv_lebedev::ld3470</text>
</a>
</g>
</g>
<!-- Node1&#45;&gt;Node30 -->
<g id="edge54" class="edge">
<title>Node1&#45;&gt;Node30</title>
<path fill="none" stroke="midnightblue" d="M587.25,-579.35C588.48,-517.07 583.54,-322.07 480,-219 476.13,-215.14 471.54,-212.05 466.61,-209.57"/>
<polygon fill="midnightblue" stroke="midnightblue" points="583.75,-579.29 586.96,-589.39 590.74,-579.49 583.75,-579.29"/>
</g>
<!-- Node31 -->
<g id="node31" class="node">
<title>Node31</title>
<g id="a_node31"><a xlink:href="namespacextb__solv__lebedev.html#a6f54a4b602cd42fc9fb45d28bff7b049" target="_top" xlink:title=" ">
<polygon fill="white" stroke="black" points="340,-152.5 340,-171.5 480,-171.5 480,-152.5 340,-152.5"/>
<text text-anchor="middle" x="410" y="-159.5" font-family="Helvetica,sans-Serif" font-size="10.00">xtb_solv_lebedev::ld3890</text>
</a>
</g>
</g>
<!-- Node1&#45;&gt;Node31 -->
<g id="edge56" class="edge">
<title>Node1&#45;&gt;Node31</title>
<path fill="none" stroke="midnightblue" d="M584.1,-579.25C574.62,-504.42 537.49,-239.6 480,-181 476.26,-177.19 471.83,-174.12 467.04,-171.65"/>
<polygon fill="midnightblue" stroke="midnightblue" points="580.63,-579.73 585.34,-589.22 587.58,-578.86 580.63,-579.73"/>
</g>
<!-- Node32 -->
<g id="node32" class="node">
<title>Node32</title>
<g id="a_node32"><a xlink:href="namespacextb__solv__lebedev.html#aaed39b7a3537cdac24b9b5651967da0d" target="_top" xlink:title=" ">
<polygon fill="white" stroke="black" points="340,-114.5 340,-133.5 480,-133.5 480,-114.5 340,-114.5"/>
<text text-anchor="middle" x="410" y="-121.5" font-family="Helvetica,sans-Serif" font-size="10.00">xtb_solv_lebedev::ld4334</text>
</a>
</g>
</g>
<!-- Node1&#45;&gt;Node32 -->
<g id="edge58" class="edge">
<title>Node1&#45;&gt;Node32</title>
<path fill="none" stroke="midnightblue" d="M584.52,-579.01C576.29,-499.61 542.16,-207.65 480,-143 476.3,-139.15 471.89,-136.06 467.12,-133.57"/>
<polygon fill="midnightblue" stroke="midnightblue" points="581.06,-579.54 585.55,-589.13 588.02,-578.83 581.06,-579.54"/>
</g>
<!-- Node33 -->
<g id="node33" class="node">
<title>Node33</title>
<g id="a_node33"><a xlink:href="namespacextb__solv__lebedev.html#a45d7142289088c922195cddb22828181" target="_top" xlink:title=" ">
<polygon fill="white" stroke="black" points="340,-76.5 340,-95.5 480,-95.5 480,-76.5 340,-76.5"/>
<text text-anchor="middle" x="410" y="-83.5" font-family="Helvetica,sans-Serif" font-size="10.00">xtb_solv_lebedev::ld4802</text>
</a>
</g>
</g>
<!-- Node1&#45;&gt;Node33 -->
<g id="edge60" class="edge">
<title>Node1&#45;&gt;Node33</title>
<path fill="none" stroke="midnightblue" d="M584.91,-578.98C577.87,-495.45 546.91,-175.79 480,-105 476.33,-101.12 471.95,-98 467.19,-95.51"/>
<polygon fill="midnightblue" stroke="midnightblue" points="581.44,-579.47 585.74,-589.15 588.41,-578.9 581.44,-579.47"/>
</g>
<!-- Node34 -->
<g id="node34" class="node">
<title>Node34</title>
<g id="a_node34"><a xlink:href="namespacextb__solv__lebedev.html#a53e92b9332fb37fa76bd3e06ad4ad903" target="_top" xlink:title=" ">
<polygon fill="white" stroke="black" points="340,-38.5 340,-57.5 480,-57.5 480,-38.5 340,-38.5"/>
<text text-anchor="middle" x="410" y="-45.5" font-family="Helvetica,sans-Serif" font-size="10.00">xtb_solv_lebedev::ld5294</text>
</a>
</g>
</g>
<!-- Node1&#45;&gt;Node34 -->
<g id="edge62" class="edge">
<title>Node1&#45;&gt;Node34</title>
<path fill="none" stroke="midnightblue" d="M585.25,-579.14C579.38,-491.95 551.73,-144.02 480,-67 476.44,-63.18 472.2,-60.1 467.58,-57.63"/>
<polygon fill="midnightblue" stroke="midnightblue" points="581.77,-579.51 585.91,-589.26 588.75,-579.05 581.77,-579.51"/>
</g>
<!-- Node35 -->
<g id="node35" class="node">
<title>Node35</title>
<g id="a_node35"><a xlink:href="namespacextb__solv__lebedev.html#aee42b2e83eba3386f988f508504b7acf" target="_top" xlink:title=" ">
<polygon fill="white" stroke="black" points="340,-0.5 340,-19.5 480,-19.5 480,-0.5 340,-0.5"/>
<text text-anchor="middle" x="410" y="-7.5" font-family="Helvetica,sans-Serif" font-size="10.00">xtb_solv_lebedev::ld5810</text>
</a>
</g>
</g>
<!-- Node1&#45;&gt;Node35 -->
<g id="edge64" class="edge">
<title>Node1&#45;&gt;Node35</title>
<path fill="none" stroke="midnightblue" d="M585.54,-579.2C580.76,-488.34 556.53,-112.25 480,-29 476.47,-25.16 472.24,-22.07 467.63,-19.58"/>
<polygon fill="midnightblue" stroke="midnightblue" points="582.06,-579.64 586.06,-589.45 589.05,-579.29 582.06,-579.64"/>
</g>
<!-- Node3 -->
<g id="node3" class="node">
<title>Node3</title>
<g id="a_node3"><a xlink:href="namespacextb__solv__lebedev.html#ac83e2c4405adc3111ba955be33a53f60" target="_top" xlink:title="Wrapper for generation of angular Lebedev&#45;Laikov grids.">
<polygon fill="white" stroke="black" points="144,-589.5 144,-608.5 304,-608.5 304,-589.5 144,-589.5"/>
<text text-anchor="middle" x="224" y="-596.5" font-family="Helvetica,sans-Serif" font-size="10.00">xtb_solv_lebedev::getanggrid</text>
</a>
</g>
</g>
<!-- Node2&#45;&gt;Node3 -->
<g id="edge2" class="edge">
<title>Node2&#45;&gt;Node3</title>
<path fill="none" stroke="midnightblue" d="M343.9,-1172.68C342.53,-1171.54 341.22,-1170.31 340,-1169 259.27,-1082.44 229.94,-676.18 225.59,-608.55"/>
<polygon fill="midnightblue" stroke="midnightblue" points="342.16,-1175.73 352.42,-1178.37 346.05,-1169.9 342.16,-1175.73"/>
</g>
<!-- Node4 -->
<g id="node4" class="node">
<title>Node4</title>
<g id="a_node4"><a xlink:href="interfacextb__solv__gbsa_1_1init.html#ac841e40409ec6f0da1b15c41f24db116" target="_top" xlink:title="Initialize data straucture.">
<polygon fill="white" stroke="black" points="0,-584 0,-614 108,-614 108,-584 0,-584"/>
<text text-anchor="start" x="8" y="-602" font-family="Helvetica,sans-Serif" font-size="10.00">xtb_solv_gbsa::init</text>
<text text-anchor="middle" x="54" y="-591" font-family="Helvetica,sans-Serif" font-size="10.00">::initborn</text>
</a>
</g>
</g>
<!-- Node3&#45;&gt;Node4 -->
<g id="edge3" class="edge">
<title>Node3&#45;&gt;Node4</title>
<path fill="none" stroke="midnightblue" d="M133.71,-599C125.03,-599 116.42,-599 108.26,-599"/>
<polygon fill="midnightblue" stroke="midnightblue" points="133.92,-602.5 143.92,-599 133.92,-595.5 133.92,-602.5"/>
</g>
<!-- Node5&#45;&gt;Node3 -->
<g id="edge5" class="edge">
<title>Node5&#45;&gt;Node3</title>
<path fill="none" stroke="midnightblue" d="M344.41,-1135.05C342.85,-1133.8 341.38,-1132.46 340,-1131 264.2,-1050.84 231,-674.32 225.75,-608.75"/>
<polygon fill="midnightblue" stroke="midnightblue" points="342.51,-1137.99 352.81,-1140.49 346.32,-1132.12 342.51,-1137.99"/>
</g>
<!-- Node6&#45;&gt;Node3 -->
<g id="edge7" class="edge">
<title>Node6&#45;&gt;Node3</title>
<path fill="none" stroke="midnightblue" d="M344.44,-1097.02C342.88,-1095.78 341.39,-1094.44 340,-1093 269.08,-1019.18 232.12,-671.98 225.94,-608.86"/>
<polygon fill="midnightblue" stroke="midnightblue" points="342.57,-1099.98 352.87,-1102.43 346.35,-1094.08 342.57,-1099.98"/>
</g>
<!-- Node7&#45;&gt;Node3 -->
<g id="edge9" class="edge">
<title>Node7&#45;&gt;Node3</title>
<path fill="none" stroke="midnightblue" d="M344.48,-1058.99C342.9,-1057.76 341.4,-1056.43 340,-1055 273.9,-987.46 233.31,-669.18 226.14,-608.87"/>
<polygon fill="midnightblue" stroke="midnightblue" points="342.63,-1061.96 352.95,-1064.36 346.38,-1056.05 342.63,-1061.96"/>
</g>
<!-- Node8&#45;&gt;Node3 -->
<g id="edge11" class="edge">
<title>Node8&#45;&gt;Node3</title>
<path fill="none" stroke="midnightblue" d="M344.63,-1021.03C343,-1019.79 341.45,-1018.45 340,-1017 278.67,-955.66 234.55,-665.91 226.37,-608.79"/>
<polygon fill="midnightblue" stroke="midnightblue" points="343.02,-1024.16 353.37,-1026.45 346.71,-1018.2 343.02,-1024.16"/>
</g>
<!-- Node9&#45;&gt;Node3 -->
<g id="edge13" class="edge">
<title>Node9&#45;&gt;Node3</title>
<path fill="none" stroke="midnightblue" d="M344.68,-982.98C343.03,-981.76 341.47,-980.43 340,-979 228.23,-870 224.22,-656.41 224.78,-608.63"/>
<polygon fill="midnightblue" stroke="midnightblue" points="343.11,-986.13 353.47,-988.34 346.75,-980.15 343.11,-986.13"/>
</g>
<!-- Node10&#45;&gt;Node3 -->
<g id="edge15" class="edge">
<title>Node10&#45;&gt;Node3</title>
<path fill="none" stroke="midnightblue" d="M345.27,-945.31C343.42,-944 341.65,-942.56 340,-941 237.6,-844.15 226.37,-653.36 225.15,-608.57"/>
<polygon fill="midnightblue" stroke="midnightblue" points="343.53,-948.35 353.93,-950.38 347.07,-942.31 343.53,-948.35"/>
</g>
<!-- Node11&#45;&gt;Node3 -->
<g id="edge17" class="edge">
<title>Node11&#45;&gt;Node3</title>
<path fill="none" stroke="midnightblue" d="M345.47,-907.32C343.55,-906 341.72,-904.56 340,-903 246.98,-818.25 228.76,-650.47 225.6,-608.63"/>
<polygon fill="midnightblue" stroke="midnightblue" points="343.99,-910.5 354.41,-912.39 347.44,-904.41 343.99,-910.5"/>
</g>
<!-- Node12&#45;&gt;Node3 -->
<g id="edge19" class="edge">
<title>Node12&#45;&gt;Node3</title>
<path fill="none" stroke="midnightblue" d="M345.69,-869.3C343.7,-867.99 341.79,-866.56 340,-865 256.28,-792.21 231.47,-647.47 226.19,-608.73"/>
<polygon fill="midnightblue" stroke="midnightblue" points="344.48,-872.63 354.93,-874.35 347.84,-866.48 344.48,-872.63"/>
</g>
<!-- Node13&#45;&gt;Node3 -->
<g id="edge21" class="edge">
<title>Node13&#45;&gt;Node3</title>
<path fill="none" stroke="midnightblue" d="M346.56,-831.63C344.26,-830.23 342.06,-828.69 340,-827 265.23,-765.77 234.41,-643.49 226.91,-608.53"/>
<polygon fill="midnightblue" stroke="midnightblue" points="345.36,-834.94 355.86,-836.39 348.55,-828.71 345.36,-834.94"/>
</g>
<!-- Node14&#45;&gt;Node3 -->
<g id="edge23" class="edge">
<title>Node14&#45;&gt;Node3</title>
<path fill="none" stroke="midnightblue" d="M347.96,-794.12C345.17,-792.59 342.5,-790.89 340,-789 274.19,-739.22 238.05,-639.9 227.96,-608.64"/>
<polygon fill="midnightblue" stroke="midnightblue" points="346.66,-797.38 357.2,-798.46 349.64,-791.04 346.66,-797.38"/>
</g>
<!-- Node15&#45;&gt;Node3 -->
<g id="edge25" class="edge">
<title>Node15&#45;&gt;Node3</title>
<path fill="none" stroke="midnightblue" d="M349.75,-756.57C346.34,-754.92 343.06,-753.07 340,-751 282.76,-712.18 242.33,-635.44 229.42,-608.56"/>
<polygon fill="midnightblue" stroke="midnightblue" points="348.43,-759.81 359.01,-760.48 351.15,-753.37 348.43,-759.81"/>
</g>
<!-- Node16&#45;&gt;Node3 -->
<g id="edge27" class="edge">
<title>Node16&#45;&gt;Node3</title>
<path fill="none" stroke="midnightblue" d="M352.23,-718.96C347.98,-717.21 343.85,-715.23 340,-713 291.1,-684.68 248.09,-630.56 231.87,-608.6"/>
<polygon fill="midnightblue" stroke="midnightblue" points="351.07,-722.27 361.67,-722.45 353.5,-715.7 351.07,-722.27"/>
</g>
<!-- Node17&#45;&gt;Node3 -->
<g id="edge29" class="edge">
<title>Node17&#45;&gt;Node3</title>
<path fill="none" stroke="midnightblue" d="M356.02,-681.27C350.52,-679.4 345.09,-677.31 340,-675 299.25,-656.49 256.67,-624.47 236.68,-608.55"/>
<polygon fill="midnightblue" stroke="midnightblue" points="355.34,-684.72 365.93,-684.4 357.45,-678.05 355.34,-684.72"/>
</g>
<!-- Node18&#45;&gt;Node3 -->
<g id="edge31" class="edge">
<title>Node18&#45;&gt;Node3</title>
<path fill="none" stroke="midnightblue" d="M363.36,-643.78C355.55,-641.59 347.53,-639.28 340,-637 310.01,-627.92 275.98,-616.54 252.76,-608.61"/>
<polygon fill="midnightblue" stroke="midnightblue" points="362.52,-647.18 373.09,-646.48 364.39,-640.44 362.52,-647.18"/>
</g>
<!-- Node19&#45;&gt;Node3 -->
<g id="edge33" class="edge">
<title>Node19&#45;&gt;Node3</title>
<path fill="none" stroke="midnightblue" d="M329.96,-609.84C321.36,-608.95 312.61,-608.05 304.02,-607.16"/>
<polygon fill="midnightblue" stroke="midnightblue" points="329.66,-613.33 339.96,-610.87 330.37,-606.36 329.66,-613.33"/>
</g>
<!-- Node20&#45;&gt;Node3 -->
<g id="edge35" class="edge">
<title>Node20&#45;&gt;Node3</title>
<path fill="none" stroke="midnightblue" d="M329.96,-588.16C321.36,-589.05 312.61,-589.95 304.02,-590.84"/>
<polygon fill="midnightblue" stroke="midnightblue" points="330.37,-591.64 339.96,-587.13 329.66,-584.67 330.37,-591.64"/>
</g>
<!-- Node21&#45;&gt;Node3 -->
<g id="edge37" class="edge">
<title>Node21&#45;&gt;Node3</title>
<path fill="none" stroke="midnightblue" d="M363.36,-554.22C355.55,-556.41 347.53,-558.72 340,-561 310.01,-570.08 275.98,-581.46 252.76,-589.39"/>
<polygon fill="midnightblue" stroke="midnightblue" points="364.39,-557.56 373.09,-551.52 362.52,-550.82 364.39,-557.56"/>
</g>
<!-- Node22&#45;&gt;Node3 -->
<g id="edge39" class="edge">
<title>Node22&#45;&gt;Node3</title>
<path fill="none" stroke="midnightblue" d="M356.02,-516.73C350.52,-518.6 345.09,-520.69 340,-523 299.25,-541.51 256.67,-573.53 236.68,-589.45"/>
<polygon fill="midnightblue" stroke="midnightblue" points="357.45,-519.95 365.93,-513.6 355.34,-513.28 357.45,-519.95"/>
</g>
<!-- Node23&#45;&gt;Node3 -->
<g id="edge41" class="edge">
<title>Node23&#45;&gt;Node3</title>
<path fill="none" stroke="midnightblue" d="M352.23,-479.04C347.98,-480.79 343.85,-482.77 340,-485 291.1,-513.32 248.09,-567.44 231.87,-589.4"/>
<polygon fill="midnightblue" stroke="midnightblue" points="353.5,-482.3 361.67,-475.55 351.07,-475.73 353.5,-482.3"/>
</g>
<!-- Node24&#45;&gt;Node3 -->
<g id="edge43" class="edge">
<title>Node24&#45;&gt;Node3</title>
<path fill="none" stroke="midnightblue" d="M349.75,-441.43C346.34,-443.08 343.06,-444.93 340,-447 282.76,-485.82 242.33,-562.56 229.42,-589.44"/>
<polygon fill="midnightblue" stroke="midnightblue" points="351.15,-444.63 359.01,-437.52 348.43,-438.19 351.15,-444.63"/>
</g>
<!-- Node25&#45;&gt;Node3 -->
<g id="edge45" class="edge">
<title>Node25&#45;&gt;Node3</title>
<path fill="none" stroke="midnightblue" d="M347.96,-403.88C345.17,-405.41 342.5,-407.11 340,-409 274.19,-458.78 238.05,-558.1 227.96,-589.36"/>
<polygon fill="midnightblue" stroke="midnightblue" points="349.64,-406.96 357.2,-399.54 346.66,-400.62 349.64,-406.96"/>
</g>
<!-- Node26&#45;&gt;Node3 -->
<g id="edge47" class="edge">
<title>Node26&#45;&gt;Node3</title>
<path fill="none" stroke="midnightblue" d="M346.56,-366.37C344.26,-367.77 342.06,-369.31 340,-371 265.23,-432.23 234.41,-554.51 226.91,-589.47"/>
<polygon fill="midnightblue" stroke="midnightblue" points="348.55,-369.29 355.86,-361.61 345.36,-363.06 348.55,-369.29"/>
</g>
<!-- Node27&#45;&gt;Node3 -->
<g id="edge49" class="edge">
<title>Node27&#45;&gt;Node3</title>
<path fill="none" stroke="midnightblue" d="M345.69,-328.7C343.7,-330.01 341.79,-331.44 340,-333 256.28,-405.79 231.47,-550.53 226.19,-589.27"/>
<polygon fill="midnightblue" stroke="midnightblue" points="347.84,-331.52 354.93,-323.65 344.48,-325.37 347.84,-331.52"/>
</g>
<!-- Node28&#45;&gt;Node3 -->
<g id="edge51" class="edge">
<title>Node28&#45;&gt;Node3</title>
<path fill="none" stroke="midnightblue" d="M345.47,-290.68C343.55,-292 341.72,-293.44 340,-295 246.98,-379.75 228.76,-547.53 225.6,-589.37"/>
<polygon fill="midnightblue" stroke="midnightblue" points="347.44,-293.59 354.41,-285.61 343.99,-287.5 347.44,-293.59"/>
</g>
<!-- Node29&#45;&gt;Node3 -->
<g id="edge53" class="edge">
<title>Node29&#45;&gt;Node3</title>
<path fill="none" stroke="midnightblue" d="M345.27,-252.69C343.42,-254 341.65,-255.44 340,-257 237.6,-353.85 226.37,-544.64 225.15,-589.43"/>
<polygon fill="midnightblue" stroke="midnightblue" points="347.07,-255.69 353.93,-247.62 343.53,-249.65 347.07,-255.69"/>
</g>
<!-- Node30&#45;&gt;Node3 -->
<g id="edge55" class="edge">
<title>Node30&#45;&gt;Node3</title>
<path fill="none" stroke="midnightblue" d="M344.68,-215.02C343.03,-216.24 341.47,-217.57 340,-219 228.23,-328 224.22,-541.59 224.78,-589.37"/>
<polygon fill="midnightblue" stroke="midnightblue" points="346.75,-217.85 353.47,-209.66 343.11,-211.87 346.75,-217.85"/>
</g>
<!-- Node31&#45;&gt;Node3 -->
<g id="edge57" class="edge">
<title>Node31&#45;&gt;Node3</title>
<path fill="none" stroke="midnightblue" d="M344.63,-176.97C343,-178.21 341.45,-179.55 340,-181 278.67,-242.34 234.55,-532.09 226.37,-589.21"/>
<polygon fill="midnightblue" stroke="midnightblue" points="346.71,-179.8 353.37,-171.55 343.02,-173.84 346.71,-179.8"/>
</g>
<!-- Node32&#45;&gt;Node3 -->
<g id="edge59" class="edge">
<title>Node32&#45;&gt;Node3</title>
<path fill="none" stroke="midnightblue" d="M344.48,-139.01C342.9,-140.24 341.4,-141.57 340,-143 273.9,-210.54 233.31,-528.82 226.14,-589.13"/>
<polygon fill="midnightblue" stroke="midnightblue" points="346.38,-141.95 352.95,-133.64 342.63,-136.04 346.38,-141.95"/>
</g>
<!-- Node33&#45;&gt;Node3 -->
<g id="edge61" class="edge">
<title>Node33&#45;&gt;Node3</title>
<path fill="none" stroke="midnightblue" d="M344.44,-100.98C342.88,-102.22 341.39,-103.56 340,-105 269.08,-178.82 232.12,-526.02 225.94,-589.14"/>
<polygon fill="midnightblue" stroke="midnightblue" points="346.35,-103.92 352.87,-95.57 342.57,-98.02 346.35,-103.92"/>
</g>
<!-- Node34&#45;&gt;Node3 -->
<g id="edge63" class="edge">
<title>Node34&#45;&gt;Node3</title>
<path fill="none" stroke="midnightblue" d="M344.41,-62.95C342.85,-64.2 341.38,-65.54 340,-67 264.2,-147.16 231,-523.68 225.75,-589.25"/>
<polygon fill="midnightblue" stroke="midnightblue" points="346.32,-65.88 352.81,-57.51 342.51,-60.01 346.32,-65.88"/>
</g>
<!-- Node35&#45;&gt;Node3 -->
<g id="edge65" class="edge">
<title>Node35&#45;&gt;Node3</title>
<path fill="none" stroke="midnightblue" d="M343.9,-25.32C342.53,-26.46 341.22,-27.69 340,-29 259.27,-115.56 229.94,-521.82 225.59,-589.45"/>
<polygon fill="midnightblue" stroke="midnightblue" points="346.05,-28.1 352.42,-19.63 342.16,-22.27 346.05,-28.1"/>
</g>
</g>
</svg>
        <g id="navigator" transform="translate(0 0)" fill="#404254">
                <rect fill="#f2f5e9" fill-opacity="0.5" stroke="#606060" stroke-width=".5" x="0" y="0" width="60" height="60"/>
                <use id="zoomplus" xlink:href="#zoomPlus" x="17" y="9" onmousedown="handleZoom(evt,'in')"/>
                <use id="zoomminus" xlink:href="#zoomMin" x="42" y="9" onmousedown="handleZoom(evt,'out')"/>
                <use id="reset" xlink:href="#resetDef" x="30" y="36" onmousedown="handleReset()"/>
                <g id="arrowUp" xlink:href="#dirArrow" transform="translate(30 24)" onmousedown="handlePan(0,-1)">
                  <use xlink:href="#rim" fill="#404040">
                        <set attributeName="fill" to="#808080" begin="arrowUp.mouseover" end="arrowUp.mouseout"/>
                  </use>
                  <path fill="none" stroke="white" stroke-width="1.5" d="M0,-3.0v7 M-2.5,-0.5L0,-3.0L2.5,-0.5"/>
                </g>
                <g id="arrowRight" xlink:href="#dirArrow" transform="rotate(90) translate(36 -43)" onmousedown="handlePan(1,0)">
                  <use xlink:href="#rim" fill="#404040">
                        <set attributeName="fill" to="#808080" begin="arrowRight.mouseover" end="arrowRight.mouseout"/>
                  </use>
                  <path fill="none" stroke="white" stroke-width="1.5" d="M0,-3.0v7 M-2.5,-0.5L0,-3.0L2.5,-0.5"/>
                </g>
                <g id="arrowDown" xlink:href="#dirArrow" transform="rotate(180) translate(-30 -48)" onmousedown="handlePan(0,1)">
                  <use xlink:href="#rim" fill="#404040">
                        <set attributeName="fill" to="#808080" begin="arrowDown.mouseover" end="arrowDown.mouseout"/>
                  </use>
                  <path fill="none" stroke="white" stroke-width="1.5" d="M0,-3.0v7 M-2.5,-0.5L0,-3.0L2.5,-0.5"/>
                </g>
                <g id="arrowLeft" xlink:href="#dirArrow" transform="rotate(270) translate(-36 17)" onmousedown="handlePan(-1,0)">
                  <use xlink:href="#rim" fill="#404040">
                        <set attributeName="fill" to="#808080" begin="arrowLeft.mouseover" end="arrowLeft.mouseout"/>
                  </use>
                  <path fill="none" stroke="white" stroke-width="1.5" d="M0,-3.0v7 M-2.5,-0.5L0,-3.0L2.5,-0.5"/>
                </g>
        </g>
        <svg viewBox="0 0 15 15" width="100%" height="30px" preserveAspectRatio="xMaxYMin meet">
         <g id="arrow_out" transform="scale(0.3 0.3)">
          <a xlink:href="namespacextb__solv__lebedev_a3a72086d50f3732015e5e975181edd44_icgraph_org.svg" target="_base">
           <rect id="button" ry="5" rx="5" y="6" x="6" height="38" width="38"
                fill="#f2f5e9" fill-opacity="0.5" stroke="#606060" stroke-width="1.0"/>
           <path id="arrow"
             d="M 11.500037,31.436501 C 11.940474,20.09759 22.043105,11.32322 32.158766,21.979434 L 37.068811,17.246167 C 37.068811,17.246167 37.088388,32 37.088388,32 L 22.160133,31.978069 C 22.160133,31.978069 26.997745,27.140456 26.997745,27.140456 C 18.528582,18.264221 13.291696,25.230495 11.500037,31.436501 z"
             style="fill:#404040;"/>
          </a>
         </g>
        </svg>
</svg>
