<?xml version="1.0" encoding="UTF-8" standalone="no"?>
<!DOCTYPE svg PUBLIC "-//W3C//DTD SVG 1.1//EN"
 "http://www.w3.org/Graphics/SVG/1.1/DTD/svg11.dtd">
<!-- Generated by graphviz version 2.46.0 (20210122.1329)
 -->
<!-- Title: xtb_api_environment::delenvironment_api Pages: 1 -->
<svg width="435pt" height="61pt"
 viewBox="0.00 0.00 435.00 61.00" xmlns="http://www.w3.org/2000/svg" xmlns:xlink="http://www.w3.org/1999/xlink">
<g id="graph0" class="graph" transform="scale(1 1) rotate(0) translate(4 57)">
<title>xtb_api_environment::delenvironment_api</title>
<polygon fill="white" stroke="transparent" points="-4,4 -4,-57 431,-57 431,4 -4,4"/>
<!-- Node1 -->
<g id="node1" class="node">
<title>Node1</title>
<g id="a_node1"><a xlink:title="Delete a xtb calculation environment object.">
<polygon fill="#bfbfbf" stroke="black" points="0,-22.5 0,-52.5 106,-52.5 106,-22.5 0,-22.5"/>
<text text-anchor="start" x="8" y="-40.5" font-family="Helvetica,sans-Serif" font-size="10.00">xtb_api_environment</text>
<text text-anchor="middle" x="53" y="-29.5" font-family="Helvetica,sans-Serif" font-size="10.00">::delenvironment_api</text>
</a>
</g>
</g>
<!-- Node2 -->
<g id="node2" class="node">
<title>Node2</title>
<g id="a_node2"><a xlink:href="namespacextb__api__utils.html#afd6a69e4c8c1021ccc4bbab8431de1a2" target="_top" xlink:title=" ">
<polygon fill="white" stroke="black" points="284,-28 284,-47 427,-47 427,-28 284,-28"/>
<text text-anchor="middle" x="355.5" y="-35" font-family="Helvetica,sans-Serif" font-size="10.00">xtb_api_utils::checkglobalenv</text>
</a>
</g>
</g>
<!-- Node1&#45;&gt;Node2 -->
<g id="edge1" class="edge">
<title>Node1&#45;&gt;Node2</title>
<path fill="none" stroke="midnightblue" d="M106.11,-39.57C117.91,-39.96 130.38,-40.3 142,-40.5 189.1,-41.3 200.89,-41.16 248,-40.5 256.31,-40.38 264.98,-40.21 273.63,-40.02"/>
<polygon fill="midnightblue" stroke="midnightblue" points="273.84,-43.51 283.76,-39.77 273.67,-36.51 273.84,-43.51"/>
</g>
<!-- Node3 -->
<g id="node3" class="node">
<title>Node3</title>
<g id="a_node3"><a xlink:href="namespacextb__api__environment.html#a1962b75eb266dc250db836f97e2fd4ec" target="_top" xlink:title="Release output unit from this environment.">
<polygon fill="white" stroke="black" points="142,-0.5 142,-30.5 248,-30.5 248,-0.5 142,-0.5"/>
<text text-anchor="start" x="150" y="-18.5" font-family="Helvetica,sans-Serif" font-size="10.00">xtb_api_environment</text>
<text text-anchor="middle" x="195" y="-7.5" font-family="Helvetica,sans-Serif" font-size="10.00">::releaseoutput_api</text>
</a>
</g>
</g>
<!-- Node1&#45;&gt;Node3 -->
<g id="edge2" class="edge">
<title>Node1&#45;&gt;Node3</title>
<path fill="none" stroke="midnightblue" d="M106.13,-29.31C114.51,-27.99 123.26,-26.62 131.85,-25.27"/>
<polygon fill="midnightblue" stroke="midnightblue" points="132.49,-28.71 141.83,-23.7 131.4,-21.79 132.49,-28.71"/>
</g>
<!-- Node3&#45;&gt;Node2 -->
<g id="edge3" class="edge">
<title>Node3&#45;&gt;Node2</title>
<path fill="none" stroke="midnightblue" d="M248.34,-22.76C257.15,-23.99 266.46,-25.28 275.76,-26.57"/>
<polygon fill="midnightblue" stroke="midnightblue" points="275.44,-30.06 285.82,-27.97 276.4,-23.13 275.44,-30.06"/>
</g>
</g>
</svg>
