<?xml version="1.0" encoding="UTF-8" standalone="no"?>
<!DOCTYPE svg PUBLIC "-//W3C//DTD SVG 1.1//EN"
 "http://www.w3.org/Graphics/SVG/1.1/DTD/svg11.dtd">
<!-- Generated by graphviz version 2.46.1 (20210215.1649)
 -->
<!-- Title: xtb_modelhessian::mh_eeq Pages: 1 -->
<svg width="441pt" height="85pt"
 viewBox="0.00 0.00 441.00 85.00" xmlns="http://www.w3.org/2000/svg" xmlns:xlink="http://www.w3.org/1999/xlink">
<g id="graph0" class="graph" transform="scale(1 1) rotate(0) translate(4 81)">
<title>xtb_modelhessian::mh_eeq</title>
<polygon fill="white" stroke="transparent" points="-4,4 -4,-81 437,-81 437,4 -4,4"/>
<!-- Node1 -->
<g id="node1" class="node">
<title>Node1</title>
<g id="a_node1"><a xlink:title=" ">
<polygon fill="#bfbfbf" stroke="black" points="0,-19.5 0,-38.5 134,-38.5 134,-19.5 0,-19.5"/>
<text text-anchor="middle" x="67" y="-26.5" font-family="Helvetica,sans-Serif" font-size="10.00">xtb_modelhessian::mh_eeq</text>
</a>
</g>
</g>
<!-- Node2 -->
<g id="node2" class="node">
<title>Node2</title>
<g id="a_node2"><a xlink:href="namespacextb__modelhessian.html#a0fc5c82305ca92f7b9625a6869c279c8" target="_top" xlink:title=" ">
<polygon fill="white" stroke="black" points="170,-38.5 170,-57.5 282,-57.5 282,-38.5 170,-38.5"/>
<text text-anchor="middle" x="226" y="-45.5" font-family="Helvetica,sans-Serif" font-size="10.00">xtb_modelhessian::ind</text>
</a>
</g>
</g>
<!-- Node1&#45;&gt;Node2 -->
<g id="edge1" class="edge">
<title>Node1&#45;&gt;Node2</title>
<path fill="none" stroke="midnightblue" d="M134.13,-37C142.59,-38.03 151.24,-39.07 159.69,-40.1"/>
<polygon fill="midnightblue" stroke="midnightblue" points="159.52,-43.6 169.86,-41.33 160.36,-36.65 159.52,-43.6"/>
</g>
<!-- Node5 -->
<g id="node5" class="node">
<title>Node5</title>
<g id="a_node5"><a xlink:href="error_8f90.html#a21a6b76d2bc72d8d2ec0a344a6d2298b" target="_top" xlink:title=" ">
<polygon fill="white" stroke="black" points="207,-0.5 207,-19.5 245,-19.5 245,-0.5 207,-0.5"/>
<text text-anchor="middle" x="226" y="-7.5" font-family="Helvetica,sans-Serif" font-size="10.00">raise</text>
</a>
</g>
</g>
<!-- Node1&#45;&gt;Node5 -->
<g id="edge4" class="edge">
<title>Node1&#45;&gt;Node5</title>
<path fill="none" stroke="midnightblue" d="M134.13,-21C156.06,-18.34 179.31,-15.53 196.8,-13.41"/>
<polygon fill="midnightblue" stroke="midnightblue" points="197.38,-16.87 206.89,-12.19 196.54,-9.92 197.38,-16.87"/>
</g>
<!-- Node3 -->
<g id="node3" class="node">
<title>Node3</title>
<g id="a_node3"><a xlink:href="namespacextb__modelhessian.html#ad5b302d227ff0bda37ab6e452a7e71f0" target="_top" xlink:title=" ">
<polygon fill="white" stroke="black" points="318,-57.5 318,-76.5 433,-76.5 433,-57.5 318,-57.5"/>
<text text-anchor="middle" x="375.5" y="-64.5" font-family="Helvetica,sans-Serif" font-size="10.00">xtb_modelhessian::ixyz</text>
</a>
</g>
</g>
<!-- Node2&#45;&gt;Node3 -->
<g id="edge2" class="edge">
<title>Node2&#45;&gt;Node3</title>
<path fill="none" stroke="midnightblue" d="M282.34,-55.13C290.69,-56.2 299.37,-57.32 307.91,-58.42"/>
<polygon fill="midnightblue" stroke="midnightblue" points="307.5,-61.9 317.86,-59.7 308.39,-54.96 307.5,-61.9"/>
</g>
<!-- Node4 -->
<g id="node4" class="node">
<title>Node4</title>
<g id="a_node4"><a xlink:href="namespacextb__modelhessian.html#a4c09cd1aade9a59a35a770f0908823fc" target="_top" xlink:title=" ">
<polygon fill="white" stroke="black" points="319.5,-19.5 319.5,-38.5 431.5,-38.5 431.5,-19.5 319.5,-19.5"/>
<text text-anchor="middle" x="375.5" y="-26.5" font-family="Helvetica,sans-Serif" font-size="10.00">xtb_modelhessian::jnd</text>
</a>
</g>
</g>
<!-- Node2&#45;&gt;Node4 -->
<g id="edge3" class="edge">
<title>Node2&#45;&gt;Node4</title>
<path fill="none" stroke="midnightblue" d="M282.34,-40.87C291.13,-39.74 300.3,-38.56 309.29,-37.4"/>
<polygon fill="midnightblue" stroke="midnightblue" points="309.87,-40.85 319.34,-36.11 308.97,-33.91 309.87,-40.85"/>
</g>
</g>
</svg>
