<?xml version="1.0" encoding="UTF-8" standalone="no"?>
<!DOCTYPE svg PUBLIC "-//W3C//DTD SVG 1.1//EN"
 "http://www.w3.org/Graphics/SVG/1.1/DTD/svg11.dtd">
<!-- Generated by graphviz version 2.43.0 (0)
 -->
<!-- Title: xtb_disp_dftd3::disp_gradient_latp Pages: 1 -->
<svg width="329pt" height="88pt"
 viewBox="0.00 0.00 329.00 88.00" xmlns="http://www.w3.org/2000/svg" xmlns:xlink="http://www.w3.org/1999/xlink">
<g id="graph0" class="graph" transform="scale(1 1) rotate(0) translate(4 84)">
<title>xtb_disp_dftd3::disp_gradient_latp</title>
<polygon fill="white" stroke="transparent" points="-4,4 -4,-84 325,-84 325,4 -4,4"/>
<!-- Node1 -->
<g id="node1" class="node">
<title>Node1</title>
<g id="a_node1"><a xlink:title="Implementation of the pairwise dispersion energy.">
<polygon fill="#bfbfbf" stroke="black" points="207,-24.5 207,-54.5 321,-54.5 321,-24.5 207,-24.5"/>
<text text-anchor="start" x="215" y="-42.5" font-family="Helvetica,sans-Serif" font-size="10.00">xtb_disp_dftd3::disp</text>
<text text-anchor="middle" x="264" y="-31.5" font-family="Helvetica,sans-Serif" font-size="10.00">_gradient_latp</text>
</a>
</g>
</g>
<!-- Node2 -->
<g id="node2" class="node">
<title>Node2</title>
<g id="a_node2"><a xlink:href="interfacextb__disp__dftd3_1_1d3__gradient.html#a235d7c22a675fb31046cc4c4c3474c70" target="_top" xlink:title=" ">
<polygon fill="white" stroke="black" points="0,-49.5 0,-79.5 171,-79.5 171,-49.5 0,-49.5"/>
<text text-anchor="start" x="8" y="-67.5" font-family="Helvetica,sans-Serif" font-size="10.00">xtb_disp_dftd3::d3</text>
<text text-anchor="middle" x="85.5" y="-56.5" font-family="Helvetica,sans-Serif" font-size="10.00">_gradient::d3_full_gradient_latp</text>
</a>
</g>
</g>
<!-- Node1&#45;&gt;Node2 -->
<g id="edge1" class="edge">
<title>Node1&#45;&gt;Node2</title>
<path fill="none" stroke="midnightblue" d="M196.69,-48.89C188.38,-50.07 179.79,-51.29 171.24,-52.5"/>
<polygon fill="midnightblue" stroke="midnightblue" points="197.26,-52.35 206.67,-47.48 196.28,-45.42 197.26,-52.35"/>
</g>
<!-- Node3 -->
<g id="node3" class="node">
<title>Node3</title>
<g id="a_node3"><a xlink:href="interfacextb__disp__dftd3_1_1d3__gradient.html#a60fac913c14ad0a482b3d48bcb51eea3" target="_top" xlink:title=" ">
<polygon fill="white" stroke="black" points="10.5,-0.5 10.5,-30.5 160.5,-30.5 160.5,-0.5 10.5,-0.5"/>
<text text-anchor="start" x="18.5" y="-18.5" font-family="Helvetica,sans-Serif" font-size="10.00">xtb_disp_dftd3::d3</text>
<text text-anchor="middle" x="85.5" y="-7.5" font-family="Helvetica,sans-Serif" font-size="10.00">_gradient::d3_gradient_latp</text>
</a>
</g>
</g>
<!-- Node1&#45;&gt;Node3 -->
<g id="edge2" class="edge">
<title>Node1&#45;&gt;Node3</title>
<path fill="none" stroke="midnightblue" d="M196.54,-30.46C184.83,-28.87 172.57,-27.2 160.67,-25.58"/>
<polygon fill="midnightblue" stroke="midnightblue" points="196.29,-33.96 206.67,-31.84 197.23,-27.02 196.29,-33.96"/>
</g>
</g>
</svg>
