<?xml version="1.0" encoding="UTF-8" standalone="no"?>
<!DOCTYPE svg PUBLIC "-//W3C//DTD SVG 1.1//EN"
 "http://www.w3.org/Graphics/SVG/1.1/DTD/svg11.dtd">
<!-- Generated by graphviz version 2.43.0 (0)
 -->
<!-- Title: xtb_mctc_timings::timing Pages: 1 -->
<svg width="649pt" height="110pt"
 viewBox="0.00 0.00 649.00 110.00" xmlns="http://www.w3.org/2000/svg" xmlns:xlink="http://www.w3.org/1999/xlink">
<g id="graph0" class="graph" transform="scale(1 1) rotate(0) translate(4 106)">
<title>xtb_mctc_timings::timing</title>
<polygon fill="white" stroke="transparent" points="-4,4 -4,-106 645,-106 645,4 -4,4"/>
<!-- Node1 -->
<g id="node1" class="node">
<title>Node1</title>
<g id="a_node1"><a xlink:title=" ">
<polygon fill="#bfbfbf" stroke="black" points="500,-52 500,-71 641,-71 641,-52 500,-52"/>
<text text-anchor="middle" x="570.5" y="-59" font-family="Helvetica,sans-Serif" font-size="10.00">xtb_mctc_timings::timing</text>
</a>
</g>
</g>
<!-- Node2 -->
<g id="node2" class="node">
<title>Node2</title>
<g id="a_node2"><a xlink:href="namespacextb__mctc__timings.html#af2192499295523ddbd79f507298250eb" target="_top" xlink:title=" ">
<polygon fill="white" stroke="black" points="332,-71.5 332,-101.5 464,-101.5 464,-71.5 332,-71.5"/>
<text text-anchor="start" x="340" y="-89.5" font-family="Helvetica,sans-Serif" font-size="10.00">xtb_mctc_timings::start</text>
<text text-anchor="middle" x="398" y="-78.5" font-family="Helvetica,sans-Serif" font-size="10.00">_timing</text>
</a>
</g>
</g>
<!-- Node1&#45;&gt;Node2 -->
<g id="edge1" class="edge">
<title>Node1&#45;&gt;Node2</title>
<path fill="none" stroke="midnightblue" d="M494.49,-72.5C484.35,-73.99 474,-75.5 464.05,-76.96"/>
<polygon fill="midnightblue" stroke="midnightblue" points="495.17,-75.94 504.55,-71.02 494.15,-69.01 495.17,-75.94"/>
</g>
<!-- Node3 -->
<g id="node3" class="node">
<title>Node3</title>
<g id="a_node3"><a xlink:href="namespacextb__mctc__timings.html#a5bca6482ad76807edae584556dc04977" target="_top" xlink:title=" ">
<polygon fill="white" stroke="black" points="332.5,-22.5 332.5,-52.5 463.5,-52.5 463.5,-22.5 332.5,-22.5"/>
<text text-anchor="start" x="340.5" y="-40.5" font-family="Helvetica,sans-Serif" font-size="10.00">xtb_mctc_timings::stop</text>
<text text-anchor="middle" x="398" y="-29.5" font-family="Helvetica,sans-Serif" font-size="10.00">_timing</text>
</a>
</g>
</g>
<!-- Node1&#45;&gt;Node3 -->
<g id="edge2" class="edge">
<title>Node1&#45;&gt;Node3</title>
<path fill="none" stroke="midnightblue" d="M491.54,-50.53C482.19,-49.21 472.72,-47.88 463.59,-46.59"/>
<polygon fill="midnightblue" stroke="midnightblue" points="491.23,-54.02 501.62,-51.95 492.21,-47.09 491.23,-54.02"/>
</g>
<!-- Node4 -->
<g id="node4" class="node">
<title>Node4</title>
<g id="a_node4"><a xlink:href="namespacextb__prog__thermo.html#adb2b1af9c4536efaa8d399da0c89d209" target="_top" xlink:title="Main program of the thermo submodule.">
<polygon fill="white" stroke="black" points="139,-50 139,-69 296,-69 296,-50 139,-50"/>
<text text-anchor="middle" x="217.5" y="-57" font-family="Helvetica,sans-Serif" font-size="10.00">xtb_prog_thermo::xtbthermo</text>
</a>
</g>
</g>
<!-- Node3&#45;&gt;Node4 -->
<g id="edge3" class="edge">
<title>Node3&#45;&gt;Node4</title>
<path fill="none" stroke="midnightblue" d="M322.16,-46.72C313.42,-47.8 304.5,-48.9 295.73,-49.98"/>
<polygon fill="midnightblue" stroke="midnightblue" points="322.81,-50.17 332.31,-45.47 321.95,-43.22 322.81,-50.17"/>
</g>
<!-- Node6 -->
<g id="node6" class="node">
<title>Node6</title>
<g id="a_node6"><a xlink:href="namespacextb__prog__topology.html#aa263269ef9a32674220b4f1bfda0c066" target="_top" xlink:title="Main program of the topology submodule.">
<polygon fill="white" stroke="black" points="161,-0.5 161,-30.5 274,-30.5 274,-0.5 161,-0.5"/>
<text text-anchor="start" x="169" y="-18.5" font-family="Helvetica,sans-Serif" font-size="10.00">xtb_prog_topology::</text>
<text text-anchor="middle" x="217.5" y="-7.5" font-family="Helvetica,sans-Serif" font-size="10.00">xtbtopology</text>
</a>
</g>
</g>
<!-- Node3&#45;&gt;Node6 -->
<g id="edge5" class="edge">
<title>Node3&#45;&gt;Node6</title>
<path fill="none" stroke="midnightblue" d="M322.36,-28.3C306.21,-26.31 289.4,-24.24 274.14,-22.36"/>
<polygon fill="midnightblue" stroke="midnightblue" points="321.95,-31.78 332.31,-29.53 322.81,-24.83 321.95,-31.78"/>
</g>
<!-- Node5 -->
<g id="node5" class="node">
<title>Node5</title>
<g id="a_node5"><a xlink:href="primary_8f90.html#a2a67903cf5be605c5b6d3c362c6a3c5c" target="_top" xlink:title="The primary driver for the xtb program package.">
<polygon fill="white" stroke="black" points="0,-28 0,-47 103,-47 103,-28 0,-28"/>
<text text-anchor="middle" x="51.5" y="-35" font-family="Helvetica,sans-Serif" font-size="10.00">xtb_prog_primary</text>
</a>
</g>
</g>
<!-- Node4&#45;&gt;Node5 -->
<g id="edge4" class="edge">
<title>Node4&#45;&gt;Node5</title>
<path fill="none" stroke="midnightblue" d="M135.49,-48.63C124.53,-47.16 113.55,-45.69 103.33,-44.32"/>
<polygon fill="midnightblue" stroke="midnightblue" points="135.14,-52.12 145.52,-49.98 136.08,-45.18 135.14,-52.12"/>
</g>
<!-- Node6&#45;&gt;Node5 -->
<g id="edge6" class="edge">
<title>Node6&#45;&gt;Node5</title>
<path fill="none" stroke="midnightblue" d="M150.68,-24.33C134.8,-26.46 118.06,-28.71 103,-30.73"/>
<polygon fill="midnightblue" stroke="midnightblue" points="151.53,-27.75 160.98,-22.95 150.6,-20.81 151.53,-27.75"/>
</g>
</g>
</svg>
