<?xml version="1.0" encoding="UTF-8" standalone="no"?>
<!DOCTYPE svg PUBLIC "-//W3C//DTD SVG 1.1//EN"
 "http://www.w3.org/Graphics/SVG/1.1/DTD/svg11.dtd">
<!-- Generated by graphviz version 2.46.0 (20210122.1329)
 -->
<!-- Title: xtb_printout::writecosmofile Pages: 1 -->
<svg width="544pt" height="142pt"
 viewBox="0.00 0.00 544.00 142.00" xmlns="http://www.w3.org/2000/svg" xmlns:xlink="http://www.w3.org/1999/xlink">
<g id="graph0" class="graph" transform="scale(1 1) rotate(0) translate(4 138)">
<title>xtb_printout::writecosmofile</title>
<polygon fill="white" stroke="transparent" points="-4,4 -4,-138 540,-138 540,4 -4,4"/>
<!-- Node1 -->
<g id="node1" class="node">
<title>Node1</title>
<g id="a_node1"><a xlink:title=" ">
<polygon fill="#bfbfbf" stroke="black" points="0,-57.5 0,-76.5 134,-76.5 134,-57.5 0,-57.5"/>
<text text-anchor="middle" x="67" y="-64.5" font-family="Helvetica,sans-Serif" font-size="10.00">xtb_printout::writecosmofile</text>
</a>
</g>
</g>
<!-- Node2 -->
<g id="node2" class="node">
<title>Node2</title>
<g id="a_node2"><a xlink:href="filetools_8F90.html#abe40c19bea97456da4d616af69059aeb" target="_top" xlink:title=" ">
<polygon fill="white" stroke="black" points="216,-114.5 216,-133.5 273,-133.5 273,-114.5 216,-114.5"/>
<text text-anchor="middle" x="244.5" y="-121.5" font-family="Helvetica,sans-Serif" font-size="10.00">close_file</text>
</a>
</g>
</g>
<!-- Node1&#45;&gt;Node2 -->
<g id="edge1" class="edge">
<title>Node1&#45;&gt;Node2</title>
<path fill="none" stroke="midnightblue" d="M91.66,-76.61C112.18,-84.75 142.78,-96.44 170,-105 181.57,-108.64 194.32,-112.12 205.91,-115.08"/>
<polygon fill="midnightblue" stroke="midnightblue" points="205.18,-118.51 215.73,-117.54 206.89,-111.72 205.18,-118.51"/>
</g>
<!-- Node3 -->
<g id="node3" class="node">
<title>Node3</title>
<g id="a_node3"><a xlink:href="filetools_8F90.html#a68160ec369d61855ea12b180c7ce8c21" target="_top" xlink:title=" ">
<polygon fill="white" stroke="black" points="217,-76.5 217,-95.5 272,-95.5 272,-76.5 217,-76.5"/>
<text text-anchor="middle" x="244.5" y="-83.5" font-family="Helvetica,sans-Serif" font-size="10.00">open_file</text>
</a>
</g>
</g>
<!-- Node1&#45;&gt;Node3 -->
<g id="edge2" class="edge">
<title>Node1&#45;&gt;Node3</title>
<path fill="none" stroke="midnightblue" d="M134.35,-74.18C158.93,-76.84 185.89,-79.76 206.87,-82.03"/>
<polygon fill="midnightblue" stroke="midnightblue" points="206.63,-85.53 216.95,-83.13 207.39,-78.57 206.63,-85.53"/>
</g>
<!-- Node4 -->
<g id="node4" class="node">
<title>Node4</title>
<g id="a_node4"><a xlink:href="namespacextb__mctc__symbols.html#a168c7f66ee1bbdfa2aa2e39c7a9ff916" target="_top" xlink:title="Convert atomic number to element symbol.">
<polygon fill="white" stroke="black" points="170,-38.5 170,-57.5 319,-57.5 319,-38.5 170,-38.5"/>
<text text-anchor="middle" x="244.5" y="-45.5" font-family="Helvetica,sans-Serif" font-size="10.00">xtb_mctc_symbols::tolcsymbol</text>
</a>
</g>
</g>
<!-- Node1&#45;&gt;Node4 -->
<g id="edge3" class="edge">
<title>Node1&#45;&gt;Node4</title>
<path fill="none" stroke="midnightblue" d="M134.35,-59.82C142.65,-58.92 151.23,-57.99 159.75,-57.07"/>
<polygon fill="midnightblue" stroke="midnightblue" points="160.15,-60.54 169.71,-55.99 159.4,-53.58 160.15,-60.54"/>
</g>
<!-- Node6 -->
<g id="node6" class="node">
<title>Node6</title>
<g id="a_node6"><a xlink:href="namespacextb__mctc__symbols.html#abe837ad333242b4dd3073c5747c13e28" target="_top" xlink:title="Convert atomic number to element symbol.">
<polygon fill="white" stroke="black" points="174,-0.5 174,-19.5 315,-19.5 315,-0.5 174,-0.5"/>
<text text-anchor="middle" x="244.5" y="-7.5" font-family="Helvetica,sans-Serif" font-size="10.00">xtb_mctc_symbols::tosymbol</text>
</a>
</g>
</g>
<!-- Node1&#45;&gt;Node6 -->
<g id="edge5" class="edge">
<title>Node1&#45;&gt;Node6</title>
<path fill="none" stroke="midnightblue" d="M91.66,-57.39C112.18,-49.25 142.78,-37.56 170,-29 177.69,-26.58 185.89,-24.23 193.94,-22.06"/>
<polygon fill="midnightblue" stroke="midnightblue" points="194.84,-25.44 203.62,-19.51 193.05,-18.68 194.84,-25.44"/>
</g>
<!-- Node5 -->
<g id="node5" class="node">
<title>Node5</title>
<g id="a_node5"><a xlink:href="namespacextb__mctc__symbols.html#a6d6f661b368911dfd0b3205be897716c" target="_top" xlink:title="Convert atomic number to element symbol.">
<polygon fill="white" stroke="black" points="355,-38.5 355,-57.5 536,-57.5 536,-38.5 355,-38.5"/>
<text text-anchor="middle" x="445.5" y="-45.5" font-family="Helvetica,sans-Serif" font-size="10.00">xtb_mctc_symbols::numbertolcsymbol</text>
</a>
</g>
</g>
<!-- Node4&#45;&gt;Node5 -->
<g id="edge4" class="edge">
<title>Node4&#45;&gt;Node5</title>
<path fill="none" stroke="midnightblue" d="M319.03,-48C327.39,-48 336.01,-48 344.63,-48"/>
<polygon fill="midnightblue" stroke="midnightblue" points="344.74,-51.5 354.74,-48 344.74,-44.5 344.74,-51.5"/>
</g>
<!-- Node7 -->
<g id="node7" class="node">
<title>Node7</title>
<g id="a_node7"><a xlink:href="namespacextb__mctc__symbols.html#a79bd74e1e6f1eae5387d103d33088dc8" target="_top" xlink:title="Convert atomic number to element symbol.">
<polygon fill="white" stroke="black" points="359,-0.5 359,-19.5 532,-19.5 532,-0.5 359,-0.5"/>
<text text-anchor="middle" x="445.5" y="-7.5" font-family="Helvetica,sans-Serif" font-size="10.00">xtb_mctc_symbols::numbertosymbol</text>
</a>
</g>
</g>
<!-- Node6&#45;&gt;Node7 -->
<g id="edge6" class="edge">
<title>Node6&#45;&gt;Node7</title>
<path fill="none" stroke="midnightblue" d="M315.1,-10C325.91,-10 337.24,-10 348.52,-10"/>
<polygon fill="midnightblue" stroke="midnightblue" points="348.83,-13.5 358.83,-10 348.83,-6.5 348.83,-13.5"/>
</g>
</g>
</svg>
