<?xml version="1.0" encoding="UTF-8" standalone="no"?>
<!DOCTYPE svg PUBLIC "-//W3C//DTD SVG 1.1//EN"
 "http://www.w3.org/Graphics/SVG/1.1/DTD/svg11.dtd">
<!-- Generated by graphviz version 2.46.1 (20210215.1649)
 -->
<!-- Title: xtb_peeq::pbc_build_sh0 Pages: 1 -->
<!--zoomable 170 -->
<svg id="main" version="1.1" xmlns="http://www.w3.org/2000/svg" xmlns:xlink="http://www.w3.org/1999/xlink" xml:space="preserve" onload="init(evt)">
<style type="text/css"><![CDATA[
.edge:hover path { stroke: red; }
.edge:hover polygon { stroke: red; fill: red; }
]]></style>
<script type="text/javascript"><![CDATA[
var edges = document.getElementsByTagName('g');
if (edges && edges.length) {
  for (var i=0;i<edges.length;i++) {
    if (edges[i].id.substr(0,4)=='edge') {
      edges[i].setAttribute('class','edge');
    }
  }
}
]]></script>
        <defs>
                <circle id="rim" cx="0" cy="0" r="7"/>
                <circle id="rim2" cx="0" cy="0" r="3.5"/>
                <g id="zoomPlus">
                        <use xlink:href="#rim" fill="#404040">
                                <set attributeName="fill" to="#808080" begin="zoomplus.mouseover" end="zoomplus.mouseout"/>
                        </use>
                        <path d="M-4,0h8M0,-4v8" fill="none" stroke="white" stroke-width="1.5" pointer-events="none"/>
                </g>
                <g id="zoomMin">
                        <use xlink:href="#rim" fill="#404040">
                                <set attributeName="fill" to="#808080" begin="zoomminus.mouseover" end="zoomminus.mouseout"/>
                        </use>
                        <path d="M-4,0h8" fill="none" stroke="white" stroke-width="1.5" pointer-events="none"/>
                </g>
                <g id="dirArrow">
                        <path fill="none" stroke="white" stroke-width="1.5" d="M0,-3.0v7 M-2.5,-0.5L0,-3.0L2.5,-0.5"/>
                </g>
               <g id="resetDef">
                       <use xlink:href="#rim2" fill="#404040">
                               <set attributeName="fill" to="#808080" begin="reset.mouseover" end="reset.mouseout"/>
                       </use>
               </g>
        </defs>

<script type="text/javascript">
var viewWidth = 559;
var viewHeight = 170;
var sectionId = 'dynsection-12';
</script>
<script xlink:href="svgpan.js"/>
<svg id="graph" class="graph">
<g id="viewport">
<title>xtb_peeq::pbc_build_sh0</title>
<polygon fill="white" stroke="transparent" points="-4,4 -4,-166 555,-166 555,4 -4,4"/>
<!-- Node1 -->
<g id="node1" class="node">
<title>Node1</title>
<g id="a_node1"><a xlink:title=" ">
<polygon fill="#bfbfbf" stroke="black" points="0,-57.5 0,-76.5 122,-76.5 122,-57.5 0,-57.5"/>
<text text-anchor="middle" x="61" y="-64.5" font-family="Helvetica,sans-Serif" font-size="10.00">xtb_peeq::pbc_build_sh0</text>
</a>
</g>
</g>
<!-- Node2 -->
<g id="node2" class="node">
<title>Node2</title>
<g id="a_node2"><a xlink:href="namespacextb__intgrad.html#a3123173ad7d8c3991074f793fdc9c593" target="_top" xlink:title=" ">
<polygon fill="white" stroke="black" points="173.5,-114.5 173.5,-133.5 261.5,-133.5 261.5,-114.5 173.5,-114.5"/>
<text text-anchor="middle" x="217.5" y="-121.5" font-family="Helvetica,sans-Serif" font-size="10.00">xtb_intgrad::dtrf2</text>
</a>
</g>
</g>
<!-- Node1&#45;&gt;Node2 -->
<g id="edge1" class="edge">
<title>Node1&#45;&gt;Node2</title>
<path fill="none" stroke="midnightblue" d="M85.12,-76.63C104.47,-84.57 132.87,-95.96 158,-105 163.93,-107.14 170.24,-109.3 176.44,-111.36"/>
<polygon fill="midnightblue" stroke="midnightblue" points="175.42,-114.71 186.01,-114.5 177.6,-108.06 175.42,-114.71"/>
</g>
<!-- Node3 -->
<g id="node3" class="node">
<title>Node3</title>
<g id="a_node3"><a xlink:href="namespacextb__intgrad.html#a03ad6a36d26f8f5dc85dd5cd44798448" target="_top" xlink:title=" ">
<polygon fill="white" stroke="black" points="158,-76.5 158,-95.5 277,-95.5 277,-76.5 158,-76.5"/>
<text text-anchor="middle" x="217.5" y="-83.5" font-family="Helvetica,sans-Serif" font-size="10.00">xtb_intgrad::get_overlap</text>
</a>
</g>
</g>
<!-- Node1&#45;&gt;Node3 -->
<g id="edge2" class="edge">
<title>Node1&#45;&gt;Node3</title>
<path fill="none" stroke="midnightblue" d="M122.18,-74.4C130.58,-75.43 139.27,-76.5 147.81,-77.55"/>
<polygon fill="midnightblue" stroke="midnightblue" points="147.4,-81.03 157.76,-78.78 148.26,-74.08 147.4,-81.03"/>
</g>
<!-- Node10 -->
<g id="node10" class="node">
<title>Node10</title>
<g id="a_node10"><a xlink:href="constrain__pot_8f90.html#ac62613d43f31c7bfa652ee80083b400b" target="_top" xlink:title=" ">
<polygon fill="white" stroke="black" points="203,-38.5 203,-57.5 232,-57.5 232,-38.5 203,-38.5"/>
<text text-anchor="middle" x="217.5" y="-45.5" font-family="Helvetica,sans-Serif" font-size="10.00">lin</text>
</a>
</g>
</g>
<!-- Node1&#45;&gt;Node10 -->
<g id="edge9" class="edge">
<title>Node1&#45;&gt;Node10</title>
<path fill="none" stroke="midnightblue" d="M122.18,-59.6C146.82,-56.57 173.91,-53.24 192.71,-50.93"/>
<polygon fill="midnightblue" stroke="midnightblue" points="193.24,-54.39 202.74,-49.69 192.39,-47.44 193.24,-54.39"/>
</g>
<!-- Node11 -->
<g id="node11" class="node">
<title>Node11</title>
<g id="a_node11"><a xlink:href="namespacextb__scc__core.html#ab589fe59f0960d1e9adf8ef9d48a6e45" target="_top" xlink:title=" ">
<polygon fill="white" stroke="black" points="159.5,-0.5 159.5,-19.5 275.5,-19.5 275.5,-0.5 159.5,-0.5"/>
<text text-anchor="middle" x="217.5" y="-7.5" font-family="Helvetica,sans-Serif" font-size="10.00">xtb_scc_core::shellpoly</text>
</a>
</g>
</g>
<!-- Node1&#45;&gt;Node11 -->
<g id="edge10" class="edge">
<title>Node1&#45;&gt;Node11</title>
<path fill="none" stroke="midnightblue" d="M85.12,-57.37C104.47,-49.43 132.87,-38.04 158,-29 163.93,-26.86 170.24,-24.7 176.44,-22.64"/>
<polygon fill="midnightblue" stroke="midnightblue" points="177.6,-25.94 186.01,-19.5 175.42,-19.29 177.6,-25.94"/>
</g>
<!-- Node4 -->
<g id="node4" class="node">
<title>Node4</title>
<g id="a_node4"><a xlink:href="namespacextb__intgrad.html#a1f9cf61176ecca277a73a81137c39a39" target="_top" xlink:title=" ">
<polygon fill="white" stroke="black" points="313,-142.5 313,-161.5 423,-161.5 423,-142.5 313,-142.5"/>
<text text-anchor="middle" x="368" y="-149.5" font-family="Helvetica,sans-Serif" font-size="10.00">xtb_intgrad::build_kab</text>
</a>
</g>
</g>
<!-- Node3&#45;&gt;Node4 -->
<g id="edge3" class="edge">
<title>Node3&#45;&gt;Node4</title>
<path fill="none" stroke="midnightblue" d="M254.22,-95.53C261.93,-98.15 269.89,-101.31 277,-105 294.75,-114.21 295.44,-122.43 313,-132 317.49,-134.45 322.35,-136.72 327.24,-138.78"/>
<polygon fill="midnightblue" stroke="midnightblue" points="326.03,-142.07 336.61,-142.49 328.6,-135.56 326.03,-142.07"/>
</g>
<!-- Node5 -->
<g id="node5" class="node">
<title>Node5</title>
<g id="a_node5"><a xlink:href="namespacextb__intgrad.html#af483e162e73c1238a72bd8559f9b26e8" target="_top" xlink:title=" ">
<polygon fill="white" stroke="black" points="323.5,-93 323.5,-123 412.5,-123 412.5,-93 323.5,-93"/>
<text text-anchor="start" x="331.5" y="-111" font-family="Helvetica,sans-Serif" font-size="10.00">xtb_intgrad::build</text>
<text text-anchor="middle" x="368" y="-100" font-family="Helvetica,sans-Serif" font-size="10.00">_sdq_ints</text>
</a>
</g>
</g>
<!-- Node3&#45;&gt;Node5 -->
<g id="edge4" class="edge">
<title>Node3&#45;&gt;Node5</title>
<path fill="none" stroke="midnightblue" d="M277.19,-94.69C289.1,-96.46 301.58,-98.31 313.31,-100.05"/>
<polygon fill="midnightblue" stroke="midnightblue" points="312.99,-103.54 323.39,-101.54 314.01,-96.61 312.99,-103.54"/>
</g>
<!-- Node8 -->
<g id="node8" class="node">
<title>Node8</title>
<g id="a_node8"><a xlink:href="namespacextb__intgrad.html#a49b854bf505ac013ac50d12edb2e0de5" target="_top" xlink:title="returns center of product Gaussian from two Gaussians by GPT">
<polygon fill="white" stroke="black" points="315,-54.5 315,-73.5 421,-73.5 421,-54.5 315,-54.5"/>
<text text-anchor="middle" x="368" y="-61.5" font-family="Helvetica,sans-Serif" font-size="10.00">xtb_intgrad::gpcenter</text>
</a>
</g>
</g>
<!-- Node3&#45;&gt;Node8 -->
<g id="edge7" class="edge">
<title>Node3&#45;&gt;Node8</title>
<path fill="none" stroke="midnightblue" d="M277.19,-77.31C286.36,-75.95 295.86,-74.54 305.1,-73.17"/>
<polygon fill="midnightblue" stroke="midnightblue" points="305.61,-76.63 314.99,-71.71 304.59,-69.71 305.61,-76.63"/>
</g>
<!-- Node9 -->
<g id="node9" class="node">
<title>Node9</title>
<g id="a_node9"><a xlink:href="namespacextb__intgrad.html#a61582fac6cd8cc05eb76d4ced531ef6e" target="_top" xlink:title="calculates a partial overlap in one cartesian direction">
<polygon fill="white" stroke="black" points="322,-16.5 322,-35.5 414,-35.5 414,-16.5 322,-16.5"/>
<text text-anchor="middle" x="368" y="-23.5" font-family="Helvetica,sans-Serif" font-size="10.00">xtb_intgrad::olapp</text>
</a>
</g>
</g>
<!-- Node3&#45;&gt;Node9 -->
<g id="edge8" class="edge">
<title>Node3&#45;&gt;Node9</title>
<path fill="none" stroke="midnightblue" d="M252.43,-76.47C260.62,-73.77 269.24,-70.57 277,-67 294.03,-59.16 296.06,-53.05 313,-45 317.37,-42.92 322.03,-40.95 326.72,-39.12"/>
<polygon fill="midnightblue" stroke="midnightblue" points="328.12,-42.33 336.27,-35.55 325.68,-35.77 328.12,-42.33"/>
</g>
<!-- Node6 -->
<g id="node6" class="node">
<title>Node6</title>
<g id="a_node6"><a xlink:href="namespacextb__intgrad.html#a5bc6f86d12b5b4734f597a88800d8330" target="_top" xlink:title=" ">
<polygon fill="white" stroke="black" points="460.5,-115 460.5,-145 549.5,-145 549.5,-115 460.5,-115"/>
<text text-anchor="start" x="468.5" y="-133" font-family="Helvetica,sans-Serif" font-size="10.00">xtb_intgrad::build</text>
<text text-anchor="middle" x="505" y="-122" font-family="Helvetica,sans-Serif" font-size="10.00">_hshift2</text>
</a>
</g>
</g>
<!-- Node5&#45;&gt;Node6 -->
<g id="edge5" class="edge">
<title>Node5&#45;&gt;Node6</title>
<path fill="none" stroke="midnightblue" d="M412.83,-115.14C424.74,-117.08 437.78,-119.21 450.17,-121.23"/>
<polygon fill="midnightblue" stroke="midnightblue" points="449.96,-124.74 460.39,-122.89 451.08,-117.83 449.96,-124.74"/>
</g>
<!-- Node7 -->
<g id="node7" class="node">
<title>Node7</title>
<g id="a_node7"><a xlink:href="namespacextb__intgrad.html#a040b47e4b45c55028569fcad9704172a" target="_top" xlink:title=" ">
<polygon fill="white" stroke="black" points="459,-76.5 459,-95.5 551,-95.5 551,-76.5 459,-76.5"/>
<text text-anchor="middle" x="505" y="-83.5" font-family="Helvetica,sans-Serif" font-size="10.00">xtb_intgrad::prod3</text>
</a>
</g>
</g>
<!-- Node5&#45;&gt;Node7 -->
<g id="edge6" class="edge">
<title>Node5&#45;&gt;Node7</title>
<path fill="none" stroke="midnightblue" d="M412.83,-100.86C424.26,-98.99 436.72,-96.96 448.66,-95.02"/>
<polygon fill="midnightblue" stroke="midnightblue" points="449.23,-98.47 458.53,-93.41 448.1,-91.56 449.23,-98.47"/>
</g>
</g>
</svg>
        <g id="navigator" transform="translate(0 0)" fill="#404254">
                <rect fill="#f2f5e9" fill-opacity="0.5" stroke="#606060" stroke-width=".5" x="0" y="0" width="60" height="60"/>
                <use id="zoomplus" xlink:href="#zoomPlus" x="17" y="9" onmousedown="handleZoom(evt,'in')"/>
                <use id="zoomminus" xlink:href="#zoomMin" x="42" y="9" onmousedown="handleZoom(evt,'out')"/>
                <use id="reset" xlink:href="#resetDef" x="30" y="36" onmousedown="handleReset()"/>
                <g id="arrowUp" xlink:href="#dirArrow" transform="translate(30 24)" onmousedown="handlePan(0,-1)">
                  <use xlink:href="#rim" fill="#404040">
                        <set attributeName="fill" to="#808080" begin="arrowUp.mouseover" end="arrowUp.mouseout"/>
                  </use>
                  <path fill="none" stroke="white" stroke-width="1.5" d="M0,-3.0v7 M-2.5,-0.5L0,-3.0L2.5,-0.5"/>
                </g>
                <g id="arrowRight" xlink:href="#dirArrow" transform="rotate(90) translate(36 -43)" onmousedown="handlePan(1,0)">
                  <use xlink:href="#rim" fill="#404040">
                        <set attributeName="fill" to="#808080" begin="arrowRight.mouseover" end="arrowRight.mouseout"/>
                  </use>
                  <path fill="none" stroke="white" stroke-width="1.5" d="M0,-3.0v7 M-2.5,-0.5L0,-3.0L2.5,-0.5"/>
                </g>
                <g id="arrowDown" xlink:href="#dirArrow" transform="rotate(180) translate(-30 -48)" onmousedown="handlePan(0,1)">
                  <use xlink:href="#rim" fill="#404040">
                        <set attributeName="fill" to="#808080" begin="arrowDown.mouseover" end="arrowDown.mouseout"/>
                  </use>
                  <path fill="none" stroke="white" stroke-width="1.5" d="M0,-3.0v7 M-2.5,-0.5L0,-3.0L2.5,-0.5"/>
                </g>
                <g id="arrowLeft" xlink:href="#dirArrow" transform="rotate(270) translate(-36 17)" onmousedown="handlePan(-1,0)">
                  <use xlink:href="#rim" fill="#404040">
                        <set attributeName="fill" to="#808080" begin="arrowLeft.mouseover" end="arrowLeft.mouseout"/>
                  </use>
                  <path fill="none" stroke="white" stroke-width="1.5" d="M0,-3.0v7 M-2.5,-0.5L0,-3.0L2.5,-0.5"/>
                </g>
        </g>
        <svg viewBox="0 0 15 15" width="100%" height="30px" preserveAspectRatio="xMaxYMin meet">
         <g id="arrow_out" transform="scale(0.3 0.3)">
          <a xlink:href="namespacextb__peeq_a9e3625eb7bd9b7e395c110aacfe6eaeb_cgraph_org.svg" target="_base">
           <rect id="button" ry="5" rx="5" y="6" x="6" height="38" width="38"
                fill="#f2f5e9" fill-opacity="0.5" stroke="#606060" stroke-width="1.0"/>
           <path id="arrow"
             d="M 11.500037,31.436501 C 11.940474,20.09759 22.043105,11.32322 32.158766,21.979434 L 37.068811,17.246167 C 37.068811,17.246167 37.088388,32 37.088388,32 L 22.160133,31.978069 C 22.160133,31.978069 26.997745,27.140456 26.997745,27.140456 C 18.528582,18.264221 13.291696,25.230495 11.500037,31.436501 z"
             style="fill:#404040;"/>
          </a>
         </g>
        </svg>
</svg>
