<?xml version="1.0" encoding="UTF-8" standalone="no"?>
<!DOCTYPE svg PUBLIC "-//W3C//DTD SVG 1.1//EN"
 "http://www.w3.org/Graphics/SVG/1.1/DTD/svg11.dtd">
<!-- Generated by graphviz version 2.46.0 (20210122.1329)
 -->
<!-- Title: xtb_prog_topology::parsearguments Pages: 1 -->
<svg width="242pt" height="78pt"
 viewBox="0.00 0.00 242.00 77.50" xmlns="http://www.w3.org/2000/svg" xmlns:xlink="http://www.w3.org/1999/xlink">
<g id="graph0" class="graph" transform="scale(1 1) rotate(0) translate(4 73.5)">
<title>xtb_prog_topology::parsearguments</title>
<polygon fill="white" stroke="transparent" points="-4,4 -4,-73.5 238,-73.5 238,4 -4,4"/>
<!-- Node1 -->
<g id="node1" class="node">
<title>Node1</title>
<g id="a_node1"><a xlink:title="Parse command line arguments.">
<polygon fill="#bfbfbf" stroke="black" points="0,-22.5 0,-52.5 99,-52.5 99,-22.5 0,-22.5"/>
<text text-anchor="start" x="8" y="-40.5" font-family="Helvetica,sans-Serif" font-size="10.00">xtb_prog_topology::</text>
<text text-anchor="middle" x="49.5" y="-29.5" font-family="Helvetica,sans-Serif" font-size="10.00">parsearguments</text>
</a>
</g>
</g>
<!-- Node2 -->
<g id="node2" class="node">
<title>Node2</title>
<g id="a_node2"><a xlink:href="error_8f90.html#a48d4e8f6658873a149a70800afa89704" target="_top" xlink:title=" ">
<polygon fill="white" stroke="black" points="156,-50 156,-69 213,-69 213,-50 156,-50"/>
<text text-anchor="middle" x="184.5" y="-57" font-family="Helvetica,sans-Serif" font-size="10.00">terminate</text>
</a>
</g>
</g>
<!-- Node1&#45;&gt;Node2 -->
<g id="edge1" class="edge">
<title>Node1&#45;&gt;Node2</title>
<path fill="none" stroke="midnightblue" d="M99.27,-45.57C114.54,-48.09 131.16,-50.84 145.57,-53.23"/>
<polygon fill="midnightblue" stroke="midnightblue" points="145.18,-56.71 155.62,-54.89 146.32,-49.8 145.18,-56.71"/>
</g>
<!-- Node3 -->
<g id="node3" class="node">
<title>Node3</title>
<g id="a_node3"><a xlink:href="namespacextb__prog__topology.html#ab0221ea6fdc214a89fa9404cf6199295" target="_top" xlink:title=" ">
<polygon fill="white" stroke="black" points="135,-0.5 135,-30.5 234,-30.5 234,-0.5 135,-0.5"/>
<text text-anchor="start" x="143" y="-18.5" font-family="Helvetica,sans-Serif" font-size="10.00">xtb_prog_topology::</text>
<text text-anchor="middle" x="184.5" y="-7.5" font-family="Helvetica,sans-Serif" font-size="10.00">topologyhelp</text>
</a>
</g>
</g>
<!-- Node1&#45;&gt;Node3 -->
<g id="edge2" class="edge">
<title>Node1&#45;&gt;Node3</title>
<path fill="none" stroke="midnightblue" d="M99.27,-29.43C107.58,-28.06 116.29,-26.62 124.83,-25.2"/>
<polygon fill="midnightblue" stroke="midnightblue" points="125.44,-28.65 134.74,-23.57 124.3,-21.75 125.44,-28.65"/>
</g>
</g>
</svg>
