<?xml version="1.0" encoding="UTF-8" standalone="no"?>
<!DOCTYPE svg PUBLIC "-//W3C//DTD SVG 1.1//EN"
 "http://www.w3.org/Graphics/SVG/1.1/DTD/svg11.dtd">
<!-- Generated by graphviz version 2.46.0 (20210122.1329)
 -->
<!-- Title: xtb_disp_ncoord::dlog_cn_cut Pages: 1 -->
<svg width="280pt" height="39pt"
 viewBox="0.00 0.00 280.00 39.00" xmlns="http://www.w3.org/2000/svg" xmlns:xlink="http://www.w3.org/1999/xlink">
<g id="graph0" class="graph" transform="scale(1 1) rotate(0) translate(4 35)">
<title>xtb_disp_ncoord::dlog_cn_cut</title>
<polygon fill="white" stroke="transparent" points="-4,4 -4,-35 276,-35 276,4 -4,4"/>
<!-- Node1 -->
<g id="node1" class="node">
<title>Node1</title>
<g id="a_node1"><a xlink:title=" ">
<polygon fill="#bfbfbf" stroke="black" points="162,-0.5 162,-30.5 272,-30.5 272,-0.5 162,-0.5"/>
<text text-anchor="start" x="170" y="-18.5" font-family="Helvetica,sans-Serif" font-size="10.00">xtb_disp_ncoord::dlog</text>
<text text-anchor="middle" x="217" y="-7.5" font-family="Helvetica,sans-Serif" font-size="10.00">_cn_cut</text>
</a>
</g>
</g>
<!-- Node2 -->
<g id="node2" class="node">
<title>Node2</title>
<g id="a_node2"><a xlink:href="namespacextb__disp__ncoord.html#a1f807658fb0f23b38643a9c6f3006e7d" target="_top" xlink:title="cutoff function for large coordination numbers">
<polygon fill="white" stroke="black" points="0,-0.5 0,-30.5 126,-30.5 126,-0.5 0,-0.5"/>
<text text-anchor="start" x="8" y="-18.5" font-family="Helvetica,sans-Serif" font-size="10.00">xtb_disp_ncoord::dncoord</text>
<text text-anchor="middle" x="63" y="-7.5" font-family="Helvetica,sans-Serif" font-size="10.00">_logcn</text>
</a>
</g>
</g>
<!-- Node1&#45;&gt;Node2 -->
<g id="edge1" class="edge">
<title>Node1&#45;&gt;Node2</title>
<path fill="none" stroke="midnightblue" d="M151.76,-15.5C143.28,-15.5 134.59,-15.5 126.14,-15.5"/>
<polygon fill="midnightblue" stroke="midnightblue" points="151.98,-19 161.98,-15.5 151.98,-12 151.98,-19"/>
</g>
</g>
</svg>
