<?xml version="1.0" encoding="UTF-8" standalone="no"?>
<!DOCTYPE svg PUBLIC "-//W3C//DTD SVG 1.1//EN"
 "http://www.w3.org/Graphics/SVG/1.1/DTD/svg11.dtd">
<!-- Generated by graphviz version 2.46.1 (20210215.1649)
 -->
<!-- Title: xtb_intgrad::olapp Pages: 1 -->
<svg width="839pt" height="453pt"
 viewBox="0.00 0.00 839.00 453.00" xmlns="http://www.w3.org/2000/svg" xmlns:xlink="http://www.w3.org/1999/xlink">
<g id="graph0" class="graph" transform="scale(1 1) rotate(0) translate(4 449)">
<title>xtb_intgrad::olapp</title>
<polygon fill="white" stroke="transparent" points="-4,4 -4,-449 835,-449 835,4 -4,4"/>
<!-- Node1 -->
<g id="node1" class="node">
<title>Node1</title>
<g id="a_node1"><a xlink:title="calculates a partial overlap in one cartesian direction">
<polygon fill="#bfbfbf" stroke="black" points="739,-204.5 739,-223.5 831,-223.5 831,-204.5 739,-204.5"/>
<text text-anchor="middle" x="785" y="-211.5" font-family="Helvetica,sans-Serif" font-size="10.00">xtb_intgrad::olapp</text>
</a>
</g>
</g>
<!-- Node2 -->
<g id="node2" class="node">
<title>Node2</title>
<g id="a_node2"><a xlink:href="namespacextb__xtb__hamiltonian__gpu.html#a3fc32a40afb82002170a6633d8870ddb" target="_top" xlink:title="Computes the gradient of the dipole/qpole integral contribution.">
<polygon fill="white" stroke="black" points="581,-224 581,-254 701,-254 701,-224 581,-224"/>
<text text-anchor="start" x="589" y="-242" font-family="Helvetica,sans-Serif" font-size="10.00">xtb_xtb_hamiltonian</text>
<text text-anchor="middle" x="641" y="-231" font-family="Helvetica,sans-Serif" font-size="10.00">_gpu::build_dsdqh0_gpu</text>
</a>
</g>
</g>
<!-- Node1&#45;&gt;Node2 -->
<g id="edge1" class="edge">
<title>Node1&#45;&gt;Node2</title>
<path fill="none" stroke="midnightblue" d="M728.67,-223.74C719.65,-225.33 710.27,-226.98 701.16,-228.59"/>
<polygon fill="midnightblue" stroke="midnightblue" points="729.44,-227.16 738.68,-221.98 728.22,-220.27 729.44,-227.16"/>
</g>
<!-- Node8 -->
<g id="node8" class="node">
<title>Node8</title>
<g id="a_node8"><a xlink:href="namespacextb__xtb__hamiltonian__gpu.html#aee3ffc022ae0b9686cef17ce77e6b117" target="_top" xlink:title="Computes the dipole and quadrupole integrals and performs screening to.">
<polygon fill="white" stroke="black" points="420,-126 420,-156 535,-156 535,-126 420,-126"/>
<text text-anchor="start" x="428" y="-144" font-family="Helvetica,sans-Serif" font-size="10.00">xtb_xtb_hamiltonian</text>
<text text-anchor="middle" x="477.5" y="-133" font-family="Helvetica,sans-Serif" font-size="10.00">_gpu::build_sdqh0_gpu</text>
</a>
</g>
</g>
<!-- Node1&#45;&gt;Node8 -->
<g id="edge8" class="edge">
<title>Node1&#45;&gt;Node8</title>
<path fill="none" stroke="midnightblue" d="M763.59,-198.16C747.92,-186.91 725.26,-172.51 703,-165 648.03,-146.46 581.58,-141.34 535.3,-140.31"/>
<polygon fill="midnightblue" stroke="midnightblue" points="761.83,-201.22 771.95,-204.35 765.99,-195.59 761.83,-201.22"/>
</g>
<!-- Node9 -->
<g id="node9" class="node">
<title>Node9</title>
<g id="a_node9"><a xlink:href="namespacextb__intgrad.html#a56c0d9c60dccfa7d445a3d5ac2df7ed9" target="_top" xlink:title=" ">
<polygon fill="white" stroke="black" points="590,-273.5 590,-292.5 692,-292.5 692,-273.5 590,-273.5"/>
<text text-anchor="middle" x="641" y="-280.5" font-family="Helvetica,sans-Serif" font-size="10.00">xtb_intgrad::dsawab</text>
</a>
</g>
</g>
<!-- Node1&#45;&gt;Node9 -->
<g id="edge10" class="edge">
<title>Node1&#45;&gt;Node9</title>
<path fill="none" stroke="midnightblue" d="M761.64,-229.43C745.78,-239.89 723.73,-253.48 703,-263 694.39,-266.95 684.77,-270.49 675.77,-273.44"/>
<polygon fill="midnightblue" stroke="midnightblue" points="763.84,-232.17 770.2,-223.69 759.94,-226.35 763.84,-232.17"/>
</g>
<!-- Node10 -->
<g id="node10" class="node">
<title>Node10</title>
<g id="a_node10"><a xlink:href="namespacextb__intgrad.html#a687c81581d68c7e2e2b798d472774195" target="_top" xlink:title=" ">
<polygon fill="white" stroke="black" points="588,-175 588,-205 694,-205 694,-175 588,-175"/>
<text text-anchor="start" x="596" y="-193" font-family="Helvetica,sans-Serif" font-size="10.00">xtb_intgrad::get_grad</text>
<text text-anchor="middle" x="641" y="-182" font-family="Helvetica,sans-Serif" font-size="10.00">_multiint</text>
</a>
</g>
</g>
<!-- Node1&#45;&gt;Node10 -->
<g id="edge11" class="edge">
<title>Node1&#45;&gt;Node10</title>
<path fill="none" stroke="midnightblue" d="M728.81,-204.67C717.38,-202.74 705.37,-200.71 694.06,-198.8"/>
<polygon fill="midnightblue" stroke="midnightblue" points="728.24,-208.12 738.68,-206.34 729.4,-201.22 728.24,-208.12"/>
</g>
<!-- Node13 -->
<g id="node13" class="node">
<title>Node13</title>
<g id="a_node13"><a xlink:href="namespacextb__intgrad.html#a5d63324c2991420830b8c35a212bc44c" target="_top" xlink:title=" ">
<polygon fill="white" stroke="black" points="588,-382 588,-412 694,-412 694,-382 588,-382"/>
<text text-anchor="start" x="596" y="-400" font-family="Helvetica,sans-Serif" font-size="10.00">xtb_intgrad::get_grad</text>
<text text-anchor="middle" x="641" y="-389" font-family="Helvetica,sans-Serif" font-size="10.00">_overlap</text>
</a>
</g>
</g>
<!-- Node1&#45;&gt;Node13 -->
<g id="edge16" class="edge">
<title>Node1&#45;&gt;Node13</title>
<path fill="none" stroke="midnightblue" d="M773.94,-232.68C759.79,-258.18 732.41,-304.74 703,-340 690.09,-355.47 673.22,-370.94 660.49,-381.86"/>
<polygon fill="midnightblue" stroke="midnightblue" points="777.12,-234.17 778.85,-223.72 770.98,-230.81 777.12,-234.17"/>
</g>
<!-- Node19 -->
<g id="node19" class="node">
<title>Node19</title>
<g id="a_node19"><a xlink:href="namespacextb__intgrad.html#a75f1b6ec8c7f75caeec5fac307179505" target="_top" xlink:title=" ">
<polygon fill="white" stroke="black" points="579,-82.5 579,-101.5 703,-101.5 703,-82.5 579,-82.5"/>
<text text-anchor="middle" x="641" y="-89.5" font-family="Helvetica,sans-Serif" font-size="10.00">xtb_intgrad::get_multiints</text>
</a>
</g>
</g>
<!-- Node1&#45;&gt;Node19 -->
<g id="edge26" class="edge">
<title>Node1&#45;&gt;Node19</title>
<path fill="none" stroke="midnightblue" d="M769.45,-196.55C754.03,-178.65 728.44,-150.59 703,-130 689.42,-119.01 672.45,-108.68 659.86,-101.57"/>
<polygon fill="midnightblue" stroke="midnightblue" points="767.02,-199.09 776.16,-204.44 772.35,-194.55 767.02,-199.09"/>
</g>
<!-- Node25 -->
<g id="node25" class="node">
<title>Node25</title>
<g id="a_node25"><a xlink:href="namespacextb__intgrad.html#acfb80861031d50fbbfc7f6a4d203b94f" target="_top" xlink:title="Computes the overlap dipole and quadrupole integrals.">
<polygon fill="white" stroke="black" points="419.5,-0.5 419.5,-19.5 535.5,-19.5 535.5,-0.5 419.5,-0.5"/>
<text text-anchor="middle" x="477.5" y="-7.5" font-family="Helvetica,sans-Serif" font-size="10.00">xtb_intgrad::sdqint_gpu</text>
</a>
</g>
</g>
<!-- Node1&#45;&gt;Node25 -->
<g id="edge41" class="edge">
<title>Node1&#45;&gt;Node25</title>
<path fill="none" stroke="midnightblue" d="M778.17,-194.56C767.99,-164.02 744.07,-104.97 703,-73 654.45,-35.2 584.41,-20.08 535.51,-14.03"/>
<polygon fill="midnightblue" stroke="midnightblue" points="774.94,-195.95 781.3,-204.43 781.61,-193.84 774.94,-195.95"/>
</g>
<!-- Node26 -->
<g id="node26" class="node">
<title>Node26</title>
<g id="a_node26"><a xlink:href="namespacextb__intgrad.html#a03ad6a36d26f8f5dc85dd5cd44798448" target="_top" xlink:title=" ">
<polygon fill="white" stroke="black" points="581.5,-311.5 581.5,-330.5 700.5,-330.5 700.5,-311.5 581.5,-311.5"/>
<text text-anchor="middle" x="641" y="-318.5" font-family="Helvetica,sans-Serif" font-size="10.00">xtb_intgrad::get_overlap</text>
</a>
</g>
</g>
<!-- Node1&#45;&gt;Node26 -->
<g id="edge36" class="edge">
<title>Node1&#45;&gt;Node26</title>
<path fill="none" stroke="midnightblue" d="M771.93,-231.97C757.69,-251.84 732.21,-283.51 703,-302 696.91,-305.86 689.98,-308.98 683.03,-311.49"/>
<polygon fill="midnightblue" stroke="midnightblue" points="774.81,-233.96 777.66,-223.75 769.07,-229.95 774.81,-233.96"/>
</g>
<!-- Node3 -->
<g id="node3" class="node">
<title>Node3</title>
<g id="a_node3"><a xlink:href="namespacextb__scf.html#a7390c40a38032c3d210c39edecfa49ed" target="_top" xlink:title=" ">
<polygon fill="white" stroke="black" points="295,-216.5 295,-235.5 361,-235.5 361,-216.5 295,-216.5"/>
<text text-anchor="middle" x="328" y="-223.5" font-family="Helvetica,sans-Serif" font-size="10.00">xtb_scf::scf</text>
</a>
</g>
</g>
<!-- Node2&#45;&gt;Node3 -->
<g id="edge2" class="edge">
<title>Node2&#45;&gt;Node3</title>
<path fill="none" stroke="midnightblue" d="M579.23,-256.42C567.32,-259.16 554.84,-261.56 543,-263 485.21,-270.04 468.95,-275.12 412,-263 387.46,-257.78 361.39,-244.77 345.15,-235.66"/>
<polygon fill="midnightblue" stroke="midnightblue" points="580.18,-259.79 589.08,-254.06 578.54,-252.99 580.18,-259.79"/>
</g>
<!-- Node4 -->
<g id="node4" class="node">
<title>Node4</title>
<g id="a_node4"><a xlink:href="namespacextb__xtb__calculator.html#a75c96263c235c99dfeeda3e865f9898c" target="_top" xlink:title=" ">
<polygon fill="white" stroke="black" points="137.5,-281 137.5,-311 232.5,-311 232.5,-281 137.5,-281"/>
<text text-anchor="start" x="145.5" y="-299" font-family="Helvetica,sans-Serif" font-size="10.00">xtb_xtb_calculator</text>
<text text-anchor="middle" x="185" y="-288" font-family="Helvetica,sans-Serif" font-size="10.00">::singlepoint</text>
</a>
</g>
</g>
<!-- Node3&#45;&gt;Node4 -->
<g id="edge3" class="edge">
<title>Node3&#45;&gt;Node4</title>
<path fill="none" stroke="midnightblue" d="M301.48,-240.61C285.22,-249.72 263.6,-261.49 244,-271 237.09,-274.35 229.63,-277.74 222.43,-280.89"/>
<polygon fill="midnightblue" stroke="midnightblue" points="303.39,-243.55 310.38,-235.58 299.95,-237.45 303.39,-243.55"/>
</g>
<!-- Node5 -->
<g id="node5" class="node">
<title>Node5</title>
<g id="a_node5"><a xlink:href="TESTSUITE_2gfn1_8f90.html#ab5cc37cef2d483d9d9cde17aa03c55a8" target="_top" xlink:title=" ">
<polygon fill="white" stroke="black" points="146,-242.5 146,-261.5 224,-261.5 224,-242.5 146,-242.5"/>
<text text-anchor="middle" x="185" y="-249.5" font-family="Helvetica,sans-Serif" font-size="10.00">test_gfn1_scc</text>
</a>
</g>
</g>
<!-- Node3&#45;&gt;Node5 -->
<g id="edge4" class="edge">
<title>Node3&#45;&gt;Node5</title>
<path fill="none" stroke="midnightblue" d="M284.66,-233.81C265.44,-237.35 242.89,-241.51 224.2,-244.96"/>
<polygon fill="midnightblue" stroke="midnightblue" points="285.45,-237.22 294.65,-231.96 284.18,-230.34 285.45,-237.22"/>
</g>
<!-- Node7 -->
<g id="node7" class="node">
<title>Node7</title>
<g id="a_node7"><a xlink:href="TESTSUITE_2gfn2_8f90.html#af47afba0207cbca2dc950fb5e339ce03" target="_top" xlink:title=" ">
<polygon fill="white" stroke="black" points="146,-204.5 146,-223.5 224,-223.5 224,-204.5 146,-204.5"/>
<text text-anchor="middle" x="185" y="-211.5" font-family="Helvetica,sans-Serif" font-size="10.00">test_gfn2_scc</text>
</a>
</g>
</g>
<!-- Node3&#45;&gt;Node7 -->
<g id="edge6" class="edge">
<title>Node3&#45;&gt;Node7</title>
<path fill="none" stroke="midnightblue" d="M284.66,-222.4C265.44,-220.76 242.89,-218.84 224.2,-217.25"/>
<polygon fill="midnightblue" stroke="midnightblue" points="284.39,-225.89 294.65,-223.25 284.98,-218.91 284.39,-225.89"/>
</g>
<!-- Node6 -->
<g id="node6" class="node">
<title>Node6</title>
<g id="a_node6"><a xlink:href="tests__peeq_8f90.html#a87ff5319e0d2e627a4f71d7df0d14891" target="_top" xlink:title=" ">
<polygon fill="white" stroke="black" points="11,-286.5 11,-305.5 79,-305.5 79,-286.5 11,-286.5"/>
<text text-anchor="middle" x="45" y="-293.5" font-family="Helvetica,sans-Serif" font-size="10.00">peeq_tester</text>
</a>
</g>
</g>
<!-- Node5&#45;&gt;Node6 -->
<g id="edge5" class="edge">
<title>Node5&#45;&gt;Node6</title>
<path fill="none" stroke="midnightblue" d="M144.41,-264.62C122.59,-271.58 95.95,-280.08 75.89,-286.47"/>
<polygon fill="midnightblue" stroke="midnightblue" points="145.59,-267.92 154.06,-261.55 143.47,-261.25 145.59,-267.92"/>
</g>
<!-- Node7&#45;&gt;Node6 -->
<g id="edge7" class="edge">
<title>Node7&#45;&gt;Node6</title>
<path fill="none" stroke="midnightblue" d="M138.63,-227.13C134.28,-228.9 130,-230.86 126,-233 98.26,-247.86 70.42,-272.51 56.03,-286.16"/>
<polygon fill="midnightblue" stroke="midnightblue" points="140.08,-230.33 148.22,-223.54 137.62,-223.77 140.08,-230.33"/>
</g>
<!-- Node8&#45;&gt;Node3 -->
<g id="edge9" class="edge">
<title>Node8&#45;&gt;Node3</title>
<path fill="none" stroke="midnightblue" d="M421.62,-160.2C418.32,-161.73 415.09,-163.33 412,-165 384.15,-180.04 355.13,-203.44 339.88,-216.45"/>
<polygon fill="midnightblue" stroke="midnightblue" points="423.27,-163.3 431.03,-156.1 420.47,-156.89 423.27,-163.3"/>
</g>
<!-- Node11 -->
<g id="node11" class="node">
<title>Node11</title>
<g id="a_node11"><a xlink:href="namespacextb__xtb__hamiltonian.html#a8364d9293f8dac8d5de89c5186f7effc" target="_top" xlink:title="Computes the gradient of the dipole/qpole integral contribution.">
<polygon fill="white" stroke="black" points="426.5,-224 426.5,-254 528.5,-254 528.5,-224 426.5,-224"/>
<text text-anchor="start" x="434.5" y="-242" font-family="Helvetica,sans-Serif" font-size="10.00">xtb_xtb_hamiltonian</text>
<text text-anchor="middle" x="477.5" y="-231" font-family="Helvetica,sans-Serif" font-size="10.00">::build_dsdqh0</text>
</a>
</g>
</g>
<!-- Node10&#45;&gt;Node11 -->
<g id="edge12" class="edge">
<title>Node10&#45;&gt;Node11</title>
<path fill="none" stroke="midnightblue" d="M580.3,-208.11C563.13,-213.32 544.6,-218.95 528.11,-223.95"/>
<polygon fill="midnightblue" stroke="midnightblue" points="581.67,-211.35 590.23,-205.1 579.64,-204.66 581.67,-211.35"/>
</g>
<!-- Node12 -->
<g id="node12" class="node">
<title>Node12</title>
<g id="a_node12"><a xlink:href="namespacextb__xtb__hamiltonian.html#a299eaa3877160d0aff3f63dc55b12fde" target="_top" xlink:title="Computes the gradient of the dipole/qpole integral contribution.">
<polygon fill="white" stroke="black" points="419.5,-175 419.5,-205 535.5,-205 535.5,-175 419.5,-175"/>
<text text-anchor="start" x="427.5" y="-193" font-family="Helvetica,sans-Serif" font-size="10.00">xtb_xtb_hamiltonian</text>
<text text-anchor="middle" x="477.5" y="-182" font-family="Helvetica,sans-Serif" font-size="10.00">::build_dsdqh0_noreset</text>
</a>
</g>
</g>
<!-- Node10&#45;&gt;Node12 -->
<g id="edge14" class="edge">
<title>Node10&#45;&gt;Node12</title>
<path fill="none" stroke="midnightblue" d="M577.27,-190C563.57,-190 549.15,-190 535.69,-190"/>
<polygon fill="midnightblue" stroke="midnightblue" points="577.57,-193.5 587.57,-190 577.57,-186.5 577.57,-193.5"/>
</g>
<!-- Node11&#45;&gt;Node3 -->
<g id="edge13" class="edge">
<title>Node11&#45;&gt;Node3</title>
<path fill="none" stroke="midnightblue" d="M416.13,-233.68C397.28,-232.02 377.22,-230.25 361.11,-228.83"/>
<polygon fill="midnightblue" stroke="midnightblue" points="415.88,-237.17 426.15,-234.56 416.5,-230.2 415.88,-237.17"/>
</g>
<!-- Node12&#45;&gt;Node3 -->
<g id="edge15" class="edge">
<title>Node12&#45;&gt;Node3</title>
<path fill="none" stroke="midnightblue" d="M409.63,-206.32C392.76,-210.44 375.42,-214.67 361.16,-218.15"/>
<polygon fill="midnightblue" stroke="midnightblue" points="410.59,-209.69 419.47,-203.92 408.93,-202.89 410.59,-209.69"/>
</g>
<!-- Node14 -->
<g id="node14" class="node">
<title>Node14</title>
<g id="a_node14"><a xlink:href="namespacextb__peeq.html#a40797d7eda755bad4031e16951ae29b7" target="_top" xlink:title=" ">
<polygon fill="white" stroke="black" points="412,-425.5 412,-444.5 543,-444.5 543,-425.5 412,-425.5"/>
<text text-anchor="middle" x="477.5" y="-432.5" font-family="Helvetica,sans-Serif" font-size="10.00">xtb_peeq::ccm_build_dsh0</text>
</a>
</g>
</g>
<!-- Node13&#45;&gt;Node14 -->
<g id="edge17" class="edge">
<title>Node13&#45;&gt;Node14</title>
<path fill="none" stroke="midnightblue" d="M577.72,-411.65C557.98,-416.3 536.69,-421.31 518.91,-425.49"/>
<polygon fill="midnightblue" stroke="midnightblue" points="578.63,-415.03 587.57,-409.34 577.03,-408.22 578.63,-415.03"/>
</g>
<!-- Node18 -->
<g id="node18" class="node">
<title>Node18</title>
<g id="a_node18"><a xlink:href="namespacextb__peeq.html#a101bc81468c2cd4ddd3221efaa59b142" target="_top" xlink:title=" ">
<polygon fill="white" stroke="black" points="413.5,-387.5 413.5,-406.5 541.5,-406.5 541.5,-387.5 413.5,-387.5"/>
<text text-anchor="middle" x="477.5" y="-394.5" font-family="Helvetica,sans-Serif" font-size="10.00">xtb_peeq::pbc_build_dsh0</text>
</a>
</g>
</g>
<!-- Node13&#45;&gt;Node18 -->
<g id="edge24" class="edge">
<title>Node13&#45;&gt;Node18</title>
<path fill="none" stroke="midnightblue" d="M577.42,-397C565.69,-397 553.41,-397 541.66,-397"/>
<polygon fill="midnightblue" stroke="midnightblue" points="577.57,-400.5 587.57,-397 577.57,-393.5 577.57,-400.5"/>
</g>
<!-- Node15 -->
<g id="node15" class="node">
<title>Node15</title>
<g id="a_node15"><a xlink:href="namespacextb__peeq.html#ac2d6fc22b842455765bdb4f69279095c" target="_top" xlink:title=" ">
<polygon fill="white" stroke="black" points="287.5,-349.5 287.5,-368.5 368.5,-368.5 368.5,-349.5 287.5,-349.5"/>
<text text-anchor="middle" x="328" y="-356.5" font-family="Helvetica,sans-Serif" font-size="10.00">xtb_peeq::peeq</text>
</a>
</g>
</g>
<!-- Node14&#45;&gt;Node15 -->
<g id="edge18" class="edge">
<title>Node14&#45;&gt;Node15</title>
<path fill="none" stroke="midnightblue" d="M427.37,-422.31C422.09,-420.42 416.88,-418.32 412,-416 384.38,-402.86 355.73,-381.05 340.37,-368.56"/>
<polygon fill="midnightblue" stroke="midnightblue" points="426.29,-425.64 436.88,-425.47 428.5,-418.99 426.29,-425.64"/>
</g>
<!-- Node15&#45;&gt;Node4 -->
<g id="edge19" class="edge">
<title>Node15&#45;&gt;Node4</title>
<path fill="none" stroke="midnightblue" d="M297,-345.07C281.26,-337.81 261.63,-328.83 244,-321 236.69,-317.75 228.83,-314.32 221.33,-311.08"/>
<polygon fill="midnightblue" stroke="midnightblue" points="295.71,-348.33 306.25,-349.34 298.64,-341.97 295.71,-348.33"/>
</g>
<!-- Node16 -->
<g id="node16" class="node">
<title>Node16</title>
<g id="a_node16"><a xlink:href="TESTSUITE_2gfn0_8f90.html#ac2abd1dbadf75b71866d509eaad7957d" target="_top" xlink:title=" ">
<polygon fill="white" stroke="black" points="148.5,-330.5 148.5,-349.5 221.5,-349.5 221.5,-330.5 148.5,-330.5"/>
<text text-anchor="middle" x="185" y="-337.5" font-family="Helvetica,sans-Serif" font-size="10.00">test_gfn0_sp</text>
</a>
</g>
</g>
<!-- Node15&#45;&gt;Node16 -->
<g id="edge20" class="edge">
<title>Node15&#45;&gt;Node16</title>
<path fill="none" stroke="midnightblue" d="M277.36,-352.31C258.94,-349.83 238.42,-347.06 221.51,-344.78"/>
<polygon fill="midnightblue" stroke="midnightblue" points="276.97,-355.79 287.35,-353.66 277.91,-348.85 276.97,-355.79"/>
</g>
<!-- Node17 -->
<g id="node17" class="node">
<title>Node17</title>
<g id="a_node17"><a xlink:href="peeq_8f90.html#a5122d9bd07a3f4377ee140a5991d1325" target="_top" xlink:title=" ">
<polygon fill="white" stroke="black" points="147.5,-368.5 147.5,-387.5 222.5,-387.5 222.5,-368.5 147.5,-368.5"/>
<text text-anchor="middle" x="185" y="-375.5" font-family="Helvetica,sans-Serif" font-size="10.00">test_peeq_sp</text>
</a>
</g>
</g>
<!-- Node15&#45;&gt;Node17 -->
<g id="edge22" class="edge">
<title>Node15&#45;&gt;Node17</title>
<path fill="none" stroke="midnightblue" d="M277.36,-365.69C259.45,-368.1 239.57,-370.78 222.94,-373.02"/>
<polygon fill="midnightblue" stroke="midnightblue" points="277.91,-369.15 287.35,-364.34 276.97,-362.21 277.91,-369.15"/>
</g>
<!-- Node16&#45;&gt;Node6 -->
<g id="edge21" class="edge">
<title>Node16&#45;&gt;Node6</title>
<path fill="none" stroke="midnightblue" d="M144.41,-327.38C122.59,-320.42 95.95,-311.92 75.89,-305.53"/>
<polygon fill="midnightblue" stroke="midnightblue" points="143.47,-330.75 154.06,-330.45 145.59,-324.08 143.47,-330.75"/>
</g>
<!-- Node17&#45;&gt;Node6 -->
<g id="edge23" class="edge">
<title>Node17&#45;&gt;Node6</title>
<path fill="none" stroke="midnightblue" d="M138.63,-364.87C134.28,-363.1 130,-361.14 126,-359 98.26,-344.14 70.42,-319.49 56.03,-305.84"/>
<polygon fill="midnightblue" stroke="midnightblue" points="137.62,-368.23 148.22,-368.46 140.08,-361.67 137.62,-368.23"/>
</g>
<!-- Node18&#45;&gt;Node15 -->
<g id="edge25" class="edge">
<title>Node18&#45;&gt;Node15</title>
<path fill="none" stroke="midnightblue" d="M429.49,-384.89C408.94,-379.6 385.2,-373.48 365.95,-368.52"/>
<polygon fill="midnightblue" stroke="midnightblue" points="428.72,-388.31 439.28,-387.41 430.47,-381.53 428.72,-388.31"/>
</g>
<!-- Node19&#45;&gt;Node8 -->
<g id="edge29" class="edge">
<title>Node19&#45;&gt;Node8</title>
<path fill="none" stroke="midnightblue" d="M598.66,-104.54C577.14,-111.07 550.67,-119.1 528.06,-125.96"/>
<polygon fill="midnightblue" stroke="midnightblue" points="599.92,-107.82 608.48,-101.56 597.89,-101.12 599.92,-107.82"/>
</g>
<!-- Node20 -->
<g id="node20" class="node">
<title>Node20</title>
<g id="a_node20"><a xlink:href="namespacextb__xtb__hamiltonian.html#a9f0d8be35a4ef0f2dbbbafd2ef873d64" target="_top" xlink:title="Computes the dipole and quadrupole integrals and performs screening to.">
<polygon fill="white" stroke="black" points="426.5,-77 426.5,-107 528.5,-107 528.5,-77 426.5,-77"/>
<text text-anchor="start" x="434.5" y="-95" font-family="Helvetica,sans-Serif" font-size="10.00">xtb_xtb_hamiltonian</text>
<text text-anchor="middle" x="477.5" y="-84" font-family="Helvetica,sans-Serif" font-size="10.00">::build_sdqh0</text>
</a>
</g>
</g>
<!-- Node19&#45;&gt;Node20 -->
<g id="edge27" class="edge">
<title>Node19&#45;&gt;Node20</title>
<path fill="none" stroke="midnightblue" d="M568.7,-92C555.18,-92 541.29,-92 528.6,-92"/>
<polygon fill="midnightblue" stroke="midnightblue" points="568.94,-95.5 578.94,-92 568.94,-88.5 568.94,-95.5"/>
</g>
<!-- Node21 -->
<g id="node21" class="node">
<title>Node21</title>
<g id="a_node21"><a xlink:href="namespacextb__intgrad.html#a45fdbd10e8d62595c60b79d516e52cbd" target="_top" xlink:title="computes the dipole and quadrupole integrals and performs screening to">
<polygon fill="white" stroke="black" points="430,-38.5 430,-57.5 525,-57.5 525,-38.5 430,-38.5"/>
<text text-anchor="middle" x="477.5" y="-45.5" font-family="Helvetica,sans-Serif" font-size="10.00">xtb_intgrad::sdqint</text>
</a>
</g>
</g>
<!-- Node19&#45;&gt;Node21 -->
<g id="edge30" class="edge">
<title>Node19&#45;&gt;Node21</title>
<path fill="none" stroke="midnightblue" d="M595.04,-79.75C569.26,-72.73 537.37,-64.04 513.47,-57.53"/>
<polygon fill="midnightblue" stroke="midnightblue" points="594.39,-83.2 604.96,-82.45 596.23,-76.45 594.39,-83.2"/>
</g>
<!-- Node19&#45;&gt;Node25 -->
<g id="edge34" class="edge">
<title>Node19&#45;&gt;Node25</title>
<path fill="none" stroke="midnightblue" d="M619.65,-76.27C600.69,-62.24 571.19,-41.97 543,-29 535.05,-25.34 526.22,-22.19 517.71,-19.57"/>
<polygon fill="midnightblue" stroke="midnightblue" points="617.72,-79.19 627.81,-82.41 621.93,-73.6 617.72,-79.19"/>
</g>
<!-- Node20&#45;&gt;Node3 -->
<g id="edge28" class="edge">
<title>Node20&#45;&gt;Node3</title>
<path fill="none" stroke="midnightblue" d="M417.72,-112.12C415.74,-113.34 413.83,-114.64 412,-116 373.82,-144.44 344.85,-195.14 333.83,-216.3"/>
<polygon fill="midnightblue" stroke="midnightblue" points="419.65,-115.05 426.73,-107.16 416.28,-108.92 419.65,-115.05"/>
</g>
<!-- Node22 -->
<g id="node22" class="node">
<title>Node22</title>
<g id="a_node22"><a xlink:href="namespacextb__propertyoutput.html#a74ca9110d4ecdd9fc1a790d9a2027a02" target="_top" xlink:title=" ">
<polygon fill="white" stroke="black" points="280,-14 280,-44 376,-44 376,-14 280,-14"/>
<text text-anchor="start" x="288" y="-32" font-family="Helvetica,sans-Serif" font-size="10.00">xtb_propertyoutput</text>
<text text-anchor="middle" x="328" y="-21" font-family="Helvetica,sans-Serif" font-size="10.00">::main_property</text>
</a>
</g>
</g>
<!-- Node21&#45;&gt;Node22 -->
<g id="edge31" class="edge">
<title>Node21&#45;&gt;Node22</title>
<path fill="none" stroke="midnightblue" d="M419.57,-40.67C405.2,-38.82 389.95,-36.85 376.13,-35.07"/>
<polygon fill="midnightblue" stroke="midnightblue" points="419.46,-44.18 429.83,-41.99 420.36,-37.24 419.46,-44.18"/>
</g>
<!-- Node23 -->
<g id="node23" class="node">
<title>Node23</title>
<g id="a_node23"><a xlink:href="namespacextb__prog__main.html#a92b3b61ee04235e6343f652095682529" target="_top" xlink:title=" ">
<polygon fill="white" stroke="black" points="126,-19.5 126,-38.5 244,-38.5 244,-19.5 126,-19.5"/>
<text text-anchor="middle" x="185" y="-26.5" font-family="Helvetica,sans-Serif" font-size="10.00">xtb_prog_main::xtbmain</text>
</a>
</g>
</g>
<!-- Node22&#45;&gt;Node23 -->
<g id="edge32" class="edge">
<title>Node22&#45;&gt;Node23</title>
<path fill="none" stroke="midnightblue" d="M269.61,-29C261.25,-29 252.62,-29 244.24,-29"/>
<polygon fill="midnightblue" stroke="midnightblue" points="269.66,-32.5 279.66,-29 269.66,-25.5 269.66,-32.5"/>
</g>
<!-- Node24 -->
<g id="node24" class="node">
<title>Node24</title>
<g id="a_node24"><a xlink:href="primary_8f90.html#a2a67903cf5be605c5b6d3c362c6a3c5c" target="_top" xlink:title="The primary driver for the xtb program package.">
<polygon fill="white" stroke="black" points="0,-19.5 0,-38.5 90,-38.5 90,-19.5 0,-19.5"/>
<text text-anchor="middle" x="45" y="-26.5" font-family="Helvetica,sans-Serif" font-size="10.00">xtb_prog_primary</text>
</a>
</g>
</g>
<!-- Node23&#45;&gt;Node24 -->
<g id="edge33" class="edge">
<title>Node23&#45;&gt;Node24</title>
<path fill="none" stroke="midnightblue" d="M115.73,-29C107.06,-29 98.37,-29 90.22,-29"/>
<polygon fill="midnightblue" stroke="midnightblue" points="115.88,-32.5 125.88,-29 115.88,-25.5 115.88,-32.5"/>
</g>
<!-- Node25&#45;&gt;Node22 -->
<g id="edge35" class="edge">
<title>Node25&#45;&gt;Node22</title>
<path fill="none" stroke="midnightblue" d="M409.32,-18.65C398.18,-20.09 386.84,-21.55 376.32,-22.9"/>
<polygon fill="midnightblue" stroke="midnightblue" points="410,-22.09 419.47,-17.35 409.11,-15.15 410,-22.09"/>
</g>
<!-- Node27 -->
<g id="node27" class="node">
<title>Node27</title>
<g id="a_node27"><a xlink:href="namespacextb__peeq.html#a88e7865d904c0f99f485a16db19d88aa" target="_top" xlink:title=" ">
<polygon fill="white" stroke="black" points="415,-311.5 415,-330.5 540,-330.5 540,-311.5 415,-311.5"/>
<text text-anchor="middle" x="477.5" y="-318.5" font-family="Helvetica,sans-Serif" font-size="10.00">xtb_peeq::ccm_build_sh0</text>
</a>
</g>
</g>
<!-- Node26&#45;&gt;Node27 -->
<g id="edge37" class="edge">
<title>Node26&#45;&gt;Node27</title>
<path fill="none" stroke="midnightblue" d="M571.09,-321C560.83,-321 550.31,-321 540.21,-321"/>
<polygon fill="midnightblue" stroke="midnightblue" points="571.24,-324.5 581.24,-321 571.24,-317.5 571.24,-324.5"/>
</g>
<!-- Node28 -->
<g id="node28" class="node">
<title>Node28</title>
<g id="a_node28"><a xlink:href="namespacextb__peeq.html#a9e3625eb7bd9b7e395c110aacfe6eaeb" target="_top" xlink:title=" ">
<polygon fill="white" stroke="black" points="416.5,-349.5 416.5,-368.5 538.5,-368.5 538.5,-349.5 416.5,-349.5"/>
<text text-anchor="middle" x="477.5" y="-356.5" font-family="Helvetica,sans-Serif" font-size="10.00">xtb_peeq::pbc_build_sh0</text>
</a>
</g>
</g>
<!-- Node26&#45;&gt;Node28 -->
<g id="edge39" class="edge">
<title>Node26&#45;&gt;Node28</title>
<path fill="none" stroke="midnightblue" d="M589.44,-332.9C566.74,-338.24 540.32,-344.45 518.96,-349.48"/>
<polygon fill="midnightblue" stroke="midnightblue" points="590.31,-336.29 599.25,-330.59 588.71,-329.47 590.31,-336.29"/>
</g>
<!-- Node27&#45;&gt;Node15 -->
<g id="edge38" class="edge">
<title>Node27&#45;&gt;Node15</title>
<path fill="none" stroke="midnightblue" d="M429.49,-333.11C408.94,-338.4 385.2,-344.52 365.95,-349.48"/>
<polygon fill="midnightblue" stroke="midnightblue" points="430.47,-336.47 439.28,-330.59 428.72,-329.69 430.47,-336.47"/>
</g>
<!-- Node28&#45;&gt;Node15 -->
<g id="edge40" class="edge">
<title>Node28&#45;&gt;Node15</title>
<path fill="none" stroke="midnightblue" d="M405.93,-359C393.19,-359 380.34,-359 368.87,-359"/>
<polygon fill="midnightblue" stroke="midnightblue" points="406.08,-362.5 416.08,-359 406.08,-355.5 406.08,-362.5"/>
</g>
</g>
</svg>
