<?xml version="1.0" encoding="UTF-8" standalone="no"?>
<!DOCTYPE svg PUBLIC "-//W3C//DTD SVG 1.1//EN"
 "http://www.w3.org/Graphics/SVG/1.1/DTD/svg11.dtd">
<!-- Generated by graphviz version 2.46.1 (20210215.1649)
 -->
<!-- Title: xtb_intgrad::build_hshift2 Pages: 1 -->
<svg width="1003pt" height="454pt"
 viewBox="0.00 0.00 1003.00 454.00" xmlns="http://www.w3.org/2000/svg" xmlns:xlink="http://www.w3.org/1999/xlink">
<g id="graph0" class="graph" transform="scale(1 1) rotate(0) translate(4 450)">
<title>xtb_intgrad::build_hshift2</title>
<polygon fill="white" stroke="transparent" points="-4,4 -4,-450 999,-450 999,4 -4,4"/>
<!-- Node1 -->
<g id="node1" class="node">
<title>Node1</title>
<g id="a_node1"><a xlink:title=" ">
<polygon fill="#bfbfbf" stroke="black" points="906,-219 906,-249 995,-249 995,-219 906,-219"/>
<text text-anchor="start" x="914" y="-237" font-family="Helvetica,sans-Serif" font-size="10.00">xtb_intgrad::build</text>
<text text-anchor="middle" x="950.5" y="-226" font-family="Helvetica,sans-Serif" font-size="10.00">_hshift2</text>
</a>
</g>
</g>
<!-- Node2 -->
<g id="node2" class="node">
<title>Node2</title>
<g id="a_node2"><a xlink:href="namespacextb__intgrad.html#a5c81e8ac1c422e26c60df2e7f20448f3" target="_top" xlink:title=" ">
<polygon fill="white" stroke="black" points="760,-350 760,-380 849,-380 849,-350 760,-350"/>
<text text-anchor="start" x="768" y="-368" font-family="Helvetica,sans-Serif" font-size="10.00">xtb_intgrad::build</text>
<text text-anchor="middle" x="804.5" y="-357" font-family="Helvetica,sans-Serif" font-size="10.00">_ds_ints</text>
</a>
</g>
</g>
<!-- Node1&#45;&gt;Node2 -->
<g id="edge1" class="edge">
<title>Node1&#45;&gt;Node2</title>
<path fill="none" stroke="midnightblue" d="M925.4,-256.25C909.66,-270.75 888.66,-290.04 870,-307 853.95,-321.58 835.55,-338.11 822.52,-349.78"/>
<polygon fill="midnightblue" stroke="midnightblue" points="928.12,-258.5 933.1,-249.15 923.38,-253.35 928.12,-258.5"/>
</g>
<!-- Node11 -->
<g id="node11" class="node">
<title>Node11</title>
<g id="a_node11"><a xlink:href="namespacextb__intgrad.html#a515a1507379a42ee41f4b3f24189fe4a" target="_top" xlink:title=" ">
<polygon fill="white" stroke="black" points="760,-219 760,-249 849,-249 849,-219 760,-219"/>
<text text-anchor="start" x="768" y="-237" font-family="Helvetica,sans-Serif" font-size="10.00">xtb_intgrad::build</text>
<text text-anchor="middle" x="804.5" y="-226" font-family="Helvetica,sans-Serif" font-size="10.00">_dsdq_ints</text>
</a>
</g>
</g>
<!-- Node1&#45;&gt;Node11 -->
<g id="edge12" class="edge">
<title>Node1&#45;&gt;Node11</title>
<path fill="none" stroke="midnightblue" d="M895.59,-234C880.37,-234 864,-234 849.44,-234"/>
<polygon fill="midnightblue" stroke="midnightblue" points="895.9,-237.5 905.9,-234 895.9,-230.5 895.9,-237.5"/>
</g>
<!-- Node18 -->
<g id="node18" class="node">
<title>Node18</title>
<g id="a_node18"><a xlink:href="namespacextb__xtb__hamiltonian__gpu.html#a7453a62b3ae977525a80a4e3f1b0b6d6" target="_top" xlink:title=" ">
<polygon fill="white" stroke="black" points="739,-170 739,-200 870,-200 870,-170 739,-170"/>
<text text-anchor="start" x="747" y="-188" font-family="Helvetica,sans-Serif" font-size="10.00">xtb_xtb_hamiltonian</text>
<text text-anchor="middle" x="804.5" y="-177" font-family="Helvetica,sans-Serif" font-size="10.00">_gpu::build_dsdq_ints_gpu</text>
</a>
</g>
</g>
<!-- Node1&#45;&gt;Node18 -->
<g id="edge23" class="edge">
<title>Node1&#45;&gt;Node18</title>
<path fill="none" stroke="midnightblue" d="M896.12,-215.84C880.93,-210.67 864.54,-205.09 849.94,-200.12"/>
<polygon fill="midnightblue" stroke="midnightblue" points="895.31,-219.26 905.9,-219.17 897.57,-212.63 895.31,-219.26"/>
</g>
<!-- Node20 -->
<g id="node20" class="node">
<title>Node20</title>
<g id="a_node20"><a xlink:href="namespacextb__intgrad.html#af483e162e73c1238a72bd8559f9b26e8" target="_top" xlink:title=" ">
<polygon fill="white" stroke="black" points="760,-268 760,-298 849,-298 849,-268 760,-268"/>
<text text-anchor="start" x="768" y="-286" font-family="Helvetica,sans-Serif" font-size="10.00">xtb_intgrad::build</text>
<text text-anchor="middle" x="804.5" y="-275" font-family="Helvetica,sans-Serif" font-size="10.00">_sdq_ints</text>
</a>
</g>
</g>
<!-- Node1&#45;&gt;Node20 -->
<g id="edge26" class="edge">
<title>Node1&#45;&gt;Node20</title>
<path fill="none" stroke="midnightblue" d="M896.03,-252.2C880.69,-257.42 864.14,-263.05 849.44,-268.05"/>
<polygon fill="midnightblue" stroke="midnightblue" points="897.57,-255.37 905.9,-248.83 895.31,-248.74 897.57,-255.37"/>
</g>
<!-- Node32 -->
<g id="node32" class="node">
<title>Node32</title>
<g id="a_node32"><a xlink:href="namespacextb__intgrad.html#a221d8f15f3cb047b495acc86f9e54a37" target="_top" xlink:title=" ">
<polygon fill="white" stroke="black" points="596.5,-55 596.5,-85 685.5,-85 685.5,-55 596.5,-55"/>
<text text-anchor="start" x="604.5" y="-73" font-family="Helvetica,sans-Serif" font-size="10.00">xtb_intgrad::build</text>
<text text-anchor="middle" x="641" y="-62" font-family="Helvetica,sans-Serif" font-size="10.00">_sdq_ints_gpu</text>
</a>
</g>
</g>
<!-- Node1&#45;&gt;Node32 -->
<g id="edge43" class="edge">
<title>Node1&#45;&gt;Node32</title>
<path fill="none" stroke="midnightblue" d="M929.65,-211.48C914.57,-195.43 892.61,-174.27 870,-160 810.79,-122.65 733.53,-96.14 685.87,-81.96"/>
<polygon fill="midnightblue" stroke="midnightblue" points="927.13,-213.9 936.48,-218.89 932.28,-209.16 927.13,-213.9"/>
</g>
<!-- Node3 -->
<g id="node3" class="node">
<title>Node3</title>
<g id="a_node3"><a xlink:href="namespacextb__intgrad.html#a5d63324c2991420830b8c35a212bc44c" target="_top" xlink:title=" ">
<polygon fill="white" stroke="black" points="588,-383 588,-413 694,-413 694,-383 588,-383"/>
<text text-anchor="start" x="596" y="-401" font-family="Helvetica,sans-Serif" font-size="10.00">xtb_intgrad::get_grad</text>
<text text-anchor="middle" x="641" y="-390" font-family="Helvetica,sans-Serif" font-size="10.00">_overlap</text>
</a>
</g>
</g>
<!-- Node2&#45;&gt;Node3 -->
<g id="edge2" class="edge">
<title>Node2&#45;&gt;Node3</title>
<path fill="none" stroke="midnightblue" d="M749.78,-375.98C731.84,-379.64 711.88,-383.72 694.06,-387.36"/>
<polygon fill="midnightblue" stroke="midnightblue" points="750.7,-379.36 759.8,-373.93 749.3,-372.5 750.7,-379.36"/>
</g>
<!-- Node4 -->
<g id="node4" class="node">
<title>Node4</title>
<g id="a_node4"><a xlink:href="namespacextb__peeq.html#a40797d7eda755bad4031e16951ae29b7" target="_top" xlink:title=" ">
<polygon fill="white" stroke="black" points="412,-426.5 412,-445.5 543,-445.5 543,-426.5 412,-426.5"/>
<text text-anchor="middle" x="477.5" y="-433.5" font-family="Helvetica,sans-Serif" font-size="10.00">xtb_peeq::ccm_build_dsh0</text>
</a>
</g>
</g>
<!-- Node3&#45;&gt;Node4 -->
<g id="edge3" class="edge">
<title>Node3&#45;&gt;Node4</title>
<path fill="none" stroke="midnightblue" d="M577.72,-412.65C557.98,-417.3 536.69,-422.31 518.91,-426.49"/>
<polygon fill="midnightblue" stroke="midnightblue" points="578.63,-416.03 587.57,-410.34 577.03,-409.22 578.63,-416.03"/>
</g>
<!-- Node10 -->
<g id="node10" class="node">
<title>Node10</title>
<g id="a_node10"><a xlink:href="namespacextb__peeq.html#a101bc81468c2cd4ddd3221efaa59b142" target="_top" xlink:title=" ">
<polygon fill="white" stroke="black" points="413.5,-388.5 413.5,-407.5 541.5,-407.5 541.5,-388.5 413.5,-388.5"/>
<text text-anchor="middle" x="477.5" y="-395.5" font-family="Helvetica,sans-Serif" font-size="10.00">xtb_peeq::pbc_build_dsh0</text>
</a>
</g>
</g>
<!-- Node3&#45;&gt;Node10 -->
<g id="edge10" class="edge">
<title>Node3&#45;&gt;Node10</title>
<path fill="none" stroke="midnightblue" d="M577.42,-398C565.69,-398 553.41,-398 541.66,-398"/>
<polygon fill="midnightblue" stroke="midnightblue" points="577.57,-401.5 587.57,-398 577.57,-394.5 577.57,-401.5"/>
</g>
<!-- Node5 -->
<g id="node5" class="node">
<title>Node5</title>
<g id="a_node5"><a xlink:href="namespacextb__peeq.html#ac2d6fc22b842455765bdb4f69279095c" target="_top" xlink:title=" ">
<polygon fill="white" stroke="black" points="287.5,-350.5 287.5,-369.5 368.5,-369.5 368.5,-350.5 287.5,-350.5"/>
<text text-anchor="middle" x="328" y="-357.5" font-family="Helvetica,sans-Serif" font-size="10.00">xtb_peeq::peeq</text>
</a>
</g>
</g>
<!-- Node4&#45;&gt;Node5 -->
<g id="edge4" class="edge">
<title>Node4&#45;&gt;Node5</title>
<path fill="none" stroke="midnightblue" d="M427.37,-423.31C422.09,-421.42 416.88,-419.32 412,-417 384.38,-403.86 355.73,-382.05 340.37,-369.56"/>
<polygon fill="midnightblue" stroke="midnightblue" points="426.29,-426.64 436.88,-426.47 428.5,-419.99 426.29,-426.64"/>
</g>
<!-- Node6 -->
<g id="node6" class="node">
<title>Node6</title>
<g id="a_node6"><a xlink:href="namespacextb__xtb__calculator.html#a75c96263c235c99dfeeda3e865f9898c" target="_top" xlink:title=" ">
<polygon fill="white" stroke="black" points="137.5,-279 137.5,-309 232.5,-309 232.5,-279 137.5,-279"/>
<text text-anchor="start" x="145.5" y="-297" font-family="Helvetica,sans-Serif" font-size="10.00">xtb_xtb_calculator</text>
<text text-anchor="middle" x="185" y="-286" font-family="Helvetica,sans-Serif" font-size="10.00">::singlepoint</text>
</a>
</g>
</g>
<!-- Node5&#45;&gt;Node6 -->
<g id="edge5" class="edge">
<title>Node5&#45;&gt;Node6</title>
<path fill="none" stroke="midnightblue" d="M299.02,-345.73C283,-337.67 262.49,-327.54 244,-319 236.83,-315.69 229.11,-312.26 221.71,-309.05"/>
<polygon fill="midnightblue" stroke="midnightblue" points="297.84,-349.05 308.34,-350.44 301,-342.81 297.84,-349.05"/>
</g>
<!-- Node7 -->
<g id="node7" class="node">
<title>Node7</title>
<g id="a_node7"><a xlink:href="TESTSUITE_2gfn0_8f90.html#ac2abd1dbadf75b71866d509eaad7957d" target="_top" xlink:title=" ">
<polygon fill="white" stroke="black" points="148.5,-366.5 148.5,-385.5 221.5,-385.5 221.5,-366.5 148.5,-366.5"/>
<text text-anchor="middle" x="185" y="-373.5" font-family="Helvetica,sans-Serif" font-size="10.00">test_gfn0_sp</text>
</a>
</g>
</g>
<!-- Node5&#45;&gt;Node7 -->
<g id="edge6" class="edge">
<title>Node5&#45;&gt;Node7</title>
<path fill="none" stroke="midnightblue" d="M277.36,-365.63C258.94,-367.72 238.42,-370.05 221.51,-371.97"/>
<polygon fill="midnightblue" stroke="midnightblue" points="277.81,-369.1 287.35,-364.5 277.02,-362.15 277.81,-369.1"/>
</g>
<!-- Node9 -->
<g id="node9" class="node">
<title>Node9</title>
<g id="a_node9"><a xlink:href="peeq_8f90.html#a5122d9bd07a3f4377ee140a5991d1325" target="_top" xlink:title=" ">
<polygon fill="white" stroke="black" points="147.5,-328.5 147.5,-347.5 222.5,-347.5 222.5,-328.5 147.5,-328.5"/>
<text text-anchor="middle" x="185" y="-335.5" font-family="Helvetica,sans-Serif" font-size="10.00">test_peeq_sp</text>
</a>
</g>
</g>
<!-- Node5&#45;&gt;Node9 -->
<g id="edge8" class="edge">
<title>Node5&#45;&gt;Node9</title>
<path fill="none" stroke="midnightblue" d="M277.36,-352.25C259.45,-349.46 239.57,-346.36 222.94,-343.76"/>
<polygon fill="midnightblue" stroke="midnightblue" points="276.93,-355.73 287.35,-353.81 278.01,-348.81 276.93,-355.73"/>
</g>
<!-- Node8 -->
<g id="node8" class="node">
<title>Node8</title>
<g id="a_node8"><a xlink:href="tests__peeq_8f90.html#a87ff5319e0d2e627a4f71d7df0d14891" target="_top" xlink:title=" ">
<polygon fill="white" stroke="black" points="11,-284.5 11,-303.5 79,-303.5 79,-284.5 11,-284.5"/>
<text text-anchor="middle" x="45" y="-291.5" font-family="Helvetica,sans-Serif" font-size="10.00">peeq_tester</text>
</a>
</g>
</g>
<!-- Node7&#45;&gt;Node8 -->
<g id="edge7" class="edge">
<title>Node7&#45;&gt;Node8</title>
<path fill="none" stroke="midnightblue" d="M138.63,-362.87C134.28,-361.1 130,-359.14 126,-357 98.26,-342.14 70.42,-317.49 56.03,-303.84"/>
<polygon fill="midnightblue" stroke="midnightblue" points="137.62,-366.23 148.22,-366.46 140.08,-359.67 137.62,-366.23"/>
</g>
<!-- Node9&#45;&gt;Node8 -->
<g id="edge9" class="edge">
<title>Node9&#45;&gt;Node8</title>
<path fill="none" stroke="midnightblue" d="M144.41,-325.38C122.59,-318.42 95.95,-309.92 75.89,-303.53"/>
<polygon fill="midnightblue" stroke="midnightblue" points="143.47,-328.75 154.06,-328.45 145.59,-322.08 143.47,-328.75"/>
</g>
<!-- Node10&#45;&gt;Node5 -->
<g id="edge11" class="edge">
<title>Node10&#45;&gt;Node5</title>
<path fill="none" stroke="midnightblue" d="M429.49,-385.89C408.94,-380.6 385.2,-374.48 365.95,-369.52"/>
<polygon fill="midnightblue" stroke="midnightblue" points="428.72,-389.31 439.28,-388.41 430.47,-382.53 428.72,-389.31"/>
</g>
<!-- Node12 -->
<g id="node12" class="node">
<title>Node12</title>
<g id="a_node12"><a xlink:href="namespacextb__intgrad.html#a687c81581d68c7e2e2b798d472774195" target="_top" xlink:title=" ">
<polygon fill="white" stroke="black" points="588,-219 588,-249 694,-249 694,-219 588,-219"/>
<text text-anchor="start" x="596" y="-237" font-family="Helvetica,sans-Serif" font-size="10.00">xtb_intgrad::get_grad</text>
<text text-anchor="middle" x="641" y="-226" font-family="Helvetica,sans-Serif" font-size="10.00">_multiint</text>
</a>
</g>
</g>
<!-- Node11&#45;&gt;Node12 -->
<g id="edge13" class="edge">
<title>Node11&#45;&gt;Node12</title>
<path fill="none" stroke="midnightblue" d="M749.78,-234C731.84,-234 711.88,-234 694.06,-234"/>
<polygon fill="midnightblue" stroke="midnightblue" points="749.8,-237.5 759.8,-234 749.8,-230.5 749.8,-237.5"/>
</g>
<!-- Node13 -->
<g id="node13" class="node">
<title>Node13</title>
<g id="a_node13"><a xlink:href="namespacextb__xtb__hamiltonian.html#a8364d9293f8dac8d5de89c5186f7effc" target="_top" xlink:title="Computes the gradient of the dipole/qpole integral contribution.">
<polygon fill="white" stroke="black" points="426.5,-263 426.5,-293 528.5,-293 528.5,-263 426.5,-263"/>
<text text-anchor="start" x="434.5" y="-281" font-family="Helvetica,sans-Serif" font-size="10.00">xtb_xtb_hamiltonian</text>
<text text-anchor="middle" x="477.5" y="-270" font-family="Helvetica,sans-Serif" font-size="10.00">::build_dsdqh0</text>
</a>
</g>
</g>
<!-- Node12&#45;&gt;Node13 -->
<g id="edge14" class="edge">
<title>Node12&#45;&gt;Node13</title>
<path fill="none" stroke="midnightblue" d="M577.65,-250.99C561.46,-255.4 544.23,-260.09 528.75,-264.31"/>
<polygon fill="midnightblue" stroke="midnightblue" points="578.84,-254.29 587.57,-248.29 577,-247.54 578.84,-254.29"/>
</g>
<!-- Node17 -->
<g id="node17" class="node">
<title>Node17</title>
<g id="a_node17"><a xlink:href="namespacextb__xtb__hamiltonian.html#a299eaa3877160d0aff3f63dc55b12fde" target="_top" xlink:title="Computes the gradient of the dipole/qpole integral contribution.">
<polygon fill="white" stroke="black" points="419.5,-214 419.5,-244 535.5,-244 535.5,-214 419.5,-214"/>
<text text-anchor="start" x="427.5" y="-232" font-family="Helvetica,sans-Serif" font-size="10.00">xtb_xtb_hamiltonian</text>
<text text-anchor="middle" x="477.5" y="-221" font-family="Helvetica,sans-Serif" font-size="10.00">::build_dsdqh0_noreset</text>
</a>
</g>
</g>
<!-- Node12&#45;&gt;Node17 -->
<g id="edge21" class="edge">
<title>Node12&#45;&gt;Node17</title>
<path fill="none" stroke="midnightblue" d="M577.27,-232.06C563.57,-231.63 549.15,-231.19 535.69,-230.77"/>
<polygon fill="midnightblue" stroke="midnightblue" points="577.46,-235.57 587.57,-232.38 577.68,-228.57 577.46,-235.57"/>
</g>
<!-- Node14 -->
<g id="node14" class="node">
<title>Node14</title>
<g id="a_node14"><a xlink:href="namespacextb__scf.html#a7390c40a38032c3d210c39edecfa49ed" target="_top" xlink:title=" ">
<polygon fill="white" stroke="black" points="295,-210.5 295,-229.5 361,-229.5 361,-210.5 295,-210.5"/>
<text text-anchor="middle" x="328" y="-217.5" font-family="Helvetica,sans-Serif" font-size="10.00">xtb_scf::scf</text>
</a>
</g>
</g>
<!-- Node13&#45;&gt;Node14 -->
<g id="edge15" class="edge">
<title>Node13&#45;&gt;Node14</title>
<path fill="none" stroke="midnightblue" d="M427.97,-259.24C422.58,-257.14 417.17,-255.03 412,-253 392.08,-245.18 369.52,-236.2 352.95,-229.59"/>
<polygon fill="midnightblue" stroke="midnightblue" points="427.01,-262.62 437.6,-262.98 429.54,-256.1 427.01,-262.62"/>
</g>
<!-- Node14&#45;&gt;Node6 -->
<g id="edge16" class="edge">
<title>Node14&#45;&gt;Node6</title>
<path fill="none" stroke="midnightblue" d="M303.15,-235.17C286.8,-245.29 264.45,-258.61 244,-269 237.25,-272.43 229.93,-275.82 222.83,-278.96"/>
<polygon fill="midnightblue" stroke="midnightblue" points="305.4,-237.89 312.03,-229.62 301.69,-231.95 305.4,-237.89"/>
</g>
<!-- Node15 -->
<g id="node15" class="node">
<title>Node15</title>
<g id="a_node15"><a xlink:href="TESTSUITE_2gfn1_8f90.html#ab5cc37cef2d483d9d9cde17aa03c55a8" target="_top" xlink:title=" ">
<polygon fill="white" stroke="black" points="146,-240.5 146,-259.5 224,-259.5 224,-240.5 146,-240.5"/>
<text text-anchor="middle" x="185" y="-247.5" font-family="Helvetica,sans-Serif" font-size="10.00">test_gfn1_scc</text>
</a>
</g>
</g>
<!-- Node14&#45;&gt;Node15 -->
<g id="edge17" class="edge">
<title>Node14&#45;&gt;Node15</title>
<path fill="none" stroke="midnightblue" d="M284.66,-229.01C265.44,-233.1 242.89,-237.9 224.2,-241.87"/>
<polygon fill="midnightblue" stroke="midnightblue" points="285.6,-232.39 294.65,-226.88 284.14,-225.54 285.6,-232.39"/>
</g>
<!-- Node16 -->
<g id="node16" class="node">
<title>Node16</title>
<g id="a_node16"><a xlink:href="TESTSUITE_2gfn2_8f90.html#af47afba0207cbca2dc950fb5e339ce03" target="_top" xlink:title=" ">
<polygon fill="white" stroke="black" points="146,-202.5 146,-221.5 224,-221.5 224,-202.5 146,-202.5"/>
<text text-anchor="middle" x="185" y="-209.5" font-family="Helvetica,sans-Serif" font-size="10.00">test_gfn2_scc</text>
</a>
</g>
</g>
<!-- Node14&#45;&gt;Node16 -->
<g id="edge19" class="edge">
<title>Node14&#45;&gt;Node16</title>
<path fill="none" stroke="midnightblue" d="M284.66,-217.6C265.44,-216.51 242.89,-215.23 224.2,-214.17"/>
<polygon fill="midnightblue" stroke="midnightblue" points="284.47,-221.09 294.65,-218.16 284.87,-214.1 284.47,-221.09"/>
</g>
<!-- Node15&#45;&gt;Node8 -->
<g id="edge18" class="edge">
<title>Node15&#45;&gt;Node8</title>
<path fill="none" stroke="midnightblue" d="M144.41,-262.62C122.59,-269.58 95.95,-278.08 75.89,-284.47"/>
<polygon fill="midnightblue" stroke="midnightblue" points="145.59,-265.92 154.06,-259.55 143.47,-259.25 145.59,-265.92"/>
</g>
<!-- Node16&#45;&gt;Node8 -->
<g id="edge20" class="edge">
<title>Node16&#45;&gt;Node8</title>
<path fill="none" stroke="midnightblue" d="M138.63,-225.13C134.28,-226.9 130,-228.86 126,-231 98.26,-245.86 70.42,-270.51 56.03,-284.16"/>
<polygon fill="midnightblue" stroke="midnightblue" points="140.08,-228.33 148.22,-221.54 137.62,-221.77 140.08,-228.33"/>
</g>
<!-- Node17&#45;&gt;Node14 -->
<g id="edge22" class="edge">
<title>Node17&#45;&gt;Node14</title>
<path fill="none" stroke="midnightblue" d="M409.15,-224.89C392.44,-223.87 375.29,-222.82 361.16,-221.96"/>
<polygon fill="midnightblue" stroke="midnightblue" points="409.28,-228.4 419.47,-225.52 409.7,-221.42 409.28,-228.4"/>
</g>
<!-- Node19 -->
<g id="node19" class="node">
<title>Node19</title>
<g id="a_node19"><a xlink:href="namespacextb__xtb__hamiltonian__gpu.html#a3fc32a40afb82002170a6633d8870ddb" target="_top" xlink:title="Computes the gradient of the dipole/qpole integral contribution.">
<polygon fill="white" stroke="black" points="581,-170 581,-200 701,-200 701,-170 581,-170"/>
<text text-anchor="start" x="589" y="-188" font-family="Helvetica,sans-Serif" font-size="10.00">xtb_xtb_hamiltonian</text>
<text text-anchor="middle" x="641" y="-177" font-family="Helvetica,sans-Serif" font-size="10.00">_gpu::build_dsdqh0_gpu</text>
</a>
</g>
</g>
<!-- Node18&#45;&gt;Node19 -->
<g id="edge24" class="edge">
<title>Node18&#45;&gt;Node19</title>
<path fill="none" stroke="midnightblue" d="M728.72,-185C719.43,-185 710.03,-185 701.02,-185"/>
<polygon fill="midnightblue" stroke="midnightblue" points="728.74,-188.5 738.74,-185 728.74,-181.5 728.74,-188.5"/>
</g>
<!-- Node19&#45;&gt;Node14 -->
<g id="edge25" class="edge">
<title>Node19&#45;&gt;Node14</title>
<path fill="none" stroke="midnightblue" d="M570.75,-188.83C525.45,-191.82 465.04,-196.7 412,-204 395.14,-206.32 376.51,-209.82 361.19,-212.96"/>
<polygon fill="midnightblue" stroke="midnightblue" points="571,-192.32 580.76,-188.19 570.55,-185.34 571,-192.32"/>
</g>
<!-- Node21 -->
<g id="node21" class="node">
<title>Node21</title>
<g id="a_node21"><a xlink:href="namespacextb__intgrad.html#a75f1b6ec8c7f75caeec5fac307179505" target="_top" xlink:title=" ">
<polygon fill="white" stroke="black" points="579,-104.5 579,-123.5 703,-123.5 703,-104.5 579,-104.5"/>
<text text-anchor="middle" x="641" y="-111.5" font-family="Helvetica,sans-Serif" font-size="10.00">xtb_intgrad::get_multiints</text>
</a>
</g>
</g>
<!-- Node20&#45;&gt;Node21 -->
<g id="edge27" class="edge">
<title>Node20&#45;&gt;Node21</title>
<path fill="none" stroke="midnightblue" d="M750.73,-267.14C746.44,-264.54 742.45,-261.51 739,-258 706.48,-224.9 730.65,-197.26 703,-160 691.46,-144.45 673.24,-131.67 659.72,-123.57"/>
<polygon fill="midnightblue" stroke="midnightblue" points="749.35,-270.37 759.83,-271.93 752.61,-264.18 749.35,-270.37"/>
</g>
<!-- Node29 -->
<g id="node29" class="node">
<title>Node29</title>
<g id="a_node29"><a xlink:href="namespacextb__intgrad.html#a03ad6a36d26f8f5dc85dd5cd44798448" target="_top" xlink:title=" ">
<polygon fill="white" stroke="black" points="581.5,-312.5 581.5,-331.5 700.5,-331.5 700.5,-312.5 581.5,-312.5"/>
<text text-anchor="middle" x="641" y="-319.5" font-family="Helvetica,sans-Serif" font-size="10.00">xtb_intgrad::get_overlap</text>
</a>
</g>
</g>
<!-- Node20&#45;&gt;Node29 -->
<g id="edge38" class="edge">
<title>Node20&#45;&gt;Node29</title>
<path fill="none" stroke="midnightblue" d="M749.81,-295.97C727.52,-301.35 702.13,-307.48 681.59,-312.44"/>
<polygon fill="midnightblue" stroke="midnightblue" points="750.9,-299.3 759.8,-293.55 749.25,-292.5 750.9,-299.3"/>
</g>
<!-- Node22 -->
<g id="node22" class="node">
<title>Node22</title>
<g id="a_node22"><a xlink:href="namespacextb__xtb__hamiltonian.html#a9f0d8be35a4ef0f2dbbbafd2ef873d64" target="_top" xlink:title="Computes the dipole and quadrupole integrals and performs screening to.">
<polygon fill="white" stroke="black" points="426.5,-126 426.5,-156 528.5,-156 528.5,-126 426.5,-126"/>
<text text-anchor="start" x="434.5" y="-144" font-family="Helvetica,sans-Serif" font-size="10.00">xtb_xtb_hamiltonian</text>
<text text-anchor="middle" x="477.5" y="-133" font-family="Helvetica,sans-Serif" font-size="10.00">::build_sdqh0</text>
</a>
</g>
</g>
<!-- Node21&#45;&gt;Node22 -->
<g id="edge28" class="edge">
<title>Node21&#45;&gt;Node22</title>
<path fill="none" stroke="midnightblue" d="M572.95,-125.21C558.16,-127.68 542.74,-130.26 528.75,-132.6"/>
<polygon fill="midnightblue" stroke="midnightblue" points="573.78,-128.62 583.06,-123.52 572.62,-121.72 573.78,-128.62"/>
</g>
<!-- Node23 -->
<g id="node23" class="node">
<title>Node23</title>
<g id="a_node23"><a xlink:href="namespacextb__xtb__hamiltonian__gpu.html#aee3ffc022ae0b9686cef17ce77e6b117" target="_top" xlink:title="Computes the dipole and quadrupole integrals and performs screening to.">
<polygon fill="white" stroke="black" points="420,-77 420,-107 535,-107 535,-77 420,-77"/>
<text text-anchor="start" x="428" y="-95" font-family="Helvetica,sans-Serif" font-size="10.00">xtb_xtb_hamiltonian</text>
<text text-anchor="middle" x="477.5" y="-84" font-family="Helvetica,sans-Serif" font-size="10.00">_gpu::build_sdqh0_gpu</text>
</a>
</g>
</g>
<!-- Node21&#45;&gt;Node23 -->
<g id="edge30" class="edge">
<title>Node21&#45;&gt;Node23</title>
<path fill="none" stroke="midnightblue" d="M568.71,-104.29C557.47,-102.76 545.97,-101.19 535.12,-99.71"/>
<polygon fill="midnightblue" stroke="midnightblue" points="568.56,-107.8 578.94,-105.68 569.51,-100.86 568.56,-107.8"/>
</g>
<!-- Node24 -->
<g id="node24" class="node">
<title>Node24</title>
<g id="a_node24"><a xlink:href="namespacextb__intgrad.html#a45fdbd10e8d62595c60b79d516e52cbd" target="_top" xlink:title="computes the dipole and quadrupole integrals and performs screening to">
<polygon fill="white" stroke="black" points="430,-38.5 430,-57.5 525,-57.5 525,-38.5 430,-38.5"/>
<text text-anchor="middle" x="477.5" y="-45.5" font-family="Helvetica,sans-Serif" font-size="10.00">xtb_intgrad::sdqint</text>
</a>
</g>
</g>
<!-- Node21&#45;&gt;Node24 -->
<g id="edge32" class="edge">
<title>Node21&#45;&gt;Node24</title>
<path fill="none" stroke="midnightblue" d="M594.67,-100.99C589.28,-98.91 583.94,-96.57 579,-94 561.26,-84.76 560.88,-75.97 543,-67 535.59,-63.28 527.33,-60.17 519.26,-57.6"/>
<polygon fill="midnightblue" stroke="midnightblue" points="593.77,-104.38 604.36,-104.48 596.14,-97.8 593.77,-104.38"/>
</g>
<!-- Node28 -->
<g id="node28" class="node">
<title>Node28</title>
<g id="a_node28"><a xlink:href="namespacextb__intgrad.html#acfb80861031d50fbbfc7f6a4d203b94f" target="_top" xlink:title="Computes the overlap dipole and quadrupole integrals.">
<polygon fill="white" stroke="black" points="419.5,-0.5 419.5,-19.5 535.5,-19.5 535.5,-0.5 419.5,-0.5"/>
<text text-anchor="middle" x="477.5" y="-7.5" font-family="Helvetica,sans-Serif" font-size="10.00">xtb_intgrad::sdqint_gpu</text>
</a>
</g>
</g>
<!-- Node21&#45;&gt;Node28 -->
<g id="edge36" class="edge">
<title>Node21&#45;&gt;Node28</title>
<path fill="none" stroke="midnightblue" d="M587.77,-99.99C584.66,-98.22 581.7,-96.23 579,-94 553.55,-72.96 568.77,-49.66 543,-29 538.17,-25.13 532.58,-22.05 526.74,-19.59"/>
<polygon fill="midnightblue" stroke="midnightblue" points="586.34,-103.18 596.86,-104.41 589.4,-96.89 586.34,-103.18"/>
</g>
<!-- Node22&#45;&gt;Node14 -->
<g id="edge29" class="edge">
<title>Node22&#45;&gt;Node14</title>
<path fill="none" stroke="midnightblue" d="M432.91,-160.57C425.86,-163.93 418.69,-167.48 412,-171 387.86,-183.7 360.81,-200.09 344.35,-210.33"/>
<polygon fill="midnightblue" stroke="midnightblue" points="434.83,-163.53 442.39,-156.11 431.85,-157.2 434.83,-163.53"/>
</g>
<!-- Node23&#45;&gt;Node14 -->
<g id="edge31" class="edge">
<title>Node23&#45;&gt;Node14</title>
<path fill="none" stroke="midnightblue" d="M417.9,-112.1C415.86,-113.34 413.89,-114.63 412,-116 375.14,-142.69 345.86,-189.89 334.32,-210.23"/>
<polygon fill="midnightblue" stroke="midnightblue" points="420.01,-114.95 427.15,-107.12 416.69,-108.78 420.01,-114.95"/>
</g>
<!-- Node25 -->
<g id="node25" class="node">
<title>Node25</title>
<g id="a_node25"><a xlink:href="namespacextb__propertyoutput.html#a74ca9110d4ecdd9fc1a790d9a2027a02" target="_top" xlink:title=" ">
<polygon fill="white" stroke="black" points="280,-14 280,-44 376,-44 376,-14 280,-14"/>
<text text-anchor="start" x="288" y="-32" font-family="Helvetica,sans-Serif" font-size="10.00">xtb_propertyoutput</text>
<text text-anchor="middle" x="328" y="-21" font-family="Helvetica,sans-Serif" font-size="10.00">::main_property</text>
</a>
</g>
</g>
<!-- Node24&#45;&gt;Node25 -->
<g id="edge33" class="edge">
<title>Node24&#45;&gt;Node25</title>
<path fill="none" stroke="midnightblue" d="M419.57,-40.67C405.2,-38.82 389.95,-36.85 376.13,-35.07"/>
<polygon fill="midnightblue" stroke="midnightblue" points="419.46,-44.18 429.83,-41.99 420.36,-37.24 419.46,-44.18"/>
</g>
<!-- Node26 -->
<g id="node26" class="node">
<title>Node26</title>
<g id="a_node26"><a xlink:href="namespacextb__prog__main.html#a92b3b61ee04235e6343f652095682529" target="_top" xlink:title=" ">
<polygon fill="white" stroke="black" points="126,-19.5 126,-38.5 244,-38.5 244,-19.5 126,-19.5"/>
<text text-anchor="middle" x="185" y="-26.5" font-family="Helvetica,sans-Serif" font-size="10.00">xtb_prog_main::xtbmain</text>
</a>
</g>
</g>
<!-- Node25&#45;&gt;Node26 -->
<g id="edge34" class="edge">
<title>Node25&#45;&gt;Node26</title>
<path fill="none" stroke="midnightblue" d="M269.61,-29C261.25,-29 252.62,-29 244.24,-29"/>
<polygon fill="midnightblue" stroke="midnightblue" points="269.66,-32.5 279.66,-29 269.66,-25.5 269.66,-32.5"/>
</g>
<!-- Node27 -->
<g id="node27" class="node">
<title>Node27</title>
<g id="a_node27"><a xlink:href="primary_8f90.html#a2a67903cf5be605c5b6d3c362c6a3c5c" target="_top" xlink:title="The primary driver for the xtb program package.">
<polygon fill="white" stroke="black" points="0,-19.5 0,-38.5 90,-38.5 90,-19.5 0,-19.5"/>
<text text-anchor="middle" x="45" y="-26.5" font-family="Helvetica,sans-Serif" font-size="10.00">xtb_prog_primary</text>
</a>
</g>
</g>
<!-- Node26&#45;&gt;Node27 -->
<g id="edge35" class="edge">
<title>Node26&#45;&gt;Node27</title>
<path fill="none" stroke="midnightblue" d="M115.73,-29C107.06,-29 98.37,-29 90.22,-29"/>
<polygon fill="midnightblue" stroke="midnightblue" points="115.88,-32.5 125.88,-29 115.88,-25.5 115.88,-32.5"/>
</g>
<!-- Node28&#45;&gt;Node25 -->
<g id="edge37" class="edge">
<title>Node28&#45;&gt;Node25</title>
<path fill="none" stroke="midnightblue" d="M409.32,-18.65C398.18,-20.09 386.84,-21.55 376.32,-22.9"/>
<polygon fill="midnightblue" stroke="midnightblue" points="410,-22.09 419.47,-17.35 409.11,-15.15 410,-22.09"/>
</g>
<!-- Node30 -->
<g id="node30" class="node">
<title>Node30</title>
<g id="a_node30"><a xlink:href="namespacextb__peeq.html#a88e7865d904c0f99f485a16db19d88aa" target="_top" xlink:title=" ">
<polygon fill="white" stroke="black" points="415,-350.5 415,-369.5 540,-369.5 540,-350.5 415,-350.5"/>
<text text-anchor="middle" x="477.5" y="-357.5" font-family="Helvetica,sans-Serif" font-size="10.00">xtb_peeq::ccm_build_sh0</text>
</a>
</g>
</g>
<!-- Node29&#45;&gt;Node30 -->
<g id="edge39" class="edge">
<title>Node29&#45;&gt;Node30</title>
<path fill="none" stroke="midnightblue" d="M589.44,-333.9C566.74,-339.24 540.32,-345.45 518.96,-350.48"/>
<polygon fill="midnightblue" stroke="midnightblue" points="590.31,-337.29 599.25,-331.59 588.71,-330.47 590.31,-337.29"/>
</g>
<!-- Node31 -->
<g id="node31" class="node">
<title>Node31</title>
<g id="a_node31"><a xlink:href="namespacextb__peeq.html#a9e3625eb7bd9b7e395c110aacfe6eaeb" target="_top" xlink:title=" ">
<polygon fill="white" stroke="black" points="416.5,-312.5 416.5,-331.5 538.5,-331.5 538.5,-312.5 416.5,-312.5"/>
<text text-anchor="middle" x="477.5" y="-319.5" font-family="Helvetica,sans-Serif" font-size="10.00">xtb_peeq::pbc_build_sh0</text>
</a>
</g>
</g>
<!-- Node29&#45;&gt;Node31 -->
<g id="edge41" class="edge">
<title>Node29&#45;&gt;Node31</title>
<path fill="none" stroke="midnightblue" d="M571.01,-322C560.22,-322 549.14,-322 538.57,-322"/>
<polygon fill="midnightblue" stroke="midnightblue" points="571.24,-325.5 581.24,-322 571.24,-318.5 571.24,-325.5"/>
</g>
<!-- Node30&#45;&gt;Node5 -->
<g id="edge40" class="edge">
<title>Node30&#45;&gt;Node5</title>
<path fill="none" stroke="midnightblue" d="M404.47,-360C392.11,-360 379.69,-360 368.59,-360"/>
<polygon fill="midnightblue" stroke="midnightblue" points="404.8,-363.5 414.8,-360 404.8,-356.5 404.8,-363.5"/>
</g>
<!-- Node31&#45;&gt;Node5 -->
<g id="edge42" class="edge">
<title>Node31&#45;&gt;Node5</title>
<path fill="none" stroke="midnightblue" d="M429.49,-334.11C408.94,-339.4 385.2,-345.52 365.95,-350.48"/>
<polygon fill="midnightblue" stroke="midnightblue" points="430.47,-337.47 439.28,-331.59 428.72,-330.69 430.47,-337.47"/>
</g>
<!-- Node32&#45;&gt;Node23 -->
<g id="edge44" class="edge">
<title>Node32&#45;&gt;Node23</title>
<path fill="none" stroke="midnightblue" d="M586.29,-77.32C569.82,-79.56 551.65,-82.03 535,-84.3"/>
<polygon fill="midnightblue" stroke="midnightblue" points="586.86,-80.77 596.3,-75.95 585.91,-73.84 586.86,-80.77"/>
</g>
<!-- Node32&#45;&gt;Node28 -->
<g id="edge45" class="edge">
<title>Node32&#45;&gt;Node28</title>
<path fill="none" stroke="midnightblue" d="M597.19,-50.67C580.45,-43.44 560.99,-35.43 543,-29 533.55,-25.62 523.16,-22.37 513.55,-19.54"/>
<polygon fill="midnightblue" stroke="midnightblue" points="596.14,-54.03 606.7,-54.82 598.94,-47.61 596.14,-54.03"/>
</g>
</g>
</svg>
