<?xml version="1.0" encoding="UTF-8" standalone="no"?>
<!DOCTYPE svg PUBLIC "-//W3C//DTD SVG 1.1//EN"
 "http://www.w3.org/Graphics/SVG/1.1/DTD/svg11.dtd">
<!-- Generated by graphviz version 2.43.0 (0)
 -->
<!-- Title: xtb_disp_ncoord::ncoord_d4 Pages: 1 -->
<svg width="336pt" height="88pt"
 viewBox="0.00 0.00 336.00 88.00" xmlns="http://www.w3.org/2000/svg" xmlns:xlink="http://www.w3.org/1999/xlink">
<g id="graph0" class="graph" transform="scale(1 1) rotate(0) translate(4 84)">
<title>xtb_disp_ncoord::ncoord_d4</title>
<polygon fill="white" stroke="transparent" points="-4,4 -4,-84 332,-84 332,4 -4,4"/>
<!-- Node1 -->
<g id="node1" class="node">
<title>Node1</title>
<g id="a_node1"><a xlink:title=" ">
<polygon fill="#bfbfbf" stroke="black" points="176,-30 176,-49 328,-49 328,-30 176,-30"/>
<text text-anchor="middle" x="252" y="-37" font-family="Helvetica,sans-Serif" font-size="10.00">xtb_disp_ncoord::ncoord_d4</text>
</a>
</g>
</g>
<!-- Node2 -->
<g id="node2" class="node">
<title>Node2</title>
<g id="a_node2"><a xlink:href="interfacextb__xtb__dispersion_1_1init.html#a42d6b33ba5506f8c39893d07e35433e1" target="_top" xlink:title=" ">
<polygon fill="white" stroke="black" points="15,-49.5 15,-79.5 125,-79.5 125,-49.5 15,-49.5"/>
<text text-anchor="start" x="23" y="-67.5" font-family="Helvetica,sans-Serif" font-size="10.00">xtb_xtb_dispersion</text>
<text text-anchor="middle" x="70" y="-56.5" font-family="Helvetica,sans-Serif" font-size="10.00">::init::initdispersion</text>
</a>
</g>
</g>
<!-- Node1&#45;&gt;Node2 -->
<g id="edge1" class="edge">
<title>Node1&#45;&gt;Node2</title>
<path fill="none" stroke="midnightblue" d="M172.1,-50.46C156.23,-52.66 139.89,-54.93 125.11,-56.99"/>
<polygon fill="midnightblue" stroke="midnightblue" points="173.01,-53.87 182.44,-49.02 172.05,-46.93 173.01,-53.87"/>
</g>
<!-- Node3 -->
<g id="node3" class="node">
<title>Node3</title>
<g id="a_node3"><a xlink:href="interfacextb__disp__ncoord_1_1get__d4__cn.html#ab36e5343245690a4758393122500c4cb" target="_top" xlink:title=" ">
<polygon fill="white" stroke="black" points="0,-0.5 0,-30.5 140,-30.5 140,-0.5 0,-0.5"/>
<text text-anchor="start" x="8" y="-18.5" font-family="Helvetica,sans-Serif" font-size="10.00">xtb_disp_ncoord::get</text>
<text text-anchor="middle" x="70" y="-7.5" font-family="Helvetica,sans-Serif" font-size="10.00">_d4_cn::ncoord_d4_driver</text>
</a>
</g>
</g>
<!-- Node1&#45;&gt;Node3 -->
<g id="edge2" class="edge">
<title>Node1&#45;&gt;Node3</title>
<path fill="none" stroke="midnightblue" d="M169.49,-28.63C159.73,-27.33 149.83,-26.01 140.26,-24.73"/>
<polygon fill="midnightblue" stroke="midnightblue" points="169.23,-32.13 179.6,-29.98 170.15,-25.19 169.23,-32.13"/>
</g>
</g>
</svg>
