<?xml version="1.0" encoding="UTF-8" standalone="no"?>
<!DOCTYPE svg PUBLIC "-//W3C//DTD SVG 1.1//EN"
 "http://www.w3.org/Graphics/SVG/1.1/DTD/svg11.dtd">
<!-- Generated by graphviz version 2.46.0 (20210122.1329)
 -->
<!-- Title: pocketscan Pages: 1 -->
<svg width="541pt" height="237pt"
 viewBox="0.00 0.00 541.00 237.00" xmlns="http://www.w3.org/2000/svg" xmlns:xlink="http://www.w3.org/1999/xlink">
<g id="graph0" class="graph" transform="scale(1 1) rotate(0) translate(4 233)">
<title>pocketscan</title>
<polygon fill="white" stroke="transparent" points="-4,4 -4,-233 537,-233 537,4 -4,4"/>
<!-- Node1 -->
<g id="node1" class="node">
<title>Node1</title>
<g id="a_node1"><a xlink:title=" ">
<polygon fill="#bfbfbf" stroke="black" points="0,-95.5 0,-114.5 67,-114.5 67,-95.5 0,-95.5"/>
<text text-anchor="middle" x="33.5" y="-102.5" font-family="Helvetica,sans-Serif" font-size="10.00">pocketscan</text>
</a>
</g>
</g>
<!-- Node2 -->
<g id="node2" class="node">
<title>Node2</title>
<g id="a_node2"><a xlink:href="filetools_8F90.html#abe40c19bea97456da4d616af69059aeb" target="_top" xlink:title=" ">
<polygon fill="white" stroke="black" points="145,-190.5 145,-209.5 202,-209.5 202,-190.5 145,-190.5"/>
<text text-anchor="middle" x="173.5" y="-197.5" font-family="Helvetica,sans-Serif" font-size="10.00">close_file</text>
</a>
</g>
</g>
<!-- Node1&#45;&gt;Node2 -->
<g id="edge1" class="edge">
<title>Node1&#45;&gt;Node2</title>
<path fill="none" stroke="midnightblue" d="M40.41,-114.53C50.95,-130.71 74.57,-163.49 103,-181 112.7,-186.98 124.3,-191.11 135.22,-193.95"/>
<polygon fill="midnightblue" stroke="midnightblue" points="134.45,-197.36 144.98,-196.21 136.03,-190.54 134.45,-197.36"/>
</g>
<!-- Node3 -->
<g id="node3" class="node">
<title>Node3</title>
<g id="a_node3"><a xlink:href="pocketscan_8f90.html#a0e7c9593cb930bbf2863107ce929bdee" target="_top" xlink:title=" ">
<polygon fill="white" stroke="black" points="146,-152.5 146,-171.5 201,-171.5 201,-152.5 146,-152.5"/>
<text text-anchor="middle" x="173.5" y="-159.5" font-family="Helvetica,sans-Serif" font-size="10.00">ifaceaxis</text>
</a>
</g>
</g>
<!-- Node1&#45;&gt;Node3 -->
<g id="edge2" class="edge">
<title>Node1&#45;&gt;Node3</title>
<path fill="none" stroke="midnightblue" d="M49.22,-114.53C62.75,-122.95 83.6,-135.1 103,-143 113.45,-147.25 125.16,-150.87 135.95,-153.77"/>
<polygon fill="midnightblue" stroke="midnightblue" points="135.38,-157.23 145.94,-156.32 137.12,-150.45 135.38,-157.23"/>
</g>
<!-- Node9 -->
<g id="node9" class="node">
<title>Node9</title>
<g id="a_node9"><a xlink:href="namespacextb__disp__ncoord.html#a2ab59957c30e2004df3d63de63423bb9" target="_top" xlink:title="original D3 type coordination number from 2010">
<polygon fill="white" stroke="black" points="105,-114.5 105,-133.5 242,-133.5 242,-114.5 105,-114.5"/>
<text text-anchor="middle" x="173.5" y="-121.5" font-family="Helvetica,sans-Serif" font-size="10.00">xtb_disp_ncoord::ncoord_d3</text>
</a>
</g>
</g>
<!-- Node1&#45;&gt;Node9 -->
<g id="edge8" class="edge">
<title>Node1&#45;&gt;Node9</title>
<path fill="none" stroke="midnightblue" d="M67.2,-109.5C75.6,-110.66 85.01,-111.95 94.65,-113.28"/>
<polygon fill="midnightblue" stroke="midnightblue" points="94.36,-116.77 104.74,-114.67 95.31,-109.84 94.36,-116.77"/>
</g>
<!-- Node10 -->
<g id="node10" class="node">
<title>Node10</title>
<g id="a_node10"><a xlink:href="filetools_8F90.html#a68160ec369d61855ea12b180c7ce8c21" target="_top" xlink:title=" ">
<polygon fill="white" stroke="black" points="146,-76.5 146,-95.5 201,-95.5 201,-76.5 146,-76.5"/>
<text text-anchor="middle" x="173.5" y="-83.5" font-family="Helvetica,sans-Serif" font-size="10.00">open_file</text>
</a>
</g>
</g>
<!-- Node1&#45;&gt;Node10 -->
<g id="edge9" class="edge">
<title>Node1&#45;&gt;Node10</title>
<path fill="none" stroke="midnightblue" d="M67.2,-100.5C87.75,-97.67 114.31,-94.01 135.61,-91.08"/>
<polygon fill="midnightblue" stroke="midnightblue" points="136.16,-94.54 145.59,-89.7 135.21,-87.6 136.16,-94.54"/>
</g>
<!-- Node11 -->
<g id="node11" class="node">
<title>Node11</title>
<g id="a_node11"><a xlink:href="pocketscan_8f90.html#ae5a92fd33f760e40f23388fd20fde175" target="_top" xlink:title=" ">
<polygon fill="white" stroke="black" points="134.5,-38.5 134.5,-57.5 212.5,-57.5 212.5,-38.5 134.5,-38.5"/>
<text text-anchor="middle" x="173.5" y="-45.5" font-family="Helvetica,sans-Serif" font-size="10.00">pocketrotation</text>
</a>
</g>
</g>
<!-- Node1&#45;&gt;Node11 -->
<g id="edge10" class="edge">
<title>Node1&#45;&gt;Node11</title>
<path fill="none" stroke="midnightblue" d="M49.22,-95.47C62.75,-87.05 83.6,-74.9 103,-67 109.85,-64.21 117.24,-61.7 124.56,-59.48"/>
<polygon fill="midnightblue" stroke="midnightblue" points="125.8,-62.77 134.44,-56.64 123.86,-56.04 125.8,-62.77"/>
</g>
<!-- Node12 -->
<g id="node12" class="node">
<title>Node12</title>
<g id="a_node12"><a xlink:href="namespacextb__mctc__symbols.html#abe837ad333242b4dd3073c5747c13e28" target="_top" xlink:title="Convert atomic number to element symbol.">
<polygon fill="white" stroke="black" points="103,-0.5 103,-19.5 244,-19.5 244,-0.5 103,-0.5"/>
<text text-anchor="middle" x="173.5" y="-7.5" font-family="Helvetica,sans-Serif" font-size="10.00">xtb_mctc_symbols::tosymbol</text>
</a>
</g>
</g>
<!-- Node1&#45;&gt;Node12 -->
<g id="edge11" class="edge">
<title>Node1&#45;&gt;Node12</title>
<path fill="none" stroke="midnightblue" d="M40.41,-95.47C50.95,-79.29 74.57,-46.51 103,-29 106.44,-26.88 110.11,-25 113.91,-23.32"/>
<polygon fill="midnightblue" stroke="midnightblue" points="115.49,-26.46 123.54,-19.56 112.95,-19.94 115.49,-26.46"/>
</g>
<!-- Node4 -->
<g id="node4" class="node">
<title>Node4</title>
<g id="a_node4"><a xlink:href="drsp_8f.html#ac8791cdbe49427e661f00b126ce4dbbc" target="_top" xlink:title=" ">
<polygon fill="white" stroke="black" points="351.5,-152.5 351.5,-171.5 381.5,-171.5 381.5,-152.5 351.5,-152.5"/>
<text text-anchor="middle" x="366.5" y="-159.5" font-family="Helvetica,sans-Serif" font-size="10.00">rsp</text>
</a>
</g>
</g>
<!-- Node3&#45;&gt;Node4 -->
<g id="edge3" class="edge">
<title>Node3&#45;&gt;Node4</title>
<path fill="none" stroke="midnightblue" d="M201.06,-162C238.22,-162 305.19,-162 341.13,-162"/>
<polygon fill="midnightblue" stroke="midnightblue" points="341.22,-165.5 351.22,-162 341.22,-158.5 341.22,-165.5"/>
</g>
<!-- Node5 -->
<g id="node5" class="node">
<title>Node5</title>
<g id="a_node5"><a xlink:href="drsp_8f.html#a163d6464d6ff31893ac0abcfa0d6eeec" target="_top" xlink:title=" ">
<polygon fill="white" stroke="black" points="495,-209.5 495,-228.5 527,-228.5 527,-209.5 495,-209.5"/>
<text text-anchor="middle" x="511" y="-216.5" font-family="Helvetica,sans-Serif" font-size="10.00">tql2</text>
</a>
</g>
</g>
<!-- Node4&#45;&gt;Node5 -->
<g id="edge4" class="edge">
<title>Node4&#45;&gt;Node5</title>
<path fill="none" stroke="midnightblue" d="M381.68,-167.67C405.85,-177.34 455.27,-197.11 485.23,-209.09"/>
<polygon fill="midnightblue" stroke="midnightblue" points="484,-212.37 494.58,-212.83 486.6,-205.87 484,-212.37"/>
</g>
<!-- Node6 -->
<g id="node6" class="node">
<title>Node6</title>
<g id="a_node6"><a xlink:href="drsp_8f.html#a47a86ab7ed20a30b44b28253866ac7ff" target="_top" xlink:title=" ">
<polygon fill="white" stroke="black" points="492,-171.5 492,-190.5 530,-190.5 530,-171.5 492,-171.5"/>
<text text-anchor="middle" x="511" y="-178.5" font-family="Helvetica,sans-Serif" font-size="10.00">tqlrat</text>
</a>
</g>
</g>
<!-- Node4&#45;&gt;Node6 -->
<g id="edge5" class="edge">
<title>Node4&#45;&gt;Node6</title>
<path fill="none" stroke="midnightblue" d="M381.68,-163.89C404.98,-167 451.78,-173.24 481.96,-177.26"/>
<polygon fill="midnightblue" stroke="midnightblue" points="481.5,-180.73 491.88,-178.58 482.43,-173.79 481.5,-180.73"/>
</g>
<!-- Node7 -->
<g id="node7" class="node">
<title>Node7</title>
<g id="a_node7"><a xlink:href="drsp_8f.html#a035138691289fce6e2d30c8b3c41188f" target="_top" xlink:title=" ">
<polygon fill="white" stroke="black" points="489,-133.5 489,-152.5 533,-152.5 533,-133.5 489,-133.5"/>
<text text-anchor="middle" x="511" y="-140.5" font-family="Helvetica,sans-Serif" font-size="10.00">trbak3</text>
</a>
</g>
</g>
<!-- Node4&#45;&gt;Node7 -->
<g id="edge6" class="edge">
<title>Node4&#45;&gt;Node7</title>
<path fill="none" stroke="midnightblue" d="M381.68,-160.11C404.23,-157.1 448.77,-151.16 478.97,-147.14"/>
<polygon fill="midnightblue" stroke="midnightblue" points="479.55,-150.59 489,-145.8 478.62,-143.65 479.55,-150.59"/>
</g>
<!-- Node8 -->
<g id="node8" class="node">
<title>Node8</title>
<g id="a_node8"><a xlink:href="drsp_8f.html#a160df22dcc004ea7373039d1db601e3d" target="_top" xlink:title=" ">
<polygon fill="white" stroke="black" points="492,-95.5 492,-114.5 530,-114.5 530,-95.5 492,-95.5"/>
<text text-anchor="middle" x="511" y="-102.5" font-family="Helvetica,sans-Serif" font-size="10.00">tred3</text>
</a>
</g>
</g>
<!-- Node4&#45;&gt;Node8 -->
<g id="edge7" class="edge">
<title>Node4&#45;&gt;Node8</title>
<path fill="none" stroke="midnightblue" d="M381.68,-156.33C405.09,-146.97 452.19,-128.12 482.35,-116.06"/>
<polygon fill="midnightblue" stroke="midnightblue" points="483.89,-119.21 491.88,-112.25 481.29,-112.71 483.89,-119.21"/>
</g>
<!-- Node13 -->
<g id="node13" class="node">
<title>Node13</title>
<g id="a_node13"><a xlink:href="namespacextb__mctc__symbols.html#a79bd74e1e6f1eae5387d103d33088dc8" target="_top" xlink:title="Convert atomic number to element symbol.">
<polygon fill="white" stroke="black" points="280,-0.5 280,-19.5 453,-19.5 453,-0.5 280,-0.5"/>
<text text-anchor="middle" x="366.5" y="-7.5" font-family="Helvetica,sans-Serif" font-size="10.00">xtb_mctc_symbols::numbertosymbol</text>
</a>
</g>
</g>
<!-- Node12&#45;&gt;Node13 -->
<g id="edge12" class="edge">
<title>Node12&#45;&gt;Node13</title>
<path fill="none" stroke="midnightblue" d="M244.27,-10C252.61,-10 261.25,-10 269.88,-10"/>
<polygon fill="midnightblue" stroke="midnightblue" points="270,-13.5 280,-10 270,-6.5 270,-13.5"/>
</g>
</g>
</svg>
