<?xml version="1.0" encoding="UTF-8" standalone="no"?>
<!DOCTYPE svg PUBLIC "-//W3C//DTD SVG 1.1//EN"
 "http://www.w3.org/Graphics/SVG/1.1/DTD/svg11.dtd">
<!-- Generated by graphviz version 2.43.0 (0)
 -->
<!-- Title: printmold Pages: 1 -->
<svg width="501pt" height="66pt"
 viewBox="0.00 0.00 501.00 66.00" xmlns="http://www.w3.org/2000/svg" xmlns:xlink="http://www.w3.org/1999/xlink">
<g id="graph0" class="graph" transform="scale(1 1) rotate(0) translate(4 62)">
<title>printmold</title>
<polygon fill="white" stroke="transparent" points="-4,4 -4,-62 497,-62 497,4 -4,4"/>
<!-- Node1 -->
<g id="node1" class="node">
<title>Node1</title>
<g id="a_node1"><a xlink:title=" ">
<polygon fill="#bfbfbf" stroke="black" points="0,-19.5 0,-38.5 64,-38.5 64,-19.5 0,-19.5"/>
<text text-anchor="middle" x="32" y="-26.5" font-family="Helvetica,sans-Serif" font-size="10.00">printmold</text>
</a>
</g>
</g>
<!-- Node2 -->
<g id="node2" class="node">
<title>Node2</title>
<g id="a_node2"><a xlink:href="printmold_8f90.html#ae355348ed4e0565dba921acec8908ee0" target="_top" xlink:title=" ">
<polygon fill="white" stroke="black" points="152,-38.5 152,-57.5 208,-57.5 208,-38.5 152,-38.5"/>
<text text-anchor="middle" x="180" y="-45.5" font-family="Helvetica,sans-Serif" font-size="10.00">ang2chr</text>
</a>
</g>
</g>
<!-- Node1&#45;&gt;Node2 -->
<g id="edge1" class="edge">
<title>Node1&#45;&gt;Node2</title>
<path fill="none" stroke="midnightblue" d="M64.32,-33.08C86.95,-36.02 117.61,-40.01 141.53,-43.12"/>
<polygon fill="midnightblue" stroke="midnightblue" points="141.29,-46.62 151.66,-44.44 142.2,-39.68 141.29,-46.62"/>
</g>
<!-- Node4 -->
<g id="node4" class="node">
<title>Node4</title>
<g id="a_node4"><a xlink:href="namespacextb__mctc__symbols.html#abe837ad333242b4dd3073c5747c13e28" target="_top" xlink:title="Convert atomic number to element symbol.">
<polygon fill="white" stroke="black" points="100,-0.5 100,-19.5 260,-19.5 260,-0.5 100,-0.5"/>
<text text-anchor="middle" x="180" y="-7.5" font-family="Helvetica,sans-Serif" font-size="10.00">xtb_mctc_symbols::tosymbol</text>
</a>
</g>
</g>
<!-- Node1&#45;&gt;Node4 -->
<g id="edge3" class="edge">
<title>Node1&#45;&gt;Node4</title>
<path fill="none" stroke="midnightblue" d="M64.32,-24.92C73.69,-23.71 84.43,-22.31 95.5,-20.87"/>
<polygon fill="midnightblue" stroke="midnightblue" points="96.27,-24.3 105.73,-19.54 95.36,-17.35 96.27,-24.3"/>
</g>
<!-- Node3 -->
<g id="node3" class="node">
<title>Node3</title>
<g id="a_node3"><a xlink:href="symmetry__i_8c.html#aa77c823a9fc018ae1d437369708d8727" target="_top" xlink:title=" ">
<polygon fill="white" stroke="black" points="376.5,-38.5 376.5,-57.5 412.5,-57.5 412.5,-38.5 376.5,-38.5"/>
<text text-anchor="middle" x="394.5" y="-45.5" font-family="Helvetica,sans-Serif" font-size="10.00">true</text>
</a>
</g>
</g>
<!-- Node2&#45;&gt;Node3 -->
<g id="edge2" class="edge">
<title>Node2&#45;&gt;Node3</title>
<path fill="none" stroke="midnightblue" d="M208.35,-48C249.2,-48 325.7,-48 366.4,-48"/>
<polygon fill="midnightblue" stroke="midnightblue" points="366.41,-51.5 376.41,-48 366.41,-44.5 366.41,-51.5"/>
</g>
<!-- Node5 -->
<g id="node5" class="node">
<title>Node5</title>
<g id="a_node5"><a xlink:href="namespacextb__mctc__symbols.html#a79bd74e1e6f1eae5387d103d33088dc8" target="_top" xlink:title="Convert atomic number to element symbol.">
<polygon fill="white" stroke="black" points="296,-0.5 296,-19.5 493,-19.5 493,-0.5 296,-0.5"/>
<text text-anchor="middle" x="394.5" y="-7.5" font-family="Helvetica,sans-Serif" font-size="10.00">xtb_mctc_symbols::numbertosymbol</text>
</a>
</g>
</g>
<!-- Node4&#45;&gt;Node5 -->
<g id="edge4" class="edge">
<title>Node4&#45;&gt;Node5</title>
<path fill="none" stroke="midnightblue" d="M260.13,-10C268.52,-10 277.16,-10 285.81,-10"/>
<polygon fill="midnightblue" stroke="midnightblue" points="285.96,-13.5 295.96,-10 285.96,-6.5 285.96,-13.5"/>
</g>
</g>
</svg>
