<?xml version="1.0" encoding="UTF-8" standalone="no"?>
<!DOCTYPE svg PUBLIC "-//W3C//DTD SVG 1.1//EN"
 "http://www.w3.org/Graphics/SVG/1.1/DTD/svg11.dtd">
<!-- Generated by graphviz version 2.43.0 (0)
 -->
<!-- Title: ang2chr Pages: 1 -->
<svg width="170pt" height="66pt"
 viewBox="0.00 0.00 170.00 66.00" xmlns="http://www.w3.org/2000/svg" xmlns:xlink="http://www.w3.org/1999/xlink">
<g id="graph0" class="graph" transform="scale(1 1) rotate(0) translate(4 62)">
<title>ang2chr</title>
<polygon fill="white" stroke="transparent" points="-4,4 -4,-62 166,-62 166,4 -4,4"/>
<!-- Node1 -->
<g id="node1" class="node">
<title>Node1</title>
<g id="a_node1"><a xlink:title=" ">
<polygon fill="#bfbfbf" stroke="black" points="106,-19.5 106,-38.5 162,-38.5 162,-19.5 106,-19.5"/>
<text text-anchor="middle" x="134" y="-26.5" font-family="Helvetica,sans-Serif" font-size="10.00">ang2chr</text>
</a>
</g>
</g>
<!-- Node2 -->
<g id="node2" class="node">
<title>Node2</title>
<g id="a_node2"><a xlink:href="printmold_8f90.html#ad469ddc7f149974ab6ffd7b9fe8f855f" target="_top" xlink:title=" ">
<polygon fill="white" stroke="black" points="3,-38.5 3,-57.5 67,-57.5 67,-38.5 3,-38.5"/>
<text text-anchor="middle" x="35" y="-45.5" font-family="Helvetica,sans-Serif" font-size="10.00">printmold</text>
</a>
</g>
</g>
<!-- Node1&#45;&gt;Node2 -->
<g id="edge1" class="edge">
<title>Node1&#45;&gt;Node2</title>
<path fill="none" stroke="midnightblue" d="M96.03,-36.24C86.57,-38.1 76.48,-40.07 67.33,-41.86"/>
<polygon fill="midnightblue" stroke="midnightblue" points="96.84,-39.65 105.98,-34.29 95.49,-32.78 96.84,-39.65"/>
</g>
<!-- Node3 -->
<g id="node3" class="node">
<title>Node3</title>
<g id="a_node3"><a xlink:href="printmold_8f90.html#aa91a441b8fff5454b5b28c94613c924e" target="_top" xlink:title=" ">
<polygon fill="white" stroke="black" points="0,-0.5 0,-19.5 70,-19.5 70,-0.5 0,-0.5"/>
<text text-anchor="middle" x="35" y="-7.5" font-family="Helvetica,sans-Serif" font-size="10.00">printumold</text>
</a>
</g>
</g>
<!-- Node1&#45;&gt;Node3 -->
<g id="edge2" class="edge">
<title>Node1&#45;&gt;Node3</title>
<path fill="none" stroke="midnightblue" d="M95.96,-21.74C87.48,-20.08 78.5,-18.33 70.15,-16.69"/>
<polygon fill="midnightblue" stroke="midnightblue" points="95.49,-25.22 105.98,-23.71 96.84,-18.35 95.49,-25.22"/>
</g>
</g>
</svg>
