<?xml version="1.0" encoding="UTF-8" standalone="no"?>
<!DOCTYPE svg PUBLIC "-//W3C//DTD SVG 1.1//EN"
 "http://www.w3.org/Graphics/SVG/1.1/DTD/svg11.dtd">
<!-- Generated by graphviz version 2.46.0 (20210122.1329)
 -->
<!-- Title: print_orbital_eigenvalues Pages: 1 -->
<svg width="544pt" height="230pt"
 viewBox="0.00 0.00 544.00 230.00" xmlns="http://www.w3.org/2000/svg" xmlns:xlink="http://www.w3.org/1999/xlink">
<g id="graph0" class="graph" transform="scale(1 1) rotate(0) translate(4 226)">
<title>print_orbital_eigenvalues</title>
<polygon fill="white" stroke="transparent" points="-4,4 -4,-226 540,-226 540,4 -4,4"/>
<!-- Node1 -->
<g id="node1" class="node">
<title>Node1</title>
<g id="a_node1"><a xlink:title=" ">
<polygon fill="#bfbfbf" stroke="black" points="412,-126.5 412,-145.5 536,-145.5 536,-126.5 412,-126.5"/>
<text text-anchor="middle" x="474" y="-133.5" font-family="Helvetica,sans-Serif" font-size="10.00">print_orbital_eigenvalues</text>
</a>
</g>
</g>
<!-- Node2 -->
<g id="node2" class="node">
<title>Node2</title>
<g id="a_node2"><a xlink:href="namespacextb__propertyoutput.html#a74ca9110d4ecdd9fc1a790d9a2027a02" target="_top" xlink:title=" ">
<polygon fill="white" stroke="black" points="280,-181 280,-211 376,-211 376,-181 280,-181"/>
<text text-anchor="start" x="288" y="-199" font-family="Helvetica,sans-Serif" font-size="10.00">xtb_propertyoutput</text>
<text text-anchor="middle" x="328" y="-188" font-family="Helvetica,sans-Serif" font-size="10.00">::main_property</text>
</a>
</g>
</g>
<!-- Node1&#45;&gt;Node2 -->
<g id="edge1" class="edge">
<title>Node1&#45;&gt;Node2</title>
<path fill="none" stroke="midnightblue" d="M440.77,-149.43C418.34,-158.77 388.42,-171.24 365.17,-180.93"/>
<polygon fill="midnightblue" stroke="midnightblue" points="442.3,-152.58 450.18,-145.51 439.61,-146.12 442.3,-152.58"/>
</g>
<!-- Node5 -->
<g id="node5" class="node">
<title>Node5</title>
<g id="a_node5"><a xlink:href="namespacextb__peeq.html#ac2d6fc22b842455765bdb4f69279095c" target="_top" xlink:title=" ">
<polygon fill="white" stroke="black" points="287.5,-126.5 287.5,-145.5 368.5,-145.5 368.5,-126.5 287.5,-126.5"/>
<text text-anchor="middle" x="328" y="-133.5" font-family="Helvetica,sans-Serif" font-size="10.00">xtb_peeq::peeq</text>
</a>
</g>
</g>
<!-- Node1&#45;&gt;Node5 -->
<g id="edge4" class="edge">
<title>Node1&#45;&gt;Node5</title>
<path fill="none" stroke="midnightblue" d="M401.62,-136C390.35,-136 379.07,-136 368.86,-136"/>
<polygon fill="midnightblue" stroke="midnightblue" points="401.93,-139.5 411.93,-136 401.93,-132.5 401.93,-139.5"/>
</g>
<!-- Node10 -->
<g id="node10" class="node">
<title>Node10</title>
<g id="a_node10"><a xlink:href="namespacextb__scf.html#a7390c40a38032c3d210c39edecfa49ed" target="_top" xlink:title=" ">
<polygon fill="white" stroke="black" points="295,-60.5 295,-79.5 361,-79.5 361,-60.5 295,-60.5"/>
<text text-anchor="middle" x="328" y="-67.5" font-family="Helvetica,sans-Serif" font-size="10.00">xtb_scf::scf</text>
</a>
</g>
</g>
<!-- Node1&#45;&gt;Node10 -->
<g id="edge10" class="edge">
<title>Node1&#45;&gt;Node10</title>
<path fill="none" stroke="midnightblue" d="M442.8,-122.16C414.97,-109.4 374.4,-90.81 349.96,-79.61"/>
<polygon fill="midnightblue" stroke="midnightblue" points="441.51,-125.42 452.06,-126.4 444.43,-119.05 441.51,-125.42"/>
</g>
<!-- Node3 -->
<g id="node3" class="node">
<title>Node3</title>
<g id="a_node3"><a xlink:href="namespacextb__prog__main.html#a92b3b61ee04235e6343f652095682529" target="_top" xlink:title=" ">
<polygon fill="white" stroke="black" points="126,-202.5 126,-221.5 244,-221.5 244,-202.5 126,-202.5"/>
<text text-anchor="middle" x="185" y="-209.5" font-family="Helvetica,sans-Serif" font-size="10.00">xtb_prog_main::xtbmain</text>
</a>
</g>
</g>
<!-- Node2&#45;&gt;Node3 -->
<g id="edge2" class="edge">
<title>Node2&#45;&gt;Node3</title>
<path fill="none" stroke="midnightblue" d="M269.61,-202.51C261.25,-203.46 252.62,-204.44 244.24,-205.39"/>
<polygon fill="midnightblue" stroke="midnightblue" points="270.12,-205.98 279.66,-201.37 269.33,-199.02 270.12,-205.98"/>
</g>
<!-- Node4 -->
<g id="node4" class="node">
<title>Node4</title>
<g id="a_node4"><a xlink:href="primary_8f90.html#a2a67903cf5be605c5b6d3c362c6a3c5c" target="_top" xlink:title="The primary driver for the xtb program package.">
<polygon fill="white" stroke="black" points="0,-202.5 0,-221.5 90,-221.5 90,-202.5 0,-202.5"/>
<text text-anchor="middle" x="45" y="-209.5" font-family="Helvetica,sans-Serif" font-size="10.00">xtb_prog_primary</text>
</a>
</g>
</g>
<!-- Node3&#45;&gt;Node4 -->
<g id="edge3" class="edge">
<title>Node3&#45;&gt;Node4</title>
<path fill="none" stroke="midnightblue" d="M115.73,-212C107.06,-212 98.37,-212 90.22,-212"/>
<polygon fill="midnightblue" stroke="midnightblue" points="115.88,-215.5 125.88,-212 115.88,-208.5 115.88,-215.5"/>
</g>
<!-- Node6 -->
<g id="node6" class="node">
<title>Node6</title>
<g id="a_node6"><a xlink:href="namespacextb__xtb__calculator.html#a75c96263c235c99dfeeda3e865f9898c" target="_top" xlink:title=" ">
<polygon fill="white" stroke="black" points="137.5,-77 137.5,-107 232.5,-107 232.5,-77 137.5,-77"/>
<text text-anchor="start" x="145.5" y="-95" font-family="Helvetica,sans-Serif" font-size="10.00">xtb_xtb_calculator</text>
<text text-anchor="middle" x="185" y="-84" font-family="Helvetica,sans-Serif" font-size="10.00">::singlepoint</text>
</a>
</g>
</g>
<!-- Node5&#45;&gt;Node6 -->
<g id="edge5" class="edge">
<title>Node5&#45;&gt;Node6</title>
<path fill="none" stroke="midnightblue" d="M286.83,-123.46C269.93,-118.19 250.16,-112.02 232.63,-106.55"/>
<polygon fill="midnightblue" stroke="midnightblue" points="285.82,-126.81 296.41,-126.45 287.9,-120.13 285.82,-126.81"/>
</g>
<!-- Node7 -->
<g id="node7" class="node">
<title>Node7</title>
<g id="a_node7"><a xlink:href="TESTSUITE_2gfn0_8f90.html#ac2abd1dbadf75b71866d509eaad7957d" target="_top" xlink:title=" ">
<polygon fill="white" stroke="black" points="148.5,-164.5 148.5,-183.5 221.5,-183.5 221.5,-164.5 148.5,-164.5"/>
<text text-anchor="middle" x="185" y="-171.5" font-family="Helvetica,sans-Serif" font-size="10.00">test_gfn0_sp</text>
</a>
</g>
</g>
<!-- Node5&#45;&gt;Node7 -->
<g id="edge6" class="edge">
<title>Node5&#45;&gt;Node7</title>
<path fill="none" stroke="midnightblue" d="M281.56,-148.25C262.13,-153.48 239.77,-159.51 221.57,-164.41"/>
<polygon fill="midnightblue" stroke="midnightblue" points="282.68,-151.57 291.42,-145.59 280.85,-144.81 282.68,-151.57"/>
</g>
<!-- Node9 -->
<g id="node9" class="node">
<title>Node9</title>
<g id="a_node9"><a xlink:href="peeq_8f90.html#a5122d9bd07a3f4377ee140a5991d1325" target="_top" xlink:title=" ">
<polygon fill="white" stroke="black" points="147.5,-126.5 147.5,-145.5 222.5,-145.5 222.5,-126.5 147.5,-126.5"/>
<text text-anchor="middle" x="185" y="-133.5" font-family="Helvetica,sans-Serif" font-size="10.00">test_peeq_sp</text>
</a>
</g>
</g>
<!-- Node5&#45;&gt;Node9 -->
<g id="edge8" class="edge">
<title>Node5&#45;&gt;Node9</title>
<path fill="none" stroke="midnightblue" d="M277.11,-136C259.26,-136 239.49,-136 222.94,-136"/>
<polygon fill="midnightblue" stroke="midnightblue" points="277.35,-139.5 287.35,-136 277.35,-132.5 277.35,-139.5"/>
</g>
<!-- Node8 -->
<g id="node8" class="node">
<title>Node8</title>
<g id="a_node8"><a xlink:href="tests__peeq_8f90.html#a87ff5319e0d2e627a4f71d7df0d14891" target="_top" xlink:title=" ">
<polygon fill="white" stroke="black" points="11,-82.5 11,-101.5 79,-101.5 79,-82.5 11,-82.5"/>
<text text-anchor="middle" x="45" y="-89.5" font-family="Helvetica,sans-Serif" font-size="10.00">peeq_tester</text>
</a>
</g>
</g>
<!-- Node7&#45;&gt;Node8 -->
<g id="edge7" class="edge">
<title>Node7&#45;&gt;Node8</title>
<path fill="none" stroke="midnightblue" d="M138.63,-160.87C134.28,-159.1 130,-157.14 126,-155 98.26,-140.14 70.42,-115.49 56.03,-101.84"/>
<polygon fill="midnightblue" stroke="midnightblue" points="137.62,-164.23 148.22,-164.46 140.08,-157.67 137.62,-164.23"/>
</g>
<!-- Node9&#45;&gt;Node8 -->
<g id="edge9" class="edge">
<title>Node9&#45;&gt;Node8</title>
<path fill="none" stroke="midnightblue" d="M144.41,-123.38C122.59,-116.42 95.95,-107.92 75.89,-101.53"/>
<polygon fill="midnightblue" stroke="midnightblue" points="143.47,-126.75 154.06,-126.45 145.59,-120.08 143.47,-126.75"/>
</g>
<!-- Node10&#45;&gt;Node6 -->
<g id="edge11" class="edge">
<title>Node10&#45;&gt;Node6</title>
<path fill="none" stroke="midnightblue" d="M284.31,-76.66C267.99,-79.21 249.3,-82.12 232.63,-84.72"/>
<polygon fill="midnightblue" stroke="midnightblue" points="285.31,-80.05 294.65,-75.05 284.23,-73.13 285.31,-80.05"/>
</g>
<!-- Node11 -->
<g id="node11" class="node">
<title>Node11</title>
<g id="a_node11"><a xlink:href="TESTSUITE_2gfn1_8f90.html#ab5cc37cef2d483d9d9cde17aa03c55a8" target="_top" xlink:title=" ">
<polygon fill="white" stroke="black" points="146,-38.5 146,-57.5 224,-57.5 224,-38.5 146,-38.5"/>
<text text-anchor="middle" x="185" y="-45.5" font-family="Helvetica,sans-Serif" font-size="10.00">test_gfn1_scc</text>
</a>
</g>
</g>
<!-- Node10&#45;&gt;Node11 -->
<g id="edge12" class="edge">
<title>Node10&#45;&gt;Node11</title>
<path fill="none" stroke="midnightblue" d="M284.66,-63.39C265.44,-60.4 242.89,-56.88 224.2,-53.96"/>
<polygon fill="midnightblue" stroke="midnightblue" points="284.23,-66.87 294.65,-64.95 285.31,-59.95 284.23,-66.87"/>
</g>
<!-- Node12 -->
<g id="node12" class="node">
<title>Node12</title>
<g id="a_node12"><a xlink:href="TESTSUITE_2gfn2_8f90.html#af47afba0207cbca2dc950fb5e339ce03" target="_top" xlink:title=" ">
<polygon fill="white" stroke="black" points="146,-0.5 146,-19.5 224,-19.5 224,-0.5 146,-0.5"/>
<text text-anchor="middle" x="185" y="-7.5" font-family="Helvetica,sans-Serif" font-size="10.00">test_gfn2_scc</text>
</a>
</g>
</g>
<!-- Node10&#45;&gt;Node12 -->
<g id="edge14" class="edge">
<title>Node10&#45;&gt;Node12</title>
<path fill="none" stroke="midnightblue" d="M300.23,-55.56C284.18,-47.22 263.22,-36.85 244,-29 235.66,-25.6 226.47,-22.36 217.9,-19.55"/>
<polygon fill="midnightblue" stroke="midnightblue" points="299.05,-58.9 309.53,-60.46 302.31,-52.7 299.05,-58.9"/>
</g>
<!-- Node11&#45;&gt;Node8 -->
<g id="edge13" class="edge">
<title>Node11&#45;&gt;Node8</title>
<path fill="none" stroke="midnightblue" d="M144.41,-60.62C122.59,-67.58 95.95,-76.08 75.89,-82.47"/>
<polygon fill="midnightblue" stroke="midnightblue" points="145.59,-63.92 154.06,-57.55 143.47,-57.25 145.59,-63.92"/>
</g>
<!-- Node12&#45;&gt;Node8 -->
<g id="edge15" class="edge">
<title>Node12&#45;&gt;Node8</title>
<path fill="none" stroke="midnightblue" d="M138.63,-23.13C134.28,-24.9 130,-26.86 126,-29 98.26,-43.86 70.42,-68.51 56.03,-82.16"/>
<polygon fill="midnightblue" stroke="midnightblue" points="140.08,-26.33 148.22,-19.54 137.62,-19.77 140.08,-26.33"/>
</g>
</g>
</svg>
