<?xml version="1.0" encoding="UTF-8" standalone="no"?>
<!DOCTYPE svg PUBLIC "-//W3C//DTD SVG 1.1//EN"
 "http://www.w3.org/Graphics/SVG/1.1/DTD/svg11.dtd">
<!-- Generated by graphviz version 2.46.0 (20210122.1329)
 -->
<!-- Title: rdfix Pages: 1 -->
<svg width="300pt" height="256pt"
 viewBox="0.00 0.00 300.00 256.00" xmlns="http://www.w3.org/2000/svg" xmlns:xlink="http://www.w3.org/1999/xlink">
<g id="graph0" class="graph" transform="scale(1 1) rotate(0) translate(4 252)">
<title>rdfix</title>
<polygon fill="white" stroke="transparent" points="-4,4 -4,-252 296,-252 296,4 -4,4"/>
<!-- Node1 -->
<g id="node1" class="node">
<title>Node1</title>
<g id="a_node1"><a xlink:title=" ">
<polygon fill="#bfbfbf" stroke="black" points="0,-114.5 0,-133.5 34,-133.5 34,-114.5 0,-114.5"/>
<text text-anchor="middle" x="17" y="-121.5" font-family="Helvetica,sans-Serif" font-size="10.00">rdfix</text>
</a>
</g>
</g>
<!-- Node2 -->
<g id="node2" class="node">
<title>Node2</title>
<g id="a_node2"><a xlink:href="filetools_8F90.html#abe40c19bea97456da4d616af69059aeb" target="_top" xlink:title=" ">
<polygon fill="white" stroke="black" points="111.5,-228.5 111.5,-247.5 168.5,-247.5 168.5,-228.5 111.5,-228.5"/>
<text text-anchor="middle" x="140" y="-235.5" font-family="Helvetica,sans-Serif" font-size="10.00">close_file</text>
</a>
</g>
</g>
<!-- Node1&#45;&gt;Node2 -->
<g id="edge1" class="edge">
<title>Node1&#45;&gt;Node2</title>
<path fill="none" stroke="midnightblue" d="M20.55,-133.74C26.13,-153.04 41.25,-196.25 70,-219 78.95,-226.08 90.37,-230.53 101.32,-233.32"/>
<polygon fill="midnightblue" stroke="midnightblue" points="100.66,-236.76 111.17,-235.44 102.13,-229.91 100.66,-236.76"/>
</g>
<!-- Node3 -->
<g id="node3" class="node">
<title>Node3</title>
<g id="a_node3"><a xlink:href="elem_8f90.html#ae2a0e630d3a8fea4a12abcc607d7fc5d" target="_top" xlink:title=" ">
<polygon fill="white" stroke="black" points="121,-190.5 121,-209.5 159,-209.5 159,-190.5 121,-190.5"/>
<text text-anchor="middle" x="140" y="-197.5" font-family="Helvetica,sans-Serif" font-size="10.00">elem</text>
</a>
</g>
</g>
<!-- Node1&#45;&gt;Node3 -->
<g id="edge2" class="edge">
<title>Node1&#45;&gt;Node3</title>
<path fill="none" stroke="midnightblue" d="M24.17,-133.61C32.86,-146.36 49.9,-168.68 70,-181 82.37,-188.58 97.81,-193.2 110.95,-195.98"/>
<polygon fill="midnightblue" stroke="midnightblue" points="110.42,-199.44 120.89,-197.84 111.7,-192.56 110.42,-199.44"/>
</g>
<!-- Node4 -->
<g id="node4" class="node">
<title>Node4</title>
<g id="a_node4"><a xlink:href="qpot_8f90.html#a23dbe8a2bca9dcad72a42b8b39bbc04a" target="_top" xlink:title=" ">
<polygon fill="white" stroke="black" points="123.5,-152.5 123.5,-171.5 156.5,-171.5 156.5,-152.5 123.5,-152.5"/>
<text text-anchor="middle" x="140" y="-159.5" font-family="Helvetica,sans-Serif" font-size="10.00">getf</text>
</a>
</g>
</g>
<!-- Node1&#45;&gt;Node4 -->
<g id="edge3" class="edge">
<title>Node1&#45;&gt;Node4</title>
<path fill="none" stroke="midnightblue" d="M34.28,-130.33C44.47,-134.2 57.92,-139.14 70,-143 84.29,-147.57 100.44,-152.05 113.53,-155.52"/>
<polygon fill="midnightblue" stroke="midnightblue" points="112.71,-158.92 123.27,-158.06 114.48,-152.15 112.71,-158.92"/>
</g>
<!-- Node6 -->
<g id="node6" class="node">
<title>Node6</title>
<g id="a_node6"><a xlink:href="namespacextb__mctc__strings.html#ae9ebd6dfc568e607d6557a8762bf28b0" target="_top" xlink:title="convert string to lower case">
<polygon fill="white" stroke="black" points="70,-114.5 70,-133.5 210,-133.5 210,-114.5 70,-114.5"/>
<text text-anchor="middle" x="140" y="-121.5" font-family="Helvetica,sans-Serif" font-size="10.00">xtb_mctc_strings::lowercase</text>
</a>
</g>
</g>
<!-- Node1&#45;&gt;Node6 -->
<g id="edge5" class="edge">
<title>Node1&#45;&gt;Node6</title>
<path fill="none" stroke="midnightblue" d="M34.32,-124C41.4,-124 50.27,-124 59.82,-124"/>
<polygon fill="midnightblue" stroke="midnightblue" points="59.98,-127.5 69.98,-124 59.98,-120.5 59.98,-127.5"/>
</g>
<!-- Node7 -->
<g id="node7" class="node">
<title>Node7</title>
<g id="a_node7"><a xlink:href="filetools_8F90.html#a68160ec369d61855ea12b180c7ce8c21" target="_top" xlink:title=" ">
<polygon fill="white" stroke="black" points="112.5,-76.5 112.5,-95.5 167.5,-95.5 167.5,-76.5 112.5,-76.5"/>
<text text-anchor="middle" x="140" y="-83.5" font-family="Helvetica,sans-Serif" font-size="10.00">open_file</text>
</a>
</g>
</g>
<!-- Node1&#45;&gt;Node7 -->
<g id="edge6" class="edge">
<title>Node1&#45;&gt;Node7</title>
<path fill="none" stroke="midnightblue" d="M34.28,-117.67C44.47,-113.8 57.92,-108.86 70,-105 80.49,-101.64 91.99,-98.33 102.55,-95.44"/>
<polygon fill="midnightblue" stroke="midnightblue" points="103.57,-98.79 112.31,-92.81 101.74,-92.03 103.57,-98.79"/>
</g>
<!-- Node8 -->
<g id="node8" class="node">
<title>Node8</title>
<g id="a_node8"><a xlink:href="error_8f90.html#a21a6b76d2bc72d8d2ec0a344a6d2298b" target="_top" xlink:title=" ">
<polygon fill="white" stroke="black" points="121,-38.5 121,-57.5 159,-57.5 159,-38.5 121,-38.5"/>
<text text-anchor="middle" x="140" y="-45.5" font-family="Helvetica,sans-Serif" font-size="10.00">raise</text>
</a>
</g>
</g>
<!-- Node1&#45;&gt;Node8 -->
<g id="edge7" class="edge">
<title>Node1&#45;&gt;Node8</title>
<path fill="none" stroke="midnightblue" d="M24.17,-114.39C32.86,-101.64 49.9,-79.32 70,-67 82.37,-59.42 97.81,-54.8 110.95,-52.02"/>
<polygon fill="midnightblue" stroke="midnightblue" points="111.7,-55.44 120.89,-50.16 110.42,-48.56 111.7,-55.44"/>
</g>
<!-- Node9 -->
<g id="node9" class="node">
<title>Node9</title>
<g id="a_node9"><a xlink:href="readl_8f90.html#aefb6440368a41f135fa1eac070ab7f0b" target="_top" xlink:title=" ">
<polygon fill="white" stroke="black" points="121,-0.5 121,-19.5 159,-19.5 159,-0.5 121,-0.5"/>
<text text-anchor="middle" x="140" y="-7.5" font-family="Helvetica,sans-Serif" font-size="10.00">readl</text>
</a>
</g>
</g>
<!-- Node1&#45;&gt;Node9 -->
<g id="edge8" class="edge">
<title>Node1&#45;&gt;Node9</title>
<path fill="none" stroke="midnightblue" d="M20.55,-114.26C26.13,-94.96 41.25,-51.75 70,-29 81.53,-19.88 97.15,-15.13 110.61,-12.66"/>
<polygon fill="midnightblue" stroke="midnightblue" points="111.45,-16.07 120.82,-11.13 110.42,-9.15 111.45,-16.07"/>
</g>
<!-- Node5 -->
<g id="node5" class="node">
<title>Node5</title>
<g id="a_node5"><a xlink:href="symmetry__i_8c.html#aa77c823a9fc018ae1d437369708d8727" target="_top" xlink:title=" ">
<polygon fill="white" stroke="black" points="252.5,-152.5 252.5,-171.5 285.5,-171.5 285.5,-152.5 252.5,-152.5"/>
<text text-anchor="middle" x="269" y="-159.5" font-family="Helvetica,sans-Serif" font-size="10.00">true</text>
</a>
</g>
</g>
<!-- Node4&#45;&gt;Node5 -->
<g id="edge4" class="edge">
<title>Node4&#45;&gt;Node5</title>
<path fill="none" stroke="midnightblue" d="M156.57,-162C177.9,-162 216.47,-162 242.17,-162"/>
<polygon fill="midnightblue" stroke="midnightblue" points="242.3,-165.5 252.3,-162 242.3,-158.5 242.3,-165.5"/>
</g>
<!-- Node10 -->
<g id="node10" class="node">
<title>Node10</title>
<g id="a_node10"><a xlink:href="readl_8f90.html#ad4f0e8a0348ec83dc345dc77e76cec7d" target="_top" xlink:title=" ">
<polygon fill="white" stroke="black" points="246,-0.5 246,-19.5 292,-19.5 292,-0.5 246,-0.5"/>
<text text-anchor="middle" x="269" y="-7.5" font-family="Helvetica,sans-Serif" font-size="10.00">readaa</text>
</a>
</g>
</g>
<!-- Node9&#45;&gt;Node10 -->
<g id="edge9" class="edge">
<title>Node9&#45;&gt;Node10</title>
<path fill="none" stroke="midnightblue" d="M159.2,-10C179.15,-10 211.56,-10 235.83,-10"/>
<polygon fill="midnightblue" stroke="midnightblue" points="236,-13.5 246,-10 236,-6.5 236,-13.5"/>
</g>
</g>
</svg>
