<?xml version="1.0" encoding="UTF-8" standalone="no"?>
<!DOCTYPE svg PUBLIC "-//W3C//DTD SVG 1.1//EN"
 "http://www.w3.org/Graphics/SVG/1.1/DTD/svg11.dtd">
<!-- Generated by graphviz version 2.43.0 (0)
 -->
<!-- Title: readline Pages: 1 -->
<!--zoomable 504 -->
<svg id="main" version="1.1" xmlns="http://www.w3.org/2000/svg" xmlns:xlink="http://www.w3.org/1999/xlink" xml:space="preserve" onload="init(evt)">
<style type="text/css"><![CDATA[
.edge:hover path { stroke: red; }
.edge:hover polygon { stroke: red; fill: red; }
]]></style>
<script type="text/javascript"><![CDATA[
var edges = document.getElementsByTagName('g');
if (edges && edges.length) {
  for (var i=0;i<edges.length;i++) {
    if (edges[i].id.substr(0,4)=='edge') {
      edges[i].setAttribute('class','edge');
    }
  }
}
]]></script>
        <defs>
                <circle id="rim" cx="0" cy="0" r="7"/>
                <circle id="rim2" cx="0" cy="0" r="3.5"/>
                <g id="zoomPlus">
                        <use xlink:href="#rim" fill="#404040">
                                <set attributeName="fill" to="#808080" begin="zoomplus.mouseover" end="zoomplus.mouseout"/>
                        </use>
                        <path d="M-4,0h8M0,-4v8" fill="none" stroke="white" stroke-width="1.5" pointer-events="none"/>
                </g>
                <g id="zoomMin">
                        <use xlink:href="#rim" fill="#404040">
                                <set attributeName="fill" to="#808080" begin="zoomminus.mouseover" end="zoomminus.mouseout"/>
                        </use>
                        <path d="M-4,0h8" fill="none" stroke="white" stroke-width="1.5" pointer-events="none"/>
                </g>
                <g id="dirArrow">
                        <path fill="none" stroke="white" stroke-width="1.5" d="M0,-3.0v7 M-2.5,-0.5L0,-3.0L2.5,-0.5"/>
                </g>
               <g id="resetDef">
                       <use xlink:href="#rim2" fill="#404040">
                               <set attributeName="fill" to="#808080" begin="reset.mouseover" end="reset.mouseout"/>
                       </use>
               </g>
        </defs>

<script type="text/javascript">
var viewWidth = 952;
var viewHeight = 504;
var sectionId = 'dynsection-9';
</script>
<script xlink:href="svgpan.js"/>
<svg id="graph" class="graph">
<g id="viewport">
<title>readline</title>
<polygon fill="white" stroke="transparent" points="-4,4 -4,-500 948,-500 948,4 -4,4"/>
<!-- Node1 -->
<g id="node1" class="node">
<title>Node1</title>
<g id="a_node1"><a xlink:title=" ">
<polygon fill="#bfbfbf" stroke="black" points="888,-169 888,-188 944,-188 944,-169 888,-169"/>
<text text-anchor="middle" x="916" y="-176" font-family="Helvetica,sans-Serif" font-size="10.00">readline</text>
</a>
</g>
</g>
<!-- Node2 -->
<g id="node2" class="node">
<title>Node2</title>
<g id="a_node2"><a xlink:href="namespacextb__gfnff__setup.html#a215c44ce904fe929aa44064a29bd36f7" target="_top" xlink:title=" ">
<polygon fill="white" stroke="black" points="731,-226.5 731,-256.5 852,-256.5 852,-226.5 731,-226.5"/>
<text text-anchor="start" x="739" y="-244.5" font-family="Helvetica,sans-Serif" font-size="10.00">xtb_gfnff_setup::gfnff</text>
<text text-anchor="middle" x="791.5" y="-233.5" font-family="Helvetica,sans-Serif" font-size="10.00">_input</text>
</a>
</g>
</g>
<!-- Node1&#45;&gt;Node2 -->
<g id="edge1" class="edge">
<title>Node1&#45;&gt;Node2</title>
<path fill="none" stroke="midnightblue" d="M891.87,-193.56C880.15,-200.9 865.57,-209.6 852,-216.5 845.21,-219.95 837.83,-223.33 830.65,-226.44"/>
<polygon fill="midnightblue" stroke="midnightblue" points="894.01,-196.34 900.58,-188.02 890.26,-190.43 894.01,-196.34"/>
</g>
<!-- Node19 -->
<g id="node19" class="node">
<title>Node19</title>
<g id="a_node19"><a xlink:href="rdcoord2_8f90.html#ab36ffbdc428650f2725ed67065717055" target="_top" xlink:title=" ">
<polygon fill="white" stroke="black" points="747,-188 747,-207 836,-207 836,-188 747,-188"/>
<text text-anchor="middle" x="791.5" y="-195" font-family="Helvetica,sans-Serif" font-size="10.00">rdatomnumber</text>
</a>
</g>
</g>
<!-- Node1&#45;&gt;Node19 -->
<g id="edge25" class="edge">
<title>Node1&#45;&gt;Node19</title>
<path fill="none" stroke="midnightblue" d="M877.78,-184.27C864.75,-186.29 849.98,-188.58 836.45,-190.68"/>
<polygon fill="midnightblue" stroke="midnightblue" points="878.47,-187.71 887.81,-182.72 877.39,-180.79 878.47,-187.71"/>
</g>
<!-- Node22 -->
<g id="node22" class="node">
<title>Node22</title>
<g id="a_node22"><a xlink:href="rdcoord2_8f90.html#a3a8980bc9404dd7b48b2313dbd9a07cf" target="_top" xlink:title=" ">
<polygon fill="white" stroke="black" points="765,-150 765,-169 818,-169 818,-150 765,-150"/>
<text text-anchor="middle" x="791.5" y="-157" font-family="Helvetica,sans-Serif" font-size="10.00">rdcoord</text>
</a>
</g>
</g>
<!-- Node1&#45;&gt;Node22 -->
<g id="edge28" class="edge">
<title>Node1&#45;&gt;Node22</title>
<path fill="none" stroke="midnightblue" d="M877.87,-172.74C858.64,-169.76 835.63,-166.19 818.35,-163.51"/>
<polygon fill="midnightblue" stroke="midnightblue" points="877.39,-176.21 887.81,-174.28 878.47,-169.29 877.39,-176.21"/>
</g>
<!-- Node26 -->
<g id="node26" class="node">
<title>Node26</title>
<g id="a_node26"><a xlink:href="namespacextb__readin.html#a8a067ee293b6d42499264f799016383d" target="_top" xlink:title=" ">
<polygon fill="white" stroke="black" points="736,-85 736,-104 847,-104 847,-85 736,-85"/>
<text text-anchor="middle" x="791.5" y="-92" font-family="Helvetica,sans-Serif" font-size="10.00">xtb_readin::readlog</text>
</a>
</g>
</g>
<!-- Node1&#45;&gt;Node26 -->
<g id="edge33" class="edge">
<title>Node1&#45;&gt;Node26</title>
<path fill="none" stroke="midnightblue" d="M892.4,-163C867.23,-145.75 827.34,-118.39 806.39,-104.02"/>
<polygon fill="midnightblue" stroke="midnightblue" points="890.72,-166.1 900.95,-168.86 894.68,-160.32 890.72,-166.1"/>
</g>
<!-- Node3 -->
<g id="node3" class="node">
<title>Node3</title>
<g id="a_node3"><a xlink:href="namespacextb__gfnff__setup.html#a4aeb50102462398d4f57781b1c421257" target="_top" xlink:title=" ">
<polygon fill="white" stroke="black" points="568,-226.5 568,-256.5 689,-256.5 689,-226.5 568,-226.5"/>
<text text-anchor="start" x="576" y="-244.5" font-family="Helvetica,sans-Serif" font-size="10.00">xtb_gfnff_setup::gfnff</text>
<text text-anchor="middle" x="628.5" y="-233.5" font-family="Helvetica,sans-Serif" font-size="10.00">_setup</text>
</a>
</g>
</g>
<!-- Node2&#45;&gt;Node3 -->
<g id="edge2" class="edge">
<title>Node2&#45;&gt;Node3</title>
<path fill="none" stroke="midnightblue" d="M720.3,-241.5C709.94,-241.5 699.35,-241.5 689.23,-241.5"/>
<polygon fill="midnightblue" stroke="midnightblue" points="720.55,-245 730.55,-241.5 720.55,-238 720.55,-245"/>
</g>
<!-- Node4 -->
<g id="node4" class="node">
<title>Node4</title>
<g id="a_node4"><a xlink:href="namespacextb__main__setup.html#a01dff07fc5b7e8c442d7e62c00377fc4" target="_top" xlink:title=" ">
<polygon fill="white" stroke="black" points="344,-232 344,-251 526,-251 526,-232 344,-232"/>
<text text-anchor="middle" x="435" y="-239" font-family="Helvetica,sans-Serif" font-size="10.00">xtb_main_setup::newgffcalculator</text>
</a>
</g>
</g>
<!-- Node3&#45;&gt;Node4 -->
<g id="edge3" class="edge">
<title>Node3&#45;&gt;Node4</title>
<path fill="none" stroke="midnightblue" d="M557.81,-241.5C547.5,-241.5 536.74,-241.5 526.09,-241.5"/>
<polygon fill="midnightblue" stroke="midnightblue" points="557.96,-245 567.96,-241.5 557.96,-238 557.96,-245"/>
</g>
<!-- Node5 -->
<g id="node5" class="node">
<title>Node5</title>
<g id="a_node5"><a xlink:href="namespacextb__api__calculator.html#a6d6689e12fc963d1bc325f687a8d7d5d" target="_top" xlink:title=" ">
<polygon fill="white" stroke="black" points="170.5,-465.5 170.5,-495.5 276.5,-495.5 276.5,-465.5 170.5,-465.5"/>
<text text-anchor="start" x="178.5" y="-483.5" font-family="Helvetica,sans-Serif" font-size="10.00">xtb_api_calculator</text>
<text text-anchor="middle" x="223.5" y="-472.5" font-family="Helvetica,sans-Serif" font-size="10.00">::loadgfnff_api</text>
</a>
</g>
</g>
<!-- Node4&#45;&gt;Node5 -->
<g id="edge4" class="edge">
<title>Node4&#45;&gt;Node5</title>
<path fill="none" stroke="midnightblue" d="M428.02,-260.92C414.09,-302.92 375.43,-402.65 308,-455.5 298.95,-462.59 287.91,-467.68 276.87,-471.32"/>
<polygon fill="midnightblue" stroke="midnightblue" points="431.38,-261.92 431.1,-251.33 424.71,-259.78 431.38,-261.92"/>
</g>
<!-- Node6 -->
<g id="node6" class="node">
<title>Node6</title>
<g id="a_node6"><a xlink:href="namespacextb__main__setup.html#a2873ec6fc259dc1f93f4c74d34501d91" target="_top" xlink:title=" ">
<polygon fill="white" stroke="black" points="139,-427 139,-446 308,-446 308,-427 139,-427"/>
<text text-anchor="middle" x="223.5" y="-434" font-family="Helvetica,sans-Serif" font-size="10.00">xtb_main_setup::newcalculator</text>
</a>
</g>
</g>
<!-- Node4&#45;&gt;Node6 -->
<g id="edge5" class="edge">
<title>Node4&#45;&gt;Node6</title>
<path fill="none" stroke="midnightblue" d="M425.83,-260.96C409.32,-297.75 368.39,-377.36 308,-417.5 302.18,-421.37 295.68,-424.46 288.95,-426.92"/>
<polygon fill="midnightblue" stroke="midnightblue" points="429.21,-261.97 429.99,-251.4 422.79,-259.17 429.21,-261.97"/>
</g>
<!-- Node7 -->
<g id="node7" class="node">
<title>Node7</title>
<g id="a_node7"><a xlink:href="namespacextb__gfnff__convert.html#adf399b47b9f2a8364327d9d5c38cb2b8" target="_top" xlink:title=" ">
<polygon fill="white" stroke="black" points="169.5,-377.5 169.5,-407.5 277.5,-407.5 277.5,-377.5 169.5,-377.5"/>
<text text-anchor="start" x="177.5" y="-395.5" font-family="Helvetica,sans-Serif" font-size="10.00">xtb_gfnff_convert::</text>
<text text-anchor="middle" x="223.5" y="-384.5" font-family="Helvetica,sans-Serif" font-size="10.00">struc_convert</text>
</a>
</g>
</g>
<!-- Node4&#45;&gt;Node7 -->
<g id="edge6" class="edge">
<title>Node4&#45;&gt;Node7</title>
<path fill="none" stroke="midnightblue" d="M420.75,-259.59C399.82,-286.92 356.45,-338.58 308,-367.5 298.77,-373.01 288.24,-377.38 277.84,-380.83"/>
<polygon fill="midnightblue" stroke="midnightblue" points="423.76,-261.42 426.97,-251.33 418.16,-257.22 423.76,-261.42"/>
</g>
<!-- Node8 -->
<g id="node8" class="node">
<title>Node8</title>
<g id="a_node8"><a xlink:href="gfnff_8f90.html#a37a3363fde733941b6467279048767fb" target="_top" xlink:title=" ">
<polygon fill="white" stroke="black" points="177.5,-339 177.5,-358 269.5,-358 269.5,-339 177.5,-339"/>
<text text-anchor="middle" x="223.5" y="-346" font-family="Helvetica,sans-Serif" font-size="10.00">test_gfnff_gbsa</text>
</a>
</g>
</g>
<!-- Node4&#45;&gt;Node8 -->
<g id="edge7" class="edge">
<title>Node4&#45;&gt;Node8</title>
<path fill="none" stroke="midnightblue" d="M415.72,-257.74C392.36,-277.63 349.94,-310.94 308,-329.5 296.04,-334.8 282.43,-338.7 269.73,-341.53"/>
<polygon fill="midnightblue" stroke="midnightblue" points="418.15,-260.27 423.42,-251.08 413.57,-254.98 418.15,-260.27"/>
</g>
<!-- Node10 -->
<g id="node10" class="node">
<title>Node10</title>
<g id="a_node10"><a xlink:href="gfnff_8f90.html#a1537c4a10909349e4a2fd085248fc0cb" target="_top" xlink:title=" ">
<polygon fill="white" stroke="black" points="183.5,-301 183.5,-320 263.5,-320 263.5,-301 183.5,-301"/>
<text text-anchor="middle" x="223.5" y="-308" font-family="Helvetica,sans-Serif" font-size="10.00">test_gfnff_hb</text>
</a>
</g>
</g>
<!-- Node4&#45;&gt;Node10 -->
<g id="edge9" class="edge">
<title>Node4&#45;&gt;Node10</title>
<path fill="none" stroke="midnightblue" d="M403.57,-255.11C378.34,-266.02 341.34,-281.16 308,-291.5 293.8,-295.9 277.95,-299.77 263.91,-302.84"/>
<polygon fill="midnightblue" stroke="midnightblue" points="405.19,-258.22 412.96,-251.01 402.39,-251.8 405.19,-258.22"/>
</g>
<!-- Node11 -->
<g id="node11" class="node">
<title>Node11</title>
<g id="a_node11"><a xlink:href="gfnff_8f90.html#a99d4eefcd1d33ae189dc8ce62bb94464" target="_top" xlink:title=" ">
<polygon fill="white" stroke="black" points="167,-251.5 167,-281.5 280,-281.5 280,-251.5 167,-251.5"/>
<text text-anchor="start" x="175" y="-269.5" font-family="Helvetica,sans-Serif" font-size="10.00">test_gfnff_mindless</text>
<text text-anchor="middle" x="223.5" y="-258.5" font-family="Helvetica,sans-Serif" font-size="10.00">_basic</text>
</a>
</g>
</g>
<!-- Node4&#45;&gt;Node11 -->
<g id="edge11" class="edge">
<title>Node4&#45;&gt;Node11</title>
<path fill="none" stroke="midnightblue" d="M344.25,-252.21C322.43,-254.81 299.72,-257.52 280.02,-259.88"/>
<polygon fill="midnightblue" stroke="midnightblue" points="344.68,-255.68 354.2,-251.02 343.86,-248.73 344.68,-255.68"/>
</g>
<!-- Node12 -->
<g id="node12" class="node">
<title>Node12</title>
<g id="a_node12"><a xlink:href="gfnff_8f90.html#a0e92e95bfacd9d1eead0f4b7059859b2" target="_top" xlink:title=" ">
<polygon fill="white" stroke="black" points="167,-202.5 167,-232.5 280,-232.5 280,-202.5 167,-202.5"/>
<text text-anchor="start" x="175" y="-220.5" font-family="Helvetica,sans-Serif" font-size="10.00">test_gfnff_mindless</text>
<text text-anchor="middle" x="223.5" y="-209.5" font-family="Helvetica,sans-Serif" font-size="10.00">_solvation</text>
</a>
</g>
</g>
<!-- Node4&#45;&gt;Node12 -->
<g id="edge13" class="edge">
<title>Node4&#45;&gt;Node12</title>
<path fill="none" stroke="midnightblue" d="M340.8,-230.82C320.09,-228.45 298.77,-226.01 280.14,-223.87"/>
<polygon fill="midnightblue" stroke="midnightblue" points="340.57,-234.32 350.9,-231.98 341.36,-227.36 340.57,-234.32"/>
</g>
<!-- Node13 -->
<g id="node13" class="node">
<title>Node13</title>
<g id="a_node13"><a xlink:href="gfnff_8f90.html#a3524b271100f047e2d666a7567eb379a" target="_top" xlink:title=" ">
<polygon fill="white" stroke="black" points="180.5,-164 180.5,-183 266.5,-183 266.5,-164 180.5,-164"/>
<text text-anchor="middle" x="223.5" y="-171" font-family="Helvetica,sans-Serif" font-size="10.00">test_gfnff_pdb</text>
</a>
</g>
</g>
<!-- Node4&#45;&gt;Node13 -->
<g id="edge15" class="edge">
<title>Node4&#45;&gt;Node13</title>
<path fill="none" stroke="midnightblue" d="M379.68,-229.22C367.69,-225.74 355.22,-221.51 344,-216.5 326.66,-208.76 325.47,-200.93 308,-193.5 294.97,-187.96 280.11,-183.78 266.57,-180.71"/>
<polygon fill="midnightblue" stroke="midnightblue" points="379.02,-232.67 389.6,-231.97 380.89,-225.93 379.02,-232.67"/>
</g>
<!-- Node14 -->
<g id="node14" class="node">
<title>Node14</title>
<g id="a_node14"><a xlink:href="gfnff_8f90.html#a191f0af42b3874a93555aee466e8bc8c" target="_top" xlink:title=" ">
<polygon fill="white" stroke="black" points="170.5,-126 170.5,-145 276.5,-145 276.5,-126 170.5,-126"/>
<text text-anchor="middle" x="223.5" y="-133" font-family="Helvetica,sans-Serif" font-size="10.00">test_gfnff_scaleup</text>
</a>
</g>
</g>
<!-- Node4&#45;&gt;Node14 -->
<g id="edge17" class="edge">
<title>Node4&#45;&gt;Node14</title>
<path fill="none" stroke="midnightblue" d="M364.74,-228.33C357.32,-225.2 350.23,-221.31 344,-216.5 318.79,-197.02 333.67,-173.38 308,-154.5 298.9,-147.8 287.84,-143.41 276.79,-140.54"/>
<polygon fill="midnightblue" stroke="midnightblue" points="363.67,-231.67 374.26,-231.92 366.14,-225.12 363.67,-231.67"/>
</g>
<!-- Node15 -->
<g id="node15" class="node">
<title>Node15</title>
<g id="a_node15"><a xlink:href="gfnff_8f90.html#a63adb2c49c27ebcfcd6ea49fe8259b80" target="_top" xlink:title=" ">
<polygon fill="white" stroke="black" points="182,-88 182,-107 265,-107 265,-88 182,-88"/>
<text text-anchor="middle" x="223.5" y="-95" font-family="Helvetica,sans-Serif" font-size="10.00">test_gfnff_sdf</text>
</a>
</g>
</g>
<!-- Node4&#45;&gt;Node15 -->
<g id="edge19" class="edge">
<title>Node4&#45;&gt;Node15</title>
<path fill="none" stroke="midnightblue" d="M360.79,-227.93C354.67,-224.86 348.95,-221.1 344,-216.5 309.38,-184.37 343.37,-147.81 308,-116.5 296.31,-106.15 280.16,-101.1 265.18,-98.73"/>
<polygon fill="midnightblue" stroke="midnightblue" points="359.41,-231.15 369.98,-231.97 362.23,-224.75 359.41,-231.15"/>
</g>
<!-- Node16 -->
<g id="node16" class="node">
<title>Node16</title>
<g id="a_node16"><a xlink:href="gfnff_8f90.html#a3debb77ee35e9cf115d69ef59490c6c5" target="_top" xlink:title=" ">
<polygon fill="white" stroke="black" points="183.5,-50 183.5,-69 263.5,-69 263.5,-50 183.5,-50"/>
<text text-anchor="middle" x="223.5" y="-57" font-family="Helvetica,sans-Serif" font-size="10.00">test_gfnff_sp</text>
</a>
</g>
</g>
<!-- Node4&#45;&gt;Node16 -->
<g id="edge21" class="edge">
<title>Node4&#45;&gt;Node16</title>
<path fill="none" stroke="midnightblue" d="M358.68,-227.49C353.29,-224.49 348.3,-220.87 344,-216.5 299.53,-171.33 353.52,-122.61 308,-78.5 296.26,-67.12 279.19,-62.01 263.54,-59.89"/>
<polygon fill="midnightblue" stroke="midnightblue" points="357.53,-230.83 368.06,-231.99 360.55,-224.51 357.53,-230.83"/>
</g>
<!-- Node17 -->
<g id="node17" class="node">
<title>Node17</title>
<g id="a_node17"><a xlink:href="namespacextb__prog__topology.html#aa263269ef9a32674220b4f1bfda0c066" target="_top" xlink:title="Main program of the topology submodule.">
<polygon fill="white" stroke="black" points="167,-0.5 167,-30.5 280,-30.5 280,-0.5 167,-0.5"/>
<text text-anchor="start" x="175" y="-18.5" font-family="Helvetica,sans-Serif" font-size="10.00">xtb_prog_topology::</text>
<text text-anchor="middle" x="223.5" y="-7.5" font-family="Helvetica,sans-Serif" font-size="10.00">xtbtopology</text>
</a>
</g>
</g>
<!-- Node4&#45;&gt;Node17 -->
<g id="edge23" class="edge">
<title>Node4&#45;&gt;Node17</title>
<path fill="none" stroke="midnightblue" d="M357.88,-227.43C352.76,-224.43 348.04,-220.83 344,-216.5 289.53,-158.12 361.89,-99.42 308,-40.5 300.54,-32.35 290.55,-26.81 280.07,-23.06"/>
<polygon fill="midnightblue" stroke="midnightblue" points="356.32,-230.56 366.83,-231.92 359.46,-224.31 356.32,-230.56"/>
</g>
<!-- Node9 -->
<g id="node9" class="node">
<title>Node9</title>
<g id="a_node9"><a xlink:href="tests__peeq_8f90.html#a87ff5319e0d2e627a4f71d7df0d14891" target="_top" xlink:title=" ">
<polygon fill="white" stroke="black" points="14.5,-186 14.5,-205 88.5,-205 88.5,-186 14.5,-186"/>
<text text-anchor="middle" x="51.5" y="-193" font-family="Helvetica,sans-Serif" font-size="10.00">peeq_tester</text>
</a>
</g>
</g>
<!-- Node8&#45;&gt;Node9 -->
<g id="edge8" class="edge">
<title>Node8&#45;&gt;Node9</title>
<path fill="none" stroke="midnightblue" d="M167.38,-342.31C157.34,-339.47 147.4,-335.38 139,-329.5 92.27,-296.79 64.73,-229.96 55.76,-205.1"/>
<polygon fill="midnightblue" stroke="midnightblue" points="166.85,-345.79 177.4,-344.75 168.51,-338.99 166.85,-345.79"/>
</g>
<!-- Node10&#45;&gt;Node9 -->
<g id="edge10" class="edge">
<title>Node10&#45;&gt;Node9</title>
<path fill="none" stroke="midnightblue" d="M173.46,-304.57C161.64,-301.76 149.42,-297.61 139,-291.5 101.07,-269.25 70.52,-224.8 58.28,-205.18"/>
<polygon fill="midnightblue" stroke="midnightblue" points="172.74,-308 183.25,-306.63 174.19,-301.15 172.74,-308"/>
</g>
<!-- Node11&#45;&gt;Node9 -->
<g id="edge12" class="edge">
<title>Node11&#45;&gt;Node9</title>
<path fill="none" stroke="midnightblue" d="M157,-249.16C150.86,-247.09 144.77,-244.86 139,-242.5 112.9,-231.81 84.51,-215.38 67.63,-205.04"/>
<polygon fill="midnightblue" stroke="midnightblue" points="156.08,-252.54 166.68,-252.29 158.24,-245.88 156.08,-252.54"/>
</g>
<!-- Node12&#45;&gt;Node9 -->
<g id="edge14" class="edge">
<title>Node12&#45;&gt;Node9</title>
<path fill="none" stroke="midnightblue" d="M156.73,-208.99C133.63,-206 108.52,-202.75 88.74,-200.19"/>
<polygon fill="midnightblue" stroke="midnightblue" points="156.47,-212.48 166.84,-210.3 157.37,-205.54 156.47,-212.48"/>
</g>
<!-- Node13&#45;&gt;Node9 -->
<g id="edge16" class="edge">
<title>Node13&#45;&gt;Node9</title>
<path fill="none" stroke="midnightblue" d="M170.23,-180.26C143.77,-183.69 112.31,-187.76 88.57,-190.83"/>
<polygon fill="midnightblue" stroke="midnightblue" points="171.01,-183.69 180.48,-178.94 170.11,-176.75 171.01,-183.69"/>
</g>
<!-- Node14&#45;&gt;Node9 -->
<g id="edge18" class="edge">
<title>Node14&#45;&gt;Node9</title>
<path fill="none" stroke="midnightblue" d="M162.18,-147.56C154.31,-149.62 146.41,-151.94 139,-154.5 114.19,-163.09 87.05,-176.69 69.91,-185.85"/>
<polygon fill="midnightblue" stroke="midnightblue" points="163.25,-150.91 172.1,-145.09 161.55,-144.11 163.25,-150.91"/>
</g>
<!-- Node15&#45;&gt;Node9 -->
<g id="edge20" class="edge">
<title>Node15&#45;&gt;Node9</title>
<path fill="none" stroke="midnightblue" d="M172.15,-104.56C160.84,-107.33 149.19,-111.17 139,-116.5 104.94,-134.32 74.02,-168.89 60.17,-185.76"/>
<polygon fill="midnightblue" stroke="midnightblue" points="172.94,-107.97 181.95,-102.39 171.43,-101.13 172.94,-107.97"/>
</g>
<!-- Node16&#45;&gt;Node9 -->
<g id="edge22" class="edge">
<title>Node16&#45;&gt;Node9</title>
<path fill="none" stroke="midnightblue" d="M173.37,-64.65C161.45,-67.48 149.21,-71.83 139,-78.5 96.29,-106.42 67.12,-163.12 56.72,-185.81"/>
<polygon fill="midnightblue" stroke="midnightblue" points="174.17,-68.06 183.26,-62.62 172.76,-61.21 174.17,-68.06"/>
</g>
<!-- Node18 -->
<g id="node18" class="node">
<title>Node18</title>
<g id="a_node18"><a xlink:href="primary_8f90.html#a2a67903cf5be605c5b6d3c362c6a3c5c" target="_top" xlink:title="The primary driver for the xtb program package.">
<polygon fill="white" stroke="black" points="0,-6 0,-25 103,-25 103,-6 0,-6"/>
<text text-anchor="middle" x="51.5" y="-13" font-family="Helvetica,sans-Serif" font-size="10.00">xtb_prog_primary</text>
</a>
</g>
</g>
<!-- Node17&#45;&gt;Node18 -->
<g id="edge24" class="edge">
<title>Node17&#45;&gt;Node18</title>
<path fill="none" stroke="midnightblue" d="M156.55,-15.5C138.8,-15.5 119.88,-15.5 103.12,-15.5"/>
<polygon fill="midnightblue" stroke="midnightblue" points="156.84,-19 166.84,-15.5 156.84,-12 156.84,-19"/>
</g>
<!-- Node20 -->
<g id="node20" class="node">
<title>Node20</title>
<g id="a_node20"><a xlink:href="rmsd_8f90.html#af702f6d6f990e0cb013a4200b920d5ee" target="_top" xlink:title=" ">
<polygon fill="white" stroke="black" points="585.5,-188 585.5,-207 671.5,-207 671.5,-188 585.5,-188"/>
<text text-anchor="middle" x="628.5" y="-195" font-family="Helvetica,sans-Serif" font-size="10.00">heavyrmsdfile</text>
</a>
</g>
</g>
<!-- Node19&#45;&gt;Node20 -->
<g id="edge26" class="edge">
<title>Node19&#45;&gt;Node20</title>
<path fill="none" stroke="midnightblue" d="M736.79,-197.5C715.6,-197.5 691.62,-197.5 671.71,-197.5"/>
<polygon fill="midnightblue" stroke="midnightblue" points="736.93,-201 746.93,-197.5 736.93,-194 736.93,-201"/>
</g>
<!-- Node21 -->
<g id="node21" class="node">
<title>Node21</title>
<g id="a_node21"><a xlink:href="namespacextb__screening.html#a7f4004ff0e65127a38b038f0a7cdcc84" target="_top" xlink:title=" ">
<polygon fill="white" stroke="black" points="373.5,-188 373.5,-207 496.5,-207 496.5,-188 373.5,-188"/>
<text text-anchor="middle" x="435" y="-195" font-family="Helvetica,sans-Serif" font-size="10.00">xtb_screening::screen</text>
</a>
</g>
</g>
<!-- Node20&#45;&gt;Node21 -->
<g id="edge27" class="edge">
<title>Node20&#45;&gt;Node21</title>
<path fill="none" stroke="midnightblue" d="M575.39,-197.5C551.12,-197.5 522.09,-197.5 496.83,-197.5"/>
<polygon fill="midnightblue" stroke="midnightblue" points="575.47,-201 585.47,-197.5 575.47,-194 575.47,-201"/>
</g>
<!-- Node22&#45;&gt;Node20 -->
<g id="edge30" class="edge">
<title>Node22&#45;&gt;Node20</title>
<path fill="none" stroke="midnightblue" d="M755.13,-167.85C729.99,-173.78 696.16,-181.77 669.95,-187.95"/>
<polygon fill="midnightblue" stroke="midnightblue" points="756.06,-171.22 764.99,-165.52 754.45,-164.41 756.06,-171.22"/>
</g>
<!-- Node23 -->
<g id="node23" class="node">
<title>Node23</title>
<g id="a_node23"><a xlink:href="namespacextb__biaspath.html#a17ea22b101e578a3df8d2b58b96811a5" target="_top" xlink:title=" ">
<polygon fill="white" stroke="black" points="562,-150 562,-169 695,-169 695,-150 562,-150"/>
<text text-anchor="middle" x="628.5" y="-157" font-family="Helvetica,sans-Serif" font-size="10.00">xtb_biaspath::bias_path</text>
</a>
</g>
</g>
<!-- Node22&#45;&gt;Node23 -->
<g id="edge29" class="edge">
<title>Node22&#45;&gt;Node23</title>
<path fill="none" stroke="midnightblue" d="M754.67,-159.5C737.15,-159.5 715.51,-159.5 695.18,-159.5"/>
<polygon fill="midnightblue" stroke="midnightblue" points="754.99,-163 764.99,-159.5 754.99,-156 754.99,-163"/>
</g>
<!-- Node24 -->
<g id="node24" class="node">
<title>Node24</title>
<g id="a_node24"><a xlink:href="namespacextb__scanparam.html#a1447497a9ef67819ca5804e774ef97de" target="_top" xlink:title=" ">
<polygon fill="white" stroke="black" points="569,-100.5 569,-130.5 688,-130.5 688,-100.5 569,-100.5"/>
<text text-anchor="start" x="577" y="-118.5" font-family="Helvetica,sans-Serif" font-size="10.00">xtb_scanparam::read</text>
<text text-anchor="middle" x="628.5" y="-107.5" font-family="Helvetica,sans-Serif" font-size="10.00">_reference</text>
</a>
</g>
</g>
<!-- Node22&#45;&gt;Node24 -->
<g id="edge31" class="edge">
<title>Node22&#45;&gt;Node24</title>
<path fill="none" stroke="midnightblue" d="M755.34,-149.89C734.64,-144.23 707.99,-136.95 684.56,-130.55"/>
<polygon fill="midnightblue" stroke="midnightblue" points="754.42,-153.27 764.99,-152.53 756.27,-146.52 754.42,-153.27"/>
</g>
<!-- Node25 -->
<g id="node25" class="node">
<title>Node25</title>
<g id="a_node25"><a xlink:href="namespacextb__scanparam.html#a249baf5d8d82d72c07841aac22516d7d" target="_top" xlink:title=" ">
<polygon fill="white" stroke="black" points="378.5,-100.5 378.5,-130.5 491.5,-130.5 491.5,-100.5 378.5,-100.5"/>
<text text-anchor="start" x="386.5" y="-118.5" font-family="Helvetica,sans-Serif" font-size="10.00">xtb_scanparam::init</text>
<text text-anchor="middle" x="435" y="-107.5" font-family="Helvetica,sans-Serif" font-size="10.00">_constr</text>
</a>
</g>
</g>
<!-- Node24&#45;&gt;Node25 -->
<g id="edge32" class="edge">
<title>Node24&#45;&gt;Node25</title>
<path fill="none" stroke="midnightblue" d="M558.49,-115.5C536.55,-115.5 512.58,-115.5 491.7,-115.5"/>
<polygon fill="midnightblue" stroke="midnightblue" points="558.74,-119 568.74,-115.5 558.74,-112 558.74,-119"/>
</g>
<!-- Node27 -->
<g id="node27" class="node">
<title>Node27</title>
<g id="a_node27"><a xlink:href="namespacextb__metadynamic.html#a92c8c6e62afa64ff8f74e2dab8d73a5e" target="_top" xlink:title=" ">
<polygon fill="white" stroke="black" points="562.5,-51.5 562.5,-81.5 694.5,-81.5 694.5,-51.5 562.5,-51.5"/>
<text text-anchor="start" x="570.5" y="-69.5" font-family="Helvetica,sans-Serif" font-size="10.00">xtb_metadynamic::load</text>
<text text-anchor="middle" x="628.5" y="-58.5" font-family="Helvetica,sans-Serif" font-size="10.00">_metadynamic</text>
</a>
</g>
</g>
<!-- Node26&#45;&gt;Node27 -->
<g id="edge34" class="edge">
<title>Node26&#45;&gt;Node27</title>
<path fill="none" stroke="midnightblue" d="M725.83,-83.25C715.52,-81.46 704.85,-79.6 694.54,-77.81"/>
<polygon fill="midnightblue" stroke="midnightblue" points="725.54,-86.76 735.99,-85.02 726.74,-79.86 725.54,-86.76"/>
</g>
</g>
</svg>
        <g id="navigator" transform="translate(0 0)" fill="#404254">
                <rect fill="#f2f5e9" fill-opacity="0.5" stroke="#606060" stroke-width=".5" x="0" y="0" width="60" height="60"/>
                <use id="zoomplus" xlink:href="#zoomPlus" x="17" y="9" onmousedown="handleZoom(evt,'in')"/>
                <use id="zoomminus" xlink:href="#zoomMin" x="42" y="9" onmousedown="handleZoom(evt,'out')"/>
                <use id="reset" xlink:href="#resetDef" x="30" y="36" onmousedown="handleReset()"/>
                <g id="arrowUp" xlink:href="#dirArrow" transform="translate(30 24)" onmousedown="handlePan(0,-1)">
                  <use xlink:href="#rim" fill="#404040">
                        <set attributeName="fill" to="#808080" begin="arrowUp.mouseover" end="arrowUp.mouseout"/>
                  </use>
                  <path fill="none" stroke="white" stroke-width="1.5" d="M0,-3.0v7 M-2.5,-0.5L0,-3.0L2.5,-0.5"/>
                </g>
                <g id="arrowRight" xlink:href="#dirArrow" transform="rotate(90) translate(36 -43)" onmousedown="handlePan(1,0)">
                  <use xlink:href="#rim" fill="#404040">
                        <set attributeName="fill" to="#808080" begin="arrowRight.mouseover" end="arrowRight.mouseout"/>
                  </use>
                  <path fill="none" stroke="white" stroke-width="1.5" d="M0,-3.0v7 M-2.5,-0.5L0,-3.0L2.5,-0.5"/>
                </g>
                <g id="arrowDown" xlink:href="#dirArrow" transform="rotate(180) translate(-30 -48)" onmousedown="handlePan(0,1)">
                  <use xlink:href="#rim" fill="#404040">
                        <set attributeName="fill" to="#808080" begin="arrowDown.mouseover" end="arrowDown.mouseout"/>
                  </use>
                  <path fill="none" stroke="white" stroke-width="1.5" d="M0,-3.0v7 M-2.5,-0.5L0,-3.0L2.5,-0.5"/>
                </g>
                <g id="arrowLeft" xlink:href="#dirArrow" transform="rotate(270) translate(-36 17)" onmousedown="handlePan(-1,0)">
                  <use xlink:href="#rim" fill="#404040">
                        <set attributeName="fill" to="#808080" begin="arrowLeft.mouseover" end="arrowLeft.mouseout"/>
                  </use>
                  <path fill="none" stroke="white" stroke-width="1.5" d="M0,-3.0v7 M-2.5,-0.5L0,-3.0L2.5,-0.5"/>
                </g>
        </g>
        <svg viewBox="0 0 15 15" width="100%" height="30px" preserveAspectRatio="xMaxYMin meet">
         <g id="arrow_out" transform="scale(0.3 0.3)">
          <a xlink:href="rdcoord2_8f90_a9b38798a8c538ebdc4c2be235d5bf8d6_icgraph_org.svg" target="_base">
           <rect id="button" ry="5" rx="5" y="6" x="6" height="38" width="38"
                fill="#f2f5e9" fill-opacity="0.5" stroke="#606060" stroke-width="1.0"/>
           <path id="arrow"
             d="M 11.500037,31.436501 C 11.940474,20.09759 22.043105,11.32322 32.158766,21.979434 L 37.068811,17.246167 C 37.068811,17.246167 37.088388,32 37.088388,32 L 22.160133,31.978069 C 22.160133,31.978069 26.997745,27.140456 26.997745,27.140456 C 18.528582,18.264221 13.291696,25.230495 11.500037,31.436501 z"
             style="fill:#404040;"/>
          </a>
         </g>
        </svg>
</svg>
