<?xml version="1.0" encoding="UTF-8" standalone="no"?>
<!DOCTYPE svg PUBLIC "-//W3C//DTD SVG 1.1//EN"
 "http://www.w3.org/Graphics/SVG/1.1/DTD/svg11.dtd">
<!-- Generated by graphviz version 2.46.0 (20210122.1329)
 -->
<!-- Title: read_elempar Pages: 1 -->
<svg width="765pt" height="80pt"
 viewBox="0.00 0.00 765.00 79.71" xmlns="http://www.w3.org/2000/svg" xmlns:xlink="http://www.w3.org/1999/xlink">
<g id="graph0" class="graph" transform="scale(1 1) rotate(0) translate(4 75.71)">
<title>read_elempar</title>
<polygon fill="white" stroke="transparent" points="-4,4 -4,-75.71 761,-75.71 761,4 -4,4"/>
<!-- Node1 -->
<g id="node1" class="node">
<title>Node1</title>
<g id="a_node1"><a xlink:title=" ">
<polygon fill="#bfbfbf" stroke="black" points="0,-19.5 0,-38.5 75,-38.5 75,-19.5 0,-19.5"/>
<text text-anchor="middle" x="37.5" y="-26.5" font-family="Helvetica,sans-Serif" font-size="10.00">read_elempar</text>
</a>
</g>
</g>
<!-- Node2 -->
<g id="node2" class="node">
<title>Node2</title>
<g id="a_node2"><a xlink:href="read__gfn__param_8f90.html#aa3c037140f85b6c6a80c609ee89b8467" target="_top" xlink:title=" ">
<polygon fill="white" stroke="black" points="146,-38.5 146,-57.5 216,-57.5 216,-38.5 146,-38.5"/>
<text text-anchor="middle" x="181" y="-45.5" font-family="Helvetica,sans-Serif" font-size="10.00">gfn_elempar</text>
</a>
</g>
</g>
<!-- Node1&#45;&gt;Node2 -->
<g id="edge1" class="edge">
<title>Node1&#45;&gt;Node2</title>
<path fill="none" stroke="midnightblue" d="M75.31,-33.94C93.77,-36.42 116.28,-39.44 135.68,-42.05"/>
<polygon fill="midnightblue" stroke="midnightblue" points="135.43,-45.55 145.8,-43.41 136.36,-38.61 135.43,-45.55"/>
</g>
<!-- Node7 -->
<g id="node7" class="node">
<title>Node7</title>
<g id="a_node7"><a xlink:href="namespacextb__mctc__strings.html#ae9ebd6dfc568e607d6557a8762bf28b0" target="_top" xlink:title="convert string to lower case">
<polygon fill="white" stroke="black" points="111,-0.5 111,-19.5 251,-19.5 251,-0.5 111,-0.5"/>
<text text-anchor="middle" x="181" y="-7.5" font-family="Helvetica,sans-Serif" font-size="10.00">xtb_mctc_strings::lowercase</text>
</a>
</g>
</g>
<!-- Node1&#45;&gt;Node7 -->
<g id="edge7" class="edge">
<title>Node1&#45;&gt;Node7</title>
<path fill="none" stroke="midnightblue" d="M75.31,-24.06C83.22,-23 91.88,-21.83 100.71,-20.65"/>
<polygon fill="midnightblue" stroke="midnightblue" points="101.29,-24.1 110.73,-19.3 100.36,-17.16 101.29,-24.1"/>
</g>
<!-- Node3 -->
<g id="node3" class="node">
<title>Node3</title>
<g id="a_node3"><a xlink:href="namespacextb__mctc__strings.html#a5272db42d49f38098924d2587c9e9a78" target="_top" xlink:title="Parses the string &#39;str&#39; into arguments args(1), ..., args(nargs) based on the delimiters contained in...">
<polygon fill="white" stroke="black" points="287,-38.5 287,-57.5 406,-57.5 406,-38.5 287,-38.5"/>
<text text-anchor="middle" x="346.5" y="-45.5" font-family="Helvetica,sans-Serif" font-size="10.00">xtb_mctc_strings::parse</text>
</a>
</g>
</g>
<!-- Node2&#45;&gt;Node3 -->
<g id="edge2" class="edge">
<title>Node2&#45;&gt;Node3</title>
<path fill="none" stroke="midnightblue" d="M216.27,-48C233.82,-48 255.82,-48 276.68,-48"/>
<polygon fill="midnightblue" stroke="midnightblue" points="276.8,-51.5 286.8,-48 276.8,-44.5 276.8,-51.5"/>
</g>
<!-- Node4 -->
<g id="node4" class="node">
<title>Node4</title>
<g id="a_node4"><a xlink:href="namespacextb__mctc__strings.html#a83fe8976b683970b27e6b64632d50916" target="_top" xlink:title="Converts multiple spaces and tabs to single spaces; deletes control characters; removes initial space...">
<polygon fill="white" stroke="black" points="624,-38.5 624,-57.5 757,-57.5 757,-38.5 624,-38.5"/>
<text text-anchor="middle" x="690.5" y="-45.5" font-family="Helvetica,sans-Serif" font-size="10.00">xtb_mctc_strings::compact</text>
</a>
</g>
</g>
<!-- Node3&#45;&gt;Node4 -->
<g id="edge3" class="edge">
<title>Node3&#45;&gt;Node4</title>
<path fill="none" stroke="midnightblue" d="M385.86,-57.51C402.93,-61.27 423.35,-65.14 442,-67 506.57,-73.43 523.39,-73 588,-67 604.4,-65.48 622.1,-62.6 638.06,-59.54"/>
<polygon fill="midnightblue" stroke="midnightblue" points="639.14,-62.89 648.26,-57.51 637.77,-56.03 639.14,-62.89"/>
</g>
<!-- Node5 -->
<g id="node5" class="node">
<title>Node5</title>
<g id="a_node5"><a xlink:href="namespacextb__mctc__strings.html#ac1ac14e68e16e450995779028bd6566f" target="_top" xlink:title="Removes backslash () characters. Double backslashes (\) are replaced by a single backslash.">
<polygon fill="white" stroke="black" points="442,-38.5 442,-57.5 588,-57.5 588,-38.5 442,-38.5"/>
<text text-anchor="middle" x="515" y="-45.5" font-family="Helvetica,sans-Serif" font-size="10.00">xtb_mctc_strings::removebksl</text>
</a>
</g>
</g>
<!-- Node3&#45;&gt;Node5 -->
<g id="edge4" class="edge">
<title>Node3&#45;&gt;Node5</title>
<path fill="none" stroke="midnightblue" d="M406.2,-48C414.48,-48 423.11,-48 431.73,-48"/>
<polygon fill="midnightblue" stroke="midnightblue" points="431.82,-51.5 441.82,-48 431.82,-44.5 431.82,-51.5"/>
</g>
<!-- Node6 -->
<g id="node6" class="node">
<title>Node6</title>
<g id="a_node6"><a xlink:href="namespacextb__mctc__strings.html#a01f52f6293684260e59260ff5790e5c3" target="_top" xlink:title="Routine finds the first instance of a character from &#39;delims&#39; in the the string &#39;str&#39;....">
<polygon fill="white" stroke="black" points="458.5,-0.5 458.5,-19.5 571.5,-19.5 571.5,-0.5 458.5,-0.5"/>
<text text-anchor="middle" x="515" y="-7.5" font-family="Helvetica,sans-Serif" font-size="10.00">xtb_mctc_strings::split</text>
</a>
</g>
</g>
<!-- Node3&#45;&gt;Node6 -->
<g id="edge5" class="edge">
<title>Node3&#45;&gt;Node6</title>
<path fill="none" stroke="midnightblue" d="M389.51,-38.41C411.68,-33.35 439.07,-27.1 462.51,-21.75"/>
<polygon fill="midnightblue" stroke="midnightblue" points="463.32,-25.16 472.29,-19.52 461.76,-18.33 463.32,-25.16"/>
</g>
<!-- Node6&#45;&gt;Node4 -->
<g id="edge6" class="edge">
<title>Node6&#45;&gt;Node4</title>
<path fill="none" stroke="midnightblue" d="M559.78,-19.59C582.99,-24.67 611.68,-30.96 636.17,-36.32"/>
<polygon fill="midnightblue" stroke="midnightblue" points="635.52,-39.76 646.03,-38.48 637.01,-32.92 635.52,-39.76"/>
</g>
</g>
</svg>
