<?xml version="1.0" encoding="UTF-8" standalone="no"?>
<!DOCTYPE svg PUBLIC "-//W3C//DTD SVG 1.1//EN"
 "http://www.w3.org/Graphics/SVG/1.1/DTD/svg11.dtd">
<!-- Generated by graphviz version 2.46.0 (20210122.1329)
 -->
<!-- Title: read_pairpar Pages: 1 -->
<svg width="584pt" height="80pt"
 viewBox="0.00 0.00 584.00 79.71" xmlns="http://www.w3.org/2000/svg" xmlns:xlink="http://www.w3.org/1999/xlink">
<g id="graph0" class="graph" transform="scale(1 1) rotate(0) translate(4 75.71)">
<title>read_pairpar</title>
<polygon fill="white" stroke="transparent" points="-4,4 -4,-75.71 580,-75.71 580,4 -4,4"/>
<!-- Node1 -->
<g id="node1" class="node">
<title>Node1</title>
<g id="a_node1"><a xlink:title=" ">
<polygon fill="#bfbfbf" stroke="black" points="0,-38.5 0,-57.5 70,-57.5 70,-38.5 0,-38.5"/>
<text text-anchor="middle" x="35" y="-45.5" font-family="Helvetica,sans-Serif" font-size="10.00">read_pairpar</text>
</a>
</g>
</g>
<!-- Node2 -->
<g id="node2" class="node">
<title>Node2</title>
<g id="a_node2"><a xlink:href="namespacextb__mctc__strings.html#a5272db42d49f38098924d2587c9e9a78" target="_top" xlink:title="Parses the string &#39;str&#39; into arguments args(1), ..., args(nargs) based on the delimiters contained in...">
<polygon fill="white" stroke="black" points="106,-38.5 106,-57.5 225,-57.5 225,-38.5 106,-38.5"/>
<text text-anchor="middle" x="165.5" y="-45.5" font-family="Helvetica,sans-Serif" font-size="10.00">xtb_mctc_strings::parse</text>
</a>
</g>
</g>
<!-- Node1&#45;&gt;Node2 -->
<g id="edge1" class="edge">
<title>Node1&#45;&gt;Node2</title>
<path fill="none" stroke="midnightblue" d="M70.1,-48C78.09,-48 86.89,-48 95.81,-48"/>
<polygon fill="midnightblue" stroke="midnightblue" points="95.89,-51.5 105.89,-48 95.89,-44.5 95.89,-51.5"/>
</g>
<!-- Node3 -->
<g id="node3" class="node">
<title>Node3</title>
<g id="a_node3"><a xlink:href="namespacextb__mctc__strings.html#a83fe8976b683970b27e6b64632d50916" target="_top" xlink:title="Converts multiple spaces and tabs to single spaces; deletes control characters; removes initial space...">
<polygon fill="white" stroke="black" points="443,-38.5 443,-57.5 576,-57.5 576,-38.5 443,-38.5"/>
<text text-anchor="middle" x="509.5" y="-45.5" font-family="Helvetica,sans-Serif" font-size="10.00">xtb_mctc_strings::compact</text>
</a>
</g>
</g>
<!-- Node2&#45;&gt;Node3 -->
<g id="edge2" class="edge">
<title>Node2&#45;&gt;Node3</title>
<path fill="none" stroke="midnightblue" d="M204.86,-57.51C221.93,-61.27 242.35,-65.14 261,-67 325.57,-73.43 342.39,-73 407,-67 423.4,-65.48 441.1,-62.6 457.06,-59.54"/>
<polygon fill="midnightblue" stroke="midnightblue" points="458.14,-62.89 467.26,-57.51 456.77,-56.03 458.14,-62.89"/>
</g>
<!-- Node4 -->
<g id="node4" class="node">
<title>Node4</title>
<g id="a_node4"><a xlink:href="namespacextb__mctc__strings.html#ac1ac14e68e16e450995779028bd6566f" target="_top" xlink:title="Removes backslash () characters. Double backslashes (\) are replaced by a single backslash.">
<polygon fill="white" stroke="black" points="261,-38.5 261,-57.5 407,-57.5 407,-38.5 261,-38.5"/>
<text text-anchor="middle" x="334" y="-45.5" font-family="Helvetica,sans-Serif" font-size="10.00">xtb_mctc_strings::removebksl</text>
</a>
</g>
</g>
<!-- Node2&#45;&gt;Node4 -->
<g id="edge3" class="edge">
<title>Node2&#45;&gt;Node4</title>
<path fill="none" stroke="midnightblue" d="M225.2,-48C233.48,-48 242.11,-48 250.73,-48"/>
<polygon fill="midnightblue" stroke="midnightblue" points="250.82,-51.5 260.82,-48 250.82,-44.5 250.82,-51.5"/>
</g>
<!-- Node5 -->
<g id="node5" class="node">
<title>Node5</title>
<g id="a_node5"><a xlink:href="namespacextb__mctc__strings.html#a01f52f6293684260e59260ff5790e5c3" target="_top" xlink:title="Routine finds the first instance of a character from &#39;delims&#39; in the the string &#39;str&#39;....">
<polygon fill="white" stroke="black" points="277.5,-0.5 277.5,-19.5 390.5,-19.5 390.5,-0.5 277.5,-0.5"/>
<text text-anchor="middle" x="334" y="-7.5" font-family="Helvetica,sans-Serif" font-size="10.00">xtb_mctc_strings::split</text>
</a>
</g>
</g>
<!-- Node2&#45;&gt;Node5 -->
<g id="edge4" class="edge">
<title>Node2&#45;&gt;Node5</title>
<path fill="none" stroke="midnightblue" d="M208.51,-38.41C230.68,-33.35 258.07,-27.1 281.51,-21.75"/>
<polygon fill="midnightblue" stroke="midnightblue" points="282.32,-25.16 291.29,-19.52 280.76,-18.33 282.32,-25.16"/>
</g>
<!-- Node5&#45;&gt;Node3 -->
<g id="edge5" class="edge">
<title>Node5&#45;&gt;Node3</title>
<path fill="none" stroke="midnightblue" d="M378.78,-19.59C401.99,-24.67 430.68,-30.96 455.17,-36.32"/>
<polygon fill="midnightblue" stroke="midnightblue" points="454.52,-39.76 465.03,-38.48 456.01,-32.92 454.52,-39.76"/>
</g>
</g>
</svg>
