<?xml version="1.0" encoding="UTF-8" standalone="no"?>
<!DOCTYPE svg PUBLIC "-//W3C//DTD SVG 1.1//EN"
 "http://www.w3.org/Graphics/SVG/1.1/DTD/svg11.dtd">
<!-- Generated by graphviz version 2.43.0 (0)
 -->
<!-- Title: shortest_distance Pages: 1 -->
<svg width="429pt" height="142pt"
 viewBox="0.00 0.00 429.00 142.00" xmlns="http://www.w3.org/2000/svg" xmlns:xlink="http://www.w3.org/1999/xlink">
<g id="graph0" class="graph" transform="scale(1 1) rotate(0) translate(4 138)">
<title>shortest_distance</title>
<polygon fill="white" stroke="transparent" points="-4,4 -4,-138 425,-138 425,4 -4,4"/>
<!-- Node1 -->
<g id="node1" class="node">
<title>Node1</title>
<g id="a_node1"><a xlink:title=" ">
<polygon fill="#bfbfbf" stroke="black" points="0,-57.5 0,-76.5 103,-76.5 103,-57.5 0,-57.5"/>
<text text-anchor="middle" x="51.5" y="-64.5" font-family="Helvetica,sans-Serif" font-size="10.00">shortest_distance</text>
</a>
</g>
</g>
<!-- Node2 -->
<g id="node2" class="node">
<title>Node2</title>
<g id="a_node2"><a xlink:href="constrain__pot_8f90.html#ac62613d43f31c7bfa652ee80083b400b" target="_top" xlink:title=" ">
<polygon fill="white" stroke="black" points="176,-114.5 176,-133.5 205,-133.5 205,-114.5 176,-114.5"/>
<text text-anchor="middle" x="190.5" y="-121.5" font-family="Helvetica,sans-Serif" font-size="10.00">lin</text>
</a>
</g>
</g>
<!-- Node1&#45;&gt;Node2 -->
<g id="edge1" class="edge">
<title>Node1&#45;&gt;Node2</title>
<path fill="none" stroke="midnightblue" d="M75.43,-76.54C100.6,-87.01 140.8,-103.74 166.14,-114.28"/>
<polygon fill="midnightblue" stroke="midnightblue" points="165.12,-117.65 175.69,-118.26 167.8,-111.18 165.12,-117.65"/>
</g>
<!-- Node3 -->
<g id="node3" class="node">
<title>Node3</title>
<g id="a_node3"><a xlink:href="fragment_8f90.html#a88a1f284c827ded56a0ceed125a2bb61" target="_top" xlink:title=" ">
<polygon fill="white" stroke="black" points="278,-38.5 278,-57.5 349,-57.5 349,-38.5 278,-38.5"/>
<text text-anchor="middle" x="313.5" y="-45.5" font-family="Helvetica,sans-Serif" font-size="10.00">neighbours</text>
</a>
</g>
</g>
<!-- Node1&#45;&gt;Node3 -->
<g id="edge2" class="edge">
<title>Node1&#45;&gt;Node3</title>
<path fill="none" stroke="midnightblue" d="M103.25,-63.29C150.96,-59.8 221.7,-54.64 267.46,-51.29"/>
<polygon fill="midnightblue" stroke="midnightblue" points="267.96,-54.76 277.68,-50.54 267.45,-47.78 267.96,-54.76"/>
</g>
<!-- Node4 -->
<g id="node4" class="node">
<title>Node4</title>
<g id="a_node4"><a xlink:href="symmetry__i_8c.html#aa77c823a9fc018ae1d437369708d8727" target="_top" xlink:title=" ">
<polygon fill="white" stroke="black" points="385,-38.5 385,-57.5 421,-57.5 421,-38.5 385,-38.5"/>
<text text-anchor="middle" x="403" y="-45.5" font-family="Helvetica,sans-Serif" font-size="10.00">true</text>
</a>
</g>
</g>
<!-- Node1&#45;&gt;Node4 -->
<g id="edge7" class="edge">
<title>Node1&#45;&gt;Node4</title>
<path fill="none" stroke="midnightblue" d="M103.26,-69.05C115,-69.45 127.43,-69.8 139,-70 232.33,-71.62 257.27,-84.27 349,-67 357.74,-65.35 366.97,-62.48 375.22,-59.45"/>
<polygon fill="midnightblue" stroke="midnightblue" points="376.67,-62.65 384.72,-55.76 374.13,-56.12 376.67,-62.65"/>
</g>
<!-- Node5 -->
<g id="node5" class="node">
<title>Node5</title>
<g id="a_node5"><a xlink:href="frag__hess_8f90.html#af3ef6d0cef0ea3144bf6bfcb61ffe5ab" target="_top" xlink:title=" ">
<polygon fill="white" stroke="black" points="139,-0.5 139,-19.5 242,-19.5 242,-0.5 139,-0.5"/>
<text text-anchor="middle" x="190.5" y="-7.5" font-family="Helvetica,sans-Serif" font-size="10.00">shortest_distance</text>
</a>
</g>
</g>
<!-- Node1&#45;&gt;Node5 -->
<g id="edge4" class="edge">
<title>Node1&#45;&gt;Node5</title>
<path fill="none" stroke="midnightblue" d="M75.43,-57.46C97.76,-48.17 131.9,-33.96 157.02,-23.51"/>
<polygon fill="midnightblue" stroke="midnightblue" points="158.61,-26.64 166.49,-19.57 155.92,-20.18 158.61,-26.64"/>
</g>
<!-- Node3&#45;&gt;Node4 -->
<g id="edge3" class="edge">
<title>Node3&#45;&gt;Node4</title>
<path fill="none" stroke="midnightblue" d="M349.08,-48C357.59,-48 366.57,-48 374.68,-48"/>
<polygon fill="midnightblue" stroke="midnightblue" points="374.71,-51.5 384.71,-48 374.71,-44.5 374.71,-51.5"/>
</g>
<!-- Node5&#45;&gt;Node3 -->
<g id="edge5" class="edge">
<title>Node5&#45;&gt;Node3</title>
<path fill="none" stroke="midnightblue" d="M222.03,-19.59C237.22,-24.36 255.79,-30.19 272.13,-35.32"/>
<polygon fill="midnightblue" stroke="midnightblue" points="271.39,-38.76 281.98,-38.41 273.48,-32.08 271.39,-38.76"/>
</g>
<!-- Node5&#45;&gt;Node4 -->
<g id="edge6" class="edge">
<title>Node5&#45;&gt;Node4</title>
<path fill="none" stroke="midnightblue" d="M242.01,-13.2C273.16,-15.88 313.75,-20.67 349,-29 357.66,-31.05 366.86,-34.04 375.12,-37.05"/>
<polygon fill="midnightblue" stroke="midnightblue" points="374.04,-40.38 384.63,-40.66 376.53,-33.84 374.04,-40.38"/>
</g>
</g>
</svg>
