<?xml version="1.0" encoding="UTF-8" standalone="no"?>
<!DOCTYPE svg PUBLIC "-//W3C//DTD SVG 1.1//EN"
 "http://www.w3.org/Graphics/SVG/1.1/DTD/svg11.dtd">
<!-- Generated by graphviz version 2.46.1 (20210215.1649)
 -->
<!-- Title: penta Pages: 1 -->
<svg width="449pt" height="88pt"
 viewBox="0.00 0.00 449.00 88.00" xmlns="http://www.w3.org/2000/svg" xmlns:xlink="http://www.w3.org/1999/xlink">
<g id="graph0" class="graph" transform="scale(1 1) rotate(0) translate(4 84)">
<title>penta</title>
<polygon fill="white" stroke="transparent" points="-4,4 -4,-84 445,-84 445,4 -4,4"/>
<!-- Node1 -->
<g id="node1" class="node">
<title>Node1</title>
<g id="a_node1"><a xlink:title=" ">
<polygon fill="#bfbfbf" stroke="black" points="400,-30 400,-49 441,-49 441,-30 400,-30"/>
<text text-anchor="middle" x="420.5" y="-37" font-family="Helvetica,sans-Serif" font-size="10.00">penta</text>
</a>
</g>
</g>
<!-- Node2 -->
<g id="node2" class="node">
<title>Node2</title>
<g id="a_node2"><a xlink:href="spline3_8f90.html#a369454ba63aa26b05869d1d828420ff5" target="_top" xlink:title=" ">
<polygon fill="white" stroke="black" points="275,-30 275,-49 364,-49 364,-30 275,-30"/>
<text text-anchor="middle" x="319.5" y="-37" font-family="Helvetica,sans-Serif" font-size="10.00">spline_cubic_set</text>
</a>
</g>
</g>
<!-- Node1&#45;&gt;Node2 -->
<g id="edge1" class="edge">
<title>Node1&#45;&gt;Node2</title>
<path fill="none" stroke="midnightblue" d="M389.89,-39.5C381.81,-39.5 372.87,-39.5 364.18,-39.5"/>
<polygon fill="midnightblue" stroke="midnightblue" points="389.94,-43 399.94,-39.5 389.94,-36 389.94,-43"/>
</g>
<!-- Node3 -->
<g id="node3" class="node">
<title>Node3</title>
<g id="a_node3"><a xlink:href="namespacextb__biaspath.html#ae3932b6b35376aa6823349a350c14ede" target="_top" xlink:title=" ">
<polygon fill="white" stroke="black" points="134,-49.5 134,-79.5 239,-79.5 239,-49.5 134,-49.5"/>
<text text-anchor="start" x="142" y="-67.5" font-family="Helvetica,sans-Serif" font-size="10.00">xtb_biaspath::cqpath</text>
<text text-anchor="middle" x="186.5" y="-56.5" font-family="Helvetica,sans-Serif" font-size="10.00">_cube_spline</text>
</a>
</g>
</g>
<!-- Node2&#45;&gt;Node3 -->
<g id="edge2" class="edge">
<title>Node2&#45;&gt;Node3</title>
<path fill="none" stroke="midnightblue" d="M265,-49.71C256.45,-51.34 247.62,-53.03 239.11,-54.65"/>
<polygon fill="midnightblue" stroke="midnightblue" points="265.71,-53.14 274.88,-47.82 264.4,-46.26 265.71,-53.14"/>
</g>
<!-- Node4 -->
<g id="node4" class="node">
<title>Node4</title>
<g id="a_node4"><a xlink:href="namespacextb__cqpath.html#a26b4e4e50e2f432e9b811d97923b8678" target="_top" xlink:title=" ">
<polygon fill="white" stroke="black" points="137.5,-0.5 137.5,-30.5 235.5,-30.5 235.5,-0.5 137.5,-0.5"/>
<text text-anchor="start" x="145.5" y="-18.5" font-family="Helvetica,sans-Serif" font-size="10.00">xtb_cqpath::cqpath</text>
<text text-anchor="middle" x="186.5" y="-7.5" font-family="Helvetica,sans-Serif" font-size="10.00">_cube_spline</text>
</a>
</g>
</g>
<!-- Node2&#45;&gt;Node4 -->
<g id="edge3" class="edge">
<title>Node2&#45;&gt;Node4</title>
<path fill="none" stroke="midnightblue" d="M265,-29.7C255.37,-27.93 245.38,-26.1 235.9,-24.37"/>
<polygon fill="midnightblue" stroke="midnightblue" points="264.41,-33.15 274.88,-31.51 265.67,-26.26 264.41,-33.15"/>
</g>
<!-- Node5 -->
<g id="node5" class="node">
<title>Node5</title>
<g id="a_node5"><a xlink:href="namespacextb__cqpath.html#aaf7cca73d281279492930e02cb9355ab" target="_top" xlink:title=" ">
<polygon fill="white" stroke="black" points="0,-0.5 0,-30.5 98,-30.5 98,-0.5 0,-0.5"/>
<text text-anchor="start" x="8" y="-18.5" font-family="Helvetica,sans-Serif" font-size="10.00">xtb_cqpath::cqpath</text>
<text text-anchor="middle" x="49" y="-7.5" font-family="Helvetica,sans-Serif" font-size="10.00">_spline_repos</text>
</a>
</g>
</g>
<!-- Node4&#45;&gt;Node5 -->
<g id="edge4" class="edge">
<title>Node4&#45;&gt;Node5</title>
<path fill="none" stroke="midnightblue" d="M127.11,-15.5C117.55,-15.5 107.74,-15.5 98.46,-15.5"/>
<polygon fill="midnightblue" stroke="midnightblue" points="127.35,-19 137.35,-15.5 127.35,-12 127.35,-19"/>
</g>
</g>
</svg>
