<?xml version="1.0" encoding="UTF-8" standalone="no"?>
<!DOCTYPE svg PUBLIC "-//W3C//DTD SVG 1.1//EN"
 "http://www.w3.org/Graphics/SVG/1.1/DTD/svg11.dtd">
<!-- Generated by graphviz version 2.46.1 (20210215.1649)
 -->
<!-- Title: forpy_mod::pythonmodule Pages: 1 -->
<svg width="155pt" height="162pt"
 viewBox="0.00 0.00 155.00 162.00" xmlns="http://www.w3.org/2000/svg" xmlns:xlink="http://www.w3.org/1999/xlink">
<g id="graph0" class="graph" transform="scale(1 1) rotate(0) translate(4 158)">
<title>forpy_mod::pythonmodule</title>
<polygon fill="white" stroke="transparent" points="-4,4 -4,-158 151,-158 151,4 -4,4"/>
<!-- Node1 -->
<g id="node1" class="node">
<title>Node1</title>
<g id="a_node1"><a xlink:title="Only used for writing Python extension modules. Datastructure to hold information about your Python e...">
<polygon fill="#bfbfbf" stroke="black" points="10.5,-0.5 10.5,-19.5 136.5,-19.5 136.5,-0.5 10.5,-0.5"/>
<text text-anchor="middle" x="73.5" y="-7.5" font-family="Helvetica,sans-Serif" font-size="10.00">forpy_mod::pythonmodule</text>
</a>
</g>
</g>
<!-- Node2 -->
<g id="node2" class="node">
<title>Node2</title>
<g id="a_node2"><a xlink:href="structforpy__mod_1_1pymoduledef.html" target="_top" xlink:title=" ">
<polygon fill="white" stroke="black" points="13,-67.5 13,-86.5 134,-86.5 134,-67.5 13,-67.5"/>
<text text-anchor="middle" x="73.5" y="-74.5" font-family="Helvetica,sans-Serif" font-size="10.00">forpy_mod::pymoduledef</text>
</a>
</g>
</g>
<!-- Node2&#45;&gt;Node1 -->
<g id="edge1" class="edge">
<title>Node2&#45;&gt;Node1</title>
<path fill="none" stroke="#9a32cd" stroke-dasharray="5,2" d="M73.5,-57.04C73.5,-44.67 73.5,-29.12 73.5,-19.63"/>
<polygon fill="#9a32cd" stroke="#9a32cd" points="70,-57.23 73.5,-67.23 77,-57.23 70,-57.23"/>
<text text-anchor="middle" x="100" y="-41" font-family="Helvetica,sans-Serif" font-size="10.00"> module_def</text>
</g>
<!-- Node3 -->
<g id="node3" class="node">
<title>Node3</title>
<g id="a_node3"><a xlink:href="structforpy__mod_1_1pymoduledef__base.html" target="_top" xlink:title=" ">
<polygon fill="white" stroke="black" points="0,-134.5 0,-153.5 147,-153.5 147,-134.5 0,-134.5"/>
<text text-anchor="middle" x="73.5" y="-141.5" font-family="Helvetica,sans-Serif" font-size="10.00">forpy_mod::pymoduledef_base</text>
</a>
</g>
</g>
<!-- Node3&#45;&gt;Node2 -->
<g id="edge2" class="edge">
<title>Node3&#45;&gt;Node2</title>
<path fill="none" stroke="#9a32cd" stroke-dasharray="5,2" d="M73.5,-124.04C73.5,-111.67 73.5,-96.12 73.5,-86.63"/>
<polygon fill="#9a32cd" stroke="#9a32cd" points="70,-124.23 73.5,-134.23 77,-124.23 70,-124.23"/>
<text text-anchor="middle" x="92" y="-108" font-family="Helvetica,sans-Serif" font-size="10.00"> m_base</text>
</g>
</g>
</svg>
