<?xml version="1.0" encoding="UTF-8" standalone="no"?>
<!DOCTYPE svg PUBLIC "-//W3C//DTD SVG 1.1//EN"
 "http://www.w3.org/Graphics/SVG/1.1/DTD/svg11.dtd">
<!-- Generated by graphviz version 2.46.0 (20210122.1329)
 -->
<!-- Title: xtb_type_identitymap::tidentitymap::set Pages: 1 -->
<svg width="258pt" height="127pt"
 viewBox="0.00 0.00 258.00 126.50" xmlns="http://www.w3.org/2000/svg" xmlns:xlink="http://www.w3.org/1999/xlink">
<g id="graph0" class="graph" transform="scale(1 1) rotate(0) translate(4 122.5)">
<title>xtb_type_identitymap::tidentitymap::set</title>
<polygon fill="white" stroke="transparent" points="-4,4 -4,-122.5 254,-122.5 254,4 -4,4"/>
<!-- Node1 -->
<g id="node1" class="node">
<title>Node1</title>
<g id="a_node1"><a xlink:title="Setter functions in atomic arrays.">
<polygon fill="#bfbfbf" stroke="black" points="0,-49.5 0,-79.5 107,-79.5 107,-49.5 0,-49.5"/>
<text text-anchor="start" x="8" y="-67.5" font-family="Helvetica,sans-Serif" font-size="10.00">xtb_type_identitymap</text>
<text text-anchor="middle" x="53.5" y="-56.5" font-family="Helvetica,sans-Serif" font-size="10.00">::tidentitymap::set</text>
</a>
</g>
</g>
<!-- Node2 -->
<g id="node2" class="node">
<title>Node2</title>
<g id="a_node2"><a xlink:href="src_2api_2CMakeLists_8txt.html#abaa5a71b2767ce1c6e7b9ac55473bda1" target="_top" xlink:title=" ">
<polygon fill="white" stroke="black" points="181.5,-99 181.5,-118 211.5,-118 211.5,-99 181.5,-99"/>
<text text-anchor="middle" x="196.5" y="-106" font-family="Helvetica,sans-Serif" font-size="10.00">set</text>
</a>
</g>
</g>
<!-- Node1&#45;&gt;Node2 -->
<g id="edge1" class="edge">
<title>Node1&#45;&gt;Node2</title>
<path fill="none" stroke="midnightblue" d="M102.63,-79.52C125.92,-86.79 152.84,-95.19 171.69,-101.07"/>
<polygon fill="midnightblue" stroke="midnightblue" points="170.66,-104.41 181.25,-104.05 172.74,-97.73 170.66,-104.41"/>
</g>
<!-- Node3 -->
<g id="node3" class="node">
<title>Node3</title>
<g id="a_node3"><a xlink:href="namespacextb__type__identitymap.html#a1c64ae9e25380af8dfed0a9c091321f6" target="_top" xlink:title="Set value in an array using the atomic number.">
<polygon fill="white" stroke="black" points="143,-49.5 143,-79.5 250,-79.5 250,-49.5 143,-49.5"/>
<text text-anchor="start" x="151" y="-67.5" font-family="Helvetica,sans-Serif" font-size="10.00">xtb_type_identitymap</text>
<text text-anchor="middle" x="196.5" y="-56.5" font-family="Helvetica,sans-Serif" font-size="10.00">::setrealwithnumber</text>
</a>
</g>
</g>
<!-- Node1&#45;&gt;Node3 -->
<g id="edge2" class="edge">
<title>Node1&#45;&gt;Node3</title>
<path fill="none" stroke="midnightblue" d="M107,-64.5C115.44,-64.5 124.26,-64.5 132.9,-64.5"/>
<polygon fill="midnightblue" stroke="midnightblue" points="132.95,-68 142.95,-64.5 132.95,-61 132.95,-68"/>
</g>
<!-- Node4 -->
<g id="node4" class="node">
<title>Node4</title>
<g id="a_node4"><a xlink:href="namespacextb__type__identitymap.html#ac3ff6a8edf1ec4345d1fadc917e577d3" target="_top" xlink:title="Set value in an array using an unique element symbol.">
<polygon fill="white" stroke="black" points="143,-0.5 143,-30.5 250,-30.5 250,-0.5 143,-0.5"/>
<text text-anchor="start" x="151" y="-18.5" font-family="Helvetica,sans-Serif" font-size="10.00">xtb_type_identitymap</text>
<text text-anchor="middle" x="196.5" y="-7.5" font-family="Helvetica,sans-Serif" font-size="10.00">::setrealwithsymbol</text>
</a>
</g>
</g>
<!-- Node1&#45;&gt;Node4 -->
<g id="edge3" class="edge">
<title>Node1&#45;&gt;Node4</title>
<path fill="none" stroke="midnightblue" d="M97.96,-49.4C112.03,-44.51 127.79,-39.03 142.48,-33.93"/>
<polygon fill="midnightblue" stroke="midnightblue" points="143.65,-37.22 151.95,-30.64 141.35,-30.61 143.65,-37.22"/>
</g>
</g>
</svg>
