<?xml version="1.0" encoding="UTF-8" standalone="no"?>
<!DOCTYPE svg PUBLIC "-//W3C//DTD SVG 1.1//EN"
 "http://www.w3.org/Graphics/SVG/1.1/DTD/svg11.dtd">
<!-- Generated by graphviz version 2.43.0 (0)
 -->
<!-- Title: xtb_type_coulomb::tcoulomb Pages: 1 -->
<svg width="306pt" height="95pt"
 viewBox="0.00 0.00 306.00 95.00" xmlns="http://www.w3.org/2000/svg" xmlns:xlink="http://www.w3.org/1999/xlink">
<g id="graph0" class="graph" transform="scale(1 1) rotate(0) translate(4 91)">
<title>xtb_type_coulomb::tcoulomb</title>
<polygon fill="white" stroke="transparent" points="-4,4 -4,-91 302,-91 302,4 -4,4"/>
<!-- Node1 -->
<g id="node1" class="node">
<title>Node1</title>
<g id="a_node1"><a xlink:title="Base point charge electrostatics evaluator.">
<polygon fill="#bfbfbf" stroke="black" points="64,-67.5 64,-86.5 222,-86.5 222,-67.5 64,-67.5"/>
<text text-anchor="middle" x="143" y="-74.5" font-family="Helvetica,sans-Serif" font-size="10.00">xtb_type_coulomb::tcoulomb</text>
</a>
</g>
</g>
<!-- Node2 -->
<g id="node2" class="node">
<title>Node2</title>
<g id="a_node2"><a xlink:href="structxtb__coulomb__gaussian_1_1tgaussiansmeared.html" target="_top" xlink:title=" ">
<polygon fill="white" stroke="black" points="0,-0.5 0,-30.5 128,-30.5 128,-0.5 0,-0.5"/>
<text text-anchor="start" x="8" y="-18.5" font-family="Helvetica,sans-Serif" font-size="10.00">xtb_coulomb_gaussian</text>
<text text-anchor="middle" x="64" y="-7.5" font-family="Helvetica,sans-Serif" font-size="10.00">::tgaussiansmeared</text>
</a>
</g>
</g>
<!-- Node1&#45;&gt;Node2 -->
<g id="edge1" class="edge">
<title>Node1&#45;&gt;Node2</title>
<path fill="none" stroke="midnightblue" d="M123.34,-61.2C110.89,-51.81 94.87,-39.75 82.62,-30.52"/>
<polygon fill="midnightblue" stroke="midnightblue" points="121.59,-64.25 131.68,-67.48 125.8,-58.66 121.59,-64.25"/>
</g>
<!-- Node3 -->
<g id="node3" class="node">
<title>Node3</title>
<g id="a_node3"><a xlink:href="structxtb__coulomb__klopmanohno_1_1tklopmanohno.html" target="_top" xlink:title=" ">
<polygon fill="white" stroke="black" points="146,-0.5 146,-30.5 298,-30.5 298,-0.5 146,-0.5"/>
<text text-anchor="start" x="154" y="-18.5" font-family="Helvetica,sans-Serif" font-size="10.00">xtb_coulomb_klopmanohno</text>
<text text-anchor="middle" x="222" y="-7.5" font-family="Helvetica,sans-Serif" font-size="10.00">::tklopmanohno</text>
</a>
</g>
</g>
<!-- Node1&#45;&gt;Node3 -->
<g id="edge2" class="edge">
<title>Node1&#45;&gt;Node3</title>
<path fill="none" stroke="midnightblue" d="M162.66,-61.2C175.11,-51.81 191.13,-39.75 203.38,-30.52"/>
<polygon fill="midnightblue" stroke="midnightblue" points="160.2,-58.66 154.32,-67.48 164.41,-64.25 160.2,-58.66"/>
</g>
</g>
</svg>
