<?xml version="1.0" encoding="UTF-8" standalone="no"?>
<!DOCTYPE svg PUBLIC "-//W3C//DTD SVG 1.1//EN"
 "http://www.w3.org/Graphics/SVG/1.1/DTD/svg11.dtd">
<!-- Generated by graphviz version 2.46.1 (20210215.1649)
 -->
<!-- Title: xtb_xtb_calculator::txtbcalculator Pages: 1 -->
<!--zoomable 294 -->
<svg id="main" version="1.1" xmlns="http://www.w3.org/2000/svg" xmlns:xlink="http://www.w3.org/1999/xlink" xml:space="preserve" onload="init(evt)">
<style type="text/css"><![CDATA[
.edge:hover path { stroke: red; }
.edge:hover polygon { stroke: red; fill: red; }
]]></style>
<script type="text/javascript"><![CDATA[
var edges = document.getElementsByTagName('g');
if (edges && edges.length) {
  for (var i=0;i<edges.length;i++) {
    if (edges[i].id.substr(0,4)=='edge') {
      edges[i].setAttribute('class','edge');
    }
  }
}
]]></script>
        <defs>
                <circle id="rim" cx="0" cy="0" r="7"/>
                <circle id="rim2" cx="0" cy="0" r="3.5"/>
                <g id="zoomPlus">
                        <use xlink:href="#rim" fill="#404040">
                                <set attributeName="fill" to="#808080" begin="zoomplus.mouseover" end="zoomplus.mouseout"/>
                        </use>
                        <path d="M-4,0h8M0,-4v8" fill="none" stroke="white" stroke-width="1.5" pointer-events="none"/>
                </g>
                <g id="zoomMin">
                        <use xlink:href="#rim" fill="#404040">
                                <set attributeName="fill" to="#808080" begin="zoomminus.mouseover" end="zoomminus.mouseout"/>
                        </use>
                        <path d="M-4,0h8" fill="none" stroke="white" stroke-width="1.5" pointer-events="none"/>
                </g>
                <g id="dirArrow">
                        <path fill="none" stroke="white" stroke-width="1.5" d="M0,-3.0v7 M-2.5,-0.5L0,-3.0L2.5,-0.5"/>
                </g>
               <g id="resetDef">
                       <use xlink:href="#rim2" fill="#404040">
                               <set attributeName="fill" to="#808080" begin="reset.mouseover" end="reset.mouseout"/>
                       </use>
               </g>
        </defs>

<script type="text/javascript">
var viewWidth = 725;
var viewHeight = 294;
var sectionId = 'dynsection-1';
</script>
<script xlink:href="svgpan.js"/>
<svg id="graph" class="graph">
<g id="viewport">
<title>xtb_xtb_calculator::txtbcalculator</title>
<polygon fill="white" stroke="transparent" points="-4,4 -4,-290 721,-290 721,4 -4,4"/>
<!-- Node1 -->
<g id="node1" class="node">
<title>Node1</title>
<g id="a_node1"><a xlink:title="Calculator interface for xTB based methods.">
<polygon fill="#bfbfbf" stroke="black" points="622,-100 622,-130 717,-130 717,-100 622,-100"/>
<text text-anchor="start" x="630" y="-118" font-family="Helvetica,sans-Serif" font-size="10.00">xtb_xtb_calculator</text>
<text text-anchor="middle" x="669.5" y="-107" font-family="Helvetica,sans-Serif" font-size="10.00">::txtbcalculator</text>
</a>
</g>
</g>
<!-- Node2 -->
<g id="node2" class="node">
<title>Node2</title>
<g id="a_node2"><a xlink:href="structxtb__type__calculator_1_1tcalculator.html" target="_top" xlink:title="Base calculator.">
<polygon fill="white" stroke="black" points="440,-223 440,-253 540,-253 540,-223 440,-223"/>
<text text-anchor="start" x="448" y="-241" font-family="Helvetica,sans-Serif" font-size="10.00">xtb_type_calculator</text>
<text text-anchor="middle" x="490" y="-230" font-family="Helvetica,sans-Serif" font-size="10.00">::tcalculator</text>
</a>
</g>
</g>
<!-- Node2&#45;&gt;Node1 -->
<g id="edge1" class="edge">
<title>Node2&#45;&gt;Node1</title>
<path fill="none" stroke="midnightblue" d="M521.32,-216.99C557.01,-192.25 615.4,-151.8 646.83,-130.01"/>
<polygon fill="midnightblue" stroke="midnightblue" points="518.99,-214.35 512.76,-222.92 522.98,-220.1 518.99,-214.35"/>
</g>
<!-- Node3 -->
<g id="node3" class="node">
<title>Node3</title>
<g id="a_node3"><a xlink:href="structxtb__solv__model_1_1tsolvmodel.html" target="_top" xlink:title="Payload to create actual solvation models.">
<polygon fill="white" stroke="black" points="198.5,-266.5 198.5,-285.5 334.5,-285.5 334.5,-266.5 198.5,-266.5"/>
<text text-anchor="middle" x="266.5" y="-273.5" font-family="Helvetica,sans-Serif" font-size="10.00">xtb_solv_model::tsolvmodel</text>
</a>
</g>
</g>
<!-- Node3&#45;&gt;Node2 -->
<g id="edge2" class="edge">
<title>Node3&#45;&gt;Node2</title>
<path fill="none" stroke="#9a32cd" stroke-dasharray="5,2" d="M334.71,-264.8C358.5,-260.81 385.45,-256.24 410,-252 419.61,-250.34 429.87,-248.54 439.71,-246.8"/>
<polygon fill="#9a32cd" stroke="#9a32cd" points="334.01,-261.37 324.72,-266.48 335.16,-268.27 334.01,-261.37"/>
<text text-anchor="middle" x="384" y="-263" font-family="Helvetica,sans-Serif" font-size="10.00"> solvation</text>
</g>
<!-- Node4 -->
<g id="node4" class="node">
<title>Node4</title>
<g id="a_node4"><a xlink:href="structxtb__solv__input_1_1tsolvinput.html" target="_top" xlink:title="Input data for the solvation model.">
<polygon fill="white" stroke="black" points="1.5,-266.5 1.5,-285.5 126.5,-285.5 126.5,-266.5 1.5,-266.5"/>
<text text-anchor="middle" x="64" y="-273.5" font-family="Helvetica,sans-Serif" font-size="10.00">xtb_solv_input::tsolvinput</text>
</a>
</g>
</g>
<!-- Node4&#45;&gt;Node3 -->
<g id="edge3" class="edge">
<title>Node4&#45;&gt;Node3</title>
<path fill="none" stroke="midnightblue" d="M136.53,-276C156.6,-276 178.35,-276 198.16,-276"/>
<polygon fill="midnightblue" stroke="midnightblue" points="136.52,-272.5 126.52,-276 136.52,-279.5 136.52,-272.5"/>
</g>
<!-- Node5 -->
<g id="node5" class="node">
<title>Node5</title>
<g id="a_node5"><a xlink:href="structxtb__xtb__data_1_1txtbdata.html" target="_top" xlink:title="Parametrisation data for the xTB method.">
<polygon fill="white" stroke="black" points="435,-132.5 435,-151.5 545,-151.5 545,-132.5 435,-132.5"/>
<text text-anchor="middle" x="490" y="-139.5" font-family="Helvetica,sans-Serif" font-size="10.00">xtb_xtb_data::txtbdata</text>
</a>
</g>
</g>
<!-- Node5&#45;&gt;Node1 -->
<g id="edge4" class="edge">
<title>Node5&#45;&gt;Node1</title>
<path fill="none" stroke="#9a32cd" stroke-dasharray="5,2" d="M555.17,-132.24C577.2,-128.89 601.43,-125.2 621.81,-122.1"/>
<polygon fill="#9a32cd" stroke="#9a32cd" points="554.58,-128.79 545.22,-133.75 555.63,-135.71 554.58,-128.79"/>
<text text-anchor="middle" x="587" y="-132" font-family="Helvetica,sans-Serif" font-size="10.00"> xtbdata</text>
</g>
<!-- Node6 -->
<g id="node6" class="node">
<title>Node6</title>
<g id="a_node6"><a xlink:href="structxtb__xtb__data_1_1tcoulombdata.html" target="_top" xlink:title="Data for the evalutation of the Coulomb interactions.">
<polygon fill="white" stroke="black" points="199.5,-228.5 199.5,-247.5 333.5,-247.5 333.5,-228.5 199.5,-228.5"/>
<text text-anchor="middle" x="266.5" y="-235.5" font-family="Helvetica,sans-Serif" font-size="10.00">xtb_xtb_data::tcoulombdata</text>
</a>
</g>
</g>
<!-- Node6&#45;&gt;Node5 -->
<g id="edge5" class="edge">
<title>Node6&#45;&gt;Node5</title>
<path fill="none" stroke="#9a32cd" stroke-dasharray="5,2" d="M315.78,-225.88C323.89,-223.69 332.21,-221.35 340,-219 371.48,-209.49 380.54,-209.62 410,-195 435.15,-182.52 461.74,-163.24 476.76,-151.7"/>
<polygon fill="#9a32cd" stroke="#9a32cd" points="314.79,-222.52 306.03,-228.47 316.59,-229.29 314.79,-222.52"/>
<text text-anchor="middle" x="384" y="-216" font-family="Helvetica,sans-Serif" font-size="10.00"> coulomb</text>
</g>
<!-- Node7 -->
<g id="node7" class="node">
<title>Node7</title>
<g id="a_node7"><a xlink:href="structxtb__xtb__data_1_1thalogendata.html" target="_top" xlink:title="Data for halogen bond correction.">
<polygon fill="white" stroke="black" points="201,-190.5 201,-209.5 332,-209.5 332,-190.5 201,-190.5"/>
<text text-anchor="middle" x="266.5" y="-197.5" font-family="Helvetica,sans-Serif" font-size="10.00">xtb_xtb_data::thalogendata</text>
</a>
</g>
</g>
<!-- Node7&#45;&gt;Node5 -->
<g id="edge6" class="edge">
<title>Node7&#45;&gt;Node5</title>
<path fill="none" stroke="#9a32cd" stroke-dasharray="5,2" d="M325.36,-188.34C351.38,-182.76 382.38,-175.63 410,-168 427.54,-163.16 446.95,-156.78 462.14,-151.56"/>
<polygon fill="#9a32cd" stroke="#9a32cd" points="324.34,-184.98 315.29,-190.48 325.8,-191.83 324.34,-184.98"/>
<text text-anchor="middle" x="384" y="-183" font-family="Helvetica,sans-Serif" font-size="10.00"> halogen</text>
</g>
<!-- Node8 -->
<g id="node8" class="node">
<title>Node8</title>
<g id="a_node8"><a xlink:href="structxtb__xtb__data_1_1tdispersiondata.html" target="_top" xlink:title="Data for the dispersion contribution.">
<polygon fill="white" stroke="black" points="195.5,-152.5 195.5,-171.5 337.5,-171.5 337.5,-152.5 195.5,-152.5"/>
<text text-anchor="middle" x="266.5" y="-159.5" font-family="Helvetica,sans-Serif" font-size="10.00">xtb_xtb_data::tdispersiondata</text>
</a>
</g>
</g>
<!-- Node8&#45;&gt;Node5 -->
<g id="edge7" class="edge">
<title>Node8&#45;&gt;Node5</title>
<path fill="none" stroke="#9a32cd" stroke-dasharray="5,2" d="M347.68,-154.76C376.64,-152.15 408.61,-149.26 434.82,-146.89"/>
<polygon fill="#9a32cd" stroke="#9a32cd" points="347.23,-151.29 337.58,-155.67 347.86,-158.26 347.23,-151.29"/>
<text text-anchor="middle" x="384" y="-156" font-family="Helvetica,sans-Serif" font-size="10.00"> dispersion</text>
</g>
<!-- Node9 -->
<g id="node9" class="node">
<title>Node9</title>
<g id="a_node9"><a xlink:href="structxtb__type__param_1_1dftd__parameter.html" target="_top" xlink:title=" ">
<polygon fill="white" stroke="black" points="11,-171 11,-201 117,-201 117,-171 11,-171"/>
<text text-anchor="start" x="19" y="-189" font-family="Helvetica,sans-Serif" font-size="10.00">xtb_type_param::dftd</text>
<text text-anchor="middle" x="64" y="-178" font-family="Helvetica,sans-Serif" font-size="10.00">_parameter</text>
</a>
</g>
</g>
<!-- Node9&#45;&gt;Node8 -->
<g id="edge8" class="edge">
<title>Node9&#45;&gt;Node8</title>
<path fill="none" stroke="#9a32cd" stroke-dasharray="5,2" d="M127.21,-178.55C148.85,-175.96 173.26,-173.04 195.49,-170.38"/>
<polygon fill="#9a32cd" stroke="#9a32cd" points="126.67,-175.09 117.16,-179.76 127.5,-182.04 126.67,-175.09"/>
<text text-anchor="middle" x="160.5" y="-179" font-family="Helvetica,sans-Serif" font-size="10.00"> dpar</text>
</g>
<!-- Node10 -->
<g id="node10" class="node">
<title>Node10</title>
<g id="a_node10"><a xlink:href="structxtb__type__dispersionmodel_1_1tdispersionmodel.html" target="_top" xlink:title=" ">
<polygon fill="white" stroke="black" points="0,-122 0,-152 128,-152 128,-122 0,-122"/>
<text text-anchor="start" x="8" y="-140" font-family="Helvetica,sans-Serif" font-size="10.00">xtb_type_dispersionmodel</text>
<text text-anchor="middle" x="64" y="-129" font-family="Helvetica,sans-Serif" font-size="10.00">::tdispersionmodel</text>
</a>
</g>
</g>
<!-- Node10&#45;&gt;Node8 -->
<g id="edge9" class="edge">
<title>Node10&#45;&gt;Node8</title>
<path fill="none" stroke="#9a32cd" stroke-dasharray="5,2" d="M138.35,-146.15C156.95,-148.47 176.89,-150.95 195.34,-153.25"/>
<polygon fill="#9a32cd" stroke="#9a32cd" points="138.52,-142.64 128.16,-144.88 137.65,-149.59 138.52,-142.64"/>
<text text-anchor="middle" x="160.5" y="-153" font-family="Helvetica,sans-Serif" font-size="10.00"> dispm</text>
</g>
<!-- Node11 -->
<g id="node11" class="node">
<title>Node11</title>
<g id="a_node11"><a xlink:href="structxtb__xtb__data_1_1tmultipoledata.html" target="_top" xlink:title="Data for the evaluation of the multipole electrostatics.">
<polygon fill="white" stroke="black" points="198,-114.5 198,-133.5 335,-133.5 335,-114.5 198,-114.5"/>
<text text-anchor="middle" x="266.5" y="-121.5" font-family="Helvetica,sans-Serif" font-size="10.00">xtb_xtb_data::tmultipoledata</text>
</a>
</g>
</g>
<!-- Node11&#45;&gt;Node5 -->
<g id="edge10" class="edge">
<title>Node11&#45;&gt;Node5</title>
<path fill="none" stroke="#9a32cd" stroke-dasharray="5,2" d="M345.24,-123.29C366.3,-123.74 389.06,-124.81 410,-127 421.66,-128.22 434.18,-130.26 445.73,-132.44"/>
<polygon fill="#9a32cd" stroke="#9a32cd" points="345.12,-119.79 335.06,-123.12 345,-126.79 345.12,-119.79"/>
<text text-anchor="middle" x="384" y="-130" font-family="Helvetica,sans-Serif" font-size="10.00"> multipole</text>
</g>
<!-- Node12 -->
<g id="node12" class="node">
<title>Node12</title>
<g id="a_node12"><a xlink:href="structxtb__xtb__data_1_1thamiltoniandata.html" target="_top" xlink:title="Data for the evaluation of the xTB core Hamiltonian.">
<polygon fill="white" stroke="black" points="193,-76.5 193,-95.5 340,-95.5 340,-76.5 193,-76.5"/>
<text text-anchor="middle" x="266.5" y="-83.5" font-family="Helvetica,sans-Serif" font-size="10.00">xtb_xtb_data::thamiltoniandata</text>
</a>
</g>
</g>
<!-- Node12&#45;&gt;Node5 -->
<g id="edge11" class="edge">
<title>Node12&#45;&gt;Node5</title>
<path fill="none" stroke="#9a32cd" stroke-dasharray="5,2" d="M350.44,-91.11C370.55,-94.41 391.55,-99.68 410,-108 419.49,-112.28 418.85,-118.02 428,-123 434.92,-126.76 442.69,-129.9 450.31,-132.47"/>
<polygon fill="#9a32cd" stroke="#9a32cd" points="350.75,-87.62 340.34,-89.6 349.71,-94.54 350.75,-87.62"/>
<text text-anchor="middle" x="384" y="-111" font-family="Helvetica,sans-Serif" font-size="10.00"> hamiltonian</text>
</g>
<!-- Node13 -->
<g id="node13" class="node">
<title>Node13</title>
<g id="a_node13"><a xlink:href="structxtb__xtb__data_1_1tshortrangedata.html" target="_top" xlink:title="Short range basis correction.">
<polygon fill="white" stroke="black" points="195,-38.5 195,-57.5 338,-57.5 338,-38.5 195,-38.5"/>
<text text-anchor="middle" x="266.5" y="-45.5" font-family="Helvetica,sans-Serif" font-size="10.00">xtb_xtb_data::tshortrangedata</text>
</a>
</g>
</g>
<!-- Node13&#45;&gt;Node5 -->
<g id="edge12" class="edge">
<title>Node13&#45;&gt;Node5</title>
<path fill="none" stroke="#9a32cd" stroke-dasharray="5,2" d="M348.4,-51.18C370.36,-55.51 392.8,-63.54 410,-78 426.49,-91.86 412.18,-108.38 428,-123 432.24,-126.92 437.27,-130.02 442.6,-132.49"/>
<polygon fill="#9a32cd" stroke="#9a32cd" points="348.81,-47.7 338.36,-49.44 347.62,-54.6 348.81,-47.7"/>
<text text-anchor="middle" x="384" y="-81" font-family="Helvetica,sans-Serif" font-size="10.00"> srb</text>
</g>
<!-- Node14 -->
<g id="node14" class="node">
<title>Node14</title>
<g id="a_node14"><a xlink:href="structxtb__xtb__data_1_1trepulsiondata.html" target="_top" xlink:title="Data for the repulsion contribution.">
<polygon fill="white" stroke="black" points="198,-0.5 198,-19.5 335,-19.5 335,-0.5 198,-0.5"/>
<text text-anchor="middle" x="266.5" y="-7.5" font-family="Helvetica,sans-Serif" font-size="10.00">xtb_xtb_data::trepulsiondata</text>
</a>
</g>
</g>
<!-- Node14&#45;&gt;Node5 -->
<g id="edge13" class="edge">
<title>Node14&#45;&gt;Node5</title>
<path fill="none" stroke="#9a32cd" stroke-dasharray="5,2" d="M345.2,-10.53C368.76,-14.5 392.9,-23 410,-40 436.77,-66.61 402.51,-95.16 428,-123 431.52,-126.85 435.8,-129.92 440.45,-132.38"/>
<polygon fill="#9a32cd" stroke="#9a32cd" points="345.56,-7.05 335.16,-9.1 344.57,-13.98 345.56,-7.05"/>
<text text-anchor="middle" x="384" y="-43" font-family="Helvetica,sans-Serif" font-size="10.00"> repulsion</text>
</g>
<!-- Node15 -->
<g id="node15" class="node">
<title>Node15</title>
<g id="a_node15"><a xlink:href="structxtb__type__basisset_1_1tbasisset.html" target="_top" xlink:title=" ">
<polygon fill="white" stroke="black" points="440.5,-83 440.5,-113 539.5,-113 539.5,-83 440.5,-83"/>
<text text-anchor="start" x="448.5" y="-101" font-family="Helvetica,sans-Serif" font-size="10.00">xtb_type_basisset::</text>
<text text-anchor="middle" x="490" y="-90" font-family="Helvetica,sans-Serif" font-size="10.00">tbasisset</text>
</a>
</g>
</g>
<!-- Node15&#45;&gt;Node1 -->
<g id="edge14" class="edge">
<title>Node15&#45;&gt;Node1</title>
<path fill="none" stroke="#9a32cd" stroke-dasharray="5,2" d="M549.83,-99.83C567.3,-100.72 586.45,-102.04 604,-104 609.76,-104.64 615.78,-105.46 621.74,-106.37"/>
<polygon fill="#9a32cd" stroke="#9a32cd" points="549.92,-96.33 539.77,-99.35 549.59,-103.32 549.92,-96.33"/>
<text text-anchor="middle" x="587" y="-107" font-family="Helvetica,sans-Serif" font-size="10.00"> basis</text>
</g>
<!-- Node16 -->
<g id="node16" class="node">
<title>Node16</title>
<g id="a_node16"><a xlink:href="structxtb__type__pcem_1_1tb__pcem.html" target="_top" xlink:title=" ">
<polygon fill="white" stroke="black" points="428,-44.5 428,-63.5 552,-63.5 552,-44.5 428,-44.5"/>
<text text-anchor="middle" x="490" y="-51.5" font-family="Helvetica,sans-Serif" font-size="10.00">xtb_type_pcem::tb_pcem</text>
</a>
</g>
</g>
<!-- Node16&#45;&gt;Node1 -->
<g id="edge15" class="edge">
<title>Node16&#45;&gt;Node1</title>
<path fill="none" stroke="#9a32cd" stroke-dasharray="5,2" d="M539.77,-66.13C559.87,-71.56 583.27,-78.45 604,-86 615.08,-90.03 626.91,-95.12 637.39,-99.9"/>
<polygon fill="#9a32cd" stroke="#9a32cd" points="540.45,-62.69 529.89,-63.51 538.65,-69.46 540.45,-62.69"/>
<text text-anchor="middle" x="587" y="-89" font-family="Helvetica,sans-Serif" font-size="10.00"> pcem</text>
</g>
</g>
</svg>
        <g id="navigator" transform="translate(0 0)" fill="#404254">
                <rect fill="#f2f5e9" fill-opacity="0.5" stroke="#606060" stroke-width=".5" x="0" y="0" width="60" height="60"/>
                <use id="zoomplus" xlink:href="#zoomPlus" x="17" y="9" onmousedown="handleZoom(evt,'in')"/>
                <use id="zoomminus" xlink:href="#zoomMin" x="42" y="9" onmousedown="handleZoom(evt,'out')"/>
                <use id="reset" xlink:href="#resetDef" x="30" y="36" onmousedown="handleReset()"/>
                <g id="arrowUp" xlink:href="#dirArrow" transform="translate(30 24)" onmousedown="handlePan(0,-1)">
                  <use xlink:href="#rim" fill="#404040">
                        <set attributeName="fill" to="#808080" begin="arrowUp.mouseover" end="arrowUp.mouseout"/>
                  </use>
                  <path fill="none" stroke="white" stroke-width="1.5" d="M0,-3.0v7 M-2.5,-0.5L0,-3.0L2.5,-0.5"/>
                </g>
                <g id="arrowRight" xlink:href="#dirArrow" transform="rotate(90) translate(36 -43)" onmousedown="handlePan(1,0)">
                  <use xlink:href="#rim" fill="#404040">
                        <set attributeName="fill" to="#808080" begin="arrowRight.mouseover" end="arrowRight.mouseout"/>
                  </use>
                  <path fill="none" stroke="white" stroke-width="1.5" d="M0,-3.0v7 M-2.5,-0.5L0,-3.0L2.5,-0.5"/>
                </g>
                <g id="arrowDown" xlink:href="#dirArrow" transform="rotate(180) translate(-30 -48)" onmousedown="handlePan(0,1)">
                  <use xlink:href="#rim" fill="#404040">
                        <set attributeName="fill" to="#808080" begin="arrowDown.mouseover" end="arrowDown.mouseout"/>
                  </use>
                  <path fill="none" stroke="white" stroke-width="1.5" d="M0,-3.0v7 M-2.5,-0.5L0,-3.0L2.5,-0.5"/>
                </g>
                <g id="arrowLeft" xlink:href="#dirArrow" transform="rotate(270) translate(-36 17)" onmousedown="handlePan(-1,0)">
                  <use xlink:href="#rim" fill="#404040">
                        <set attributeName="fill" to="#808080" begin="arrowLeft.mouseover" end="arrowLeft.mouseout"/>
                  </use>
                  <path fill="none" stroke="white" stroke-width="1.5" d="M0,-3.0v7 M-2.5,-0.5L0,-3.0L2.5,-0.5"/>
                </g>
        </g>
        <svg viewBox="0 0 15 15" width="100%" height="30px" preserveAspectRatio="xMaxYMin meet">
         <g id="arrow_out" transform="scale(0.3 0.3)">
          <a xlink:href="structxtb__xtb__calculator_1_1txtbcalculator__coll__graph_org.svg" target="_base">
           <rect id="button" ry="5" rx="5" y="6" x="6" height="38" width="38"
                fill="#f2f5e9" fill-opacity="0.5" stroke="#606060" stroke-width="1.0"/>
           <path id="arrow"
             d="M 11.500037,31.436501 C 11.940474,20.09759 22.043105,11.32322 32.158766,21.979434 L 37.068811,17.246167 C 37.068811,17.246167 37.088388,32 37.088388,32 L 22.160133,31.978069 C 22.160133,31.978069 26.997745,27.140456 26.997745,27.140456 C 18.528582,18.264221 13.291696,25.230495 11.500037,31.436501 z"
             style="fill:#404040;"/>
          </a>
         </g>
        </svg>
</svg>
