<?xml version="1.0" encoding="UTF-8" standalone="no"?>
<!DOCTYPE svg PUBLIC "-//W3C//DTD SVG 1.1//EN"
 "http://www.w3.org/Graphics/SVG/1.1/DTD/svg11.dtd">
<!-- Generated by graphviz version 2.43.0 (0)
 -->
<!-- Title: xtb_xtb_calculator::txtbcalculator Pages: 1 -->
<!--zoomable 294 -->
<svg id="main" version="1.1" xmlns="http://www.w3.org/2000/svg" xmlns:xlink="http://www.w3.org/1999/xlink" xml:space="preserve" onload="init(evt)">
<style type="text/css"><![CDATA[
.edge:hover path { stroke: red; }
.edge:hover polygon { stroke: red; fill: red; }
]]></style>
<script type="text/javascript"><![CDATA[
var edges = document.getElementsByTagName('g');
if (edges && edges.length) {
  for (var i=0;i<edges.length;i++) {
    if (edges[i].id.substr(0,4)=='edge') {
      edges[i].setAttribute('class','edge');
    }
  }
}
]]></script>
        <defs>
                <circle id="rim" cx="0" cy="0" r="7"/>
                <circle id="rim2" cx="0" cy="0" r="3.5"/>
                <g id="zoomPlus">
                        <use xlink:href="#rim" fill="#404040">
                                <set attributeName="fill" to="#808080" begin="zoomplus.mouseover" end="zoomplus.mouseout"/>
                        </use>
                        <path d="M-4,0h8M0,-4v8" fill="none" stroke="white" stroke-width="1.5" pointer-events="none"/>
                </g>
                <g id="zoomMin">
                        <use xlink:href="#rim" fill="#404040">
                                <set attributeName="fill" to="#808080" begin="zoomminus.mouseover" end="zoomminus.mouseout"/>
                        </use>
                        <path d="M-4,0h8" fill="none" stroke="white" stroke-width="1.5" pointer-events="none"/>
                </g>
                <g id="dirArrow">
                        <path fill="none" stroke="white" stroke-width="1.5" d="M0,-3.0v7 M-2.5,-0.5L0,-3.0L2.5,-0.5"/>
                </g>
               <g id="resetDef">
                       <use xlink:href="#rim2" fill="#404040">
                               <set attributeName="fill" to="#808080" begin="reset.mouseover" end="reset.mouseout"/>
                       </use>
               </g>
        </defs>

<script type="text/javascript">
var viewWidth = 816;
var viewHeight = 294;
var sectionId = 'dynsection-1';
</script>
<script xlink:href="svgpan.js"/>
<svg id="graph" class="graph">
<g id="viewport">
<title>xtb_xtb_calculator::txtbcalculator</title>
<polygon fill="white" stroke="transparent" points="-4,4 -4,-290 812,-290 812,4 -4,4"/>
<!-- Node1 -->
<g id="node1" class="node">
<title>Node1</title>
<g id="a_node1"><a xlink:title="Calculator interface for xTB based methods.">
<polygon fill="#bfbfbf" stroke="black" points="701,-100 701,-130 808,-130 808,-100 701,-100"/>
<text text-anchor="start" x="709" y="-118" font-family="Helvetica,sans-Serif" font-size="10.00">xtb_xtb_calculator</text>
<text text-anchor="middle" x="754.5" y="-107" font-family="Helvetica,sans-Serif" font-size="10.00">::txtbcalculator</text>
</a>
</g>
</g>
<!-- Node2 -->
<g id="node2" class="node">
<title>Node2</title>
<g id="a_node2"><a xlink:href="structxtb__type__calculator_1_1tcalculator.html" target="_top" xlink:title="Base calculator.">
<polygon fill="white" stroke="black" points="497.5,-223 497.5,-253 610.5,-253 610.5,-223 497.5,-223"/>
<text text-anchor="start" x="505.5" y="-241" font-family="Helvetica,sans-Serif" font-size="10.00">xtb_type_calculator</text>
<text text-anchor="middle" x="554" y="-230" font-family="Helvetica,sans-Serif" font-size="10.00">::tcalculator</text>
</a>
</g>
</g>
<!-- Node2&#45;&gt;Node1 -->
<g id="edge1" class="edge">
<title>Node2&#45;&gt;Node1</title>
<path fill="none" stroke="midnightblue" d="M587.9,-217.61C627.72,-192.94 693.82,-151.98 729.27,-130.01"/>
<polygon fill="midnightblue" stroke="midnightblue" points="586,-214.68 579.34,-222.92 589.68,-220.63 586,-214.68"/>
</g>
<!-- Node3 -->
<g id="node3" class="node">
<title>Node3</title>
<g id="a_node3"><a xlink:href="structxtb__solv__model_1_1tsolvmodel.html" target="_top" xlink:title="Payload to create actual solvation models.">
<polygon fill="white" stroke="black" points="223.5,-266.5 223.5,-285.5 378.5,-285.5 378.5,-266.5 223.5,-266.5"/>
<text text-anchor="middle" x="301" y="-273.5" font-family="Helvetica,sans-Serif" font-size="10.00">xtb_solv_model::tsolvmodel</text>
</a>
</g>
</g>
<!-- Node3&#45;&gt;Node2 -->
<g id="edge2" class="edge">
<title>Node3&#45;&gt;Node2</title>
<path fill="none" stroke="#9a32cd" stroke-dasharray="5,2" d="M378.63,-265.02C406.19,-261.01 437.5,-256.38 466,-252 476.13,-250.44 486.92,-248.74 497.32,-247.08"/>
<polygon fill="#9a32cd" stroke="#9a32cd" points="378.05,-261.56 368.66,-266.46 379.06,-268.49 378.05,-261.56"/>
<text text-anchor="middle" x="435" y="-263" font-family="Helvetica,sans-Serif" font-size="10.00"> solvation</text>
</g>
<!-- Node4 -->
<g id="node4" class="node">
<title>Node4</title>
<g id="a_node4"><a xlink:title=" ">
<polygon fill="white" stroke="#bfbfbf" points="40.5,-266.5 40.5,-285.5 105.5,-285.5 105.5,-266.5 40.5,-266.5"/>
<text text-anchor="middle" x="73" y="-273.5" font-family="Helvetica,sans-Serif" font-size="10.00">tsolvinput</text>
</a>
</g>
</g>
<!-- Node4&#45;&gt;Node3 -->
<g id="edge3" class="edge">
<title>Node4&#45;&gt;Node3</title>
<path fill="none" stroke="midnightblue" d="M116.05,-276C146.15,-276 187.54,-276 223.43,-276"/>
<polygon fill="midnightblue" stroke="midnightblue" points="115.9,-272.5 105.9,-276 115.9,-279.5 115.9,-272.5"/>
</g>
<!-- Node5 -->
<g id="node5" class="node">
<title>Node5</title>
<g id="a_node5"><a xlink:href="structxtb__xtb__data_1_1txtbdata.html" target="_top" xlink:title="Parametrisation data for the xTB method.">
<polygon fill="white" stroke="black" points="490,-132.5 490,-151.5 618,-151.5 618,-132.5 490,-132.5"/>
<text text-anchor="middle" x="554" y="-139.5" font-family="Helvetica,sans-Serif" font-size="10.00">xtb_xtb_data::txtbdata</text>
</a>
</g>
</g>
<!-- Node5&#45;&gt;Node1 -->
<g id="edge4" class="edge">
<title>Node5&#45;&gt;Node1</title>
<path fill="none" stroke="#9a32cd" stroke-dasharray="5,2" d="M628.25,-132.04C652.35,-128.76 678.65,-125.18 700.9,-122.15"/>
<polygon fill="#9a32cd" stroke="#9a32cd" points="627.52,-128.6 618.08,-133.42 628.46,-135.54 627.52,-128.6"/>
<text text-anchor="middle" x="662.5" y="-133" font-family="Helvetica,sans-Serif" font-size="10.00"> xtbdata</text>
</g>
<!-- Node6 -->
<g id="node6" class="node">
<title>Node6</title>
<g id="a_node6"><a xlink:href="structxtb__xtb__data_1_1tcoulombdata.html" target="_top" xlink:title="Data for the evalutation of the Coulomb interactions.">
<polygon fill="white" stroke="black" points="224,-228.5 224,-247.5 378,-247.5 378,-228.5 224,-228.5"/>
<text text-anchor="middle" x="301" y="-235.5" font-family="Helvetica,sans-Serif" font-size="10.00">xtb_xtb_data::tcoulombdata</text>
</a>
</g>
</g>
<!-- Node6&#45;&gt;Node5 -->
<g id="edge5" class="edge">
<title>Node6&#45;&gt;Node5</title>
<path fill="none" stroke="#9a32cd" stroke-dasharray="5,2" d="M357,-226.13C366.69,-223.88 376.66,-221.45 386,-219 421.9,-209.57 432.09,-210.11 466,-195 493.62,-182.69 523.16,-163.18 539.73,-151.58"/>
<polygon fill="#9a32cd" stroke="#9a32cd" points="356.01,-222.77 347.04,-228.41 357.57,-229.59 356.01,-222.77"/>
<text text-anchor="middle" x="435" y="-217" font-family="Helvetica,sans-Serif" font-size="10.00"> coulomb</text>
</g>
<!-- Node7 -->
<g id="node7" class="node">
<title>Node7</title>
<g id="a_node7"><a xlink:href="structxtb__xtb__data_1_1thalogendata.html" target="_top" xlink:title="Data for halogen bond correction.">
<polygon fill="white" stroke="black" points="225.5,-190.5 225.5,-209.5 376.5,-209.5 376.5,-190.5 225.5,-190.5"/>
<text text-anchor="middle" x="301" y="-197.5" font-family="Helvetica,sans-Serif" font-size="10.00">xtb_xtb_data::thalogendata</text>
</a>
</g>
</g>
<!-- Node7&#45;&gt;Node5 -->
<g id="edge6" class="edge">
<title>Node7&#45;&gt;Node5</title>
<path fill="none" stroke="#9a32cd" stroke-dasharray="5,2" d="M368.04,-188.64C398.08,-183.08 433.99,-175.89 466,-168 485.44,-163.21 507,-156.77 523.8,-151.5"/>
<polygon fill="#9a32cd" stroke="#9a32cd" points="367.29,-185.21 358.09,-190.46 368.55,-192.1 367.29,-185.21"/>
<text text-anchor="middle" x="435" y="-183" font-family="Helvetica,sans-Serif" font-size="10.00"> halogen</text>
</g>
<!-- Node8 -->
<g id="node8" class="node">
<title>Node8</title>
<g id="a_node8"><a xlink:href="structxtb__xtb__data_1_1tdispersiondata.html" target="_top" xlink:title="Data for the dispersion contribution.">
<polygon fill="white" stroke="black" points="220,-152.5 220,-171.5 382,-171.5 382,-152.5 220,-152.5"/>
<text text-anchor="middle" x="301" y="-159.5" font-family="Helvetica,sans-Serif" font-size="10.00">xtb_xtb_data::tdispersiondata</text>
</a>
</g>
</g>
<!-- Node8&#45;&gt;Node5 -->
<g id="edge7" class="edge">
<title>Node8&#45;&gt;Node5</title>
<path fill="none" stroke="#9a32cd" stroke-dasharray="5,2" d="M392.46,-154.79C424.76,-152.22 460.43,-149.38 489.92,-147.03"/>
<polygon fill="#9a32cd" stroke="#9a32cd" points="391.8,-151.33 382.11,-155.62 392.35,-158.31 391.8,-151.33"/>
<text text-anchor="middle" x="435" y="-156" font-family="Helvetica,sans-Serif" font-size="10.00"> dispersion</text>
</g>
<!-- Node9 -->
<g id="node9" class="node">
<title>Node9</title>
<g id="a_node9"><a xlink:href="structxtb__type__param_1_1dftd__parameter.html" target="_top" xlink:title=" ">
<polygon fill="white" stroke="black" points="12.5,-171 12.5,-201 133.5,-201 133.5,-171 12.5,-171"/>
<text text-anchor="start" x="20.5" y="-189" font-family="Helvetica,sans-Serif" font-size="10.00">xtb_type_param::dftd</text>
<text text-anchor="middle" x="73" y="-178" font-family="Helvetica,sans-Serif" font-size="10.00">_parameter</text>
</a>
</g>
</g>
<!-- Node9&#45;&gt;Node8 -->
<g id="edge8" class="edge">
<title>Node9&#45;&gt;Node8</title>
<path fill="none" stroke="#9a32cd" stroke-dasharray="5,2" d="M143.8,-178.59C167.91,-176.03 195.1,-173.14 219.97,-170.5"/>
<polygon fill="#9a32cd" stroke="#9a32cd" points="143.25,-175.13 133.67,-179.66 143.99,-182.09 143.25,-175.13"/>
<text text-anchor="middle" x="181" y="-179" font-family="Helvetica,sans-Serif" font-size="10.00"> dpar</text>
</g>
<!-- Node10 -->
<g id="node10" class="node">
<title>Node10</title>
<g id="a_node10"><a xlink:href="structxtb__type__dispersionmodel_1_1tdispersionmodel.html" target="_top" xlink:title=" ">
<polygon fill="white" stroke="black" points="0,-122 0,-152 146,-152 146,-122 0,-122"/>
<text text-anchor="start" x="8" y="-140" font-family="Helvetica,sans-Serif" font-size="10.00">xtb_type_dispersionmodel</text>
<text text-anchor="middle" x="73" y="-129" font-family="Helvetica,sans-Serif" font-size="10.00">::tdispersionmodel</text>
</a>
</g>
</g>
<!-- Node10&#45;&gt;Node8 -->
<g id="edge9" class="edge">
<title>Node10&#45;&gt;Node8</title>
<path fill="none" stroke="#9a32cd" stroke-dasharray="5,2" d="M156.2,-146.09C176.98,-148.39 199.26,-150.86 219.94,-153.14"/>
<polygon fill="#9a32cd" stroke="#9a32cd" points="156.45,-142.6 146.13,-144.98 155.68,-149.56 156.45,-142.6"/>
<text text-anchor="middle" x="181" y="-153" font-family="Helvetica,sans-Serif" font-size="10.00"> dispm</text>
</g>
<!-- Node11 -->
<g id="node11" class="node">
<title>Node11</title>
<g id="a_node11"><a xlink:href="structxtb__xtb__data_1_1tmultipoledata.html" target="_top" xlink:title="Data for the evaluation of the multipole electrostatics.">
<polygon fill="white" stroke="black" points="222,-114.5 222,-133.5 380,-133.5 380,-114.5 222,-114.5"/>
<text text-anchor="middle" x="301" y="-121.5" font-family="Helvetica,sans-Serif" font-size="10.00">xtb_xtb_data::tmultipoledata</text>
</a>
</g>
</g>
<!-- Node11&#45;&gt;Node5 -->
<g id="edge10" class="edge">
<title>Node11&#45;&gt;Node5</title>
<path fill="none" stroke="#9a32cd" stroke-dasharray="5,2" d="M390.17,-123.15C414.76,-123.58 441.46,-124.67 466,-127 478.82,-128.22 492.59,-130.25 505.31,-132.43"/>
<polygon fill="#9a32cd" stroke="#9a32cd" points="390.18,-119.65 380.14,-123 390.09,-126.64 390.18,-119.65"/>
<text text-anchor="middle" x="435" y="-130" font-family="Helvetica,sans-Serif" font-size="10.00"> multipole</text>
</g>
<!-- Node12 -->
<g id="node12" class="node">
<title>Node12</title>
<g id="a_node12"><a xlink:href="structxtb__xtb__data_1_1thamiltoniandata.html" target="_top" xlink:title="Data for the evaluation of the xTB core Hamiltonian.">
<polygon fill="white" stroke="black" points="216,-76.5 216,-95.5 386,-95.5 386,-76.5 216,-76.5"/>
<text text-anchor="middle" x="301" y="-83.5" font-family="Helvetica,sans-Serif" font-size="10.00">xtb_xtb_data::thamiltoniandata</text>
</a>
</g>
</g>
<!-- Node12&#45;&gt;Node5 -->
<g id="edge11" class="edge">
<title>Node12&#45;&gt;Node5</title>
<path fill="none" stroke="#9a32cd" stroke-dasharray="5,2" d="M396.2,-89.51C419.71,-92.83 444.37,-98.49 466,-108 475.53,-112.19 474.77,-118.18 484,-123 491.27,-126.8 499.37,-129.9 507.4,-132.42"/>
<polygon fill="#9a32cd" stroke="#9a32cd" points="396.57,-86.03 386.2,-88.23 395.68,-92.97 396.57,-86.03"/>
<text text-anchor="middle" x="435" y="-111" font-family="Helvetica,sans-Serif" font-size="10.00"> hamiltonian</text>
</g>
<!-- Node13 -->
<g id="node13" class="node">
<title>Node13</title>
<g id="a_node13"><a xlink:href="structxtb__xtb__data_1_1tshortrangedata.html" target="_top" xlink:title="Short range basis correction.">
<polygon fill="white" stroke="black" points="219,-38.5 219,-57.5 383,-57.5 383,-38.5 219,-38.5"/>
<text text-anchor="middle" x="301" y="-45.5" font-family="Helvetica,sans-Serif" font-size="10.00">xtb_xtb_data::tshortrangedata</text>
</a>
</g>
</g>
<!-- Node13&#45;&gt;Node5 -->
<g id="edge12" class="edge">
<title>Node13&#45;&gt;Node5</title>
<path fill="none" stroke="#9a32cd" stroke-dasharray="5,2" d="M393.34,-46.43C419.16,-50.12 445.72,-58.35 466,-75 483.61,-89.46 467.18,-107.63 484,-123 488.22,-126.86 493.15,-129.94 498.4,-132.4"/>
<polygon fill="#9a32cd" stroke="#9a32cd" points="393.45,-42.92 383.11,-45.19 392.61,-49.87 393.45,-42.92"/>
<text text-anchor="middle" x="435" y="-78" font-family="Helvetica,sans-Serif" font-size="10.00"> srb</text>
</g>
<!-- Node14 -->
<g id="node14" class="node">
<title>Node14</title>
<g id="a_node14"><a xlink:href="structxtb__xtb__data_1_1trepulsiondata.html" target="_top" xlink:title="Data for the repulsion contribution.">
<polygon fill="white" stroke="black" points="222.5,-0.5 222.5,-19.5 379.5,-19.5 379.5,-0.5 222.5,-0.5"/>
<text text-anchor="middle" x="301" y="-7.5" font-family="Helvetica,sans-Serif" font-size="10.00">xtb_xtb_data::trepulsiondata</text>
</a>
</g>
</g>
<!-- Node14&#45;&gt;Node5 -->
<g id="edge13" class="edge">
<title>Node14&#45;&gt;Node5</title>
<path fill="none" stroke="#9a32cd" stroke-dasharray="5,2" d="M389.69,-4.05C417.24,-6.7 445.72,-14.79 466,-34 495.3,-61.75 456.47,-93.49 484,-123 487.56,-126.82 491.81,-129.89 496.43,-132.36"/>
<polygon fill="#9a32cd" stroke="#9a32cd" points="389.83,-0.56 379.6,-3.32 389.32,-7.54 389.83,-0.56"/>
<text text-anchor="middle" x="435" y="-37" font-family="Helvetica,sans-Serif" font-size="10.00"> repulsion</text>
</g>
<!-- Node15 -->
<g id="node15" class="node">
<title>Node15</title>
<g id="a_node15"><a xlink:href="structxtb__type__basisset_1_1tbasisset.html" target="_top" xlink:title=" ">
<polygon fill="white" stroke="black" points="498.5,-83 498.5,-113 609.5,-113 609.5,-83 498.5,-83"/>
<text text-anchor="start" x="506.5" y="-101" font-family="Helvetica,sans-Serif" font-size="10.00">xtb_type_basisset::</text>
<text text-anchor="middle" x="554" y="-90" font-family="Helvetica,sans-Serif" font-size="10.00">tbasisset</text>
</a>
</g>
</g>
<!-- Node15&#45;&gt;Node1 -->
<g id="edge14" class="edge">
<title>Node15&#45;&gt;Node1</title>
<path fill="none" stroke="#9a32cd" stroke-dasharray="5,2" d="M619.68,-99.67C639.98,-100.56 662.46,-101.92 683,-104 688.79,-104.59 694.83,-105.33 700.84,-106.15"/>
<polygon fill="#9a32cd" stroke="#9a32cd" points="619.73,-96.17 609.59,-99.26 619.44,-103.17 619.73,-96.17"/>
<text text-anchor="middle" x="662.5" y="-107" font-family="Helvetica,sans-Serif" font-size="10.00"> basis</text>
</g>
<!-- Node16 -->
<g id="node16" class="node">
<title>Node16</title>
<g id="a_node16"><a xlink:href="structxtb__type__pcem_1_1tb__pcem.html" target="_top" xlink:title=" ">
<polygon fill="white" stroke="black" points="484,-44.5 484,-63.5 624,-63.5 624,-44.5 484,-44.5"/>
<text text-anchor="middle" x="554" y="-51.5" font-family="Helvetica,sans-Serif" font-size="10.00">xtb_type_pcem::tb_pcem</text>
</a>
</g>
</g>
<!-- Node16&#45;&gt;Node1 -->
<g id="edge15" class="edge">
<title>Node16&#45;&gt;Node1</title>
<path fill="none" stroke="#9a32cd" stroke-dasharray="5,2" d="M612.32,-65.76C634.62,-70.89 660.23,-77.45 683,-85 695.75,-89.23 709.42,-94.79 721.29,-99.97"/>
<polygon fill="#9a32cd" stroke="#9a32cd" points="612.86,-62.29 602.34,-63.51 611.32,-69.12 612.86,-62.29"/>
<text text-anchor="middle" x="662.5" y="-88" font-family="Helvetica,sans-Serif" font-size="10.00"> pcem</text>
</g>
</g>
</svg>
        <g id="navigator" transform="translate(0 0)" fill="#404254">
                <rect fill="#f2f5e9" fill-opacity="0.5" stroke="#606060" stroke-width=".5" x="0" y="0" width="60" height="60"/>
                <use id="zoomplus" xlink:href="#zoomPlus" x="17" y="9" onmousedown="handleZoom(evt,'in')"/>
                <use id="zoomminus" xlink:href="#zoomMin" x="42" y="9" onmousedown="handleZoom(evt,'out')"/>
                <use id="reset" xlink:href="#resetDef" x="30" y="36" onmousedown="handleReset()"/>
                <g id="arrowUp" xlink:href="#dirArrow" transform="translate(30 24)" onmousedown="handlePan(0,-1)">
                  <use xlink:href="#rim" fill="#404040">
                        <set attributeName="fill" to="#808080" begin="arrowUp.mouseover" end="arrowUp.mouseout"/>
                  </use>
                  <path fill="none" stroke="white" stroke-width="1.5" d="M0,-3.0v7 M-2.5,-0.5L0,-3.0L2.5,-0.5"/>
                </g>
                <g id="arrowRight" xlink:href="#dirArrow" transform="rotate(90) translate(36 -43)" onmousedown="handlePan(1,0)">
                  <use xlink:href="#rim" fill="#404040">
                        <set attributeName="fill" to="#808080" begin="arrowRight.mouseover" end="arrowRight.mouseout"/>
                  </use>
                  <path fill="none" stroke="white" stroke-width="1.5" d="M0,-3.0v7 M-2.5,-0.5L0,-3.0L2.5,-0.5"/>
                </g>
                <g id="arrowDown" xlink:href="#dirArrow" transform="rotate(180) translate(-30 -48)" onmousedown="handlePan(0,1)">
                  <use xlink:href="#rim" fill="#404040">
                        <set attributeName="fill" to="#808080" begin="arrowDown.mouseover" end="arrowDown.mouseout"/>
                  </use>
                  <path fill="none" stroke="white" stroke-width="1.5" d="M0,-3.0v7 M-2.5,-0.5L0,-3.0L2.5,-0.5"/>
                </g>
                <g id="arrowLeft" xlink:href="#dirArrow" transform="rotate(270) translate(-36 17)" onmousedown="handlePan(-1,0)">
                  <use xlink:href="#rim" fill="#404040">
                        <set attributeName="fill" to="#808080" begin="arrowLeft.mouseover" end="arrowLeft.mouseout"/>
                  </use>
                  <path fill="none" stroke="white" stroke-width="1.5" d="M0,-3.0v7 M-2.5,-0.5L0,-3.0L2.5,-0.5"/>
                </g>
        </g>
        <svg viewBox="0 0 15 15" width="100%" height="30px" preserveAspectRatio="xMaxYMin meet">
         <g id="arrow_out" transform="scale(0.3 0.3)">
          <a xlink:href="structxtb__xtb__calculator_1_1txtbcalculator__coll__graph_org.svg" target="_base">
           <rect id="button" ry="5" rx="5" y="6" x="6" height="38" width="38"
                fill="#f2f5e9" fill-opacity="0.5" stroke="#606060" stroke-width="1.0"/>
           <path id="arrow"
             d="M 11.500037,31.436501 C 11.940474,20.09759 22.043105,11.32322 32.158766,21.979434 L 37.068811,17.246167 C 37.068811,17.246167 37.088388,32 37.088388,32 L 22.160133,31.978069 C 22.160133,31.978069 26.997745,27.140456 26.997745,27.140456 C 18.528582,18.264221 13.291696,25.230495 11.500037,31.436501 z"
             style="fill:#404040;"/>
          </a>
         </g>
        </svg>
</svg>
