<?xml version="1.0" encoding="UTF-8" standalone="no"?>
<!DOCTYPE svg PUBLIC "-//W3C//DTD SVG 1.1//EN"
 "http://www.w3.org/Graphics/SVG/1.1/DTD/svg11.dtd">
<!-- Generated by graphviz version 2.46.1 (20210215.1649)
 -->
<!-- Title: xtb_type_atomlist::tatomlist::atomlist_finalizer Pages: 1 -->
<svg width="257pt" height="186pt"
 viewBox="0.00 0.00 257.00 186.00" xmlns="http://www.w3.org/2000/svg" xmlns:xlink="http://www.w3.org/1999/xlink">
<g id="graph0" class="graph" transform="scale(1 1) rotate(0) translate(4 182)">
<title>xtb_type_atomlist::tatomlist::atomlist_finalizer</title>
<polygon fill="white" stroke="transparent" points="-4,4 -4,-182 253,-182 253,4 -4,4"/>
<!-- Node1 -->
<g id="node1" class="node">
<title>Node1</title>
<g id="a_node1"><a xlink:title=" ">
<polygon fill="#bfbfbf" stroke="black" points="0,-68 0,-109 97,-109 97,-68 0,-68"/>
<text text-anchor="start" x="8" y="-97" font-family="Helvetica,sans-Serif" font-size="10.00">xtb_type_atomlist::</text>
<text text-anchor="start" x="8" y="-86" font-family="Helvetica,sans-Serif" font-size="10.00">tatomlist::atomlist</text>
<text text-anchor="middle" x="48.5" y="-75" font-family="Helvetica,sans-Serif" font-size="10.00">_finalizer</text>
</a>
</g>
</g>
<!-- Node2 -->
<g id="node2" class="node">
<title>Node2</title>
<g id="a_node2"><a xlink:href="namespacextb__type__atomlist.html#a1d92de38ea3dcc8322bcbdf46736c63a" target="_top" xlink:title=" ">
<polygon fill="white" stroke="black" points="142.5,-147.5 142.5,-177.5 239.5,-177.5 239.5,-147.5 142.5,-147.5"/>
<text text-anchor="start" x="150.5" y="-165.5" font-family="Helvetica,sans-Serif" font-size="10.00">xtb_type_atomlist::</text>
<text text-anchor="middle" x="191" y="-154.5" font-family="Helvetica,sans-Serif" font-size="10.00">atomlist_finalizer</text>
</a>
</g>
</g>
<!-- Node1&#45;&gt;Node2 -->
<g id="edge1" class="edge">
<title>Node1&#45;&gt;Node2</title>
<path fill="none" stroke="midnightblue" d="M81.42,-109.06C96.73,-118.54 115.52,-129.64 133,-138.5 136.26,-140.15 139.65,-141.79 143.1,-143.38"/>
<polygon fill="midnightblue" stroke="midnightblue" points="141.69,-146.59 152.25,-147.49 144.56,-140.2 141.69,-146.59"/>
</g>
<!-- Node3 -->
<g id="node3" class="node">
<title>Node3</title>
<g id="a_node3"><a xlink:href="namespacextb__type__atomlist.html#a57d60b95d6ab0a7e2b3245ff7c67d5d0" target="_top" xlink:title=" ">
<polygon fill="white" stroke="black" points="133,-98.5 133,-128.5 249,-128.5 249,-98.5 133,-98.5"/>
<text text-anchor="start" x="141" y="-116.5" font-family="Helvetica,sans-Serif" font-size="10.00">xtb_type_atomlist::</text>
<text text-anchor="middle" x="191" y="-105.5" font-family="Helvetica,sans-Serif" font-size="10.00">atomlist_from_integers</text>
</a>
</g>
</g>
<!-- Node1&#45;&gt;Node3 -->
<g id="edge2" class="edge">
<title>Node1&#45;&gt;Node3</title>
<path fill="none" stroke="midnightblue" d="M97.07,-96.96C105.31,-98.43 114.01,-99.98 122.66,-101.52"/>
<polygon fill="midnightblue" stroke="midnightblue" points="122.29,-105.01 132.75,-103.31 123.52,-98.12 122.29,-105.01"/>
</g>
<!-- Node4 -->
<g id="node4" class="node">
<title>Node4</title>
<g id="a_node4"><a xlink:href="namespacextb__type__atomlist.html#aa2e4a9e7abb0028d5283124f885fe51b" target="_top" xlink:title=" ">
<polygon fill="white" stroke="black" points="134,-49.5 134,-79.5 248,-79.5 248,-49.5 134,-49.5"/>
<text text-anchor="start" x="142" y="-67.5" font-family="Helvetica,sans-Serif" font-size="10.00">xtb_type_atomlist::</text>
<text text-anchor="middle" x="191" y="-56.5" font-family="Helvetica,sans-Serif" font-size="10.00">atomlist_from_logicals</text>
</a>
</g>
</g>
<!-- Node1&#45;&gt;Node4 -->
<g id="edge3" class="edge">
<title>Node1&#45;&gt;Node4</title>
<path fill="none" stroke="midnightblue" d="M97.07,-80.37C105.63,-78.91 114.69,-77.36 123.67,-75.83"/>
<polygon fill="midnightblue" stroke="midnightblue" points="124.47,-79.24 133.74,-74.11 123.29,-72.34 124.47,-79.24"/>
</g>
<!-- Node5 -->
<g id="node5" class="node">
<title>Node5</title>
<g id="a_node5"><a xlink:href="namespacextb__type__atomlist.html#a029f0eb446a754ff260cb5c510b9bf35" target="_top" xlink:title=" ">
<polygon fill="white" stroke="black" points="138.5,-0.5 138.5,-30.5 243.5,-30.5 243.5,-0.5 138.5,-0.5"/>
<text text-anchor="start" x="146.5" y="-18.5" font-family="Helvetica,sans-Serif" font-size="10.00">xtb_type_atomlist::</text>
<text text-anchor="middle" x="191" y="-7.5" font-family="Helvetica,sans-Serif" font-size="10.00">atomlist_from_string</text>
</a>
</g>
</g>
<!-- Node1&#45;&gt;Node5 -->
<g id="edge4" class="edge">
<title>Node1&#45;&gt;Node5</title>
<path fill="none" stroke="midnightblue" d="M83.57,-67.8C98.53,-59 116.43,-48.86 133,-40.5 136.8,-38.58 140.78,-36.66 144.79,-34.79"/>
<polygon fill="midnightblue" stroke="midnightblue" points="146.5,-37.85 154.15,-30.52 143.6,-31.49 146.5,-37.85"/>
</g>
</g>
</svg>
