<?xml version="1.0" encoding="UTF-8" standalone="no"?>
<!DOCTYPE svg PUBLIC "-//W3C//DTD SVG 1.1//EN"
 "http://www.w3.org/Graphics/SVG/1.1/DTD/svg11.dtd">
<!-- Generated by graphviz version 2.43.0 (0)
 -->
<!-- Title: xtb_coulomb_klopmanohno::tklopmanohno Pages: 1 -->
<svg width="284pt" height="253pt"
 viewBox="0.00 0.00 284.00 253.00" xmlns="http://www.w3.org/2000/svg" xmlns:xlink="http://www.w3.org/1999/xlink">
<g id="graph0" class="graph" transform="scale(1 1) rotate(0) translate(4 249)">
<title>xtb_coulomb_klopmanohno::tklopmanohno</title>
<polygon fill="white" stroke="transparent" points="-4,4 -4,-249 280,-249 280,4 -4,4"/>
<!-- Node1 -->
<g id="node1" class="node">
<title>Node1</title>
<g id="a_node1"><a xlink:title=" ">
<polygon fill="#bfbfbf" stroke="black" points="38,-0.5 38,-30.5 190,-30.5 190,-0.5 38,-0.5"/>
<text text-anchor="start" x="46" y="-18.5" font-family="Helvetica,sans-Serif" font-size="10.00">xtb_coulomb_klopmanohno</text>
<text text-anchor="middle" x="114" y="-7.5" font-family="Helvetica,sans-Serif" font-size="10.00">::tklopmanohno</text>
</a>
</g>
</g>
<!-- Node2 -->
<g id="node2" class="node">
<title>Node2</title>
<g id="a_node2"><a xlink:href="structxtb__type__coulomb_1_1tcoulomb.html" target="_top" xlink:title="Base point charge electrostatics evaluator.">
<polygon fill="white" stroke="black" points="35,-68.5 35,-87.5 193,-87.5 193,-68.5 35,-68.5"/>
<text text-anchor="middle" x="114" y="-75.5" font-family="Helvetica,sans-Serif" font-size="10.00">xtb_type_coulomb::tcoulomb</text>
</a>
</g>
</g>
<!-- Node2&#45;&gt;Node1 -->
<g id="edge1" class="edge">
<title>Node2&#45;&gt;Node1</title>
<path fill="none" stroke="midnightblue" d="M114,-58.22C114,-49.36 114,-38.96 114,-30.76"/>
<polygon fill="midnightblue" stroke="midnightblue" points="110.5,-58.33 114,-68.33 117.5,-58.33 110.5,-58.33"/>
</g>
<!-- Node3 -->
<g id="node3" class="node">
<title>Node3</title>
<g id="a_node3"><a xlink:href="structxtb__type__latticepoint_1_1tlatticepoint.html" target="_top" xlink:title="Lattice point generator.">
<polygon fill="white" stroke="black" points="0,-146.5 0,-176.5 120,-176.5 120,-146.5 0,-146.5"/>
<text text-anchor="start" x="8" y="-164.5" font-family="Helvetica,sans-Serif" font-size="10.00">xtb_type_latticepoint</text>
<text text-anchor="middle" x="60" y="-153.5" font-family="Helvetica,sans-Serif" font-size="10.00">::tlatticepoint</text>
</a>
</g>
</g>
<!-- Node3&#45;&gt;Node2 -->
<g id="edge2" class="edge">
<title>Node3&#45;&gt;Node2</title>
<path fill="none" stroke="#9a32cd" stroke-dasharray="5,2" d="M75.14,-137.65C86.19,-120.98 100.54,-99.32 108.34,-87.54"/>
<polygon fill="#9a32cd" stroke="#9a32cd" points="72.01,-136.03 69.41,-146.3 77.85,-139.9 72.01,-136.03"/>
<text text-anchor="middle" x="117.5" y="-120" font-family="Helvetica,sans-Serif" font-size="10.00"> glatpoint</text>
<text text-anchor="middle" x="117.5" y="-109" font-family="Helvetica,sans-Serif" font-size="10.00">rlatpoint</text>
</g>
<!-- Node4 -->
<g id="node4" class="node">
<title>Node4</title>
<g id="a_node4"><a xlink:href="structxtb__type__wignerseitzcell_1_1twignerseitzcell.html" target="_top" xlink:title="Wigner&#45;Seitz cell based on the infrastructure for the neighbour list.">
<polygon fill="white" stroke="black" points="138,-146.5 138,-176.5 276,-176.5 276,-146.5 138,-146.5"/>
<text text-anchor="start" x="146" y="-164.5" font-family="Helvetica,sans-Serif" font-size="10.00">xtb_type_wignerseitzcell</text>
<text text-anchor="middle" x="207" y="-153.5" font-family="Helvetica,sans-Serif" font-size="10.00">::twignerseitzcell</text>
</a>
</g>
</g>
<!-- Node4&#45;&gt;Node2 -->
<g id="edge3" class="edge">
<title>Node4&#45;&gt;Node2</title>
<path fill="none" stroke="#9a32cd" stroke-dasharray="5,2" d="M183.41,-139.72C171.85,-129.55 157.71,-117.12 145,-106 137.91,-99.8 129.89,-92.81 123.78,-87.5"/>
<polygon fill="#9a32cd" stroke="#9a32cd" points="181.14,-142.38 190.96,-146.36 185.77,-137.13 181.14,-142.38"/>
<text text-anchor="middle" x="185" y="-114.5" font-family="Helvetica,sans-Serif" font-size="10.00"> wscell</text>
</g>
<!-- Node5 -->
<g id="node5" class="node">
<title>Node5</title>
<g id="a_node5"><a xlink:href="structxtb__type__neighbourlist_1_1tneighbourlist.html" target="_top" xlink:title="Static neighbour list.">
<polygon fill="white" stroke="black" points="143,-214.5 143,-244.5 271,-244.5 271,-214.5 143,-214.5"/>
<text text-anchor="start" x="151" y="-232.5" font-family="Helvetica,sans-Serif" font-size="10.00">xtb_type_neighbourlist</text>
<text text-anchor="middle" x="207" y="-221.5" font-family="Helvetica,sans-Serif" font-size="10.00">::tneighbourlist</text>
</a>
</g>
</g>
<!-- Node5&#45;&gt;Node4 -->
<g id="edge4" class="edge">
<title>Node5&#45;&gt;Node4</title>
<path fill="none" stroke="midnightblue" d="M207,-204.03C207,-194.86 207,-184.74 207,-176.79"/>
<polygon fill="midnightblue" stroke="midnightblue" points="203.5,-204.18 207,-214.18 210.5,-204.18 203.5,-204.18"/>
</g>
</g>
</svg>
