<?xml version="1.0" encoding="UTF-8" standalone="no"?>
<!DOCTYPE svg PUBLIC "-//W3C//DTD SVG 1.1//EN"
 "http://www.w3.org/Graphics/SVG/1.1/DTD/svg11.dtd">
<!-- Generated by graphviz version 2.46.0 (20210122.1329)
 -->
<!-- Title: forpy_mod::mapping::setitem Pages: 1 -->
<svg width="264pt" height="39pt"
 viewBox="0.00 0.00 264.00 39.00" xmlns="http://www.w3.org/2000/svg" xmlns:xlink="http://www.w3.org/1999/xlink">
<g id="graph0" class="graph" transform="scale(1 1) rotate(0) translate(4 35)">
<title>forpy_mod::mapping::setitem</title>
<polygon fill="white" stroke="transparent" points="-4,4 -4,-35 260,-35 260,4 -4,4"/>
<!-- Node1 -->
<g id="node1" class="node">
<title>Node1</title>
<g id="a_node1"><a xlink:title="Inserts value at given key. Sets value if key already exists.">
<polygon fill="#bfbfbf" stroke="black" points="0,-0.5 0,-30.5 103,-30.5 103,-0.5 0,-0.5"/>
<text text-anchor="start" x="8" y="-18.5" font-family="Helvetica,sans-Serif" font-size="10.00">forpy_mod::mapping</text>
<text text-anchor="middle" x="51.5" y="-7.5" font-family="Helvetica,sans-Serif" font-size="10.00">::setitem</text>
</a>
</g>
</g>
<!-- Node2 -->
<g id="node2" class="node">
<title>Node2</title>
<g id="a_node2"><a xlink:href="namespaceforpy__mod.html#ab93233b9a178b78902d35ee511b6ec7e" target="_top" xlink:title=" ">
<polygon fill="white" stroke="black" points="139,-0.5 139,-30.5 256,-30.5 256,-0.5 139,-0.5"/>
<text text-anchor="start" x="147" y="-18.5" font-family="Helvetica,sans-Serif" font-size="10.00">forpy_mod::mapping</text>
<text text-anchor="middle" x="197.5" y="-7.5" font-family="Helvetica,sans-Serif" font-size="10.00">_setitem_object_object</text>
</a>
</g>
</g>
<!-- Node1&#45;&gt;Node2 -->
<g id="edge1" class="edge">
<title>Node1&#45;&gt;Node2</title>
<path fill="none" stroke="midnightblue" d="M103.27,-15.5C111.53,-15.5 120.21,-15.5 128.8,-15.5"/>
<polygon fill="midnightblue" stroke="midnightblue" points="128.82,-19 138.82,-15.5 128.82,-12 128.82,-19"/>
</g>
</g>
</svg>
