<?xml version="1.0" encoding="UTF-8" standalone="no"?>
<!DOCTYPE svg PUBLIC "-//W3C//DTD SVG 1.1//EN"
 "http://www.w3.org/Graphics/SVG/1.1/DTD/svg11.dtd">
<!-- Generated by graphviz version 2.46.1 (20210215.1649)
 -->
<!-- Title: xtb_gfnff_calculator::tgffcalculator Pages: 1 -->
<!--zoomable 176 -->
<svg id="main" version="1.1" xmlns="http://www.w3.org/2000/svg" xmlns:xlink="http://www.w3.org/1999/xlink" xml:space="preserve" onload="init(evt)">
<style type="text/css"><![CDATA[
.edge:hover path { stroke: red; }
.edge:hover polygon { stroke: red; fill: red; }
]]></style>
<script type="text/javascript"><![CDATA[
var edges = document.getElementsByTagName('g');
if (edges && edges.length) {
  for (var i=0;i<edges.length;i++) {
    if (edges[i].id.substr(0,4)=='edge') {
      edges[i].setAttribute('class','edge');
    }
  }
}
]]></script>
        <defs>
                <circle id="rim" cx="0" cy="0" r="7"/>
                <circle id="rim2" cx="0" cy="0" r="3.5"/>
                <g id="zoomPlus">
                        <use xlink:href="#rim" fill="#404040">
                                <set attributeName="fill" to="#808080" begin="zoomplus.mouseover" end="zoomplus.mouseout"/>
                        </use>
                        <path d="M-4,0h8M0,-4v8" fill="none" stroke="white" stroke-width="1.5" pointer-events="none"/>
                </g>
                <g id="zoomMin">
                        <use xlink:href="#rim" fill="#404040">
                                <set attributeName="fill" to="#808080" begin="zoomminus.mouseover" end="zoomminus.mouseout"/>
                        </use>
                        <path d="M-4,0h8" fill="none" stroke="white" stroke-width="1.5" pointer-events="none"/>
                </g>
                <g id="dirArrow">
                        <path fill="none" stroke="white" stroke-width="1.5" d="M0,-3.0v7 M-2.5,-0.5L0,-3.0L2.5,-0.5"/>
                </g>
               <g id="resetDef">
                       <use xlink:href="#rim2" fill="#404040">
                               <set attributeName="fill" to="#808080" begin="reset.mouseover" end="reset.mouseout"/>
                       </use>
               </g>
        </defs>

<script type="text/javascript">
var viewWidth = 665;
var viewHeight = 176;
var sectionId = 'dynsection-1';
</script>
<script xlink:href="svgpan.js"/>
<svg id="graph" class="graph">
<g id="viewport">
<title>xtb_gfnff_calculator::tgffcalculator</title>
<polygon fill="white" stroke="transparent" points="-4,4 -4,-171.5 661,-171.5 661,4 -4,4"/>
<!-- Node1 -->
<g id="node1" class="node">
<title>Node1</title>
<g id="a_node1"><a xlink:title="Calculator interface for xTB based methods.">
<polygon fill="#bfbfbf" stroke="black" points="556,-56 556,-86 657,-86 657,-56 556,-56"/>
<text text-anchor="start" x="564" y="-74" font-family="Helvetica,sans-Serif" font-size="10.00">xtb_gfnff_calculator</text>
<text text-anchor="middle" x="606.5" y="-63" font-family="Helvetica,sans-Serif" font-size="10.00">::tgffcalculator</text>
</a>
</g>
</g>
<!-- Node2 -->
<g id="node2" class="node">
<title>Node2</title>
<g id="a_node2"><a xlink:href="structxtb__type__calculator_1_1tcalculator.html" target="_top" xlink:title="Base calculator.">
<polygon fill="white" stroke="black" points="383,-137 383,-167 483,-167 483,-137 383,-137"/>
<text text-anchor="start" x="391" y="-155" font-family="Helvetica,sans-Serif" font-size="10.00">xtb_type_calculator</text>
<text text-anchor="middle" x="433" y="-144" font-family="Helvetica,sans-Serif" font-size="10.00">::tcalculator</text>
</a>
</g>
</g>
<!-- Node2&#45;&gt;Node1 -->
<g id="edge1" class="edge">
<title>Node2&#45;&gt;Node1</title>
<path fill="none" stroke="midnightblue" d="M479.45,-132.77C483.03,-131.18 486.58,-129.58 490,-128 519.45,-114.43 552.59,-97.95 575.8,-86.2"/>
<polygon fill="midnightblue" stroke="midnightblue" points="477.73,-129.7 469.98,-136.92 480.54,-136.11 477.73,-129.7"/>
</g>
<!-- Node3 -->
<g id="node3" class="node">
<title>Node3</title>
<g id="a_node3"><a xlink:href="structxtb__solv__model_1_1tsolvmodel.html" target="_top" xlink:title="Payload to create actual solvation models.">
<polygon fill="white" stroke="black" points="162,-142.5 162,-161.5 298,-161.5 298,-142.5 162,-142.5"/>
<text text-anchor="middle" x="230" y="-149.5" font-family="Helvetica,sans-Serif" font-size="10.00">xtb_solv_model::tsolvmodel</text>
</a>
</g>
</g>
<!-- Node3&#45;&gt;Node2 -->
<g id="edge2" class="edge">
<title>Node3&#45;&gt;Node2</title>
<path fill="none" stroke="#9a32cd" stroke-dasharray="5,2" d="M308.43,-152C333.49,-152 360.57,-152 382.98,-152"/>
<polygon fill="#9a32cd" stroke="#9a32cd" points="308.21,-148.5 298.21,-152 308.21,-155.5 308.21,-148.5"/>
<text text-anchor="middle" x="337" y="-155" font-family="Helvetica,sans-Serif" font-size="10.00"> solvation</text>
</g>
<!-- Node4 -->
<g id="node4" class="node">
<title>Node4</title>
<g id="a_node4"><a xlink:href="structxtb__solv__input_1_1tsolvinput.html" target="_top" xlink:title="Input data for the solvation model.">
<polygon fill="white" stroke="black" points="0,-142.5 0,-161.5 125,-161.5 125,-142.5 0,-142.5"/>
<text text-anchor="middle" x="62.5" y="-149.5" font-family="Helvetica,sans-Serif" font-size="10.00">xtb_solv_input::tsolvinput</text>
</a>
</g>
</g>
<!-- Node4&#45;&gt;Node3 -->
<g id="edge3" class="edge">
<title>Node4&#45;&gt;Node3</title>
<path fill="none" stroke="midnightblue" d="M135.33,-152C144.11,-152 153.06,-152 161.77,-152"/>
<polygon fill="midnightblue" stroke="midnightblue" points="135.13,-148.5 125.13,-152 135.13,-155.5 135.13,-148.5"/>
</g>
<!-- Node5 -->
<g id="node5" class="node">
<title>Node5</title>
<g id="a_node5"><a xlink:href="structxtb__gfnff__topology_1_1tgfftopology.html" target="_top" xlink:title="Topology information for a given system.">
<polygon fill="white" stroke="black" points="385.5,-88 385.5,-118 480.5,-118 480.5,-88 385.5,-88"/>
<text text-anchor="start" x="393.5" y="-106" font-family="Helvetica,sans-Serif" font-size="10.00">xtb_gfnff_topology</text>
<text text-anchor="middle" x="433" y="-95" font-family="Helvetica,sans-Serif" font-size="10.00">::tgfftopology</text>
</a>
</g>
</g>
<!-- Node5&#45;&gt;Node1 -->
<g id="edge4" class="edge">
<title>Node5&#45;&gt;Node1</title>
<path fill="none" stroke="#9a32cd" stroke-dasharray="5,2" d="M490.96,-92.37C512,-88.45 535.66,-84.03 556,-80.24"/>
<polygon fill="#9a32cd" stroke="#9a32cd" points="490.05,-88.98 480.86,-94.26 491.34,-95.86 490.05,-88.98"/>
<text text-anchor="middle" x="523" y="-91" font-family="Helvetica,sans-Serif" font-size="10.00"> topo</text>
</g>
<!-- Node6 -->
<g id="node6" class="node">
<title>Node6</title>
<g id="a_node6"><a xlink:href="structxtb__type__dispersionmodel_1_1tdispersionmodel.html" target="_top" xlink:title=" ">
<polygon fill="white" stroke="black" points="166,-88 166,-118 294,-118 294,-88 166,-88"/>
<text text-anchor="start" x="174" y="-106" font-family="Helvetica,sans-Serif" font-size="10.00">xtb_type_dispersionmodel</text>
<text text-anchor="middle" x="230" y="-95" font-family="Helvetica,sans-Serif" font-size="10.00">::tdispersionmodel</text>
</a>
</g>
</g>
<!-- Node6&#45;&gt;Node5 -->
<g id="edge5" class="edge">
<title>Node6&#45;&gt;Node5</title>
<path fill="none" stroke="#9a32cd" stroke-dasharray="5,2" d="M304.28,-103C331.39,-103 361.36,-103 385.45,-103"/>
<polygon fill="#9a32cd" stroke="#9a32cd" points="304.05,-99.5 294.05,-103 304.05,-106.5 304.05,-99.5"/>
<text text-anchor="middle" x="337" y="-106" font-family="Helvetica,sans-Serif" font-size="10.00"> dispm</text>
</g>
<!-- Node7 -->
<g id="node7" class="node">
<title>Node7</title>
<g id="a_node7"><a xlink:href="structxtb__gfnff__generator_1_1tgffgenerator.html" target="_top" xlink:title="Generator for the force field topology.">
<polygon fill="white" stroke="black" points="383.5,-39 383.5,-69 482.5,-69 482.5,-39 383.5,-39"/>
<text text-anchor="start" x="391.5" y="-57" font-family="Helvetica,sans-Serif" font-size="10.00">xtb_gfnff_generator</text>
<text text-anchor="middle" x="433" y="-46" font-family="Helvetica,sans-Serif" font-size="10.00">::tgffgenerator</text>
</a>
</g>
</g>
<!-- Node7&#45;&gt;Node1 -->
<g id="edge6" class="edge">
<title>Node7&#45;&gt;Node1</title>
<path fill="none" stroke="#9a32cd" stroke-dasharray="5,2" d="M492.77,-57.95C507.55,-59.1 523.37,-60.46 538,-62 543.76,-62.61 549.79,-63.31 555.77,-64.05"/>
<polygon fill="#9a32cd" stroke="#9a32cd" points="492.96,-54.45 482.73,-57.18 492.43,-61.43 492.96,-54.45"/>
<text text-anchor="middle" x="523" y="-65" font-family="Helvetica,sans-Serif" font-size="10.00"> gen</text>
</g>
<!-- Node8 -->
<g id="node8" class="node">
<title>Node8</title>
<g id="a_node8"><a xlink:href="structxtb__gfnff__data_1_1tgffdata.html" target="_top" xlink:title="Parametrisation data for the force field.">
<polygon fill="white" stroke="black" points="376,-0.5 376,-19.5 490,-19.5 490,-0.5 376,-0.5"/>
<text text-anchor="middle" x="433" y="-7.5" font-family="Helvetica,sans-Serif" font-size="10.00">xtb_gfnff_data::tgffdata</text>
</a>
</g>
</g>
<!-- Node8&#45;&gt;Node1 -->
<g id="edge7" class="edge">
<title>Node8&#45;&gt;Node1</title>
<path fill="none" stroke="#9a32cd" stroke-dasharray="5,2" d="M474.8,-22.67C494.07,-28.82 517.32,-36.49 538,-44 548.2,-47.7 559.17,-51.97 569.23,-55.99"/>
<polygon fill="#9a32cd" stroke="#9a32cd" points="475.71,-19.28 465.12,-19.6 473.6,-25.96 475.71,-19.28"/>
<text text-anchor="middle" x="523" y="-47" font-family="Helvetica,sans-Serif" font-size="10.00"> param</text>
</g>
</g>
</svg>
        <g id="navigator" transform="translate(0 0)" fill="#404254">
                <rect fill="#f2f5e9" fill-opacity="0.5" stroke="#606060" stroke-width=".5" x="0" y="0" width="60" height="60"/>
                <use id="zoomplus" xlink:href="#zoomPlus" x="17" y="9" onmousedown="handleZoom(evt,'in')"/>
                <use id="zoomminus" xlink:href="#zoomMin" x="42" y="9" onmousedown="handleZoom(evt,'out')"/>
                <use id="reset" xlink:href="#resetDef" x="30" y="36" onmousedown="handleReset()"/>
                <g id="arrowUp" xlink:href="#dirArrow" transform="translate(30 24)" onmousedown="handlePan(0,-1)">
                  <use xlink:href="#rim" fill="#404040">
                        <set attributeName="fill" to="#808080" begin="arrowUp.mouseover" end="arrowUp.mouseout"/>
                  </use>
                  <path fill="none" stroke="white" stroke-width="1.5" d="M0,-3.0v7 M-2.5,-0.5L0,-3.0L2.5,-0.5"/>
                </g>
                <g id="arrowRight" xlink:href="#dirArrow" transform="rotate(90) translate(36 -43)" onmousedown="handlePan(1,0)">
                  <use xlink:href="#rim" fill="#404040">
                        <set attributeName="fill" to="#808080" begin="arrowRight.mouseover" end="arrowRight.mouseout"/>
                  </use>
                  <path fill="none" stroke="white" stroke-width="1.5" d="M0,-3.0v7 M-2.5,-0.5L0,-3.0L2.5,-0.5"/>
                </g>
                <g id="arrowDown" xlink:href="#dirArrow" transform="rotate(180) translate(-30 -48)" onmousedown="handlePan(0,1)">
                  <use xlink:href="#rim" fill="#404040">
                        <set attributeName="fill" to="#808080" begin="arrowDown.mouseover" end="arrowDown.mouseout"/>
                  </use>
                  <path fill="none" stroke="white" stroke-width="1.5" d="M0,-3.0v7 M-2.5,-0.5L0,-3.0L2.5,-0.5"/>
                </g>
                <g id="arrowLeft" xlink:href="#dirArrow" transform="rotate(270) translate(-36 17)" onmousedown="handlePan(-1,0)">
                  <use xlink:href="#rim" fill="#404040">
                        <set attributeName="fill" to="#808080" begin="arrowLeft.mouseover" end="arrowLeft.mouseout"/>
                  </use>
                  <path fill="none" stroke="white" stroke-width="1.5" d="M0,-3.0v7 M-2.5,-0.5L0,-3.0L2.5,-0.5"/>
                </g>
        </g>
        <svg viewBox="0 0 15 15" width="100%" height="30px" preserveAspectRatio="xMaxYMin meet">
         <g id="arrow_out" transform="scale(0.3 0.3)">
          <a xlink:href="structxtb__gfnff__calculator_1_1tgffcalculator__coll__graph_org.svg" target="_base">
           <rect id="button" ry="5" rx="5" y="6" x="6" height="38" width="38"
                fill="#f2f5e9" fill-opacity="0.5" stroke="#606060" stroke-width="1.0"/>
           <path id="arrow"
             d="M 11.500037,31.436501 C 11.940474,20.09759 22.043105,11.32322 32.158766,21.979434 L 37.068811,17.246167 C 37.068811,17.246167 37.088388,32 37.088388,32 L 22.160133,31.978069 C 22.160133,31.978069 26.997745,27.140456 26.997745,27.140456 C 18.528582,18.264221 13.291696,25.230495 11.500037,31.436501 z"
             style="fill:#404040;"/>
          </a>
         </g>
        </svg>
</svg>
