<?xml version="1.0" encoding="UTF-8" standalone="no"?>
<!DOCTYPE svg PUBLIC "-//W3C//DTD SVG 1.1//EN"
 "http://www.w3.org/Graphics/SVG/1.1/DTD/svg11.dtd">
<!-- Generated by graphviz version 2.46.1 (20210215.1649)
 -->
<!-- Title: forpy_mod::mapping::setitem Pages: 1 -->
<svg width="269pt" height="50pt"
 viewBox="0.00 0.00 269.00 50.00" xmlns="http://www.w3.org/2000/svg" xmlns:xlink="http://www.w3.org/1999/xlink">
<g id="graph0" class="graph" transform="scale(1 1) rotate(0) translate(4 46)">
<title>forpy_mod::mapping::setitem</title>
<polygon fill="white" stroke="transparent" points="-4,4 -4,-46 265,-46 265,4 -4,4"/>
<!-- Node1 -->
<g id="node1" class="node">
<title>Node1</title>
<g id="a_node1"><a xlink:title="Inserts value at given key. Sets value if key already exists.">
<polygon fill="#bfbfbf" stroke="black" points="0,-6 0,-36 103,-36 103,-6 0,-6"/>
<text text-anchor="start" x="8" y="-24" font-family="Helvetica,sans-Serif" font-size="10.00">forpy_mod::mapping</text>
<text text-anchor="middle" x="51.5" y="-13" font-family="Helvetica,sans-Serif" font-size="10.00">::setitem</text>
</a>
</g>
</g>
<!-- Node2 -->
<g id="node2" class="node">
<title>Node2</title>
<g id="a_node2"><a xlink:href="namespaceforpy__mod.html#a692be723cf2ae9cbef194ba26e1d08d7" target="_top" xlink:title=" ">
<polygon fill="white" stroke="black" points="139,-0.5 139,-41.5 261,-41.5 261,-0.5 139,-0.5"/>
<text text-anchor="start" x="147" y="-29.5" font-family="Helvetica,sans-Serif" font-size="10.00">forpy_mod::mapping</text>
<text text-anchor="start" x="147" y="-18.5" font-family="Helvetica,sans-Serif" font-size="10.00">_setitem_int32_complex</text>
<text text-anchor="middle" x="200" y="-7.5" font-family="Helvetica,sans-Serif" font-size="10.00">_real32</text>
</a>
</g>
</g>
<!-- Node1&#45;&gt;Node2 -->
<g id="edge1" class="edge">
<title>Node1&#45;&gt;Node2</title>
<path fill="none" stroke="midnightblue" d="M103.33,-21C111.58,-21 120.26,-21 128.88,-21"/>
<polygon fill="midnightblue" stroke="midnightblue" points="128.94,-24.5 138.94,-21 128.94,-17.5 128.94,-24.5"/>
</g>
</g>
</svg>
