<?xml version="1.0" encoding="UTF-8" standalone="no"?>
<!DOCTYPE svg PUBLIC "-//W3C//DTD SVG 1.1//EN"
 "http://www.w3.org/Graphics/SVG/1.1/DTD/svg11.dtd">
<!-- Generated by graphviz version 2.43.0 (0)
 -->
<!-- Title: check_transform_quality Pages: 1 -->
<svg width="1095pt" height="218pt"
 viewBox="0.00 0.00 1095.00 218.00" xmlns="http://www.w3.org/2000/svg" xmlns:xlink="http://www.w3.org/1999/xlink">
<g id="graph0" class="graph" transform="scale(1 1) rotate(0) translate(4 214)">
<title>check_transform_quality</title>
<polygon fill="white" stroke="transparent" points="-4,4 -4,-214 1091,-214 1091,4 -4,4"/>
<!-- Node1 -->
<g id="node1" class="node">
<title>Node1</title>
<g id="a_node1"><a xlink:title=" ">
<polygon fill="#bfbfbf" stroke="black" points="950,-95.5 950,-114.5 1087,-114.5 1087,-95.5 950,-95.5"/>
<text text-anchor="middle" x="1018.5" y="-102.5" font-family="Helvetica,sans-Serif" font-size="10.00">check_transform_quality</text>
</a>
</g>
</g>
<!-- Node2 -->
<g id="node2" class="node">
<title>Node2</title>
<g id="a_node2"><a xlink:href="symmetry__i_8c.html#aff39b1566e9d87c46184c58d49b46ab4" target="_top" xlink:title=" ">
<polygon fill="white" stroke="black" points="768,-95.5 768,-114.5 914,-114.5 914,-95.5 768,-95.5"/>
<text text-anchor="middle" x="841" y="-102.5" font-family="Helvetica,sans-Serif" font-size="10.00">refine_symmetry_element</text>
</a>
</g>
</g>
<!-- Node1&#45;&gt;Node2 -->
<g id="edge1" class="edge">
<title>Node1&#45;&gt;Node2</title>
<path fill="none" stroke="midnightblue" d="M939.66,-105C931.2,-105 922.62,-105 914.23,-105"/>
<polygon fill="midnightblue" stroke="midnightblue" points="939.9,-108.5 949.9,-105 939.9,-101.5 939.9,-108.5"/>
</g>
<!-- Node3 -->
<g id="node3" class="node">
<title>Node3</title>
<g id="a_node3"><a xlink:href="symmetry__i_8c.html#a64141aa48feafed7ea902983e9420710" target="_top" xlink:title=" ">
<polygon fill="white" stroke="black" points="635.5,-190.5 635.5,-209.5 709.5,-209.5 709.5,-190.5 635.5,-190.5"/>
<text text-anchor="middle" x="672.5" y="-197.5" font-family="Helvetica,sans-Serif" font-size="10.00">init_c2_axis</text>
</a>
</g>
</g>
<!-- Node2&#45;&gt;Node3 -->
<g id="edge2" class="edge">
<title>Node2&#45;&gt;Node3</title>
<path fill="none" stroke="midnightblue" d="M821.01,-121.04C800.27,-137.89 765.52,-164.24 732,-181 724.74,-184.63 716.64,-187.78 708.83,-190.41"/>
<polygon fill="midnightblue" stroke="midnightblue" points="823.26,-123.72 828.75,-114.66 818.8,-118.32 823.26,-123.72"/>
</g>
<!-- Node9 -->
<g id="node9" class="node">
<title>Node9</title>
<g id="a_node9"><a xlink:href="symmetry__i_8c.html#aefd8cb52cd2813008ffac12799461733" target="_top" xlink:title=" ">
<polygon fill="white" stroke="black" points="625.5,-152.5 625.5,-171.5 719.5,-171.5 719.5,-152.5 625.5,-152.5"/>
<text text-anchor="middle" x="672.5" y="-159.5" font-family="Helvetica,sans-Serif" font-size="10.00">init_higher_axis</text>
</a>
</g>
</g>
<!-- Node2&#45;&gt;Node9 -->
<g id="edge8" class="edge">
<title>Node2&#45;&gt;Node9</title>
<path fill="none" stroke="midnightblue" d="M803.96,-117.93C783,-125.38 756.06,-134.86 732,-143 722.69,-146.15 712.52,-149.49 703.31,-152.47"/>
<polygon fill="midnightblue" stroke="midnightblue" points="805.19,-121.2 813.43,-114.55 802.84,-114.61 805.19,-121.2"/>
</g>
<!-- Node11 -->
<g id="node11" class="node">
<title>Node11</title>
<g id="a_node11"><a xlink:href="symmetry__i_8c.html#a630773e4f2973515dc5079ce892f6d3a" target="_top" xlink:title=" ">
<polygon fill="white" stroke="black" points="619,-114.5 619,-133.5 726,-133.5 726,-114.5 619,-114.5"/>
<text text-anchor="middle" x="672.5" y="-121.5" font-family="Helvetica,sans-Serif" font-size="10.00">init_improper_axis</text>
</a>
</g>
</g>
<!-- Node2&#45;&gt;Node11 -->
<g id="edge11" class="edge">
<title>Node2&#45;&gt;Node11</title>
<path fill="none" stroke="midnightblue" d="M758,-114.36C747.15,-115.6 736.27,-116.84 726.1,-118"/>
<polygon fill="midnightblue" stroke="midnightblue" points="758.4,-117.83 767.94,-113.22 757.61,-110.88 758.4,-117.83"/>
</g>
<!-- Node13 -->
<g id="node13" class="node">
<title>Node13</title>
<g id="a_node13"><a xlink:href="symmetry__i_8c.html#a26bc67027c2e60cc5dbbf0cdcc2837be" target="_top" xlink:title=" ">
<polygon fill="white" stroke="black" points="613,-76.5 613,-95.5 732,-95.5 732,-76.5 613,-76.5"/>
<text text-anchor="middle" x="672.5" y="-83.5" font-family="Helvetica,sans-Serif" font-size="10.00">init_inversion_center</text>
</a>
</g>
</g>
<!-- Node2&#45;&gt;Node13 -->
<g id="edge14" class="edge">
<title>Node2&#45;&gt;Node13</title>
<path fill="none" stroke="midnightblue" d="M757.8,-95.62C749.14,-94.63 740.47,-93.64 732.15,-92.69"/>
<polygon fill="midnightblue" stroke="midnightblue" points="757.61,-99.12 767.94,-96.78 758.4,-92.17 757.61,-99.12"/>
</g>
<!-- Node15 -->
<g id="node15" class="node">
<title>Node15</title>
<g id="a_node15"><a xlink:href="symmetry__i_8c.html#a28a580c316f874592fa976504885670c" target="_top" xlink:title=" ">
<polygon fill="white" stroke="black" points="622.5,-38.5 622.5,-57.5 722.5,-57.5 722.5,-38.5 622.5,-38.5"/>
<text text-anchor="middle" x="672.5" y="-45.5" font-family="Helvetica,sans-Serif" font-size="10.00">init_mirror_plane</text>
</a>
</g>
</g>
<!-- Node2&#45;&gt;Node15 -->
<g id="edge17" class="edge">
<title>Node2&#45;&gt;Node15</title>
<path fill="none" stroke="midnightblue" d="M803.96,-92.07C783,-84.62 756.06,-75.14 732,-67 722.69,-63.85 712.52,-60.51 703.31,-57.53"/>
<polygon fill="midnightblue" stroke="midnightblue" points="802.84,-95.39 813.43,-95.45 805.19,-88.8 802.84,-95.39"/>
</g>
<!-- Node17 -->
<g id="node17" class="node">
<title>Node17</title>
<g id="a_node17"><a xlink:href="symmetry__i_8c.html#a6c28e9e49e1179d0bc2ded3d008b6499" target="_top" xlink:title=" ">
<polygon fill="white" stroke="black" points="617,-0.5 617,-19.5 728,-19.5 728,-0.5 617,-0.5"/>
<text text-anchor="middle" x="672.5" y="-7.5" font-family="Helvetica,sans-Serif" font-size="10.00">init_ultimate_plane</text>
</a>
</g>
</g>
<!-- Node2&#45;&gt;Node17 -->
<g id="edge20" class="edge">
<title>Node2&#45;&gt;Node17</title>
<path fill="none" stroke="midnightblue" d="M821.01,-88.96C800.27,-72.11 765.52,-45.76 732,-29 724.74,-25.37 716.64,-22.22 708.83,-19.59"/>
<polygon fill="midnightblue" stroke="midnightblue" points="818.8,-91.68 828.75,-95.34 823.26,-86.28 818.8,-91.68"/>
</g>
<!-- Node4 -->
<g id="node4" class="node">
<title>Node4</title>
<g id="a_node4"><a xlink:href="symmetry__i_8c.html#a70bfe9695b008eea2aa9a740a8090823" target="_top" xlink:title=" ">
<polygon fill="white" stroke="black" points="474.5,-190.5 474.5,-209.5 553.5,-209.5 553.5,-190.5 474.5,-190.5"/>
<text text-anchor="middle" x="514" y="-197.5" font-family="Helvetica,sans-Serif" font-size="10.00">find_c2_axes</text>
</a>
</g>
</g>
<!-- Node3&#45;&gt;Node4 -->
<g id="edge3" class="edge">
<title>Node3&#45;&gt;Node4</title>
<path fill="none" stroke="midnightblue" d="M625.08,-200C602.3,-200 575.18,-200 553.56,-200"/>
<polygon fill="midnightblue" stroke="midnightblue" points="625.2,-203.5 635.2,-200 625.2,-196.5 625.2,-203.5"/>
</g>
<!-- Node5 -->
<g id="node5" class="node">
<title>Node5</title>
<g id="a_node5"><a xlink:href="symmetry__i_8c.html#a65f666e81a867d34e263423c6cbda622" target="_top" xlink:title=" ">
<polygon fill="white" stroke="black" points="274,-114.5 274,-133.5 415,-133.5 415,-114.5 274,-114.5"/>
<text text-anchor="middle" x="344.5" y="-121.5" font-family="Helvetica,sans-Serif" font-size="10.00">find_symmetry_elements</text>
</a>
</g>
</g>
<!-- Node4&#45;&gt;Node5 -->
<g id="edge4" class="edge">
<title>Node4&#45;&gt;Node5</title>
<path fill="none" stroke="midnightblue" d="M467.89,-187.33C462.14,-185.38 456.39,-183.26 451,-181 417.78,-167.1 381.28,-145.95 361.1,-133.71"/>
<polygon fill="midnightblue" stroke="midnightblue" points="466.89,-190.68 477.49,-190.44 469.05,-184.03 466.89,-190.68"/>
</g>
<!-- Node6 -->
<g id="node6" class="node">
<title>Node6</title>
<g id="a_node6"><a xlink:href="symmetry__i_8c.html#a4f248fe6bdc62df2f41c5abd34e81ed1" target="_top" xlink:title=" ">
<polygon fill="white" stroke="black" points="171.5,-133.5 171.5,-152.5 233.5,-152.5 233.5,-133.5 171.5,-133.5"/>
<text text-anchor="middle" x="202.5" y="-140.5" font-family="Helvetica,sans-Serif" font-size="10.00">old_main</text>
</a>
</g>
</g>
<!-- Node5&#45;&gt;Node6 -->
<g id="edge5" class="edge">
<title>Node5&#45;&gt;Node6</title>
<path fill="none" stroke="midnightblue" d="M264,-134.79C253.26,-136.25 242.83,-137.66 233.74,-138.9"/>
<polygon fill="midnightblue" stroke="midnightblue" points="264.47,-138.26 273.91,-133.44 263.53,-131.32 264.47,-138.26"/>
</g>
<!-- Node7 -->
<g id="node7" class="node">
<title>Node7</title>
<g id="a_node7"><a xlink:href="symmetry__i_8c.html#a6c9de386e61e3a35d683a216dbcd1528" target="_top" xlink:title=" ">
<polygon fill="white" stroke="black" points="167,-95.5 167,-114.5 238,-114.5 238,-95.5 167,-95.5"/>
<text text-anchor="middle" x="202.5" y="-102.5" font-family="Helvetica,sans-Serif" font-size="10.00">schoenflies</text>
</a>
</g>
</g>
<!-- Node5&#45;&gt;Node7 -->
<g id="edge6" class="edge">
<title>Node5&#45;&gt;Node7</title>
<path fill="none" stroke="midnightblue" d="M263.8,-113.18C254.91,-111.98 246.22,-110.8 238.34,-109.73"/>
<polygon fill="midnightblue" stroke="midnightblue" points="263.53,-116.68 273.91,-114.56 264.47,-109.74 263.53,-116.68"/>
</g>
<!-- Node8 -->
<g id="node8" class="node">
<title>Node8</title>
<g id="a_node8"><a xlink:href="interfacec__interface.html#a98e1aed930d85608299bba1f41a6b07d" target="_top" xlink:title=" ">
<polygon fill="white" stroke="black" points="0,-95.5 0,-114.5 131,-114.5 131,-95.5 0,-95.5"/>
<text text-anchor="middle" x="65.5" y="-102.5" font-family="Helvetica,sans-Serif" font-size="10.00">c_interface::schoenflies</text>
</a>
</g>
</g>
<!-- Node7&#45;&gt;Node8 -->
<g id="edge7" class="edge">
<title>Node7&#45;&gt;Node8</title>
<path fill="none" stroke="midnightblue" d="M156.64,-105C148.42,-105 139.69,-105 131.03,-105"/>
<polygon fill="midnightblue" stroke="midnightblue" points="156.73,-108.5 166.73,-105 156.73,-101.5 156.73,-108.5"/>
</g>
<!-- Node10 -->
<g id="node10" class="node">
<title>Node10</title>
<g id="a_node10"><a xlink:href="symmetry__i_8c.html#a49b87621120ab2d2cbfb4594ab6c1ab0" target="_top" xlink:title=" ">
<polygon fill="white" stroke="black" points="465,-152.5 465,-171.5 563,-171.5 563,-152.5 465,-152.5"/>
<text text-anchor="middle" x="514" y="-159.5" font-family="Helvetica,sans-Serif" font-size="10.00">find_higher_axes</text>
</a>
</g>
</g>
<!-- Node9&#45;&gt;Node10 -->
<g id="edge9" class="edge">
<title>Node9&#45;&gt;Node10</title>
<path fill="none" stroke="midnightblue" d="M615.05,-162C598.07,-162 579.61,-162 563.23,-162"/>
<polygon fill="midnightblue" stroke="midnightblue" points="615.39,-165.5 625.39,-162 615.39,-158.5 615.39,-165.5"/>
</g>
<!-- Node10&#45;&gt;Node5 -->
<g id="edge10" class="edge">
<title>Node10&#45;&gt;Node5</title>
<path fill="none" stroke="midnightblue" d="M460.88,-150.18C437.27,-144.82 409.72,-138.57 387.46,-133.52"/>
<polygon fill="midnightblue" stroke="midnightblue" points="460.21,-153.61 470.73,-152.41 461.75,-146.79 460.21,-153.61"/>
</g>
<!-- Node12 -->
<g id="node12" class="node">
<title>Node12</title>
<g id="a_node12"><a xlink:href="symmetry__i_8c.html#a317b62be7bbb27bca96065c7f547eca8" target="_top" xlink:title=" ">
<polygon fill="white" stroke="black" points="458,-114.5 458,-133.5 570,-133.5 570,-114.5 458,-114.5"/>
<text text-anchor="middle" x="514" y="-121.5" font-family="Helvetica,sans-Serif" font-size="10.00">find_improper_axes</text>
</a>
</g>
</g>
<!-- Node11&#45;&gt;Node12 -->
<g id="edge12" class="edge">
<title>Node11&#45;&gt;Node12</title>
<path fill="none" stroke="midnightblue" d="M608.83,-124C596.01,-124 582.61,-124 570.09,-124"/>
<polygon fill="midnightblue" stroke="midnightblue" points="608.95,-127.5 618.95,-124 608.95,-120.5 608.95,-127.5"/>
</g>
<!-- Node12&#45;&gt;Node5 -->
<g id="edge13" class="edge">
<title>Node12&#45;&gt;Node5</title>
<path fill="none" stroke="midnightblue" d="M447.61,-124C436.94,-124 425.86,-124 415.09,-124"/>
<polygon fill="midnightblue" stroke="midnightblue" points="447.69,-127.5 457.69,-124 447.69,-120.5 447.69,-127.5"/>
</g>
<!-- Node14 -->
<g id="node14" class="node">
<title>Node14</title>
<g id="a_node14"><a xlink:href="symmetry__i_8c.html#a33142755e78f0ec77c8b931e270e0ef5" target="_top" xlink:title=" ">
<polygon fill="white" stroke="black" points="451,-76.5 451,-95.5 577,-95.5 577,-76.5 451,-76.5"/>
<text text-anchor="middle" x="514" y="-83.5" font-family="Helvetica,sans-Serif" font-size="10.00">find_inversion_centers</text>
</a>
</g>
</g>
<!-- Node13&#45;&gt;Node14 -->
<g id="edge15" class="edge">
<title>Node13&#45;&gt;Node14</title>
<path fill="none" stroke="midnightblue" d="M602.57,-86C594.13,-86 585.53,-86 577.19,-86"/>
<polygon fill="midnightblue" stroke="midnightblue" points="602.78,-89.5 612.78,-86 602.78,-82.5 602.78,-89.5"/>
</g>
<!-- Node14&#45;&gt;Node5 -->
<g id="edge16" class="edge">
<title>Node14&#45;&gt;Node5</title>
<path fill="none" stroke="midnightblue" d="M460.88,-97.82C437.27,-103.18 409.72,-109.43 387.46,-114.48"/>
<polygon fill="midnightblue" stroke="midnightblue" points="461.75,-101.21 470.73,-95.59 460.21,-94.39 461.75,-101.21"/>
</g>
<!-- Node16 -->
<g id="node16" class="node">
<title>Node16</title>
<g id="a_node16"><a xlink:href="symmetry__i_8c.html#adc43fe3d7619599e2aa3405466fc99d8" target="_top" xlink:title=" ">
<polygon fill="white" stroke="black" points="478,-38.5 478,-57.5 550,-57.5 550,-38.5 478,-38.5"/>
<text text-anchor="middle" x="514" y="-45.5" font-family="Helvetica,sans-Serif" font-size="10.00">find_planes</text>
</a>
</g>
</g>
<!-- Node15&#45;&gt;Node16 -->
<g id="edge18" class="edge">
<title>Node15&#45;&gt;Node16</title>
<path fill="none" stroke="midnightblue" d="M612.29,-48C591.29,-48 568.35,-48 550.02,-48"/>
<polygon fill="midnightblue" stroke="midnightblue" points="612.41,-51.5 622.41,-48 612.41,-44.5 612.41,-51.5"/>
</g>
<!-- Node16&#45;&gt;Node5 -->
<g id="edge19" class="edge">
<title>Node16&#45;&gt;Node5</title>
<path fill="none" stroke="midnightblue" d="M468.1,-60.6C462.28,-62.57 456.46,-64.72 451,-67 417.78,-80.9 381.28,-102.05 361.1,-114.29"/>
<polygon fill="midnightblue" stroke="midnightblue" points="469.37,-63.87 477.81,-57.46 467.22,-57.21 469.37,-63.87"/>
</g>
<!-- Node17&#45;&gt;Node16 -->
<g id="edge21" class="edge">
<title>Node17&#45;&gt;Node16</title>
<path fill="none" stroke="midnightblue" d="M622.26,-21.96C598.88,-27.63 571.47,-34.29 550.21,-39.45"/>
<polygon fill="midnightblue" stroke="midnightblue" points="623.12,-25.35 632.01,-19.59 621.46,-18.55 623.12,-25.35"/>
</g>
</g>
</svg>
