<?xml version="1.0" encoding="UTF-8" standalone="no"?>
<!DOCTYPE svg PUBLIC "-//W3C//DTD SVG 1.1//EN"
 "http://www.w3.org/Graphics/SVG/1.1/DTD/svg11.dtd">
<!-- Generated by graphviz version 2.46.1 (20210215.1649)
 -->
<!-- Title: init_inversion_center Pages: 1 -->
<svg width="859pt" height="420pt"
 viewBox="0.00 0.00 859.00 420.00" xmlns="http://www.w3.org/2000/svg" xmlns:xlink="http://www.w3.org/1999/xlink">
<g id="graph0" class="graph" transform="scale(1 1) rotate(0) translate(4 416)">
<title>init_inversion_center</title>
<polygon fill="white" stroke="transparent" points="-4,4 -4,-416 855,-416 855,4 -4,4"/>
<!-- Node1 -->
<g id="node1" class="node">
<title>Node1</title>
<g id="a_node1"><a xlink:title=" ">
<polygon fill="#bfbfbf" stroke="black" points="0,-207.5 0,-226.5 106,-226.5 106,-207.5 0,-207.5"/>
<text text-anchor="middle" x="53" y="-214.5" font-family="Helvetica,sans-Serif" font-size="10.00">init_inversion_center</text>
</a>
</g>
</g>
<!-- Node2 -->
<g id="node2" class="node">
<title>Node2</title>
<g id="a_node2"><a xlink:href="symmetry__i_8c.html#a52d770f57f14b01b1cdfec44136398cf" target="_top" xlink:title=" ">
<polygon fill="white" stroke="black" points="313,-392.5 313,-411.5 437,-411.5 437,-392.5 313,-392.5"/>
<text text-anchor="middle" x="375" y="-399.5" font-family="Helvetica,sans-Serif" font-size="10.00">alloc_symmetry_element</text>
</a>
</g>
</g>
<!-- Node1&#45;&gt;Node2 -->
<g id="edge1" class="edge">
<title>Node1&#45;&gt;Node2</title>
<path fill="none" stroke="midnightblue" d="M58.46,-226.52C69.4,-248.82 99.79,-304.78 142,-334 189.92,-367.18 254.13,-384.37 302.84,-393.16"/>
<polygon fill="midnightblue" stroke="midnightblue" points="302.54,-396.66 312.99,-394.91 303.73,-389.76 302.54,-396.66"/>
</g>
<!-- Node4 -->
<g id="node4" class="node">
<title>Node4</title>
<g id="a_node4"><a xlink:href="symmetry__i_8c.html#a4cd99fa0e4dd85776e474ec761ed0876" target="_top" xlink:title=" ">
<polygon fill="white" stroke="black" points="142,-305.5 142,-324.5 277,-324.5 277,-305.5 142,-305.5"/>
<text text-anchor="middle" x="209.5" y="-312.5" font-family="Helvetica,sans-Serif" font-size="10.00">destroy_symmetry_element</text>
</a>
</g>
</g>
<!-- Node1&#45;&gt;Node4 -->
<g id="edge3" class="edge">
<title>Node1&#45;&gt;Node4</title>
<path fill="none" stroke="midnightblue" d="M69.1,-226.58C95.91,-243.58 152.05,-279.2 184.31,-299.66"/>
<polygon fill="midnightblue" stroke="midnightblue" points="182.8,-302.84 193.11,-305.24 186.54,-296.93 182.8,-302.84"/>
</g>
<!-- Node5 -->
<g id="node5" class="node">
<title>Node5</title>
<g id="a_node5"><a xlink:href="symmetry__i_8c.html#a9076ebee25a926290a2d2b633ec4d869" target="_top" xlink:title=" ">
<polygon fill="white" stroke="black" points="175.5,-150.5 175.5,-169.5 243.5,-169.5 243.5,-150.5 175.5,-150.5"/>
<text text-anchor="middle" x="209.5" y="-157.5" font-family="Helvetica,sans-Serif" font-size="10.00">invert_atom</text>
</a>
</g>
</g>
<!-- Node1&#45;&gt;Node5 -->
<g id="edge5" class="edge">
<title>Node1&#45;&gt;Node5</title>
<path fill="none" stroke="midnightblue" d="M73.98,-207.49C91.62,-199.31 118.18,-187.51 142,-179 149.55,-176.3 157.69,-173.72 165.6,-171.37"/>
<polygon fill="midnightblue" stroke="midnightblue" points="166.78,-174.67 175.42,-168.54 164.84,-167.95 166.78,-174.67"/>
</g>
<!-- Node6 -->
<g id="node6" class="node">
<title>Node6</title>
<g id="a_node6"><a xlink:href="symmetry__i_8c.html#aff39b1566e9d87c46184c58d49b46ab4" target="_top" xlink:title=" ">
<polygon fill="white" stroke="black" points="146,-188.5 146,-207.5 273,-207.5 273,-188.5 146,-188.5"/>
<text text-anchor="middle" x="209.5" y="-195.5" font-family="Helvetica,sans-Serif" font-size="10.00">refine_symmetry_element</text>
</a>
</g>
</g>
<!-- Node1&#45;&gt;Node6 -->
<g id="edge6" class="edge">
<title>Node1&#45;&gt;Node6</title>
<path fill="none" stroke="midnightblue" d="M106.31,-210.57C115.73,-209.41 125.7,-208.18 135.58,-206.97"/>
<polygon fill="midnightblue" stroke="midnightblue" points="136.32,-210.4 145.82,-205.71 135.47,-203.46 136.32,-210.4"/>
</g>
<!-- Node3 -->
<g id="node3" class="node">
<title>Node3</title>
<g id="a_node3"><a xlink:href="elem_8f90.html#ae2a0e630d3a8fea4a12abcc607d7fc5d" target="_top" xlink:title=" ">
<polygon fill="white" stroke="black" points="649,-221.5 649,-240.5 687,-240.5 687,-221.5 649,-221.5"/>
<text text-anchor="middle" x="668" y="-228.5" font-family="Helvetica,sans-Serif" font-size="10.00">elem</text>
</a>
</g>
</g>
<!-- Node2&#45;&gt;Node3 -->
<g id="edge2" class="edge">
<title>Node2&#45;&gt;Node3</title>
<path fill="none" stroke="midnightblue" d="M437.24,-410.29C484.5,-413.39 549.3,-410.09 595,-378 638.48,-347.47 656.85,-283.13 663.6,-250.65"/>
<polygon fill="midnightblue" stroke="midnightblue" points="667.08,-251.07 665.53,-240.59 660.21,-249.76 667.08,-251.07"/>
</g>
<!-- Node4&#45;&gt;Node3 -->
<g id="edge4" class="edge">
<title>Node4&#45;&gt;Node3</title>
<path fill="none" stroke="midnightblue" d="M277.04,-324.55C372.05,-336.93 541.09,-353.96 595,-327 626.99,-311 648.46,-273.28 659.13,-250.17"/>
<polygon fill="midnightblue" stroke="midnightblue" points="662.47,-251.27 663.27,-240.71 656.05,-248.47 662.47,-251.27"/>
</g>
<!-- Node6&#45;&gt;Node3 -->
<g id="edge19" class="edge">
<title>Node6&#45;&gt;Node3</title>
<path fill="none" stroke="midnightblue" d="M226.63,-207.61C266.6,-230.77 374.19,-289.08 473,-307 526.35,-316.67 545.19,-328.42 595,-307 622.28,-295.27 644.07,-267.55 656.26,-249.03"/>
<polygon fill="midnightblue" stroke="midnightblue" points="659.23,-250.88 661.6,-240.56 653.31,-247.15 659.23,-250.88"/>
</g>
<!-- Node7 -->
<g id="node7" class="node">
<title>Node7</title>
<g id="a_node7"><a xlink:href="symmetry__i_8c.html#a401172a43970238f56e75a2bd25bf3a5" target="_top" xlink:title=" ">
<polygon fill="white" stroke="black" points="317,-114.5 317,-133.5 433,-133.5 433,-114.5 317,-114.5"/>
<text text-anchor="middle" x="375" y="-121.5" font-family="Helvetica,sans-Serif" font-size="10.00">check_transform_order</text>
</a>
</g>
</g>
<!-- Node6&#45;&gt;Node7 -->
<g id="edge7" class="edge">
<title>Node6&#45;&gt;Node7</title>
<path fill="none" stroke="midnightblue" d="M249.71,-188.47C258.82,-185.8 268.36,-182.62 277,-179 280.73,-177.44 320.92,-154.48 348.39,-138.72"/>
<polygon fill="midnightblue" stroke="midnightblue" points="350.21,-141.71 357.14,-133.7 346.72,-135.64 350.21,-141.71"/>
</g>
<!-- Node15 -->
<g id="node15" class="node">
<title>Node15</title>
<g id="a_node15"><a xlink:href="symmetry__i_8c.html#abcbb13fcbff6e3466225582a389ac455" target="_top" xlink:title=" ">
<polygon fill="white" stroke="black" points="473,-38.5 473,-57.5 595,-57.5 595,-38.5 473,-38.5"/>
<text text-anchor="middle" x="534" y="-45.5" font-family="Helvetica,sans-Serif" font-size="10.00">check_transform_quality</text>
</a>
</g>
</g>
<!-- Node6&#45;&gt;Node15 -->
<g id="edge16" class="edge">
<title>Node6&#45;&gt;Node15</title>
<path fill="none" stroke="midnightblue" d="M261.45,-188.39C267.06,-185.94 272.4,-182.86 277,-179 305.02,-155.49 284.69,-128.16 313,-105 355.1,-70.55 415.67,-56.67 462.6,-51.2"/>
<polygon fill="midnightblue" stroke="midnightblue" points="463.13,-54.67 472.7,-50.13 462.39,-47.71 463.13,-54.67"/>
</g>
<!-- Node17 -->
<g id="node17" class="node">
<title>Node17</title>
<g id="a_node17"><a xlink:href="symmetry__i_8c.html#a0e979a95e67dd97b50d84529eded6011" target="_top" xlink:title=" ">
<polygon fill="white" stroke="black" points="493,-0.5 493,-19.5 575,-19.5 575,-0.5 493,-0.5"/>
<text text-anchor="middle" x="534" y="-7.5" font-family="Helvetica,sans-Serif" font-size="10.00">establish_pairs</text>
</a>
</g>
</g>
<!-- Node6&#45;&gt;Node17 -->
<g id="edge20" class="edge">
<title>Node6&#45;&gt;Node17</title>
<path fill="none" stroke="midnightblue" d="M263.78,-188.35C268.65,-185.89 273.18,-182.82 277,-179 318.44,-137.47 269.74,-91.63 313,-52 358.91,-9.95 433.45,-4.07 482.85,-5.56"/>
<polygon fill="midnightblue" stroke="midnightblue" points="482.85,-9.07 492.99,-5.98 483.14,-2.07 482.85,-9.07"/>
</g>
<!-- Node18 -->
<g id="node18" class="node">
<title>Node18</title>
<g id="a_node18"><a xlink:href="symmetry__i_8c.html#a840dda299cb1beb196d463448f6b85bd" target="_top" xlink:title=" ">
<polygon fill="white" stroke="black" points="315,-207 315,-237 435,-237 435,-207 315,-207"/>
<text text-anchor="start" x="323" y="-225" font-family="Helvetica,sans-Serif" font-size="10.00">optimize_transformation</text>
<text text-anchor="middle" x="375" y="-214" font-family="Helvetica,sans-Serif" font-size="10.00">_params</text>
</a>
</g>
</g>
<!-- Node6&#45;&gt;Node18 -->
<g id="edge23" class="edge">
<title>Node6&#45;&gt;Node18</title>
<path fill="none" stroke="midnightblue" d="M273.25,-207.21C283.62,-208.73 294.42,-210.32 304.94,-211.86"/>
<polygon fill="midnightblue" stroke="midnightblue" points="304.51,-215.34 314.91,-213.33 305.53,-208.41 304.51,-215.34"/>
</g>
<!-- Node22 -->
<g id="node22" class="node">
<title>Node22</title>
<g id="a_node22"><a xlink:href="symmetry__i_8c.html#ada87e9244d2d583fb2cbc7208b3883b9" target="_top" xlink:title=" ">
<polygon fill="white" stroke="black" points="331.5,-168.5 331.5,-187.5 418.5,-187.5 418.5,-168.5 331.5,-168.5"/>
<text text-anchor="middle" x="375" y="-175.5" font-family="Helvetica,sans-Serif" font-size="10.00">same_transform</text>
</a>
</g>
</g>
<!-- Node6&#45;&gt;Node22 -->
<g id="edge32" class="edge">
<title>Node6&#45;&gt;Node22</title>
<path fill="none" stroke="midnightblue" d="M273.25,-190.32C289.05,-188.39 305.86,-186.34 321.12,-184.47"/>
<polygon fill="midnightblue" stroke="midnightblue" points="321.91,-187.9 331.42,-183.21 321.06,-180.95 321.91,-187.9"/>
</g>
<!-- Node7&#45;&gt;Node3 -->
<g id="edge8" class="edge">
<title>Node7&#45;&gt;Node3</title>
<path fill="none" stroke="midnightblue" d="M433.38,-117.21C479.66,-114.4 545.05,-116.63 595,-143 624.39,-158.52 646.26,-191.68 657.79,-212.57"/>
<polygon fill="midnightblue" stroke="midnightblue" points="654.72,-214.24 662.48,-221.45 660.91,-210.98 654.72,-214.24"/>
</g>
<!-- Node8 -->
<g id="node8" class="node">
<title>Node8</title>
<g id="a_node8"><a xlink:href="symmetry__i_8c.html#ad478abbd8c6b45859d4614081bc2660e" target="_top" xlink:title=" ">
<polygon fill="white" stroke="black" points="484,-76.5 484,-95.5 584,-95.5 584,-76.5 484,-76.5"/>
<text text-anchor="middle" x="534" y="-83.5" font-family="Helvetica,sans-Serif" font-size="10.00">rotate_reflect_atom</text>
</a>
</g>
</g>
<!-- Node7&#45;&gt;Node8 -->
<g id="edge9" class="edge">
<title>Node7&#45;&gt;Node8</title>
<path fill="none" stroke="midnightblue" d="M415.62,-114.41C436.34,-109.4 461.89,-103.21 483.86,-97.89"/>
<polygon fill="midnightblue" stroke="midnightblue" points="484.77,-101.27 493.67,-95.52 483.12,-94.47 484.77,-101.27"/>
</g>
<!-- Node9 -->
<g id="node9" class="node">
<title>Node9</title>
<g id="a_node9"><a xlink:href="namespacextb__axis.html#a17d974ca7396eb007888d7fd9743edac" target="_top" xlink:title=" ">
<polygon fill="white" stroke="black" points="631,-76.5 631,-95.5 705,-95.5 705,-76.5 631,-76.5"/>
<text text-anchor="middle" x="668" y="-83.5" font-family="Helvetica,sans-Serif" font-size="10.00">xtb_axis::axis</text>
</a>
</g>
</g>
<!-- Node8&#45;&gt;Node9 -->
<g id="edge10" class="edge">
<title>Node8&#45;&gt;Node9</title>
<path fill="none" stroke="midnightblue" d="M584.15,-86C596.06,-86 608.75,-86 620.52,-86"/>
<polygon fill="midnightblue" stroke="midnightblue" points="620.6,-89.5 630.6,-86 620.6,-82.5 620.6,-89.5"/>
</g>
<!-- Node10 -->
<g id="node10" class="node">
<title>Node10</title>
<g id="a_node10"><a xlink:href="drsp_8f.html#ac8791cdbe49427e661f00b126ce4dbbc" target="_top" xlink:title=" ">
<polygon fill="white" stroke="black" points="741,-76.5 741,-95.5 771,-95.5 771,-76.5 741,-76.5"/>
<text text-anchor="middle" x="756" y="-83.5" font-family="Helvetica,sans-Serif" font-size="10.00">rsp</text>
</a>
</g>
</g>
<!-- Node9&#45;&gt;Node10 -->
<g id="edge11" class="edge">
<title>Node9&#45;&gt;Node10</title>
<path fill="none" stroke="midnightblue" d="M705.47,-86C713.94,-86 722.74,-86 730.55,-86"/>
<polygon fill="midnightblue" stroke="midnightblue" points="730.76,-89.5 740.76,-86 730.76,-82.5 730.76,-89.5"/>
</g>
<!-- Node11 -->
<g id="node11" class="node">
<title>Node11</title>
<g id="a_node11"><a xlink:href="drsp_8f.html#a163d6464d6ff31893ac0abcfa0d6eeec" target="_top" xlink:title=" ">
<polygon fill="white" stroke="black" points="813,-133.5 813,-152.5 845,-152.5 845,-133.5 813,-133.5"/>
<text text-anchor="middle" x="829" y="-140.5" font-family="Helvetica,sans-Serif" font-size="10.00">tql2</text>
</a>
</g>
</g>
<!-- Node10&#45;&gt;Node11 -->
<g id="edge12" class="edge">
<title>Node10&#45;&gt;Node11</title>
<path fill="none" stroke="midnightblue" d="M769.04,-95.67C779.72,-104.24 795.51,-116.91 808.06,-126.99"/>
<polygon fill="midnightblue" stroke="midnightblue" points="806.14,-129.94 816.13,-133.47 810.53,-124.48 806.14,-129.94"/>
</g>
<!-- Node12 -->
<g id="node12" class="node">
<title>Node12</title>
<g id="a_node12"><a xlink:href="drsp_8f.html#a47a86ab7ed20a30b44b28253866ac7ff" target="_top" xlink:title=" ">
<polygon fill="white" stroke="black" points="810,-95.5 810,-114.5 848,-114.5 848,-95.5 810,-95.5"/>
<text text-anchor="middle" x="829" y="-102.5" font-family="Helvetica,sans-Serif" font-size="10.00">tqlrat</text>
</a>
</g>
</g>
<!-- Node10&#45;&gt;Node12 -->
<g id="edge13" class="edge">
<title>Node10&#45;&gt;Node12</title>
<path fill="none" stroke="midnightblue" d="M771.03,-89.75C779.31,-91.97 790.08,-94.85 800.03,-97.51"/>
<polygon fill="midnightblue" stroke="midnightblue" points="799.39,-100.97 809.95,-100.17 801.2,-94.2 799.39,-100.97"/>
</g>
<!-- Node13 -->
<g id="node13" class="node">
<title>Node13</title>
<g id="a_node13"><a xlink:href="drsp_8f.html#a035138691289fce6e2d30c8b3c41188f" target="_top" xlink:title=" ">
<polygon fill="white" stroke="black" points="807,-57.5 807,-76.5 851,-76.5 851,-57.5 807,-57.5"/>
<text text-anchor="middle" x="829" y="-64.5" font-family="Helvetica,sans-Serif" font-size="10.00">trbak3</text>
</a>
</g>
</g>
<!-- Node10&#45;&gt;Node13 -->
<g id="edge14" class="edge">
<title>Node10&#45;&gt;Node13</title>
<path fill="none" stroke="midnightblue" d="M771.03,-82.25C778.49,-80.25 787.97,-77.71 797.05,-75.28"/>
<polygon fill="midnightblue" stroke="midnightblue" points="798.24,-78.59 807,-72.62 796.43,-71.82 798.24,-78.59"/>
</g>
<!-- Node14 -->
<g id="node14" class="node">
<title>Node14</title>
<g id="a_node14"><a xlink:href="drsp_8f.html#a160df22dcc004ea7373039d1db601e3d" target="_top" xlink:title=" ">
<polygon fill="white" stroke="black" points="810,-19.5 810,-38.5 848,-38.5 848,-19.5 810,-19.5"/>
<text text-anchor="middle" x="829" y="-26.5" font-family="Helvetica,sans-Serif" font-size="10.00">tred3</text>
</a>
</g>
</g>
<!-- Node10&#45;&gt;Node14 -->
<g id="edge15" class="edge">
<title>Node10&#45;&gt;Node14</title>
<path fill="none" stroke="midnightblue" d="M769.04,-76.33C779.72,-67.76 795.51,-55.09 808.06,-45.01"/>
<polygon fill="midnightblue" stroke="midnightblue" points="810.53,-47.52 816.13,-38.53 806.14,-42.06 810.53,-47.52"/>
</g>
<!-- Node15&#45;&gt;Node3 -->
<g id="edge17" class="edge">
<title>Node15&#45;&gt;Node3</title>
<path fill="none" stroke="midnightblue" d="M580.22,-57.59C585.6,-60.05 590.69,-63.13 595,-67 638.64,-106.21 657.06,-176.7 663.74,-211.07"/>
<polygon fill="midnightblue" stroke="midnightblue" points="660.35,-212.02 665.57,-221.24 667.24,-210.78 660.35,-212.02"/>
</g>
<!-- Node16 -->
<g id="node16" class="node">
<title>Node16</title>
<g id="a_node16"><a xlink:href="symmetry__i_8c.html#a347fe37bf882cc1be3efe68082ffbd12" target="_top" xlink:title=" ">
<polygon fill="white" stroke="black" points="648,-38.5 648,-57.5 688,-57.5 688,-38.5 648,-38.5"/>
<text text-anchor="middle" x="668" y="-45.5" font-family="Helvetica,sans-Serif" font-size="10.00">pow2</text>
</a>
</g>
</g>
<!-- Node15&#45;&gt;Node16 -->
<g id="edge18" class="edge">
<title>Node15&#45;&gt;Node16</title>
<path fill="none" stroke="midnightblue" d="M595.21,-48C609.93,-48 625.04,-48 637.58,-48"/>
<polygon fill="midnightblue" stroke="midnightblue" points="637.86,-51.5 647.86,-48 637.86,-44.5 637.86,-51.5"/>
</g>
<!-- Node17&#45;&gt;Node3 -->
<g id="edge21" class="edge">
<title>Node17&#45;&gt;Node3</title>
<path fill="none" stroke="midnightblue" d="M575.28,-17.1C582.52,-19.86 589.5,-23.69 595,-29 608.7,-42.22 646.48,-163.3 661.11,-211.42"/>
<polygon fill="midnightblue" stroke="midnightblue" points="657.84,-212.69 664.08,-221.25 664.54,-210.66 657.84,-212.69"/>
</g>
<!-- Node17&#45;&gt;Node16 -->
<g id="edge22" class="edge">
<title>Node17&#45;&gt;Node16</title>
<path fill="none" stroke="midnightblue" d="M568.31,-19.59C589.74,-25.76 617.32,-33.7 637.88,-39.62"/>
<polygon fill="midnightblue" stroke="midnightblue" points="637.05,-43.02 647.63,-42.42 638.99,-36.29 637.05,-43.02"/>
</g>
<!-- Node18&#45;&gt;Node3 -->
<g id="edge24" class="edge">
<title>Node18&#45;&gt;Node3</title>
<path fill="none" stroke="midnightblue" d="M435.19,-228.37C447.66,-229.47 460.75,-230.43 473,-231 531.79,-233.72 600.72,-232.73 638.55,-231.82"/>
<polygon fill="midnightblue" stroke="midnightblue" points="638.89,-235.31 648.8,-231.56 638.71,-228.32 638.89,-235.31"/>
</g>
<!-- Node19 -->
<g id="node19" class="node">
<title>Node19</title>
<g id="a_node19"><a xlink:href="symmetry__i_8c.html#aa5e7898a49d284cd7813b2e3dacc0857" target="_top" xlink:title=" ">
<polygon fill="white" stroke="black" points="473,-153 473,-183 595,-183 595,-153 473,-153"/>
<text text-anchor="start" x="481" y="-171" font-family="Helvetica,sans-Serif" font-size="10.00">eval_optimization_target</text>
<text text-anchor="middle" x="534" y="-160" font-family="Helvetica,sans-Serif" font-size="10.00">_function</text>
</a>
</g>
</g>
<!-- Node18&#45;&gt;Node19 -->
<g id="edge25" class="edge">
<title>Node18&#45;&gt;Node19</title>
<path fill="none" stroke="midnightblue" d="M419.73,-206.96C438.28,-200.58 460.08,-193.08 479.57,-186.38"/>
<polygon fill="midnightblue" stroke="midnightblue" points="480.91,-189.62 489.23,-183.05 478.63,-183 480.91,-189.62"/>
</g>
<!-- Node20 -->
<g id="node20" class="node">
<title>Node20</title>
<g id="a_node20"><a xlink:href="symmetry__i_8c.html#ad72477419409dc5d22f1f00ac0bd8609" target="_top" xlink:title=" ">
<polygon fill="white" stroke="black" points="500,-202.5 500,-221.5 568,-221.5 568,-202.5 500,-202.5"/>
<text text-anchor="middle" x="534" y="-209.5" font-family="Helvetica,sans-Serif" font-size="10.00">get_params</text>
</a>
</g>
</g>
<!-- Node18&#45;&gt;Node20 -->
<g id="edge28" class="edge">
<title>Node18&#45;&gt;Node20</title>
<path fill="none" stroke="midnightblue" d="M435.35,-218.22C453.48,-217.07 473.05,-215.82 489.88,-214.75"/>
<polygon fill="midnightblue" stroke="midnightblue" points="490.2,-218.23 499.96,-214.1 489.76,-211.25 490.2,-218.23"/>
</g>
<!-- Node21 -->
<g id="node21" class="node">
<title>Node21</title>
<g id="a_node21"><a xlink:href="symmetry__i_8c.html#a0314524bc1022f80982ecf4dd39ddbc2" target="_top" xlink:title=" ">
<polygon fill="white" stroke="black" points="500,-278.5 500,-297.5 568,-297.5 568,-278.5 500,-278.5"/>
<text text-anchor="middle" x="534" y="-285.5" font-family="Helvetica,sans-Serif" font-size="10.00">set_params</text>
</a>
</g>
</g>
<!-- Node18&#45;&gt;Node21 -->
<g id="edge30" class="edge">
<title>Node18&#45;&gt;Node21</title>
<path fill="none" stroke="midnightblue" d="M410.02,-237.01C428.58,-245.13 451.99,-255.25 473,-264 481.5,-267.54 490.72,-271.28 499.33,-274.72"/>
<polygon fill="midnightblue" stroke="midnightblue" points="498.12,-278.01 508.71,-278.46 500.71,-271.51 498.12,-278.01"/>
</g>
<!-- Node19&#45;&gt;Node3 -->
<g id="edge26" class="edge">
<title>Node19&#45;&gt;Node3</title>
<path fill="none" stroke="midnightblue" d="M572.68,-183.08C580.13,-186.24 587.85,-189.63 595,-193 610.58,-200.34 627.65,-209.3 641.25,-216.68"/>
<polygon fill="midnightblue" stroke="midnightblue" points="639.6,-219.77 650.05,-221.5 642.96,-213.63 639.6,-219.77"/>
</g>
<!-- Node19&#45;&gt;Node16 -->
<g id="edge27" class="edge">
<title>Node19&#45;&gt;Node16</title>
<path fill="none" stroke="midnightblue" d="M549.32,-152.99C561.48,-140.23 579.4,-121.43 595,-105 611.02,-88.13 612.47,-81.06 631,-67 633.51,-65.1 636.24,-63.28 639.03,-61.58"/>
<polygon fill="midnightblue" stroke="midnightblue" points="640.97,-64.5 647.98,-56.56 637.55,-58.39 640.97,-64.5"/>
</g>
<!-- Node20&#45;&gt;Node3 -->
<g id="edge29" class="edge">
<title>Node20&#45;&gt;Node3</title>
<path fill="none" stroke="midnightblue" d="M568.31,-216.79C590.03,-219.92 618.08,-223.96 638.71,-226.93"/>
<polygon fill="midnightblue" stroke="midnightblue" points="638.36,-230.41 648.76,-228.37 639.36,-223.49 638.36,-230.41"/>
</g>
<!-- Node21&#45;&gt;Node3 -->
<g id="edge31" class="edge">
<title>Node21&#45;&gt;Node3</title>
<path fill="none" stroke="midnightblue" d="M559.63,-278.46C570.52,-274.17 583.45,-268.95 595,-264 609.85,-257.63 626.23,-250.16 639.61,-243.94"/>
<polygon fill="midnightblue" stroke="midnightblue" points="641.19,-247.06 648.76,-239.66 638.22,-240.72 641.19,-247.06"/>
</g>
</g>
</svg>
