<?xml version="1.0" encoding="UTF-8" standalone="no"?>
<!DOCTYPE svg PUBLIC "-//W3C//DTD SVG 1.1//EN"
 "http://www.w3.org/Graphics/SVG/1.1/DTD/svg11.dtd">
<!-- Generated by graphviz version 2.46.0 (20210122.1329)
 -->
<!-- Title: destroy_symmetry_element Pages: 1 -->
<svg width="849pt" height="218pt"
 viewBox="0.00 0.00 849.00 218.00" xmlns="http://www.w3.org/2000/svg" xmlns:xlink="http://www.w3.org/1999/xlink">
<g id="graph0" class="graph" transform="scale(1 1) rotate(0) translate(4 214)">
<title>destroy_symmetry_element</title>
<polygon fill="white" stroke="transparent" points="-4,4 -4,-214 845,-214 845,4 -4,4"/>
<!-- Node1 -->
<g id="node1" class="node">
<title>Node1</title>
<g id="a_node1"><a xlink:title=" ">
<polygon fill="#bfbfbf" stroke="black" points="706,-95.5 706,-114.5 841,-114.5 841,-95.5 706,-95.5"/>
<text text-anchor="middle" x="773.5" y="-102.5" font-family="Helvetica,sans-Serif" font-size="10.00">destroy_symmetry_element</text>
</a>
</g>
</g>
<!-- Node2 -->
<g id="node2" class="node">
<title>Node2</title>
<g id="a_node2"><a xlink:href="symmetry__i_8c.html#a64141aa48feafed7ea902983e9420710" target="_top" xlink:title=" ">
<polygon fill="white" stroke="black" points="583,-190.5 583,-209.5 651,-209.5 651,-190.5 583,-190.5"/>
<text text-anchor="middle" x="617" y="-197.5" font-family="Helvetica,sans-Serif" font-size="10.00">init_c2_axis</text>
</a>
</g>
</g>
<!-- Node1&#45;&gt;Node2 -->
<g id="edge1" class="edge">
<title>Node1&#45;&gt;Node2</title>
<path fill="none" stroke="midnightblue" d="M754.24,-121.1C734.55,-137.83 701.74,-163.9 670,-181 663.32,-184.6 655.8,-187.79 648.61,-190.48"/>
<polygon fill="midnightblue" stroke="midnightblue" points="756.54,-123.73 761.84,-114.56 751.98,-118.43 756.54,-123.73"/>
</g>
<!-- Node8 -->
<g id="node8" class="node">
<title>Node8</title>
<g id="a_node8"><a xlink:href="symmetry__i_8c.html#aefd8cb52cd2813008ffac12799461733" target="_top" xlink:title=" ">
<polygon fill="white" stroke="black" points="575.5,-152.5 575.5,-171.5 658.5,-171.5 658.5,-152.5 575.5,-152.5"/>
<text text-anchor="middle" x="617" y="-159.5" font-family="Helvetica,sans-Serif" font-size="10.00">init_higher_axis</text>
</a>
</g>
</g>
<!-- Node1&#45;&gt;Node8 -->
<g id="edge7" class="edge">
<title>Node1&#45;&gt;Node8</title>
<path fill="none" stroke="midnightblue" d="M737.29,-118.1C717.52,-125.44 692.4,-134.76 670,-143 661.61,-146.09 652.46,-149.44 644.2,-152.46"/>
<polygon fill="midnightblue" stroke="midnightblue" points="738.66,-121.32 746.82,-114.56 736.22,-114.76 738.66,-121.32"/>
</g>
<!-- Node10 -->
<g id="node10" class="node">
<title>Node10</title>
<g id="a_node10"><a xlink:href="symmetry__i_8c.html#a630773e4f2973515dc5079ce892f6d3a" target="_top" xlink:title=" ">
<polygon fill="white" stroke="black" points="569.5,-114.5 569.5,-133.5 664.5,-133.5 664.5,-114.5 569.5,-114.5"/>
<text text-anchor="middle" x="617" y="-121.5" font-family="Helvetica,sans-Serif" font-size="10.00">init_improper_axis</text>
</a>
</g>
</g>
<!-- Node1&#45;&gt;Node10 -->
<g id="edge10" class="edge">
<title>Node1&#45;&gt;Node10</title>
<path fill="none" stroke="midnightblue" d="M695.51,-114.47C684.91,-115.77 674.32,-117.07 664.51,-118.28"/>
<polygon fill="midnightblue" stroke="midnightblue" points="696.13,-117.92 705.63,-113.22 695.28,-110.97 696.13,-117.92"/>
</g>
<!-- Node12 -->
<g id="node12" class="node">
<title>Node12</title>
<g id="a_node12"><a xlink:href="symmetry__i_8c.html#a26bc67027c2e60cc5dbbf0cdcc2837be" target="_top" xlink:title=" ">
<polygon fill="white" stroke="black" points="564,-76.5 564,-95.5 670,-95.5 670,-76.5 564,-76.5"/>
<text text-anchor="middle" x="617" y="-83.5" font-family="Helvetica,sans-Serif" font-size="10.00">init_inversion_center</text>
</a>
</g>
</g>
<!-- Node1&#45;&gt;Node12 -->
<g id="edge13" class="edge">
<title>Node1&#45;&gt;Node12</title>
<path fill="none" stroke="midnightblue" d="M695.53,-95.53C686.9,-94.47 678.27,-93.41 670.07,-92.4"/>
<polygon fill="midnightblue" stroke="midnightblue" points="695.28,-99.03 705.63,-96.78 696.13,-92.08 695.28,-99.03"/>
</g>
<!-- Node14 -->
<g id="node14" class="node">
<title>Node14</title>
<g id="a_node14"><a xlink:href="symmetry__i_8c.html#a28a580c316f874592fa976504885670c" target="_top" xlink:title=" ">
<polygon fill="white" stroke="black" points="573,-38.5 573,-57.5 661,-57.5 661,-38.5 573,-38.5"/>
<text text-anchor="middle" x="617" y="-45.5" font-family="Helvetica,sans-Serif" font-size="10.00">init_mirror_plane</text>
</a>
</g>
</g>
<!-- Node1&#45;&gt;Node14 -->
<g id="edge16" class="edge">
<title>Node1&#45;&gt;Node14</title>
<path fill="none" stroke="midnightblue" d="M737.29,-91.9C717.52,-84.56 692.4,-75.24 670,-67 661.61,-63.91 652.46,-60.56 644.2,-57.54"/>
<polygon fill="midnightblue" stroke="midnightblue" points="736.22,-95.24 746.82,-95.44 738.66,-88.68 736.22,-95.24"/>
</g>
<!-- Node16 -->
<g id="node16" class="node">
<title>Node16</title>
<g id="a_node16"><a xlink:href="symmetry__i_8c.html#a6c28e9e49e1179d0bc2ded3d008b6499" target="_top" xlink:title=" ">
<polygon fill="white" stroke="black" points="568,-0.5 568,-19.5 666,-19.5 666,-0.5 568,-0.5"/>
<text text-anchor="middle" x="617" y="-7.5" font-family="Helvetica,sans-Serif" font-size="10.00">init_ultimate_plane</text>
</a>
</g>
</g>
<!-- Node1&#45;&gt;Node16 -->
<g id="edge19" class="edge">
<title>Node1&#45;&gt;Node16</title>
<path fill="none" stroke="midnightblue" d="M754.24,-88.9C734.55,-72.17 701.74,-46.1 670,-29 663.32,-25.4 655.8,-22.21 648.61,-19.52"/>
<polygon fill="midnightblue" stroke="midnightblue" points="751.98,-91.57 761.84,-95.44 756.54,-86.27 751.98,-91.57"/>
</g>
<!-- Node3 -->
<g id="node3" class="node">
<title>Node3</title>
<g id="a_node3"><a xlink:href="symmetry__i_8c.html#a70bfe9695b008eea2aa9a740a8090823" target="_top" xlink:title=" ">
<polygon fill="white" stroke="black" points="435,-190.5 435,-209.5 508,-209.5 508,-190.5 435,-190.5"/>
<text text-anchor="middle" x="471.5" y="-197.5" font-family="Helvetica,sans-Serif" font-size="10.00">find_c2_axes</text>
</a>
</g>
</g>
<!-- Node2&#45;&gt;Node3 -->
<g id="edge2" class="edge">
<title>Node2&#45;&gt;Node3</title>
<path fill="none" stroke="midnightblue" d="M572.62,-200C551.99,-200 527.64,-200 508.11,-200"/>
<polygon fill="midnightblue" stroke="midnightblue" points="572.72,-203.5 582.72,-200 572.72,-196.5 572.72,-203.5"/>
</g>
<!-- Node4 -->
<g id="node4" class="node">
<title>Node4</title>
<g id="a_node4"><a xlink:href="symmetry__i_8c.html#a65f666e81a867d34e263423c6cbda622" target="_top" xlink:title=" ">
<polygon fill="white" stroke="black" points="255,-114.5 255,-133.5 379,-133.5 379,-114.5 255,-114.5"/>
<text text-anchor="middle" x="317" y="-121.5" font-family="Helvetica,sans-Serif" font-size="10.00">find_symmetry_elements</text>
</a>
</g>
</g>
<!-- Node3&#45;&gt;Node4 -->
<g id="edge3" class="edge">
<title>Node3&#45;&gt;Node4</title>
<path fill="none" stroke="midnightblue" d="M429.5,-187.02C424.56,-185.14 419.62,-183.12 415,-181 384.29,-166.9 350.79,-145.82 332.29,-133.64"/>
<polygon fill="midnightblue" stroke="midnightblue" points="428.36,-190.32 438.95,-190.43 430.74,-183.74 428.36,-190.32"/>
</g>
<!-- Node5 -->
<g id="node5" class="node">
<title>Node5</title>
<g id="a_node5"><a xlink:href="symmetry__i_8c.html#a4f248fe6bdc62df2f41c5abd34e81ed1" target="_top" xlink:title=" ">
<polygon fill="white" stroke="black" points="158.5,-133.5 158.5,-152.5 214.5,-152.5 214.5,-133.5 158.5,-133.5"/>
<text text-anchor="middle" x="186.5" y="-140.5" font-family="Helvetica,sans-Serif" font-size="10.00">old_main</text>
</a>
</g>
</g>
<!-- Node4&#45;&gt;Node5 -->
<g id="edge4" class="edge">
<title>Node4&#45;&gt;Node5</title>
<path fill="none" stroke="midnightblue" d="M244.86,-134.52C234.11,-136.11 223.63,-137.66 214.62,-138.99"/>
<polygon fill="midnightblue" stroke="midnightblue" points="245.38,-137.98 254.76,-133.05 244.36,-131.06 245.38,-137.98"/>
</g>
<!-- Node6 -->
<g id="node6" class="node">
<title>Node6</title>
<g id="a_node6"><a xlink:href="symmetry__i_8c.html#a6c9de386e61e3a35d683a216dbcd1528" target="_top" xlink:title=" ">
<polygon fill="white" stroke="black" points="154,-95.5 154,-114.5 219,-114.5 219,-95.5 154,-95.5"/>
<text text-anchor="middle" x="186.5" y="-102.5" font-family="Helvetica,sans-Serif" font-size="10.00">schoenflies</text>
</a>
</g>
</g>
<!-- Node4&#45;&gt;Node6 -->
<g id="edge5" class="edge">
<title>Node4&#45;&gt;Node6</title>
<path fill="none" stroke="midnightblue" d="M244.69,-113.46C235.81,-112.14 227.1,-110.86 219.27,-109.7"/>
<polygon fill="midnightblue" stroke="midnightblue" points="244.36,-116.94 254.76,-114.95 245.38,-110.02 244.36,-116.94"/>
</g>
<!-- Node7 -->
<g id="node7" class="node">
<title>Node7</title>
<g id="a_node7"><a xlink:href="interfacec__interface.html#a98e1aed930d85608299bba1f41a6b07d" target="_top" xlink:title=" ">
<polygon fill="white" stroke="black" points="0,-95.5 0,-114.5 118,-114.5 118,-95.5 0,-95.5"/>
<text text-anchor="middle" x="59" y="-102.5" font-family="Helvetica,sans-Serif" font-size="10.00">c_interface::schoenflies</text>
</a>
</g>
</g>
<!-- Node6&#45;&gt;Node7 -->
<g id="edge6" class="edge">
<title>Node6&#45;&gt;Node7</title>
<path fill="none" stroke="midnightblue" d="M143.74,-105C135.5,-105 126.72,-105 118.05,-105"/>
<polygon fill="midnightblue" stroke="midnightblue" points="143.83,-108.5 153.83,-105 143.83,-101.5 143.83,-108.5"/>
</g>
<!-- Node9 -->
<g id="node9" class="node">
<title>Node9</title>
<g id="a_node9"><a xlink:href="symmetry__i_8c.html#a49b87621120ab2d2cbfb4594ab6c1ab0" target="_top" xlink:title=" ">
<polygon fill="white" stroke="black" points="427,-152.5 427,-171.5 516,-171.5 516,-152.5 427,-152.5"/>
<text text-anchor="middle" x="471.5" y="-159.5" font-family="Helvetica,sans-Serif" font-size="10.00">find_higher_axes</text>
</a>
</g>
</g>
<!-- Node8&#45;&gt;Node9 -->
<g id="edge8" class="edge">
<title>Node8&#45;&gt;Node9</title>
<path fill="none" stroke="midnightblue" d="M565.01,-162C549.02,-162 531.53,-162 516.1,-162"/>
<polygon fill="midnightblue" stroke="midnightblue" points="565.26,-165.5 575.26,-162 565.26,-158.5 565.26,-165.5"/>
</g>
<!-- Node9&#45;&gt;Node4 -->
<g id="edge9" class="edge">
<title>Node9&#45;&gt;Node4</title>
<path fill="none" stroke="midnightblue" d="M422.18,-149.96C400.88,-144.65 376.2,-138.5 356.21,-133.52"/>
<polygon fill="midnightblue" stroke="midnightblue" points="421.47,-153.39 432.02,-152.41 423.16,-146.6 421.47,-153.39"/>
</g>
<!-- Node11 -->
<g id="node11" class="node">
<title>Node11</title>
<g id="a_node11"><a xlink:href="symmetry__i_8c.html#a317b62be7bbb27bca96065c7f547eca8" target="_top" xlink:title=" ">
<polygon fill="white" stroke="black" points="421.5,-114.5 421.5,-133.5 521.5,-133.5 521.5,-114.5 421.5,-114.5"/>
<text text-anchor="middle" x="471.5" y="-121.5" font-family="Helvetica,sans-Serif" font-size="10.00">find_improper_axes</text>
</a>
</g>
</g>
<!-- Node10&#45;&gt;Node11 -->
<g id="edge11" class="edge">
<title>Node10&#45;&gt;Node11</title>
<path fill="none" stroke="midnightblue" d="M559.21,-124C546.84,-124 533.86,-124 521.82,-124"/>
<polygon fill="midnightblue" stroke="midnightblue" points="559.41,-127.5 569.41,-124 559.41,-120.5 559.41,-127.5"/>
</g>
<!-- Node11&#45;&gt;Node4 -->
<g id="edge12" class="edge">
<title>Node11&#45;&gt;Node4</title>
<path fill="none" stroke="midnightblue" d="M411.4,-124C400.79,-124 389.7,-124 379.03,-124"/>
<polygon fill="midnightblue" stroke="midnightblue" points="411.41,-127.5 421.41,-124 411.41,-120.5 411.41,-127.5"/>
</g>
<!-- Node13 -->
<g id="node13" class="node">
<title>Node13</title>
<g id="a_node13"><a xlink:href="symmetry__i_8c.html#a33142755e78f0ec77c8b931e270e0ef5" target="_top" xlink:title=" ">
<polygon fill="white" stroke="black" points="415,-76.5 415,-95.5 528,-95.5 528,-76.5 415,-76.5"/>
<text text-anchor="middle" x="471.5" y="-83.5" font-family="Helvetica,sans-Serif" font-size="10.00">find_inversion_centers</text>
</a>
</g>
</g>
<!-- Node12&#45;&gt;Node13 -->
<g id="edge14" class="edge">
<title>Node12&#45;&gt;Node13</title>
<path fill="none" stroke="midnightblue" d="M553.63,-86C545.2,-86 536.6,-86 528.3,-86"/>
<polygon fill="midnightblue" stroke="midnightblue" points="553.79,-89.5 563.79,-86 553.79,-82.5 553.79,-89.5"/>
</g>
<!-- Node13&#45;&gt;Node4 -->
<g id="edge15" class="edge">
<title>Node13&#45;&gt;Node4</title>
<path fill="none" stroke="midnightblue" d="M422.18,-98.04C400.88,-103.35 376.2,-109.5 356.21,-114.48"/>
<polygon fill="midnightblue" stroke="midnightblue" points="423.16,-101.4 432.02,-95.59 421.47,-94.61 423.16,-101.4"/>
</g>
<!-- Node15 -->
<g id="node15" class="node">
<title>Node15</title>
<g id="a_node15"><a xlink:href="symmetry__i_8c.html#adc43fe3d7619599e2aa3405466fc99d8" target="_top" xlink:title=" ">
<polygon fill="white" stroke="black" points="439,-38.5 439,-57.5 504,-57.5 504,-38.5 439,-38.5"/>
<text text-anchor="middle" x="471.5" y="-45.5" font-family="Helvetica,sans-Serif" font-size="10.00">find_planes</text>
</a>
</g>
</g>
<!-- Node14&#45;&gt;Node15 -->
<g id="edge17" class="edge">
<title>Node14&#45;&gt;Node15</title>
<path fill="none" stroke="midnightblue" d="M562.84,-48C543.1,-48 521.34,-48 504.12,-48"/>
<polygon fill="midnightblue" stroke="midnightblue" points="562.95,-51.5 572.95,-48 562.95,-44.5 562.95,-51.5"/>
</g>
<!-- Node15&#45;&gt;Node4 -->
<g id="edge18" class="edge">
<title>Node15&#45;&gt;Node4</title>
<path fill="none" stroke="midnightblue" d="M429.5,-60.98C424.56,-62.86 419.62,-64.88 415,-67 384.29,-81.1 350.79,-102.18 332.29,-114.36"/>
<polygon fill="midnightblue" stroke="midnightblue" points="430.74,-64.26 438.95,-57.57 428.36,-57.68 430.74,-64.26"/>
</g>
<!-- Node16&#45;&gt;Node15 -->
<g id="edge20" class="edge">
<title>Node16&#45;&gt;Node15</title>
<path fill="none" stroke="midnightblue" d="M569.92,-22.2C548.5,-27.87 523.58,-34.47 504.3,-39.58"/>
<polygon fill="midnightblue" stroke="midnightblue" points="571.02,-25.53 579.79,-19.59 569.23,-18.77 571.02,-25.53"/>
</g>
</g>
</svg>
