<?xml version="1.0" encoding="UTF-8" standalone="no"?>
<!DOCTYPE svg PUBLIC "-//W3C//DTD SVG 1.1//EN"
 "http://www.w3.org/Graphics/SVG/1.1/DTD/svg11.dtd">
<!-- Generated by graphviz version 2.46.0 (20210122.1329)
 -->
<!-- Title: find_higher_axes Pages: 1 -->
<svg width="959pt" height="560pt"
 viewBox="0.00 0.00 959.00 559.61" xmlns="http://www.w3.org/2000/svg" xmlns:xlink="http://www.w3.org/1999/xlink">
<g id="graph0" class="graph" transform="scale(1 1) rotate(0) translate(4 555.61)">
<title>find_higher_axes</title>
<polygon fill="white" stroke="transparent" points="-4,4 -4,-555.61 955,-555.61 955,4 -4,4"/>
<!-- Node1 -->
<g id="node1" class="node">
<title>Node1</title>
<g id="a_node1"><a xlink:title=" ">
<polygon fill="#bfbfbf" stroke="black" points="0,-28.5 0,-47.5 89,-47.5 89,-28.5 0,-28.5"/>
<text text-anchor="middle" x="44.5" y="-35.5" font-family="Helvetica,sans-Serif" font-size="10.00">find_higher_axes</text>
</a>
</g>
</g>
<!-- Node2 -->
<g id="node2" class="node">
<title>Node2</title>
<g id="a_node2"><a xlink:href="namespacextb__axis.html#a17d974ca7396eb007888d7fd9743edac" target="_top" xlink:title=" ">
<polygon fill="white" stroke="black" points="731,-66.5 731,-85.5 805,-85.5 805,-66.5 731,-66.5"/>
<text text-anchor="middle" x="768" y="-73.5" font-family="Helvetica,sans-Serif" font-size="10.00">xtb_axis::axis</text>
</a>
</g>
</g>
<!-- Node1&#45;&gt;Node2 -->
<g id="edge1" class="edge">
<title>Node1&#45;&gt;Node2</title>
<path fill="none" stroke="midnightblue" d="M86.55,-28.41C138.41,-17.15 230.56,0 310.5,0 310.5,0 310.5,0 476,0 575.46,0 600.01,-16.52 695,-46 709.33,-50.45 724.73,-56.66 737.61,-62.28"/>
<polygon fill="midnightblue" stroke="midnightblue" points="736.34,-65.55 746.89,-66.42 739.19,-59.15 736.34,-65.55"/>
</g>
<!-- Node8 -->
<g id="node8" class="node">
<title>Node8</title>
<g id="a_node8"><a xlink:href="symmetry__i_8c.html#aefd8cb52cd2813008ffac12799461733" target="_top" xlink:title=" ">
<polygon fill="white" stroke="black" points="125,-85.5 125,-104.5 208,-104.5 208,-85.5 125,-85.5"/>
<text text-anchor="middle" x="166.5" y="-92.5" font-family="Helvetica,sans-Serif" font-size="10.00">init_higher_axis</text>
</a>
</g>
</g>
<!-- Node1&#45;&gt;Node8 -->
<g id="edge7" class="edge">
<title>Node1&#45;&gt;Node8</title>
<path fill="none" stroke="midnightblue" d="M65.59,-47.54C84.88,-56.71 114.26,-70.66 136.17,-81.07"/>
<polygon fill="midnightblue" stroke="midnightblue" points="134.81,-84.3 145.35,-85.43 137.82,-77.98 134.81,-84.3"/>
</g>
<!-- Node3 -->
<g id="node3" class="node">
<title>Node3</title>
<g id="a_node3"><a xlink:href="drsp_8f.html#ac8791cdbe49427e661f00b126ce4dbbc" target="_top" xlink:title=" ">
<polygon fill="white" stroke="black" points="841,-66.5 841,-85.5 871,-85.5 871,-66.5 841,-66.5"/>
<text text-anchor="middle" x="856" y="-73.5" font-family="Helvetica,sans-Serif" font-size="10.00">rsp</text>
</a>
</g>
</g>
<!-- Node2&#45;&gt;Node3 -->
<g id="edge2" class="edge">
<title>Node2&#45;&gt;Node3</title>
<path fill="none" stroke="midnightblue" d="M805.47,-76C813.94,-76 822.74,-76 830.55,-76"/>
<polygon fill="midnightblue" stroke="midnightblue" points="830.76,-79.5 840.76,-76 830.76,-72.5 830.76,-79.5"/>
</g>
<!-- Node4 -->
<g id="node4" class="node">
<title>Node4</title>
<g id="a_node4"><a xlink:href="drsp_8f.html#a163d6464d6ff31893ac0abcfa0d6eeec" target="_top" xlink:title=" ">
<polygon fill="white" stroke="black" points="913,-123.5 913,-142.5 945,-142.5 945,-123.5 913,-123.5"/>
<text text-anchor="middle" x="929" y="-130.5" font-family="Helvetica,sans-Serif" font-size="10.00">tql2</text>
</a>
</g>
</g>
<!-- Node3&#45;&gt;Node4 -->
<g id="edge3" class="edge">
<title>Node3&#45;&gt;Node4</title>
<path fill="none" stroke="midnightblue" d="M869.04,-85.67C879.72,-94.24 895.51,-106.91 908.06,-116.99"/>
<polygon fill="midnightblue" stroke="midnightblue" points="906.14,-119.94 916.13,-123.47 910.53,-114.48 906.14,-119.94"/>
</g>
<!-- Node5 -->
<g id="node5" class="node">
<title>Node5</title>
<g id="a_node5"><a xlink:href="drsp_8f.html#a47a86ab7ed20a30b44b28253866ac7ff" target="_top" xlink:title=" ">
<polygon fill="white" stroke="black" points="910,-85.5 910,-104.5 948,-104.5 948,-85.5 910,-85.5"/>
<text text-anchor="middle" x="929" y="-92.5" font-family="Helvetica,sans-Serif" font-size="10.00">tqlrat</text>
</a>
</g>
</g>
<!-- Node3&#45;&gt;Node5 -->
<g id="edge4" class="edge">
<title>Node3&#45;&gt;Node5</title>
<path fill="none" stroke="midnightblue" d="M871.03,-79.75C879.31,-81.97 890.08,-84.85 900.03,-87.51"/>
<polygon fill="midnightblue" stroke="midnightblue" points="899.39,-90.97 909.95,-90.17 901.2,-84.2 899.39,-90.97"/>
</g>
<!-- Node6 -->
<g id="node6" class="node">
<title>Node6</title>
<g id="a_node6"><a xlink:href="drsp_8f.html#a035138691289fce6e2d30c8b3c41188f" target="_top" xlink:title=" ">
<polygon fill="white" stroke="black" points="907,-47.5 907,-66.5 951,-66.5 951,-47.5 907,-47.5"/>
<text text-anchor="middle" x="929" y="-54.5" font-family="Helvetica,sans-Serif" font-size="10.00">trbak3</text>
</a>
</g>
</g>
<!-- Node3&#45;&gt;Node6 -->
<g id="edge5" class="edge">
<title>Node3&#45;&gt;Node6</title>
<path fill="none" stroke="midnightblue" d="M871.03,-72.25C878.49,-70.25 887.97,-67.71 897.05,-65.28"/>
<polygon fill="midnightblue" stroke="midnightblue" points="898.24,-68.59 907,-62.62 896.43,-61.82 898.24,-68.59"/>
</g>
<!-- Node7 -->
<g id="node7" class="node">
<title>Node7</title>
<g id="a_node7"><a xlink:href="drsp_8f.html#a160df22dcc004ea7373039d1db601e3d" target="_top" xlink:title=" ">
<polygon fill="white" stroke="black" points="910,-9.5 910,-28.5 948,-28.5 948,-9.5 910,-9.5"/>
<text text-anchor="middle" x="929" y="-16.5" font-family="Helvetica,sans-Serif" font-size="10.00">tred3</text>
</a>
</g>
</g>
<!-- Node3&#45;&gt;Node7 -->
<g id="edge6" class="edge">
<title>Node3&#45;&gt;Node7</title>
<path fill="none" stroke="midnightblue" d="M869.04,-66.33C879.72,-57.76 895.51,-45.09 908.06,-35.01"/>
<polygon fill="midnightblue" stroke="midnightblue" points="910.53,-37.52 916.13,-28.53 906.14,-32.06 910.53,-37.52"/>
</g>
<!-- Node8&#45;&gt;Node2 -->
<g id="edge8" class="edge">
<title>Node8&#45;&gt;Node2</title>
<path fill="none" stroke="midnightblue" d="M208.23,-93.71C315.83,-90.3 607.1,-81.07 720.72,-77.47"/>
<polygon fill="midnightblue" stroke="midnightblue" points="720.95,-80.96 730.84,-77.15 720.73,-73.96 720.95,-80.96"/>
</g>
<!-- Node9 -->
<g id="node9" class="node">
<title>Node9</title>
<g id="a_node9"><a xlink:href="symmetry__i_8c.html#a4cd99fa0e4dd85776e474ec761ed0876" target="_top" xlink:title=" ">
<polygon fill="white" stroke="black" points="244,-414.5 244,-433.5 379,-433.5 379,-414.5 244,-414.5"/>
<text text-anchor="middle" x="311.5" y="-421.5" font-family="Helvetica,sans-Serif" font-size="10.00">destroy_symmetry_element</text>
</a>
</g>
</g>
<!-- Node8&#45;&gt;Node9 -->
<g id="edge9" class="edge">
<title>Node8&#45;&gt;Node9</title>
<path fill="none" stroke="midnightblue" d="M171.11,-104.58C181.71,-132.58 213.93,-216.65 244,-285 263.12,-328.45 287.68,-378.45 300.96,-405.04"/>
<polygon fill="midnightblue" stroke="midnightblue" points="298,-406.95 305.61,-414.32 304.26,-403.82 298,-406.95"/>
</g>
<!-- Node11 -->
<g id="node11" class="node">
<title>Node11</title>
<g id="a_node11"><a xlink:href="symmetry__i_8c.html#aab43e6eec0762c0f8ed2e1f00487aabf" target="_top" xlink:title=" ">
<polygon fill="white" stroke="black" points="422,-104.5 422,-123.5 528,-123.5 528,-104.5 422,-104.5"/>
<text text-anchor="middle" x="475" y="-111.5" font-family="Helvetica,sans-Serif" font-size="10.00">init_axis_parameters</text>
</a>
</g>
</g>
<!-- Node8&#45;&gt;Node11 -->
<g id="edge11" class="edge">
<title>Node8&#45;&gt;Node11</title>
<path fill="none" stroke="midnightblue" d="M208.2,-97.52C260.23,-100.75 350.84,-106.37 411.61,-110.13"/>
<polygon fill="midnightblue" stroke="midnightblue" points="411.64,-113.64 421.84,-110.77 412.08,-106.65 411.64,-113.64"/>
</g>
<!-- Node13 -->
<g id="node13" class="node">
<title>Node13</title>
<g id="a_node13"><a xlink:href="symmetry__i_8c.html#aff39b1566e9d87c46184c58d49b46ab4" target="_top" xlink:title=" ">
<polygon fill="white" stroke="black" points="248,-256.5 248,-275.5 375,-275.5 375,-256.5 248,-256.5"/>
<text text-anchor="middle" x="311.5" y="-263.5" font-family="Helvetica,sans-Serif" font-size="10.00">refine_symmetry_element</text>
</a>
</g>
</g>
<!-- Node8&#45;&gt;Node13 -->
<g id="edge15" class="edge">
<title>Node8&#45;&gt;Node13</title>
<path fill="none" stroke="midnightblue" d="M175.6,-104.68C198.8,-132.43 265.78,-212.52 295.72,-248.33"/>
<polygon fill="midnightblue" stroke="midnightblue" points="293.39,-251 302.49,-256.42 298.76,-246.51 293.39,-251"/>
</g>
<!-- Node24 -->
<g id="node24" class="node">
<title>Node24</title>
<g id="a_node24"><a xlink:href="symmetry__i_8c.html#ac17305b859f184b2c84cac9a508a3854" target="_top" xlink:title=" ">
<polygon fill="white" stroke="black" points="277.5,-28.5 277.5,-47.5 345.5,-47.5 345.5,-28.5 277.5,-28.5"/>
<text text-anchor="middle" x="311.5" y="-35.5" font-family="Helvetica,sans-Serif" font-size="10.00">rotate_atom</text>
</a>
</g>
</g>
<!-- Node8&#45;&gt;Node24 -->
<g id="edge37" class="edge">
<title>Node8&#45;&gt;Node24</title>
<path fill="none" stroke="midnightblue" d="M188.79,-85.4C204.06,-78.62 225.17,-69.45 244,-62 253.4,-58.28 263.64,-54.47 273.2,-51.01"/>
<polygon fill="midnightblue" stroke="midnightblue" points="274.62,-54.22 282.86,-47.55 272.26,-47.63 274.62,-54.22"/>
</g>
<!-- Node10 -->
<g id="node10" class="node">
<title>Node10</title>
<g id="a_node10"><a xlink:href="elem_8f90.html#ae2a0e630d3a8fea4a12abcc607d7fc5d" target="_top" xlink:title=" ">
<polygon fill="white" stroke="black" points="749,-351.5 749,-370.5 787,-370.5 787,-351.5 749,-351.5"/>
<text text-anchor="middle" x="768" y="-358.5" font-family="Helvetica,sans-Serif" font-size="10.00">elem</text>
</a>
</g>
</g>
<!-- Node9&#45;&gt;Node10 -->
<g id="edge10" class="edge">
<title>Node9&#45;&gt;Node10</title>
<path fill="none" stroke="midnightblue" d="M324.53,-433.54C374.32,-471.81 567.63,-608.19 695,-525 701.51,-520.75 741.81,-423 759.12,-380.47"/>
<polygon fill="midnightblue" stroke="midnightblue" points="762.47,-381.52 762.99,-370.94 755.98,-378.89 762.47,-381.52"/>
</g>
<!-- Node11&#45;&gt;Node2 -->
<g id="edge14" class="edge">
<title>Node11&#45;&gt;Node2</title>
<path fill="none" stroke="midnightblue" d="M528.37,-109.49C572.84,-105.37 638.28,-98.61 695,-90 703.42,-88.72 712.35,-87.16 720.95,-85.54"/>
<polygon fill="midnightblue" stroke="midnightblue" points="721.68,-88.97 730.84,-83.64 720.36,-82.09 721.68,-88.97"/>
</g>
<!-- Node12 -->
<g id="node12" class="node">
<title>Node12</title>
<g id="a_node12"><a xlink:href="symmetry__i_8c.html#a52d770f57f14b01b1cdfec44136398cf" target="_top" xlink:title=" ">
<polygon fill="white" stroke="black" points="571,-142.5 571,-161.5 695,-161.5 695,-142.5 571,-142.5"/>
<text text-anchor="middle" x="633" y="-149.5" font-family="Helvetica,sans-Serif" font-size="10.00">alloc_symmetry_element</text>
</a>
</g>
</g>
<!-- Node11&#45;&gt;Node12 -->
<g id="edge12" class="edge">
<title>Node11&#45;&gt;Node12</title>
<path fill="none" stroke="midnightblue" d="M515.37,-123.59C535.95,-128.6 561.34,-134.79 583.17,-140.11"/>
<polygon fill="midnightblue" stroke="midnightblue" points="582.37,-143.51 592.92,-142.48 584.03,-136.71 582.37,-143.51"/>
</g>
<!-- Node12&#45;&gt;Node10 -->
<g id="edge13" class="edge">
<title>Node12&#45;&gt;Node10</title>
<path fill="none" stroke="midnightblue" d="M680.78,-161.58C685.98,-164.04 690.88,-167.12 695,-171 744.58,-217.68 760.33,-301.99 765.07,-340.64"/>
<polygon fill="midnightblue" stroke="midnightblue" points="761.65,-341.52 766.22,-351.08 768.61,-340.76 761.65,-341.52"/>
</g>
<!-- Node13&#45;&gt;Node10 -->
<g id="edge23" class="edge">
<title>Node13&#45;&gt;Node10</title>
<path fill="none" stroke="midnightblue" d="M375.3,-264.2C452.94,-264.01 587.92,-270.44 695,-311 715.27,-318.68 735.27,-333.29 749.03,-344.74"/>
<polygon fill="midnightblue" stroke="midnightblue" points="746.88,-347.51 756.74,-351.38 751.44,-342.2 746.88,-347.51"/>
</g>
<!-- Node14 -->
<g id="node14" class="node">
<title>Node14</title>
<g id="a_node14"><a xlink:href="symmetry__i_8c.html#a401172a43970238f56e75a2bd25bf3a5" target="_top" xlink:title=" ">
<polygon fill="white" stroke="black" points="417,-180.5 417,-199.5 533,-199.5 533,-180.5 417,-180.5"/>
<text text-anchor="middle" x="475" y="-187.5" font-family="Helvetica,sans-Serif" font-size="10.00">check_transform_order</text>
</a>
</g>
</g>
<!-- Node13&#45;&gt;Node14 -->
<g id="edge16" class="edge">
<title>Node13&#45;&gt;Node14</title>
<path fill="none" stroke="midnightblue" d="M327.65,-256.33C347.24,-244.13 382.69,-223.03 415,-209 420.06,-206.8 425.46,-204.73 430.86,-202.81"/>
<polygon fill="midnightblue" stroke="midnightblue" points="432.16,-206.06 440.5,-199.53 429.91,-199.43 432.16,-206.06"/>
</g>
<!-- Node16 -->
<g id="node16" class="node">
<title>Node16</title>
<g id="a_node16"><a xlink:href="symmetry__i_8c.html#abcbb13fcbff6e3466225582a389ac455" target="_top" xlink:title=" ">
<polygon fill="white" stroke="black" points="572,-496.5 572,-515.5 694,-515.5 694,-496.5 572,-496.5"/>
<text text-anchor="middle" x="633" y="-503.5" font-family="Helvetica,sans-Serif" font-size="10.00">check_transform_quality</text>
</a>
</g>
</g>
<!-- Node13&#45;&gt;Node16 -->
<g id="edge20" class="edge">
<title>Node13&#45;&gt;Node16</title>
<path fill="none" stroke="midnightblue" d="M316.9,-275.6C329.06,-301.25 365.57,-372.25 415,-414 463.88,-455.29 534.02,-480.46 581.2,-493.81"/>
<polygon fill="midnightblue" stroke="midnightblue" points="580.33,-497.2 590.9,-496.47 582.19,-490.45 580.33,-497.2"/>
</g>
<!-- Node18 -->
<g id="node18" class="node">
<title>Node18</title>
<g id="a_node18"><a xlink:href="symmetry__i_8c.html#a0e979a95e67dd97b50d84529eded6011" target="_top" xlink:title=" ">
<polygon fill="white" stroke="black" points="592,-458.5 592,-477.5 674,-477.5 674,-458.5 592,-458.5"/>
<text text-anchor="middle" x="633" y="-465.5" font-family="Helvetica,sans-Serif" font-size="10.00">establish_pairs</text>
</a>
</g>
</g>
<!-- Node13&#45;&gt;Node18 -->
<g id="edge24" class="edge">
<title>Node13&#45;&gt;Node18</title>
<path fill="none" stroke="midnightblue" d="M320.49,-275.58C336.78,-294.7 375.66,-338.26 415,-367 478.25,-413.21 498.64,-419.01 571,-449 576.38,-451.23 582.12,-453.35 587.85,-455.3"/>
<polygon fill="midnightblue" stroke="midnightblue" points="586.82,-458.64 597.41,-458.43 588.99,-451.99 586.82,-458.64"/>
</g>
<!-- Node19 -->
<g id="node19" class="node">
<title>Node19</title>
<g id="a_node19"><a xlink:href="symmetry__i_8c.html#a840dda299cb1beb196d463448f6b85bd" target="_top" xlink:title=" ">
<polygon fill="white" stroke="black" points="415,-327 415,-357 535,-357 535,-327 415,-327"/>
<text text-anchor="start" x="423" y="-345" font-family="Helvetica,sans-Serif" font-size="10.00">optimize_transformation</text>
<text text-anchor="middle" x="475" y="-334" font-family="Helvetica,sans-Serif" font-size="10.00">_params</text>
</a>
</g>
</g>
<!-- Node13&#45;&gt;Node19 -->
<g id="edge27" class="edge">
<title>Node13&#45;&gt;Node19</title>
<path fill="none" stroke="midnightblue" d="M332.95,-275.63C357.98,-287.4 400.97,-307.63 432.93,-322.67"/>
<polygon fill="midnightblue" stroke="midnightblue" points="431.5,-325.87 442.04,-326.96 434.48,-319.53 431.5,-325.87"/>
</g>
<!-- Node23 -->
<g id="node23" class="node">
<title>Node23</title>
<g id="a_node23"><a xlink:href="symmetry__i_8c.html#ada87e9244d2d583fb2cbc7208b3883b9" target="_top" xlink:title=" ">
<polygon fill="white" stroke="black" points="431.5,-218.5 431.5,-237.5 518.5,-237.5 518.5,-218.5 431.5,-218.5"/>
<text text-anchor="middle" x="475" y="-225.5" font-family="Helvetica,sans-Serif" font-size="10.00">same_transform</text>
</a>
</g>
</g>
<!-- Node13&#45;&gt;Node23 -->
<g id="edge36" class="edge">
<title>Node13&#45;&gt;Node23</title>
<path fill="none" stroke="midnightblue" d="M353.25,-256.41C374.66,-251.37 401.09,-245.16 423.75,-239.82"/>
<polygon fill="midnightblue" stroke="midnightblue" points="424.61,-243.22 433.54,-237.52 423,-236.4 424.61,-243.22"/>
</g>
<!-- Node14&#45;&gt;Node10 -->
<g id="edge17" class="edge">
<title>Node14&#45;&gt;Node10</title>
<path fill="none" stroke="midnightblue" d="M524.36,-199.58C580.21,-211.34 667.89,-232.17 695,-252 727.04,-275.43 748.92,-317.76 759.56,-342.21"/>
<polygon fill="midnightblue" stroke="midnightblue" points="756.35,-343.6 763.43,-351.48 762.81,-340.9 756.35,-343.6"/>
</g>
<!-- Node15 -->
<g id="node15" class="node">
<title>Node15</title>
<g id="a_node15"><a xlink:href="symmetry__i_8c.html#ad478abbd8c6b45859d4614081bc2660e" target="_top" xlink:title=" ">
<polygon fill="white" stroke="black" points="583,-180.5 583,-199.5 683,-199.5 683,-180.5 583,-180.5"/>
<text text-anchor="middle" x="633" y="-187.5" font-family="Helvetica,sans-Serif" font-size="10.00">rotate_reflect_atom</text>
</a>
</g>
</g>
<!-- Node14&#45;&gt;Node15 -->
<g id="edge18" class="edge">
<title>Node14&#45;&gt;Node15</title>
<path fill="none" stroke="midnightblue" d="M533.2,-190C546.03,-190 559.67,-190 572.59,-190"/>
<polygon fill="midnightblue" stroke="midnightblue" points="572.77,-193.5 582.77,-190 572.77,-186.5 572.77,-193.5"/>
</g>
<!-- Node15&#45;&gt;Node2 -->
<g id="edge19" class="edge">
<title>Node15&#45;&gt;Node2</title>
<path fill="none" stroke="midnightblue" d="M676.62,-180.49C683.1,-178 689.46,-174.89 695,-171 723.51,-150.98 745.66,-116.21 757.48,-94.75"/>
<polygon fill="midnightblue" stroke="midnightblue" points="760.71,-96.13 762.31,-85.66 754.53,-92.85 760.71,-96.13"/>
</g>
<!-- Node16&#45;&gt;Node10 -->
<g id="edge21" class="edge">
<title>Node16&#45;&gt;Node10</title>
<path fill="none" stroke="midnightblue" d="M678.65,-496.45C684.51,-493.99 690.16,-490.89 695,-487 730.2,-458.72 751.4,-408.29 760.95,-380.58"/>
<polygon fill="midnightblue" stroke="midnightblue" points="764.35,-381.44 764.15,-370.85 757.7,-379.26 764.35,-381.44"/>
</g>
<!-- Node17 -->
<g id="node17" class="node">
<title>Node17</title>
<g id="a_node17"><a xlink:href="symmetry__i_8c.html#a347fe37bf882cc1be3efe68082ffbd12" target="_top" xlink:title=" ">
<polygon fill="white" stroke="black" points="748,-458.5 748,-477.5 788,-477.5 788,-458.5 748,-458.5"/>
<text text-anchor="middle" x="768" y="-465.5" font-family="Helvetica,sans-Serif" font-size="10.00">pow2</text>
</a>
</g>
</g>
<!-- Node16&#45;&gt;Node17 -->
<g id="edge22" class="edge">
<title>Node16&#45;&gt;Node17</title>
<path fill="none" stroke="midnightblue" d="M667.56,-496.41C689.29,-490.2 717.28,-482.2 738.03,-476.28"/>
<polygon fill="midnightblue" stroke="midnightblue" points="739.21,-479.58 747.86,-473.47 737.29,-472.85 739.21,-479.58"/>
</g>
<!-- Node18&#45;&gt;Node10 -->
<g id="edge25" class="edge">
<title>Node18&#45;&gt;Node10</title>
<path fill="none" stroke="midnightblue" d="M674.26,-459.13C681.51,-456.54 688.75,-453.22 695,-449 722,-430.78 744.11,-399.49 756.41,-379.55"/>
<polygon fill="midnightblue" stroke="midnightblue" points="759.53,-381.16 761.64,-370.78 753.51,-377.57 759.53,-381.16"/>
</g>
<!-- Node18&#45;&gt;Node17 -->
<g id="edge26" class="edge">
<title>Node18&#45;&gt;Node17</title>
<path fill="none" stroke="midnightblue" d="M674.27,-468C694.72,-468 719.11,-468 737.75,-468"/>
<polygon fill="midnightblue" stroke="midnightblue" points="737.98,-471.5 747.98,-468 737.98,-464.5 737.98,-471.5"/>
</g>
<!-- Node19&#45;&gt;Node10 -->
<g id="edge28" class="edge">
<title>Node19&#45;&gt;Node10</title>
<path fill="none" stroke="midnightblue" d="M533.06,-326.97C577.73,-317.61 641.1,-309.65 695,-323 712.95,-327.45 731.35,-337.27 745.06,-345.82"/>
<polygon fill="midnightblue" stroke="midnightblue" points="743.44,-348.94 753.74,-351.45 747.25,-343.07 743.44,-348.94"/>
</g>
<!-- Node20 -->
<g id="node20" class="node">
<title>Node20</title>
<g id="a_node20"><a xlink:href="symmetry__i_8c.html#aa5e7898a49d284cd7813b2e3dacc0857" target="_top" xlink:title=" ">
<polygon fill="white" stroke="black" points="572,-409 572,-439 694,-439 694,-409 572,-409"/>
<text text-anchor="start" x="580" y="-427" font-family="Helvetica,sans-Serif" font-size="10.00">eval_optimization_target</text>
<text text-anchor="middle" x="633" y="-416" font-family="Helvetica,sans-Serif" font-size="10.00">_function</text>
</a>
</g>
</g>
<!-- Node19&#45;&gt;Node20 -->
<g id="edge29" class="edge">
<title>Node19&#45;&gt;Node20</title>
<path fill="none" stroke="midnightblue" d="M498.87,-357.06C517.78,-369.19 545.55,-386.24 571,-399 575.02,-401.02 579.25,-403 583.52,-404.92"/>
<polygon fill="midnightblue" stroke="midnightblue" points="582.32,-408.22 592.88,-409 585.11,-401.8 582.32,-408.22"/>
</g>
<!-- Node21 -->
<g id="node21" class="node">
<title>Node21</title>
<g id="a_node21"><a xlink:href="symmetry__i_8c.html#ad72477419409dc5d22f1f00ac0bd8609" target="_top" xlink:title=" ">
<polygon fill="white" stroke="black" points="599,-370.5 599,-389.5 667,-389.5 667,-370.5 599,-370.5"/>
<text text-anchor="middle" x="633" y="-377.5" font-family="Helvetica,sans-Serif" font-size="10.00">get_params</text>
</a>
</g>
</g>
<!-- Node19&#45;&gt;Node21 -->
<g id="edge32" class="edge">
<title>Node19&#45;&gt;Node21</title>
<path fill="none" stroke="midnightblue" d="M535.42,-356.47C553.25,-360.82 572.45,-365.49 589,-369.53"/>
<polygon fill="midnightblue" stroke="midnightblue" points="588.38,-372.98 598.92,-371.94 590.04,-366.18 588.38,-372.98"/>
</g>
<!-- Node22 -->
<g id="node22" class="node">
<title>Node22</title>
<g id="a_node22"><a xlink:href="symmetry__i_8c.html#a0314524bc1022f80982ecf4dd39ddbc2" target="_top" xlink:title=" ">
<polygon fill="white" stroke="black" points="599,-332.5 599,-351.5 667,-351.5 667,-332.5 599,-332.5"/>
<text text-anchor="middle" x="633" y="-339.5" font-family="Helvetica,sans-Serif" font-size="10.00">set_params</text>
</a>
</g>
</g>
<!-- Node19&#45;&gt;Node22 -->
<g id="edge34" class="edge">
<title>Node19&#45;&gt;Node22</title>
<path fill="none" stroke="midnightblue" d="M535.42,-342C553.08,-342 572.09,-342 588.53,-342"/>
<polygon fill="midnightblue" stroke="midnightblue" points="588.92,-345.5 598.92,-342 588.92,-338.5 588.92,-345.5"/>
</g>
<!-- Node20&#45;&gt;Node10 -->
<g id="edge30" class="edge">
<title>Node20&#45;&gt;Node10</title>
<path fill="none" stroke="midnightblue" d="M672.32,-408.96C679.89,-405.8 687.74,-402.39 695,-399 710.61,-391.71 727.67,-382.74 741.27,-375.36"/>
<polygon fill="midnightblue" stroke="midnightblue" points="742.98,-378.41 750.07,-370.53 739.62,-372.27 742.98,-378.41"/>
</g>
<!-- Node20&#45;&gt;Node17 -->
<g id="edge31" class="edge">
<title>Node20&#45;&gt;Node17</title>
<path fill="none" stroke="midnightblue" d="M679.4,-439.02C698.72,-445.41 720.69,-452.68 737.79,-458.34"/>
<polygon fill="midnightblue" stroke="midnightblue" points="737.15,-461.81 747.75,-461.63 739.35,-455.17 737.15,-461.81"/>
</g>
<!-- Node21&#45;&gt;Node10 -->
<g id="edge33" class="edge">
<title>Node21&#45;&gt;Node10</title>
<path fill="none" stroke="midnightblue" d="M667.22,-375.25C689.23,-372.11 717.8,-368.03 738.73,-365.04"/>
<polygon fill="midnightblue" stroke="midnightblue" points="739.49,-368.47 748.9,-363.59 738.5,-361.54 739.49,-368.47"/>
</g>
<!-- Node22&#45;&gt;Node10 -->
<g id="edge35" class="edge">
<title>Node22&#45;&gt;Node10</title>
<path fill="none" stroke="midnightblue" d="M667.22,-346.75C689.23,-349.89 717.8,-353.97 738.73,-356.96"/>
<polygon fill="midnightblue" stroke="midnightblue" points="738.5,-360.46 748.9,-358.41 739.49,-353.53 738.5,-360.46"/>
</g>
<!-- Node24&#45;&gt;Node2 -->
<g id="edge38" class="edge">
<title>Node24&#45;&gt;Node2</title>
<path fill="none" stroke="midnightblue" d="M345.64,-38.64C412.13,-40.24 566.47,-45.54 695,-62 703.44,-63.08 712.39,-64.55 720.99,-66.14"/>
<polygon fill="midnightblue" stroke="midnightblue" points="720.41,-69.59 730.89,-68.03 721.73,-62.71 720.41,-69.59"/>
</g>
</g>
</svg>
