<?xml version="1.0" encoding="UTF-8" standalone="no"?>
<!DOCTYPE svg PUBLIC "-//W3C//DTD SVG 1.1//EN"
 "http://www.w3.org/Graphics/SVG/1.1/DTD/svg11.dtd">
<!-- Generated by graphviz version 2.46.1 (20210215.1649)
 -->
<!-- Title: find_inversion_centers Pages: 1 -->
<svg width="1008pt" height="420pt"
 viewBox="0.00 0.00 1008.00 420.00" xmlns="http://www.w3.org/2000/svg" xmlns:xlink="http://www.w3.org/1999/xlink">
<g id="graph0" class="graph" transform="scale(1 1) rotate(0) translate(4 416)">
<title>find_inversion_centers</title>
<polygon fill="white" stroke="transparent" points="-4,4 -4,-416 1004,-416 1004,4 -4,4"/>
<!-- Node1 -->
<g id="node1" class="node">
<title>Node1</title>
<g id="a_node1"><a xlink:title=" ">
<polygon fill="#bfbfbf" stroke="black" points="0,-207.5 0,-226.5 113,-226.5 113,-207.5 0,-207.5"/>
<text text-anchor="middle" x="56.5" y="-214.5" font-family="Helvetica,sans-Serif" font-size="10.00">find_inversion_centers</text>
</a>
</g>
</g>
<!-- Node2 -->
<g id="node2" class="node">
<title>Node2</title>
<g id="a_node2"><a xlink:href="symmetry__i_8c.html#a26bc67027c2e60cc5dbbf0cdcc2837be" target="_top" xlink:title=" ">
<polygon fill="white" stroke="black" points="149,-207.5 149,-226.5 255,-226.5 255,-207.5 149,-207.5"/>
<text text-anchor="middle" x="202" y="-214.5" font-family="Helvetica,sans-Serif" font-size="10.00">init_inversion_center</text>
</a>
</g>
</g>
<!-- Node1&#45;&gt;Node2 -->
<g id="edge1" class="edge">
<title>Node1&#45;&gt;Node2</title>
<path fill="none" stroke="midnightblue" d="M113.39,-217C121.67,-217 130.25,-217 138.65,-217"/>
<polygon fill="midnightblue" stroke="midnightblue" points="138.78,-220.5 148.78,-217 138.78,-213.5 138.78,-220.5"/>
</g>
<!-- Node3 -->
<g id="node3" class="node">
<title>Node3</title>
<g id="a_node3"><a xlink:href="symmetry__i_8c.html#a52d770f57f14b01b1cdfec44136398cf" target="_top" xlink:title=" ">
<polygon fill="white" stroke="black" points="462,-392.5 462,-411.5 586,-411.5 586,-392.5 462,-392.5"/>
<text text-anchor="middle" x="524" y="-399.5" font-family="Helvetica,sans-Serif" font-size="10.00">alloc_symmetry_element</text>
</a>
</g>
</g>
<!-- Node2&#45;&gt;Node3 -->
<g id="edge2" class="edge">
<title>Node2&#45;&gt;Node3</title>
<path fill="none" stroke="midnightblue" d="M207.46,-226.52C218.4,-248.82 248.79,-304.78 291,-334 338.92,-367.18 403.13,-384.37 451.84,-393.16"/>
<polygon fill="midnightblue" stroke="midnightblue" points="451.54,-396.66 461.99,-394.91 452.73,-389.76 451.54,-396.66"/>
</g>
<!-- Node5 -->
<g id="node5" class="node">
<title>Node5</title>
<g id="a_node5"><a xlink:href="symmetry__i_8c.html#a4cd99fa0e4dd85776e474ec761ed0876" target="_top" xlink:title=" ">
<polygon fill="white" stroke="black" points="291,-305.5 291,-324.5 426,-324.5 426,-305.5 291,-305.5"/>
<text text-anchor="middle" x="358.5" y="-312.5" font-family="Helvetica,sans-Serif" font-size="10.00">destroy_symmetry_element</text>
</a>
</g>
</g>
<!-- Node2&#45;&gt;Node5 -->
<g id="edge4" class="edge">
<title>Node2&#45;&gt;Node5</title>
<path fill="none" stroke="midnightblue" d="M218.1,-226.58C244.91,-243.58 301.05,-279.2 333.31,-299.66"/>
<polygon fill="midnightblue" stroke="midnightblue" points="331.8,-302.84 342.11,-305.24 335.54,-296.93 331.8,-302.84"/>
</g>
<!-- Node6 -->
<g id="node6" class="node">
<title>Node6</title>
<g id="a_node6"><a xlink:href="symmetry__i_8c.html#a9076ebee25a926290a2d2b633ec4d869" target="_top" xlink:title=" ">
<polygon fill="white" stroke="black" points="324.5,-150.5 324.5,-169.5 392.5,-169.5 392.5,-150.5 324.5,-150.5"/>
<text text-anchor="middle" x="358.5" y="-157.5" font-family="Helvetica,sans-Serif" font-size="10.00">invert_atom</text>
</a>
</g>
</g>
<!-- Node2&#45;&gt;Node6 -->
<g id="edge6" class="edge">
<title>Node2&#45;&gt;Node6</title>
<path fill="none" stroke="midnightblue" d="M222.98,-207.49C240.62,-199.31 267.18,-187.51 291,-179 298.55,-176.3 306.69,-173.72 314.6,-171.37"/>
<polygon fill="midnightblue" stroke="midnightblue" points="315.78,-174.67 324.42,-168.54 313.84,-167.95 315.78,-174.67"/>
</g>
<!-- Node7 -->
<g id="node7" class="node">
<title>Node7</title>
<g id="a_node7"><a xlink:href="symmetry__i_8c.html#aff39b1566e9d87c46184c58d49b46ab4" target="_top" xlink:title=" ">
<polygon fill="white" stroke="black" points="295,-188.5 295,-207.5 422,-207.5 422,-188.5 295,-188.5"/>
<text text-anchor="middle" x="358.5" y="-195.5" font-family="Helvetica,sans-Serif" font-size="10.00">refine_symmetry_element</text>
</a>
</g>
</g>
<!-- Node2&#45;&gt;Node7 -->
<g id="edge7" class="edge">
<title>Node2&#45;&gt;Node7</title>
<path fill="none" stroke="midnightblue" d="M255.31,-210.57C264.73,-209.41 274.7,-208.18 284.58,-206.97"/>
<polygon fill="midnightblue" stroke="midnightblue" points="285.32,-210.4 294.82,-205.71 284.47,-203.46 285.32,-210.4"/>
</g>
<!-- Node4 -->
<g id="node4" class="node">
<title>Node4</title>
<g id="a_node4"><a xlink:href="elem_8f90.html#ae2a0e630d3a8fea4a12abcc607d7fc5d" target="_top" xlink:title=" ">
<polygon fill="white" stroke="black" points="798,-221.5 798,-240.5 836,-240.5 836,-221.5 798,-221.5"/>
<text text-anchor="middle" x="817" y="-228.5" font-family="Helvetica,sans-Serif" font-size="10.00">elem</text>
</a>
</g>
</g>
<!-- Node3&#45;&gt;Node4 -->
<g id="edge3" class="edge">
<title>Node3&#45;&gt;Node4</title>
<path fill="none" stroke="midnightblue" d="M586.24,-410.29C633.5,-413.39 698.3,-410.09 744,-378 787.48,-347.47 805.85,-283.13 812.6,-250.65"/>
<polygon fill="midnightblue" stroke="midnightblue" points="816.08,-251.07 814.53,-240.59 809.21,-249.76 816.08,-251.07"/>
</g>
<!-- Node5&#45;&gt;Node4 -->
<g id="edge5" class="edge">
<title>Node5&#45;&gt;Node4</title>
<path fill="none" stroke="midnightblue" d="M426.04,-324.55C521.05,-336.93 690.09,-353.96 744,-327 775.99,-311 797.46,-273.28 808.13,-250.17"/>
<polygon fill="midnightblue" stroke="midnightblue" points="811.47,-251.27 812.27,-240.71 805.05,-248.47 811.47,-251.27"/>
</g>
<!-- Node7&#45;&gt;Node4 -->
<g id="edge20" class="edge">
<title>Node7&#45;&gt;Node4</title>
<path fill="none" stroke="midnightblue" d="M375.63,-207.61C415.6,-230.77 523.19,-289.08 622,-307 675.35,-316.67 694.19,-328.42 744,-307 771.28,-295.27 793.07,-267.55 805.26,-249.03"/>
<polygon fill="midnightblue" stroke="midnightblue" points="808.23,-250.88 810.6,-240.56 802.31,-247.15 808.23,-250.88"/>
</g>
<!-- Node8 -->
<g id="node8" class="node">
<title>Node8</title>
<g id="a_node8"><a xlink:href="symmetry__i_8c.html#a401172a43970238f56e75a2bd25bf3a5" target="_top" xlink:title=" ">
<polygon fill="white" stroke="black" points="466,-114.5 466,-133.5 582,-133.5 582,-114.5 466,-114.5"/>
<text text-anchor="middle" x="524" y="-121.5" font-family="Helvetica,sans-Serif" font-size="10.00">check_transform_order</text>
</a>
</g>
</g>
<!-- Node7&#45;&gt;Node8 -->
<g id="edge8" class="edge">
<title>Node7&#45;&gt;Node8</title>
<path fill="none" stroke="midnightblue" d="M398.71,-188.47C407.82,-185.8 417.36,-182.62 426,-179 429.73,-177.44 469.92,-154.48 497.39,-138.72"/>
<polygon fill="midnightblue" stroke="midnightblue" points="499.21,-141.71 506.14,-133.7 495.72,-135.64 499.21,-141.71"/>
</g>
<!-- Node16 -->
<g id="node16" class="node">
<title>Node16</title>
<g id="a_node16"><a xlink:href="symmetry__i_8c.html#abcbb13fcbff6e3466225582a389ac455" target="_top" xlink:title=" ">
<polygon fill="white" stroke="black" points="622,-38.5 622,-57.5 744,-57.5 744,-38.5 622,-38.5"/>
<text text-anchor="middle" x="683" y="-45.5" font-family="Helvetica,sans-Serif" font-size="10.00">check_transform_quality</text>
</a>
</g>
</g>
<!-- Node7&#45;&gt;Node16 -->
<g id="edge17" class="edge">
<title>Node7&#45;&gt;Node16</title>
<path fill="none" stroke="midnightblue" d="M410.45,-188.39C416.06,-185.94 421.4,-182.86 426,-179 454.02,-155.49 433.69,-128.16 462,-105 504.1,-70.55 564.67,-56.67 611.6,-51.2"/>
<polygon fill="midnightblue" stroke="midnightblue" points="612.13,-54.67 621.7,-50.13 611.39,-47.71 612.13,-54.67"/>
</g>
<!-- Node18 -->
<g id="node18" class="node">
<title>Node18</title>
<g id="a_node18"><a xlink:href="symmetry__i_8c.html#a0e979a95e67dd97b50d84529eded6011" target="_top" xlink:title=" ">
<polygon fill="white" stroke="black" points="642,-0.5 642,-19.5 724,-19.5 724,-0.5 642,-0.5"/>
<text text-anchor="middle" x="683" y="-7.5" font-family="Helvetica,sans-Serif" font-size="10.00">establish_pairs</text>
</a>
</g>
</g>
<!-- Node7&#45;&gt;Node18 -->
<g id="edge21" class="edge">
<title>Node7&#45;&gt;Node18</title>
<path fill="none" stroke="midnightblue" d="M412.78,-188.35C417.65,-185.89 422.18,-182.82 426,-179 467.44,-137.47 418.74,-91.63 462,-52 507.91,-9.95 582.45,-4.07 631.85,-5.56"/>
<polygon fill="midnightblue" stroke="midnightblue" points="631.85,-9.07 641.99,-5.98 632.14,-2.07 631.85,-9.07"/>
</g>
<!-- Node19 -->
<g id="node19" class="node">
<title>Node19</title>
<g id="a_node19"><a xlink:href="symmetry__i_8c.html#a840dda299cb1beb196d463448f6b85bd" target="_top" xlink:title=" ">
<polygon fill="white" stroke="black" points="464,-207 464,-237 584,-237 584,-207 464,-207"/>
<text text-anchor="start" x="472" y="-225" font-family="Helvetica,sans-Serif" font-size="10.00">optimize_transformation</text>
<text text-anchor="middle" x="524" y="-214" font-family="Helvetica,sans-Serif" font-size="10.00">_params</text>
</a>
</g>
</g>
<!-- Node7&#45;&gt;Node19 -->
<g id="edge24" class="edge">
<title>Node7&#45;&gt;Node19</title>
<path fill="none" stroke="midnightblue" d="M422.25,-207.21C432.62,-208.73 443.42,-210.32 453.94,-211.86"/>
<polygon fill="midnightblue" stroke="midnightblue" points="453.51,-215.34 463.91,-213.33 454.53,-208.41 453.51,-215.34"/>
</g>
<!-- Node23 -->
<g id="node23" class="node">
<title>Node23</title>
<g id="a_node23"><a xlink:href="symmetry__i_8c.html#ada87e9244d2d583fb2cbc7208b3883b9" target="_top" xlink:title=" ">
<polygon fill="white" stroke="black" points="480.5,-168.5 480.5,-187.5 567.5,-187.5 567.5,-168.5 480.5,-168.5"/>
<text text-anchor="middle" x="524" y="-175.5" font-family="Helvetica,sans-Serif" font-size="10.00">same_transform</text>
</a>
</g>
</g>
<!-- Node7&#45;&gt;Node23 -->
<g id="edge33" class="edge">
<title>Node7&#45;&gt;Node23</title>
<path fill="none" stroke="midnightblue" d="M422.25,-190.32C438.05,-188.39 454.86,-186.34 470.12,-184.47"/>
<polygon fill="midnightblue" stroke="midnightblue" points="470.91,-187.9 480.42,-183.21 470.06,-180.95 470.91,-187.9"/>
</g>
<!-- Node8&#45;&gt;Node4 -->
<g id="edge9" class="edge">
<title>Node8&#45;&gt;Node4</title>
<path fill="none" stroke="midnightblue" d="M582.38,-117.21C628.66,-114.4 694.05,-116.63 744,-143 773.39,-158.52 795.26,-191.68 806.79,-212.57"/>
<polygon fill="midnightblue" stroke="midnightblue" points="803.72,-214.24 811.48,-221.45 809.91,-210.98 803.72,-214.24"/>
</g>
<!-- Node9 -->
<g id="node9" class="node">
<title>Node9</title>
<g id="a_node9"><a xlink:href="symmetry__i_8c.html#ad478abbd8c6b45859d4614081bc2660e" target="_top" xlink:title=" ">
<polygon fill="white" stroke="black" points="633,-76.5 633,-95.5 733,-95.5 733,-76.5 633,-76.5"/>
<text text-anchor="middle" x="683" y="-83.5" font-family="Helvetica,sans-Serif" font-size="10.00">rotate_reflect_atom</text>
</a>
</g>
</g>
<!-- Node8&#45;&gt;Node9 -->
<g id="edge10" class="edge">
<title>Node8&#45;&gt;Node9</title>
<path fill="none" stroke="midnightblue" d="M564.62,-114.41C585.34,-109.4 610.89,-103.21 632.86,-97.89"/>
<polygon fill="midnightblue" stroke="midnightblue" points="633.77,-101.27 642.67,-95.52 632.12,-94.47 633.77,-101.27"/>
</g>
<!-- Node10 -->
<g id="node10" class="node">
<title>Node10</title>
<g id="a_node10"><a xlink:href="namespacextb__axis.html#a17d974ca7396eb007888d7fd9743edac" target="_top" xlink:title=" ">
<polygon fill="white" stroke="black" points="780,-76.5 780,-95.5 854,-95.5 854,-76.5 780,-76.5"/>
<text text-anchor="middle" x="817" y="-83.5" font-family="Helvetica,sans-Serif" font-size="10.00">xtb_axis::axis</text>
</a>
</g>
</g>
<!-- Node9&#45;&gt;Node10 -->
<g id="edge11" class="edge">
<title>Node9&#45;&gt;Node10</title>
<path fill="none" stroke="midnightblue" d="M733.15,-86C745.06,-86 757.75,-86 769.52,-86"/>
<polygon fill="midnightblue" stroke="midnightblue" points="769.6,-89.5 779.6,-86 769.6,-82.5 769.6,-89.5"/>
</g>
<!-- Node11 -->
<g id="node11" class="node">
<title>Node11</title>
<g id="a_node11"><a xlink:href="drsp_8f.html#ac8791cdbe49427e661f00b126ce4dbbc" target="_top" xlink:title=" ">
<polygon fill="white" stroke="black" points="890,-76.5 890,-95.5 920,-95.5 920,-76.5 890,-76.5"/>
<text text-anchor="middle" x="905" y="-83.5" font-family="Helvetica,sans-Serif" font-size="10.00">rsp</text>
</a>
</g>
</g>
<!-- Node10&#45;&gt;Node11 -->
<g id="edge12" class="edge">
<title>Node10&#45;&gt;Node11</title>
<path fill="none" stroke="midnightblue" d="M854.47,-86C862.94,-86 871.74,-86 879.55,-86"/>
<polygon fill="midnightblue" stroke="midnightblue" points="879.76,-89.5 889.76,-86 879.76,-82.5 879.76,-89.5"/>
</g>
<!-- Node12 -->
<g id="node12" class="node">
<title>Node12</title>
<g id="a_node12"><a xlink:href="drsp_8f.html#a163d6464d6ff31893ac0abcfa0d6eeec" target="_top" xlink:title=" ">
<polygon fill="white" stroke="black" points="962,-133.5 962,-152.5 994,-152.5 994,-133.5 962,-133.5"/>
<text text-anchor="middle" x="978" y="-140.5" font-family="Helvetica,sans-Serif" font-size="10.00">tql2</text>
</a>
</g>
</g>
<!-- Node11&#45;&gt;Node12 -->
<g id="edge13" class="edge">
<title>Node11&#45;&gt;Node12</title>
<path fill="none" stroke="midnightblue" d="M918.04,-95.67C928.72,-104.24 944.51,-116.91 957.06,-126.99"/>
<polygon fill="midnightblue" stroke="midnightblue" points="955.14,-129.94 965.13,-133.47 959.53,-124.48 955.14,-129.94"/>
</g>
<!-- Node13 -->
<g id="node13" class="node">
<title>Node13</title>
<g id="a_node13"><a xlink:href="drsp_8f.html#a47a86ab7ed20a30b44b28253866ac7ff" target="_top" xlink:title=" ">
<polygon fill="white" stroke="black" points="959,-95.5 959,-114.5 997,-114.5 997,-95.5 959,-95.5"/>
<text text-anchor="middle" x="978" y="-102.5" font-family="Helvetica,sans-Serif" font-size="10.00">tqlrat</text>
</a>
</g>
</g>
<!-- Node11&#45;&gt;Node13 -->
<g id="edge14" class="edge">
<title>Node11&#45;&gt;Node13</title>
<path fill="none" stroke="midnightblue" d="M920.03,-89.75C928.31,-91.97 939.08,-94.85 949.03,-97.51"/>
<polygon fill="midnightblue" stroke="midnightblue" points="948.39,-100.97 958.95,-100.17 950.2,-94.2 948.39,-100.97"/>
</g>
<!-- Node14 -->
<g id="node14" class="node">
<title>Node14</title>
<g id="a_node14"><a xlink:href="drsp_8f.html#a035138691289fce6e2d30c8b3c41188f" target="_top" xlink:title=" ">
<polygon fill="white" stroke="black" points="956,-57.5 956,-76.5 1000,-76.5 1000,-57.5 956,-57.5"/>
<text text-anchor="middle" x="978" y="-64.5" font-family="Helvetica,sans-Serif" font-size="10.00">trbak3</text>
</a>
</g>
</g>
<!-- Node11&#45;&gt;Node14 -->
<g id="edge15" class="edge">
<title>Node11&#45;&gt;Node14</title>
<path fill="none" stroke="midnightblue" d="M920.03,-82.25C927.49,-80.25 936.97,-77.71 946.05,-75.28"/>
<polygon fill="midnightblue" stroke="midnightblue" points="947.24,-78.59 956,-72.62 945.43,-71.82 947.24,-78.59"/>
</g>
<!-- Node15 -->
<g id="node15" class="node">
<title>Node15</title>
<g id="a_node15"><a xlink:href="drsp_8f.html#a160df22dcc004ea7373039d1db601e3d" target="_top" xlink:title=" ">
<polygon fill="white" stroke="black" points="959,-19.5 959,-38.5 997,-38.5 997,-19.5 959,-19.5"/>
<text text-anchor="middle" x="978" y="-26.5" font-family="Helvetica,sans-Serif" font-size="10.00">tred3</text>
</a>
</g>
</g>
<!-- Node11&#45;&gt;Node15 -->
<g id="edge16" class="edge">
<title>Node11&#45;&gt;Node15</title>
<path fill="none" stroke="midnightblue" d="M918.04,-76.33C928.72,-67.76 944.51,-55.09 957.06,-45.01"/>
<polygon fill="midnightblue" stroke="midnightblue" points="959.53,-47.52 965.13,-38.53 955.14,-42.06 959.53,-47.52"/>
</g>
<!-- Node16&#45;&gt;Node4 -->
<g id="edge18" class="edge">
<title>Node16&#45;&gt;Node4</title>
<path fill="none" stroke="midnightblue" d="M729.22,-57.59C734.6,-60.05 739.69,-63.13 744,-67 787.64,-106.21 806.06,-176.7 812.74,-211.07"/>
<polygon fill="midnightblue" stroke="midnightblue" points="809.35,-212.02 814.57,-221.24 816.24,-210.78 809.35,-212.02"/>
</g>
<!-- Node17 -->
<g id="node17" class="node">
<title>Node17</title>
<g id="a_node17"><a xlink:href="symmetry__i_8c.html#a347fe37bf882cc1be3efe68082ffbd12" target="_top" xlink:title=" ">
<polygon fill="white" stroke="black" points="797,-38.5 797,-57.5 837,-57.5 837,-38.5 797,-38.5"/>
<text text-anchor="middle" x="817" y="-45.5" font-family="Helvetica,sans-Serif" font-size="10.00">pow2</text>
</a>
</g>
</g>
<!-- Node16&#45;&gt;Node17 -->
<g id="edge19" class="edge">
<title>Node16&#45;&gt;Node17</title>
<path fill="none" stroke="midnightblue" d="M744.21,-48C758.93,-48 774.04,-48 786.58,-48"/>
<polygon fill="midnightblue" stroke="midnightblue" points="786.86,-51.5 796.86,-48 786.86,-44.5 786.86,-51.5"/>
</g>
<!-- Node18&#45;&gt;Node4 -->
<g id="edge22" class="edge">
<title>Node18&#45;&gt;Node4</title>
<path fill="none" stroke="midnightblue" d="M724.28,-17.1C731.52,-19.86 738.5,-23.69 744,-29 757.7,-42.22 795.48,-163.3 810.11,-211.42"/>
<polygon fill="midnightblue" stroke="midnightblue" points="806.84,-212.69 813.08,-221.25 813.54,-210.66 806.84,-212.69"/>
</g>
<!-- Node18&#45;&gt;Node17 -->
<g id="edge23" class="edge">
<title>Node18&#45;&gt;Node17</title>
<path fill="none" stroke="midnightblue" d="M717.31,-19.59C738.74,-25.76 766.32,-33.7 786.88,-39.62"/>
<polygon fill="midnightblue" stroke="midnightblue" points="786.05,-43.02 796.63,-42.42 787.99,-36.29 786.05,-43.02"/>
</g>
<!-- Node19&#45;&gt;Node4 -->
<g id="edge25" class="edge">
<title>Node19&#45;&gt;Node4</title>
<path fill="none" stroke="midnightblue" d="M584.19,-228.37C596.66,-229.47 609.75,-230.43 622,-231 680.79,-233.72 749.72,-232.73 787.55,-231.82"/>
<polygon fill="midnightblue" stroke="midnightblue" points="787.89,-235.31 797.8,-231.56 787.71,-228.32 787.89,-235.31"/>
</g>
<!-- Node20 -->
<g id="node20" class="node">
<title>Node20</title>
<g id="a_node20"><a xlink:href="symmetry__i_8c.html#aa5e7898a49d284cd7813b2e3dacc0857" target="_top" xlink:title=" ">
<polygon fill="white" stroke="black" points="622,-153 622,-183 744,-183 744,-153 622,-153"/>
<text text-anchor="start" x="630" y="-171" font-family="Helvetica,sans-Serif" font-size="10.00">eval_optimization_target</text>
<text text-anchor="middle" x="683" y="-160" font-family="Helvetica,sans-Serif" font-size="10.00">_function</text>
</a>
</g>
</g>
<!-- Node19&#45;&gt;Node20 -->
<g id="edge26" class="edge">
<title>Node19&#45;&gt;Node20</title>
<path fill="none" stroke="midnightblue" d="M568.73,-206.96C587.28,-200.58 609.08,-193.08 628.57,-186.38"/>
<polygon fill="midnightblue" stroke="midnightblue" points="629.91,-189.62 638.23,-183.05 627.63,-183 629.91,-189.62"/>
</g>
<!-- Node21 -->
<g id="node21" class="node">
<title>Node21</title>
<g id="a_node21"><a xlink:href="symmetry__i_8c.html#ad72477419409dc5d22f1f00ac0bd8609" target="_top" xlink:title=" ">
<polygon fill="white" stroke="black" points="649,-202.5 649,-221.5 717,-221.5 717,-202.5 649,-202.5"/>
<text text-anchor="middle" x="683" y="-209.5" font-family="Helvetica,sans-Serif" font-size="10.00">get_params</text>
</a>
</g>
</g>
<!-- Node19&#45;&gt;Node21 -->
<g id="edge29" class="edge">
<title>Node19&#45;&gt;Node21</title>
<path fill="none" stroke="midnightblue" d="M584.35,-218.22C602.48,-217.07 622.05,-215.82 638.88,-214.75"/>
<polygon fill="midnightblue" stroke="midnightblue" points="639.2,-218.23 648.96,-214.1 638.76,-211.25 639.2,-218.23"/>
</g>
<!-- Node22 -->
<g id="node22" class="node">
<title>Node22</title>
<g id="a_node22"><a xlink:href="symmetry__i_8c.html#a0314524bc1022f80982ecf4dd39ddbc2" target="_top" xlink:title=" ">
<polygon fill="white" stroke="black" points="649,-278.5 649,-297.5 717,-297.5 717,-278.5 649,-278.5"/>
<text text-anchor="middle" x="683" y="-285.5" font-family="Helvetica,sans-Serif" font-size="10.00">set_params</text>
</a>
</g>
</g>
<!-- Node19&#45;&gt;Node22 -->
<g id="edge31" class="edge">
<title>Node19&#45;&gt;Node22</title>
<path fill="none" stroke="midnightblue" d="M559.02,-237.01C577.58,-245.13 600.99,-255.25 622,-264 630.5,-267.54 639.72,-271.28 648.33,-274.72"/>
<polygon fill="midnightblue" stroke="midnightblue" points="647.12,-278.01 657.71,-278.46 649.71,-271.51 647.12,-278.01"/>
</g>
<!-- Node20&#45;&gt;Node4 -->
<g id="edge27" class="edge">
<title>Node20&#45;&gt;Node4</title>
<path fill="none" stroke="midnightblue" d="M721.68,-183.08C729.13,-186.24 736.85,-189.63 744,-193 759.58,-200.34 776.65,-209.3 790.25,-216.68"/>
<polygon fill="midnightblue" stroke="midnightblue" points="788.6,-219.77 799.05,-221.5 791.96,-213.63 788.6,-219.77"/>
</g>
<!-- Node20&#45;&gt;Node17 -->
<g id="edge28" class="edge">
<title>Node20&#45;&gt;Node17</title>
<path fill="none" stroke="midnightblue" d="M698.32,-152.99C710.48,-140.23 728.4,-121.43 744,-105 760.02,-88.13 761.47,-81.06 780,-67 782.51,-65.1 785.24,-63.28 788.03,-61.58"/>
<polygon fill="midnightblue" stroke="midnightblue" points="789.97,-64.5 796.98,-56.56 786.55,-58.39 789.97,-64.5"/>
</g>
<!-- Node21&#45;&gt;Node4 -->
<g id="edge30" class="edge">
<title>Node21&#45;&gt;Node4</title>
<path fill="none" stroke="midnightblue" d="M717.31,-216.79C739.03,-219.92 767.08,-223.96 787.71,-226.93"/>
<polygon fill="midnightblue" stroke="midnightblue" points="787.36,-230.41 797.76,-228.37 788.36,-223.49 787.36,-230.41"/>
</g>
<!-- Node22&#45;&gt;Node4 -->
<g id="edge32" class="edge">
<title>Node22&#45;&gt;Node4</title>
<path fill="none" stroke="midnightblue" d="M708.63,-278.46C719.52,-274.17 732.45,-268.95 744,-264 758.85,-257.63 775.23,-250.16 788.61,-243.94"/>
<polygon fill="midnightblue" stroke="midnightblue" points="790.19,-247.06 797.76,-239.66 787.22,-240.72 790.19,-247.06"/>
</g>
</g>
</svg>
