<?xml version="1.0" encoding="UTF-8" standalone="no"?>
<!DOCTYPE svg PUBLIC "-//W3C//DTD SVG 1.1//EN"
 "http://www.w3.org/Graphics/SVG/1.1/DTD/svg11.dtd">
<!-- Generated by graphviz version 2.43.0 (0)
 -->
<!-- Title: mirror_atom Pages: 1 -->
<svg width="791pt" height="66pt"
 viewBox="0.00 0.00 791.00 66.00" xmlns="http://www.w3.org/2000/svg" xmlns:xlink="http://www.w3.org/1999/xlink">
<g id="graph0" class="graph" transform="scale(1 1) rotate(0) translate(4 62)">
<title>mirror_atom</title>
<polygon fill="white" stroke="transparent" points="-4,4 -4,-62 787,-62 787,4 -4,4"/>
<!-- Node1 -->
<g id="node1" class="node">
<title>Node1</title>
<g id="a_node1"><a xlink:title=" ">
<polygon fill="#bfbfbf" stroke="black" points="706,-19.5 706,-38.5 783,-38.5 783,-19.5 706,-19.5"/>
<text text-anchor="middle" x="744.5" y="-26.5" font-family="Helvetica,sans-Serif" font-size="10.00">mirror_atom</text>
</a>
</g>
</g>
<!-- Node2 -->
<g id="node2" class="node">
<title>Node2</title>
<g id="a_node2"><a xlink:href="symmetry__i_8c.html#a28a580c316f874592fa976504885670c" target="_top" xlink:title=" ">
<polygon fill="white" stroke="black" points="564.5,-38.5 564.5,-57.5 664.5,-57.5 664.5,-38.5 564.5,-38.5"/>
<text text-anchor="middle" x="614.5" y="-45.5" font-family="Helvetica,sans-Serif" font-size="10.00">init_mirror_plane</text>
</a>
</g>
</g>
<!-- Node1&#45;&gt;Node2 -->
<g id="edge1" class="edge">
<title>Node1&#45;&gt;Node2</title>
<path fill="none" stroke="midnightblue" d="M695.89,-36.07C685.75,-37.57 675.02,-39.17 664.82,-40.68"/>
<polygon fill="midnightblue" stroke="midnightblue" points="696.41,-39.53 705.79,-34.6 695.38,-32.6 696.41,-39.53"/>
</g>
<!-- Node8 -->
<g id="node8" class="node">
<title>Node8</title>
<g id="a_node8"><a xlink:href="symmetry__i_8c.html#a6c28e9e49e1179d0bc2ded3d008b6499" target="_top" xlink:title=" ">
<polygon fill="white" stroke="black" points="559,-0.5 559,-19.5 670,-19.5 670,-0.5 559,-0.5"/>
<text text-anchor="middle" x="614.5" y="-7.5" font-family="Helvetica,sans-Serif" font-size="10.00">init_ultimate_plane</text>
</a>
</g>
</g>
<!-- Node1&#45;&gt;Node8 -->
<g id="edge7" class="edge">
<title>Node1&#45;&gt;Node8</title>
<path fill="none" stroke="midnightblue" d="M695.78,-21.92C687.38,-20.67 678.58,-19.36 670.02,-18.09"/>
<polygon fill="midnightblue" stroke="midnightblue" points="695.38,-25.4 705.79,-23.4 696.41,-18.47 695.38,-25.4"/>
</g>
<!-- Node3 -->
<g id="node3" class="node">
<title>Node3</title>
<g id="a_node3"><a xlink:href="symmetry__i_8c.html#adc43fe3d7619599e2aa3405466fc99d8" target="_top" xlink:title=" ">
<polygon fill="white" stroke="black" points="451,-19.5 451,-38.5 523,-38.5 523,-19.5 451,-19.5"/>
<text text-anchor="middle" x="487" y="-26.5" font-family="Helvetica,sans-Serif" font-size="10.00">find_planes</text>
</a>
</g>
</g>
<!-- Node2&#45;&gt;Node3 -->
<g id="edge2" class="edge">
<title>Node2&#45;&gt;Node3</title>
<path fill="none" stroke="midnightblue" d="M554.16,-39.02C543.54,-37.41 532.8,-35.78 523.14,-34.32"/>
<polygon fill="midnightblue" stroke="midnightblue" points="553.85,-42.51 564.26,-40.55 554.9,-35.59 553.85,-42.51"/>
</g>
<!-- Node4 -->
<g id="node4" class="node">
<title>Node4</title>
<g id="a_node4"><a xlink:href="symmetry__i_8c.html#a65f666e81a867d34e263423c6cbda622" target="_top" xlink:title=" ">
<polygon fill="white" stroke="black" points="274,-19.5 274,-38.5 415,-38.5 415,-19.5 274,-19.5"/>
<text text-anchor="middle" x="344.5" y="-26.5" font-family="Helvetica,sans-Serif" font-size="10.00">find_symmetry_elements</text>
</a>
</g>
</g>
<!-- Node3&#45;&gt;Node4 -->
<g id="edge3" class="edge">
<title>Node3&#45;&gt;Node4</title>
<path fill="none" stroke="midnightblue" d="M440.85,-29C432.65,-29 423.93,-29 415.22,-29"/>
<polygon fill="midnightblue" stroke="midnightblue" points="440.91,-32.5 450.91,-29 440.91,-25.5 440.91,-32.5"/>
</g>
<!-- Node5 -->
<g id="node5" class="node">
<title>Node5</title>
<g id="a_node5"><a xlink:href="symmetry__i_8c.html#a4f248fe6bdc62df2f41c5abd34e81ed1" target="_top" xlink:title=" ">
<polygon fill="white" stroke="black" points="171.5,-38.5 171.5,-57.5 233.5,-57.5 233.5,-38.5 171.5,-38.5"/>
<text text-anchor="middle" x="202.5" y="-45.5" font-family="Helvetica,sans-Serif" font-size="10.00">old_main</text>
</a>
</g>
</g>
<!-- Node4&#45;&gt;Node5 -->
<g id="edge4" class="edge">
<title>Node4&#45;&gt;Node5</title>
<path fill="none" stroke="midnightblue" d="M264,-39.79C253.26,-41.25 242.83,-42.66 233.74,-43.9"/>
<polygon fill="midnightblue" stroke="midnightblue" points="264.47,-43.26 273.91,-38.44 263.53,-36.32 264.47,-43.26"/>
</g>
<!-- Node6 -->
<g id="node6" class="node">
<title>Node6</title>
<g id="a_node6"><a xlink:href="symmetry__i_8c.html#a6c9de386e61e3a35d683a216dbcd1528" target="_top" xlink:title=" ">
<polygon fill="white" stroke="black" points="167,-0.5 167,-19.5 238,-19.5 238,-0.5 167,-0.5"/>
<text text-anchor="middle" x="202.5" y="-7.5" font-family="Helvetica,sans-Serif" font-size="10.00">schoenflies</text>
</a>
</g>
</g>
<!-- Node4&#45;&gt;Node6 -->
<g id="edge5" class="edge">
<title>Node4&#45;&gt;Node6</title>
<path fill="none" stroke="midnightblue" d="M263.8,-18.18C254.91,-16.98 246.22,-15.8 238.34,-14.73"/>
<polygon fill="midnightblue" stroke="midnightblue" points="263.53,-21.68 273.91,-19.56 264.47,-14.74 263.53,-21.68"/>
</g>
<!-- Node7 -->
<g id="node7" class="node">
<title>Node7</title>
<g id="a_node7"><a xlink:href="interfacec__interface.html#a98e1aed930d85608299bba1f41a6b07d" target="_top" xlink:title=" ">
<polygon fill="white" stroke="black" points="0,-0.5 0,-19.5 131,-19.5 131,-0.5 0,-0.5"/>
<text text-anchor="middle" x="65.5" y="-7.5" font-family="Helvetica,sans-Serif" font-size="10.00">c_interface::schoenflies</text>
</a>
</g>
</g>
<!-- Node6&#45;&gt;Node7 -->
<g id="edge6" class="edge">
<title>Node6&#45;&gt;Node7</title>
<path fill="none" stroke="midnightblue" d="M156.64,-10C148.42,-10 139.69,-10 131.03,-10"/>
<polygon fill="midnightblue" stroke="midnightblue" points="156.73,-13.5 166.73,-10 156.73,-6.5 156.73,-13.5"/>
</g>
<!-- Node8&#45;&gt;Node3 -->
<g id="edge8" class="edge">
<title>Node8&#45;&gt;Node3</title>
<path fill="none" stroke="midnightblue" d="M548.9,-19.78C540.11,-21.11 531.36,-22.44 523.35,-23.65"/>
<polygon fill="midnightblue" stroke="midnightblue" points="549.46,-23.24 558.82,-18.28 548.41,-16.31 549.46,-23.24"/>
</g>
</g>
</svg>
