<?xml version="1.0" encoding="UTF-8" standalone="no"?>
<!DOCTYPE svg PUBLIC "-//W3C//DTD SVG 1.1//EN"
 "http://www.w3.org/Graphics/SVG/1.1/DTD/svg11.dtd">
<!-- Generated by graphviz version 2.46.1 (20210215.1649)
 -->
<!-- Title: get_schoenflies Pages: 1 -->
<svg width="837pt" height="268pt"
 viewBox="0.00 0.00 837.00 267.50" xmlns="http://www.w3.org/2000/svg" xmlns:xlink="http://www.w3.org/1999/xlink">
<g id="graph0" class="graph" transform="scale(1 1) rotate(0) translate(4 263.5)">
<title>get_schoenflies</title>
<polygon fill="white" stroke="transparent" points="-4,4 -4,-263.5 833,-263.5 833,4 -4,4"/>
<!-- Node1 -->
<g id="node1" class="node">
<title>Node1</title>
<g id="a_node1"><a xlink:title=" ">
<polygon fill="#bfbfbf" stroke="black" points="745,-76.5 745,-95.5 829,-95.5 829,-76.5 745,-76.5"/>
<text text-anchor="middle" x="787" y="-83.5" font-family="Helvetica,sans-Serif" font-size="10.00">get_schoenflies</text>
</a>
</g>
</g>
<!-- Node2 -->
<g id="node2" class="node">
<title>Node2</title>
<g id="a_node2"><a xlink:href="namespacextb__thermo.html#a3bc5ddbb481f65f7307afad7edc76bcd" target="_top" xlink:title=" ">
<polygon fill="white" stroke="black" points="584,-76.5 584,-95.5 709,-95.5 709,-76.5 584,-76.5"/>
<text text-anchor="middle" x="646.5" y="-83.5" font-family="Helvetica,sans-Serif" font-size="10.00">xtb_thermo::getsymmetry</text>
</a>
</g>
</g>
<!-- Node1&#45;&gt;Node2 -->
<g id="edge1" class="edge">
<title>Node1&#45;&gt;Node2</title>
<path fill="none" stroke="midnightblue" d="M734.81,-86C726.42,-86 717.64,-86 709.03,-86"/>
<polygon fill="midnightblue" stroke="midnightblue" points="734.82,-89.5 744.82,-86 734.82,-82.5 734.82,-89.5"/>
</g>
<!-- Node3 -->
<g id="node3" class="node">
<title>Node3</title>
<g id="a_node3"><a xlink:href="namespacextb__propertyoutput.html#aa250913f1797598da5324c3d57611005" target="_top" xlink:title=" ">
<polygon fill="white" stroke="black" points="445,-169 445,-199 541,-199 541,-169 445,-169"/>
<text text-anchor="start" x="453" y="-187" font-family="Helvetica,sans-Serif" font-size="10.00">xtb_propertyoutput</text>
<text text-anchor="middle" x="493" y="-176" font-family="Helvetica,sans-Serif" font-size="10.00">::print_thermo</text>
</a>
</g>
</g>
<!-- Node2&#45;&gt;Node3 -->
<g id="edge2" class="edge">
<title>Node2&#45;&gt;Node3</title>
<path fill="none" stroke="midnightblue" d="M622.17,-101.09C593.66,-119.54 545.69,-150.56 517.22,-168.98"/>
<polygon fill="midnightblue" stroke="midnightblue" points="624.2,-103.95 630.7,-95.58 620.4,-98.07 624.2,-103.95"/>
</g>
<!-- Node10 -->
<g id="node10" class="node">
<title>Node10</title>
<g id="a_node10"><a xlink:href="TESTSUITE_2symmetry_8f90.html#a8b9ca7f56cd5a20ca10204f2dc5f17d3" target="_top" xlink:title=" ">
<polygon fill="white" stroke="black" points="442.5,-114.5 442.5,-133.5 543.5,-133.5 543.5,-114.5 442.5,-114.5"/>
<text text-anchor="middle" x="493" y="-121.5" font-family="Helvetica,sans-Serif" font-size="10.00">test_symmetry_c20</text>
</a>
</g>
</g>
<!-- Node2&#45;&gt;Node10 -->
<g id="edge10" class="edge">
<title>Node2&#45;&gt;Node10</title>
<path fill="none" stroke="midnightblue" d="M597.5,-98.04C576.33,-103.35 551.81,-109.5 531.95,-114.48"/>
<polygon fill="midnightblue" stroke="midnightblue" points="598.42,-101.42 607.27,-95.59 596.72,-94.63 598.42,-101.42"/>
</g>
<!-- Node11 -->
<g id="node11" class="node">
<title>Node11</title>
<g id="a_node11"><a xlink:href="TESTSUITE_2symmetry_8f90.html#a136f7bb8402633cd4e643ee4d7d1ddb8" target="_top" xlink:title=" ">
<polygon fill="white" stroke="black" points="445.5,-76.5 445.5,-95.5 540.5,-95.5 540.5,-76.5 445.5,-76.5"/>
<text text-anchor="middle" x="493" y="-83.5" font-family="Helvetica,sans-Serif" font-size="10.00">test_symmetry_li8</text>
</a>
</g>
</g>
<!-- Node2&#45;&gt;Node11 -->
<g id="edge12" class="edge">
<title>Node2&#45;&gt;Node11</title>
<path fill="none" stroke="midnightblue" d="M573.65,-86C562.45,-86 551.14,-86 540.69,-86"/>
<polygon fill="midnightblue" stroke="midnightblue" points="573.88,-89.5 583.88,-86 573.88,-82.5 573.88,-89.5"/>
</g>
<!-- Node12 -->
<g id="node12" class="node">
<title>Node12</title>
<g id="a_node12"><a xlink:href="TESTSUITE_2symmetry_8f90.html#aff0e8567ba8bb89cf36b298ba28d19b4" target="_top" xlink:title=" ">
<polygon fill="white" stroke="black" points="298,-38.5 298,-57.5 402,-57.5 402,-38.5 298,-38.5"/>
<text text-anchor="middle" x="350" y="-45.5" font-family="Helvetica,sans-Serif" font-size="10.00">test_symmetry_pcl3</text>
</a>
</g>
</g>
<!-- Node2&#45;&gt;Node12 -->
<g id="edge14" class="edge">
<title>Node2&#45;&gt;Node12</title>
<path fill="none" stroke="midnightblue" d="M591.45,-74.51C577.35,-71.77 562.14,-69.06 548,-67 498.7,-59.84 442.04,-54.69 402.18,-51.58"/>
<polygon fill="midnightblue" stroke="midnightblue" points="591,-77.98 601.49,-76.49 592.35,-71.12 591,-77.98"/>
</g>
<!-- Node13 -->
<g id="node13" class="node">
<title>Node13</title>
<g id="a_node13"><a xlink:href="TESTSUITE_2symmetry_8f90.html#a3b296df1635014141d34c35a16a77178" target="_top" xlink:title=" ">
<polygon fill="white" stroke="black" points="438,-0.5 438,-19.5 548,-19.5 548,-0.5 438,-0.5"/>
<text text-anchor="middle" x="493" y="-7.5" font-family="Helvetica,sans-Serif" font-size="10.00">test_symmetry_water</text>
</a>
</g>
</g>
<!-- Node2&#45;&gt;Node13 -->
<g id="edge16" class="edge">
<title>Node2&#45;&gt;Node13</title>
<path fill="none" stroke="midnightblue" d="M619.55,-71.51C600.05,-60.78 572.59,-46 548,-34 537.77,-29 526.25,-23.83 516.5,-19.57"/>
<polygon fill="midnightblue" stroke="midnightblue" points="617.99,-74.64 628.43,-76.42 621.37,-68.52 617.99,-74.64"/>
</g>
<!-- Node4 -->
<g id="node4" class="node">
<title>Node4</title>
<g id="a_node4"><a xlink:href="namespacextb__propertyoutput.html#ad782985a4e00b53e23bb10b09058997c" target="_top" xlink:title=" ">
<polygon fill="white" stroke="black" points="302,-229 302,-259 398,-259 398,-229 302,-229"/>
<text text-anchor="start" x="310" y="-247" font-family="Helvetica,sans-Serif" font-size="10.00">xtb_propertyoutput</text>
<text text-anchor="middle" x="350" y="-236" font-family="Helvetica,sans-Serif" font-size="10.00">::main_freq</text>
</a>
</g>
</g>
<!-- Node3&#45;&gt;Node4 -->
<g id="edge3" class="edge">
<title>Node3&#45;&gt;Node4</title>
<path fill="none" stroke="midnightblue" d="M447.09,-203.11C427.54,-211.43 404.94,-221.05 386.57,-228.86"/>
<polygon fill="midnightblue" stroke="midnightblue" points="448.59,-206.28 456.42,-199.14 445.85,-199.84 448.59,-206.28"/>
</g>
<!-- Node7 -->
<g id="node7" class="node">
<title>Node7</title>
<g id="a_node7"><a xlink:href="TESTSUITE_2thermo_8f90.html#a2311074eb38e16a7d479e8e28b792361" target="_top" xlink:title=" ">
<polygon fill="white" stroke="black" points="304,-152.5 304,-171.5 396,-171.5 396,-152.5 304,-152.5"/>
<text text-anchor="middle" x="350" y="-159.5" font-family="Helvetica,sans-Serif" font-size="10.00">test_print_thermo</text>
</a>
</g>
</g>
<!-- Node3&#45;&gt;Node7 -->
<g id="edge6" class="edge">
<title>Node3&#45;&gt;Node7</title>
<path fill="none" stroke="midnightblue" d="M434.54,-175.03C421.72,-173.03 408.31,-170.94 396.07,-169.03"/>
<polygon fill="midnightblue" stroke="midnightblue" points="434.24,-178.53 444.66,-176.61 435.32,-171.61 434.24,-178.53"/>
</g>
<!-- Node9 -->
<g id="node9" class="node">
<title>Node9</title>
<g id="a_node9"><a xlink:href="namespacextb__prog__thermo.html#adb2b1af9c4536efaa8d399da0c89d209" target="_top" xlink:title="Main program of the thermo submodule.">
<polygon fill="white" stroke="black" points="126,-191.5 126,-210.5 262,-210.5 262,-191.5 126,-191.5"/>
<text text-anchor="middle" x="194" y="-198.5" font-family="Helvetica,sans-Serif" font-size="10.00">xtb_prog_thermo::xtbthermo</text>
</a>
</g>
</g>
<!-- Node3&#45;&gt;Node9 -->
<g id="edge8" class="edge">
<title>Node3&#45;&gt;Node9</title>
<path fill="none" stroke="midnightblue" d="M434.77,-187.28C385.48,-190.1 314.28,-194.17 262.27,-197.15"/>
<polygon fill="midnightblue" stroke="midnightblue" points="435.16,-190.76 444.94,-186.69 434.76,-183.77 435.16,-190.76"/>
</g>
<!-- Node5 -->
<g id="node5" class="node">
<title>Node5</title>
<g id="a_node5"><a xlink:href="namespacextb__prog__main.html#a92b3b61ee04235e6343f652095682529" target="_top" xlink:title=" ">
<polygon fill="white" stroke="black" points="135,-232.5 135,-251.5 253,-251.5 253,-232.5 135,-232.5"/>
<text text-anchor="middle" x="194" y="-239.5" font-family="Helvetica,sans-Serif" font-size="10.00">xtb_prog_main::xtbmain</text>
</a>
</g>
</g>
<!-- Node4&#45;&gt;Node5 -->
<g id="edge4" class="edge">
<title>Node4&#45;&gt;Node5</title>
<path fill="none" stroke="midnightblue" d="M291.62,-243.25C279.06,-243.09 265.76,-242.92 253.17,-242.76"/>
<polygon fill="midnightblue" stroke="midnightblue" points="291.91,-246.76 301.96,-243.39 292,-239.76 291.91,-246.76"/>
</g>
<!-- Node6 -->
<g id="node6" class="node">
<title>Node6</title>
<g id="a_node6"><a xlink:href="primary_8f90.html#a2a67903cf5be605c5b6d3c362c6a3c5c" target="_top" xlink:title="The primary driver for the xtb program package.">
<polygon fill="white" stroke="black" points="0,-211.5 0,-230.5 90,-230.5 90,-211.5 0,-211.5"/>
<text text-anchor="middle" x="45" y="-218.5" font-family="Helvetica,sans-Serif" font-size="10.00">xtb_prog_primary</text>
</a>
</g>
</g>
<!-- Node5&#45;&gt;Node6 -->
<g id="edge5" class="edge">
<title>Node5&#45;&gt;Node6</title>
<path fill="none" stroke="midnightblue" d="M124.65,-232.24C112.9,-230.56 100.97,-228.85 90.07,-227.3"/>
<polygon fill="midnightblue" stroke="midnightblue" points="124.51,-235.75 134.9,-233.7 125.5,-228.82 124.51,-235.75"/>
</g>
<!-- Node8 -->
<g id="node8" class="node">
<title>Node8</title>
<g id="a_node8"><a xlink:href="tests__peeq_8f90.html#a87ff5319e0d2e627a4f71d7df0d14891" target="_top" xlink:title=" ">
<polygon fill="white" stroke="black" points="160,-76.5 160,-95.5 228,-95.5 228,-76.5 160,-76.5"/>
<text text-anchor="middle" x="194" y="-83.5" font-family="Helvetica,sans-Serif" font-size="10.00">peeq_tester</text>
</a>
</g>
</g>
<!-- Node7&#45;&gt;Node8 -->
<g id="edge7" class="edge">
<title>Node7&#45;&gt;Node8</title>
<path fill="none" stroke="midnightblue" d="M319,-148.05C312.09,-144.79 304.77,-141.3 298,-138 268.29,-123.51 234.09,-106.1 213.53,-95.55"/>
<polygon fill="midnightblue" stroke="midnightblue" points="317.56,-151.24 328.09,-152.32 320.53,-144.9 317.56,-151.24"/>
</g>
<!-- Node9&#45;&gt;Node6 -->
<g id="edge9" class="edge">
<title>Node9&#45;&gt;Node6</title>
<path fill="none" stroke="midnightblue" d="M115.99,-211.48C107.16,-212.68 98.41,-213.87 90.23,-214.98"/>
<polygon fill="midnightblue" stroke="midnightblue" points="116.52,-214.94 125.95,-210.12 115.57,-208 116.52,-214.94"/>
</g>
<!-- Node10&#45;&gt;Node8 -->
<g id="edge11" class="edge">
<title>Node10&#45;&gt;Node8</title>
<path fill="none" stroke="midnightblue" d="M432.17,-116.79C393.81,-112.11 342.95,-105.84 298,-100 274.73,-96.98 248.54,-93.42 228.39,-90.64"/>
<polygon fill="midnightblue" stroke="midnightblue" points="431.79,-120.27 442.14,-118 432.63,-113.32 431.79,-120.27"/>
</g>
<!-- Node11&#45;&gt;Node8 -->
<g id="edge13" class="edge">
<title>Node11&#45;&gt;Node8</title>
<path fill="none" stroke="midnightblue" d="M434.98,-86C373.63,-86 278.15,-86 228.13,-86"/>
<polygon fill="midnightblue" stroke="midnightblue" points="435.27,-89.5 445.27,-86 435.27,-82.5 435.27,-89.5"/>
</g>
<!-- Node12&#45;&gt;Node8 -->
<g id="edge15" class="edge">
<title>Node12&#45;&gt;Node8</title>
<path fill="none" stroke="midnightblue" d="M300.34,-60.01C276.8,-65.81 249.17,-72.63 228.11,-77.83"/>
<polygon fill="midnightblue" stroke="midnightblue" points="301.27,-63.38 310.14,-57.59 299.59,-56.59 301.27,-63.38"/>
</g>
<!-- Node13&#45;&gt;Node8 -->
<g id="edge17" class="edge">
<title>Node13&#45;&gt;Node8</title>
<path fill="none" stroke="midnightblue" d="M427.71,-9.79C389.3,-11.25 339.97,-15.95 298,-29 263.26,-39.8 227.04,-63.14 208.18,-76.36"/>
<polygon fill="midnightblue" stroke="midnightblue" points="427.85,-13.28 437.73,-9.47 427.62,-6.29 427.85,-13.28"/>
</g>
</g>
</svg>
