<?xml version="1.0" encoding="UTF-8" standalone="no"?>
<!DOCTYPE svg PUBLIC "-//W3C//DTD SVG 1.1//EN"
 "http://www.w3.org/Graphics/SVG/1.1/DTD/svg11.dtd">
<!-- Generated by graphviz version 2.46.1 (20210215.1649)
 -->
<!-- Title: find_planes Pages: 1 -->
<!--zoomable 401 -->
<svg id="main" version="1.1" xmlns="http://www.w3.org/2000/svg" xmlns:xlink="http://www.w3.org/1999/xlink" xml:space="preserve" onload="init(evt)">
<style type="text/css"><![CDATA[
.edge:hover path { stroke: red; }
.edge:hover polygon { stroke: red; fill: red; }
]]></style>
<script type="text/javascript"><![CDATA[
var edges = document.getElementsByTagName('g');
if (edges && edges.length) {
  for (var i=0;i<edges.length;i++) {
    if (edges[i].id.substr(0,4)=='edge') {
      edges[i].setAttribute('class','edge');
    }
  }
}
]]></script>
        <defs>
                <circle id="rim" cx="0" cy="0" r="7"/>
                <circle id="rim2" cx="0" cy="0" r="3.5"/>
                <g id="zoomPlus">
                        <use xlink:href="#rim" fill="#404040">
                                <set attributeName="fill" to="#808080" begin="zoomplus.mouseover" end="zoomplus.mouseout"/>
                        </use>
                        <path d="M-4,0h8M0,-4v8" fill="none" stroke="white" stroke-width="1.5" pointer-events="none"/>
                </g>
                <g id="zoomMin">
                        <use xlink:href="#rim" fill="#404040">
                                <set attributeName="fill" to="#808080" begin="zoomminus.mouseover" end="zoomminus.mouseout"/>
                        </use>
                        <path d="M-4,0h8" fill="none" stroke="white" stroke-width="1.5" pointer-events="none"/>
                </g>
                <g id="dirArrow">
                        <path fill="none" stroke="white" stroke-width="1.5" d="M0,-3.0v7 M-2.5,-0.5L0,-3.0L2.5,-0.5"/>
                </g>
               <g id="resetDef">
                       <use xlink:href="#rim2" fill="#404040">
                               <set attributeName="fill" to="#808080" begin="reset.mouseover" end="reset.mouseout"/>
                       </use>
               </g>
        </defs>

<script type="text/javascript">
var viewWidth = 948;
var viewHeight = 401;
var sectionId = 'dynsection-26';
</script>
<script xlink:href="svgpan.js"/>
<svg id="graph" class="graph">
<g id="viewport">
<title>find_planes</title>
<polygon fill="white" stroke="transparent" points="-4,4 -4,-396.92 944,-396.92 944,4 -4,4"/>
<!-- Node1 -->
<g id="node1" class="node">
<title>Node1</title>
<g id="a_node1"><a xlink:title=" ">
<polygon fill="#bfbfbf" stroke="black" points="0,-305.5 0,-324.5 65,-324.5 65,-305.5 0,-305.5"/>
<text text-anchor="middle" x="32.5" y="-312.5" font-family="Helvetica,sans-Serif" font-size="10.00">find_planes</text>
</a>
</g>
</g>
<!-- Node2 -->
<g id="node2" class="node">
<title>Node2</title>
<g id="a_node2"><a xlink:href="symmetry__i_8c.html#a28a580c316f874592fa976504885670c" target="_top" xlink:title=" ">
<polygon fill="white" stroke="black" points="106,-324.5 106,-343.5 194,-343.5 194,-324.5 106,-324.5"/>
<text text-anchor="middle" x="150" y="-331.5" font-family="Helvetica,sans-Serif" font-size="10.00">init_mirror_plane</text>
</a>
</g>
</g>
<!-- Node1&#45;&gt;Node2 -->
<g id="edge1" class="edge">
<title>Node1&#45;&gt;Node2</title>
<path fill="none" stroke="midnightblue" d="M65.06,-320.19C74.58,-321.76 85.3,-323.52 95.81,-325.25"/>
<polygon fill="midnightblue" stroke="midnightblue" points="95.35,-328.72 105.79,-326.89 96.49,-321.81 95.35,-328.72"/>
</g>
<!-- Node24 -->
<g id="node24" class="node">
<title>Node24</title>
<g id="a_node24"><a xlink:href="symmetry__i_8c.html#a6c28e9e49e1179d0bc2ded3d008b6499" target="_top" xlink:title=" ">
<polygon fill="white" stroke="black" points="101,-286.5 101,-305.5 199,-305.5 199,-286.5 101,-286.5"/>
<text text-anchor="middle" x="150" y="-293.5" font-family="Helvetica,sans-Serif" font-size="10.00">init_ultimate_plane</text>
</a>
</g>
</g>
<!-- Node1&#45;&gt;Node24 -->
<g id="edge34" class="edge">
<title>Node1&#45;&gt;Node24</title>
<path fill="none" stroke="midnightblue" d="M65.06,-309.81C73.02,-308.5 81.82,-307.05 90.64,-305.6"/>
<polygon fill="midnightblue" stroke="midnightblue" points="91.26,-309.05 100.56,-303.97 90.13,-302.14 91.26,-309.05"/>
</g>
<!-- Node3 -->
<g id="node3" class="node">
<title>Node3</title>
<g id="a_node3"><a xlink:href="symmetry__i_8c.html#a52d770f57f14b01b1cdfec44136398cf" target="_top" xlink:title=" ">
<polygon fill="white" stroke="black" points="240.5,-362.5 240.5,-381.5 364.5,-381.5 364.5,-362.5 240.5,-362.5"/>
<text text-anchor="middle" x="302.5" y="-369.5" font-family="Helvetica,sans-Serif" font-size="10.00">alloc_symmetry_element</text>
</a>
</g>
</g>
<!-- Node2&#45;&gt;Node3 -->
<g id="edge2" class="edge">
<title>Node2&#45;&gt;Node3</title>
<path fill="none" stroke="midnightblue" d="M188.98,-343.59C208.66,-348.56 232.89,-354.68 253.82,-359.96"/>
<polygon fill="midnightblue" stroke="midnightblue" points="253.24,-363.43 263.8,-362.48 254.96,-356.64 253.24,-363.43"/>
</g>
<!-- Node5 -->
<g id="node5" class="node">
<title>Node5</title>
<g id="a_node5"><a xlink:href="symmetry__i_8c.html#a4cd99fa0e4dd85776e474ec761ed0876" target="_top" xlink:title=" ">
<polygon fill="white" stroke="black" points="235,-286.5 235,-305.5 370,-305.5 370,-286.5 235,-286.5"/>
<text text-anchor="middle" x="302.5" y="-293.5" font-family="Helvetica,sans-Serif" font-size="10.00">destroy_symmetry_element</text>
</a>
</g>
</g>
<!-- Node2&#45;&gt;Node5 -->
<g id="edge4" class="edge">
<title>Node2&#45;&gt;Node5</title>
<path fill="none" stroke="midnightblue" d="M188.98,-324.41C208.66,-319.44 232.89,-313.32 253.82,-308.04"/>
<polygon fill="midnightblue" stroke="midnightblue" points="254.96,-311.36 263.8,-305.52 253.24,-304.57 254.96,-311.36"/>
</g>
<!-- Node6 -->
<g id="node6" class="node">
<title>Node6</title>
<g id="a_node6"><a xlink:href="symmetry__i_8c.html#ae5191120d6d35945c2693f299c310778" target="_top" xlink:title=" ">
<polygon fill="white" stroke="black" points="268.5,-324.5 268.5,-343.5 336.5,-343.5 336.5,-324.5 268.5,-324.5"/>
<text text-anchor="middle" x="302.5" y="-331.5" font-family="Helvetica,sans-Serif" font-size="10.00">mirror_atom</text>
</a>
</g>
</g>
<!-- Node2&#45;&gt;Node6 -->
<g id="edge6" class="edge">
<title>Node2&#45;&gt;Node6</title>
<path fill="none" stroke="midnightblue" d="M194.13,-334C214.25,-334 238.14,-334 258.27,-334"/>
<polygon fill="midnightblue" stroke="midnightblue" points="258.41,-337.5 268.41,-334 258.41,-330.5 258.41,-337.5"/>
</g>
<!-- Node7 -->
<g id="node7" class="node">
<title>Node7</title>
<g id="a_node7"><a xlink:href="symmetry__i_8c.html#aff39b1566e9d87c46184c58d49b46ab4" target="_top" xlink:title=" ">
<polygon fill="white" stroke="black" points="239,-199.5 239,-218.5 366,-218.5 366,-199.5 239,-199.5"/>
<text text-anchor="middle" x="302.5" y="-206.5" font-family="Helvetica,sans-Serif" font-size="10.00">refine_symmetry_element</text>
</a>
</g>
</g>
<!-- Node2&#45;&gt;Node7 -->
<g id="edge7" class="edge">
<title>Node2&#45;&gt;Node7</title>
<path fill="none" stroke="midnightblue" d="M180.96,-324.48C187.18,-321.87 193.51,-318.72 199,-315 218.27,-301.97 218.87,-293.76 235,-277 251.85,-259.5 271.29,-239.65 284.79,-225.94"/>
<polygon fill="midnightblue" stroke="midnightblue" points="287.46,-228.22 291.98,-218.64 282.47,-223.31 287.46,-228.22"/>
</g>
<!-- Node4 -->
<g id="node4" class="node">
<title>Node4</title>
<g id="a_node4"><a xlink:href="elem_8f90.html#ae2a0e630d3a8fea4a12abcc607d7fc5d" target="_top" xlink:title=" ">
<polygon fill="white" stroke="black" points="738,-221.5 738,-240.5 776,-240.5 776,-221.5 738,-221.5"/>
<text text-anchor="middle" x="757" y="-228.5" font-family="Helvetica,sans-Serif" font-size="10.00">elem</text>
</a>
</g>
</g>
<!-- Node3&#45;&gt;Node4 -->
<g id="edge3" class="edge">
<title>Node3&#45;&gt;Node4</title>
<path fill="none" stroke="midnightblue" d="M351.43,-381.54C427.79,-394.07 579.15,-407.73 684,-345 719.66,-323.66 740.49,-277.09 749.91,-250.55"/>
<polygon fill="midnightblue" stroke="midnightblue" points="753.3,-251.43 753.16,-240.84 746.66,-249.21 753.3,-251.43"/>
</g>
<!-- Node5&#45;&gt;Node4 -->
<g id="edge5" class="edge">
<title>Node5&#45;&gt;Node4</title>
<path fill="none" stroke="midnightblue" d="M349.86,-305.53C438.09,-322.71 626.51,-354.56 684,-326 715.82,-310.19 737.35,-272.85 748.07,-249.98"/>
<polygon fill="midnightblue" stroke="midnightblue" points="751.37,-251.17 752.24,-240.61 744.98,-248.33 751.37,-251.17"/>
</g>
<!-- Node7&#45;&gt;Node4 -->
<g id="edge20" class="edge">
<title>Node7&#45;&gt;Node4</title>
<path fill="none" stroke="midnightblue" d="M320.98,-218.53C361.71,-240.06 466.73,-291.82 562,-307 615.55,-315.53 634.19,-328.42 684,-307 711.28,-295.27 733.07,-267.55 745.26,-249.03"/>
<polygon fill="midnightblue" stroke="midnightblue" points="748.23,-250.88 750.6,-240.56 742.31,-247.15 748.23,-250.88"/>
</g>
<!-- Node8 -->
<g id="node8" class="node">
<title>Node8</title>
<g id="a_node8"><a xlink:href="symmetry__i_8c.html#a401172a43970238f56e75a2bd25bf3a5" target="_top" xlink:title=" ">
<polygon fill="white" stroke="black" points="408,-114.5 408,-133.5 524,-133.5 524,-114.5 408,-114.5"/>
<text text-anchor="middle" x="466" y="-121.5" font-family="Helvetica,sans-Serif" font-size="10.00">check_transform_order</text>
</a>
</g>
</g>
<!-- Node7&#45;&gt;Node8 -->
<g id="edge8" class="edge">
<title>Node7&#45;&gt;Node8</title>
<path fill="none" stroke="midnightblue" d="M321.71,-199.41C349.94,-184.56 404.45,-155.87 437.49,-138.48"/>
<polygon fill="midnightblue" stroke="midnightblue" points="439.39,-141.44 446.61,-133.68 436.13,-135.24 439.39,-141.44"/>
</g>
<!-- Node16 -->
<g id="node16" class="node">
<title>Node16</title>
<g id="a_node16"><a xlink:href="symmetry__i_8c.html#abcbb13fcbff6e3466225582a389ac455" target="_top" xlink:title=" ">
<polygon fill="white" stroke="black" points="562,-38.5 562,-57.5 684,-57.5 684,-38.5 562,-38.5"/>
<text text-anchor="middle" x="623" y="-45.5" font-family="Helvetica,sans-Serif" font-size="10.00">check_transform_quality</text>
</a>
</g>
</g>
<!-- Node7&#45;&gt;Node16 -->
<g id="edge17" class="edge">
<title>Node7&#45;&gt;Node16</title>
<path fill="none" stroke="midnightblue" d="M310.21,-199.28C325.01,-178.62 362.57,-130.17 406,-105 450.83,-79.02 507.69,-64.63 551.82,-56.81"/>
<polygon fill="midnightblue" stroke="midnightblue" points="552.62,-60.23 561.89,-55.1 551.44,-53.32 552.62,-60.23"/>
</g>
<!-- Node18 -->
<g id="node18" class="node">
<title>Node18</title>
<g id="a_node18"><a xlink:href="symmetry__i_8c.html#a0e979a95e67dd97b50d84529eded6011" target="_top" xlink:title=" ">
<polygon fill="white" stroke="black" points="582,-0.5 582,-19.5 664,-19.5 664,-0.5 582,-0.5"/>
<text text-anchor="middle" x="623" y="-7.5" font-family="Helvetica,sans-Serif" font-size="10.00">establish_pairs</text>
</a>
</g>
</g>
<!-- Node7&#45;&gt;Node18 -->
<g id="edge21" class="edge">
<title>Node7&#45;&gt;Node18</title>
<path fill="none" stroke="midnightblue" d="M307.08,-199.44C317.67,-172.59 351.49,-96.07 406,-59 455.66,-25.23 525.13,-14.42 571.75,-11.14"/>
<polygon fill="midnightblue" stroke="midnightblue" points="572.15,-14.62 581.91,-10.51 571.72,-7.63 572.15,-14.62"/>
</g>
<!-- Node19 -->
<g id="node19" class="node">
<title>Node19</title>
<g id="a_node19"><a xlink:href="symmetry__i_8c.html#a840dda299cb1beb196d463448f6b85bd" target="_top" xlink:title=" ">
<polygon fill="white" stroke="black" points="406,-216 406,-246 526,-246 526,-216 406,-216"/>
<text text-anchor="start" x="414" y="-234" font-family="Helvetica,sans-Serif" font-size="10.00">optimize_transformation</text>
<text text-anchor="middle" x="466" y="-223" font-family="Helvetica,sans-Serif" font-size="10.00">_params</text>
</a>
</g>
</g>
<!-- Node7&#45;&gt;Node19 -->
<g id="edge24" class="edge">
<title>Node7&#45;&gt;Node19</title>
<path fill="none" stroke="midnightblue" d="M366.4,-217.57C376.07,-218.89 386.09,-220.25 395.88,-221.58"/>
<polygon fill="midnightblue" stroke="midnightblue" points="395.59,-225.08 405.97,-222.96 396.53,-218.14 395.59,-225.08"/>
</g>
<!-- Node23 -->
<g id="node23" class="node">
<title>Node23</title>
<g id="a_node23"><a xlink:href="symmetry__i_8c.html#ada87e9244d2d583fb2cbc7208b3883b9" target="_top" xlink:title=" ">
<polygon fill="white" stroke="black" points="422.5,-177.5 422.5,-196.5 509.5,-196.5 509.5,-177.5 422.5,-177.5"/>
<text text-anchor="middle" x="466" y="-184.5" font-family="Helvetica,sans-Serif" font-size="10.00">same_transform</text>
</a>
</g>
</g>
<!-- Node7&#45;&gt;Node23 -->
<g id="edge33" class="edge">
<title>Node7&#45;&gt;Node23</title>
<path fill="none" stroke="midnightblue" d="M366.4,-200.43C381.66,-198.35 397.81,-196.15 412.53,-194.15"/>
<polygon fill="midnightblue" stroke="midnightblue" points="413.02,-197.61 422.46,-192.8 412.07,-190.68 413.02,-197.61"/>
</g>
<!-- Node8&#45;&gt;Node4 -->
<g id="edge9" class="edge">
<title>Node8&#45;&gt;Node4</title>
<path fill="none" stroke="midnightblue" d="M524.32,-117.3C570.16,-114.6 634.68,-116.94 684,-143 713.38,-158.53 735.25,-191.69 746.79,-212.57"/>
<polygon fill="midnightblue" stroke="midnightblue" points="743.72,-214.25 751.48,-221.46 749.91,-210.98 743.72,-214.25"/>
</g>
<!-- Node9 -->
<g id="node9" class="node">
<title>Node9</title>
<g id="a_node9"><a xlink:href="symmetry__i_8c.html#ad478abbd8c6b45859d4614081bc2660e" target="_top" xlink:title=" ">
<polygon fill="white" stroke="black" points="573,-76.5 573,-95.5 673,-95.5 673,-76.5 573,-76.5"/>
<text text-anchor="middle" x="623" y="-83.5" font-family="Helvetica,sans-Serif" font-size="10.00">rotate_reflect_atom</text>
</a>
</g>
</g>
<!-- Node8&#45;&gt;Node9 -->
<g id="edge10" class="edge">
<title>Node8&#45;&gt;Node9</title>
<path fill="none" stroke="midnightblue" d="M506.11,-114.41C526.47,-109.42 551.57,-103.27 573.19,-97.97"/>
<polygon fill="midnightblue" stroke="midnightblue" points="574.29,-101.3 583.17,-95.52 572.62,-94.5 574.29,-101.3"/>
</g>
<!-- Node10 -->
<g id="node10" class="node">
<title>Node10</title>
<g id="a_node10"><a xlink:href="namespacextb__axis.html#a17d974ca7396eb007888d7fd9743edac" target="_top" xlink:title=" ">
<polygon fill="white" stroke="black" points="720,-76.5 720,-95.5 794,-95.5 794,-76.5 720,-76.5"/>
<text text-anchor="middle" x="757" y="-83.5" font-family="Helvetica,sans-Serif" font-size="10.00">xtb_axis::axis</text>
</a>
</g>
</g>
<!-- Node9&#45;&gt;Node10 -->
<g id="edge11" class="edge">
<title>Node9&#45;&gt;Node10</title>
<path fill="none" stroke="midnightblue" d="M673.15,-86C685.06,-86 697.75,-86 709.52,-86"/>
<polygon fill="midnightblue" stroke="midnightblue" points="709.6,-89.5 719.6,-86 709.6,-82.5 709.6,-89.5"/>
</g>
<!-- Node11 -->
<g id="node11" class="node">
<title>Node11</title>
<g id="a_node11"><a xlink:href="drsp_8f.html#ac8791cdbe49427e661f00b126ce4dbbc" target="_top" xlink:title=" ">
<polygon fill="white" stroke="black" points="830,-76.5 830,-95.5 860,-95.5 860,-76.5 830,-76.5"/>
<text text-anchor="middle" x="845" y="-83.5" font-family="Helvetica,sans-Serif" font-size="10.00">rsp</text>
</a>
</g>
</g>
<!-- Node10&#45;&gt;Node11 -->
<g id="edge12" class="edge">
<title>Node10&#45;&gt;Node11</title>
<path fill="none" stroke="midnightblue" d="M794.47,-86C802.94,-86 811.74,-86 819.55,-86"/>
<polygon fill="midnightblue" stroke="midnightblue" points="819.76,-89.5 829.76,-86 819.76,-82.5 819.76,-89.5"/>
</g>
<!-- Node12 -->
<g id="node12" class="node">
<title>Node12</title>
<g id="a_node12"><a xlink:href="drsp_8f.html#a163d6464d6ff31893ac0abcfa0d6eeec" target="_top" xlink:title=" ">
<polygon fill="white" stroke="black" points="902,-133.5 902,-152.5 934,-152.5 934,-133.5 902,-133.5"/>
<text text-anchor="middle" x="918" y="-140.5" font-family="Helvetica,sans-Serif" font-size="10.00">tql2</text>
</a>
</g>
</g>
<!-- Node11&#45;&gt;Node12 -->
<g id="edge13" class="edge">
<title>Node11&#45;&gt;Node12</title>
<path fill="none" stroke="midnightblue" d="M858.04,-95.67C868.72,-104.24 884.51,-116.91 897.06,-126.99"/>
<polygon fill="midnightblue" stroke="midnightblue" points="895.14,-129.94 905.13,-133.47 899.53,-124.48 895.14,-129.94"/>
</g>
<!-- Node13 -->
<g id="node13" class="node">
<title>Node13</title>
<g id="a_node13"><a xlink:href="drsp_8f.html#a47a86ab7ed20a30b44b28253866ac7ff" target="_top" xlink:title=" ">
<polygon fill="white" stroke="black" points="899,-95.5 899,-114.5 937,-114.5 937,-95.5 899,-95.5"/>
<text text-anchor="middle" x="918" y="-102.5" font-family="Helvetica,sans-Serif" font-size="10.00">tqlrat</text>
</a>
</g>
</g>
<!-- Node11&#45;&gt;Node13 -->
<g id="edge14" class="edge">
<title>Node11&#45;&gt;Node13</title>
<path fill="none" stroke="midnightblue" d="M860.03,-89.75C868.31,-91.97 879.08,-94.85 889.03,-97.51"/>
<polygon fill="midnightblue" stroke="midnightblue" points="888.39,-100.97 898.95,-100.17 890.2,-94.2 888.39,-100.97"/>
</g>
<!-- Node14 -->
<g id="node14" class="node">
<title>Node14</title>
<g id="a_node14"><a xlink:href="drsp_8f.html#a035138691289fce6e2d30c8b3c41188f" target="_top" xlink:title=" ">
<polygon fill="white" stroke="black" points="896,-57.5 896,-76.5 940,-76.5 940,-57.5 896,-57.5"/>
<text text-anchor="middle" x="918" y="-64.5" font-family="Helvetica,sans-Serif" font-size="10.00">trbak3</text>
</a>
</g>
</g>
<!-- Node11&#45;&gt;Node14 -->
<g id="edge15" class="edge">
<title>Node11&#45;&gt;Node14</title>
<path fill="none" stroke="midnightblue" d="M860.03,-82.25C867.49,-80.25 876.97,-77.71 886.05,-75.28"/>
<polygon fill="midnightblue" stroke="midnightblue" points="887.24,-78.59 896,-72.62 885.43,-71.82 887.24,-78.59"/>
</g>
<!-- Node15 -->
<g id="node15" class="node">
<title>Node15</title>
<g id="a_node15"><a xlink:href="drsp_8f.html#a160df22dcc004ea7373039d1db601e3d" target="_top" xlink:title=" ">
<polygon fill="white" stroke="black" points="899,-19.5 899,-38.5 937,-38.5 937,-19.5 899,-19.5"/>
<text text-anchor="middle" x="918" y="-26.5" font-family="Helvetica,sans-Serif" font-size="10.00">tred3</text>
</a>
</g>
</g>
<!-- Node11&#45;&gt;Node15 -->
<g id="edge16" class="edge">
<title>Node11&#45;&gt;Node15</title>
<path fill="none" stroke="midnightblue" d="M858.04,-76.33C868.72,-67.76 884.51,-55.09 897.06,-45.01"/>
<polygon fill="midnightblue" stroke="midnightblue" points="899.53,-47.52 905.13,-38.53 895.14,-42.06 899.53,-47.52"/>
</g>
<!-- Node16&#45;&gt;Node4 -->
<g id="edge18" class="edge">
<title>Node16&#45;&gt;Node4</title>
<path fill="none" stroke="midnightblue" d="M669.22,-57.59C674.6,-60.05 679.69,-63.13 684,-67 727.64,-106.21 746.06,-176.7 752.74,-211.07"/>
<polygon fill="midnightblue" stroke="midnightblue" points="749.35,-212.02 754.57,-221.24 756.24,-210.78 749.35,-212.02"/>
</g>
<!-- Node17 -->
<g id="node17" class="node">
<title>Node17</title>
<g id="a_node17"><a xlink:href="symmetry__i_8c.html#a347fe37bf882cc1be3efe68082ffbd12" target="_top" xlink:title=" ">
<polygon fill="white" stroke="black" points="737,-38.5 737,-57.5 777,-57.5 777,-38.5 737,-38.5"/>
<text text-anchor="middle" x="757" y="-45.5" font-family="Helvetica,sans-Serif" font-size="10.00">pow2</text>
</a>
</g>
</g>
<!-- Node16&#45;&gt;Node17 -->
<g id="edge19" class="edge">
<title>Node16&#45;&gt;Node17</title>
<path fill="none" stroke="midnightblue" d="M684.21,-48C698.93,-48 714.04,-48 726.58,-48"/>
<polygon fill="midnightblue" stroke="midnightblue" points="726.86,-51.5 736.86,-48 726.86,-44.5 726.86,-51.5"/>
</g>
<!-- Node18&#45;&gt;Node4 -->
<g id="edge22" class="edge">
<title>Node18&#45;&gt;Node4</title>
<path fill="none" stroke="midnightblue" d="M664.28,-17.1C671.52,-19.86 678.5,-23.69 684,-29 697.7,-42.22 735.48,-163.3 750.11,-211.42"/>
<polygon fill="midnightblue" stroke="midnightblue" points="746.84,-212.69 753.08,-221.25 753.54,-210.66 746.84,-212.69"/>
</g>
<!-- Node18&#45;&gt;Node17 -->
<g id="edge23" class="edge">
<title>Node18&#45;&gt;Node17</title>
<path fill="none" stroke="midnightblue" d="M657.31,-19.59C678.74,-25.76 706.32,-33.7 726.88,-39.62"/>
<polygon fill="midnightblue" stroke="midnightblue" points="726.05,-43.02 736.63,-42.42 727.99,-36.29 726.05,-43.02"/>
</g>
<!-- Node19&#45;&gt;Node4 -->
<g id="edge25" class="edge">
<title>Node19&#45;&gt;Node4</title>
<path fill="none" stroke="midnightblue" d="M526.18,-231C587.64,-231 681.18,-231 727.69,-231"/>
<polygon fill="midnightblue" stroke="midnightblue" points="727.93,-234.5 737.93,-231 727.93,-227.5 727.93,-234.5"/>
</g>
<!-- Node20 -->
<g id="node20" class="node">
<title>Node20</title>
<g id="a_node20"><a xlink:href="symmetry__i_8c.html#aa5e7898a49d284cd7813b2e3dacc0857" target="_top" xlink:title=" ">
<polygon fill="white" stroke="black" points="562,-153 562,-183 684,-183 684,-153 562,-153"/>
<text text-anchor="start" x="570" y="-171" font-family="Helvetica,sans-Serif" font-size="10.00">eval_optimization_target</text>
<text text-anchor="middle" x="623" y="-160" font-family="Helvetica,sans-Serif" font-size="10.00">_function</text>
</a>
</g>
</g>
<!-- Node19&#45;&gt;Node20 -->
<g id="edge26" class="edge">
<title>Node19&#45;&gt;Node20</title>
<path fill="none" stroke="midnightblue" d="M504.13,-215.91C525.52,-207.21 552.61,-196.2 575.42,-186.93"/>
<polygon fill="midnightblue" stroke="midnightblue" points="576.96,-190.08 584.91,-183.08 574.33,-183.6 576.96,-190.08"/>
</g>
<!-- Node21 -->
<g id="node21" class="node">
<title>Node21</title>
<g id="a_node21"><a xlink:href="symmetry__i_8c.html#ad72477419409dc5d22f1f00ac0bd8609" target="_top" xlink:title=" ">
<polygon fill="white" stroke="black" points="589,-202.5 589,-221.5 657,-221.5 657,-202.5 589,-202.5"/>
<text text-anchor="middle" x="623" y="-209.5" font-family="Helvetica,sans-Serif" font-size="10.00">get_params</text>
</a>
</g>
</g>
<!-- Node19&#45;&gt;Node21 -->
<g id="edge29" class="edge">
<title>Node19&#45;&gt;Node21</title>
<path fill="none" stroke="midnightblue" d="M526.04,-223.76C543.45,-221.63 562.17,-219.33 578.42,-217.34"/>
<polygon fill="midnightblue" stroke="midnightblue" points="579.2,-220.77 588.7,-216.08 578.34,-213.83 579.2,-220.77"/>
</g>
<!-- Node22 -->
<g id="node22" class="node">
<title>Node22</title>
<g id="a_node22"><a xlink:href="symmetry__i_8c.html#a0314524bc1022f80982ecf4dd39ddbc2" target="_top" xlink:title=" ">
<polygon fill="white" stroke="black" points="589,-278.5 589,-297.5 657,-297.5 657,-278.5 589,-278.5"/>
<text text-anchor="middle" x="623" y="-285.5" font-family="Helvetica,sans-Serif" font-size="10.00">set_params</text>
</a>
</g>
</g>
<!-- Node19&#45;&gt;Node22 -->
<g id="edge31" class="edge">
<title>Node19&#45;&gt;Node22</title>
<path fill="none" stroke="midnightblue" d="M508.13,-246.13C532.46,-255.07 562.97,-266.29 586.28,-274.87"/>
<polygon fill="midnightblue" stroke="midnightblue" points="585.2,-278.2 595.8,-278.36 587.62,-271.63 585.2,-278.2"/>
</g>
<!-- Node20&#45;&gt;Node4 -->
<g id="edge27" class="edge">
<title>Node20&#45;&gt;Node4</title>
<path fill="none" stroke="midnightblue" d="M661.68,-183.08C669.13,-186.24 676.85,-189.63 684,-193 699.58,-200.34 716.65,-209.3 730.25,-216.68"/>
<polygon fill="midnightblue" stroke="midnightblue" points="728.6,-219.77 739.05,-221.5 731.96,-213.63 728.6,-219.77"/>
</g>
<!-- Node20&#45;&gt;Node17 -->
<g id="edge28" class="edge">
<title>Node20&#45;&gt;Node17</title>
<path fill="none" stroke="midnightblue" d="M638.32,-152.99C650.48,-140.23 668.4,-121.43 684,-105 700.02,-88.13 701.47,-81.06 720,-67 722.51,-65.1 725.24,-63.28 728.03,-61.58"/>
<polygon fill="midnightblue" stroke="midnightblue" points="729.97,-64.5 736.98,-56.56 726.55,-58.39 729.97,-64.5"/>
</g>
<!-- Node21&#45;&gt;Node4 -->
<g id="edge30" class="edge">
<title>Node21&#45;&gt;Node4</title>
<path fill="none" stroke="midnightblue" d="M657.31,-216.79C679.03,-219.92 707.08,-223.96 727.71,-226.93"/>
<polygon fill="midnightblue" stroke="midnightblue" points="727.36,-230.41 737.76,-228.37 728.36,-223.49 727.36,-230.41"/>
</g>
<!-- Node22&#45;&gt;Node4 -->
<g id="edge32" class="edge">
<title>Node22&#45;&gt;Node4</title>
<path fill="none" stroke="midnightblue" d="M648.63,-278.46C659.52,-274.17 672.45,-268.95 684,-264 698.85,-257.63 715.23,-250.16 728.61,-243.94"/>
<polygon fill="midnightblue" stroke="midnightblue" points="730.19,-247.06 737.76,-239.66 727.22,-240.72 730.19,-247.06"/>
</g>
<!-- Node24&#45;&gt;Node3 -->
<g id="edge35" class="edge">
<title>Node24&#45;&gt;Node3</title>
<path fill="none" stroke="midnightblue" d="M180.96,-305.52C187.18,-308.13 193.51,-311.28 199,-315 218.27,-328.03 215.11,-340.93 235,-353 238.58,-355.17 242.42,-357.11 246.38,-358.82"/>
<polygon fill="midnightblue" stroke="midnightblue" points="245.19,-362.12 255.78,-362.46 247.71,-355.59 245.19,-362.12"/>
</g>
<!-- Node24&#45;&gt;Node5 -->
<g id="edge36" class="edge">
<title>Node24&#45;&gt;Node5</title>
<path fill="none" stroke="midnightblue" d="M199.03,-296C207.26,-296 215.98,-296 224.73,-296"/>
<polygon fill="midnightblue" stroke="midnightblue" points="224.99,-299.5 234.99,-296 224.99,-292.5 224.99,-299.5"/>
</g>
<!-- Node24&#45;&gt;Node6 -->
<g id="edge37" class="edge">
<title>Node24&#45;&gt;Node6</title>
<path fill="none" stroke="midnightblue" d="M188.98,-305.59C210.12,-310.93 236.52,-317.59 258.43,-323.12"/>
<polygon fill="midnightblue" stroke="midnightblue" points="257.59,-326.52 268.15,-325.58 259.31,-319.74 257.59,-326.52"/>
</g>
<!-- Node24&#45;&gt;Node7 -->
<g id="edge38" class="edge">
<title>Node24&#45;&gt;Node7</title>
<path fill="none" stroke="midnightblue" d="M167.68,-286.36C193.9,-271.2 244.94,-241.7 275.85,-223.83"/>
<polygon fill="midnightblue" stroke="midnightblue" points="277.84,-226.72 284.74,-218.69 274.33,-220.66 277.84,-226.72"/>
</g>
</g>
</svg>
        <g id="navigator" transform="translate(0 0)" fill="#404254">
                <rect fill="#f2f5e9" fill-opacity="0.5" stroke="#606060" stroke-width=".5" x="0" y="0" width="60" height="60"/>
                <use id="zoomplus" xlink:href="#zoomPlus" x="17" y="9" onmousedown="handleZoom(evt,'in')"/>
                <use id="zoomminus" xlink:href="#zoomMin" x="42" y="9" onmousedown="handleZoom(evt,'out')"/>
                <use id="reset" xlink:href="#resetDef" x="30" y="36" onmousedown="handleReset()"/>
                <g id="arrowUp" xlink:href="#dirArrow" transform="translate(30 24)" onmousedown="handlePan(0,-1)">
                  <use xlink:href="#rim" fill="#404040">
                        <set attributeName="fill" to="#808080" begin="arrowUp.mouseover" end="arrowUp.mouseout"/>
                  </use>
                  <path fill="none" stroke="white" stroke-width="1.5" d="M0,-3.0v7 M-2.5,-0.5L0,-3.0L2.5,-0.5"/>
                </g>
                <g id="arrowRight" xlink:href="#dirArrow" transform="rotate(90) translate(36 -43)" onmousedown="handlePan(1,0)">
                  <use xlink:href="#rim" fill="#404040">
                        <set attributeName="fill" to="#808080" begin="arrowRight.mouseover" end="arrowRight.mouseout"/>
                  </use>
                  <path fill="none" stroke="white" stroke-width="1.5" d="M0,-3.0v7 M-2.5,-0.5L0,-3.0L2.5,-0.5"/>
                </g>
                <g id="arrowDown" xlink:href="#dirArrow" transform="rotate(180) translate(-30 -48)" onmousedown="handlePan(0,1)">
                  <use xlink:href="#rim" fill="#404040">
                        <set attributeName="fill" to="#808080" begin="arrowDown.mouseover" end="arrowDown.mouseout"/>
                  </use>
                  <path fill="none" stroke="white" stroke-width="1.5" d="M0,-3.0v7 M-2.5,-0.5L0,-3.0L2.5,-0.5"/>
                </g>
                <g id="arrowLeft" xlink:href="#dirArrow" transform="rotate(270) translate(-36 17)" onmousedown="handlePan(-1,0)">
                  <use xlink:href="#rim" fill="#404040">
                        <set attributeName="fill" to="#808080" begin="arrowLeft.mouseover" end="arrowLeft.mouseout"/>
                  </use>
                  <path fill="none" stroke="white" stroke-width="1.5" d="M0,-3.0v7 M-2.5,-0.5L0,-3.0L2.5,-0.5"/>
                </g>
        </g>
        <svg viewBox="0 0 15 15" width="100%" height="30px" preserveAspectRatio="xMaxYMin meet">
         <g id="arrow_out" transform="scale(0.3 0.3)">
          <a xlink:href="symmetry__i_8c_adc43fe3d7619599e2aa3405466fc99d8_cgraph_org.svg" target="_base">
           <rect id="button" ry="5" rx="5" y="6" x="6" height="38" width="38"
                fill="#f2f5e9" fill-opacity="0.5" stroke="#606060" stroke-width="1.0"/>
           <path id="arrow"
             d="M 11.500037,31.436501 C 11.940474,20.09759 22.043105,11.32322 32.158766,21.979434 L 37.068811,17.246167 C 37.068811,17.246167 37.088388,32 37.088388,32 L 22.160133,31.978069 C 22.160133,31.978069 26.997745,27.140456 26.997745,27.140456 C 18.528582,18.264221 13.291696,25.230495 11.500037,31.436501 z"
             style="fill:#404040;"/>
          </a>
         </g>
        </svg>
</svg>
