<?xml version="1.0" encoding="UTF-8" standalone="no"?>
<!DOCTYPE svg PUBLIC "-//W3C//DTD SVG 1.1//EN"
 "http://www.w3.org/Graphics/SVG/1.1/DTD/svg11.dtd">
<!-- Generated by graphviz version 2.43.0 (0)
 -->
<!-- Title: report_planes Pages: 1 -->
<svg width="377pt" height="39pt"
 viewBox="0.00 0.00 377.00 39.00" xmlns="http://www.w3.org/2000/svg" xmlns:xlink="http://www.w3.org/1999/xlink">
<g id="graph0" class="graph" transform="scale(1 1) rotate(0) translate(4 35)">
<title>report_planes</title>
<polygon fill="white" stroke="transparent" points="-4,4 -4,-35 373,-35 373,4 -4,4"/>
<!-- Node1 -->
<g id="node1" class="node">
<title>Node1</title>
<g id="a_node1"><a xlink:title=" ">
<polygon fill="#bfbfbf" stroke="black" points="286,-6 286,-25 369,-25 369,-6 286,-6"/>
<text text-anchor="middle" x="327.5" y="-13" font-family="Helvetica,sans-Serif" font-size="10.00">report_planes</text>
</a>
</g>
</g>
<!-- Node2 -->
<g id="node2" class="node">
<title>Node2</title>
<g id="a_node2"><a xlink:href="symmetry__i_8c.html#abb07f6f27411a83ea63bde3fa2e64a36" target="_top" xlink:title=" ">
<polygon fill="white" stroke="black" points="98,-0.5 98,-30.5 250,-30.5 250,-0.5 98,-0.5"/>
<text text-anchor="start" x="106" y="-18.5" font-family="Helvetica,sans-Serif" font-size="10.00">report_symmetry_elements</text>
<text text-anchor="middle" x="174" y="-7.5" font-family="Helvetica,sans-Serif" font-size="10.00">_verbose</text>
</a>
</g>
</g>
<!-- Node1&#45;&gt;Node2 -->
<g id="edge1" class="edge">
<title>Node1&#45;&gt;Node2</title>
<path fill="none" stroke="midnightblue" d="M275.76,-15.5C267.54,-15.5 258.88,-15.5 250.23,-15.5"/>
<polygon fill="midnightblue" stroke="midnightblue" points="275.9,-19 285.9,-15.5 275.9,-12 275.9,-19"/>
</g>
<!-- Node3 -->
<g id="node3" class="node">
<title>Node3</title>
<g id="a_node3"><a xlink:href="symmetry__i_8c.html#a4f248fe6bdc62df2f41c5abd34e81ed1" target="_top" xlink:title=" ">
<polygon fill="white" stroke="black" points="0,-6 0,-25 62,-25 62,-6 0,-6"/>
<text text-anchor="middle" x="31" y="-13" font-family="Helvetica,sans-Serif" font-size="10.00">old_main</text>
</a>
</g>
</g>
<!-- Node2&#45;&gt;Node3 -->
<g id="edge2" class="edge">
<title>Node2&#45;&gt;Node3</title>
<path fill="none" stroke="midnightblue" d="M87.68,-15.5C78.67,-15.5 70,-15.5 62.29,-15.5"/>
<polygon fill="midnightblue" stroke="midnightblue" points="87.96,-19 97.96,-15.5 87.96,-12 87.96,-19"/>
</g>
</g>
</svg>
