<?xml version="1.0" encoding="UTF-8" standalone="no"?>
<!DOCTYPE svg PUBLIC "-//W3C//DTD SVG 1.1//EN"
 "http://www.w3.org/Graphics/SVG/1.1/DTD/svg11.dtd">
<!-- Generated by graphviz version 2.43.0 (0)
 -->
<!-- Title: invert_atom Pages: 1 -->
<svg width="852pt" height="66pt"
 viewBox="0.00 0.00 852.00 66.00" xmlns="http://www.w3.org/2000/svg" xmlns:xlink="http://www.w3.org/1999/xlink">
<g id="graph0" class="graph" transform="scale(1 1) rotate(0) translate(4 62)">
<title>invert_atom</title>
<polygon fill="white" stroke="transparent" points="-4,4 -4,-62 848,-62 848,4 -4,4"/>
<!-- Node1 -->
<g id="node1" class="node">
<title>Node1</title>
<g id="a_node1"><a xlink:title=" ">
<polygon fill="#bfbfbf" stroke="black" points="768,-19.5 768,-38.5 844,-38.5 844,-19.5 768,-19.5"/>
<text text-anchor="middle" x="806" y="-26.5" font-family="Helvetica,sans-Serif" font-size="10.00">invert_atom</text>
</a>
</g>
</g>
<!-- Node2 -->
<g id="node2" class="node">
<title>Node2</title>
<g id="a_node2"><a xlink:href="symmetry__i_8c.html#a26bc67027c2e60cc5dbbf0cdcc2837be" target="_top" xlink:title=" ">
<polygon fill="white" stroke="black" points="613,-19.5 613,-38.5 732,-38.5 732,-19.5 613,-19.5"/>
<text text-anchor="middle" x="672.5" y="-26.5" font-family="Helvetica,sans-Serif" font-size="10.00">init_inversion_center</text>
</a>
</g>
</g>
<!-- Node1&#45;&gt;Node2 -->
<g id="edge1" class="edge">
<title>Node1&#45;&gt;Node2</title>
<path fill="none" stroke="midnightblue" d="M757.49,-29C749.24,-29 740.57,-29 732.07,-29"/>
<polygon fill="midnightblue" stroke="midnightblue" points="757.67,-32.5 767.67,-29 757.67,-25.5 757.67,-32.5"/>
</g>
<!-- Node3 -->
<g id="node3" class="node">
<title>Node3</title>
<g id="a_node3"><a xlink:href="symmetry__i_8c.html#a33142755e78f0ec77c8b931e270e0ef5" target="_top" xlink:title=" ">
<polygon fill="white" stroke="black" points="451,-19.5 451,-38.5 577,-38.5 577,-19.5 451,-19.5"/>
<text text-anchor="middle" x="514" y="-26.5" font-family="Helvetica,sans-Serif" font-size="10.00">find_inversion_centers</text>
</a>
</g>
</g>
<!-- Node2&#45;&gt;Node3 -->
<g id="edge2" class="edge">
<title>Node2&#45;&gt;Node3</title>
<path fill="none" stroke="midnightblue" d="M602.57,-29C594.13,-29 585.53,-29 577.19,-29"/>
<polygon fill="midnightblue" stroke="midnightblue" points="602.78,-32.5 612.78,-29 602.78,-25.5 602.78,-32.5"/>
</g>
<!-- Node4 -->
<g id="node4" class="node">
<title>Node4</title>
<g id="a_node4"><a xlink:href="symmetry__i_8c.html#a65f666e81a867d34e263423c6cbda622" target="_top" xlink:title=" ">
<polygon fill="white" stroke="black" points="274,-19.5 274,-38.5 415,-38.5 415,-19.5 274,-19.5"/>
<text text-anchor="middle" x="344.5" y="-26.5" font-family="Helvetica,sans-Serif" font-size="10.00">find_symmetry_elements</text>
</a>
</g>
</g>
<!-- Node3&#45;&gt;Node4 -->
<g id="edge3" class="edge">
<title>Node3&#45;&gt;Node4</title>
<path fill="none" stroke="midnightblue" d="M440.51,-29C432.12,-29 423.59,-29 415.25,-29"/>
<polygon fill="midnightblue" stroke="midnightblue" points="440.63,-32.5 450.63,-29 440.63,-25.5 440.63,-32.5"/>
</g>
<!-- Node5 -->
<g id="node5" class="node">
<title>Node5</title>
<g id="a_node5"><a xlink:href="symmetry__i_8c.html#a4f248fe6bdc62df2f41c5abd34e81ed1" target="_top" xlink:title=" ">
<polygon fill="white" stroke="black" points="171.5,-38.5 171.5,-57.5 233.5,-57.5 233.5,-38.5 171.5,-38.5"/>
<text text-anchor="middle" x="202.5" y="-45.5" font-family="Helvetica,sans-Serif" font-size="10.00">old_main</text>
</a>
</g>
</g>
<!-- Node4&#45;&gt;Node5 -->
<g id="edge4" class="edge">
<title>Node4&#45;&gt;Node5</title>
<path fill="none" stroke="midnightblue" d="M264,-39.79C253.26,-41.25 242.83,-42.66 233.74,-43.9"/>
<polygon fill="midnightblue" stroke="midnightblue" points="264.47,-43.26 273.91,-38.44 263.53,-36.32 264.47,-43.26"/>
</g>
<!-- Node6 -->
<g id="node6" class="node">
<title>Node6</title>
<g id="a_node6"><a xlink:href="symmetry__i_8c.html#a6c9de386e61e3a35d683a216dbcd1528" target="_top" xlink:title=" ">
<polygon fill="white" stroke="black" points="167,-0.5 167,-19.5 238,-19.5 238,-0.5 167,-0.5"/>
<text text-anchor="middle" x="202.5" y="-7.5" font-family="Helvetica,sans-Serif" font-size="10.00">schoenflies</text>
</a>
</g>
</g>
<!-- Node4&#45;&gt;Node6 -->
<g id="edge5" class="edge">
<title>Node4&#45;&gt;Node6</title>
<path fill="none" stroke="midnightblue" d="M263.8,-18.18C254.91,-16.98 246.22,-15.8 238.34,-14.73"/>
<polygon fill="midnightblue" stroke="midnightblue" points="263.53,-21.68 273.91,-19.56 264.47,-14.74 263.53,-21.68"/>
</g>
<!-- Node7 -->
<g id="node7" class="node">
<title>Node7</title>
<g id="a_node7"><a xlink:href="interfacec__interface.html#a98e1aed930d85608299bba1f41a6b07d" target="_top" xlink:title=" ">
<polygon fill="white" stroke="black" points="0,-0.5 0,-19.5 131,-19.5 131,-0.5 0,-0.5"/>
<text text-anchor="middle" x="65.5" y="-7.5" font-family="Helvetica,sans-Serif" font-size="10.00">c_interface::schoenflies</text>
</a>
</g>
</g>
<!-- Node6&#45;&gt;Node7 -->
<g id="edge6" class="edge">
<title>Node6&#45;&gt;Node7</title>
<path fill="none" stroke="midnightblue" d="M156.64,-10C148.42,-10 139.69,-10 131.03,-10"/>
<polygon fill="midnightblue" stroke="midnightblue" points="156.73,-13.5 166.73,-10 156.73,-6.5 156.73,-13.5"/>
</g>
</g>
</svg>
