<?xml version="1.0" encoding="UTF-8" standalone="no"?>
<!DOCTYPE svg PUBLIC "-//W3C//DTD SVG 1.1//EN"
 "http://www.w3.org/Graphics/SVG/1.1/DTD/svg11.dtd">
<!-- Generated by graphviz version 2.43.0 (0)
 -->
<!-- Title: init_ultimate_axis Pages: 1 -->
<!--zoomable 161 -->
<svg id="main" version="1.1" xmlns="http://www.w3.org/2000/svg" xmlns:xlink="http://www.w3.org/1999/xlink" xml:space="preserve" onload="init(evt)">
<style type="text/css"><![CDATA[
.edge:hover path { stroke: red; }
.edge:hover polygon { stroke: red; fill: red; }
]]></style>
<script type="text/javascript"><![CDATA[
var edges = document.getElementsByTagName('g');
if (edges && edges.length) {
  for (var i=0;i<edges.length;i++) {
    if (edges[i].id.substr(0,4)=='edge') {
      edges[i].setAttribute('class','edge');
    }
  }
}
]]></script>
        <defs>
                <circle id="rim" cx="0" cy="0" r="7"/>
                <circle id="rim2" cx="0" cy="0" r="3.5"/>
                <g id="zoomPlus">
                        <use xlink:href="#rim" fill="#404040">
                                <set attributeName="fill" to="#808080" begin="zoomplus.mouseover" end="zoomplus.mouseout"/>
                        </use>
                        <path d="M-4,0h8M0,-4v8" fill="none" stroke="white" stroke-width="1.5" pointer-events="none"/>
                </g>
                <g id="zoomMin">
                        <use xlink:href="#rim" fill="#404040">
                                <set attributeName="fill" to="#808080" begin="zoomminus.mouseover" end="zoomminus.mouseout"/>
                        </use>
                        <path d="M-4,0h8" fill="none" stroke="white" stroke-width="1.5" pointer-events="none"/>
                </g>
                <g id="dirArrow">
                        <path fill="none" stroke="white" stroke-width="1.5" d="M0,-3.0v7 M-2.5,-0.5L0,-3.0L2.5,-0.5"/>
                </g>
               <g id="resetDef">
                       <use xlink:href="#rim2" fill="#404040">
                               <set attributeName="fill" to="#808080" begin="reset.mouseover" end="reset.mouseout"/>
                       </use>
               </g>
        </defs>

<script type="text/javascript">
var viewWidth = 561;
var viewHeight = 161;
var sectionId = 'dynsection-46';
</script>
<script xlink:href="svgpan.js"/>
<svg id="graph" class="graph">
<g id="viewport">
<title>init_ultimate_axis</title>
<polygon fill="white" stroke="transparent" points="-4,4 -4,-157 557,-157 557,4 -4,4"/>
<!-- Node1 -->
<g id="node1" class="node">
<title>Node1</title>
<g id="a_node1"><a xlink:title=" ">
<polygon fill="#bfbfbf" stroke="black" points="0,-76.5 0,-95.5 104,-95.5 104,-76.5 0,-76.5"/>
<text text-anchor="middle" x="52" y="-83.5" font-family="Helvetica,sans-Serif" font-size="10.00">init_ultimate_axis</text>
</a>
</g>
</g>
<!-- Node2 -->
<g id="node2" class="node">
<title>Node2</title>
<g id="a_node2"><a xlink:href="symmetry__i_8c.html#a52d770f57f14b01b1cdfec44136398cf" target="_top" xlink:title=" ">
<polygon fill="white" stroke="black" points="140,-133.5 140,-152.5 281,-152.5 281,-133.5 140,-133.5"/>
<text text-anchor="middle" x="210.5" y="-140.5" font-family="Helvetica,sans-Serif" font-size="10.00">alloc_symmetry_element</text>
</a>
</g>
</g>
<!-- Node1&#45;&gt;Node2 -->
<g id="edge1" class="edge">
<title>Node1&#45;&gt;Node2</title>
<path fill="none" stroke="midnightblue" d="M77.68,-95.59C95.05,-102.28 118.89,-111.35 140,-119 150.28,-122.72 161.46,-126.64 171.78,-130.21"/>
<polygon fill="midnightblue" stroke="midnightblue" points="170.77,-133.56 181.36,-133.5 173.05,-126.94 170.77,-133.56"/>
</g>
<!-- Node4 -->
<g id="node4" class="node">
<title>Node4</title>
<g id="a_node4"><a xlink:href="namespacextb__axis.html#a17d974ca7396eb007888d7fd9743edac" target="_top" xlink:title=" ">
<polygon fill="white" stroke="black" points="317,-57.5 317,-76.5 401,-76.5 401,-57.5 317,-57.5"/>
<text text-anchor="middle" x="359" y="-64.5" font-family="Helvetica,sans-Serif" font-size="10.00">xtb_axis::axis</text>
</a>
</g>
</g>
<!-- Node1&#45;&gt;Node4 -->
<g id="edge3" class="edge">
<title>Node1&#45;&gt;Node4</title>
<path fill="none" stroke="midnightblue" d="M104.38,-89.53C150.73,-91.87 220.68,-93.33 281,-86 292.84,-84.56 305.48,-81.92 317.03,-79.06"/>
<polygon fill="midnightblue" stroke="midnightblue" points="318.05,-82.41 326.85,-76.51 316.29,-75.63 318.05,-82.41"/>
</g>
<!-- Node10 -->
<g id="node10" class="node">
<title>Node10</title>
<g id="a_node10"><a xlink:href="symmetry__i_8c.html#a347fe37bf882cc1be3efe68082ffbd12" target="_top" xlink:title=" ">
<polygon fill="white" stroke="black" points="189,-57.5 189,-76.5 232,-76.5 232,-57.5 189,-57.5"/>
<text text-anchor="middle" x="210.5" y="-64.5" font-family="Helvetica,sans-Serif" font-size="10.00">pow2</text>
</a>
</g>
</g>
<!-- Node1&#45;&gt;Node10 -->
<g id="edge9" class="edge">
<title>Node1&#45;&gt;Node10</title>
<path fill="none" stroke="midnightblue" d="M104.24,-79.78C128.8,-76.8 157.4,-73.33 178.58,-70.75"/>
<polygon fill="midnightblue" stroke="midnightblue" points="179.13,-74.21 188.63,-69.53 178.28,-67.26 179.13,-74.21"/>
</g>
<!-- Node11 -->
<g id="node11" class="node">
<title>Node11</title>
<g id="a_node11"><a xlink:href="symmetry__i_8c.html#ac17305b859f184b2c84cac9a508a3854" target="_top" xlink:title=" ">
<polygon fill="white" stroke="black" points="172,-19.5 172,-38.5 249,-38.5 249,-19.5 172,-19.5"/>
<text text-anchor="middle" x="210.5" y="-26.5" font-family="Helvetica,sans-Serif" font-size="10.00">rotate_atom</text>
</a>
</g>
</g>
<!-- Node1&#45;&gt;Node11 -->
<g id="edge10" class="edge">
<title>Node1&#45;&gt;Node11</title>
<path fill="none" stroke="midnightblue" d="M72.71,-76.41C90.13,-68.17 116.38,-56.34 140,-48 147.05,-45.51 154.6,-43.15 162.03,-40.99"/>
<polygon fill="midnightblue" stroke="midnightblue" points="163,-44.35 171.68,-38.27 161.11,-37.61 163,-44.35"/>
</g>
<!-- Node3 -->
<g id="node3" class="node">
<title>Node3</title>
<g id="a_node3"><a xlink:href="elem_8f90.html#ae2a0e630d3a8fea4a12abcc607d7fc5d" target="_top" xlink:title=" ">
<polygon fill="white" stroke="black" points="338.5,-133.5 338.5,-152.5 379.5,-152.5 379.5,-133.5 338.5,-133.5"/>
<text text-anchor="middle" x="359" y="-140.5" font-family="Helvetica,sans-Serif" font-size="10.00">elem</text>
</a>
</g>
</g>
<!-- Node2&#45;&gt;Node3 -->
<g id="edge2" class="edge">
<title>Node2&#45;&gt;Node3</title>
<path fill="none" stroke="midnightblue" d="M281.32,-143C297.83,-143 314.58,-143 328.19,-143"/>
<polygon fill="midnightblue" stroke="midnightblue" points="328.38,-146.5 338.38,-143 328.38,-139.5 328.38,-146.5"/>
</g>
<!-- Node5 -->
<g id="node5" class="node">
<title>Node5</title>
<g id="a_node5"><a xlink:href="drsp_8f.html#ac8791cdbe49427e661f00b126ce4dbbc" target="_top" xlink:title=" ">
<polygon fill="white" stroke="black" points="437,-57.5 437,-76.5 469,-76.5 469,-57.5 437,-57.5"/>
<text text-anchor="middle" x="453" y="-64.5" font-family="Helvetica,sans-Serif" font-size="10.00">rsp</text>
</a>
</g>
</g>
<!-- Node4&#45;&gt;Node5 -->
<g id="edge4" class="edge">
<title>Node4&#45;&gt;Node5</title>
<path fill="none" stroke="midnightblue" d="M401.16,-67C409.84,-67 418.76,-67 426.65,-67"/>
<polygon fill="midnightblue" stroke="midnightblue" points="426.66,-70.5 436.66,-67 426.66,-63.5 426.66,-70.5"/>
</g>
<!-- Node6 -->
<g id="node6" class="node">
<title>Node6</title>
<g id="a_node6"><a xlink:href="drsp_8f.html#a163d6464d6ff31893ac0abcfa0d6eeec" target="_top" xlink:title=" ">
<polygon fill="white" stroke="black" points="511.5,-114.5 511.5,-133.5 546.5,-133.5 546.5,-114.5 511.5,-114.5"/>
<text text-anchor="middle" x="529" y="-121.5" font-family="Helvetica,sans-Serif" font-size="10.00">tql2</text>
</a>
</g>
</g>
<!-- Node5&#45;&gt;Node6 -->
<g id="edge5" class="edge">
<title>Node5&#45;&gt;Node6</title>
<path fill="none" stroke="midnightblue" d="M466.55,-76.67C477.78,-85.32 494.45,-98.16 507.6,-108.28"/>
<polygon fill="midnightblue" stroke="midnightblue" points="505.57,-111.14 515.63,-114.47 509.85,-105.6 505.57,-111.14"/>
</g>
<!-- Node7 -->
<g id="node7" class="node">
<title>Node7</title>
<g id="a_node7"><a xlink:href="drsp_8f.html#a47a86ab7ed20a30b44b28253866ac7ff" target="_top" xlink:title=" ">
<polygon fill="white" stroke="black" points="507.5,-76.5 507.5,-95.5 550.5,-95.5 550.5,-76.5 507.5,-76.5"/>
<text text-anchor="middle" x="529" y="-83.5" font-family="Helvetica,sans-Serif" font-size="10.00">tqlrat</text>
</a>
</g>
</g>
<!-- Node5&#45;&gt;Node7 -->
<g id="edge6" class="edge">
<title>Node5&#45;&gt;Node7</title>
<path fill="none" stroke="midnightblue" d="M469.33,-70.94C477.5,-73.03 487.85,-75.69 497.57,-78.19"/>
<polygon fill="midnightblue" stroke="midnightblue" points="496.8,-81.6 507.35,-80.7 498.54,-74.82 496.8,-81.6"/>
</g>
<!-- Node8 -->
<g id="node8" class="node">
<title>Node8</title>
<g id="a_node8"><a xlink:href="drsp_8f.html#a035138691289fce6e2d30c8b3c41188f" target="_top" xlink:title=" ">
<polygon fill="white" stroke="black" points="505,-38.5 505,-57.5 553,-57.5 553,-38.5 505,-38.5"/>
<text text-anchor="middle" x="529" y="-45.5" font-family="Helvetica,sans-Serif" font-size="10.00">trbak3</text>
</a>
</g>
</g>
<!-- Node5&#45;&gt;Node8 -->
<g id="edge7" class="edge">
<title>Node5&#45;&gt;Node8</title>
<path fill="none" stroke="midnightblue" d="M469.33,-63.06C476.78,-61.15 486.03,-58.78 494.96,-56.48"/>
<polygon fill="midnightblue" stroke="midnightblue" points="495.99,-59.83 504.81,-53.95 494.25,-53.05 495.99,-59.83"/>
</g>
<!-- Node9 -->
<g id="node9" class="node">
<title>Node9</title>
<g id="a_node9"><a xlink:href="drsp_8f.html#a160df22dcc004ea7373039d1db601e3d" target="_top" xlink:title=" ">
<polygon fill="white" stroke="black" points="508,-0.5 508,-19.5 550,-19.5 550,-0.5 508,-0.5"/>
<text text-anchor="middle" x="529" y="-7.5" font-family="Helvetica,sans-Serif" font-size="10.00">tred3</text>
</a>
</g>
</g>
<!-- Node5&#45;&gt;Node9 -->
<g id="edge8" class="edge">
<title>Node5&#45;&gt;Node9</title>
<path fill="none" stroke="midnightblue" d="M466.55,-57.33C477.78,-48.68 494.45,-35.84 507.6,-25.72"/>
<polygon fill="midnightblue" stroke="midnightblue" points="509.85,-28.4 515.63,-19.53 505.57,-22.86 509.85,-28.4"/>
</g>
<!-- Node11&#45;&gt;Node4 -->
<g id="edge11" class="edge">
<title>Node11&#45;&gt;Node4</title>
<path fill="none" stroke="midnightblue" d="M248.47,-38.59C267.63,-43.56 291.21,-49.68 311.59,-54.96"/>
<polygon fill="midnightblue" stroke="midnightblue" points="310.74,-58.36 321.3,-57.48 312.5,-51.58 310.74,-58.36"/>
</g>
</g>
</svg>
        <g id="navigator" transform="translate(0 0)" fill="#404254">
                <rect fill="#f2f5e9" fill-opacity="0.5" stroke="#606060" stroke-width=".5" x="0" y="0" width="60" height="60"/>
                <use id="zoomplus" xlink:href="#zoomPlus" x="17" y="9" onmousedown="handleZoom(evt,'in')"/>
                <use id="zoomminus" xlink:href="#zoomMin" x="42" y="9" onmousedown="handleZoom(evt,'out')"/>
                <use id="reset" xlink:href="#resetDef" x="30" y="36" onmousedown="handleReset()"/>
                <g id="arrowUp" xlink:href="#dirArrow" transform="translate(30 24)" onmousedown="handlePan(0,-1)">
                  <use xlink:href="#rim" fill="#404040">
                        <set attributeName="fill" to="#808080" begin="arrowUp.mouseover" end="arrowUp.mouseout"/>
                  </use>
                  <path fill="none" stroke="white" stroke-width="1.5" d="M0,-3.0v7 M-2.5,-0.5L0,-3.0L2.5,-0.5"/>
                </g>
                <g id="arrowRight" xlink:href="#dirArrow" transform="rotate(90) translate(36 -43)" onmousedown="handlePan(1,0)">
                  <use xlink:href="#rim" fill="#404040">
                        <set attributeName="fill" to="#808080" begin="arrowRight.mouseover" end="arrowRight.mouseout"/>
                  </use>
                  <path fill="none" stroke="white" stroke-width="1.5" d="M0,-3.0v7 M-2.5,-0.5L0,-3.0L2.5,-0.5"/>
                </g>
                <g id="arrowDown" xlink:href="#dirArrow" transform="rotate(180) translate(-30 -48)" onmousedown="handlePan(0,1)">
                  <use xlink:href="#rim" fill="#404040">
                        <set attributeName="fill" to="#808080" begin="arrowDown.mouseover" end="arrowDown.mouseout"/>
                  </use>
                  <path fill="none" stroke="white" stroke-width="1.5" d="M0,-3.0v7 M-2.5,-0.5L0,-3.0L2.5,-0.5"/>
                </g>
                <g id="arrowLeft" xlink:href="#dirArrow" transform="rotate(270) translate(-36 17)" onmousedown="handlePan(-1,0)">
                  <use xlink:href="#rim" fill="#404040">
                        <set attributeName="fill" to="#808080" begin="arrowLeft.mouseover" end="arrowLeft.mouseout"/>
                  </use>
                  <path fill="none" stroke="white" stroke-width="1.5" d="M0,-3.0v7 M-2.5,-0.5L0,-3.0L2.5,-0.5"/>
                </g>
        </g>
        <svg viewBox="0 0 15 15" width="100%" height="30px" preserveAspectRatio="xMaxYMin meet">
         <g id="arrow_out" transform="scale(0.3 0.3)">
          <a xlink:href="symmetry__i_8c_a4252fcf90b18d24f5c7f5b88a4c305c7_cgraph_org.svg" target="_base">
           <rect id="button" ry="5" rx="5" y="6" x="6" height="38" width="38"
                fill="#f2f5e9" fill-opacity="0.5" stroke="#606060" stroke-width="1.0"/>
           <path id="arrow"
             d="M 11.500037,31.436501 C 11.940474,20.09759 22.043105,11.32322 32.158766,21.979434 L 37.068811,17.246167 C 37.068811,17.246167 37.088388,32 37.088388,32 L 22.160133,31.978069 C 22.160133,31.978069 26.997745,27.140456 26.997745,27.140456 C 18.528582,18.264221 13.291696,25.230495 11.500037,31.436501 z"
             style="fill:#404040;"/>
          </a>
         </g>
        </svg>
</svg>
