<?xml version="1.0" encoding="UTF-8" standalone="no"?>
<!DOCTYPE svg PUBLIC "-//W3C//DTD SVG 1.1//EN"
 "http://www.w3.org/Graphics/SVG/1.1/DTD/svg11.dtd">
<!-- Generated by graphviz version 2.46.1 (20210215.1649)
 -->
<!-- Title: find_infinity_axis Pages: 1 -->
<svg width="638pt" height="199pt"
 viewBox="0.00 0.00 638.00 199.00" xmlns="http://www.w3.org/2000/svg" xmlns:xlink="http://www.w3.org/1999/xlink">
<g id="graph0" class="graph" transform="scale(1 1) rotate(0) translate(4 195)">
<title>find_infinity_axis</title>
<polygon fill="white" stroke="transparent" points="-4,4 -4,-195 634,-195 634,4 -4,4"/>
<!-- Node1 -->
<g id="node1" class="node">
<title>Node1</title>
<g id="a_node1"><a xlink:title=" ">
<polygon fill="#bfbfbf" stroke="black" points="0,-114.5 0,-133.5 86,-133.5 86,-114.5 0,-114.5"/>
<text text-anchor="middle" x="43" y="-121.5" font-family="Helvetica,sans-Serif" font-size="10.00">find_infinity_axis</text>
</a>
</g>
</g>
<!-- Node2 -->
<g id="node2" class="node">
<title>Node2</title>
<g id="a_node2"><a xlink:href="namespacextb__axis.html#a17d974ca7396eb007888d7fd9743edac" target="_top" xlink:title=" ">
<polygon fill="white" stroke="black" points="410,-114.5 410,-133.5 484,-133.5 484,-114.5 410,-114.5"/>
<text text-anchor="middle" x="447" y="-121.5" font-family="Helvetica,sans-Serif" font-size="10.00">xtb_axis::axis</text>
</a>
</g>
</g>
<!-- Node1&#45;&gt;Node2 -->
<g id="edge1" class="edge">
<title>Node1&#45;&gt;Node2</title>
<path fill="none" stroke="midnightblue" d="M86.11,-131.42C149.02,-141.37 271.14,-156.34 374,-143 384.88,-141.59 396.46,-139.02 407.08,-136.23"/>
<polygon fill="midnightblue" stroke="midnightblue" points="408.21,-139.55 416.91,-133.5 406.34,-132.8 408.21,-139.55"/>
</g>
<!-- Node8 -->
<g id="node8" class="node">
<title>Node8</title>
<g id="a_node8"><a xlink:href="symmetry__i_8c.html#a4252fcf90b18d24f5c7f5b88a4c305c7" target="_top" xlink:title=" ">
<polygon fill="white" stroke="black" points="122,-76.5 122,-95.5 214,-95.5 214,-76.5 122,-76.5"/>
<text text-anchor="middle" x="168" y="-83.5" font-family="Helvetica,sans-Serif" font-size="10.00">init_ultimate_axis</text>
</a>
</g>
</g>
<!-- Node1&#45;&gt;Node8 -->
<g id="edge7" class="edge">
<title>Node1&#45;&gt;Node8</title>
<path fill="none" stroke="midnightblue" d="M75.04,-114.41C90.48,-109.64 109.35,-103.81 125.97,-98.68"/>
<polygon fill="midnightblue" stroke="midnightblue" points="127.45,-101.88 135.97,-95.59 125.38,-95.19 127.45,-101.88"/>
</g>
<!-- Node3 -->
<g id="node3" class="node">
<title>Node3</title>
<g id="a_node3"><a xlink:href="drsp_8f.html#ac8791cdbe49427e661f00b126ce4dbbc" target="_top" xlink:title=" ">
<polygon fill="white" stroke="black" points="520,-114.5 520,-133.5 550,-133.5 550,-114.5 520,-114.5"/>
<text text-anchor="middle" x="535" y="-121.5" font-family="Helvetica,sans-Serif" font-size="10.00">rsp</text>
</a>
</g>
</g>
<!-- Node2&#45;&gt;Node3 -->
<g id="edge2" class="edge">
<title>Node2&#45;&gt;Node3</title>
<path fill="none" stroke="midnightblue" d="M484.47,-124C492.94,-124 501.74,-124 509.55,-124"/>
<polygon fill="midnightblue" stroke="midnightblue" points="509.76,-127.5 519.76,-124 509.76,-120.5 509.76,-127.5"/>
</g>
<!-- Node4 -->
<g id="node4" class="node">
<title>Node4</title>
<g id="a_node4"><a xlink:href="drsp_8f.html#a163d6464d6ff31893ac0abcfa0d6eeec" target="_top" xlink:title=" ">
<polygon fill="white" stroke="black" points="592,-171.5 592,-190.5 624,-190.5 624,-171.5 592,-171.5"/>
<text text-anchor="middle" x="608" y="-178.5" font-family="Helvetica,sans-Serif" font-size="10.00">tql2</text>
</a>
</g>
</g>
<!-- Node3&#45;&gt;Node4 -->
<g id="edge3" class="edge">
<title>Node3&#45;&gt;Node4</title>
<path fill="none" stroke="midnightblue" d="M548.04,-133.67C558.72,-142.24 574.51,-154.91 587.06,-164.99"/>
<polygon fill="midnightblue" stroke="midnightblue" points="585.14,-167.94 595.13,-171.47 589.53,-162.48 585.14,-167.94"/>
</g>
<!-- Node5 -->
<g id="node5" class="node">
<title>Node5</title>
<g id="a_node5"><a xlink:href="drsp_8f.html#a47a86ab7ed20a30b44b28253866ac7ff" target="_top" xlink:title=" ">
<polygon fill="white" stroke="black" points="589,-133.5 589,-152.5 627,-152.5 627,-133.5 589,-133.5"/>
<text text-anchor="middle" x="608" y="-140.5" font-family="Helvetica,sans-Serif" font-size="10.00">tqlrat</text>
</a>
</g>
</g>
<!-- Node3&#45;&gt;Node5 -->
<g id="edge4" class="edge">
<title>Node3&#45;&gt;Node5</title>
<path fill="none" stroke="midnightblue" d="M550.03,-127.75C558.31,-129.97 569.08,-132.85 579.03,-135.51"/>
<polygon fill="midnightblue" stroke="midnightblue" points="578.39,-138.97 588.95,-138.17 580.2,-132.2 578.39,-138.97"/>
</g>
<!-- Node6 -->
<g id="node6" class="node">
<title>Node6</title>
<g id="a_node6"><a xlink:href="drsp_8f.html#a035138691289fce6e2d30c8b3c41188f" target="_top" xlink:title=" ">
<polygon fill="white" stroke="black" points="586,-95.5 586,-114.5 630,-114.5 630,-95.5 586,-95.5"/>
<text text-anchor="middle" x="608" y="-102.5" font-family="Helvetica,sans-Serif" font-size="10.00">trbak3</text>
</a>
</g>
</g>
<!-- Node3&#45;&gt;Node6 -->
<g id="edge5" class="edge">
<title>Node3&#45;&gt;Node6</title>
<path fill="none" stroke="midnightblue" d="M550.03,-120.25C557.49,-118.25 566.97,-115.71 576.05,-113.28"/>
<polygon fill="midnightblue" stroke="midnightblue" points="577.24,-116.59 586,-110.62 575.43,-109.82 577.24,-116.59"/>
</g>
<!-- Node7 -->
<g id="node7" class="node">
<title>Node7</title>
<g id="a_node7"><a xlink:href="drsp_8f.html#a160df22dcc004ea7373039d1db601e3d" target="_top" xlink:title=" ">
<polygon fill="white" stroke="black" points="589,-57.5 589,-76.5 627,-76.5 627,-57.5 589,-57.5"/>
<text text-anchor="middle" x="608" y="-64.5" font-family="Helvetica,sans-Serif" font-size="10.00">tred3</text>
</a>
</g>
</g>
<!-- Node3&#45;&gt;Node7 -->
<g id="edge6" class="edge">
<title>Node3&#45;&gt;Node7</title>
<path fill="none" stroke="midnightblue" d="M548.04,-114.33C558.72,-105.76 574.51,-93.09 587.06,-83.01"/>
<polygon fill="midnightblue" stroke="midnightblue" points="589.53,-85.52 595.13,-76.53 585.14,-80.06 589.53,-85.52"/>
</g>
<!-- Node8&#45;&gt;Node2 -->
<g id="edge10" class="edge">
<title>Node8&#45;&gt;Node2</title>
<path fill="none" stroke="midnightblue" d="M214.07,-88.03C255.8,-90.41 319.45,-95.34 374,-105 384.02,-106.77 394.7,-109.26 404.67,-111.84"/>
<polygon fill="midnightblue" stroke="midnightblue" points="403.79,-115.23 414.35,-114.44 405.6,-108.47 403.79,-115.23"/>
</g>
<!-- Node9 -->
<g id="node9" class="node">
<title>Node9</title>
<g id="a_node9"><a xlink:href="symmetry__i_8c.html#a52d770f57f14b01b1cdfec44136398cf" target="_top" xlink:title=" ">
<polygon fill="white" stroke="black" points="250,-38.5 250,-57.5 374,-57.5 374,-38.5 250,-38.5"/>
<text text-anchor="middle" x="312" y="-45.5" font-family="Helvetica,sans-Serif" font-size="10.00">alloc_symmetry_element</text>
</a>
</g>
</g>
<!-- Node8&#45;&gt;Node9 -->
<g id="edge8" class="edge">
<title>Node8&#45;&gt;Node9</title>
<path fill="none" stroke="midnightblue" d="M204.83,-76.41C223.16,-71.51 245.68,-65.48 265.25,-60.24"/>
<polygon fill="midnightblue" stroke="midnightblue" points="266.42,-63.55 275.18,-57.59 264.61,-56.79 266.42,-63.55"/>
</g>
<!-- Node11 -->
<g id="node11" class="node">
<title>Node11</title>
<g id="a_node11"><a xlink:href="symmetry__i_8c.html#a347fe37bf882cc1be3efe68082ffbd12" target="_top" xlink:title=" ">
<polygon fill="white" stroke="black" points="292,-0.5 292,-19.5 332,-19.5 332,-0.5 292,-0.5"/>
<text text-anchor="middle" x="312" y="-7.5" font-family="Helvetica,sans-Serif" font-size="10.00">pow2</text>
</a>
</g>
</g>
<!-- Node8&#45;&gt;Node11 -->
<g id="edge11" class="edge">
<title>Node8&#45;&gt;Node11</title>
<path fill="none" stroke="midnightblue" d="M180.09,-76.48C195.07,-64.05 223,-42.29 250,-29 260,-24.08 271.55,-20.09 281.89,-17.06"/>
<polygon fill="midnightblue" stroke="midnightblue" points="283.01,-20.38 291.73,-14.36 281.16,-13.64 283.01,-20.38"/>
</g>
<!-- Node12 -->
<g id="node12" class="node">
<title>Node12</title>
<g id="a_node12"><a xlink:href="symmetry__i_8c.html#ac17305b859f184b2c84cac9a508a3854" target="_top" xlink:title=" ">
<polygon fill="white" stroke="black" points="278,-114.5 278,-133.5 346,-133.5 346,-114.5 278,-114.5"/>
<text text-anchor="middle" x="312" y="-121.5" font-family="Helvetica,sans-Serif" font-size="10.00">rotate_atom</text>
</a>
</g>
</g>
<!-- Node8&#45;&gt;Node12 -->
<g id="edge12" class="edge">
<title>Node8&#45;&gt;Node12</title>
<path fill="none" stroke="midnightblue" d="M204.83,-95.59C223.95,-100.71 247.62,-107.04 267.75,-112.43"/>
<polygon fill="midnightblue" stroke="midnightblue" points="267.05,-115.86 277.62,-115.07 268.86,-109.1 267.05,-115.86"/>
</g>
<!-- Node10 -->
<g id="node10" class="node">
<title>Node10</title>
<g id="a_node10"><a xlink:href="elem_8f90.html#ae2a0e630d3a8fea4a12abcc607d7fc5d" target="_top" xlink:title=" ">
<polygon fill="white" stroke="black" points="428,-38.5 428,-57.5 466,-57.5 466,-38.5 428,-38.5"/>
<text text-anchor="middle" x="447" y="-45.5" font-family="Helvetica,sans-Serif" font-size="10.00">elem</text>
</a>
</g>
</g>
<!-- Node9&#45;&gt;Node10 -->
<g id="edge9" class="edge">
<title>Node9&#45;&gt;Node10</title>
<path fill="none" stroke="midnightblue" d="M374.05,-48C389.16,-48 404.64,-48 417.35,-48"/>
<polygon fill="midnightblue" stroke="midnightblue" points="417.74,-51.5 427.74,-48 417.74,-44.5 417.74,-51.5"/>
</g>
<!-- Node12&#45;&gt;Node2 -->
<g id="edge13" class="edge">
<title>Node12&#45;&gt;Node2</title>
<path fill="none" stroke="midnightblue" d="M346.22,-124C362.43,-124 382.19,-124 399.84,-124"/>
<polygon fill="midnightblue" stroke="midnightblue" points="399.94,-127.5 409.94,-124 399.94,-120.5 399.94,-127.5"/>
</g>
</g>
</svg>
