<?xml version="1.0" encoding="UTF-8" standalone="no"?>
<!DOCTYPE svg PUBLIC "-//W3C//DTD SVG 1.1//EN"
 "http://www.w3.org/Graphics/SVG/1.1/DTD/svg11.dtd">
<!-- Generated by graphviz version 2.43.0 (0)
 -->
<!-- Title: find_c2_axes Pages: 1 -->
<svg width="1012pt" height="600pt"
 viewBox="0.00 0.00 1012.00 600.00" xmlns="http://www.w3.org/2000/svg" xmlns:xlink="http://www.w3.org/1999/xlink">
<g id="graph0" class="graph" transform="scale(1 1) rotate(0) translate(4 596)">
<title>find_c2_axes</title>
<polygon fill="white" stroke="transparent" points="-4,4 -4,-596 1008,-596 1008,4 -4,4"/>
<!-- Node1 -->
<g id="node1" class="node">
<title>Node1</title>
<g id="a_node1"><a xlink:title=" ">
<polygon fill="#bfbfbf" stroke="black" points="0,-439.5 0,-458.5 79,-458.5 79,-439.5 0,-439.5"/>
<text text-anchor="middle" x="39.5" y="-446.5" font-family="Helvetica,sans-Serif" font-size="10.00">find_c2_axes</text>
</a>
</g>
</g>
<!-- Node2 -->
<g id="node2" class="node">
<title>Node2</title>
<g id="a_node2"><a xlink:href="namespacextb__axis.html#a17d974ca7396eb007888d7fd9743edac" target="_top" xlink:title=" ">
<polygon fill="white" stroke="black" points="768,-515.5 768,-534.5 852,-534.5 852,-515.5 768,-515.5"/>
<text text-anchor="middle" x="810" y="-522.5" font-family="Helvetica,sans-Serif" font-size="10.00">xtb_axis::axis</text>
</a>
</g>
</g>
<!-- Node1&#45;&gt;Node2 -->
<g id="edge1" class="edge">
<title>Node1&#45;&gt;Node2</title>
<path fill="none" stroke="midnightblue" d="M50.48,-458.57C83.4,-489.06 192.67,-582 301.5,-582 301.5,-582 301.5,-582 487.5,-582 589.26,-582 706.38,-553.97 767.3,-537.23"/>
<polygon fill="midnightblue" stroke="midnightblue" points="768.24,-540.6 776.93,-534.54 766.36,-533.85 768.24,-540.6"/>
</g>
<!-- Node8 -->
<g id="node8" class="node">
<title>Node8</title>
<g id="a_node8"><a xlink:href="symmetry__i_8c.html#a64141aa48feafed7ea902983e9420710" target="_top" xlink:title=" ">
<polygon fill="white" stroke="black" points="115,-439.5 115,-458.5 189,-458.5 189,-439.5 115,-439.5"/>
<text text-anchor="middle" x="152" y="-446.5" font-family="Helvetica,sans-Serif" font-size="10.00">init_c2_axis</text>
</a>
</g>
</g>
<!-- Node1&#45;&gt;Node8 -->
<g id="edge7" class="edge">
<title>Node1&#45;&gt;Node8</title>
<path fill="none" stroke="midnightblue" d="M79.15,-449C87.38,-449 96.15,-449 104.63,-449"/>
<polygon fill="midnightblue" stroke="midnightblue" points="104.78,-452.5 114.78,-449 104.78,-445.5 104.78,-452.5"/>
</g>
<!-- Node12 -->
<g id="node12" class="node">
<title>Node12</title>
<g id="a_node12"><a xlink:href="symmetry__i_8c.html#a347fe37bf882cc1be3efe68082ffbd12" target="_top" xlink:title=" ">
<polygon fill="white" stroke="black" points="788.5,-66.5 788.5,-85.5 831.5,-85.5 831.5,-66.5 788.5,-66.5"/>
<text text-anchor="middle" x="810" y="-73.5" font-family="Helvetica,sans-Serif" font-size="10.00">pow2</text>
</a>
</g>
</g>
<!-- Node1&#45;&gt;Node12 -->
<g id="edge38" class="edge">
<title>Node1&#45;&gt;Node12</title>
<path fill="none" stroke="midnightblue" d="M41.32,-439.2C47.35,-373.54 90.97,0 301.5,0 301.5,0 301.5,0 487.5,0 597.68,0 626.62,-8.82 732,-41 749.4,-46.31 767.98,-54.68 782.54,-61.9"/>
<polygon fill="midnightblue" stroke="midnightblue" points="780.97,-65.03 791.47,-66.43 784.14,-58.78 780.97,-65.03"/>
</g>
<!-- Node3 -->
<g id="node3" class="node">
<title>Node3</title>
<g id="a_node3"><a xlink:href="drsp_8f.html#ac8791cdbe49427e661f00b126ce4dbbc" target="_top" xlink:title=" ">
<polygon fill="white" stroke="black" points="888,-515.5 888,-534.5 920,-534.5 920,-515.5 888,-515.5"/>
<text text-anchor="middle" x="904" y="-522.5" font-family="Helvetica,sans-Serif" font-size="10.00">rsp</text>
</a>
</g>
</g>
<!-- Node2&#45;&gt;Node3 -->
<g id="edge2" class="edge">
<title>Node2&#45;&gt;Node3</title>
<path fill="none" stroke="midnightblue" d="M852.16,-525C860.84,-525 869.76,-525 877.65,-525"/>
<polygon fill="midnightblue" stroke="midnightblue" points="877.66,-528.5 887.66,-525 877.66,-521.5 877.66,-528.5"/>
</g>
<!-- Node4 -->
<g id="node4" class="node">
<title>Node4</title>
<g id="a_node4"><a xlink:href="drsp_8f.html#a163d6464d6ff31893ac0abcfa0d6eeec" target="_top" xlink:title=" ">
<polygon fill="white" stroke="black" points="962.5,-572.5 962.5,-591.5 997.5,-591.5 997.5,-572.5 962.5,-572.5"/>
<text text-anchor="middle" x="980" y="-579.5" font-family="Helvetica,sans-Serif" font-size="10.00">tql2</text>
</a>
</g>
</g>
<!-- Node3&#45;&gt;Node4 -->
<g id="edge3" class="edge">
<title>Node3&#45;&gt;Node4</title>
<path fill="none" stroke="midnightblue" d="M917.55,-534.67C928.78,-543.32 945.45,-556.16 958.6,-566.28"/>
<polygon fill="midnightblue" stroke="midnightblue" points="956.57,-569.14 966.63,-572.47 960.85,-563.6 956.57,-569.14"/>
</g>
<!-- Node5 -->
<g id="node5" class="node">
<title>Node5</title>
<g id="a_node5"><a xlink:href="drsp_8f.html#a47a86ab7ed20a30b44b28253866ac7ff" target="_top" xlink:title=" ">
<polygon fill="white" stroke="black" points="958.5,-534.5 958.5,-553.5 1001.5,-553.5 1001.5,-534.5 958.5,-534.5"/>
<text text-anchor="middle" x="980" y="-541.5" font-family="Helvetica,sans-Serif" font-size="10.00">tqlrat</text>
</a>
</g>
</g>
<!-- Node3&#45;&gt;Node5 -->
<g id="edge4" class="edge">
<title>Node3&#45;&gt;Node5</title>
<path fill="none" stroke="midnightblue" d="M920.33,-528.94C928.5,-531.03 938.85,-533.69 948.57,-536.19"/>
<polygon fill="midnightblue" stroke="midnightblue" points="947.8,-539.6 958.35,-538.7 949.54,-532.82 947.8,-539.6"/>
</g>
<!-- Node6 -->
<g id="node6" class="node">
<title>Node6</title>
<g id="a_node6"><a xlink:href="drsp_8f.html#a035138691289fce6e2d30c8b3c41188f" target="_top" xlink:title=" ">
<polygon fill="white" stroke="black" points="956,-496.5 956,-515.5 1004,-515.5 1004,-496.5 956,-496.5"/>
<text text-anchor="middle" x="980" y="-503.5" font-family="Helvetica,sans-Serif" font-size="10.00">trbak3</text>
</a>
</g>
</g>
<!-- Node3&#45;&gt;Node6 -->
<g id="edge5" class="edge">
<title>Node3&#45;&gt;Node6</title>
<path fill="none" stroke="midnightblue" d="M920.33,-521.06C927.78,-519.15 937.03,-516.78 945.96,-514.48"/>
<polygon fill="midnightblue" stroke="midnightblue" points="946.99,-517.83 955.81,-511.95 945.25,-511.05 946.99,-517.83"/>
</g>
<!-- Node7 -->
<g id="node7" class="node">
<title>Node7</title>
<g id="a_node7"><a xlink:href="drsp_8f.html#a160df22dcc004ea7373039d1db601e3d" target="_top" xlink:title=" ">
<polygon fill="white" stroke="black" points="959,-458.5 959,-477.5 1001,-477.5 1001,-458.5 959,-458.5"/>
<text text-anchor="middle" x="980" y="-465.5" font-family="Helvetica,sans-Serif" font-size="10.00">tred3</text>
</a>
</g>
</g>
<!-- Node3&#45;&gt;Node7 -->
<g id="edge6" class="edge">
<title>Node3&#45;&gt;Node7</title>
<path fill="none" stroke="midnightblue" d="M917.55,-515.33C928.78,-506.68 945.45,-493.84 958.6,-483.72"/>
<polygon fill="midnightblue" stroke="midnightblue" points="960.85,-486.4 966.63,-477.53 956.57,-480.86 960.85,-486.4"/>
</g>
<!-- Node8&#45;&gt;Node2 -->
<g id="edge10" class="edge">
<title>Node8&#45;&gt;Node2</title>
<path fill="none" stroke="midnightblue" d="M166.86,-458.6C180.84,-467.71 203.37,-480.89 225,-487 324.4,-515.08 634.3,-522.53 757.62,-524.4"/>
<polygon fill="midnightblue" stroke="midnightblue" points="757.87,-527.91 767.92,-524.55 757.97,-520.91 757.87,-527.91"/>
</g>
<!-- Node9 -->
<g id="node9" class="node">
<title>Node9</title>
<g id="a_node9"><a xlink:href="symmetry__i_8c.html#a52d770f57f14b01b1cdfec44136398cf" target="_top" xlink:title=" ">
<polygon fill="white" stroke="black" points="416,-420.5 416,-439.5 557,-439.5 557,-420.5 416,-420.5"/>
<text text-anchor="middle" x="486.5" y="-427.5" font-family="Helvetica,sans-Serif" font-size="10.00">alloc_symmetry_element</text>
</a>
</g>
</g>
<!-- Node8&#45;&gt;Node9 -->
<g id="edge8" class="edge">
<title>Node8&#45;&gt;Node9</title>
<path fill="none" stroke="midnightblue" d="M189.22,-446.93C240.77,-443.98 336.67,-438.5 405.41,-434.58"/>
<polygon fill="midnightblue" stroke="midnightblue" points="405.98,-438.05 415.77,-433.98 405.59,-431.06 405.98,-438.05"/>
</g>
<!-- Node11 -->
<g id="node11" class="node">
<title>Node11</title>
<g id="a_node11"><a xlink:href="symmetry__i_8c.html#a4cd99fa0e4dd85776e474ec761ed0876" target="_top" xlink:title=" ">
<polygon fill="white" stroke="black" points="225,-458.5 225,-477.5 380,-477.5 380,-458.5 225,-458.5"/>
<text text-anchor="middle" x="302.5" y="-465.5" font-family="Helvetica,sans-Serif" font-size="10.00">destroy_symmetry_element</text>
</a>
</g>
</g>
<!-- Node8&#45;&gt;Node11 -->
<g id="edge11" class="edge">
<title>Node8&#45;&gt;Node11</title>
<path fill="none" stroke="midnightblue" d="M189.33,-453.65C197.87,-454.74 207.32,-455.95 217.01,-457.19"/>
<polygon fill="midnightblue" stroke="midnightblue" points="216.81,-460.69 227.17,-458.49 217.7,-453.75 216.81,-460.69"/>
</g>
<!-- Node8&#45;&gt;Node12 -->
<g id="edge13" class="edge">
<title>Node8&#45;&gt;Node12</title>
<path fill="none" stroke="midnightblue" d="M154,-439.16C157.79,-406.14 173.72,-297.42 225,-227 286.65,-142.34 319.63,-130 416,-89 545.89,-33.73 591.87,-39.97 732,-57 747.62,-58.9 764.63,-62.89 778.69,-66.72"/>
<polygon fill="midnightblue" stroke="midnightblue" points="777.76,-70.1 788.34,-69.46 779.67,-63.36 777.76,-70.1"/>
</g>
<!-- Node13 -->
<g id="node13" class="node">
<title>Node13</title>
<g id="a_node13"><a xlink:href="symmetry__i_8c.html#aff39b1566e9d87c46184c58d49b46ab4" target="_top" xlink:title=" ">
<polygon fill="white" stroke="black" points="229.5,-236.5 229.5,-255.5 375.5,-255.5 375.5,-236.5 229.5,-236.5"/>
<text text-anchor="middle" x="302.5" y="-243.5" font-family="Helvetica,sans-Serif" font-size="10.00">refine_symmetry_element</text>
</a>
</g>
</g>
<!-- Node8&#45;&gt;Node13 -->
<g id="edge14" class="edge">
<title>Node8&#45;&gt;Node13</title>
<path fill="none" stroke="midnightblue" d="M159.96,-439.48C183.15,-407.79 257.98,-305.49 288.43,-263.86"/>
<polygon fill="midnightblue" stroke="midnightblue" points="291.3,-265.87 294.38,-255.73 285.65,-261.74 291.3,-265.87"/>
</g>
<!-- Node23 -->
<g id="node23" class="node">
<title>Node23</title>
<g id="a_node23"><a xlink:href="symmetry__i_8c.html#ac17305b859f184b2c84cac9a508a3854" target="_top" xlink:title=" ">
<polygon fill="white" stroke="black" points="264,-534.5 264,-553.5 341,-553.5 341,-534.5 264,-534.5"/>
<text text-anchor="middle" x="302.5" y="-541.5" font-family="Helvetica,sans-Serif" font-size="10.00">rotate_atom</text>
</a>
</g>
</g>
<!-- Node8&#45;&gt;Node23 -->
<g id="edge36" class="edge">
<title>Node8&#45;&gt;Node23</title>
<path fill="none" stroke="midnightblue" d="M160.31,-458.74C172.23,-473.96 197.31,-503.36 225,-520 233.86,-525.32 244.01,-529.58 253.97,-532.94"/>
<polygon fill="midnightblue" stroke="midnightblue" points="253.21,-536.37 263.8,-536 255.29,-529.68 253.21,-536.37"/>
</g>
<!-- Node10 -->
<g id="node10" class="node">
<title>Node10</title>
<g id="a_node10"><a xlink:href="elem_8f90.html#ae2a0e630d3a8fea4a12abcc607d7fc5d" target="_top" xlink:title=" ">
<polygon fill="white" stroke="black" points="789.5,-249.5 789.5,-268.5 830.5,-268.5 830.5,-249.5 789.5,-249.5"/>
<text text-anchor="middle" x="810" y="-256.5" font-family="Helvetica,sans-Serif" font-size="10.00">elem</text>
</a>
</g>
</g>
<!-- Node9&#45;&gt;Node10 -->
<g id="edge9" class="edge">
<title>Node9&#45;&gt;Node10</title>
<path fill="none" stroke="midnightblue" d="M537.54,-439.51C590.46,-446.73 674.15,-449.71 732,-411 778.39,-379.96 798.22,-312.11 805.45,-278.57"/>
<polygon fill="midnightblue" stroke="midnightblue" points="808.91,-279.1 807.44,-268.61 802.05,-277.73 808.91,-279.1"/>
</g>
<!-- Node11&#45;&gt;Node10 -->
<g id="edge12" class="edge">
<title>Node11&#45;&gt;Node10</title>
<path fill="none" stroke="midnightblue" d="M380.35,-472.76C488.19,-477.89 677.35,-480.73 732,-442 786.77,-403.18 802.77,-317.5 807.29,-278.73"/>
<polygon fill="midnightblue" stroke="midnightblue" points="810.78,-279.02 808.32,-268.72 803.82,-278.31 810.78,-279.02"/>
</g>
<!-- Node13&#45;&gt;Node10 -->
<g id="edge22" class="edge">
<title>Node13&#45;&gt;Node10</title>
<path fill="none" stroke="midnightblue" d="M337.15,-236.5C359.33,-230.74 389.15,-223.95 416,-221 555.61,-205.68 595.23,-189.09 732,-221 751.17,-225.47 771.06,-235.45 785.82,-244.05"/>
<polygon fill="midnightblue" stroke="midnightblue" points="784.35,-247.25 794.71,-249.44 787.97,-241.27 784.35,-247.25"/>
</g>
<!-- Node14 -->
<g id="node14" class="node">
<title>Node14</title>
<g id="a_node14"><a xlink:href="symmetry__i_8c.html#a401172a43970238f56e75a2bd25bf3a5" target="_top" xlink:title=" ">
<polygon fill="white" stroke="black" points="422,-344.5 422,-363.5 551,-363.5 551,-344.5 422,-344.5"/>
<text text-anchor="middle" x="486.5" y="-351.5" font-family="Helvetica,sans-Serif" font-size="10.00">check_transform_order</text>
</a>
</g>
</g>
<!-- Node13&#45;&gt;Node14 -->
<g id="edge15" class="edge">
<title>Node13&#45;&gt;Node14</title>
<path fill="none" stroke="midnightblue" d="M319.65,-255.58C351.49,-274.48 422.55,-316.65 460.5,-339.16"/>
<polygon fill="midnightblue" stroke="midnightblue" points="459,-342.34 469.38,-344.44 462.57,-336.32 459,-342.34"/>
</g>
<!-- Node16 -->
<g id="node16" class="node">
<title>Node16</title>
<g id="a_node16"><a xlink:href="symmetry__i_8c.html#abcbb13fcbff6e3466225582a389ac455" target="_top" xlink:title=" ">
<polygon fill="white" stroke="black" points="594,-104.5 594,-123.5 731,-123.5 731,-104.5 594,-104.5"/>
<text text-anchor="middle" x="662.5" y="-111.5" font-family="Helvetica,sans-Serif" font-size="10.00">check_transform_quality</text>
</a>
</g>
</g>
<!-- Node13&#45;&gt;Node16 -->
<g id="edge19" class="edge">
<title>Node13&#45;&gt;Node16</title>
<path fill="none" stroke="midnightblue" d="M319.84,-236.42C341.36,-224.08 380.62,-202.49 416,-188 492.23,-156.78 513.97,-156.23 593,-133 600.58,-130.77 608.64,-128.47 616.48,-126.27"/>
<polygon fill="midnightblue" stroke="midnightblue" points="617.55,-129.61 626.24,-123.56 615.67,-122.87 617.55,-129.61"/>
</g>
<!-- Node17 -->
<g id="node17" class="node">
<title>Node17</title>
<g id="a_node17"><a xlink:href="symmetry__i_8c.html#a0e979a95e67dd97b50d84529eded6011" target="_top" xlink:title=" ">
<polygon fill="white" stroke="black" points="617.5,-66.5 617.5,-85.5 707.5,-85.5 707.5,-66.5 617.5,-66.5"/>
<text text-anchor="middle" x="662.5" y="-73.5" font-family="Helvetica,sans-Serif" font-size="10.00">establish_pairs</text>
</a>
</g>
</g>
<!-- Node13&#45;&gt;Node17 -->
<g id="edge23" class="edge">
<title>Node13&#45;&gt;Node17</title>
<path fill="none" stroke="midnightblue" d="M310.8,-236.42C327.21,-215.56 369.27,-165.85 416,-140 476.7,-106.42 555.64,-89.93 607.39,-82.22"/>
<polygon fill="midnightblue" stroke="midnightblue" points="607.97,-85.67 617.37,-80.79 606.97,-78.74 607.97,-85.67"/>
</g>
<!-- Node18 -->
<g id="node18" class="node">
<title>Node18</title>
<g id="a_node18"><a xlink:href="symmetry__i_8c.html#a840dda299cb1beb196d463448f6b85bd" target="_top" xlink:title=" ">
<polygon fill="white" stroke="black" points="418,-231 418,-261 555,-261 555,-231 418,-231"/>
<text text-anchor="start" x="426" y="-249" font-family="Helvetica,sans-Serif" font-size="10.00">optimize_transformation</text>
<text text-anchor="middle" x="486.5" y="-238" font-family="Helvetica,sans-Serif" font-size="10.00">_params</text>
</a>
</g>
</g>
<!-- Node13&#45;&gt;Node18 -->
<g id="edge26" class="edge">
<title>Node13&#45;&gt;Node18</title>
<path fill="none" stroke="midnightblue" d="M375.69,-246C386.22,-246 397.1,-246 407.74,-246"/>
<polygon fill="midnightblue" stroke="midnightblue" points="407.84,-249.5 417.84,-246 407.84,-242.5 407.84,-249.5"/>
</g>
<!-- Node22 -->
<g id="node22" class="node">
<title>Node22</title>
<g id="a_node22"><a xlink:href="symmetry__i_8c.html#ada87e9244d2d583fb2cbc7208b3883b9" target="_top" xlink:title=" ">
<polygon fill="white" stroke="black" points="438,-280.5 438,-299.5 535,-299.5 535,-280.5 438,-280.5"/>
<text text-anchor="middle" x="486.5" y="-287.5" font-family="Helvetica,sans-Serif" font-size="10.00">same_transform</text>
</a>
</g>
</g>
<!-- Node13&#45;&gt;Node22 -->
<g id="edge35" class="edge">
<title>Node13&#45;&gt;Node22</title>
<path fill="none" stroke="midnightblue" d="M342.99,-255.55C370.3,-262.15 406.83,-270.98 436.07,-278.05"/>
<polygon fill="midnightblue" stroke="midnightblue" points="435.54,-281.52 446.09,-280.47 437.19,-274.72 435.54,-281.52"/>
</g>
<!-- Node14&#45;&gt;Node10 -->
<g id="edge16" class="edge">
<title>Node14&#45;&gt;Node10</title>
<path fill="none" stroke="midnightblue" d="M551.14,-353.34C601.91,-350.79 673.91,-342.56 732,-318 755.3,-308.15 777.76,-289.55 792.35,-275.86"/>
<polygon fill="midnightblue" stroke="midnightblue" points="794.85,-278.31 799.6,-268.84 789.98,-273.28 794.85,-278.31"/>
</g>
<!-- Node15 -->
<g id="node15" class="node">
<title>Node15</title>
<g id="a_node15"><a xlink:href="symmetry__i_8c.html#ad478abbd8c6b45859d4614081bc2660e" target="_top" xlink:title=" ">
<polygon fill="white" stroke="black" points="606,-382.5 606,-401.5 719,-401.5 719,-382.5 606,-382.5"/>
<text text-anchor="middle" x="662.5" y="-389.5" font-family="Helvetica,sans-Serif" font-size="10.00">rotate_reflect_atom</text>
</a>
</g>
</g>
<!-- Node14&#45;&gt;Node15 -->
<g id="edge17" class="edge">
<title>Node14&#45;&gt;Node15</title>
<path fill="none" stroke="midnightblue" d="M531.41,-363.59C554.68,-368.67 583.45,-374.96 608.02,-380.32"/>
<polygon fill="midnightblue" stroke="midnightblue" points="607.39,-383.77 617.91,-382.48 608.89,-376.93 607.39,-383.77"/>
</g>
<!-- Node15&#45;&gt;Node2 -->
<g id="edge18" class="edge">
<title>Node15&#45;&gt;Node2</title>
<path fill="none" stroke="midnightblue" d="M673.96,-401.57C698.49,-423.98 759.93,-480.14 790.75,-508.32"/>
<polygon fill="midnightblue" stroke="midnightblue" points="788.5,-511 798.24,-515.16 793.22,-505.83 788.5,-511"/>
</g>
<!-- Node16&#45;&gt;Node10 -->
<g id="edge20" class="edge">
<title>Node16&#45;&gt;Node10</title>
<path fill="none" stroke="midnightblue" d="M714.91,-123.6C721.01,-126.06 726.88,-129.13 732,-133 768.85,-160.81 791.96,-211.85 802.43,-239.67"/>
<polygon fill="midnightblue" stroke="midnightblue" points="799.25,-241.19 805.93,-249.41 805.84,-238.82 799.25,-241.19"/>
</g>
<!-- Node16&#45;&gt;Node12 -->
<g id="edge21" class="edge">
<title>Node16&#45;&gt;Node12</title>
<path fill="none" stroke="midnightblue" d="M700.22,-104.41C724.45,-98.08 755.83,-89.89 778.65,-83.93"/>
<polygon fill="midnightblue" stroke="midnightblue" points="779.69,-87.27 788.48,-81.36 777.92,-80.5 779.69,-87.27"/>
</g>
<!-- Node17&#45;&gt;Node10 -->
<g id="edge24" class="edge">
<title>Node17&#45;&gt;Node10</title>
<path fill="none" stroke="midnightblue" d="M707.56,-82.22C716.35,-85.04 725.02,-89.11 732,-95 777.54,-133.45 797.85,-204.84 805.33,-239.33"/>
<polygon fill="midnightblue" stroke="midnightblue" points="801.9,-240.04 807.32,-249.15 808.76,-238.65 801.9,-240.04"/>
</g>
<!-- Node17&#45;&gt;Node12 -->
<g id="edge25" class="edge">
<title>Node17&#45;&gt;Node12</title>
<path fill="none" stroke="midnightblue" d="M707.55,-76C730.34,-76 757.61,-76 778.13,-76"/>
<polygon fill="midnightblue" stroke="midnightblue" points="778.19,-79.5 788.19,-76 778.19,-72.5 778.19,-79.5"/>
</g>
<!-- Node18&#45;&gt;Node10 -->
<g id="edge27" class="edge">
<title>Node18&#45;&gt;Node10</title>
<path fill="none" stroke="midnightblue" d="M535,-261.07C542.51,-264.02 550.08,-267.35 557,-271 574.46,-280.21 574.22,-290.93 593,-297 651.78,-316.01 671.84,-311.04 732,-297 751.17,-292.53 771.06,-282.55 785.82,-273.95"/>
<polygon fill="midnightblue" stroke="midnightblue" points="787.97,-276.73 794.71,-268.56 784.35,-270.75 787.97,-276.73"/>
</g>
<!-- Node19 -->
<g id="node19" class="node">
<title>Node19</title>
<g id="a_node19"><a xlink:href="symmetry__i_8c.html#aa5e7898a49d284cd7813b2e3dacc0857" target="_top" xlink:title=" ">
<polygon fill="white" stroke="black" points="593,-143 593,-173 732,-173 732,-143 593,-143"/>
<text text-anchor="start" x="601" y="-161" font-family="Helvetica,sans-Serif" font-size="10.00">eval_optimization_target</text>
<text text-anchor="middle" x="662.5" y="-150" font-family="Helvetica,sans-Serif" font-size="10.00">_function</text>
</a>
</g>
</g>
<!-- Node18&#45;&gt;Node19 -->
<g id="edge28" class="edge">
<title>Node18&#45;&gt;Node19</title>
<path fill="none" stroke="midnightblue" d="M517.41,-230.87C546.51,-216.16 590.85,-193.73 622.66,-177.64"/>
<polygon fill="midnightblue" stroke="midnightblue" points="624.34,-180.71 631.69,-173.08 621.18,-174.47 624.34,-180.71"/>
</g>
<!-- Node20 -->
<g id="node20" class="node">
<title>Node20</title>
<g id="a_node20"><a xlink:href="symmetry__i_8c.html#ad72477419409dc5d22f1f00ac0bd8609" target="_top" xlink:title=" ">
<polygon fill="white" stroke="black" points="625.5,-268.5 625.5,-287.5 699.5,-287.5 699.5,-268.5 625.5,-268.5"/>
<text text-anchor="middle" x="662.5" y="-275.5" font-family="Helvetica,sans-Serif" font-size="10.00">get_params</text>
</a>
</g>
</g>
<!-- Node18&#45;&gt;Node20 -->
<g id="edge31" class="edge">
<title>Node18&#45;&gt;Node20</title>
<path fill="none" stroke="midnightblue" d="M555.27,-258.46C575.4,-262.17 596.97,-266.13 615.38,-269.52"/>
<polygon fill="midnightblue" stroke="midnightblue" points="614.79,-272.97 625.26,-271.33 616.06,-266.08 614.79,-272.97"/>
</g>
<!-- Node21 -->
<g id="node21" class="node">
<title>Node21</title>
<g id="a_node21"><a xlink:href="symmetry__i_8c.html#a0314524bc1022f80982ecf4dd39ddbc2" target="_top" xlink:title=" ">
<polygon fill="white" stroke="black" points="625.5,-230.5 625.5,-249.5 699.5,-249.5 699.5,-230.5 625.5,-230.5"/>
<text text-anchor="middle" x="662.5" y="-237.5" font-family="Helvetica,sans-Serif" font-size="10.00">set_params</text>
</a>
</g>
</g>
<!-- Node18&#45;&gt;Node21 -->
<g id="edge33" class="edge">
<title>Node18&#45;&gt;Node21</title>
<path fill="none" stroke="midnightblue" d="M555.27,-243.66C575.31,-242.97 596.77,-242.23 615.13,-241.6"/>
<polygon fill="midnightblue" stroke="midnightblue" points="615.39,-245.09 625.26,-241.25 615.14,-238.1 615.39,-245.09"/>
</g>
<!-- Node19&#45;&gt;Node10 -->
<g id="edge29" class="edge">
<title>Node19&#45;&gt;Node10</title>
<path fill="none" stroke="midnightblue" d="M704.14,-173.15C713.6,-177.38 723.41,-182.39 732,-188 755.59,-203.42 778.84,-226.19 793.51,-241.76"/>
<polygon fill="midnightblue" stroke="midnightblue" points="791,-244.2 800.36,-249.17 796.14,-239.45 791,-244.2"/>
</g>
<!-- Node19&#45;&gt;Node12 -->
<g id="edge30" class="edge">
<title>Node19&#45;&gt;Node12</title>
<path fill="none" stroke="midnightblue" d="M710.35,-142.95C717.75,-139.99 725.2,-136.66 732,-133 753.3,-121.54 775.26,-104.7 790.24,-92.3"/>
<polygon fill="midnightblue" stroke="midnightblue" points="792.82,-94.7 798.2,-85.58 788.3,-89.35 792.82,-94.7"/>
</g>
<!-- Node20&#45;&gt;Node10 -->
<g id="edge32" class="edge">
<title>Node20&#45;&gt;Node10</title>
<path fill="none" stroke="midnightblue" d="M699.84,-273.25C724.26,-270.07 756.04,-265.92 779.01,-262.92"/>
<polygon fill="midnightblue" stroke="midnightblue" points="779.73,-266.35 789.2,-261.59 778.83,-259.41 779.73,-266.35"/>
</g>
<!-- Node21&#45;&gt;Node10 -->
<g id="edge34" class="edge">
<title>Node21&#45;&gt;Node10</title>
<path fill="none" stroke="midnightblue" d="M699.84,-244.75C724.26,-247.93 756.04,-252.08 779.01,-255.08"/>
<polygon fill="midnightblue" stroke="midnightblue" points="778.83,-258.59 789.2,-256.41 779.73,-251.65 778.83,-258.59"/>
</g>
<!-- Node23&#45;&gt;Node2 -->
<g id="edge37" class="edge">
<title>Node23&#45;&gt;Node2</title>
<path fill="none" stroke="midnightblue" d="M341.08,-542.59C430.45,-539.23 655.78,-530.76 757.62,-526.93"/>
<polygon fill="midnightblue" stroke="midnightblue" points="757.8,-530.43 767.66,-526.55 757.54,-523.43 757.8,-530.43"/>
</g>
</g>
</svg>
