<?xml version="1.0" encoding="UTF-8" standalone="no"?>
<!DOCTYPE svg PUBLIC "-//W3C//DTD SVG 1.1//EN"
 "http://www.w3.org/Graphics/SVG/1.1/DTD/svg11.dtd">
<!-- Generated by graphviz version 2.46.0 (20210122.1329)
 -->
<!-- Title: init_higher_axis Pages: 1 -->
<!--zoomable 513 -->
<svg id="main" version="1.1" xmlns="http://www.w3.org/2000/svg" xmlns:xlink="http://www.w3.org/1999/xlink" xml:space="preserve" onload="init(evt)">
<style type="text/css"><![CDATA[
.edge:hover path { stroke: red; }
.edge:hover polygon { stroke: red; fill: red; }
]]></style>
<script type="text/javascript"><![CDATA[
var edges = document.getElementsByTagName('g');
if (edges && edges.length) {
  for (var i=0;i<edges.length;i++) {
    if (edges[i].id.substr(0,4)=='edge') {
      edges[i].setAttribute('class','edge');
    }
  }
}
]]></script>
        <defs>
                <circle id="rim" cx="0" cy="0" r="7"/>
                <circle id="rim2" cx="0" cy="0" r="3.5"/>
                <g id="zoomPlus">
                        <use xlink:href="#rim" fill="#404040">
                                <set attributeName="fill" to="#808080" begin="zoomplus.mouseover" end="zoomplus.mouseout"/>
                        </use>
                        <path d="M-4,0h8M0,-4v8" fill="none" stroke="white" stroke-width="1.5" pointer-events="none"/>
                </g>
                <g id="zoomMin">
                        <use xlink:href="#rim" fill="#404040">
                                <set attributeName="fill" to="#808080" begin="zoomminus.mouseover" end="zoomminus.mouseout"/>
                        </use>
                        <path d="M-4,0h8" fill="none" stroke="white" stroke-width="1.5" pointer-events="none"/>
                </g>
                <g id="dirArrow">
                        <path fill="none" stroke="white" stroke-width="1.5" d="M0,-3.0v7 M-2.5,-0.5L0,-3.0L2.5,-0.5"/>
                </g>
               <g id="resetDef">
                       <use xlink:href="#rim2" fill="#404040">
                               <set attributeName="fill" to="#808080" begin="reset.mouseover" end="reset.mouseout"/>
                       </use>
               </g>
        </defs>

<script type="text/javascript">
var viewWidth = 834;
var viewHeight = 513;
var sectionId = 'dynsection-38';
</script>
<script xlink:href="svgpan.js"/>
<svg id="graph" class="graph">
<g id="viewport">
<title>init_higher_axis</title>
<polygon fill="white" stroke="transparent" points="-4,4 -4,-509.33 830,-509.33 830,4 -4,4"/>
<!-- Node1 -->
<g id="node1" class="node">
<title>Node1</title>
<g id="a_node1"><a xlink:title=" ">
<polygon fill="#bfbfbf" stroke="black" points="0,-295.83 0,-314.83 83,-314.83 83,-295.83 0,-295.83"/>
<text text-anchor="middle" x="41.5" y="-302.83" font-family="Helvetica,sans-Serif" font-size="10.00">init_higher_axis</text>
</a>
</g>
</g>
<!-- Node2 -->
<g id="node2" class="node">
<title>Node2</title>
<g id="a_node2"><a xlink:href="namespacextb__axis.html#a17d974ca7396eb007888d7fd9743edac" target="_top" xlink:title=" ">
<polygon fill="white" stroke="black" points="606,-428.83 606,-447.83 680,-447.83 680,-428.83 606,-428.83"/>
<text text-anchor="middle" x="643" y="-435.83" font-family="Helvetica,sans-Serif" font-size="10.00">xtb_axis::axis</text>
</a>
</g>
</g>
<!-- Node1&#45;&gt;Node2 -->
<g id="edge1" class="edge">
<title>Node1&#45;&gt;Node2</title>
<path fill="none" stroke="midnightblue" d="M63.34,-314.85C122,-341.06 294.16,-413.95 446,-438.33 496.73,-446.48 555.81,-445.01 595.74,-442.44"/>
<polygon fill="midnightblue" stroke="midnightblue" points="596.23,-445.91 605.96,-441.73 595.74,-438.93 596.23,-445.91"/>
</g>
<!-- Node8 -->
<g id="node8" class="node">
<title>Node8</title>
<g id="a_node8"><a xlink:href="symmetry__i_8c.html#a4cd99fa0e4dd85776e474ec761ed0876" target="_top" xlink:title=" ">
<polygon fill="white" stroke="black" points="119,-80.83 119,-99.83 254,-99.83 254,-80.83 119,-80.83"/>
<text text-anchor="middle" x="186.5" y="-87.83" font-family="Helvetica,sans-Serif" font-size="10.00">destroy_symmetry_element</text>
</a>
</g>
</g>
<!-- Node1&#45;&gt;Node8 -->
<g id="edge7" class="edge">
<title>Node1&#45;&gt;Node8</title>
<path fill="none" stroke="midnightblue" d="M48.83,-295.81C70.78,-262.8 143.92,-152.84 173.22,-108.8"/>
<polygon fill="midnightblue" stroke="midnightblue" points="176.29,-110.49 178.92,-100.23 170.47,-106.61 176.29,-110.49"/>
</g>
<!-- Node10 -->
<g id="node10" class="node">
<title>Node10</title>
<g id="a_node10"><a xlink:href="symmetry__i_8c.html#aab43e6eec0762c0f8ed2e1f00487aabf" target="_top" xlink:title=" ">
<polygon fill="white" stroke="black" points="297,-295.83 297,-314.83 403,-314.83 403,-295.83 297,-295.83"/>
<text text-anchor="middle" x="350" y="-302.83" font-family="Helvetica,sans-Serif" font-size="10.00">init_axis_parameters</text>
</a>
</g>
</g>
<!-- Node1&#45;&gt;Node10 -->
<g id="edge9" class="edge">
<title>Node1&#45;&gt;Node10</title>
<path fill="none" stroke="midnightblue" d="M83.2,-305.33C135.23,-305.33 225.84,-305.33 286.61,-305.33"/>
<polygon fill="midnightblue" stroke="midnightblue" points="286.84,-308.83 296.84,-305.33 286.84,-301.83 286.84,-308.83"/>
</g>
<!-- Node12 -->
<g id="node12" class="node">
<title>Node12</title>
<g id="a_node12"><a xlink:href="symmetry__i_8c.html#aff39b1566e9d87c46184c58d49b46ab4" target="_top" xlink:title=" ">
<polygon fill="white" stroke="black" points="123,-219.83 123,-238.83 250,-238.83 250,-219.83 123,-219.83"/>
<text text-anchor="middle" x="186.5" y="-226.83" font-family="Helvetica,sans-Serif" font-size="10.00">refine_symmetry_element</text>
</a>
</g>
</g>
<!-- Node1&#45;&gt;Node12 -->
<g id="edge13" class="edge">
<title>Node1&#45;&gt;Node12</title>
<path fill="none" stroke="midnightblue" d="M60.61,-295.7C85.32,-282.57 129.81,-258.93 158.47,-243.69"/>
<polygon fill="midnightblue" stroke="midnightblue" points="160.35,-246.66 167.54,-238.88 157.06,-240.48 160.35,-246.66"/>
</g>
<!-- Node23 -->
<g id="node23" class="node">
<title>Node23</title>
<g id="a_node23"><a xlink:href="symmetry__i_8c.html#ac17305b859f184b2c84cac9a508a3854" target="_top" xlink:title=" ">
<polygon fill="white" stroke="black" points="152.5,-485.83 152.5,-504.83 220.5,-504.83 220.5,-485.83 152.5,-485.83"/>
<text text-anchor="middle" x="186.5" y="-492.83" font-family="Helvetica,sans-Serif" font-size="10.00">rotate_atom</text>
</a>
</g>
</g>
<!-- Node1&#45;&gt;Node23 -->
<g id="edge35" class="edge">
<title>Node1&#45;&gt;Node23</title>
<path fill="none" stroke="midnightblue" d="M44.27,-315.12C49.88,-343.43 69.91,-426.27 119,-471.33 125.7,-477.48 134.1,-482.08 142.64,-485.51"/>
<polygon fill="midnightblue" stroke="midnightblue" points="141.68,-488.89 152.27,-488.91 144.01,-482.29 141.68,-488.89"/>
</g>
<!-- Node3 -->
<g id="node3" class="node">
<title>Node3</title>
<g id="a_node3"><a xlink:href="drsp_8f.html#ac8791cdbe49427e661f00b126ce4dbbc" target="_top" xlink:title=" ">
<polygon fill="white" stroke="black" points="716,-428.83 716,-447.83 746,-447.83 746,-428.83 716,-428.83"/>
<text text-anchor="middle" x="731" y="-435.83" font-family="Helvetica,sans-Serif" font-size="10.00">rsp</text>
</a>
</g>
</g>
<!-- Node2&#45;&gt;Node3 -->
<g id="edge2" class="edge">
<title>Node2&#45;&gt;Node3</title>
<path fill="none" stroke="midnightblue" d="M680.47,-438.33C688.94,-438.33 697.74,-438.33 705.55,-438.33"/>
<polygon fill="midnightblue" stroke="midnightblue" points="705.76,-441.83 715.76,-438.33 705.76,-434.83 705.76,-441.83"/>
</g>
<!-- Node4 -->
<g id="node4" class="node">
<title>Node4</title>
<g id="a_node4"><a xlink:href="drsp_8f.html#a163d6464d6ff31893ac0abcfa0d6eeec" target="_top" xlink:title=" ">
<polygon fill="white" stroke="black" points="788,-485.83 788,-504.83 820,-504.83 820,-485.83 788,-485.83"/>
<text text-anchor="middle" x="804" y="-492.83" font-family="Helvetica,sans-Serif" font-size="10.00">tql2</text>
</a>
</g>
</g>
<!-- Node3&#45;&gt;Node4 -->
<g id="edge3" class="edge">
<title>Node3&#45;&gt;Node4</title>
<path fill="none" stroke="midnightblue" d="M744.04,-448C754.72,-456.57 770.51,-469.24 783.06,-479.32"/>
<polygon fill="midnightblue" stroke="midnightblue" points="781.14,-482.27 791.13,-485.8 785.53,-476.81 781.14,-482.27"/>
</g>
<!-- Node5 -->
<g id="node5" class="node">
<title>Node5</title>
<g id="a_node5"><a xlink:href="drsp_8f.html#a47a86ab7ed20a30b44b28253866ac7ff" target="_top" xlink:title=" ">
<polygon fill="white" stroke="black" points="785,-447.83 785,-466.83 823,-466.83 823,-447.83 785,-447.83"/>
<text text-anchor="middle" x="804" y="-454.83" font-family="Helvetica,sans-Serif" font-size="10.00">tqlrat</text>
</a>
</g>
</g>
<!-- Node3&#45;&gt;Node5 -->
<g id="edge4" class="edge">
<title>Node3&#45;&gt;Node5</title>
<path fill="none" stroke="midnightblue" d="M746.03,-442.08C754.31,-444.3 765.08,-447.18 775.03,-449.84"/>
<polygon fill="midnightblue" stroke="midnightblue" points="774.39,-453.3 784.95,-452.5 776.2,-446.53 774.39,-453.3"/>
</g>
<!-- Node6 -->
<g id="node6" class="node">
<title>Node6</title>
<g id="a_node6"><a xlink:href="drsp_8f.html#a035138691289fce6e2d30c8b3c41188f" target="_top" xlink:title=" ">
<polygon fill="white" stroke="black" points="782,-409.83 782,-428.83 826,-428.83 826,-409.83 782,-409.83"/>
<text text-anchor="middle" x="804" y="-416.83" font-family="Helvetica,sans-Serif" font-size="10.00">trbak3</text>
</a>
</g>
</g>
<!-- Node3&#45;&gt;Node6 -->
<g id="edge5" class="edge">
<title>Node3&#45;&gt;Node6</title>
<path fill="none" stroke="midnightblue" d="M746.03,-434.58C753.49,-432.58 762.97,-430.04 772.05,-427.61"/>
<polygon fill="midnightblue" stroke="midnightblue" points="773.24,-430.92 782,-424.95 771.43,-424.15 773.24,-430.92"/>
</g>
<!-- Node7 -->
<g id="node7" class="node">
<title>Node7</title>
<g id="a_node7"><a xlink:href="drsp_8f.html#a160df22dcc004ea7373039d1db601e3d" target="_top" xlink:title=" ">
<polygon fill="white" stroke="black" points="785,-371.83 785,-390.83 823,-390.83 823,-371.83 785,-371.83"/>
<text text-anchor="middle" x="804" y="-378.83" font-family="Helvetica,sans-Serif" font-size="10.00">tred3</text>
</a>
</g>
</g>
<!-- Node3&#45;&gt;Node7 -->
<g id="edge6" class="edge">
<title>Node3&#45;&gt;Node7</title>
<path fill="none" stroke="midnightblue" d="M744.04,-428.66C754.72,-420.09 770.51,-407.41 783.06,-397.34"/>
<polygon fill="midnightblue" stroke="midnightblue" points="785.53,-399.85 791.13,-390.86 781.14,-394.39 785.53,-399.85"/>
</g>
<!-- Node9 -->
<g id="node9" class="node">
<title>Node9</title>
<g id="a_node9"><a xlink:href="elem_8f90.html#ae2a0e630d3a8fea4a12abcc607d7fc5d" target="_top" xlink:title=" ">
<polygon fill="white" stroke="black" points="624,-153.83 624,-172.83 662,-172.83 662,-153.83 624,-153.83"/>
<text text-anchor="middle" x="643" y="-160.83" font-family="Helvetica,sans-Serif" font-size="10.00">elem</text>
</a>
</g>
</g>
<!-- Node8&#45;&gt;Node9 -->
<g id="edge8" class="edge">
<title>Node8&#45;&gt;Node9</title>
<path fill="none" stroke="midnightblue" d="M203.47,-80.79C258.75,-49.11 445.4,46.43 570,-28.33 611.99,-53.52 630.84,-112.44 638.11,-143.45"/>
<polygon fill="midnightblue" stroke="midnightblue" points="634.74,-144.46 640.28,-153.49 641.59,-142.98 634.74,-144.46"/>
</g>
<!-- Node10&#45;&gt;Node2 -->
<g id="edge12" class="edge">
<title>Node10&#45;&gt;Node2</title>
<path fill="none" stroke="midnightblue" d="M390.33,-314.94C397.16,-317.45 403.99,-320.54 410,-324.33 429.69,-336.73 426.23,-350.07 446,-362.33 494.99,-392.7 516.72,-378.34 570,-400.33 586.13,-406.99 603.46,-416.07 617.07,-423.68"/>
<polygon fill="midnightblue" stroke="midnightblue" points="615.42,-426.77 625.84,-428.67 618.88,-420.68 615.42,-426.77"/>
</g>
<!-- Node11 -->
<g id="node11" class="node">
<title>Node11</title>
<g id="a_node11"><a xlink:href="symmetry__i_8c.html#a52d770f57f14b01b1cdfec44136398cf" target="_top" xlink:title=" ">
<polygon fill="white" stroke="black" points="446,-257.83 446,-276.83 570,-276.83 570,-257.83 446,-257.83"/>
<text text-anchor="middle" x="508" y="-264.83" font-family="Helvetica,sans-Serif" font-size="10.00">alloc_symmetry_element</text>
</a>
</g>
</g>
<!-- Node10&#45;&gt;Node11 -->
<g id="edge10" class="edge">
<title>Node10&#45;&gt;Node11</title>
<path fill="none" stroke="midnightblue" d="M390.37,-295.74C410.95,-290.73 436.34,-284.54 458.17,-279.22"/>
<polygon fill="midnightblue" stroke="midnightblue" points="459.03,-282.62 467.92,-276.85 457.37,-275.82 459.03,-282.62"/>
</g>
<!-- Node11&#45;&gt;Node9 -->
<g id="edge11" class="edge">
<title>Node11&#45;&gt;Node9</title>
<path fill="none" stroke="midnightblue" d="M550.8,-257.79C557.52,-255.3 564.17,-252.19 570,-248.33 577.18,-243.57 609.23,-204.28 628.06,-180.82"/>
<polygon fill="midnightblue" stroke="midnightblue" points="630.81,-182.98 634.33,-172.99 625.35,-178.61 630.81,-182.98"/>
</g>
<!-- Node12&#45;&gt;Node9 -->
<g id="edge21" class="edge">
<title>Node12&#45;&gt;Node9</title>
<path fill="none" stroke="midnightblue" d="M194.14,-219.62C209.07,-198.4 247.35,-147.29 290,-116.33 351.5,-71.69 371.69,-62.24 446,-46.33 499.89,-34.79 521.89,-19.45 570,-46.33 607.5,-67.28 627.87,-116.66 636.65,-144.1"/>
<polygon fill="midnightblue" stroke="midnightblue" points="633.32,-145.18 639.55,-153.75 640.03,-143.16 633.32,-145.18"/>
</g>
<!-- Node13 -->
<g id="node13" class="node">
<title>Node13</title>
<g id="a_node13"><a xlink:href="symmetry__i_8c.html#a401172a43970238f56e75a2bd25bf3a5" target="_top" xlink:title=" ">
<polygon fill="white" stroke="black" points="292,-333.83 292,-352.83 408,-352.83 408,-333.83 292,-333.83"/>
<text text-anchor="middle" x="350" y="-340.83" font-family="Helvetica,sans-Serif" font-size="10.00">check_transform_order</text>
</a>
</g>
</g>
<!-- Node12&#45;&gt;Node13 -->
<g id="edge14" class="edge">
<title>Node12&#45;&gt;Node13</title>
<path fill="none" stroke="midnightblue" d="M195.23,-238.87C211.07,-257.82 249.17,-300.43 290,-324.33 293.6,-326.44 297.47,-328.35 301.44,-330.06"/>
<polygon fill="midnightblue" stroke="midnightblue" points="300.22,-333.34 310.81,-333.73 302.77,-326.82 300.22,-333.34"/>
</g>
<!-- Node15 -->
<g id="node15" class="node">
<title>Node15</title>
<g id="a_node15"><a xlink:href="symmetry__i_8c.html#abcbb13fcbff6e3466225582a389ac455" target="_top" xlink:title=" ">
<polygon fill="white" stroke="black" points="447,-333.83 447,-352.83 569,-352.83 569,-333.83 447,-333.83"/>
<text text-anchor="middle" x="508" y="-340.83" font-family="Helvetica,sans-Serif" font-size="10.00">check_transform_quality</text>
</a>
</g>
</g>
<!-- Node12&#45;&gt;Node15 -->
<g id="edge18" class="edge">
<title>Node12&#45;&gt;Node15</title>
<path fill="none" stroke="midnightblue" d="M242.37,-238.92C288.26,-247.99 354.89,-263.61 410,-286.33 437.28,-297.58 466.14,-315.4 485.22,-328.12"/>
<polygon fill="midnightblue" stroke="midnightblue" points="483.26,-331.02 493.5,-333.73 487.19,-325.23 483.26,-331.02"/>
</g>
<!-- Node17 -->
<g id="node17" class="node">
<title>Node17</title>
<g id="a_node17"><a xlink:href="symmetry__i_8c.html#a0e979a95e67dd97b50d84529eded6011" target="_top" xlink:title=" ">
<polygon fill="white" stroke="black" points="467,-219.83 467,-238.83 549,-238.83 549,-219.83 467,-219.83"/>
<text text-anchor="middle" x="508" y="-226.83" font-family="Helvetica,sans-Serif" font-size="10.00">establish_pairs</text>
</a>
</g>
</g>
<!-- Node12&#45;&gt;Node17 -->
<g id="edge22" class="edge">
<title>Node12&#45;&gt;Node17</title>
<path fill="none" stroke="midnightblue" d="M250.24,-229.33C310.63,-229.33 400.8,-229.33 456.64,-229.33"/>
<polygon fill="midnightblue" stroke="midnightblue" points="456.65,-232.83 466.65,-229.33 456.65,-225.83 456.65,-232.83"/>
</g>
<!-- Node18 -->
<g id="node18" class="node">
<title>Node18</title>
<g id="a_node18"><a xlink:href="symmetry__i_8c.html#a840dda299cb1beb196d463448f6b85bd" target="_top" xlink:title=" ">
<polygon fill="white" stroke="black" points="290,-126.33 290,-156.33 410,-156.33 410,-126.33 290,-126.33"/>
<text text-anchor="start" x="298" y="-144.33" font-family="Helvetica,sans-Serif" font-size="10.00">optimize_transformation</text>
<text text-anchor="middle" x="350" y="-133.33" font-family="Helvetica,sans-Serif" font-size="10.00">_params</text>
</a>
</g>
</g>
<!-- Node12&#45;&gt;Node18 -->
<g id="edge25" class="edge">
<title>Node12&#45;&gt;Node18</title>
<path fill="none" stroke="midnightblue" d="M204.48,-219.73C224.76,-208.29 259.73,-188.7 290,-172.33 296.72,-168.7 303.89,-164.88 310.84,-161.21"/>
<polygon fill="midnightblue" stroke="midnightblue" points="312.9,-164.08 320.12,-156.33 309.64,-157.89 312.9,-164.08"/>
</g>
<!-- Node22 -->
<g id="node22" class="node">
<title>Node22</title>
<g id="a_node22"><a xlink:href="symmetry__i_8c.html#ada87e9244d2d583fb2cbc7208b3883b9" target="_top" xlink:title=" ">
<polygon fill="white" stroke="black" points="306.5,-181.83 306.5,-200.83 393.5,-200.83 393.5,-181.83 306.5,-181.83"/>
<text text-anchor="middle" x="350" y="-188.83" font-family="Helvetica,sans-Serif" font-size="10.00">same_transform</text>
</a>
</g>
</g>
<!-- Node12&#45;&gt;Node22 -->
<g id="edge34" class="edge">
<title>Node12&#45;&gt;Node22</title>
<path fill="none" stroke="midnightblue" d="M228.25,-219.74C249.66,-214.7 276.09,-208.49 298.75,-203.15"/>
<polygon fill="midnightblue" stroke="midnightblue" points="299.61,-206.55 308.54,-200.85 298,-199.73 299.61,-206.55"/>
</g>
<!-- Node13&#45;&gt;Node9 -->
<g id="edge15" class="edge">
<title>Node13&#45;&gt;Node9</title>
<path fill="none" stroke="midnightblue" d="M395.85,-333.78C455.92,-320.68 556.53,-297.48 570,-286.33 598.79,-262.49 586.53,-242.23 606,-210.33 612.27,-200.06 620.32,-189.37 627.23,-180.77"/>
<polygon fill="midnightblue" stroke="midnightblue" points="629.99,-182.92 633.64,-172.98 624.58,-178.48 629.99,-182.92"/>
</g>
<!-- Node14 -->
<g id="node14" class="node">
<title>Node14</title>
<g id="a_node14"><a xlink:href="symmetry__i_8c.html#ad478abbd8c6b45859d4614081bc2660e" target="_top" xlink:title=" ">
<polygon fill="white" stroke="black" points="458,-409.83 458,-428.83 558,-428.83 558,-409.83 458,-409.83"/>
<text text-anchor="middle" x="508" y="-416.83" font-family="Helvetica,sans-Serif" font-size="10.00">rotate_reflect_atom</text>
</a>
</g>
</g>
<!-- Node13&#45;&gt;Node14 -->
<g id="edge16" class="edge">
<title>Node13&#45;&gt;Node14</title>
<path fill="none" stroke="midnightblue" d="M367.15,-352.99C385.8,-363.94 417.56,-382.02 446,-395.33 454,-399.07 462.76,-402.76 471.08,-406.07"/>
<polygon fill="midnightblue" stroke="midnightblue" points="469.98,-409.4 480.57,-409.76 472.52,-402.87 469.98,-409.4"/>
</g>
<!-- Node14&#45;&gt;Node2 -->
<g id="edge17" class="edge">
<title>Node14&#45;&gt;Node2</title>
<path fill="none" stroke="midnightblue" d="M558.15,-426.35C570.52,-428.12 583.75,-430.01 595.96,-431.75"/>
<polygon fill="midnightblue" stroke="midnightblue" points="595.55,-435.23 605.94,-433.18 596.54,-428.3 595.55,-435.23"/>
</g>
<!-- Node15&#45;&gt;Node9 -->
<g id="edge19" class="edge">
<title>Node15&#45;&gt;Node9</title>
<path fill="none" stroke="midnightblue" d="M548.25,-333.74C556.27,-330.28 564.06,-325.61 570,-319.33 605.05,-282.26 582.16,-255.43 606,-210.33 611.55,-199.83 619.42,-189.24 626.39,-180.78"/>
<polygon fill="midnightblue" stroke="midnightblue" points="629.1,-182.98 632.93,-173.1 623.78,-178.44 629.1,-182.98"/>
</g>
<!-- Node16 -->
<g id="node16" class="node">
<title>Node16</title>
<g id="a_node16"><a xlink:href="symmetry__i_8c.html#a347fe37bf882cc1be3efe68082ffbd12" target="_top" xlink:title=" ">
<polygon fill="white" stroke="black" points="623,-219.83 623,-238.83 663,-238.83 663,-219.83 623,-219.83"/>
<text text-anchor="middle" x="643" y="-226.83" font-family="Helvetica,sans-Serif" font-size="10.00">pow2</text>
</a>
</g>
</g>
<!-- Node15&#45;&gt;Node16 -->
<g id="edge20" class="edge">
<title>Node15&#45;&gt;Node16</title>
<path fill="none" stroke="midnightblue" d="M542.28,-333.81C551.77,-330.18 561.76,-325.41 570,-319.33 596.71,-299.63 619.03,-267.68 631.44,-247.62"/>
<polygon fill="midnightblue" stroke="midnightblue" points="634.57,-249.21 636.71,-238.83 628.57,-245.61 634.57,-249.21"/>
</g>
<!-- Node17&#45;&gt;Node9 -->
<g id="edge23" class="edge">
<title>Node17&#45;&gt;Node9</title>
<path fill="none" stroke="midnightblue" d="M543.15,-219.81C552.07,-216.87 561.54,-213.34 570,-209.33 588.03,-200.78 607,-188.51 620.93,-178.8"/>
<polygon fill="midnightblue" stroke="midnightblue" points="623.18,-181.49 629.3,-172.84 619.13,-175.79 623.18,-181.49"/>
</g>
<!-- Node17&#45;&gt;Node16 -->
<g id="edge24" class="edge">
<title>Node17&#45;&gt;Node16</title>
<path fill="none" stroke="midnightblue" d="M549.27,-229.33C569.72,-229.33 594.11,-229.33 612.75,-229.33"/>
<polygon fill="midnightblue" stroke="midnightblue" points="612.98,-232.83 622.98,-229.33 612.98,-225.83 612.98,-232.83"/>
</g>
<!-- Node18&#45;&gt;Node9 -->
<g id="edge26" class="edge">
<title>Node18&#45;&gt;Node9</title>
<path fill="none" stroke="midnightblue" d="M405.89,-126.32C450.73,-116.48 515.4,-107.87 570,-122.33 588.71,-127.28 607.64,-138.35 621.39,-147.74"/>
<polygon fill="midnightblue" stroke="midnightblue" points="619.44,-150.65 629.62,-153.59 623.5,-144.95 619.44,-150.65"/>
</g>
<!-- Node19 -->
<g id="node19" class="node">
<title>Node19</title>
<g id="a_node19"><a xlink:href="symmetry__i_8c.html#aa5e7898a49d284cd7813b2e3dacc0857" target="_top" xlink:title=" ">
<polygon fill="white" stroke="black" points="447,-170.33 447,-200.33 569,-200.33 569,-170.33 447,-170.33"/>
<text text-anchor="start" x="455" y="-188.33" font-family="Helvetica,sans-Serif" font-size="10.00">eval_optimization_target</text>
<text text-anchor="middle" x="508" y="-177.33" font-family="Helvetica,sans-Serif" font-size="10.00">_function</text>
</a>
</g>
</g>
<!-- Node18&#45;&gt;Node19 -->
<g id="edge27" class="edge">
<title>Node18&#45;&gt;Node19</title>
<path fill="none" stroke="midnightblue" d="M404.25,-156.35C416.98,-159.94 430.69,-163.81 443.82,-167.51"/>
<polygon fill="midnightblue" stroke="midnightblue" points="443.15,-170.96 453.73,-170.3 445.05,-164.22 443.15,-170.96"/>
</g>
<!-- Node20 -->
<g id="node20" class="node">
<title>Node20</title>
<g id="a_node20"><a xlink:href="symmetry__i_8c.html#ad72477419409dc5d22f1f00ac0bd8609" target="_top" xlink:title=" ">
<polygon fill="white" stroke="black" points="474,-55.83 474,-74.83 542,-74.83 542,-55.83 474,-55.83"/>
<text text-anchor="middle" x="508" y="-62.83" font-family="Helvetica,sans-Serif" font-size="10.00">get_params</text>
</a>
</g>
</g>
<!-- Node18&#45;&gt;Node20 -->
<g id="edge30" class="edge">
<title>Node18&#45;&gt;Node20</title>
<path fill="none" stroke="midnightblue" d="M376.35,-126.31C395.23,-115.41 421.82,-100.65 446,-89.33 454,-85.58 462.76,-81.9 471.08,-78.59"/>
<polygon fill="midnightblue" stroke="midnightblue" points="472.52,-81.79 480.57,-74.89 469.98,-75.26 472.52,-81.79"/>
</g>
<!-- Node21 -->
<g id="node21" class="node">
<title>Node21</title>
<g id="a_node21"><a xlink:href="symmetry__i_8c.html#a0314524bc1022f80982ecf4dd39ddbc2" target="_top" xlink:title=" ">
<polygon fill="white" stroke="black" points="474,-131.83 474,-150.83 542,-150.83 542,-131.83 474,-131.83"/>
<text text-anchor="middle" x="508" y="-138.83" font-family="Helvetica,sans-Serif" font-size="10.00">set_params</text>
</a>
</g>
</g>
<!-- Node18&#45;&gt;Node21 -->
<g id="edge32" class="edge">
<title>Node18&#45;&gt;Node21</title>
<path fill="none" stroke="midnightblue" d="M410.42,-141.33C428.08,-141.33 447.09,-141.33 463.53,-141.33"/>
<polygon fill="midnightblue" stroke="midnightblue" points="463.92,-144.83 473.92,-141.33 463.92,-137.83 463.92,-144.83"/>
</g>
<!-- Node19&#45;&gt;Node9 -->
<g id="edge28" class="edge">
<title>Node19&#45;&gt;Node9</title>
<path fill="none" stroke="midnightblue" d="M569.27,-175.36C584.74,-172.8 600.66,-170.17 613.64,-168.02"/>
<polygon fill="midnightblue" stroke="midnightblue" points="614.49,-171.43 623.79,-166.34 613.35,-164.52 614.49,-171.43"/>
</g>
<!-- Node19&#45;&gt;Node16 -->
<g id="edge29" class="edge">
<title>Node19&#45;&gt;Node16</title>
<path fill="none" stroke="midnightblue" d="M554.4,-200.35C573.72,-206.74 595.69,-214.01 612.79,-219.67"/>
<polygon fill="midnightblue" stroke="midnightblue" points="612.15,-223.14 622.75,-222.96 614.35,-216.5 612.15,-223.14"/>
</g>
<!-- Node20&#45;&gt;Node9 -->
<g id="edge31" class="edge">
<title>Node20&#45;&gt;Node9</title>
<path fill="none" stroke="midnightblue" d="M540.67,-74.88C550.5,-78.6 561.09,-83.4 570,-89.33 593.17,-104.74 614.72,-128.68 628.09,-145.13"/>
<polygon fill="midnightblue" stroke="midnightblue" points="625.68,-147.73 634.63,-153.4 631.17,-143.38 625.68,-147.73"/>
</g>
<!-- Node21&#45;&gt;Node9 -->
<g id="edge33" class="edge">
<title>Node21&#45;&gt;Node9</title>
<path fill="none" stroke="midnightblue" d="M542.22,-146.82C564.33,-150.48 593.07,-155.24 614.02,-158.7"/>
<polygon fill="midnightblue" stroke="midnightblue" points="613.46,-162.16 623.9,-160.34 614.6,-155.25 613.46,-162.16"/>
</g>
<!-- Node23&#45;&gt;Node2 -->
<g id="edge36" class="edge">
<title>Node23&#45;&gt;Node2</title>
<path fill="none" stroke="midnightblue" d="M220.61,-497.27C287.7,-500.32 444,-502.99 570,-471.33 586.2,-467.26 603.25,-459.62 616.68,-452.71"/>
<polygon fill="midnightblue" stroke="midnightblue" points="618.58,-455.67 625.76,-447.88 615.29,-449.49 618.58,-455.67"/>
</g>
</g>
</svg>
        <g id="navigator" transform="translate(0 0)" fill="#404254">
                <rect fill="#f2f5e9" fill-opacity="0.5" stroke="#606060" stroke-width=".5" x="0" y="0" width="60" height="60"/>
                <use id="zoomplus" xlink:href="#zoomPlus" x="17" y="9" onmousedown="handleZoom(evt,'in')"/>
                <use id="zoomminus" xlink:href="#zoomMin" x="42" y="9" onmousedown="handleZoom(evt,'out')"/>
                <use id="reset" xlink:href="#resetDef" x="30" y="36" onmousedown="handleReset()"/>
                <g id="arrowUp" xlink:href="#dirArrow" transform="translate(30 24)" onmousedown="handlePan(0,-1)">
                  <use xlink:href="#rim" fill="#404040">
                        <set attributeName="fill" to="#808080" begin="arrowUp.mouseover" end="arrowUp.mouseout"/>
                  </use>
                  <path fill="none" stroke="white" stroke-width="1.5" d="M0,-3.0v7 M-2.5,-0.5L0,-3.0L2.5,-0.5"/>
                </g>
                <g id="arrowRight" xlink:href="#dirArrow" transform="rotate(90) translate(36 -43)" onmousedown="handlePan(1,0)">
                  <use xlink:href="#rim" fill="#404040">
                        <set attributeName="fill" to="#808080" begin="arrowRight.mouseover" end="arrowRight.mouseout"/>
                  </use>
                  <path fill="none" stroke="white" stroke-width="1.5" d="M0,-3.0v7 M-2.5,-0.5L0,-3.0L2.5,-0.5"/>
                </g>
                <g id="arrowDown" xlink:href="#dirArrow" transform="rotate(180) translate(-30 -48)" onmousedown="handlePan(0,1)">
                  <use xlink:href="#rim" fill="#404040">
                        <set attributeName="fill" to="#808080" begin="arrowDown.mouseover" end="arrowDown.mouseout"/>
                  </use>
                  <path fill="none" stroke="white" stroke-width="1.5" d="M0,-3.0v7 M-2.5,-0.5L0,-3.0L2.5,-0.5"/>
                </g>
                <g id="arrowLeft" xlink:href="#dirArrow" transform="rotate(270) translate(-36 17)" onmousedown="handlePan(-1,0)">
                  <use xlink:href="#rim" fill="#404040">
                        <set attributeName="fill" to="#808080" begin="arrowLeft.mouseover" end="arrowLeft.mouseout"/>
                  </use>
                  <path fill="none" stroke="white" stroke-width="1.5" d="M0,-3.0v7 M-2.5,-0.5L0,-3.0L2.5,-0.5"/>
                </g>
        </g>
        <svg viewBox="0 0 15 15" width="100%" height="30px" preserveAspectRatio="xMaxYMin meet">
         <g id="arrow_out" transform="scale(0.3 0.3)">
          <a xlink:href="symmetry__i_8c_aefd8cb52cd2813008ffac12799461733_cgraph_org.svg" target="_base">
           <rect id="button" ry="5" rx="5" y="6" x="6" height="38" width="38"
                fill="#f2f5e9" fill-opacity="0.5" stroke="#606060" stroke-width="1.0"/>
           <path id="arrow"
             d="M 11.500037,31.436501 C 11.940474,20.09759 22.043105,11.32322 32.158766,21.979434 L 37.068811,17.246167 C 37.068811,17.246167 37.088388,32 37.088388,32 L 22.160133,31.978069 C 22.160133,31.978069 26.997745,27.140456 26.997745,27.140456 C 18.528582,18.264221 13.291696,25.230495 11.500037,31.436501 z"
             style="fill:#404040;"/>
          </a>
         </g>
        </svg>
</svg>
