<?xml version="1.0" encoding="UTF-8" standalone="no"?>
<!DOCTYPE svg PUBLIC "-//W3C//DTD SVG 1.1//EN"
 "http://www.w3.org/Graphics/SVG/1.1/DTD/svg11.dtd">
<!-- Generated by graphviz version 2.46.1 (20210215.1649)
 -->
<!-- Title: init_ultimate_axis Pages: 1 -->
<svg width="516pt" height="161pt"
 viewBox="0.00 0.00 516.00 161.00" xmlns="http://www.w3.org/2000/svg" xmlns:xlink="http://www.w3.org/1999/xlink">
<g id="graph0" class="graph" transform="scale(1 1) rotate(0) translate(4 157)">
<title>init_ultimate_axis</title>
<polygon fill="white" stroke="transparent" points="-4,4 -4,-157 512,-157 512,4 -4,4"/>
<!-- Node1 -->
<g id="node1" class="node">
<title>Node1</title>
<g id="a_node1"><a xlink:title=" ">
<polygon fill="#bfbfbf" stroke="black" points="0,-76.5 0,-95.5 92,-95.5 92,-76.5 0,-76.5"/>
<text text-anchor="middle" x="46" y="-83.5" font-family="Helvetica,sans-Serif" font-size="10.00">init_ultimate_axis</text>
</a>
</g>
</g>
<!-- Node2 -->
<g id="node2" class="node">
<title>Node2</title>
<g id="a_node2"><a xlink:href="symmetry__i_8c.html#a52d770f57f14b01b1cdfec44136398cf" target="_top" xlink:title=" ">
<polygon fill="white" stroke="black" points="128,-133.5 128,-152.5 252,-152.5 252,-133.5 128,-133.5"/>
<text text-anchor="middle" x="190" y="-140.5" font-family="Helvetica,sans-Serif" font-size="10.00">alloc_symmetry_element</text>
</a>
</g>
</g>
<!-- Node1&#45;&gt;Node2 -->
<g id="edge1" class="edge">
<title>Node1&#45;&gt;Node2</title>
<path fill="none" stroke="midnightblue" d="M70.36,-95.61C86.53,-102.23 108.55,-111.21 128,-119 136.84,-122.54 146.43,-126.33 155.32,-129.83"/>
<polygon fill="midnightblue" stroke="midnightblue" points="154.05,-133.09 164.63,-133.49 156.6,-126.58 154.05,-133.09"/>
</g>
<!-- Node4 -->
<g id="node4" class="node">
<title>Node4</title>
<g id="a_node4"><a xlink:href="namespacextb__axis.html#a17d974ca7396eb007888d7fd9743edac" target="_top" xlink:title=" ">
<polygon fill="white" stroke="black" points="288,-57.5 288,-76.5 362,-76.5 362,-57.5 288,-57.5"/>
<text text-anchor="middle" x="325" y="-64.5" font-family="Helvetica,sans-Serif" font-size="10.00">xtb_axis::axis</text>
</a>
</g>
</g>
<!-- Node1&#45;&gt;Node4 -->
<g id="edge3" class="edge">
<title>Node1&#45;&gt;Node4</title>
<path fill="none" stroke="midnightblue" d="M92,-89.31C133.68,-91.6 197.29,-93.1 252,-86 262.88,-84.59 274.46,-82.02 285.08,-79.23"/>
<polygon fill="midnightblue" stroke="midnightblue" points="286.21,-82.55 294.91,-76.5 284.34,-75.8 286.21,-82.55"/>
</g>
<!-- Node10 -->
<g id="node10" class="node">
<title>Node10</title>
<g id="a_node10"><a xlink:href="symmetry__i_8c.html#a347fe37bf882cc1be3efe68082ffbd12" target="_top" xlink:title=" ">
<polygon fill="white" stroke="black" points="170,-57.5 170,-76.5 210,-76.5 210,-57.5 170,-57.5"/>
<text text-anchor="middle" x="190" y="-64.5" font-family="Helvetica,sans-Serif" font-size="10.00">pow2</text>
</a>
</g>
</g>
<!-- Node1&#45;&gt;Node10 -->
<g id="edge9" class="edge">
<title>Node1&#45;&gt;Node10</title>
<path fill="none" stroke="midnightblue" d="M92.32,-79.94C114.37,-76.99 140.24,-73.52 159.67,-70.92"/>
<polygon fill="midnightblue" stroke="midnightblue" points="160.29,-74.37 169.74,-69.58 159.36,-67.43 160.29,-74.37"/>
</g>
<!-- Node11 -->
<g id="node11" class="node">
<title>Node11</title>
<g id="a_node11"><a xlink:href="symmetry__i_8c.html#ac17305b859f184b2c84cac9a508a3854" target="_top" xlink:title=" ">
<polygon fill="white" stroke="black" points="156,-19.5 156,-38.5 224,-38.5 224,-19.5 156,-19.5"/>
<text text-anchor="middle" x="190" y="-26.5" font-family="Helvetica,sans-Serif" font-size="10.00">rotate_atom</text>
</a>
</g>
</g>
<!-- Node1&#45;&gt;Node11 -->
<g id="edge10" class="edge">
<title>Node1&#45;&gt;Node11</title>
<path fill="none" stroke="midnightblue" d="M65.67,-76.35C81.88,-68.18 106.13,-56.49 128,-48 133.84,-45.73 140.06,-43.54 146.23,-41.51"/>
<polygon fill="midnightblue" stroke="midnightblue" points="147.34,-44.83 155.79,-38.44 145.2,-38.16 147.34,-44.83"/>
</g>
<!-- Node3 -->
<g id="node3" class="node">
<title>Node3</title>
<g id="a_node3"><a xlink:href="elem_8f90.html#ae2a0e630d3a8fea4a12abcc607d7fc5d" target="_top" xlink:title=" ">
<polygon fill="white" stroke="black" points="306,-133.5 306,-152.5 344,-152.5 344,-133.5 306,-133.5"/>
<text text-anchor="middle" x="325" y="-140.5" font-family="Helvetica,sans-Serif" font-size="10.00">elem</text>
</a>
</g>
</g>
<!-- Node2&#45;&gt;Node3 -->
<g id="edge2" class="edge">
<title>Node2&#45;&gt;Node3</title>
<path fill="none" stroke="midnightblue" d="M252.05,-143C267.16,-143 282.64,-143 295.35,-143"/>
<polygon fill="midnightblue" stroke="midnightblue" points="295.74,-146.5 305.74,-143 295.74,-139.5 295.74,-146.5"/>
</g>
<!-- Node5 -->
<g id="node5" class="node">
<title>Node5</title>
<g id="a_node5"><a xlink:href="drsp_8f.html#ac8791cdbe49427e661f00b126ce4dbbc" target="_top" xlink:title=" ">
<polygon fill="white" stroke="black" points="398,-57.5 398,-76.5 428,-76.5 428,-57.5 398,-57.5"/>
<text text-anchor="middle" x="413" y="-64.5" font-family="Helvetica,sans-Serif" font-size="10.00">rsp</text>
</a>
</g>
</g>
<!-- Node4&#45;&gt;Node5 -->
<g id="edge4" class="edge">
<title>Node4&#45;&gt;Node5</title>
<path fill="none" stroke="midnightblue" d="M362.47,-67C370.94,-67 379.74,-67 387.55,-67"/>
<polygon fill="midnightblue" stroke="midnightblue" points="387.76,-70.5 397.76,-67 387.76,-63.5 387.76,-70.5"/>
</g>
<!-- Node6 -->
<g id="node6" class="node">
<title>Node6</title>
<g id="a_node6"><a xlink:href="drsp_8f.html#a163d6464d6ff31893ac0abcfa0d6eeec" target="_top" xlink:title=" ">
<polygon fill="white" stroke="black" points="470,-114.5 470,-133.5 502,-133.5 502,-114.5 470,-114.5"/>
<text text-anchor="middle" x="486" y="-121.5" font-family="Helvetica,sans-Serif" font-size="10.00">tql2</text>
</a>
</g>
</g>
<!-- Node5&#45;&gt;Node6 -->
<g id="edge5" class="edge">
<title>Node5&#45;&gt;Node6</title>
<path fill="none" stroke="midnightblue" d="M426.04,-76.67C436.72,-85.24 452.51,-97.91 465.06,-107.99"/>
<polygon fill="midnightblue" stroke="midnightblue" points="463.14,-110.94 473.13,-114.47 467.53,-105.48 463.14,-110.94"/>
</g>
<!-- Node7 -->
<g id="node7" class="node">
<title>Node7</title>
<g id="a_node7"><a xlink:href="drsp_8f.html#a47a86ab7ed20a30b44b28253866ac7ff" target="_top" xlink:title=" ">
<polygon fill="white" stroke="black" points="467,-76.5 467,-95.5 505,-95.5 505,-76.5 467,-76.5"/>
<text text-anchor="middle" x="486" y="-83.5" font-family="Helvetica,sans-Serif" font-size="10.00">tqlrat</text>
</a>
</g>
</g>
<!-- Node5&#45;&gt;Node7 -->
<g id="edge6" class="edge">
<title>Node5&#45;&gt;Node7</title>
<path fill="none" stroke="midnightblue" d="M428.03,-70.75C436.31,-72.97 447.08,-75.85 457.03,-78.51"/>
<polygon fill="midnightblue" stroke="midnightblue" points="456.39,-81.97 466.95,-81.17 458.2,-75.2 456.39,-81.97"/>
</g>
<!-- Node8 -->
<g id="node8" class="node">
<title>Node8</title>
<g id="a_node8"><a xlink:href="drsp_8f.html#a035138691289fce6e2d30c8b3c41188f" target="_top" xlink:title=" ">
<polygon fill="white" stroke="black" points="464,-38.5 464,-57.5 508,-57.5 508,-38.5 464,-38.5"/>
<text text-anchor="middle" x="486" y="-45.5" font-family="Helvetica,sans-Serif" font-size="10.00">trbak3</text>
</a>
</g>
</g>
<!-- Node5&#45;&gt;Node8 -->
<g id="edge7" class="edge">
<title>Node5&#45;&gt;Node8</title>
<path fill="none" stroke="midnightblue" d="M428.03,-63.25C435.49,-61.25 444.97,-58.71 454.05,-56.28"/>
<polygon fill="midnightblue" stroke="midnightblue" points="455.24,-59.59 464,-53.62 453.43,-52.82 455.24,-59.59"/>
</g>
<!-- Node9 -->
<g id="node9" class="node">
<title>Node9</title>
<g id="a_node9"><a xlink:href="drsp_8f.html#a160df22dcc004ea7373039d1db601e3d" target="_top" xlink:title=" ">
<polygon fill="white" stroke="black" points="467,-0.5 467,-19.5 505,-19.5 505,-0.5 467,-0.5"/>
<text text-anchor="middle" x="486" y="-7.5" font-family="Helvetica,sans-Serif" font-size="10.00">tred3</text>
</a>
</g>
</g>
<!-- Node5&#45;&gt;Node9 -->
<g id="edge8" class="edge">
<title>Node5&#45;&gt;Node9</title>
<path fill="none" stroke="midnightblue" d="M426.04,-57.33C436.72,-48.76 452.51,-36.09 465.06,-26.01"/>
<polygon fill="midnightblue" stroke="midnightblue" points="467.53,-28.52 473.13,-19.53 463.14,-23.06 467.53,-28.52"/>
</g>
<!-- Node11&#45;&gt;Node4 -->
<g id="edge11" class="edge">
<title>Node11&#45;&gt;Node4</title>
<path fill="none" stroke="midnightblue" d="M224.22,-38.49C241.44,-43.41 262.66,-49.48 281.11,-54.75"/>
<polygon fill="midnightblue" stroke="midnightblue" points="280.17,-58.12 290.74,-57.5 282.09,-51.39 280.17,-58.12"/>
</g>
</g>
</svg>
