<?xml version="1.0" encoding="UTF-8" standalone="no"?>
<!DOCTYPE svg PUBLIC "-//W3C//DTD SVG 1.1//EN"
 "http://www.w3.org/Graphics/SVG/1.1/DTD/svg11.dtd">
<!-- Generated by graphviz version 2.46.0 (20210122.1329)
 -->
<!-- Title: init_ultimate_plane Pages: 1 -->
<svg width="851pt" height="420pt"
 viewBox="0.00 0.00 851.00 420.00" xmlns="http://www.w3.org/2000/svg" xmlns:xlink="http://www.w3.org/1999/xlink">
<g id="graph0" class="graph" transform="scale(1 1) rotate(0) translate(4 416)">
<title>init_ultimate_plane</title>
<polygon fill="white" stroke="transparent" points="-4,4 -4,-416 847,-416 847,4 -4,4"/>
<!-- Node1 -->
<g id="node1" class="node">
<title>Node1</title>
<g id="a_node1"><a xlink:title=" ">
<polygon fill="#bfbfbf" stroke="black" points="0,-207.5 0,-226.5 98,-226.5 98,-207.5 0,-207.5"/>
<text text-anchor="middle" x="49" y="-214.5" font-family="Helvetica,sans-Serif" font-size="10.00">init_ultimate_plane</text>
</a>
</g>
</g>
<!-- Node2 -->
<g id="node2" class="node">
<title>Node2</title>
<g id="a_node2"><a xlink:href="symmetry__i_8c.html#a52d770f57f14b01b1cdfec44136398cf" target="_top" xlink:title=" ">
<polygon fill="white" stroke="black" points="305,-392.5 305,-411.5 429,-411.5 429,-392.5 305,-392.5"/>
<text text-anchor="middle" x="367" y="-399.5" font-family="Helvetica,sans-Serif" font-size="10.00">alloc_symmetry_element</text>
</a>
</g>
</g>
<!-- Node1&#45;&gt;Node2 -->
<g id="edge1" class="edge">
<title>Node1&#45;&gt;Node2</title>
<path fill="none" stroke="midnightblue" d="M54.14,-226.52C64.32,-248.83 92.79,-304.79 134,-334 181.65,-367.78 246.05,-384.93 294.91,-393.54"/>
<polygon fill="midnightblue" stroke="midnightblue" points="294.34,-397 304.78,-395.21 295.5,-390.09 294.34,-397"/>
</g>
<!-- Node4 -->
<g id="node4" class="node">
<title>Node4</title>
<g id="a_node4"><a xlink:href="symmetry__i_8c.html#a4cd99fa0e4dd85776e474ec761ed0876" target="_top" xlink:title=" ">
<polygon fill="white" stroke="black" points="134,-305.5 134,-324.5 269,-324.5 269,-305.5 134,-305.5"/>
<text text-anchor="middle" x="201.5" y="-312.5" font-family="Helvetica,sans-Serif" font-size="10.00">destroy_symmetry_element</text>
</a>
</g>
</g>
<!-- Node1&#45;&gt;Node4 -->
<g id="edge3" class="edge">
<title>Node1&#45;&gt;Node4</title>
<path fill="none" stroke="midnightblue" d="M64.7,-226.58C90.82,-243.58 145.51,-279.2 176.94,-299.66"/>
<polygon fill="midnightblue" stroke="midnightblue" points="175.22,-302.72 185.51,-305.24 179.04,-296.85 175.22,-302.72"/>
</g>
<!-- Node5 -->
<g id="node5" class="node">
<title>Node5</title>
<g id="a_node5"><a xlink:href="symmetry__i_8c.html#ae5191120d6d35945c2693f299c310778" target="_top" xlink:title=" ">
<polygon fill="white" stroke="black" points="167.5,-150.5 167.5,-169.5 235.5,-169.5 235.5,-150.5 167.5,-150.5"/>
<text text-anchor="middle" x="201.5" y="-157.5" font-family="Helvetica,sans-Serif" font-size="10.00">mirror_atom</text>
</a>
</g>
</g>
<!-- Node1&#45;&gt;Node5 -->
<g id="edge5" class="edge">
<title>Node1&#45;&gt;Node5</title>
<path fill="none" stroke="midnightblue" d="M69.02,-207.43C85.83,-199.2 111.16,-187.38 134,-179 141.53,-176.24 149.66,-173.62 157.56,-171.27"/>
<polygon fill="midnightblue" stroke="midnightblue" points="158.75,-174.57 167.38,-168.43 156.81,-167.84 158.75,-174.57"/>
</g>
<!-- Node6 -->
<g id="node6" class="node">
<title>Node6</title>
<g id="a_node6"><a xlink:href="symmetry__i_8c.html#aff39b1566e9d87c46184c58d49b46ab4" target="_top" xlink:title=" ">
<polygon fill="white" stroke="black" points="138,-188.5 138,-207.5 265,-207.5 265,-188.5 138,-188.5"/>
<text text-anchor="middle" x="201.5" y="-195.5" font-family="Helvetica,sans-Serif" font-size="10.00">refine_symmetry_element</text>
</a>
</g>
</g>
<!-- Node1&#45;&gt;Node6 -->
<g id="edge6" class="edge">
<title>Node1&#45;&gt;Node6</title>
<path fill="none" stroke="midnightblue" d="M98.03,-210.94C107.52,-209.74 117.67,-208.46 127.76,-207.18"/>
<polygon fill="midnightblue" stroke="midnightblue" points="128.32,-210.64 137.8,-205.92 127.44,-203.7 128.32,-210.64"/>
</g>
<!-- Node3 -->
<g id="node3" class="node">
<title>Node3</title>
<g id="a_node3"><a xlink:href="elem_8f90.html#ae2a0e630d3a8fea4a12abcc607d7fc5d" target="_top" xlink:title=" ">
<polygon fill="white" stroke="black" points="641,-221.5 641,-240.5 679,-240.5 679,-221.5 641,-221.5"/>
<text text-anchor="middle" x="660" y="-228.5" font-family="Helvetica,sans-Serif" font-size="10.00">elem</text>
</a>
</g>
</g>
<!-- Node2&#45;&gt;Node3 -->
<g id="edge2" class="edge">
<title>Node2&#45;&gt;Node3</title>
<path fill="none" stroke="midnightblue" d="M429.24,-410.29C476.5,-413.39 541.3,-410.09 587,-378 630.48,-347.47 648.85,-283.13 655.6,-250.65"/>
<polygon fill="midnightblue" stroke="midnightblue" points="659.08,-251.07 657.53,-240.59 652.21,-249.76 659.08,-251.07"/>
</g>
<!-- Node4&#45;&gt;Node3 -->
<g id="edge4" class="edge">
<title>Node4&#45;&gt;Node3</title>
<path fill="none" stroke="midnightblue" d="M269.04,-324.55C364.05,-336.93 533.09,-353.96 587,-327 618.99,-311 640.46,-273.28 651.13,-250.17"/>
<polygon fill="midnightblue" stroke="midnightblue" points="654.47,-251.27 655.27,-240.71 648.05,-248.47 654.47,-251.27"/>
</g>
<!-- Node6&#45;&gt;Node3 -->
<g id="edge19" class="edge">
<title>Node6&#45;&gt;Node3</title>
<path fill="none" stroke="midnightblue" d="M218.63,-207.61C258.6,-230.77 366.19,-289.08 465,-307 518.35,-316.67 537.19,-328.42 587,-307 614.28,-295.27 636.07,-267.55 648.26,-249.03"/>
<polygon fill="midnightblue" stroke="midnightblue" points="651.23,-250.88 653.6,-240.56 645.31,-247.15 651.23,-250.88"/>
</g>
<!-- Node7 -->
<g id="node7" class="node">
<title>Node7</title>
<g id="a_node7"><a xlink:href="symmetry__i_8c.html#a401172a43970238f56e75a2bd25bf3a5" target="_top" xlink:title=" ">
<polygon fill="white" stroke="black" points="309,-114.5 309,-133.5 425,-133.5 425,-114.5 309,-114.5"/>
<text text-anchor="middle" x="367" y="-121.5" font-family="Helvetica,sans-Serif" font-size="10.00">check_transform_order</text>
</a>
</g>
</g>
<!-- Node6&#45;&gt;Node7 -->
<g id="edge7" class="edge">
<title>Node6&#45;&gt;Node7</title>
<path fill="none" stroke="midnightblue" d="M241.71,-188.47C250.82,-185.8 260.36,-182.62 269,-179 272.73,-177.44 312.92,-154.48 340.39,-138.72"/>
<polygon fill="midnightblue" stroke="midnightblue" points="342.21,-141.71 349.14,-133.7 338.72,-135.64 342.21,-141.71"/>
</g>
<!-- Node15 -->
<g id="node15" class="node">
<title>Node15</title>
<g id="a_node15"><a xlink:href="symmetry__i_8c.html#abcbb13fcbff6e3466225582a389ac455" target="_top" xlink:title=" ">
<polygon fill="white" stroke="black" points="465,-38.5 465,-57.5 587,-57.5 587,-38.5 465,-38.5"/>
<text text-anchor="middle" x="526" y="-45.5" font-family="Helvetica,sans-Serif" font-size="10.00">check_transform_quality</text>
</a>
</g>
</g>
<!-- Node6&#45;&gt;Node15 -->
<g id="edge16" class="edge">
<title>Node6&#45;&gt;Node15</title>
<path fill="none" stroke="midnightblue" d="M253.45,-188.39C259.06,-185.94 264.4,-182.86 269,-179 297.02,-155.49 276.69,-128.16 305,-105 347.1,-70.55 407.67,-56.67 454.6,-51.2"/>
<polygon fill="midnightblue" stroke="midnightblue" points="455.13,-54.67 464.7,-50.13 454.39,-47.71 455.13,-54.67"/>
</g>
<!-- Node17 -->
<g id="node17" class="node">
<title>Node17</title>
<g id="a_node17"><a xlink:href="symmetry__i_8c.html#a0e979a95e67dd97b50d84529eded6011" target="_top" xlink:title=" ">
<polygon fill="white" stroke="black" points="485,-0.5 485,-19.5 567,-19.5 567,-0.5 485,-0.5"/>
<text text-anchor="middle" x="526" y="-7.5" font-family="Helvetica,sans-Serif" font-size="10.00">establish_pairs</text>
</a>
</g>
</g>
<!-- Node6&#45;&gt;Node17 -->
<g id="edge20" class="edge">
<title>Node6&#45;&gt;Node17</title>
<path fill="none" stroke="midnightblue" d="M255.78,-188.35C260.65,-185.89 265.18,-182.82 269,-179 310.44,-137.47 261.74,-91.63 305,-52 350.91,-9.95 425.45,-4.07 474.85,-5.56"/>
<polygon fill="midnightblue" stroke="midnightblue" points="474.85,-9.07 484.99,-5.98 475.14,-2.07 474.85,-9.07"/>
</g>
<!-- Node18 -->
<g id="node18" class="node">
<title>Node18</title>
<g id="a_node18"><a xlink:href="symmetry__i_8c.html#a840dda299cb1beb196d463448f6b85bd" target="_top" xlink:title=" ">
<polygon fill="white" stroke="black" points="307,-207 307,-237 427,-237 427,-207 307,-207"/>
<text text-anchor="start" x="315" y="-225" font-family="Helvetica,sans-Serif" font-size="10.00">optimize_transformation</text>
<text text-anchor="middle" x="367" y="-214" font-family="Helvetica,sans-Serif" font-size="10.00">_params</text>
</a>
</g>
</g>
<!-- Node6&#45;&gt;Node18 -->
<g id="edge23" class="edge">
<title>Node6&#45;&gt;Node18</title>
<path fill="none" stroke="midnightblue" d="M265.25,-207.21C275.62,-208.73 286.42,-210.32 296.94,-211.86"/>
<polygon fill="midnightblue" stroke="midnightblue" points="296.51,-215.34 306.91,-213.33 297.53,-208.41 296.51,-215.34"/>
</g>
<!-- Node22 -->
<g id="node22" class="node">
<title>Node22</title>
<g id="a_node22"><a xlink:href="symmetry__i_8c.html#ada87e9244d2d583fb2cbc7208b3883b9" target="_top" xlink:title=" ">
<polygon fill="white" stroke="black" points="323.5,-168.5 323.5,-187.5 410.5,-187.5 410.5,-168.5 323.5,-168.5"/>
<text text-anchor="middle" x="367" y="-175.5" font-family="Helvetica,sans-Serif" font-size="10.00">same_transform</text>
</a>
</g>
</g>
<!-- Node6&#45;&gt;Node22 -->
<g id="edge32" class="edge">
<title>Node6&#45;&gt;Node22</title>
<path fill="none" stroke="midnightblue" d="M265.25,-190.32C281.05,-188.39 297.86,-186.34 313.12,-184.47"/>
<polygon fill="midnightblue" stroke="midnightblue" points="313.91,-187.9 323.42,-183.21 313.06,-180.95 313.91,-187.9"/>
</g>
<!-- Node7&#45;&gt;Node3 -->
<g id="edge8" class="edge">
<title>Node7&#45;&gt;Node3</title>
<path fill="none" stroke="midnightblue" d="M425.38,-117.21C471.66,-114.4 537.05,-116.63 587,-143 616.39,-158.52 638.26,-191.68 649.79,-212.57"/>
<polygon fill="midnightblue" stroke="midnightblue" points="646.72,-214.24 654.48,-221.45 652.91,-210.98 646.72,-214.24"/>
</g>
<!-- Node8 -->
<g id="node8" class="node">
<title>Node8</title>
<g id="a_node8"><a xlink:href="symmetry__i_8c.html#ad478abbd8c6b45859d4614081bc2660e" target="_top" xlink:title=" ">
<polygon fill="white" stroke="black" points="476,-76.5 476,-95.5 576,-95.5 576,-76.5 476,-76.5"/>
<text text-anchor="middle" x="526" y="-83.5" font-family="Helvetica,sans-Serif" font-size="10.00">rotate_reflect_atom</text>
</a>
</g>
</g>
<!-- Node7&#45;&gt;Node8 -->
<g id="edge9" class="edge">
<title>Node7&#45;&gt;Node8</title>
<path fill="none" stroke="midnightblue" d="M407.62,-114.41C428.34,-109.4 453.89,-103.21 475.86,-97.89"/>
<polygon fill="midnightblue" stroke="midnightblue" points="476.77,-101.27 485.67,-95.52 475.12,-94.47 476.77,-101.27"/>
</g>
<!-- Node9 -->
<g id="node9" class="node">
<title>Node9</title>
<g id="a_node9"><a xlink:href="namespacextb__axis.html#a17d974ca7396eb007888d7fd9743edac" target="_top" xlink:title=" ">
<polygon fill="white" stroke="black" points="623,-76.5 623,-95.5 697,-95.5 697,-76.5 623,-76.5"/>
<text text-anchor="middle" x="660" y="-83.5" font-family="Helvetica,sans-Serif" font-size="10.00">xtb_axis::axis</text>
</a>
</g>
</g>
<!-- Node8&#45;&gt;Node9 -->
<g id="edge10" class="edge">
<title>Node8&#45;&gt;Node9</title>
<path fill="none" stroke="midnightblue" d="M576.15,-86C588.06,-86 600.75,-86 612.52,-86"/>
<polygon fill="midnightblue" stroke="midnightblue" points="612.6,-89.5 622.6,-86 612.6,-82.5 612.6,-89.5"/>
</g>
<!-- Node10 -->
<g id="node10" class="node">
<title>Node10</title>
<g id="a_node10"><a xlink:href="drsp_8f.html#ac8791cdbe49427e661f00b126ce4dbbc" target="_top" xlink:title=" ">
<polygon fill="white" stroke="black" points="733,-76.5 733,-95.5 763,-95.5 763,-76.5 733,-76.5"/>
<text text-anchor="middle" x="748" y="-83.5" font-family="Helvetica,sans-Serif" font-size="10.00">rsp</text>
</a>
</g>
</g>
<!-- Node9&#45;&gt;Node10 -->
<g id="edge11" class="edge">
<title>Node9&#45;&gt;Node10</title>
<path fill="none" stroke="midnightblue" d="M697.47,-86C705.94,-86 714.74,-86 722.55,-86"/>
<polygon fill="midnightblue" stroke="midnightblue" points="722.76,-89.5 732.76,-86 722.76,-82.5 722.76,-89.5"/>
</g>
<!-- Node11 -->
<g id="node11" class="node">
<title>Node11</title>
<g id="a_node11"><a xlink:href="drsp_8f.html#a163d6464d6ff31893ac0abcfa0d6eeec" target="_top" xlink:title=" ">
<polygon fill="white" stroke="black" points="805,-133.5 805,-152.5 837,-152.5 837,-133.5 805,-133.5"/>
<text text-anchor="middle" x="821" y="-140.5" font-family="Helvetica,sans-Serif" font-size="10.00">tql2</text>
</a>
</g>
</g>
<!-- Node10&#45;&gt;Node11 -->
<g id="edge12" class="edge">
<title>Node10&#45;&gt;Node11</title>
<path fill="none" stroke="midnightblue" d="M761.04,-95.67C771.72,-104.24 787.51,-116.91 800.06,-126.99"/>
<polygon fill="midnightblue" stroke="midnightblue" points="798.14,-129.94 808.13,-133.47 802.53,-124.48 798.14,-129.94"/>
</g>
<!-- Node12 -->
<g id="node12" class="node">
<title>Node12</title>
<g id="a_node12"><a xlink:href="drsp_8f.html#a47a86ab7ed20a30b44b28253866ac7ff" target="_top" xlink:title=" ">
<polygon fill="white" stroke="black" points="802,-95.5 802,-114.5 840,-114.5 840,-95.5 802,-95.5"/>
<text text-anchor="middle" x="821" y="-102.5" font-family="Helvetica,sans-Serif" font-size="10.00">tqlrat</text>
</a>
</g>
</g>
<!-- Node10&#45;&gt;Node12 -->
<g id="edge13" class="edge">
<title>Node10&#45;&gt;Node12</title>
<path fill="none" stroke="midnightblue" d="M763.03,-89.75C771.31,-91.97 782.08,-94.85 792.03,-97.51"/>
<polygon fill="midnightblue" stroke="midnightblue" points="791.39,-100.97 801.95,-100.17 793.2,-94.2 791.39,-100.97"/>
</g>
<!-- Node13 -->
<g id="node13" class="node">
<title>Node13</title>
<g id="a_node13"><a xlink:href="drsp_8f.html#a035138691289fce6e2d30c8b3c41188f" target="_top" xlink:title=" ">
<polygon fill="white" stroke="black" points="799,-57.5 799,-76.5 843,-76.5 843,-57.5 799,-57.5"/>
<text text-anchor="middle" x="821" y="-64.5" font-family="Helvetica,sans-Serif" font-size="10.00">trbak3</text>
</a>
</g>
</g>
<!-- Node10&#45;&gt;Node13 -->
<g id="edge14" class="edge">
<title>Node10&#45;&gt;Node13</title>
<path fill="none" stroke="midnightblue" d="M763.03,-82.25C770.49,-80.25 779.97,-77.71 789.05,-75.28"/>
<polygon fill="midnightblue" stroke="midnightblue" points="790.24,-78.59 799,-72.62 788.43,-71.82 790.24,-78.59"/>
</g>
<!-- Node14 -->
<g id="node14" class="node">
<title>Node14</title>
<g id="a_node14"><a xlink:href="drsp_8f.html#a160df22dcc004ea7373039d1db601e3d" target="_top" xlink:title=" ">
<polygon fill="white" stroke="black" points="802,-19.5 802,-38.5 840,-38.5 840,-19.5 802,-19.5"/>
<text text-anchor="middle" x="821" y="-26.5" font-family="Helvetica,sans-Serif" font-size="10.00">tred3</text>
</a>
</g>
</g>
<!-- Node10&#45;&gt;Node14 -->
<g id="edge15" class="edge">
<title>Node10&#45;&gt;Node14</title>
<path fill="none" stroke="midnightblue" d="M761.04,-76.33C771.72,-67.76 787.51,-55.09 800.06,-45.01"/>
<polygon fill="midnightblue" stroke="midnightblue" points="802.53,-47.52 808.13,-38.53 798.14,-42.06 802.53,-47.52"/>
</g>
<!-- Node15&#45;&gt;Node3 -->
<g id="edge17" class="edge">
<title>Node15&#45;&gt;Node3</title>
<path fill="none" stroke="midnightblue" d="M572.22,-57.59C577.6,-60.05 582.69,-63.13 587,-67 630.64,-106.21 649.06,-176.7 655.74,-211.07"/>
<polygon fill="midnightblue" stroke="midnightblue" points="652.35,-212.02 657.57,-221.24 659.24,-210.78 652.35,-212.02"/>
</g>
<!-- Node16 -->
<g id="node16" class="node">
<title>Node16</title>
<g id="a_node16"><a xlink:href="symmetry__i_8c.html#a347fe37bf882cc1be3efe68082ffbd12" target="_top" xlink:title=" ">
<polygon fill="white" stroke="black" points="640,-38.5 640,-57.5 680,-57.5 680,-38.5 640,-38.5"/>
<text text-anchor="middle" x="660" y="-45.5" font-family="Helvetica,sans-Serif" font-size="10.00">pow2</text>
</a>
</g>
</g>
<!-- Node15&#45;&gt;Node16 -->
<g id="edge18" class="edge">
<title>Node15&#45;&gt;Node16</title>
<path fill="none" stroke="midnightblue" d="M587.21,-48C601.93,-48 617.04,-48 629.58,-48"/>
<polygon fill="midnightblue" stroke="midnightblue" points="629.86,-51.5 639.86,-48 629.86,-44.5 629.86,-51.5"/>
</g>
<!-- Node17&#45;&gt;Node3 -->
<g id="edge21" class="edge">
<title>Node17&#45;&gt;Node3</title>
<path fill="none" stroke="midnightblue" d="M567.28,-17.1C574.52,-19.86 581.5,-23.69 587,-29 600.7,-42.22 638.48,-163.3 653.11,-211.42"/>
<polygon fill="midnightblue" stroke="midnightblue" points="649.84,-212.69 656.08,-221.25 656.54,-210.66 649.84,-212.69"/>
</g>
<!-- Node17&#45;&gt;Node16 -->
<g id="edge22" class="edge">
<title>Node17&#45;&gt;Node16</title>
<path fill="none" stroke="midnightblue" d="M560.31,-19.59C581.74,-25.76 609.32,-33.7 629.88,-39.62"/>
<polygon fill="midnightblue" stroke="midnightblue" points="629.05,-43.02 639.63,-42.42 630.99,-36.29 629.05,-43.02"/>
</g>
<!-- Node18&#45;&gt;Node3 -->
<g id="edge24" class="edge">
<title>Node18&#45;&gt;Node3</title>
<path fill="none" stroke="midnightblue" d="M427.19,-228.37C439.66,-229.47 452.75,-230.43 465,-231 523.79,-233.72 592.72,-232.73 630.55,-231.82"/>
<polygon fill="midnightblue" stroke="midnightblue" points="630.89,-235.31 640.8,-231.56 630.71,-228.32 630.89,-235.31"/>
</g>
<!-- Node19 -->
<g id="node19" class="node">
<title>Node19</title>
<g id="a_node19"><a xlink:href="symmetry__i_8c.html#aa5e7898a49d284cd7813b2e3dacc0857" target="_top" xlink:title=" ">
<polygon fill="white" stroke="black" points="465,-153 465,-183 587,-183 587,-153 465,-153"/>
<text text-anchor="start" x="473" y="-171" font-family="Helvetica,sans-Serif" font-size="10.00">eval_optimization_target</text>
<text text-anchor="middle" x="526" y="-160" font-family="Helvetica,sans-Serif" font-size="10.00">_function</text>
</a>
</g>
</g>
<!-- Node18&#45;&gt;Node19 -->
<g id="edge25" class="edge">
<title>Node18&#45;&gt;Node19</title>
<path fill="none" stroke="midnightblue" d="M411.73,-206.96C430.28,-200.58 452.08,-193.08 471.57,-186.38"/>
<polygon fill="midnightblue" stroke="midnightblue" points="472.91,-189.62 481.23,-183.05 470.63,-183 472.91,-189.62"/>
</g>
<!-- Node20 -->
<g id="node20" class="node">
<title>Node20</title>
<g id="a_node20"><a xlink:href="symmetry__i_8c.html#ad72477419409dc5d22f1f00ac0bd8609" target="_top" xlink:title=" ">
<polygon fill="white" stroke="black" points="492,-202.5 492,-221.5 560,-221.5 560,-202.5 492,-202.5"/>
<text text-anchor="middle" x="526" y="-209.5" font-family="Helvetica,sans-Serif" font-size="10.00">get_params</text>
</a>
</g>
</g>
<!-- Node18&#45;&gt;Node20 -->
<g id="edge28" class="edge">
<title>Node18&#45;&gt;Node20</title>
<path fill="none" stroke="midnightblue" d="M427.35,-218.22C445.48,-217.07 465.05,-215.82 481.88,-214.75"/>
<polygon fill="midnightblue" stroke="midnightblue" points="482.2,-218.23 491.96,-214.1 481.76,-211.25 482.2,-218.23"/>
</g>
<!-- Node21 -->
<g id="node21" class="node">
<title>Node21</title>
<g id="a_node21"><a xlink:href="symmetry__i_8c.html#a0314524bc1022f80982ecf4dd39ddbc2" target="_top" xlink:title=" ">
<polygon fill="white" stroke="black" points="492,-278.5 492,-297.5 560,-297.5 560,-278.5 492,-278.5"/>
<text text-anchor="middle" x="526" y="-285.5" font-family="Helvetica,sans-Serif" font-size="10.00">set_params</text>
</a>
</g>
</g>
<!-- Node18&#45;&gt;Node21 -->
<g id="edge30" class="edge">
<title>Node18&#45;&gt;Node21</title>
<path fill="none" stroke="midnightblue" d="M402.02,-237.01C420.58,-245.13 443.99,-255.25 465,-264 473.5,-267.54 482.72,-271.28 491.33,-274.72"/>
<polygon fill="midnightblue" stroke="midnightblue" points="490.12,-278.01 500.71,-278.46 492.71,-271.51 490.12,-278.01"/>
</g>
<!-- Node19&#45;&gt;Node3 -->
<g id="edge26" class="edge">
<title>Node19&#45;&gt;Node3</title>
<path fill="none" stroke="midnightblue" d="M564.68,-183.08C572.13,-186.24 579.85,-189.63 587,-193 602.58,-200.34 619.65,-209.3 633.25,-216.68"/>
<polygon fill="midnightblue" stroke="midnightblue" points="631.6,-219.77 642.05,-221.5 634.96,-213.63 631.6,-219.77"/>
</g>
<!-- Node19&#45;&gt;Node16 -->
<g id="edge27" class="edge">
<title>Node19&#45;&gt;Node16</title>
<path fill="none" stroke="midnightblue" d="M541.32,-152.99C553.48,-140.23 571.4,-121.43 587,-105 603.02,-88.13 604.47,-81.06 623,-67 625.51,-65.1 628.24,-63.28 631.03,-61.58"/>
<polygon fill="midnightblue" stroke="midnightblue" points="632.97,-64.5 639.98,-56.56 629.55,-58.39 632.97,-64.5"/>
</g>
<!-- Node20&#45;&gt;Node3 -->
<g id="edge29" class="edge">
<title>Node20&#45;&gt;Node3</title>
<path fill="none" stroke="midnightblue" d="M560.31,-216.79C582.03,-219.92 610.08,-223.96 630.71,-226.93"/>
<polygon fill="midnightblue" stroke="midnightblue" points="630.36,-230.41 640.76,-228.37 631.36,-223.49 630.36,-230.41"/>
</g>
<!-- Node21&#45;&gt;Node3 -->
<g id="edge31" class="edge">
<title>Node21&#45;&gt;Node3</title>
<path fill="none" stroke="midnightblue" d="M551.63,-278.46C562.52,-274.17 575.45,-268.95 587,-264 601.85,-257.63 618.23,-250.16 631.61,-243.94"/>
<polygon fill="midnightblue" stroke="midnightblue" points="633.19,-247.06 640.76,-239.66 630.22,-240.72 633.19,-247.06"/>
</g>
</g>
</svg>
