<?xml version="1.0" encoding="UTF-8" standalone="no"?>
<!DOCTYPE svg PUBLIC "-//W3C//DTD SVG 1.1//EN"
 "http://www.w3.org/Graphics/SVG/1.1/DTD/svg11.dtd">
<!-- Generated by graphviz version 2.43.0 (0)
 -->
<!-- Title: report_symmetry_elements_verbose Pages: 1 -->
<svg width="333pt" height="142pt"
 viewBox="0.00 0.00 333.00 142.00" xmlns="http://www.w3.org/2000/svg" xmlns:xlink="http://www.w3.org/1999/xlink">
<g id="graph0" class="graph" transform="scale(1 1) rotate(0) translate(4 138)">
<title>report_symmetry_elements_verbose</title>
<polygon fill="white" stroke="transparent" points="-4,4 -4,-138 329,-138 329,4 -4,4"/>
<!-- Node1 -->
<g id="node1" class="node">
<title>Node1</title>
<g id="a_node1"><a xlink:title=" ">
<polygon fill="#bfbfbf" stroke="black" points="0,-52 0,-82 152,-82 152,-52 0,-52"/>
<text text-anchor="start" x="8" y="-70" font-family="Helvetica,sans-Serif" font-size="10.00">report_symmetry_elements</text>
<text text-anchor="middle" x="76" y="-59" font-family="Helvetica,sans-Serif" font-size="10.00">_verbose</text>
</a>
</g>
</g>
<!-- Node2 -->
<g id="node2" class="node">
<title>Node2</title>
<g id="a_node2"><a xlink:href="symmetry__i_8c.html#af46e06f1cbcbb33131ef671a8364a653" target="_top" xlink:title=" ">
<polygon fill="white" stroke="black" points="219.5,-114.5 219.5,-133.5 293.5,-133.5 293.5,-114.5 219.5,-114.5"/>
<text text-anchor="middle" x="256.5" y="-121.5" font-family="Helvetica,sans-Serif" font-size="10.00">report_axes</text>
</a>
</g>
</g>
<!-- Node1&#45;&gt;Node2 -->
<g id="edge1" class="edge">
<title>Node1&#45;&gt;Node2</title>
<path fill="none" stroke="midnightblue" d="M119.25,-82.08C139.89,-89.29 165.15,-97.88 188,-105 195.19,-107.24 202.85,-109.51 210.33,-111.66"/>
<polygon fill="midnightblue" stroke="midnightblue" points="209.43,-115.04 220.01,-114.41 211.35,-108.31 209.43,-115.04"/>
</g>
<!-- Node3 -->
<g id="node3" class="node">
<title>Node3</title>
<g id="a_node3"><a xlink:href="symmetry__i_8c.html#a0babfff7680a42cced5c9b13f068bb18" target="_top" xlink:title=" ">
<polygon fill="white" stroke="black" points="195,-76.5 195,-95.5 318,-95.5 318,-76.5 195,-76.5"/>
<text text-anchor="middle" x="256.5" y="-83.5" font-family="Helvetica,sans-Serif" font-size="10.00">report_improper_axes</text>
</a>
</g>
</g>
<!-- Node1&#45;&gt;Node3 -->
<g id="edge2" class="edge">
<title>Node1&#45;&gt;Node3</title>
<path fill="none" stroke="midnightblue" d="M152.18,-75C162.94,-76.15 173.98,-77.32 184.65,-78.46"/>
<polygon fill="midnightblue" stroke="midnightblue" points="184.43,-81.96 194.75,-79.53 185.17,-74.99 184.43,-81.96"/>
</g>
<!-- Node4 -->
<g id="node4" class="node">
<title>Node4</title>
<g id="a_node4"><a xlink:href="symmetry__i_8c.html#ad0e86e4cc36751a7041457135959e384" target="_top" xlink:title=" ">
<polygon fill="white" stroke="black" points="188,-38.5 188,-57.5 325,-57.5 325,-38.5 188,-38.5"/>
<text text-anchor="middle" x="256.5" y="-45.5" font-family="Helvetica,sans-Serif" font-size="10.00">report_inversion_centers</text>
</a>
</g>
</g>
<!-- Node1&#45;&gt;Node4 -->
<g id="edge3" class="edge">
<title>Node1&#45;&gt;Node4</title>
<path fill="none" stroke="midnightblue" d="M152.18,-59C160.58,-58.1 169.15,-57.19 177.58,-56.29"/>
<polygon fill="midnightblue" stroke="midnightblue" points="178.21,-59.75 187.78,-55.21 177.47,-52.79 178.21,-59.75"/>
</g>
<!-- Node5 -->
<g id="node5" class="node">
<title>Node5</title>
<g id="a_node5"><a xlink:href="symmetry__i_8c.html#aad86e3860c6b938e2cbeaca1e18fac5b" target="_top" xlink:title=" ">
<polygon fill="white" stroke="black" points="215,-0.5 215,-19.5 298,-19.5 298,-0.5 215,-0.5"/>
<text text-anchor="middle" x="256.5" y="-7.5" font-family="Helvetica,sans-Serif" font-size="10.00">report_planes</text>
</a>
</g>
</g>
<!-- Node1&#45;&gt;Node5 -->
<g id="edge4" class="edge">
<title>Node1&#45;&gt;Node5</title>
<path fill="none" stroke="midnightblue" d="M119.25,-51.92C139.89,-44.71 165.15,-36.12 188,-29 195.19,-26.76 202.85,-24.49 210.33,-22.34"/>
<polygon fill="midnightblue" stroke="midnightblue" points="211.35,-25.69 220.01,-19.59 209.43,-18.96 211.35,-25.69"/>
</g>
</g>
</svg>
