<?xml version="1.0" encoding="UTF-8" standalone="no"?>
<!DOCTYPE svg PUBLIC "-//W3C//DTD SVG 1.1//EN"
 "http://www.w3.org/Graphics/SVG/1.1/DTD/svg11.dtd">
<!-- Generated by graphviz version 2.43.0 (0)
 -->
<!-- Title: compare_axes Pages: 1 -->
<svg width="547pt" height="66pt"
 viewBox="0.00 0.00 547.00 66.00" xmlns="http://www.w3.org/2000/svg" xmlns:xlink="http://www.w3.org/1999/xlink">
<g id="graph0" class="graph" transform="scale(1 1) rotate(0) translate(4 62)">
<title>compare_axes</title>
<polygon fill="white" stroke="transparent" points="-4,4 -4,-62 543,-62 543,4 -4,4"/>
<!-- Node1 -->
<g id="node1" class="node">
<title>Node1</title>
<g id="a_node1"><a xlink:title=" ">
<polygon fill="#bfbfbf" stroke="black" points="452,-19.5 452,-38.5 539,-38.5 539,-19.5 452,-19.5"/>
<text text-anchor="middle" x="495.5" y="-26.5" font-family="Helvetica,sans-Serif" font-size="10.00">compare_axes</text>
</a>
</g>
</g>
<!-- Node2 -->
<g id="node2" class="node">
<title>Node2</title>
<g id="a_node2"><a xlink:href="symmetry__i_8c.html#a2da0e03e1646460344af3dbc12b95c63" target="_top" xlink:title=" ">
<polygon fill="white" stroke="black" points="274,-19.5 274,-38.5 416,-38.5 416,-19.5 274,-19.5"/>
<text text-anchor="middle" x="345" y="-26.5" font-family="Helvetica,sans-Serif" font-size="10.00">sort_symmetry_elements</text>
</a>
</g>
</g>
<!-- Node1&#45;&gt;Node2 -->
<g id="edge1" class="edge">
<title>Node1&#45;&gt;Node2</title>
<path fill="none" stroke="midnightblue" d="M441.94,-29C433.55,-29 424.76,-29 416.04,-29"/>
<polygon fill="midnightblue" stroke="midnightblue" points="441.95,-32.5 451.95,-29 441.95,-25.5 441.95,-32.5"/>
</g>
<!-- Node3 -->
<g id="node3" class="node">
<title>Node3</title>
<g id="a_node3"><a xlink:href="symmetry__i_8c.html#a4f248fe6bdc62df2f41c5abd34e81ed1" target="_top" xlink:title=" ">
<polygon fill="white" stroke="black" points="171.5,-38.5 171.5,-57.5 233.5,-57.5 233.5,-38.5 171.5,-38.5"/>
<text text-anchor="middle" x="202.5" y="-45.5" font-family="Helvetica,sans-Serif" font-size="10.00">old_main</text>
</a>
</g>
</g>
<!-- Node2&#45;&gt;Node3 -->
<g id="edge2" class="edge">
<title>Node2&#45;&gt;Node3</title>
<path fill="none" stroke="midnightblue" d="M263.51,-39.88C252.91,-41.32 242.62,-42.71 233.64,-43.92"/>
<polygon fill="midnightblue" stroke="midnightblue" points="264.31,-43.31 273.75,-38.5 263.37,-36.37 264.31,-43.31"/>
</g>
<!-- Node4 -->
<g id="node4" class="node">
<title>Node4</title>
<g id="a_node4"><a xlink:href="symmetry__i_8c.html#a6c9de386e61e3a35d683a216dbcd1528" target="_top" xlink:title=" ">
<polygon fill="white" stroke="black" points="167,-0.5 167,-19.5 238,-19.5 238,-0.5 167,-0.5"/>
<text text-anchor="middle" x="202.5" y="-7.5" font-family="Helvetica,sans-Serif" font-size="10.00">schoenflies</text>
</a>
</g>
</g>
<!-- Node2&#45;&gt;Node4 -->
<g id="edge3" class="edge">
<title>Node2&#45;&gt;Node4</title>
<path fill="none" stroke="midnightblue" d="M263.65,-18.13C254.76,-16.93 246.09,-15.76 238.23,-14.7"/>
<polygon fill="midnightblue" stroke="midnightblue" points="263.37,-21.63 273.75,-19.5 264.31,-14.69 263.37,-21.63"/>
</g>
<!-- Node5 -->
<g id="node5" class="node">
<title>Node5</title>
<g id="a_node5"><a xlink:href="interfacec__interface.html#a98e1aed930d85608299bba1f41a6b07d" target="_top" xlink:title=" ">
<polygon fill="white" stroke="black" points="0,-0.5 0,-19.5 131,-19.5 131,-0.5 0,-0.5"/>
<text text-anchor="middle" x="65.5" y="-7.5" font-family="Helvetica,sans-Serif" font-size="10.00">c_interface::schoenflies</text>
</a>
</g>
</g>
<!-- Node4&#45;&gt;Node5 -->
<g id="edge4" class="edge">
<title>Node4&#45;&gt;Node5</title>
<path fill="none" stroke="midnightblue" d="M156.64,-10C148.42,-10 139.69,-10 131.03,-10"/>
<polygon fill="midnightblue" stroke="midnightblue" points="156.73,-13.5 166.73,-10 156.73,-6.5 156.73,-13.5"/>
</g>
</g>
</svg>
