<?xml version="1.0" encoding="UTF-8" standalone="no"?>
<!DOCTYPE svg PUBLIC "-//W3C//DTD SVG 1.1//EN"
 "http://www.w3.org/Graphics/SVG/1.1/DTD/svg11.dtd">
<!-- Generated by graphviz version 2.46.0 (20210122.1329)
 -->
<!-- Title: init_axis_parameters Pages: 1 -->
<svg width="796pt" height="66pt"
 viewBox="0.00 0.00 796.00 66.00" xmlns="http://www.w3.org/2000/svg" xmlns:xlink="http://www.w3.org/1999/xlink">
<g id="graph0" class="graph" transform="scale(1 1) rotate(0) translate(4 62)">
<title>init_axis_parameters</title>
<polygon fill="white" stroke="transparent" points="-4,4 -4,-62 792,-62 792,4 -4,4"/>
<!-- Node1 -->
<g id="node1" class="node">
<title>Node1</title>
<g id="a_node1"><a xlink:title=" ">
<polygon fill="#bfbfbf" stroke="black" points="682,-19.5 682,-38.5 788,-38.5 788,-19.5 682,-19.5"/>
<text text-anchor="middle" x="735" y="-26.5" font-family="Helvetica,sans-Serif" font-size="10.00">init_axis_parameters</text>
</a>
</g>
</g>
<!-- Node2 -->
<g id="node2" class="node">
<title>Node2</title>
<g id="a_node2"><a xlink:href="symmetry__i_8c.html#aefd8cb52cd2813008ffac12799461733" target="_top" xlink:title=" ">
<polygon fill="white" stroke="black" points="557,-38.5 557,-57.5 640,-57.5 640,-38.5 557,-38.5"/>
<text text-anchor="middle" x="598.5" y="-45.5" font-family="Helvetica,sans-Serif" font-size="10.00">init_higher_axis</text>
</a>
</g>
</g>
<!-- Node1&#45;&gt;Node2 -->
<g id="edge1" class="edge">
<title>Node1&#45;&gt;Node2</title>
<path fill="none" stroke="midnightblue" d="M671.78,-37.79C661.02,-39.31 650.09,-40.85 640.1,-42.26"/>
<polygon fill="midnightblue" stroke="midnightblue" points="672.59,-41.21 682,-36.35 671.61,-34.28 672.59,-41.21"/>
</g>
<!-- Node8 -->
<g id="node8" class="node">
<title>Node8</title>
<g id="a_node8"><a xlink:href="symmetry__i_8c.html#a630773e4f2973515dc5079ce892f6d3a" target="_top" xlink:title=" ">
<polygon fill="white" stroke="black" points="551,-0.5 551,-19.5 646,-19.5 646,-0.5 551,-0.5"/>
<text text-anchor="middle" x="598.5" y="-7.5" font-family="Helvetica,sans-Serif" font-size="10.00">init_improper_axis</text>
</a>
</g>
</g>
<!-- Node1&#45;&gt;Node8 -->
<g id="edge7" class="edge">
<title>Node1&#45;&gt;Node8</title>
<path fill="none" stroke="midnightblue" d="M671.9,-20.23C663.22,-19 654.42,-17.76 646.09,-16.58"/>
<polygon fill="midnightblue" stroke="midnightblue" points="671.61,-23.72 682,-21.65 672.59,-16.79 671.61,-23.72"/>
</g>
<!-- Node3 -->
<g id="node3" class="node">
<title>Node3</title>
<g id="a_node3"><a xlink:href="symmetry__i_8c.html#a49b87621120ab2d2cbfb4594ab6c1ab0" target="_top" xlink:title=" ">
<polygon fill="white" stroke="black" points="420.5,-38.5 420.5,-57.5 509.5,-57.5 509.5,-38.5 420.5,-38.5"/>
<text text-anchor="middle" x="465" y="-45.5" font-family="Helvetica,sans-Serif" font-size="10.00">find_higher_axes</text>
</a>
</g>
</g>
<!-- Node2&#45;&gt;Node3 -->
<g id="edge2" class="edge">
<title>Node2&#45;&gt;Node3</title>
<path fill="none" stroke="midnightblue" d="M546.91,-48C534.68,-48 521.71,-48 509.82,-48"/>
<polygon fill="midnightblue" stroke="midnightblue" points="546.97,-51.5 556.97,-48 546.97,-44.5 546.97,-51.5"/>
</g>
<!-- Node4 -->
<g id="node4" class="node">
<title>Node4</title>
<g id="a_node4"><a xlink:href="symmetry__i_8c.html#a65f666e81a867d34e263423c6cbda622" target="_top" xlink:title=" ">
<polygon fill="white" stroke="black" points="255,-19.5 255,-38.5 379,-38.5 379,-19.5 255,-19.5"/>
<text text-anchor="middle" x="317" y="-26.5" font-family="Helvetica,sans-Serif" font-size="10.00">find_symmetry_elements</text>
</a>
</g>
</g>
<!-- Node3&#45;&gt;Node4 -->
<g id="edge3" class="edge">
<title>Node3&#45;&gt;Node4</title>
<path fill="none" stroke="midnightblue" d="M410.25,-41.01C400.1,-39.68 389.41,-38.29 379.05,-36.94"/>
<polygon fill="midnightblue" stroke="midnightblue" points="409.83,-44.48 420.2,-42.3 410.73,-37.54 409.83,-44.48"/>
</g>
<!-- Node5 -->
<g id="node5" class="node">
<title>Node5</title>
<g id="a_node5"><a xlink:href="symmetry__i_8c.html#a4f248fe6bdc62df2f41c5abd34e81ed1" target="_top" xlink:title=" ">
<polygon fill="white" stroke="black" points="158.5,-38.5 158.5,-57.5 214.5,-57.5 214.5,-38.5 158.5,-38.5"/>
<text text-anchor="middle" x="186.5" y="-45.5" font-family="Helvetica,sans-Serif" font-size="10.00">old_main</text>
</a>
</g>
</g>
<!-- Node4&#45;&gt;Node5 -->
<g id="edge4" class="edge">
<title>Node4&#45;&gt;Node5</title>
<path fill="none" stroke="midnightblue" d="M244.86,-39.52C234.11,-41.11 223.63,-42.66 214.62,-43.99"/>
<polygon fill="midnightblue" stroke="midnightblue" points="245.38,-42.98 254.76,-38.05 244.36,-36.06 245.38,-42.98"/>
</g>
<!-- Node6 -->
<g id="node6" class="node">
<title>Node6</title>
<g id="a_node6"><a xlink:href="symmetry__i_8c.html#a6c9de386e61e3a35d683a216dbcd1528" target="_top" xlink:title=" ">
<polygon fill="white" stroke="black" points="154,-0.5 154,-19.5 219,-19.5 219,-0.5 154,-0.5"/>
<text text-anchor="middle" x="186.5" y="-7.5" font-family="Helvetica,sans-Serif" font-size="10.00">schoenflies</text>
</a>
</g>
</g>
<!-- Node4&#45;&gt;Node6 -->
<g id="edge5" class="edge">
<title>Node4&#45;&gt;Node6</title>
<path fill="none" stroke="midnightblue" d="M244.69,-18.46C235.81,-17.14 227.1,-15.86 219.27,-14.7"/>
<polygon fill="midnightblue" stroke="midnightblue" points="244.36,-21.94 254.76,-19.95 245.38,-15.02 244.36,-21.94"/>
</g>
<!-- Node7 -->
<g id="node7" class="node">
<title>Node7</title>
<g id="a_node7"><a xlink:href="interfacec__interface.html#a98e1aed930d85608299bba1f41a6b07d" target="_top" xlink:title=" ">
<polygon fill="white" stroke="black" points="0,-0.5 0,-19.5 118,-19.5 118,-0.5 0,-0.5"/>
<text text-anchor="middle" x="59" y="-7.5" font-family="Helvetica,sans-Serif" font-size="10.00">c_interface::schoenflies</text>
</a>
</g>
</g>
<!-- Node6&#45;&gt;Node7 -->
<g id="edge6" class="edge">
<title>Node6&#45;&gt;Node7</title>
<path fill="none" stroke="midnightblue" d="M143.74,-10C135.5,-10 126.72,-10 118.05,-10"/>
<polygon fill="midnightblue" stroke="midnightblue" points="143.83,-13.5 153.83,-10 143.83,-6.5 143.83,-13.5"/>
</g>
<!-- Node9 -->
<g id="node9" class="node">
<title>Node9</title>
<g id="a_node9"><a xlink:href="symmetry__i_8c.html#a317b62be7bbb27bca96065c7f547eca8" target="_top" xlink:title=" ">
<polygon fill="white" stroke="black" points="415,-0.5 415,-19.5 515,-19.5 515,-0.5 415,-0.5"/>
<text text-anchor="middle" x="465" y="-7.5" font-family="Helvetica,sans-Serif" font-size="10.00">find_improper_axes</text>
</a>
</g>
</g>
<!-- Node8&#45;&gt;Node9 -->
<g id="edge8" class="edge">
<title>Node8&#45;&gt;Node9</title>
<path fill="none" stroke="midnightblue" d="M540.61,-10C532.16,-10 523.52,-10 515.25,-10"/>
<polygon fill="midnightblue" stroke="midnightblue" points="540.77,-13.5 550.77,-10 540.77,-6.5 540.77,-13.5"/>
</g>
<!-- Node9&#45;&gt;Node4 -->
<g id="edge9" class="edge">
<title>Node9&#45;&gt;Node4</title>
<path fill="none" stroke="midnightblue" d="M404.8,-17.7C396.33,-18.81 387.59,-19.94 379.08,-21.05"/>
<polygon fill="midnightblue" stroke="midnightblue" points="405.51,-21.14 414.98,-16.38 404.61,-14.2 405.51,-21.14"/>
</g>
</g>
</svg>
