<?xml version="1.0" encoding="UTF-8" standalone="no"?>
<!DOCTYPE svg PUBLIC "-//W3C//DTD SVG 1.1//EN"
 "http://www.w3.org/Graphics/SVG/1.1/DTD/svg11.dtd">
<!-- Generated by graphviz version 2.43.0 (0)
 -->
<!-- Title: alloc_symmetry_element Pages: 1 -->
<!--zoomable 256 -->
<svg id="main" version="1.1" xmlns="http://www.w3.org/2000/svg" xmlns:xlink="http://www.w3.org/1999/xlink" xml:space="preserve" onload="init(evt)">
<style type="text/css"><![CDATA[
.edge:hover path { stroke: red; }
.edge:hover polygon { stroke: red; fill: red; }
]]></style>
<script type="text/javascript"><![CDATA[
var edges = document.getElementsByTagName('g');
if (edges && edges.length) {
  for (var i=0;i<edges.length;i++) {
    if (edges[i].id.substr(0,4)=='edge') {
      edges[i].setAttribute('class','edge');
    }
  }
}
]]></script>
        <defs>
                <circle id="rim" cx="0" cy="0" r="7"/>
                <circle id="rim2" cx="0" cy="0" r="3.5"/>
                <g id="zoomPlus">
                        <use xlink:href="#rim" fill="#404040">
                                <set attributeName="fill" to="#808080" begin="zoomplus.mouseover" end="zoomplus.mouseout"/>
                        </use>
                        <path d="M-4,0h8M0,-4v8" fill="none" stroke="white" stroke-width="1.5" pointer-events="none"/>
                </g>
                <g id="zoomMin">
                        <use xlink:href="#rim" fill="#404040">
                                <set attributeName="fill" to="#808080" begin="zoomminus.mouseover" end="zoomminus.mouseout"/>
                        </use>
                        <path d="M-4,0h8" fill="none" stroke="white" stroke-width="1.5" pointer-events="none"/>
                </g>
                <g id="dirArrow">
                        <path fill="none" stroke="white" stroke-width="1.5" d="M0,-3.0v7 M-2.5,-0.5L0,-3.0L2.5,-0.5"/>
                </g>
               <g id="resetDef">
                       <use xlink:href="#rim2" fill="#404040">
                               <set attributeName="fill" to="#808080" begin="reset.mouseover" end="reset.mouseout"/>
                       </use>
               </g>
        </defs>

<script type="text/javascript">
var viewWidth = 1060;
var viewHeight = 256;
var sectionId = 'dynsection-2';
</script>
<script xlink:href="svgpan.js"/>
<svg id="graph" class="graph">
<g id="viewport">
<title>alloc_symmetry_element</title>
<polygon fill="white" stroke="transparent" points="-4,4 -4,-252 1056,-252 1056,4 -4,4"/>
<!-- Node1 -->
<g id="node1" class="node">
<title>Node1</title>
<g id="a_node1"><a xlink:title=" ">
<polygon fill="#bfbfbf" stroke="black" points="911,-95.5 911,-114.5 1052,-114.5 1052,-95.5 911,-95.5"/>
<text text-anchor="middle" x="981.5" y="-102.5" font-family="Helvetica,sans-Serif" font-size="10.00">alloc_symmetry_element</text>
</a>
</g>
</g>
<!-- Node2 -->
<g id="node2" class="node">
<title>Node2</title>
<g id="a_node2"><a xlink:href="symmetry__i_8c.html#aab43e6eec0762c0f8ed2e1f00487aabf" target="_top" xlink:title=" ">
<polygon fill="white" stroke="black" points="756,-190.5 756,-209.5 875,-209.5 875,-190.5 756,-190.5"/>
<text text-anchor="middle" x="815.5" y="-197.5" font-family="Helvetica,sans-Serif" font-size="10.00">init_axis_parameters</text>
</a>
</g>
</g>
<!-- Node1&#45;&gt;Node2 -->
<g id="edge1" class="edge">
<title>Node1&#45;&gt;Node2</title>
<path fill="none" stroke="midnightblue" d="M961.75,-121.29C941.51,-138.18 907.77,-164.39 875,-181 867.76,-184.67 859.66,-187.83 851.86,-190.47"/>
<polygon fill="midnightblue" stroke="midnightblue" points="964.18,-123.82 969.55,-114.68 959.66,-118.48 964.18,-123.82"/>
</g>
<!-- Node11 -->
<g id="node11" class="node">
<title>Node11</title>
<g id="a_node11"><a xlink:href="symmetry__i_8c.html#a64141aa48feafed7ea902983e9420710" target="_top" xlink:title=" ">
<polygon fill="white" stroke="black" points="778.5,-152.5 778.5,-171.5 852.5,-171.5 852.5,-152.5 778.5,-152.5"/>
<text text-anchor="middle" x="815.5" y="-159.5" font-family="Helvetica,sans-Serif" font-size="10.00">init_c2_axis</text>
</a>
</g>
</g>
<!-- Node1&#45;&gt;Node11 -->
<g id="edge11" class="edge">
<title>Node1&#45;&gt;Node11</title>
<path fill="none" stroke="midnightblue" d="M945.04,-118.09C924.62,-125.55 898.43,-134.98 875,-143 865.81,-146.15 855.76,-149.46 846.62,-152.42"/>
<polygon fill="midnightblue" stroke="midnightblue" points="946.38,-121.33 954.57,-114.6 943.97,-114.75 946.38,-121.33"/>
</g>
<!-- Node13 -->
<g id="node13" class="node">
<title>Node13</title>
<g id="a_node13"><a xlink:href="symmetry__i_8c.html#a26bc67027c2e60cc5dbbf0cdcc2837be" target="_top" xlink:title=" ">
<polygon fill="white" stroke="black" points="756,-114.5 756,-133.5 875,-133.5 875,-114.5 756,-114.5"/>
<text text-anchor="middle" x="815.5" y="-121.5" font-family="Helvetica,sans-Serif" font-size="10.00">init_inversion_center</text>
</a>
</g>
</g>
<!-- Node1&#45;&gt;Node13 -->
<g id="edge14" class="edge">
<title>Node1&#45;&gt;Node13</title>
<path fill="none" stroke="midnightblue" d="M900.8,-114.23C892.11,-115.24 883.39,-116.25 875.03,-117.22"/>
<polygon fill="midnightblue" stroke="midnightblue" points="901.42,-117.69 910.95,-113.06 900.61,-110.73 901.42,-117.69"/>
</g>
<!-- Node15 -->
<g id="node15" class="node">
<title>Node15</title>
<g id="a_node15"><a xlink:href="symmetry__i_8c.html#a28a580c316f874592fa976504885670c" target="_top" xlink:title=" ">
<polygon fill="white" stroke="black" points="765.5,-76.5 765.5,-95.5 865.5,-95.5 865.5,-76.5 765.5,-76.5"/>
<text text-anchor="middle" x="815.5" y="-83.5" font-family="Helvetica,sans-Serif" font-size="10.00">init_mirror_plane</text>
</a>
</g>
</g>
<!-- Node1&#45;&gt;Node15 -->
<g id="edge17" class="edge">
<title>Node1&#45;&gt;Node15</title>
<path fill="none" stroke="midnightblue" d="M900.92,-95.78C888.93,-94.39 876.88,-92.99 865.78,-91.71"/>
<polygon fill="midnightblue" stroke="midnightblue" points="900.61,-99.27 910.95,-96.94 901.42,-92.31 900.61,-99.27"/>
</g>
<!-- Node17 -->
<g id="node17" class="node">
<title>Node17</title>
<g id="a_node17"><a xlink:href="symmetry__i_8c.html#a4252fcf90b18d24f5c7f5b88a4c305c7" target="_top" xlink:title=" ">
<polygon fill="white" stroke="black" points="763.5,-0.5 763.5,-19.5 867.5,-19.5 867.5,-0.5 763.5,-0.5"/>
<text text-anchor="middle" x="815.5" y="-7.5" font-family="Helvetica,sans-Serif" font-size="10.00">init_ultimate_axis</text>
</a>
</g>
</g>
<!-- Node1&#45;&gt;Node17 -->
<g id="edge20" class="edge">
<title>Node1&#45;&gt;Node17</title>
<path fill="none" stroke="midnightblue" d="M961.75,-88.71C941.51,-71.82 907.77,-45.61 875,-29 867.76,-25.33 859.66,-22.17 851.86,-19.53"/>
<polygon fill="midnightblue" stroke="midnightblue" points="959.66,-91.52 969.55,-95.32 964.18,-86.18 959.66,-91.52"/>
</g>
<!-- Node19 -->
<g id="node19" class="node">
<title>Node19</title>
<g id="a_node19"><a xlink:href="symmetry__i_8c.html#a6c28e9e49e1179d0bc2ded3d008b6499" target="_top" xlink:title=" ">
<polygon fill="white" stroke="black" points="760,-38.5 760,-57.5 871,-57.5 871,-38.5 760,-38.5"/>
<text text-anchor="middle" x="815.5" y="-45.5" font-family="Helvetica,sans-Serif" font-size="10.00">init_ultimate_plane</text>
</a>
</g>
</g>
<!-- Node1&#45;&gt;Node19 -->
<g id="edge23" class="edge">
<title>Node1&#45;&gt;Node19</title>
<path fill="none" stroke="midnightblue" d="M945.04,-91.91C924.62,-84.45 898.43,-75.02 875,-67 865.81,-63.85 855.76,-60.54 846.62,-57.58"/>
<polygon fill="midnightblue" stroke="midnightblue" points="943.97,-95.25 954.57,-95.4 946.38,-88.67 943.97,-95.25"/>
</g>
<!-- Node3 -->
<g id="node3" class="node">
<title>Node3</title>
<g id="a_node3"><a xlink:href="symmetry__i_8c.html#aefd8cb52cd2813008ffac12799461733" target="_top" xlink:title=" ">
<polygon fill="white" stroke="black" points="619.5,-228.5 619.5,-247.5 713.5,-247.5 713.5,-228.5 619.5,-228.5"/>
<text text-anchor="middle" x="666.5" y="-235.5" font-family="Helvetica,sans-Serif" font-size="10.00">init_higher_axis</text>
</a>
</g>
</g>
<!-- Node2&#45;&gt;Node3 -->
<g id="edge2" class="edge">
<title>Node2&#45;&gt;Node3</title>
<path fill="none" stroke="midnightblue" d="M767.65,-212.11C747.17,-217.4 723.51,-223.52 704.33,-228.48"/>
<polygon fill="midnightblue" stroke="midnightblue" points="768.6,-215.48 777.41,-209.59 766.85,-208.7 768.6,-215.48"/>
</g>
<!-- Node9 -->
<g id="node9" class="node">
<title>Node9</title>
<g id="a_node9"><a xlink:href="symmetry__i_8c.html#a630773e4f2973515dc5079ce892f6d3a" target="_top" xlink:title=" ">
<polygon fill="white" stroke="black" points="613,-190.5 613,-209.5 720,-209.5 720,-190.5 613,-190.5"/>
<text text-anchor="middle" x="666.5" y="-197.5" font-family="Helvetica,sans-Serif" font-size="10.00">init_improper_axis</text>
</a>
</g>
</g>
<!-- Node2&#45;&gt;Node9 -->
<g id="edge8" class="edge">
<title>Node2&#45;&gt;Node9</title>
<path fill="none" stroke="midnightblue" d="M745.88,-200C737.22,-200 728.47,-200 720.11,-200"/>
<polygon fill="midnightblue" stroke="midnightblue" points="745.98,-203.5 755.98,-200 745.98,-196.5 745.98,-203.5"/>
</g>
<!-- Node4 -->
<g id="node4" class="node">
<title>Node4</title>
<g id="a_node4"><a xlink:href="symmetry__i_8c.html#a49b87621120ab2d2cbfb4594ab6c1ab0" target="_top" xlink:title=" ">
<polygon fill="white" stroke="black" points="465,-228.5 465,-247.5 563,-247.5 563,-228.5 465,-228.5"/>
<text text-anchor="middle" x="514" y="-235.5" font-family="Helvetica,sans-Serif" font-size="10.00">find_higher_axes</text>
</a>
</g>
</g>
<!-- Node3&#45;&gt;Node4 -->
<g id="edge3" class="edge">
<title>Node3&#45;&gt;Node4</title>
<path fill="none" stroke="midnightblue" d="M608.87,-238C593.79,-238 577.63,-238 563.05,-238"/>
<polygon fill="midnightblue" stroke="midnightblue" points="609.12,-241.5 619.12,-238 609.12,-234.5 609.12,-241.5"/>
</g>
<!-- Node5 -->
<g id="node5" class="node">
<title>Node5</title>
<g id="a_node5"><a xlink:href="symmetry__i_8c.html#a65f666e81a867d34e263423c6cbda622" target="_top" xlink:title=" ">
<polygon fill="white" stroke="black" points="274,-133.5 274,-152.5 415,-152.5 415,-133.5 274,-133.5"/>
<text text-anchor="middle" x="344.5" y="-140.5" font-family="Helvetica,sans-Serif" font-size="10.00">find_symmetry_elements</text>
</a>
</g>
</g>
<!-- Node4&#45;&gt;Node5 -->
<g id="edge4" class="edge">
<title>Node4&#45;&gt;Node5</title>
<path fill="none" stroke="midnightblue" d="M465.35,-225.16C460.42,-223.31 455.55,-221.26 451,-219 413.39,-200.33 374.74,-168.67 356.41,-152.75"/>
<polygon fill="midnightblue" stroke="midnightblue" points="464.27,-228.49 474.86,-228.46 466.56,-221.87 464.27,-228.49"/>
</g>
<!-- Node6 -->
<g id="node6" class="node">
<title>Node6</title>
<g id="a_node6"><a xlink:href="symmetry__i_8c.html#a4f248fe6bdc62df2f41c5abd34e81ed1" target="_top" xlink:title=" ">
<polygon fill="white" stroke="black" points="171.5,-152.5 171.5,-171.5 233.5,-171.5 233.5,-152.5 171.5,-152.5"/>
<text text-anchor="middle" x="202.5" y="-159.5" font-family="Helvetica,sans-Serif" font-size="10.00">old_main</text>
</a>
</g>
</g>
<!-- Node5&#45;&gt;Node6 -->
<g id="edge5" class="edge">
<title>Node5&#45;&gt;Node6</title>
<path fill="none" stroke="midnightblue" d="M264,-153.79C253.26,-155.25 242.83,-156.66 233.74,-157.9"/>
<polygon fill="midnightblue" stroke="midnightblue" points="264.47,-157.26 273.91,-152.44 263.53,-150.32 264.47,-157.26"/>
</g>
<!-- Node7 -->
<g id="node7" class="node">
<title>Node7</title>
<g id="a_node7"><a xlink:href="symmetry__i_8c.html#a6c9de386e61e3a35d683a216dbcd1528" target="_top" xlink:title=" ">
<polygon fill="white" stroke="black" points="167,-114.5 167,-133.5 238,-133.5 238,-114.5 167,-114.5"/>
<text text-anchor="middle" x="202.5" y="-121.5" font-family="Helvetica,sans-Serif" font-size="10.00">schoenflies</text>
</a>
</g>
</g>
<!-- Node5&#45;&gt;Node7 -->
<g id="edge6" class="edge">
<title>Node5&#45;&gt;Node7</title>
<path fill="none" stroke="midnightblue" d="M263.8,-132.18C254.91,-130.98 246.22,-129.8 238.34,-128.73"/>
<polygon fill="midnightblue" stroke="midnightblue" points="263.53,-135.68 273.91,-133.56 264.47,-128.74 263.53,-135.68"/>
</g>
<!-- Node8 -->
<g id="node8" class="node">
<title>Node8</title>
<g id="a_node8"><a xlink:href="interfacec__interface.html#a98e1aed930d85608299bba1f41a6b07d" target="_top" xlink:title=" ">
<polygon fill="white" stroke="black" points="0,-114.5 0,-133.5 131,-133.5 131,-114.5 0,-114.5"/>
<text text-anchor="middle" x="65.5" y="-121.5" font-family="Helvetica,sans-Serif" font-size="10.00">c_interface::schoenflies</text>
</a>
</g>
</g>
<!-- Node7&#45;&gt;Node8 -->
<g id="edge7" class="edge">
<title>Node7&#45;&gt;Node8</title>
<path fill="none" stroke="midnightblue" d="M156.64,-124C148.42,-124 139.69,-124 131.03,-124"/>
<polygon fill="midnightblue" stroke="midnightblue" points="156.73,-127.5 166.73,-124 156.73,-120.5 156.73,-127.5"/>
</g>
<!-- Node10 -->
<g id="node10" class="node">
<title>Node10</title>
<g id="a_node10"><a xlink:href="symmetry__i_8c.html#a317b62be7bbb27bca96065c7f547eca8" target="_top" xlink:title=" ">
<polygon fill="white" stroke="black" points="458,-190.5 458,-209.5 570,-209.5 570,-190.5 458,-190.5"/>
<text text-anchor="middle" x="514" y="-197.5" font-family="Helvetica,sans-Serif" font-size="10.00">find_improper_axes</text>
</a>
</g>
</g>
<!-- Node9&#45;&gt;Node10 -->
<g id="edge9" class="edge">
<title>Node9&#45;&gt;Node10</title>
<path fill="none" stroke="midnightblue" d="M602.66,-200C591.87,-200 580.73,-200 570.16,-200"/>
<polygon fill="midnightblue" stroke="midnightblue" points="602.86,-203.5 612.86,-200 602.86,-196.5 602.86,-203.5"/>
</g>
<!-- Node10&#45;&gt;Node5 -->
<g id="edge10" class="edge">
<title>Node10&#45;&gt;Node5</title>
<path fill="none" stroke="midnightblue" d="M471.05,-187.44C464.33,-185.35 457.46,-183.15 451,-181 423.48,-171.83 392.26,-160.46 370.96,-152.56"/>
<polygon fill="midnightblue" stroke="midnightblue" points="470.14,-190.83 480.73,-190.43 472.2,-184.14 470.14,-190.83"/>
</g>
<!-- Node12 -->
<g id="node12" class="node">
<title>Node12</title>
<g id="a_node12"><a xlink:href="symmetry__i_8c.html#a70bfe9695b008eea2aa9a740a8090823" target="_top" xlink:title=" ">
<polygon fill="white" stroke="black" points="474.5,-152.5 474.5,-171.5 553.5,-171.5 553.5,-152.5 474.5,-152.5"/>
<text text-anchor="middle" x="514" y="-159.5" font-family="Helvetica,sans-Serif" font-size="10.00">find_c2_axes</text>
</a>
</g>
</g>
<!-- Node11&#45;&gt;Node12 -->
<g id="edge12" class="edge">
<title>Node11&#45;&gt;Node12</title>
<path fill="none" stroke="midnightblue" d="M768.23,-162C709.33,-162 608.61,-162 553.62,-162"/>
<polygon fill="midnightblue" stroke="midnightblue" points="768.37,-165.5 778.37,-162 768.37,-158.5 768.37,-165.5"/>
</g>
<!-- Node12&#45;&gt;Node5 -->
<g id="edge13" class="edge">
<title>Node12&#45;&gt;Node5</title>
<path fill="none" stroke="midnightblue" d="M463.89,-156.43C448.6,-154.69 431.43,-152.75 415.02,-150.89"/>
<polygon fill="midnightblue" stroke="midnightblue" points="463.82,-159.94 474.15,-157.59 464.61,-152.99 463.82,-159.94"/>
</g>
<!-- Node14 -->
<g id="node14" class="node">
<title>Node14</title>
<g id="a_node14"><a xlink:href="symmetry__i_8c.html#a33142755e78f0ec77c8b931e270e0ef5" target="_top" xlink:title=" ">
<polygon fill="white" stroke="black" points="451,-114.5 451,-133.5 577,-133.5 577,-114.5 451,-114.5"/>
<text text-anchor="middle" x="514" y="-121.5" font-family="Helvetica,sans-Serif" font-size="10.00">find_inversion_centers</text>
</a>
</g>
</g>
<!-- Node13&#45;&gt;Node14 -->
<g id="edge15" class="edge">
<title>Node13&#45;&gt;Node14</title>
<path fill="none" stroke="midnightblue" d="M745.45,-124C694.62,-124 626.12,-124 577.03,-124"/>
<polygon fill="midnightblue" stroke="midnightblue" points="745.69,-127.5 755.69,-124 745.69,-120.5 745.69,-127.5"/>
</g>
<!-- Node14&#45;&gt;Node5 -->
<g id="edge16" class="edge">
<title>Node14&#45;&gt;Node5</title>
<path fill="none" stroke="midnightblue" d="M440.51,-132.22C432.12,-133.17 423.59,-134.14 415.25,-135.09"/>
<polygon fill="midnightblue" stroke="midnightblue" points="441.09,-135.68 450.63,-131.07 440.3,-128.72 441.09,-135.68"/>
</g>
<!-- Node16 -->
<g id="node16" class="node">
<title>Node16</title>
<g id="a_node16"><a xlink:href="symmetry__i_8c.html#adc43fe3d7619599e2aa3405466fc99d8" target="_top" xlink:title=" ">
<polygon fill="white" stroke="black" points="630.5,-76.5 630.5,-95.5 702.5,-95.5 702.5,-76.5 630.5,-76.5"/>
<text text-anchor="middle" x="666.5" y="-83.5" font-family="Helvetica,sans-Serif" font-size="10.00">find_planes</text>
</a>
</g>
</g>
<!-- Node15&#45;&gt;Node16 -->
<g id="edge18" class="edge">
<title>Node15&#45;&gt;Node16</title>
<path fill="none" stroke="midnightblue" d="M754.85,-86C737.09,-86 718.21,-86 702.57,-86"/>
<polygon fill="midnightblue" stroke="midnightblue" points="755.14,-89.5 765.14,-86 755.14,-82.5 755.14,-89.5"/>
</g>
<!-- Node16&#45;&gt;Node5 -->
<g id="edge19" class="edge">
<title>Node16&#45;&gt;Node5</title>
<path fill="none" stroke="midnightblue" d="M620.11,-86.65C576.34,-88.06 508.46,-92.33 451,-105 420.96,-111.62 387.82,-124.55 366.84,-133.47"/>
<polygon fill="midnightblue" stroke="midnightblue" points="620.26,-90.14 630.16,-86.36 620.06,-83.15 620.26,-90.14"/>
</g>
<!-- Node18 -->
<g id="node18" class="node">
<title>Node18</title>
<g id="a_node18"><a xlink:href="symmetry__i_8c.html#a7cd11ccb0556c3180cd0b17cde152828" target="_top" xlink:title=" ">
<polygon fill="white" stroke="black" points="617,-19.5 617,-38.5 716,-38.5 716,-19.5 617,-19.5"/>
<text text-anchor="middle" x="666.5" y="-26.5" font-family="Helvetica,sans-Serif" font-size="10.00">find_infinity_axis</text>
</a>
</g>
</g>
<!-- Node17&#45;&gt;Node18 -->
<g id="edge21" class="edge">
<title>Node17&#45;&gt;Node18</title>
<path fill="none" stroke="midnightblue" d="M753.31,-17.91C741.01,-19.5 728.24,-21.15 716.43,-22.68"/>
<polygon fill="midnightblue" stroke="midnightblue" points="754.03,-21.35 763.5,-16.59 753.13,-14.4 754.03,-21.35"/>
</g>
<!-- Node18&#45;&gt;Node5 -->
<g id="edge22" class="edge">
<title>Node18&#45;&gt;Node5</title>
<path fill="none" stroke="midnightblue" d="M606.78,-40.22C562.96,-49.58 502.09,-64.65 451,-85 417.02,-98.53 380.2,-120.67 360.3,-133.32"/>
<polygon fill="midnightblue" stroke="midnightblue" points="607.64,-43.62 616.7,-38.14 606.2,-36.77 607.64,-43.62"/>
</g>
<!-- Node19&#45;&gt;Node16 -->
<g id="edge24" class="edge">
<title>Node19&#45;&gt;Node16</title>
<path fill="none" stroke="midnightblue" d="M767.66,-60.11C746.55,-65.56 722.05,-71.9 702.56,-76.94"/>
<polygon fill="midnightblue" stroke="midnightblue" points="768.6,-63.48 777.41,-57.59 766.85,-56.7 768.6,-63.48"/>
</g>
</g>
</svg>
        <g id="navigator" transform="translate(0 0)" fill="#404254">
                <rect fill="#f2f5e9" fill-opacity="0.5" stroke="#606060" stroke-width=".5" x="0" y="0" width="60" height="60"/>
                <use id="zoomplus" xlink:href="#zoomPlus" x="17" y="9" onmousedown="handleZoom(evt,'in')"/>
                <use id="zoomminus" xlink:href="#zoomMin" x="42" y="9" onmousedown="handleZoom(evt,'out')"/>
                <use id="reset" xlink:href="#resetDef" x="30" y="36" onmousedown="handleReset()"/>
                <g id="arrowUp" xlink:href="#dirArrow" transform="translate(30 24)" onmousedown="handlePan(0,-1)">
                  <use xlink:href="#rim" fill="#404040">
                        <set attributeName="fill" to="#808080" begin="arrowUp.mouseover" end="arrowUp.mouseout"/>
                  </use>
                  <path fill="none" stroke="white" stroke-width="1.5" d="M0,-3.0v7 M-2.5,-0.5L0,-3.0L2.5,-0.5"/>
                </g>
                <g id="arrowRight" xlink:href="#dirArrow" transform="rotate(90) translate(36 -43)" onmousedown="handlePan(1,0)">
                  <use xlink:href="#rim" fill="#404040">
                        <set attributeName="fill" to="#808080" begin="arrowRight.mouseover" end="arrowRight.mouseout"/>
                  </use>
                  <path fill="none" stroke="white" stroke-width="1.5" d="M0,-3.0v7 M-2.5,-0.5L0,-3.0L2.5,-0.5"/>
                </g>
                <g id="arrowDown" xlink:href="#dirArrow" transform="rotate(180) translate(-30 -48)" onmousedown="handlePan(0,1)">
                  <use xlink:href="#rim" fill="#404040">
                        <set attributeName="fill" to="#808080" begin="arrowDown.mouseover" end="arrowDown.mouseout"/>
                  </use>
                  <path fill="none" stroke="white" stroke-width="1.5" d="M0,-3.0v7 M-2.5,-0.5L0,-3.0L2.5,-0.5"/>
                </g>
                <g id="arrowLeft" xlink:href="#dirArrow" transform="rotate(270) translate(-36 17)" onmousedown="handlePan(-1,0)">
                  <use xlink:href="#rim" fill="#404040">
                        <set attributeName="fill" to="#808080" begin="arrowLeft.mouseover" end="arrowLeft.mouseout"/>
                  </use>
                  <path fill="none" stroke="white" stroke-width="1.5" d="M0,-3.0v7 M-2.5,-0.5L0,-3.0L2.5,-0.5"/>
                </g>
        </g>
        <svg viewBox="0 0 15 15" width="100%" height="30px" preserveAspectRatio="xMaxYMin meet">
         <g id="arrow_out" transform="scale(0.3 0.3)">
          <a xlink:href="symmetry__i_8c_a52d770f57f14b01b1cdfec44136398cf_icgraph_org.svg" target="_base">
           <rect id="button" ry="5" rx="5" y="6" x="6" height="38" width="38"
                fill="#f2f5e9" fill-opacity="0.5" stroke="#606060" stroke-width="1.0"/>
           <path id="arrow"
             d="M 11.500037,31.436501 C 11.940474,20.09759 22.043105,11.32322 32.158766,21.979434 L 37.068811,17.246167 C 37.068811,17.246167 37.088388,32 37.088388,32 L 22.160133,31.978069 C 22.160133,31.978069 26.997745,27.140456 26.997745,27.140456 C 18.528582,18.264221 13.291696,25.230495 11.500037,31.436501 z"
             style="fill:#404040;"/>
          </a>
         </g>
        </svg>
</svg>
