<?xml version="1.0" encoding="UTF-8" standalone="no"?>
<!DOCTYPE svg PUBLIC "-//W3C//DTD SVG 1.1//EN"
 "http://www.w3.org/Graphics/SVG/1.1/DTD/svg11.dtd">
<!-- Generated by graphviz version 2.43.0 (0)
 -->
<!-- Title: find_improper_axes Pages: 1 -->
<svg width="1076pt" height="535pt"
 viewBox="0.00 0.00 1076.00 534.57" xmlns="http://www.w3.org/2000/svg" xmlns:xlink="http://www.w3.org/1999/xlink">
<g id="graph0" class="graph" transform="scale(1 1) rotate(0) translate(4 530.57)">
<title>find_improper_axes</title>
<polygon fill="white" stroke="transparent" points="-4,4 -4,-530.57 1072,-530.57 1072,4 -4,4"/>
<!-- Node1 -->
<g id="node1" class="node">
<title>Node1</title>
<g id="a_node1"><a xlink:title=" ">
<polygon fill="#bfbfbf" stroke="black" points="0,-38.5 0,-57.5 112,-57.5 112,-38.5 0,-38.5"/>
<text text-anchor="middle" x="56" y="-45.5" font-family="Helvetica,sans-Serif" font-size="10.00">find_improper_axes</text>
</a>
</g>
</g>
<!-- Node2 -->
<g id="node2" class="node">
<title>Node2</title>
<g id="a_node2"><a xlink:href="namespacextb__axis.html#a17d974ca7396eb007888d7fd9743edac" target="_top" xlink:title=" ">
<polygon fill="white" stroke="black" points="832,-57.5 832,-76.5 916,-76.5 916,-57.5 832,-57.5"/>
<text text-anchor="middle" x="874" y="-64.5" font-family="Helvetica,sans-Serif" font-size="10.00">xtb_axis::axis</text>
</a>
</g>
</g>
<!-- Node1&#45;&gt;Node2 -->
<g id="edge1" class="edge">
<title>Node1&#45;&gt;Node2</title>
<path fill="none" stroke="midnightblue" d="M104.92,-38.46C165.72,-27.2 273.95,-10 367.5,-10 367.5,-10 367.5,-10 551.5,-10 653.26,-10 770.38,-38.03 831.3,-54.77"/>
<polygon fill="midnightblue" stroke="midnightblue" points="830.36,-58.15 840.93,-57.46 832.24,-51.4 830.36,-58.15"/>
</g>
<!-- Node8 -->
<g id="node8" class="node">
<title>Node8</title>
<g id="a_node8"><a xlink:href="symmetry__i_8c.html#a630773e4f2973515dc5079ce892f6d3a" target="_top" xlink:title=" ">
<polygon fill="white" stroke="black" points="148,-95.5 148,-114.5 255,-114.5 255,-95.5 148,-95.5"/>
<text text-anchor="middle" x="201.5" y="-102.5" font-family="Helvetica,sans-Serif" font-size="10.00">init_improper_axis</text>
</a>
</g>
</g>
<!-- Node1&#45;&gt;Node8 -->
<g id="edge7" class="edge">
<title>Node1&#45;&gt;Node8</title>
<path fill="none" stroke="midnightblue" d="M81.02,-57.54C104.51,-66.87 140.49,-81.16 166.83,-91.62"/>
<polygon fill="midnightblue" stroke="midnightblue" points="165.82,-94.99 176.4,-95.43 168.4,-88.48 165.82,-94.99"/>
</g>
<!-- Node3 -->
<g id="node3" class="node">
<title>Node3</title>
<g id="a_node3"><a xlink:href="drsp_8f.html#ac8791cdbe49427e661f00b126ce4dbbc" target="_top" xlink:title=" ">
<polygon fill="white" stroke="black" points="952,-57.5 952,-76.5 984,-76.5 984,-57.5 952,-57.5"/>
<text text-anchor="middle" x="968" y="-64.5" font-family="Helvetica,sans-Serif" font-size="10.00">rsp</text>
</a>
</g>
</g>
<!-- Node2&#45;&gt;Node3 -->
<g id="edge2" class="edge">
<title>Node2&#45;&gt;Node3</title>
<path fill="none" stroke="midnightblue" d="M916.16,-67C924.84,-67 933.76,-67 941.65,-67"/>
<polygon fill="midnightblue" stroke="midnightblue" points="941.66,-70.5 951.66,-67 941.66,-63.5 941.66,-70.5"/>
</g>
<!-- Node4 -->
<g id="node4" class="node">
<title>Node4</title>
<g id="a_node4"><a xlink:href="drsp_8f.html#a163d6464d6ff31893ac0abcfa0d6eeec" target="_top" xlink:title=" ">
<polygon fill="white" stroke="black" points="1026.5,-114.5 1026.5,-133.5 1061.5,-133.5 1061.5,-114.5 1026.5,-114.5"/>
<text text-anchor="middle" x="1044" y="-121.5" font-family="Helvetica,sans-Serif" font-size="10.00">tql2</text>
</a>
</g>
</g>
<!-- Node3&#45;&gt;Node4 -->
<g id="edge3" class="edge">
<title>Node3&#45;&gt;Node4</title>
<path fill="none" stroke="midnightblue" d="M981.55,-76.67C992.78,-85.32 1009.45,-98.16 1022.6,-108.28"/>
<polygon fill="midnightblue" stroke="midnightblue" points="1020.57,-111.14 1030.63,-114.47 1024.85,-105.6 1020.57,-111.14"/>
</g>
<!-- Node5 -->
<g id="node5" class="node">
<title>Node5</title>
<g id="a_node5"><a xlink:href="drsp_8f.html#a47a86ab7ed20a30b44b28253866ac7ff" target="_top" xlink:title=" ">
<polygon fill="white" stroke="black" points="1022.5,-76.5 1022.5,-95.5 1065.5,-95.5 1065.5,-76.5 1022.5,-76.5"/>
<text text-anchor="middle" x="1044" y="-83.5" font-family="Helvetica,sans-Serif" font-size="10.00">tqlrat</text>
</a>
</g>
</g>
<!-- Node3&#45;&gt;Node5 -->
<g id="edge4" class="edge">
<title>Node3&#45;&gt;Node5</title>
<path fill="none" stroke="midnightblue" d="M984.33,-70.94C992.5,-73.03 1002.85,-75.69 1012.57,-78.19"/>
<polygon fill="midnightblue" stroke="midnightblue" points="1011.8,-81.6 1022.35,-80.7 1013.54,-74.82 1011.8,-81.6"/>
</g>
<!-- Node6 -->
<g id="node6" class="node">
<title>Node6</title>
<g id="a_node6"><a xlink:href="drsp_8f.html#a035138691289fce6e2d30c8b3c41188f" target="_top" xlink:title=" ">
<polygon fill="white" stroke="black" points="1020,-38.5 1020,-57.5 1068,-57.5 1068,-38.5 1020,-38.5"/>
<text text-anchor="middle" x="1044" y="-45.5" font-family="Helvetica,sans-Serif" font-size="10.00">trbak3</text>
</a>
</g>
</g>
<!-- Node3&#45;&gt;Node6 -->
<g id="edge5" class="edge">
<title>Node3&#45;&gt;Node6</title>
<path fill="none" stroke="midnightblue" d="M984.33,-63.06C991.78,-61.15 1001.03,-58.78 1009.96,-56.48"/>
<polygon fill="midnightblue" stroke="midnightblue" points="1010.99,-59.83 1019.81,-53.95 1009.25,-53.05 1010.99,-59.83"/>
</g>
<!-- Node7 -->
<g id="node7" class="node">
<title>Node7</title>
<g id="a_node7"><a xlink:href="drsp_8f.html#a160df22dcc004ea7373039d1db601e3d" target="_top" xlink:title=" ">
<polygon fill="white" stroke="black" points="1023,-0.5 1023,-19.5 1065,-19.5 1065,-0.5 1023,-0.5"/>
<text text-anchor="middle" x="1044" y="-7.5" font-family="Helvetica,sans-Serif" font-size="10.00">tred3</text>
</a>
</g>
</g>
<!-- Node3&#45;&gt;Node7 -->
<g id="edge6" class="edge">
<title>Node3&#45;&gt;Node7</title>
<path fill="none" stroke="midnightblue" d="M981.55,-57.33C992.78,-48.68 1009.45,-35.84 1022.6,-25.72"/>
<polygon fill="midnightblue" stroke="midnightblue" points="1024.85,-28.4 1030.63,-19.53 1020.57,-22.86 1024.85,-28.4"/>
</g>
<!-- Node8&#45;&gt;Node2 -->
<g id="edge8" class="edge">
<title>Node8&#45;&gt;Node2</title>
<path fill="none" stroke="midnightblue" d="M252.02,-95.47C264.7,-93.19 278.33,-90.87 291,-89 375.53,-76.5 396.69,-71.9 482,-67 603.68,-60.02 747.02,-62.83 821.78,-65.13"/>
<polygon fill="midnightblue" stroke="midnightblue" points="821.76,-68.63 831.86,-65.45 821.98,-61.64 821.76,-68.63"/>
</g>
<!-- Node9 -->
<g id="node9" class="node">
<title>Node9</title>
<g id="a_node9"><a xlink:href="symmetry__i_8c.html#a4cd99fa0e4dd85776e474ec761ed0876" target="_top" xlink:title=" ">
<polygon fill="white" stroke="black" points="291,-386.5 291,-405.5 446,-405.5 446,-386.5 291,-386.5"/>
<text text-anchor="middle" x="368.5" y="-393.5" font-family="Helvetica,sans-Serif" font-size="10.00">destroy_symmetry_element</text>
</a>
</g>
</g>
<!-- Node8&#45;&gt;Node9 -->
<g id="edge9" class="edge">
<title>Node8&#45;&gt;Node9</title>
<path fill="none" stroke="midnightblue" d="M207.99,-114.68C231.67,-156.45 325.34,-321.64 356.99,-377.46"/>
<polygon fill="midnightblue" stroke="midnightblue" points="354.01,-379.31 361.99,-386.28 360.1,-375.86 354.01,-379.31"/>
</g>
<!-- Node11 -->
<g id="node11" class="node">
<title>Node11</title>
<g id="a_node11"><a xlink:href="symmetry__i_8c.html#aab43e6eec0762c0f8ed2e1f00487aabf" target="_top" xlink:title=" ">
<polygon fill="white" stroke="black" points="491,-76.5 491,-95.5 610,-95.5 610,-76.5 491,-76.5"/>
<text text-anchor="middle" x="550.5" y="-83.5" font-family="Helvetica,sans-Serif" font-size="10.00">init_axis_parameters</text>
</a>
</g>
</g>
<!-- Node8&#45;&gt;Node11 -->
<g id="edge11" class="edge">
<title>Node8&#45;&gt;Node11</title>
<path fill="none" stroke="midnightblue" d="M255.2,-102.11C315.4,-98.82 414.12,-93.41 480.43,-89.78"/>
<polygon fill="midnightblue" stroke="midnightblue" points="480.99,-93.26 490.78,-89.22 480.6,-86.27 480.99,-93.26"/>
</g>
<!-- Node13 -->
<g id="node13" class="node">
<title>Node13</title>
<g id="a_node13"><a xlink:href="symmetry__i_8c.html#aff39b1566e9d87c46184c58d49b46ab4" target="_top" xlink:title=" ">
<polygon fill="white" stroke="black" points="295.5,-228.5 295.5,-247.5 441.5,-247.5 441.5,-228.5 295.5,-228.5"/>
<text text-anchor="middle" x="368.5" y="-235.5" font-family="Helvetica,sans-Serif" font-size="10.00">refine_symmetry_element</text>
</a>
</g>
</g>
<!-- Node8&#45;&gt;Node13 -->
<g id="edge15" class="edge">
<title>Node8&#45;&gt;Node13</title>
<path fill="none" stroke="midnightblue" d="M214.37,-114.57C242.3,-137.08 312.44,-193.62 347.25,-221.68"/>
<polygon fill="midnightblue" stroke="midnightblue" points="345.31,-224.61 355.3,-228.16 349.71,-219.16 345.31,-224.61"/>
</g>
<!-- Node15 -->
<g id="node15" class="node">
<title>Node15</title>
<g id="a_node15"><a xlink:href="symmetry__i_8c.html#ad478abbd8c6b45859d4614081bc2660e" target="_top" xlink:title=" ">
<polygon fill="white" stroke="black" points="669,-152.5 669,-171.5 782,-171.5 782,-152.5 669,-152.5"/>
<text text-anchor="middle" x="725.5" y="-159.5" font-family="Helvetica,sans-Serif" font-size="10.00">rotate_reflect_atom</text>
</a>
</g>
</g>
<!-- Node8&#45;&gt;Node15 -->
<g id="edge37" class="edge">
<title>Node8&#45;&gt;Node15</title>
<path fill="none" stroke="midnightblue" d="M255.42,-110.78C351.37,-121.26 553.78,-143.36 658.55,-154.8"/>
<polygon fill="midnightblue" stroke="midnightblue" points="658.36,-158.3 668.68,-155.9 659.12,-151.34 658.36,-158.3"/>
</g>
<!-- Node10 -->
<g id="node10" class="node">
<title>Node10</title>
<g id="a_node10"><a xlink:href="elem_8f90.html#ae2a0e630d3a8fea4a12abcc607d7fc5d" target="_top" xlink:title=" ">
<polygon fill="white" stroke="black" points="853.5,-326.5 853.5,-345.5 894.5,-345.5 894.5,-326.5 853.5,-326.5"/>
<text text-anchor="middle" x="874" y="-333.5" font-family="Helvetica,sans-Serif" font-size="10.00">elem</text>
</a>
</g>
</g>
<!-- Node9&#45;&gt;Node10 -->
<g id="edge10" class="edge">
<title>Node9&#45;&gt;Node10</title>
<path fill="none" stroke="midnightblue" d="M382.51,-405.64C437.3,-444.97 653.09,-587.07 796,-497 846.14,-465.4 864.34,-391.13 870.34,-355.6"/>
<polygon fill="midnightblue" stroke="midnightblue" points="873.83,-355.94 871.88,-345.53 866.91,-354.88 873.83,-355.94"/>
</g>
<!-- Node11&#45;&gt;Node2 -->
<g id="edge14" class="edge">
<title>Node11&#45;&gt;Node2</title>
<path fill="none" stroke="midnightblue" d="M610.09,-82.54C670.58,-78.96 764.01,-73.44 821.67,-70.03"/>
<polygon fill="midnightblue" stroke="midnightblue" points="821.88,-73.53 831.66,-69.44 821.47,-66.54 821.88,-73.53"/>
</g>
<!-- Node12 -->
<g id="node12" class="node">
<title>Node12</title>
<g id="a_node12"><a xlink:href="symmetry__i_8c.html#a52d770f57f14b01b1cdfec44136398cf" target="_top" xlink:title=" ">
<polygon fill="white" stroke="black" points="655,-114.5 655,-133.5 796,-133.5 796,-114.5 655,-114.5"/>
<text text-anchor="middle" x="725.5" y="-121.5" font-family="Helvetica,sans-Serif" font-size="10.00">alloc_symmetry_element</text>
</a>
</g>
</g>
<!-- Node11&#45;&gt;Node12 -->
<g id="edge12" class="edge">
<title>Node11&#45;&gt;Node12</title>
<path fill="none" stroke="midnightblue" d="M595.16,-95.59C618.29,-100.67 646.9,-106.96 671.33,-112.32"/>
<polygon fill="midnightblue" stroke="midnightblue" points="670.64,-115.75 681.16,-114.48 672.14,-108.92 670.64,-115.75"/>
</g>
<!-- Node12&#45;&gt;Node10 -->
<g id="edge13" class="edge">
<title>Node12&#45;&gt;Node10</title>
<path fill="none" stroke="midnightblue" d="M782.38,-133.66C787.38,-136.12 792.03,-139.18 796,-143 834.3,-179.83 811.69,-207.9 832,-257 840.81,-278.28 853.26,-301.57 862.12,-317.3"/>
<polygon fill="midnightblue" stroke="midnightblue" points="859.12,-319.1 867.12,-326.04 865.19,-315.62 859.12,-319.1"/>
</g>
<!-- Node13&#45;&gt;Node10 -->
<g id="edge23" class="edge">
<title>Node13&#45;&gt;Node10</title>
<path fill="none" stroke="midnightblue" d="M396.48,-247.58C419.09,-255.32 452.33,-266.03 482,-273 615.15,-304.27 777.46,-324.98 843.22,-332.67"/>
<polygon fill="midnightblue" stroke="midnightblue" points="842.94,-336.16 853.28,-333.83 843.75,-329.2 842.94,-336.16"/>
</g>
<!-- Node14 -->
<g id="node14" class="node">
<title>Node14</title>
<g id="a_node14"><a xlink:href="symmetry__i_8c.html#a401172a43970238f56e75a2bd25bf3a5" target="_top" xlink:title=" ">
<polygon fill="white" stroke="black" points="486,-228.5 486,-247.5 615,-247.5 615,-228.5 486,-228.5"/>
<text text-anchor="middle" x="550.5" y="-235.5" font-family="Helvetica,sans-Serif" font-size="10.00">check_transform_order</text>
</a>
</g>
</g>
<!-- Node13&#45;&gt;Node14 -->
<g id="edge16" class="edge">
<title>Node13&#45;&gt;Node14</title>
<path fill="none" stroke="midnightblue" d="M441.68,-238C452.83,-238 464.37,-238 475.57,-238"/>
<polygon fill="midnightblue" stroke="midnightblue" points="475.73,-241.5 485.73,-238 475.73,-234.5 475.73,-241.5"/>
</g>
<!-- Node16 -->
<g id="node16" class="node">
<title>Node16</title>
<g id="a_node16"><a xlink:href="symmetry__i_8c.html#abcbb13fcbff6e3466225582a389ac455" target="_top" xlink:title=" ">
<polygon fill="white" stroke="black" points="657,-190.5 657,-209.5 794,-209.5 794,-190.5 657,-190.5"/>
<text text-anchor="middle" x="725.5" y="-197.5" font-family="Helvetica,sans-Serif" font-size="10.00">check_transform_quality</text>
</a>
</g>
</g>
<!-- Node13&#45;&gt;Node16 -->
<g id="edge20" class="edge">
<title>Node13&#45;&gt;Node16</title>
<path fill="none" stroke="midnightblue" d="M383.22,-228.33C403.62,-214.62 443.67,-190.16 482,-181 549.3,-164.92 629.79,-177.21 679.01,-188.14"/>
<polygon fill="midnightblue" stroke="midnightblue" points="678.5,-191.61 689.03,-190.44 680.07,-184.79 678.5,-191.61"/>
</g>
<!-- Node18 -->
<g id="node18" class="node">
<title>Node18</title>
<g id="a_node18"><a xlink:href="symmetry__i_8c.html#a0e979a95e67dd97b50d84529eded6011" target="_top" xlink:title=" ">
<polygon fill="white" stroke="black" points="680.5,-228.5 680.5,-247.5 770.5,-247.5 770.5,-228.5 680.5,-228.5"/>
<text text-anchor="middle" x="725.5" y="-235.5" font-family="Helvetica,sans-Serif" font-size="10.00">establish_pairs</text>
</a>
</g>
</g>
<!-- Node13&#45;&gt;Node18 -->
<g id="edge24" class="edge">
<title>Node13&#45;&gt;Node18</title>
<path fill="none" stroke="midnightblue" d="M415.26,-247.51C435.6,-251.28 459.89,-255.15 482,-257 542.68,-262.09 558.35,-262.42 619,-257 636.19,-255.46 654.78,-252.55 671.49,-249.45"/>
<polygon fill="midnightblue" stroke="midnightblue" points="672.45,-252.83 681.62,-247.51 671.14,-245.95 672.45,-252.83"/>
</g>
<!-- Node19 -->
<g id="node19" class="node">
<title>Node19</title>
<g id="a_node19"><a xlink:href="symmetry__i_8c.html#a840dda299cb1beb196d463448f6b85bd" target="_top" xlink:title=" ">
<polygon fill="white" stroke="black" points="482,-387 482,-417 619,-417 619,-387 482,-387"/>
<text text-anchor="start" x="490" y="-405" font-family="Helvetica,sans-Serif" font-size="10.00">optimize_transformation</text>
<text text-anchor="middle" x="550.5" y="-394" font-family="Helvetica,sans-Serif" font-size="10.00">_params</text>
</a>
</g>
</g>
<!-- Node13&#45;&gt;Node19 -->
<g id="edge27" class="edge">
<title>Node13&#45;&gt;Node19</title>
<path fill="none" stroke="midnightblue" d="M379.96,-247.53C408.09,-273.16 485.96,-344.11 525.62,-380.25"/>
<polygon fill="midnightblue" stroke="midnightblue" points="523.27,-382.84 533.02,-386.98 527.98,-377.66 523.27,-382.84"/>
</g>
<!-- Node23 -->
<g id="node23" class="node">
<title>Node23</title>
<g id="a_node23"><a xlink:href="symmetry__i_8c.html#ada87e9244d2d583fb2cbc7208b3883b9" target="_top" xlink:title=" ">
<polygon fill="white" stroke="black" points="502,-190.5 502,-209.5 599,-209.5 599,-190.5 502,-190.5"/>
<text text-anchor="middle" x="550.5" y="-197.5" font-family="Helvetica,sans-Serif" font-size="10.00">same_transform</text>
</a>
</g>
</g>
<!-- Node13&#45;&gt;Node23 -->
<g id="edge36" class="edge">
<title>Node13&#45;&gt;Node23</title>
<path fill="none" stroke="midnightblue" d="M414.92,-228.41C439.1,-223.31 469.03,-216.99 494.51,-211.61"/>
<polygon fill="midnightblue" stroke="midnightblue" points="495.34,-215.01 504.41,-209.52 493.9,-208.16 495.34,-215.01"/>
</g>
<!-- Node14&#45;&gt;Node10 -->
<g id="edge17" class="edge">
<title>Node14&#45;&gt;Node10</title>
<path fill="none" stroke="midnightblue" d="M600.55,-247.58C650.51,-258 729.81,-276.37 796,-300 813.1,-306.1 831.55,-314.66 846.1,-321.89"/>
<polygon fill="midnightblue" stroke="midnightblue" points="844.55,-325.03 855.05,-326.42 847.71,-318.78 844.55,-325.03"/>
</g>
<!-- Node14&#45;&gt;Node15 -->
<g id="edge18" class="edge">
<title>Node14&#45;&gt;Node15</title>
<path fill="none" stroke="midnightblue" d="M598.26,-228.41C605.48,-225.93 612.64,-222.84 619,-219 638.91,-206.97 635.04,-192.95 655,-181 658.62,-178.83 662.5,-176.9 666.49,-175.19"/>
<polygon fill="midnightblue" stroke="midnightblue" points="667.89,-178.41 675.99,-171.58 665.4,-171.86 667.89,-178.41"/>
</g>
<!-- Node15&#45;&gt;Node2 -->
<g id="edge19" class="edge">
<title>Node15&#45;&gt;Node2</title>
<path fill="none" stroke="midnightblue" d="M774.17,-152.48C781.74,-149.98 789.28,-146.87 796,-143 822.05,-127.98 845.63,-102.03 859.65,-84.69"/>
<polygon fill="midnightblue" stroke="midnightblue" points="862.64,-86.53 866.06,-76.51 857.14,-82.21 862.64,-86.53"/>
</g>
<!-- Node16&#45;&gt;Node10 -->
<g id="edge21" class="edge">
<title>Node16&#45;&gt;Node10</title>
<path fill="none" stroke="midnightblue" d="M778.18,-209.55C784.51,-212.01 790.63,-215.11 796,-219 814.3,-232.28 846.65,-288.01 862.98,-317.51"/>
<polygon fill="midnightblue" stroke="midnightblue" points="859.98,-319.32 867.86,-326.41 866.12,-315.96 859.98,-319.32"/>
</g>
<!-- Node17 -->
<g id="node17" class="node">
<title>Node17</title>
<g id="a_node17"><a xlink:href="symmetry__i_8c.html#a347fe37bf882cc1be3efe68082ffbd12" target="_top" xlink:title=" ">
<polygon fill="white" stroke="black" points="852.5,-228.5 852.5,-247.5 895.5,-247.5 895.5,-228.5 852.5,-228.5"/>
<text text-anchor="middle" x="874" y="-235.5" font-family="Helvetica,sans-Serif" font-size="10.00">pow2</text>
</a>
</g>
</g>
<!-- Node16&#45;&gt;Node17 -->
<g id="edge22" class="edge">
<title>Node16&#45;&gt;Node17</title>
<path fill="none" stroke="midnightblue" d="M763.47,-209.59C787.87,-215.92 819.46,-224.11 842.44,-230.07"/>
<polygon fill="midnightblue" stroke="midnightblue" points="841.78,-233.52 852.34,-232.64 843.54,-226.74 841.78,-233.52"/>
</g>
<!-- Node18&#45;&gt;Node10 -->
<g id="edge25" class="edge">
<title>Node18&#45;&gt;Node10</title>
<path fill="none" stroke="midnightblue" d="M763.55,-247.5C774.44,-251.15 786.09,-255.94 796,-262 821.05,-277.32 844.58,-302.01 858.88,-318.61"/>
<polygon fill="midnightblue" stroke="midnightblue" points="856.36,-321.06 865.48,-326.46 861.72,-316.56 856.36,-321.06"/>
</g>
<!-- Node18&#45;&gt;Node17 -->
<g id="edge26" class="edge">
<title>Node18&#45;&gt;Node17</title>
<path fill="none" stroke="midnightblue" d="M770.85,-238C793.94,-238 821.6,-238 842.31,-238"/>
<polygon fill="midnightblue" stroke="midnightblue" points="842.44,-241.5 852.44,-238 842.44,-234.5 842.44,-241.5"/>
</g>
<!-- Node19&#45;&gt;Node10 -->
<g id="edge28" class="edge">
<title>Node19&#45;&gt;Node10</title>
<path fill="none" stroke="midnightblue" d="M619.02,-405.12C669.05,-405.44 738.27,-401.67 796,-383 816.98,-376.22 838.17,-362.68 853,-351.87"/>
<polygon fill="midnightblue" stroke="midnightblue" points="855.47,-354.39 861.35,-345.57 851.25,-348.8 855.47,-354.39"/>
</g>
<!-- Node20 -->
<g id="node20" class="node">
<title>Node20</title>
<g id="a_node20"><a xlink:href="symmetry__i_8c.html#aa5e7898a49d284cd7813b2e3dacc0857" target="_top" xlink:title=" ">
<polygon fill="white" stroke="black" points="656,-343 656,-373 795,-373 795,-343 656,-343"/>
<text text-anchor="start" x="664" y="-361" font-family="Helvetica,sans-Serif" font-size="10.00">eval_optimization_target</text>
<text text-anchor="middle" x="725.5" y="-350" font-family="Helvetica,sans-Serif" font-size="10.00">_function</text>
</a>
</g>
</g>
<!-- Node19&#45;&gt;Node20 -->
<g id="edge29" class="edge">
<title>Node19&#45;&gt;Node20</title>
<path fill="none" stroke="midnightblue" d="M610.55,-386.98C625.09,-383.28 640.77,-379.29 655.72,-375.49"/>
<polygon fill="midnightblue" stroke="midnightblue" points="656.59,-378.88 665.42,-373.03 654.87,-372.1 656.59,-378.88"/>
</g>
<!-- Node21 -->
<g id="node21" class="node">
<title>Node21</title>
<g id="a_node21"><a xlink:href="symmetry__i_8c.html#ad72477419409dc5d22f1f00ac0bd8609" target="_top" xlink:title=" ">
<polygon fill="white" stroke="black" points="688.5,-468.5 688.5,-487.5 762.5,-487.5 762.5,-468.5 688.5,-468.5"/>
<text text-anchor="middle" x="725.5" y="-475.5" font-family="Helvetica,sans-Serif" font-size="10.00">get_params</text>
</a>
</g>
</g>
<!-- Node19&#45;&gt;Node21 -->
<g id="edge32" class="edge">
<title>Node19&#45;&gt;Node21</title>
<path fill="none" stroke="midnightblue" d="M574.96,-417.03C595.44,-429.62 626.29,-447.36 655,-459 662.42,-462.01 670.47,-464.7 678.37,-467.04"/>
<polygon fill="midnightblue" stroke="midnightblue" points="677.67,-470.48 688.25,-469.83 679.57,-463.74 677.67,-470.48"/>
</g>
<!-- Node22 -->
<g id="node22" class="node">
<title>Node22</title>
<g id="a_node22"><a xlink:href="symmetry__i_8c.html#a0314524bc1022f80982ecf4dd39ddbc2" target="_top" xlink:title=" ">
<polygon fill="white" stroke="black" points="688.5,-430.5 688.5,-449.5 762.5,-449.5 762.5,-430.5 688.5,-430.5"/>
<text text-anchor="middle" x="725.5" y="-437.5" font-family="Helvetica,sans-Serif" font-size="10.00">set_params</text>
</a>
</g>
</g>
<!-- Node19&#45;&gt;Node22 -->
<g id="edge34" class="edge">
<title>Node19&#45;&gt;Node22</title>
<path fill="none" stroke="midnightblue" d="M619.38,-416.91C639.09,-421.24 660.17,-425.87 678.23,-429.84"/>
<polygon fill="midnightblue" stroke="midnightblue" points="677.68,-433.3 688.2,-432.03 679.18,-426.46 677.68,-433.3"/>
</g>
<!-- Node20&#45;&gt;Node10 -->
<g id="edge30" class="edge">
<title>Node20&#45;&gt;Node10</title>
<path fill="none" stroke="midnightblue" d="M795.03,-347.71C812,-345.16 829.31,-342.56 843.3,-340.46"/>
<polygon fill="midnightblue" stroke="midnightblue" points="843.92,-343.91 853.29,-338.96 842.88,-336.98 843.92,-343.91"/>
</g>
<!-- Node20&#45;&gt;Node17 -->
<g id="edge31" class="edge">
<title>Node20&#45;&gt;Node17</title>
<path fill="none" stroke="midnightblue" d="M745.05,-342.8C772.83,-320.05 824.96,-277.35 853.36,-254.09"/>
<polygon fill="midnightblue" stroke="midnightblue" points="855.83,-256.58 861.35,-247.54 851.4,-251.17 855.83,-256.58"/>
</g>
<!-- Node21&#45;&gt;Node10 -->
<g id="edge33" class="edge">
<title>Node21&#45;&gt;Node10</title>
<path fill="none" stroke="midnightblue" d="M762.72,-473.41C774.18,-470.63 786.36,-466.16 796,-459 832.24,-432.07 855.47,-382.57 866.15,-355.29"/>
<polygon fill="midnightblue" stroke="midnightblue" points="869.51,-356.3 869.74,-345.71 862.96,-353.85 869.51,-356.3"/>
</g>
<!-- Node22&#45;&gt;Node10 -->
<g id="edge35" class="edge">
<title>Node22&#45;&gt;Node10</title>
<path fill="none" stroke="midnightblue" d="M762.62,-431.09C773.83,-427.41 785.89,-422.46 796,-416 822.15,-399.3 845.85,-371.98 859.85,-353.99"/>
<polygon fill="midnightblue" stroke="midnightblue" points="863,-355.63 866.25,-345.54 857.42,-351.4 863,-355.63"/>
</g>
</g>
</svg>
