<?xml version="1.0" encoding="UTF-8" standalone="no"?>
<!DOCTYPE svg PUBLIC "-//W3C//DTD SVG 1.1//EN"
 "http://www.w3.org/Graphics/SVG/1.1/DTD/svg11.dtd">
<!-- Generated by graphviz version 2.43.0 (0)
 -->
<!-- Title: symmetry Pages: 1 -->
<svg width="258pt" height="66pt"
 viewBox="0.00 0.00 258.00 66.00" xmlns="http://www.w3.org/2000/svg" xmlns:xlink="http://www.w3.org/1999/xlink">
<g id="graph0" class="graph" transform="scale(1 1) rotate(0) translate(4 62)">
<title>symmetry</title>
<polygon fill="white" stroke="transparent" points="-4,4 -4,-62 254,-62 254,4 -4,4"/>
<!-- Node1 -->
<g id="node1" class="node">
<title>Node1</title>
<g id="a_node1"><a xlink:title=" ">
<polygon fill="#bfbfbf" stroke="black" points="0,-19.5 0,-38.5 67,-38.5 67,-19.5 0,-19.5"/>
<text text-anchor="middle" x="33.5" y="-26.5" font-family="Helvetica,sans-Serif" font-size="10.00">symmetry</text>
</a>
</g>
</g>
<!-- Node2 -->
<g id="node2" class="node">
<title>Node2</title>
<g id="a_node2"><a xlink:href="symtranslib_8f90.html#aa32daf2b99d816d445d3b9e2a90fa76b" target="_top" xlink:title=" ">
<polygon fill="white" stroke="black" points="103,-19.5 103,-38.5 169,-38.5 169,-19.5 103,-19.5"/>
<text text-anchor="middle" x="136" y="-26.5" font-family="Helvetica,sans-Serif" font-size="10.00">checksym</text>
</a>
</g>
</g>
<!-- Node1&#45;&gt;Node2 -->
<g id="edge1" class="edge">
<title>Node1&#45;&gt;Node2</title>
<path fill="none" stroke="midnightblue" d="M67.13,-29C75.28,-29 84.14,-29 92.68,-29"/>
<polygon fill="midnightblue" stroke="midnightblue" points="92.88,-32.5 102.88,-29 92.88,-25.5 92.88,-32.5"/>
</g>
<!-- Node3 -->
<g id="node3" class="node">
<title>Node3</title>
<g id="a_node3"><a xlink:href="symtranslib_8f90.html#a2fb2c935857631dc17355a3723328504" target="_top" xlink:title=" ">
<polygon fill="white" stroke="black" points="205,-38.5 205,-57.5 250,-57.5 250,-38.5 205,-38.5"/>
<text text-anchor="middle" x="227.5" y="-45.5" font-family="Helvetica,sans-Serif" font-size="10.00">mult3</text>
</a>
</g>
</g>
<!-- Node2&#45;&gt;Node3 -->
<g id="edge2" class="edge">
<title>Node2&#45;&gt;Node3</title>
<path fill="none" stroke="midnightblue" d="M169.06,-35.81C177.47,-37.59 186.54,-39.52 194.93,-41.3"/>
<polygon fill="midnightblue" stroke="midnightblue" points="194.23,-44.73 204.74,-43.38 195.68,-37.88 194.23,-44.73"/>
</g>
<!-- Node4 -->
<g id="node4" class="node">
<title>Node4</title>
<g id="a_node4"><a xlink:href="symmetry__i_8c.html#aa77c823a9fc018ae1d437369708d8727" target="_top" xlink:title=" ">
<polygon fill="white" stroke="black" points="209.5,-0.5 209.5,-19.5 245.5,-19.5 245.5,-0.5 209.5,-0.5"/>
<text text-anchor="middle" x="227.5" y="-7.5" font-family="Helvetica,sans-Serif" font-size="10.00">true</text>
</a>
</g>
</g>
<!-- Node2&#45;&gt;Node4 -->
<g id="edge3" class="edge">
<title>Node2&#45;&gt;Node4</title>
<path fill="none" stroke="midnightblue" d="M169.06,-22.19C179.08,-20.07 190.02,-17.74 199.65,-15.7"/>
<polygon fill="midnightblue" stroke="midnightblue" points="200.41,-19.12 209.46,-13.62 198.95,-12.27 200.41,-19.12"/>
</g>
</g>
</svg>
