<?xml version="1.0" encoding="UTF-8" standalone="no"?>
<!DOCTYPE svg PUBLIC "-//W3C//DTD SVG 1.1//EN"
 "http://www.w3.org/Graphics/SVG/1.1/DTD/svg11.dtd">
<!-- Generated by graphviz version 2.43.0 (0)
 -->
<!-- Title: test_eeq_model_salt Pages: 1 -->
<svg width="335pt" height="154pt"
 viewBox="0.00 0.00 335.00 153.50" xmlns="http://www.w3.org/2000/svg" xmlns:xlink="http://www.w3.org/1999/xlink">
<g id="graph0" class="graph" transform="scale(1 1) rotate(0) translate(4 149.5)">
<title>test_eeq_model_salt</title>
<polygon fill="white" stroke="transparent" points="-4,4 -4,-149.5 331,-149.5 331,4 -4,4"/>
<!-- Node1 -->
<g id="node1" class="node">
<title>Node1</title>
<g id="a_node1"><a xlink:title=" ">
<polygon fill="#bfbfbf" stroke="black" points="0,-57.5 0,-76.5 118,-76.5 118,-57.5 0,-57.5"/>
<text text-anchor="middle" x="59" y="-64.5" font-family="Helvetica,sans-Serif" font-size="10.00">test_eeq_model_salt</text>
</a>
</g>
</g>
<!-- Node2 -->
<g id="node2" class="node">
<title>Node2</title>
<g id="a_node2"><a xlink:href="namespacextb__chargemodel.html#a1a817e25fd018415d120a36bec4e54b1" target="_top" xlink:title=" ">
<polygon fill="white" stroke="black" points="176.5,-115 176.5,-145 304.5,-145 304.5,-115 176.5,-115"/>
<text text-anchor="start" x="184.5" y="-133" font-family="Helvetica,sans-Serif" font-size="10.00">xtb_chargemodel::new</text>
<text text-anchor="middle" x="240.5" y="-122" font-family="Helvetica,sans-Serif" font-size="10.00">_charge_model_2019</text>
</a>
</g>
</g>
<!-- Node1&#45;&gt;Node2 -->
<g id="edge1" class="edge">
<title>Node1&#45;&gt;Node2</title>
<path fill="none" stroke="midnightblue" d="M81.8,-76.53C100.7,-84.62 128.89,-96.28 154,-105 160.83,-107.37 168.02,-109.71 175.2,-111.95"/>
<polygon fill="midnightblue" stroke="midnightblue" points="174.38,-115.36 184.97,-114.94 176.43,-108.67 174.38,-115.36"/>
</g>
<!-- Node3 -->
<g id="node3" class="node">
<title>Node3</title>
<g id="a_node3"><a xlink:href="namespacextb__solv__model.html#a09669408f1afcf859c02d75c40ba59ff" target="_top" xlink:title=" ">
<polygon fill="white" stroke="black" points="154,-76.5 154,-95.5 327,-95.5 327,-76.5 154,-76.5"/>
<text text-anchor="middle" x="240.5" y="-83.5" font-family="Helvetica,sans-Serif" font-size="10.00">xtb_solv_model::newbornmodel</text>
</a>
</g>
</g>
<!-- Node1&#45;&gt;Node3 -->
<g id="edge2" class="edge">
<title>Node1&#45;&gt;Node3</title>
<path fill="none" stroke="midnightblue" d="M118.28,-73.17C126.45,-74.03 135.01,-74.94 143.65,-75.85"/>
<polygon fill="midnightblue" stroke="midnightblue" points="143.5,-79.36 153.81,-76.93 144.23,-72.4 143.5,-79.36"/>
</g>
<!-- Node4 -->
<g id="node4" class="node">
<title>Node4</title>
<g id="a_node4"><a xlink:href="error_8f90.html#a48d4e8f6658873a149a70800afa89704" target="_top" xlink:title=" ">
<polygon fill="white" stroke="black" points="208,-38.5 208,-57.5 273,-57.5 273,-38.5 208,-38.5"/>
<text text-anchor="middle" x="240.5" y="-45.5" font-family="Helvetica,sans-Serif" font-size="10.00">terminate</text>
</a>
</g>
</g>
<!-- Node1&#45;&gt;Node4 -->
<g id="edge3" class="edge">
<title>Node1&#45;&gt;Node4</title>
<path fill="none" stroke="midnightblue" d="M118.28,-60.83C144.23,-58.08 174.2,-54.91 197.84,-52.41"/>
<polygon fill="midnightblue" stroke="midnightblue" points="198.32,-55.88 207.89,-51.35 197.58,-48.92 198.32,-55.88"/>
</g>
<!-- Node5 -->
<g id="node5" class="node">
<title>Node5</title>
<g id="a_node5"><a xlink:href="symmetry__i_8c.html#aa77c823a9fc018ae1d437369708d8727" target="_top" xlink:title=" ">
<polygon fill="white" stroke="black" points="222.5,-0.5 222.5,-19.5 258.5,-19.5 258.5,-0.5 222.5,-0.5"/>
<text text-anchor="middle" x="240.5" y="-7.5" font-family="Helvetica,sans-Serif" font-size="10.00">true</text>
</a>
</g>
</g>
<!-- Node1&#45;&gt;Node5 -->
<g id="edge4" class="edge">
<title>Node1&#45;&gt;Node5</title>
<path fill="none" stroke="midnightblue" d="M80.92,-57.38C99.73,-49.01 128.28,-37 154,-29 173.06,-23.08 195.05,-18.23 211.95,-14.92"/>
<polygon fill="midnightblue" stroke="midnightblue" points="213.08,-18.27 222.25,-12.96 211.77,-11.39 213.08,-18.27"/>
</g>
</g>
</svg>
