<?xml version="1.0" encoding="UTF-8" standalone="no"?>
<!DOCTYPE svg PUBLIC "-//W3C//DTD SVG 1.1//EN"
 "http://www.w3.org/Graphics/SVG/1.1/DTD/svg11.dtd">
<!-- Generated by graphviz version 2.43.0 (0)
 -->
<!-- Title: test_dftd3_pbc3d_threebody_latp Pages: 1 -->
<svg width="342pt" height="78pt"
 viewBox="0.00 0.00 342.00 77.50" xmlns="http://www.w3.org/2000/svg" xmlns:xlink="http://www.w3.org/1999/xlink">
<g id="graph0" class="graph" transform="scale(1 1) rotate(0) translate(4 73.5)">
<title>test_dftd3_pbc3d_threebody_latp</title>
<polygon fill="white" stroke="transparent" points="-4,4 -4,-73.5 338,-73.5 338,4 -4,4"/>
<!-- Node1 -->
<g id="node1" class="node">
<title>Node1</title>
<g id="a_node1"><a xlink:title=" ">
<polygon fill="#bfbfbf" stroke="black" points="0,-22.5 0,-41.5 179,-41.5 179,-22.5 0,-22.5"/>
<text text-anchor="middle" x="89.5" y="-29.5" font-family="Helvetica,sans-Serif" font-size="10.00">test_dftd3_pbc3d_threebody_latp</text>
</a>
</g>
</g>
<!-- Node2 -->
<g id="node2" class="node">
<title>Node2</title>
<g id="a_node2"><a xlink:href="namespacextb__disp__dftd3param.html#a6e770f0472a1e1eca178899cee6100f7" target="_top" xlink:title=" ">
<polygon fill="white" stroke="black" points="215,-39 215,-69 334,-69 334,-39 215,-39"/>
<text text-anchor="start" x="223" y="-57" font-family="Helvetica,sans-Serif" font-size="10.00">xtb_disp_dftd3param</text>
<text text-anchor="middle" x="274.5" y="-46" font-family="Helvetica,sans-Serif" font-size="10.00">::copy_c6</text>
</a>
</g>
</g>
<!-- Node1&#45;&gt;Node2 -->
<g id="edge1" class="edge">
<title>Node1&#45;&gt;Node2</title>
<path fill="none" stroke="midnightblue" d="M169.7,-41.52C181.43,-42.93 193.44,-44.37 204.93,-45.76"/>
<polygon fill="midnightblue" stroke="midnightblue" points="204.52,-49.23 214.87,-46.95 205.36,-42.28 204.52,-49.23"/>
</g>
<!-- Node3 -->
<g id="node3" class="node">
<title>Node3</title>
<g id="a_node3"><a xlink:href="error_8f90.html#a48d4e8f6658873a149a70800afa89704" target="_top" xlink:title=" ">
<polygon fill="white" stroke="black" points="242,-0.5 242,-19.5 307,-19.5 307,-0.5 242,-0.5"/>
<text text-anchor="middle" x="274.5" y="-7.5" font-family="Helvetica,sans-Serif" font-size="10.00">terminate</text>
</a>
</g>
</g>
<!-- Node1&#45;&gt;Node3 -->
<g id="edge2" class="edge">
<title>Node1&#45;&gt;Node3</title>
<path fill="none" stroke="midnightblue" d="M169.7,-22.48C191.12,-19.9 213.45,-17.22 231.89,-15"/>
<polygon fill="midnightblue" stroke="midnightblue" points="232.47,-18.46 241.98,-13.79 231.64,-11.51 232.47,-18.46"/>
</g>
</g>
</svg>
