<?xml version="1.0" encoding="UTF-8" standalone="no"?>
<!DOCTYPE svg PUBLIC "-//W3C//DTD SVG 1.1//EN"
 "http://www.w3.org/Graphics/SVG/1.1/DTD/svg11.dtd">
<!-- Generated by graphviz version 2.43.0 (0)
 -->
<!-- Title: test_pbc_tools_cutoff Pages: 1 -->
<svg width="408pt" height="78pt"
 viewBox="0.00 0.00 408.00 77.50" xmlns="http://www.w3.org/2000/svg" xmlns:xlink="http://www.w3.org/1999/xlink">
<g id="graph0" class="graph" transform="scale(1 1) rotate(0) translate(4 73.5)">
<title>test_pbc_tools_cutoff</title>
<polygon fill="white" stroke="transparent" points="-4,4 -4,-73.5 404,-73.5 404,4 -4,4"/>
<!-- Node1 -->
<g id="node1" class="node">
<title>Node1</title>
<g id="a_node1"><a xlink:title=" ">
<polygon fill="#bfbfbf" stroke="black" points="0,-22.5 0,-41.5 120,-41.5 120,-22.5 0,-22.5"/>
<text text-anchor="middle" x="60" y="-29.5" font-family="Helvetica,sans-Serif" font-size="10.00">test_pbc_tools_cutoff</text>
</a>
</g>
</g>
<!-- Node2 -->
<g id="node2" class="node">
<title>Node2</title>
<g id="a_node2"><a xlink:href="namespacextb__pbc.html#a39926cdca0e558a5e002c9a2860a59ee" target="_top" xlink:title=" ">
<polygon fill="white" stroke="black" points="156,-39 156,-69 285,-69 285,-39 156,-39"/>
<text text-anchor="start" x="164" y="-57" font-family="Helvetica,sans-Serif" font-size="10.00">xtb_pbc::get_realspace</text>
<text text-anchor="middle" x="220.5" y="-46" font-family="Helvetica,sans-Serif" font-size="10.00">_cutoff</text>
</a>
</g>
</g>
<!-- Node1&#45;&gt;Node2 -->
<g id="edge1" class="edge">
<title>Node1&#45;&gt;Node2</title>
<path fill="none" stroke="midnightblue" d="M120.02,-40.19C128.43,-41.36 137.17,-42.57 145.82,-43.77"/>
<polygon fill="midnightblue" stroke="midnightblue" points="145.53,-47.27 155.91,-45.17 146.49,-40.33 145.53,-47.27"/>
</g>
<!-- Node4 -->
<g id="node4" class="node">
<title>Node4</title>
<g id="a_node4"><a xlink:href="error_8f90.html#a48d4e8f6658873a149a70800afa89704" target="_top" xlink:title=" ">
<polygon fill="white" stroke="black" points="188,-0.5 188,-19.5 253,-19.5 253,-0.5 188,-0.5"/>
<text text-anchor="middle" x="220.5" y="-7.5" font-family="Helvetica,sans-Serif" font-size="10.00">terminate</text>
</a>
</g>
</g>
<!-- Node1&#45;&gt;Node4 -->
<g id="edge3" class="edge">
<title>Node1&#45;&gt;Node4</title>
<path fill="none" stroke="midnightblue" d="M120.02,-23.81C139.15,-21.15 159.96,-18.26 177.59,-15.82"/>
<polygon fill="midnightblue" stroke="midnightblue" points="178.13,-19.28 187.56,-14.43 177.17,-12.34 178.13,-19.28"/>
</g>
<!-- Node3 -->
<g id="node3" class="node">
<title>Node3</title>
<g id="a_node3"><a xlink:href="pbc_8f90.html#aa9a2fc33e7cc54debf8cbeb1e0546b09" target="_top" xlink:title=" ">
<polygon fill="white" stroke="black" points="321,-44.5 321,-63.5 400,-63.5 400,-44.5 321,-44.5"/>
<text text-anchor="middle" x="360.5" y="-51.5" font-family="Helvetica,sans-Serif" font-size="10.00">crossproduct</text>
</a>
</g>
</g>
<!-- Node2&#45;&gt;Node3 -->
<g id="edge2" class="edge">
<title>Node2&#45;&gt;Node3</title>
<path fill="none" stroke="midnightblue" d="M285.25,-54C293.79,-54 302.44,-54 310.67,-54"/>
<polygon fill="midnightblue" stroke="midnightblue" points="310.83,-57.5 320.83,-54 310.83,-50.5 310.83,-57.5"/>
</g>
</g>
</svg>
