<?xml version="1.0" encoding="UTF-8" standalone="no"?>
<!DOCTYPE svg PUBLIC "-//W3C//DTD SVG 1.1//EN"
 "http://www.w3.org/Graphics/SVG/1.1/DTD/svg11.dtd">
<!-- Generated by graphviz version 2.43.0 (0)
 -->
<!-- Title: test_pbc_lancopt Pages: 1 -->
<svg width="299pt" height="104pt"
 viewBox="0.00 0.00 299.00 104.00" xmlns="http://www.w3.org/2000/svg" xmlns:xlink="http://www.w3.org/1999/xlink">
<g id="graph0" class="graph" transform="scale(1 1) rotate(0) translate(4 100)">
<title>test_pbc_lancopt</title>
<polygon fill="white" stroke="transparent" points="-4,4 -4,-100 295,-100 295,4 -4,4"/>
<!-- Node1 -->
<g id="node1" class="node">
<title>Node1</title>
<g id="a_node1"><a xlink:title=" ">
<polygon fill="#bfbfbf" stroke="black" points="0,-38.5 0,-57.5 99,-57.5 99,-38.5 0,-38.5"/>
<text text-anchor="middle" x="49.5" y="-45.5" font-family="Helvetica,sans-Serif" font-size="10.00">test_pbc_lancopt</text>
</a>
</g>
</g>
<!-- Node2 -->
<g id="node2" class="node">
<title>Node2</title>
<g id="a_node2"><a xlink:href="generate__wsc_8f90.html#a5c79310b78371712d143d918e62b73fb" target="_top" xlink:title="generate a Wigner–Seitz cell from a given structure">
<polygon fill="white" stroke="black" points="135,-76.5 135,-95.5 219,-95.5 219,-76.5 135,-76.5"/>
<text text-anchor="middle" x="177" y="-83.5" font-family="Helvetica,sans-Serif" font-size="10.00">generate_wsc</text>
</a>
</g>
</g>
<!-- Node1&#45;&gt;Node2 -->
<g id="edge1" class="edge">
<title>Node1&#45;&gt;Node2</title>
<path fill="none" stroke="midnightblue" d="M82.17,-57.59C98.07,-62.4 117.54,-68.3 134.61,-73.47"/>
<polygon fill="midnightblue" stroke="midnightblue" points="133.76,-76.87 144.34,-76.41 135.78,-70.17 133.76,-76.87"/>
</g>
<!-- Node3 -->
<g id="node3" class="node">
<title>Node3</title>
<g id="a_node3"><a xlink:href="symmetry__i_8c.html#aa77c823a9fc018ae1d437369708d8727" target="_top" xlink:title=" ">
<polygon fill="white" stroke="black" points="255,-57.5 255,-76.5 291,-76.5 291,-57.5 255,-57.5"/>
<text text-anchor="middle" x="273" y="-64.5" font-family="Helvetica,sans-Serif" font-size="10.00">true</text>
</a>
</g>
</g>
<!-- Node1&#45;&gt;Node3 -->
<g id="edge4" class="edge">
<title>Node1&#45;&gt;Node3</title>
<path fill="none" stroke="midnightblue" d="M99.11,-52.17C143.77,-56 208.37,-61.54 244.64,-64.65"/>
<polygon fill="midnightblue" stroke="midnightblue" points="244.67,-68.17 254.93,-65.54 245.26,-61.19 244.67,-68.17"/>
</g>
<!-- Node4 -->
<g id="node4" class="node">
<title>Node4</title>
<g id="a_node4"><a xlink:href="error_8f90.html#a48d4e8f6658873a149a70800afa89704" target="_top" xlink:title=" ">
<polygon fill="white" stroke="black" points="144.5,-0.5 144.5,-19.5 209.5,-19.5 209.5,-0.5 144.5,-0.5"/>
<text text-anchor="middle" x="177" y="-7.5" font-family="Helvetica,sans-Serif" font-size="10.00">terminate</text>
</a>
</g>
</g>
<!-- Node1&#45;&gt;Node4 -->
<g id="edge3" class="edge">
<title>Node1&#45;&gt;Node4</title>
<path fill="none" stroke="midnightblue" d="M82.17,-38.41C98.07,-33.6 117.54,-27.7 134.61,-22.53"/>
<polygon fill="midnightblue" stroke="midnightblue" points="135.78,-25.83 144.34,-19.59 133.76,-19.13 135.78,-25.83"/>
</g>
<!-- Node2&#45;&gt;Node3 -->
<g id="edge2" class="edge">
<title>Node2&#45;&gt;Node3</title>
<path fill="none" stroke="midnightblue" d="M219.23,-77.67C227.87,-75.92 236.78,-74.12 244.76,-72.51"/>
<polygon fill="midnightblue" stroke="midnightblue" points="245.51,-75.93 254.61,-70.51 244.12,-69.06 245.51,-75.93"/>
</g>
</g>
</svg>
