<?xml version="1.0" encoding="UTF-8" standalone="no"?>
<!DOCTYPE svg PUBLIC "-//W3C//DTD SVG 1.1//EN"
 "http://www.w3.org/Graphics/SVG/1.1/DTD/svg11.dtd">
<!-- Generated by graphviz version 2.46.0 (20210122.1329)
 -->
<!-- Title: test_pbc_tools_convert Pages: 1 -->
<svg width="527pt" height="352pt"
 viewBox="0.00 0.00 527.00 351.50" xmlns="http://www.w3.org/2000/svg" xmlns:xlink="http://www.w3.org/1999/xlink">
<g id="graph0" class="graph" transform="scale(1 1) rotate(0) translate(4 347.5)">
<title>test_pbc_tools_convert</title>
<polygon fill="white" stroke="transparent" points="-4,4 -4,-347.5 523,-347.5 523,4 -4,4"/>
<!-- Node1 -->
<g id="node1" class="node">
<title>Node1</title>
<g id="a_node1"><a xlink:title=" ">
<polygon fill="#bfbfbf" stroke="black" points="0,-159.5 0,-178.5 118,-178.5 118,-159.5 0,-159.5"/>
<text text-anchor="middle" x="59" y="-166.5" font-family="Helvetica,sans-Serif" font-size="10.00">test_pbc_tools_convert</text>
</a>
</g>
</g>
<!-- Node2 -->
<g id="node2" class="node">
<title>Node2</title>
<g id="a_node2"><a xlink:href="namespacextb__pbc__tools.html#a78401582977ddf8f87d315e54a350129" target="_top" xlink:title="convert cell parameters to direct lattice">
<polygon fill="white" stroke="black" points="154.5,-313 154.5,-343 250.5,-343 250.5,-313 154.5,-313"/>
<text text-anchor="start" x="162.5" y="-331" font-family="Helvetica,sans-Serif" font-size="10.00">xtb_pbc_tools::cell</text>
<text text-anchor="middle" x="202.5" y="-320" font-family="Helvetica,sans-Serif" font-size="10.00">_to_dlat</text>
</a>
</g>
</g>
<!-- Node1&#45;&gt;Node2 -->
<g id="edge1" class="edge">
<title>Node1&#45;&gt;Node2</title>
<path fill="none" stroke="midnightblue" d="M65.33,-178.69C78.23,-201.55 113.13,-259.75 154,-298 157.38,-301.16 161.13,-304.18 165.01,-307"/>
<polygon fill="midnightblue" stroke="midnightblue" points="163.35,-310.11 173.59,-312.84 167.29,-304.32 163.35,-310.11"/>
</g>
<!-- Node3 -->
<g id="node3" class="node">
<title>Node3</title>
<g id="a_node3"><a xlink:href="namespacextb__pbc__tools.html#aa6debe70834a4136aa3c12c27dc5dc59" target="_top" xlink:title="calculate the cell volume from the cell parameters">
<polygon fill="white" stroke="black" points="288,-269 288,-299 384,-299 384,-269 288,-269"/>
<text text-anchor="start" x="296" y="-287" font-family="Helvetica,sans-Serif" font-size="10.00">xtb_pbc_tools::cell</text>
<text text-anchor="middle" x="336" y="-276" font-family="Helvetica,sans-Serif" font-size="10.00">_to_dvol</text>
</a>
</g>
</g>
<!-- Node1&#45;&gt;Node3 -->
<g id="edge3" class="edge">
<title>Node1&#45;&gt;Node3</title>
<path fill="none" stroke="midnightblue" d="M66.08,-178.76C79.27,-198.93 112.63,-245 154,-265 192.35,-283.54 240.51,-287.82 277.51,-287.72"/>
<polygon fill="midnightblue" stroke="midnightblue" points="277.68,-291.22 287.63,-287.58 277.59,-284.22 277.68,-291.22"/>
</g>
<!-- Node4 -->
<g id="node4" class="node">
<title>Node4</title>
<g id="a_node4"><a xlink:href="namespacextb__pbc__tools.html#a33f314ece311e7f8574184e802a20d95" target="_top" xlink:title="convert cell parameters to reciprocal lattice">
<polygon fill="white" stroke="black" points="154.5,-225 154.5,-255 250.5,-255 250.5,-225 154.5,-225"/>
<text text-anchor="start" x="162.5" y="-243" font-family="Helvetica,sans-Serif" font-size="10.00">xtb_pbc_tools::cell</text>
<text text-anchor="middle" x="202.5" y="-232" font-family="Helvetica,sans-Serif" font-size="10.00">_to_rlat</text>
</a>
</g>
</g>
<!-- Node1&#45;&gt;Node4 -->
<g id="edge4" class="edge">
<title>Node1&#45;&gt;Node4</title>
<path fill="none" stroke="midnightblue" d="M79.08,-178.58C100.27,-189.21 135.06,-206.66 162.14,-220.25"/>
<polygon fill="midnightblue" stroke="midnightblue" points="160.86,-223.52 171.36,-224.88 164,-217.27 160.86,-223.52"/>
</g>
<!-- Node5 -->
<g id="node5" class="node">
<title>Node5</title>
<g id="a_node5"><a xlink:href="namespacextb__pbc__tools.html#a3709c4f6358d1b349f40e1d52d22a924" target="_top" xlink:title="convert direct lattice to cell parameters">
<polygon fill="white" stroke="black" points="154,-176 154,-206 251,-206 251,-176 154,-176"/>
<text text-anchor="start" x="162" y="-194" font-family="Helvetica,sans-Serif" font-size="10.00">xtb_pbc_tools::dlat</text>
<text text-anchor="middle" x="202.5" y="-183" font-family="Helvetica,sans-Serif" font-size="10.00">_to_cell</text>
</a>
</g>
</g>
<!-- Node1&#45;&gt;Node5 -->
<g id="edge6" class="edge">
<title>Node1&#45;&gt;Node5</title>
<path fill="none" stroke="midnightblue" d="M118.37,-178.08C126.71,-179.37 135.28,-180.7 143.6,-182"/>
<polygon fill="midnightblue" stroke="midnightblue" points="143.18,-185.48 153.6,-183.55 144.26,-178.56 143.18,-185.48"/>
</g>
<!-- Node6 -->
<g id="node6" class="node">
<title>Node6</title>
<g id="a_node6"><a xlink:href="namespacextb__pbc__tools.html#aea009f9f2022ae2d929f4f9290d205b6" target="_top" xlink:title="calculate the cell volume from the direct lattice">
<polygon fill="white" stroke="black" points="287.5,-134 287.5,-164 384.5,-164 384.5,-134 287.5,-134"/>
<text text-anchor="start" x="295.5" y="-152" font-family="Helvetica,sans-Serif" font-size="10.00">xtb_pbc_tools::dlat</text>
<text text-anchor="middle" x="336" y="-141" font-family="Helvetica,sans-Serif" font-size="10.00">_to_dvol</text>
</a>
</g>
</g>
<!-- Node1&#45;&gt;Node6 -->
<g id="edge7" class="edge">
<title>Node1&#45;&gt;Node6</title>
<path fill="none" stroke="midnightblue" d="M118.32,-164.76C165.08,-161.36 230.37,-156.61 277.03,-153.22"/>
<polygon fill="midnightblue" stroke="midnightblue" points="277.57,-156.69 287.29,-152.47 277.06,-149.7 277.57,-156.69"/>
</g>
<!-- Node8 -->
<g id="node8" class="node">
<title>Node8</title>
<g id="a_node8"><a xlink:href="namespacextb__pbc__tools.html#aa8308e59e9922f92d1270ecfe6fea9af" target="_top" xlink:title="convert direct lattice to cell parameters">
<polygon fill="white" stroke="black" points="154,-88 154,-118 251,-118 251,-88 154,-88"/>
<text text-anchor="start" x="162" y="-106" font-family="Helvetica,sans-Serif" font-size="10.00">xtb_pbc_tools::dlat</text>
<text text-anchor="middle" x="202.5" y="-95" font-family="Helvetica,sans-Serif" font-size="10.00">_to_rlat</text>
</a>
</g>
</g>
<!-- Node1&#45;&gt;Node8 -->
<g id="edge9" class="edge">
<title>Node1&#45;&gt;Node8</title>
<path fill="none" stroke="midnightblue" d="M80.58,-159.4C101.26,-149.76 133.73,-134.61 159.82,-122.44"/>
<polygon fill="midnightblue" stroke="midnightblue" points="161.53,-125.51 169.11,-118.11 158.57,-119.16 161.53,-125.51"/>
</g>
<!-- Node10 -->
<g id="node10" class="node">
<title>Node10</title>
<g id="a_node10"><a xlink:href="namespacextb__pbc__tools.html#a21bebefca2bf4a0134825f1c8936794b" target="_top" xlink:title="calculate center of unit cell">
<polygon fill="white" stroke="black" points="155,-39 155,-69 250,-69 250,-39 155,-39"/>
<text text-anchor="start" x="163" y="-57" font-family="Helvetica,sans-Serif" font-size="10.00">xtb_pbc_tools::get</text>
<text text-anchor="middle" x="202.5" y="-46" font-family="Helvetica,sans-Serif" font-size="10.00">_center_dlat</text>
</a>
</g>
</g>
<!-- Node1&#45;&gt;Node10 -->
<g id="edge12" class="edge">
<title>Node1&#45;&gt;Node10</title>
<path fill="none" stroke="midnightblue" d="M68.27,-159.24C83.73,-141.43 118.65,-103.15 154,-78 155.83,-76.69 157.75,-75.42 159.72,-74.18"/>
<polygon fill="midnightblue" stroke="midnightblue" points="161.69,-77.08 168.55,-69.01 158.15,-71.04 161.69,-77.08"/>
</g>
<!-- Node11 -->
<g id="node11" class="node">
<title>Node11</title>
<g id="a_node11"><a xlink:href="error_8f90.html#a48d4e8f6658873a149a70800afa89704" target="_top" xlink:title=" ">
<polygon fill="white" stroke="black" points="174,-0.5 174,-19.5 231,-19.5 231,-0.5 174,-0.5"/>
<text text-anchor="middle" x="202.5" y="-7.5" font-family="Helvetica,sans-Serif" font-size="10.00">terminate</text>
</a>
</g>
</g>
<!-- Node1&#45;&gt;Node11 -->
<g id="edge13" class="edge">
<title>Node1&#45;&gt;Node11</title>
<path fill="none" stroke="midnightblue" d="M63.99,-159.4C74.81,-134.47 107.11,-66.92 154,-29 157.17,-26.43 160.74,-24.18 164.45,-22.2"/>
<polygon fill="midnightblue" stroke="midnightblue" points="166.24,-25.23 173.84,-17.85 163.3,-18.88 166.24,-25.23"/>
</g>
<!-- Node2&#45;&gt;Node3 -->
<g id="edge2" class="edge">
<title>Node2&#45;&gt;Node3</title>
<path fill="none" stroke="midnightblue" d="M248.39,-312.98C258.64,-309.55 269.65,-305.87 280.26,-302.31"/>
<polygon fill="midnightblue" stroke="midnightblue" points="281.5,-305.59 289.87,-299.1 279.27,-298.95 281.5,-305.59"/>
</g>
<!-- Node4&#45;&gt;Node3 -->
<g id="edge5" class="edge">
<title>Node4&#45;&gt;Node3</title>
<path fill="none" stroke="midnightblue" d="M248.39,-255.02C258.64,-258.45 269.65,-262.13 280.26,-265.69"/>
<polygon fill="midnightblue" stroke="midnightblue" points="279.27,-269.05 289.87,-268.9 281.5,-262.41 279.27,-269.05"/>
</g>
<!-- Node7 -->
<g id="node7" class="node">
<title>Node7</title>
<g id="a_node7"><a xlink:href="namespacextb__pbc__tools.html#af5c425099fa1f9ef165278c21e54d8b7" target="_top" xlink:title="determinat of 3×3 matrix">
<polygon fill="white" stroke="black" points="421,-109 421,-139 519,-139 519,-109 421,-109"/>
<text text-anchor="start" x="429" y="-127" font-family="Helvetica,sans-Serif" font-size="10.00">xtb_pbc_tools::mat</text>
<text text-anchor="middle" x="470" y="-116" font-family="Helvetica,sans-Serif" font-size="10.00">_det_3x3</text>
</a>
</g>
</g>
<!-- Node6&#45;&gt;Node7 -->
<g id="edge8" class="edge">
<title>Node6&#45;&gt;Node7</title>
<path fill="none" stroke="midnightblue" d="M384.66,-139.97C393.24,-138.35 402.27,-136.64 411.11,-134.96"/>
<polygon fill="midnightblue" stroke="midnightblue" points="411.8,-138.4 420.97,-133.1 410.49,-131.52 411.8,-138.4"/>
</g>
<!-- Node9 -->
<g id="node9" class="node">
<title>Node9</title>
<g id="a_node9"><a xlink:href="namespacextb__pbc__tools.html#ad22c96cf682e0afadb811494da08cde4" target="_top" xlink:title="Performs a direct calculation of the inverse of a 3×3 matrix.">
<polygon fill="white" stroke="black" points="287,-85 287,-115 385,-115 385,-85 287,-85"/>
<text text-anchor="start" x="295" y="-103" font-family="Helvetica,sans-Serif" font-size="10.00">xtb_pbc_tools::mat</text>
<text text-anchor="middle" x="336" y="-92" font-family="Helvetica,sans-Serif" font-size="10.00">_inv_3x3</text>
</a>
</g>
</g>
<!-- Node8&#45;&gt;Node9 -->
<g id="edge10" class="edge">
<title>Node8&#45;&gt;Node9</title>
<path fill="none" stroke="midnightblue" d="M251.35,-101.91C259.6,-101.72 268.25,-101.52 276.74,-101.33"/>
<polygon fill="midnightblue" stroke="midnightblue" points="277.05,-104.82 286.97,-101.1 276.89,-97.82 277.05,-104.82"/>
</g>
<!-- Node9&#45;&gt;Node7 -->
<g id="edge11" class="edge">
<title>Node9&#45;&gt;Node7</title>
<path fill="none" stroke="midnightblue" d="M385.03,-108.73C393.4,-110.25 402.19,-111.85 410.8,-113.42"/>
<polygon fill="midnightblue" stroke="midnightblue" points="410.32,-116.89 420.79,-115.23 411.57,-110 410.32,-116.89"/>
</g>
</g>
</svg>
