<?xml version="1.0" encoding="UTF-8" standalone="no"?>
<!DOCTYPE svg PUBLIC "-//W3C//DTD SVG 1.1//EN"
 "http://www.w3.org/Graphics/SVG/1.1/DTD/svg11.dtd">
<!-- Generated by graphviz version 2.43.0 (0)
 -->
<!-- Title: test_dftd3_pbc3d_threebody_neighs Pages: 1 -->
<svg width="318pt" height="78pt"
 viewBox="0.00 0.00 318.00 77.50" xmlns="http://www.w3.org/2000/svg" xmlns:xlink="http://www.w3.org/1999/xlink">
<g id="graph0" class="graph" transform="scale(1 1) rotate(0) translate(4 73.5)">
<title>test_dftd3_pbc3d_threebody_neighs</title>
<polygon fill="white" stroke="transparent" points="-4,4 -4,-73.5 314,-73.5 314,4 -4,4"/>
<!-- Node1 -->
<g id="node1" class="node">
<title>Node1</title>
<g id="a_node1"><a xlink:title=" ">
<polygon fill="#bfbfbf" stroke="black" points="0,-17 0,-47 155,-47 155,-17 0,-17"/>
<text text-anchor="start" x="8" y="-35" font-family="Helvetica,sans-Serif" font-size="10.00">test_dftd3_pbc3d_threebody</text>
<text text-anchor="middle" x="77.5" y="-24" font-family="Helvetica,sans-Serif" font-size="10.00">_neighs</text>
</a>
</g>
</g>
<!-- Node2 -->
<g id="node2" class="node">
<title>Node2</title>
<g id="a_node2"><a xlink:href="namespacextb__disp__dftd3param.html#a6e770f0472a1e1eca178899cee6100f7" target="_top" xlink:title=" ">
<polygon fill="white" stroke="black" points="191,-39 191,-69 310,-69 310,-39 191,-39"/>
<text text-anchor="start" x="199" y="-57" font-family="Helvetica,sans-Serif" font-size="10.00">xtb_disp_dftd3param</text>
<text text-anchor="middle" x="250.5" y="-46" font-family="Helvetica,sans-Serif" font-size="10.00">::copy_c6</text>
</a>
</g>
</g>
<!-- Node1&#45;&gt;Node2 -->
<g id="edge1" class="edge">
<title>Node1&#45;&gt;Node2</title>
<path fill="none" stroke="midnightblue" d="M155.5,-41.91C163.94,-42.99 172.5,-44.09 180.83,-45.17"/>
<polygon fill="midnightblue" stroke="midnightblue" points="180.5,-48.65 190.87,-46.46 181.39,-41.71 180.5,-48.65"/>
</g>
<!-- Node3 -->
<g id="node3" class="node">
<title>Node3</title>
<g id="a_node3"><a xlink:href="error_8f90.html#a48d4e8f6658873a149a70800afa89704" target="_top" xlink:title=" ">
<polygon fill="white" stroke="black" points="218,-0.5 218,-19.5 283,-19.5 283,-0.5 218,-0.5"/>
<text text-anchor="middle" x="250.5" y="-7.5" font-family="Helvetica,sans-Serif" font-size="10.00">terminate</text>
</a>
</g>
</g>
<!-- Node1&#45;&gt;Node3 -->
<g id="edge2" class="edge">
<title>Node1&#45;&gt;Node3</title>
<path fill="none" stroke="midnightblue" d="M155.5,-22.09C173.53,-19.77 192.07,-17.39 207.88,-15.36"/>
<polygon fill="midnightblue" stroke="midnightblue" points="208.36,-18.82 217.83,-14.07 207.47,-11.88 208.36,-18.82"/>
</g>
</g>
</svg>
