<?xml version="1.0" encoding="UTF-8" standalone="no"?>
<!DOCTYPE svg PUBLIC "-//W3C//DTD SVG 1.1//EN"
 "http://www.w3.org/Graphics/SVG/1.1/DTD/svg11.dtd">
<!-- Generated by graphviz version 2.46.1 (20210215.1649)
 -->
<!-- Title: test_symmetry_pcl3 Pages: 1 -->
<svg width="393pt" height="104pt"
 viewBox="0.00 0.00 393.00 104.00" xmlns="http://www.w3.org/2000/svg" xmlns:xlink="http://www.w3.org/1999/xlink">
<g id="graph0" class="graph" transform="scale(1 1) rotate(0) translate(4 100)">
<title>test_symmetry_pcl3</title>
<polygon fill="white" stroke="transparent" points="-4,4 -4,-100 389,-100 389,4 -4,4"/>
<!-- Node1 -->
<g id="node1" class="node">
<title>Node1</title>
<g id="a_node1"><a xlink:title=" ">
<polygon fill="#bfbfbf" stroke="black" points="0,-38.5 0,-57.5 104,-57.5 104,-38.5 0,-38.5"/>
<text text-anchor="middle" x="52" y="-45.5" font-family="Helvetica,sans-Serif" font-size="10.00">test_symmetry_pcl3</text>
</a>
</g>
</g>
<!-- Node2 -->
<g id="node2" class="node">
<title>Node2</title>
<g id="a_node2"><a xlink:href="namespacextb__thermo.html#a3bc5ddbb481f65f7307afad7edc76bcd" target="_top" xlink:title=" ">
<polygon fill="white" stroke="black" points="140,-76.5 140,-95.5 265,-95.5 265,-76.5 140,-76.5"/>
<text text-anchor="middle" x="202.5" y="-83.5" font-family="Helvetica,sans-Serif" font-size="10.00">xtb_thermo::getsymmetry</text>
</a>
</g>
</g>
<!-- Node1&#45;&gt;Node2 -->
<g id="edge1" class="edge">
<title>Node1&#45;&gt;Node2</title>
<path fill="none" stroke="midnightblue" d="M90.47,-57.59C109.89,-62.56 133.8,-68.68 154.45,-73.96"/>
<polygon fill="midnightblue" stroke="midnightblue" points="153.74,-77.39 164.3,-76.48 155.48,-70.61 153.74,-77.39"/>
</g>
<!-- Node4 -->
<g id="node4" class="node">
<title>Node4</title>
<g id="a_node4"><a xlink:href="TESTSUITE_2symmetry_8f90.html#ae5fb729c915bee799bcf7f5d46c137da" target="_top" xlink:title=" ">
<polygon fill="white" stroke="black" points="183.5,-38.5 183.5,-57.5 221.5,-57.5 221.5,-38.5 183.5,-38.5"/>
<text text-anchor="middle" x="202.5" y="-45.5" font-family="Helvetica,sans-Serif" font-size="10.00">rattle</text>
</a>
</g>
</g>
<!-- Node1&#45;&gt;Node4 -->
<g id="edge3" class="edge">
<title>Node1&#45;&gt;Node4</title>
<path fill="none" stroke="midnightblue" d="M104.11,-48C127.32,-48 153.9,-48 173.42,-48"/>
<polygon fill="midnightblue" stroke="midnightblue" points="173.47,-51.5 183.47,-48 173.47,-44.5 173.47,-51.5"/>
</g>
<!-- Node5 -->
<g id="node5" class="node">
<title>Node5</title>
<g id="a_node5"><a xlink:href="error_8f90.html#a48d4e8f6658873a149a70800afa89704" target="_top" xlink:title=" ">
<polygon fill="white" stroke="black" points="174,-0.5 174,-19.5 231,-19.5 231,-0.5 174,-0.5"/>
<text text-anchor="middle" x="202.5" y="-7.5" font-family="Helvetica,sans-Serif" font-size="10.00">terminate</text>
</a>
</g>
</g>
<!-- Node1&#45;&gt;Node5 -->
<g id="edge4" class="edge">
<title>Node1&#45;&gt;Node5</title>
<path fill="none" stroke="midnightblue" d="M90.47,-38.41C112.97,-32.65 141.51,-25.35 164.01,-19.59"/>
<polygon fill="midnightblue" stroke="midnightblue" points="165.06,-22.94 173.88,-17.07 163.33,-16.16 165.06,-22.94"/>
</g>
<!-- Node3 -->
<g id="node3" class="node">
<title>Node3</title>
<g id="a_node3"><a xlink:href="symmetry_2symmetry_8f90.html#a143af2c147b63099230e44b467731727" target="_top" xlink:title=" ">
<polygon fill="white" stroke="black" points="301,-76.5 301,-95.5 385,-95.5 385,-76.5 301,-76.5"/>
<text text-anchor="middle" x="343" y="-83.5" font-family="Helvetica,sans-Serif" font-size="10.00">get_schoenflies</text>
</a>
</g>
</g>
<!-- Node2&#45;&gt;Node3 -->
<g id="edge2" class="edge">
<title>Node2&#45;&gt;Node3</title>
<path fill="none" stroke="midnightblue" d="M265.05,-86C273.68,-86 282.47,-86 290.88,-86"/>
<polygon fill="midnightblue" stroke="midnightblue" points="290.91,-89.5 300.91,-86 290.91,-82.5 290.91,-89.5"/>
</g>
</g>
</svg>
