<?xml version="1.0" encoding="UTF-8" standalone="no"?>
<!DOCTYPE svg PUBLIC "-//W3C//DTD SVG 1.1//EN"
 "http://www.w3.org/Graphics/SVG/1.1/DTD/svg11.dtd">
<!-- Generated by graphviz version 2.46.0 (20210122.1329)
 -->
<!-- Title: test_eeq_ewald Pages: 1 -->
<svg width="451pt" height="103pt"
 viewBox="0.00 0.00 451.00 102.50" xmlns="http://www.w3.org/2000/svg" xmlns:xlink="http://www.w3.org/1999/xlink">
<g id="graph0" class="graph" transform="scale(1 1) rotate(0) translate(4 98.5)">
<title>test_eeq_ewald</title>
<polygon fill="white" stroke="transparent" points="-4,4 -4,-98.5 447,-98.5 447,4 -4,4"/>
<!-- Node1 -->
<g id="node1" class="node">
<title>Node1</title>
<g id="a_node1"><a xlink:title=" ">
<polygon fill="#bfbfbf" stroke="black" points="0,-22.5 0,-41.5 85,-41.5 85,-22.5 0,-22.5"/>
<text text-anchor="middle" x="42.5" y="-29.5" font-family="Helvetica,sans-Serif" font-size="10.00">test_eeq_ewald</text>
</a>
</g>
</g>
<!-- Node2 -->
<g id="node2" class="node">
<title>Node2</title>
<g id="a_node2"><a xlink:href="namespacextb__disp__coordinationnumber.html#a3f340f97e1a0e73151e9c03d0cbae264" target="_top" xlink:title="Cutoff function for large coordination numbers.">
<polygon fill="white" stroke="black" points="121,-39 121,-69 264,-69 264,-39 121,-39"/>
<text text-anchor="start" x="129" y="-57" font-family="Helvetica,sans-Serif" font-size="10.00">xtb_disp_coordinationnumber</text>
<text text-anchor="middle" x="192.5" y="-46" font-family="Helvetica,sans-Serif" font-size="10.00">::cutcoordinationnumber</text>
</a>
</g>
</g>
<!-- Node1&#45;&gt;Node2 -->
<g id="edge1" class="edge">
<title>Node1&#45;&gt;Node2</title>
<path fill="none" stroke="midnightblue" d="M85.12,-38.19C93.2,-39.39 101.91,-40.68 110.76,-42"/>
<polygon fill="midnightblue" stroke="midnightblue" points="110.37,-45.48 120.77,-43.49 111.4,-38.55 110.37,-45.48"/>
</g>
<!-- Node5 -->
<g id="node5" class="node">
<title>Node5</title>
<g id="a_node5"><a xlink:href="error_8f90.html#a48d4e8f6658873a149a70800afa89704" target="_top" xlink:title=" ">
<polygon fill="white" stroke="black" points="164,-0.5 164,-19.5 221,-19.5 221,-0.5 164,-0.5"/>
<text text-anchor="middle" x="192.5" y="-7.5" font-family="Helvetica,sans-Serif" font-size="10.00">terminate</text>
</a>
</g>
</g>
<!-- Node1&#45;&gt;Node5 -->
<g id="edge4" class="edge">
<title>Node1&#45;&gt;Node5</title>
<path fill="none" stroke="midnightblue" d="M85.12,-25.81C106.62,-22.62 132.67,-18.74 153.61,-15.63"/>
<polygon fill="midnightblue" stroke="midnightblue" points="154.36,-19.06 163.74,-14.13 153.33,-12.14 154.36,-19.06"/>
</g>
<!-- Node3 -->
<g id="node3" class="node">
<title>Node3</title>
<g id="a_node3"><a xlink:href="namespacextb__disp__coordinationnumber.html#a8cb125805581107239d02e3005bca6c1" target="_top" xlink:title="Cutting function for the coordination number.">
<polygon fill="white" stroke="black" points="300,-64 300,-94 443,-94 443,-64 300,-64"/>
<text text-anchor="start" x="308" y="-82" font-family="Helvetica,sans-Serif" font-size="10.00">xtb_disp_coordinationnumber</text>
<text text-anchor="middle" x="371.5" y="-71" font-family="Helvetica,sans-Serif" font-size="10.00">::cutcn</text>
</a>
</g>
</g>
<!-- Node2&#45;&gt;Node3 -->
<g id="edge2" class="edge">
<title>Node2&#45;&gt;Node3</title>
<path fill="none" stroke="midnightblue" d="M264.22,-63.99C272.66,-65.18 281.33,-66.41 289.9,-67.62"/>
<polygon fill="midnightblue" stroke="midnightblue" points="289.5,-71.09 299.89,-69.03 290.48,-64.16 289.5,-71.09"/>
</g>
<!-- Node4 -->
<g id="node4" class="node">
<title>Node4</title>
<g id="a_node4"><a xlink:href="namespacextb__disp__coordinationnumber.html#aec17fcc5044caee4d221ce47cf2aff03" target="_top" xlink:title="Derivative of the cutting function w.r.t. coordination number.">
<polygon fill="white" stroke="black" points="300,-15 300,-45 443,-45 443,-15 300,-15"/>
<text text-anchor="start" x="308" y="-33" font-family="Helvetica,sans-Serif" font-size="10.00">xtb_disp_coordinationnumber</text>
<text text-anchor="middle" x="371.5" y="-22" font-family="Helvetica,sans-Serif" font-size="10.00">::dcutcn</text>
</a>
</g>
</g>
<!-- Node2&#45;&gt;Node4 -->
<g id="edge3" class="edge">
<title>Node2&#45;&gt;Node4</title>
<path fill="none" stroke="midnightblue" d="M264.22,-44.41C272.66,-43.27 281.33,-42.09 289.9,-40.93"/>
<polygon fill="midnightblue" stroke="midnightblue" points="290.46,-44.39 299.89,-39.57 289.51,-37.45 290.46,-44.39"/>
</g>
</g>
</svg>
