<?xml version="1.0" encoding="UTF-8" standalone="no"?>
<!DOCTYPE svg PUBLIC "-//W3C//DTD SVG 1.1//EN"
 "http://www.w3.org/Graphics/SVG/1.1/DTD/svg11.dtd">
<!-- Generated by graphviz version 2.46.0 (20210122.1329)
 -->
<!-- Title: prtime Pages: 1 -->
<!--zoomable 154 -->
<svg id="main" version="1.1" xmlns="http://www.w3.org/2000/svg" xmlns:xlink="http://www.w3.org/1999/xlink" xml:space="preserve" onload="init(evt)">
<style type="text/css"><![CDATA[
.edge:hover path { stroke: red; }
.edge:hover polygon { stroke: red; fill: red; }
]]></style>
<script type="text/javascript"><![CDATA[
var edges = document.getElementsByTagName('g');
if (edges && edges.length) {
  for (var i=0;i<edges.length;i++) {
    if (edges[i].id.substr(0,4)=='edge') {
      edges[i].setAttribute('class','edge');
    }
  }
}
]]></script>
        <defs>
                <circle id="rim" cx="0" cy="0" r="7"/>
                <circle id="rim2" cx="0" cy="0" r="3.5"/>
                <g id="zoomPlus">
                        <use xlink:href="#rim" fill="#404040">
                                <set attributeName="fill" to="#808080" begin="zoomplus.mouseover" end="zoomplus.mouseout"/>
                        </use>
                        <path d="M-4,0h8M0,-4v8" fill="none" stroke="white" stroke-width="1.5" pointer-events="none"/>
                </g>
                <g id="zoomMin">
                        <use xlink:href="#rim" fill="#404040">
                                <set attributeName="fill" to="#808080" begin="zoomminus.mouseover" end="zoomminus.mouseout"/>
                        </use>
                        <path d="M-4,0h8" fill="none" stroke="white" stroke-width="1.5" pointer-events="none"/>
                </g>
                <g id="dirArrow">
                        <path fill="none" stroke="white" stroke-width="1.5" d="M0,-3.0v7 M-2.5,-0.5L0,-3.0L2.5,-0.5"/>
                </g>
               <g id="resetDef">
                       <use xlink:href="#rim2" fill="#404040">
                               <set attributeName="fill" to="#808080" begin="reset.mouseover" end="reset.mouseout"/>
                       </use>
               </g>
        </defs>

<script type="text/javascript">
var viewWidth = 581;
var viewHeight = 154;
var sectionId = 'dynsection-0';
</script>
<script xlink:href="svgpan.js"/>
<svg id="graph" class="graph">
<g id="viewport">
<title>prtime</title>
<polygon fill="white" stroke="transparent" points="-4,4 -4,-150 577,-150 577,4 -4,4"/>
<!-- Node1 -->
<g id="node1" class="node">
<title>Node1</title>
<g id="a_node1"><a xlink:title=" ">
<polygon fill="#bfbfbf" stroke="black" points="529,-82.5 529,-101.5 573,-101.5 573,-82.5 529,-82.5"/>
<text text-anchor="middle" x="551" y="-89.5" font-family="Helvetica,sans-Serif" font-size="10.00">prtime</text>
</a>
</g>
</g>
<!-- Node2 -->
<g id="node2" class="node">
<title>Node2</title>
<g id="a_node2"><a xlink:href="namespacextb__cube.html#a082b453eb3db25cf47d7a7d128c99f25" target="_top" xlink:title=" ">
<polygon fill="white" stroke="black" points="412,-102.5 412,-121.5 493,-121.5 493,-102.5 412,-102.5"/>
<text text-anchor="middle" x="452.5" y="-109.5" font-family="Helvetica,sans-Serif" font-size="10.00">xtb_cube::cube</text>
</a>
</g>
</g>
<!-- Node1&#45;&gt;Node2 -->
<g id="edge1" class="edge">
<title>Node1&#45;&gt;Node2</title>
<path fill="none" stroke="midnightblue" d="M518.72,-98.48C510.55,-100.18 501.64,-102.02 493.11,-103.79"/>
<polygon fill="midnightblue" stroke="midnightblue" points="519.5,-101.9 528.58,-96.44 518.08,-95.04 519.5,-101.9"/>
</g>
<!-- Node6 -->
<g id="node6" class="node">
<title>Node6</title>
<g id="a_node6"><a xlink:href="namespacextb__local.html#a6aafec43f9ac7235a5dfd2c36ed1f56b" target="_top" xlink:title=" ">
<polygon fill="white" stroke="black" points="412.5,-63.5 412.5,-82.5 492.5,-82.5 492.5,-63.5 412.5,-63.5"/>
<text text-anchor="middle" x="452.5" y="-70.5" font-family="Helvetica,sans-Serif" font-size="10.00">xtb_local::local</text>
</a>
</g>
</g>
<!-- Node1&#45;&gt;Node6 -->
<g id="edge5" class="edge">
<title>Node1&#45;&gt;Node6</title>
<path fill="none" stroke="midnightblue" d="M518.61,-85.82C510.35,-84.19 501.34,-82.42 492.72,-80.72"/>
<polygon fill="midnightblue" stroke="midnightblue" points="518.1,-89.29 528.58,-87.78 519.45,-82.42 518.1,-89.29"/>
</g>
<!-- Node3 -->
<g id="node3" class="node">
<title>Node3</title>
<g id="a_node3"><a xlink:href="namespacextb__propertyoutput.html#aa23d3ac2a820741df00f0cbd43f91a14" target="_top" xlink:title=" ">
<polygon fill="white" stroke="black" points="280,-110 280,-140 376,-140 376,-110 280,-110"/>
<text text-anchor="start" x="288" y="-128" font-family="Helvetica,sans-Serif" font-size="10.00">xtb_propertyoutput</text>
<text text-anchor="middle" x="328" y="-117" font-family="Helvetica,sans-Serif" font-size="10.00">::main_cube</text>
</a>
</g>
</g>
<!-- Node2&#45;&gt;Node3 -->
<g id="edge2" class="edge">
<title>Node2&#45;&gt;Node3</title>
<path fill="none" stroke="midnightblue" d="M401.68,-117.29C393.28,-118.18 384.59,-119.1 376.26,-119.99"/>
<polygon fill="midnightblue" stroke="midnightblue" points="402.15,-120.76 411.73,-116.22 401.41,-113.8 402.15,-120.76"/>
</g>
<!-- Node4 -->
<g id="node4" class="node">
<title>Node4</title>
<g id="a_node4"><a xlink:href="namespacextb__prog__main.html#a92b3b61ee04235e6343f652095682529" target="_top" xlink:title=" ">
<polygon fill="white" stroke="black" points="126,-126.5 126,-145.5 244,-145.5 244,-126.5 126,-126.5"/>
<text text-anchor="middle" x="185" y="-133.5" font-family="Helvetica,sans-Serif" font-size="10.00">xtb_prog_main::xtbmain</text>
</a>
</g>
</g>
<!-- Node3&#45;&gt;Node4 -->
<g id="edge3" class="edge">
<title>Node3&#45;&gt;Node4</title>
<path fill="none" stroke="midnightblue" d="M269.61,-129.48C261.25,-130.13 252.62,-130.8 244.24,-131.46"/>
<polygon fill="midnightblue" stroke="midnightblue" points="269.96,-132.96 279.66,-128.69 269.41,-125.98 269.96,-132.96"/>
</g>
<!-- Node5 -->
<g id="node5" class="node">
<title>Node5</title>
<g id="a_node5"><a xlink:href="primary_8f90.html#a2a67903cf5be605c5b6d3c362c6a3c5c" target="_top" xlink:title="The primary driver for the xtb program package.">
<polygon fill="white" stroke="black" points="0,-126.5 0,-145.5 90,-145.5 90,-126.5 0,-126.5"/>
<text text-anchor="middle" x="45" y="-133.5" font-family="Helvetica,sans-Serif" font-size="10.00">xtb_prog_primary</text>
</a>
</g>
</g>
<!-- Node4&#45;&gt;Node5 -->
<g id="edge4" class="edge">
<title>Node4&#45;&gt;Node5</title>
<path fill="none" stroke="midnightblue" d="M115.73,-136C107.06,-136 98.37,-136 90.22,-136"/>
<polygon fill="midnightblue" stroke="midnightblue" points="115.88,-139.5 125.88,-136 115.88,-132.5 115.88,-139.5"/>
</g>
<!-- Node7 -->
<g id="node7" class="node">
<title>Node7</title>
<g id="a_node7"><a xlink:href="namespacextb__scf.html#a7390c40a38032c3d210c39edecfa49ed" target="_top" xlink:title=" ">
<polygon fill="white" stroke="black" points="295,-60.5 295,-79.5 361,-79.5 361,-60.5 295,-60.5"/>
<text text-anchor="middle" x="328" y="-67.5" font-family="Helvetica,sans-Serif" font-size="10.00">xtb_scf::scf</text>
</a>
</g>
</g>
<!-- Node6&#45;&gt;Node7 -->
<g id="edge6" class="edge">
<title>Node6&#45;&gt;Node7</title>
<path fill="none" stroke="midnightblue" d="M402.07,-71.79C388.29,-71.45 373.68,-71.09 361.17,-70.79"/>
<polygon fill="midnightblue" stroke="midnightblue" points="402.32,-75.3 412.4,-72.04 402.49,-68.3 402.32,-75.3"/>
</g>
<!-- Node8 -->
<g id="node8" class="node">
<title>Node8</title>
<g id="a_node8"><a xlink:href="namespacextb__xtb__calculator.html#a75c96263c235c99dfeeda3e865f9898c" target="_top" xlink:title=" ">
<polygon fill="white" stroke="black" points="137.5,-77 137.5,-107 232.5,-107 232.5,-77 137.5,-77"/>
<text text-anchor="start" x="145.5" y="-95" font-family="Helvetica,sans-Serif" font-size="10.00">xtb_xtb_calculator</text>
<text text-anchor="middle" x="185" y="-84" font-family="Helvetica,sans-Serif" font-size="10.00">::singlepoint</text>
</a>
</g>
</g>
<!-- Node7&#45;&gt;Node8 -->
<g id="edge7" class="edge">
<title>Node7&#45;&gt;Node8</title>
<path fill="none" stroke="midnightblue" d="M284.31,-76.66C267.99,-79.21 249.3,-82.12 232.63,-84.72"/>
<polygon fill="midnightblue" stroke="midnightblue" points="285.31,-80.05 294.65,-75.05 284.23,-73.13 285.31,-80.05"/>
</g>
<!-- Node9 -->
<g id="node9" class="node">
<title>Node9</title>
<g id="a_node9"><a xlink:href="TESTSUITE_2gfn1_8f90.html#ab5cc37cef2d483d9d9cde17aa03c55a8" target="_top" xlink:title=" ">
<polygon fill="white" stroke="black" points="146,-38.5 146,-57.5 224,-57.5 224,-38.5 146,-38.5"/>
<text text-anchor="middle" x="185" y="-45.5" font-family="Helvetica,sans-Serif" font-size="10.00">test_gfn1_scc</text>
</a>
</g>
</g>
<!-- Node7&#45;&gt;Node9 -->
<g id="edge8" class="edge">
<title>Node7&#45;&gt;Node9</title>
<path fill="none" stroke="midnightblue" d="M284.66,-63.39C265.44,-60.4 242.89,-56.88 224.2,-53.96"/>
<polygon fill="midnightblue" stroke="midnightblue" points="284.23,-66.87 294.65,-64.95 285.31,-59.95 284.23,-66.87"/>
</g>
<!-- Node11 -->
<g id="node11" class="node">
<title>Node11</title>
<g id="a_node11"><a xlink:href="TESTSUITE_2gfn2_8f90.html#af47afba0207cbca2dc950fb5e339ce03" target="_top" xlink:title=" ">
<polygon fill="white" stroke="black" points="146,-0.5 146,-19.5 224,-19.5 224,-0.5 146,-0.5"/>
<text text-anchor="middle" x="185" y="-7.5" font-family="Helvetica,sans-Serif" font-size="10.00">test_gfn2_scc</text>
</a>
</g>
</g>
<!-- Node7&#45;&gt;Node11 -->
<g id="edge10" class="edge">
<title>Node7&#45;&gt;Node11</title>
<path fill="none" stroke="midnightblue" d="M300.23,-55.56C284.18,-47.22 263.22,-36.85 244,-29 235.66,-25.6 226.47,-22.36 217.9,-19.55"/>
<polygon fill="midnightblue" stroke="midnightblue" points="299.05,-58.9 309.53,-60.46 302.31,-52.7 299.05,-58.9"/>
</g>
<!-- Node10 -->
<g id="node10" class="node">
<title>Node10</title>
<g id="a_node10"><a xlink:href="tests__peeq_8f90.html#a87ff5319e0d2e627a4f71d7df0d14891" target="_top" xlink:title=" ">
<polygon fill="white" stroke="black" points="11,-19.5 11,-38.5 79,-38.5 79,-19.5 11,-19.5"/>
<text text-anchor="middle" x="45" y="-26.5" font-family="Helvetica,sans-Serif" font-size="10.00">peeq_tester</text>
</a>
</g>
</g>
<!-- Node9&#45;&gt;Node10 -->
<g id="edge9" class="edge">
<title>Node9&#45;&gt;Node10</title>
<path fill="none" stroke="midnightblue" d="M135.82,-41.37C117.14,-38.79 96.21,-35.91 79.26,-33.58"/>
<polygon fill="midnightblue" stroke="midnightblue" points="135.54,-44.86 145.93,-42.76 136.5,-37.93 135.54,-44.86"/>
</g>
<!-- Node11&#45;&gt;Node10 -->
<g id="edge11" class="edge">
<title>Node11&#45;&gt;Node10</title>
<path fill="none" stroke="midnightblue" d="M135.82,-16.63C117.14,-19.21 96.21,-22.09 79.26,-24.42"/>
<polygon fill="midnightblue" stroke="midnightblue" points="136.5,-20.07 145.93,-15.24 135.54,-13.14 136.5,-20.07"/>
</g>
</g>
</svg>
        <g id="navigator" transform="translate(0 0)" fill="#404254">
                <rect fill="#f2f5e9" fill-opacity="0.5" stroke="#606060" stroke-width=".5" x="0" y="0" width="60" height="60"/>
                <use id="zoomplus" xlink:href="#zoomPlus" x="17" y="9" onmousedown="handleZoom(evt,'in')"/>
                <use id="zoomminus" xlink:href="#zoomMin" x="42" y="9" onmousedown="handleZoom(evt,'out')"/>
                <use id="reset" xlink:href="#resetDef" x="30" y="36" onmousedown="handleReset()"/>
                <g id="arrowUp" xlink:href="#dirArrow" transform="translate(30 24)" onmousedown="handlePan(0,-1)">
                  <use xlink:href="#rim" fill="#404040">
                        <set attributeName="fill" to="#808080" begin="arrowUp.mouseover" end="arrowUp.mouseout"/>
                  </use>
                  <path fill="none" stroke="white" stroke-width="1.5" d="M0,-3.0v7 M-2.5,-0.5L0,-3.0L2.5,-0.5"/>
                </g>
                <g id="arrowRight" xlink:href="#dirArrow" transform="rotate(90) translate(36 -43)" onmousedown="handlePan(1,0)">
                  <use xlink:href="#rim" fill="#404040">
                        <set attributeName="fill" to="#808080" begin="arrowRight.mouseover" end="arrowRight.mouseout"/>
                  </use>
                  <path fill="none" stroke="white" stroke-width="1.5" d="M0,-3.0v7 M-2.5,-0.5L0,-3.0L2.5,-0.5"/>
                </g>
                <g id="arrowDown" xlink:href="#dirArrow" transform="rotate(180) translate(-30 -48)" onmousedown="handlePan(0,1)">
                  <use xlink:href="#rim" fill="#404040">
                        <set attributeName="fill" to="#808080" begin="arrowDown.mouseover" end="arrowDown.mouseout"/>
                  </use>
                  <path fill="none" stroke="white" stroke-width="1.5" d="M0,-3.0v7 M-2.5,-0.5L0,-3.0L2.5,-0.5"/>
                </g>
                <g id="arrowLeft" xlink:href="#dirArrow" transform="rotate(270) translate(-36 17)" onmousedown="handlePan(-1,0)">
                  <use xlink:href="#rim" fill="#404040">
                        <set attributeName="fill" to="#808080" begin="arrowLeft.mouseover" end="arrowLeft.mouseout"/>
                  </use>
                  <path fill="none" stroke="white" stroke-width="1.5" d="M0,-3.0v7 M-2.5,-0.5L0,-3.0L2.5,-0.5"/>
                </g>
        </g>
        <svg viewBox="0 0 15 15" width="100%" height="30px" preserveAspectRatio="xMaxYMin meet">
         <g id="arrow_out" transform="scale(0.3 0.3)">
          <a xlink:href="timing_8f90_a35192cebf2b56f90aa4e0ee45121eb44_icgraph_org.svg" target="_base">
           <rect id="button" ry="5" rx="5" y="6" x="6" height="38" width="38"
                fill="#f2f5e9" fill-opacity="0.5" stroke="#606060" stroke-width="1.0"/>
           <path id="arrow"
             d="M 11.500037,31.436501 C 11.940474,20.09759 22.043105,11.32322 32.158766,21.979434 L 37.068811,17.246167 C 37.068811,17.246167 37.088388,32 37.088388,32 L 22.160133,31.978069 C 22.160133,31.978069 26.997745,27.140456 26.997745,27.140456 C 18.528582,18.264221 13.291696,25.230495 11.500037,31.436501 z"
             style="fill:#404040;"/>
          </a>
         </g>
        </svg>
</svg>
