<?xml version="1.0" encoding="UTF-8" standalone="no"?>
<!DOCTYPE svg PUBLIC "-//W3C//DTD SVG 1.1//EN"
 "http://www.w3.org/Graphics/SVG/1.1/DTD/svg11.dtd">
<!-- Generated by graphviz version 2.43.0 (0)
 -->
<!-- Title: prtime Pages: 1 -->
<svg width="183pt" height="66pt"
 viewBox="0.00 0.00 183.00 66.00" xmlns="http://www.w3.org/2000/svg" xmlns:xlink="http://www.w3.org/1999/xlink">
<g id="graph0" class="graph" transform="scale(1 1) rotate(0) translate(4 62)">
<title>prtime</title>
<polygon fill="white" stroke="transparent" points="-4,4 -4,-62 179,-62 179,4 -4,4"/>
<!-- Node1 -->
<g id="node1" class="node">
<title>Node1</title>
<g id="a_node1"><a xlink:title=" ">
<polygon fill="#bfbfbf" stroke="black" points="126,-19.5 126,-38.5 175,-38.5 175,-19.5 126,-19.5"/>
<text text-anchor="middle" x="150.5" y="-26.5" font-family="Helvetica,sans-Serif" font-size="10.00">prtime</text>
</a>
</g>
</g>
<!-- Node2 -->
<g id="node2" class="node">
<title>Node2</title>
<g id="a_node2"><a xlink:href="namespacextb__cube.html#a082b453eb3db25cf47d7a7d128c99f25" target="_top" xlink:title=" ">
<polygon fill="white" stroke="black" points="0,-38.5 0,-57.5 90,-57.5 90,-38.5 0,-38.5"/>
<text text-anchor="middle" x="45" y="-45.5" font-family="Helvetica,sans-Serif" font-size="10.00">xtb_cube::cube</text>
</a>
</g>
</g>
<!-- Node1&#45;&gt;Node2 -->
<g id="edge1" class="edge">
<title>Node1&#45;&gt;Node2</title>
<path fill="none" stroke="midnightblue" d="M115.89,-35.17C107.76,-36.66 98.94,-38.28 90.39,-39.85"/>
<polygon fill="midnightblue" stroke="midnightblue" points="116.55,-38.61 125.76,-33.36 115.29,-31.72 116.55,-38.61"/>
</g>
<!-- Node3 -->
<g id="node3" class="node">
<title>Node3</title>
<g id="a_node3"><a xlink:href="namespacextb__local.html#a6aafec43f9ac7235a5dfd2c36ed1f56b" target="_top" xlink:title=" ">
<polygon fill="white" stroke="black" points="0,-0.5 0,-19.5 90,-19.5 90,-0.5 0,-0.5"/>
<text text-anchor="middle" x="45" y="-7.5" font-family="Helvetica,sans-Serif" font-size="10.00">xtb_local::local</text>
</a>
</g>
</g>
<!-- Node1&#45;&gt;Node3 -->
<g id="edge2" class="edge">
<title>Node1&#45;&gt;Node3</title>
<path fill="none" stroke="midnightblue" d="M115.89,-22.83C107.76,-21.34 98.94,-19.72 90.39,-18.15"/>
<polygon fill="midnightblue" stroke="midnightblue" points="115.29,-26.28 125.76,-24.64 116.55,-19.39 115.29,-26.28"/>
</g>
</g>
</svg>
