<?xml version="1.0" encoding="UTF-8" standalone="no"?>
<!DOCTYPE svg PUBLIC "-//W3C//DTD SVG 1.1//EN"
 "http://www.w3.org/Graphics/SVG/1.1/DTD/svg11.dtd">
<!-- Generated by graphviz version 2.46.1 (20210215.1649)
 -->
<!-- Title: wrmodef Pages: 1 -->
<svg width="765pt" height="256pt"
 viewBox="0.00 0.00 765.00 256.00" xmlns="http://www.w3.org/2000/svg" xmlns:xlink="http://www.w3.org/1999/xlink">
<g id="graph0" class="graph" transform="scale(1 1) rotate(0) translate(4 252)">
<title>wrmodef</title>
<polygon fill="white" stroke="transparent" points="-4,4 -4,-252 761,-252 761,4 -4,4"/>
<!-- Node1 -->
<g id="node1" class="node">
<title>Node1</title>
<g id="a_node1"><a xlink:title=" ">
<polygon fill="#bfbfbf" stroke="black" points="0,-114.5 0,-133.5 54,-133.5 54,-114.5 0,-114.5"/>
<text text-anchor="middle" x="27" y="-121.5" font-family="Helvetica,sans-Serif" font-size="10.00">wrmodef</text>
</a>
</g>
</g>
<!-- Node2 -->
<g id="node2" class="node">
<title>Node2</title>
<g id="a_node2"><a xlink:href="namespacextb__intmodes.html#a5305d5027ebe669fa49e70d59d9e1029" target="_top" xlink:title=" ">
<polygon fill="white" stroke="black" points="90,-228.5 90,-247.5 195,-247.5 195,-228.5 90,-228.5"/>
<text text-anchor="middle" x="142.5" y="-235.5" font-family="Helvetica,sans-Serif" font-size="10.00">xtb_intmodes::bzmat</text>
</a>
</g>
</g>
<!-- Node1&#45;&gt;Node2 -->
<g id="edge1" class="edge">
<title>Node1&#45;&gt;Node2</title>
<path fill="none" stroke="midnightblue" d="M32.47,-133.65C41.22,-151.62 62.18,-190.48 90,-214 94.49,-217.79 99.68,-221.12 105,-224"/>
<polygon fill="midnightblue" stroke="midnightblue" points="103.45,-227.14 113.97,-228.4 106.54,-220.85 103.45,-227.14"/>
</g>
<!-- Node7 -->
<g id="node7" class="node">
<title>Node7</title>
<g id="a_node7"><a xlink:href="namespacextb__intmodes.html#adbfcb1031b643ffd8818f3e5069c40d9" target="_top" xlink:title=" ">
<polygon fill="white" stroke="black" points="231,-190.5 231,-209.5 334,-209.5 334,-190.5 231,-190.5"/>
<text text-anchor="middle" x="282.5" y="-197.5" font-family="Helvetica,sans-Serif" font-size="10.00">xtb_intmodes::xyzint</text>
</a>
</g>
</g>
<!-- Node1&#45;&gt;Node7 -->
<g id="edge15" class="edge">
<title>Node1&#45;&gt;Node7</title>
<path fill="none" stroke="midnightblue" d="M40.04,-133.8C51.99,-143.02 71.2,-156.5 90,-164 131.97,-180.73 182.27,-189.81 220.79,-194.66"/>
<polygon fill="midnightblue" stroke="midnightblue" points="220.47,-198.14 230.82,-195.86 221.31,-191.19 220.47,-198.14"/>
</g>
<!-- Node8 -->
<g id="node8" class="node">
<title>Node8</title>
<g id="a_node8"><a xlink:href="filetools_8F90.html#abe40c19bea97456da4d616af69059aeb" target="_top" xlink:title=" ">
<polygon fill="white" stroke="black" points="254,-152.5 254,-171.5 311,-171.5 311,-152.5 254,-152.5"/>
<text text-anchor="middle" x="282.5" y="-159.5" font-family="Helvetica,sans-Serif" font-size="10.00">close_file</text>
</a>
</g>
</g>
<!-- Node1&#45;&gt;Node8 -->
<g id="edge8" class="edge">
<title>Node1&#45;&gt;Node8</title>
<path fill="none" stroke="midnightblue" d="M54.25,-133.31C65.18,-136.85 78.08,-140.61 90,-143 142.7,-153.58 204.79,-158.37 243.65,-160.46"/>
<polygon fill="midnightblue" stroke="midnightblue" points="243.81,-163.97 253.97,-160.98 244.16,-156.98 243.81,-163.97"/>
</g>
<!-- Node9 -->
<g id="node9" class="node">
<title>Node9</title>
<g id="a_node9"><a xlink:href="wrmodef_8f90.html#a804f248e04703b875e9d86050dc7a3ec" target="_top" xlink:title=" ">
<polygon fill="white" stroke="black" points="117,-114.5 117,-133.5 168,-133.5 168,-114.5 117,-114.5"/>
<text text-anchor="middle" x="142.5" y="-121.5" font-family="Helvetica,sans-Serif" font-size="10.00">g98fake</text>
</a>
</g>
</g>
<!-- Node1&#45;&gt;Node9 -->
<g id="edge9" class="edge">
<title>Node1&#45;&gt;Node9</title>
<path fill="none" stroke="midnightblue" d="M54.04,-124C69.65,-124 89.69,-124 106.65,-124"/>
<polygon fill="midnightblue" stroke="midnightblue" points="106.75,-127.5 116.75,-124 106.75,-120.5 106.75,-127.5"/>
</g>
<!-- Node10 -->
<g id="node10" class="node">
<title>Node10</title>
<g id="a_node10"><a xlink:href="filetools_8F90.html#a68160ec369d61855ea12b180c7ce8c21" target="_top" xlink:title=" ">
<polygon fill="white" stroke="black" points="255,-95.5 255,-114.5 310,-114.5 310,-95.5 255,-95.5"/>
<text text-anchor="middle" x="282.5" y="-102.5" font-family="Helvetica,sans-Serif" font-size="10.00">open_file</text>
</a>
</g>
</g>
<!-- Node1&#45;&gt;Node10 -->
<g id="edge13" class="edge">
<title>Node1&#45;&gt;Node10</title>
<path fill="none" stroke="midnightblue" d="M53.25,-114.4C64.34,-110.67 77.64,-106.85 90,-105 143.35,-97.01 205.99,-99.15 244.72,-101.78"/>
<polygon fill="midnightblue" stroke="midnightblue" points="244.76,-105.3 254.99,-102.53 245.27,-98.32 244.76,-105.3"/>
</g>
<!-- Node11 -->
<g id="node11" class="node">
<title>Node11</title>
<g id="a_node11"><a xlink:href="filetools_8F90.html#a3b178f7f1f1e22ef97fda0ce2bb8e608" target="_top" xlink:title=" ">
<polygon fill="white" stroke="black" points="108.5,-38.5 108.5,-57.5 176.5,-57.5 176.5,-38.5 108.5,-38.5"/>
<text text-anchor="middle" x="142.5" y="-45.5" font-family="Helvetica,sans-Serif" font-size="10.00">open_binary</text>
</a>
</g>
</g>
<!-- Node1&#45;&gt;Node11 -->
<g id="edge12" class="edge">
<title>Node1&#45;&gt;Node11</title>
<path fill="none" stroke="midnightblue" d="M37.88,-114.28C49.61,-103.11 70.09,-84.68 90,-72 95.81,-68.3 102.29,-64.83 108.64,-61.74"/>
<polygon fill="midnightblue" stroke="midnightblue" points="110.15,-64.9 117.74,-57.51 107.2,-58.55 110.15,-64.9"/>
</g>
<!-- Node12 -->
<g id="node12" class="node">
<title>Node12</title>
<g id="a_node12"><a xlink:href="qsort_8f90.html#ae4f9c8baf3ca1ba168e51848d421579c" target="_top" xlink:title=" ">
<polygon fill="white" stroke="black" points="123.5,-0.5 123.5,-19.5 161.5,-19.5 161.5,-0.5 123.5,-0.5"/>
<text text-anchor="middle" x="142.5" y="-7.5" font-family="Helvetica,sans-Serif" font-size="10.00">qsort</text>
</a>
</g>
</g>
<!-- Node1&#45;&gt;Node12 -->
<g id="edge14" class="edge">
<title>Node1&#45;&gt;Node12</title>
<path fill="none" stroke="midnightblue" d="M31.77,-114.47C39.72,-95.53 59.97,-52.94 90,-29 96.89,-23.51 105.51,-19.51 113.73,-16.63"/>
<polygon fill="midnightblue" stroke="midnightblue" points="114.86,-19.95 123.39,-13.66 112.81,-13.26 114.86,-19.95"/>
</g>
<!-- Node3 -->
<g id="node3" class="node">
<title>Node3</title>
<g id="a_node3"><a xlink:href="namespacextb__intmodes.html#a02e6ee5024597e693272a4d07b93255a" target="_top" xlink:title=" ">
<polygon fill="white" stroke="black" points="370,-209.5 370,-228.5 478,-228.5 478,-209.5 370,-209.5"/>
<text text-anchor="middle" x="424" y="-216.5" font-family="Helvetica,sans-Serif" font-size="10.00">xtb_intmodes::xyzgeo</text>
</a>
</g>
</g>
<!-- Node2&#45;&gt;Node3 -->
<g id="edge2" class="edge">
<title>Node2&#45;&gt;Node3</title>
<path fill="none" stroke="midnightblue" d="M195.09,-234.49C241.57,-231.33 310.05,-226.68 359.81,-223.3"/>
<polygon fill="midnightblue" stroke="midnightblue" points="360.07,-226.79 369.81,-222.62 359.6,-219.8 360.07,-226.79"/>
</g>
<!-- Node2&#45;&gt;Node7 -->
<g id="edge6" class="edge">
<title>Node2&#45;&gt;Node7</title>
<path fill="none" stroke="midnightblue" d="M178.32,-228.41C196.14,-223.51 218.02,-217.48 237.04,-212.24"/>
<polygon fill="midnightblue" stroke="midnightblue" points="237.98,-215.62 246.69,-209.59 236.12,-208.87 237.98,-215.62"/>
</g>
<!-- Node4 -->
<g id="node4" class="node">
<title>Node4</title>
<g id="a_node4"><a xlink:href="namespacextb__intmodes.html#a2319a6467dc790a7f6157f25a331ae95" target="_top" xlink:title=" ">
<polygon fill="white" stroke="black" points="514,-228.5 514,-247.5 621,-247.5 621,-228.5 514,-228.5"/>
<text text-anchor="middle" x="567.5" y="-235.5" font-family="Helvetica,sans-Serif" font-size="10.00">xtb_intmodes::bangle</text>
</a>
</g>
</g>
<!-- Node3&#45;&gt;Node4 -->
<g id="edge3" class="edge">
<title>Node3&#45;&gt;Node4</title>
<path fill="none" stroke="midnightblue" d="M478.09,-226.13C486.43,-227.25 495.13,-228.42 503.66,-229.56"/>
<polygon fill="midnightblue" stroke="midnightblue" points="503.2,-233.03 513.58,-230.89 504.14,-226.09 503.2,-233.03"/>
</g>
<!-- Node5 -->
<g id="node5" class="node">
<title>Node5</title>
<g id="a_node5"><a xlink:href="namespacextb__intmodes.html#a8f66f8bd3e86779b19c8ab4c55f9b805" target="_top" xlink:title=" ">
<polygon fill="white" stroke="black" points="516.5,-190.5 516.5,-209.5 618.5,-209.5 618.5,-190.5 516.5,-190.5"/>
<text text-anchor="middle" x="567.5" y="-197.5" font-family="Helvetica,sans-Serif" font-size="10.00">xtb_intmodes::dihed</text>
</a>
</g>
</g>
<!-- Node3&#45;&gt;Node5 -->
<g id="edge4" class="edge">
<title>Node3&#45;&gt;Node5</title>
<path fill="none" stroke="midnightblue" d="M478.09,-211.87C487.31,-210.63 496.95,-209.34 506.33,-208.08"/>
<polygon fill="midnightblue" stroke="midnightblue" points="506.94,-211.53 516.39,-206.73 506.01,-204.59 506.94,-211.53"/>
</g>
<!-- Node6 -->
<g id="node6" class="node">
<title>Node6</title>
<g id="a_node6"><a xlink:href="namespacextb__intmodes.html#ad7e4a46c34d25501731d350f2ed11e6d" target="_top" xlink:title=" ">
<polygon fill="white" stroke="black" points="657,-190.5 657,-209.5 757,-209.5 757,-190.5 657,-190.5"/>
<text text-anchor="middle" x="707" y="-197.5" font-family="Helvetica,sans-Serif" font-size="10.00">xtb_intmodes::dang</text>
</a>
</g>
</g>
<!-- Node5&#45;&gt;Node6 -->
<g id="edge5" class="edge">
<title>Node5&#45;&gt;Node6</title>
<path fill="none" stroke="midnightblue" d="M618.53,-200C627.66,-200 637.28,-200 646.65,-200"/>
<polygon fill="midnightblue" stroke="midnightblue" points="646.7,-203.5 656.7,-200 646.7,-196.5 646.7,-203.5"/>
</g>
<!-- Node7&#45;&gt;Node3 -->
<g id="edge7" class="edge">
<title>Node7&#45;&gt;Node3</title>
<path fill="none" stroke="midnightblue" d="M334.26,-206.91C342.54,-208.04 351.22,-209.22 359.76,-210.39"/>
<polygon fill="midnightblue" stroke="midnightblue" points="359.32,-213.86 369.7,-211.74 360.26,-206.92 359.32,-213.86"/>
</g>
<!-- Node9&#45;&gt;Node8 -->
<g id="edge10" class="edge">
<title>Node9&#45;&gt;Node8</title>
<path fill="none" stroke="midnightblue" d="M168.17,-130.79C189.2,-136.58 219.76,-145 243.84,-151.63"/>
<polygon fill="midnightblue" stroke="midnightblue" points="243.15,-155.07 253.72,-154.35 245.01,-148.32 243.15,-155.07"/>
</g>
<!-- Node9&#45;&gt;Node10 -->
<g id="edge11" class="edge">
<title>Node9&#45;&gt;Node10</title>
<path fill="none" stroke="midnightblue" d="M168.17,-120.6C189.47,-117.67 220.55,-113.39 244.77,-110.06"/>
<polygon fill="midnightblue" stroke="midnightblue" points="245.26,-113.52 254.69,-108.69 244.3,-106.59 245.26,-113.52"/>
</g>
</g>
</svg>
