<?xml version="1.0" encoding="UTF-8" standalone="no"?>
<!DOCTYPE svg PUBLIC "-//W3C//DTD SVG 1.1//EN"
 "http://www.w3.org/Graphics/SVG/1.1/DTD/svg11.dtd">
<!-- Generated by graphviz version 2.46.1 (20210215.1649)
 -->
<!-- Title: g98fake Pages: 1 -->
<svg width="152pt" height="66pt"
 viewBox="0.00 0.00 152.00 66.00" xmlns="http://www.w3.org/2000/svg" xmlns:xlink="http://www.w3.org/1999/xlink">
<g id="graph0" class="graph" transform="scale(1 1) rotate(0) translate(4 62)">
<title>g98fake</title>
<polygon fill="white" stroke="transparent" points="-4,4 -4,-62 148,-62 148,4 -4,4"/>
<!-- Node1 -->
<g id="node1" class="node">
<title>Node1</title>
<g id="a_node1"><a xlink:title=" ">
<polygon fill="#bfbfbf" stroke="black" points="0,-19.5 0,-38.5 51,-38.5 51,-19.5 0,-19.5"/>
<text text-anchor="middle" x="25.5" y="-26.5" font-family="Helvetica,sans-Serif" font-size="10.00">g98fake</text>
</a>
</g>
</g>
<!-- Node2 -->
<g id="node2" class="node">
<title>Node2</title>
<g id="a_node2"><a xlink:href="filetools_8F90.html#abe40c19bea97456da4d616af69059aeb" target="_top" xlink:title=" ">
<polygon fill="white" stroke="black" points="87,-38.5 87,-57.5 144,-57.5 144,-38.5 87,-38.5"/>
<text text-anchor="middle" x="115.5" y="-45.5" font-family="Helvetica,sans-Serif" font-size="10.00">close_file</text>
</a>
</g>
</g>
<!-- Node1&#45;&gt;Node2 -->
<g id="edge1" class="edge">
<title>Node1&#45;&gt;Node2</title>
<path fill="none" stroke="midnightblue" d="M51.01,-34.29C58.98,-36.01 68.02,-37.96 76.72,-39.84"/>
<polygon fill="midnightblue" stroke="midnightblue" points="76.19,-43.31 86.71,-42 77.67,-36.47 76.19,-43.31"/>
</g>
<!-- Node3 -->
<g id="node3" class="node">
<title>Node3</title>
<g id="a_node3"><a xlink:href="filetools_8F90.html#a68160ec369d61855ea12b180c7ce8c21" target="_top" xlink:title=" ">
<polygon fill="white" stroke="black" points="88,-0.5 88,-19.5 143,-19.5 143,-0.5 88,-0.5"/>
<text text-anchor="middle" x="115.5" y="-7.5" font-family="Helvetica,sans-Serif" font-size="10.00">open_file</text>
</a>
</g>
</g>
<!-- Node1&#45;&gt;Node3 -->
<g id="edge2" class="edge">
<title>Node1&#45;&gt;Node3</title>
<path fill="none" stroke="midnightblue" d="M51.01,-23.71C59.36,-21.9 68.89,-19.85 77.97,-17.89"/>
<polygon fill="midnightblue" stroke="midnightblue" points="78.92,-21.26 87.96,-15.73 77.45,-14.42 78.92,-21.26"/>
</g>
</g>
</svg>
